<?xml version="1.0" encoding="utf-8"?>
<svg xmlns="http://www.w3.org/2000/svg" width="60.96mm" height="100.00mm" viewBox="0 0 60.96 100.00">
    <g id="PanelLayer">
        <defs>
            <linearGradient id="gradient_fric" x1="0" y1="32" x2="0" y2="89.5" gradientUnits="userSpaceOnUse">
                <stop style="stop-color:#5754c4;stop-opacity:1;" offset="0" />
                <stop style="stop-color:#4f8df2;stop-opacity:1;" offset="1" />
            </linearGradient>
            <linearGradient id="gradient_stif" x1="0" y1="89.5" x2="0" y2="32" gradientUnits="userSpaceOnUse">
                <stop style="stop-color:#0060f9;stop-opacity:1;" offset="0" />
                <stop style="stop-color:#4f8df2;stop-opacity:1;" offset="1" />
            </linearGradient>
            <linearGradient id="gradient_span" x1="0" y1="32" x2="0" y2="89.5" gradientUnits="userSpaceOnUse">
                <stop style="stop-color:#976de4;stop-opacity:1;" offset="0" />
                <stop style="stop-color:#4f8df2;stop-opacity:1;" offset="1" />
            </linearGradient>
            <linearGradient id="gradient_curl" x1="0" y1="89.5" x2="0" y2="32" gradientUnits="userSpaceOnUse">
                <stop style="stop-color:#0081d7;stop-opacity:1;" offset="0" />
                <stop style="stop-color:#4f8df2;stop-opacity:1;" offset="1" />
            </linearGradient>
            <linearGradient id="gradient_mass" x1="0" y1="32" x2="0" y2="89.5" gradientUnits="userSpaceOnUse">
                <stop style="stop-color:#29aab4;stop-opacity:1;" offset="0" />
                <stop style="stop-color:#4f8df2;stop-opacity:1;" offset="1" />
            </linearGradient>
            <linearGradient id="gradient_power" x1="0" y1="112.5" x2="0" y2="90" gradientUnits="userSpaceOnUse">
                <stop style="stop-color:#b9818b;stop-opacity:1;" offset="0" />
                <stop style="stop-color:#4f8df2;stop-opacity:1;" offset="1" />
            </linearGradient>
        </defs>
        <rect id="border_rect" width="60.96" height="128.5" x="0" y="0" style="display:inline;fill:#4f8df2;fill-opacity:1;fill-rule:nonzero;stroke:#5021d4;stroke-width:0.7;stroke-linecap:round;stroke-linejoin:round;stroke-dasharray:none;stroke-opacity:1;image-rendering:auto" />
        <path id="model_name" d="M20.8756 7.35962Q20.8756 7.41395 20.8446 7.45276Q20.5885 7.79425 20.2082 8.01156Q19.8279 8.22887 19.3933 8.22887Q18.8112 8.22887 18.361 7.98051Q17.9109 7.73216 17.6586 7.27425Q17.4064 6.81635 17.4064 6.21098Q17.4064 5.59009 17.6509 5.12054Q17.8954 4.651 18.2989 4.40264Q18.7025 4.15429 19.1604 4.15429Q19.6183 4.15429 20.0103 4.35219Q20.4022 4.5501 20.6506 4.94592Q20.8989 5.34174 20.9144 5.92382Q20.9144 5.98591 20.8679 6.03636Q20.8213 6.0868 20.7592 6.0868H17.7091V6.1877Q17.7091 6.66889 17.9031 7.06858Q18.0971 7.46828 18.4774 7.70111Q18.8577 7.93395 19.3933 7.93395Q19.7658 7.93395 20.0956 7.75156Q20.4255 7.56917 20.6117 7.28977Q20.6661 7.21992 20.7437 7.21992Q20.798 7.21992 20.8368 7.26261Q20.8756 7.3053 20.8756 7.35962ZM17.7401 5.79188H20.5962V5.72203Q20.5574 5.32621 20.344 5.04293Q20.1306 4.75965 19.8162 4.61219Q19.5019 4.46473 19.1604 4.46473Q18.8733 4.46473 18.5745 4.61607Q18.2757 4.76741 18.0467 5.06622Q17.8177 5.36502 17.7401 5.79188ZM22.1252 8.15126Q22.0553 8.15126 22.0126 8.10469Q21.9699 8.05812 21.9699 7.99604V2.56326Q21.9699 2.50117 22.0165 2.4546Q22.0631 2.40804 22.1252 2.40804Q22.195 2.40804 22.2377 2.4546Q22.2804 2.50117 22.2804 2.56326V7.99604Q22.2804 8.05812 22.2338 8.10469Q22.1873 8.15126 22.1252 8.15126ZM26.9371 4.43369V7.99604Q26.9371 8.05812 26.8905 8.10469Q26.8439 8.15126 26.7818 8.15126Q26.712 8.15126 26.6693 8.10469Q26.6266 8.05812 26.6266 7.99604V7.29754Q26.4326 7.69335 26.029 7.96111Q25.6254 8.22887 25.1365 8.22887Q24.6242 8.22887 24.2129 7.96111Q23.8016 7.69335 23.5687 7.22381Q23.3359 6.75426 23.3359 6.17217Q23.3359 5.59785 23.5726 5.13607Q23.8093 4.67428 24.2207 4.41428Q24.632 4.15429 25.1365 4.15429Q25.6409 4.15429 26.0445 4.41816Q26.4481 4.68204 26.6266 5.12443V4.43369Q26.6266 4.3716 26.6693 4.32503Q26.712 4.27846 26.7818 4.27846Q26.8517 4.27846 26.8944 4.32503Q26.9371 4.3716 26.9371 4.43369ZM26.6577 6.17217Q26.6577 5.69875 26.4636 5.30293Q26.2696 4.90711 25.9242 4.67816Q25.5789 4.44921 25.152 4.44921Q24.7251 4.44921 24.3798 4.6704Q24.0344 4.89159 23.8404 5.28353Q23.6463 5.67546 23.6463 6.17217Q23.6463 6.66889 23.8404 7.07246Q24.0344 7.47604 24.3759 7.70499Q24.7174 7.93395 25.152 7.93395Q25.5789 7.93395 25.9242 7.70499Q26.2696 7.47604 26.4636 7.07246Q26.6577 6.66889 26.6577 6.17217ZM27.9538 7.38291Q27.9538 7.32858 28.0158 7.28201Q28.0547 7.24321 28.109 7.24321Q28.1866 7.24321 28.2332 7.3053Q28.6833 7.94947 29.4905 7.94947Q29.9018 7.94947 30.2122 7.7438Q30.5227 7.53813 30.5227 7.18888Q30.5227 6.83187 30.251 6.65336Q29.9794 6.47486 29.506 6.35844Q28.8773 6.20322 28.5164 5.94322Q28.1555 5.68323 28.1555 5.2098Q28.1555 4.75189 28.5203 4.45309Q28.8851 4.15429 29.4594 4.15429Q29.7776 4.15429 30.0919 4.27846Q30.4063 4.40264 30.6624 4.67428Q30.7167 4.72085 30.7167 4.78294Q30.7167 4.85279 30.6624 4.90711Q30.6003 4.93816 30.5615 4.93816Q30.5072 4.93816 30.4684 4.89159Q30.0648 4.44921 29.4284 4.44921Q29.017 4.44921 28.7338 4.651Q28.4505 4.85279 28.4505 5.2098Q28.4738 5.54352 28.757 5.72591Q29.0403 5.9083 29.5914 6.048Q29.9872 6.14889 30.2472 6.26919Q30.5072 6.38949 30.6624 6.6068Q30.8176 6.82411 30.8176 7.17336Q30.8176 7.66231 30.4412 7.94559Q30.0648 8.22887 29.4594 8.22887Q28.5746 8.22887 28.0081 7.53037Q27.9538 7.445 27.9538 7.38291ZM33.4253 4.39488Q33.4253 4.45697 33.3827 4.49966Q33.34 4.54234 33.2779 4.54234H32.4242V7.3053Q32.4242 7.64679 32.5445 7.75932Q32.6648 7.87186 32.851 7.87186Q32.8821 7.87186 32.9403 7.85634Q32.9985 7.84081 33.0373 7.84081Q33.0916 7.84081 33.1304 7.8835Q33.1692 7.92619 33.1692 7.98051Q33.1692 8.05036 33.0761 8.10081Q32.983 8.15126 32.8588 8.15126Q32.6648 8.15126 32.5328 8.12409Q32.4009 8.09693 32.2573 7.91454Q32.1137 7.73216 32.1137 7.32082V4.54234H31.4773Q31.423 4.54234 31.3764 4.49578Q31.3298 4.44921 31.3298 4.39488Q31.3298 4.33279 31.3725 4.29011Q31.4152 4.24742 31.4773 4.24742H32.1137V3.26176Q32.1137 3.19967 32.1603 3.1531Q32.2068 3.10654 32.2689 3.10654Q32.3388 3.10654 32.3815 3.1531Q32.4242 3.19967 32.4242 3.26176V4.24742H33.2779Q33.3322 4.24742 33.3788 4.29399Q33.4253 4.34055 33.4253 4.39488ZM34.442 8.15126Q34.3722 8.15126 34.3295 8.10469Q34.2868 8.05812 34.2868 7.99604V4.30951Q34.2868 4.24742 34.3334 4.20085Q34.38 4.15429 34.442 4.15429Q34.5119 4.15429 34.5546 4.20085Q34.5973 4.24742 34.5973 4.30951V7.99604Q34.5973 8.05812 34.5507 8.10469Q34.5041 8.15126 34.442 8.15126ZM34.1704 3.37818V3.31609Q34.1704 3.20743 34.248 3.13758Q34.3256 3.06773 34.4498 3.06773Q34.5585 3.06773 34.6322 3.13758Q34.7059 3.20743 34.7059 3.31609V3.37818Q34.7059 3.48683 34.6322 3.55668Q34.5585 3.62653 34.442 3.62653Q34.3179 3.62653 34.2441 3.55668Q34.1704 3.48683 34.1704 3.37818ZM38.9745 7.99604Q38.9745 8.06589 38.9163 8.10857Q38.8581 8.15126 38.8193 8.15126Q38.7572 8.15126 38.7029 8.09693L36.8868 6.16441L36.2349 6.70769V7.99604Q36.2349 8.05812 36.1922 8.10469Q36.1495 8.15126 36.0796 8.15126Q36.0098 8.15126 35.9671 8.10469Q35.9244 8.05812 35.9244 7.99604V2.56326Q35.9244 2.50117 35.9671 2.4546Q36.0098 2.40804 36.0796 2.40804Q36.1495 2.40804 36.1922 2.4546Q36.2349 2.50117 36.2349 2.56326V6.31964L38.6719 4.27846Q38.7184 4.2319 38.7727 4.2319Q38.8348 4.2319 38.8814 4.27846Q38.928 4.32503 38.928 4.39488Q38.928 4.46473 38.8736 4.5113L37.1274 5.96262L38.928 7.87962Q38.9745 7.92619 38.9745 7.99604ZM43.282 4.43369V7.99604Q43.282 8.05812 43.2354 8.10469Q43.1888 8.15126 43.1267 8.15126Q43.0569 8.15126 43.0142 8.10469Q42.9715 8.05812 42.9715 7.99604V7.29754Q42.7775 7.69335 42.3739 7.96111Q41.9703 8.22887 41.4814 8.22887Q40.9691 8.22887 40.5578 7.96111Q40.1465 7.69335 39.9136 7.22381Q39.6808 6.75426 39.6808 6.17217Q39.6808 5.59785 39.9175 5.13607Q40.1542 4.67428 40.5656 4.41428Q40.9769 4.15429 41.4814 4.15429Q41.9858 4.15429 42.3894 4.41816Q42.793 4.68204 42.9715 5.12443V4.43369Q42.9715 4.3716 43.0142 4.32503Q43.0569 4.27846 43.1267 4.27846Q43.1966 4.27846 43.2393 4.32503Q43.282 4.3716 43.282 4.43369ZM43.0026 6.17217Q43.0026 5.69875 42.8085 5.30293Q42.6145 4.90711 42.2691 4.67816Q41.9238 4.44921 41.4969 4.44921Q41.07 4.44921 40.7247 4.6704Q40.3793 4.89159 40.1853 5.28353Q39.9912 5.67546 39.9912 6.17217Q39.9912 6.66889 40.1853 7.07246Q40.3793 7.47604 40.7208 7.70499Q41.0623 7.93395 41.4969 7.93395Q41.9238 7.93395 42.2691 7.70499Q42.6145 7.47604 42.8085 7.07246Q43.0026 6.66889 43.0026 6.17217Z" style="display:inline;stroke:#000000;stroke-width:0.35;stroke-linecap:round;stroke-linejoin:bevel" />
        <g id="sapphire_insignia">
            <path id="brand_name" d="M15.5864 96.2753Q15.5864 96.2209 15.6485 96.1744Q15.6873 96.1356 15.7417 96.1356Q15.8193 96.1356 15.8658 96.1976Q16.316 96.8418 17.1231 96.8418Q17.5345 96.8418 17.8449 96.6361Q18.1554 96.4305 18.1554 96.0812Q18.1554 95.7242 17.8837 95.5457Q17.6121 95.3672 17.1387 95.2508Q16.51 95.0956 16.1491 94.8356Q15.7882 94.5756 15.7882 94.1021Q15.7882 93.6442 16.153 93.3454Q16.5178 93.0466 17.0921 93.0466Q17.4103 93.0466 17.7246 93.1708Q18.0389 93.295 18.2951 93.5666Q18.3494 93.6132 18.3494 93.6753Q18.3494 93.7451 18.2951 93.7995Q18.233 93.8305 18.1942 93.8305Q18.1398 93.8305 18.101 93.7839Q17.6975 93.3416 17.061 93.3416Q16.6497 93.3416 16.3664 93.5433Q16.0831 93.7451 16.0831 94.1021Q16.1064 94.4359 16.3897 94.6183Q16.673 94.8006 17.224 94.9403Q17.6198 95.0412 17.8798 95.1615Q18.1398 95.2818 18.2951 95.4991Q18.4503 95.7165 18.4503 96.0657Q18.4503 96.5547 18.0739 96.8379Q17.6975 97.1212 17.0921 97.1212Q16.2073 97.1212 15.6408 96.4227Q15.5864 96.3373 15.5864 96.2753ZM22.7965 93.326V96.8884Q22.7965 96.9505 22.7499 96.997Q22.7034 97.0436 22.6413 97.0436Q22.5714 97.0436 22.5287 96.997Q22.4861 96.9505 22.4861 96.8884V96.1899Q22.292 96.5857 21.8885 96.8535Q21.4849 97.1212 20.9959 97.1212Q20.4837 97.1212 20.0724 96.8535Q19.661 96.5857 19.4282 96.1162Q19.1953 95.6466 19.1953 95.0645Q19.1953 94.4902 19.4321 94.0284Q19.6688 93.5666 20.0801 93.3066Q20.4915 93.0466 20.9959 93.0466Q21.5004 93.0466 21.904 93.3105Q22.3076 93.5744 22.4861 94.0168V93.326Q22.4861 93.2639 22.5287 93.2174Q22.5714 93.1708 22.6413 93.1708Q22.7111 93.1708 22.7538 93.2174Q22.7965 93.2639 22.7965 93.326ZM22.5171 95.0645Q22.5171 94.5911 22.3231 94.1953Q22.129 93.7995 21.7837 93.5705Q21.4383 93.3416 21.0114 93.3416Q20.5846 93.3416 20.2392 93.5627Q19.8938 93.7839 19.6998 94.1759Q19.5058 94.5678 19.5058 95.0645Q19.5058 95.5612 19.6998 95.9648Q19.8938 96.3684 20.2353 96.5973Q20.5768 96.8263 21.0114 96.8263Q21.4383 96.8263 21.7837 96.5973Q22.129 96.3684 22.3231 95.9648Q22.5171 95.5612 22.5171 95.0645ZM27.686 95.1033Q27.686 95.6621 27.4493 96.1162Q27.2126 96.5702 26.8012 96.8302Q26.3899 97.0902 25.8854 97.0902Q25.4198 97.0902 25.0317 96.8573Q24.6436 96.6245 24.3953 96.1976V98.4406Q24.3953 98.5027 24.3526 98.5493Q24.3099 98.5958 24.2401 98.5958Q24.178 98.5958 24.1314 98.5493Q24.0848 98.5027 24.0848 98.4406V93.2795Q24.0848 93.2174 24.1275 93.1708Q24.1702 93.1242 24.2401 93.1242Q24.3099 93.1242 24.3526 93.1708Q24.3953 93.2174 24.3953 93.2795V93.9935Q24.6281 93.5511 25.0162 93.3377Q25.4042 93.1242 25.8854 93.1242Q26.3977 93.1242 26.809 93.3804Q27.2203 93.6365 27.4532 94.0866Q27.686 94.5368 27.686 95.1033ZM27.3756 95.1033Q27.3756 94.6221 27.1776 94.238Q26.9797 93.8538 26.6383 93.6365Q26.2968 93.4192 25.8699 93.4192Q25.4353 93.4192 25.0899 93.6326Q24.7445 93.846 24.5544 94.2302Q24.3642 94.6144 24.3642 95.1033Q24.3642 95.5923 24.5544 95.9765Q24.7445 96.3606 25.0899 96.5779Q25.4353 96.7953 25.8699 96.7953Q26.2968 96.7953 26.6383 96.5779Q26.9797 96.3606 27.1776 95.9726Q27.3756 95.5845 27.3756 95.1033ZM32.3039 95.1033Q32.3039 95.6621 32.0671 96.1162Q31.8304 96.5702 31.4191 96.8302Q31.0078 97.0902 30.5033 97.0902Q30.0376 97.0902 29.6496 96.8573Q29.2615 96.6245 29.0132 96.1976V98.4406Q29.0132 98.5027 28.9705 98.5493Q28.9278 98.5958 28.8579 98.5958Q28.7958 98.5958 28.7493 98.5493Q28.7027 98.5027 28.7027 98.4406V93.2795Q28.7027 93.2174 28.7454 93.1708Q28.7881 93.1242 28.8579 93.1242Q28.9278 93.1242 28.9705 93.1708Q29.0132 93.2174 29.0132 93.2795V93.9935Q29.246 93.5511 29.634 93.3377Q30.0221 93.1242 30.5033 93.1242Q31.0155 93.1242 31.4269 93.3804Q31.8382 93.6365 32.071 94.0866Q32.3039 94.5368 32.3039 95.1033ZM31.9934 95.1033Q31.9934 94.6221 31.7955 94.238Q31.5976 93.8538 31.2561 93.6365Q30.9146 93.4192 30.4878 93.4192Q30.0531 93.4192 29.7078 93.6326Q29.3624 93.846 29.1723 94.2302Q28.9821 94.6144 28.9821 95.1033Q28.9821 95.5923 29.1723 95.9765Q29.3624 96.3606 29.7078 96.5779Q30.0531 96.7953 30.4878 96.7953Q30.9146 96.7953 31.2561 96.5779Q31.5976 96.3606 31.7955 95.9726Q31.9934 95.5845 31.9934 95.1033ZM36.394 94.6221V96.8884Q36.394 96.9505 36.3474 96.997Q36.3008 97.0436 36.2387 97.0436Q36.1689 97.0436 36.1262 96.997Q36.0835 96.9505 36.0835 96.8884V94.6221Q36.0835 94.0866 35.8196 93.7529Q35.5558 93.4192 35.0125 93.4192Q34.6788 93.4192 34.3567 93.5822Q34.0346 93.7451 33.8328 94.0245Q33.631 94.3039 33.631 94.6221V96.8884Q33.631 96.9505 33.5844 96.997Q33.5379 97.0436 33.4758 97.0436Q33.4059 97.0436 33.3633 96.997Q33.3206 96.9505 33.3206 96.8884V91.4556Q33.3206 91.3935 33.3671 91.347Q33.4137 91.3004 33.4758 91.3004Q33.5456 91.3004 33.5883 91.347Q33.631 91.3935 33.631 91.4556V93.9081Q33.8483 93.5666 34.2325 93.3454Q34.6167 93.1242 35.0125 93.1242Q35.6799 93.1242 36.037 93.5472Q36.394 93.9702 36.394 94.6221ZM37.8375 97.0436Q37.7677 97.0436 37.725 96.997Q37.6823 96.9505 37.6823 96.8884V93.2019Q37.6823 93.1398 37.7289 93.0932Q37.7754 93.0466 37.8375 93.0466Q37.9074 93.0466 37.9501 93.0932Q37.9928 93.1398 37.9928 93.2019V96.8884Q37.9928 96.9505 37.9462 96.997Q37.8996 97.0436 37.8375 97.0436ZM37.5659 92.2705V92.2084Q37.5659 92.0998 37.6435 92.0299Q37.7211 91.9601 37.8453 91.9601Q37.954 91.9601 38.0277 92.0299Q38.1014 92.0998 38.1014 92.2084V92.2705Q38.1014 92.3792 38.0277 92.449Q37.954 92.5189 37.8375 92.5189Q37.7134 92.5189 37.6396 92.449Q37.5659 92.3792 37.5659 92.2705ZM41.3921 93.2251Q41.3921 93.295 41.3533 93.3416Q41.3145 93.3881 41.2524 93.3881Q41.2291 93.3881 41.1399 93.3532Q41.0506 93.3183 40.9497 93.3183Q40.6315 93.3183 40.3133 93.5705Q39.9951 93.8227 39.7933 94.2069Q39.5915 94.5911 39.5915 94.9481V96.8884Q39.5915 96.9505 39.545 96.997Q39.4984 97.0436 39.4363 97.0436Q39.3665 97.0436 39.3238 96.997Q39.2811 96.9505 39.2811 96.8884V93.326Q39.2811 93.2639 39.3277 93.2174Q39.3742 93.1708 39.4363 93.1708Q39.5062 93.1708 39.5489 93.2174Q39.5915 93.2639 39.5915 93.326V94.1487Q39.7701 93.6753 40.1465 93.3648Q40.5229 93.0544 41.0351 93.0466Q41.3921 93.0466 41.3921 93.2251ZM45.3348 96.252Q45.3348 96.3063 45.3037 96.3451Q45.0476 96.6866 44.6673 96.9039Q44.287 97.1212 43.8524 97.1212Q43.2703 97.1212 42.8202 96.8729Q42.37 96.6245 42.1178 96.1666Q41.8656 95.7087 41.8656 95.1033Q41.8656 94.4824 42.11 94.0129Q42.3545 93.5433 42.7581 93.295Q43.1617 93.0466 43.6196 93.0466Q44.0775 93.0466 44.4694 93.2445Q44.8613 93.4425 45.1097 93.8383Q45.3581 94.2341 45.3736 94.8162Q45.3736 94.8783 45.327 94.9287Q45.2804 94.9792 45.2184 94.9792H42.1682V95.08Q42.1682 95.5612 42.3623 95.9609Q42.5563 96.3606 42.9366 96.5935Q43.3169 96.8263 43.8524 96.8263Q44.2249 96.8263 44.5548 96.6439Q44.8846 96.4615 45.0709 96.1821Q45.1252 96.1123 45.2028 96.1123Q45.2572 96.1123 45.296 96.155Q45.3348 96.1976 45.3348 96.252ZM42.1993 94.6842H45.0554V94.6144Q45.0166 94.2186 44.8031 93.9353Q44.5897 93.652 44.2754 93.5045Q43.9611 93.3571 43.6196 93.3571Q43.3324 93.3571 43.0336 93.5084Q42.7348 93.6598 42.5058 93.9586Q42.2769 94.2574 42.1993 94.6842Z" style="fill:#000000;stroke:#000000;stroke-width:0.265;stroke-linecap:square" />
            <g id="gemstones" style="stroke-width:0;fill:#0000ff;stroke:#2e2114;stroke-linecap:square;stroke-opacity:1">
                <path d="m 12.930,94.400 q 0,0.34175 -0.242534,0.63114 -0.0441,0.0524 -0.20395,0.21497 -0.187413,0.19017 -0.785481,0.81304 l -1.444183,1.51309 q -0.01929,0.003 -0.0441,0.003 -0.02756,0 -0.04134,-0.003 -0.08268,-0.0827 -0.647678,-0.67524 -0.468532,-0.47404 -0.934309,-0.94809 -0.556727,-0.56775 -0.89848,-0.98116 -0.132292,-0.15985 -0.168121,-0.29766 -0.02756,-0.10197 -0.02756,-0.34175 0,-0.11024 0.07166,-0.28939 0.06614,-0.16536 0.140559,-0.26458 0.118512,-0.1571 0.42168,-0.42444 0.283875,-0.2508 0.474044,-0.37482 0.272852,-0.17915 0.818555,-0.36656 0.09646,-0.0331 0.110243,-0.0331 h 1.3615 q 0.01102,0 0.104731,0.0331 0.567751,0.20119 0.824066,0.36656 0.165365,0.10473 0.474045,0.37758 0.322461,0.28388 0.421679,0.42168 0.214974,0.2949 0.214974,0.62563 z m -0.16812,-0.27285 q -0.03307,-0.10749 -0.135048,-0.30868 -0.07166,-0.0937 -0.209462,-0.19844 -0.118511,-0.0854 -0.234266,-0.17088 0.245291,0.3638 0.578776,0.678 z m -0.573264,-0.52366 -0.358289,-0.44648 v 0.41065 z m 0.636653,0.75792 q 0,-0.0524 -0.341753,-0.39412 l 0.228754,0.7028 h 0.04961 q 0.06339,-0.21773 0.06339,-0.30868 z m -0.23151,0.27285 -0.316948,-0.90399 -0.410655,-0.0634 -0.159853,0.61461 z m 0.0028,0.15434 -0.771701,-0.3197 h -0.03032 l 0.344509,0.60634 q 0.07993,-0.003 0.234266,-0.0469 0.02481,-0.0138 0.223242,-0.23978 z m -0.857139,-1.05006 -0.719335,0.28388 0.60358,0.22599 z m 0,-0.16261 v -0.51538 l -0.917773,-0.38034 h -1.223697 l -0.917772,0.38034 v 0.51538 l 0.89848,0.4079 h 1.254014 z m 0.573264,1.53789 q -0.0689,0.011 -0.198438,0.0524 -0.08544,0.0551 -0.259071,0.16261 0.01929,0 0.06339,0.003 0.04134,0 0.06339,0 0.118511,0 0.190169,-0.0689 0.07166,-0.0717 0.14056,-0.14883 z m -0.289388,0.003 -0.347266,-0.63114 -0.363801,0.87918 q 0.0248,-0.0165 0.06615,-0.0165 0.03032,0 0.08544,0.011 0.05788,0.008 0.08819,0.008 0.04961,0 0.228754,-0.10749 0.228754,-0.1378 0.242535,-0.14331 z m -0.440972,-0.74139 -0.683507,-0.2756 -0.592556,0.54845 0.903993,0.65595 z m -0.854383,-0.28387 h -1.036284 l 0.523654,0.47404 z m 0.749652,1.36701 q -0.228754,-0.0303 -0.228754,-0.0303 -0.03583,0 -0.272851,0.0937 l 0.190169,0.0193 q 0.01102,0 0.311436,-0.0827 z m -0.388606,-0.0882 -0.843359,-0.61185 v 0.67524 l 0.471289,0.0827 z m 0.854383,0.0496 q -0.09922,0.006 -0.2949,0.0386 -0.01102,0.003 -0.377583,0.17639 -0.129535,0.34726 -0.380338,1.0418 z m -2.543857,-1.39733 -0.719335,-0.28388 0.124023,0.51814 z m -0.802018,-0.45476 v -0.41065 l -0.366557,0.44648 z m 1.515841,1.07212 -0.592556,-0.54019 -0.683506,0.2756 0.380338,0.9288 z m 0.369314,0.94257 q -0.03307,-0.003 -0.135047,-0.0248 -0.08544,-0.0165 -0.137804,-0.0165 -0.05237,0 -0.137804,0.0165 -0.101975,0.0221 -0.135047,0.0248 0.264583,0.0469 0.272851,0.0469 0.0083,0 0.272851,-0.0469 z m -0.30868,-0.1378 v -0.68626 l -0.843359,0.61185 0.37207,0.14607 z m 0.950846,0.20671 -0.396875,-0.0551 -0.479557,0.14056 v 1.27607 z m -2.888366,-2.20211 q -0.118512,0.0854 -0.234267,0.17364 -0.146072,0.10748 -0.209461,0.19568 -0.0441,0.10473 -0.135048,0.31419 0.369314,-0.3638 0.578776,-0.68351 z m 0.476801,0.83234 -0.159853,-0.61461 -0.410655,0.0634 -0.316948,0.90399 z m 0.394118,1.08313 -0.363802,-0.87918 -0.355533,0.63114 q 0.43546,0.2508 0.451996,0.2508 0.09095,0 0.267339,-0.003 z m 1.821765,0.82958 q -0.132291,0.21222 -0.405143,0.6339 -0.07717,0.10749 -0.220486,0.32797 -0.05788,0.10473 -0.05512,0.226 0.159852,-0.15158 0.432704,-0.49609 0.07717,-0.12954 0.140559,-0.339 0.05512,-0.17639 0.107486,-0.35278 z m -1.493792,-0.66146 -0.270095,-0.0882 -0.0083,-0.011 q -0.02481,0 -0.107487,0.011 -0.06615,0.006 -0.107487,0.006 0.272851,0.091 0.311436,0.091 0.02481,0 0.181901,-0.008 z m -0.810286,-1.06384 h -0.03032 l -0.7717,0.3197 q 0.06615,0.0965 0.223242,0.23978 0.07717,0.0138 0.234266,0.0469 z m -0.689018,-0.50161 q -0.341754,0.34727 -0.341754,0.39412 0,0.0799 0.06339,0.30868 h 0.04961 z m 2.235176,3.04547 v -1.27607 l -0.479557,-0.14056 -0.396875,0.0551 z m -1.606791,-1.6757 q -0.256315,-0.1819 -0.457509,-0.22324 0.06615,0.0772 0.20395,0.22324 z m 1.609547,2.04501 v -0.1378 l -0.683507,-1.05007 q 0.05237,0.17639 0.107487,0.35278 0.06339,0.20946 0.14056,0.339 0.0689,0.11851 0.20395,0.25907 0.115755,0.11851 0.23151,0.23702 z m -0.644921,-0.70555 q -0.115756,-0.32798 -0.380339,-1.0418 -0.135047,-0.0662 -0.272851,-0.12954 -0.159852,-0.0716 -0.289388,-0.0716 -0.05237,0 -0.110243,-0.0138 z" />
                <path d="m 53.460,94.400 q 0,0.34175 -0.242534,0.63114 -0.0441,0.0524 -0.20395,0.21497 -0.187413,0.19017 -0.785481,0.81304 l -1.444183,1.51309 q -0.01929,0.003 -0.0441,0.003 -0.02756,0 -0.04134,-0.003 -0.08268,-0.0827 -0.647678,-0.67524 -0.468532,-0.47404 -0.934309,-0.94809 -0.556727,-0.56775 -0.89848,-0.98116 -0.132292,-0.15985 -0.168121,-0.29766 -0.02756,-0.10197 -0.02756,-0.34175 0,-0.11024 0.07166,-0.28939 0.06614,-0.16536 0.140559,-0.26458 0.118512,-0.1571 0.42168,-0.42444 0.283875,-0.2508 0.474044,-0.37482 0.272852,-0.17915 0.818555,-0.36656 0.09646,-0.0331 0.110243,-0.0331 h 1.3615 q 0.01102,0 0.104731,0.0331 0.567751,0.20119 0.824066,0.36656 0.165365,0.10473 0.474045,0.37758 0.322461,0.28388 0.421679,0.42168 0.214974,0.2949 0.214974,0.62563 z m -0.16812,-0.27285 q -0.03307,-0.10749 -0.135048,-0.30868 -0.07166,-0.0937 -0.209462,-0.19844 -0.118511,-0.0854 -0.234266,-0.17088 0.245291,0.3638 0.578776,0.678 z m -0.573264,-0.52366 -0.358289,-0.44648 v 0.41065 z m 0.636653,0.75792 q 0,-0.0524 -0.341753,-0.39412 l 0.228754,0.7028 h 0.04961 q 0.06339,-0.21773 0.06339,-0.30868 z m -0.23151,0.27285 -0.316948,-0.90399 -0.410655,-0.0634 -0.159853,0.61461 z m 0.0028,0.15434 -0.771701,-0.3197 h -0.03032 l 0.344509,0.60634 q 0.07993,-0.003 0.234266,-0.0469 0.02481,-0.0138 0.223242,-0.23978 z m -0.857139,-1.05006 -0.719335,0.28388 0.60358,0.22599 z m 0,-0.16261 v -0.51538 l -0.917773,-0.38034 h -1.223697 l -0.917772,0.38034 v 0.51538 l 0.89848,0.4079 h 1.254014 z m 0.573264,1.53789 q -0.0689,0.011 -0.198438,0.0524 -0.08544,0.0551 -0.259071,0.16261 0.01929,0 0.06339,0.003 0.04134,0 0.06339,0 0.118511,0 0.190169,-0.0689 0.07166,-0.0717 0.14056,-0.14883 z m -0.289388,0.003 -0.347266,-0.63114 -0.363801,0.87918 q 0.0248,-0.0165 0.06615,-0.0165 0.03032,0 0.08544,0.011 0.05788,0.008 0.08819,0.008 0.04961,0 0.228754,-0.10749 0.228754,-0.1378 0.242535,-0.14331 z m -0.440972,-0.74139 -0.683507,-0.2756 -0.592556,0.54845 0.903993,0.65595 z m -0.854383,-0.28387 h -1.036284 l 0.523654,0.47404 z m 0.749652,1.36701 q -0.228754,-0.0303 -0.228754,-0.0303 -0.03583,0 -0.272851,0.0937 l 0.190169,0.0193 q 0.01102,0 0.311436,-0.0827 z m -0.388606,-0.0882 -0.843359,-0.61185 v 0.67524 l 0.471289,0.0827 z m 0.854383,0.0496 q -0.09922,0.006 -0.2949,0.0386 -0.01102,0.003 -0.377583,0.17639 -0.129535,0.34726 -0.380338,1.0418 z m -2.543857,-1.39733 -0.719335,-0.28388 0.124023,0.51814 z m -0.802018,-0.45476 v -0.41065 l -0.366557,0.44648 z m 1.515841,1.07212 -0.592556,-0.54019 -0.683506,0.2756 0.380338,0.9288 z m 0.369314,0.94257 q -0.03307,-0.003 -0.135047,-0.0248 -0.08544,-0.0165 -0.137804,-0.0165 -0.05237,0 -0.137804,0.0165 -0.101975,0.0221 -0.135047,0.0248 0.264583,0.0469 0.272851,0.0469 0.0083,0 0.272851,-0.0469 z m -0.30868,-0.1378 v -0.68626 l -0.843359,0.61185 0.37207,0.14607 z m 0.950846,0.20671 -0.396875,-0.0551 -0.479557,0.14056 v 1.27607 z m -2.888366,-2.20211 q -0.118512,0.0854 -0.234267,0.17364 -0.146072,0.10748 -0.209461,0.19568 -0.0441,0.10473 -0.135048,0.31419 0.369314,-0.3638 0.578776,-0.68351 z m 0.476801,0.83234 -0.159853,-0.61461 -0.410655,0.0634 -0.316948,0.90399 z m 0.394118,1.08313 -0.363802,-0.87918 -0.355533,0.63114 q 0.43546,0.2508 0.451996,0.2508 0.09095,0 0.267339,-0.003 z m 1.821765,0.82958 q -0.132291,0.21222 -0.405143,0.6339 -0.07717,0.10749 -0.220486,0.32797 -0.05788,0.10473 -0.05512,0.226 0.159852,-0.15158 0.432704,-0.49609 0.07717,-0.12954 0.140559,-0.339 0.05512,-0.17639 0.107486,-0.35278 z m -1.493792,-0.66146 -0.270095,-0.0882 -0.0083,-0.011 q -0.02481,0 -0.107487,0.011 -0.06615,0.006 -0.107487,0.006 0.272851,0.091 0.311436,0.091 0.02481,0 0.181901,-0.008 z m -0.810286,-1.06384 h -0.03032 l -0.7717,0.3197 q 0.06615,0.0965 0.223242,0.23978 0.07717,0.0138 0.234266,0.0469 z m -0.689018,-0.50161 q -0.341754,0.34727 -0.341754,0.39412 0,0.0799 0.06339,0.30868 h 0.04961 z m 2.235176,3.04547 v -1.27607 l -0.479557,-0.14056 -0.396875,0.0551 z m -1.606791,-1.6757 q -0.256315,-0.1819 -0.457509,-0.22324 0.06615,0.0772 0.20395,0.22324 z m 1.609547,2.04501 v -0.1378 l -0.683507,-1.05007 q 0.05237,0.17639 0.107487,0.35278 0.06339,0.20946 0.14056,0.339 0.0689,0.11851 0.20395,0.25907 0.115755,0.11851 0.23151,0.23702 z m -0.644921,-0.70555 q -0.115756,-0.32798 -0.380339,-1.0418 -0.135047,-0.0662 -0.272851,-0.12954 -0.159852,-0.0716 -0.289388,-0.0716 -0.05237,0 -0.110243,-0.0138 z" />
            </g>
        </g>
        <g id="artwork_fric">
            <path id="boundary_fric" d="M 2.40,32.00 8.01,28.50 13.62,32.00 13.62,70.00 8.01,73.50 2.40,70.00 z" style="fill:url(#gradient_fric);fill-opacity:1;stroke:#000000;stroke-width:0.0;stroke-linecap:square" />
            <path d="M6.06796 62.8499Q6.06796 62.8817 6.04679 62.9011Q6.02563 62.9205 5.9974 62.9205H4.73799V63.8942H5.83865Q5.86688 63.8942 5.88804 63.9153Q5.90921 63.9365 5.90921 63.9647Q5.90921 63.9965 5.88804 64.0159Q5.86688 64.0353 5.83865 64.0353H4.73799V65.1783Q4.73799 65.2065 4.71858 65.2277Q4.69918 65.2488 4.66743 65.2488Q4.63568 65.2488 4.61628 65.2277Q4.59688 65.2065 4.59688 65.1783V62.8499Q4.59688 62.8217 4.61804 62.8006Q4.63921 62.7794 4.66743 62.7794H5.9974Q6.02563 62.7794 6.04679 62.8006Q6.06796 62.8217 6.06796 62.8499ZM8.39276 65.1748Q8.39276 65.2065 8.37336 65.2259Q8.35396 65.2453 8.32574 65.2453Q8.30457 65.2453 8.29399 65.2383Q8.19874 65.1853 8.14229 65.0601Q8.08585 64.9349 8.08585 64.6491Q8.08585 64.3598 7.93063 64.2522Q7.7754 64.1446 7.57079 64.1446H6.74529V65.1783Q6.74529 65.2065 6.72412 65.2277Q6.70296 65.2488 6.67121 65.2488Q6.63946 65.2488 6.61829 65.2277Q6.59713 65.2065 6.59713 65.1783V62.8499Q6.59713 62.8217 6.61829 62.8006Q6.63946 62.7794 6.66768 62.7794H7.59901Q7.80363 62.7794 7.96237 62.8623Q8.12112 62.9452 8.20932 63.0898Q8.29751 63.2345 8.29751 63.4179Q8.29751 63.6543 8.17228 63.8236Q8.04704 63.9929 7.84596 64.0529Q8.01529 64.1058 8.12465 64.2628Q8.23401 64.4198 8.23401 64.6491Q8.23401 64.8855 8.264 64.979Q8.29399 65.0724 8.35396 65.1112Q8.39276 65.1359 8.39276 65.1748ZM7.61665 64.0035Q7.8389 63.9824 7.99412 63.8271Q8.14935 63.6719 8.14935 63.4214Q8.14935 63.2027 7.99412 63.0616Q7.8389 62.9205 7.58137 62.9205H6.74529V64.0035ZM9.01365 65.2488Q8.97837 65.2488 8.95897 65.2277Q8.93957 65.2065 8.93957 65.1748V62.8535Q8.93957 62.8217 8.96074 62.8006Q8.9819 62.7794 9.01365 62.7794Q9.0454 62.7794 9.06657 62.8006Q9.08774 62.8217 9.08774 62.8535V65.1748Q9.08421 65.2065 9.06304 65.2277Q9.04187 65.2488 9.01365 65.2488ZM11.6524 63.0404Q11.6524 63.0687 11.6383 63.0863Q11.6172 63.1145 11.5854 63.1145Q11.5713 63.1145 11.5431 63.1004Q11.215 62.8782 10.8481 62.8782Q10.5518 62.8782 10.3031 63.0246Q10.0543 63.171 9.90971 63.4303Q9.76507 63.6896 9.76507 64.0141Q9.76507 64.3387 9.90971 64.598Q10.0543 64.8573 10.3031 65.0037Q10.5518 65.1501 10.8481 65.1501Q11.2185 65.1501 11.5395 64.9313Q11.5572 64.9172 11.5819 64.9172Q11.6172 64.9172 11.6383 64.9454Q11.6524 64.9631 11.6524 64.9878Q11.6524 65.0231 11.6242 65.0442Q11.4866 65.143 11.2697 65.2136Q11.0527 65.2841 10.8481 65.2841Q10.513 65.2841 10.2307 65.1183Q9.94851 64.9525 9.78271 64.6615Q9.6169 64.3704 9.6169 64.0141Q9.6169 63.6578 9.78271 63.3668Q9.94851 63.0757 10.2307 62.9099Q10.513 62.7441 10.8481 62.7441Q11.0598 62.7441 11.2591 62.8076Q11.4584 62.8711 11.6207 62.984Q11.6524 63.0087 11.6524 63.0404Z" style="stroke:#000000;stroke-width:0.25;stroke-linecap:round;stroke-linejoin:bevel" />
        </g>
        <g id="artwork_stif">
            <path id="boundary_stif" d="M 13.62,32.00 19.23,28.50 24.84,32.00 24.84,70.00 19.23,73.50 13.62,70.00 z" style="fill:url(#gradient_stif);fill-opacity:1;stroke:#000000;stroke-width:0.0;stroke-linecap:square" />
            <path d="M15.9262 64.9137Q15.9051 64.8925 15.9051 64.8608Q15.9051 64.8326 15.9298 64.8061Q15.9545 64.7796 15.9827 64.7796Q16.0144 64.7796 16.0427 64.8114Q16.1802 64.9737 16.369 65.0583Q16.5577 65.143 16.7658 65.143Q17.0375 65.143 17.2139 65.0125Q17.3903 64.8819 17.3903 64.6668Q17.3867 64.4974 17.2985 64.3881Q17.2103 64.2787 17.0816 64.2134Q16.9528 64.1482 16.7306 64.067Q16.4872 63.9753 16.3513 63.9048Q16.2155 63.8342 16.1185 63.7037Q16.0215 63.5731 16.0215 63.3615Q16.0215 63.1886 16.1167 63.0475Q16.212 62.9064 16.3884 62.8253Q16.5648 62.7441 16.7976 62.7441Q17.0057 62.7441 17.1927 62.82Q17.3797 62.8958 17.489 63.0334Q17.5243 63.0828 17.5243 63.1075Q17.5243 63.1357 17.4979 63.1586Q17.4714 63.1816 17.4397 63.1816Q17.4114 63.1816 17.3938 63.1604Q17.295 63.0334 17.1398 62.9593Q16.9846 62.8852 16.7976 62.8852Q16.5295 62.8852 16.3513 63.0122Q16.1732 63.1392 16.1732 63.3579Q16.1732 63.5096 16.2596 63.6155Q16.346 63.7213 16.4766 63.7866Q16.6071 63.8518 16.8011 63.9224Q17.0481 64.0106 17.1927 64.0847Q17.3373 64.1587 17.4397 64.2999Q17.542 64.441 17.542 64.6738Q17.542 64.8361 17.4467 64.9772Q17.3515 65.1183 17.1733 65.2012Q16.9952 65.2841 16.7658 65.2841Q16.5048 65.2841 16.3108 65.1942Q16.1167 65.1042 15.9262 64.9137ZM19.701 62.8464Q19.701 62.8782 19.6816 62.8958Q19.6622 62.9134 19.6304 62.9134H18.8437V65.1783Q18.8437 65.2065 18.8225 65.2277Q18.8014 65.2488 18.7732 65.2488Q18.7414 65.2488 18.722 65.2277Q18.7026 65.2065 18.7026 65.1783V62.9134H17.9159Q17.8877 62.9134 17.8665 62.894Q17.8453 62.8746 17.8453 62.8464Q17.8453 62.8182 17.8665 62.7988Q17.8877 62.7794 17.9159 62.7794H19.6304Q19.6586 62.7794 19.6798 62.7988Q19.701 62.8182 19.701 62.8464ZM20.2513 65.2488Q20.216 65.2488 20.1966 65.2277Q20.1772 65.2065 20.1772 65.1748V62.8535Q20.1772 62.8217 20.1984 62.8006Q20.2195 62.7794 20.2513 62.7794Q20.283 62.7794 20.3042 62.8006Q20.3254 62.8217 20.3254 62.8535V65.1748Q20.3218 65.2065 20.3007 65.2277Q20.2795 65.2488 20.2513 65.2488ZM22.502 62.8499Q22.502 62.8817 22.4808 62.9011Q22.4597 62.9205 22.4315 62.9205H21.172V63.8942H22.2727Q22.3009 63.8942 22.3221 63.9153Q22.3433 63.9365 22.3433 63.9647Q22.3433 63.9965 22.3221 64.0159Q22.3009 64.0353 22.2727 64.0353H21.172V65.1783Q21.172 65.2065 21.1526 65.2277Q21.1332 65.2488 21.1015 65.2488Q21.0697 65.2488 21.0503 65.2277Q21.0309 65.2065 21.0309 65.1783V62.8499Q21.0309 62.8217 21.0521 62.8006Q21.0733 62.7794 21.1015 62.7794H22.4315Q22.4597 62.7794 22.4808 62.8006Q22.502 62.8217 22.502 62.8499Z" style="stroke:#000000;stroke-width:0.25;stroke-linecap:round;stroke-linejoin:bevel" />
        </g>
        <g id="artwork_span">
            <path id="boundary_span" d="M 24.84,32.00 30.45,28.50 36.06,32.00 36.06,70.00 30.45,73.50 24.84,70.00 z" style="fill:url(#gradient_span);fill-opacity:1;stroke:#000000;stroke-width:0.0;stroke-linecap:square" />
            <path d="M26.1532 64.9137Q26.132 64.8925 26.132 64.8608Q26.132 64.8326 26.1567 64.8061Q26.1814 64.7796 26.2096 64.7796Q26.2414 64.7796 26.2696 64.8114Q26.4072 64.9737 26.5959 65.0583Q26.7846 65.143 26.9928 65.143Q27.2644 65.143 27.4408 65.0125Q27.6172 64.8819 27.6172 64.6668Q27.6137 64.4974 27.5255 64.3881Q27.4373 64.2787 27.3085 64.2134Q27.1798 64.1482 26.9575 64.067Q26.7141 63.9753 26.5783 63.9048Q26.4424 63.8342 26.3454 63.7037Q26.2484 63.5731 26.2484 63.3615Q26.2484 63.1886 26.3437 63.0475Q26.4389 62.9064 26.6153 62.8253Q26.7917 62.7441 27.0245 62.7441Q27.2327 62.7441 27.4196 62.82Q27.6066 62.8958 27.716 63.0334Q27.7513 63.0828 27.7513 63.1075Q27.7513 63.1357 27.7248 63.1586Q27.6983 63.1816 27.6666 63.1816Q27.6384 63.1816 27.6207 63.1604Q27.5219 63.0334 27.3667 62.9593Q27.2115 62.8852 27.0245 62.8852Q26.7564 62.8852 26.5783 63.0122Q26.4001 63.1392 26.4001 63.3579Q26.4001 63.5096 26.4865 63.6155Q26.573 63.7213 26.7035 63.7866Q26.834 63.8518 27.0281 63.9224Q27.275 64.0106 27.4196 64.0847Q27.5643 64.1587 27.6666 64.2999Q27.7689 64.441 27.7689 64.6738Q27.7689 64.8361 27.6736 64.9772Q27.5784 65.1183 27.4002 65.2012Q27.2221 65.2841 26.9928 65.2841Q26.7317 65.2841 26.5377 65.1942Q26.3437 65.1042 26.1532 64.9137ZM29.8856 63.4532Q29.8856 63.6508 29.8027 63.8113Q29.7198 63.9718 29.5681 64.0617Q29.4164 64.1517 29.2188 64.1517H28.4498V65.1783Q28.4498 65.2065 28.4268 65.2277Q28.4039 65.2488 28.3757 65.2488Q28.3439 65.2488 28.3227 65.2277Q28.3016 65.2065 28.3016 65.1783V62.8499Q28.3016 62.8217 28.3227 62.8006Q28.3439 62.7794 28.3721 62.7794H29.2188Q29.5187 62.7794 29.7021 62.9664Q29.8856 63.1533 29.8856 63.4532ZM29.7374 63.4532Q29.7374 63.2098 29.598 63.0651Q29.4587 62.9205 29.2188 62.9205H28.4498V64.0106H29.2188Q29.4552 64.0106 29.5963 63.8536Q29.7374 63.6966 29.7374 63.4532ZM32.2104 65.1818Q32.2104 65.2136 32.1892 65.2312Q32.168 65.2488 32.1363 65.2488Q32.1116 65.2488 32.0922 65.2365Q32.0728 65.2241 32.0657 65.203L31.7694 64.4763L31.7729 64.4833H30.5911L30.3054 65.203Q30.2877 65.2488 30.2419 65.2488Q30.2101 65.2488 30.1907 65.2312Q30.1713 65.2136 30.1678 65.1889Q30.1643 65.1748 30.1713 65.1536L31.1203 62.8182Q31.1309 62.79 31.1467 62.7812Q31.1626 62.7723 31.1873 62.7723Q31.2402 62.7723 31.2579 62.8182L32.2068 65.1536Q32.2104 65.1642 32.2104 65.1818ZM30.6476 64.3422H31.7165L31.1767 63.0122ZM34.5387 62.8464V65.1712Q34.5387 65.21 34.5175 65.2294Q34.4964 65.2488 34.4646 65.2488Q34.4293 65.2488 34.4082 65.2206L32.8207 63.051V65.1889Q32.8207 65.2136 32.8013 65.2312Q32.7819 65.2488 32.7536 65.2488Q32.7219 65.2488 32.7042 65.2312Q32.6866 65.2136 32.6866 65.1889V62.8499Q32.6866 62.8147 32.706 62.797Q32.7254 62.7794 32.7501 62.7794Q32.7819 62.7794 32.803 62.8041L34.4046 64.9878V62.8464Q34.4046 62.8182 34.424 62.7988Q34.4434 62.7794 34.4717 62.7794Q34.5034 62.7794 34.5211 62.7988Q34.5387 62.8182 34.5387 62.8464Z" style="stroke:#000000;stroke-width:0.25;stroke-linecap:round;stroke-linejoin:bevel" />
        </g>
        <g id="artwork_curl">
            <path id="boundary_curl" d="M 36.06,32.00 41.67,28.50 47.28,32.00 47.28,70.00 41.67,73.50 36.06,70.00 z" style="fill:url(#gradient_curl);fill-opacity:1;stroke:#000000;stroke-width:0.0;stroke-linecap:square" />
            <path d="M39.3611 63.0404Q39.3611 63.0687 39.347 63.0863Q39.3258 63.1145 39.294 63.1145Q39.2799 63.1145 39.2517 63.1004Q38.9236 62.8782 38.5567 62.8782Q38.2604 62.8782 38.0117 63.0246Q37.763 63.171 37.6183 63.4303Q37.4737 63.6896 37.4737 64.0141Q37.4737 64.3387 37.6183 64.598Q37.763 64.8573 38.0117 65.0037Q38.2604 65.1501 38.5567 65.1501Q38.9272 65.1501 39.2482 64.9313Q39.2658 64.9172 39.2905 64.9172Q39.3258 64.9172 39.347 64.9454Q39.3611 64.9631 39.3611 64.9878Q39.3611 65.0231 39.3328 65.0442Q39.1953 65.143 38.9783 65.2136Q38.7613 65.2841 38.5567 65.2841Q38.2216 65.2841 37.9394 65.1183Q37.6572 64.9525 37.4913 64.6615Q37.3255 64.3704 37.3255 64.0141Q37.3255 63.6578 37.4913 63.3668Q37.6572 63.0757 37.9394 62.9099Q38.2216 62.7441 38.5567 62.7441Q38.7684 62.7441 38.9677 62.8076Q39.167 62.8711 39.3293 62.984Q39.3611 63.0087 39.3611 63.0404ZM41.6541 62.8499V64.3739Q41.6541 64.6209 41.5307 64.829Q41.4072 65.0372 41.199 65.1606Q40.9909 65.2841 40.7475 65.2841Q40.5005 65.2841 40.2924 65.1606Q40.0843 65.0372 39.9608 64.829Q39.8373 64.6209 39.8373 64.3739V62.8499Q39.8373 62.8182 39.8585 62.7988Q39.8797 62.7794 39.9114 62.7794Q39.9432 62.7794 39.9643 62.8006Q39.9855 62.8217 39.9855 62.8499V64.3739Q39.9855 64.5821 40.0878 64.7585Q40.1901 64.9349 40.3647 65.0389Q40.5393 65.143 40.7475 65.143Q40.9556 65.143 41.1302 65.0389Q41.3049 64.9349 41.4089 64.7585Q41.513 64.5821 41.513 64.3739V62.8499Q41.513 62.8217 41.5324 62.8006Q41.5518 62.7794 41.5836 62.7794Q41.6153 62.7794 41.6347 62.8006Q41.6541 62.8217 41.6541 62.8499ZM44.1553 65.1748Q44.1553 65.2065 44.1359 65.2259Q44.1165 65.2453 44.0883 65.2453Q44.0671 65.2453 44.0565 65.2383Q43.9613 65.1853 43.9048 65.0601Q43.8484 64.9349 43.8484 64.6491Q43.8484 64.3598 43.6932 64.2522Q43.538 64.1446 43.3333 64.1446H42.5078V65.1783Q42.5078 65.2065 42.4867 65.2277Q42.4655 65.2488 42.4338 65.2488Q42.402 65.2488 42.3808 65.2277Q42.3597 65.2065 42.3597 65.1783V62.8499Q42.3597 62.8217 42.3808 62.8006Q42.402 62.7794 42.4302 62.7794H43.3616Q43.5662 62.7794 43.7249 62.8623Q43.8837 62.9452 43.9719 63.0898Q44.0601 63.2345 44.0601 63.4179Q44.0601 63.6543 43.9348 63.8236Q43.8096 63.9929 43.6085 64.0529Q43.7778 64.1058 43.8872 64.2628Q43.9966 64.4198 43.9966 64.6491Q43.9966 64.8855 44.0266 64.979Q44.0565 65.0724 44.1165 65.1112Q44.1553 65.1359 44.1553 65.1748ZM43.3792 64.0035Q43.6015 63.9824 43.7567 63.8271Q43.9119 63.6719 43.9119 63.4214Q43.9119 63.2027 43.7567 63.0616Q43.6015 62.9205 43.3439 62.9205H42.5078V64.0035ZM46.1379 65.1783Q46.1379 65.21 46.1168 65.2294Q46.0956 65.2488 46.0674 65.2488H44.7727Q44.7409 65.2488 44.7215 65.2277Q44.7021 65.2065 44.7021 65.1783V62.8499Q44.7021 62.8217 44.7233 62.8006Q44.7445 62.7794 44.7762 62.7794Q44.808 62.7794 44.8291 62.8006Q44.8503 62.8217 44.8503 62.8499V65.1077H46.0674Q46.0956 65.1077 46.1168 65.1289Q46.1379 65.1501 46.1379 65.1783Z" style="stroke:#000000;stroke-width:0.25;stroke-linecap:round;stroke-linejoin:bevel" />
        </g>
        <g id="artwork_mass">
            <path id="boundary_mass" d="M 47.28,32.00 52.89,28.50 58.50,32.00 58.50,70.00 52.89,73.50 47.28,70.00 z" style="fill:url(#gradient_mass);fill-opacity:1;stroke:#000000;stroke-width:0.0;stroke-linecap:square" />
            <path d="M50.9144 62.8499V65.1783Q50.9144 65.2065 50.8915 65.2277Q50.8686 65.2488 50.8404 65.2488Q50.8086 65.2488 50.7874 65.2277Q50.7663 65.2065 50.7663 65.1783V63.0687L49.8561 64.4445Q49.8385 64.4727 49.8067 64.4727Q49.7679 64.4727 49.7503 64.4445L48.8366 63.0651V65.1783Q48.8366 65.2065 48.8154 65.2277Q48.7943 65.2488 48.766 65.2488Q48.7343 65.2488 48.7149 65.2277Q48.6955 65.2065 48.6955 65.1783V62.8499Q48.6955 62.8253 48.7149 62.8023Q48.7343 62.7794 48.7625 62.7794Q48.8084 62.7794 48.8295 62.8111L49.8067 64.2646L50.7839 62.8111Q50.8121 62.7723 50.8509 62.7794Q50.8792 62.7829 50.8968 62.8023Q50.9144 62.8217 50.9144 62.8499ZM53.4333 65.1818Q53.4333 65.2136 53.4121 65.2312Q53.3909 65.2488 53.3592 65.2488Q53.3345 65.2488 53.3151 65.2365Q53.2957 65.2241 53.2886 65.203L52.9923 64.4763L52.9958 64.4833H51.814L51.5283 65.203Q51.5106 65.2488 51.4648 65.2488Q51.433 65.2488 51.4136 65.2312Q51.3942 65.2136 51.3907 65.1889Q51.3872 65.1748 51.3942 65.1536L52.3432 62.8182Q52.3538 62.79 52.3697 62.7812Q52.3855 62.7723 52.4102 62.7723Q52.4631 62.7723 52.4808 62.8182L53.4297 65.1536Q53.4333 65.1642 53.4333 65.1818ZM51.8705 64.3422H52.9394L52.3996 63.0122ZM53.7014 64.9137Q53.6802 64.8925 53.6802 64.8608Q53.6802 64.8326 53.7049 64.8061Q53.7296 64.7796 53.7578 64.7796Q53.7896 64.7796 53.8178 64.8114Q53.9554 64.9737 54.1441 65.0583Q54.3329 65.143 54.541 65.143Q54.8126 65.143 54.989 65.0125Q55.1654 64.8819 55.1654 64.6668Q55.1619 64.4974 55.0737 64.3881Q54.9855 64.2787 54.8567 64.2134Q54.728 64.1482 54.5057 64.067Q54.2623 63.9753 54.1265 63.9048Q53.9907 63.8342 53.8937 63.7037Q53.7966 63.5731 53.7966 63.3615Q53.7966 63.1886 53.8919 63.0475Q53.9871 62.9064 54.1635 62.8253Q54.3399 62.7441 54.5727 62.7441Q54.7809 62.7441 54.9679 62.82Q55.1548 62.8958 55.2642 63.0334Q55.2995 63.0828 55.2995 63.1075Q55.2995 63.1357 55.273 63.1586Q55.2466 63.1816 55.2148 63.1816Q55.1866 63.1816 55.1689 63.1604Q55.0702 63.0334 54.9149 62.9593Q54.7597 62.8852 54.5727 62.8852Q54.3046 62.8852 54.1265 63.0122Q53.9483 63.1392 53.9483 63.3579Q53.9483 63.5096 54.0348 63.6155Q54.1212 63.7213 54.2517 63.7866Q54.3822 63.8518 54.5763 63.9224Q54.8232 64.0106 54.9679 64.0847Q55.1125 64.1587 55.2148 64.2999Q55.3171 64.441 55.3171 64.6738Q55.3171 64.8361 55.2219 64.9772Q55.1266 65.1183 54.9485 65.2012Q54.7703 65.2841 54.541 65.2841Q54.2799 65.2841 54.0859 65.1942Q53.8919 65.1042 53.7014 64.9137ZM55.6417 64.9137Q55.6205 64.8925 55.6205 64.8608Q55.6205 64.8326 55.6452 64.8061Q55.6699 64.7796 55.6981 64.7796Q55.7299 64.7796 55.7581 64.8114Q55.8957 64.9737 56.0844 65.0583Q56.2731 65.143 56.4813 65.143Q56.7529 65.143 56.9293 65.0125Q57.1057 64.8819 57.1057 64.6668Q57.1022 64.4974 57.014 64.3881Q56.9258 64.2787 56.797 64.2134Q56.6683 64.1482 56.446 64.067Q56.2026 63.9753 56.0668 63.9048Q55.9309 63.8342 55.8339 63.7037Q55.7369 63.5731 55.7369 63.3615Q55.7369 63.1886 55.8322 63.0475Q55.9274 62.9064 56.1038 62.8253Q56.2802 62.7441 56.513 62.7441Q56.7212 62.7441 56.9081 62.82Q57.0951 62.8958 57.2045 63.0334Q57.2398 63.0828 57.2398 63.1075Q57.2398 63.1357 57.2133 63.1586Q57.1868 63.1816 57.1551 63.1816Q57.1269 63.1816 57.1092 63.1604Q57.0104 63.0334 56.8552 62.9593Q56.7 62.8852 56.513 62.8852Q56.2449 62.8852 56.0668 63.0122Q55.8886 63.1392 55.8886 63.3579Q55.8886 63.5096 55.975 63.6155Q56.0615 63.7213 56.192 63.7866Q56.3225 63.8518 56.5166 63.9224Q56.7635 64.0106 56.9081 64.0847Q57.0528 64.1587 57.1551 64.2999Q57.2574 64.441 57.2574 64.6738Q57.2574 64.8361 57.1621 64.9772Q57.0669 65.1183 56.8887 65.2012Q56.7106 65.2841 56.4813 65.2841Q56.2202 65.2841 56.0262 65.1942Q55.8322 65.1042 55.6417 64.9137Z" style="stroke:#000000;stroke-width:0.25;stroke-linecap:round;stroke-linejoin:bevel" />
        </g>
        <path d="M29.0089 18.8464Q29.0089 18.8782 28.9895 18.8958Q28.9701 18.9134 28.9384 18.9134H28.1517V21.1783Q28.1517 21.2065 28.1305 21.2277Q28.1093 21.2488 28.0811 21.2488Q28.0494 21.2488 28.03 21.2277Q28.0106 21.2065 28.0106 21.1783V18.9134H27.2239Q27.1956 18.9134 27.1745 18.894Q27.1533 18.8746 27.1533 18.8464Q27.1533 18.8182 27.1745 18.7988Q27.1956 18.7794 27.2239 18.7794H28.9384Q28.9666 18.7794 28.9877 18.7988Q29.0089 18.8182 29.0089 18.8464ZM29.5592 21.2488Q29.524 21.2488 29.5046 21.2277Q29.4852 21.2065 29.4852 21.1747V18.8535Q29.4852 18.8217 29.5063 18.8006Q29.5275 18.7794 29.5592 18.7794Q29.591 18.7794 29.6122 18.8006Q29.6333 18.8217 29.6333 18.8535V21.1747Q29.6298 21.2065 29.6086 21.2277Q29.5875 21.2488 29.5592 21.2488ZM31.7747 21.1783Q31.7747 21.21 31.7535 21.2294Q31.7324 21.2488 31.7041 21.2488H30.4094Q30.3777 21.2488 30.3583 21.2277Q30.3389 21.2065 30.3389 21.1783V18.8499Q30.3389 18.8217 30.3601 18.8006Q30.3812 18.7794 30.413 18.7794Q30.4447 18.7794 30.4659 18.8006Q30.4871 18.8217 30.4871 18.8499V21.1077H31.7041Q31.7324 21.1077 31.7535 21.1289Q31.7747 21.1501 31.7747 21.1783ZM33.8067 18.8464Q33.8067 18.8782 33.7873 18.8958Q33.7679 18.9134 33.7361 18.9134H32.9494V21.1783Q32.9494 21.2065 32.9283 21.2277Q32.9071 21.2488 32.8789 21.2488Q32.8471 21.2488 32.8277 21.2277Q32.8083 21.2065 32.8083 21.1783V18.9134H32.0216Q31.9934 18.9134 31.9722 18.894Q31.9511 18.8746 31.9511 18.8464Q31.9511 18.8182 31.9722 18.7988Q31.9934 18.7794 32.0216 18.7794H33.7361Q33.7644 18.7794 33.7855 18.7988Q33.8067 18.8182 33.8067 18.8464Z" style="stroke:#000000;stroke-width:0.25;stroke-linecap:round;stroke-linejoin:bevel" />
        <path id="tilt_hor_line" d="M 19.23,17.50 L 41.67,17.50 " style="stroke:#000000;stroke-width:0.25;stroke-linecap:round;stroke-linejoin:bevel;stroke-dasharray:none" fill="none" />
        <path d="M17.9512 27.2488Q17.9159 27.2488 17.8965 27.2277Q17.8771 27.2065 17.8771 27.1747V24.8535Q17.8771 24.8217 17.8983 24.8006Q17.9194 24.7794 17.9512 24.7794Q17.9829 24.7794 18.0041 24.8006Q18.0253 24.8217 18.0253 24.8535V27.1747Q18.0217 27.2065 18.0006 27.2277Q17.9794 27.2488 17.9512 27.2488ZM20.5829 24.8464V27.1712Q20.5829 27.21 20.5617 27.2294Q20.5406 27.2488 20.5088 27.2488Q20.4735 27.2488 20.4524 27.2206L18.8649 25.051V27.1889Q18.8649 27.2136 18.8455 27.2312Q18.8261 27.2488 18.7978 27.2488Q18.7661 27.2488 18.7485 27.2312Q18.7308 27.2136 18.7308 27.1889V24.8499Q18.7308 24.8147 18.7502 24.797Q18.7696 24.7794 18.7943 24.7794Q18.8261 24.7794 18.8472 24.8041L20.4488 26.9878V24.8464Q20.4488 24.8182 20.4682 24.7988Q20.4877 24.7794 20.5159 24.7794Q20.5476 24.7794 20.5653 24.7988Q20.5829 24.8182 20.5829 24.8464Z" style="stroke:#000000;stroke-width:0.25;stroke-linecap:round;stroke-linejoin:bevel" />
        <path d="M39.3575 27.2841Q39.0153 27.2841 38.7472 27.1236Q38.4791 26.9631 38.3292 26.6738Q38.1793 26.3845 38.1793 26.0141Q38.1793 25.6437 38.3292 25.3544Q38.4791 25.0651 38.7472 24.9046Q39.0153 24.7441 39.3575 24.7441Q39.6997 24.7441 39.9678 24.9046Q40.236 25.0651 40.3859 25.3544Q40.5358 25.6437 40.5358 26.0141Q40.5358 26.3845 40.3859 26.6738Q40.236 26.9631 39.9678 27.1236Q39.6997 27.2841 39.3575 27.2841ZM39.3575 24.8852Q39.0577 24.8852 38.8231 25.0263Q38.5885 25.1674 38.458 25.425Q38.3274 25.6825 38.3274 26.0141Q38.3274 26.3457 38.458 26.6032Q38.5885 26.8608 38.8231 27.0019Q39.0577 27.143 39.3575 27.143Q39.6574 27.143 39.892 27.0019Q40.1266 26.8608 40.2571 26.6032Q40.3877 26.3457 40.3877 26.0141Q40.3877 25.6825 40.2571 25.425Q40.1266 25.1674 39.892 25.0263Q39.6574 24.8852 39.3575 24.8852ZM42.8818 24.8499V26.3739Q42.8818 26.6209 42.7583 26.829Q42.6348 27.0372 42.4267 27.1606Q42.2186 27.2841 41.9752 27.2841Q41.7282 27.2841 41.5201 27.1606Q41.3119 27.0372 41.1885 26.829Q41.065 26.6209 41.065 26.3739V24.8499Q41.065 24.8182 41.0862 24.7988Q41.1073 24.7794 41.1391 24.7794Q41.1708 24.7794 41.192 24.8006Q41.2132 24.8217 41.2132 24.8499V26.3739Q41.2132 26.5821 41.3155 26.7585Q41.4178 26.9349 41.5924 27.0389Q41.767 27.143 41.9752 27.143Q42.1833 27.143 42.3579 27.0389Q42.5325 26.9349 42.6366 26.7585Q42.7407 26.5821 42.7407 26.3739V24.8499Q42.7407 24.8217 42.7601 24.8006Q42.7795 24.7794 42.8112 24.7794Q42.843 24.7794 42.8624 24.8006Q42.8818 24.8217 42.8818 24.8499ZM45.2137 24.8464Q45.2137 24.8782 45.1943 24.8958Q45.1748 24.9134 45.1431 24.9134H44.3564V27.1783Q44.3564 27.2065 44.3352 27.2277Q44.3141 27.2488 44.2858 27.2488Q44.2541 27.2488 44.2347 27.2277Q44.2153 27.2065 44.2153 27.1783V24.9134H43.4286Q43.4004 24.9134 43.3792 24.894Q43.358 24.8746 43.358 24.8464Q43.358 24.8182 43.3792 24.7988Q43.4004 24.7794 43.4286 24.7794H45.1431Q45.1713 24.7794 45.1925 24.7988Q45.2137 24.8182 45.2137 24.8464Z" style="stroke:#000000;stroke-width:0.25;stroke-linecap:round;stroke-linejoin:bevel" />
        <path d="M12.5412 77.2488Q12.5059 77.2488 12.4865 77.2277Q12.4671 77.2065 12.4671 77.1748V74.8535Q12.4671 74.8217 12.4883 74.8006Q12.5094 74.7794 12.5412 74.7794Q12.5729 74.7794 12.5941 74.8006Q12.6153 74.8217 12.6153 74.8535V77.1748Q12.6117 77.2065 12.5906 77.2277Q12.5694 77.2488 12.5412 77.2488ZM15.1729 74.8464V77.1712Q15.1729 77.21 15.1517 77.2294Q15.1306 77.2488 15.0988 77.2488Q15.0635 77.2488 15.0424 77.2206L13.4549 75.051V77.1889Q13.4549 77.2136 13.4355 77.2312Q13.4161 77.2488 13.3878 77.2488Q13.3561 77.2488 13.3385 77.2312Q13.3208 77.2136 13.3208 77.1889V74.8499Q13.3208 74.8147 13.3402 74.797Q13.3596 74.7794 13.3843 74.7794Q13.4161 74.7794 13.4372 74.8041L15.0388 76.9878V74.8464Q15.0388 74.8182 15.0582 74.7988Q15.0777 74.7794 15.1059 74.7794Q15.1376 74.7794 15.1553 74.7988Q15.1729 74.8182 15.1729 74.8464Z" style="stroke:#000000;stroke-width:0.25;stroke-linecap:round;stroke-linejoin:bevel" />
        <path d="M44.9675 77.2841Q44.6253 77.2841 44.3572 77.1236Q44.0891 76.9631 43.9392 76.6738Q43.7893 76.3845 43.7893 76.0141Q43.7893 75.6437 43.9392 75.3544Q44.0891 75.0651 44.3572 74.9046Q44.6253 74.7441 44.9675 74.7441Q45.3097 74.7441 45.5778 74.9046Q45.846 75.0651 45.9959 75.3544Q46.1458 75.6437 46.1458 76.0141Q46.1458 76.3845 45.9959 76.6738Q45.846 76.9631 45.5778 77.1236Q45.3097 77.2841 44.9675 77.2841ZM44.9675 74.8852Q44.6677 74.8852 44.4331 75.0263Q44.1985 75.1674 44.068 75.425Q43.9374 75.6825 43.9374 76.0141Q43.9374 76.3457 44.068 76.6033Q44.1985 76.8608 44.4331 77.0019Q44.6677 77.143 44.9675 77.143Q45.2674 77.143 45.502 77.0019Q45.7366 76.8608 45.8671 76.6033Q45.9977 76.3457 45.9977 76.0141Q45.9977 75.6825 45.8671 75.425Q45.7366 75.1674 45.502 75.0263Q45.2674 74.8852 44.9675 74.8852ZM48.4918 74.8499V76.3739Q48.4918 76.6209 48.3683 76.829Q48.2448 77.0372 48.0367 77.1606Q47.8286 77.2841 47.5852 77.2841Q47.3382 77.2841 47.1301 77.1606Q46.9219 77.0372 46.7985 76.829Q46.675 76.6209 46.675 76.3739V74.8499Q46.675 74.8182 46.6962 74.7988Q46.7173 74.7794 46.7491 74.7794Q46.7808 74.7794 46.802 74.8006Q46.8232 74.8217 46.8232 74.8499V76.3739Q46.8232 76.5821 46.9255 76.7585Q47.0278 76.9349 47.2024 77.0389Q47.377 77.143 47.5852 77.143Q47.7933 77.143 47.9679 77.0389Q48.1425 76.9349 48.2466 76.7585Q48.3507 76.5821 48.3507 76.3739V74.8499Q48.3507 74.8217 48.3701 74.8006Q48.3895 74.7794 48.4212 74.7794Q48.453 74.7794 48.4724 74.8006Q48.4918 74.8217 48.4918 74.8499ZM50.8237 74.8464Q50.8237 74.8782 50.8043 74.8958Q50.7848 74.9134 50.7531 74.9134H49.9664V77.1783Q49.9664 77.2065 49.9452 77.2277Q49.9241 77.2488 49.8958 77.2488Q49.8641 77.2488 49.8447 77.2277Q49.8253 77.2065 49.8253 77.1783V74.9134H49.0386Q49.0104 74.9134 48.9892 74.894Q48.968 74.8746 48.968 74.8464Q48.968 74.8182 48.9892 74.7988Q49.0104 74.7794 49.0386 74.7794H50.7531Q50.7813 74.7794 50.8025 74.7988Q50.8237 74.8182 50.8237 74.8464Z" style="stroke:#000000;stroke-width:0.25;stroke-linecap:round;stroke-linejoin:bevel" />
    </g>
</svg>
