<?xml version="1.0" encoding="utf-8"?>
<svg xmlns="http://www.w3.org/2000/svg" width="30.48mm" height="128.50mm" viewBox="0 0 30.48 128.50">
    <g id="PanelLayer">
        <defs>
            <linearGradient id="gradient_controls" x1="0" y1="16.3333" x2="0" y2="107.667" gradientUnits="userSpaceOnUse">
                <stop style="stop-color:#3068ff;stop-opacity:1;" offset="0" />
                <stop style="stop-color:#4f8df2;stop-opacity:1;" offset="1" />
            </linearGradient>
        </defs>
        <rect id="border_rect" width="30.48" height="128.5" x="0" y="0" style="display:inline;fill:#4f8df2;fill-opacity:1;fill-rule:nonzero;stroke:#5021d4;stroke-width:0.7;stroke-linecap:round;stroke-linejoin:round;stroke-dasharray:none;stroke-opacity:1;image-rendering:auto" />
        <path id="model_name" d="M7.47113 4.43369V7.77096Q7.47113 8.36081 7.23053 8.79543Q6.98994 9.23005 6.55532 9.46677Q6.12069 9.70348 5.56189 9.70348Q5.25145 9.70348 4.93324 9.62199Q4.61504 9.5405 4.40937 9.41244Q4.2037 9.28438 4.2037 9.15244Q4.2037 9.09035 4.23863 9.05155Q4.27355 9.01274 4.33564 9.01274Q4.38221 9.01274 4.47534 9.09035Q4.58399 9.19901 4.71593 9.25334Q5.09623 9.40856 5.57742 9.40856Q6.30696 9.40856 6.73382 8.95841Q7.16068 8.50827 7.16068 7.77096V7.23545Q6.95113 7.73216 6.51263 7.98051Q6.07413 8.22887 5.59294 8.22887Q5.06518 8.22887 4.63444 7.96111Q4.2037 7.69335 3.95923 7.22769Q3.71475 6.76202 3.71475 6.1877Q3.71475 5.61337 3.95923 5.14771Q4.2037 4.68204 4.63444 4.41816Q5.06518 4.15429 5.59294 4.15429Q6.11293 4.15429 6.54368 4.42981Q6.97442 4.70533 7.16068 5.09338V4.43369Q7.16068 4.3716 7.20337 4.32503Q7.24606 4.27846 7.31591 4.27846Q7.38576 4.27846 7.42844 4.32503Q7.47113 4.3716 7.47113 4.43369ZM7.19173 6.1877Q7.19173 5.67546 6.98606 5.27965Q6.78039 4.88383 6.4195 4.66652Q6.05861 4.44921 5.60846 4.44921Q5.15832 4.44921 4.79743 4.67428Q4.43653 4.89935 4.23086 5.29517Q4.02519 5.69099 4.02519 6.1877Q4.02519 6.68441 4.23086 7.08022Q4.43653 7.47604 4.79743 7.70499Q5.15832 7.93395 5.60846 7.93395Q6.05861 7.93395 6.4195 7.71276Q6.78039 7.49156 6.98606 7.09575Q7.19173 6.69993 7.19173 6.1877ZM12.089 4.43369V7.99604Q12.089 8.05812 12.0424 8.10469Q11.9959 8.15126 11.9338 8.15126Q11.8639 8.15126 11.8212 8.10469Q11.7785 8.05812 11.7785 7.99604V7.29754Q11.5845 7.69335 11.1809 7.96111Q10.7774 8.22887 10.2884 8.22887Q9.77618 8.22887 9.36484 7.96111Q8.9535 7.69335 8.72067 7.22381Q8.48783 6.75426 8.48783 6.17217Q8.48783 5.59785 8.72455 5.13607Q8.96126 4.67428 9.3726 4.41428Q9.78394 4.15429 10.2884 4.15429Q10.7929 4.15429 11.1965 4.41816Q11.6 4.68204 11.7785 5.12443V4.43369Q11.7785 4.3716 11.8212 4.32503Q11.8639 4.27846 11.9338 4.27846Q12.0036 4.27846 12.0463 4.32503Q12.089 4.3716 12.089 4.43369ZM11.8096 6.17217Q11.8096 5.69875 11.6156 5.30293Q11.4215 4.90711 11.0762 4.67816Q10.7308 4.44921 10.3039 4.44921Q9.87707 4.44921 9.5317 4.6704Q9.18633 4.89159 8.99231 5.28353Q8.79828 5.67546 8.79828 6.17217Q8.79828 6.66889 8.99231 7.07246Q9.18633 7.47604 9.52782 7.70499Q9.86931 7.93395 10.3039 7.93395Q10.7308 7.93395 11.0762 7.70499Q11.4215 7.47604 11.6156 7.07246Q11.8096 6.66889 11.8096 6.17217ZM13.5714 8.15126Q13.5015 8.15126 13.4588 8.10469Q13.4161 8.05812 13.4161 7.99604V2.56326Q13.4161 2.50117 13.4627 2.4546Q13.5093 2.40804 13.5714 2.40804Q13.6412 2.40804 13.6839 2.4546Q13.7266 2.50117 13.7266 2.56326V7.99604Q13.7266 8.05812 13.68 8.10469Q13.6335 8.15126 13.5714 8.15126ZM18.3833 4.43369V7.99604Q18.3833 8.05812 18.3367 8.10469Q18.2901 8.15126 18.228 8.15126Q18.1582 8.15126 18.1155 8.10469Q18.0728 8.05812 18.0728 7.99604V7.29754Q17.8788 7.69335 17.4752 7.96111Q17.0716 8.22887 16.5827 8.22887Q16.0704 8.22887 15.6591 7.96111Q15.2478 7.69335 15.0149 7.22381Q14.7821 6.75426 14.7821 6.17217Q14.7821 5.59785 15.0188 5.13607Q15.2555 4.67428 15.6669 4.41428Q16.0782 4.15429 16.5827 4.15429Q17.0871 4.15429 17.4907 4.41816Q17.8943 4.68204 18.0728 5.12443V4.43369Q18.0728 4.3716 18.1155 4.32503Q18.1582 4.27846 18.228 4.27846Q18.2979 4.27846 18.3406 4.32503Q18.3833 4.3716 18.3833 4.43369ZM18.1039 6.17217Q18.1039 5.69875 17.9098 5.30293Q17.7158 4.90711 17.3704 4.67816Q17.0251 4.44921 16.5982 4.44921Q16.1713 4.44921 15.826 4.6704Q15.4806 4.89159 15.2866 5.28353Q15.0925 5.67546 15.0925 6.17217Q15.0925 6.66889 15.2866 7.07246Q15.4806 7.47604 15.8221 7.70499Q16.1636 7.93395 16.5982 7.93395Q17.0251 7.93395 17.3704 7.70499Q17.7158 7.47604 17.9098 7.07246Q18.1039 6.66889 18.1039 6.17217ZM22.4268 7.93395Q22.4578 7.97275 22.4578 8.02708Q22.4578 8.08917 22.4151 8.13574Q22.3725 8.1823 22.3104 8.1823Q22.2405 8.1823 22.1784 8.11245L20.9056 6.45158L19.625 8.12021Q19.5785 8.1823 19.5008 8.1823Q19.4388 8.1823 19.3961 8.1435Q19.3534 8.10469 19.3534 8.03484Q19.3534 7.98051 19.3844 7.94171L20.7193 6.21098L19.3689 4.44921Q19.3379 4.4104 19.3379 4.35608Q19.3379 4.28622 19.3883 4.23966Q19.4388 4.19309 19.5008 4.19309Q19.5785 4.19309 19.625 4.26294L20.9134 5.9471L22.1784 4.26294Q22.2405 4.19309 22.3104 4.19309Q22.3802 4.19309 22.419 4.2319Q22.4578 4.2707 22.4578 4.32503Q22.4578 4.3716 22.419 4.42592L21.0996 6.19546ZM26.4936 4.30951V7.77096Q26.4936 8.35305 26.2569 8.79155Q26.0202 9.23005 25.605 9.46677Q25.1897 9.70348 24.662 9.70348Q24.3205 9.70348 24.0372 9.62199Q23.7539 9.5405 23.5599 9.40856Q23.4202 9.31542 23.4745 9.19901Q23.5289 9.10587 23.6065 9.10587Q23.6453 9.10587 23.6763 9.12916Q23.8626 9.24557 24.1226 9.33483Q24.3826 9.42408 24.6775 9.42408Q25.1199 9.42408 25.4614 9.21453Q25.8029 9.00498 25.993 8.62857Q26.1832 8.25215 26.1832 7.77096V7.42171Q26.0047 7.77096 25.6127 7.99992Q25.2208 8.22887 24.8017 8.22887Q24.1032 8.22887 23.7617 7.82917Q23.4202 7.42948 23.4202 6.73097V4.30951Q23.4202 4.24742 23.4629 4.20085Q23.5056 4.15429 23.5754 4.15429Q23.6453 4.15429 23.688 4.20085Q23.7307 4.24742 23.7307 4.30951V6.73097Q23.7307 7.93395 24.8017 7.93395Q25.1354 7.93395 25.4575 7.75932Q25.7796 7.5847 25.9814 7.3053Q26.1832 7.0259 26.1832 6.73097V4.30951Q26.1832 4.24742 26.2259 4.20085Q26.2685 4.15429 26.3384 4.15429Q26.4082 4.15429 26.4509 4.20085Q26.4936 4.24742 26.4936 4.30951Z" style="display:inline;stroke:#000000;stroke-width:0.35;stroke-linecap:round;stroke-linejoin:bevel" />
        <path id="sapphire_gemstone" d="m 17.955,122.900 q 0,0.34175 -0.242534,0.63114 -0.0441,0.0524 -0.20395,0.21497 -0.187413,0.19017 -0.785481,0.81304 l -1.444183,1.51309 q -0.01929,0.003 -0.0441,0.003 -0.02756,0 -0.04134,-0.003 -0.08268,-0.0827 -0.647678,-0.67524 -0.468532,-0.47404 -0.934309,-0.94809 -0.556727,-0.56775 -0.89848,-0.98116 -0.132292,-0.15985 -0.168121,-0.29766 -0.02756,-0.10197 -0.02756,-0.34175 0,-0.11024 0.07166,-0.28939 0.06614,-0.16536 0.140559,-0.26458 0.118512,-0.1571 0.42168,-0.42444 0.283875,-0.2508 0.474044,-0.37482 0.272852,-0.17915 0.818555,-0.36656 0.09646,-0.0331 0.110243,-0.0331 h 1.3615 q 0.01102,0 0.104731,0.0331 0.567751,0.20119 0.824066,0.36656 0.165365,0.10473 0.474045,0.37758 0.322461,0.28388 0.421679,0.42168 0.214974,0.2949 0.214974,0.62563 z m -0.16812,-0.27285 q -0.03307,-0.10749 -0.135048,-0.30868 -0.07166,-0.0937 -0.209462,-0.19844 -0.118511,-0.0854 -0.234266,-0.17088 0.245291,0.3638 0.578776,0.678 z m -0.573264,-0.52366 -0.358289,-0.44648 v 0.41065 z m 0.636653,0.75792 q 0,-0.0524 -0.341753,-0.39412 l 0.228754,0.7028 h 0.04961 q 0.06339,-0.21773 0.06339,-0.30868 z m -0.23151,0.27285 -0.316948,-0.90399 -0.410655,-0.0634 -0.159853,0.61461 z m 0.0028,0.15434 -0.771701,-0.3197 h -0.03032 l 0.344509,0.60634 q 0.07993,-0.003 0.234266,-0.0469 0.02481,-0.0138 0.223242,-0.23978 z m -0.857139,-1.05006 -0.719335,0.28388 0.60358,0.22599 z m 0,-0.16261 v -0.51538 l -0.917773,-0.38034 h -1.223697 l -0.917772,0.38034 v 0.51538 l 0.89848,0.4079 h 1.254014 z m 0.573264,1.53789 q -0.0689,0.011 -0.198438,0.0524 -0.08544,0.0551 -0.259071,0.16261 0.01929,0 0.06339,0.003 0.04134,0 0.06339,0 0.118511,0 0.190169,-0.0689 0.07166,-0.0717 0.14056,-0.14883 z m -0.289388,0.003 -0.347266,-0.63114 -0.363801,0.87918 q 0.0248,-0.0165 0.06615,-0.0165 0.03032,0 0.08544,0.011 0.05788,0.008 0.08819,0.008 0.04961,0 0.228754,-0.10749 0.228754,-0.1378 0.242535,-0.14331 z m -0.440972,-0.74139 -0.683507,-0.2756 -0.592556,0.54845 0.903993,0.65595 z m -0.854383,-0.28387 h -1.036284 l 0.523654,0.47404 z m 0.749652,1.36701 q -0.228754,-0.0303 -0.228754,-0.0303 -0.03583,0 -0.272851,0.0937 l 0.190169,0.0193 q 0.01102,0 0.311436,-0.0827 z m -0.388606,-0.0882 -0.843359,-0.61185 v 0.67524 l 0.471289,0.0827 z m 0.854383,0.0496 q -0.09922,0.006 -0.2949,0.0386 -0.01102,0.003 -0.377583,0.17639 -0.129535,0.34726 -0.380338,1.0418 z m -2.543857,-1.39733 -0.719335,-0.28388 0.124023,0.51814 z m -0.802018,-0.45476 v -0.41065 l -0.366557,0.44648 z m 1.515841,1.07212 -0.592556,-0.54019 -0.683506,0.2756 0.380338,0.9288 z m 0.369314,0.94257 q -0.03307,-0.003 -0.135047,-0.0248 -0.08544,-0.0165 -0.137804,-0.0165 -0.05237,0 -0.137804,0.0165 -0.101975,0.0221 -0.135047,0.0248 0.264583,0.0469 0.272851,0.0469 0.0083,0 0.272851,-0.0469 z m -0.30868,-0.1378 v -0.68626 l -0.843359,0.61185 0.37207,0.14607 z m 0.950846,0.20671 -0.396875,-0.0551 -0.479557,0.14056 v 1.27607 z m -2.888366,-2.20211 q -0.118512,0.0854 -0.234267,0.17364 -0.146072,0.10748 -0.209461,0.19568 -0.0441,0.10473 -0.135048,0.31419 0.369314,-0.3638 0.578776,-0.68351 z m 0.476801,0.83234 -0.159853,-0.61461 -0.410655,0.0634 -0.316948,0.90399 z m 0.394118,1.08313 -0.363802,-0.87918 -0.355533,0.63114 q 0.43546,0.2508 0.451996,0.2508 0.09095,0 0.267339,-0.003 z m 1.821765,0.82958 q -0.132291,0.21222 -0.405143,0.6339 -0.07717,0.10749 -0.220486,0.32797 -0.05788,0.10473 -0.05512,0.226 0.159852,-0.15158 0.432704,-0.49609 0.07717,-0.12954 0.140559,-0.339 0.05512,-0.17639 0.107486,-0.35278 z m -1.493792,-0.66146 -0.270095,-0.0882 -0.0083,-0.011 q -0.02481,0 -0.107487,0.011 -0.06615,0.006 -0.107487,0.006 0.272851,0.091 0.311436,0.091 0.02481,0 0.181901,-0.008 z m -0.810286,-1.06384 h -0.03032 l -0.7717,0.3197 q 0.06615,0.0965 0.223242,0.23978 0.07717,0.0138 0.234266,0.0469 z m -0.689018,-0.50161 q -0.341754,0.34727 -0.341754,0.39412 0,0.0799 0.06339,0.30868 h 0.04961 z m 2.235176,3.04547 v -1.27607 l -0.479557,-0.14056 -0.396875,0.0551 z m -1.606791,-1.6757 q -0.256315,-0.1819 -0.457509,-0.22324 0.06615,0.0772 0.20395,0.22324 z m 1.609547,2.04501 v -0.1378 l -0.683507,-1.05007 q 0.05237,0.17639 0.107487,0.35278 0.06339,0.20946 0.14056,0.339 0.0689,0.11851 0.20395,0.25907 0.115755,0.11851 0.23151,0.23702 z m -0.644921,-0.70555 q -0.115756,-0.32798 -0.380339,-1.0418 -0.135047,-0.0662 -0.272851,-0.12954 -0.159852,-0.0716 -0.289388,-0.0716 -0.05237,0 -0.110243,-0.0138 z" style="stroke-width:0;fill:#0000ff;stroke:#2e2114;stroke-linecap:square;stroke-opacity:1" />
        <path id="controls_art" d="M 0.38,107.67 L 0.38,20.33 A 4 4 0 0 1 4.38 16.3333 L 26.10,16.33 A 4 4 0 0 1 30.1 20.3333 L 30.10,16.33 L 30.10,107.67 z" style="fill:url(#gradient_controls);fill-opacity:1;stroke-width:0;" />
        <path d="M9.93599 22.0081Q9.93599 22.0398 9.91658 22.0592Q9.89718 22.0786 9.86896 22.0786Q9.84779 22.0786 9.83721 22.0716Q9.74196 22.0187 9.68551 21.8934Q9.62907 21.7682 9.62907 21.4824Q9.62907 21.1932 9.47385 21.0856Q9.31863 20.978 9.11401 20.978H8.28851V22.0116Q8.28851 22.0398 8.26735 22.061Q8.24618 22.0822 8.21443 22.0822Q8.18268 22.0822 8.16151 22.061Q8.14035 22.0398 8.14035 22.0116V19.6833Q8.14035 19.6551 8.16151 19.6339Q8.18268 19.6127 8.2109 19.6127H9.14224Q9.34685 19.6127 9.5056 19.6956Q9.66435 19.7785 9.75254 19.9232Q9.84074 20.0678 9.84074 20.2512Q9.84074 20.4876 9.7155 20.6569Q9.59026 20.8263 9.38918 20.8863Q9.55851 20.9392 9.66788 21.0962Q9.77724 21.2531 9.77724 21.4824Q9.77724 21.7188 9.80722 21.8123Q9.83721 21.9058 9.89718 21.9446Q9.93599 21.9693 9.93599 22.0081ZM9.15988 20.8369Q9.38213 20.8157 9.53735 20.6605Q9.69257 20.5053 9.69257 20.2548Q9.69257 20.0361 9.53735 19.8949Q9.38213 19.7538 9.1246 19.7538H8.28851V20.8369ZM11.9539 22.0116Q11.9539 22.0434 11.9327 22.0628Q11.9115 22.0822 11.8833 22.0822H10.5533Q10.5251 22.0822 10.504 22.061Q10.4828 22.0398 10.4828 22.0116V19.6833Q10.4828 19.6551 10.504 19.6339Q10.5251 19.6127 10.5533 19.6127H11.8833Q11.9115 19.6127 11.9327 19.6339Q11.9539 19.6551 11.9539 19.6833Q11.9539 19.715 11.9327 19.7344Q11.9115 19.7538 11.8833 19.7538H10.631V20.7381H11.7246Q11.7528 20.7381 11.774 20.7593Q11.7951 20.7804 11.7951 20.8086Q11.7951 20.8404 11.774 20.8598Q11.7528 20.8792 11.7246 20.8792H10.631V21.9411H11.8833Q11.9115 21.9411 11.9327 21.9622Q11.9539 21.9834 11.9539 22.0116ZM14.067 20.2865Q14.067 20.4841 13.9841 20.6446Q13.9012 20.8051 13.7495 20.8951Q13.5978 20.985 13.4003 20.985H12.6312V22.0116Q12.6312 22.0398 12.6083 22.061Q12.5853 22.0822 12.5571 22.0822Q12.5254 22.0822 12.5042 22.061Q12.483 22.0398 12.483 22.0116V19.6833Q12.483 19.6551 12.5042 19.6339Q12.5254 19.6127 12.5536 19.6127H13.4003Q13.7001 19.6127 13.8836 19.7997Q14.067 19.9867 14.067 20.2865ZM13.9188 20.2865Q13.9188 20.0431 13.7795 19.8985Q13.6402 19.7538 13.4003 19.7538H12.6312V20.8439H13.4003Q13.6366 20.8439 13.7777 20.6869Q13.9188 20.5299 13.9188 20.2865ZM16.0143 22.0116Q16.0143 22.0434 15.9932 22.0628Q15.972 22.0822 15.9438 22.0822H14.6491Q14.6173 22.0822 14.5979 22.061Q14.5785 22.0398 14.5785 22.0116V19.6833Q14.5785 19.6551 14.5997 19.6339Q14.6209 19.6127 14.6526 19.6127Q14.6844 19.6127 14.7055 19.6339Q14.7267 19.6551 14.7267 19.6833V21.9411H15.9438Q15.972 21.9411 15.9932 21.9622Q16.0143 21.9834 16.0143 22.0116ZM18.2333 22.0151Q18.2333 22.0469 18.2122 22.0645Q18.191 22.0822 18.1592 22.0822Q18.1345 22.0822 18.1151 22.0698Q18.0957 22.0575 18.0887 22.0363L17.7923 21.3096L17.7959 21.3166H16.6141L16.3283 22.0363Q16.3107 22.0822 16.2648 22.0822Q16.2331 22.0822 16.2137 22.0645Q16.1943 22.0469 16.1907 22.0222Q16.1872 22.0081 16.1943 21.9869L17.1432 19.6515Q17.1538 19.6233 17.1697 19.6145Q17.1856 19.6057 17.2103 19.6057Q17.2632 19.6057 17.2808 19.6515L18.2298 21.9869Q18.2333 21.9975 18.2333 22.0151ZM16.6705 21.1755H17.7394L17.1997 19.8456ZM20.5687 19.8738Q20.5687 19.902 20.5546 19.9196Q20.5334 19.9479 20.5017 19.9479Q20.4876 19.9479 20.4593 19.9337Q20.1313 19.7115 19.7644 19.7115Q19.468 19.7115 19.2193 19.8579Q18.9706 20.0043 18.826 20.2636Q18.6813 20.5229 18.6813 20.8474Q18.6813 21.172 18.826 21.4313Q18.9706 21.6906 19.2193 21.837Q19.468 21.9834 19.7644 21.9834Q20.1348 21.9834 20.4558 21.7647Q20.4735 21.7506 20.4982 21.7506Q20.5334 21.7506 20.5546 21.7788Q20.5687 21.7964 20.5687 21.8211Q20.5687 21.8564 20.5405 21.8776Q20.4029 21.9763 20.1859 22.0469Q19.969 22.1174 19.7644 22.1174Q19.4292 22.1174 19.147 21.9516Q18.8648 21.7858 18.699 21.4948Q18.5332 21.2037 18.5332 20.8474Q18.5332 20.4911 18.699 20.2001Q18.8648 19.9091 19.147 19.7432Q19.4292 19.5774 19.7644 19.5774Q19.976 19.5774 20.1754 19.6409Q20.3747 19.7044 20.537 19.8173Q20.5687 19.842 20.5687 19.8738ZM22.516 22.0116Q22.516 22.0434 22.4949 22.0628Q22.4737 22.0822 22.4455 22.0822H21.1155Q21.0873 22.0822 21.0661 22.061Q21.045 22.0398 21.045 22.0116V19.6833Q21.045 19.6551 21.0661 19.6339Q21.0873 19.6127 21.1155 19.6127H22.4455Q22.4737 19.6127 22.4949 19.6339Q22.516 19.6551 22.516 19.6833Q22.516 19.715 22.4949 19.7344Q22.4737 19.7538 22.4455 19.7538H21.1931V20.7381H22.2867Q22.315 20.7381 22.3361 20.7593Q22.3573 20.7804 22.3573 20.8086Q22.3573 20.8404 22.3361 20.8598Q22.315 20.8792 22.2867 20.8792H21.1931V21.9411H22.4455Q22.4737 21.9411 22.4949 21.9622Q22.516 21.9834 22.516 22.0116Z" style="stroke:#000000;stroke-width:0.25;stroke-linecap:round;stroke-linejoin:bevel" />
        <path d="M11.0666 39.7487Q11.0666 40.0698 10.8638 40.2426Q10.6609 40.4155 10.347 40.4155H9.37331Q9.34508 40.4155 9.32392 40.3943Q9.30275 40.3732 9.30275 40.3449V38.0166Q9.30275 37.9884 9.32392 37.9672Q9.34508 37.9461 9.37331 37.9461H10.3223Q10.6045 37.9461 10.7738 38.1083Q10.9432 38.2706 10.9432 38.5458Q10.9432 38.7433 10.8444 38.9038Q10.7456 39.0644 10.5692 39.1243Q10.795 39.1667 10.9308 39.3289Q11.0666 39.4912 11.0666 39.7487ZM10.3046 38.0872H9.45092V39.0785H10.3046Q10.5234 39.0749 10.6592 38.9356Q10.795 38.7962 10.795 38.5422Q10.795 38.3341 10.6662 38.2106Q10.5375 38.0872 10.3046 38.0872ZM10.9185 39.7487Q10.9185 39.4877 10.7562 39.3554Q10.5939 39.2231 10.3293 39.2231H9.45092V40.2744H10.3293Q10.5939 40.2744 10.7562 40.1421Q10.9185 40.0098 10.9185 39.7487ZM13.3914 40.3414Q13.3914 40.3732 13.372 40.3926Q13.3526 40.412 13.3244 40.412Q13.3033 40.412 13.2927 40.4049Q13.1974 40.352 13.141 40.2268Q13.0845 40.1015 13.0845 39.8158Q13.0845 39.5265 12.9293 39.4189Q12.7741 39.3113 12.5695 39.3113H11.744V40.3449Q11.744 40.3732 11.7228 40.3943Q11.7016 40.4155 11.6699 40.4155Q11.6381 40.4155 11.617 40.3943Q11.5958 40.3732 11.5958 40.3449V38.0166Q11.5958 37.9884 11.617 37.9672Q11.6381 37.9461 11.6664 37.9461H12.5977Q12.8023 37.9461 12.9611 38.029Q13.1198 38.1119 13.208 38.2565Q13.2962 38.4011 13.2962 38.5846Q13.2962 38.8209 13.171 38.9903Q13.0457 39.1596 12.8446 39.2196Q13.014 39.2725 13.1233 39.4295Q13.2327 39.5865 13.2327 39.8158Q13.2327 40.0521 13.2627 40.1456Q13.2927 40.2391 13.3526 40.2779Q13.3914 40.3026 13.3914 40.3414ZM12.6153 39.1702Q12.8376 39.149 12.9928 38.9938Q13.148 38.8386 13.148 38.5881Q13.148 38.3694 12.9928 38.2283Q12.8376 38.0872 12.5801 38.0872H11.744V39.1702ZM14.0123 40.4155Q13.9771 40.4155 13.9577 40.3943Q13.9383 40.3732 13.9383 40.3414V38.0201Q13.9383 37.9884 13.9594 37.9672Q13.9806 37.9461 14.0123 37.9461Q14.0441 37.9461 14.0652 37.9672Q14.0864 37.9884 14.0864 38.0201V40.3414Q14.0829 40.3732 14.0617 40.3943Q14.0406 40.4155 14.0123 40.4155ZM16.6582 39.269V40.1544Q16.6582 40.1968 16.6264 40.2179Q16.4641 40.3273 16.2719 40.389Q16.0796 40.4508 15.8821 40.4508Q15.5187 40.4508 15.2312 40.2867Q14.9437 40.1227 14.7796 39.8334Q14.6156 39.5441 14.6156 39.1808Q14.6156 38.8174 14.7796 38.5281Q14.9437 38.2389 15.2312 38.0748Q15.5187 37.9108 15.8821 37.9108Q16.0796 37.9108 16.2578 37.9584Q16.4359 38.006 16.577 38.1013Q16.6088 38.1224 16.6088 38.1612Q16.6088 38.193 16.5858 38.2124Q16.5629 38.2318 16.5418 38.2318Q16.5241 38.2318 16.4959 38.2177Q16.1996 38.0519 15.8821 38.0519Q15.5575 38.0519 15.3035 38.1965Q15.0495 38.3412 14.9066 38.5987Q14.7637 38.8562 14.7637 39.1808Q14.7637 39.5053 14.9066 39.7629Q15.0495 40.0204 15.3035 40.165Q15.5575 40.3097 15.8821 40.3097Q16.0443 40.3097 16.2119 40.2585Q16.3795 40.2074 16.5171 40.1227V39.3395H15.8821Q15.8538 39.3395 15.8327 39.3184Q15.8115 39.2972 15.8115 39.269Q15.8115 39.2372 15.8327 39.2178Q15.8538 39.1984 15.8821 39.1984H16.5876Q16.6194 39.1984 16.6388 39.2196Q16.6582 39.2407 16.6582 39.269ZM19.0747 38.0201V40.3414Q19.0712 40.3732 19.05 40.3943Q19.0288 40.4155 19.0006 40.4155Q18.9653 40.4155 18.9459 40.3943Q18.9265 40.3732 18.9265 40.3414V39.2161H17.3884V40.3414Q17.3849 40.3732 17.3637 40.3943Q17.3426 40.4155 17.3143 40.4155Q17.2791 40.4155 17.2597 40.3943Q17.2402 40.3732 17.2402 40.3414V38.0201Q17.2402 37.9884 17.2614 37.9672Q17.2826 37.9461 17.3143 37.9461Q17.3461 37.9461 17.3672 37.9672Q17.3884 37.9884 17.3884 38.0201V39.0749H18.9265V38.0201Q18.9265 37.9884 18.9477 37.9672Q18.9689 37.9461 19.0006 37.9461Q19.0324 37.9461 19.0535 37.9672Q19.0747 37.9884 19.0747 38.0201ZM21.4066 38.0131Q21.4066 38.0448 21.3872 38.0625Q21.3677 38.0801 21.336 38.0801H20.5493V40.3449Q20.5493 40.3732 20.5281 40.3943Q20.507 40.4155 20.4787 40.4155Q20.447 40.4155 20.4276 40.3943Q20.4082 40.3732 20.4082 40.3449V38.0801H19.6215Q19.5933 38.0801 19.5721 38.0607Q19.5509 38.0413 19.5509 38.0131Q19.5509 37.9849 19.5721 37.9655Q19.5933 37.9461 19.6215 37.9461H21.336Q21.3642 37.9461 21.3854 37.9655Q21.4066 37.9849 21.4066 38.0131Z" style="stroke:#000000;stroke-width:0.25;stroke-linecap:round;stroke-linejoin:bevel" />
        <path d="M10.7421 57.5141Q10.7421 57.8634 10.631 58.1421Q10.5198 58.4207 10.2905 58.5848Q10.0612 58.7488 9.71903 58.7488H8.80181Q8.77358 58.7488 8.75242 58.7277Q8.73125 58.7065 8.73125 58.6783V56.3499Q8.73125 56.3217 8.75242 56.3006Q8.77358 56.2794 8.80181 56.2794H9.71903Q10.0577 56.2794 10.2888 56.4487Q10.5198 56.6181 10.631 56.8985Q10.7421 57.179 10.7421 57.5141ZM10.5939 57.5141Q10.5939 57.2142 10.4969 56.9655Q10.3999 56.7168 10.197 56.5687Q9.99419 56.4205 9.68375 56.4205H8.87942V58.6077H9.68375Q10.1424 58.6077 10.3681 58.3061Q10.5939 58.0045 10.5939 57.5141ZM12.7423 58.6783Q12.7423 58.71 12.7212 58.7294Q12.7 58.7488 12.6718 58.7488H11.3418Q11.3136 58.7488 11.2924 58.7277Q11.2712 58.7065 11.2712 58.6783V56.3499Q11.2712 56.3217 11.2924 56.3006Q11.3136 56.2794 11.3418 56.2794H12.6718Q12.7 56.2794 12.7212 56.3006Q12.7423 56.3217 12.7423 56.3499Q12.7423 56.3817 12.7212 56.4011Q12.7 56.4205 12.6718 56.4205H11.4194V57.4047H12.513Q12.5412 57.4047 12.5624 57.4259Q12.5836 57.4471 12.5836 57.4753Q12.5836 57.5071 12.5624 57.5265Q12.5412 57.5459 12.513 57.5459H11.4194V58.6077H12.6718Q12.7 58.6077 12.7212 58.6289Q12.7423 58.6501 12.7423 58.6783ZM14.8978 56.3464Q14.8978 56.3782 14.8784 56.3958Q14.859 56.4134 14.8272 56.4134H14.0406V58.6783Q14.0406 58.7065 14.0194 58.7277Q13.9982 58.7488 13.97 58.7488Q13.9382 58.7488 13.9188 58.7277Q13.8994 58.7065 13.8994 58.6783V56.4134H13.1127Q13.0845 56.4134 13.0634 56.394Q13.0422 56.3746 13.0422 56.3464Q13.0422 56.3182 13.0634 56.2988Q13.0845 56.2794 13.1127 56.2794H14.8272Q14.8555 56.2794 14.8766 56.2988Q14.8978 56.3182 14.8978 56.3464ZM17.1909 56.3499V57.8739Q17.1909 58.1209 17.0674 58.329Q16.9439 58.5372 16.7358 58.6606Q16.5276 58.7841 16.2842 58.7841Q16.0373 58.7841 15.8291 58.6606Q15.621 58.5372 15.4975 58.329Q15.3741 58.1209 15.3741 57.8739V56.3499Q15.3741 56.3182 15.3952 56.2988Q15.4164 56.2794 15.4481 56.2794Q15.4799 56.2794 15.5011 56.3006Q15.5222 56.3217 15.5222 56.3499V57.8739Q15.5222 58.0821 15.6245 58.2585Q15.7268 58.4349 15.9015 58.5389Q16.0761 58.643 16.2842 58.643Q16.4924 58.643 16.667 58.5389Q16.8416 58.4349 16.9457 58.2585Q17.0497 58.0821 17.0497 57.8739V56.3499Q17.0497 56.3217 17.0692 56.3006Q17.0886 56.2794 17.1203 56.2794Q17.1521 56.2794 17.1715 56.3006Q17.1909 56.3217 17.1909 56.3499ZM19.7485 56.3464V58.6712Q19.7485 58.71 19.7273 58.7294Q19.7062 58.7488 19.6744 58.7488Q19.6391 58.7488 19.618 58.7206L18.0305 56.551V58.6889Q18.0305 58.7136 18.0111 58.7312Q17.9917 58.7488 17.9634 58.7488Q17.9317 58.7488 17.9141 58.7312Q17.8964 58.7136 17.8964 58.6889V56.3499Q17.8964 56.3147 17.9158 56.297Q17.9352 56.2794 17.9599 56.2794Q17.9917 56.2794 18.0128 56.3041L19.6144 58.4878V56.3464Q19.6144 56.3182 19.6338 56.2988Q19.6532 56.2794 19.6815 56.2794Q19.7132 56.2794 19.7309 56.2988Q19.7485 56.3182 19.7485 56.3464ZM21.9251 58.6783Q21.9251 58.71 21.904 58.7294Q21.8828 58.7488 21.8546 58.7488H20.5246Q20.4964 58.7488 20.4752 58.7277Q20.4541 58.7065 20.4541 58.6783V56.3499Q20.4541 56.3217 20.4752 56.3006Q20.4964 56.2794 20.5246 56.2794H21.8546Q21.8828 56.2794 21.904 56.3006Q21.9251 56.3217 21.9251 56.3499Q21.9251 56.3817 21.904 56.4011Q21.8828 56.4205 21.8546 56.4205H20.6022V57.4047H21.6958Q21.7241 57.4047 21.7452 57.4259Q21.7664 57.4471 21.7664 57.4753Q21.7664 57.5071 21.7452 57.5265Q21.7241 57.5459 21.6958 57.5459H20.6022V58.6077H21.8546Q21.8828 58.6077 21.904 58.6289Q21.9251 58.6501 21.9251 58.6783Z" style="stroke:#000000;stroke-width:0.25;stroke-linecap:round;stroke-linejoin:bevel" />
        <path d="M11.8533 76.747Q11.8322 76.7259 11.8322 76.6941Q11.8322 76.6659 11.8569 76.6394Q11.8816 76.613 11.9098 76.613Q11.9415 76.613 11.9698 76.6447Q12.1073 76.807 12.2961 76.8917Q12.4848 76.9763 12.6929 76.9763Q12.9646 76.9763 13.141 76.8458Q13.3174 76.7153 13.3174 76.5001Q13.3138 76.3307 13.2256 76.2214Q13.1374 76.112 13.0087 76.0468Q12.8799 75.9815 12.6577 75.9004Q12.4143 75.8086 12.2784 75.7381Q12.1426 75.6675 12.0456 75.537Q11.9486 75.4065 11.9486 75.1948Q11.9486 75.0219 12.0438 74.8808Q12.1391 74.7397 12.3155 74.6586Q12.4919 74.5774 12.7247 74.5774Q12.9328 74.5774 13.1198 74.6533Q13.3068 74.7291 13.4161 74.8667Q13.4514 74.9161 13.4514 74.9408Q13.4514 74.969 13.425 74.992Q13.3985 75.0149 13.3668 75.0149Q13.3385 75.0149 13.3209 74.9937Q13.2221 74.8667 13.0669 74.7926Q12.9117 74.7186 12.7247 74.7186Q12.4566 74.7186 12.2784 74.8456Q12.1003 74.9726 12.1003 75.1913Q12.1003 75.343 12.1867 75.4488Q12.2731 75.5546 12.4037 75.6199Q12.5342 75.6852 12.7282 75.7557Q12.9752 75.8439 13.1198 75.918Q13.2644 75.9921 13.3667 76.1332Q13.4691 76.2743 13.4691 76.5071Q13.4691 76.6694 13.3738 76.8105Q13.2786 76.9516 13.1004 77.0345Q12.9223 77.1174 12.6929 77.1174Q12.4319 77.1174 12.2379 77.0275Q12.0438 76.9375 11.8533 76.747ZM14.0758 77.0822Q14.0406 77.0822 14.0212 77.061Q14.0018 77.0398 14.0018 77.0081V74.6868Q14.0018 74.6551 14.0229 74.6339Q14.0441 74.6127 14.0758 74.6127Q14.1076 74.6127 14.1288 74.6339Q14.1499 74.6551 14.1499 74.6868V77.0081Q14.1464 77.0398 14.1252 77.061Q14.1041 77.0822 14.0758 77.0822ZM16.5911 77.0151Q16.5911 77.0434 16.57 77.0628Q16.5488 77.0822 16.5206 77.0822H14.7849Q14.7532 77.0822 14.7338 77.0592Q14.7144 77.0363 14.7144 77.0081Q14.7144 76.9834 14.7285 76.9657L16.3936 74.7468H14.8555Q14.8273 74.7468 14.8061 74.7274Q14.7849 74.708 14.7849 74.6797Q14.7849 74.6515 14.8061 74.6321Q14.8273 74.6127 14.8555 74.6127H16.5135Q16.5559 74.6127 16.5753 74.6339Q16.5947 74.6551 16.5947 74.6833Q16.5947 74.708 16.5806 74.7256L14.919 76.9481H16.5206Q16.5488 76.9481 16.57 76.9693Q16.5911 76.9904 16.5911 77.0151ZM18.5949 77.0116Q18.5949 77.0434 18.5738 77.0628Q18.5526 77.0822 18.5244 77.0822H17.1944Q17.1662 77.0822 17.145 77.061Q17.1238 77.0398 17.1238 77.0116V74.6833Q17.1238 74.6551 17.145 74.6339Q17.1662 74.6127 17.1944 74.6127H18.5244Q18.5526 74.6127 18.5738 74.6339Q18.5949 74.6551 18.5949 74.6833Q18.5949 74.715 18.5738 74.7344Q18.5526 74.7538 18.5244 74.7538H17.272V75.7381H18.3656Q18.3938 75.7381 18.415 75.7593Q18.4362 75.7804 18.4362 75.8086Q18.4362 75.8404 18.415 75.8598Q18.3938 75.8792 18.3656 75.8792H17.272V76.9411H18.5244Q18.5526 76.9411 18.5738 76.9622Q18.5949 76.9834 18.5949 77.0116Z" style="stroke:#000000;stroke-width:0.25;stroke-linecap:round;stroke-linejoin:bevel" />
        <path d="M14.8837 93.0166V95.3449Q14.8837 95.3732 14.8608 95.3943Q14.8378 95.4155 14.8096 95.4155Q14.7779 95.4155 14.7567 95.3943Q14.7355 95.3732 14.7355 95.3449V93.2353L13.8254 94.6112Q13.8077 94.6394 13.776 94.6394Q13.7372 94.6394 13.7195 94.6112L12.8058 93.2318V95.3449Q12.8058 95.3732 12.7847 95.3943Q12.7635 95.4155 12.7353 95.4155Q12.7035 95.4155 12.6841 95.3943Q12.6647 95.3732 12.6647 95.3449V93.0166Q12.6647 92.9919 12.6841 92.969Q12.7035 92.9461 12.7317 92.9461Q12.7776 92.9461 12.7988 92.9778L13.776 94.4312L14.7532 92.9778Q14.7814 92.939 14.8202 92.9461Q14.8484 92.9496 14.8661 92.969Q14.8837 92.9884 14.8837 93.0166ZM15.6633 95.4155Q15.6281 95.4155 15.6087 95.3943Q15.5892 95.3732 15.5892 95.3414V93.0201Q15.5892 92.9884 15.6104 92.9672Q15.6316 92.9461 15.6633 92.9461Q15.6951 92.9461 15.7162 92.9672Q15.7374 92.9884 15.7374 93.0201V95.3414Q15.7339 95.3732 15.7127 95.3943Q15.6916 95.4155 15.6633 95.4155ZM18.0446 95.3132Q18.0622 95.3379 18.0622 95.3555Q18.0622 95.3873 18.0411 95.4067Q18.0199 95.4261 17.9881 95.4261Q17.9493 95.4261 17.9317 95.3979L17.1238 94.2972L16.3195 95.3979Q16.3019 95.4261 16.2666 95.4261Q16.2348 95.4261 16.2172 95.4067Q16.1996 95.3873 16.1996 95.3661Q16.1996 95.3485 16.2172 95.3203L17.0462 94.1878L16.2101 93.0484Q16.196 93.0307 16.196 93.006Q16.196 92.9743 16.2172 92.9549Q16.2384 92.9355 16.2666 92.9355Q16.3089 92.9355 16.3266 92.9637L17.1344 94.0679L17.9387 92.9602Q17.9599 92.9319 17.9917 92.9319Q18.0234 92.9319 18.0428 92.9478Q18.0622 92.9637 18.0622 92.9884Q18.0622 93.0131 18.0446 93.0378L17.2156 94.1808Z" style="stroke:#000000;stroke-width:0.25;stroke-linecap:round;stroke-linejoin:bevel" />
    </g>
</svg>
