<?xml version="1.0" encoding="utf-8"?>
<svg xmlns="http://www.w3.org/2000/svg" width="30.48mm" height="128.50mm" viewBox="0 0 30.48 128.50">
    <g id="PanelLayer">
        <defs>
            <linearGradient id="gradient_controls" x1="0" y1="15.8333" x2="0" y2="115.167" gradientUnits="userSpaceOnUse">
                <stop style="stop-color:#3068ff;stop-opacity:1;" offset="0" />
                <stop style="stop-color:#4f8df2;stop-opacity:1;" offset="1" />
            </linearGradient>
        </defs>
        <rect id="border_rect" width="30.48" height="128.5" x="0" y="0" style="display:inline;fill:#4f8df2;fill-opacity:1;fill-rule:nonzero;stroke:#5021d4;stroke-width:0.7;stroke-linecap:round;stroke-linejoin:round;stroke-dasharray:none;stroke-opacity:1;image-rendering:auto" />
        <path id="model_name" d="M9.05439 4.43369V7.77096Q9.05439 8.36081 8.8138 8.79543Q8.57321 9.23005 8.13858 9.46677Q7.70396 9.70348 7.14516 9.70348Q6.83472 9.70348 6.51651 9.62199Q6.19831 9.5405 5.99264 9.41244Q5.78697 9.28438 5.78697 9.15244Q5.78697 9.09035 5.82189 9.05155Q5.85682 9.01274 5.91891 9.01274Q5.96547 9.01274 6.05861 9.09035Q6.16726 9.19901 6.2992 9.25334Q6.67949 9.40856 7.16068 9.40856Q7.89023 9.40856 8.31709 8.95841Q8.74395 8.50827 8.74395 7.77096V7.23545Q8.5344 7.73216 8.0959 7.98051Q7.65739 8.22887 7.17621 8.22887Q6.64845 8.22887 6.21771 7.96111Q5.78697 7.69335 5.54249 7.22769Q5.29802 6.76202 5.29802 6.1877Q5.29802 5.61337 5.54249 5.14771Q5.78697 4.68204 6.21771 4.41816Q6.64845 4.15429 7.17621 4.15429Q7.6962 4.15429 8.12694 4.42981Q8.55768 4.70533 8.74395 5.09338V4.43369Q8.74395 4.3716 8.78664 4.32503Q8.82932 4.27846 8.89917 4.27846Q8.96902 4.27846 9.01171 4.32503Q9.05439 4.3716 9.05439 4.43369ZM8.77499 6.1877Q8.77499 5.67546 8.56933 5.27965Q8.36366 4.88383 8.00276 4.66652Q7.64187 4.44921 7.19173 4.44921Q6.74158 4.44921 6.38069 4.67428Q6.0198 4.89935 5.81413 5.29517Q5.60846 5.69099 5.60846 6.1877Q5.60846 6.68441 5.81413 7.08022Q6.0198 7.47604 6.38069 7.70499Q6.74158 7.93395 7.19173 7.93395Q7.64187 7.93395 8.00276 7.71276Q8.36366 7.49156 8.56933 7.09575Q8.77499 6.69993 8.77499 6.1877ZM12.4538 4.33279Q12.4538 4.40264 12.415 4.44921Q12.3762 4.49578 12.3141 4.49578Q12.2908 4.49578 12.2015 4.46085Q12.1123 4.42592 12.0114 4.42592Q11.6932 4.42592 11.375 4.67816Q11.0568 4.9304 10.855 5.31457Q10.6532 5.69875 10.6532 6.05576V7.99604Q10.6532 8.05812 10.6066 8.10469Q10.5601 8.15126 10.498 8.15126Q10.4281 8.15126 10.3854 8.10469Q10.3427 8.05812 10.3427 7.99604V4.43369Q10.3427 4.3716 10.3893 4.32503Q10.4359 4.27846 10.498 4.27846Q10.5678 4.27846 10.6105 4.32503Q10.6532 4.3716 10.6532 4.43369V5.25636Q10.8317 4.78294 11.2081 4.47249Q11.5845 4.16205 12.0968 4.15429Q12.4538 4.15429 12.4538 4.33279ZM16.5283 4.43369V7.99604Q16.5283 8.05812 16.4818 8.10469Q16.4352 8.15126 16.3731 8.15126Q16.3033 8.15126 16.2606 8.10469Q16.2179 8.05812 16.2179 7.99604V7.29754Q16.0239 7.69335 15.6203 7.96111Q15.2167 8.22887 14.7278 8.22887Q14.2155 8.22887 13.8042 7.96111Q13.3929 7.69335 13.16 7.22381Q12.9272 6.75426 12.9272 6.17217Q12.9272 5.59785 13.1639 5.13607Q13.4006 4.67428 13.812 4.41428Q14.2233 4.15429 14.7278 4.15429Q15.2322 4.15429 15.6358 4.41816Q16.0394 4.68204 16.2179 5.12443V4.43369Q16.2179 4.3716 16.2606 4.32503Q16.3033 4.27846 16.3731 4.27846Q16.443 4.27846 16.4857 4.32503Q16.5283 4.3716 16.5283 4.43369ZM16.2489 6.17217Q16.2489 5.69875 16.0549 5.30293Q15.8609 4.90711 15.5155 4.67816Q15.1701 4.44921 14.7433 4.44921Q14.3164 4.44921 13.9711 4.6704Q13.6257 4.89159 13.4317 5.28353Q13.2376 5.67546 13.2376 6.17217Q13.2376 6.66889 13.4317 7.07246Q13.6257 7.47604 13.9672 7.70499Q14.3087 7.93395 14.7433 7.93395Q15.1701 7.93395 15.5155 7.70499Q15.8609 7.47604 16.0549 7.07246Q16.2489 6.66889 16.2489 6.17217ZM20.8978 4.26294Q20.8978 4.30951 20.8746 4.35608L19.3301 8.05036Q19.3146 8.09693 19.2719 8.12409Q19.2292 8.15126 19.1826 8.15126Q19.1361 8.15126 19.0934 8.12409Q19.0507 8.09693 19.0352 8.05036L17.483 4.36384Q17.4674 4.31727 17.4674 4.29399Q17.4674 4.2319 17.5101 4.18533Q17.5528 4.13876 17.6304 4.13876Q17.6692 4.13876 17.7119 4.16593Q17.7546 4.19309 17.7701 4.23966L19.1749 7.61574L20.5874 4.23966Q20.6262 4.13876 20.7504 4.13876Q20.797 4.13876 20.8474 4.17369Q20.8978 4.20861 20.8978 4.26294ZM24.9103 4.30951V7.77096Q24.9103 8.35305 24.6736 8.79155Q24.4369 9.23005 24.0217 9.46677Q23.6065 9.70348 23.0787 9.70348Q22.7372 9.70348 22.454 9.62199Q22.1707 9.5405 21.9766 9.40856Q21.8369 9.31542 21.8913 9.19901Q21.9456 9.10587 22.0232 9.10587Q22.062 9.10587 22.0931 9.12916Q22.2793 9.24557 22.5393 9.33483Q22.7993 9.42408 23.0942 9.42408Q23.5366 9.42408 23.8781 9.21453Q24.2196 9.00498 24.4098 8.62857Q24.5999 8.25215 24.5999 7.77096V7.42171Q24.4214 7.77096 24.0295 7.99992Q23.6375 8.22887 23.2184 8.22887Q22.5199 8.22887 22.1784 7.82917Q21.8369 7.42948 21.8369 6.73097V4.30951Q21.8369 4.24742 21.8796 4.20085Q21.9223 4.15429 21.9922 4.15429Q22.062 4.15429 22.1047 4.20085Q22.1474 4.24742 22.1474 4.30951V6.73097Q22.1474 7.93395 23.2184 7.93395Q23.5521 7.93395 23.8742 7.75932Q24.1963 7.5847 24.3981 7.3053Q24.5999 7.0259 24.5999 6.73097V4.30951Q24.5999 4.24742 24.6426 4.20085Q24.6853 4.15429 24.7551 4.15429Q24.825 4.15429 24.8677 4.20085Q24.9103 4.24742 24.9103 4.30951Z" style="display:inline;stroke:#000000;stroke-width:0.35;stroke-linecap:round;stroke-linejoin:bevel" />
        <path id="sapphire_gemstone" d="m 17.955,122.900 q 0,0.34175 -0.242534,0.63114 -0.0441,0.0524 -0.20395,0.21497 -0.187413,0.19017 -0.785481,0.81304 l -1.444183,1.51309 q -0.01929,0.003 -0.0441,0.003 -0.02756,0 -0.04134,-0.003 -0.08268,-0.0827 -0.647678,-0.67524 -0.468532,-0.47404 -0.934309,-0.94809 -0.556727,-0.56775 -0.89848,-0.98116 -0.132292,-0.15985 -0.168121,-0.29766 -0.02756,-0.10197 -0.02756,-0.34175 0,-0.11024 0.07166,-0.28939 0.06614,-0.16536 0.140559,-0.26458 0.118512,-0.1571 0.42168,-0.42444 0.283875,-0.2508 0.474044,-0.37482 0.272852,-0.17915 0.818555,-0.36656 0.09646,-0.0331 0.110243,-0.0331 h 1.3615 q 0.01102,0 0.104731,0.0331 0.567751,0.20119 0.824066,0.36656 0.165365,0.10473 0.474045,0.37758 0.322461,0.28388 0.421679,0.42168 0.214974,0.2949 0.214974,0.62563 z m -0.16812,-0.27285 q -0.03307,-0.10749 -0.135048,-0.30868 -0.07166,-0.0937 -0.209462,-0.19844 -0.118511,-0.0854 -0.234266,-0.17088 0.245291,0.3638 0.578776,0.678 z m -0.573264,-0.52366 -0.358289,-0.44648 v 0.41065 z m 0.636653,0.75792 q 0,-0.0524 -0.341753,-0.39412 l 0.228754,0.7028 h 0.04961 q 0.06339,-0.21773 0.06339,-0.30868 z m -0.23151,0.27285 -0.316948,-0.90399 -0.410655,-0.0634 -0.159853,0.61461 z m 0.0028,0.15434 -0.771701,-0.3197 h -0.03032 l 0.344509,0.60634 q 0.07993,-0.003 0.234266,-0.0469 0.02481,-0.0138 0.223242,-0.23978 z m -0.857139,-1.05006 -0.719335,0.28388 0.60358,0.22599 z m 0,-0.16261 v -0.51538 l -0.917773,-0.38034 h -1.223697 l -0.917772,0.38034 v 0.51538 l 0.89848,0.4079 h 1.254014 z m 0.573264,1.53789 q -0.0689,0.011 -0.198438,0.0524 -0.08544,0.0551 -0.259071,0.16261 0.01929,0 0.06339,0.003 0.04134,0 0.06339,0 0.118511,0 0.190169,-0.0689 0.07166,-0.0717 0.14056,-0.14883 z m -0.289388,0.003 -0.347266,-0.63114 -0.363801,0.87918 q 0.0248,-0.0165 0.06615,-0.0165 0.03032,0 0.08544,0.011 0.05788,0.008 0.08819,0.008 0.04961,0 0.228754,-0.10749 0.228754,-0.1378 0.242535,-0.14331 z m -0.440972,-0.74139 -0.683507,-0.2756 -0.592556,0.54845 0.903993,0.65595 z m -0.854383,-0.28387 h -1.036284 l 0.523654,0.47404 z m 0.749652,1.36701 q -0.228754,-0.0303 -0.228754,-0.0303 -0.03583,0 -0.272851,0.0937 l 0.190169,0.0193 q 0.01102,0 0.311436,-0.0827 z m -0.388606,-0.0882 -0.843359,-0.61185 v 0.67524 l 0.471289,0.0827 z m 0.854383,0.0496 q -0.09922,0.006 -0.2949,0.0386 -0.01102,0.003 -0.377583,0.17639 -0.129535,0.34726 -0.380338,1.0418 z m -2.543857,-1.39733 -0.719335,-0.28388 0.124023,0.51814 z m -0.802018,-0.45476 v -0.41065 l -0.366557,0.44648 z m 1.515841,1.07212 -0.592556,-0.54019 -0.683506,0.2756 0.380338,0.9288 z m 0.369314,0.94257 q -0.03307,-0.003 -0.135047,-0.0248 -0.08544,-0.0165 -0.137804,-0.0165 -0.05237,0 -0.137804,0.0165 -0.101975,0.0221 -0.135047,0.0248 0.264583,0.0469 0.272851,0.0469 0.0083,0 0.272851,-0.0469 z m -0.30868,-0.1378 v -0.68626 l -0.843359,0.61185 0.37207,0.14607 z m 0.950846,0.20671 -0.396875,-0.0551 -0.479557,0.14056 v 1.27607 z m -2.888366,-2.20211 q -0.118512,0.0854 -0.234267,0.17364 -0.146072,0.10748 -0.209461,0.19568 -0.0441,0.10473 -0.135048,0.31419 0.369314,-0.3638 0.578776,-0.68351 z m 0.476801,0.83234 -0.159853,-0.61461 -0.410655,0.0634 -0.316948,0.90399 z m 0.394118,1.08313 -0.363802,-0.87918 -0.355533,0.63114 q 0.43546,0.2508 0.451996,0.2508 0.09095,0 0.267339,-0.003 z m 1.821765,0.82958 q -0.132291,0.21222 -0.405143,0.6339 -0.07717,0.10749 -0.220486,0.32797 -0.05788,0.10473 -0.05512,0.226 0.159852,-0.15158 0.432704,-0.49609 0.07717,-0.12954 0.140559,-0.339 0.05512,-0.17639 0.107486,-0.35278 z m -1.493792,-0.66146 -0.270095,-0.0882 -0.0083,-0.011 q -0.02481,0 -0.107487,0.011 -0.06615,0.006 -0.107487,0.006 0.272851,0.091 0.311436,0.091 0.02481,0 0.181901,-0.008 z m -0.810286,-1.06384 h -0.03032 l -0.7717,0.3197 q 0.06615,0.0965 0.223242,0.23978 0.07717,0.0138 0.234266,0.0469 z m -0.689018,-0.50161 q -0.341754,0.34727 -0.341754,0.39412 0,0.0799 0.06339,0.30868 h 0.04961 z m 2.235176,3.04547 v -1.27607 l -0.479557,-0.14056 -0.396875,0.0551 z m -1.606791,-1.6757 q -0.256315,-0.1819 -0.457509,-0.22324 0.06615,0.0772 0.20395,0.22324 z m 1.609547,2.04501 v -0.1378 l -0.683507,-1.05007 q 0.05237,0.17639 0.107487,0.35278 0.06339,0.20946 0.14056,0.339 0.0689,0.11851 0.20395,0.25907 0.115755,0.11851 0.23151,0.23702 z m -0.644921,-0.70555 q -0.115756,-0.32798 -0.380339,-1.0418 -0.135047,-0.0662 -0.272851,-0.12954 -0.159852,-0.0716 -0.289388,-0.0716 -0.05237,0 -0.110243,-0.0138 z" style="stroke-width:0;fill:#0000ff;stroke:#2e2114;stroke-linecap:square;stroke-opacity:1" />
        <path id="controls_art" d="M 0.38,115.17 L 0.38,19.83 A 4 4 0 0 1 4.38 15.8333 L 26.10,15.83 A 4 4 0 0 1 30.1 19.8333 L 30.10,15.83 L 30.10,115.17 z" style="fill:url(#gradient_controls);fill-opacity:1;stroke-width:0;" />
        <path d="M12.7247 101.017V103.345Q12.7247 103.373 12.7018 103.394Q12.6788 103.415 12.6506 103.415Q12.6189 103.415 12.5977 103.394Q12.5765 103.373 12.5765 103.345V101.235L11.6664 102.611Q11.6487 102.639 11.617 102.639Q11.5782 102.639 11.5605 102.611L10.6468 101.232V103.345Q10.6468 103.373 10.6257 103.394Q10.6045 103.415 10.5763 103.415Q10.5445 103.415 10.5251 103.394Q10.5057 103.373 10.5057 103.345V101.017Q10.5057 100.992 10.5251 100.969Q10.5445 100.946 10.5727 100.946Q10.6186 100.946 10.6398 100.978L11.617 102.431L12.5942 100.978Q12.6224 100.939 12.6612 100.946Q12.6894 100.95 12.7071 100.969Q12.7247 100.988 12.7247 101.017ZM14.4321 103.451Q14.0899 103.451 13.8218 103.29Q13.5537 103.13 13.4038 102.84Q13.2539 102.551 13.2539 102.181Q13.2539 101.81 13.4038 101.521Q13.5537 101.232 13.8218 101.071Q14.0899 100.911 14.4321 100.911Q14.7743 100.911 15.0424 101.071Q15.3106 101.232 15.4605 101.521Q15.6104 101.81 15.6104 102.181Q15.6104 102.551 15.4605 102.84Q15.3106 103.13 15.0424 103.29Q14.7743 103.451 14.4321 103.451ZM14.4321 101.052Q14.1323 101.052 13.8977 101.193Q13.6631 101.334 13.5326 101.592Q13.402 101.849 13.402 102.181Q13.402 102.512 13.5326 102.77Q13.6631 103.027 13.8977 103.169Q14.1323 103.31 14.4321 103.31Q14.732 103.31 14.9666 103.169Q15.2012 103.027 15.3317 102.77Q15.4622 102.512 15.4622 102.181Q15.4622 101.849 15.3317 101.592Q15.2012 101.334 14.9666 101.193Q14.732 101.052 14.4321 101.052ZM18.1504 102.181Q18.1504 102.53 18.0393 102.809Q17.9282 103.087 17.6989 103.251Q17.4696 103.415 17.1274 103.415H16.2101Q16.1819 103.415 16.1608 103.394Q16.1396 103.373 16.1396 103.345V101.017Q16.1396 100.988 16.1608 100.967Q16.1819 100.946 16.2101 100.946H17.1274Q17.466 100.946 17.6971 101.115Q17.9282 101.285 18.0393 101.565Q18.1504 101.846 18.1504 102.181ZM18.0023 102.181Q18.0023 101.881 17.9052 101.632Q17.8082 101.383 17.6054 101.235Q17.4025 101.087 17.0921 101.087H16.2877V103.274H17.0921Q17.5507 103.274 17.7765 102.973Q18.0023 102.671 18.0023 102.181ZM20.1507 103.345Q20.1507 103.377 20.1295 103.396Q20.1083 103.415 20.0801 103.415H18.7501Q18.7219 103.415 18.7007 103.394Q18.6796 103.373 18.6796 103.345V101.017Q18.6796 100.988 18.7007 100.967Q18.7219 100.946 18.7501 100.946H20.0801Q20.1083 100.946 20.1295 100.967Q20.1507 100.988 20.1507 101.017Q20.1507 101.048 20.1295 101.068Q20.1083 101.087 20.0801 101.087H18.8278V102.071H19.9214Q19.9496 102.071 19.9708 102.093Q19.9919 102.114 19.9919 102.142Q19.9919 102.174 19.9708 102.193Q19.9496 102.213 19.9214 102.213H18.8278V103.274H20.0801Q20.1083 103.274 20.1295 103.296Q20.1507 103.317 20.1507 103.345Z" style="stroke:#000000;stroke-width:0.25;stroke-linecap:round;stroke-linejoin:bevel" />
        <path d="M12.513 20.1833Q12.513 20.215 12.4919 20.2344Q12.4707 20.2538 12.4425 20.2538H11.1831V21.2275H12.2837Q12.3119 21.2275 12.3331 21.2487Q12.3543 21.2698 12.3543 21.2981Q12.3543 21.3298 12.3331 21.3492Q12.3119 21.3686 12.2837 21.3686H11.1831V22.5116Q11.1831 22.5398 11.1637 22.561Q11.1443 22.5822 11.1125 22.5822Q11.0808 22.5822 11.0613 22.561Q11.0419 22.5398 11.0419 22.5116V20.1833Q11.0419 20.1551 11.0631 20.1339Q11.0843 20.1127 11.1125 20.1127H12.4425Q12.4707 20.1127 12.4919 20.1339Q12.513 20.1551 12.513 20.1833ZM14.8378 22.5081Q14.8378 22.5398 14.8184 22.5592Q14.799 22.5786 14.7708 22.5786Q14.7496 22.5786 14.7391 22.5716Q14.6438 22.5187 14.5874 22.3934Q14.5309 22.2682 14.5309 21.9824Q14.5309 21.6932 14.3757 21.5856Q14.2205 21.478 14.0159 21.478H13.1904V22.5116Q13.1904 22.5398 13.1692 22.561Q13.148 22.5822 13.1163 22.5822Q13.0845 22.5822 13.0634 22.561Q13.0422 22.5398 13.0422 22.5116V20.1833Q13.0422 20.1551 13.0634 20.1339Q13.0845 20.1127 13.1128 20.1127H14.0441Q14.2487 20.1127 14.4074 20.1956Q14.5662 20.2785 14.6544 20.4232Q14.7426 20.5678 14.7426 20.7512Q14.7426 20.9876 14.6173 21.1569Q14.4921 21.3263 14.291 21.3863Q14.4604 21.4392 14.5697 21.5962Q14.6791 21.7531 14.6791 21.9824Q14.6791 22.2188 14.7091 22.3123Q14.7391 22.4058 14.799 22.4446Q14.8378 22.4693 14.8378 22.5081ZM14.0617 21.3369Q14.284 21.3157 14.4392 21.1605Q14.5944 21.0053 14.5944 20.7548Q14.5944 20.5361 14.4392 20.3949Q14.284 20.2538 14.0264 20.2538H13.1904V21.3369ZM16.8557 22.5116Q16.8557 22.5434 16.8346 22.5628Q16.8134 22.5822 16.7852 22.5822H15.4552Q15.427 22.5822 15.4058 22.561Q15.3846 22.5398 15.3846 22.5116V20.1833Q15.3846 20.1551 15.4058 20.1339Q15.427 20.1127 15.4552 20.1127H16.7852Q16.8134 20.1127 16.8346 20.1339Q16.8557 20.1551 16.8557 20.1833Q16.8557 20.215 16.8346 20.2344Q16.8134 20.2538 16.7852 20.2538H15.5328V21.2381H16.6264Q16.6546 21.2381 16.6758 21.2593Q16.697 21.2804 16.697 21.3086Q16.697 21.3404 16.6758 21.3598Q16.6546 21.3792 16.6264 21.3792H15.5328V22.4411H16.7852Q16.8134 22.4411 16.8346 22.4622Q16.8557 22.4834 16.8557 22.5116ZM19.8438 22.8714Q19.8438 22.9385 19.745 23.0073Q19.6462 23.0761 19.4998 23.1202Q19.3534 23.1642 19.2229 23.1642Q19.0288 23.1642 18.8948 23.1219Q18.7607 23.0796 18.5879 22.9949Q18.4432 22.9208 18.3374 22.8856Q18.2316 22.8503 18.094 22.8503Q18.0446 22.8503 18.004 22.8626Q17.9634 22.875 17.907 22.8997Q17.8435 22.9279 17.8223 22.9279Q17.7941 22.9279 17.7729 22.9067Q17.7518 22.8856 17.7518 22.8538Q17.7518 22.8115 17.7906 22.7938L18.3056 22.6139Q17.9846 22.5963 17.7359 22.4305Q17.4872 22.2647 17.3478 21.9842Q17.2085 21.7037 17.2085 21.3474Q17.2085 20.977 17.3584 20.6878Q17.5084 20.3985 17.7765 20.238Q18.0446 20.0774 18.3868 20.0774Q18.729 20.0774 18.9971 20.238Q19.2652 20.3985 19.4151 20.6878Q19.5651 20.977 19.5651 21.3474Q19.5651 21.6649 19.4539 21.9225Q19.3428 22.18 19.14 22.3529Q18.9371 22.5257 18.6725 22.5857L18.2386 22.7268Q18.348 22.7374 18.4415 22.7727Q18.5349 22.8079 18.6655 22.8714Q18.8348 22.9526 18.9512 22.9914Q19.0676 23.0302 19.2229 23.0302Q19.3534 23.0302 19.4469 22.9967Q19.5404 22.9632 19.6286 22.9138Q19.6568 22.8997 19.6956 22.8609Q19.7168 22.8397 19.7397 22.8256Q19.7626 22.8115 19.7838 22.8115Q19.812 22.8115 19.8279 22.8273Q19.8438 22.8432 19.8438 22.8714ZM18.3868 22.4763Q18.6866 22.4763 18.9212 22.3352Q19.1558 22.1941 19.2864 21.9366Q19.4169 21.6791 19.4169 21.3474Q19.4169 21.0158 19.2864 20.7583Q19.1558 20.5008 18.9212 20.3597Q18.6866 20.2186 18.3868 20.2186Q18.0869 20.2186 17.8523 20.3597Q17.6177 20.5008 17.4872 20.7583Q17.3567 21.0158 17.3567 21.3474Q17.3567 21.6791 17.4872 21.9366Q17.6177 22.1941 17.8523 22.3352Q18.0869 22.4763 18.3868 22.4763Z" style="stroke:#000000;stroke-width:0.25;stroke-linecap:round;stroke-linejoin:bevel" />
        <path d="M14.2469 42.3414Q14.2469 42.3732 14.2275 42.3926Q14.2081 42.412 14.1799 42.412Q14.1587 42.412 14.1482 42.4049Q14.0529 42.352 13.9965 42.2268Q13.94 42.1015 13.94 41.8158Q13.94 41.5265 13.7848 41.4189Q13.6296 41.3113 13.425 41.3113H12.5995V42.3449Q12.5995 42.3732 12.5783 42.3943Q12.5571 42.4155 12.5254 42.4155Q12.4936 42.4155 12.4725 42.3943Q12.4513 42.3732 12.4513 42.3449V40.0166Q12.4513 39.9884 12.4725 39.9672Q12.4936 39.9461 12.5218 39.9461H13.4532Q13.6578 39.9461 13.8165 40.029Q13.9753 40.1119 14.0635 40.2565Q14.1517 40.4011 14.1517 40.5846Q14.1517 40.8209 14.0264 40.9903Q13.9012 41.1596 13.7001 41.2196Q13.8695 41.2725 13.9788 41.4295Q14.0882 41.5865 14.0882 41.8158Q14.0882 42.0521 14.1182 42.1456Q14.1482 42.2391 14.2081 42.2779Q14.2469 42.3026 14.2469 42.3414ZM13.4708 41.1702Q13.6931 41.149 13.8483 40.9938Q14.0035 40.8386 14.0035 40.5881Q14.0035 40.3694 13.8483 40.2283Q13.6931 40.0872 13.4355 40.0872H12.5995V41.1702ZM16.2648 42.3449Q16.2648 42.3767 16.2437 42.3961Q16.2225 42.4155 16.1943 42.4155H14.8643Q14.8361 42.4155 14.8149 42.3943Q14.7937 42.3732 14.7937 42.3449V40.0166Q14.7937 39.9884 14.8149 39.9672Q14.8361 39.9461 14.8643 39.9461H16.1943Q16.2225 39.9461 16.2437 39.9672Q16.2648 39.9884 16.2648 40.0166Q16.2648 40.0484 16.2437 40.0678Q16.2225 40.0872 16.1943 40.0872H14.9419V41.0714H16.0355Q16.0637 41.0714 16.0849 41.0926Q16.1061 41.1137 16.1061 41.142Q16.1061 41.1737 16.0849 41.1931Q16.0637 41.2125 16.0355 41.2125H14.9419V42.2744H16.1943Q16.2225 42.2744 16.2437 42.2956Q16.2648 42.3167 16.2648 42.3449ZM16.5858 42.0804Q16.5647 42.0592 16.5647 42.0274Q16.5647 41.9992 16.5894 41.9728Q16.6141 41.9463 16.6423 41.9463Q16.674 41.9463 16.7023 41.9781Q16.8398 42.1403 17.0286 42.225Q17.2173 42.3097 17.4255 42.3097Q17.6971 42.3097 17.8735 42.1791Q18.0499 42.0486 18.0499 41.8334Q18.0463 41.6641 17.9582 41.5547Q17.87 41.4454 17.7412 41.3801Q17.6124 41.3148 17.3902 41.2337Q17.1468 41.142 17.0109 41.0714Q16.8751 41.0009 16.7781 40.8703Q16.6811 40.7398 16.6811 40.5281Q16.6811 40.3553 16.7763 40.2142Q16.8716 40.0731 17.048 39.9919Q17.2244 39.9108 17.4572 39.9108Q17.6653 39.9108 17.8523 39.9866Q18.0393 40.0625 18.1487 40.2001Q18.1839 40.2494 18.1839 40.2741Q18.1839 40.3024 18.1575 40.3253Q18.131 40.3482 18.0993 40.3482Q18.071 40.3482 18.0534 40.3271Q17.9546 40.2001 17.7994 40.126Q17.6442 40.0519 17.4572 40.0519Q17.1891 40.0519 17.0109 40.1789Q16.8328 40.3059 16.8328 40.5246Q16.8328 40.6763 16.9192 40.7821Q17.0057 40.888 17.1362 40.9532Q17.2667 41.0185 17.4607 41.0891Q17.7077 41.1772 17.8523 41.2513Q17.997 41.3254 18.0993 41.4665Q18.2016 41.6076 18.2016 41.8405Q18.2016 42.0027 18.1063 42.1439Q18.0111 42.285 17.8329 42.3679Q17.6548 42.4508 17.4255 42.4508Q17.1644 42.4508 16.9704 42.3608Q16.7763 42.2709 16.5858 42.0804Z" style="stroke:#000000;stroke-width:0.25;stroke-linecap:round;stroke-linejoin:bevel" />
        <path d="M14.8837 59.8499V62.1783Q14.8837 62.2065 14.8608 62.2277Q14.8378 62.2488 14.8096 62.2488Q14.7779 62.2488 14.7567 62.2277Q14.7355 62.2065 14.7355 62.1783V60.0687L13.8254 61.4445Q13.8077 61.4727 13.776 61.4727Q13.7372 61.4727 13.7195 61.4445L12.8058 60.0651V62.1783Q12.8058 62.2065 12.7847 62.2277Q12.7635 62.2488 12.7353 62.2488Q12.7035 62.2488 12.6841 62.2277Q12.6647 62.2065 12.6647 62.1783V59.8499Q12.6647 59.8252 12.6841 59.8023Q12.7035 59.7794 12.7317 59.7794Q12.7776 59.7794 12.7988 59.8111L13.776 61.2646L14.7532 59.8111Q14.7814 59.7723 14.8202 59.7794Q14.8484 59.7829 14.8661 59.8023Q14.8837 59.8217 14.8837 59.8499ZM15.6633 62.2488Q15.6281 62.2488 15.6087 62.2277Q15.5892 62.2065 15.5892 62.1747V59.8535Q15.5892 59.8217 15.6104 59.8006Q15.6316 59.7794 15.6633 59.7794Q15.6951 59.7794 15.7162 59.8006Q15.7374 59.8217 15.7374 59.8535V62.1747Q15.7339 62.2065 15.7127 62.2277Q15.6916 62.2488 15.6633 62.2488ZM18.0446 62.1465Q18.0622 62.1712 18.0622 62.1889Q18.0622 62.2206 18.0411 62.24Q18.0199 62.2594 17.9881 62.2594Q17.9493 62.2594 17.9317 62.2312L17.1238 61.1305L16.3195 62.2312Q16.3019 62.2594 16.2666 62.2594Q16.2348 62.2594 16.2172 62.24Q16.1996 62.2206 16.1996 62.1994Q16.1996 62.1818 16.2172 62.1536L17.0462 61.0212L16.2101 59.8817Q16.196 59.8641 16.196 59.8394Q16.196 59.8076 16.2172 59.7882Q16.2384 59.7688 16.2666 59.7688Q16.3089 59.7688 16.3266 59.797L17.1344 60.9012L17.9387 59.7935Q17.9599 59.7653 17.9917 59.7653Q18.0234 59.7653 18.0428 59.7812Q18.0622 59.797 18.0622 59.8217Q18.0622 59.8464 18.0446 59.8711L17.2156 61.0141Z" style="stroke:#000000;stroke-width:0.25;stroke-linecap:round;stroke-linejoin:bevel" />
        <path d="M13.3844 80.9356V81.8211Q13.3844 81.8634 13.3526 81.8846Q13.1904 81.994 12.9981 82.0557Q12.8058 82.1174 12.6083 82.1174Q12.2449 82.1174 11.9574 81.9534Q11.6699 81.7894 11.5058 81.5001Q11.3418 81.2108 11.3418 80.8474Q11.3418 80.4841 11.5058 80.1948Q11.6699 79.9055 11.9574 79.7415Q12.2449 79.5774 12.6083 79.5774Q12.8058 79.5774 12.984 79.6251Q13.1621 79.6727 13.3033 79.7679Q13.335 79.7891 13.335 79.8279Q13.335 79.8597 13.3121 79.8791Q13.2891 79.8985 13.268 79.8985Q13.2503 79.8985 13.2221 79.8844Q12.9258 79.7186 12.6083 79.7186Q12.2837 79.7186 12.0297 79.8632Q11.7757 80.0078 11.6328 80.2654Q11.49 80.5229 11.49 80.8474Q11.49 81.172 11.6328 81.4295Q11.7757 81.6871 12.0297 81.8317Q12.2837 81.9763 12.6083 81.9763Q12.7706 81.9763 12.9381 81.9252Q13.1057 81.874 13.2433 81.7894V81.0062H12.6083Q12.5801 81.0062 12.5589 80.985Q12.5377 80.9639 12.5377 80.9356Q12.5377 80.9039 12.5589 80.8845Q12.5801 80.8651 12.6083 80.8651H13.3138Q13.3456 80.8651 13.365 80.8862Q13.3844 80.9074 13.3844 80.9356ZM15.7797 82.0151Q15.7797 82.0469 15.7586 82.0645Q15.7374 82.0822 15.7057 82.0822Q15.681 82.0822 15.6616 82.0698Q15.6422 82.0575 15.6351 82.0363L15.3388 81.3096L15.3423 81.3166H14.1605L13.8748 82.0363Q13.8571 82.0822 13.8112 82.0822Q13.7795 82.0822 13.7601 82.0645Q13.7407 82.0469 13.7372 82.0222Q13.7336 82.0081 13.7407 81.9869L14.6897 79.6515Q14.7003 79.6233 14.7161 79.6145Q14.732 79.6057 14.7567 79.6057Q14.8096 79.6057 14.8272 79.6515L15.7762 81.9869Q15.7797 81.9975 15.7797 82.0151ZM14.2169 81.1755H15.2859L14.7461 79.8456ZM16.3301 82.0822Q16.2948 82.0822 16.2754 82.061Q16.256 82.0398 16.256 82.0081V79.6868Q16.256 79.6551 16.2772 79.6339Q16.2983 79.6127 16.3301 79.6127Q16.3618 79.6127 16.383 79.6339Q16.4042 79.6551 16.4042 79.6868V82.0081Q16.4006 82.0398 16.3795 82.061Q16.3583 82.0822 16.3301 82.0822ZM18.9618 79.6797V82.0046Q18.9618 82.0434 18.9406 82.0628Q18.9195 82.0822 18.8877 82.0822Q18.8524 82.0822 18.8313 82.0539L17.2438 79.8844V82.0222Q17.2438 82.0469 17.2244 82.0645Q17.205 82.0822 17.1767 82.0822Q17.145 82.0822 17.1274 82.0645Q17.1097 82.0469 17.1097 82.0222V79.6833Q17.1097 79.648 17.1291 79.6304Q17.1485 79.6127 17.1732 79.6127Q17.205 79.6127 17.2261 79.6374L18.8277 81.8211V79.6797Q18.8277 79.6515 18.8472 79.6321Q18.8666 79.6127 18.8948 79.6127Q18.9265 79.6127 18.9442 79.6321Q18.9618 79.6515 18.9618 79.6797Z" style="stroke:#000000;stroke-width:0.25;stroke-linecap:round;stroke-linejoin:bevel" />
    </g>
</svg>
