<?xml version="1.0" encoding="utf-8"?>
<svg xmlns="http://www.w3.org/2000/svg" width="30.48mm" height="128.50mm" viewBox="0 0 30.48 128.50">
    <g id="PanelLayer">
        <defs>
            <linearGradient id="gradient_controls" x1="0" y1="16.3333" x2="0" y2="107.667" gradientUnits="userSpaceOnUse">
                <stop style="stop-color:#3068ff;stop-opacity:1;" offset="0" />
                <stop style="stop-color:#4f8df2;stop-opacity:1;" offset="1" />
            </linearGradient>
        </defs>
        <rect id="border_rect" width="30.48" height="128.5" x="0" y="0" style="display:inline;fill:#4f8df2;fill-opacity:1;fill-rule:nonzero;stroke:#5021d4;stroke-width:0.7;stroke-linecap:round;stroke-linejoin:round;stroke-dasharray:none;stroke-opacity:1;image-rendering:auto" />
        <path id="model_name" d="M9.05439 4.43369V7.77096Q9.05439 8.36081 8.8138 8.79543Q8.57321 9.23005 8.13858 9.46677Q7.70396 9.70348 7.14516 9.70348Q6.83472 9.70348 6.51651 9.62199Q6.19831 9.5405 5.99264 9.41244Q5.78697 9.28438 5.78697 9.15244Q5.78697 9.09035 5.82189 9.05155Q5.85682 9.01274 5.91891 9.01274Q5.96547 9.01274 6.05861 9.09035Q6.16726 9.19901 6.2992 9.25334Q6.67949 9.40856 7.16068 9.40856Q7.89023 9.40856 8.31709 8.95841Q8.74395 8.50827 8.74395 7.77096V7.23545Q8.5344 7.73216 8.0959 7.98051Q7.65739 8.22887 7.17621 8.22887Q6.64845 8.22887 6.21771 7.96111Q5.78697 7.69335 5.54249 7.22769Q5.29802 6.76202 5.29802 6.1877Q5.29802 5.61337 5.54249 5.14771Q5.78697 4.68204 6.21771 4.41816Q6.64845 4.15429 7.17621 4.15429Q7.6962 4.15429 8.12694 4.42981Q8.55768 4.70533 8.74395 5.09338V4.43369Q8.74395 4.3716 8.78664 4.32503Q8.82932 4.27846 8.89917 4.27846Q8.96902 4.27846 9.01171 4.32503Q9.05439 4.3716 9.05439 4.43369ZM8.77499 6.1877Q8.77499 5.67546 8.56933 5.27965Q8.36366 4.88383 8.00276 4.66652Q7.64187 4.44921 7.19173 4.44921Q6.74158 4.44921 6.38069 4.67428Q6.0198 4.89935 5.81413 5.29517Q5.60846 5.69099 5.60846 6.1877Q5.60846 6.68441 5.81413 7.08022Q6.0198 7.47604 6.38069 7.70499Q6.74158 7.93395 7.19173 7.93395Q7.64187 7.93395 8.00276 7.71276Q8.36366 7.49156 8.56933 7.09575Q8.77499 6.69993 8.77499 6.1877ZM12.4538 4.33279Q12.4538 4.40264 12.415 4.44921Q12.3762 4.49578 12.3141 4.49578Q12.2908 4.49578 12.2015 4.46085Q12.1123 4.42592 12.0114 4.42592Q11.6932 4.42592 11.375 4.67816Q11.0568 4.9304 10.855 5.31457Q10.6532 5.69875 10.6532 6.05576V7.99604Q10.6532 8.05812 10.6066 8.10469Q10.5601 8.15126 10.498 8.15126Q10.4281 8.15126 10.3854 8.10469Q10.3427 8.05812 10.3427 7.99604V4.43369Q10.3427 4.3716 10.3893 4.32503Q10.4359 4.27846 10.498 4.27846Q10.5678 4.27846 10.6105 4.32503Q10.6532 4.3716 10.6532 4.43369V5.25636Q10.8317 4.78294 11.2081 4.47249Q11.5845 4.16205 12.0968 4.15429Q12.4538 4.15429 12.4538 4.33279ZM16.5283 4.43369V7.99604Q16.5283 8.05812 16.4818 8.10469Q16.4352 8.15126 16.3731 8.15126Q16.3033 8.15126 16.2606 8.10469Q16.2179 8.05812 16.2179 7.99604V7.29754Q16.0239 7.69335 15.6203 7.96111Q15.2167 8.22887 14.7278 8.22887Q14.2155 8.22887 13.8042 7.96111Q13.3929 7.69335 13.16 7.22381Q12.9272 6.75426 12.9272 6.17217Q12.9272 5.59785 13.1639 5.13607Q13.4006 4.67428 13.812 4.41428Q14.2233 4.15429 14.7278 4.15429Q15.2322 4.15429 15.6358 4.41816Q16.0394 4.68204 16.2179 5.12443V4.43369Q16.2179 4.3716 16.2606 4.32503Q16.3033 4.27846 16.3731 4.27846Q16.443 4.27846 16.4857 4.32503Q16.5283 4.3716 16.5283 4.43369ZM16.2489 6.17217Q16.2489 5.69875 16.0549 5.30293Q15.8609 4.90711 15.5155 4.67816Q15.1701 4.44921 14.7433 4.44921Q14.3164 4.44921 13.9711 4.6704Q13.6257 4.89159 13.4317 5.28353Q13.2376 5.67546 13.2376 6.17217Q13.2376 6.66889 13.4317 7.07246Q13.6257 7.47604 13.9672 7.70499Q14.3087 7.93395 14.7433 7.93395Q15.1701 7.93395 15.5155 7.70499Q15.8609 7.47604 16.0549 7.07246Q16.2489 6.66889 16.2489 6.17217ZM20.8978 4.26294Q20.8978 4.30951 20.8746 4.35608L19.3301 8.05036Q19.3146 8.09693 19.2719 8.12409Q19.2292 8.15126 19.1826 8.15126Q19.1361 8.15126 19.0934 8.12409Q19.0507 8.09693 19.0352 8.05036L17.483 4.36384Q17.4674 4.31727 17.4674 4.29399Q17.4674 4.2319 17.5101 4.18533Q17.5528 4.13876 17.6304 4.13876Q17.6692 4.13876 17.7119 4.16593Q17.7546 4.19309 17.7701 4.23966L19.1749 7.61574L20.5874 4.23966Q20.6262 4.13876 20.7504 4.13876Q20.797 4.13876 20.8474 4.17369Q20.8978 4.20861 20.8978 4.26294ZM24.9103 4.30951V7.77096Q24.9103 8.35305 24.6736 8.79155Q24.4369 9.23005 24.0217 9.46677Q23.6065 9.70348 23.0787 9.70348Q22.7372 9.70348 22.454 9.62199Q22.1707 9.5405 21.9766 9.40856Q21.8369 9.31542 21.8913 9.19901Q21.9456 9.10587 22.0232 9.10587Q22.062 9.10587 22.0931 9.12916Q22.2793 9.24557 22.5393 9.33483Q22.7993 9.42408 23.0942 9.42408Q23.5366 9.42408 23.8781 9.21453Q24.2196 9.00498 24.4098 8.62857Q24.5999 8.25215 24.5999 7.77096V7.42171Q24.4214 7.77096 24.0295 7.99992Q23.6375 8.22887 23.2184 8.22887Q22.5199 8.22887 22.1784 7.82917Q21.8369 7.42948 21.8369 6.73097V4.30951Q21.8369 4.24742 21.8796 4.20085Q21.9223 4.15429 21.9922 4.15429Q22.062 4.15429 22.1047 4.20085Q22.1474 4.24742 22.1474 4.30951V6.73097Q22.1474 7.93395 23.2184 7.93395Q23.5521 7.93395 23.8742 7.75932Q24.1963 7.5847 24.3981 7.3053Q24.5999 7.0259 24.5999 6.73097V4.30951Q24.5999 4.24742 24.6426 4.20085Q24.6853 4.15429 24.7551 4.15429Q24.825 4.15429 24.8677 4.20085Q24.9103 4.24742 24.9103 4.30951Z" style="display:inline;stroke:#000000;stroke-width:0.35;stroke-linecap:round;stroke-linejoin:bevel" />
        <path id="sapphire_gemstone" d="m 17.955,122.900 q 0,0.34175 -0.242534,0.63114 -0.0441,0.0524 -0.20395,0.21497 -0.187413,0.19017 -0.785481,0.81304 l -1.444183,1.51309 q -0.01929,0.003 -0.0441,0.003 -0.02756,0 -0.04134,-0.003 -0.08268,-0.0827 -0.647678,-0.67524 -0.468532,-0.47404 -0.934309,-0.94809 -0.556727,-0.56775 -0.89848,-0.98116 -0.132292,-0.15985 -0.168121,-0.29766 -0.02756,-0.10197 -0.02756,-0.34175 0,-0.11024 0.07166,-0.28939 0.06614,-0.16536 0.140559,-0.26458 0.118512,-0.1571 0.42168,-0.42444 0.283875,-0.2508 0.474044,-0.37482 0.272852,-0.17915 0.818555,-0.36656 0.09646,-0.0331 0.110243,-0.0331 h 1.3615 q 0.01102,0 0.104731,0.0331 0.567751,0.20119 0.824066,0.36656 0.165365,0.10473 0.474045,0.37758 0.322461,0.28388 0.421679,0.42168 0.214974,0.2949 0.214974,0.62563 z m -0.16812,-0.27285 q -0.03307,-0.10749 -0.135048,-0.30868 -0.07166,-0.0937 -0.209462,-0.19844 -0.118511,-0.0854 -0.234266,-0.17088 0.245291,0.3638 0.578776,0.678 z m -0.573264,-0.52366 -0.358289,-0.44648 v 0.41065 z m 0.636653,0.75792 q 0,-0.0524 -0.341753,-0.39412 l 0.228754,0.7028 h 0.04961 q 0.06339,-0.21773 0.06339,-0.30868 z m -0.23151,0.27285 -0.316948,-0.90399 -0.410655,-0.0634 -0.159853,0.61461 z m 0.0028,0.15434 -0.771701,-0.3197 h -0.03032 l 0.344509,0.60634 q 0.07993,-0.003 0.234266,-0.0469 0.02481,-0.0138 0.223242,-0.23978 z m -0.857139,-1.05006 -0.719335,0.28388 0.60358,0.22599 z m 0,-0.16261 v -0.51538 l -0.917773,-0.38034 h -1.223697 l -0.917772,0.38034 v 0.51538 l 0.89848,0.4079 h 1.254014 z m 0.573264,1.53789 q -0.0689,0.011 -0.198438,0.0524 -0.08544,0.0551 -0.259071,0.16261 0.01929,0 0.06339,0.003 0.04134,0 0.06339,0 0.118511,0 0.190169,-0.0689 0.07166,-0.0717 0.14056,-0.14883 z m -0.289388,0.003 -0.347266,-0.63114 -0.363801,0.87918 q 0.0248,-0.0165 0.06615,-0.0165 0.03032,0 0.08544,0.011 0.05788,0.008 0.08819,0.008 0.04961,0 0.228754,-0.10749 0.228754,-0.1378 0.242535,-0.14331 z m -0.440972,-0.74139 -0.683507,-0.2756 -0.592556,0.54845 0.903993,0.65595 z m -0.854383,-0.28387 h -1.036284 l 0.523654,0.47404 z m 0.749652,1.36701 q -0.228754,-0.0303 -0.228754,-0.0303 -0.03583,0 -0.272851,0.0937 l 0.190169,0.0193 q 0.01102,0 0.311436,-0.0827 z m -0.388606,-0.0882 -0.843359,-0.61185 v 0.67524 l 0.471289,0.0827 z m 0.854383,0.0496 q -0.09922,0.006 -0.2949,0.0386 -0.01102,0.003 -0.377583,0.17639 -0.129535,0.34726 -0.380338,1.0418 z m -2.543857,-1.39733 -0.719335,-0.28388 0.124023,0.51814 z m -0.802018,-0.45476 v -0.41065 l -0.366557,0.44648 z m 1.515841,1.07212 -0.592556,-0.54019 -0.683506,0.2756 0.380338,0.9288 z m 0.369314,0.94257 q -0.03307,-0.003 -0.135047,-0.0248 -0.08544,-0.0165 -0.137804,-0.0165 -0.05237,0 -0.137804,0.0165 -0.101975,0.0221 -0.135047,0.0248 0.264583,0.0469 0.272851,0.0469 0.0083,0 0.272851,-0.0469 z m -0.30868,-0.1378 v -0.68626 l -0.843359,0.61185 0.37207,0.14607 z m 0.950846,0.20671 -0.396875,-0.0551 -0.479557,0.14056 v 1.27607 z m -2.888366,-2.20211 q -0.118512,0.0854 -0.234267,0.17364 -0.146072,0.10748 -0.209461,0.19568 -0.0441,0.10473 -0.135048,0.31419 0.369314,-0.3638 0.578776,-0.68351 z m 0.476801,0.83234 -0.159853,-0.61461 -0.410655,0.0634 -0.316948,0.90399 z m 0.394118,1.08313 -0.363802,-0.87918 -0.355533,0.63114 q 0.43546,0.2508 0.451996,0.2508 0.09095,0 0.267339,-0.003 z m 1.821765,0.82958 q -0.132291,0.21222 -0.405143,0.6339 -0.07717,0.10749 -0.220486,0.32797 -0.05788,0.10473 -0.05512,0.226 0.159852,-0.15158 0.432704,-0.49609 0.07717,-0.12954 0.140559,-0.339 0.05512,-0.17639 0.107486,-0.35278 z m -1.493792,-0.66146 -0.270095,-0.0882 -0.0083,-0.011 q -0.02481,0 -0.107487,0.011 -0.06615,0.006 -0.107487,0.006 0.272851,0.091 0.311436,0.091 0.02481,0 0.181901,-0.008 z m -0.810286,-1.06384 h -0.03032 l -0.7717,0.3197 q 0.06615,0.0965 0.223242,0.23978 0.07717,0.0138 0.234266,0.0469 z m -0.689018,-0.50161 q -0.341754,0.34727 -0.341754,0.39412 0,0.0799 0.06339,0.30868 h 0.04961 z m 2.235176,3.04547 v -1.27607 l -0.479557,-0.14056 -0.396875,0.0551 z m -1.606791,-1.6757 q -0.256315,-0.1819 -0.457509,-0.22324 0.06615,0.0772 0.20395,0.22324 z m 1.609547,2.04501 v -0.1378 l -0.683507,-1.05007 q 0.05237,0.17639 0.107487,0.35278 0.06339,0.20946 0.14056,0.339 0.0689,0.11851 0.20395,0.25907 0.115755,0.11851 0.23151,0.23702 z m -0.644921,-0.70555 q -0.115756,-0.32798 -0.380339,-1.0418 -0.135047,-0.0662 -0.272851,-0.12954 -0.159852,-0.0716 -0.289388,-0.0716 -0.05237,0 -0.110243,-0.0138 z" style="stroke-width:0;fill:#0000ff;stroke:#2e2114;stroke-linecap:square;stroke-opacity:1" />
        <path id="controls_art" d="M 0.38,107.67 L 0.38,20.33 A 4 4 0 0 1 4.38 16.3333 L 26.10,16.33 A 4 4 0 0 1 30.1 20.3333 L 30.10,16.33 L 30.10,107.67 z" style="fill:url(#gradient_controls);fill-opacity:1;stroke-width:0;" />
        <path d="M12.7247 94.0166V96.3449Q12.7247 96.3732 12.7018 96.3943Q12.6788 96.4155 12.6506 96.4155Q12.6189 96.4155 12.5977 96.3943Q12.5765 96.3732 12.5765 96.3449V94.2353L11.6664 95.6112Q11.6487 95.6394 11.617 95.6394Q11.5782 95.6394 11.5605 95.6112L10.6468 94.2318V96.3449Q10.6468 96.3732 10.6257 96.3943Q10.6045 96.4155 10.5763 96.4155Q10.5445 96.4155 10.5251 96.3943Q10.5057 96.3732 10.5057 96.3449V94.0166Q10.5057 93.9919 10.5251 93.969Q10.5445 93.9461 10.5727 93.9461Q10.6186 93.9461 10.6398 93.9778L11.617 95.4312L12.5942 93.9778Q12.6224 93.939 12.6612 93.9461Q12.6894 93.9496 12.7071 93.969Q12.7247 93.9884 12.7247 94.0166ZM14.4321 96.4508Q14.0899 96.4508 13.8218 96.2903Q13.5537 96.1298 13.4038 95.8405Q13.2539 95.5512 13.2539 95.1808Q13.2539 94.8104 13.4038 94.5211Q13.5537 94.2318 13.8218 94.0713Q14.0899 93.9108 14.4321 93.9108Q14.7743 93.9108 15.0424 94.0713Q15.3106 94.2318 15.4605 94.5211Q15.6104 94.8104 15.6104 95.1808Q15.6104 95.5512 15.4605 95.8405Q15.3106 96.1298 15.0424 96.2903Q14.7743 96.4508 14.4321 96.4508ZM14.4321 94.0519Q14.1323 94.0519 13.8977 94.193Q13.6631 94.3341 13.5326 94.5916Q13.402 94.8492 13.402 95.1808Q13.402 95.5124 13.5326 95.7699Q13.6631 96.0274 13.8977 96.1686Q14.1323 96.3097 14.4321 96.3097Q14.732 96.3097 14.9666 96.1686Q15.2012 96.0274 15.3317 95.7699Q15.4622 95.5124 15.4622 95.1808Q15.4622 94.8492 15.3317 94.5916Q15.2012 94.3341 14.9666 94.193Q14.732 94.0519 14.4321 94.0519ZM18.1504 95.1808Q18.1504 95.53 18.0393 95.8087Q17.9282 96.0874 17.6989 96.2515Q17.4696 96.4155 17.1274 96.4155H16.2101Q16.1819 96.4155 16.1608 96.3943Q16.1396 96.3732 16.1396 96.3449V94.0166Q16.1396 93.9884 16.1608 93.9672Q16.1819 93.9461 16.2101 93.9461H17.1274Q17.466 93.9461 17.6971 94.1154Q17.9282 94.2847 18.0393 94.5652Q18.1504 94.8456 18.1504 95.1808ZM18.0023 95.1808Q18.0023 94.8809 17.9052 94.6322Q17.8082 94.3835 17.6054 94.2353Q17.4025 94.0872 17.0921 94.0872H16.2877V96.2744H17.0921Q17.5507 96.2744 17.7765 95.9728Q18.0023 95.6711 18.0023 95.1808ZM20.1507 96.3449Q20.1507 96.3767 20.1295 96.3961Q20.1083 96.4155 20.0801 96.4155H18.7501Q18.7219 96.4155 18.7007 96.3943Q18.6796 96.3732 18.6796 96.3449V94.0166Q18.6796 93.9884 18.7007 93.9672Q18.7219 93.9461 18.7501 93.9461H20.0801Q20.1083 93.9461 20.1295 93.9672Q20.1507 93.9884 20.1507 94.0166Q20.1507 94.0484 20.1295 94.0678Q20.1083 94.0872 20.0801 94.0872H18.8278V95.0714H19.9214Q19.9496 95.0714 19.9708 95.0926Q19.9919 95.1137 19.9919 95.142Q19.9919 95.1737 19.9708 95.1931Q19.9496 95.2125 19.9214 95.2125H18.8278V96.2744H20.0801Q20.1083 96.2744 20.1295 96.2956Q20.1507 96.3167 20.1507 96.3449Z" style="stroke:#000000;stroke-width:0.25;stroke-linecap:round;stroke-linejoin:bevel" />
        <path d="M12.513 20.6833Q12.513 20.715 12.4919 20.7344Q12.4707 20.7538 12.4425 20.7538H11.1831V21.7275H12.2837Q12.3119 21.7275 12.3331 21.7487Q12.3543 21.7698 12.3543 21.7981Q12.3543 21.8298 12.3331 21.8492Q12.3119 21.8686 12.2837 21.8686H11.1831V23.0116Q11.1831 23.0398 11.1637 23.061Q11.1443 23.0822 11.1125 23.0822Q11.0808 23.0822 11.0613 23.061Q11.0419 23.0398 11.0419 23.0116V20.6833Q11.0419 20.6551 11.0631 20.6339Q11.0843 20.6127 11.1125 20.6127H12.4425Q12.4707 20.6127 12.4919 20.6339Q12.513 20.6551 12.513 20.6833ZM14.8378 23.0081Q14.8378 23.0398 14.8184 23.0592Q14.799 23.0786 14.7708 23.0786Q14.7496 23.0786 14.7391 23.0716Q14.6438 23.0187 14.5874 22.8934Q14.5309 22.7682 14.5309 22.4824Q14.5309 22.1932 14.3757 22.0856Q14.2205 21.978 14.0159 21.978H13.1904V23.0116Q13.1904 23.0398 13.1692 23.061Q13.148 23.0822 13.1163 23.0822Q13.0845 23.0822 13.0634 23.061Q13.0422 23.0398 13.0422 23.0116V20.6833Q13.0422 20.6551 13.0634 20.6339Q13.0845 20.6127 13.1128 20.6127H14.0441Q14.2487 20.6127 14.4074 20.6956Q14.5662 20.7785 14.6544 20.9232Q14.7426 21.0678 14.7426 21.2512Q14.7426 21.4876 14.6173 21.6569Q14.4921 21.8263 14.291 21.8863Q14.4604 21.9392 14.5697 22.0962Q14.6791 22.2531 14.6791 22.4824Q14.6791 22.7188 14.7091 22.8123Q14.7391 22.9058 14.799 22.9446Q14.8378 22.9693 14.8378 23.0081ZM14.0617 21.8369Q14.284 21.8157 14.4392 21.6605Q14.5944 21.5053 14.5944 21.2548Q14.5944 21.0361 14.4392 20.8949Q14.284 20.7538 14.0264 20.7538H13.1904V21.8369ZM16.8557 23.0116Q16.8557 23.0434 16.8346 23.0628Q16.8134 23.0822 16.7852 23.0822H15.4552Q15.427 23.0822 15.4058 23.061Q15.3846 23.0398 15.3846 23.0116V20.6833Q15.3846 20.6551 15.4058 20.6339Q15.427 20.6127 15.4552 20.6127H16.7852Q16.8134 20.6127 16.8346 20.6339Q16.8557 20.6551 16.8557 20.6833Q16.8557 20.715 16.8346 20.7344Q16.8134 20.7538 16.7852 20.7538H15.5328V21.7381H16.6264Q16.6546 21.7381 16.6758 21.7593Q16.697 21.7804 16.697 21.8086Q16.697 21.8404 16.6758 21.8598Q16.6546 21.8792 16.6264 21.8792H15.5328V22.9411H16.7852Q16.8134 22.9411 16.8346 22.9622Q16.8557 22.9834 16.8557 23.0116ZM19.8438 23.3714Q19.8438 23.4385 19.745 23.5073Q19.6462 23.5761 19.4998 23.6202Q19.3534 23.6642 19.2229 23.6642Q19.0288 23.6642 18.8948 23.6219Q18.7607 23.5796 18.5879 23.4949Q18.4432 23.4208 18.3374 23.3856Q18.2316 23.3503 18.094 23.3503Q18.0446 23.3503 18.004 23.3626Q17.9634 23.375 17.907 23.3997Q17.8435 23.4279 17.8223 23.4279Q17.7941 23.4279 17.7729 23.4067Q17.7518 23.3856 17.7518 23.3538Q17.7518 23.3115 17.7906 23.2938L18.3056 23.1139Q17.9846 23.0963 17.7359 22.9305Q17.4872 22.7647 17.3478 22.4842Q17.2085 22.2037 17.2085 21.8474Q17.2085 21.477 17.3584 21.1878Q17.5084 20.8985 17.7765 20.738Q18.0446 20.5774 18.3868 20.5774Q18.729 20.5774 18.9971 20.738Q19.2652 20.8985 19.4151 21.1878Q19.5651 21.477 19.5651 21.8474Q19.5651 22.1649 19.4539 22.4225Q19.3428 22.68 19.14 22.8529Q18.9371 23.0257 18.6725 23.0857L18.2386 23.2268Q18.348 23.2374 18.4415 23.2727Q18.5349 23.3079 18.6655 23.3714Q18.8348 23.4526 18.9512 23.4914Q19.0676 23.5302 19.2229 23.5302Q19.3534 23.5302 19.4469 23.4967Q19.5404 23.4632 19.6286 23.4138Q19.6568 23.3997 19.6956 23.3609Q19.7168 23.3397 19.7397 23.3256Q19.7626 23.3115 19.7838 23.3115Q19.812 23.3115 19.8279 23.3273Q19.8438 23.3432 19.8438 23.3714ZM18.3868 22.9763Q18.6866 22.9763 18.9212 22.8352Q19.1558 22.6941 19.2864 22.4366Q19.4169 22.1791 19.4169 21.8474Q19.4169 21.5158 19.2864 21.2583Q19.1558 21.0008 18.9212 20.8597Q18.6866 20.7186 18.3868 20.7186Q18.0869 20.7186 17.8523 20.8597Q17.6177 21.0008 17.4872 21.2583Q17.3567 21.5158 17.3567 21.8474Q17.3567 22.1791 17.4872 22.4366Q17.6177 22.6941 17.8523 22.8352Q18.0869 22.9763 18.3868 22.9763Z" style="stroke:#000000;stroke-width:0.25;stroke-linecap:round;stroke-linejoin:bevel" />
        <path d="M14.2469 41.3414Q14.2469 41.3732 14.2275 41.3926Q14.2081 41.412 14.1799 41.412Q14.1587 41.412 14.1482 41.4049Q14.0529 41.352 13.9965 41.2268Q13.94 41.1015 13.94 40.8158Q13.94 40.5265 13.7848 40.4189Q13.6296 40.3113 13.425 40.3113H12.5995V41.3449Q12.5995 41.3732 12.5783 41.3943Q12.5571 41.4155 12.5254 41.4155Q12.4936 41.4155 12.4725 41.3943Q12.4513 41.3732 12.4513 41.3449V39.0166Q12.4513 38.9884 12.4725 38.9672Q12.4936 38.9461 12.5218 38.9461H13.4532Q13.6578 38.9461 13.8165 39.029Q13.9753 39.1119 14.0635 39.2565Q14.1517 39.4011 14.1517 39.5846Q14.1517 39.8209 14.0264 39.9903Q13.9012 40.1596 13.7001 40.2196Q13.8695 40.2725 13.9788 40.4295Q14.0882 40.5865 14.0882 40.8158Q14.0882 41.0521 14.1182 41.1456Q14.1482 41.2391 14.2081 41.2779Q14.2469 41.3026 14.2469 41.3414ZM13.4708 40.1702Q13.6931 40.149 13.8483 39.9938Q14.0035 39.8386 14.0035 39.5881Q14.0035 39.3694 13.8483 39.2283Q13.6931 39.0872 13.4355 39.0872H12.5995V40.1702ZM16.2648 41.3449Q16.2648 41.3767 16.2437 41.3961Q16.2225 41.4155 16.1943 41.4155H14.8643Q14.8361 41.4155 14.8149 41.3943Q14.7937 41.3732 14.7937 41.3449V39.0166Q14.7937 38.9884 14.8149 38.9672Q14.8361 38.9461 14.8643 38.9461H16.1943Q16.2225 38.9461 16.2437 38.9672Q16.2648 38.9884 16.2648 39.0166Q16.2648 39.0484 16.2437 39.0678Q16.2225 39.0872 16.1943 39.0872H14.9419V40.0714H16.0355Q16.0637 40.0714 16.0849 40.0926Q16.1061 40.1137 16.1061 40.142Q16.1061 40.1737 16.0849 40.1931Q16.0637 40.2125 16.0355 40.2125H14.9419V41.2744H16.1943Q16.2225 41.2744 16.2437 41.2956Q16.2648 41.3167 16.2648 41.3449ZM16.5858 41.0804Q16.5647 41.0592 16.5647 41.0274Q16.5647 40.9992 16.5894 40.9728Q16.6141 40.9463 16.6423 40.9463Q16.674 40.9463 16.7023 40.9781Q16.8398 41.1403 17.0286 41.225Q17.2173 41.3097 17.4255 41.3097Q17.6971 41.3097 17.8735 41.1791Q18.0499 41.0486 18.0499 40.8334Q18.0463 40.6641 17.9582 40.5547Q17.87 40.4454 17.7412 40.3801Q17.6124 40.3148 17.3902 40.2337Q17.1468 40.142 17.0109 40.0714Q16.8751 40.0009 16.7781 39.8703Q16.6811 39.7398 16.6811 39.5281Q16.6811 39.3553 16.7763 39.2142Q16.8716 39.0731 17.048 38.9919Q17.2244 38.9108 17.4572 38.9108Q17.6653 38.9108 17.8523 38.9866Q18.0393 39.0625 18.1487 39.2001Q18.1839 39.2494 18.1839 39.2741Q18.1839 39.3024 18.1575 39.3253Q18.131 39.3482 18.0993 39.3482Q18.071 39.3482 18.0534 39.3271Q17.9546 39.2001 17.7994 39.126Q17.6442 39.0519 17.4572 39.0519Q17.1891 39.0519 17.0109 39.1789Q16.8328 39.3059 16.8328 39.5246Q16.8328 39.6763 16.9192 39.7821Q17.0057 39.888 17.1362 39.9532Q17.2667 40.0185 17.4607 40.0891Q17.7077 40.1772 17.8523 40.2513Q17.997 40.3254 18.0993 40.4665Q18.2016 40.6076 18.2016 40.8405Q18.2016 41.0027 18.1063 41.1439Q18.0111 41.285 17.8329 41.3679Q17.6548 41.4508 17.4255 41.4508Q17.1644 41.4508 16.9704 41.3608Q16.7763 41.2709 16.5858 41.0804Z" style="stroke:#000000;stroke-width:0.25;stroke-linecap:round;stroke-linejoin:bevel" />
        <path d="M14.8837 57.3499V59.6783Q14.8837 59.7065 14.8608 59.7277Q14.8378 59.7488 14.8096 59.7488Q14.7779 59.7488 14.7567 59.7277Q14.7355 59.7065 14.7355 59.6783V57.5687L13.8254 58.9445Q13.8077 58.9727 13.776 58.9727Q13.7372 58.9727 13.7195 58.9445L12.8058 57.5651V59.6783Q12.8058 59.7065 12.7847 59.7277Q12.7635 59.7488 12.7353 59.7488Q12.7035 59.7488 12.6841 59.7277Q12.6647 59.7065 12.6647 59.6783V57.3499Q12.6647 57.3252 12.6841 57.3023Q12.7035 57.2794 12.7317 57.2794Q12.7776 57.2794 12.7988 57.3111L13.776 58.7646L14.7532 57.3111Q14.7814 57.2723 14.8202 57.2794Q14.8484 57.2829 14.8661 57.3023Q14.8837 57.3217 14.8837 57.3499ZM15.6633 59.7488Q15.6281 59.7488 15.6087 59.7277Q15.5892 59.7065 15.5892 59.6747V57.3535Q15.5892 57.3217 15.6104 57.3006Q15.6316 57.2794 15.6633 57.2794Q15.6951 57.2794 15.7162 57.3006Q15.7374 57.3217 15.7374 57.3535V59.6747Q15.7339 59.7065 15.7127 59.7277Q15.6916 59.7488 15.6633 59.7488ZM18.0446 59.6465Q18.0622 59.6712 18.0622 59.6889Q18.0622 59.7206 18.0411 59.74Q18.0199 59.7594 17.9881 59.7594Q17.9493 59.7594 17.9317 59.7312L17.1238 58.6305L16.3195 59.7312Q16.3019 59.7594 16.2666 59.7594Q16.2348 59.7594 16.2172 59.74Q16.1996 59.7206 16.1996 59.6994Q16.1996 59.6818 16.2172 59.6536L17.0462 58.5212L16.2101 57.3817Q16.196 57.3641 16.196 57.3394Q16.196 57.3076 16.2172 57.2882Q16.2384 57.2688 16.2666 57.2688Q16.3089 57.2688 16.3266 57.297L17.1344 58.4012L17.9387 57.2935Q17.9599 57.2653 17.9917 57.2653Q18.0234 57.2653 18.0428 57.2812Q18.0622 57.297 18.0622 57.3217Q18.0622 57.3464 18.0446 57.3711L17.2156 58.5141Z" style="stroke:#000000;stroke-width:0.25;stroke-linecap:round;stroke-linejoin:bevel" />
        <path d="M13.3844 76.9356V77.8211Q13.3844 77.8634 13.3526 77.8846Q13.1904 77.994 12.9981 78.0557Q12.8058 78.1174 12.6083 78.1174Q12.2449 78.1174 11.9574 77.9534Q11.6699 77.7894 11.5058 77.5001Q11.3418 77.2108 11.3418 76.8474Q11.3418 76.4841 11.5058 76.1948Q11.6699 75.9055 11.9574 75.7415Q12.2449 75.5774 12.6083 75.5774Q12.8058 75.5774 12.984 75.6251Q13.1621 75.6727 13.3033 75.7679Q13.335 75.7891 13.335 75.8279Q13.335 75.8597 13.3121 75.8791Q13.2891 75.8985 13.268 75.8985Q13.2503 75.8985 13.2221 75.8844Q12.9258 75.7186 12.6083 75.7186Q12.2837 75.7186 12.0297 75.8632Q11.7757 76.0078 11.6328 76.2654Q11.49 76.5229 11.49 76.8474Q11.49 77.172 11.6328 77.4295Q11.7757 77.6871 12.0297 77.8317Q12.2837 77.9763 12.6083 77.9763Q12.7706 77.9763 12.9381 77.9252Q13.1057 77.874 13.2433 77.7894V77.0062H12.6083Q12.5801 77.0062 12.5589 76.985Q12.5377 76.9639 12.5377 76.9356Q12.5377 76.9039 12.5589 76.8845Q12.5801 76.8651 12.6083 76.8651H13.3138Q13.3456 76.8651 13.365 76.8862Q13.3844 76.9074 13.3844 76.9356ZM15.7797 78.0151Q15.7797 78.0469 15.7586 78.0645Q15.7374 78.0822 15.7057 78.0822Q15.681 78.0822 15.6616 78.0698Q15.6422 78.0575 15.6351 78.0363L15.3388 77.3096L15.3423 77.3166H14.1605L13.8748 78.0363Q13.8571 78.0822 13.8112 78.0822Q13.7795 78.0822 13.7601 78.0645Q13.7407 78.0469 13.7372 78.0222Q13.7336 78.0081 13.7407 77.9869L14.6897 75.6515Q14.7003 75.6233 14.7161 75.6145Q14.732 75.6057 14.7567 75.6057Q14.8096 75.6057 14.8272 75.6515L15.7762 77.9869Q15.7797 77.9975 15.7797 78.0151ZM14.2169 77.1755H15.2859L14.7461 75.8456ZM16.3301 78.0822Q16.2948 78.0822 16.2754 78.061Q16.256 78.0398 16.256 78.0081V75.6868Q16.256 75.6551 16.2772 75.6339Q16.2983 75.6127 16.3301 75.6127Q16.3618 75.6127 16.383 75.6339Q16.4042 75.6551 16.4042 75.6868V78.0081Q16.4006 78.0398 16.3795 78.061Q16.3583 78.0822 16.3301 78.0822ZM18.9618 75.6797V78.0046Q18.9618 78.0434 18.9406 78.0628Q18.9195 78.0822 18.8877 78.0822Q18.8524 78.0822 18.8313 78.0539L17.2438 75.8844V78.0222Q17.2438 78.0469 17.2244 78.0645Q17.205 78.0822 17.1767 78.0822Q17.145 78.0822 17.1274 78.0645Q17.1097 78.0469 17.1097 78.0222V75.6833Q17.1097 75.648 17.1291 75.6304Q17.1485 75.6127 17.1732 75.6127Q17.205 75.6127 17.2261 75.6374L18.8277 77.8211V75.6797Q18.8277 75.6515 18.8472 75.6321Q18.8666 75.6127 18.8948 75.6127Q18.9265 75.6127 18.9442 75.6321Q18.9618 75.6515 18.9618 75.6797Z" style="stroke:#000000;stroke-width:0.25;stroke-linecap:round;stroke-linejoin:bevel" />
    </g>
</svg>
