<?xml version="1.0" encoding="utf-8"?>
<svg xmlns="http://www.w3.org/2000/svg" width="60.96mm" height="128.50mm" viewBox="0 0 60.96 128.50">
    <defs>
        <linearGradient id="gradient_0" x1="50" y1="0" x2="0" y2="0" gradientUnits="userSpaceOnUse">
            <stop offset="0" style="stop-color:#906be8;stop-opacity:1;" />
            <stop offset="1" style="stop-color:#b242bd;stop-opacity:1;" />
        </linearGradient>
        <linearGradient id="gradient_1" x1="60" y1="0" x2="0" y2="0" gradientUnits="userSpaceOnUse">
            <stop offset="0" style="stop-color:#6d96d6;stop-opacity:1;" />
            <stop offset="1" style="stop-color:#3372d4;stop-opacity:1;" />
        </linearGradient>
        <linearGradient id="gradient_2" x1="0" y1="0" x2="60" y2="0" gradientUnits="userSpaceOnUse">
            <stop offset="0" style="stop-color:#986de4;stop-opacity:1;" />
            <stop offset="1" style="stop-color:#4373e6;stop-opacity:1;" />
        </linearGradient>
        <linearGradient id="gradient_3" x1="60" y1="0" x2="0" y2="0" gradientUnits="userSpaceOnUse">
            <stop offset="0" style="stop-color:#3d81a0;stop-opacity:1;" />
            <stop offset="1" style="stop-color:#26abbf;stop-opacity:1;" />
        </linearGradient>
    </defs>
    <g id="PanelLayer">
        <rect id="border_rect" width="60.96" height="128.5" x="0" y="0" style="display:inline;fill:#4f8df2;fill-opacity:1;fill-rule:nonzero;stroke:#5021d4;stroke-width:0.7;stroke-linecap:round;stroke-linejoin:round;stroke-dasharray:none;stroke-opacity:1;image-rendering:auto" />
        <path style="fill:url(#gradient_0);fill-opacity:1;stroke:#000000;stroke-width:0.1;stroke-linecap:round;stroke-linejoin:bevel;stroke-dasharray:none" d="M 4.50,22.50 L 26.50,22.50 L 34.50,33.00 L 26.50,43.50 L 4.50,43.50 z M 56.50,12.00 L 34.50,12.00 L 26.50,22.50 L 34.50,33.00 L 56.50,33.00 z " />
        <path style="fill:url(#gradient_1);fill-opacity:1;stroke:#000000;stroke-width:0.1;stroke-linecap:round;stroke-linejoin:bevel;stroke-dasharray:none" d="M 4.50,43.50 L 26.50,43.50 L 34.50,54.00 L 26.50,64.50 L 4.50,64.50 z M 56.50,33.00 L 34.50,33.00 L 26.50,43.50 L 34.50,54.00 L 56.50,54.00 z " />
        <path style="fill:url(#gradient_2);fill-opacity:1;stroke:#000000;stroke-width:0.1;stroke-linecap:round;stroke-linejoin:bevel;stroke-dasharray:none" d="M 4.50,64.50 L 26.50,64.50 L 34.50,75.00 L 26.50,85.50 L 4.50,85.50 z M 56.50,54.00 L 34.50,54.00 L 26.50,64.50 L 34.50,75.00 L 56.50,75.00 z " />
        <path style="fill:url(#gradient_3);fill-opacity:1;stroke:#000000;stroke-width:0.1;stroke-linecap:round;stroke-linejoin:bevel;stroke-dasharray:none" d="M 4.50,85.50 L 26.50,85.50 L 34.50,96.00 L 26.50,106.50 L 4.50,106.50 z M 56.50,75.00 L 34.50,75.00 L 26.50,85.50 L 34.50,96.00 L 56.50,96.00 z " />
        <g id="sapphire_insignia">
            <path id="brand_name" d="M15.5864 124.775Q15.5864 124.721 15.6485 124.674Q15.6873 124.636 15.7417 124.636Q15.8193 124.636 15.8658 124.698Q16.316 125.342 17.1231 125.342Q17.5345 125.342 17.8449 125.136Q18.1554 124.93 18.1554 124.581Q18.1554 124.224 17.8837 124.046Q17.6121 123.867 17.1387 123.751Q16.51 123.596 16.1491 123.336Q15.7882 123.076 15.7882 122.602Q15.7882 122.144 16.153 121.845Q16.5178 121.547 17.0921 121.547Q17.4103 121.547 17.7246 121.671Q18.0389 121.795 18.2951 122.067Q18.3494 122.113 18.3494 122.175Q18.3494 122.245 18.2951 122.299Q18.233 122.331 18.1942 122.331Q18.1398 122.331 18.101 122.284Q17.6975 121.842 17.061 121.842Q16.6497 121.842 16.3664 122.043Q16.0831 122.245 16.0831 122.602Q16.1064 122.936 16.3897 123.118Q16.673 123.301 17.224 123.44Q17.6198 123.541 17.8798 123.662Q18.1398 123.782 18.2951 123.999Q18.4503 124.216 18.4503 124.566Q18.4503 125.055 18.0739 125.338Q17.6975 125.621 17.0921 125.621Q16.2073 125.621 15.6408 124.923Q15.5864 124.837 15.5864 124.775ZM22.7965 121.826V125.388Q22.7965 125.45 22.7499 125.497Q22.7034 125.544 22.6413 125.544Q22.5714 125.544 22.5287 125.497Q22.4861 125.45 22.4861 125.388V124.69Q22.292 125.086 21.8885 125.353Q21.4849 125.621 20.9959 125.621Q20.4837 125.621 20.0724 125.353Q19.661 125.086 19.4282 124.616Q19.1953 124.147 19.1953 123.565Q19.1953 122.99 19.4321 122.528Q19.6688 122.067 20.0801 121.807Q20.4915 121.547 20.9959 121.547Q21.5004 121.547 21.904 121.811Q22.3076 122.074 22.4861 122.517V121.826Q22.4861 121.764 22.5287 121.717Q22.5714 121.671 22.6413 121.671Q22.7111 121.671 22.7538 121.717Q22.7965 121.764 22.7965 121.826ZM22.5171 123.565Q22.5171 123.091 22.3231 122.695Q22.129 122.299 21.7837 122.071Q21.4383 121.842 21.0114 121.842Q20.5846 121.842 20.2392 122.063Q19.8938 122.284 19.6998 122.676Q19.5058 123.068 19.5058 123.565Q19.5058 124.061 19.6998 124.465Q19.8938 124.868 20.2353 125.097Q20.5768 125.326 21.0114 125.326Q21.4383 125.326 21.7837 125.097Q22.129 124.868 22.3231 124.465Q22.5171 124.061 22.5171 123.565ZM27.686 123.603Q27.686 124.162 27.4493 124.616Q27.2126 125.07 26.8012 125.33Q26.3899 125.59 25.8854 125.59Q25.4198 125.59 25.0317 125.357Q24.6436 125.125 24.3953 124.698V126.941Q24.3953 127.003 24.3526 127.049Q24.3099 127.096 24.2401 127.096Q24.178 127.096 24.1314 127.049Q24.0848 127.003 24.0848 126.941V121.779Q24.0848 121.717 24.1275 121.671Q24.1702 121.624 24.2401 121.624Q24.3099 121.624 24.3526 121.671Q24.3953 121.717 24.3953 121.779V122.493Q24.6281 122.051 25.0162 121.838Q25.4042 121.624 25.8854 121.624Q26.3977 121.624 26.809 121.88Q27.2203 122.136 27.4532 122.587Q27.686 123.037 27.686 123.603ZM27.3756 123.603Q27.3756 123.122 27.1776 122.738Q26.9797 122.354 26.6383 122.136Q26.2968 121.919 25.8699 121.919Q25.4353 121.919 25.0899 122.133Q24.7445 122.346 24.5544 122.73Q24.3642 123.114 24.3642 123.603Q24.3642 124.092 24.5544 124.476Q24.7445 124.861 25.0899 125.078Q25.4353 125.295 25.8699 125.295Q26.2968 125.295 26.6383 125.078Q26.9797 124.861 27.1776 124.473Q27.3756 124.085 27.3756 123.603ZM32.3039 123.603Q32.3039 124.162 32.0671 124.616Q31.8304 125.07 31.4191 125.33Q31.0078 125.59 30.5033 125.59Q30.0376 125.59 29.6496 125.357Q29.2615 125.125 29.0132 124.698V126.941Q29.0132 127.003 28.9705 127.049Q28.9278 127.096 28.8579 127.096Q28.7958 127.096 28.7493 127.049Q28.7027 127.003 28.7027 126.941V121.779Q28.7027 121.717 28.7454 121.671Q28.7881 121.624 28.8579 121.624Q28.9278 121.624 28.9705 121.671Q29.0132 121.717 29.0132 121.779V122.493Q29.246 122.051 29.634 121.838Q30.0221 121.624 30.5033 121.624Q31.0155 121.624 31.4269 121.88Q31.8382 122.136 32.071 122.587Q32.3039 123.037 32.3039 123.603ZM31.9934 123.603Q31.9934 123.122 31.7955 122.738Q31.5976 122.354 31.2561 122.136Q30.9146 121.919 30.4878 121.919Q30.0531 121.919 29.7078 122.133Q29.3624 122.346 29.1723 122.73Q28.9821 123.114 28.9821 123.603Q28.9821 124.092 29.1723 124.476Q29.3624 124.861 29.7078 125.078Q30.0531 125.295 30.4878 125.295Q30.9146 125.295 31.2561 125.078Q31.5976 124.861 31.7955 124.473Q31.9934 124.085 31.9934 123.603ZM36.394 123.122V125.388Q36.394 125.45 36.3474 125.497Q36.3008 125.544 36.2387 125.544Q36.1689 125.544 36.1262 125.497Q36.0835 125.45 36.0835 125.388V123.122Q36.0835 122.587 35.8196 122.253Q35.5558 121.919 35.0125 121.919Q34.6788 121.919 34.3567 122.082Q34.0346 122.245 33.8328 122.525Q33.631 122.804 33.631 123.122V125.388Q33.631 125.45 33.5844 125.497Q33.5379 125.544 33.4758 125.544Q33.4059 125.544 33.3633 125.497Q33.3206 125.45 33.3206 125.388V119.956Q33.3206 119.894 33.3671 119.847Q33.4137 119.8 33.4758 119.8Q33.5456 119.8 33.5883 119.847Q33.631 119.894 33.631 119.956V122.408Q33.8483 122.067 34.2325 121.845Q34.6167 121.624 35.0125 121.624Q35.6799 121.624 36.037 122.047Q36.394 122.47 36.394 123.122ZM37.8375 125.544Q37.7677 125.544 37.725 125.497Q37.6823 125.45 37.6823 125.388V121.702Q37.6823 121.64 37.7289 121.593Q37.7754 121.547 37.8375 121.547Q37.9074 121.547 37.9501 121.593Q37.9928 121.64 37.9928 121.702V125.388Q37.9928 125.45 37.9462 125.497Q37.8996 125.544 37.8375 125.544ZM37.5659 120.771V120.708Q37.5659 120.6 37.6435 120.53Q37.7211 120.46 37.8453 120.46Q37.954 120.46 38.0277 120.53Q38.1014 120.6 38.1014 120.708V120.771Q38.1014 120.879 38.0277 120.949Q37.954 121.019 37.8375 121.019Q37.7134 121.019 37.6396 120.949Q37.5659 120.879 37.5659 120.771ZM41.3921 121.725Q41.3921 121.795 41.3533 121.842Q41.3145 121.888 41.2524 121.888Q41.2291 121.888 41.1399 121.853Q41.0506 121.818 40.9497 121.818Q40.6315 121.818 40.3133 122.071Q39.9951 122.323 39.7933 122.707Q39.5915 123.091 39.5915 123.448V125.388Q39.5915 125.45 39.545 125.497Q39.4984 125.544 39.4363 125.544Q39.3665 125.544 39.3238 125.497Q39.2811 125.45 39.2811 125.388V121.826Q39.2811 121.764 39.3277 121.717Q39.3742 121.671 39.4363 121.671Q39.5062 121.671 39.5489 121.717Q39.5915 121.764 39.5915 121.826V122.649Q39.7701 122.175 40.1465 121.865Q40.5229 121.554 41.0351 121.547Q41.3921 121.547 41.3921 121.725ZM45.3348 124.752Q45.3348 124.806 45.3037 124.845Q45.0476 125.187 44.6673 125.404Q44.287 125.621 43.8524 125.621Q43.2703 125.621 42.8202 125.373Q42.37 125.125 42.1178 124.667Q41.8656 124.209 41.8656 123.603Q41.8656 122.982 42.11 122.513Q42.3545 122.043 42.7581 121.795Q43.1617 121.547 43.6196 121.547Q44.0775 121.547 44.4694 121.745Q44.8613 121.942 45.1097 122.338Q45.3581 122.734 45.3736 123.316Q45.3736 123.378 45.327 123.429Q45.2804 123.479 45.2184 123.479H42.1682V123.58Q42.1682 124.061 42.3623 124.461Q42.5563 124.861 42.9366 125.093Q43.3169 125.326 43.8524 125.326Q44.2249 125.326 44.5548 125.144Q44.8846 124.962 45.0709 124.682Q45.1252 124.612 45.2028 124.612Q45.2572 124.612 45.296 124.655Q45.3348 124.698 45.3348 124.752ZM42.1993 123.184H45.0554V123.114Q45.0166 122.719 44.8031 122.435Q44.5897 122.152 44.2754 122.005Q43.9611 121.857 43.6196 121.857Q43.3324 121.857 43.0336 122.008Q42.7348 122.16 42.5058 122.459Q42.2769 122.757 42.1993 123.184Z" style="fill:#000000;stroke:#000000;stroke-width:0.265;stroke-linecap:square" />
            <g id="gemstones" style="stroke-width:0;fill:#0000ff;stroke:#2e2114;stroke-linecap:square;stroke-opacity:1">
                <path d="m 12.930,122.900 q 0,0.34175 -0.242534,0.63114 -0.0441,0.0524 -0.20395,0.21497 -0.187413,0.19017 -0.785481,0.81304 l -1.444183,1.51309 q -0.01929,0.003 -0.0441,0.003 -0.02756,0 -0.04134,-0.003 -0.08268,-0.0827 -0.647678,-0.67524 -0.468532,-0.47404 -0.934309,-0.94809 -0.556727,-0.56775 -0.89848,-0.98116 -0.132292,-0.15985 -0.168121,-0.29766 -0.02756,-0.10197 -0.02756,-0.34175 0,-0.11024 0.07166,-0.28939 0.06614,-0.16536 0.140559,-0.26458 0.118512,-0.1571 0.42168,-0.42444 0.283875,-0.2508 0.474044,-0.37482 0.272852,-0.17915 0.818555,-0.36656 0.09646,-0.0331 0.110243,-0.0331 h 1.3615 q 0.01102,0 0.104731,0.0331 0.567751,0.20119 0.824066,0.36656 0.165365,0.10473 0.474045,0.37758 0.322461,0.28388 0.421679,0.42168 0.214974,0.2949 0.214974,0.62563 z m -0.16812,-0.27285 q -0.03307,-0.10749 -0.135048,-0.30868 -0.07166,-0.0937 -0.209462,-0.19844 -0.118511,-0.0854 -0.234266,-0.17088 0.245291,0.3638 0.578776,0.678 z m -0.573264,-0.52366 -0.358289,-0.44648 v 0.41065 z m 0.636653,0.75792 q 0,-0.0524 -0.341753,-0.39412 l 0.228754,0.7028 h 0.04961 q 0.06339,-0.21773 0.06339,-0.30868 z m -0.23151,0.27285 -0.316948,-0.90399 -0.410655,-0.0634 -0.159853,0.61461 z m 0.0028,0.15434 -0.771701,-0.3197 h -0.03032 l 0.344509,0.60634 q 0.07993,-0.003 0.234266,-0.0469 0.02481,-0.0138 0.223242,-0.23978 z m -0.857139,-1.05006 -0.719335,0.28388 0.60358,0.22599 z m 0,-0.16261 v -0.51538 l -0.917773,-0.38034 h -1.223697 l -0.917772,0.38034 v 0.51538 l 0.89848,0.4079 h 1.254014 z m 0.573264,1.53789 q -0.0689,0.011 -0.198438,0.0524 -0.08544,0.0551 -0.259071,0.16261 0.01929,0 0.06339,0.003 0.04134,0 0.06339,0 0.118511,0 0.190169,-0.0689 0.07166,-0.0717 0.14056,-0.14883 z m -0.289388,0.003 -0.347266,-0.63114 -0.363801,0.87918 q 0.0248,-0.0165 0.06615,-0.0165 0.03032,0 0.08544,0.011 0.05788,0.008 0.08819,0.008 0.04961,0 0.228754,-0.10749 0.228754,-0.1378 0.242535,-0.14331 z m -0.440972,-0.74139 -0.683507,-0.2756 -0.592556,0.54845 0.903993,0.65595 z m -0.854383,-0.28387 h -1.036284 l 0.523654,0.47404 z m 0.749652,1.36701 q -0.228754,-0.0303 -0.228754,-0.0303 -0.03583,0 -0.272851,0.0937 l 0.190169,0.0193 q 0.01102,0 0.311436,-0.0827 z m -0.388606,-0.0882 -0.843359,-0.61185 v 0.67524 l 0.471289,0.0827 z m 0.854383,0.0496 q -0.09922,0.006 -0.2949,0.0386 -0.01102,0.003 -0.377583,0.17639 -0.129535,0.34726 -0.380338,1.0418 z m -2.543857,-1.39733 -0.719335,-0.28388 0.124023,0.51814 z m -0.802018,-0.45476 v -0.41065 l -0.366557,0.44648 z m 1.515841,1.07212 -0.592556,-0.54019 -0.683506,0.2756 0.380338,0.9288 z m 0.369314,0.94257 q -0.03307,-0.003 -0.135047,-0.0248 -0.08544,-0.0165 -0.137804,-0.0165 -0.05237,0 -0.137804,0.0165 -0.101975,0.0221 -0.135047,0.0248 0.264583,0.0469 0.272851,0.0469 0.0083,0 0.272851,-0.0469 z m -0.30868,-0.1378 v -0.68626 l -0.843359,0.61185 0.37207,0.14607 z m 0.950846,0.20671 -0.396875,-0.0551 -0.479557,0.14056 v 1.27607 z m -2.888366,-2.20211 q -0.118512,0.0854 -0.234267,0.17364 -0.146072,0.10748 -0.209461,0.19568 -0.0441,0.10473 -0.135048,0.31419 0.369314,-0.3638 0.578776,-0.68351 z m 0.476801,0.83234 -0.159853,-0.61461 -0.410655,0.0634 -0.316948,0.90399 z m 0.394118,1.08313 -0.363802,-0.87918 -0.355533,0.63114 q 0.43546,0.2508 0.451996,0.2508 0.09095,0 0.267339,-0.003 z m 1.821765,0.82958 q -0.132291,0.21222 -0.405143,0.6339 -0.07717,0.10749 -0.220486,0.32797 -0.05788,0.10473 -0.05512,0.226 0.159852,-0.15158 0.432704,-0.49609 0.07717,-0.12954 0.140559,-0.339 0.05512,-0.17639 0.107486,-0.35278 z m -1.493792,-0.66146 -0.270095,-0.0882 -0.0083,-0.011 q -0.02481,0 -0.107487,0.011 -0.06615,0.006 -0.107487,0.006 0.272851,0.091 0.311436,0.091 0.02481,0 0.181901,-0.008 z m -0.810286,-1.06384 h -0.03032 l -0.7717,0.3197 q 0.06615,0.0965 0.223242,0.23978 0.07717,0.0138 0.234266,0.0469 z m -0.689018,-0.50161 q -0.341754,0.34727 -0.341754,0.39412 0,0.0799 0.06339,0.30868 h 0.04961 z m 2.235176,3.04547 v -1.27607 l -0.479557,-0.14056 -0.396875,0.0551 z m -1.606791,-1.6757 q -0.256315,-0.1819 -0.457509,-0.22324 0.06615,0.0772 0.20395,0.22324 z m 1.609547,2.04501 v -0.1378 l -0.683507,-1.05007 q 0.05237,0.17639 0.107487,0.35278 0.06339,0.20946 0.14056,0.339 0.0689,0.11851 0.20395,0.25907 0.115755,0.11851 0.23151,0.23702 z m -0.644921,-0.70555 q -0.115756,-0.32798 -0.380339,-1.0418 -0.135047,-0.0662 -0.272851,-0.12954 -0.159852,-0.0716 -0.289388,-0.0716 -0.05237,0 -0.110243,-0.0138 z" />
                <path d="m 53.460,122.900 q 0,0.34175 -0.242534,0.63114 -0.0441,0.0524 -0.20395,0.21497 -0.187413,0.19017 -0.785481,0.81304 l -1.444183,1.51309 q -0.01929,0.003 -0.0441,0.003 -0.02756,0 -0.04134,-0.003 -0.08268,-0.0827 -0.647678,-0.67524 -0.468532,-0.47404 -0.934309,-0.94809 -0.556727,-0.56775 -0.89848,-0.98116 -0.132292,-0.15985 -0.168121,-0.29766 -0.02756,-0.10197 -0.02756,-0.34175 0,-0.11024 0.07166,-0.28939 0.06614,-0.16536 0.140559,-0.26458 0.118512,-0.1571 0.42168,-0.42444 0.283875,-0.2508 0.474044,-0.37482 0.272852,-0.17915 0.818555,-0.36656 0.09646,-0.0331 0.110243,-0.0331 h 1.3615 q 0.01102,0 0.104731,0.0331 0.567751,0.20119 0.824066,0.36656 0.165365,0.10473 0.474045,0.37758 0.322461,0.28388 0.421679,0.42168 0.214974,0.2949 0.214974,0.62563 z m -0.16812,-0.27285 q -0.03307,-0.10749 -0.135048,-0.30868 -0.07166,-0.0937 -0.209462,-0.19844 -0.118511,-0.0854 -0.234266,-0.17088 0.245291,0.3638 0.578776,0.678 z m -0.573264,-0.52366 -0.358289,-0.44648 v 0.41065 z m 0.636653,0.75792 q 0,-0.0524 -0.341753,-0.39412 l 0.228754,0.7028 h 0.04961 q 0.06339,-0.21773 0.06339,-0.30868 z m -0.23151,0.27285 -0.316948,-0.90399 -0.410655,-0.0634 -0.159853,0.61461 z m 0.0028,0.15434 -0.771701,-0.3197 h -0.03032 l 0.344509,0.60634 q 0.07993,-0.003 0.234266,-0.0469 0.02481,-0.0138 0.223242,-0.23978 z m -0.857139,-1.05006 -0.719335,0.28388 0.60358,0.22599 z m 0,-0.16261 v -0.51538 l -0.917773,-0.38034 h -1.223697 l -0.917772,0.38034 v 0.51538 l 0.89848,0.4079 h 1.254014 z m 0.573264,1.53789 q -0.0689,0.011 -0.198438,0.0524 -0.08544,0.0551 -0.259071,0.16261 0.01929,0 0.06339,0.003 0.04134,0 0.06339,0 0.118511,0 0.190169,-0.0689 0.07166,-0.0717 0.14056,-0.14883 z m -0.289388,0.003 -0.347266,-0.63114 -0.363801,0.87918 q 0.0248,-0.0165 0.06615,-0.0165 0.03032,0 0.08544,0.011 0.05788,0.008 0.08819,0.008 0.04961,0 0.228754,-0.10749 0.228754,-0.1378 0.242535,-0.14331 z m -0.440972,-0.74139 -0.683507,-0.2756 -0.592556,0.54845 0.903993,0.65595 z m -0.854383,-0.28387 h -1.036284 l 0.523654,0.47404 z m 0.749652,1.36701 q -0.228754,-0.0303 -0.228754,-0.0303 -0.03583,0 -0.272851,0.0937 l 0.190169,0.0193 q 0.01102,0 0.311436,-0.0827 z m -0.388606,-0.0882 -0.843359,-0.61185 v 0.67524 l 0.471289,0.0827 z m 0.854383,0.0496 q -0.09922,0.006 -0.2949,0.0386 -0.01102,0.003 -0.377583,0.17639 -0.129535,0.34726 -0.380338,1.0418 z m -2.543857,-1.39733 -0.719335,-0.28388 0.124023,0.51814 z m -0.802018,-0.45476 v -0.41065 l -0.366557,0.44648 z m 1.515841,1.07212 -0.592556,-0.54019 -0.683506,0.2756 0.380338,0.9288 z m 0.369314,0.94257 q -0.03307,-0.003 -0.135047,-0.0248 -0.08544,-0.0165 -0.137804,-0.0165 -0.05237,0 -0.137804,0.0165 -0.101975,0.0221 -0.135047,0.0248 0.264583,0.0469 0.272851,0.0469 0.0083,0 0.272851,-0.0469 z m -0.30868,-0.1378 v -0.68626 l -0.843359,0.61185 0.37207,0.14607 z m 0.950846,0.20671 -0.396875,-0.0551 -0.479557,0.14056 v 1.27607 z m -2.888366,-2.20211 q -0.118512,0.0854 -0.234267,0.17364 -0.146072,0.10748 -0.209461,0.19568 -0.0441,0.10473 -0.135048,0.31419 0.369314,-0.3638 0.578776,-0.68351 z m 0.476801,0.83234 -0.159853,-0.61461 -0.410655,0.0634 -0.316948,0.90399 z m 0.394118,1.08313 -0.363802,-0.87918 -0.355533,0.63114 q 0.43546,0.2508 0.451996,0.2508 0.09095,0 0.267339,-0.003 z m 1.821765,0.82958 q -0.132291,0.21222 -0.405143,0.6339 -0.07717,0.10749 -0.220486,0.32797 -0.05788,0.10473 -0.05512,0.226 0.159852,-0.15158 0.432704,-0.49609 0.07717,-0.12954 0.140559,-0.339 0.05512,-0.17639 0.107486,-0.35278 z m -1.493792,-0.66146 -0.270095,-0.0882 -0.0083,-0.011 q -0.02481,0 -0.107487,0.011 -0.06615,0.006 -0.107487,0.006 0.272851,0.091 0.311436,0.091 0.02481,0 0.181901,-0.008 z m -0.810286,-1.06384 h -0.03032 l -0.7717,0.3197 q 0.06615,0.0965 0.223242,0.23978 0.07717,0.0138 0.234266,0.0469 z m -0.689018,-0.50161 q -0.341754,0.34727 -0.341754,0.39412 0,0.0799 0.06339,0.30868 h 0.04961 z m 2.235176,3.04547 v -1.27607 l -0.479557,-0.14056 -0.396875,0.0551 z m -1.606791,-1.6757 q -0.256315,-0.1819 -0.457509,-0.22324 0.06615,0.0772 0.20395,0.22324 z m 1.609547,2.04501 v -0.1378 l -0.683507,-1.05007 q 0.05237,0.17639 0.107487,0.35278 0.06339,0.20946 0.14056,0.339 0.0689,0.11851 0.20395,0.25907 0.115755,0.11851 0.23151,0.23702 z m -0.644921,-0.70555 q -0.115756,-0.32798 -0.380339,-1.0418 -0.135047,-0.0662 -0.272851,-0.12954 -0.159852,-0.0716 -0.289388,-0.0716 -0.05237,0 -0.110243,-0.0138 z" />
            </g>
        </g>
        <path id="model_name" d="M17.1451 4.39488Q17.1451 4.45697 17.1024 4.49966Q17.0597 4.54234 16.9977 4.54234H16.1439V7.3053Q16.1439 7.64679 16.2642 7.75932Q16.3845 7.87186 16.5708 7.87186Q16.6018 7.87186 16.66 7.85634Q16.7183 7.84081 16.7571 7.84081Q16.8114 7.84081 16.8502 7.8835Q16.889 7.92619 16.889 7.98051Q16.889 8.05036 16.7959 8.10081Q16.7027 8.15126 16.5786 8.15126Q16.3845 8.15126 16.2526 8.12409Q16.1207 8.09693 15.9771 7.91454Q15.8335 7.73216 15.8335 7.32082V4.54234H15.1971Q15.1428 4.54234 15.0962 4.49578Q15.0496 4.44921 15.0496 4.39488Q15.0496 4.33279 15.0923 4.29011Q15.135 4.24742 15.1971 4.24742H15.8335V3.26176Q15.8335 3.19967 15.8801 3.1531Q15.9266 3.10654 15.9887 3.10654Q16.0586 3.10654 16.1012 3.1531Q16.1439 3.19967 16.1439 3.26176V4.24742H16.9977Q17.052 4.24742 17.0986 4.29399Q17.1451 4.34055 17.1451 4.39488ZM21.0878 4.43369V6.69217Q21.0878 7.42948 20.6725 7.81365Q20.2573 8.19782 19.5433 8.19782Q18.8293 8.19782 18.4179 7.81365Q18.0066 7.42948 18.0066 6.69217V4.43369Q18.0066 4.3716 18.0532 4.32503Q18.0997 4.27846 18.1618 4.27846Q18.2317 4.27846 18.2744 4.32503Q18.317 4.3716 18.317 4.43369V6.69217Q18.317 7.27425 18.643 7.58858Q18.969 7.9029 19.5433 7.9029Q20.1254 7.9029 20.4514 7.58858Q20.7773 7.27425 20.7773 6.69217V4.43369Q20.7773 4.3716 20.82 4.32503Q20.8627 4.27846 20.9325 4.27846Q21.0024 4.27846 21.0451 4.32503Q21.0878 4.3716 21.0878 4.43369ZM25.9773 6.17217Q25.9773 6.7465 25.7405 7.21604Q25.5038 7.68559 25.0925 7.95723Q24.6812 8.22887 24.1767 8.22887Q23.7188 8.22887 23.3307 7.98439Q22.9427 7.73992 22.6866 7.3053V7.99604Q22.6866 8.05812 22.6439 8.10469Q22.6012 8.15126 22.5313 8.15126Q22.4692 8.15126 22.4227 8.10469Q22.3761 8.05812 22.3761 7.99604V2.57102Q22.3761 2.50893 22.4188 2.46236Q22.4615 2.4158 22.5313 2.4158Q22.6012 2.4158 22.6439 2.46236Q22.6866 2.50893 22.6866 2.57102V5.10114Q22.9194 4.64324 23.3113 4.39876Q23.7033 4.15429 24.1767 4.15429Q24.6889 4.15429 25.1003 4.41428Q25.5116 4.67428 25.7444 5.13607Q25.9773 5.59785 25.9773 6.17217ZM25.6668 6.17217Q25.6668 5.67546 25.4689 5.28353Q25.271 4.89159 24.9295 4.6704Q24.588 4.44921 24.1612 4.44921Q23.7265 4.44921 23.3812 4.6704Q23.0358 4.89159 22.8457 5.28353Q22.6555 5.67546 22.6555 6.17217Q22.6555 6.66889 22.8495 7.07246Q23.0436 7.47604 23.3851 7.70499Q23.7265 7.93395 24.1612 7.93395Q24.588 7.93395 24.9295 7.70111Q25.271 7.46828 25.4689 7.06858Q25.6668 6.66889 25.6668 6.17217ZM30.1915 7.35962Q30.1915 7.41395 30.1605 7.45276Q29.9044 7.79425 29.5241 8.01156Q29.1438 8.22887 28.7092 8.22887Q28.1271 8.22887 27.6769 7.98051Q27.2268 7.73216 26.9746 7.27425Q26.7223 6.81635 26.7223 6.21098Q26.7223 5.59009 26.9668 5.12054Q27.2113 4.651 27.6149 4.40264Q28.0184 4.15429 28.4763 4.15429Q28.9342 4.15429 29.3262 4.35219Q29.7181 4.5501 29.9665 4.94592Q30.2148 5.34174 30.2304 5.92382Q30.2304 5.98591 30.1838 6.03636Q30.1372 6.0868 30.0751 6.0868H27.025V6.1877Q27.025 6.66889 27.219 7.06858Q27.4131 7.46828 27.7934 7.70111Q28.1737 7.93395 28.7092 7.93395Q29.0817 7.93395 29.4116 7.75156Q29.7414 7.56917 29.9277 7.28977Q29.982 7.21992 30.0596 7.21992Q30.1139 7.21992 30.1527 7.26261Q30.1915 7.3053 30.1915 7.35962ZM27.0561 5.79188H29.9121V5.72203Q29.8733 5.32621 29.6599 5.04293Q29.4465 4.75965 29.1322 4.61219Q28.8178 4.46473 28.4763 4.46473Q28.1892 4.46473 27.8904 4.61607Q27.5916 4.76741 27.3626 5.06622Q27.1337 5.36502 27.0561 5.79188ZM36.4237 4.43369V6.69217Q36.4237 7.42948 36.0085 7.81365Q35.5933 8.19782 34.8793 8.19782Q34.1652 8.19782 33.7539 7.81365Q33.3426 7.42948 33.3426 6.69217V4.43369Q33.3426 4.3716 33.3891 4.32503Q33.4357 4.27846 33.4978 4.27846Q33.5676 4.27846 33.6103 4.32503Q33.653 4.3716 33.653 4.43369V6.69217Q33.653 7.27425 33.979 7.58858Q34.3049 7.9029 34.8793 7.9029Q35.4613 7.9029 35.7873 7.58858Q36.1133 7.27425 36.1133 6.69217V4.43369Q36.1133 4.3716 36.156 4.32503Q36.1986 4.27846 36.2685 4.27846Q36.3383 4.27846 36.381 4.32503Q36.4237 4.3716 36.4237 4.43369ZM40.8631 5.62114V7.99604Q40.8631 8.05812 40.8165 8.10469Q40.7699 8.15126 40.7079 8.15126Q40.638 8.15126 40.5953 8.10469Q40.5526 8.05812 40.5526 7.99604V5.65218Q40.5526 5.12443 40.2771 4.78682Q40.0016 4.44921 39.4428 4.44921Q39.1013 4.44921 38.7715 4.61219Q38.4416 4.77517 38.2321 5.05457Q38.0225 5.33397 38.0225 5.65218V7.99604Q38.0225 8.05812 37.9759 8.10469Q37.9294 8.15126 37.8673 8.15126Q37.7974 8.15126 37.7547 8.10469Q37.7121 8.05812 37.7121 7.99604V4.43369Q37.7121 4.3716 37.7586 4.32503Q37.8052 4.27846 37.8673 4.27846Q37.9371 4.27846 37.9798 4.32503Q38.0225 4.3716 38.0225 4.43369V4.95368Q38.2476 4.60443 38.655 4.37936Q39.0625 4.15429 39.4738 4.15429Q40.1646 4.15429 40.5138 4.56174Q40.8631 4.9692 40.8631 5.62114ZM42.3066 8.15126Q42.2368 8.15126 42.1941 8.10469Q42.1514 8.05812 42.1514 7.99604V4.30951Q42.1514 4.24742 42.198 4.20085Q42.2446 4.15429 42.3066 4.15429Q42.3765 4.15429 42.4192 4.20085Q42.4619 4.24742 42.4619 4.30951V7.99604Q42.4619 8.05812 42.4153 8.10469Q42.3687 8.15126 42.3066 8.15126ZM42.035 3.37818V3.31609Q42.035 3.20743 42.1126 3.13758Q42.1902 3.06773 42.3144 3.06773Q42.4231 3.06773 42.4968 3.13758Q42.5705 3.20743 42.5705 3.31609V3.37818Q42.5705 3.48683 42.4968 3.55668Q42.4231 3.62653 42.3066 3.62653Q42.1825 3.62653 42.1087 3.55668Q42.035 3.48683 42.035 3.37818ZM45.3412 4.39488Q45.3412 4.45697 45.2985 4.49966Q45.2559 4.54234 45.1938 4.54234H44.3401V7.3053Q44.3401 7.64679 44.4603 7.75932Q44.5806 7.87186 44.7669 7.87186Q44.798 7.87186 44.8562 7.85634Q44.9144 7.84081 44.9532 7.84081Q45.0075 7.84081 45.0463 7.8835Q45.0851 7.92619 45.0851 7.98051Q45.0851 8.05036 44.992 8.10081Q44.8989 8.15126 44.7747 8.15126Q44.5806 8.15126 44.4487 8.12409Q44.3168 8.09693 44.1732 7.91454Q44.0296 7.73216 44.0296 7.32082V4.54234H43.3932Q43.3389 4.54234 43.2923 4.49578Q43.2457 4.44921 43.2457 4.39488Q43.2457 4.33279 43.2884 4.29011Q43.3311 4.24742 43.3932 4.24742H44.0296V3.26176Q44.0296 3.19967 44.0762 3.1531Q44.1227 3.10654 44.1848 3.10654Q44.2547 3.10654 44.2974 3.1531Q44.3401 3.19967 44.3401 3.26176V4.24742H45.1938Q45.2481 4.24742 45.2947 4.29399Q45.3412 4.34055 45.3412 4.39488Z" style="display:inline;stroke:#000000;stroke-width:0.35;stroke-linecap:round;stroke-linejoin:bevel" />
        <path d="M14.7269 113.014Q14.6916 113.014 14.6722 112.993Q14.6528 112.972 14.6528 112.94V110.619Q14.6528 110.587 14.6739 110.566Q14.6951 110.545 14.7269 110.545Q14.7586 110.545 14.7798 110.566Q14.8009 110.587 14.8009 110.619V112.94Q14.7974 112.972 14.7763 112.993Q14.7551 113.014 14.7269 113.014ZM17.3586 110.612V112.937Q17.3586 112.975 17.3374 112.995Q17.3163 113.014 17.2845 113.014Q17.2492 113.014 17.2281 112.986L15.6406 110.816V112.954Q15.6406 112.979 15.6212 112.997Q15.6018 113.014 15.5735 113.014Q15.5418 113.014 15.5241 112.997Q15.5065 112.979 15.5065 112.954V110.615Q15.5065 110.58 15.5259 110.562Q15.5453 110.545 15.57 110.545Q15.6018 110.545 15.6229 110.569L17.2245 112.753V110.612Q17.2245 110.584 17.2439 110.564Q17.2633 110.545 17.2916 110.545Q17.3233 110.545 17.3409 110.564Q17.3586 110.584 17.3586 110.612Z" style="stroke:#000000;stroke-width:0.25;stroke-linecap:round;stroke-linejoin:bevel" />
        <path d="M9.88858 110.044Q9.88858 110.075 9.86742 110.095Q9.84625 110.114 9.81803 110.114H8.52333Q8.49158 110.114 8.47218 110.093Q8.45278 110.072 8.45278 110.044V107.715Q8.45278 107.687 8.47394 107.666Q8.49511 107.645 8.52686 107.645Q8.55861 107.645 8.57978 107.666Q8.60094 107.687 8.60094 107.715V109.973H9.81803Q9.84625 109.973 9.86742 109.994Q9.88858 110.015 9.88858 110.044Z" style="stroke:#000000;stroke-width:0.25;stroke-linecap:round;stroke-linejoin:bevel" />
        <path d="M23.9484 110.04Q23.9484 110.072 23.929 110.091Q23.9096 110.111 23.8814 110.111Q23.8602 110.111 23.8496 110.104Q23.7544 110.051 23.6979 109.925Q23.6415 109.8 23.6415 109.514Q23.6415 109.225 23.4863 109.118Q23.3311 109.01 23.1264 109.01H22.3009V110.044Q22.3009 110.072 22.2798 110.093Q22.2586 110.114 22.2269 110.114Q22.1951 110.114 22.1739 110.093Q22.1528 110.072 22.1528 110.044V107.715Q22.1528 107.687 22.1739 107.666Q22.1951 107.645 22.2233 107.645H23.1547Q23.3593 107.645 23.518 107.728Q23.6768 107.811 23.765 107.955Q23.8532 108.1 23.8532 108.283Q23.8532 108.52 23.7279 108.689Q23.6027 108.858 23.4016 108.918Q23.5709 108.971 23.6803 109.128Q23.7897 109.285 23.7897 109.514Q23.7897 109.751 23.8197 109.844Q23.8496 109.938 23.9096 109.977Q23.9484 110.001 23.9484 110.04ZM23.1723 108.869Q23.3946 108.848 23.5498 108.693Q23.705 108.537 23.705 108.287Q23.705 108.068 23.5498 107.927Q23.3946 107.786 23.137 107.786H22.3009V108.869Z" style="stroke:#000000;stroke-width:0.25;stroke-linecap:round;stroke-linejoin:bevel" />
        <path d="M38.0547 99.8495Q37.7125 99.8495 37.4444 99.689Q37.1763 99.5285 37.0263 99.2392Q36.8764 98.9499 36.8764 98.5795Q36.8764 98.2091 37.0263 97.9198Q37.1763 97.6305 37.4444 97.47Q37.7125 97.3095 38.0547 97.3095Q38.3969 97.3095 38.665 97.47Q38.9331 97.6305 39.083 97.9198Q39.2329 98.2091 39.2329 98.5795Q39.2329 98.9499 39.083 99.2392Q38.9331 99.5285 38.665 99.689Q38.3969 99.8495 38.0547 99.8495ZM38.0547 97.4506Q37.7548 97.4506 37.5202 97.5917Q37.2856 97.7328 37.1551 97.9903Q37.0246 98.2479 37.0246 98.5795Q37.0246 98.9111 37.1551 99.1686Q37.2856 99.4262 37.5202 99.5673Q37.7548 99.7084 38.0547 99.7084Q38.3545 99.7084 38.5891 99.5673Q38.8237 99.4262 38.9543 99.1686Q39.0848 98.9111 39.0848 98.5795Q39.0848 98.2479 38.9543 97.9903Q38.8237 97.7328 38.5891 97.5917Q38.3545 97.4506 38.0547 97.4506ZM41.5789 97.4153V98.9393Q41.5789 99.1863 41.4554 99.3944Q41.332 99.6025 41.1238 99.726Q40.9157 99.8495 40.6723 99.8495Q40.4253 99.8495 40.2172 99.726Q40.0091 99.6025 39.8856 99.3944Q39.7621 99.1863 39.7621 98.9393V97.4153Q39.7621 97.3836 39.7833 97.3642Q39.8044 97.3448 39.8362 97.3448Q39.8679 97.3448 39.8891 97.3659Q39.9103 97.3871 39.9103 97.4153V98.9393Q39.9103 99.1475 40.0126 99.3238Q40.1149 99.5002 40.2895 99.6043Q40.4641 99.7084 40.6723 99.7084Q40.8804 99.7084 41.055 99.6043Q41.2297 99.5002 41.3337 99.3238Q41.4378 99.1475 41.4378 98.9393V97.4153Q41.4378 97.3871 41.4572 97.3659Q41.4766 97.3448 41.5084 97.3448Q41.5401 97.3448 41.5595 97.3659Q41.5789 97.3871 41.5789 97.4153ZM43.9108 97.4118Q43.9108 97.4435 43.8914 97.4612Q43.872 97.4788 43.8402 97.4788H43.0535V99.7437Q43.0535 99.7719 43.0324 99.793Q43.0112 99.8142 42.983 99.8142Q42.9512 99.8142 42.9318 99.793Q42.9124 99.7719 42.9124 99.7437V97.4788H42.1257Q42.0975 97.4788 42.0763 97.4594Q42.0552 97.44 42.0552 97.4118Q42.0552 97.3836 42.0763 97.3642Q42.0975 97.3448 42.1257 97.3448H43.8402Q43.8684 97.3448 43.8896 97.3642Q43.9108 97.3836 43.9108 97.4118Z" style="stroke:#000000;stroke-width:0.25;stroke-linecap:round;stroke-linejoin:bevel" />
        <path d="M58.7886 103.544Q58.7886 103.575 58.7674 103.595Q58.7463 103.614 58.718 103.614H57.4233Q57.3916 103.614 57.3722 103.593Q57.3528 103.572 57.3528 103.544V101.215Q57.3528 101.187 57.3739 101.166Q57.3951 101.145 57.4269 101.145Q57.4586 101.145 57.4798 101.166Q57.5009 101.187 57.5009 101.215V103.473H58.718Q58.7463 103.473 58.7674 103.494Q58.7886 103.515 58.7886 103.544Z" style="stroke:#000000;stroke-width:0.25;stroke-linecap:round;stroke-linejoin:bevel" />
        <path d="M59.1484 113.54Q59.1484 113.572 59.129 113.591Q59.1096 113.611 59.0814 113.611Q59.0602 113.611 59.0496 113.604Q58.9544 113.551 58.8979 113.425Q58.8415 113.3 58.8415 113.014Q58.8415 112.725 58.6863 112.618Q58.5311 112.51 58.3264 112.51H57.5009V113.544Q57.5009 113.572 57.4798 113.593Q57.4586 113.614 57.4269 113.614Q57.3951 113.614 57.3739 113.593Q57.3528 113.572 57.3528 113.544V111.215Q57.3528 111.187 57.3739 111.166Q57.3951 111.145 57.4233 111.145H58.3547Q58.5593 111.145 58.718 111.228Q58.8768 111.311 58.965 111.455Q59.0532 111.6 59.0532 111.783Q59.0532 112.02 58.9279 112.189Q58.8027 112.358 58.6016 112.418Q58.7709 112.471 58.8803 112.628Q58.9897 112.785 58.9897 113.014Q58.9897 113.251 59.0197 113.344Q59.0496 113.438 59.1096 113.477Q59.1484 113.501 59.1484 113.54ZM58.3723 112.369Q58.5946 112.348 58.7498 112.193Q58.905 112.037 58.905 111.787Q58.905 111.568 58.7498 111.427Q58.5946 111.286 58.337 111.286H57.5009V112.369Z" style="stroke:#000000;stroke-width:0.25;stroke-linecap:round;stroke-linejoin:bevel" />
        <path id="input_connector_path" style="stroke:#000000;stroke-width:0.25;stroke-linecap:round;stroke-linejoin:bevel;stroke-dasharray:none" d="M 9,114.5 L 23,114.5 z" />
        <path id="drive_connector_path" style="stroke:#000000;stroke-width:0.25;stroke-linecap:round;stroke-linejoin:bevel;stroke-dasharray:none" d="M 40.50,107.50 L 52.50,102.50 M 40.50,107.50 L 52.50,112.50 " />
    </g>
    <g id="control_labels" style="stroke:#000000;stroke-width:0.25;stroke-linecap:round;stroke-linejoin:bevel">
        <path id="airflow_label" d="M12.1932 26.1126Q12.1932 26.1443 12.1721 26.1619Q12.1509 26.1796 12.1191 26.1796Q12.0944 26.1796 12.075 26.1672Q12.0556 26.1549 12.0486 26.1337L11.7523 25.407L11.7558 25.4141H10.574L10.2882 26.1337Q10.2706 26.1796 10.2247 26.1796Q10.193 26.1796 10.1736 26.1619Q10.1542 26.1443 10.1506 26.1196Q10.1471 26.1055 10.1542 26.0843L11.1031 23.7489Q11.1137 23.7207 11.1296 23.7119Q11.1455 23.7031 11.1702 23.7031Q11.2231 23.7031 11.2407 23.7489L12.1897 26.0843Q12.1932 26.0949 12.1932 26.1126ZM10.6304 25.2729H11.6993L11.1596 23.943ZM12.7436 26.1796Q12.7083 26.1796 12.6889 26.1584Q12.6695 26.1373 12.6695 26.1055V23.7842Q12.6695 23.7525 12.6906 23.7313Q12.7118 23.7101 12.7436 23.7101Q12.7753 23.7101 12.7965 23.7313Q12.8176 23.7525 12.8176 23.7842V26.1055Q12.8141 26.1373 12.7929 26.1584Q12.7718 26.1796 12.7436 26.1796ZM15.3188 26.1055Q15.3188 26.1373 15.2994 26.1567Q15.28 26.1761 15.2518 26.1761Q15.2306 26.1761 15.2201 26.169Q15.1248 26.1161 15.0684 25.9908Q15.0119 25.8656 15.0119 25.5799Q15.0119 25.2906 14.8567 25.183Q14.7015 25.0754 14.4969 25.0754H13.6714V26.109Q13.6714 26.1373 13.6502 26.1584Q13.629 26.1796 13.5973 26.1796Q13.5655 26.1796 13.5444 26.1584Q13.5232 26.1373 13.5232 26.109V23.7807Q13.5232 23.7525 13.5444 23.7313Q13.5655 23.7101 13.5938 23.7101H14.5251Q14.7297 23.7101 14.8884 23.793Q15.0472 23.8759 15.1354 24.0206Q15.2236 24.1652 15.2236 24.3487Q15.2236 24.585 15.0983 24.7544Q14.9731 24.9237 14.772 24.9837Q14.9414 25.0366 15.0507 25.1936Q15.1601 25.3506 15.1601 25.5799Q15.1601 25.8162 15.1901 25.9097Q15.2201 26.0032 15.28 26.042Q15.3188 26.0667 15.3188 26.1055ZM14.5427 24.9343Q14.765 24.9131 14.9202 24.7579Q15.0754 24.6027 15.0754 24.3522Q15.0754 24.1335 14.9202 23.9924Q14.765 23.8513 14.5074 23.8513H13.6714V24.9343ZM17.3367 23.7807Q17.3367 23.8124 17.3156 23.8318Q17.2944 23.8513 17.2662 23.8513H16.0068V24.8249H17.1074Q17.1356 24.8249 17.1568 24.8461Q17.178 24.8672 17.178 24.8955Q17.178 24.9272 17.1568 24.9466Q17.1356 24.966 17.1074 24.966H16.0068V26.109Q16.0068 26.1373 15.9873 26.1584Q15.9679 26.1796 15.9362 26.1796Q15.9044 26.1796 15.885 26.1584Q15.8656 26.1373 15.8656 26.109V23.7807Q15.8656 23.7525 15.8868 23.7313Q15.908 23.7101 15.9362 23.7101H17.2662Q17.2944 23.7101 17.3156 23.7313Q17.3367 23.7525 17.3367 23.7807ZM19.3017 26.109Q19.3017 26.1408 19.2805 26.1602Q19.2594 26.1796 19.2311 26.1796H17.9364Q17.9047 26.1796 17.8853 26.1584Q17.8659 26.1373 17.8659 26.109V23.7807Q17.8659 23.7525 17.8871 23.7313Q17.9082 23.7101 17.94 23.7101Q17.9717 23.7101 17.9929 23.7313Q18.0141 23.7525 18.0141 23.7807V26.0385H19.2311Q19.2594 26.0385 19.2805 26.0596Q19.3017 26.0808 19.3017 26.109ZM20.7093 26.2149Q20.3671 26.2149 20.099 26.0543Q19.8309 25.8938 19.6809 25.6046Q19.531 25.3153 19.531 24.9449Q19.531 24.5744 19.6809 24.2852Q19.8309 23.9959 20.099 23.8354Q20.3671 23.6749 20.7093 23.6749Q21.0515 23.6749 21.3196 23.8354Q21.5877 23.9959 21.7376 24.2852Q21.8876 24.5744 21.8876 24.9449Q21.8876 25.3153 21.7376 25.6046Q21.5877 25.8938 21.3196 26.0543Q21.0515 26.2149 20.7093 26.2149ZM20.7093 23.816Q20.4094 23.816 20.1748 23.9571Q19.9402 24.0982 19.8097 24.3557Q19.6792 24.6133 19.6792 24.9449Q19.6792 25.2765 19.8097 25.534Q19.9402 25.7915 20.1748 25.9326Q20.4094 26.0738 20.7093 26.0738Q21.0091 26.0738 21.2437 25.9326Q21.4783 25.7915 21.6089 25.534Q21.7394 25.2765 21.7394 24.9449Q21.7394 24.6133 21.6089 24.3557Q21.4783 24.0982 21.2437 23.9571Q21.0091 23.816 20.7093 23.816ZM25.3765 23.7701 25.3695 23.8054 24.5616 26.1337Q24.5546 26.1549 24.5352 26.1672Q24.5158 26.1796 24.4981 26.1796Q24.4417 26.1796 24.4276 26.1373L23.782 24.5074L23.1364 26.1373Q23.1188 26.1796 23.0623 26.1796Q23.0411 26.1796 23.0235 26.1672Q23.0059 26.1549 23.0023 26.1337L22.1945 23.8054L22.1874 23.7736Q22.1874 23.7419 22.2121 23.7225Q22.2368 23.7031 22.265 23.7031Q22.2862 23.7031 22.3056 23.7154Q22.325 23.7278 22.3321 23.7489L23.0799 25.9079L23.7149 24.3028Q23.7326 24.2569 23.782 24.2569Q23.8031 24.2569 23.8225 24.2693Q23.8419 24.2816 23.849 24.3028L24.4875 25.9115L25.2319 23.7489Q25.2495 23.7031 25.3024 23.7031Q25.3342 23.7031 25.3554 23.7207Q25.3765 23.7384 25.3765 23.7701Z" />
        <path id="width_label" d="M17.3403 44.7701 17.3332 44.8054 16.5253 47.1337Q16.5183 47.1549 16.4989 47.1672Q16.4795 47.1796 16.4618 47.1796Q16.4054 47.1796 16.3913 47.1373L15.7457 45.5074L15.1001 47.1373Q15.0825 47.1796 15.026 47.1796Q15.0049 47.1796 14.9872 47.1672Q14.9696 47.1549 14.9661 47.1337L14.1582 44.8054L14.1511 44.7736Q14.1511 44.7419 14.1758 44.7225Q14.2005 44.7031 14.2288 44.7031Q14.2499 44.7031 14.2693 44.7154Q14.2887 44.7278 14.2958 44.7489L15.0437 46.9079L15.6787 45.3028Q15.6963 45.2569 15.7457 45.2569Q15.7669 45.2569 15.7863 45.2693Q15.8057 45.2816 15.8127 45.3028L16.4513 46.9115L17.1956 44.7489Q17.2133 44.7031 17.2662 44.7031Q17.2979 44.7031 17.3191 44.7207Q17.3403 44.7384 17.3403 44.7701ZM17.8906 47.1796Q17.8553 47.1796 17.8359 47.1584Q17.8165 47.1373 17.8165 47.1055V44.7842Q17.8165 44.7525 17.8377 44.7313Q17.8588 44.7101 17.8906 44.7101Q17.9223 44.7101 17.9435 44.7313Q17.9647 44.7525 17.9647 44.7842V47.1055Q17.9611 47.1373 17.94 47.1584Q17.9188 47.1796 17.8906 47.1796ZM20.6811 45.9449Q20.6811 46.2941 20.5699 46.5728Q20.4588 46.8515 20.2295 47.0155Q20.0002 47.1796 19.658 47.1796H18.7408Q18.7126 47.1796 18.6914 47.1584Q18.6702 47.1373 18.6702 47.109V44.7807Q18.6702 44.7525 18.6914 44.7313Q18.7126 44.7101 18.7408 44.7101H19.658Q19.9967 44.7101 20.2277 44.8795Q20.4588 45.0488 20.5699 45.3293Q20.6811 45.6097 20.6811 45.9449ZM20.5329 45.9449Q20.5329 45.645 20.4359 45.3963Q20.3389 45.1476 20.136 44.9994Q19.9332 44.8513 19.6227 44.8513H18.8184V47.0385H19.6227Q20.0813 47.0385 20.3071 46.7368Q20.5329 46.4352 20.5329 45.9449ZM22.8365 44.7772Q22.8365 44.8089 22.8171 44.8266Q22.7977 44.8442 22.766 44.8442H21.9793V47.109Q21.9793 47.1373 21.9581 47.1584Q21.9369 47.1796 21.9087 47.1796Q21.877 47.1796 21.8576 47.1584Q21.8382 47.1373 21.8382 47.109V44.8442H21.0515Q21.0232 44.8442 21.0021 44.8248Q20.9809 44.8054 20.9809 44.7772Q20.9809 44.7489 21.0021 44.7295Q21.0232 44.7101 21.0515 44.7101H22.766Q22.7942 44.7101 22.8154 44.7295Q22.8365 44.7489 22.8365 44.7772ZM25.1472 44.7842V47.1055Q25.1437 47.1373 25.1225 47.1584Q25.1014 47.1796 25.0731 47.1796Q25.0379 47.1796 25.0185 47.1584Q24.9991 47.1373 24.9991 47.1055V45.9801H23.4609V47.1055Q23.4574 47.1373 23.4362 47.1584Q23.4151 47.1796 23.3869 47.1796Q23.3516 47.1796 23.3322 47.1584Q23.3128 47.1373 23.3128 47.1055V44.7842Q23.3128 44.7525 23.3339 44.7313Q23.3551 44.7101 23.3869 44.7101Q23.4186 44.7101 23.4398 44.7313Q23.4609 44.7525 23.4609 44.7842V45.839H24.9991V44.7842Q24.9991 44.7525 25.0202 44.7313Q25.0414 44.7101 25.0731 44.7101Q25.1049 44.7101 25.1261 44.7313Q25.1472 44.7525 25.1472 44.7842Z" />
        <path id="decay_label" d="M16.7688 66.9449Q16.7688 67.2941 16.6576 67.5728Q16.5465 67.8515 16.3172 68.0155Q16.0879 68.1796 15.7457 68.1796H14.8285Q14.8003 68.1796 14.7791 68.1584Q14.7579 68.1373 14.7579 68.109V65.7807Q14.7579 65.7525 14.7791 65.7313Q14.8003 65.7101 14.8285 65.7101H15.7457Q16.0844 65.7101 16.3154 65.8795Q16.5465 66.0488 16.6576 66.3293Q16.7688 66.6097 16.7688 66.9449ZM16.6206 66.9449Q16.6206 66.645 16.5236 66.3963Q16.4266 66.1476 16.2237 65.9994Q16.0209 65.8513 15.7104 65.8513H14.9061V68.0385H15.7104Q16.169 68.0385 16.3948 67.7368Q16.6206 67.4352 16.6206 66.9449ZM18.769 68.109Q18.769 68.1408 18.7478 68.1602Q18.7267 68.1796 18.6984 68.1796H17.3685Q17.3402 68.1796 17.3191 68.1584Q17.2979 68.1373 17.2979 68.109V65.7807Q17.2979 65.7525 17.3191 65.7313Q17.3402 65.7101 17.3685 65.7101H18.6984Q18.7267 65.7101 18.7478 65.7313Q18.769 65.7525 18.769 65.7807Q18.769 65.8124 18.7478 65.8318Q18.7267 65.8513 18.6984 65.8513H17.4461V66.8355H18.5397Q18.5679 66.8355 18.5891 66.8567Q18.6103 66.8778 18.6103 66.9061Q18.6103 66.9378 18.5891 66.9572Q18.5679 66.9766 18.5397 66.9766H17.4461V68.0385H18.6984Q18.7267 68.0385 18.7478 68.0596Q18.769 68.0808 18.769 68.109ZM21.1573 65.9712Q21.1573 65.9994 21.1432 66.0171Q21.122 66.0453 21.0903 66.0453Q21.0762 66.0453 21.0479 66.0312Q20.7199 65.8089 20.353 65.8089Q20.0566 65.8089 19.8079 65.9553Q19.5592 66.1017 19.4146 66.361Q19.2699 66.6203 19.2699 66.9449Q19.2699 67.2694 19.4146 67.5287Q19.5592 67.788 19.8079 67.9344Q20.0566 68.0808 20.353 68.0808Q20.7234 68.0808 21.0444 67.8621Q21.0621 67.848 21.0868 67.848Q21.122 67.848 21.1432 67.8762Q21.1573 67.8938 21.1573 67.9185Q21.1573 67.9538 21.1291 67.975Q20.9915 68.0738 20.7745 68.1443Q20.5576 68.2149 20.353 68.2149Q20.0178 68.2149 19.7356 68.0491Q19.4534 67.8833 19.2876 67.5922Q19.1218 67.3012 19.1218 66.9449Q19.1218 66.5886 19.2876 66.2975Q19.4534 66.0065 19.7356 65.8407Q20.0178 65.6749 20.353 65.6749Q20.5646 65.6749 20.764 65.7384Q20.9633 65.8019 21.1256 65.9148Q21.1573 65.9394 21.1573 65.9712ZM23.4468 68.1126Q23.4468 68.1443 23.4257 68.1619Q23.4045 68.1796 23.3727 68.1796Q23.3481 68.1796 23.3287 68.1672Q23.3093 68.1549 23.3022 68.1337L23.0059 67.407L23.0094 67.4141H21.8276L21.5418 68.1337Q21.5242 68.1796 21.4783 68.1796Q21.4466 68.1796 21.4272 68.1619Q21.4078 68.1443 21.4043 68.1196Q21.4007 68.1055 21.4078 68.0843L22.3568 65.7489Q22.3673 65.7207 22.3832 65.7119Q22.3991 65.7031 22.4238 65.7031Q22.4767 65.7031 22.4943 65.7489L23.4433 68.0843Q23.4468 68.0949 23.4468 68.1126ZM21.884 67.2729H22.9529L22.4132 65.943ZM25.4153 65.8089 24.611 66.9025V68.109Q24.611 68.1373 24.5898 68.1584Q24.5687 68.1796 24.5369 68.1796Q24.5052 68.1796 24.484 68.1584Q24.4628 68.1373 24.4628 68.109V66.9166L23.655 65.8089Q23.6409 65.7913 23.6409 65.7631Q23.6409 65.7384 23.6638 65.7172Q23.6867 65.696 23.7149 65.696Q23.7538 65.696 23.7749 65.7278L24.5369 66.7685L25.2989 65.7278Q25.3201 65.696 25.3589 65.696Q25.3906 65.696 25.41 65.719Q25.4294 65.7419 25.4294 65.7631Q25.4294 65.7807 25.4153 65.8089Z" />
        <path id="root_label" d="M17.7847 89.1055Q17.7847 89.1373 17.7653 89.1567Q17.7459 89.1761 17.7177 89.1761Q17.6966 89.1761 17.686 89.169Q17.5907 89.1161 17.5343 88.9908Q17.4778 88.8656 17.4778 88.5799Q17.4778 88.2906 17.3226 88.183Q17.1674 88.0754 16.9628 88.0754H16.1373V89.109Q16.1373 89.1373 16.1161 89.1584Q16.0949 89.1796 16.0632 89.1796Q16.0314 89.1796 16.0103 89.1584Q15.9891 89.1373 15.9891 89.109V86.7807Q15.9891 86.7525 16.0103 86.7313Q16.0314 86.7101 16.0597 86.7101H16.991Q17.1956 86.7101 17.3544 86.793Q17.5131 86.8759 17.6013 87.0206Q17.6895 87.1652 17.6895 87.3487Q17.6895 87.585 17.5643 87.7544Q17.439 87.9237 17.2379 87.9837Q17.4073 88.0366 17.5166 88.1936Q17.626 88.3506 17.626 88.5799Q17.626 88.8162 17.656 88.9097Q17.686 89.0032 17.7459 89.042Q17.7847 89.0667 17.7847 89.1055ZM17.0086 87.9343Q17.2309 87.9131 17.3861 87.7579Q17.5413 87.6027 17.5413 87.3522Q17.5413 87.1335 17.3861 86.9924Q17.2309 86.8513 16.9734 86.8513H16.1373V87.9343ZM19.3334 89.2149Q18.9913 89.2149 18.7231 89.0543Q18.455 88.8938 18.3051 88.6046Q18.1552 88.3153 18.1552 87.9449Q18.1552 87.5744 18.3051 87.2852Q18.455 86.9959 18.7231 86.8354Q18.9913 86.6749 19.3334 86.6749Q19.6756 86.6749 19.9438 86.8354Q20.2119 86.9959 20.3618 87.2852Q20.5117 87.5744 20.5117 87.9449Q20.5117 88.3153 20.3618 88.6046Q20.2119 88.8938 19.9438 89.0543Q19.6756 89.2149 19.3334 89.2149ZM19.3334 86.816Q19.0336 86.816 18.799 86.9571Q18.5644 87.0982 18.4339 87.3557Q18.3033 87.6133 18.3033 87.9449Q18.3033 88.2765 18.4339 88.534Q18.5644 88.7915 18.799 88.9326Q19.0336 89.0738 19.3334 89.0738Q19.6333 89.0738 19.8679 88.9326Q20.1025 88.7915 20.233 88.534Q20.3636 88.2765 20.3636 87.9449Q20.3636 87.6133 20.233 87.3557Q20.1025 87.0982 19.8679 86.9571Q19.6333 86.816 19.3334 86.816ZM22.0428 89.2149Q21.7006 89.2149 21.4325 89.0543Q21.1644 88.8938 21.0144 88.6046Q20.8645 88.3153 20.8645 87.9449Q20.8645 87.5744 21.0144 87.2852Q21.1644 86.9959 21.4325 86.8354Q21.7006 86.6749 22.0428 86.6749Q22.385 86.6749 22.6531 86.8354Q22.9212 86.9959 23.0711 87.2852Q23.2211 87.5744 23.2211 87.9449Q23.2211 88.3153 23.0711 88.6046Q22.9212 88.8938 22.6531 89.0543Q22.385 89.2149 22.0428 89.2149ZM22.0428 86.816Q21.7429 86.816 21.5083 86.9571Q21.2737 87.0982 21.1432 87.3557Q21.0127 87.6133 21.0127 87.9449Q21.0127 88.2765 21.1432 88.534Q21.2737 88.7915 21.5083 88.9326Q21.7429 89.0738 22.0428 89.0738Q22.3426 89.0738 22.5772 88.9326Q22.8118 88.7915 22.9424 88.534Q23.0729 88.2765 23.0729 87.9449Q23.0729 87.6133 22.9424 87.3557Q22.8118 87.0982 22.5772 86.9571Q22.3426 86.816 22.0428 86.816ZM25.3765 86.7772Q25.3765 86.8089 25.3571 86.8266Q25.3377 86.8442 25.306 86.8442H24.5193V89.109Q24.5193 89.1373 24.4981 89.1584Q24.4769 89.1796 24.4487 89.1796Q24.417 89.1796 24.3976 89.1584Q24.3782 89.1373 24.3782 89.109V86.8442H23.5915Q23.5633 86.8442 23.5421 86.8248Q23.5209 86.8054 23.5209 86.7772Q23.5209 86.7489 23.5421 86.7295Q23.5633 86.7101 23.5915 86.7101H25.306Q25.3342 86.7101 25.3554 86.7295Q25.3765 86.7489 25.3765 86.7772Z" />
        <path id="vortex_label" d="M37.7049 13.2736Q37.7049 13.2877 37.6978 13.3089L36.7312 15.6337Q36.71 15.6796 36.6642 15.6796Q36.643 15.6796 36.6236 15.6672Q36.6042 15.6549 36.5971 15.6337L35.6376 13.3195Q35.627 13.2983 35.627 13.2772Q35.627 13.2489 35.6464 13.2295Q35.6658 13.2101 35.694 13.2101Q35.7469 13.2101 35.7716 13.2666L36.6677 15.4221L37.5673 13.256Q37.592 13.2101 37.6343 13.2101Q37.6661 13.2101 37.6855 13.2278Q37.7049 13.2454 37.7049 13.2736ZM39.183 15.7149Q38.8408 15.7149 38.5727 15.5543Q38.3046 15.3938 38.1547 15.1046Q38.0047 14.8153 38.0047 14.4449Q38.0047 14.0744 38.1547 13.7852Q38.3046 13.4959 38.5727 13.3354Q38.8408 13.1749 39.183 13.1749Q39.5252 13.1749 39.7933 13.3354Q40.0614 13.4959 40.2113 13.7852Q40.3613 14.0744 40.3613 14.4449Q40.3613 14.8153 40.2113 15.1046Q40.0614 15.3938 39.7933 15.5543Q39.5252 15.7149 39.183 15.7149ZM39.183 13.316Q38.8831 13.316 38.6485 13.4571Q38.4139 13.5982 38.2834 13.8557Q38.1529 14.1133 38.1529 14.4449Q38.1529 14.7765 38.2834 15.034Q38.4139 15.2915 38.6485 15.4326Q38.8831 15.5738 39.183 15.5738Q39.4829 15.5738 39.7175 15.4326Q39.9521 15.2915 40.0826 15.034Q40.2131 14.7765 40.2131 14.4449Q40.2131 14.1133 40.0826 13.8557Q39.9521 13.5982 39.7175 13.4571Q39.4829 13.316 39.183 13.316ZM42.6861 15.6055Q42.6861 15.6372 42.6667 15.6567Q42.6473 15.6761 42.6191 15.6761Q42.5979 15.6761 42.5873 15.669Q42.4921 15.6161 42.4356 15.4908Q42.3792 15.3656 42.3792 15.0799Q42.3792 14.7906 42.2239 14.683Q42.0687 14.5754 41.8641 14.5754H41.0386V15.609Q41.0386 15.6372 41.0174 15.6584Q40.9963 15.6796 40.9645 15.6796Q40.9328 15.6796 40.9116 15.6584Q40.8904 15.6372 40.8904 15.609V13.2807Q40.8904 13.2525 40.9116 13.2313Q40.9328 13.2101 40.961 13.2101H41.8923Q42.0969 13.2101 42.2557 13.293Q42.4144 13.3759 42.5026 13.5206Q42.5908 13.6652 42.5908 13.8487Q42.5908 14.085 42.4656 14.2544Q42.3404 14.4237 42.1393 14.4837Q42.3086 14.5366 42.418 14.6936Q42.5273 14.8506 42.5273 15.0799Q42.5273 15.3162 42.5573 15.4097Q42.5873 15.5032 42.6473 15.542Q42.6861 15.5667 42.6861 15.6055ZM41.91 14.4343Q42.1322 14.4131 42.2874 14.2579Q42.4427 14.1027 42.4427 13.8522Q42.4427 13.6335 42.2874 13.4924Q42.1322 13.3513 41.8747 13.3513H41.0386V14.4343ZM44.8592 13.2772Q44.8592 13.3089 44.8398 13.3266Q44.8204 13.3442 44.7886 13.3442H44.0019V15.609Q44.0019 15.6372 43.9808 15.6584Q43.9596 15.6796 43.9314 15.6796Q43.8996 15.6796 43.8802 15.6584Q43.8608 15.6372 43.8608 15.609V13.3442H43.0741Q43.0459 13.3442 43.0247 13.3248Q43.0036 13.3054 43.0036 13.2772Q43.0036 13.2489 43.0247 13.2295Q43.0459 13.2101 43.0741 13.2101H44.7886Q44.8169 13.2101 44.838 13.2295Q44.8592 13.2489 44.8592 13.2772ZM46.8065 15.609Q46.8065 15.6408 46.7854 15.6602Q46.7642 15.6796 46.736 15.6796H45.406Q45.3778 15.6796 45.3566 15.6584Q45.3354 15.6372 45.3354 15.609V13.2807Q45.3354 13.2525 45.3566 13.2313Q45.3778 13.2101 45.406 13.2101H46.736Q46.7642 13.2101 46.7854 13.2313Q46.8065 13.2525 46.8065 13.2807Q46.8065 13.3124 46.7854 13.3318Q46.7642 13.3513 46.736 13.3513H45.4836V14.3355H46.5772Q46.6054 14.3355 46.6266 14.3567Q46.6478 14.3778 46.6478 14.4061Q46.6478 14.4378 46.6266 14.4572Q46.6054 14.4766 46.5772 14.4766H45.4836V15.5385H46.736Q46.7642 15.5385 46.7854 15.5596Q46.8065 15.5808 46.8065 15.609ZM48.9373 15.5773Q48.9549 15.602 48.9549 15.6196Q48.9549 15.6514 48.9338 15.6708Q48.9126 15.6902 48.8809 15.6902Q48.8421 15.6902 48.8244 15.6619L48.0166 14.5613L47.2122 15.6619Q47.1946 15.6902 47.1593 15.6902Q47.1276 15.6902 47.1099 15.6708Q47.0923 15.6514 47.0923 15.6302Q47.0923 15.6126 47.1099 15.5843L47.9389 14.4519L47.1029 13.3124Q47.0888 13.2948 47.0888 13.2701Q47.0888 13.2384 47.1099 13.219Q47.1311 13.1996 47.1593 13.1996Q47.2016 13.1996 47.2193 13.2278L48.0271 14.332L48.8315 13.2242Q48.8526 13.196 48.8844 13.196Q48.9161 13.196 48.9355 13.2119Q48.9549 13.2278 48.9549 13.2525Q48.9549 13.2772 48.9373 13.3019L48.1083 14.4449Z" />
        <path id="center_label" d="M37.7119 34.4712Q37.7119 34.4994 37.6978 34.5171Q37.6766 34.5453 37.6449 34.5453Q37.6308 34.5453 37.6026 34.5312Q37.2745 34.3089 36.9076 34.3089Q36.6112 34.3089 36.3625 34.4553Q36.1138 34.6017 35.9692 34.861Q35.8246 35.1203 35.8246 35.4449Q35.8246 35.7694 35.9692 36.0287Q36.1138 36.288 36.3625 36.4344Q36.6112 36.5808 36.9076 36.5808Q37.278 36.5808 37.599 36.3621Q37.6167 36.348 37.6414 36.348Q37.6766 36.348 37.6978 36.3762Q37.7119 36.3938 37.7119 36.4185Q37.7119 36.4538 37.6837 36.475Q37.5461 36.5737 37.3292 36.6443Q37.1122 36.7149 36.9076 36.7149Q36.5724 36.7149 36.2902 36.5491Q36.008 36.3832 35.8422 36.0922Q35.6764 35.8012 35.6764 35.4449Q35.6764 35.0886 35.8422 34.7975Q36.008 34.5065 36.2902 34.3407Q36.5724 34.1749 36.9076 34.1749Q37.1193 34.1749 37.3186 34.2384Q37.5179 34.3019 37.6802 34.4147Q37.7119 34.4394 37.7119 34.4712ZM39.6593 36.609Q39.6593 36.6408 39.6381 36.6602Q39.6169 36.6796 39.5887 36.6796H38.2587Q38.2305 36.6796 38.2093 36.6584Q38.1882 36.6373 38.1882 36.609V34.2807Q38.1882 34.2525 38.2093 34.2313Q38.2305 34.2101 38.2587 34.2101H39.5887Q39.6169 34.2101 39.6381 34.2313Q39.6593 34.2525 39.6593 34.2807Q39.6593 34.3124 39.6381 34.3318Q39.6169 34.3513 39.5887 34.3513H38.3363V35.3355H39.4299Q39.4582 35.3355 39.4793 35.3567Q39.5005 35.3778 39.5005 35.4061Q39.5005 35.4378 39.4793 35.4572Q39.4582 35.4766 39.4299 35.4766H38.3363V36.5385H39.5887Q39.6169 36.5385 39.6381 36.5596Q39.6593 36.5808 39.6593 36.609ZM42.0405 34.2772V36.602Q42.0405 36.6408 42.0193 36.6602Q41.9982 36.6796 41.9664 36.6796Q41.9311 36.6796 41.91 36.6514L40.3225 34.4818V36.6196Q40.3225 36.6443 40.3031 36.6619Q40.2837 36.6796 40.2554 36.6796Q40.2237 36.6796 40.2061 36.6619Q40.1884 36.6443 40.1884 36.6196V34.2807Q40.1884 34.2454 40.2078 34.2278Q40.2272 34.2101 40.2519 34.2101Q40.2837 34.2101 40.3048 34.2348L41.9064 36.4185V34.2772Q41.9064 34.2489 41.9258 34.2295Q41.9453 34.2101 41.9735 34.2101Q42.0052 34.2101 42.0229 34.2295Q42.0405 34.2489 42.0405 34.2772ZM44.3724 34.2772Q44.3724 34.3089 44.353 34.3266Q44.3336 34.3442 44.3018 34.3442H43.5151V36.609Q43.5151 36.6373 43.4939 36.6584Q43.4728 36.6796 43.4446 36.6796Q43.4128 36.6796 43.3934 36.6584Q43.374 36.6373 43.374 36.609V34.3442H42.5873Q42.5591 34.3442 42.5379 34.3248Q42.5167 34.3054 42.5167 34.2772Q42.5167 34.2489 42.5379 34.2295Q42.5591 34.2101 42.5873 34.2101H44.3018Q44.33 34.2101 44.3512 34.2295Q44.3724 34.2489 44.3724 34.2772ZM46.3197 36.609Q46.3197 36.6408 46.2985 36.6602Q46.2774 36.6796 46.2491 36.6796H44.9192Q44.8909 36.6796 44.8698 36.6584Q44.8486 36.6373 44.8486 36.609V34.2807Q44.8486 34.2525 44.8698 34.2313Q44.8909 34.2101 44.9192 34.2101H46.2491Q46.2774 34.2101 46.2985 34.2313Q46.3197 34.2525 46.3197 34.2807Q46.3197 34.3124 46.2985 34.3318Q46.2774 34.3513 46.2491 34.3513H44.9968V35.3355H46.0904Q46.1186 35.3355 46.1398 35.3567Q46.1609 35.3778 46.1609 35.4061Q46.1609 35.4378 46.1398 35.4572Q46.1186 35.4766 46.0904 35.4766H44.9968V36.5385H46.2491Q46.2774 36.5385 46.2985 36.5596Q46.3197 36.5808 46.3197 36.609ZM48.6445 36.6055Q48.6445 36.6373 48.6251 36.6567Q48.6057 36.6761 48.5775 36.6761Q48.5563 36.6761 48.5457 36.669Q48.4505 36.6161 48.394 36.4908Q48.3376 36.3656 48.3376 36.0799Q48.3376 35.7906 48.1824 35.683Q48.0271 35.5754 47.8225 35.5754H46.997V36.609Q46.997 36.6373 46.9759 36.6584Q46.9547 36.6796 46.9229 36.6796Q46.8912 36.6796 46.87 36.6584Q46.8489 36.6373 46.8489 36.609V34.2807Q46.8489 34.2525 46.87 34.2313Q46.8912 34.2101 46.9194 34.2101H47.8507Q48.0554 34.2101 48.2141 34.293Q48.3729 34.3759 48.4611 34.5206Q48.5493 34.6652 48.5493 34.8487Q48.5493 35.085 48.424 35.2544Q48.2988 35.4237 48.0977 35.4837Q48.267 35.5366 48.3764 35.6936Q48.4857 35.8506 48.4857 36.0799Q48.4857 36.3162 48.5157 36.4097Q48.5457 36.5032 48.6057 36.542Q48.6445 36.5667 48.6445 36.6055ZM47.8684 35.4343Q48.0906 35.4131 48.2459 35.2579Q48.4011 35.1027 48.4011 34.8522Q48.4011 34.6335 48.2459 34.4924Q48.0906 34.3513 47.8331 34.3513H46.997V35.4343Z" />
        <path id="angle_label" d="M37.6661 57.6126Q37.6661 57.6443 37.6449 57.6619Q37.6237 57.6796 37.592 57.6796Q37.5673 57.6796 37.5479 57.6672Q37.5285 57.6549 37.5214 57.6337L37.2251 56.907L37.2286 56.9141H36.0468L35.7611 57.6337Q35.7434 57.6796 35.6976 57.6796Q35.6658 57.6796 35.6464 57.6619Q35.627 57.6443 35.6235 57.6196Q35.6199 57.6055 35.627 57.5843L36.576 55.2489Q36.5866 55.2207 36.6024 55.2119Q36.6183 55.2031 36.643 55.2031Q36.6959 55.2031 36.7136 55.2489L37.6625 57.5843Q37.6661 57.5949 37.6661 57.6126ZM36.1033 56.7729H37.1722L36.6324 55.443ZM39.9944 55.2772V57.602Q39.9944 57.6408 39.9732 57.6602Q39.9521 57.6796 39.9203 57.6796Q39.885 57.6796 39.8639 57.6514L38.2764 55.4818V57.6196Q38.2764 57.6443 38.257 57.6619Q38.2376 57.6796 38.2093 57.6796Q38.1776 57.6796 38.1599 57.6619Q38.1423 57.6443 38.1423 57.6196V55.2807Q38.1423 55.2454 38.1617 55.2278Q38.1811 55.2101 38.2058 55.2101Q38.2376 55.2101 38.2587 55.2348L39.8603 57.4185V55.2772Q39.8603 55.2489 39.8797 55.2295Q39.8991 55.2101 39.9274 55.2101Q39.9591 55.2101 39.9768 55.2295Q39.9944 55.2489 39.9944 55.2772ZM42.5661 56.5331V57.4185Q42.5661 57.4609 42.5344 57.482Q42.3721 57.5914 42.1798 57.6531Q41.9876 57.7149 41.79 57.7149Q41.4267 57.7149 41.1392 57.5508Q40.8516 57.3868 40.6876 57.0975Q40.5236 56.8082 40.5236 56.4449Q40.5236 56.0815 40.6876 55.7922Q40.8516 55.5029 41.1392 55.3389Q41.4267 55.1749 41.79 55.1749Q41.9876 55.1749 42.1657 55.2225Q42.3439 55.2701 42.485 55.3654Q42.5168 55.3865 42.5168 55.4253Q42.5168 55.4571 42.4938 55.4765Q42.4709 55.4959 42.4497 55.4959Q42.4321 55.4959 42.4039 55.4818Q42.1075 55.316 41.79 55.316Q41.4655 55.316 41.2115 55.4606Q40.9575 55.6052 40.8146 55.8628Q40.6717 56.1203 40.6717 56.4449Q40.6717 56.7694 40.8146 57.0269Q40.9575 57.2845 41.2115 57.4291Q41.4655 57.5737 41.79 57.5737Q41.9523 57.5737 42.1199 57.5226Q42.2874 57.4714 42.425 57.3868V56.6036H41.79Q41.7618 56.6036 41.7406 56.5824Q41.7195 56.5613 41.7195 56.5331Q41.7195 56.5013 41.7406 56.4819Q41.7618 56.4625 41.79 56.4625H42.4956Q42.5273 56.4625 42.5467 56.4837Q42.5661 56.5048 42.5661 56.5331ZM44.584 57.609Q44.584 57.6408 44.5629 57.6602Q44.5417 57.6796 44.5135 57.6796H43.2188Q43.187 57.6796 43.1676 57.6584Q43.1482 57.6373 43.1482 57.609V55.2807Q43.1482 55.2525 43.1694 55.2313Q43.1906 55.2101 43.2223 55.2101Q43.2541 55.2101 43.2752 55.2313Q43.2964 55.2525 43.2964 55.2807V57.5385H44.5135Q44.5417 57.5385 44.5629 57.5596Q44.584 57.5808 44.584 57.609ZM46.4608 57.609Q46.4608 57.6408 46.4396 57.6602Q46.4185 57.6796 46.3902 57.6796H45.0603Q45.0321 57.6796 45.0109 57.6584Q44.9897 57.6373 44.9897 57.609V55.2807Q44.9897 55.2525 45.0109 55.2313Q45.0321 55.2101 45.0603 55.2101H46.3902Q46.4185 55.2101 46.4396 55.2313Q46.4608 55.2525 46.4608 55.2807Q46.4608 55.3124 46.4396 55.3318Q46.4185 55.3513 46.3902 55.3513H45.1379V56.3355H46.2315Q46.2597 56.3355 46.2809 56.3567Q46.3021 56.3778 46.3021 56.4061Q46.3021 56.4378 46.2809 56.4572Q46.2597 56.4766 46.2315 56.4766H45.1379V57.5385H46.3902Q46.4185 57.5385 46.4396 57.5596Q46.4608 57.5808 46.4608 57.609Z" />
        <path id="spring_label" d="M35.6446 78.3444Q35.6235 78.3233 35.6235 78.2915Q35.6235 78.2633 35.6482 78.2368Q35.6729 78.2104 35.7011 78.2104Q35.7328 78.2104 35.7611 78.2421Q35.8986 78.4044 36.0874 78.4891Q36.2761 78.5738 36.4843 78.5738Q36.7559 78.5738 36.9323 78.4432Q37.1087 78.3127 37.1087 78.0975Q37.1051 77.9282 37.0169 77.8188Q36.9288 77.7094 36.8 77.6442Q36.6712 77.5789 36.449 77.4978Q36.2056 77.4061 36.0697 77.3355Q35.9339 77.2649 35.8369 77.1344Q35.7399 77.0039 35.7399 76.7922Q35.7399 76.6194 35.8351 76.4783Q35.9304 76.3371 36.1068 76.256Q36.2832 76.1749 36.516 76.1749Q36.7241 76.1749 36.9111 76.2507Q37.0981 76.3266 37.2074 76.4641Q37.2427 76.5135 37.2427 76.5382Q37.2427 76.5664 37.2163 76.5894Q37.1898 76.6123 37.1581 76.6123Q37.1298 76.6123 37.1122 76.5911Q37.0134 76.4641 36.8582 76.3901Q36.703 76.316 36.516 76.316Q36.2479 76.316 36.0697 76.443Q35.8916 76.57 35.8916 76.7887Q35.8916 76.9404 35.978 77.0462Q36.0644 77.1521 36.195 77.2173Q36.3255 77.2826 36.5195 77.3531Q36.7665 77.4413 36.9111 77.5154Q37.0558 77.5895 37.1581 77.7306Q37.2604 77.8717 37.2604 78.1046Q37.2604 78.2668 37.1651 78.4079Q37.0699 78.5491 36.8917 78.632Q36.7136 78.7149 36.4843 78.7149Q36.2232 78.7149 36.0292 78.6249Q35.8351 78.5349 35.6446 78.3444ZM39.377 76.8839Q39.377 77.0815 39.2941 77.242Q39.2112 77.4025 39.0595 77.4925Q38.9078 77.5824 38.7103 77.5824H37.9412V78.609Q37.9412 78.6373 37.9183 78.6584Q37.8954 78.6796 37.8671 78.6796Q37.8354 78.6796 37.8142 78.6584Q37.7931 78.6373 37.7931 78.609V76.2807Q37.7931 76.2525 37.8142 76.2313Q37.8354 76.2101 37.8636 76.2101H38.7103Q39.0101 76.2101 39.1936 76.3971Q39.377 76.5841 39.377 76.8839ZM39.2289 76.8839Q39.2289 76.6405 39.0895 76.4959Q38.9502 76.3513 38.7103 76.3513H37.9412V77.4413H38.7103Q38.9466 77.4413 39.0877 77.2843Q39.2289 77.1274 39.2289 76.8839ZM41.6842 78.6055Q41.6842 78.6373 41.6648 78.6567Q41.6454 78.6761 41.6172 78.6761Q41.596 78.6761 41.5854 78.669Q41.4902 78.6161 41.4337 78.4908Q41.3773 78.3656 41.3773 78.0799Q41.3773 77.7906 41.2221 77.683Q41.0668 77.5754 40.8622 77.5754H40.0367V78.609Q40.0367 78.6373 40.0156 78.6584Q39.9944 78.6796 39.9626 78.6796Q39.9309 78.6796 39.9097 78.6584Q39.8886 78.6373 39.8886 78.609V76.2807Q39.8886 76.2525 39.9097 76.2313Q39.9309 76.2101 39.9591 76.2101H40.8904Q41.0951 76.2101 41.2538 76.293Q41.4126 76.3759 41.5008 76.5206Q41.5889 76.6652 41.5889 76.8487Q41.5889 77.085 41.4637 77.2544Q41.3385 77.4237 41.1374 77.4837Q41.3067 77.5366 41.4161 77.6936Q41.5254 77.8506 41.5254 78.0799Q41.5254 78.3162 41.5554 78.4097Q41.5854 78.5032 41.6454 78.542Q41.6842 78.5667 41.6842 78.6055ZM40.9081 77.4343Q41.1303 77.4131 41.2856 77.2579Q41.4408 77.1027 41.4408 76.8522Q41.4408 76.6335 41.2856 76.4924Q41.1303 76.3513 40.8728 76.3513H40.0367V77.4343ZM42.3051 78.6796Q42.2698 78.6796 42.2504 78.6584Q42.231 78.6373 42.231 78.6055V76.2842Q42.231 76.2525 42.2522 76.2313Q42.2733 76.2101 42.3051 76.2101Q42.3368 76.2101 42.358 76.2313Q42.3792 76.2525 42.3792 76.2842V78.6055Q42.3756 78.6373 42.3545 78.6584Q42.3333 78.6796 42.3051 78.6796ZM44.9368 76.2772V78.602Q44.9368 78.6408 44.9156 78.6602Q44.8945 78.6796 44.8627 78.6796Q44.8274 78.6796 44.8063 78.6514L43.2188 76.4818V78.6196Q43.2188 78.6443 43.1994 78.6619Q43.18 78.6796 43.1518 78.6796Q43.12 78.6796 43.1024 78.6619Q43.0847 78.6443 43.0847 78.6196V76.2807Q43.0847 76.2454 43.1041 76.2278Q43.1235 76.2101 43.1482 76.2101Q43.18 76.2101 43.2011 76.2348L44.8028 78.4185V76.2772Q44.8028 76.2489 44.8222 76.2295Q44.8416 76.2101 44.8698 76.2101Q44.9015 76.2101 44.9192 76.2295Q44.9368 76.2489 44.9368 76.2772ZM47.5086 77.5331V78.4185Q47.5086 78.4609 47.4768 78.482Q47.3145 78.5914 47.1223 78.6531Q46.93 78.7149 46.7324 78.7149Q46.3691 78.7149 46.0816 78.5508Q45.7941 78.3868 45.63 78.0975Q45.466 77.8082 45.466 77.4449Q45.466 77.0815 45.63 76.7922Q45.7941 76.5029 46.0816 76.3389Q46.3691 76.1749 46.7324 76.1749Q46.93 76.1749 47.1082 76.2225Q47.2863 76.2701 47.4274 76.3654Q47.4592 76.3865 47.4592 76.4253Q47.4592 76.4571 47.4362 76.4765Q47.4133 76.4959 47.3921 76.4959Q47.3745 76.4959 47.3463 76.4818Q47.0499 76.316 46.7324 76.316Q46.4079 76.316 46.1539 76.4606Q45.8999 76.6053 45.757 76.8628Q45.6141 77.1203 45.6141 77.4449Q45.6141 77.7694 45.757 78.0269Q45.8999 78.2845 46.1539 78.4291Q46.4079 78.5738 46.7324 78.5738Q46.8947 78.5738 47.0623 78.5226Q47.2299 78.4714 47.3674 78.3868V77.6036H46.7324Q46.7042 77.6036 46.6831 77.5824Q46.6619 77.5613 46.6619 77.5331Q46.6619 77.5013 46.6831 77.4819Q46.7042 77.4625 46.7324 77.4625H47.438Q47.4698 77.4625 47.4892 77.4837Q47.5086 77.5048 47.5086 77.5331Z" />
    </g>
</svg>
