<?xml version="1.0" encoding="utf-8"?>
<svg xmlns="http://www.w3.org/2000/svg" width="60.96mm" height="128.50mm" viewBox="0 0 60.96 128.50">
    <defs>
        <linearGradient id="gradient_0" x1="50" y1="0" x2="0" y2="0" gradientUnits="userSpaceOnUse">
            <stop offset="0" style="stop-color:#906be8;stop-opacity:1;" />
            <stop offset="1" style="stop-color:#b242bd;stop-opacity:1;" />
        </linearGradient>
        <linearGradient id="gradient_1" x1="60" y1="0" x2="0" y2="0" gradientUnits="userSpaceOnUse">
            <stop offset="0" style="stop-color:#6d96d6;stop-opacity:1;" />
            <stop offset="1" style="stop-color:#3372d4;stop-opacity:1;" />
        </linearGradient>
        <linearGradient id="gradient_2" x1="0" y1="0" x2="60" y2="0" gradientUnits="userSpaceOnUse">
            <stop offset="0" style="stop-color:#986de4;stop-opacity:1;" />
            <stop offset="1" style="stop-color:#4373e6;stop-opacity:1;" />
        </linearGradient>
        <linearGradient id="gradient_3" x1="60" y1="0" x2="0" y2="0" gradientUnits="userSpaceOnUse">
            <stop offset="0" style="stop-color:#3d81a0;stop-opacity:1;" />
            <stop offset="1" style="stop-color:#26abbf;stop-opacity:1;" />
        </linearGradient>
    </defs>
    <g id="PanelLayer">
        <rect id="border_rect" width="60.96" height="128.5" x="0" y="0" style="display:inline;fill:#4f8df2;fill-opacity:1;fill-rule:nonzero;stroke:#5021d4;stroke-width:0.7;stroke-linecap:round;stroke-linejoin:round;stroke-dasharray:none;stroke-opacity:1;image-rendering:auto" />
        <path style="fill:url(#gradient_0);fill-opacity:1;stroke:#000000;stroke-width:0.1;stroke-linecap:round;stroke-linejoin:bevel;stroke-dasharray:none" d="M 4.50,22.50 L 26.50,22.50 L 34.50,33.00 L 26.50,43.50 L 4.50,43.50 z M 56.50,12.00 L 34.50,12.00 L 26.50,22.50 L 34.50,33.00 L 56.50,33.00 z " />
        <path style="fill:url(#gradient_1);fill-opacity:1;stroke:#000000;stroke-width:0.1;stroke-linecap:round;stroke-linejoin:bevel;stroke-dasharray:none" d="M 4.50,43.50 L 26.50,43.50 L 34.50,54.00 L 26.50,64.50 L 4.50,64.50 z M 56.50,33.00 L 34.50,33.00 L 26.50,43.50 L 34.50,54.00 L 56.50,54.00 z " />
        <path style="fill:url(#gradient_2);fill-opacity:1;stroke:#000000;stroke-width:0.1;stroke-linecap:round;stroke-linejoin:bevel;stroke-dasharray:none" d="M 4.50,64.50 L 26.50,64.50 L 34.50,75.00 L 26.50,85.50 L 4.50,85.50 z M 56.50,54.00 L 34.50,54.00 L 26.50,64.50 L 34.50,75.00 L 56.50,75.00 z " />
        <path style="fill:url(#gradient_3);fill-opacity:1;stroke:#000000;stroke-width:0.1;stroke-linecap:round;stroke-linejoin:bevel;stroke-dasharray:none" d="M 4.50,85.50 L 26.50,85.50 L 34.50,96.00 L 26.50,106.50 L 4.50,106.50 z M 56.50,75.00 L 34.50,75.00 L 26.50,85.50 L 34.50,96.00 L 56.50,96.00 z " />
        <g id="sapphire_insignia">
            <path id="brand_name" d="M15.5864 124.775Q15.5864 124.721 15.6485 124.674Q15.6873 124.636 15.7417 124.636Q15.8193 124.636 15.8658 124.698Q16.316 125.342 17.1231 125.342Q17.5345 125.342 17.8449 125.136Q18.1554 124.93 18.1554 124.581Q18.1554 124.224 17.8837 124.046Q17.6121 123.867 17.1387 123.751Q16.51 123.596 16.1491 123.336Q15.7882 123.076 15.7882 122.602Q15.7882 122.144 16.153 121.845Q16.5178 121.547 17.0921 121.547Q17.4103 121.547 17.7246 121.671Q18.0389 121.795 18.2951 122.067Q18.3494 122.113 18.3494 122.175Q18.3494 122.245 18.2951 122.299Q18.233 122.331 18.1942 122.331Q18.1398 122.331 18.101 122.284Q17.6975 121.842 17.061 121.842Q16.6497 121.842 16.3664 122.043Q16.0831 122.245 16.0831 122.602Q16.1064 122.936 16.3897 123.118Q16.673 123.301 17.224 123.44Q17.6198 123.541 17.8798 123.662Q18.1398 123.782 18.2951 123.999Q18.4503 124.216 18.4503 124.566Q18.4503 125.055 18.0739 125.338Q17.6975 125.621 17.0921 125.621Q16.2073 125.621 15.6408 124.923Q15.5864 124.837 15.5864 124.775ZM22.7965 121.826V125.388Q22.7965 125.45 22.7499 125.497Q22.7034 125.544 22.6413 125.544Q22.5714 125.544 22.5287 125.497Q22.4861 125.45 22.4861 125.388V124.69Q22.292 125.086 21.8885 125.353Q21.4849 125.621 20.9959 125.621Q20.4837 125.621 20.0724 125.353Q19.661 125.086 19.4282 124.616Q19.1953 124.147 19.1953 123.565Q19.1953 122.99 19.4321 122.528Q19.6688 122.067 20.0801 121.807Q20.4915 121.547 20.9959 121.547Q21.5004 121.547 21.904 121.811Q22.3076 122.074 22.4861 122.517V121.826Q22.4861 121.764 22.5287 121.717Q22.5714 121.671 22.6413 121.671Q22.7111 121.671 22.7538 121.717Q22.7965 121.764 22.7965 121.826ZM22.5171 123.565Q22.5171 123.091 22.3231 122.695Q22.129 122.299 21.7837 122.071Q21.4383 121.842 21.0114 121.842Q20.5846 121.842 20.2392 122.063Q19.8938 122.284 19.6998 122.676Q19.5058 123.068 19.5058 123.565Q19.5058 124.061 19.6998 124.465Q19.8938 124.868 20.2353 125.097Q20.5768 125.326 21.0114 125.326Q21.4383 125.326 21.7837 125.097Q22.129 124.868 22.3231 124.465Q22.5171 124.061 22.5171 123.565ZM27.686 123.603Q27.686 124.162 27.4493 124.616Q27.2126 125.07 26.8012 125.33Q26.3899 125.59 25.8854 125.59Q25.4198 125.59 25.0317 125.357Q24.6436 125.125 24.3953 124.698V126.941Q24.3953 127.003 24.3526 127.049Q24.3099 127.096 24.2401 127.096Q24.178 127.096 24.1314 127.049Q24.0848 127.003 24.0848 126.941V121.779Q24.0848 121.717 24.1275 121.671Q24.1702 121.624 24.2401 121.624Q24.3099 121.624 24.3526 121.671Q24.3953 121.717 24.3953 121.779V122.493Q24.6281 122.051 25.0162 121.838Q25.4042 121.624 25.8854 121.624Q26.3977 121.624 26.809 121.88Q27.2203 122.136 27.4532 122.587Q27.686 123.037 27.686 123.603ZM27.3756 123.603Q27.3756 123.122 27.1776 122.738Q26.9797 122.354 26.6383 122.136Q26.2968 121.919 25.8699 121.919Q25.4353 121.919 25.0899 122.133Q24.7445 122.346 24.5544 122.73Q24.3642 123.114 24.3642 123.603Q24.3642 124.092 24.5544 124.476Q24.7445 124.861 25.0899 125.078Q25.4353 125.295 25.8699 125.295Q26.2968 125.295 26.6383 125.078Q26.9797 124.861 27.1776 124.473Q27.3756 124.085 27.3756 123.603ZM32.3039 123.603Q32.3039 124.162 32.0671 124.616Q31.8304 125.07 31.4191 125.33Q31.0078 125.59 30.5033 125.59Q30.0376 125.59 29.6496 125.357Q29.2615 125.125 29.0132 124.698V126.941Q29.0132 127.003 28.9705 127.049Q28.9278 127.096 28.8579 127.096Q28.7958 127.096 28.7493 127.049Q28.7027 127.003 28.7027 126.941V121.779Q28.7027 121.717 28.7454 121.671Q28.7881 121.624 28.8579 121.624Q28.9278 121.624 28.9705 121.671Q29.0132 121.717 29.0132 121.779V122.493Q29.246 122.051 29.634 121.838Q30.0221 121.624 30.5033 121.624Q31.0155 121.624 31.4269 121.88Q31.8382 122.136 32.071 122.587Q32.3039 123.037 32.3039 123.603ZM31.9934 123.603Q31.9934 123.122 31.7955 122.738Q31.5976 122.354 31.2561 122.136Q30.9146 121.919 30.4878 121.919Q30.0531 121.919 29.7078 122.133Q29.3624 122.346 29.1723 122.73Q28.9821 123.114 28.9821 123.603Q28.9821 124.092 29.1723 124.476Q29.3624 124.861 29.7078 125.078Q30.0531 125.295 30.4878 125.295Q30.9146 125.295 31.2561 125.078Q31.5976 124.861 31.7955 124.473Q31.9934 124.085 31.9934 123.603ZM36.394 123.122V125.388Q36.394 125.45 36.3474 125.497Q36.3008 125.544 36.2387 125.544Q36.1689 125.544 36.1262 125.497Q36.0835 125.45 36.0835 125.388V123.122Q36.0835 122.587 35.8196 122.253Q35.5558 121.919 35.0125 121.919Q34.6788 121.919 34.3567 122.082Q34.0346 122.245 33.8328 122.525Q33.631 122.804 33.631 123.122V125.388Q33.631 125.45 33.5844 125.497Q33.5379 125.544 33.4758 125.544Q33.4059 125.544 33.3633 125.497Q33.3206 125.45 33.3206 125.388V119.956Q33.3206 119.894 33.3671 119.847Q33.4137 119.8 33.4758 119.8Q33.5456 119.8 33.5883 119.847Q33.631 119.894 33.631 119.956V122.408Q33.8483 122.067 34.2325 121.845Q34.6167 121.624 35.0125 121.624Q35.6799 121.624 36.037 122.047Q36.394 122.47 36.394 123.122ZM37.8375 125.544Q37.7677 125.544 37.725 125.497Q37.6823 125.45 37.6823 125.388V121.702Q37.6823 121.64 37.7289 121.593Q37.7754 121.547 37.8375 121.547Q37.9074 121.547 37.9501 121.593Q37.9928 121.64 37.9928 121.702V125.388Q37.9928 125.45 37.9462 125.497Q37.8996 125.544 37.8375 125.544ZM37.5659 120.771V120.708Q37.5659 120.6 37.6435 120.53Q37.7211 120.46 37.8453 120.46Q37.954 120.46 38.0277 120.53Q38.1014 120.6 38.1014 120.708V120.771Q38.1014 120.879 38.0277 120.949Q37.954 121.019 37.8375 121.019Q37.7134 121.019 37.6396 120.949Q37.5659 120.879 37.5659 120.771ZM41.3921 121.725Q41.3921 121.795 41.3533 121.842Q41.3145 121.888 41.2524 121.888Q41.2291 121.888 41.1399 121.853Q41.0506 121.818 40.9497 121.818Q40.6315 121.818 40.3133 122.071Q39.9951 122.323 39.7933 122.707Q39.5915 123.091 39.5915 123.448V125.388Q39.5915 125.45 39.545 125.497Q39.4984 125.544 39.4363 125.544Q39.3665 125.544 39.3238 125.497Q39.2811 125.45 39.2811 125.388V121.826Q39.2811 121.764 39.3277 121.717Q39.3742 121.671 39.4363 121.671Q39.5062 121.671 39.5489 121.717Q39.5915 121.764 39.5915 121.826V122.649Q39.7701 122.175 40.1465 121.865Q40.5229 121.554 41.0351 121.547Q41.3921 121.547 41.3921 121.725ZM45.3348 124.752Q45.3348 124.806 45.3037 124.845Q45.0476 125.187 44.6673 125.404Q44.287 125.621 43.8524 125.621Q43.2703 125.621 42.8202 125.373Q42.37 125.125 42.1178 124.667Q41.8656 124.209 41.8656 123.603Q41.8656 122.982 42.11 122.513Q42.3545 122.043 42.7581 121.795Q43.1617 121.547 43.6196 121.547Q44.0775 121.547 44.4694 121.745Q44.8613 121.942 45.1097 122.338Q45.3581 122.734 45.3736 123.316Q45.3736 123.378 45.327 123.429Q45.2804 123.479 45.2184 123.479H42.1682V123.58Q42.1682 124.061 42.3623 124.461Q42.5563 124.861 42.9366 125.093Q43.3169 125.326 43.8524 125.326Q44.2249 125.326 44.5548 125.144Q44.8846 124.962 45.0709 124.682Q45.1252 124.612 45.2028 124.612Q45.2572 124.612 45.296 124.655Q45.3348 124.698 45.3348 124.752ZM42.1993 123.184H45.0554V123.114Q45.0166 122.719 44.8031 122.435Q44.5897 122.152 44.2754 122.005Q43.9611 121.857 43.6196 121.857Q43.3324 121.857 43.0336 122.008Q42.7348 122.16 42.5058 122.459Q42.2769 122.757 42.1993 123.184Z" style="fill:#000000;stroke:#000000;stroke-width:0.265;stroke-linecap:square" />
            <g id="gemstones" style="stroke-width:0;fill:#0000ff;stroke:#2e2114;stroke-linecap:square;stroke-opacity:1">
                <path d="m 12.930,122.900 q 0,0.34175 -0.242534,0.63114 -0.0441,0.0524 -0.20395,0.21497 -0.187413,0.19017 -0.785481,0.81304 l -1.444183,1.51309 q -0.01929,0.003 -0.0441,0.003 -0.02756,0 -0.04134,-0.003 -0.08268,-0.0827 -0.647678,-0.67524 -0.468532,-0.47404 -0.934309,-0.94809 -0.556727,-0.56775 -0.89848,-0.98116 -0.132292,-0.15985 -0.168121,-0.29766 -0.02756,-0.10197 -0.02756,-0.34175 0,-0.11024 0.07166,-0.28939 0.06614,-0.16536 0.140559,-0.26458 0.118512,-0.1571 0.42168,-0.42444 0.283875,-0.2508 0.474044,-0.37482 0.272852,-0.17915 0.818555,-0.36656 0.09646,-0.0331 0.110243,-0.0331 h 1.3615 q 0.01102,0 0.104731,0.0331 0.567751,0.20119 0.824066,0.36656 0.165365,0.10473 0.474045,0.37758 0.322461,0.28388 0.421679,0.42168 0.214974,0.2949 0.214974,0.62563 z m -0.16812,-0.27285 q -0.03307,-0.10749 -0.135048,-0.30868 -0.07166,-0.0937 -0.209462,-0.19844 -0.118511,-0.0854 -0.234266,-0.17088 0.245291,0.3638 0.578776,0.678 z m -0.573264,-0.52366 -0.358289,-0.44648 v 0.41065 z m 0.636653,0.75792 q 0,-0.0524 -0.341753,-0.39412 l 0.228754,0.7028 h 0.04961 q 0.06339,-0.21773 0.06339,-0.30868 z m -0.23151,0.27285 -0.316948,-0.90399 -0.410655,-0.0634 -0.159853,0.61461 z m 0.0028,0.15434 -0.771701,-0.3197 h -0.03032 l 0.344509,0.60634 q 0.07993,-0.003 0.234266,-0.0469 0.02481,-0.0138 0.223242,-0.23978 z m -0.857139,-1.05006 -0.719335,0.28388 0.60358,0.22599 z m 0,-0.16261 v -0.51538 l -0.917773,-0.38034 h -1.223697 l -0.917772,0.38034 v 0.51538 l 0.89848,0.4079 h 1.254014 z m 0.573264,1.53789 q -0.0689,0.011 -0.198438,0.0524 -0.08544,0.0551 -0.259071,0.16261 0.01929,0 0.06339,0.003 0.04134,0 0.06339,0 0.118511,0 0.190169,-0.0689 0.07166,-0.0717 0.14056,-0.14883 z m -0.289388,0.003 -0.347266,-0.63114 -0.363801,0.87918 q 0.0248,-0.0165 0.06615,-0.0165 0.03032,0 0.08544,0.011 0.05788,0.008 0.08819,0.008 0.04961,0 0.228754,-0.10749 0.228754,-0.1378 0.242535,-0.14331 z m -0.440972,-0.74139 -0.683507,-0.2756 -0.592556,0.54845 0.903993,0.65595 z m -0.854383,-0.28387 h -1.036284 l 0.523654,0.47404 z m 0.749652,1.36701 q -0.228754,-0.0303 -0.228754,-0.0303 -0.03583,0 -0.272851,0.0937 l 0.190169,0.0193 q 0.01102,0 0.311436,-0.0827 z m -0.388606,-0.0882 -0.843359,-0.61185 v 0.67524 l 0.471289,0.0827 z m 0.854383,0.0496 q -0.09922,0.006 -0.2949,0.0386 -0.01102,0.003 -0.377583,0.17639 -0.129535,0.34726 -0.380338,1.0418 z m -2.543857,-1.39733 -0.719335,-0.28388 0.124023,0.51814 z m -0.802018,-0.45476 v -0.41065 l -0.366557,0.44648 z m 1.515841,1.07212 -0.592556,-0.54019 -0.683506,0.2756 0.380338,0.9288 z m 0.369314,0.94257 q -0.03307,-0.003 -0.135047,-0.0248 -0.08544,-0.0165 -0.137804,-0.0165 -0.05237,0 -0.137804,0.0165 -0.101975,0.0221 -0.135047,0.0248 0.264583,0.0469 0.272851,0.0469 0.0083,0 0.272851,-0.0469 z m -0.30868,-0.1378 v -0.68626 l -0.843359,0.61185 0.37207,0.14607 z m 0.950846,0.20671 -0.396875,-0.0551 -0.479557,0.14056 v 1.27607 z m -2.888366,-2.20211 q -0.118512,0.0854 -0.234267,0.17364 -0.146072,0.10748 -0.209461,0.19568 -0.0441,0.10473 -0.135048,0.31419 0.369314,-0.3638 0.578776,-0.68351 z m 0.476801,0.83234 -0.159853,-0.61461 -0.410655,0.0634 -0.316948,0.90399 z m 0.394118,1.08313 -0.363802,-0.87918 -0.355533,0.63114 q 0.43546,0.2508 0.451996,0.2508 0.09095,0 0.267339,-0.003 z m 1.821765,0.82958 q -0.132291,0.21222 -0.405143,0.6339 -0.07717,0.10749 -0.220486,0.32797 -0.05788,0.10473 -0.05512,0.226 0.159852,-0.15158 0.432704,-0.49609 0.07717,-0.12954 0.140559,-0.339 0.05512,-0.17639 0.107486,-0.35278 z m -1.493792,-0.66146 -0.270095,-0.0882 -0.0083,-0.011 q -0.02481,0 -0.107487,0.011 -0.06615,0.006 -0.107487,0.006 0.272851,0.091 0.311436,0.091 0.02481,0 0.181901,-0.008 z m -0.810286,-1.06384 h -0.03032 l -0.7717,0.3197 q 0.06615,0.0965 0.223242,0.23978 0.07717,0.0138 0.234266,0.0469 z m -0.689018,-0.50161 q -0.341754,0.34727 -0.341754,0.39412 0,0.0799 0.06339,0.30868 h 0.04961 z m 2.235176,3.04547 v -1.27607 l -0.479557,-0.14056 -0.396875,0.0551 z m -1.606791,-1.6757 q -0.256315,-0.1819 -0.457509,-0.22324 0.06615,0.0772 0.20395,0.22324 z m 1.609547,2.04501 v -0.1378 l -0.683507,-1.05007 q 0.05237,0.17639 0.107487,0.35278 0.06339,0.20946 0.14056,0.339 0.0689,0.11851 0.20395,0.25907 0.115755,0.11851 0.23151,0.23702 z m -0.644921,-0.70555 q -0.115756,-0.32798 -0.380339,-1.0418 -0.135047,-0.0662 -0.272851,-0.12954 -0.159852,-0.0716 -0.289388,-0.0716 -0.05237,0 -0.110243,-0.0138 z" />
                <path d="m 53.460,122.900 q 0,0.34175 -0.242534,0.63114 -0.0441,0.0524 -0.20395,0.21497 -0.187413,0.19017 -0.785481,0.81304 l -1.444183,1.51309 q -0.01929,0.003 -0.0441,0.003 -0.02756,0 -0.04134,-0.003 -0.08268,-0.0827 -0.647678,-0.67524 -0.468532,-0.47404 -0.934309,-0.94809 -0.556727,-0.56775 -0.89848,-0.98116 -0.132292,-0.15985 -0.168121,-0.29766 -0.02756,-0.10197 -0.02756,-0.34175 0,-0.11024 0.07166,-0.28939 0.06614,-0.16536 0.140559,-0.26458 0.118512,-0.1571 0.42168,-0.42444 0.283875,-0.2508 0.474044,-0.37482 0.272852,-0.17915 0.818555,-0.36656 0.09646,-0.0331 0.110243,-0.0331 h 1.3615 q 0.01102,0 0.104731,0.0331 0.567751,0.20119 0.824066,0.36656 0.165365,0.10473 0.474045,0.37758 0.322461,0.28388 0.421679,0.42168 0.214974,0.2949 0.214974,0.62563 z m -0.16812,-0.27285 q -0.03307,-0.10749 -0.135048,-0.30868 -0.07166,-0.0937 -0.209462,-0.19844 -0.118511,-0.0854 -0.234266,-0.17088 0.245291,0.3638 0.578776,0.678 z m -0.573264,-0.52366 -0.358289,-0.44648 v 0.41065 z m 0.636653,0.75792 q 0,-0.0524 -0.341753,-0.39412 l 0.228754,0.7028 h 0.04961 q 0.06339,-0.21773 0.06339,-0.30868 z m -0.23151,0.27285 -0.316948,-0.90399 -0.410655,-0.0634 -0.159853,0.61461 z m 0.0028,0.15434 -0.771701,-0.3197 h -0.03032 l 0.344509,0.60634 q 0.07993,-0.003 0.234266,-0.0469 0.02481,-0.0138 0.223242,-0.23978 z m -0.857139,-1.05006 -0.719335,0.28388 0.60358,0.22599 z m 0,-0.16261 v -0.51538 l -0.917773,-0.38034 h -1.223697 l -0.917772,0.38034 v 0.51538 l 0.89848,0.4079 h 1.254014 z m 0.573264,1.53789 q -0.0689,0.011 -0.198438,0.0524 -0.08544,0.0551 -0.259071,0.16261 0.01929,0 0.06339,0.003 0.04134,0 0.06339,0 0.118511,0 0.190169,-0.0689 0.07166,-0.0717 0.14056,-0.14883 z m -0.289388,0.003 -0.347266,-0.63114 -0.363801,0.87918 q 0.0248,-0.0165 0.06615,-0.0165 0.03032,0 0.08544,0.011 0.05788,0.008 0.08819,0.008 0.04961,0 0.228754,-0.10749 0.228754,-0.1378 0.242535,-0.14331 z m -0.440972,-0.74139 -0.683507,-0.2756 -0.592556,0.54845 0.903993,0.65595 z m -0.854383,-0.28387 h -1.036284 l 0.523654,0.47404 z m 0.749652,1.36701 q -0.228754,-0.0303 -0.228754,-0.0303 -0.03583,0 -0.272851,0.0937 l 0.190169,0.0193 q 0.01102,0 0.311436,-0.0827 z m -0.388606,-0.0882 -0.843359,-0.61185 v 0.67524 l 0.471289,0.0827 z m 0.854383,0.0496 q -0.09922,0.006 -0.2949,0.0386 -0.01102,0.003 -0.377583,0.17639 -0.129535,0.34726 -0.380338,1.0418 z m -2.543857,-1.39733 -0.719335,-0.28388 0.124023,0.51814 z m -0.802018,-0.45476 v -0.41065 l -0.366557,0.44648 z m 1.515841,1.07212 -0.592556,-0.54019 -0.683506,0.2756 0.380338,0.9288 z m 0.369314,0.94257 q -0.03307,-0.003 -0.135047,-0.0248 -0.08544,-0.0165 -0.137804,-0.0165 -0.05237,0 -0.137804,0.0165 -0.101975,0.0221 -0.135047,0.0248 0.264583,0.0469 0.272851,0.0469 0.0083,0 0.272851,-0.0469 z m -0.30868,-0.1378 v -0.68626 l -0.843359,0.61185 0.37207,0.14607 z m 0.950846,0.20671 -0.396875,-0.0551 -0.479557,0.14056 v 1.27607 z m -2.888366,-2.20211 q -0.118512,0.0854 -0.234267,0.17364 -0.146072,0.10748 -0.209461,0.19568 -0.0441,0.10473 -0.135048,0.31419 0.369314,-0.3638 0.578776,-0.68351 z m 0.476801,0.83234 -0.159853,-0.61461 -0.410655,0.0634 -0.316948,0.90399 z m 0.394118,1.08313 -0.363802,-0.87918 -0.355533,0.63114 q 0.43546,0.2508 0.451996,0.2508 0.09095,0 0.267339,-0.003 z m 1.821765,0.82958 q -0.132291,0.21222 -0.405143,0.6339 -0.07717,0.10749 -0.220486,0.32797 -0.05788,0.10473 -0.05512,0.226 0.159852,-0.15158 0.432704,-0.49609 0.07717,-0.12954 0.140559,-0.339 0.05512,-0.17639 0.107486,-0.35278 z m -1.493792,-0.66146 -0.270095,-0.0882 -0.0083,-0.011 q -0.02481,0 -0.107487,0.011 -0.06615,0.006 -0.107487,0.006 0.272851,0.091 0.311436,0.091 0.02481,0 0.181901,-0.008 z m -0.810286,-1.06384 h -0.03032 l -0.7717,0.3197 q 0.06615,0.0965 0.223242,0.23978 0.07717,0.0138 0.234266,0.0469 z m -0.689018,-0.50161 q -0.341754,0.34727 -0.341754,0.39412 0,0.0799 0.06339,0.30868 h 0.04961 z m 2.235176,3.04547 v -1.27607 l -0.479557,-0.14056 -0.396875,0.0551 z m -1.606791,-1.6757 q -0.256315,-0.1819 -0.457509,-0.22324 0.06615,0.0772 0.20395,0.22324 z m 1.609547,2.04501 v -0.1378 l -0.683507,-1.05007 q 0.05237,0.17639 0.107487,0.35278 0.06339,0.20946 0.14056,0.339 0.0689,0.11851 0.20395,0.25907 0.115755,0.11851 0.23151,0.23702 z m -0.644921,-0.70555 q -0.115756,-0.32798 -0.380339,-1.0418 -0.135047,-0.0662 -0.272851,-0.12954 -0.159852,-0.0716 -0.289388,-0.0716 -0.05237,0 -0.110243,-0.0138 z" />
            </g>
        </g>
        <path id="model_name" d="M17.1451 4.39488Q17.1451 4.45697 17.1024 4.49966Q17.0597 4.54234 16.9977 4.54234H16.1439V7.3053Q16.1439 7.64679 16.2642 7.75932Q16.3845 7.87186 16.5708 7.87186Q16.6018 7.87186 16.66 7.85634Q16.7183 7.84081 16.7571 7.84081Q16.8114 7.84081 16.8502 7.8835Q16.889 7.92619 16.889 7.98051Q16.889 8.05036 16.7959 8.10081Q16.7027 8.15126 16.5786 8.15126Q16.3845 8.15126 16.2526 8.12409Q16.1207 8.09693 15.9771 7.91454Q15.8335 7.73216 15.8335 7.32082V4.54234H15.1971Q15.1428 4.54234 15.0962 4.49578Q15.0496 4.44921 15.0496 4.39488Q15.0496 4.33279 15.0923 4.29011Q15.135 4.24742 15.1971 4.24742H15.8335V3.26176Q15.8335 3.19967 15.8801 3.1531Q15.9266 3.10654 15.9887 3.10654Q16.0586 3.10654 16.1012 3.1531Q16.1439 3.19967 16.1439 3.26176V4.24742H16.9977Q17.052 4.24742 17.0986 4.29399Q17.1451 4.34055 17.1451 4.39488ZM21.0878 4.43369V6.69217Q21.0878 7.42948 20.6725 7.81365Q20.2573 8.19782 19.5433 8.19782Q18.8293 8.19782 18.4179 7.81365Q18.0066 7.42948 18.0066 6.69217V4.43369Q18.0066 4.3716 18.0532 4.32503Q18.0997 4.27846 18.1618 4.27846Q18.2317 4.27846 18.2744 4.32503Q18.317 4.3716 18.317 4.43369V6.69217Q18.317 7.27425 18.643 7.58858Q18.969 7.9029 19.5433 7.9029Q20.1254 7.9029 20.4514 7.58858Q20.7773 7.27425 20.7773 6.69217V4.43369Q20.7773 4.3716 20.82 4.32503Q20.8627 4.27846 20.9325 4.27846Q21.0024 4.27846 21.0451 4.32503Q21.0878 4.3716 21.0878 4.43369ZM25.9773 6.17217Q25.9773 6.7465 25.7405 7.21604Q25.5038 7.68559 25.0925 7.95723Q24.6812 8.22887 24.1767 8.22887Q23.7188 8.22887 23.3307 7.98439Q22.9427 7.73992 22.6866 7.3053V7.99604Q22.6866 8.05812 22.6439 8.10469Q22.6012 8.15126 22.5313 8.15126Q22.4692 8.15126 22.4227 8.10469Q22.3761 8.05812 22.3761 7.99604V2.57102Q22.3761 2.50893 22.4188 2.46236Q22.4615 2.4158 22.5313 2.4158Q22.6012 2.4158 22.6439 2.46236Q22.6866 2.50893 22.6866 2.57102V5.10114Q22.9194 4.64324 23.3113 4.39876Q23.7033 4.15429 24.1767 4.15429Q24.6889 4.15429 25.1003 4.41428Q25.5116 4.67428 25.7444 5.13607Q25.9773 5.59785 25.9773 6.17217ZM25.6668 6.17217Q25.6668 5.67546 25.4689 5.28353Q25.271 4.89159 24.9295 4.6704Q24.588 4.44921 24.1612 4.44921Q23.7265 4.44921 23.3812 4.6704Q23.0358 4.89159 22.8457 5.28353Q22.6555 5.67546 22.6555 6.17217Q22.6555 6.66889 22.8495 7.07246Q23.0436 7.47604 23.3851 7.70499Q23.7265 7.93395 24.1612 7.93395Q24.588 7.93395 24.9295 7.70111Q25.271 7.46828 25.4689 7.06858Q25.6668 6.66889 25.6668 6.17217ZM30.1915 7.35962Q30.1915 7.41395 30.1605 7.45276Q29.9044 7.79425 29.5241 8.01156Q29.1438 8.22887 28.7092 8.22887Q28.1271 8.22887 27.6769 7.98051Q27.2268 7.73216 26.9746 7.27425Q26.7223 6.81635 26.7223 6.21098Q26.7223 5.59009 26.9668 5.12054Q27.2113 4.651 27.6149 4.40264Q28.0184 4.15429 28.4763 4.15429Q28.9342 4.15429 29.3262 4.35219Q29.7181 4.5501 29.9665 4.94592Q30.2148 5.34174 30.2304 5.92382Q30.2304 5.98591 30.1838 6.03636Q30.1372 6.0868 30.0751 6.0868H27.025V6.1877Q27.025 6.66889 27.219 7.06858Q27.4131 7.46828 27.7934 7.70111Q28.1737 7.93395 28.7092 7.93395Q29.0817 7.93395 29.4116 7.75156Q29.7414 7.56917 29.9277 7.28977Q29.982 7.21992 30.0596 7.21992Q30.1139 7.21992 30.1527 7.26261Q30.1915 7.3053 30.1915 7.35962ZM27.0561 5.79188H29.9121V5.72203Q29.8733 5.32621 29.6599 5.04293Q29.4465 4.75965 29.1322 4.61219Q28.8178 4.46473 28.4763 4.46473Q28.1892 4.46473 27.8904 4.61607Q27.5916 4.76741 27.3626 5.06622Q27.1337 5.36502 27.0561 5.79188ZM36.4237 4.43369V6.69217Q36.4237 7.42948 36.0085 7.81365Q35.5933 8.19782 34.8793 8.19782Q34.1652 8.19782 33.7539 7.81365Q33.3426 7.42948 33.3426 6.69217V4.43369Q33.3426 4.3716 33.3891 4.32503Q33.4357 4.27846 33.4978 4.27846Q33.5676 4.27846 33.6103 4.32503Q33.653 4.3716 33.653 4.43369V6.69217Q33.653 7.27425 33.979 7.58858Q34.3049 7.9029 34.8793 7.9029Q35.4613 7.9029 35.7873 7.58858Q36.1133 7.27425 36.1133 6.69217V4.43369Q36.1133 4.3716 36.156 4.32503Q36.1986 4.27846 36.2685 4.27846Q36.3383 4.27846 36.381 4.32503Q36.4237 4.3716 36.4237 4.43369ZM40.8631 5.62114V7.99604Q40.8631 8.05812 40.8165 8.10469Q40.7699 8.15126 40.7079 8.15126Q40.638 8.15126 40.5953 8.10469Q40.5526 8.05812 40.5526 7.99604V5.65218Q40.5526 5.12443 40.2771 4.78682Q40.0016 4.44921 39.4428 4.44921Q39.1013 4.44921 38.7715 4.61219Q38.4416 4.77517 38.2321 5.05457Q38.0225 5.33397 38.0225 5.65218V7.99604Q38.0225 8.05812 37.9759 8.10469Q37.9294 8.15126 37.8673 8.15126Q37.7974 8.15126 37.7547 8.10469Q37.7121 8.05812 37.7121 7.99604V4.43369Q37.7121 4.3716 37.7586 4.32503Q37.8052 4.27846 37.8673 4.27846Q37.9371 4.27846 37.9798 4.32503Q38.0225 4.3716 38.0225 4.43369V4.95368Q38.2476 4.60443 38.655 4.37936Q39.0625 4.15429 39.4738 4.15429Q40.1646 4.15429 40.5138 4.56174Q40.8631 4.9692 40.8631 5.62114ZM42.3066 8.15126Q42.2368 8.15126 42.1941 8.10469Q42.1514 8.05812 42.1514 7.99604V4.30951Q42.1514 4.24742 42.198 4.20085Q42.2446 4.15429 42.3066 4.15429Q42.3765 4.15429 42.4192 4.20085Q42.4619 4.24742 42.4619 4.30951V7.99604Q42.4619 8.05812 42.4153 8.10469Q42.3687 8.15126 42.3066 8.15126ZM42.035 3.37818V3.31609Q42.035 3.20743 42.1126 3.13758Q42.1902 3.06773 42.3144 3.06773Q42.4231 3.06773 42.4968 3.13758Q42.5705 3.20743 42.5705 3.31609V3.37818Q42.5705 3.48683 42.4968 3.55668Q42.4231 3.62653 42.3066 3.62653Q42.1825 3.62653 42.1087 3.55668Q42.035 3.48683 42.035 3.37818ZM45.3412 4.39488Q45.3412 4.45697 45.2985 4.49966Q45.2559 4.54234 45.1938 4.54234H44.3401V7.3053Q44.3401 7.64679 44.4603 7.75932Q44.5806 7.87186 44.7669 7.87186Q44.798 7.87186 44.8562 7.85634Q44.9144 7.84081 44.9532 7.84081Q45.0075 7.84081 45.0463 7.8835Q45.0851 7.92619 45.0851 7.98051Q45.0851 8.05036 44.992 8.10081Q44.8989 8.15126 44.7747 8.15126Q44.5806 8.15126 44.4487 8.12409Q44.3168 8.09693 44.1732 7.91454Q44.0296 7.73216 44.0296 7.32082V4.54234H43.3932Q43.3389 4.54234 43.2923 4.49578Q43.2457 4.44921 43.2457 4.39488Q43.2457 4.33279 43.2884 4.29011Q43.3311 4.24742 43.3932 4.24742H44.0296V3.26176Q44.0296 3.19967 44.0762 3.1531Q44.1227 3.10654 44.1848 3.10654Q44.2547 3.10654 44.2974 3.1531Q44.3401 3.19967 44.3401 3.26176V4.24742H45.1938Q45.2481 4.24742 45.2947 4.29399Q45.3412 4.34055 45.3412 4.39488Z" style="display:inline;stroke:#000000;stroke-width:0.35;stroke-linecap:round;stroke-linejoin:bevel" />
        <g id="control_labels" style="stroke:#000000;stroke-width:0.25;stroke-linecap:round;stroke-linejoin:bevel">
            <path id="airflow_label" d="M10.9296 26.7126Q10.9296 26.7443 10.9085 26.7619Q10.8873 26.7796 10.8556 26.7796Q10.8309 26.7796 10.8115 26.7672Q10.7921 26.7549 10.785 26.7337L10.4887 26.007L10.4922 26.0141H9.31039L9.02464 26.7337Q9.007 26.7796 8.96114 26.7796Q8.92939 26.7796 8.90999 26.7619Q8.89058 26.7443 8.88706 26.7196Q8.88353 26.7055 8.89058 26.6843L9.83956 24.3489Q9.85014 24.3207 9.86601 24.3119Q9.88189 24.3031 9.90658 24.3031Q9.9595 24.3031 9.97714 24.3489L10.9261 26.6843Q10.9296 26.6949 10.9296 26.7126ZM9.36683 25.8729H10.4357L9.896 24.543ZM11.48 26.7796Q11.4447 26.7796 11.4253 26.7584Q11.4059 26.7373 11.4059 26.7055V24.3842Q11.4059 24.3525 11.4271 24.3313Q11.4482 24.3101 11.48 24.3101Q11.5117 24.3101 11.5329 24.3313Q11.5541 24.3525 11.5541 24.3842V26.7055Q11.5505 26.7373 11.5294 26.7584Q11.5082 26.7796 11.48 26.7796ZM14.0552 26.7055Q14.0552 26.7373 14.0358 26.7567Q14.0164 26.7761 13.9882 26.7761Q13.9671 26.7761 13.9565 26.769Q13.8612 26.7161 13.8048 26.5908Q13.7483 26.4656 13.7483 26.1799Q13.7483 25.8906 13.5931 25.783Q13.4379 25.6754 13.2333 25.6754H12.4078V26.709Q12.4078 26.7373 12.3866 26.7584Q12.3654 26.7796 12.3337 26.7796Q12.3019 26.7796 12.2808 26.7584Q12.2596 26.7373 12.2596 26.709V24.3807Q12.2596 24.3525 12.2808 24.3313Q12.3019 24.3101 12.3302 24.3101H13.2615Q13.4661 24.3101 13.6249 24.393Q13.7836 24.4759 13.8718 24.6206Q13.96 24.7652 13.96 24.9487Q13.96 25.185 13.8348 25.3544Q13.7095 25.5237 13.5084 25.5837Q13.6778 25.6366 13.7871 25.7936Q13.8965 25.9506 13.8965 26.1799Q13.8965 26.4162 13.9265 26.5097Q13.9565 26.6032 14.0164 26.642Q14.0552 26.6667 14.0552 26.7055ZM13.2791 25.5343Q13.5014 25.5131 13.6566 25.3579Q13.8118 25.2027 13.8118 24.9522Q13.8118 24.7335 13.6566 24.5924Q13.5014 24.4513 13.2439 24.4513H12.4078V25.5343ZM16.0731 24.3807Q16.0731 24.4124 16.052 24.4318Q16.0308 24.4513 16.0026 24.4513H14.7432V25.4249H15.8438Q15.8721 25.4249 15.8932 25.4461Q15.9144 25.4672 15.9144 25.4955Q15.9144 25.5272 15.8932 25.5466Q15.8721 25.566 15.8438 25.566H14.7432V26.709Q14.7432 26.7373 14.7238 26.7584Q14.7044 26.7796 14.6726 26.7796Q14.6409 26.7796 14.6215 26.7584Q14.6021 26.7373 14.6021 26.709V24.3807Q14.6021 24.3525 14.6232 24.3313Q14.6444 24.3101 14.6726 24.3101H16.0026Q16.0308 24.3101 16.052 24.3313Q16.0731 24.3525 16.0731 24.3807ZM18.0381 26.709Q18.0381 26.7408 18.0169 26.7602Q17.9958 26.7796 17.9676 26.7796H16.6729Q16.6411 26.7796 16.6217 26.7584Q16.6023 26.7373 16.6023 26.709V24.3807Q16.6023 24.3525 16.6235 24.3313Q16.6446 24.3101 16.6764 24.3101Q16.7081 24.3101 16.7293 24.3313Q16.7505 24.3525 16.7505 24.3807V26.6385H17.9676Q17.9958 26.6385 18.0169 26.6596Q18.0381 26.6808 18.0381 26.709ZM19.4457 26.8149Q19.1035 26.8149 18.8354 26.6543Q18.5673 26.4938 18.4173 26.2046Q18.2674 25.9153 18.2674 25.5449Q18.2674 25.1744 18.4173 24.8852Q18.5673 24.5959 18.8354 24.4354Q19.1035 24.2749 19.4457 24.2749Q19.7879 24.2749 20.056 24.4354Q20.3241 24.5959 20.474 24.8852Q20.624 25.1744 20.624 25.5449Q20.624 25.9153 20.474 26.2046Q20.3241 26.4938 20.056 26.6543Q19.7879 26.8149 19.4457 26.8149ZM19.4457 24.416Q19.1458 24.416 18.9112 24.5571Q18.6766 24.6982 18.5461 24.9557Q18.4156 25.2133 18.4156 25.5449Q18.4156 25.8765 18.5461 26.134Q18.6766 26.3915 18.9112 26.5326Q19.1458 26.6738 19.4457 26.6738Q19.7456 26.6738 19.9802 26.5326Q20.2148 26.3915 20.3453 26.134Q20.4758 25.8765 20.4758 25.5449Q20.4758 25.2133 20.3453 24.9557Q20.2148 24.6982 19.9802 24.5571Q19.7456 24.416 19.4457 24.416ZM24.1129 24.3701 24.1059 24.4054 23.298 26.7337Q23.291 26.7549 23.2716 26.7672Q23.2522 26.7796 23.2345 26.7796Q23.1781 26.7796 23.164 26.7373L22.5184 25.1074L21.8728 26.7373Q21.8552 26.7796 21.7987 26.7796Q21.7776 26.7796 21.7599 26.7672Q21.7423 26.7549 21.7387 26.7337L20.9309 24.4054L20.9238 24.3736Q20.9238 24.3419 20.9485 24.3225Q20.9732 24.3031 21.0014 24.3031Q21.0226 24.3031 21.042 24.3154Q21.0614 24.3278 21.0685 24.3489L21.8164 26.5079L22.4514 24.9028Q22.469 24.8569 22.5184 24.8569Q22.5396 24.8569 22.559 24.8693Q22.5784 24.8816 22.5854 24.9028L23.2239 26.5115L23.9683 24.3489Q23.9859 24.3031 24.0389 24.3031Q24.0706 24.3031 24.0918 24.3207Q24.1129 24.3384 24.1129 24.3701Z" />
            <path id="width_label" d="M14.0764 45.3701 14.0694 45.4054 13.2615 47.7337Q13.2544 47.7549 13.235 47.7672Q13.2156 47.7796 13.198 47.7796Q13.1416 47.7796 13.1274 47.7372L12.4819 46.1074L11.8363 47.7372Q11.8186 47.7796 11.7622 47.7796Q11.741 47.7796 11.7234 47.7672Q11.7058 47.7549 11.7022 47.7337L10.8944 45.4054L10.8873 45.3736Q10.8873 45.3419 10.912 45.3225Q10.9367 45.3031 10.9649 45.3031Q10.9861 45.3031 11.0055 45.3154Q11.0249 45.3278 11.0319 45.3489L11.7798 47.5079L12.4148 45.9028Q12.4325 45.8569 12.4819 45.8569Q12.503 45.8569 12.5224 45.8693Q12.5418 45.8816 12.5489 45.9028L13.1874 47.5115L13.9318 45.3489Q13.9494 45.3031 14.0023 45.3031Q14.0341 45.3031 14.0553 45.3207Q14.0764 45.3384 14.0764 45.3701ZM14.6267 47.7796Q14.5915 47.7796 14.5721 47.7584Q14.5527 47.7372 14.5527 47.7055V45.3842Q14.5527 45.3525 14.5738 45.3313Q14.595 45.3101 14.6267 45.3101Q14.6585 45.3101 14.6797 45.3313Q14.7008 45.3525 14.7008 45.3842V47.7055Q14.6973 47.7372 14.6761 47.7584Q14.655 47.7796 14.6267 47.7796ZM17.4172 46.5449Q17.4172 46.8941 17.3061 47.1728Q17.195 47.4515 16.9657 47.6155Q16.7364 47.7796 16.3942 47.7796H15.4769Q15.4487 47.7796 15.4276 47.7584Q15.4064 47.7372 15.4064 47.709V45.3807Q15.4064 45.3525 15.4276 45.3313Q15.4487 45.3101 15.4769 45.3101H16.3942Q16.7328 45.3101 16.9639 45.4795Q17.195 45.6488 17.3061 45.9293Q17.4172 46.2097 17.4172 46.5449ZM17.2691 46.5449Q17.2691 46.245 17.172 45.9963Q17.075 45.7476 16.8722 45.5994Q16.6693 45.4512 16.3589 45.4512H15.5546V47.6385H16.3589Q16.8175 47.6385 17.0433 47.3368Q17.2691 47.0352 17.2691 46.5449ZM19.5727 45.3772Q19.5727 45.4089 19.5533 45.4266Q19.5339 45.4442 19.5021 45.4442H18.7154V47.709Q18.7154 47.7372 18.6943 47.7584Q18.6731 47.7796 18.6449 47.7796Q18.6131 47.7796 18.5937 47.7584Q18.5743 47.7372 18.5743 47.709V45.4442H17.7876Q17.7594 45.4442 17.7383 45.4248Q17.7171 45.4054 17.7171 45.3772Q17.7171 45.3489 17.7383 45.3295Q17.7594 45.3101 17.7876 45.3101H19.5021Q19.5304 45.3101 19.5515 45.3295Q19.5727 45.3489 19.5727 45.3772ZM21.8834 45.3842V47.7055Q21.8799 47.7372 21.8587 47.7584Q21.8375 47.7796 21.8093 47.7796Q21.774 47.7796 21.7546 47.7584Q21.7352 47.7372 21.7352 47.7055V46.5801H20.1971V47.7055Q20.1936 47.7372 20.1724 47.7584Q20.1513 47.7796 20.123 47.7796Q20.0877 47.7796 20.0683 47.7584Q20.0489 47.7372 20.0489 47.7055V45.3842Q20.0489 45.3525 20.0701 45.3313Q20.0913 45.3101 20.123 45.3101Q20.1548 45.3101 20.1759 45.3313Q20.1971 45.3525 20.1971 45.3842V46.439H21.7352V45.3842Q21.7352 45.3525 21.7564 45.3313Q21.7776 45.3101 21.8093 45.3101Q21.8411 45.3101 21.8622 45.3313Q21.8834 45.3525 21.8834 45.3842Z" />
            <path id="decay_label" d="M13.3162 67.5449Q13.3162 67.8941 13.2051 68.1728Q13.0939 68.4515 12.8646 68.6155Q12.6353 68.7796 12.2931 68.7796H11.3759Q11.3477 68.7796 11.3265 68.7584Q11.3053 68.7373 11.3053 68.709V66.3807Q11.3053 66.3525 11.3265 66.3313Q11.3477 66.3101 11.3759 66.3101H12.2931Q12.6318 66.3101 12.8629 66.4795Q13.0939 66.6488 13.2051 66.9293Q13.3162 67.2097 13.3162 67.5449ZM13.168 67.5449Q13.168 67.245 13.071 66.9963Q12.974 66.7476 12.7711 66.5994Q12.5683 66.4513 12.2578 66.4513H11.4535V68.6385H12.2578Q12.7165 68.6385 12.9422 68.3368Q13.168 68.0352 13.168 67.5449ZM15.3164 68.709Q15.3164 68.7408 15.2953 68.7602Q15.2741 68.7796 15.2459 68.7796H13.9159Q13.8877 68.7796 13.8665 68.7584Q13.8453 68.7373 13.8453 68.709V66.3807Q13.8453 66.3525 13.8665 66.3313Q13.8877 66.3101 13.9159 66.3101H15.2459Q15.2741 66.3101 15.2953 66.3313Q15.3164 66.3525 15.3164 66.3807Q15.3164 66.4124 15.2953 66.4318Q15.2741 66.4513 15.2459 66.4513H13.9935V67.4355H15.0871Q15.1153 67.4355 15.1365 67.4567Q15.1577 67.4778 15.1577 67.5061Q15.1577 67.5378 15.1365 67.5572Q15.1153 67.5766 15.0871 67.5766H13.9935V68.6385H15.2459Q15.2741 68.6385 15.2953 68.6596Q15.3164 68.6808 15.3164 68.709ZM17.7047 66.5712Q17.7047 66.5994 17.6906 66.6171Q17.6695 66.6453 17.6377 66.6453Q17.6236 66.6453 17.5954 66.6312Q17.2673 66.4089 16.9004 66.4089Q16.6041 66.4089 16.3554 66.5553Q16.1067 66.7017 15.962 66.961Q15.8174 67.2203 15.8174 67.5449Q15.8174 67.8694 15.962 68.1287Q16.1067 68.388 16.3554 68.5344Q16.6041 68.6808 16.9004 68.6808Q17.2708 68.6808 17.5918 68.4621Q17.6095 68.448 17.6342 68.448Q17.6695 68.448 17.6906 68.4762Q17.7047 68.4938 17.7047 68.5185Q17.7047 68.5538 17.6765 68.575Q17.5389 68.6737 17.322 68.7443Q17.105 68.8149 16.9004 68.8149Q16.5653 68.8149 16.283 68.6491Q16.0008 68.4832 15.835 68.1922Q15.6692 67.9012 15.6692 67.5449Q15.6692 67.1886 15.835 66.8975Q16.0008 66.6065 16.283 66.4407Q16.5653 66.2749 16.9004 66.2749Q17.1121 66.2749 17.3114 66.3384Q17.5107 66.4019 17.673 66.5148Q17.7047 66.5394 17.7047 66.5712ZM19.9943 68.7126Q19.9943 68.7443 19.9731 68.7619Q19.9519 68.7796 19.9202 68.7796Q19.8955 68.7796 19.8761 68.7672Q19.8567 68.7549 19.8496 68.7337L19.5533 68.007L19.5568 68.0141H18.375L18.0893 68.7337Q18.0716 68.7796 18.0258 68.7796Q17.994 68.7796 17.9746 68.7619Q17.9552 68.7443 17.9517 68.7196Q17.9482 68.7055 17.9552 68.6843L18.9042 66.3489Q18.9148 66.3207 18.9306 66.3119Q18.9465 66.3031 18.9712 66.3031Q19.0241 66.3031 19.0418 66.3489L19.9907 68.6843Q19.9943 68.6949 19.9943 68.7126ZM18.4315 67.8729H19.5004L18.9606 66.543ZM21.9628 66.4089 21.1584 67.5025V68.709Q21.1584 68.7373 21.1373 68.7584Q21.1161 68.7796 21.0843 68.7796Q21.0526 68.7796 21.0314 68.7584Q21.0103 68.7373 21.0103 68.709V67.5166L20.2024 66.4089Q20.1883 66.3913 20.1883 66.3631Q20.1883 66.3384 20.2112 66.3172Q20.2342 66.296 20.2624 66.296Q20.3012 66.296 20.3223 66.3278L21.0843 67.3685L21.8463 66.3278Q21.8675 66.296 21.9063 66.296Q21.9381 66.296 21.9575 66.319Q21.9769 66.3419 21.9769 66.3631Q21.9769 66.3807 21.9628 66.4089Z" />
            <path id="root_label" d="M13.7166 89.7055Q13.7166 89.7373 13.6972 89.7567Q13.6778 89.7761 13.6496 89.7761Q13.6284 89.7761 13.6178 89.769Q13.5226 89.7161 13.4661 89.5908Q13.4097 89.4656 13.4097 89.1799Q13.4097 88.8906 13.2544 88.783Q13.0992 88.6754 12.8946 88.6754H12.0691V89.709Q12.0691 89.7373 12.0479 89.7584Q12.0268 89.7796 11.995 89.7796Q11.9633 89.7796 11.9421 89.7584Q11.9209 89.7373 11.9209 89.709V87.3807Q11.9209 87.3525 11.9421 87.3313Q11.9633 87.3101 11.9915 87.3101H12.9228Q13.1274 87.3101 13.2862 87.393Q13.4449 87.4759 13.5331 87.6206Q13.6213 87.7652 13.6213 87.9487Q13.6213 88.185 13.4961 88.3544Q13.3709 88.5237 13.1698 88.5837Q13.3391 88.6366 13.4485 88.7936Q13.5578 88.9506 13.5578 89.1799Q13.5578 89.4162 13.5878 89.5097Q13.6178 89.6032 13.6778 89.642Q13.7166 89.6667 13.7166 89.7055ZM12.9405 88.5343Q13.1627 88.5131 13.3179 88.3579Q13.4732 88.2027 13.4732 87.9522Q13.4732 87.7335 13.3179 87.5924Q13.1627 87.4513 12.9052 87.4513H12.0691V88.5343ZM15.2653 89.8149Q14.9231 89.8149 14.655 89.6543Q14.3869 89.4938 14.2369 89.2046Q14.087 88.9153 14.087 88.5449Q14.087 88.1744 14.2369 87.8852Q14.3869 87.5959 14.655 87.4354Q14.9231 87.2749 15.2653 87.2749Q15.6075 87.2749 15.8756 87.4354Q16.1437 87.5959 16.2936 87.8852Q16.4436 88.1744 16.4436 88.5449Q16.4436 88.9153 16.2936 89.2046Q16.1437 89.4938 15.8756 89.6543Q15.6075 89.8149 15.2653 89.8149ZM15.2653 87.416Q14.9654 87.416 14.7308 87.5571Q14.4962 87.6982 14.3657 87.9557Q14.2352 88.2133 14.2352 88.5449Q14.2352 88.8765 14.3657 89.134Q14.4962 89.3915 14.7308 89.5326Q14.9654 89.6737 15.2653 89.6737Q15.5651 89.6737 15.7997 89.5326Q16.0343 89.3915 16.1649 89.134Q16.2954 88.8765 16.2954 88.5449Q16.2954 88.2133 16.1649 87.9557Q16.0343 87.6982 15.7997 87.5571Q15.5651 87.416 15.2653 87.416ZM17.9746 89.8149Q17.6324 89.8149 17.3643 89.6543Q17.0962 89.4938 16.9463 89.2046Q16.7963 88.9153 16.7963 88.5449Q16.7963 88.1744 16.9463 87.8852Q17.0962 87.5959 17.3643 87.4354Q17.6324 87.2749 17.9746 87.2749Q18.3168 87.2749 18.5849 87.4354Q18.853 87.5959 19.003 87.8852Q19.1529 88.1744 19.1529 88.5449Q19.1529 88.9153 19.003 89.2046Q18.853 89.4938 18.5849 89.6543Q18.3168 89.8149 17.9746 89.8149ZM17.9746 87.416Q17.6747 87.416 17.4402 87.5571Q17.2056 87.6982 17.075 87.9557Q16.9445 88.2133 16.9445 88.5449Q16.9445 88.8765 17.075 89.134Q17.2056 89.3915 17.4402 89.5326Q17.6747 89.6737 17.9746 89.6737Q18.2745 89.6737 18.5091 89.5326Q18.7437 89.3915 18.8742 89.134Q19.0047 88.8765 19.0047 88.5449Q19.0047 88.2133 18.8742 87.9557Q18.7437 87.6982 18.5091 87.5571Q18.2745 87.416 17.9746 87.416ZM21.3084 87.3772Q21.3084 87.4089 21.289 87.4266Q21.2696 87.4442 21.2378 87.4442H20.4511V89.709Q20.4511 89.7373 20.4299 89.7584Q20.4088 89.7796 20.3806 89.7796Q20.3488 89.7796 20.3294 89.7584Q20.31 89.7373 20.31 89.709V87.4442H19.5233Q19.4951 87.4442 19.4739 87.4248Q19.4527 87.4054 19.4527 87.3772Q19.4527 87.3489 19.4739 87.3295Q19.4951 87.3101 19.5233 87.3101H21.2378Q21.266 87.3101 21.2872 87.3295Q21.3084 87.3489 21.3084 87.3772Z" />
            <path id="vortex_label" d="M39.9245 13.8736Q39.9245 13.8878 39.9174 13.9089L38.9508 16.2337Q38.9296 16.2796 38.8838 16.2796Q38.8626 16.2796 38.8432 16.2672Q38.8238 16.2549 38.8167 16.2337L37.8572 13.9195Q37.8466 13.8983 37.8466 13.8772Q37.8466 13.8489 37.866 13.8295Q37.8854 13.8101 37.9136 13.8101Q37.9666 13.8101 37.9913 13.8666L38.8873 16.0221L39.7869 13.856Q39.8116 13.8101 39.8539 13.8101Q39.8857 13.8101 39.9051 13.8278Q39.9245 13.8454 39.9245 13.8736ZM41.4026 16.3149Q41.0604 16.3149 40.7923 16.1543Q40.5242 15.9938 40.3743 15.7046Q40.2243 15.4153 40.2243 15.0449Q40.2243 14.6744 40.3743 14.3852Q40.5242 14.0959 40.7923 13.9354Q41.0604 13.7749 41.4026 13.7749Q41.7448 13.7749 42.0129 13.9354Q42.281 14.0959 42.431 14.3852Q42.5809 14.6744 42.5809 15.0449Q42.5809 15.4153 42.431 15.7046Q42.281 15.9938 42.0129 16.1543Q41.7448 16.3149 41.4026 16.3149ZM41.4026 13.916Q41.1028 13.916 40.8682 14.0571Q40.6336 14.1982 40.503 14.4557Q40.3725 14.7133 40.3725 15.0449Q40.3725 15.3765 40.503 15.634Q40.6336 15.8915 40.8682 16.0326Q41.1028 16.1738 41.4026 16.1738Q41.7025 16.1738 41.9371 16.0326Q42.1717 15.8915 42.3022 15.634Q42.4327 15.3765 42.4327 15.0449Q42.4327 14.7133 42.3022 14.4557Q42.1717 14.1982 41.9371 14.0571Q41.7025 13.916 41.4026 13.916ZM44.9057 16.2055Q44.9057 16.2373 44.8863 16.2567Q44.8669 16.2761 44.8387 16.2761Q44.8175 16.2761 44.8069 16.269Q44.7117 16.2161 44.6552 16.0908Q44.5988 15.9656 44.5988 15.6799Q44.5988 15.3906 44.4436 15.283Q44.2883 15.1754 44.0837 15.1754H43.2582V16.209Q43.2582 16.2373 43.2371 16.2584Q43.2159 16.2796 43.1841 16.2796Q43.1524 16.2796 43.1312 16.2584Q43.1101 16.2373 43.1101 16.209V13.8807Q43.1101 13.8525 43.1312 13.8313Q43.1524 13.8101 43.1806 13.8101H44.1119Q44.3166 13.8101 44.4753 13.893Q44.6341 13.9759 44.7223 14.1206Q44.8104 14.2652 44.8104 14.4487Q44.8104 14.685 44.6852 14.8544Q44.56 15.0237 44.3589 15.0837Q44.5282 15.1366 44.6376 15.2936Q44.7469 15.4506 44.7469 15.6799Q44.7469 15.9162 44.7769 16.0097Q44.8069 16.1032 44.8669 16.142Q44.9057 16.1667 44.9057 16.2055ZM44.1296 15.0343Q44.3518 15.0131 44.5071 14.8579Q44.6623 14.7027 44.6623 14.4522Q44.6623 14.2335 44.5071 14.0924Q44.3518 13.9513 44.0943 13.9513H43.2582V15.0343ZM47.0788 13.8772Q47.0788 13.9089 47.0594 13.9266Q47.04 13.9442 47.0083 13.9442H46.2216V16.209Q46.2216 16.2373 46.2004 16.2584Q46.1792 16.2796 46.151 16.2796Q46.1193 16.2796 46.0998 16.2584Q46.0804 16.2373 46.0804 16.209V13.9442H45.2938Q45.2655 13.9442 45.2444 13.9248Q45.2232 13.9054 45.2232 13.8772Q45.2232 13.8489 45.2444 13.8295Q45.2655 13.8101 45.2938 13.8101H47.0083Q47.0365 13.8101 47.0576 13.8295Q47.0788 13.8489 47.0788 13.8772ZM49.0261 16.209Q49.0261 16.2408 49.005 16.2602Q48.9838 16.2796 48.9556 16.2796H47.6256Q47.5974 16.2796 47.5762 16.2584Q47.5551 16.2373 47.5551 16.209V13.8807Q47.5551 13.8525 47.5762 13.8313Q47.5974 13.8101 47.6256 13.8101H48.9556Q48.9838 13.8101 49.005 13.8313Q49.0261 13.8525 49.0261 13.8807Q49.0261 13.9124 49.005 13.9318Q48.9838 13.9513 48.9556 13.9513H47.7032V14.9355H48.7968Q48.8251 14.9355 48.8462 14.9567Q48.8674 14.9778 48.8674 15.0061Q48.8674 15.0378 48.8462 15.0572Q48.8251 15.0766 48.7968 15.0766H47.7032V16.1385H48.9556Q48.9838 16.1385 49.005 16.1596Q49.0261 16.1808 49.0261 16.209ZM51.1569 16.1773Q51.1746 16.202 51.1746 16.2196Q51.1746 16.2514 51.1534 16.2708Q51.1322 16.2902 51.1005 16.2902Q51.0617 16.2902 51.044 16.2619L50.2362 15.1613L49.4318 16.2619Q49.4142 16.2902 49.3789 16.2902Q49.3472 16.2902 49.3295 16.2708Q49.3119 16.2514 49.3119 16.2302Q49.3119 16.2126 49.3295 16.1843L50.1586 15.0519L49.3225 13.9124Q49.3084 13.8948 49.3084 13.8701Q49.3084 13.8384 49.3295 13.819Q49.3507 13.7996 49.3789 13.7996Q49.4213 13.7996 49.4389 13.8278L50.2468 14.932L51.0511 13.8243Q51.0723 13.796 51.104 13.796Q51.1358 13.796 51.1552 13.8119Q51.1746 13.8278 51.1746 13.8525Q51.1746 13.8772 51.1569 13.9019L50.3279 15.0449Z" />
            <path id="center_label" d="M40.0427 35.0712Q40.0427 35.0994 40.0285 35.1171Q40.0074 35.1453 39.9756 35.1453Q39.9615 35.1453 39.9333 35.1312Q39.6052 34.9089 39.2383 34.9089Q38.942 34.9089 38.6933 35.0553Q38.4446 35.2017 38.2999 35.461Q38.1553 35.7203 38.1553 36.0449Q38.1553 36.3694 38.2999 36.6287Q38.4446 36.888 38.6933 37.0344Q38.942 37.1808 39.2383 37.1808Q39.6087 37.1808 39.9298 36.9621Q39.9474 36.948 39.9721 36.948Q40.0074 36.948 40.0285 36.9762Q40.0427 36.9938 40.0427 37.0185Q40.0427 37.0538 40.0144 37.075Q39.8768 37.1737 39.6599 37.2443Q39.4429 37.3149 39.2383 37.3149Q38.9032 37.3149 38.621 37.1491Q38.3387 36.9832 38.1729 36.6922Q38.0071 36.4012 38.0071 36.0449Q38.0071 35.6886 38.1729 35.3975Q38.3387 35.1065 38.621 34.9407Q38.9032 34.7749 39.2383 34.7749Q39.45 34.7749 39.6493 34.8384Q39.8486 34.9019 40.0109 35.0147Q40.0427 35.0394 40.0427 35.0712ZM41.99 37.209Q41.99 37.2408 41.9688 37.2602Q41.9477 37.2796 41.9194 37.2796H40.5895Q40.5612 37.2796 40.5401 37.2584Q40.5189 37.2372 40.5189 37.209V34.8807Q40.5189 34.8525 40.5401 34.8313Q40.5612 34.8101 40.5895 34.8101H41.9194Q41.9477 34.8101 41.9688 34.8313Q41.99 34.8525 41.99 34.8807Q41.99 34.9124 41.9688 34.9318Q41.9477 34.9512 41.9194 34.9512H40.6671V35.9355H41.7607Q41.7889 35.9355 41.8101 35.9567Q41.8312 35.9778 41.8312 36.0061Q41.8312 36.0378 41.8101 36.0572Q41.7889 36.0766 41.7607 36.0766H40.6671V37.1385H41.9194Q41.9477 37.1385 41.9688 37.1596Q41.99 37.1808 41.99 37.209ZM44.3712 34.8772V37.202Q44.3712 37.2408 44.3501 37.2602Q44.3289 37.2796 44.2972 37.2796Q44.2619 37.2796 44.2407 37.2514L42.6532 35.0818V37.2196Q42.6532 37.2443 42.6338 37.2619Q42.6144 37.2796 42.5862 37.2796Q42.5544 37.2796 42.5368 37.2619Q42.5192 37.2443 42.5192 37.2196V34.8807Q42.5192 34.8454 42.5386 34.8278Q42.558 34.8101 42.5827 34.8101Q42.6144 34.8101 42.6356 34.8348L44.2372 37.0185V34.8772Q44.2372 34.8489 44.2566 34.8295Q44.276 34.8101 44.3042 34.8101Q44.336 34.8101 44.3536 34.8295Q44.3712 34.8489 44.3712 34.8772ZM46.7031 34.8772Q46.7031 34.9089 46.6837 34.9266Q46.6643 34.9442 46.6325 34.9442H45.8458V37.209Q45.8458 37.2372 45.8247 37.2584Q45.8035 37.2796 45.7753 37.2796Q45.7435 37.2796 45.7241 37.2584Q45.7047 37.2372 45.7047 37.209V34.9442H44.918Q44.8898 34.9442 44.8687 34.9248Q44.8475 34.9054 44.8475 34.8772Q44.8475 34.8489 44.8687 34.8295Q44.8898 34.8101 44.918 34.8101H46.6325Q46.6608 34.8101 46.6819 34.8295Q46.7031 34.8489 46.7031 34.8772ZM48.6504 37.209Q48.6504 37.2408 48.6293 37.2602Q48.6081 37.2796 48.5799 37.2796H47.2499Q47.2217 37.2796 47.2005 37.2584Q47.1793 37.2372 47.1793 37.209V34.8807Q47.1793 34.8525 47.2005 34.8313Q47.2217 34.8101 47.2499 34.8101H48.5799Q48.6081 34.8101 48.6293 34.8313Q48.6504 34.8525 48.6504 34.8807Q48.6504 34.9124 48.6293 34.9318Q48.6081 34.9512 48.5799 34.9512H47.3275V35.9355H48.4211Q48.4493 35.9355 48.4705 35.9567Q48.4917 35.9778 48.4917 36.0061Q48.4917 36.0378 48.4705 36.0572Q48.4493 36.0766 48.4211 36.0766H47.3275V37.1385H48.5799Q48.6081 37.1385 48.6293 37.1596Q48.6504 37.1808 48.6504 37.209ZM50.9752 37.2055Q50.9752 37.2372 50.9558 37.2567Q50.9364 37.2761 50.9082 37.2761Q50.887 37.2761 50.8765 37.269Q50.7812 37.2161 50.7248 37.0908Q50.6683 36.9656 50.6683 36.6799Q50.6683 36.3906 50.5131 36.283Q50.3579 36.1754 50.1533 36.1754H49.3278V37.209Q49.3278 37.2372 49.3066 37.2584Q49.2854 37.2796 49.2537 37.2796Q49.2219 37.2796 49.2008 37.2584Q49.1796 37.2372 49.1796 37.209V34.8807Q49.1796 34.8525 49.2008 34.8313Q49.2219 34.8101 49.2502 34.8101H50.1815Q50.3861 34.8101 50.5448 34.893Q50.7036 34.9759 50.7918 35.1206Q50.88 35.2652 50.88 35.4487Q50.88 35.685 50.7547 35.8544Q50.6295 36.0237 50.4284 36.0837Q50.5978 36.1366 50.7071 36.2936Q50.8165 36.4506 50.8165 36.6799Q50.8165 36.9162 50.8465 37.0097Q50.8765 37.1032 50.9364 37.142Q50.9752 37.1667 50.9752 37.2055ZM50.1991 36.0343Q50.4214 36.0131 50.5766 35.8579Q50.7318 35.7027 50.7318 35.4522Q50.7318 35.2335 50.5766 35.0924Q50.4214 34.9512 50.1638 34.9512H49.3278V36.0343Z" />
            <path id="angle_label" d="M41.0975 58.2126Q41.0975 58.2443 41.0763 58.2619Q41.0551 58.2796 41.0234 58.2796Q40.9987 58.2796 40.9793 58.2672Q40.9599 58.2549 40.9528 58.2337L40.6565 57.507L40.66 57.5141H39.4782L39.1925 58.2337Q39.1748 58.2796 39.129 58.2796Q39.0972 58.2796 39.0778 58.2619Q39.0584 58.2443 39.0549 58.2196Q39.0513 58.2055 39.0584 58.1843L40.0074 55.8489Q40.018 55.8207 40.0338 55.8119Q40.0497 55.8031 40.0744 55.8031Q40.1273 55.8031 40.145 55.8489L41.0939 58.1843Q41.0975 58.1949 41.0975 58.2126ZM39.5347 57.3729H40.6036L40.0638 56.043ZM43.4258 55.8772V58.202Q43.4258 58.2408 43.4046 58.2602Q43.3835 58.2796 43.3517 58.2796Q43.3164 58.2796 43.2953 58.2514L41.7078 56.0818V58.2196Q41.7078 58.2443 41.6884 58.2619Q41.669 58.2796 41.6407 58.2796Q41.609 58.2796 41.5913 58.2619Q41.5737 58.2443 41.5737 58.2196V55.8807Q41.5737 55.8454 41.5931 55.8278Q41.6125 55.8101 41.6372 55.8101Q41.669 55.8101 41.6901 55.8348L43.2917 58.0185V55.8772Q43.2917 55.8489 43.3111 55.8295Q43.3305 55.8101 43.3588 55.8101Q43.3905 55.8101 43.4082 55.8295Q43.4258 55.8489 43.4258 55.8772ZM45.9975 57.1331V58.0185Q45.9975 58.0609 45.9658 58.082Q45.8035 58.1914 45.6112 58.2531Q45.419 58.3149 45.2214 58.3149Q44.8581 58.3149 44.5706 58.1508Q44.283 57.9868 44.119 57.6975Q43.955 57.4082 43.955 57.0449Q43.955 56.6815 44.119 56.3922Q44.283 56.1029 44.5706 55.9389Q44.8581 55.7749 45.2214 55.7749Q45.419 55.7749 45.5971 55.8225Q45.7753 55.8701 45.9164 55.9654Q45.9482 55.9865 45.9482 56.0253Q45.9482 56.0571 45.9252 56.0765Q45.9023 56.0959 45.8811 56.0959Q45.8635 56.0959 45.8353 56.0818Q45.5389 55.916 45.2214 55.916Q44.8969 55.916 44.6429 56.0606Q44.3889 56.2052 44.246 56.4628Q44.1031 56.7203 44.1031 57.0449Q44.1031 57.3694 44.246 57.6269Q44.3889 57.8845 44.6429 58.0291Q44.8969 58.1737 45.2214 58.1737Q45.3837 58.1737 45.5513 58.1226Q45.7188 58.0714 45.8564 57.9868V57.2036H45.2214Q45.1932 57.2036 45.172 57.1824Q45.1509 57.1613 45.1509 57.1331Q45.1509 57.1013 45.172 57.0819Q45.1932 57.0625 45.2214 57.0625H45.927Q45.9587 57.0625 45.9781 57.0837Q45.9975 57.1048 45.9975 57.1331ZM48.0154 58.209Q48.0154 58.2408 47.9943 58.2602Q47.9731 58.2796 47.9449 58.2796H46.6502Q46.6184 58.2796 46.599 58.2584Q46.5796 58.2372 46.5796 58.209V55.8807Q46.5796 55.8525 46.6008 55.8313Q46.622 55.8101 46.6537 55.8101Q46.6855 55.8101 46.7066 55.8313Q46.7278 55.8525 46.7278 55.8807V58.1385H47.9449Q47.9731 58.1385 47.9943 58.1596Q48.0154 58.1808 48.0154 58.209ZM49.8922 58.209Q49.8922 58.2408 49.871 58.2602Q49.8499 58.2796 49.8217 58.2796H48.4917Q48.4635 58.2796 48.4423 58.2584Q48.4211 58.2372 48.4211 58.209V55.8807Q48.4211 55.8525 48.4423 55.8313Q48.4635 55.8101 48.4917 55.8101H49.8217Q49.8499 55.8101 49.871 55.8313Q49.8922 55.8525 49.8922 55.8807Q49.8922 55.9124 49.871 55.9318Q49.8499 55.9512 49.8217 55.9512H48.5693V56.9355H49.6629Q49.6911 56.9355 49.7123 56.9567Q49.7335 56.9778 49.7335 57.0061Q49.7335 57.0378 49.7123 57.0572Q49.6911 57.0766 49.6629 57.0766H48.5693V58.1385H49.8217Q49.8499 58.1385 49.871 58.1596Q49.8922 58.1808 49.8922 58.209Z" />
            <path id="spring_label" d="M38.5257 78.9444Q38.5045 78.9233 38.5045 78.8915Q38.5045 78.8633 38.5292 78.8368Q38.5539 78.8104 38.5822 78.8104Q38.6139 78.8104 38.6421 78.8421Q38.7797 79.0044 38.9684 79.0891Q39.1572 79.1737 39.3653 79.1737Q39.637 79.1737 39.8133 79.0432Q39.9897 78.9127 39.9897 78.6975Q39.9862 78.5282 39.898 78.4188Q39.8098 78.3094 39.6811 78.2442Q39.5523 78.1789 39.33 78.0978Q39.0866 78.0061 38.9508 77.9355Q38.815 77.8649 38.718 77.7344Q38.621 77.6039 38.621 77.3922Q38.621 77.2194 38.7162 77.0782Q38.8115 76.9371 38.9878 76.856Q39.1642 76.7749 39.3971 76.7749Q39.6052 76.7749 39.7922 76.8507Q39.9792 76.9266 40.0885 77.0641Q40.1238 77.1135 40.1238 77.1382Q40.1238 77.1664 40.0973 77.1894Q40.0709 77.2123 40.0391 77.2123Q40.0109 77.2123 39.9933 77.1911Q39.8945 77.0641 39.7393 76.9901Q39.584 76.916 39.3971 76.916Q39.129 76.916 38.9508 77.043Q38.7727 77.17 38.7727 77.3887Q38.7727 77.5404 38.8591 77.6462Q38.9455 77.7521 39.076 77.8173Q39.2066 77.8826 39.4006 77.9531Q39.6475 78.0413 39.7922 78.1154Q39.9368 78.1895 40.0391 78.3306Q40.1414 78.4717 40.1414 78.7046Q40.1414 78.8668 40.0462 79.0079Q39.9509 79.1491 39.7728 79.232Q39.5946 79.3149 39.3653 79.3149Q39.1043 79.3149 38.9102 79.2249Q38.7162 79.1349 38.5257 78.9444ZM42.2581 77.4839Q42.2581 77.6815 42.1752 77.842Q42.0923 78.0025 41.9406 78.0925Q41.7889 78.1824 41.5913 78.1824H40.8223V79.209Q40.8223 79.2373 40.7994 79.2584Q40.7764 79.2796 40.7482 79.2796Q40.7165 79.2796 40.6953 79.2584Q40.6741 79.2373 40.6741 79.209V76.8807Q40.6741 76.8525 40.6953 76.8313Q40.7165 76.8101 40.7447 76.8101H41.5913Q41.8912 76.8101 42.0747 76.9971Q42.2581 77.1841 42.2581 77.4839ZM42.1099 77.4839Q42.1099 77.2405 41.9706 77.0959Q41.8312 76.9513 41.5913 76.9513H40.8223V78.0413H41.5913Q41.8277 78.0413 41.9688 77.8843Q42.1099 77.7274 42.1099 77.4839ZM44.5653 79.2055Q44.5653 79.2373 44.5459 79.2567Q44.5265 79.2761 44.4982 79.2761Q44.4771 79.2761 44.4665 79.269Q44.3712 79.2161 44.3148 79.0908Q44.2583 78.9656 44.2583 78.6799Q44.2583 78.3906 44.1031 78.283Q43.9479 78.1754 43.7433 78.1754H42.9178V79.209Q42.9178 79.2373 42.8966 79.2584Q42.8755 79.2796 42.8437 79.2796Q42.812 79.2796 42.7908 79.2584Q42.7696 79.2373 42.7696 79.209V76.8807Q42.7696 76.8525 42.7908 76.8313Q42.812 76.8101 42.8402 76.8101H43.7715Q43.9761 76.8101 44.1349 76.893Q44.2936 76.9759 44.3818 77.1206Q44.47 77.2652 44.47 77.4487Q44.47 77.685 44.3448 77.8544Q44.2195 78.0237 44.0185 78.0837Q44.1878 78.1366 44.2972 78.2936Q44.4065 78.4506 44.4065 78.6799Q44.4065 78.9162 44.4365 79.0097Q44.4665 79.1032 44.5265 79.142Q44.5653 79.1667 44.5653 79.2055ZM43.7892 78.0343Q44.0114 78.0131 44.1666 77.8579Q44.3218 77.7027 44.3218 77.4522Q44.3218 77.2335 44.1666 77.0924Q44.0114 76.9513 43.7539 76.9513H42.9178V78.0343ZM45.1862 79.2796Q45.1509 79.2796 45.1315 79.2584Q45.1121 79.2373 45.1121 79.2055V76.8842Q45.1121 76.8525 45.1332 76.8313Q45.1544 76.8101 45.1862 76.8101Q45.2179 76.8101 45.2391 76.8313Q45.2602 76.8525 45.2602 76.8842V79.2055Q45.2567 79.2373 45.2355 79.2584Q45.2144 79.2796 45.1862 79.2796ZM47.8179 76.8772V79.202Q47.8179 79.2408 47.7967 79.2602Q47.7755 79.2796 47.7438 79.2796Q47.7085 79.2796 47.6873 79.2514L46.0998 77.0818V79.2196Q46.0998 79.2443 46.0804 79.2619Q46.061 79.2796 46.0328 79.2796Q46.0011 79.2796 45.9834 79.2619Q45.9658 79.2443 45.9658 79.2196V76.8807Q45.9658 76.8454 45.9852 76.8278Q46.0046 76.8101 46.0293 76.8101Q46.061 76.8101 46.0822 76.8348L47.6838 79.0185V76.8772Q47.6838 76.8489 47.7032 76.8295Q47.7226 76.8101 47.7508 76.8101Q47.7826 76.8101 47.8002 76.8295Q47.8179 76.8489 47.8179 76.8772ZM50.3896 78.1331V79.0185Q50.3896 79.0609 50.3579 79.082Q50.1956 79.1914 50.0033 79.2531Q49.8111 79.3149 49.6135 79.3149Q49.2502 79.3149 48.9626 79.1508Q48.6751 78.9868 48.5111 78.6975Q48.347 78.4082 48.347 78.0449Q48.347 77.6815 48.5111 77.3922Q48.6751 77.1029 48.9626 76.9389Q49.2502 76.7749 49.6135 76.7749Q49.8111 76.7749 49.9892 76.8225Q50.1674 76.8701 50.3085 76.9654Q50.3402 76.9865 50.3402 77.0253Q50.3402 77.0571 50.3173 77.0765Q50.2944 77.0959 50.2732 77.0959Q50.2556 77.0959 50.2273 77.0818Q49.931 76.916 49.6135 76.916Q49.289 76.916 49.035 77.0606Q48.781 77.2053 48.6381 77.4628Q48.4952 77.7203 48.4952 78.0449Q48.4952 78.3694 48.6381 78.6269Q48.781 78.8845 49.035 79.0291Q49.289 79.1737 49.6135 79.1737Q49.7758 79.1737 49.9434 79.1226Q50.1109 79.0714 50.2485 78.9868V78.2036H49.6135Q49.5853 78.2036 49.5641 78.1824Q49.543 78.1613 49.543 78.1331Q49.543 78.1013 49.5641 78.0819Q49.5853 78.0625 49.6135 78.0625H50.3191Q50.3508 78.0625 50.3702 78.0837Q50.3896 78.1048 50.3896 78.1331Z" />
            <path id="out_label" d="M42.1875 100.315Q41.8453 100.315 41.5772 100.154Q41.3091 99.9938 41.1592 99.7046Q41.0093 99.4153 41.0093 99.0449Q41.0093 98.6744 41.1592 98.3852Q41.3091 98.0959 41.5772 97.9354Q41.8453 97.7749 42.1875 97.7749Q42.5297 97.7749 42.7978 97.9354Q43.066 98.0959 43.2159 98.3852Q43.3658 98.6744 43.3658 99.0449Q43.3658 99.4153 43.2159 99.7046Q43.066 99.9938 42.7978 100.154Q42.5297 100.315 42.1875 100.315ZM42.1875 97.916Q41.8877 97.916 41.6531 98.0571Q41.4185 98.1982 41.288 98.4557Q41.1574 98.7133 41.1574 99.0449Q41.1574 99.3765 41.288 99.634Q41.4185 99.8915 41.6531 100.033Q41.8877 100.174 42.1875 100.174Q42.4874 100.174 42.722 100.033Q42.9566 99.8915 43.0871 99.634Q43.2177 99.3765 43.2177 99.0449Q43.2177 98.7133 43.0871 98.4557Q42.9566 98.1982 42.722 98.0571Q42.4874 97.916 42.1875 97.916ZM45.7118 97.8807V99.4047Q45.7118 99.6516 45.5883 99.8598Q45.4648 100.068 45.2567 100.191Q45.0486 100.315 44.8052 100.315Q44.5582 100.315 44.3501 100.191Q44.1419 100.068 44.0185 99.8598Q43.895 99.6516 43.895 99.4047V97.8807Q43.895 97.8489 43.9162 97.8295Q43.9373 97.8101 43.9691 97.8101Q44.0008 97.8101 44.022 97.8313Q44.0432 97.8525 44.0432 97.8807V99.4047Q44.0432 99.6128 44.1455 99.7892Q44.2478 99.9656 44.4224 100.07Q44.597 100.174 44.8052 100.174Q45.0133 100.174 45.1879 100.07Q45.3625 99.9656 45.4666 99.7892Q45.5707 99.6128 45.5707 99.4047V97.8807Q45.5707 97.8525 45.5901 97.8313Q45.6095 97.8101 45.6412 97.8101Q45.673 97.8101 45.6924 97.8313Q45.7118 97.8525 45.7118 97.8807ZM48.0437 97.8772Q48.0437 97.9089 48.0243 97.9266Q48.0048 97.9442 47.9731 97.9442H47.1864V100.209Q47.1864 100.237 47.1652 100.258Q47.1441 100.28 47.1158 100.28Q47.0841 100.28 47.0647 100.258Q47.0453 100.237 47.0453 100.209V97.9442H46.2586Q46.2304 97.9442 46.2092 97.9248Q46.188 97.9054 46.188 97.8772Q46.188 97.8489 46.2092 97.8295Q46.2304 97.8101 46.2586 97.8101H47.9731Q48.0013 97.8101 48.0225 97.8295Q48.0437 97.8489 48.0437 97.8772Z" />
        </g>
    </g>
</svg>
