<?xml version="1.0" encoding="utf-8"?>
<svg xmlns="http://www.w3.org/2000/svg" width="25.40mm" height="128.50mm" viewBox="0 0 25.40 128.50">
    <g id="PanelLayer">
        <defs />
        <g id="ControlLayer" style="display:none;">
            <circle id="audio_input" cx="12.7" cy="20" r="1" />
            <circle id="audio_output" cx="12.7" cy="110" r="1" />
            <circle id="delay_knob" cx="12.7" cy="45" r="1" />
            <circle id="delay_atten" cx="7.7" cy="56" r="1" />
            <circle id="delay_cv" cx="17.7" cy="56" r="1" />
        </g>
        <rect id="border_rect" width="25.4" height="128.5" x="0" y="0" style="display:inline;fill:#4f8df2;fill-opacity:1;fill-rule:nonzero;stroke:#5021d4;stroke-width:0.7;stroke-linecap:round;stroke-linejoin:round;stroke-dasharray:none;stroke-opacity:1;image-rendering:auto" />
        <path id="sapphire_gemstone" d="m 15.415,122.900 q 0,0.34175 -0.242534,0.63114 -0.0441,0.0524 -0.20395,0.21497 -0.187413,0.19017 -0.785481,0.81304 l -1.444183,1.51309 q -0.01929,0.003 -0.0441,0.003 -0.02756,0 -0.04134,-0.003 -0.08268,-0.0827 -0.647678,-0.67524 -0.468532,-0.47404 -0.934309,-0.94809 -0.556727,-0.56775 -0.89848,-0.98116 -0.132292,-0.15985 -0.168121,-0.29766 -0.02756,-0.10197 -0.02756,-0.34175 0,-0.11024 0.07166,-0.28939 0.06614,-0.16536 0.140559,-0.26458 0.118512,-0.1571 0.42168,-0.42444 0.283875,-0.2508 0.474044,-0.37482 0.272852,-0.17915 0.818555,-0.36656 0.09646,-0.0331 0.110243,-0.0331 h 1.3615 q 0.01102,0 0.104731,0.0331 0.567751,0.20119 0.824066,0.36656 0.165365,0.10473 0.474045,0.37758 0.322461,0.28388 0.421679,0.42168 0.214974,0.2949 0.214974,0.62563 z m -0.16812,-0.27285 q -0.03307,-0.10749 -0.135048,-0.30868 -0.07166,-0.0937 -0.209462,-0.19844 -0.118511,-0.0854 -0.234266,-0.17088 0.245291,0.3638 0.578776,0.678 z m -0.573264,-0.52366 -0.358289,-0.44648 v 0.41065 z m 0.636653,0.75792 q 0,-0.0524 -0.341753,-0.39412 l 0.228754,0.7028 h 0.04961 q 0.06339,-0.21773 0.06339,-0.30868 z m -0.23151,0.27285 -0.316948,-0.90399 -0.410655,-0.0634 -0.159853,0.61461 z m 0.0028,0.15434 -0.771701,-0.3197 h -0.03032 l 0.344509,0.60634 q 0.07993,-0.003 0.234266,-0.0469 0.02481,-0.0138 0.223242,-0.23978 z m -0.857139,-1.05006 -0.719335,0.28388 0.60358,0.22599 z m 0,-0.16261 v -0.51538 l -0.917773,-0.38034 h -1.223697 l -0.917772,0.38034 v 0.51538 l 0.89848,0.4079 h 1.254014 z m 0.573264,1.53789 q -0.0689,0.011 -0.198438,0.0524 -0.08544,0.0551 -0.259071,0.16261 0.01929,0 0.06339,0.003 0.04134,0 0.06339,0 0.118511,0 0.190169,-0.0689 0.07166,-0.0717 0.14056,-0.14883 z m -0.289388,0.003 -0.347266,-0.63114 -0.363801,0.87918 q 0.0248,-0.0165 0.06615,-0.0165 0.03032,0 0.08544,0.011 0.05788,0.008 0.08819,0.008 0.04961,0 0.228754,-0.10749 0.228754,-0.1378 0.242535,-0.14331 z m -0.440972,-0.74139 -0.683507,-0.2756 -0.592556,0.54845 0.903993,0.65595 z m -0.854383,-0.28387 h -1.036284 l 0.523654,0.47404 z m 0.749652,1.36701 q -0.228754,-0.0303 -0.228754,-0.0303 -0.03583,0 -0.272851,0.0937 l 0.190169,0.0193 q 0.01102,0 0.311436,-0.0827 z m -0.388606,-0.0882 -0.843359,-0.61185 v 0.67524 l 0.471289,0.0827 z m 0.854383,0.0496 q -0.09922,0.006 -0.2949,0.0386 -0.01102,0.003 -0.377583,0.17639 -0.129535,0.34726 -0.380338,1.0418 z m -2.543857,-1.39733 -0.719335,-0.28388 0.124023,0.51814 z m -0.802018,-0.45476 v -0.41065 l -0.366557,0.44648 z m 1.515841,1.07212 -0.592556,-0.54019 -0.683506,0.2756 0.380338,0.9288 z m 0.369314,0.94257 q -0.03307,-0.003 -0.135047,-0.0248 -0.08544,-0.0165 -0.137804,-0.0165 -0.05237,0 -0.137804,0.0165 -0.101975,0.0221 -0.135047,0.0248 0.264583,0.0469 0.272851,0.0469 0.0083,0 0.272851,-0.0469 z m -0.30868,-0.1378 v -0.68626 l -0.843359,0.61185 0.37207,0.14607 z m 0.950846,0.20671 -0.396875,-0.0551 -0.479557,0.14056 v 1.27607 z m -2.888366,-2.20211 q -0.118512,0.0854 -0.234267,0.17364 -0.146072,0.10748 -0.209461,0.19568 -0.0441,0.10473 -0.135048,0.31419 0.369314,-0.3638 0.578776,-0.68351 z m 0.476801,0.83234 -0.159853,-0.61461 -0.410655,0.0634 -0.316948,0.90399 z m 0.394118,1.08313 -0.363802,-0.87918 -0.355533,0.63114 q 0.43546,0.2508 0.451996,0.2508 0.09095,0 0.267339,-0.003 z m 1.821765,0.82958 q -0.132291,0.21222 -0.405143,0.6339 -0.07717,0.10749 -0.220486,0.32797 -0.05788,0.10473 -0.05512,0.226 0.159852,-0.15158 0.432704,-0.49609 0.07717,-0.12954 0.140559,-0.339 0.05512,-0.17639 0.107486,-0.35278 z m -1.493792,-0.66146 -0.270095,-0.0882 -0.0083,-0.011 q -0.02481,0 -0.107487,0.011 -0.06615,0.006 -0.107487,0.006 0.272851,0.091 0.311436,0.091 0.02481,0 0.181901,-0.008 z m -0.810286,-1.06384 h -0.03032 l -0.7717,0.3197 q 0.06615,0.0965 0.223242,0.23978 0.07717,0.0138 0.234266,0.0469 z m -0.689018,-0.50161 q -0.341754,0.34727 -0.341754,0.39412 0,0.0799 0.06339,0.30868 h 0.04961 z m 2.235176,3.04547 v -1.27607 l -0.479557,-0.14056 -0.396875,0.0551 z m -1.606791,-1.6757 q -0.256315,-0.1819 -0.457509,-0.22324 0.06615,0.0772 0.20395,0.22324 z m 1.609547,2.04501 v -0.1378 l -0.683507,-1.05007 q 0.05237,0.17639 0.107487,0.35278 0.06339,0.20946 0.14056,0.339 0.0689,0.11851 0.20395,0.25907 0.115755,0.11851 0.23151,0.23702 z m -0.644921,-0.70555 q -0.115756,-0.32798 -0.380339,-1.0418 -0.135047,-0.0662 -0.272851,-0.12954 -0.159852,-0.0716 -0.289388,-0.0716 -0.05237,0 -0.110243,-0.0138 z" style="stroke-width:0;fill:#0000ff;stroke:#2e2114;stroke-linecap:square;stroke-opacity:1" />
        <path id="model_name" d="M4.46158 4.43369V7.99604Q4.46158 8.05812 4.41501 8.10469Q4.36845 8.15126 4.30636 8.15126Q4.23651 8.15126 4.19382 8.10469Q4.15114 8.05812 4.15114 7.99604V7.29754Q3.95711 7.69335 3.55353 7.96111Q3.14995 8.22887 2.661 8.22887Q2.14877 8.22887 1.73743 7.96111Q1.32609 7.69335 1.09326 7.22381Q0.860425 6.75426 0.860425 6.17217Q0.860425 5.59785 1.09714 5.13607Q1.33385 4.67428 1.74519 4.41428Q2.15653 4.15429 2.661 4.15429Q3.16548 4.15429 3.56905 4.41816Q3.97263 4.68204 4.15114 5.12443V4.43369Q4.15114 4.3716 4.19382 4.32503Q4.23651 4.27846 4.30636 4.27846Q4.37621 4.27846 4.41889 4.32503Q4.46158 4.3716 4.46158 4.43369ZM4.18218 6.17217Q4.18218 5.69875 3.98815 5.30293Q3.79413 4.90711 3.44876 4.67816Q3.10339 4.44921 2.67653 4.44921Q2.24966 4.44921 1.90429 4.6704Q1.55893 4.89159 1.3649 5.28353Q1.17087 5.67546 1.17087 6.17217Q1.17087 6.66889 1.3649 7.07246Q1.55893 7.47604 1.90041 7.70499Q2.2419 7.93395 2.67653 7.93395Q3.10339 7.93395 3.44876 7.70499Q3.79413 7.47604 3.98815 7.07246Q4.18218 6.66889 4.18218 6.17217ZM5.94395 8.15126Q5.8741 8.15126 5.83142 8.10469Q5.78873 8.05812 5.78873 7.99604V2.56326Q5.78873 2.50117 5.8353 2.4546Q5.88186 2.40804 5.94395 2.40804Q6.0138 2.40804 6.05649 2.4546Q6.09917 2.50117 6.09917 2.56326V7.99604Q6.09917 8.05812 6.05261 8.10469Q6.00604 8.15126 5.94395 8.15126ZM7.62035 8.15126Q7.5505 8.15126 7.50782 8.10469Q7.46513 8.05812 7.46513 7.99604V2.56326Q7.46513 2.50117 7.5117 2.4546Q7.55826 2.40804 7.62035 2.40804Q7.6902 2.40804 7.73289 2.4546Q7.77557 2.50117 7.77557 2.56326V7.99604Q7.77557 8.05812 7.72901 8.10469Q7.68244 8.15126 7.62035 8.15126ZM12.7039 6.21098Q12.7039 6.76978 12.4672 7.22381Q12.2305 7.67783 11.8191 7.93783Q11.4078 8.19782 10.9033 8.19782Q10.4376 8.19782 10.0496 7.96499Q9.66152 7.73216 9.41317 7.3053V9.54826Q9.41317 9.61035 9.37048 9.65691Q9.3278 9.70348 9.25795 9.70348Q9.19586 9.70348 9.14929 9.65691Q9.10272 9.61035 9.10272 9.54826V4.38712Q9.10272 4.32503 9.14541 4.27846Q9.1881 4.2319 9.25795 4.2319Q9.3278 4.2319 9.37048 4.27846Q9.41317 4.32503 9.41317 4.38712V5.10114Q9.646 4.65876 10.0341 4.44533Q10.4221 4.2319 10.9033 4.2319Q11.4155 4.2319 11.8269 4.48801Q12.2382 4.74413 12.471 5.19428Q12.7039 5.64442 12.7039 6.21098ZM12.3934 6.21098Q12.3934 5.72979 12.1955 5.34562Q11.9976 4.96144 11.6561 4.74413Q11.3146 4.52682 10.8878 4.52682Q10.4532 4.52682 10.1078 4.74025Q9.76242 4.95368 9.57227 5.33786Q9.38213 5.72203 9.38213 6.21098Q9.38213 6.69993 9.57227 7.08411Q9.76242 7.46828 10.1078 7.68559Q10.4532 7.9029 10.8878 7.9029Q11.3146 7.9029 11.6561 7.68559Q11.9976 7.46828 12.1955 7.08022Q12.3934 6.69217 12.3934 6.21098ZM17.0501 4.43369V7.99604Q17.0501 8.05812 17.0035 8.10469Q16.957 8.15126 16.8949 8.15126Q16.825 8.15126 16.7823 8.10469Q16.7397 8.05812 16.7397 7.99604V7.29754Q16.5456 7.69335 16.1421 7.96111Q15.7385 8.22887 15.2495 8.22887Q14.7373 8.22887 14.326 7.96111Q13.9146 7.69335 13.6818 7.22381Q13.4489 6.75426 13.4489 6.17217Q13.4489 5.59785 13.6857 5.13607Q13.9224 4.67428 14.3337 4.41428Q14.7451 4.15429 15.2495 4.15429Q15.754 4.15429 16.1576 4.41816Q16.5612 4.68204 16.7397 5.12443V4.43369Q16.7397 4.3716 16.7823 4.32503Q16.825 4.27846 16.8949 4.27846Q16.9647 4.27846 17.0074 4.32503Q17.0501 4.3716 17.0501 4.43369ZM16.7707 6.17217Q16.7707 5.69875 16.5767 5.30293Q16.3826 4.90711 16.0373 4.67816Q15.6919 4.44921 15.265 4.44921Q14.8382 4.44921 14.4928 4.6704Q14.1474 4.89159 13.9534 5.28353Q13.7594 5.67546 13.7594 6.17217Q13.7594 6.66889 13.9534 7.07246Q14.1474 7.47604 14.4889 7.70499Q14.8304 7.93395 15.265 7.93395Q15.6919 7.93395 16.0373 7.70499Q16.3826 7.47604 16.5767 7.07246Q16.7707 6.66889 16.7707 6.17217ZM18.0668 7.38291Q18.0668 7.32858 18.1289 7.28201Q18.1677 7.24321 18.222 7.24321Q18.2996 7.24321 18.3462 7.3053Q18.7964 7.94947 19.6035 7.94947Q20.0148 7.94947 20.3253 7.7438Q20.6357 7.53813 20.6357 7.18888Q20.6357 6.83187 20.3641 6.65336Q20.0925 6.47486 19.619 6.35844Q18.9904 6.20322 18.6295 5.94322Q18.2686 5.68323 18.2686 5.2098Q18.2686 4.75189 18.6334 4.45309Q18.9981 4.15429 19.5725 4.15429Q19.8907 4.15429 20.205 4.27846Q20.5193 4.40264 20.7754 4.67428Q20.8298 4.72085 20.8298 4.78294Q20.8298 4.85279 20.7754 4.90711Q20.7133 4.93816 20.6745 4.93816Q20.6202 4.93816 20.5814 4.89159Q20.1778 4.44921 19.5414 4.44921Q19.1301 4.44921 18.8468 4.651Q18.5635 4.85279 18.5635 5.2098Q18.5868 5.54352 18.8701 5.72591Q19.1534 5.9083 19.7044 6.048Q20.1002 6.14889 20.3602 6.26919Q20.6202 6.38949 20.7754 6.6068Q20.9307 6.82411 20.9307 7.17336Q20.9307 7.66231 20.5542 7.94559Q20.1778 8.22887 19.5725 8.22887Q18.6877 8.22887 18.1211 7.53037Q18.0668 7.445 18.0668 7.38291ZM21.6757 7.38291Q21.6757 7.32858 21.7378 7.28201Q21.7766 7.24321 21.8309 7.24321Q21.9086 7.24321 21.9551 7.3053Q22.4053 7.94947 23.2124 7.94947Q23.6238 7.94947 23.9342 7.7438Q24.2447 7.53813 24.2447 7.18888Q24.2447 6.83187 23.973 6.65336Q23.7014 6.47486 23.2279 6.35844Q22.5993 6.20322 22.2384 5.94322Q21.8775 5.68323 21.8775 5.2098Q21.8775 4.75189 22.2423 4.45309Q22.6071 4.15429 23.1814 4.15429Q23.4996 4.15429 23.8139 4.27846Q24.1282 4.40264 24.3844 4.67428Q24.4387 4.72085 24.4387 4.78294Q24.4387 4.85279 24.3844 4.90711Q24.3223 4.93816 24.2835 4.93816Q24.2291 4.93816 24.1903 4.89159Q23.7867 4.44921 23.1503 4.44921Q22.739 4.44921 22.4557 4.651Q22.1724 4.85279 22.1724 5.2098Q22.1957 5.54352 22.479 5.72591Q22.7623 5.9083 23.3133 6.048Q23.7091 6.14889 23.9691 6.26919Q24.2291 6.38949 24.3844 6.6068Q24.5396 6.82411 24.5396 7.17336Q24.5396 7.66231 24.1632 7.94559Q23.7867 8.22887 23.1814 8.22887Q22.2966 8.22887 21.7301 7.53037Q21.6757 7.445 21.6757 7.38291Z" style="display:inline;stroke:#000000;stroke-width:0.35;stroke-linecap:round;stroke-linejoin:bevel" />
        <path d="M9.76312 35.8141Q9.76312 36.1634 9.652 36.4421Q9.54087 36.7207 9.31157 36.8848Q9.08226 37.0488 8.74007 37.0488H7.82285Q7.79462 37.0488 7.77346 37.0277Q7.75229 37.0065 7.75229 36.9783V34.6499Q7.75229 34.6217 7.77346 34.6006Q7.79462 34.5794 7.82285 34.5794H8.74007Q9.07874 34.5794 9.30981 34.7487Q9.54087 34.9181 9.652 35.1985Q9.76312 35.479 9.76312 35.8141ZM9.61496 35.8141Q9.61496 35.5142 9.51794 35.2655Q9.42093 35.0168 9.21808 34.8687Q9.01524 34.7205 8.70479 34.7205H7.90046V36.9077H8.70479Q9.1634 36.9077 9.38918 36.6061Q9.61496 36.3045 9.61496 35.8141ZM11.7634 36.9783Q11.7634 37.01 11.7422 37.0294Q11.721 37.0488 11.6928 37.0488H10.3628Q10.3346 37.0488 10.3135 37.0277Q10.2923 37.0065 10.2923 36.9783V34.6499Q10.2923 34.6217 10.3135 34.6006Q10.3346 34.5794 10.3628 34.5794H11.6928Q11.721 34.5794 11.7422 34.6006Q11.7634 34.6217 11.7634 34.6499Q11.7634 34.6817 11.7422 34.7011Q11.721 34.7205 11.6928 34.7205H10.4405V35.7047H11.5341Q11.5623 35.7047 11.5835 35.7259Q11.6046 35.7471 11.6046 35.7753Q11.6046 35.8071 11.5835 35.8265Q11.5623 35.8459 11.5341 35.8459H10.4405V36.9077H11.6928Q11.721 36.9077 11.7422 36.9289Q11.7634 36.9501 11.7634 36.9783ZM13.7283 36.9783Q13.7283 37.01 13.7072 37.0294Q13.686 37.0488 13.6578 37.0488H12.3631Q12.3313 37.0488 12.3119 37.0277Q12.2925 37.0065 12.2925 36.9783V34.6499Q12.2925 34.6217 12.3137 34.6006Q12.3349 34.5794 12.3666 34.5794Q12.3984 34.5794 12.4195 34.6006Q12.4407 34.6217 12.4407 34.6499V36.9077H13.6578Q13.686 36.9077 13.7072 36.9289Q13.7283 36.9501 13.7283 36.9783ZM15.9473 36.9818Q15.9473 37.0136 15.9262 37.0312Q15.905 37.0488 15.8732 37.0488Q15.8485 37.0488 15.8291 37.0365Q15.8097 37.0241 15.8027 37.003L15.5063 36.2762L15.5099 36.2833H14.3281L14.0423 37.003Q14.0247 37.0488 13.9788 37.0488Q13.9471 37.0488 13.9277 37.0312Q13.9083 37.0136 13.9047 36.9889Q13.9012 36.9747 13.9083 36.9536L14.8572 34.6182Q14.8678 34.59 14.8837 34.5812Q14.8996 34.5723 14.9243 34.5723Q14.9772 34.5723 14.9948 34.6182L15.9438 36.9536Q15.9473 36.9642 15.9473 36.9818ZM14.3845 36.1422H15.4534L14.9137 34.8122ZM17.9158 34.6782 17.1115 35.7718V36.9783Q17.1115 37.0065 17.0903 37.0277Q17.0692 37.0488 17.0374 37.0488Q17.0057 37.0488 16.9845 37.0277Q16.9633 37.0065 16.9633 36.9783V35.7859L16.1555 34.6782Q16.1413 34.6605 16.1413 34.6323Q16.1413 34.6076 16.1643 34.5864Q16.1872 34.5653 16.2154 34.5653Q16.2542 34.5653 16.2754 34.597L17.0374 35.6377L17.7994 34.597Q17.8206 34.5653 17.8594 34.5653Q17.8911 34.5653 17.9105 34.5882Q17.9299 34.6111 17.9299 34.6323Q17.9299 34.6499 17.9158 34.6782Z" style="stroke:#000000;stroke-width:0.25;stroke-linecap:round;stroke-linejoin:bevel" />
        <path d="M 12.70,45.00 L 7.70,56.00 z L 17.70,56.00 z " style="stroke:#000000;stroke-width:0.1;stroke-linecap:round;stroke-linejoin:bevel;stroke-dasharray:none" />
    </g>
</svg>
