<?xml version="1.0" encoding="utf-8"?>
<svg xmlns="http://www.w3.org/2000/svg" width="20.32mm" height="128.50mm" viewBox="0 0 20.32 128.50">
    <g id="PanelLayer">
        <g id="ControlLayer" style="display:none;">
            <circle id="audio_input" cx="10.16" cy="10" r="1" />
        </g>
        <rect id="border_rect" width="20.32" height="128.5" x="0" y="0" style="display:inline;fill:#4f8df2;fill-opacity:1;fill-rule:nonzero;stroke:#5021d4;stroke-width:0.7;stroke-linecap:round;stroke-linejoin:round;stroke-dasharray:none;stroke-opacity:1;image-rendering:auto" />
        <path id="model_name" d="M5.80214 6.17217Q5.80214 6.7465 5.56542 7.21604Q5.32871 7.68559 4.91737 7.95723Q4.50603 8.22887 4.00156 8.22887Q3.54365 8.22887 3.1556 7.98439Q2.76754 7.73992 2.51143 7.3053V7.99604Q2.51143 8.05812 2.46874 8.10469Q2.42605 8.15126 2.3562 8.15126Q2.29411 8.15126 2.24755 8.10469Q2.20098 8.05812 2.20098 7.99604V2.57102Q2.20098 2.50893 2.24367 2.46236Q2.28635 2.4158 2.3562 2.4158Q2.42605 2.4158 2.46874 2.46236Q2.51143 2.50893 2.51143 2.57102V5.10114Q2.74426 4.64324 3.13619 4.39876Q3.52813 4.15429 4.00156 4.15429Q4.51379 4.15429 4.92513 4.41428Q5.33647 4.67428 5.5693 5.13607Q5.80214 5.59785 5.80214 6.17217ZM5.49169 6.17217Q5.49169 5.67546 5.29378 5.28353Q5.09588 4.89159 4.75439 4.6704Q4.4129 4.44921 3.98604 4.44921Q3.55141 4.44921 3.20604 4.6704Q2.86068 4.89159 2.67053 5.28353Q2.48038 5.67546 2.48038 6.17217Q2.48038 6.66889 2.67441 7.07246Q2.86844 7.47604 3.20993 7.70499Q3.55141 7.93395 3.98604 7.93395Q4.4129 7.93395 4.75439 7.70111Q5.09588 7.46828 5.29378 7.06858Q5.49169 6.66889 5.49169 6.17217ZM10.1484 4.43369V7.99604Q10.1484 8.05812 10.1018 8.10469Q10.0552 8.15126 9.99314 8.15126Q9.92329 8.15126 9.8806 8.10469Q9.83791 8.05812 9.83791 7.99604V7.29754Q9.64389 7.69335 9.24031 7.96111Q8.83673 8.22887 8.34778 8.22887Q7.83555 8.22887 7.42421 7.96111Q7.01287 7.69335 6.78004 7.22381Q6.5472 6.75426 6.5472 6.17217Q6.5472 5.59785 6.78392 5.13607Q7.02063 4.67428 7.43197 4.41428Q7.84331 4.15429 8.34778 4.15429Q8.85225 4.15429 9.25583 4.41816Q9.65941 4.68204 9.83791 5.12443V4.43369Q9.83791 4.3716 9.8806 4.32503Q9.92329 4.27846 9.99314 4.27846Q10.063 4.27846 10.1057 4.32503Q10.1484 4.3716 10.1484 4.43369ZM9.86896 6.17217Q9.86896 5.69875 9.67493 5.30293Q9.4809 4.90711 9.13553 4.67816Q8.79016 4.44921 8.3633 4.44921Q7.93644 4.44921 7.59107 4.6704Q7.2457 4.89159 7.05168 5.28353Q6.85765 5.67546 6.85765 6.17217Q6.85765 6.66889 7.05168 7.07246Q7.2457 7.47604 7.58719 7.70499Q7.92868 7.93395 8.3633 7.93395Q8.79016 7.93395 9.13553 7.70499Q9.4809 7.47604 9.67493 7.07246Q9.86896 6.66889 9.86896 6.17217ZM11.1651 7.38291Q11.1651 7.32858 11.2272 7.28201Q11.266 7.24321 11.3203 7.24321Q11.3979 7.24321 11.4445 7.3053Q11.8946 7.94947 12.7018 7.94947Q13.1131 7.94947 13.4235 7.7438Q13.734 7.53813 13.734 7.18888Q13.734 6.83187 13.4624 6.65336Q13.1907 6.47486 12.7173 6.35844Q12.0886 6.20322 11.7277 5.94322Q11.3669 5.68323 11.3669 5.2098Q11.3669 4.75189 11.7316 4.45309Q12.0964 4.15429 12.6707 4.15429Q12.9889 4.15429 13.3033 4.27846Q13.6176 4.40264 13.8737 4.67428Q13.928 4.72085 13.928 4.78294Q13.928 4.85279 13.8737 4.90711Q13.8116 4.93816 13.7728 4.93816Q13.7185 4.93816 13.6797 4.89159Q13.2761 4.44921 12.6397 4.44921Q12.2283 4.44921 11.9451 4.651Q11.6618 4.85279 11.6618 5.2098Q11.6851 5.54352 11.9683 5.72591Q12.2516 5.9083 12.8027 6.048Q13.1985 6.14889 13.4585 6.26919Q13.7185 6.38949 13.8737 6.6068Q14.0289 6.82411 14.0289 7.17336Q14.0289 7.66231 13.6525 7.94559Q13.2761 8.22887 12.6707 8.22887Q11.786 8.22887 11.2194 7.53037Q11.1651 7.445 11.1651 7.38291ZM18.119 5.72979V7.99604Q18.119 8.05812 18.0725 8.10469Q18.0259 8.15126 17.9638 8.15126Q17.8939 8.15126 17.8513 8.10469Q17.8086 8.05812 17.8086 7.99604V5.72979Q17.8086 5.19427 17.5447 4.86055Q17.2808 4.52682 16.7375 4.52682Q16.4038 4.52682 16.0817 4.6898Q15.7596 4.85279 15.5579 5.13219Q15.3561 5.41159 15.3561 5.72979V7.99604Q15.3561 8.05812 15.3095 8.10469Q15.2629 8.15126 15.2008 8.15126Q15.131 8.15126 15.0883 8.10469Q15.0456 8.05812 15.0456 7.99604V2.56326Q15.0456 2.50117 15.0922 2.4546Q15.1388 2.40804 15.2008 2.40804Q15.2707 2.40804 15.3134 2.4546Q15.3561 2.50117 15.3561 2.56326V5.01577Q15.5734 4.67428 15.9576 4.45309Q16.3417 4.2319 16.7375 4.2319Q17.405 4.2319 17.762 4.65488Q18.119 5.07786 18.119 5.72979Z" style="display:inline;stroke:#000000;stroke-width:0.35;stroke-linecap:round;stroke-linejoin:bevel" />
        <path id="sapphire_gemstone" d="m 12.875,122.900 q 0,0.34175 -0.242534,0.63114 -0.0441,0.0524 -0.20395,0.21497 -0.187413,0.19017 -0.785481,0.81304 l -1.444183,1.51309 q -0.01929,0.003 -0.0441,0.003 -0.02756,0 -0.04134,-0.003 -0.08268,-0.0827 -0.647678,-0.67524 -0.468532,-0.47404 -0.934309,-0.94809 -0.556727,-0.56775 -0.89848,-0.98116 -0.132292,-0.15985 -0.168121,-0.29766 -0.02756,-0.10197 -0.02756,-0.34175 0,-0.11024 0.07166,-0.28939 0.06614,-0.16536 0.140559,-0.26458 0.118512,-0.1571 0.42168,-0.42444 0.283875,-0.2508 0.474044,-0.37482 0.272852,-0.17915 0.818555,-0.36656 0.09646,-0.0331 0.110243,-0.0331 h 1.3615 q 0.01102,0 0.104731,0.0331 0.567751,0.20119 0.824066,0.36656 0.165365,0.10473 0.474045,0.37758 0.322461,0.28388 0.421679,0.42168 0.214974,0.2949 0.214974,0.62563 z m -0.16812,-0.27285 q -0.03307,-0.10749 -0.135048,-0.30868 -0.07166,-0.0937 -0.209462,-0.19844 -0.118511,-0.0854 -0.234266,-0.17088 0.245291,0.3638 0.578776,0.678 z m -0.573264,-0.52366 -0.358289,-0.44648 v 0.41065 z m 0.636653,0.75792 q 0,-0.0524 -0.341753,-0.39412 l 0.228754,0.7028 h 0.04961 q 0.06339,-0.21773 0.06339,-0.30868 z m -0.23151,0.27285 -0.316948,-0.90399 -0.410655,-0.0634 -0.159853,0.61461 z m 0.0028,0.15434 -0.771701,-0.3197 h -0.03032 l 0.344509,0.60634 q 0.07993,-0.003 0.234266,-0.0469 0.02481,-0.0138 0.223242,-0.23978 z m -0.857139,-1.05006 -0.719335,0.28388 0.60358,0.22599 z m 0,-0.16261 v -0.51538 l -0.917773,-0.38034 h -1.223697 l -0.917772,0.38034 v 0.51538 l 0.89848,0.4079 h 1.254014 z m 0.573264,1.53789 q -0.0689,0.011 -0.198438,0.0524 -0.08544,0.0551 -0.259071,0.16261 0.01929,0 0.06339,0.003 0.04134,0 0.06339,0 0.118511,0 0.190169,-0.0689 0.07166,-0.0717 0.14056,-0.14883 z m -0.289388,0.003 -0.347266,-0.63114 -0.363801,0.87918 q 0.0248,-0.0165 0.06615,-0.0165 0.03032,0 0.08544,0.011 0.05788,0.008 0.08819,0.008 0.04961,0 0.228754,-0.10749 0.228754,-0.1378 0.242535,-0.14331 z m -0.440972,-0.74139 -0.683507,-0.2756 -0.592556,0.54845 0.903993,0.65595 z m -0.854383,-0.28387 h -1.036284 l 0.523654,0.47404 z m 0.749652,1.36701 q -0.228754,-0.0303 -0.228754,-0.0303 -0.03583,0 -0.272851,0.0937 l 0.190169,0.0193 q 0.01102,0 0.311436,-0.0827 z m -0.388606,-0.0882 -0.843359,-0.61185 v 0.67524 l 0.471289,0.0827 z m 0.854383,0.0496 q -0.09922,0.006 -0.2949,0.0386 -0.01102,0.003 -0.377583,0.17639 -0.129535,0.34726 -0.380338,1.0418 z m -2.543857,-1.39733 -0.719335,-0.28388 0.124023,0.51814 z m -0.802018,-0.45476 v -0.41065 l -0.366557,0.44648 z m 1.515841,1.07212 -0.592556,-0.54019 -0.683506,0.2756 0.380338,0.9288 z m 0.369314,0.94257 q -0.03307,-0.003 -0.135047,-0.0248 -0.08544,-0.0165 -0.137804,-0.0165 -0.05237,0 -0.137804,0.0165 -0.101975,0.0221 -0.135047,0.0248 0.264583,0.0469 0.272851,0.0469 0.0083,0 0.272851,-0.0469 z m -0.30868,-0.1378 v -0.68626 l -0.843359,0.61185 0.37207,0.14607 z m 0.950846,0.20671 -0.396875,-0.0551 -0.479557,0.14056 v 1.27607 z m -2.888366,-2.20211 q -0.118512,0.0854 -0.234267,0.17364 -0.146072,0.10748 -0.209461,0.19568 -0.0441,0.10473 -0.135048,0.31419 0.369314,-0.3638 0.578776,-0.68351 z m 0.476801,0.83234 -0.159853,-0.61461 -0.410655,0.0634 -0.316948,0.90399 z m 0.394118,1.08313 -0.363802,-0.87918 -0.355533,0.63114 q 0.43546,0.2508 0.451996,0.2508 0.09095,0 0.267339,-0.003 z m 1.821765,0.82958 q -0.132291,0.21222 -0.405143,0.6339 -0.07717,0.10749 -0.220486,0.32797 -0.05788,0.10473 -0.05512,0.226 0.159852,-0.15158 0.432704,-0.49609 0.07717,-0.12954 0.140559,-0.339 0.05512,-0.17639 0.107486,-0.35278 z m -1.493792,-0.66146 -0.270095,-0.0882 -0.0083,-0.011 q -0.02481,0 -0.107487,0.011 -0.06615,0.006 -0.107487,0.006 0.272851,0.091 0.311436,0.091 0.02481,0 0.181901,-0.008 z m -0.810286,-1.06384 h -0.03032 l -0.7717,0.3197 q 0.06615,0.0965 0.223242,0.23978 0.07717,0.0138 0.234266,0.0469 z m -0.689018,-0.50161 q -0.341754,0.34727 -0.341754,0.39412 0,0.0799 0.06339,0.30868 h 0.04961 z m 2.235176,3.04547 v -1.27607 l -0.479557,-0.14056 -0.396875,0.0551 z m -1.606791,-1.6757 q -0.256315,-0.1819 -0.457509,-0.22324 0.06615,0.0772 0.20395,0.22324 z m 1.609547,2.04501 v -0.1378 l -0.683507,-1.05007 q 0.05237,0.17639 0.107487,0.35278 0.06339,0.20946 0.14056,0.339 0.0689,0.11851 0.20395,0.25907 0.115755,0.11851 0.23151,0.23702 z m -0.644921,-0.70555 q -0.115756,-0.32798 -0.380339,-1.0418 -0.135047,-0.0662 -0.272851,-0.12954 -0.159852,-0.0716 -0.289388,-0.0716 -0.05237,0 -0.110243,-0.0138 z" style="stroke-width:0;fill:#0000ff;stroke:#2e2114;stroke-linecap:square;stroke-opacity:1" />
    </g>
</svg>
