<?xml version="1.0" encoding="utf-8"?>
<svg xmlns="http://www.w3.org/2000/svg" width="20.32mm" height="128.50mm" viewBox="0 0 20.32 128.50">
    <g id="PanelLayer">
        <g id="ControlLayer" style="display:none;">
            <circle id="audio_input" cx="10.16" cy="15" r="1" />
            <circle id="speed_knob" cx="10.16" cy="32" r="1" />
            <circle id="speed_atten" cx="5.16" cy="43" r="1" />
            <circle id="speed_cv" cx="15.16" cy="43" r="1" />
            <circle id="level_chaos" cx="5.16" cy="57" r="1" />
            <circle id="level_knob" cx="15.16" cy="57" r="1" />
            <circle id="center_chaos" cx="5.16" cy="72" r="1" />
            <circle id="center_knob" cx="15.16" cy="72" r="1" />
            <circle id="width_chaos" cx="5.16" cy="87" r="1" />
            <circle id="width_knob" cx="15.16" cy="87" r="1" />
            <circle id="dispersion_chaos" cx="5.16" cy="102" r="1" />
            <circle id="dispersion_knob" cx="15.16" cy="102" r="1" />
            <circle id="copy_output" cx="5.66" cy="114" r="1" />
            <circle id="audio_output" cx="14.66" cy="114" r="1" />
        </g>
        <rect id="border_rect" width="20.32" height="128.5" x="0" y="0" style="display:inline;fill:#4f8df2;fill-opacity:1;fill-rule:nonzero;stroke:#5021d4;stroke-width:0.7;stroke-linecap:round;stroke-linejoin:round;stroke-dasharray:none;stroke-opacity:1;image-rendering:auto" />
        <path id="model_name" d="M5.80214 6.17217Q5.80214 6.7465 5.56542 7.21604Q5.32871 7.68559 4.91737 7.95723Q4.50603 8.22887 4.00156 8.22887Q3.54365 8.22887 3.1556 7.98439Q2.76754 7.73992 2.51143 7.3053V7.99604Q2.51143 8.05812 2.46874 8.10469Q2.42605 8.15126 2.3562 8.15126Q2.29411 8.15126 2.24755 8.10469Q2.20098 8.05812 2.20098 7.99604V2.57102Q2.20098 2.50893 2.24367 2.46236Q2.28635 2.4158 2.3562 2.4158Q2.42605 2.4158 2.46874 2.46236Q2.51143 2.50893 2.51143 2.57102V5.10114Q2.74426 4.64324 3.13619 4.39876Q3.52813 4.15429 4.00156 4.15429Q4.51379 4.15429 4.92513 4.41428Q5.33647 4.67428 5.5693 5.13607Q5.80214 5.59785 5.80214 6.17217ZM5.49169 6.17217Q5.49169 5.67546 5.29378 5.28353Q5.09588 4.89159 4.75439 4.6704Q4.4129 4.44921 3.98604 4.44921Q3.55141 4.44921 3.20604 4.6704Q2.86068 4.89159 2.67053 5.28353Q2.48038 5.67546 2.48038 6.17217Q2.48038 6.66889 2.67441 7.07246Q2.86844 7.47604 3.20993 7.70499Q3.55141 7.93395 3.98604 7.93395Q4.4129 7.93395 4.75439 7.70111Q5.09588 7.46828 5.29378 7.06858Q5.49169 6.66889 5.49169 6.17217ZM10.1484 4.43369V7.99604Q10.1484 8.05812 10.1018 8.10469Q10.0552 8.15126 9.99314 8.15126Q9.92329 8.15126 9.8806 8.10469Q9.83791 8.05812 9.83791 7.99604V7.29754Q9.64389 7.69335 9.24031 7.96111Q8.83673 8.22887 8.34778 8.22887Q7.83555 8.22887 7.42421 7.96111Q7.01287 7.69335 6.78004 7.22381Q6.5472 6.75426 6.5472 6.17217Q6.5472 5.59785 6.78392 5.13607Q7.02063 4.67428 7.43197 4.41428Q7.84331 4.15429 8.34778 4.15429Q8.85225 4.15429 9.25583 4.41816Q9.65941 4.68204 9.83791 5.12443V4.43369Q9.83791 4.3716 9.8806 4.32503Q9.92329 4.27846 9.99314 4.27846Q10.063 4.27846 10.1057 4.32503Q10.1484 4.3716 10.1484 4.43369ZM9.86896 6.17217Q9.86896 5.69875 9.67493 5.30293Q9.4809 4.90711 9.13553 4.67816Q8.79016 4.44921 8.3633 4.44921Q7.93644 4.44921 7.59107 4.6704Q7.2457 4.89159 7.05168 5.28353Q6.85765 5.67546 6.85765 6.17217Q6.85765 6.66889 7.05168 7.07246Q7.2457 7.47604 7.58719 7.70499Q7.92868 7.93395 8.3633 7.93395Q8.79016 7.93395 9.13553 7.70499Q9.4809 7.47604 9.67493 7.07246Q9.86896 6.66889 9.86896 6.17217ZM11.1651 7.38291Q11.1651 7.32858 11.2272 7.28201Q11.266 7.24321 11.3203 7.24321Q11.3979 7.24321 11.4445 7.3053Q11.8946 7.94947 12.7018 7.94947Q13.1131 7.94947 13.4235 7.7438Q13.734 7.53813 13.734 7.18888Q13.734 6.83187 13.4624 6.65336Q13.1907 6.47486 12.7173 6.35844Q12.0886 6.20322 11.7277 5.94322Q11.3669 5.68323 11.3669 5.2098Q11.3669 4.75189 11.7316 4.45309Q12.0964 4.15429 12.6707 4.15429Q12.9889 4.15429 13.3033 4.27846Q13.6176 4.40264 13.8737 4.67428Q13.928 4.72085 13.928 4.78294Q13.928 4.85279 13.8737 4.90711Q13.8116 4.93816 13.7728 4.93816Q13.7185 4.93816 13.6797 4.89159Q13.2761 4.44921 12.6397 4.44921Q12.2283 4.44921 11.9451 4.651Q11.6618 4.85279 11.6618 5.2098Q11.6851 5.54352 11.9683 5.72591Q12.2516 5.9083 12.8027 6.048Q13.1985 6.14889 13.4585 6.26919Q13.7185 6.38949 13.8737 6.6068Q14.0289 6.82411 14.0289 7.17336Q14.0289 7.66231 13.6525 7.94559Q13.2761 8.22887 12.6707 8.22887Q11.786 8.22887 11.2194 7.53037Q11.1651 7.445 11.1651 7.38291ZM18.119 5.72979V7.99604Q18.119 8.05812 18.0725 8.10469Q18.0259 8.15126 17.9638 8.15126Q17.8939 8.15126 17.8513 8.10469Q17.8086 8.05812 17.8086 7.99604V5.72979Q17.8086 5.19427 17.5447 4.86055Q17.2808 4.52682 16.7375 4.52682Q16.4038 4.52682 16.0817 4.6898Q15.7596 4.85279 15.5579 5.13219Q15.3561 5.41159 15.3561 5.72979V7.99604Q15.3561 8.05812 15.3095 8.10469Q15.2629 8.15126 15.2008 8.15126Q15.131 8.15126 15.0883 8.10469Q15.0456 8.05812 15.0456 7.99604V2.56326Q15.0456 2.50117 15.0922 2.4546Q15.1388 2.40804 15.2008 2.40804Q15.2707 2.40804 15.3134 2.4546Q15.3561 2.50117 15.3561 2.56326V5.01577Q15.5734 4.67428 15.9576 4.45309Q16.3417 4.2319 16.7375 4.2319Q17.405 4.2319 17.762 4.65488Q18.119 5.07786 18.119 5.72979Z" style="display:inline;stroke:#000000;stroke-width:0.35;stroke-linecap:round;stroke-linejoin:bevel" />
        <path id="sapphire_gemstone" d="m 12.875,122.900 q 0,0.34175 -0.242534,0.63114 -0.0441,0.0524 -0.20395,0.21497 -0.187413,0.19017 -0.785481,0.81304 l -1.444183,1.51309 q -0.01929,0.003 -0.0441,0.003 -0.02756,0 -0.04134,-0.003 -0.08268,-0.0827 -0.647678,-0.67524 -0.468532,-0.47404 -0.934309,-0.94809 -0.556727,-0.56775 -0.89848,-0.98116 -0.132292,-0.15985 -0.168121,-0.29766 -0.02756,-0.10197 -0.02756,-0.34175 0,-0.11024 0.07166,-0.28939 0.06614,-0.16536 0.140559,-0.26458 0.118512,-0.1571 0.42168,-0.42444 0.283875,-0.2508 0.474044,-0.37482 0.272852,-0.17915 0.818555,-0.36656 0.09646,-0.0331 0.110243,-0.0331 h 1.3615 q 0.01102,0 0.104731,0.0331 0.567751,0.20119 0.824066,0.36656 0.165365,0.10473 0.474045,0.37758 0.322461,0.28388 0.421679,0.42168 0.214974,0.2949 0.214974,0.62563 z m -0.16812,-0.27285 q -0.03307,-0.10749 -0.135048,-0.30868 -0.07166,-0.0937 -0.209462,-0.19844 -0.118511,-0.0854 -0.234266,-0.17088 0.245291,0.3638 0.578776,0.678 z m -0.573264,-0.52366 -0.358289,-0.44648 v 0.41065 z m 0.636653,0.75792 q 0,-0.0524 -0.341753,-0.39412 l 0.228754,0.7028 h 0.04961 q 0.06339,-0.21773 0.06339,-0.30868 z m -0.23151,0.27285 -0.316948,-0.90399 -0.410655,-0.0634 -0.159853,0.61461 z m 0.0028,0.15434 -0.771701,-0.3197 h -0.03032 l 0.344509,0.60634 q 0.07993,-0.003 0.234266,-0.0469 0.02481,-0.0138 0.223242,-0.23978 z m -0.857139,-1.05006 -0.719335,0.28388 0.60358,0.22599 z m 0,-0.16261 v -0.51538 l -0.917773,-0.38034 h -1.223697 l -0.917772,0.38034 v 0.51538 l 0.89848,0.4079 h 1.254014 z m 0.573264,1.53789 q -0.0689,0.011 -0.198438,0.0524 -0.08544,0.0551 -0.259071,0.16261 0.01929,0 0.06339,0.003 0.04134,0 0.06339,0 0.118511,0 0.190169,-0.0689 0.07166,-0.0717 0.14056,-0.14883 z m -0.289388,0.003 -0.347266,-0.63114 -0.363801,0.87918 q 0.0248,-0.0165 0.06615,-0.0165 0.03032,0 0.08544,0.011 0.05788,0.008 0.08819,0.008 0.04961,0 0.228754,-0.10749 0.228754,-0.1378 0.242535,-0.14331 z m -0.440972,-0.74139 -0.683507,-0.2756 -0.592556,0.54845 0.903993,0.65595 z m -0.854383,-0.28387 h -1.036284 l 0.523654,0.47404 z m 0.749652,1.36701 q -0.228754,-0.0303 -0.228754,-0.0303 -0.03583,0 -0.272851,0.0937 l 0.190169,0.0193 q 0.01102,0 0.311436,-0.0827 z m -0.388606,-0.0882 -0.843359,-0.61185 v 0.67524 l 0.471289,0.0827 z m 0.854383,0.0496 q -0.09922,0.006 -0.2949,0.0386 -0.01102,0.003 -0.377583,0.17639 -0.129535,0.34726 -0.380338,1.0418 z m -2.543857,-1.39733 -0.719335,-0.28388 0.124023,0.51814 z m -0.802018,-0.45476 v -0.41065 l -0.366557,0.44648 z m 1.515841,1.07212 -0.592556,-0.54019 -0.683506,0.2756 0.380338,0.9288 z m 0.369314,0.94257 q -0.03307,-0.003 -0.135047,-0.0248 -0.08544,-0.0165 -0.137804,-0.0165 -0.05237,0 -0.137804,0.0165 -0.101975,0.0221 -0.135047,0.0248 0.264583,0.0469 0.272851,0.0469 0.0083,0 0.272851,-0.0469 z m -0.30868,-0.1378 v -0.68626 l -0.843359,0.61185 0.37207,0.14607 z m 0.950846,0.20671 -0.396875,-0.0551 -0.479557,0.14056 v 1.27607 z m -2.888366,-2.20211 q -0.118512,0.0854 -0.234267,0.17364 -0.146072,0.10748 -0.209461,0.19568 -0.0441,0.10473 -0.135048,0.31419 0.369314,-0.3638 0.578776,-0.68351 z m 0.476801,0.83234 -0.159853,-0.61461 -0.410655,0.0634 -0.316948,0.90399 z m 0.394118,1.08313 -0.363802,-0.87918 -0.355533,0.63114 q 0.43546,0.2508 0.451996,0.2508 0.09095,0 0.267339,-0.003 z m 1.821765,0.82958 q -0.132291,0.21222 -0.405143,0.6339 -0.07717,0.10749 -0.220486,0.32797 -0.05788,0.10473 -0.05512,0.226 0.159852,-0.15158 0.432704,-0.49609 0.07717,-0.12954 0.140559,-0.339 0.05512,-0.17639 0.107486,-0.35278 z m -1.493792,-0.66146 -0.270095,-0.0882 -0.0083,-0.011 q -0.02481,0 -0.107487,0.011 -0.06615,0.006 -0.107487,0.006 0.272851,0.091 0.311436,0.091 0.02481,0 0.181901,-0.008 z m -0.810286,-1.06384 h -0.03032 l -0.7717,0.3197 q 0.06615,0.0965 0.223242,0.23978 0.07717,0.0138 0.234266,0.0469 z m -0.689018,-0.50161 q -0.341754,0.34727 -0.341754,0.39412 0,0.0799 0.06339,0.30868 h 0.04961 z m 2.235176,3.04547 v -1.27607 l -0.479557,-0.14056 -0.396875,0.0551 z m -1.606791,-1.6757 q -0.256315,-0.1819 -0.457509,-0.22324 0.06615,0.0772 0.20395,0.22324 z m 1.609547,2.04501 v -0.1378 l -0.683507,-1.05007 q 0.05237,0.17639 0.107487,0.35278 0.06339,0.20946 0.14056,0.339 0.0689,0.11851 0.20395,0.25907 0.115755,0.11851 0.23151,0.23702 z m -0.644921,-0.70555 q -0.115756,-0.32798 -0.380339,-1.0418 -0.135047,-0.0662 -0.272851,-0.12954 -0.159852,-0.0716 -0.289388,-0.0716 -0.05237,0 -0.110243,-0.0138 z" style="stroke-width:0;fill:#0000ff;stroke:#2e2114;stroke-linecap:square;stroke-opacity:1" />
        <path d="M5.0165 23.7137Q4.99533 23.6925 4.99533 23.6608Q4.99533 23.6326 5.02003 23.6061Q5.04472 23.5796 5.07294 23.5796Q5.10469 23.5796 5.13292 23.6114Q5.2705 23.7737 5.45924 23.8583Q5.64797 23.943 5.85611 23.943Q6.12775 23.943 6.30414 23.8125Q6.48053 23.6819 6.48053 23.4667Q6.477 23.2974 6.38881 23.1881Q6.30061 23.0787 6.17185 23.0134Q6.04308 22.9482 5.82083 22.867Q5.57742 22.7753 5.4416 22.7047Q5.30578 22.6342 5.20876 22.5037Q5.11175 22.3731 5.11175 22.1615Q5.11175 21.9886 5.207 21.8475Q5.30225 21.7064 5.47864 21.6252Q5.65503 21.5441 5.88786 21.5441Q6.096 21.5441 6.28297 21.62Q6.46994 21.6958 6.57931 21.8334Q6.61458 21.8828 6.61458 21.9075Q6.61458 21.9357 6.58813 21.9586Q6.56167 21.9816 6.52992 21.9816Q6.50169 21.9816 6.48406 21.9604Q6.38528 21.8334 6.23006 21.7593Q6.07483 21.6852 5.88786 21.6852Q5.61975 21.6852 5.4416 21.8122Q5.26344 21.9392 5.26344 22.1579Q5.26344 22.3096 5.34988 22.4155Q5.43631 22.5213 5.56683 22.5866Q5.69736 22.6518 5.89139 22.7224Q6.13833 22.8106 6.28297 22.8847Q6.42761 22.9587 6.52992 23.0999Q6.63222 23.241 6.63222 23.4738Q6.63222 23.6361 6.53697 23.7772Q6.44172 23.9183 6.26357 24.0012Q6.08542 24.0841 5.85611 24.0841Q5.59506 24.0841 5.40103 23.9942Q5.207 23.9042 5.0165 23.7137ZM8.74889 22.2532Q8.74889 22.4507 8.66599 22.6113Q8.58308 22.7718 8.43139 22.8617Q8.27969 22.9517 8.08214 22.9517H7.31308V23.9783Q7.31308 24.0065 7.29015 24.0277Q7.26722 24.0488 7.239 24.0488Q7.20725 24.0488 7.18608 24.0277Q7.16492 24.0065 7.16492 23.9783V21.6499Q7.16492 21.6217 7.18608 21.6006Q7.20725 21.5794 7.23547 21.5794H8.08214Q8.382 21.5794 8.56544 21.7664Q8.74889 21.9533 8.74889 22.2532ZM8.60072 22.2532Q8.60072 22.0098 8.46138 21.8651Q8.32203 21.7205 8.08214 21.7205H7.31308V22.8106H8.08214Q8.3185 22.8106 8.45961 22.6536Q8.60072 22.4966 8.60072 22.2532ZM10.7315 23.9783Q10.7315 24.01 10.7103 24.0294Q10.6892 24.0488 10.6609 24.0488H9.33097Q9.30275 24.0488 9.28158 24.0277Q9.26042 24.0065 9.26042 23.9783V21.6499Q9.26042 21.6217 9.28158 21.6006Q9.30275 21.5794 9.33097 21.5794H10.6609Q10.6892 21.5794 10.7103 21.6006Q10.7315 21.6217 10.7315 21.6499Q10.7315 21.6817 10.7103 21.7011Q10.6892 21.7205 10.6609 21.7205H9.40858V22.7047H10.5022Q10.5304 22.7047 10.5516 22.7259Q10.5728 22.7471 10.5728 22.7753Q10.5728 22.8071 10.5516 22.8265Q10.5304 22.8459 10.5022 22.8459H9.40858V23.9077H10.6609Q10.6892 23.9077 10.7103 23.9289Q10.7315 23.9501 10.7315 23.9783ZM12.7317 23.9783Q12.7317 24.01 12.7106 24.0294Q12.6894 24.0488 12.6612 24.0488H11.3312Q11.303 24.0488 11.2818 24.0277Q11.2607 24.0065 11.2607 23.9783V21.6499Q11.2607 21.6217 11.2818 21.6006Q11.303 21.5794 11.3312 21.5794H12.6612Q12.6894 21.5794 12.7106 21.6006Q12.7317 21.6217 12.7317 21.6499Q12.7317 21.6817 12.7106 21.7011Q12.6894 21.7205 12.6612 21.7205H11.4088V22.7047H12.5024Q12.5307 22.7047 12.5518 22.7259Q12.573 22.7471 12.573 22.7753Q12.573 22.8071 12.5518 22.8265Q12.5307 22.8459 12.5024 22.8459H11.4088V23.9077H12.6612Q12.6894 23.9077 12.7106 23.9289Q12.7317 23.9501 12.7317 23.9783ZM15.2718 22.8141Q15.2718 23.1634 15.1606 23.4421Q15.0495 23.7207 14.8202 23.8848Q14.5909 24.0488 14.2487 24.0488H13.3315Q13.3033 24.0488 13.2821 24.0277Q13.2609 24.0065 13.2609 23.9783V21.6499Q13.2609 21.6217 13.2821 21.6006Q13.3033 21.5794 13.3315 21.5794H14.2487Q14.5874 21.5794 14.8184 21.7487Q15.0495 21.9181 15.1606 22.1985Q15.2718 22.479 15.2718 22.8141ZM15.1236 22.8141Q15.1236 22.5142 15.0266 22.2655Q14.9296 22.0168 14.7267 21.8687Q14.5239 21.7205 14.2134 21.7205H13.4091V23.9077H14.2134Q14.672 23.9077 14.8978 23.6061Q15.1236 23.3045 15.1236 22.8141Z" style="stroke:#000000;stroke-width:0.25;stroke-linecap:round;stroke-linejoin:bevel" />
        <path d="M 10.16,32.00 L 5.16,43.00 z L 15.16,43.00 z " style="stroke:#000000;stroke-width:0.1;stroke-linecap:round;stroke-linejoin:bevel;stroke-dasharray:none" />
        <path d="M6.94267 52.1783Q6.94267 52.21 6.9215 52.2294Q6.90033 52.2488 6.87211 52.2488H5.57742Q5.54567 52.2488 5.52626 52.2277Q5.50686 52.2065 5.50686 52.1783V49.8499Q5.50686 49.8217 5.52803 49.8006Q5.54919 49.7794 5.58094 49.7794Q5.61269 49.7794 5.63386 49.8006Q5.65503 49.8217 5.65503 49.8499V52.1077H6.87211Q6.90033 52.1077 6.9215 52.1289Q6.94267 52.1501 6.94267 52.1783ZM8.81944 52.1783Q8.81944 52.21 8.79828 52.2294Q8.77711 52.2488 8.74889 52.2488H7.41892Q7.39069 52.2488 7.36953 52.2277Q7.34836 52.2065 7.34836 52.1783V49.8499Q7.34836 49.8217 7.36953 49.8006Q7.39069 49.7794 7.41892 49.7794H8.74889Q8.77711 49.7794 8.79828 49.8006Q8.81944 49.8217 8.81944 49.8499Q8.81944 49.8817 8.79828 49.9011Q8.77711 49.9205 8.74889 49.9205H7.49653V50.9047H8.59014Q8.61836 50.9047 8.63953 50.9259Q8.66069 50.9471 8.66069 50.9753Q8.66069 51.0071 8.63953 51.0265Q8.61836 51.0459 8.59014 51.0459H7.49653V52.1077H8.74889Q8.77711 52.1077 8.79828 52.1289Q8.81944 52.1501 8.81944 52.1783ZM11.2007 49.8429Q11.2007 49.857 11.1936 49.8782L10.227 52.203Q10.2059 52.2488 10.16 52.2488Q10.1388 52.2488 10.1194 52.2365Q10.1 52.2241 10.093 52.203L9.13342 49.8887Q9.12283 49.8676 9.12283 49.8464Q9.12283 49.8182 9.14224 49.7988Q9.16164 49.7794 9.18986 49.7794Q9.24278 49.7794 9.26747 49.8358L10.1635 51.9913L11.0631 49.8252Q11.0878 49.7794 11.1301 49.7794Q11.1619 49.7794 11.1813 49.797Q11.2007 49.8147 11.2007 49.8429ZM13.148 52.1783Q13.148 52.21 13.1269 52.2294Q13.1057 52.2488 13.0775 52.2488H11.7475Q11.7193 52.2488 11.6981 52.2277Q11.6769 52.2065 11.6769 52.1783V49.8499Q11.6769 49.8217 11.6981 49.8006Q11.7193 49.7794 11.7475 49.7794H13.0775Q13.1057 49.7794 13.1269 49.8006Q13.148 49.8217 13.148 49.8499Q13.148 49.8817 13.1269 49.9011Q13.1057 49.9205 13.0775 49.9205H11.8251V50.9047H12.9187Q12.9469 50.9047 12.9681 50.9259Q12.9893 50.9471 12.9893 50.9753Q12.9893 51.0071 12.9681 51.0265Q12.9469 51.0459 12.9187 51.0459H11.8251V52.1077H13.0775Q13.1057 52.1077 13.1269 52.1289Q13.148 52.1501 13.148 52.1783ZM15.113 52.1783Q15.113 52.21 15.0918 52.2294Q15.0707 52.2488 15.0424 52.2488H13.7477Q13.716 52.2488 13.6966 52.2277Q13.6772 52.2065 13.6772 52.1783V49.8499Q13.6772 49.8217 13.6984 49.8006Q13.7195 49.7794 13.7513 49.7794Q13.783 49.7794 13.8042 49.8006Q13.8254 49.8217 13.8254 49.8499V52.1077H15.0424Q15.0707 52.1077 15.0918 52.1289Q15.113 52.1501 15.113 52.1783Z" style="stroke:#000000;stroke-width:0.25;stroke-linecap:round;stroke-linejoin:bevel" />
        <path d="M 5.16,57.00 L 15.16,57.00 z " style="stroke:#000000;stroke-width:0.1;stroke-linecap:round;stroke-linejoin:bevel;stroke-dasharray:none" />
        <path d="M5.70265 65.0404Q5.70265 65.0687 5.68854 65.0863Q5.66737 65.1145 5.63563 65.1145Q5.62151 65.1145 5.59329 65.1004Q5.26521 64.8782 4.89832 64.8782Q4.60199 64.8782 4.35328 65.0246Q4.10457 65.171 3.95993 65.4303Q3.81529 65.6896 3.81529 66.0141Q3.81529 66.3387 3.95993 66.598Q4.10457 66.8573 4.35328 67.0037Q4.60199 67.1501 4.89832 67.1501Q5.26874 67.1501 5.58976 66.9313Q5.6074 66.9172 5.6321 66.9172Q5.66737 66.9172 5.68854 66.9454Q5.70265 66.9631 5.70265 66.9878Q5.70265 67.0231 5.67443 67.0442Q5.53685 67.143 5.31989 67.2136Q5.10293 67.2841 4.89832 67.2841Q4.56318 67.2841 4.28096 67.1183Q3.99874 66.9525 3.83293 66.6615Q3.66713 66.3704 3.66713 66.0141Q3.66713 65.6578 3.83293 65.3668Q3.99874 65.0757 4.28096 64.9099Q4.56318 64.7441 4.89832 64.7441Q5.10999 64.7441 5.30931 64.8076Q5.50863 64.8711 5.6709 64.984Q5.70265 65.0087 5.70265 65.0404ZM7.64999 67.1783Q7.64999 67.21 7.62882 67.2294Q7.60765 67.2488 7.57943 67.2488H6.24946Q6.22124 67.2488 6.20007 67.2277Q6.1789 67.2065 6.1789 67.1783V64.8499Q6.1789 64.8217 6.20007 64.8006Q6.22124 64.7794 6.24946 64.7794H7.57943Q7.60765 64.7794 7.62882 64.8006Q7.64999 64.8217 7.64999 64.8499Q7.64999 64.8817 7.62882 64.9011Q7.60765 64.9205 7.57943 64.9205H6.32707V65.9048H7.42068Q7.4489 65.9048 7.47007 65.9259Q7.49124 65.9471 7.49124 65.9753Q7.49124 66.0071 7.47007 66.0265Q7.4489 66.0459 7.42068 66.0459H6.32707V67.1077H7.57943Q7.60765 67.1077 7.62882 67.1289Q7.64999 67.1501 7.64999 67.1783ZM10.0312 64.8464V67.1712Q10.0312 67.21 10.0101 67.2294Q9.9889 67.2488 9.95715 67.2488Q9.92188 67.2488 9.90071 67.2206L8.31321 65.051V67.1889Q8.31321 67.2136 8.29381 67.2312Q8.2744 67.2488 8.24618 67.2488Q8.21443 67.2488 8.19679 67.2312Q8.17915 67.2136 8.17915 67.1889V64.8499Q8.17915 64.8147 8.19856 64.797Q8.21796 64.7794 8.24265 64.7794Q8.2744 64.7794 8.29557 64.8041L9.89718 66.9878V64.8464Q9.89718 64.8182 9.91658 64.7988Q9.93599 64.7794 9.96421 64.7794Q9.99596 64.7794 10.0136 64.7988Q10.0312 64.8182 10.0312 64.8464ZM12.3631 64.8464Q12.3631 64.8782 12.3437 64.8958Q12.3243 64.9134 12.2925 64.9134H11.5058V67.1783Q11.5058 67.2065 11.4847 67.2277Q11.4635 67.2488 11.4353 67.2488Q11.4035 67.2488 11.3841 67.2277Q11.3647 67.2065 11.3647 67.1783V64.9134H10.578Q10.5498 64.9134 10.5287 64.894Q10.5075 64.8746 10.5075 64.8464Q10.5075 64.8182 10.5287 64.7988Q10.5498 64.7794 10.578 64.7794H12.2925Q12.3208 64.7794 12.3419 64.7988Q12.3631 64.8182 12.3631 64.8464ZM14.3104 67.1783Q14.3104 67.21 14.2893 67.2294Q14.2681 67.2488 14.2399 67.2488H12.9099Q12.8817 67.2488 12.8605 67.2277Q12.8393 67.2065 12.8393 67.1783V64.8499Q12.8393 64.8217 12.8605 64.8006Q12.8817 64.7794 12.9099 64.7794H14.2399Q14.2681 64.7794 14.2893 64.8006Q14.3104 64.8217 14.3104 64.8499Q14.3104 64.8817 14.2893 64.9011Q14.2681 64.9205 14.2399 64.9205H12.9875V65.9048H14.0811Q14.1093 65.9048 14.1305 65.9259Q14.1517 65.9471 14.1517 65.9753Q14.1517 66.0071 14.1305 66.0265Q14.1093 66.0459 14.0811 66.0459H12.9875V67.1077H14.2399Q14.2681 67.1077 14.2893 67.1289Q14.3104 67.1501 14.3104 67.1783ZM16.6352 67.1748Q16.6352 67.2065 16.6158 67.2259Q16.5964 67.2453 16.5682 67.2453Q16.547 67.2453 16.5365 67.2383Q16.4412 67.1853 16.3848 67.0601Q16.3283 66.9349 16.3283 66.6491Q16.3283 66.3598 16.1731 66.2522Q16.0179 66.1446 15.8133 66.1446H14.9878V67.1783Q14.9878 67.2065 14.9666 67.2277Q14.9454 67.2488 14.9137 67.2488Q14.8819 67.2488 14.8608 67.2277Q14.8396 67.2065 14.8396 67.1783V64.8499Q14.8396 64.8217 14.8608 64.8006Q14.8819 64.7794 14.9102 64.7794H15.8415Q16.0461 64.7794 16.2048 64.8623Q16.3636 64.9452 16.4518 65.0898Q16.54 65.2345 16.54 65.4179Q16.54 65.6543 16.4147 65.8236Q16.2895 65.9929 16.0884 66.0529Q16.2578 66.1058 16.3671 66.2628Q16.4765 66.4198 16.4765 66.6491Q16.4765 66.8855 16.5065 66.979Q16.5365 67.0724 16.5964 67.1112Q16.6352 67.1359 16.6352 67.1748ZM15.8591 66.0035Q16.0814 65.9824 16.2366 65.8271Q16.3918 65.6719 16.3918 65.4214Q16.3918 65.2027 16.2366 65.0616Q16.0814 64.9205 15.8238 64.9205H14.9878V66.0035Z" style="stroke:#000000;stroke-width:0.25;stroke-linecap:round;stroke-linejoin:bevel" />
        <path d="M 5.16,72.00 L 15.16,72.00 z " style="stroke:#000000;stroke-width:0.1;stroke-linecap:round;stroke-linejoin:bevel;stroke-dasharray:none" />
        <path d="M7.73642 79.8394 7.72936 79.8746 6.9215 82.203Q6.91444 82.2241 6.89504 82.2365Q6.87564 82.2488 6.858 82.2488Q6.80156 82.2488 6.78744 82.2065L6.14186 80.5767L5.49628 82.2065Q5.47864 82.2488 5.42219 82.2488Q5.40103 82.2488 5.38339 82.2365Q5.36575 82.2241 5.36222 82.203L4.55436 79.8746L4.54731 79.8429Q4.54731 79.8111 4.572 79.7917Q4.59669 79.7723 4.62492 79.7723Q4.64608 79.7723 4.66549 79.7847Q4.68489 79.797 4.69194 79.8182L5.43983 81.9772L6.07483 80.3721Q6.09247 80.3262 6.14186 80.3262Q6.16303 80.3262 6.18243 80.3385Q6.20183 80.3509 6.20889 80.3721L6.84742 81.9807L7.59178 79.8182Q7.60942 79.7723 7.66233 79.7723Q7.69408 79.7723 7.71525 79.79Q7.73642 79.8076 7.73642 79.8394ZM8.28675 82.2488Q8.25147 82.2488 8.23207 82.2277Q8.21267 82.2065 8.21267 82.1748V79.8535Q8.21267 79.8217 8.23383 79.8006Q8.255 79.7794 8.28675 79.7794Q8.3185 79.7794 8.33967 79.8006Q8.36083 79.8217 8.36083 79.8535V82.1748Q8.35731 82.2065 8.33614 82.2277Q8.31497 82.2488 8.28675 82.2488ZM11.0772 81.0141Q11.0772 81.3634 10.9661 81.6421Q10.855 81.9207 10.6257 82.0848Q10.3964 82.2488 10.0542 82.2488H9.13694Q9.10872 82.2488 9.08756 82.2277Q9.06639 82.2065 9.06639 82.1783V79.8499Q9.06639 79.8217 9.08756 79.8006Q9.10872 79.7794 9.13694 79.7794H10.0542Q10.3928 79.7794 10.6239 79.9487Q10.855 80.1181 10.9661 80.3985Q11.0772 80.679 11.0772 81.0141ZM10.9291 81.0141Q10.9291 80.7143 10.832 80.4655Q10.735 80.2168 10.5322 80.0687Q10.3293 79.9205 10.0189 79.9205H9.21456V82.1077H10.0189Q10.4775 82.1077 10.7033 81.8061Q10.9291 81.5045 10.9291 81.0141ZM13.2327 79.8464Q13.2327 79.8782 13.2133 79.8958Q13.1939 79.9134 13.1621 79.9134H12.3754V82.1783Q12.3754 82.2065 12.3543 82.2277Q12.3331 82.2488 12.3049 82.2488Q12.2731 82.2488 12.2537 82.2277Q12.2343 82.2065 12.2343 82.1783V79.9134H11.4476Q11.4194 79.9134 11.3983 79.894Q11.3771 79.8746 11.3771 79.8464Q11.3771 79.8182 11.3983 79.7988Q11.4194 79.7794 11.4476 79.7794H13.1621Q13.1904 79.7794 13.2115 79.7988Q13.2327 79.8182 13.2327 79.8464ZM15.5434 79.8535V82.1748Q15.5399 82.2065 15.5187 82.2277Q15.4975 82.2488 15.4693 82.2488Q15.434 82.2488 15.4146 82.2277Q15.3952 82.2065 15.3952 82.1748V81.0494H13.8571V82.1748Q13.8536 82.2065 13.8324 82.2277Q13.8113 82.2488 13.783 82.2488Q13.7478 82.2488 13.7283 82.2277Q13.7089 82.2065 13.7089 82.1748V79.8535Q13.7089 79.8217 13.7301 79.8006Q13.7513 79.7794 13.783 79.7794Q13.8148 79.7794 13.8359 79.8006Q13.8571 79.8217 13.8571 79.8535V80.9083H15.3952V79.8535Q15.3952 79.8217 15.4164 79.8006Q15.4376 79.7794 15.4693 79.7794Q15.5011 79.7794 15.5222 79.8006Q15.5434 79.8217 15.5434 79.8535Z" style="stroke:#000000;stroke-width:0.25;stroke-linecap:round;stroke-linejoin:bevel" />
        <path d="M 5.16,87.00 L 15.16,87.00 z " style="stroke:#000000;stroke-width:0.1;stroke-linecap:round;stroke-linejoin:bevel;stroke-dasharray:none" />
        <path d="M5.66738 96.0141Q5.66738 96.3634 5.55625 96.6421Q5.44513 96.9207 5.21582 97.0848Q4.98651 97.2488 4.64432 97.2488H3.7271Q3.69888 97.2488 3.67771 97.2277Q3.65654 97.2065 3.65654 97.1783V94.8499Q3.65654 94.8217 3.67771 94.8006Q3.69888 94.7794 3.7271 94.7794H4.64432Q4.98299 94.7794 5.21406 94.9487Q5.44513 95.1181 5.55625 95.3985Q5.66738 95.679 5.66738 96.0141ZM5.51921 96.0141Q5.51921 95.7143 5.42219 95.4655Q5.32518 95.2168 5.12233 95.0687Q4.91949 94.9205 4.60904 94.9205H3.80471V97.1077H4.60904Q5.06765 97.1077 5.29343 96.8061Q5.51921 96.5045 5.51921 96.0141ZM6.27063 97.2488Q6.23535 97.2488 6.21594 97.2277Q6.19654 97.2065 6.19654 97.1748V94.8535Q6.19654 94.8217 6.21771 94.8006Q6.23888 94.7794 6.27063 94.7794Q6.30238 94.7794 6.32354 94.8006Q6.34471 94.8217 6.34471 94.8535V97.1748Q6.34118 97.2065 6.32001 97.2277Q6.29885 97.2488 6.27063 97.2488ZM6.84213 96.9137Q6.82096 96.8925 6.82096 96.8608Q6.82096 96.8326 6.84565 96.8061Q6.87035 96.7796 6.89857 96.7796Q6.93032 96.7796 6.95854 96.8114Q7.09613 96.9737 7.28486 97.0583Q7.4736 97.143 7.68174 97.143Q7.95338 97.143 8.12976 97.0125Q8.30615 96.8819 8.30615 96.6668Q8.30263 96.4974 8.21443 96.3881Q8.12624 96.2787 7.99747 96.2134Q7.86871 96.1482 7.64646 96.067Q7.40304 95.9753 7.26722 95.9048Q7.1314 95.8342 7.03439 95.7037Q6.93738 95.5731 6.93738 95.3615Q6.93738 95.1886 7.03263 95.0475Q7.12788 94.9064 7.30426 94.8253Q7.48065 94.7441 7.71349 94.7441Q7.92163 94.7441 8.1086 94.82Q8.29557 94.8958 8.40493 95.0334Q8.44021 95.0828 8.44021 95.1075Q8.44021 95.1357 8.41375 95.1586Q8.38729 95.1816 8.35554 95.1816Q8.32732 95.1816 8.30968 95.1604Q8.2109 95.0334 8.05568 94.9593Q7.90046 94.8852 7.71349 94.8852Q7.44538 94.8852 7.26722 95.0122Q7.08907 95.1392 7.08907 95.3579Q7.08907 95.5096 7.1755 95.6155Q7.26193 95.7213 7.39246 95.7866Q7.52299 95.8518 7.71701 95.9224Q7.96396 96.0106 8.1086 96.0847Q8.25324 96.1587 8.35554 96.2999Q8.45785 96.441 8.45785 96.6738Q8.45785 96.8361 8.3626 96.9772Q8.26735 97.1183 8.08919 97.2012Q7.91104 97.2841 7.68174 97.2841Q7.42068 97.2841 7.22665 97.1942Q7.03263 97.1042 6.84213 96.9137ZM10.5745 95.4532Q10.5745 95.6508 10.4916 95.8113Q10.4087 95.9718 10.257 96.0617Q10.1053 96.1517 9.90776 96.1517H9.13871V97.1783Q9.13871 97.2065 9.11578 97.2277Q9.09285 97.2488 9.06462 97.2488Q9.03288 97.2488 9.01171 97.2277Q8.99054 97.2065 8.99054 97.1783V94.8499Q8.99054 94.8217 9.01171 94.8006Q9.03288 94.7794 9.0611 94.7794H9.90776Q10.2076 94.7794 10.3911 94.9664Q10.5745 95.1533 10.5745 95.4532ZM10.4263 95.4532Q10.4263 95.2098 10.287 95.0651Q10.1477 94.9205 9.90776 94.9205H9.13871V96.0106H9.90776Q10.1441 96.0106 10.2852 95.8536Q10.4263 95.6966 10.4263 95.4532ZM12.5571 97.1783Q12.5571 97.21 12.536 97.2294Q12.5148 97.2488 12.4866 97.2488H11.1566Q11.1284 97.2488 11.1072 97.2277Q11.086 97.2065 11.086 97.1783V94.8499Q11.086 94.8217 11.1072 94.8006Q11.1284 94.7794 11.1566 94.7794H12.4866Q12.5148 94.7794 12.536 94.8006Q12.5571 94.8217 12.5571 94.8499Q12.5571 94.8817 12.536 94.9011Q12.5148 94.9205 12.4866 94.9205H11.2342V95.9048H12.3278Q12.356 95.9048 12.3772 95.9259Q12.3984 95.9471 12.3984 95.9753Q12.3984 96.0071 12.3772 96.0265Q12.356 96.0459 12.3278 96.0459H11.2342V97.1077H12.4866Q12.5148 97.1077 12.536 97.1289Q12.5571 97.1501 12.5571 97.1783ZM14.8819 97.1748Q14.8819 97.2065 14.8625 97.2259Q14.8431 97.2453 14.8149 97.2453Q14.7937 97.2453 14.7832 97.2383Q14.6879 97.1853 14.6315 97.0601Q14.575 96.9349 14.575 96.6491Q14.575 96.3598 14.4198 96.2522Q14.2646 96.1446 14.06 96.1446H13.2345V97.1783Q13.2345 97.2065 13.2133 97.2277Q13.1921 97.2488 13.1604 97.2488Q13.1286 97.2488 13.1075 97.2277Q13.0863 97.2065 13.0863 97.1783V94.8499Q13.0863 94.8217 13.1075 94.8006Q13.1286 94.7794 13.1568 94.7794H14.0882Q14.2928 94.7794 14.4515 94.8623Q14.6103 94.9452 14.6985 95.0898Q14.7867 95.2345 14.7867 95.4179Q14.7867 95.6543 14.6614 95.8236Q14.5362 95.9929 14.3351 96.0529Q14.5045 96.1058 14.6138 96.2628Q14.7232 96.4198 14.7232 96.6491Q14.7232 96.8855 14.7532 96.979Q14.7832 97.0724 14.8431 97.1112Q14.8819 97.1359 14.8819 97.1748ZM14.1058 96.0035Q14.3281 95.9824 14.4833 95.8271Q14.6385 95.6719 14.6385 95.4214Q14.6385 95.2027 14.4833 95.0616Q14.3281 94.9205 14.0705 94.9205H13.2345V96.0035ZM15.2206 96.9137Q15.1994 96.8925 15.1994 96.8608Q15.1994 96.8326 15.2241 96.8061Q15.2488 96.7796 15.277 96.7796Q15.3088 96.7796 15.337 96.8114Q15.4746 96.9737 15.6633 97.0583Q15.8521 97.143 16.0602 97.143Q16.3318 97.143 16.5082 97.0125Q16.6846 96.8819 16.6846 96.6668Q16.6811 96.4974 16.5929 96.3881Q16.5047 96.2787 16.3759 96.2134Q16.2472 96.1482 16.0249 96.067Q15.7815 95.9753 15.6457 95.9048Q15.5099 95.8342 15.4129 95.7037Q15.3158 95.5731 15.3158 95.3615Q15.3158 95.1886 15.4111 95.0475Q15.5063 94.9064 15.6827 94.8253Q15.8591 94.7441 16.092 94.7441Q16.3001 94.7441 16.4871 94.82Q16.674 94.8958 16.7834 95.0334Q16.8187 95.0828 16.8187 95.1075Q16.8187 95.1357 16.7922 95.1586Q16.7658 95.1816 16.734 95.1816Q16.7058 95.1816 16.6882 95.1604Q16.5894 95.0334 16.4342 94.9593Q16.2789 94.8852 16.092 94.8852Q15.8238 94.8852 15.6457 95.0122Q15.4675 95.1392 15.4675 95.3579Q15.4675 95.5096 15.554 95.6155Q15.6404 95.7213 15.7709 95.7866Q15.9015 95.8518 16.0955 95.9224Q16.3424 96.0106 16.4871 96.0847Q16.6317 96.1587 16.734 96.2999Q16.8363 96.441 16.8363 96.6738Q16.8363 96.8361 16.7411 96.9772Q16.6458 97.1183 16.4677 97.2012Q16.2895 97.2841 16.0602 97.2841Q15.7992 97.2841 15.6051 97.1942Q15.4111 97.1042 15.2206 96.9137Z" style="stroke:#000000;stroke-width:0.25;stroke-linecap:round;stroke-linejoin:bevel" />
        <path d="M 5.16,102.00 L 15.16,102.00 z " style="stroke:#000000;stroke-width:0.1;stroke-linecap:round;stroke-linejoin:bevel;stroke-dasharray:none" />
    </g>
</svg>
