<?xml version="1.0" encoding="utf-8"?>
<svg xmlns="http://www.w3.org/2000/svg" width="60.96mm" height="128.50mm" viewBox="0 0 60.96 128.50">
    <g id="PanelLayer">
        <rect id="border_rect" width="60.96" height="128.5" x="0" y="0" style="display:inline;fill:#4f8df2;fill-opacity:1;fill-rule:nonzero;stroke:#5021d4;stroke-width:0.7;stroke-linecap:round;stroke-linejoin:round;stroke-dasharray:none;stroke-opacity:1;image-rendering:auto" />
        <g id="sapphire_insignia">
            <path id="brand_name" d="M15.5864 124.775Q15.5864 124.721 15.6485 124.674Q15.6873 124.636 15.7417 124.636Q15.8193 124.636 15.8658 124.698Q16.316 125.342 17.1231 125.342Q17.5345 125.342 17.8449 125.136Q18.1554 124.93 18.1554 124.581Q18.1554 124.224 17.8837 124.046Q17.6121 123.867 17.1387 123.751Q16.51 123.596 16.1491 123.336Q15.7882 123.076 15.7882 122.602Q15.7882 122.144 16.153 121.845Q16.5178 121.547 17.0921 121.547Q17.4103 121.547 17.7246 121.671Q18.0389 121.795 18.2951 122.067Q18.3494 122.113 18.3494 122.175Q18.3494 122.245 18.2951 122.299Q18.233 122.331 18.1942 122.331Q18.1398 122.331 18.101 122.284Q17.6975 121.842 17.061 121.842Q16.6497 121.842 16.3664 122.043Q16.0831 122.245 16.0831 122.602Q16.1064 122.936 16.3897 123.118Q16.673 123.301 17.224 123.44Q17.6198 123.541 17.8798 123.662Q18.1398 123.782 18.2951 123.999Q18.4503 124.216 18.4503 124.566Q18.4503 125.055 18.0739 125.338Q17.6975 125.621 17.0921 125.621Q16.2073 125.621 15.6408 124.923Q15.5864 124.837 15.5864 124.775ZM22.7965 121.826V125.388Q22.7965 125.45 22.7499 125.497Q22.7034 125.544 22.6413 125.544Q22.5714 125.544 22.5287 125.497Q22.4861 125.45 22.4861 125.388V124.69Q22.292 125.086 21.8885 125.353Q21.4849 125.621 20.9959 125.621Q20.4837 125.621 20.0724 125.353Q19.661 125.086 19.4282 124.616Q19.1953 124.147 19.1953 123.565Q19.1953 122.99 19.4321 122.528Q19.6688 122.067 20.0801 121.807Q20.4915 121.547 20.9959 121.547Q21.5004 121.547 21.904 121.811Q22.3076 122.074 22.4861 122.517V121.826Q22.4861 121.764 22.5287 121.717Q22.5714 121.671 22.6413 121.671Q22.7111 121.671 22.7538 121.717Q22.7965 121.764 22.7965 121.826ZM22.5171 123.565Q22.5171 123.091 22.3231 122.695Q22.129 122.299 21.7837 122.071Q21.4383 121.842 21.0114 121.842Q20.5846 121.842 20.2392 122.063Q19.8938 122.284 19.6998 122.676Q19.5058 123.068 19.5058 123.565Q19.5058 124.061 19.6998 124.465Q19.8938 124.868 20.2353 125.097Q20.5768 125.326 21.0114 125.326Q21.4383 125.326 21.7837 125.097Q22.129 124.868 22.3231 124.465Q22.5171 124.061 22.5171 123.565ZM27.686 123.603Q27.686 124.162 27.4493 124.616Q27.2126 125.07 26.8012 125.33Q26.3899 125.59 25.8854 125.59Q25.4198 125.59 25.0317 125.357Q24.6436 125.125 24.3953 124.698V126.941Q24.3953 127.003 24.3526 127.049Q24.3099 127.096 24.2401 127.096Q24.178 127.096 24.1314 127.049Q24.0848 127.003 24.0848 126.941V121.779Q24.0848 121.717 24.1275 121.671Q24.1702 121.624 24.2401 121.624Q24.3099 121.624 24.3526 121.671Q24.3953 121.717 24.3953 121.779V122.493Q24.6281 122.051 25.0162 121.838Q25.4042 121.624 25.8854 121.624Q26.3977 121.624 26.809 121.88Q27.2203 122.136 27.4532 122.587Q27.686 123.037 27.686 123.603ZM27.3756 123.603Q27.3756 123.122 27.1776 122.738Q26.9797 122.354 26.6383 122.136Q26.2968 121.919 25.8699 121.919Q25.4353 121.919 25.0899 122.133Q24.7445 122.346 24.5544 122.73Q24.3642 123.114 24.3642 123.603Q24.3642 124.092 24.5544 124.476Q24.7445 124.861 25.0899 125.078Q25.4353 125.295 25.8699 125.295Q26.2968 125.295 26.6383 125.078Q26.9797 124.861 27.1776 124.473Q27.3756 124.085 27.3756 123.603ZM32.3039 123.603Q32.3039 124.162 32.0671 124.616Q31.8304 125.07 31.4191 125.33Q31.0078 125.59 30.5033 125.59Q30.0376 125.59 29.6496 125.357Q29.2615 125.125 29.0132 124.698V126.941Q29.0132 127.003 28.9705 127.049Q28.9278 127.096 28.8579 127.096Q28.7958 127.096 28.7493 127.049Q28.7027 127.003 28.7027 126.941V121.779Q28.7027 121.717 28.7454 121.671Q28.7881 121.624 28.8579 121.624Q28.9278 121.624 28.9705 121.671Q29.0132 121.717 29.0132 121.779V122.493Q29.246 122.051 29.634 121.838Q30.0221 121.624 30.5033 121.624Q31.0155 121.624 31.4269 121.88Q31.8382 122.136 32.071 122.587Q32.3039 123.037 32.3039 123.603ZM31.9934 123.603Q31.9934 123.122 31.7955 122.738Q31.5976 122.354 31.2561 122.136Q30.9146 121.919 30.4878 121.919Q30.0531 121.919 29.7078 122.133Q29.3624 122.346 29.1723 122.73Q28.9821 123.114 28.9821 123.603Q28.9821 124.092 29.1723 124.476Q29.3624 124.861 29.7078 125.078Q30.0531 125.295 30.4878 125.295Q30.9146 125.295 31.2561 125.078Q31.5976 124.861 31.7955 124.473Q31.9934 124.085 31.9934 123.603ZM36.394 123.122V125.388Q36.394 125.45 36.3474 125.497Q36.3008 125.544 36.2387 125.544Q36.1689 125.544 36.1262 125.497Q36.0835 125.45 36.0835 125.388V123.122Q36.0835 122.587 35.8196 122.253Q35.5558 121.919 35.0125 121.919Q34.6788 121.919 34.3567 122.082Q34.0346 122.245 33.8328 122.525Q33.631 122.804 33.631 123.122V125.388Q33.631 125.45 33.5844 125.497Q33.5379 125.544 33.4758 125.544Q33.4059 125.544 33.3633 125.497Q33.3206 125.45 33.3206 125.388V119.956Q33.3206 119.894 33.3671 119.847Q33.4137 119.8 33.4758 119.8Q33.5456 119.8 33.5883 119.847Q33.631 119.894 33.631 119.956V122.408Q33.8483 122.067 34.2325 121.845Q34.6167 121.624 35.0125 121.624Q35.6799 121.624 36.037 122.047Q36.394 122.47 36.394 123.122ZM37.8375 125.544Q37.7677 125.544 37.725 125.497Q37.6823 125.45 37.6823 125.388V121.702Q37.6823 121.64 37.7289 121.593Q37.7754 121.547 37.8375 121.547Q37.9074 121.547 37.9501 121.593Q37.9928 121.64 37.9928 121.702V125.388Q37.9928 125.45 37.9462 125.497Q37.8996 125.544 37.8375 125.544ZM37.5659 120.771V120.708Q37.5659 120.6 37.6435 120.53Q37.7211 120.46 37.8453 120.46Q37.954 120.46 38.0277 120.53Q38.1014 120.6 38.1014 120.708V120.771Q38.1014 120.879 38.0277 120.949Q37.954 121.019 37.8375 121.019Q37.7134 121.019 37.6396 120.949Q37.5659 120.879 37.5659 120.771ZM41.3921 121.725Q41.3921 121.795 41.3533 121.842Q41.3145 121.888 41.2524 121.888Q41.2291 121.888 41.1399 121.853Q41.0506 121.818 40.9497 121.818Q40.6315 121.818 40.3133 122.071Q39.9951 122.323 39.7933 122.707Q39.5915 123.091 39.5915 123.448V125.388Q39.5915 125.45 39.545 125.497Q39.4984 125.544 39.4363 125.544Q39.3665 125.544 39.3238 125.497Q39.2811 125.45 39.2811 125.388V121.826Q39.2811 121.764 39.3277 121.717Q39.3742 121.671 39.4363 121.671Q39.5062 121.671 39.5489 121.717Q39.5915 121.764 39.5915 121.826V122.649Q39.7701 122.175 40.1465 121.865Q40.5229 121.554 41.0351 121.547Q41.3921 121.547 41.3921 121.725ZM45.3348 124.752Q45.3348 124.806 45.3037 124.845Q45.0476 125.187 44.6673 125.404Q44.287 125.621 43.8524 125.621Q43.2703 125.621 42.8202 125.373Q42.37 125.125 42.1178 124.667Q41.8656 124.209 41.8656 123.603Q41.8656 122.982 42.11 122.513Q42.3545 122.043 42.7581 121.795Q43.1617 121.547 43.6196 121.547Q44.0775 121.547 44.4694 121.745Q44.8613 121.942 45.1097 122.338Q45.3581 122.734 45.3736 123.316Q45.3736 123.378 45.327 123.429Q45.2804 123.479 45.2184 123.479H42.1682V123.58Q42.1682 124.061 42.3623 124.461Q42.5563 124.861 42.9366 125.093Q43.3169 125.326 43.8524 125.326Q44.2249 125.326 44.5548 125.144Q44.8846 124.962 45.0709 124.682Q45.1252 124.612 45.2028 124.612Q45.2572 124.612 45.296 124.655Q45.3348 124.698 45.3348 124.752ZM42.1993 123.184H45.0554V123.114Q45.0166 122.719 44.8031 122.435Q44.5897 122.152 44.2754 122.005Q43.9611 121.857 43.6196 121.857Q43.3324 121.857 43.0336 122.008Q42.7348 122.16 42.5058 122.459Q42.2769 122.757 42.1993 123.184Z" style="fill:#000000;stroke:#000000;stroke-width:0.265;stroke-linecap:square" />
            <g id="gemstones" style="stroke-width:0;fill:#0000ff;stroke:#2e2114;stroke-linecap:square;stroke-opacity:1">
                <path d="m 12.930,122.900 q 0,0.34175 -0.242534,0.63114 -0.0441,0.0524 -0.20395,0.21497 -0.187413,0.19017 -0.785481,0.81304 l -1.444183,1.51309 q -0.01929,0.003 -0.0441,0.003 -0.02756,0 -0.04134,-0.003 -0.08268,-0.0827 -0.647678,-0.67524 -0.468532,-0.47404 -0.934309,-0.94809 -0.556727,-0.56775 -0.89848,-0.98116 -0.132292,-0.15985 -0.168121,-0.29766 -0.02756,-0.10197 -0.02756,-0.34175 0,-0.11024 0.07166,-0.28939 0.06614,-0.16536 0.140559,-0.26458 0.118512,-0.1571 0.42168,-0.42444 0.283875,-0.2508 0.474044,-0.37482 0.272852,-0.17915 0.818555,-0.36656 0.09646,-0.0331 0.110243,-0.0331 h 1.3615 q 0.01102,0 0.104731,0.0331 0.567751,0.20119 0.824066,0.36656 0.165365,0.10473 0.474045,0.37758 0.322461,0.28388 0.421679,0.42168 0.214974,0.2949 0.214974,0.62563 z m -0.16812,-0.27285 q -0.03307,-0.10749 -0.135048,-0.30868 -0.07166,-0.0937 -0.209462,-0.19844 -0.118511,-0.0854 -0.234266,-0.17088 0.245291,0.3638 0.578776,0.678 z m -0.573264,-0.52366 -0.358289,-0.44648 v 0.41065 z m 0.636653,0.75792 q 0,-0.0524 -0.341753,-0.39412 l 0.228754,0.7028 h 0.04961 q 0.06339,-0.21773 0.06339,-0.30868 z m -0.23151,0.27285 -0.316948,-0.90399 -0.410655,-0.0634 -0.159853,0.61461 z m 0.0028,0.15434 -0.771701,-0.3197 h -0.03032 l 0.344509,0.60634 q 0.07993,-0.003 0.234266,-0.0469 0.02481,-0.0138 0.223242,-0.23978 z m -0.857139,-1.05006 -0.719335,0.28388 0.60358,0.22599 z m 0,-0.16261 v -0.51538 l -0.917773,-0.38034 h -1.223697 l -0.917772,0.38034 v 0.51538 l 0.89848,0.4079 h 1.254014 z m 0.573264,1.53789 q -0.0689,0.011 -0.198438,0.0524 -0.08544,0.0551 -0.259071,0.16261 0.01929,0 0.06339,0.003 0.04134,0 0.06339,0 0.118511,0 0.190169,-0.0689 0.07166,-0.0717 0.14056,-0.14883 z m -0.289388,0.003 -0.347266,-0.63114 -0.363801,0.87918 q 0.0248,-0.0165 0.06615,-0.0165 0.03032,0 0.08544,0.011 0.05788,0.008 0.08819,0.008 0.04961,0 0.228754,-0.10749 0.228754,-0.1378 0.242535,-0.14331 z m -0.440972,-0.74139 -0.683507,-0.2756 -0.592556,0.54845 0.903993,0.65595 z m -0.854383,-0.28387 h -1.036284 l 0.523654,0.47404 z m 0.749652,1.36701 q -0.228754,-0.0303 -0.228754,-0.0303 -0.03583,0 -0.272851,0.0937 l 0.190169,0.0193 q 0.01102,0 0.311436,-0.0827 z m -0.388606,-0.0882 -0.843359,-0.61185 v 0.67524 l 0.471289,0.0827 z m 0.854383,0.0496 q -0.09922,0.006 -0.2949,0.0386 -0.01102,0.003 -0.377583,0.17639 -0.129535,0.34726 -0.380338,1.0418 z m -2.543857,-1.39733 -0.719335,-0.28388 0.124023,0.51814 z m -0.802018,-0.45476 v -0.41065 l -0.366557,0.44648 z m 1.515841,1.07212 -0.592556,-0.54019 -0.683506,0.2756 0.380338,0.9288 z m 0.369314,0.94257 q -0.03307,-0.003 -0.135047,-0.0248 -0.08544,-0.0165 -0.137804,-0.0165 -0.05237,0 -0.137804,0.0165 -0.101975,0.0221 -0.135047,0.0248 0.264583,0.0469 0.272851,0.0469 0.0083,0 0.272851,-0.0469 z m -0.30868,-0.1378 v -0.68626 l -0.843359,0.61185 0.37207,0.14607 z m 0.950846,0.20671 -0.396875,-0.0551 -0.479557,0.14056 v 1.27607 z m -2.888366,-2.20211 q -0.118512,0.0854 -0.234267,0.17364 -0.146072,0.10748 -0.209461,0.19568 -0.0441,0.10473 -0.135048,0.31419 0.369314,-0.3638 0.578776,-0.68351 z m 0.476801,0.83234 -0.159853,-0.61461 -0.410655,0.0634 -0.316948,0.90399 z m 0.394118,1.08313 -0.363802,-0.87918 -0.355533,0.63114 q 0.43546,0.2508 0.451996,0.2508 0.09095,0 0.267339,-0.003 z m 1.821765,0.82958 q -0.132291,0.21222 -0.405143,0.6339 -0.07717,0.10749 -0.220486,0.32797 -0.05788,0.10473 -0.05512,0.226 0.159852,-0.15158 0.432704,-0.49609 0.07717,-0.12954 0.140559,-0.339 0.05512,-0.17639 0.107486,-0.35278 z m -1.493792,-0.66146 -0.270095,-0.0882 -0.0083,-0.011 q -0.02481,0 -0.107487,0.011 -0.06615,0.006 -0.107487,0.006 0.272851,0.091 0.311436,0.091 0.02481,0 0.181901,-0.008 z m -0.810286,-1.06384 h -0.03032 l -0.7717,0.3197 q 0.06615,0.0965 0.223242,0.23978 0.07717,0.0138 0.234266,0.0469 z m -0.689018,-0.50161 q -0.341754,0.34727 -0.341754,0.39412 0,0.0799 0.06339,0.30868 h 0.04961 z m 2.235176,3.04547 v -1.27607 l -0.479557,-0.14056 -0.396875,0.0551 z m -1.606791,-1.6757 q -0.256315,-0.1819 -0.457509,-0.22324 0.06615,0.0772 0.20395,0.22324 z m 1.609547,2.04501 v -0.1378 l -0.683507,-1.05007 q 0.05237,0.17639 0.107487,0.35278 0.06339,0.20946 0.14056,0.339 0.0689,0.11851 0.20395,0.25907 0.115755,0.11851 0.23151,0.23702 z m -0.644921,-0.70555 q -0.115756,-0.32798 -0.380339,-1.0418 -0.135047,-0.0662 -0.272851,-0.12954 -0.159852,-0.0716 -0.289388,-0.0716 -0.05237,0 -0.110243,-0.0138 z" />
                <path d="m 53.460,122.900 q 0,0.34175 -0.242534,0.63114 -0.0441,0.0524 -0.20395,0.21497 -0.187413,0.19017 -0.785481,0.81304 l -1.444183,1.51309 q -0.01929,0.003 -0.0441,0.003 -0.02756,0 -0.04134,-0.003 -0.08268,-0.0827 -0.647678,-0.67524 -0.468532,-0.47404 -0.934309,-0.94809 -0.556727,-0.56775 -0.89848,-0.98116 -0.132292,-0.15985 -0.168121,-0.29766 -0.02756,-0.10197 -0.02756,-0.34175 0,-0.11024 0.07166,-0.28939 0.06614,-0.16536 0.140559,-0.26458 0.118512,-0.1571 0.42168,-0.42444 0.283875,-0.2508 0.474044,-0.37482 0.272852,-0.17915 0.818555,-0.36656 0.09646,-0.0331 0.110243,-0.0331 h 1.3615 q 0.01102,0 0.104731,0.0331 0.567751,0.20119 0.824066,0.36656 0.165365,0.10473 0.474045,0.37758 0.322461,0.28388 0.421679,0.42168 0.214974,0.2949 0.214974,0.62563 z m -0.16812,-0.27285 q -0.03307,-0.10749 -0.135048,-0.30868 -0.07166,-0.0937 -0.209462,-0.19844 -0.118511,-0.0854 -0.234266,-0.17088 0.245291,0.3638 0.578776,0.678 z m -0.573264,-0.52366 -0.358289,-0.44648 v 0.41065 z m 0.636653,0.75792 q 0,-0.0524 -0.341753,-0.39412 l 0.228754,0.7028 h 0.04961 q 0.06339,-0.21773 0.06339,-0.30868 z m -0.23151,0.27285 -0.316948,-0.90399 -0.410655,-0.0634 -0.159853,0.61461 z m 0.0028,0.15434 -0.771701,-0.3197 h -0.03032 l 0.344509,0.60634 q 0.07993,-0.003 0.234266,-0.0469 0.02481,-0.0138 0.223242,-0.23978 z m -0.857139,-1.05006 -0.719335,0.28388 0.60358,0.22599 z m 0,-0.16261 v -0.51538 l -0.917773,-0.38034 h -1.223697 l -0.917772,0.38034 v 0.51538 l 0.89848,0.4079 h 1.254014 z m 0.573264,1.53789 q -0.0689,0.011 -0.198438,0.0524 -0.08544,0.0551 -0.259071,0.16261 0.01929,0 0.06339,0.003 0.04134,0 0.06339,0 0.118511,0 0.190169,-0.0689 0.07166,-0.0717 0.14056,-0.14883 z m -0.289388,0.003 -0.347266,-0.63114 -0.363801,0.87918 q 0.0248,-0.0165 0.06615,-0.0165 0.03032,0 0.08544,0.011 0.05788,0.008 0.08819,0.008 0.04961,0 0.228754,-0.10749 0.228754,-0.1378 0.242535,-0.14331 z m -0.440972,-0.74139 -0.683507,-0.2756 -0.592556,0.54845 0.903993,0.65595 z m -0.854383,-0.28387 h -1.036284 l 0.523654,0.47404 z m 0.749652,1.36701 q -0.228754,-0.0303 -0.228754,-0.0303 -0.03583,0 -0.272851,0.0937 l 0.190169,0.0193 q 0.01102,0 0.311436,-0.0827 z m -0.388606,-0.0882 -0.843359,-0.61185 v 0.67524 l 0.471289,0.0827 z m 0.854383,0.0496 q -0.09922,0.006 -0.2949,0.0386 -0.01102,0.003 -0.377583,0.17639 -0.129535,0.34726 -0.380338,1.0418 z m -2.543857,-1.39733 -0.719335,-0.28388 0.124023,0.51814 z m -0.802018,-0.45476 v -0.41065 l -0.366557,0.44648 z m 1.515841,1.07212 -0.592556,-0.54019 -0.683506,0.2756 0.380338,0.9288 z m 0.369314,0.94257 q -0.03307,-0.003 -0.135047,-0.0248 -0.08544,-0.0165 -0.137804,-0.0165 -0.05237,0 -0.137804,0.0165 -0.101975,0.0221 -0.135047,0.0248 0.264583,0.0469 0.272851,0.0469 0.0083,0 0.272851,-0.0469 z m -0.30868,-0.1378 v -0.68626 l -0.843359,0.61185 0.37207,0.14607 z m 0.950846,0.20671 -0.396875,-0.0551 -0.479557,0.14056 v 1.27607 z m -2.888366,-2.20211 q -0.118512,0.0854 -0.234267,0.17364 -0.146072,0.10748 -0.209461,0.19568 -0.0441,0.10473 -0.135048,0.31419 0.369314,-0.3638 0.578776,-0.68351 z m 0.476801,0.83234 -0.159853,-0.61461 -0.410655,0.0634 -0.316948,0.90399 z m 0.394118,1.08313 -0.363802,-0.87918 -0.355533,0.63114 q 0.43546,0.2508 0.451996,0.2508 0.09095,0 0.267339,-0.003 z m 1.821765,0.82958 q -0.132291,0.21222 -0.405143,0.6339 -0.07717,0.10749 -0.220486,0.32797 -0.05788,0.10473 -0.05512,0.226 0.159852,-0.15158 0.432704,-0.49609 0.07717,-0.12954 0.140559,-0.339 0.05512,-0.17639 0.107486,-0.35278 z m -1.493792,-0.66146 -0.270095,-0.0882 -0.0083,-0.011 q -0.02481,0 -0.107487,0.011 -0.06615,0.006 -0.107487,0.006 0.272851,0.091 0.311436,0.091 0.02481,0 0.181901,-0.008 z m -0.810286,-1.06384 h -0.03032 l -0.7717,0.3197 q 0.06615,0.0965 0.223242,0.23978 0.07717,0.0138 0.234266,0.0469 z m -0.689018,-0.50161 q -0.341754,0.34727 -0.341754,0.39412 0,0.0799 0.06339,0.30868 h 0.04961 z m 2.235176,3.04547 v -1.27607 l -0.479557,-0.14056 -0.396875,0.0551 z m -1.606791,-1.6757 q -0.256315,-0.1819 -0.457509,-0.22324 0.06615,0.0772 0.20395,0.22324 z m 1.609547,2.04501 v -0.1378 l -0.683507,-1.05007 q 0.05237,0.17639 0.107487,0.35278 0.06339,0.20946 0.14056,0.339 0.0689,0.11851 0.20395,0.25907 0.115755,0.11851 0.23151,0.23702 z m -0.644921,-0.70555 q -0.115756,-0.32798 -0.380339,-1.0418 -0.135047,-0.0662 -0.272851,-0.12954 -0.159852,-0.0716 -0.289388,-0.0716 -0.05237,0 -0.110243,-0.0138 z" />
            </g>
        </g>
        <path id="model_name" d="M17.0766 4.70533Q17.0766 4.76741 17.0339 4.81398Q16.9912 4.86055 16.9291 4.86055Q16.8593 4.86055 16.8243 4.83726Q16.7894 4.81398 16.7273 4.75189Q16.6264 4.63547 16.5178 4.58115Q16.2384 4.44921 15.7261 4.44921Q15.2837 4.44921 14.9073 4.68204Q14.5309 4.91488 14.3097 5.31457Q14.0885 5.71427 14.0885 6.1877Q14.0885 6.68441 14.2942 7.08411Q14.4999 7.4838 14.8763 7.70887Q15.2527 7.93395 15.7261 7.93395Q16.0366 7.93395 16.2151 7.87962Q16.3936 7.82529 16.5721 7.7244Q16.6963 7.64679 16.7894 7.55365Q16.8282 7.51485 16.867 7.48768Q16.9058 7.46052 16.9446 7.46052Q17.0067 7.46052 17.0416 7.49932Q17.0766 7.53813 17.0766 7.60022Q17.0766 7.70887 16.8981 7.86022Q16.7196 8.01156 16.4052 8.12021Q16.0909 8.22887 15.7028 8.22887Q15.144 8.22887 14.7055 7.96499Q14.267 7.70111 14.0226 7.23545Q13.7781 6.76978 13.7781 6.1877Q13.7781 5.64442 14.0226 5.17875Q14.267 4.71309 14.7133 4.43369Q15.1596 4.15429 15.7339 4.15429Q16.0676 4.15429 16.3819 4.2319Q16.6963 4.30951 16.8864 4.43757Q17.0766 4.56562 17.0766 4.70533ZM21.3607 4.43369V7.99604Q21.3607 8.05812 21.3141 8.10469Q21.2676 8.15126 21.2055 8.15126Q21.1356 8.15126 21.0929 8.10469Q21.0503 8.05812 21.0503 7.99604V7.29754Q20.8562 7.69335 20.4526 7.96111Q20.0491 8.22887 19.5601 8.22887Q19.0479 8.22887 18.6365 7.96111Q18.2252 7.69335 17.9924 7.22381Q17.7595 6.75426 17.7595 6.17217Q17.7595 5.59785 17.9963 5.13607Q18.233 4.67428 18.6443 4.41428Q19.0556 4.15429 19.5601 4.15429Q20.0646 4.15429 20.4682 4.41816Q20.8717 4.68204 21.0503 5.12443V4.43369Q21.0503 4.3716 21.0929 4.32503Q21.1356 4.27846 21.2055 4.27846Q21.2753 4.27846 21.318 4.32503Q21.3607 4.3716 21.3607 4.43369ZM21.0813 6.17217Q21.0813 5.69875 20.8873 5.30293Q20.6932 4.90711 20.3479 4.67816Q20.0025 4.44921 19.5756 4.44921Q19.1488 4.44921 18.8034 4.6704Q18.458 4.89159 18.264 5.28353Q18.07 5.67546 18.07 6.17217Q18.07 6.66889 18.264 7.07246Q18.458 7.47604 18.7995 7.70499Q19.141 7.93395 19.5756 7.93395Q20.0025 7.93395 20.3479 7.70499Q20.6932 7.47604 20.8873 7.07246Q21.0813 6.66889 21.0813 6.17217ZM25.8001 5.62114V7.99604Q25.8001 8.05812 25.7535 8.10469Q25.7069 8.15126 25.6448 8.15126Q25.575 8.15126 25.5323 8.10469Q25.4896 8.05812 25.4896 7.99604V5.65218Q25.4896 5.12443 25.2141 4.78682Q24.9386 4.44921 24.3798 4.44921Q24.0383 4.44921 23.7084 4.61219Q23.3786 4.77517 23.169 5.05457Q22.9595 5.33397 22.9595 5.65218V7.99604Q22.9595 8.05812 22.9129 8.10469Q22.8664 8.15126 22.8043 8.15126Q22.7344 8.15126 22.6917 8.10469Q22.649 8.05812 22.649 7.99604V4.43369Q22.649 4.3716 22.6956 4.32503Q22.7422 4.27846 22.8043 4.27846Q22.8741 4.27846 22.9168 4.32503Q22.9595 4.3716 22.9595 4.43369V4.95368Q23.1846 4.60443 23.592 4.37936Q23.9995 4.15429 24.4108 4.15429Q25.1016 4.15429 25.4508 4.56174Q25.8001 4.9692 25.8001 5.62114ZM28.6794 4.39488Q28.6794 4.45697 28.6367 4.49966Q28.594 4.54234 28.532 4.54234H27.6782V7.3053Q27.6782 7.64679 27.7985 7.75932Q27.9188 7.87186 28.1051 7.87186Q28.1361 7.87186 28.1944 7.85634Q28.2526 7.84081 28.2914 7.84081Q28.3457 7.84081 28.3845 7.8835Q28.4233 7.92619 28.4233 7.98051Q28.4233 8.05036 28.3302 8.10081Q28.237 8.15126 28.1129 8.15126Q27.9188 8.15126 27.7869 8.12409Q27.655 8.09693 27.5114 7.91454Q27.3678 7.73216 27.3678 7.32082V4.54234H26.7314Q26.6771 4.54234 26.6305 4.49578Q26.5839 4.44921 26.5839 4.39488Q26.5839 4.33279 26.6266 4.29011Q26.6693 4.24742 26.7314 4.24742H27.3678V3.26176Q27.3678 3.19967 27.4144 3.1531Q27.4609 3.10654 27.523 3.10654Q27.5929 3.10654 27.6356 3.1531Q27.6782 3.19967 27.6782 3.26176V4.24742H28.532Q28.5863 4.24742 28.6329 4.29399Q28.6794 4.34055 28.6794 4.39488ZM29.6961 8.15126Q29.6263 8.15126 29.5836 8.10469Q29.5409 8.05812 29.5409 7.99604V4.30951Q29.5409 4.24742 29.5875 4.20085Q29.634 4.15429 29.6961 4.15429Q29.766 4.15429 29.8087 4.20085Q29.8514 4.24742 29.8514 4.30951V7.99604Q29.8514 8.05812 29.8048 8.10469Q29.7582 8.15126 29.6961 8.15126ZM29.4245 3.37818V3.31609Q29.4245 3.20743 29.5021 3.13758Q29.5797 3.06773 29.7039 3.06773Q29.8125 3.06773 29.8863 3.13758Q29.96 3.20743 29.96 3.31609V3.37818Q29.96 3.48683 29.8863 3.55668Q29.8125 3.62653 29.6961 3.62653Q29.572 3.62653 29.4982 3.55668Q29.4245 3.48683 29.4245 3.37818ZM31.3337 8.15126Q31.2639 8.15126 31.2212 8.10469Q31.1785 8.05812 31.1785 7.99604V2.56326Q31.1785 2.50117 31.2251 2.4546Q31.2716 2.40804 31.3337 2.40804Q31.4036 2.40804 31.4463 2.4546Q31.4889 2.50117 31.4889 2.56326V7.99604Q31.4889 8.05812 31.4424 8.10469Q31.3958 8.15126 31.3337 8.15126ZM36.0137 7.35962Q36.0137 7.41395 35.9826 7.45276Q35.7265 7.79425 35.3462 8.01156Q34.9659 8.22887 34.5313 8.22887Q33.9492 8.22887 33.4991 7.98051Q33.0489 7.73216 32.7967 7.27425Q32.5445 6.81635 32.5445 6.21098Q32.5445 5.59009 32.7889 5.12054Q33.0334 4.651 33.437 4.40264Q33.8406 4.15429 34.2985 4.15429Q34.7564 4.15429 35.1483 4.35219Q35.5402 4.5501 35.7886 4.94592Q36.037 5.34174 36.0525 5.92382Q36.0525 5.98591 36.0059 6.03636Q35.9593 6.0868 35.8973 6.0868H32.8471V6.1877Q32.8471 6.66889 33.0412 7.06858Q33.2352 7.46828 33.6155 7.70111Q33.9958 7.93395 34.5313 7.93395Q34.9038 7.93395 35.2337 7.75156Q35.5635 7.56917 35.7498 7.28977Q35.8041 7.21992 35.8817 7.21992Q35.9361 7.21992 35.9749 7.26261Q36.0137 7.3053 36.0137 7.35962ZM32.8782 5.79188H35.7343V5.72203Q35.6955 5.32621 35.482 5.04293Q35.2686 4.75965 34.9543 4.61219Q34.64 4.46473 34.2985 4.46473Q34.0113 4.46473 33.7125 4.61607Q33.4137 4.76741 33.1847 5.06622Q32.9558 5.36502 32.8782 5.79188ZM40.1503 4.26294Q40.1503 4.30951 40.1271 4.35608L38.5826 8.05036Q38.5671 8.09693 38.5244 8.12409Q38.4817 8.15126 38.4351 8.15126Q38.3886 8.15126 38.3459 8.12409Q38.3032 8.09693 38.2877 8.05036L36.7355 4.36384Q36.7199 4.31727 36.7199 4.29399Q36.7199 4.2319 36.7626 4.18533Q36.8053 4.13876 36.8829 4.13876Q36.9217 4.13876 36.9644 4.16593Q37.0071 4.19309 37.0226 4.23966L38.4274 7.61574L39.8399 4.23966Q39.8787 4.13876 40.0029 4.13876Q40.0495 4.13876 40.0999 4.17369Q40.1503 4.20861 40.1503 4.26294ZM44.287 7.35962Q44.287 7.41395 44.256 7.45276Q43.9999 7.79425 43.6196 8.01156Q43.2393 8.22887 42.8046 8.22887Q42.2226 8.22887 41.7724 7.98051Q41.3223 7.73216 41.07 7.27425Q40.8178 6.81635 40.8178 6.21098Q40.8178 5.59009 41.0623 5.12054Q41.3068 4.651 41.7103 4.40264Q42.1139 4.15429 42.5718 4.15429Q43.0297 4.15429 43.4217 4.35219Q43.8136 4.5501 44.0619 4.94592Q44.3103 5.34174 44.3258 5.92382Q44.3258 5.98591 44.2793 6.03636Q44.2327 6.0868 44.1706 6.0868H41.1205V6.1877Q41.1205 6.66889 41.3145 7.06858Q41.5085 7.46828 41.8888 7.70111Q42.2691 7.93395 42.8046 7.93395Q43.1772 7.93395 43.507 7.75156Q43.8369 7.56917 44.0231 7.28977Q44.0775 7.21992 44.1551 7.21992Q44.2094 7.21992 44.2482 7.26261Q44.287 7.3053 44.287 7.35962ZM41.1515 5.79188H44.0076V5.72203Q43.9688 5.32621 43.7554 5.04293Q43.5419 4.75965 43.2276 4.61219Q42.9133 4.46473 42.5718 4.46473Q42.2846 4.46473 41.9858 4.61607Q41.687 4.76741 41.4581 5.06622Q41.2291 5.36502 41.1515 5.79188ZM47.4535 4.33279Q47.4535 4.40264 47.4147 4.44921Q47.3759 4.49578 47.3139 4.49578Q47.2906 4.49578 47.2013 4.46085Q47.1121 4.42592 47.0112 4.42592Q46.693 4.42592 46.3748 4.67816Q46.0566 4.9304 45.8548 5.31457Q45.653 5.69875 45.653 6.05576V7.99604Q45.653 8.05812 45.6064 8.10469Q45.5598 8.15126 45.4978 8.15126Q45.4279 8.15126 45.3852 8.10469Q45.3425 8.05812 45.3425 7.99604V4.43369Q45.3425 4.3716 45.3891 4.32503Q45.4357 4.27846 45.4978 4.27846Q45.5676 4.27846 45.6103 4.32503Q45.653 4.3716 45.653 4.43369V5.25636Q45.8315 4.78294 46.2079 4.47249Q46.5843 4.16205 47.0965 4.15429Q47.4535 4.15429 47.4535 4.33279Z" style="display:inline;stroke:#000000;stroke-width:0.35;stroke-linecap:round;stroke-linejoin:bevel" />
    </g>
    <g id="ControlLayer">
        <circle id="audio_left_output" cx="45" cy="90" r="1" />
        <circle id="audio_right_output" cx="45" cy="100" r="1" />
        <circle id="bend_knob" cx="10" cy="45" r="1" />
        <circle id="tripx_knob" cx="10" cy="60" r="1" />
        <circle id="tripy_knob" cx="10" cy="75" r="1" />
        <circle id="magnet_knob" cx="10" cy="90" r="1" />
    </g>
</svg>
