<?xml version="1.0" encoding="utf-8"?>
<svg xmlns="http://www.w3.org/2000/svg" width="30.48mm" height="128.50mm" viewBox="0 0 30.48 128.50">
    <g id="PanelLayer">
        <defs />
        <rect id="border_rect" width="30.48" height="128.5" x="0" y="0" style="display:inline;fill:#4f8df2;fill-opacity:1;fill-rule:nonzero;stroke:#5021d4;stroke-width:0.7;stroke-linecap:round;stroke-linejoin:round;stroke-dasharray:none;stroke-opacity:1;image-rendering:auto" />
        <path id="sapphire_gemstone" d="m 17.955,122.900 q 0,0.34175 -0.242534,0.63114 -0.0441,0.0524 -0.20395,0.21497 -0.187413,0.19017 -0.785481,0.81304 l -1.444183,1.51309 q -0.01929,0.003 -0.0441,0.003 -0.02756,0 -0.04134,-0.003 -0.08268,-0.0827 -0.647678,-0.67524 -0.468532,-0.47404 -0.934309,-0.94809 -0.556727,-0.56775 -0.89848,-0.98116 -0.132292,-0.15985 -0.168121,-0.29766 -0.02756,-0.10197 -0.02756,-0.34175 0,-0.11024 0.07166,-0.28939 0.06614,-0.16536 0.140559,-0.26458 0.118512,-0.1571 0.42168,-0.42444 0.283875,-0.2508 0.474044,-0.37482 0.272852,-0.17915 0.818555,-0.36656 0.09646,-0.0331 0.110243,-0.0331 h 1.3615 q 0.01102,0 0.104731,0.0331 0.567751,0.20119 0.824066,0.36656 0.165365,0.10473 0.474045,0.37758 0.322461,0.28388 0.421679,0.42168 0.214974,0.2949 0.214974,0.62563 z m -0.16812,-0.27285 q -0.03307,-0.10749 -0.135048,-0.30868 -0.07166,-0.0937 -0.209462,-0.19844 -0.118511,-0.0854 -0.234266,-0.17088 0.245291,0.3638 0.578776,0.678 z m -0.573264,-0.52366 -0.358289,-0.44648 v 0.41065 z m 0.636653,0.75792 q 0,-0.0524 -0.341753,-0.39412 l 0.228754,0.7028 h 0.04961 q 0.06339,-0.21773 0.06339,-0.30868 z m -0.23151,0.27285 -0.316948,-0.90399 -0.410655,-0.0634 -0.159853,0.61461 z m 0.0028,0.15434 -0.771701,-0.3197 h -0.03032 l 0.344509,0.60634 q 0.07993,-0.003 0.234266,-0.0469 0.02481,-0.0138 0.223242,-0.23978 z m -0.857139,-1.05006 -0.719335,0.28388 0.60358,0.22599 z m 0,-0.16261 v -0.51538 l -0.917773,-0.38034 h -1.223697 l -0.917772,0.38034 v 0.51538 l 0.89848,0.4079 h 1.254014 z m 0.573264,1.53789 q -0.0689,0.011 -0.198438,0.0524 -0.08544,0.0551 -0.259071,0.16261 0.01929,0 0.06339,0.003 0.04134,0 0.06339,0 0.118511,0 0.190169,-0.0689 0.07166,-0.0717 0.14056,-0.14883 z m -0.289388,0.003 -0.347266,-0.63114 -0.363801,0.87918 q 0.0248,-0.0165 0.06615,-0.0165 0.03032,0 0.08544,0.011 0.05788,0.008 0.08819,0.008 0.04961,0 0.228754,-0.10749 0.228754,-0.1378 0.242535,-0.14331 z m -0.440972,-0.74139 -0.683507,-0.2756 -0.592556,0.54845 0.903993,0.65595 z m -0.854383,-0.28387 h -1.036284 l 0.523654,0.47404 z m 0.749652,1.36701 q -0.228754,-0.0303 -0.228754,-0.0303 -0.03583,0 -0.272851,0.0937 l 0.190169,0.0193 q 0.01102,0 0.311436,-0.0827 z m -0.388606,-0.0882 -0.843359,-0.61185 v 0.67524 l 0.471289,0.0827 z m 0.854383,0.0496 q -0.09922,0.006 -0.2949,0.0386 -0.01102,0.003 -0.377583,0.17639 -0.129535,0.34726 -0.380338,1.0418 z m -2.543857,-1.39733 -0.719335,-0.28388 0.124023,0.51814 z m -0.802018,-0.45476 v -0.41065 l -0.366557,0.44648 z m 1.515841,1.07212 -0.592556,-0.54019 -0.683506,0.2756 0.380338,0.9288 z m 0.369314,0.94257 q -0.03307,-0.003 -0.135047,-0.0248 -0.08544,-0.0165 -0.137804,-0.0165 -0.05237,0 -0.137804,0.0165 -0.101975,0.0221 -0.135047,0.0248 0.264583,0.0469 0.272851,0.0469 0.0083,0 0.272851,-0.0469 z m -0.30868,-0.1378 v -0.68626 l -0.843359,0.61185 0.37207,0.14607 z m 0.950846,0.20671 -0.396875,-0.0551 -0.479557,0.14056 v 1.27607 z m -2.888366,-2.20211 q -0.118512,0.0854 -0.234267,0.17364 -0.146072,0.10748 -0.209461,0.19568 -0.0441,0.10473 -0.135048,0.31419 0.369314,-0.3638 0.578776,-0.68351 z m 0.476801,0.83234 -0.159853,-0.61461 -0.410655,0.0634 -0.316948,0.90399 z m 0.394118,1.08313 -0.363802,-0.87918 -0.355533,0.63114 q 0.43546,0.2508 0.451996,0.2508 0.09095,0 0.267339,-0.003 z m 1.821765,0.82958 q -0.132291,0.21222 -0.405143,0.6339 -0.07717,0.10749 -0.220486,0.32797 -0.05788,0.10473 -0.05512,0.226 0.159852,-0.15158 0.432704,-0.49609 0.07717,-0.12954 0.140559,-0.339 0.05512,-0.17639 0.107486,-0.35278 z m -1.493792,-0.66146 -0.270095,-0.0882 -0.0083,-0.011 q -0.02481,0 -0.107487,0.011 -0.06615,0.006 -0.107487,0.006 0.272851,0.091 0.311436,0.091 0.02481,0 0.181901,-0.008 z m -0.810286,-1.06384 h -0.03032 l -0.7717,0.3197 q 0.06615,0.0965 0.223242,0.23978 0.07717,0.0138 0.234266,0.0469 z m -0.689018,-0.50161 q -0.341754,0.34727 -0.341754,0.39412 0,0.0799 0.06339,0.30868 h 0.04961 z m 2.235176,3.04547 v -1.27607 l -0.479557,-0.14056 -0.396875,0.0551 z m -1.606791,-1.6757 q -0.256315,-0.1819 -0.457509,-0.22324 0.06615,0.0772 0.20395,0.22324 z m 1.609547,2.04501 v -0.1378 l -0.683507,-1.05007 q 0.05237,0.17639 0.107487,0.35278 0.06339,0.20946 0.14056,0.339 0.0689,0.11851 0.20395,0.25907 0.115755,0.11851 0.23151,0.23702 z m -0.644921,-0.70555 q -0.115756,-0.32798 -0.380339,-1.0418 -0.135047,-0.0662 -0.272851,-0.12954 -0.159852,-0.0716 -0.289388,-0.0716 -0.05237,0 -0.110243,-0.0138 z" style="stroke-width:0;fill:#0000ff;stroke:#2e2114;stroke-linecap:square;stroke-opacity:1" />
        <path id="model_name" d="M6.03144 4.70533Q6.03144 4.76741 5.98876 4.81398Q5.94607 4.86055 5.88398 4.86055Q5.81413 4.86055 5.77921 4.83726Q5.74428 4.81398 5.68219 4.75189Q5.5813 4.63547 5.47264 4.58115Q5.19324 4.44921 4.68101 4.44921Q4.23863 4.44921 3.86221 4.68204Q3.4858 4.91488 3.26461 5.31457Q3.04341 5.71427 3.04341 6.1877Q3.04341 6.68441 3.24908 7.08411Q3.45475 7.4838 3.83117 7.70887Q4.20758 7.93395 4.68101 7.93395Q4.99145 7.93395 5.16996 7.87962Q5.34846 7.82529 5.52697 7.7244Q5.65115 7.64679 5.74428 7.55365Q5.78309 7.51485 5.82189 7.48768Q5.8607 7.46052 5.8995 7.46052Q5.96159 7.46052 5.99652 7.49932Q6.03144 7.53813 6.03144 7.60022Q6.03144 7.70887 5.85294 7.86022Q5.67443 8.01156 5.36011 8.12021Q5.04578 8.22887 4.65773 8.22887Q4.09893 8.22887 3.66042 7.96499Q3.22192 7.70111 2.97744 7.23545Q2.73297 6.76978 2.73297 6.1877Q2.73297 5.64442 2.97744 5.17875Q3.22192 4.71309 3.66818 4.43369Q4.11445 4.15429 4.68877 4.15429Q5.0225 4.15429 5.33682 4.2319Q5.65115 4.30951 5.84129 4.43757Q6.03144 4.56562 6.03144 4.70533ZM10.0595 5.72979V7.99604Q10.0595 8.05812 10.0129 8.10469Q9.96633 8.15126 9.90424 8.15126Q9.83439 8.15126 9.7917 8.10469Q9.74901 8.05812 9.74901 7.99604V5.72979Q9.74901 5.19427 9.48514 4.86055Q9.22126 4.52682 8.67798 4.52682Q8.34425 4.52682 8.02217 4.6898Q7.70008 4.85279 7.49829 5.13219Q7.2965 5.41159 7.2965 5.72979V7.99604Q7.2965 8.05812 7.24994 8.10469Q7.20337 8.15126 7.14128 8.15126Q7.07143 8.15126 7.02874 8.10469Q6.98606 8.05812 6.98606 7.99604V2.56326Q6.98606 2.50117 7.03263 2.4546Q7.07919 2.40804 7.14128 2.40804Q7.21113 2.40804 7.25382 2.4546Q7.2965 2.50117 7.2965 2.56326V5.01577Q7.51381 4.67428 7.89799 4.45309Q8.28216 4.2319 8.67798 4.2319Q9.34544 4.2319 9.70245 4.65488Q10.0595 5.07786 10.0595 5.72979ZM14.6773 4.43369V7.99604Q14.6773 8.05812 14.6308 8.10469Q14.5842 8.15126 14.5221 8.15126Q14.4522 8.15126 14.4096 8.10469Q14.3669 8.05812 14.3669 7.99604V7.29754Q14.1728 7.69335 13.7693 7.96111Q13.3657 8.22887 12.8767 8.22887Q12.3645 8.22887 11.9532 7.96111Q11.5418 7.69335 11.309 7.22381Q11.0762 6.75426 11.0762 6.17217Q11.0762 5.59785 11.3129 5.13607Q11.5496 4.67428 11.9609 4.41428Q12.3723 4.15429 12.8767 4.15429Q13.3812 4.15429 13.7848 4.41816Q14.1884 4.68204 14.3669 5.12443V4.43369Q14.3669 4.3716 14.4096 4.32503Q14.4522 4.27846 14.5221 4.27846Q14.5919 4.27846 14.6346 4.32503Q14.6773 4.3716 14.6773 4.43369ZM14.3979 6.17217Q14.3979 5.69875 14.2039 5.30293Q14.0099 4.90711 13.6645 4.67816Q13.3191 4.44921 12.8923 4.44921Q12.4654 4.44921 12.12 4.6704Q11.7747 4.89159 11.5806 5.28353Q11.3866 5.67546 11.3866 6.17217Q11.3866 6.66889 11.5806 7.07246Q11.7747 7.47604 12.1162 7.70499Q12.4576 7.93395 12.8923 7.93395Q13.3191 7.93395 13.6645 7.70499Q14.0099 7.47604 14.2039 7.07246Q14.3979 6.66889 14.3979 6.17217ZM17.611 8.22887Q17.0755 8.22887 16.637 7.96111Q16.1985 7.69335 15.9463 7.22769Q15.694 6.76202 15.694 6.19546Q15.694 5.62114 15.9463 5.15547Q16.1985 4.6898 16.6331 4.42204Q17.0677 4.15429 17.611 4.15429Q18.1465 4.15429 18.585 4.42204Q19.0235 4.6898 19.2719 5.15547Q19.5203 5.62114 19.5203 6.19546Q19.5203 6.76978 19.2719 7.23157Q19.0235 7.69335 18.585 7.96111Q18.1465 8.22887 17.611 8.22887ZM17.611 4.44921Q17.1609 4.44921 16.7922 4.67816Q16.4236 4.90711 16.214 5.30293Q16.0045 5.69875 16.0045 6.19546Q16.0045 6.68441 16.214 7.08022Q16.4236 7.47604 16.7922 7.70499Q17.1609 7.93395 17.611 7.93395Q18.0689 7.93395 18.4337 7.70887Q18.7985 7.4838 19.0041 7.08411Q19.2098 6.68441 19.2098 6.19546Q19.2098 5.69875 19.0041 5.30293Q18.7985 4.90711 18.4337 4.67816Q18.0689 4.44921 17.611 4.44921ZM24.1381 6.21098Q24.1381 6.76978 23.9014 7.22381Q23.6647 7.67783 23.2533 7.93783Q22.842 8.19782 22.3375 8.19782Q21.8719 8.19782 21.4838 7.96499Q21.0958 7.73216 20.8474 7.3053V9.54826Q20.8474 9.61035 20.8047 9.65691Q20.762 9.70348 20.6922 9.70348Q20.6301 9.70348 20.5835 9.65691Q20.537 9.61035 20.537 9.54826V4.38712Q20.537 4.32503 20.5796 4.27846Q20.6223 4.2319 20.6922 4.2319Q20.762 4.2319 20.8047 4.27846Q20.8474 4.32503 20.8474 4.38712V5.10114Q21.0802 4.65876 21.4683 4.44533Q21.8563 4.2319 22.3375 4.2319Q22.8498 4.2319 23.2611 4.48801Q23.6724 4.74413 23.9053 5.19428Q24.1381 5.64442 24.1381 6.21098ZM23.8277 6.21098Q23.8277 5.72979 23.6298 5.34562Q23.4319 4.96144 23.0904 4.74413Q22.7489 4.52682 22.322 4.52682Q21.8874 4.52682 21.542 4.74025Q21.1967 4.95368 21.0065 5.33786Q20.8164 5.72203 20.8164 6.21098Q20.8164 6.69993 21.0065 7.08411Q21.1967 7.46828 21.542 7.68559Q21.8874 7.9029 22.322 7.9029Q22.7489 7.9029 23.0904 7.68559Q23.4319 7.46828 23.6298 7.08022Q23.8277 6.69217 23.8277 6.21098ZM24.8832 7.38291Q24.8832 7.32858 24.9453 7.28201Q24.9841 7.24321 25.0384 7.24321Q25.116 7.24321 25.1626 7.3053Q25.6127 7.94947 26.4199 7.94947Q26.8312 7.94947 27.1417 7.7438Q27.4521 7.53813 27.4521 7.18888Q27.4521 6.83187 27.1805 6.65336Q26.9088 6.47486 26.4354 6.35844Q25.8068 6.20322 25.4459 5.94322Q25.085 5.68323 25.085 5.2098Q25.085 4.75189 25.4497 4.45309Q25.8145 4.15429 26.3888 4.15429Q26.707 4.15429 27.0214 4.27846Q27.3357 4.40264 27.5918 4.67428Q27.6461 4.72085 27.6461 4.78294Q27.6461 4.85279 27.5918 4.90711Q27.5297 4.93816 27.4909 4.93816Q27.4366 4.93816 27.3978 4.89159Q26.9942 4.44921 26.3578 4.44921Q25.9465 4.44921 25.6632 4.651Q25.3799 4.85279 25.3799 5.2098Q25.4032 5.54352 25.6865 5.72591Q25.9697 5.9083 26.5208 6.048Q26.9166 6.14889 27.1766 6.26919Q27.4366 6.38949 27.5918 6.6068Q27.747 6.82411 27.747 7.17336Q27.747 7.66231 27.3706 7.94559Q26.9942 8.22887 26.3888 8.22887Q25.5041 8.22887 24.9375 7.53037Q24.8832 7.445 24.8832 7.38291Z" style="display:inline;stroke:#000000;stroke-width:0.35;stroke-linecap:round;stroke-linejoin:bevel" />
        <path id="store_line_art" d="M 29.48,60.00 L 10.24,60.00 A 2 2 0 0 1 8.24 58 L 8.24,31.00 A 2 2 0 0 1 10.24 29 L 10.49,29.00 " style="stroke:#000000;stroke-width:0.35;stroke-linecap:round;stroke-linejoin:round;stroke-dasharray:none" fill="none" />
        <path id="recall_line_art" d="M 29.48,55.00 L 24.24,55.00 A 2 2 0 0 1 22.24 53 L 22.24,31.00 A 2 2 0 0 0 20.24 29 L 19.99,29.00 " style="stroke:#000000;stroke-width:0.35;stroke-linecap:round;stroke-linejoin:round;stroke-dasharray:none" fill="none" />
        <path d="M 6.24,18.00 L 24.24,18.00 z " style="stroke:#000000;stroke-width:0.25;stroke-linecap:round;stroke-linejoin:bevel;stroke-dasharray:none" />
    </g>
</svg>
