<?xml version="1.0" encoding="utf-8"?>
<svg xmlns="http://www.w3.org/2000/svg" width="30.48mm" height="128.50mm" viewBox="0 0 30.48 128.50">
    <g id="PanelLayer">
        <rect id="border_rect" width="30.48" height="128.5" x="0" y="0" style="display:inline;fill:#4f8df2;fill-opacity:1;stroke:none;" />
        <path id="model_name" d="M7.03651 4.70533Q7.03651 4.76741 6.99382 4.81398Q6.95113 4.86055 6.88904 4.86055Q6.81919 4.86055 6.78427 4.83726Q6.74934 4.81398 6.68726 4.75189Q6.58636 4.63547 6.47771 4.58115Q6.19831 4.44921 5.68607 4.44921Q5.24369 4.44921 4.86728 4.68204Q4.49086 4.91488 4.26967 5.31457Q4.04848 5.71427 4.04848 6.1877Q4.04848 6.68441 4.25415 7.08411Q4.45982 7.4838 4.83623 7.70887Q5.21264 7.93395 5.68607 7.93395Q5.99652 7.93395 6.17502 7.87962Q6.35353 7.82529 6.53203 7.7244Q6.65621 7.64679 6.74934 7.55365Q6.78815 7.51485 6.82696 7.48768Q6.86576 7.46052 6.90457 7.46052Q6.96666 7.46052 7.00158 7.49932Q7.03651 7.53813 7.03651 7.60022Q7.03651 7.70887 6.858 7.86022Q6.67949 8.01156 6.36517 8.12021Q6.05084 8.22887 5.66279 8.22887Q5.10399 8.22887 4.66549 7.96499Q4.22698 7.70111 3.98251 7.23545Q3.73803 6.76978 3.73803 6.1877Q3.73803 5.64442 3.98251 5.17875Q4.22698 4.71309 4.67325 4.43369Q5.11951 4.15429 5.69383 4.15429Q6.02756 4.15429 6.34189 4.2319Q6.65621 4.30951 6.84636 4.43757Q7.03651 4.56562 7.03651 4.70533ZM11.0645 5.72979V7.99604Q11.0645 8.05812 11.018 8.10469Q10.9714 8.15126 10.9093 8.15126Q10.8395 8.15126 10.7968 8.10469Q10.7541 8.05812 10.7541 7.99604V5.72979Q10.7541 5.19427 10.4902 4.86055Q10.2263 4.52682 9.68304 4.52682Q9.34932 4.52682 9.02723 4.6898Q8.70514 4.85279 8.50336 5.13219Q8.30157 5.41159 8.30157 5.72979V7.99604Q8.30157 8.05812 8.255 8.10469Q8.20843 8.15126 8.14634 8.15126Q8.07649 8.15126 8.03381 8.10469Q7.99112 8.05812 7.99112 7.99604V2.56326Q7.99112 2.50117 8.03769 2.4546Q8.08426 2.40804 8.14634 2.40804Q8.21619 2.40804 8.25888 2.4546Q8.30157 2.50117 8.30157 2.56326V5.01577Q8.51888 4.67428 8.90305 4.45309Q9.28723 4.2319 9.68304 4.2319Q10.3505 4.2319 10.7075 4.65488Q11.0645 5.07786 11.0645 5.72979ZM13.9982 8.22887Q13.4627 8.22887 13.0242 7.96111Q12.5857 7.69335 12.3335 7.22769Q12.0812 6.76202 12.0812 6.19546Q12.0812 5.62114 12.3335 5.15547Q12.5857 4.6898 13.0203 4.42204Q13.4549 4.15429 13.9982 4.15429Q14.5337 4.15429 14.9722 4.42204Q15.4107 4.6898 15.6591 5.15547Q15.9075 5.62114 15.9075 6.19546Q15.9075 6.76978 15.6591 7.23157Q15.4107 7.69335 14.9722 7.96111Q14.5337 8.22887 13.9982 8.22887ZM13.9982 4.44921Q13.5481 4.44921 13.1794 4.67816Q12.8108 4.90711 12.6012 5.30293Q12.3917 5.69875 12.3917 6.19546Q12.3917 6.68441 12.6012 7.08022Q12.8108 7.47604 13.1794 7.70499Q13.5481 7.93395 13.9982 7.93395Q14.4561 7.93395 14.8209 7.70887Q15.1857 7.4838 15.3913 7.08411Q15.597 6.68441 15.597 6.19546Q15.597 5.69875 15.3913 5.30293Q15.1857 4.90711 14.8209 4.67816Q14.4561 4.44921 13.9982 4.44921ZM19.0352 4.33279Q19.0352 4.40264 18.9964 4.44921Q18.9576 4.49578 18.8955 4.49578Q18.8722 4.49578 18.7829 4.46085Q18.6937 4.42592 18.5928 4.42592Q18.2746 4.42592 17.9564 4.67816Q17.6382 4.9304 17.4364 5.31457Q17.2346 5.69875 17.2346 6.05576V7.99604Q17.2346 8.05812 17.188 8.10469Q17.1415 8.15126 17.0794 8.15126Q17.0095 8.15126 16.9668 8.10469Q16.9242 8.05812 16.9242 7.99604V4.43369Q16.9242 4.3716 16.9707 4.32503Q17.0173 4.27846 17.0794 4.27846Q17.1492 4.27846 17.1919 4.32503Q17.2346 4.3716 17.2346 4.43369V5.25636Q17.4131 4.78294 17.7895 4.47249Q18.1659 4.16205 18.6782 4.15429Q19.0352 4.15429 19.0352 4.33279ZM22.8614 4.43369V6.69217Q22.8614 7.42948 22.4462 7.81365Q22.031 8.19782 21.3169 8.19782Q20.6029 8.19782 20.1916 7.81365Q19.7803 7.42948 19.7803 6.69217V4.43369Q19.7803 4.3716 19.8268 4.32503Q19.8734 4.27846 19.9355 4.27846Q20.0053 4.27846 20.048 4.32503Q20.0907 4.3716 20.0907 4.43369V6.69217Q20.0907 7.27425 20.4167 7.58858Q20.7426 7.9029 21.3169 7.9029Q21.899 7.9029 22.225 7.58858Q22.551 7.27425 22.551 6.69217V4.43369Q22.551 4.3716 22.5937 4.32503Q22.6363 4.27846 22.7062 4.27846Q22.776 4.27846 22.8187 4.32503Q22.8614 4.3716 22.8614 4.43369ZM23.8781 7.38291Q23.8781 7.32858 23.9402 7.28201Q23.979 7.24321 24.0333 7.24321Q24.1109 7.24321 24.1575 7.3053Q24.6077 7.94947 25.4148 7.94947Q25.8262 7.94947 26.1366 7.7438Q26.447 7.53813 26.447 7.18888Q26.447 6.83187 26.1754 6.65336Q25.9038 6.47486 25.4303 6.35844Q24.8017 6.20322 24.4408 5.94322Q24.0799 5.68323 24.0799 5.2098Q24.0799 4.75189 24.4447 4.45309Q24.8095 4.15429 25.3838 4.15429Q25.702 4.15429 26.0163 4.27846Q26.3306 4.40264 26.5867 4.67428Q26.6411 4.72085 26.6411 4.78294Q26.6411 4.85279 26.5867 4.90711Q26.5247 4.93816 26.4858 4.93816Q26.4315 4.93816 26.3927 4.89159Q25.9891 4.44921 25.3527 4.44921Q24.9414 4.44921 24.6581 4.651Q24.3748 4.85279 24.3748 5.2098Q24.3981 5.54352 24.6814 5.72591Q24.9647 5.9083 25.5157 6.048Q25.9115 6.14889 26.1715 6.26919Q26.4315 6.38949 26.5867 6.6068Q26.742 6.82411 26.742 7.17336Q26.742 7.66231 26.3656 7.94559Q25.9891 8.22887 25.3838 8.22887Q24.499 8.22887 23.9324 7.53037Q23.8781 7.445 23.8781 7.38291Z" style="display:inline;stroke:#000000;stroke-width:0.35;stroke-linecap:round;stroke-linejoin:bevel" />
        <path id="sapphire_gemstone" d="m 17.955,122.900 q 0,0.34175 -0.242534,0.63114 -0.0441,0.0524 -0.20395,0.21497 -0.187413,0.19017 -0.785481,0.81304 l -1.444183,1.51309 q -0.01929,0.003 -0.0441,0.003 -0.02756,0 -0.04134,-0.003 -0.08268,-0.0827 -0.647678,-0.67524 -0.468532,-0.47404 -0.934309,-0.94809 -0.556727,-0.56775 -0.89848,-0.98116 -0.132292,-0.15985 -0.168121,-0.29766 -0.02756,-0.10197 -0.02756,-0.34175 0,-0.11024 0.07166,-0.28939 0.06614,-0.16536 0.140559,-0.26458 0.118512,-0.1571 0.42168,-0.42444 0.283875,-0.2508 0.474044,-0.37482 0.272852,-0.17915 0.818555,-0.36656 0.09646,-0.0331 0.110243,-0.0331 h 1.3615 q 0.01102,0 0.104731,0.0331 0.567751,0.20119 0.824066,0.36656 0.165365,0.10473 0.474045,0.37758 0.322461,0.28388 0.421679,0.42168 0.214974,0.2949 0.214974,0.62563 z m -0.16812,-0.27285 q -0.03307,-0.10749 -0.135048,-0.30868 -0.07166,-0.0937 -0.209462,-0.19844 -0.118511,-0.0854 -0.234266,-0.17088 0.245291,0.3638 0.578776,0.678 z m -0.573264,-0.52366 -0.358289,-0.44648 v 0.41065 z m 0.636653,0.75792 q 0,-0.0524 -0.341753,-0.39412 l 0.228754,0.7028 h 0.04961 q 0.06339,-0.21773 0.06339,-0.30868 z m -0.23151,0.27285 -0.316948,-0.90399 -0.410655,-0.0634 -0.159853,0.61461 z m 0.0028,0.15434 -0.771701,-0.3197 h -0.03032 l 0.344509,0.60634 q 0.07993,-0.003 0.234266,-0.0469 0.02481,-0.0138 0.223242,-0.23978 z m -0.857139,-1.05006 -0.719335,0.28388 0.60358,0.22599 z m 0,-0.16261 v -0.51538 l -0.917773,-0.38034 h -1.223697 l -0.917772,0.38034 v 0.51538 l 0.89848,0.4079 h 1.254014 z m 0.573264,1.53789 q -0.0689,0.011 -0.198438,0.0524 -0.08544,0.0551 -0.259071,0.16261 0.01929,0 0.06339,0.003 0.04134,0 0.06339,0 0.118511,0 0.190169,-0.0689 0.07166,-0.0717 0.14056,-0.14883 z m -0.289388,0.003 -0.347266,-0.63114 -0.363801,0.87918 q 0.0248,-0.0165 0.06615,-0.0165 0.03032,0 0.08544,0.011 0.05788,0.008 0.08819,0.008 0.04961,0 0.228754,-0.10749 0.228754,-0.1378 0.242535,-0.14331 z m -0.440972,-0.74139 -0.683507,-0.2756 -0.592556,0.54845 0.903993,0.65595 z m -0.854383,-0.28387 h -1.036284 l 0.523654,0.47404 z m 0.749652,1.36701 q -0.228754,-0.0303 -0.228754,-0.0303 -0.03583,0 -0.272851,0.0937 l 0.190169,0.0193 q 0.01102,0 0.311436,-0.0827 z m -0.388606,-0.0882 -0.843359,-0.61185 v 0.67524 l 0.471289,0.0827 z m 0.854383,0.0496 q -0.09922,0.006 -0.2949,0.0386 -0.01102,0.003 -0.377583,0.17639 -0.129535,0.34726 -0.380338,1.0418 z m -2.543857,-1.39733 -0.719335,-0.28388 0.124023,0.51814 z m -0.802018,-0.45476 v -0.41065 l -0.366557,0.44648 z m 1.515841,1.07212 -0.592556,-0.54019 -0.683506,0.2756 0.380338,0.9288 z m 0.369314,0.94257 q -0.03307,-0.003 -0.135047,-0.0248 -0.08544,-0.0165 -0.137804,-0.0165 -0.05237,0 -0.137804,0.0165 -0.101975,0.0221 -0.135047,0.0248 0.264583,0.0469 0.272851,0.0469 0.0083,0 0.272851,-0.0469 z m -0.30868,-0.1378 v -0.68626 l -0.843359,0.61185 0.37207,0.14607 z m 0.950846,0.20671 -0.396875,-0.0551 -0.479557,0.14056 v 1.27607 z m -2.888366,-2.20211 q -0.118512,0.0854 -0.234267,0.17364 -0.146072,0.10748 -0.209461,0.19568 -0.0441,0.10473 -0.135048,0.31419 0.369314,-0.3638 0.578776,-0.68351 z m 0.476801,0.83234 -0.159853,-0.61461 -0.410655,0.0634 -0.316948,0.90399 z m 0.394118,1.08313 -0.363802,-0.87918 -0.355533,0.63114 q 0.43546,0.2508 0.451996,0.2508 0.09095,0 0.267339,-0.003 z m 1.821765,0.82958 q -0.132291,0.21222 -0.405143,0.6339 -0.07717,0.10749 -0.220486,0.32797 -0.05788,0.10473 -0.05512,0.226 0.159852,-0.15158 0.432704,-0.49609 0.07717,-0.12954 0.140559,-0.339 0.05512,-0.17639 0.107486,-0.35278 z m -1.493792,-0.66146 -0.270095,-0.0882 -0.0083,-0.011 q -0.02481,0 -0.107487,0.011 -0.06615,0.006 -0.107487,0.006 0.272851,0.091 0.311436,0.091 0.02481,0 0.181901,-0.008 z m -0.810286,-1.06384 h -0.03032 l -0.7717,0.3197 q 0.06615,0.0965 0.223242,0.23978 0.07717,0.0138 0.234266,0.0469 z m -0.689018,-0.50161 q -0.341754,0.34727 -0.341754,0.39412 0,0.0799 0.06339,0.30868 h 0.04961 z m 2.235176,3.04547 v -1.27607 l -0.479557,-0.14056 -0.396875,0.0551 z m -1.606791,-1.6757 q -0.256315,-0.1819 -0.457509,-0.22324 0.06615,0.0772 0.20395,0.22324 z m 1.609547,2.04501 v -0.1378 l -0.683507,-1.05007 q 0.05237,0.17639 0.107487,0.35278 0.06339,0.20946 0.14056,0.339 0.0689,0.11851 0.20395,0.25907 0.115755,0.11851 0.23151,0.23702 z m -0.644921,-0.70555 q -0.115756,-0.32798 -0.380339,-1.0418 -0.135047,-0.0662 -0.272851,-0.12954 -0.159852,-0.0716 -0.289388,-0.0716 -0.05237,0 -0.110243,-0.0138 z" style="stroke-width:0;fill:#0000ff;stroke:#2e2114;stroke-linecap:square;stroke-opacity:1" />
        <path d="M 6.24,35.14 L 24.24,35.14 z " style="stroke:#000000;stroke-width:0.25;stroke-linecap:round;stroke-linejoin:bevel;stroke-dasharray:none" />
        <path d="M 6.24,48.29 L 24.24,48.29 z " style="stroke:#000000;stroke-width:0.25;stroke-linecap:round;stroke-linejoin:bevel;stroke-dasharray:none" />
        <path d="M11.9645 29.157Q11.9645 29.5062 11.8533 29.7849Q11.7422 30.0636 11.5129 30.2276Q11.2836 30.3917 10.9414 30.3917H10.0242Q9.99596 30.3917 9.97479 30.3705Q9.95363 30.3494 9.95363 30.3211V27.9928Q9.95363 27.9646 9.97479 27.9434Q9.99596 27.9222 10.0242 27.9222H10.9414Q11.2801 27.9222 11.5111 28.0916Q11.7422 28.2609 11.8533 28.5414Q11.9645 28.8218 11.9645 29.157ZM11.8163 29.157Q11.8163 28.8571 11.7193 28.6084Q11.6223 28.3597 11.4194 28.2115Q11.2166 28.0634 10.9061 28.0634H10.1018V30.2506H10.9061Q11.3647 30.2506 11.5905 29.949Q11.8163 29.6473 11.8163 29.157ZM13.9647 30.3211Q13.9647 30.3529 13.9435 30.3723Q13.9224 30.3917 13.8942 30.3917H12.5642Q12.536 30.3917 12.5148 30.3705Q12.4936 30.3494 12.4936 30.3211V27.9928Q12.4936 27.9646 12.5148 27.9434Q12.536 27.9222 12.5642 27.9222H13.8942Q13.9224 27.9222 13.9435 27.9434Q13.9647 27.9646 13.9647 27.9928Q13.9647 28.0246 13.9435 28.044Q13.9224 28.0634 13.8942 28.0634H12.6418V29.0476H13.7354Q13.7636 29.0476 13.7848 29.0688Q13.806 29.0899 13.806 29.1182Q13.806 29.1499 13.7848 29.1693Q13.7636 29.1887 13.7354 29.1887H12.6418V30.2506H13.8942Q13.9224 30.2506 13.9435 30.2717Q13.9647 30.2929 13.9647 30.3211ZM16.0778 28.5961Q16.0778 28.7936 15.9949 28.9541Q15.912 29.1146 15.7603 29.2046Q15.6087 29.2946 15.4111 29.2946H14.642V30.3211Q14.642 30.3494 14.6191 30.3705Q14.5962 30.3917 14.568 30.3917Q14.5362 30.3917 14.515 30.3705Q14.4939 30.3494 14.4939 30.3211V27.9928Q14.4939 27.9646 14.515 27.9434Q14.5362 27.9222 14.5644 27.9222H15.4111Q15.711 27.9222 15.8944 28.1092Q16.0778 28.2962 16.0778 28.5961ZM15.9297 28.5961Q15.9297 28.3526 15.7903 28.208Q15.651 28.0634 15.4111 28.0634H14.642V29.1534H15.4111Q15.6475 29.1534 15.7886 28.9965Q15.9297 28.8395 15.9297 28.5961ZM18.2157 27.9893Q18.2157 28.021 18.1963 28.0387Q18.1769 28.0563 18.1451 28.0563H17.3584V30.3211Q17.3584 30.3494 17.3373 30.3705Q17.3161 30.3917 17.2879 30.3917Q17.2561 30.3917 17.2367 30.3705Q17.2173 30.3494 17.2173 30.3211V28.0563H16.4306Q16.4024 28.0563 16.3812 28.0369Q16.3601 28.0175 16.3601 27.9893Q16.3601 27.9611 16.3812 27.9416Q16.4024 27.9222 16.4306 27.9222H18.1451Q18.1733 27.9222 18.1945 27.9416Q18.2157 27.9611 18.2157 27.9893ZM20.5264 27.9963V30.3176Q20.5228 30.3494 20.5017 30.3705Q20.4805 30.3917 20.4523 30.3917Q20.417 30.3917 20.3976 30.3705Q20.3782 30.3494 20.3782 30.3176V29.1922H18.8401V30.3176Q18.8366 30.3494 18.8154 30.3705Q18.7942 30.3917 18.766 30.3917Q18.7307 30.3917 18.7113 30.3705Q18.6919 30.3494 18.6919 30.3176V27.9963Q18.6919 27.9646 18.7131 27.9434Q18.7343 27.9222 18.766 27.9222Q18.7978 27.9222 18.8189 27.9434Q18.8401 27.9646 18.8401 27.9963V29.0511H20.3782V27.9963Q20.3782 27.9646 20.3994 27.9434Q20.4205 27.9222 20.4523 27.9222Q20.484 27.9222 20.5052 27.9434Q20.5264 27.9646 20.5264 27.9963Z" style="stroke:#000000;stroke-width:0.25;stroke-linecap:round;stroke-linejoin:bevel" />
        <path d="M13.021 43.4605Q13.021 43.4922 13.0016 43.5116Q12.9822 43.531 12.954 43.531Q12.9328 43.531 12.9223 43.524Q12.827 43.471 12.7706 43.3458Q12.7141 43.2206 12.7141 42.9348Q12.7141 42.6455 12.5589 42.538Q12.4037 42.4304 12.1991 42.4304H11.3736V43.464Q11.3736 43.4922 11.3524 43.5134Q11.3312 43.5345 11.2995 43.5345Q11.2677 43.5345 11.2466 43.5134Q11.2254 43.4922 11.2254 43.464V41.1357Q11.2254 41.1074 11.2466 41.0863Q11.2677 41.0651 11.2959 41.0651H12.2273Q12.4319 41.0651 12.5906 41.148Q12.7494 41.2309 12.8376 41.3755Q12.9258 41.5202 12.9258 41.7036Q12.9258 41.94 12.8005 42.1093Q12.6753 42.2787 12.4742 42.3386Q12.6436 42.3915 12.7529 42.5485Q12.8623 42.7055 12.8623 42.9348Q12.8623 43.1712 12.8923 43.2647Q12.9223 43.3582 12.9822 43.397Q13.021 43.4217 13.021 43.4605ZM12.2449 42.2892Q12.4672 42.2681 12.6224 42.1129Q12.7776 41.9576 12.7776 41.7072Q12.7776 41.4884 12.6224 41.3473Q12.4672 41.2062 12.2096 41.2062H11.3736V42.2892ZM15.3811 43.4675Q15.3811 43.4993 15.3599 43.5169Q15.3388 43.5345 15.307 43.5345Q15.2823 43.5345 15.2629 43.5222Q15.2435 43.5099 15.2365 43.4887L14.9401 42.762L14.9437 42.769H13.7619L13.4761 43.4887Q13.4585 43.5345 13.4126 43.5345Q13.3809 43.5345 13.3615 43.5169Q13.3421 43.4993 13.3385 43.4746Q13.335 43.4605 13.3421 43.4393L14.291 41.1039Q14.3016 41.0757 14.3175 41.0669Q14.3334 41.058 14.3581 41.058Q14.411 41.058 14.4286 41.1039L15.3776 43.4393Q15.3811 43.4499 15.3811 43.4675ZM13.8183 42.6279H14.8872L14.3475 41.2979ZM17.4837 41.1321Q17.4837 41.1639 17.4643 41.1815Q17.4449 41.1992 17.4131 41.1992H16.6264V43.464Q16.6264 43.4922 16.6053 43.5134Q16.5841 43.5345 16.5559 43.5345Q16.5241 43.5345 16.5047 43.5134Q16.4853 43.4922 16.4853 43.464V41.1992H15.6986Q15.6704 41.1992 15.6492 41.1798Q15.6281 41.1604 15.6281 41.1321Q15.6281 41.1039 15.6492 41.0845Q15.6704 41.0651 15.6986 41.0651H17.4131Q17.4413 41.0651 17.4625 41.0845Q17.4837 41.1039 17.4837 41.1321ZM19.431 43.464Q19.431 43.4957 19.4098 43.5151Q19.3887 43.5345 19.3604 43.5345H18.0305Q18.0023 43.5345 17.9811 43.5134Q17.9599 43.4922 17.9599 43.464V41.1357Q17.9599 41.1074 17.9811 41.0863Q18.0023 41.0651 18.0305 41.0651H19.3604Q19.3887 41.0651 19.4098 41.0863Q19.431 41.1074 19.431 41.1357Q19.431 41.1674 19.4098 41.1868Q19.3887 41.2062 19.3604 41.2062H18.1081V42.1905H19.2017Q19.2299 42.1905 19.2511 42.2116Q19.2722 42.2328 19.2722 42.261Q19.2722 42.2928 19.2511 42.3122Q19.2299 42.3316 19.2017 42.3316H18.1081V43.3934H19.3604Q19.3887 43.3934 19.4098 43.4146Q19.431 43.4358 19.431 43.464Z" style="stroke:#000000;stroke-width:0.25;stroke-linecap:round;stroke-linejoin:bevel" />
    </g>
</svg>
