<?xml version="1.0" encoding="utf-8"?>
<svg xmlns="http://www.w3.org/2000/svg" width="60.96mm" height="128.50mm" viewBox="0 0 60.96 128.50">
    <path d="M44.5329 17.1747Q44.5329 17.2065 44.5135 17.2259Q44.4941 17.2453 44.4659 17.2453Q44.4447 17.2453 44.4341 17.2383Q44.3389 17.1853 44.2824 17.0601Q44.226 16.9349 44.226 16.6491Q44.226 16.3598 44.0708 16.2522Q43.9155 16.1446 43.7109 16.1446H42.8854V17.1783Q42.8854 17.2065 42.8643 17.2277Q42.8431 17.2488 42.8113 17.2488Q42.7796 17.2488 42.7584 17.2277Q42.7373 17.2065 42.7373 17.1783V14.8499Q42.7373 14.8217 42.7584 14.8006Q42.7796 14.7794 42.8078 14.7794H43.7392Q43.9438 14.7794 44.1025 14.8623Q44.2613 14.9452 44.3495 15.0898Q44.4377 15.2345 44.4377 15.4179Q44.4377 15.6543 44.3124 15.8236Q44.1872 15.9929 43.9861 16.0529Q44.1554 16.1058 44.2648 16.2628Q44.3742 16.4198 44.3742 16.6491Q44.3742 16.8855 44.4041 16.979Q44.4341 17.0724 44.4941 17.1113Q44.5329 17.1359 44.5329 17.1747ZM43.7568 16.0035Q43.979 15.9824 44.1343 15.8271Q44.2895 15.6719 44.2895 15.4214Q44.2895 15.2027 44.1343 15.0616Q43.979 14.9205 43.7215 14.9205H42.8854V16.0035ZM46.5508 17.1783Q46.5508 17.21 46.5296 17.2294Q46.5085 17.2488 46.4802 17.2488H45.1503Q45.122 17.2488 45.1009 17.2277Q45.0797 17.2065 45.0797 17.1783V14.8499Q45.0797 14.8217 45.1009 14.8006Q45.122 14.7794 45.1503 14.7794H46.4802Q46.5085 14.7794 46.5296 14.8006Q46.5508 14.8217 46.5508 14.8499Q46.5508 14.8817 46.5296 14.9011Q46.5085 14.9205 46.4802 14.9205H45.2279V15.9047H46.3215Q46.3497 15.9047 46.3709 15.9259Q46.392 15.9471 46.392 15.9753Q46.392 16.0071 46.3709 16.0265Q46.3497 16.0459 46.3215 16.0459H45.2279V17.1077H46.4802Q46.5085 17.1077 46.5296 17.1289Q46.5508 17.1501 46.5508 17.1783ZM48.932 14.8429Q48.932 14.857 48.925 14.8782L47.9584 17.203Q47.9372 17.2488 47.8913 17.2488Q47.8702 17.2488 47.8508 17.2365Q47.8314 17.2241 47.8243 17.203L46.8648 14.8887Q46.8542 14.8676 46.8542 14.8464Q46.8542 14.8182 46.8736 14.7988Q46.893 14.7794 46.9212 14.7794Q46.9741 14.7794 46.9988 14.8358L47.8949 16.9913L48.7945 14.8253Q48.8192 14.7794 48.8615 14.7794Q48.8932 14.7794 48.9126 14.797Q48.932 14.8147 48.932 14.8429Z" style="stroke:#6f02b8;stroke-width:0.25;stroke-linecap:round;stroke-linejoin:bevel" />
    <path d="M 40.72,16.00 L 42.72,13.50 L 48.92,13.50 L 50.92,16.00 L 48.92,18.50 L 42.72,18.50 z " style="stroke:#6f02b8;stroke-width:0.25;stroke-linecap:round;stroke-linejoin:bevel" fill="none" />
</svg>
