<?xml version="1.0" encoding="utf-8"?>
<svg xmlns="http://www.w3.org/2000/svg" width="30.48mm" height="128.50mm" viewBox="0 0 30.48 128.50">
    <path d="M14.0952 14.8499Q14.0952 14.8817 14.0741 14.9011Q14.0529 14.9205 14.0247 14.9205H12.7653V15.8942H13.8659Q13.8942 15.8942 13.9153 15.9153Q13.9365 15.9365 13.9365 15.9647Q13.9365 15.9965 13.9153 16.0159Q13.8942 16.0353 13.8659 16.0353H12.7653V17.1783Q12.7653 17.2065 12.7459 17.2277Q12.7265 17.2488 12.6947 17.2488Q12.663 17.2488 12.6436 17.2277Q12.6242 17.2065 12.6242 17.1783V14.8499Q12.6242 14.8217 12.6453 14.8006Q12.6665 14.7794 12.6947 14.7794H14.0247Q14.0529 14.7794 14.0741 14.8006Q14.0952 14.8217 14.0952 14.8499ZM16.0602 17.1783Q16.0602 17.21 16.039 17.2294Q16.0179 17.2488 15.9897 17.2488H14.695Q14.6632 17.2488 14.6438 17.2277Q14.6244 17.2065 14.6244 17.1783V14.8499Q14.6244 14.8217 14.6456 14.8006Q14.6667 14.7794 14.6985 14.7794Q14.7302 14.7794 14.7514 14.8006Q14.7726 14.8217 14.7726 14.8499V17.1077H15.9897Q16.0179 17.1077 16.039 17.1289Q16.0602 17.1501 16.0602 17.1783ZM18.0499 15.4532Q18.0499 15.6508 17.967 15.8113Q17.8841 15.9718 17.7324 16.0617Q17.5807 16.1517 17.3831 16.1517H16.6141V17.1783Q16.6141 17.2065 16.5911 17.2277Q16.5682 17.2488 16.54 17.2488Q16.5082 17.2488 16.4871 17.2277Q16.4659 17.2065 16.4659 17.1783V14.8499Q16.4659 14.8217 16.4871 14.8006Q16.5082 14.7794 16.5365 14.7794H17.3831Q17.683 14.7794 17.8664 14.9664Q18.0499 15.1533 18.0499 15.4532ZM17.9017 15.4532Q17.9017 15.2098 17.7624 15.0651Q17.623 14.9205 17.3831 14.9205H16.6141V16.0106H17.3831Q17.6195 16.0106 17.7606 15.8536Q17.9017 15.6966 17.9017 15.4532Z" style="stroke:#000000;stroke-width:0.25;stroke-linecap:round;stroke-linejoin:bevel" />
</svg>
