<?xml version="1.0" encoding="utf-8"?>
<svg xmlns="http://www.w3.org/2000/svg" width="60.96mm" height="128.50mm" viewBox="0 0 60.96 128.50">
    <path d="M13.021 70.6497Q13.021 70.6815 13.0016 70.7009Q12.9822 70.7203 12.954 70.7203Q12.9328 70.7203 12.9223 70.7133Q12.827 70.6603 12.7706 70.5351Q12.7141 70.4099 12.7141 70.1241Q12.7141 69.8348 12.5589 69.7272Q12.4037 69.6196 12.1991 69.6196H11.3736V70.6533Q11.3736 70.6815 11.3524 70.7027Q11.3312 70.7238 11.2995 70.7238Q11.2677 70.7238 11.2466 70.7027Q11.2254 70.6815 11.2254 70.6533V68.3249Q11.2254 68.2967 11.2466 68.2756Q11.2677 68.2544 11.2959 68.2544H12.2273Q12.4319 68.2544 12.5906 68.3373Q12.7494 68.4202 12.8376 68.5648Q12.9258 68.7095 12.9258 68.8929Q12.9258 69.1293 12.8005 69.2986Q12.6753 69.4679 12.4742 69.5279Q12.6436 69.5808 12.7529 69.7378Q12.8623 69.8948 12.8623 70.1241Q12.8623 70.3605 12.8923 70.454Q12.9223 70.5474 12.9822 70.5862Q13.021 70.6109 13.021 70.6497ZM12.2449 69.4785Q12.4672 69.4574 12.6224 69.3021Q12.7776 69.1469 12.7776 68.8964Q12.7776 68.6777 12.6224 68.5366Q12.4672 68.3955 12.2096 68.3955H11.3736V69.4785ZM15.3811 70.6568Q15.3811 70.6886 15.3599 70.7062Q15.3388 70.7238 15.307 70.7238Q15.2823 70.7238 15.2629 70.7115Q15.2435 70.6991 15.2365 70.678L14.9401 69.9513L14.9437 69.9583H13.7619L13.4761 70.678Q13.4585 70.7238 13.4126 70.7238Q13.3809 70.7238 13.3615 70.7062Q13.3421 70.6886 13.3385 70.6639Q13.335 70.6497 13.3421 70.6286L14.291 68.2932Q14.3016 68.265 14.3175 68.2562Q14.3334 68.2473 14.3581 68.2473Q14.411 68.2473 14.4286 68.2932L15.3776 70.6286Q15.3811 70.6392 15.3811 70.6568ZM13.8183 69.8172H14.8872L14.3475 68.4872ZM17.4837 68.3214Q17.4837 68.3532 17.4643 68.3708Q17.4449 68.3884 17.4131 68.3884H16.6264V70.6533Q16.6264 70.6815 16.6053 70.7027Q16.5841 70.7238 16.5559 70.7238Q16.5241 70.7238 16.5047 70.7027Q16.4853 70.6815 16.4853 70.6533V68.3884H15.6986Q15.6704 68.3884 15.6492 68.369Q15.6281 68.3496 15.6281 68.3214Q15.6281 68.2932 15.6492 68.2738Q15.6704 68.2544 15.6986 68.2544H17.4131Q17.4413 68.2544 17.4625 68.2738Q17.4837 68.2932 17.4837 68.3214ZM19.431 70.6533Q19.431 70.685 19.4098 70.7044Q19.3887 70.7238 19.3604 70.7238H18.0305Q18.0023 70.7238 17.9811 70.7027Q17.9599 70.6815 17.9599 70.6533V68.3249Q17.9599 68.2967 17.9811 68.2756Q18.0023 68.2544 18.0305 68.2544H19.3604Q19.3887 68.2544 19.4098 68.2756Q19.431 68.2967 19.431 68.3249Q19.431 68.3567 19.4098 68.3761Q19.3887 68.3955 19.3604 68.3955H18.1081V69.3798H19.2017Q19.2299 69.3798 19.2511 69.4009Q19.2722 69.4221 19.2722 69.4503Q19.2722 69.4821 19.2511 69.5015Q19.2299 69.5209 19.2017 69.5209H18.1081V70.5827H19.3604Q19.3887 70.5827 19.4098 70.6039Q19.431 70.6251 19.431 70.6533Z" style="stroke:#000000;stroke-width:0.25;stroke-linecap:round;stroke-linejoin:bevel" />
</svg>
