<?xml version="1.0" encoding="utf-8"?>
<svg xmlns="http://www.w3.org/2000/svg" width="30.48mm" height="128.50mm" viewBox="0 0 30.48 128.50">
    <path d="M13.9629 115.014Q13.9629 115.363 13.8518 115.642Q13.7407 115.921 13.5114 116.085Q13.2821 116.249 12.9399 116.249H12.0227Q11.9944 116.249 11.9733 116.228Q11.9521 116.207 11.9521 116.178V113.85Q11.9521 113.822 11.9733 113.801Q11.9944 113.779 12.0227 113.779H12.9399Q13.2786 113.779 13.5096 113.949Q13.7407 114.118 13.8518 114.399Q13.9629 114.679 13.9629 115.014ZM13.8148 115.014Q13.8148 114.714 13.7178 114.466Q13.6208 114.217 13.4179 114.069Q13.2151 113.921 12.9046 113.921H12.1003V116.108H12.9046Q13.3632 116.108 13.589 115.806Q13.8148 115.504 13.8148 115.014ZM16.3513 114.04Q16.3513 114.069 16.3371 114.086Q16.316 114.115 16.2842 114.115Q16.2701 114.115 16.2419 114.1Q15.9138 113.878 15.5469 113.878Q15.2506 113.878 15.0019 114.025Q14.7532 114.171 14.6085 114.43Q14.4639 114.69 14.4639 115.014Q14.4639 115.339 14.6085 115.598Q14.7532 115.857 15.0019 116.004Q15.2506 116.15 15.5469 116.15Q15.9173 116.15 16.2384 115.931Q16.256 115.917 16.2807 115.917Q16.316 115.917 16.3371 115.945Q16.3513 115.963 16.3513 115.988Q16.3513 116.023 16.323 116.044Q16.1854 116.143 15.9685 116.214Q15.7515 116.284 15.5469 116.284Q15.2118 116.284 14.9296 116.118Q14.6473 115.953 14.4815 115.661Q14.3157 115.37 14.3157 115.014Q14.3157 114.658 14.4815 114.367Q14.6473 114.076 14.9296 113.91Q15.2118 113.744 15.5469 113.744Q15.7586 113.744 15.9579 113.808Q16.1572 113.871 16.3195 113.984Q16.3513 114.009 16.3513 114.04ZM18.6937 116.192Q18.6937 116.231 18.6672 116.249Q18.6408 116.266 18.6126 116.266Q18.5843 116.266 18.5632 116.242L17.5048 114.933L16.9757 115.423V116.175Q16.9721 116.207 16.951 116.228Q16.9298 116.249 16.9016 116.249Q16.8663 116.249 16.8469 116.228Q16.8275 116.207 16.8275 116.175V113.853Q16.8275 113.822 16.8487 113.801Q16.8698 113.779 16.9016 113.779Q16.9333 113.779 16.9545 113.801Q16.9757 113.822 16.9757 113.853V115.243L18.4997 113.815Q18.5208 113.794 18.5491 113.794Q18.5773 113.794 18.5984 113.815Q18.6196 113.836 18.6196 113.864Q18.6196 113.892 18.5984 113.913L17.6212 114.824L18.6761 116.143Q18.6937 116.168 18.6937 116.192Z" style="stroke:#000000;stroke-width:0.25;stroke-linecap:round;stroke-linejoin:bevel" />
    <rect x="11.24" y="112.75" width="8" height="4.5" stroke="black" stroke-width="0.2" fill="none" />
    <path d="M 6.24,115.00 L 11.24,115.00 " style="stroke:#000000;stroke-width:0.25;stroke-linecap:round;stroke-linejoin:bevel;stroke-dasharray:none" fill="none" />
    <path d="M 24.24,115.00 L 19.24,115.00 " style="stroke:#000000;stroke-width:0.25;stroke-linecap:round;stroke-linejoin:bevel;stroke-dasharray:none" fill="none" />
</svg>
