<?xml version="1.0" encoding="utf-8"?>
<svg xmlns="http://www.w3.org/2000/svg" width="30.48mm" height="128.50mm" viewBox="0 0 30.48 128.50">
    <path d="M12.797 116.249Q12.7617 116.249 12.7423 116.228Q12.7229 116.207 12.7229 116.175V113.853Q12.7229 113.822 12.7441 113.801Q12.7653 113.779 12.797 113.779Q12.8288 113.779 12.8499 113.801Q12.8711 113.822 12.8711 113.853V116.175Q12.8676 116.207 12.8464 116.228Q12.8252 116.249 12.797 116.249ZM15.4287 113.846V116.171Q15.4287 116.21 15.4076 116.229Q15.3864 116.249 15.3547 116.249Q15.3194 116.249 15.2982 116.221L13.7107 114.051V116.189Q13.7107 116.214 13.6913 116.231Q13.6719 116.249 13.6437 116.249Q13.6119 116.249 13.5943 116.231Q13.5767 116.214 13.5767 116.189V113.85Q13.5767 113.815 13.5961 113.797Q13.6155 113.779 13.6402 113.779Q13.6719 113.779 13.6931 113.804L15.2947 115.988V113.846Q15.2947 113.818 15.3141 113.799Q15.3335 113.779 15.3617 113.779Q15.3935 113.779 15.4111 113.799Q15.4287 113.818 15.4287 113.846ZM17.9864 113.843Q17.9864 113.857 17.9793 113.878L17.0127 116.203Q16.9915 116.249 16.9457 116.249Q16.9245 116.249 16.9051 116.236Q16.8857 116.224 16.8787 116.203L15.9191 113.889Q15.9085 113.868 15.9085 113.846Q15.9085 113.818 15.9279 113.799Q15.9473 113.779 15.9755 113.779Q16.0285 113.779 16.0532 113.836L16.9492 115.991L17.8488 113.825Q17.8735 113.779 17.9158 113.779Q17.9476 113.779 17.967 113.797Q17.9864 113.815 17.9864 113.843Z" style="stroke:#000000;stroke-width:0.25;stroke-linecap:round;stroke-linejoin:bevel" />
    <rect x="11.24" y="112.75" width="8" height="4.5" stroke="black" stroke-width="0.2" fill="none" />
    <path d="M 6.24,115.00 L 11.24,115.00 " style="stroke:#000000;stroke-width:0.25;stroke-linecap:round;stroke-linejoin:bevel;stroke-dasharray:none" fill="none" />
    <path d="M 24.24,115.00 L 19.24,115.00 " style="stroke:#000000;stroke-width:0.25;stroke-linecap:round;stroke-linejoin:bevel;stroke-dasharray:none" fill="none" />
</svg>
