<?xml version="1.0" encoding="utf-8"?>
<svg xmlns="http://www.w3.org/2000/svg" width="60.96mm" height="128.50mm" viewBox="0 0 60.96 128.50">
    <path d="M43.277 116.249Q43.2417 116.249 43.2223 116.228Q43.2029 116.207 43.2029 116.175V113.853Q43.2029 113.822 43.2241 113.801Q43.2453 113.779 43.277 113.779Q43.3088 113.779 43.3299 113.801Q43.3511 113.822 43.3511 113.853V116.175Q43.3476 116.207 43.3264 116.228Q43.3052 116.249 43.277 116.249ZM45.9087 113.846V116.171Q45.9087 116.21 45.8876 116.229Q45.8664 116.249 45.8347 116.249Q45.7994 116.249 45.7782 116.221L44.1907 114.051V116.189Q44.1907 116.214 44.1713 116.231Q44.1519 116.249 44.1237 116.249Q44.0919 116.249 44.0743 116.231Q44.0567 116.214 44.0567 116.189V113.85Q44.0567 113.815 44.0761 113.797Q44.0955 113.779 44.1202 113.779Q44.1519 113.779 44.1731 113.804L45.7747 115.988V113.846Q45.7747 113.818 45.7941 113.799Q45.8135 113.779 45.8417 113.779Q45.8735 113.779 45.8911 113.799Q45.9087 113.818 45.9087 113.846ZM48.4664 113.843Q48.4664 113.857 48.4593 113.878L47.4927 116.203Q47.4715 116.249 47.4257 116.249Q47.4045 116.249 47.3851 116.236Q47.3657 116.224 47.3587 116.203L46.3991 113.889Q46.3885 113.868 46.3885 113.846Q46.3885 113.818 46.4079 113.799Q46.4273 113.779 46.4555 113.779Q46.5085 113.779 46.5332 113.836L47.4292 115.991L48.3288 113.825Q48.3535 113.779 48.3958 113.779Q48.4276 113.779 48.447 113.797Q48.4664 113.815 48.4664 113.843Z" style="stroke:#6f02b8;stroke-width:0.25;stroke-linecap:round;stroke-linejoin:bevel" />
    <rect x="41.72" y="112.75" width="8" height="4.5" stroke="black" stroke-width="0.2" fill="none" />
    <path d="M 36.72,115.00 L 41.72,115.00 " style="stroke:#000000;stroke-width:0.25;stroke-linecap:round;stroke-linejoin:bevel;stroke-dasharray:none" fill="none" />
    <path d="M 54.72,115.00 L 49.72,115.00 " style="stroke:#000000;stroke-width:0.25;stroke-linecap:round;stroke-linejoin:bevel;stroke-dasharray:none" fill="none" />
</svg>
