<?xml version="1.0" encoding="utf-8"?>
<svg xmlns="http://www.w3.org/2000/svg" width="20.32mm" height="128.50mm" viewBox="0 0 20.32 128.50">
    <g id="PanelLayer">
        <defs />
        <rect id="border_rect" width="20.32" height="128.5" x="0" y="0" style="display:inline;fill:#4f8df2;fill-opacity:1;stroke:none;" />
        <path d="M 10.16,101.00 L 10.16,111.00 " style="stroke:#000000;stroke-width:0.25;stroke-linecap:round;stroke-linejoin:bevel;stroke-dasharray:none" fill="none" />
        <path d="M7.84754 95.7841Q7.50535 95.7841 7.23724 95.6236Q6.96913 95.4631 6.81919 95.1738Q6.66926 94.8845 6.66926 94.5141Q6.66926 94.1437 6.81919 93.8544Q6.96913 93.5651 7.23724 93.4046Q7.50535 93.2441 7.84754 93.2441Q8.18974 93.2441 8.45785 93.4046Q8.72596 93.5651 8.87589 93.8544Q9.02582 94.1437 9.02582 94.5141Q9.02582 94.8845 8.87589 95.1738Q8.72596 95.4631 8.45785 95.6236Q8.18974 95.7841 7.84754 95.7841ZM7.84754 93.3852Q7.54768 93.3852 7.31308 93.5263Q7.07849 93.6674 6.94796 93.925Q6.81743 94.1825 6.81743 94.5141Q6.81743 94.8457 6.94796 95.1033Q7.07849 95.3608 7.31308 95.5019Q7.54768 95.643 7.84754 95.643Q8.1474 95.643 8.382 95.5019Q8.6166 95.3608 8.74713 95.1033Q8.87765 94.8457 8.87765 94.5141Q8.87765 94.1825 8.74713 93.925Q8.6166 93.6674 8.382 93.5263Q8.1474 93.3852 7.84754 93.3852ZM11.3718 93.3499V94.8739Q11.3718 95.1209 11.2483 95.329Q11.1248 95.5372 10.9167 95.6606Q10.7086 95.7841 10.4652 95.7841Q10.2182 95.7841 10.0101 95.6606Q9.80193 95.5372 9.67846 95.329Q9.55499 95.1209 9.55499 94.8739V93.3499Q9.55499 93.3182 9.57615 93.2988Q9.59732 93.2794 9.62907 93.2794Q9.66082 93.2794 9.68199 93.3006Q9.70315 93.3217 9.70315 93.3499V94.8739Q9.70315 95.0821 9.80546 95.2585Q9.90776 95.4349 10.0824 95.5389Q10.257 95.643 10.4652 95.643Q10.6733 95.643 10.8479 95.5389Q11.0225 95.4349 11.1266 95.2585Q11.2307 95.0821 11.2307 94.8739V93.3499Q11.2307 93.3217 11.2501 93.3006Q11.2695 93.2794 11.3012 93.2794Q11.333 93.2794 11.3524 93.3006Q11.3718 93.3217 11.3718 93.3499ZM13.7037 93.3464Q13.7037 93.3782 13.6843 93.3958Q13.6648 93.4134 13.6331 93.4134H12.8464V95.6783Q12.8464 95.7065 12.8252 95.7277Q12.8041 95.7488 12.7758 95.7488Q12.7441 95.7488 12.7247 95.7277Q12.7053 95.7065 12.7053 95.6783V93.4134H11.9186Q11.8904 93.4134 11.8692 93.394Q11.848 93.3746 11.848 93.3464Q11.848 93.3182 11.8692 93.2988Q11.8904 93.2794 11.9186 93.2794H13.6331Q13.6613 93.2794 13.6825 93.2988Q13.7037 93.3182 13.7037 93.3464Z" style="stroke:#000000;stroke-width:0.25;stroke-linecap:round;stroke-linejoin:bevel" />
        <path d="M17.5278 102.178Q17.5278 102.21 17.5067 102.229Q17.4855 102.249 17.4573 102.249H16.1626Q16.1308 102.249 16.1114 102.228Q16.092 102.207 16.092 102.178V99.8499Q16.092 99.8217 16.1132 99.8006Q16.1344 99.7794 16.1661 99.7794Q16.1979 99.7794 16.219 99.8006Q16.2402 99.8217 16.2402 99.8499V102.108H17.4573Q17.4855 102.108 17.5067 102.129Q17.5278 102.15 17.5278 102.178Z" style="stroke:#000000;stroke-width:0.25;stroke-linecap:round;stroke-linejoin:bevel" />
        <path d="M17.6372 112.175Q17.6372 112.207 17.6178 112.226Q17.5984 112.245 17.5702 112.245Q17.549 112.245 17.5384 112.238Q17.4432 112.185 17.3867 112.06Q17.3303 111.935 17.3303 111.649Q17.3303 111.36 17.1751 111.252Q17.0198 111.145 16.8152 111.145H15.9897V112.178Q15.9897 112.207 15.9686 112.228Q15.9474 112.249 15.9156 112.249Q15.8839 112.249 15.8627 112.228Q15.8416 112.207 15.8416 112.178V109.85Q15.8416 109.822 15.8627 109.801Q15.8839 109.779 15.9121 109.779H16.8434Q17.0481 109.779 17.2068 109.862Q17.3656 109.945 17.4537 110.09Q17.5419 110.234 17.5419 110.418Q17.5419 110.654 17.4167 110.824Q17.2915 110.993 17.0904 111.053Q17.2597 111.106 17.3691 111.263Q17.4784 111.42 17.4784 111.649Q17.4784 111.885 17.5084 111.979Q17.5384 112.072 17.5984 112.111Q17.6372 112.136 17.6372 112.175ZM16.8611 111.004Q17.0833 110.982 17.2386 110.827Q17.3938 110.672 17.3938 110.421Q17.3938 110.203 17.2386 110.062Q17.0833 109.921 16.8258 109.921H15.9897V111.004Z" style="stroke:#000000;stroke-width:0.25;stroke-linecap:round;stroke-linejoin:bevel" />
        <path d="M9.80369 15.4499V17.7783Q9.80369 17.8065 9.78076 17.8277Q9.75783 17.8488 9.72961 17.8488Q9.69786 17.8488 9.67669 17.8277Q9.65553 17.8065 9.65553 17.7783V15.6687L8.74536 17.0445Q8.72772 17.0727 8.69597 17.0727Q8.65717 17.0727 8.63953 17.0445L7.72583 15.6651V17.7783Q7.72583 17.8065 7.70467 17.8277Q7.6835 17.8488 7.65528 17.8488Q7.62353 17.8488 7.60412 17.8277Q7.58472 17.8065 7.58472 17.7783V15.4499Q7.58472 15.4252 7.60412 15.4023Q7.62353 15.3794 7.65175 15.3794Q7.69761 15.3794 7.71878 15.4111L8.69597 16.8646L9.67317 15.4111Q9.70139 15.3723 9.74019 15.3794Q9.76842 15.3829 9.78606 15.4023Q9.80369 15.4217 9.80369 15.4499ZM10.5833 17.8488Q10.5481 17.8488 10.5287 17.8277Q10.5092 17.8065 10.5092 17.7747V15.4535Q10.5092 15.4217 10.5304 15.4006Q10.5516 15.3794 10.5833 15.3794Q10.6151 15.3794 10.6363 15.4006Q10.6574 15.4217 10.6574 15.4535V17.7747Q10.6539 17.8065 10.6327 17.8277Q10.6116 17.8488 10.5833 17.8488ZM12.9646 17.7465Q12.9822 17.7712 12.9822 17.7889Q12.9822 17.8206 12.9611 17.84Q12.9399 17.8594 12.9081 17.8594Q12.8693 17.8594 12.8517 17.8312L12.0438 16.7305L11.2395 17.8312Q11.2219 17.8594 11.1866 17.8594Q11.1548 17.8594 11.1372 17.84Q11.1196 17.8206 11.1196 17.7994Q11.1196 17.7818 11.1372 17.7536L11.9662 16.6212L11.1301 15.4817Q11.116 15.4641 11.116 15.4394Q11.116 15.4076 11.1372 15.3882Q11.1584 15.3688 11.1866 15.3688Q11.2289 15.3688 11.2466 15.397L12.0544 16.5012L12.8588 15.3935Q12.8799 15.3653 12.9117 15.3653Q12.9434 15.3653 12.9628 15.3812Q12.9822 15.397 12.9822 15.4217Q12.9822 15.4464 12.9646 15.4711L12.1356 16.6141Z" style="stroke:#000000;stroke-width:0.25;stroke-linecap:round;stroke-linejoin:bevel" />
        <path d="M 10.16,25.80 L 5.16,36.80 z L 15.16,36.80 z " style="stroke:#000000;stroke-width:0.25;stroke-linecap:round;stroke-linejoin:bevel;stroke-dasharray:none" />
        <path d="M6.94267 49.9783Q6.94267 50.01 6.9215 50.0294Q6.90033 50.0488 6.87211 50.0488H5.57742Q5.54567 50.0488 5.52626 50.0277Q5.50686 50.0065 5.50686 49.9783V47.6499Q5.50686 47.6217 5.52803 47.6006Q5.54919 47.5794 5.58094 47.5794Q5.61269 47.5794 5.63386 47.6006Q5.65503 47.6217 5.65503 47.6499V49.9077H6.87211Q6.90033 49.9077 6.9215 49.9289Q6.94267 49.9501 6.94267 49.9783ZM8.81944 49.9783Q8.81944 50.01 8.79828 50.0294Q8.77711 50.0488 8.74889 50.0488H7.41892Q7.39069 50.0488 7.36953 50.0277Q7.34836 50.0065 7.34836 49.9783V47.6499Q7.34836 47.6217 7.36953 47.6006Q7.39069 47.5794 7.41892 47.5794H8.74889Q8.77711 47.5794 8.79828 47.6006Q8.81944 47.6217 8.81944 47.6499Q8.81944 47.6817 8.79828 47.7011Q8.77711 47.7205 8.74889 47.7205H7.49653V48.7047H8.59014Q8.61836 48.7047 8.63953 48.7259Q8.66069 48.7471 8.66069 48.7753Q8.66069 48.8071 8.63953 48.8265Q8.61836 48.8459 8.59014 48.8459H7.49653V49.9077H8.74889Q8.77711 49.9077 8.79828 49.9289Q8.81944 49.9501 8.81944 49.9783ZM11.2007 47.6429Q11.2007 47.657 11.1936 47.6782L10.227 50.003Q10.2059 50.0488 10.16 50.0488Q10.1388 50.0488 10.1194 50.0365Q10.1 50.0241 10.093 50.003L9.13342 47.6887Q9.12283 47.6676 9.12283 47.6464Q9.12283 47.6182 9.14224 47.5988Q9.16164 47.5794 9.18986 47.5794Q9.24278 47.5794 9.26747 47.6358L10.1635 49.7913L11.0631 47.6252Q11.0878 47.5794 11.1301 47.5794Q11.1619 47.5794 11.1813 47.597Q11.2007 47.6147 11.2007 47.6429ZM13.148 49.9783Q13.148 50.01 13.1269 50.0294Q13.1057 50.0488 13.0775 50.0488H11.7475Q11.7193 50.0488 11.6981 50.0277Q11.6769 50.0065 11.6769 49.9783V47.6499Q11.6769 47.6217 11.6981 47.6006Q11.7193 47.5794 11.7475 47.5794H13.0775Q13.1057 47.5794 13.1269 47.6006Q13.148 47.6217 13.148 47.6499Q13.148 47.6817 13.1269 47.7011Q13.1057 47.7205 13.0775 47.7205H11.8251V48.7047H12.9187Q12.9469 48.7047 12.9681 48.7259Q12.9893 48.7471 12.9893 48.7753Q12.9893 48.8071 12.9681 48.8265Q12.9469 48.8459 12.9187 48.8459H11.8251V49.9077H13.0775Q13.1057 49.9077 13.1269 49.9289Q13.148 49.9501 13.148 49.9783ZM15.113 49.9783Q15.113 50.01 15.0918 50.0294Q15.0707 50.0488 15.0424 50.0488H13.7477Q13.716 50.0488 13.6966 50.0277Q13.6772 50.0065 13.6772 49.9783V47.6499Q13.6772 47.6217 13.6984 47.6006Q13.7195 47.5794 13.7513 47.5794Q13.783 47.5794 13.8042 47.6006Q13.8254 47.6217 13.8254 47.6499V49.9077H15.0424Q15.0707 49.9077 15.0918 49.9289Q15.113 49.9501 15.113 49.9783Z" style="stroke:#000000;stroke-width:0.25;stroke-linecap:round;stroke-linejoin:bevel" />
        <path d="M 10.16,58.00 L 5.16,69.00 z L 15.16,69.00 z " style="stroke:#000000;stroke-width:0.25;stroke-linecap:round;stroke-linejoin:bevel;stroke-dasharray:none" />
        <g>
            <ellipse cx="9.91725" cy="106.245" fill="#65995C" fill-rule="evenodd" clip-rule="evenodd" rx="0.77715" ry="0.276" transform="rotate=(-56.032 106.245 106.245)" />
            <path fill="#766857" fill-rule="evenodd" d="M 7.426600 120.509950c -1.422600 0.301150 -2.490500 0.987750 -2.929100 1.587900 -0.304200 0.416250 -0.137700 0.847450 0.303900 0.862550 0.205350 0.007000 0.414500 -0.011550 0.623200 -0.058150l 4.526900 -1.010100a 2.692050 2.692050 0.000000 0.000000 0.000000 1.020850 -0.467200 0.122950 0.122950 0.000000 0.000000 0.000000 0.012950 -0.186150c -0.385500 -0.379750 -1.137850 -1.241350 -3.558700 -0.728850z" clip-rule="evenodd" />
            <path fill="#CE1B42" fill-rule="evenodd" d="M 10.993700 121.408700c 0.645600 -0.489700 1.055000 -1.258650 1.057850 -2.108400l 0.000050 -0.023700c 0.000000 -3.203250 -2.193800 -5.800000 -4.900000 -5.800000s -4.900000 2.596750 -4.900000 5.800000c 0.000000 0.687250 0.101000 1.346550 0.286450 1.958300 0.308450 1.017650 1.234500 1.687000 2.255400 1.724750 -0.435400 -0.020200 -0.598250 -0.448150 -0.296000 -0.861800 0.438600 -0.600150 1.506550 -1.286750 2.929150 -1.587900 2.420850 -0.512500 3.173150 0.349100 3.558700 0.728850a 0.122950 0.122950 0.000000 0.000000 1.000000 -0.012950 0.186150l 0.021350 -0.016250z" clip-rule="evenodd" />
            <ellipse cx="9.8397" cy="117.003" fill="#FFF" fill-rule="evenodd" clip-rule="evenodd" rx="0.48165" ry="0.52435" transform="rotate=(-51.549 117.003 117.003)" />
            <ellipse cx="10.8683" cy="117.977" fill="#FFF" fill-rule="evenodd" clip-rule="evenodd" rx="0.52435" ry="0.48165" transform="rotate=(-24.392 117.977 117.977)" />
            <ellipse cx="9.31905" cy="118.428" fill="#FFF" fill-rule="evenodd" clip-rule="evenodd" rx="0.52435" ry="0.4442" transform="rotate=(-9.387 118.428 118.428)" />
            <path fill="#FFF" fill-rule="evenodd" d="M 3.236800 115.788250c 0.023000 0.021000 0.046500 0.041850 0.071400 0.061650 0.475300 0.377400 1.111200 0.367800 1.420300 -0.021450 0.307000 -0.386700 0.175700 -1.002300 -0.292000 -1.380400 -0.460900 0.363850 -0.866750 0.817550 -1.199700 1.340200z" clip-rule="evenodd" />
            <path fill="#70AA67" d="M 7.151600 102.712750c -7.974350 0.000000 -14.438900 6.464500 -14.438900 14.438850S -0.822800 131.590500 7.151600 131.590500 21.590500 125.126000 21.590500 117.151600 15.126000 102.712750 7.151600 102.712750zm 0.000000 27.688850c -7.317750 0.000000 -13.250000 -5.932200 -13.250000 -13.250000s 5.932250 -13.250000 13.250000 -13.250000 13.250000 5.932250 13.250000 13.250000 -5.932200 13.250000 -13.250000 13.250000z" />
            <path fill="#A11534" fill-rule="evenodd" d="M 4.497500 122.097850c 0.183150 -0.250700 0.476500 -0.516350 0.859300 -0.762800 -0.370900 -0.411500 -0.687000 -0.879100 -0.905200 -1.408450 -0.954250 -2.314750 -0.274300 -5.000000 1.651350 -6.316400 -2.202250 0.568450 -3.851350 2.889250 -3.851350 5.666400 0.000000 0.687250 0.101000 1.346550 0.286450 1.958300 0.308450 1.017650 1.234500 1.687000 2.255400 1.724750 -0.435400 -0.020200 -0.598250 -0.448150 -0.296000 -0.861800z" clip-rule="evenodd" />
            <path fill="#C7C7C7" fill-rule="evenodd" d="M 4.333800 114.532900c -0.028050 0.023400 -0.056300 0.046500 -0.083950 0.070600 -0.028000 0.024400 -0.055350 0.049750 -0.082900 0.074850 -0.026750 0.024300 -0.053650 0.048350 -0.079950 0.073300 -0.027500 0.026100 -0.054300 0.053200 -0.081300 0.080000 -0.025450 0.025250 -0.051150 0.050200 -0.076200 0.076100 -0.026900 0.027800 -0.053000 0.056500 -0.079400 0.085000 -0.024150 0.026100 -0.048600 0.051850 -0.072300 0.078500 -0.026350 0.029600 -0.051850 0.060200 -0.077600 0.090450 -0.022800 0.026800 -0.045900 0.053200 -0.068250 0.080500 -0.025800 0.031500 -0.050700 0.063950 -0.075850 0.096100 -0.021300 0.027250 -0.043000 0.054050 -0.063850 0.081800 -0.025500 0.033850 -0.050050 0.068700 -0.074850 0.103250 -0.019500 0.027100 -0.039400 0.053800 -0.058500 0.081350 -0.025550 0.037000 -0.050100 0.075000 -0.074950 0.112700 -0.015600 0.023700 -0.031600 0.047000 -0.046900 0.071050 0.023000 0.021000 0.046300 0.041700 0.071150 0.061450 0.301900 0.239700 0.668300 0.322700 0.974900 0.252000 0.130500 -0.406000 0.309150 -0.792400 0.533850 -1.148500 -0.075000 -0.185350 -0.203350 -0.362000 -0.379750 -0.504800 -0.006400 0.005000 -0.012900 0.009750 -0.019250 0.014800 -0.028400 0.022600 -0.056200 0.046200 -0.084150 0.069500z" clip-rule="evenodd" />
            <path fill="#65995C" d="m 28.749550 9.330600 -0.000050 0.000100h 0.000200z" />
            <path fill="#BBA191" fill-rule="evenodd" d="M 8.825500 120.352050c -0.391450 -0.003000 -0.852300 0.042200 -1.398900 0.157900 -0.032650 0.006900 -0.064000 0.015100 -0.096300 0.022400l 0.000100 -0.001050c -0.025750 0.005800 -0.050500 0.012650 -0.076000 0.018750a 6.925000 6.925000 0.000000 0.000000 0.000000 -0.146000 0.036000c -0.042450 0.011100 -0.084050 0.022900 -0.125750 0.034650 -0.041400 0.011650 -0.082850 0.023200 -0.123500 0.035500 -0.049600 0.015000 -0.098050 0.030800 -0.146500 0.046650 -0.031300 0.010250 -0.062900 0.020250 -0.093700 0.030850 -0.055550 0.019100 -0.109800 0.039000 -0.163800 0.059200 -0.017450 0.006500 -0.035650 0.012500 -0.052950 0.019150v 0.000600c -0.018800 0.007200 -0.038350 0.013850 -0.056900 0.021200 -0.353850 2.422750 -1.835950 6.556650 -3.852350 5.878350a 10.677500 10.677500 0.000000 0.000000 1.000000 -0.241350 -0.123300c 1.625000 1.312300 3.328300 0.149250 3.851350 -0.854000 0.517850 -0.993150 0.869000 -2.692150 1.082500 -4.116400a 0.291150 0.291150 0.000000 0.000000 1.000000 0.150650 -0.214250c 1.277700 -0.679350 1.515500 -0.136000 1.515500 -0.136000l 0.005450 0.003900a 19.736100 19.736100 0.000000 0.000000 1.000000 -0.031500 -0.920050zM 17.229600 110.599700c 0.077500 0.052200 0.021150 0.271350 -0.125850 0.489500 -0.147000 0.218200 -0.328950 0.352700 -0.406400 0.300500l 0.248800 0.018900c 0.057400 0.038700 0.192250 -0.061000 0.301150 -0.222650 0.108900 -0.161700 0.150650 -0.324100 0.093250 -0.362750l -0.111000 -0.223500z" clip-rule="evenodd" />
            <path fill="#7BBA70" fill-rule="evenodd" d="M 9.483000 106.889700c 0.126400 0.085150 0.423300 -0.134400 0.663100 -0.490350 0.239850 -0.355950 0.331750 -0.713500 0.205350 -0.798700l 0.935000 0.145000c 0.192100 0.129450 0.052400 0.672800 -0.312000 1.213650 -0.364350 0.540850 -0.815450 0.874400 -1.007500 0.745000l -0.483950 -0.814600z" clip-rule="evenodd" />
            <path fill="#D0B3A1" fill-rule="evenodd" d="m 32.229600 15.599700 -3.188450 -2.148750 -0.000500 0.000800c -0.062450 0.133450 -0.141500 0.273800 -0.236050 0.414200 -0.094600 0.140350 -0.195000 0.266350 -0.295200 0.374300l -0.000500 0.000850 3.188450 2.148600c 0.077500 0.052200 0.259450 -0.082300 0.406400 -0.300500 0.147000 -0.218150 0.203300 -0.437300 0.125850 -0.489500z" clip-rule="evenodd" />
            <path fill="#BBA191" fill-rule="evenodd" d="M 13.687400 109.028000a 2.970300 2.970300 0.000000 0.000000 1.000000 -0.178000 0.212250l -0.000500 0.000850 3.188450 2.148600c 0.053100 0.035800 0.155300 -0.016200 0.261650 -0.122700l -3.271600 -2.239000z" clip-rule="evenodd" />
            <path fill="#70AA67" fill-rule="evenodd" d="M 9.966950 107.704300c 0.192050 0.129400 0.643150 -0.204150 1.007500 -0.745000 0.364400 -0.540850 0.504100 -1.084200 0.312000 -1.213600l 2.830100 1.906650c 0.192100 0.129400 0.052400 0.672750 -0.312000 1.213600 -0.364350 0.540850 -0.815450 0.874400 -1.007500 0.745000l -2.830100 -1.906650zM 15.853650 110.821300c 0.077500 0.052200 0.259400 -0.082350 0.406400 -0.300500 0.147000 -0.218150 0.203300 -0.437300 0.125800 -0.489500l -0.179850 -0.121200c 0.077500 0.052200 0.021150 0.271350 -0.125850 0.489500 -0.147000 0.218150 -0.328900 0.352700 -0.406400 0.300500l 0.179900 0.121200z" clip-rule="evenodd" />
            <g fill="#A79186">
                <path d="m 31.959000 16.267000 -0.000350 -0.000250c -0.067400 0.067400 -0.133200 0.113600 -0.185750 0.128700l 0.173250 0.013150c 0.041800 0.028150 0.124650 -0.017250 0.208700 -0.106350l -0.195850 -0.035250zM 16.772900 111.395500l -0.075550 -0.005800c 0.019350 0.013050 0.045300 0.014450 0.075500 0.005750z" />
            </g>
            <path fill="#65995C" fill-rule="evenodd" d="M 10.686650 107.325950c -0.288350 0.313250 -0.576250 0.475000 -0.719700 0.378350l 2.830100 1.906650c 0.133650 0.090000 0.392750 -0.044500 0.660750 -0.316600l -2.771150 -1.968400z" clip-rule="evenodd" />
            <path fill="#70AA67" fill-rule="evenodd" d="M 9.956600 106.640750c -0.189750 0.206150 -0.379200 0.312500 -0.473600 0.248950l 0.483950 0.814600c 0.143450 0.096600 0.431350 -0.065100 0.719700 -0.378350l -0.730050 -0.685200z" clip-rule="evenodd" />
            <path fill="none" d="M -15.000000 95.000000h 44.300000v 44.300000H -15.000000z" clip-rule="evenodd" />
            <path fill="#D0B3A1" fill-rule="evenodd" d="M 15.930300 124.122200c -0.238850 -0.189650 -0.585150 -0.160650 -0.786800 0.068150a 10.692000 10.692000 0.000000 0.000000 1.000000 -3.132750 2.439650c -2.311850 1.156700 -3.152500 -3.084000 -3.185250 -6.277950 -0.391450 -0.003000 -0.852300 0.042200 -1.398900 0.157900 -0.388900 0.082350 -0.751000 0.193600 -1.081300 0.323900 -0.353850 2.422750 -1.835950 6.556650 -3.852350 5.878350 -3.522850 -1.737250 -5.982900 -5.367800 -5.991300 -9.538550 -0.011950 -5.892000 4.760800 -10.672000 10.650000 -10.672000 0.897600 0.000000 1.768800 0.112050 2.601400 0.321400 0.124750 -0.087150 0.266750 -0.236150 0.393050 -0.423700 0.147000 -0.218150 0.238100 -0.436650 0.257750 -0.593000 -1.077600 -0.308400 -2.218000 -0.468100 -3.398000 -0.453850 -6.490950 0.078350 -11.668000 5.333350 -11.654200 11.824800 0.013850 6.505150 5.291550 11.774300 11.800000 11.774300 3.525150 0.000000 6.688900 -1.546150 8.851050 -3.997000 0.218400 -0.247500 0.186100 -0.627150 -0.072400 -0.832400z" clip-rule="evenodd" />
        </g>
    </g>
</svg>
