<?xml version="1.0" encoding="utf-8"?>
<svg xmlns="http://www.w3.org/2000/svg" width="20.32mm" height="128.50mm" viewBox="0 0 20.32 128.50">
    <g id="PanelLayer">
        <defs />
        <rect id="border_rect" width="20.32" height="128.5" x="0" y="0" style="display:inline;fill:#4f8df2;fill-opacity:1;stroke:none;" />
        <path d="M 10.16,93.00 L 10.16,103.00 " style="stroke:#000000;stroke-width:0.25;stroke-linecap:round;stroke-linejoin:bevel;stroke-dasharray:none" fill="none" />
        <path d="M7.84754 87.7841Q7.50535 87.7841 7.23724 87.6236Q6.96913 87.4631 6.81919 87.1738Q6.66926 86.8845 6.66926 86.5141Q6.66926 86.1437 6.81919 85.8544Q6.96913 85.5651 7.23724 85.4046Q7.50535 85.2441 7.84754 85.2441Q8.18974 85.2441 8.45785 85.4046Q8.72596 85.5651 8.87589 85.8544Q9.02582 86.1437 9.02582 86.5141Q9.02582 86.8845 8.87589 87.1738Q8.72596 87.4631 8.45785 87.6236Q8.18974 87.7841 7.84754 87.7841ZM7.84754 85.3852Q7.54768 85.3852 7.31308 85.5263Q7.07849 85.6674 6.94796 85.925Q6.81743 86.1825 6.81743 86.5141Q6.81743 86.8457 6.94796 87.1033Q7.07849 87.3608 7.31308 87.5019Q7.54768 87.643 7.84754 87.643Q8.1474 87.643 8.382 87.5019Q8.6166 87.3608 8.74713 87.1033Q8.87765 86.8457 8.87765 86.5141Q8.87765 86.1825 8.74713 85.925Q8.6166 85.6674 8.382 85.5263Q8.1474 85.3852 7.84754 85.3852ZM11.3718 85.3499V86.8739Q11.3718 87.1209 11.2483 87.329Q11.1248 87.5372 10.9167 87.6606Q10.7086 87.7841 10.4652 87.7841Q10.2182 87.7841 10.0101 87.6606Q9.80193 87.5372 9.67846 87.329Q9.55499 87.1209 9.55499 86.8739V85.3499Q9.55499 85.3182 9.57615 85.2988Q9.59732 85.2794 9.62907 85.2794Q9.66082 85.2794 9.68199 85.3006Q9.70315 85.3217 9.70315 85.3499V86.8739Q9.70315 87.0821 9.80546 87.2585Q9.90776 87.4349 10.0824 87.5389Q10.257 87.643 10.4652 87.643Q10.6733 87.643 10.8479 87.5389Q11.0225 87.4349 11.1266 87.2585Q11.2307 87.0821 11.2307 86.8739V85.3499Q11.2307 85.3217 11.2501 85.3006Q11.2695 85.2794 11.3012 85.2794Q11.333 85.2794 11.3524 85.3006Q11.3718 85.3217 11.3718 85.3499ZM13.7037 85.3464Q13.7037 85.3782 13.6843 85.3958Q13.6648 85.4134 13.6331 85.4134H12.8464V87.6783Q12.8464 87.7065 12.8252 87.7277Q12.8041 87.7488 12.7758 87.7488Q12.7441 87.7488 12.7247 87.7277Q12.7053 87.7065 12.7053 87.6783V85.4134H11.9186Q11.8904 85.4134 11.8692 85.394Q11.848 85.3746 11.848 85.3464Q11.848 85.3182 11.8692 85.2988Q11.8904 85.2794 11.9186 85.2794H13.6331Q13.6613 85.2794 13.6825 85.2988Q13.7037 85.3182 13.7037 85.3464Z" style="stroke:#000000;stroke-width:0.25;stroke-linecap:round;stroke-linejoin:bevel" />
        <path d="M9.80369 15.9749V18.3033Q9.80369 18.3315 9.78076 18.3527Q9.75783 18.3738 9.72961 18.3738Q9.69786 18.3738 9.67669 18.3527Q9.65553 18.3315 9.65553 18.3033V16.1937L8.74536 17.5695Q8.72772 17.5977 8.69597 17.5977Q8.65717 17.5977 8.63953 17.5695L7.72583 16.1901V18.3033Q7.72583 18.3315 7.70467 18.3527Q7.6835 18.3738 7.65528 18.3738Q7.62353 18.3738 7.60412 18.3527Q7.58472 18.3315 7.58472 18.3033V15.9749Q7.58472 15.9503 7.60412 15.9273Q7.62353 15.9044 7.65175 15.9044Q7.69761 15.9044 7.71878 15.9361L8.69597 17.3896L9.67317 15.9361Q9.70139 15.8973 9.74019 15.9044Q9.76842 15.9079 9.78606 15.9273Q9.80369 15.9467 9.80369 15.9749ZM10.5833 18.3738Q10.5481 18.3738 10.5287 18.3527Q10.5092 18.3315 10.5092 18.2997V15.9785Q10.5092 15.9467 10.5304 15.9256Q10.5516 15.9044 10.5833 15.9044Q10.6151 15.9044 10.6363 15.9256Q10.6574 15.9467 10.6574 15.9785V18.2997Q10.6539 18.3315 10.6327 18.3527Q10.6116 18.3738 10.5833 18.3738ZM12.9646 18.2715Q12.9822 18.2962 12.9822 18.3139Q12.9822 18.3456 12.9611 18.365Q12.9399 18.3844 12.9081 18.3844Q12.8693 18.3844 12.8517 18.3562L12.0438 17.2555L11.2395 18.3562Q11.2219 18.3844 11.1866 18.3844Q11.1548 18.3844 11.1372 18.365Q11.1196 18.3456 11.1196 18.3244Q11.1196 18.3068 11.1372 18.2786L11.9662 17.1462L11.1301 16.0067Q11.116 15.9891 11.116 15.9644Q11.116 15.9326 11.1372 15.9132Q11.1584 15.8938 11.1866 15.8938Q11.2289 15.8938 11.2466 15.922L12.0544 17.0262L12.8588 15.9185Q12.8799 15.8903 12.9117 15.8903Q12.9434 15.8903 12.9628 15.9062Q12.9822 15.922 12.9822 15.9467Q12.9822 15.9714 12.9646 15.9961L12.1356 17.1391Z" style="stroke:#000000;stroke-width:0.25;stroke-linecap:round;stroke-linejoin:bevel" />
        <path d="M 10.16,26.32 L 5.16,37.33 z L 15.16,37.33 z " style="stroke:#000000;stroke-width:0.25;stroke-linecap:round;stroke-linejoin:bevel;stroke-dasharray:none" />
        <path d="M6.94267 52.2283Q6.94267 52.26 6.9215 52.2794Q6.90033 52.2988 6.87211 52.2988H5.57742Q5.54567 52.2988 5.52626 52.2777Q5.50686 52.2565 5.50686 52.2283V49.8999Q5.50686 49.8717 5.52803 49.8506Q5.54919 49.8294 5.58094 49.8294Q5.61269 49.8294 5.63386 49.8506Q5.65503 49.8717 5.65503 49.8999V52.1577H6.87211Q6.90033 52.1577 6.9215 52.1789Q6.94267 52.2001 6.94267 52.2283ZM8.81944 52.2283Q8.81944 52.26 8.79828 52.2794Q8.77711 52.2988 8.74889 52.2988H7.41892Q7.39069 52.2988 7.36953 52.2777Q7.34836 52.2565 7.34836 52.2283V49.8999Q7.34836 49.8717 7.36953 49.8506Q7.39069 49.8294 7.41892 49.8294H8.74889Q8.77711 49.8294 8.79828 49.8506Q8.81944 49.8717 8.81944 49.8999Q8.81944 49.9317 8.79828 49.9511Q8.77711 49.9705 8.74889 49.9705H7.49653V50.9547H8.59014Q8.61836 50.9547 8.63953 50.9759Q8.66069 50.9971 8.66069 51.0253Q8.66069 51.0571 8.63953 51.0765Q8.61836 51.0959 8.59014 51.0959H7.49653V52.1577H8.74889Q8.77711 52.1577 8.79828 52.1789Q8.81944 52.2001 8.81944 52.2283ZM11.2007 49.8929Q11.2007 49.907 11.1936 49.9282L10.227 52.253Q10.2059 52.2988 10.16 52.2988Q10.1388 52.2988 10.1194 52.2865Q10.1 52.2741 10.093 52.253L9.13342 49.9387Q9.12283 49.9176 9.12283 49.8964Q9.12283 49.8682 9.14224 49.8488Q9.16164 49.8294 9.18986 49.8294Q9.24278 49.8294 9.26747 49.8858L10.1635 52.0413L11.0631 49.8752Q11.0878 49.8294 11.1301 49.8294Q11.1619 49.8294 11.1813 49.847Q11.2007 49.8647 11.2007 49.8929ZM13.148 52.2283Q13.148 52.26 13.1269 52.2794Q13.1057 52.2988 13.0775 52.2988H11.7475Q11.7193 52.2988 11.6981 52.2777Q11.6769 52.2565 11.6769 52.2283V49.8999Q11.6769 49.8717 11.6981 49.8506Q11.7193 49.8294 11.7475 49.8294H13.0775Q13.1057 49.8294 13.1269 49.8506Q13.148 49.8717 13.148 49.8999Q13.148 49.9317 13.1269 49.9511Q13.1057 49.9705 13.0775 49.9705H11.8251V50.9547H12.9187Q12.9469 50.9547 12.9681 50.9759Q12.9893 50.9971 12.9893 51.0253Q12.9893 51.0571 12.9681 51.0765Q12.9469 51.0959 12.9187 51.0959H11.8251V52.1577H13.0775Q13.1057 52.1577 13.1269 52.1789Q13.148 52.2001 13.148 52.2283ZM15.113 52.2283Q15.113 52.26 15.0918 52.2794Q15.0707 52.2988 15.0424 52.2988H13.7477Q13.716 52.2988 13.6966 52.2777Q13.6772 52.2565 13.6772 52.2283V49.8999Q13.6772 49.8717 13.6984 49.8506Q13.7195 49.8294 13.7513 49.8294Q13.783 49.8294 13.8042 49.8506Q13.8254 49.8717 13.8254 49.8999V52.1577H15.0424Q15.0707 52.1577 15.0918 52.1789Q15.113 52.2001 15.113 52.2283Z" style="stroke:#000000;stroke-width:0.25;stroke-linecap:round;stroke-linejoin:bevel" />
        <path d="M 10.16,60.25 L 5.16,71.25 z L 15.16,71.25 z " style="stroke:#000000;stroke-width:0.25;stroke-linecap:round;stroke-linejoin:bevel;stroke-dasharray:none" />
        <g id="omri_cohen_logo">
            <ellipse cx="10.9506" cy="119.384" fill="#65995C" fill-rule="evenodd" clip-rule="evenodd" rx="0.222043" ry="0.0788571" transform="rotate=(-56.032 10.9506 119.384)" />
            <path fill="#766857" fill-rule="evenodd" d="M 10.239 123.46c -0.406457 0.0860429 -0.711571 0.282214 -0.836886 0.453686 -0.0869143 0.118929 -0.0393429 0.242129 0.0868286 0.246443 0.0586714 0.002 0.118429 -0.0033 0.178057 -0.0166143l 1.2934 -0.2886a 0.769157 0.769157 0 0 0 0.291671 -0.133486 0.0351286 0.0351286 0 0 0 0.0037 -0.0531857c -0.110143 -0.1085 -0.3251 -0.354671 -1.01677 -0.208243z" clip-rule="evenodd" />
            <path fill="#CE1B42" fill-rule="evenodd" d="M 11.2582 123.717c 0.184457 -0.139914 0.301429 -0.359614 0.302243 -0.6024l 1.42857e-05 -0.00677143c 0 -0.915214 -0.6268 -1.65714 -1.4 -1.65714s -1.4 0.741929 -1.4 1.65714c 0 0.196357 0.0288571 0.384729 0.0818429 0.559514 0.0881286 0.290757 0.352714 0.482 0.6444 0.492786 -0.1244 -0.00577143 -0.170929 -0.128043 -0.0845714 -0.246229 0.125314 -0.171471 0.430443 -0.367643 0.8369 -0.453686 0.691671 -0.146429 0.906614 0.0997429 1.01677 0.208243a 0.0351286 0.0351286 0 0 1 -0.0037 0.0531857l 0.0061 -0.00464286z" clip-rule="evenodd" />
            <ellipse cx="10.9285" cy="122.458" fill="#ffffff" fill-rule="evenodd" clip-rule="evenodd" rx="0.137614" ry="0.149814" transform="rotate=(-51.549 10.9285 122.458)" />
            <ellipse cx="11.2224" cy="122.736" fill="#ffffff" fill-rule="evenodd" clip-rule="evenodd" rx="0.149814" ry="0.137614" transform="rotate=(-24.392 11.2224 122.736)" />
            <ellipse cx="10.7797" cy="122.865" fill="#ffffff" fill-rule="evenodd" clip-rule="evenodd" rx="0.149814" ry="0.126914" transform="rotate=(-9.387 10.7798 122.865)" />
            <path fill="#ffffff" fill-rule="evenodd" d="M 9.04194 122.111c 0.00657143 0.006 0.0132857 0.0119571 0.0204 0.0176143 0.1358 0.107829 0.317486 0.105086 0.4058 -0.00612857 0.0877143 -0.110486 0.0502 -0.286371 -0.0834286 -0.3944 -0.131686 0.103957 -0.247643 0.233586 -0.342771 0.382914z" clip-rule="evenodd" />
            <path id="omri_outer_ring" fill="#7cbf71" d="M 10.1605 118.375c -2.27839 0 -4.1254 1.847 -4.1254 4.12539S 7.88206 126.626 10.1605 126.626 14.2859 124.779 14.2859 122.5 12.4389 118.375 10.1605 118.375zm 0 7.9111c -2.09079 0 -3.78571 -1.69491 -3.78571 -3.78571s 1.69493 -3.78571 3.78571 -3.78571 3.78571 1.69493 3.78571 3.78571 -1.69491 3.78571 -3.78571 3.78571z" />
            <path fill="#A11534" fill-rule="evenodd" d="M 9.40214 123.914c 0.0523286 -0.0716286 0.136143 -0.147529 0.245514 -0.217943 -0.105971 -0.117571 -0.196286 -0.251171 -0.258629 -0.402414 -0.272643 -0.661357 -0.0783714 -1.42857 0.471814 -1.80469 -0.629214 0.162414 -1.10039 0.8255 -1.10039 1.61897 0 0.196357 0.0288571 0.384729 0.0818429 0.559514 0.0881286 0.290757 0.352714 0.482 0.6444 0.492786 -0.1244 -0.00577143 -0.170929 -0.128043 -0.0845714 -0.246229z" clip-rule="evenodd" />
            <path fill="#C7C7C7" fill-rule="evenodd" d="M 9.35537 121.752c -0.00801429 0.00668571 -0.0160857 0.0132857 -0.0239857 0.0201714 -0.008 0.00697143 -0.0158143 0.0142143 -0.0236857 0.0213857 -0.00764286 0.00694286 -0.0153286 0.0138143 -0.0228429 0.0209429 -0.00785714 0.00745714 -0.0155143 0.0152 -0.0232286 0.0228571 -0.00727143 0.00721429 -0.0146143 0.0143429 -0.0217714 0.0217429 -0.00768571 0.00794286 -0.0151429 0.0161429 -0.0226857 0.0242857 -0.0069 0.00745714 -0.0138857 0.0148143 -0.0206571 0.0224286 -0.00752857 0.00845714 -0.0148143 0.0172 -0.0221714 0.0258429 -0.00651429 0.00765714 -0.0131143 0.0152 -0.0195 0.023 -0.00737143 0.009 -0.0144857 0.0182714 -0.0216714 0.0274571 -0.00608571 0.00778571 -0.0122857 0.0154429 -0.0182429 0.0233714 -0.00728571 0.00967143 -0.0143 0.0196286 -0.0213857 0.0295 -0.00557143 0.00774286 -0.0112571 0.0153714 -0.0167143 0.0232429 -0.0073 0.0105714 -0.0143143 0.0214286 -0.0214143 0.0322 -0.00445714 0.00677143 -0.00902857 0.0134286 -0.0134 0.0203 0.00657143 0.006 0.0132286 0.0119143 0.0203286 0.0175571 0.0862571 0.0684857 0.190943 0.0922 0.278543 0.072 0.0372857 -0.116 0.0883286 -0.2264 0.152529 -0.328143 -0.0214286 -0.0529571 -0.0581 -0.103429 -0.1085 -0.144229 -0.00182857 0.00142857 -0.00368571 0.00278571 -0.0055 0.00422857 -0.00811429 0.00645714 -0.0160571 0.0132 -0.0240429 0.0198571z" clip-rule="evenodd" />
            <path fill="#9e887a" fill-rule="evenodd" d="M 10.6387 123.415c -0.111843 -0.000857143 -0.243514 0.0120571 -0.399686 0.0451143 -0.00932857 0.00197143 -0.0182857 0.00431429 -0.0275143 0.0064l 2.85714e-05 -0.0003c -0.00735714 0.00165714 -0.0144286 0.00361429 -0.0217143 0.00535714a 1.97857 1.97857 0 0 0 -0.0417143 0.0102857c -0.0121286 0.00317143 -0.0240143 0.00654286 -0.0359286 0.0099 -0.0118286 0.00332857 -0.0236714 0.00662857 -0.0352857 0.0101429 -0.0141714 0.00428571 -0.0280143 0.0088 -0.0418571 0.0133286 -0.00894286 0.00292857 -0.0179714 0.00578571 -0.0267714 0.00881429 -0.0158714 0.00545714 -0.0313714 0.0111429 -0.0468 0.0169143 -0.00498571 0.00185714 -0.0101857 0.00357143 -0.0151286 0.00547143v 0.000171429c -0.00537143 0.00205714 -0.0109571 0.00395714 -0.0162571 0.00605714 -0.1011 0.692214 -0.524557 1.87333 -1.10067 1.67953a 3.05071 3.05071 0 0 1 -0.0689571 -0.0352286c 0.464286 0.374943 0.950943 0.0426429 1.10039 -0.244 0.147957 -0.283757 0.248286 -0.769186 0.309286 -1.17611a 0.0831857 0.0831857 0 0 1 0.0430429 -0.0612143c 0.365057 -0.1941 0.433 -0.0388571 0.433 -0.0388571l 0.00155714 0.00111429a 5.63889 5.63889 0 0 1 -0.009 -0.262871zM 13.0399 120.628c 0.0221429 0.0149143 0.00604286 0.0775286 -0.0359571 0.139857 -0.042 0.0623429 -0.0939857 0.100771 -0.116114 0.0858571l 0.0710857 0.0054c 0.0164 0.0110571 0.0549286 -0.0174286 0.0860429 -0.0636143 0.0311143 -0.0462 0.0430429 -0.0926 0.0266429 -0.103643l -0.0317143 -0.0638571z" clip-rule="evenodd" />
            <path fill="#7BBA70" fill-rule="evenodd" d="M 10.8266 119.568c 0.0361143 0.0243286 0.120943 -0.0384 0.189457 -0.1401 0.0685286 -0.1017 0.0947857 -0.203857 0.0586714 -0.2282l 0.267143 0.0414286c 0.0548857 0.0369857 0.0149714 0.192229 -0.0891429 0.346757 -0.1041 0.154529 -0.232986 0.249829 -0.287857 0.212857l -0.138271 -0.232743z" clip-rule="evenodd" />
            <path fill="#D0B3A1" fill-rule="evenodd" d="M 3.83143 116.171m 9.20846 4.45706 -0.910986 -0.613929 -0.000142857 0.000228571c -0.0178429 0.0381286 -0.0404286 0.0782286 -0.0674429 0.118343 -0.0270286 0.0401 -0.0557143 0.0761 -0.0843429 0.106943l -0.000142857 0.000242857 0.910986 0.613886c 0.0221429 0.0149143 0.0741286 -0.0235143 0.116114 -0.0858571 0.042 -0.0623286 0.0580857 -0.124943 0.0359571 -0.139857z" clip-rule="evenodd" />
            <path fill="#9e887a" fill-rule="evenodd" d="M 12.0278 120.179a 0.848657 0.848657 0 0 1 -0.0508571 0.0606429l -0.000142857 0.000242857 0.910986 0.613886c 0.0151714 0.0102286 0.0443714 -0.00462857 0.0747571 -0.0350571l -0.934743 -0.639714z" clip-rule="evenodd" />
            <path fill="#70AA67" fill-rule="evenodd" d="M 10.9648 119.801c 0.0548714 0.0369714 0.183757 -0.0583286 0.287857 -0.212857 0.104114 -0.154529 0.144029 -0.309771 0.0891429 -0.346743l 0.8086 0.544757c 0.0548857 0.0369714 0.0149714 0.192214 -0.0891429 0.346743 -0.1041 0.154529 -0.232986 0.249829 -0.287857 0.212857l -0.8086 -0.544757z" clip-rule="evenodd" />
            <path fill="#486e42" fill-rule="evenodd" d="M 12.6468 120.692c 0.0221429 0.0149143 0.0741143 -0.0235286 0.116114 -0.0858571 0.042 -0.0623286 0.0580857 -0.124943 0.0359429 -0.139857l -0.0513857 -0.0346286c 0.0221429 0.0149143 0.00604286 0.0775286 -0.0359571 0.139857 -0.042 0.0623286 -0.0939714 0.100771 -0.116114 0.0858571l 0.0514 0.0346286z" clip-rule="evenodd" />
            <path id="omri_jack_tip" fill="#917e74" d="M 3.83143 116.171m 9.13114 4.64771 -0.0001 -7.14286e-05c -0.0192571 0.0192571 -0.0380571 0.0324571 -0.0530714 0.0367714l 0.0495 0.00375714c 0.0119429 0.00804286 0.0356143 -0.00492857 0.0596286 -0.0303857l -0.0559571 -0.0100714zM 12.9094 120.856l -0.0215857 -0.00165714c 0.00552857 0.00372857 0.0129429 0.00412857 0.0215714 0.00164286z" />
            <path fill="#486e42" fill-rule="evenodd" d="M 11.1705 119.693c -0.0823857 0.0895 -0.164643 0.135714 -0.205629 0.1081l 0.8086 0.544757c 0.0381857 0.0257143 0.112214 -0.0127143 0.188786 -0.0904571l -0.791757 -0.5624z" clip-rule="evenodd" />
            <path fill="#5c8c54" fill-rule="evenodd" d="M 10.9619 119.497c -0.0542143 0.0589 -0.108343 0.0892857 -0.135314 0.0711286l 0.138271 0.232743c 0.0409857 0.0276 0.123243 -0.0186 0.205629 -0.1081l -0.208586 -0.195771z" clip-rule="evenodd" />
            <path fill="#D0B3A1" fill-rule="evenodd" d="M 12.6687 124.492c -0.0682429 -0.0541857 -0.167186 -0.0459 -0.2248 0.0194714a 3.05486 3.05486 0 0 1 -0.895071 0.697043c -0.660529 0.330486 -0.900714 -0.881143 -0.910071 -1.7937 -0.111843 -0.000857143 -0.243514 0.0120571 -0.399686 0.0451143 -0.111114 0.0235286 -0.214571 0.0553143 -0.308943 0.0925429 -0.1011 0.692214 -0.524557 1.87333 -1.10067 1.67953 -1.00653 -0.496357 -1.7094 -1.53366 -1.7118 -2.7253 -0.00341429 -1.68343 1.36023 -3.04914 3.04286 -3.04914 0.256457 0 0.505371 0.0320143 0.743257 0.0918286 0.0356429 -0.0249 0.0762143 -0.0674714 0.1123 -0.121057 0.042 -0.0623286 0.0680286 -0.124757 0.0736429 -0.169429 -0.307886 -0.0881143 -0.633714 -0.133743 -0.970857 -0.129671 -1.85456 0.0223857 -3.33371 1.52381 -3.32977 3.37851 0.00395714 1.85861 1.51187 3.36409 3.37143 3.36409 1.00719 0 1.91111 -0.441757 2.52887 -1.142 0.0624 -0.0707143 0.0531714 -0.179186 -0.0206857 -0.237829z" clip-rule="evenodd" />
        </g>
    </g>
</svg>
