<?xml version="1.0" encoding="utf-8"?>
<svg xmlns="http://www.w3.org/2000/svg" width="30.48mm" height="128.50mm" viewBox="0 0 30.48 128.50">
    <g id="PanelLayer">
        <defs>
            <linearGradient id="gradient_controls" x1="0" y1="16" x2="0" y2="91" gradientUnits="userSpaceOnUse">
                <stop style="stop-color:#3068ff;stop-opacity:1;" offset="0" />
                <stop style="stop-color:#4f8df2;stop-opacity:1;" offset="1" />
            </linearGradient>
            <linearGradient id="gradient_send_return" x1="0" y1="91" x2="0" y2="108" gradientUnits="userSpaceOnUse">
                <stop style="stop-color:#8a72cf;stop-opacity:1;" offset="0" />
                <stop style="stop-color:#4f8df2;stop-opacity:1;" offset="1" />
            </linearGradient>
            <linearGradient id="gradient_env" x1="0" y1="115" x2="0" y2="126.5" gradientUnits="userSpaceOnUse">
                <stop style="stop-color:#4b9488;stop-opacity:1;" offset="0" />
                <stop style="stop-color:#4f8df2;stop-opacity:1;" offset="1" />
            </linearGradient>
        </defs>
        <rect id="border_rect" width="30.48" height="128.5" x="0" y="0" style="display:inline;fill:#4f8df2;fill-opacity:1;stroke:none;" />
        <path id="controls_art" d="M 0.24,91.00 L 0.24,14.00 A 4 4 0 0 1 4.24 10 L 26.24,10.00 A 4 4 0 0 1 30.24 14 L 30.24,10.00 L 30.24,91.00 z" style="fill:url(#gradient_controls);fill-opacity:1;stroke-width:0;" />
        <path id="send_return_art" d="M 0.24,108.00 L 0.24,85.00 A 4 4 0 0 1 4.24 81 L 26.24,81.00 A 4 4 0 0 1 30.24 85 L 30.24,81.00 L 30.24,108.00 z" style="fill:url(#gradient_send_return);fill-opacity:1;stroke-width:0;" />
        <path id="env_art" d="M 0.24,126.50 L 0.24,114.00 A 4 4 0 0 1 4.24 110 L 26.24,110.00 A 4 4 0 0 1 30.24 114 L 30.24,110.00 L 30.24,126.50 z" style="fill:url(#gradient_env);fill-opacity:1;stroke-width:0;" />
        <path d="M 8.24,91.00 L 8.24,101.00 " style="stroke:#000000;stroke-width:0.25;stroke-linecap:round;stroke-linejoin:bevel;stroke-dasharray:none" fill="none" />
        <path d="M3.86556 85.4137Q3.84439 85.3925 3.84439 85.3608Q3.84439 85.3326 3.86908 85.3061Q3.89378 85.2796 3.922 85.2796Q3.95375 85.2796 3.98197 85.3114Q4.11956 85.4737 4.30829 85.5583Q4.49703 85.643 4.70517 85.643Q4.97681 85.643 5.15319 85.5125Q5.32958 85.3819 5.32958 85.1668Q5.32606 84.9974 5.23786 84.8881Q5.14967 84.7787 5.0209 84.7134Q4.89214 84.6482 4.66989 84.567Q4.42647 84.4753 4.29065 84.4048Q4.15483 84.3342 4.05782 84.2037Q3.96081 84.0731 3.96081 83.8615Q3.96081 83.6886 4.05606 83.5475Q4.15131 83.4064 4.32769 83.3253Q4.50408 83.2441 4.73692 83.2441Q4.94506 83.2441 5.13203 83.32Q5.319 83.3958 5.42836 83.5334Q5.46364 83.5828 5.46364 83.6075Q5.46364 83.6357 5.43718 83.6586Q5.41072 83.6816 5.37897 83.6816Q5.35075 83.6816 5.33311 83.6604Q5.23433 83.5334 5.07911 83.4593Q4.92389 83.3852 4.73692 83.3852Q4.46881 83.3852 4.29065 83.5122Q4.1125 83.6392 4.1125 83.8579Q4.1125 84.0096 4.19893 84.1155Q4.28536 84.2213 4.41589 84.2866Q4.54642 84.3518 4.74044 84.4224Q4.98739 84.5106 5.13203 84.5847Q5.27667 84.6587 5.37897 84.7999Q5.48128 84.941 5.48128 85.1738Q5.48128 85.3361 5.38603 85.4772Q5.29078 85.6183 5.11263 85.7012Q4.93447 85.7841 4.70517 85.7841Q4.44411 85.7841 4.25008 85.6942Q4.05606 85.6042 3.86556 85.4137ZM7.48506 85.6783Q7.48506 85.71 7.46389 85.7294Q7.44272 85.7488 7.4145 85.7488H6.08453Q6.05631 85.7488 6.03514 85.7277Q6.01397 85.7065 6.01397 85.6783V83.3499Q6.01397 83.3217 6.03514 83.3006Q6.05631 83.2794 6.08453 83.2794H7.4145Q7.44272 83.2794 7.46389 83.3006Q7.48506 83.3217 7.48506 83.3499Q7.48506 83.3817 7.46389 83.4011Q7.44272 83.4205 7.4145 83.4205H6.16214V84.4048H7.25575Q7.28397 84.4048 7.30514 84.4259Q7.32631 84.4471 7.32631 84.4753Q7.32631 84.5071 7.30514 84.5265Q7.28397 84.5459 7.25575 84.5459H6.16214V85.6077H7.4145Q7.44272 85.6077 7.46389 85.6289Q7.48506 85.6501 7.48506 85.6783ZM9.86631 83.3464V85.6712Q9.86631 85.71 9.84514 85.7294Q9.82397 85.7488 9.79222 85.7488Q9.75694 85.7488 9.73578 85.7206L8.14828 83.551V85.6889Q8.14828 85.7136 8.12888 85.7312Q8.10947 85.7488 8.08125 85.7488Q8.0495 85.7488 8.03186 85.7312Q8.01422 85.7136 8.01422 85.6889V83.3499Q8.01422 83.3147 8.03363 83.297Q8.05303 83.2794 8.07772 83.2794Q8.10947 83.2794 8.13064 83.3041L9.73225 85.4878V83.3464Q9.73225 83.3182 9.75165 83.2988Q9.77106 83.2794 9.79928 83.2794Q9.83103 83.2794 9.84867 83.2988Q9.86631 83.3182 9.86631 83.3464ZM12.5827 84.5141Q12.5827 84.8634 12.4716 85.1421Q12.3604 85.4207 12.1311 85.5848Q11.9018 85.7488 11.5596 85.7488H10.6424Q10.6142 85.7488 10.593 85.7277Q10.5719 85.7065 10.5719 85.6783V83.3499Q10.5719 83.3217 10.593 83.3006Q10.6142 83.2794 10.6424 83.2794H11.5596Q11.8983 83.2794 12.1294 83.4487Q12.3604 83.6181 12.4716 83.8985Q12.5827 84.179 12.5827 84.5141ZM12.4345 84.5141Q12.4345 84.2143 12.3375 83.9655Q12.2405 83.7168 12.0377 83.5687Q11.8348 83.4205 11.5244 83.4205H10.72V85.6077H11.5244Q11.983 85.6077 12.2088 85.3061Q12.4345 85.0045 12.4345 84.5141Z" style="stroke:#000000;stroke-width:0.25;stroke-linecap:round;stroke-linejoin:bevel" />
        <path d="M 22.24,91.00 L 22.24,101.00 " style="stroke:#000000;stroke-width:0.25;stroke-linecap:round;stroke-linejoin:bevel;stroke-dasharray:none" fill="none" />
        <path d="M19.7159 85.6748Q19.7159 85.7065 19.6965 85.7259Q19.6771 85.7453 19.6488 85.7453Q19.6277 85.7453 19.6171 85.7383Q19.5218 85.6853 19.4654 85.5601Q19.409 85.4349 19.409 85.1491Q19.409 84.8598 19.2537 84.7522Q19.0985 84.6446 18.8939 84.6446H18.0684V85.6783Q18.0684 85.7065 18.0472 85.7277Q18.0261 85.7488 17.9943 85.7488Q17.9626 85.7488 17.9414 85.7277Q17.9202 85.7065 17.9202 85.6783V83.3499Q17.9202 83.3217 17.9414 83.3006Q17.9626 83.2794 17.9908 83.2794H18.9221Q19.1267 83.2794 19.2855 83.3623Q19.4442 83.4452 19.5324 83.5898Q19.6206 83.7345 19.6206 83.9179Q19.6206 84.1543 19.4954 84.3236Q19.3702 84.4929 19.1691 84.5529Q19.3384 84.6058 19.4478 84.7628Q19.5571 84.9198 19.5571 85.1491Q19.5571 85.3855 19.5871 85.479Q19.6171 85.5724 19.6771 85.6112Q19.7159 85.6359 19.7159 85.6748ZM18.9398 84.5035Q19.162 84.4824 19.3172 84.3271Q19.4725 84.1719 19.4725 83.9214Q19.4725 83.7027 19.3172 83.5616Q19.162 83.4205 18.9045 83.4205H18.0684V84.5035ZM21.889 83.3464Q21.889 83.3782 21.8696 83.3958Q21.8502 83.4134 21.8184 83.4134H21.0317V85.6783Q21.0317 85.7065 21.0106 85.7277Q20.9894 85.7488 20.9612 85.7488Q20.9294 85.7488 20.91 85.7277Q20.8906 85.7065 20.8906 85.6783V83.4134H20.1039Q20.0757 83.4134 20.0545 83.394Q20.0334 83.3746 20.0334 83.3464Q20.0334 83.3182 20.0545 83.2988Q20.0757 83.2794 20.1039 83.2794H21.8184Q21.8467 83.2794 21.8678 83.2988Q21.889 83.3182 21.889 83.3464ZM24.1609 85.6748Q24.1609 85.7065 24.1415 85.7259Q24.1221 85.7453 24.0938 85.7453Q24.0727 85.7453 24.0621 85.7383Q23.9668 85.6853 23.9104 85.5601Q23.854 85.4349 23.854 85.1491Q23.854 84.8598 23.6987 84.7522Q23.5435 84.6446 23.3389 84.6446H22.5134V85.6783Q22.5134 85.7065 22.4922 85.7277Q22.4711 85.7488 22.4393 85.7488Q22.4076 85.7488 22.3864 85.7277Q22.3652 85.7065 22.3652 85.6783V83.3499Q22.3652 83.3217 22.3864 83.3006Q22.4076 83.2794 22.4358 83.2794H23.3671Q23.5717 83.2794 23.7305 83.3623Q23.8892 83.4452 23.9774 83.5898Q24.0656 83.7345 24.0656 83.9179Q24.0656 84.1543 23.9404 84.3236Q23.8152 84.4929 23.6141 84.5529Q23.7834 84.6058 23.8928 84.7628Q24.0021 84.9198 24.0021 85.1491Q24.0021 85.3855 24.0321 85.479Q24.0621 85.5724 24.1221 85.6112Q24.1609 85.6359 24.1609 85.6748ZM23.3848 84.5035Q23.607 84.4824 23.7622 84.3271Q23.9175 84.1719 23.9175 83.9214Q23.9175 83.7027 23.7622 83.5616Q23.607 83.4205 23.3495 83.4205H22.5134V84.5035ZM26.5598 83.3464V85.6712Q26.5598 85.71 26.5386 85.7294Q26.5174 85.7488 26.4857 85.7488Q26.4504 85.7488 26.4292 85.7206L24.8417 83.551V85.6889Q24.8417 85.7136 24.8223 85.7312Q24.8029 85.7488 24.7747 85.7488Q24.743 85.7488 24.7253 85.7312Q24.7077 85.7136 24.7077 85.6889V83.3499Q24.7077 83.3147 24.7271 83.297Q24.7465 83.2794 24.7712 83.2794Q24.8029 83.2794 24.8241 83.3041L26.4257 85.4878V83.3464Q26.4257 83.3182 26.4451 83.2988Q26.4645 83.2794 26.4927 83.2794Q26.5245 83.2794 26.5421 83.2988Q26.5598 83.3182 26.5598 83.3464Z" style="stroke:#000000;stroke-width:0.25;stroke-linecap:round;stroke-linejoin:bevel" />
        <path d="M16.1078 92.1783Q16.1078 92.21 16.0867 92.2294Q16.0655 92.2488 16.0373 92.2488H14.7426Q14.7108 92.2488 14.6914 92.2277Q14.672 92.2065 14.672 92.1783V89.8499Q14.672 89.8217 14.6932 89.8006Q14.7144 89.7794 14.7461 89.7794Q14.7779 89.7794 14.799 89.8006Q14.8202 89.8217 14.8202 89.8499V92.1077H16.0373Q16.0655 92.1077 16.0867 92.1289Q16.1078 92.1501 16.1078 92.1783Z" style="stroke:#000000;stroke-width:0.25;stroke-linecap:round;stroke-linejoin:bevel" />
        <path d="M16.2172 102.175Q16.2172 102.207 16.1978 102.226Q16.1784 102.245 16.1502 102.245Q16.129 102.245 16.1184 102.238Q16.0232 102.185 15.9667 102.06Q15.9103 101.935 15.9103 101.649Q15.9103 101.36 15.7551 101.252Q15.5998 101.145 15.3952 101.145H14.5697V102.178Q14.5697 102.207 14.5486 102.228Q14.5274 102.249 14.4956 102.249Q14.4639 102.249 14.4427 102.228Q14.4216 102.207 14.4216 102.178V99.8499Q14.4216 99.8217 14.4427 99.8006Q14.4639 99.7794 14.4921 99.7794H15.4234Q15.6281 99.7794 15.7868 99.8623Q15.9456 99.9452 16.0338 100.09Q16.1219 100.234 16.1219 100.418Q16.1219 100.654 15.9967 100.824Q15.8715 100.993 15.6704 101.053Q15.8397 101.106 15.9491 101.263Q16.0584 101.42 16.0584 101.649Q16.0584 101.885 16.0884 101.979Q16.1184 102.072 16.1784 102.111Q16.2172 102.136 16.2172 102.175ZM15.4411 101.004Q15.6633 100.982 15.8186 100.827Q15.9738 100.672 15.9738 100.421Q15.9738 100.203 15.8186 100.062Q15.6633 99.9205 15.4058 99.9205H14.5697V101.004Z" style="stroke:#000000;stroke-width:0.25;stroke-linecap:round;stroke-linejoin:bevel" />
        <path id="env_label" d="M13.6207 116.178Q13.6207 116.21 13.5996 116.229Q13.5784 116.249 13.5502 116.249H12.2202Q12.192 116.249 12.1708 116.228Q12.1497 116.207 12.1497 116.178V113.85Q12.1497 113.822 12.1708 113.801Q12.192 113.779 12.2202 113.779H13.5502Q13.5784 113.779 13.5996 113.801Q13.6207 113.822 13.6207 113.85Q13.6207 113.882 13.5996 113.901Q13.5784 113.921 13.5502 113.921H12.2978V114.905H13.3914Q13.4197 114.905 13.4408 114.926Q13.462 114.947 13.462 114.975Q13.462 115.007 13.4408 115.026Q13.4197 115.046 13.3914 115.046H12.2978V116.108H13.5502Q13.5784 116.108 13.5996 116.129Q13.6207 116.15 13.6207 116.178ZM16.002 113.846V116.171Q16.002 116.21 15.9808 116.229Q15.9597 116.249 15.9279 116.249Q15.8926 116.249 15.8715 116.221L14.284 114.051V116.189Q14.284 116.214 14.2646 116.231Q14.2452 116.249 14.2169 116.249Q14.1852 116.249 14.1676 116.231Q14.1499 116.214 14.1499 116.189V113.85Q14.1499 113.815 14.1693 113.797Q14.1887 113.779 14.2134 113.779Q14.2452 113.779 14.2663 113.804L15.8679 115.988V113.846Q15.8679 113.818 15.8873 113.799Q15.9067 113.779 15.935 113.779Q15.9667 113.779 15.9844 113.799Q16.002 113.818 16.002 113.846ZM18.5596 113.843Q18.5596 113.857 18.5526 113.878L17.586 116.203Q17.5648 116.249 17.5189 116.249Q17.4978 116.249 17.4784 116.236Q17.459 116.224 17.4519 116.203L16.4924 113.889Q16.4818 113.868 16.4818 113.846Q16.4818 113.818 16.5012 113.799Q16.5206 113.779 16.5488 113.779Q16.6017 113.779 16.6264 113.836L17.5225 115.991L18.4221 113.825Q18.4467 113.779 18.4891 113.779Q18.5208 113.779 18.5402 113.797Q18.5596 113.815 18.5596 113.843Z" style="stroke:#000000;stroke-width:0.25;stroke-linecap:round;stroke-linejoin:bevel" />
        <rect x="11.24" y="112.75" width="8" height="4.5" stroke="black" stroke-width="0.2" fill="none" />
        <path d="M 6.24,115.00 L 11.24,115.00 " style="stroke:#000000;stroke-width:0.25;stroke-linecap:round;stroke-linejoin:bevel;stroke-dasharray:none" fill="none" />
        <path d="M 24.24,115.00 L 19.24,115.00 " style="stroke:#000000;stroke-width:0.25;stroke-linecap:round;stroke-linejoin:bevel;stroke-dasharray:none" fill="none" />
        <path d="M 6.24,44.00 L 24.24,44.00 z " style="stroke:#000000;stroke-width:0.25;stroke-linecap:round;stroke-linejoin:bevel;stroke-dasharray:none" />
        <path d="M13.2786 36.8464Q13.2786 36.8782 13.2592 36.8958Q13.2398 36.9134 13.208 36.9134H12.4213V39.1783Q12.4213 39.2065 12.4001 39.2277Q12.379 39.2488 12.3507 39.2488Q12.319 39.2488 12.2996 39.2277Q12.2802 39.2065 12.2802 39.1783V36.9134H11.4935Q11.4653 36.9134 11.4441 36.894Q11.4229 36.8746 11.4229 36.8464Q11.4229 36.8182 11.4441 36.7988Q11.4653 36.7794 11.4935 36.7794H13.208Q13.2362 36.7794 13.2574 36.7988Q13.2786 36.8182 13.2786 36.8464ZM13.8289 39.2488Q13.7936 39.2488 13.7742 39.2277Q13.7548 39.2065 13.7548 39.1747V36.8535Q13.7548 36.8217 13.776 36.8006Q13.7971 36.7794 13.8289 36.7794Q13.8606 36.7794 13.8818 36.8006Q13.903 36.8217 13.903 36.8535V39.1747Q13.8994 39.2065 13.8783 39.2277Q13.8571 39.2488 13.8289 39.2488ZM16.8275 36.8499V39.1783Q16.8275 39.2065 16.8046 39.2277Q16.7816 39.2488 16.7534 39.2488Q16.7217 39.2488 16.7005 39.2277Q16.6793 39.2065 16.6793 39.1783V37.0687L15.7692 38.4445Q15.7515 38.4727 15.7198 38.4727Q15.681 38.4727 15.6633 38.4445L14.7496 37.0651V39.1783Q14.7496 39.2065 14.7285 39.2277Q14.7073 39.2488 14.6791 39.2488Q14.6473 39.2488 14.6279 39.2277Q14.6085 39.2065 14.6085 39.1783V36.8499Q14.6085 36.8252 14.6279 36.8023Q14.6473 36.7794 14.6756 36.7794Q14.7214 36.7794 14.7426 36.8111L15.7198 38.2646L16.697 36.8111Q16.7252 36.7723 16.764 36.7794Q16.7922 36.7829 16.8099 36.8023Q16.8275 36.8217 16.8275 36.8499ZM19.0041 39.1783Q19.0041 39.21 18.983 39.2294Q18.9618 39.2488 18.9336 39.2488H17.6036Q17.5754 39.2488 17.5542 39.2277Q17.5331 39.2065 17.5331 39.1783V36.8499Q17.5331 36.8217 17.5542 36.8006Q17.5754 36.7794 17.6036 36.7794H18.9336Q18.9618 36.7794 18.983 36.8006Q19.0041 36.8217 19.0041 36.8499Q19.0041 36.8817 18.983 36.9011Q18.9618 36.9205 18.9336 36.9205H17.6812V37.9047H18.7748Q18.8031 37.9047 18.8242 37.9259Q18.8454 37.9471 18.8454 37.9753Q18.8454 38.0071 18.8242 38.0265Q18.8031 38.0459 18.7748 38.0459H17.6812V39.1077H18.9336Q18.9618 39.1077 18.983 39.1289Q19.0041 39.1501 19.0041 39.1783Z" style="stroke:#000000;stroke-width:0.25;stroke-linecap:round;stroke-linejoin:bevel" />
        <path d="M14.0529 17.1747Q14.0529 17.2065 14.0335 17.2259Q14.0141 17.2453 13.9859 17.2453Q13.9647 17.2453 13.9541 17.2383Q13.8589 17.1853 13.8024 17.0601Q13.746 16.9349 13.746 16.6491Q13.746 16.3598 13.5908 16.2522Q13.4355 16.1446 13.2309 16.1446H12.4054V17.1783Q12.4054 17.2065 12.3843 17.2277Q12.3631 17.2488 12.3313 17.2488Q12.2996 17.2488 12.2784 17.2277Q12.2573 17.2065 12.2573 17.1783V14.8499Q12.2573 14.8217 12.2784 14.8006Q12.2996 14.7794 12.3278 14.7794H13.2592Q13.4638 14.7794 13.6225 14.8623Q13.7813 14.9452 13.8695 15.0898Q13.9577 15.2345 13.9577 15.4179Q13.9577 15.6543 13.8324 15.8236Q13.7072 15.9929 13.5061 16.0529Q13.6754 16.1058 13.7848 16.2628Q13.8942 16.4198 13.8942 16.6491Q13.8942 16.8855 13.9241 16.979Q13.9541 17.0724 14.0141 17.1113Q14.0529 17.1359 14.0529 17.1747ZM13.2768 16.0035Q13.499 15.9824 13.6543 15.8271Q13.8095 15.6719 13.8095 15.4214Q13.8095 15.2027 13.6543 15.0616Q13.499 14.9205 13.2415 14.9205H12.4054V16.0035ZM16.0708 17.1783Q16.0708 17.21 16.0496 17.2294Q16.0285 17.2488 16.0002 17.2488H14.6703Q14.642 17.2488 14.6209 17.2277Q14.5997 17.2065 14.5997 17.1783V14.8499Q14.5997 14.8217 14.6209 14.8006Q14.642 14.7794 14.6703 14.7794H16.0002Q16.0285 14.7794 16.0496 14.8006Q16.0708 14.8217 16.0708 14.8499Q16.0708 14.8817 16.0496 14.9011Q16.0285 14.9205 16.0002 14.9205H14.7479V15.9047H15.8415Q15.8697 15.9047 15.8909 15.9259Q15.912 15.9471 15.912 15.9753Q15.912 16.0071 15.8909 16.0265Q15.8697 16.0459 15.8415 16.0459H14.7479V17.1077H16.0002Q16.0285 17.1077 16.0496 17.1289Q16.0708 17.1501 16.0708 17.1783ZM18.452 14.8429Q18.452 14.857 18.445 14.8782L17.4784 17.203Q17.4572 17.2488 17.4113 17.2488Q17.3902 17.2488 17.3708 17.2365Q17.3514 17.2241 17.3443 17.203L16.3848 14.8887Q16.3742 14.8676 16.3742 14.8464Q16.3742 14.8182 16.3936 14.7988Q16.413 14.7794 16.4412 14.7794Q16.4941 14.7794 16.5188 14.8358L17.4149 16.9913L18.3145 14.8253Q18.3392 14.7794 18.3815 14.7794Q18.4132 14.7794 18.4326 14.797Q18.452 14.8147 18.452 14.8429Z" style="stroke:#000000;stroke-width:0.25;stroke-linecap:round;stroke-linejoin:bevel" />
        <path d="M 10.24,16.00 L 12.24,13.50 L 18.44,13.50 L 20.44,16.00 L 18.44,18.50 L 12.24,18.50 z " style="stroke:#000000;stroke-width:0.25;stroke-linecap:round;stroke-linejoin:bevel;stroke-dasharray:none" fill="none" />
        <path d="M14.0952 28.8499Q14.0952 28.8817 14.0741 28.9011Q14.0529 28.9205 14.0247 28.9205H12.7653V29.8942H13.8659Q13.8942 29.8942 13.9153 29.9153Q13.9365 29.9365 13.9365 29.9647Q13.9365 29.9965 13.9153 30.0159Q13.8942 30.0353 13.8659 30.0353H12.7653V31.1783Q12.7653 31.2065 12.7459 31.2277Q12.7265 31.2488 12.6947 31.2488Q12.663 31.2488 12.6436 31.2277Q12.6242 31.2065 12.6242 31.1783V28.8499Q12.6242 28.8217 12.6453 28.8006Q12.6665 28.7794 12.6947 28.7794H14.0247Q14.0529 28.7794 14.0741 28.8006Q14.0952 28.8217 14.0952 28.8499ZM16.0602 31.1783Q16.0602 31.21 16.039 31.2294Q16.0179 31.2488 15.9897 31.2488H14.695Q14.6632 31.2488 14.6438 31.2277Q14.6244 31.2065 14.6244 31.1783V28.8499Q14.6244 28.8217 14.6456 28.8006Q14.6667 28.7794 14.6985 28.7794Q14.7302 28.7794 14.7514 28.8006Q14.7726 28.8217 14.7726 28.8499V31.1077H15.9897Q16.0179 31.1077 16.039 31.1289Q16.0602 31.1501 16.0602 31.1783ZM18.0499 29.4532Q18.0499 29.6508 17.967 29.8113Q17.8841 29.9718 17.7324 30.0617Q17.5807 30.1517 17.3831 30.1517H16.6141V31.1783Q16.6141 31.2065 16.5911 31.2277Q16.5682 31.2488 16.54 31.2488Q16.5082 31.2488 16.4871 31.2277Q16.4659 31.2065 16.4659 31.1783V28.8499Q16.4659 28.8217 16.4871 28.8006Q16.5082 28.7794 16.5365 28.7794H17.3831Q17.683 28.7794 17.8664 28.9664Q18.0499 29.1533 18.0499 29.4532ZM17.9017 29.4532Q17.9017 29.2098 17.7624 29.0651Q17.623 28.9205 17.3831 28.9205H16.6141V30.0106H17.3831Q17.6195 30.0106 17.7606 29.8536Q17.9017 29.6966 17.9017 29.4532Z" style="stroke:#000000;stroke-width:0.25;stroke-linecap:round;stroke-linejoin:bevel" />
        <path d="M 10.24,30.00 L 12.24,27.50 L 18.44,27.50 L 20.44,30.00 L 18.44,32.50 L 12.24,32.50 z " style="stroke:#000000;stroke-width:0.25;stroke-linecap:round;stroke-linejoin:bevel;stroke-dasharray:none" fill="none" />
        <path d="M 6.24,58.00 L 24.24,58.00 z " style="stroke:#000000;stroke-width:0.25;stroke-linecap:round;stroke-linejoin:bevel;stroke-dasharray:none" />
        <path d="M13.7054 51.4532Q13.7054 51.6507 13.6225 51.8113Q13.5396 51.9718 13.3879 52.0617Q13.2362 52.1517 13.0387 52.1517H12.2696V53.1783Q12.2696 53.2065 12.2467 53.2277Q12.2238 53.2488 12.1955 53.2488Q12.1638 53.2488 12.1426 53.2277Q12.1214 53.2065 12.1214 53.1783V50.8499Q12.1214 50.8217 12.1426 50.8006Q12.1638 50.7794 12.192 50.7794H13.0387Q13.3385 50.7794 13.522 50.9664Q13.7054 51.1533 13.7054 51.4532ZM13.5573 51.4532Q13.5573 51.2098 13.4179 51.0651Q13.2786 50.9205 13.0387 50.9205H12.2696V52.0106H13.0387Q13.275 52.0106 13.4161 51.8536Q13.5573 51.6966 13.5573 51.4532ZM16.0302 53.1818Q16.0302 53.2136 16.0091 53.2312Q15.9879 53.2488 15.9561 53.2488Q15.9314 53.2488 15.912 53.2365Q15.8926 53.2241 15.8856 53.203L15.5893 52.4763L15.5928 52.4833H14.411L14.1252 53.203Q14.1076 53.2488 14.0617 53.2488Q14.03 53.2488 14.0106 53.2312Q13.9912 53.2136 13.9876 53.1889Q13.9841 53.1747 13.9912 53.1536L14.9401 50.8182Q14.9507 50.79 14.9666 50.7812Q14.9825 50.7723 15.0072 50.7723Q15.0601 50.7723 15.0777 50.8182L16.0267 53.1536Q16.0302 53.1642 16.0302 53.1818ZM14.4674 52.3422H15.5363L14.9966 51.0122ZM18.3586 50.8464V53.1712Q18.3586 53.21 18.3374 53.2294Q18.3162 53.2488 18.2845 53.2488Q18.2492 53.2488 18.228 53.2206L16.6405 51.051V53.1889Q16.6405 53.2136 16.6211 53.2312Q16.6017 53.2488 16.5735 53.2488Q16.5418 53.2488 16.5241 53.2312Q16.5065 53.2136 16.5065 53.1889V50.8499Q16.5065 50.8147 16.5259 50.797Q16.5453 50.7794 16.57 50.7794Q16.6017 50.7794 16.6229 50.8041L18.2245 52.9878V50.8464Q18.2245 50.8182 18.2439 50.7988Q18.2633 50.7794 18.2915 50.7794Q18.3233 50.7794 18.3409 50.7988Q18.3586 50.8182 18.3586 50.8464Z" style="stroke:#000000;stroke-width:0.25;stroke-linecap:round;stroke-linejoin:bevel" />
        <path d="M 6.24,72.00 L 24.24,72.00 z " style="stroke:#000000;stroke-width:0.25;stroke-linecap:round;stroke-linejoin:bevel;stroke-dasharray:none" />
        <path d="M12.0227 67.1783Q12.0227 67.21 12.0015 67.2294Q11.9803 67.2488 11.9521 67.2488H10.6574Q10.6257 67.2488 10.6063 67.2277Q10.5869 67.2065 10.5869 67.1783V64.8499Q10.5869 64.8217 10.608 64.8006Q10.6292 64.7794 10.6609 64.7794Q10.6927 64.7794 10.7139 64.8006Q10.735 64.8217 10.735 64.8499V67.1077H11.9521Q11.9803 67.1077 12.0015 67.1289Q12.0227 67.1501 12.0227 67.1783ZM13.8994 67.1783Q13.8994 67.21 13.8783 67.2294Q13.8571 67.2488 13.8289 67.2488H12.4989Q12.4707 67.2488 12.4495 67.2277Q12.4284 67.2065 12.4284 67.1783V64.8499Q12.4284 64.8217 12.4495 64.8006Q12.4707 64.7794 12.4989 64.7794H13.8289Q13.8571 64.7794 13.8783 64.8006Q13.8994 64.8217 13.8994 64.8499Q13.8994 64.8817 13.8783 64.9011Q13.8571 64.9205 13.8289 64.9205H12.5765V65.9048H13.6701Q13.6984 65.9048 13.7195 65.9259Q13.7407 65.9471 13.7407 65.9753Q13.7407 66.0071 13.7195 66.0265Q13.6984 66.0459 13.6701 66.0459H12.5765V67.1077H13.8289Q13.8571 67.1077 13.8783 67.1289Q13.8994 67.1501 13.8994 67.1783ZM16.2807 64.8429Q16.2807 64.857 16.2736 64.8782L15.307 67.203Q15.2859 67.2488 15.24 67.2488Q15.2188 67.2488 15.1994 67.2365Q15.18 67.2241 15.173 67.203L14.2134 64.8888Q14.2028 64.8676 14.2028 64.8464Q14.2028 64.8182 14.2222 64.7988Q14.2416 64.7794 14.2699 64.7794Q14.3228 64.7794 14.3475 64.8358L15.2435 66.9913L16.1431 64.8253Q16.1678 64.7794 16.2101 64.7794Q16.2419 64.7794 16.2613 64.797Q16.2807 64.8147 16.2807 64.8429ZM18.228 67.1783Q18.228 67.21 18.2069 67.2294Q18.1857 67.2488 18.1575 67.2488H16.8275Q16.7993 67.2488 16.7781 67.2277Q16.7569 67.2065 16.7569 67.1783V64.8499Q16.7569 64.8217 16.7781 64.8006Q16.7993 64.7794 16.8275 64.7794H18.1575Q18.1857 64.7794 18.2069 64.8006Q18.228 64.8217 18.228 64.8499Q18.228 64.8817 18.2069 64.9011Q18.1857 64.9205 18.1575 64.9205H16.9051V65.9048H17.9987Q18.0269 65.9048 18.0481 65.9259Q18.0693 65.9471 18.0693 65.9753Q18.0693 66.0071 18.0481 66.0265Q18.0269 66.0459 17.9987 66.0459H16.9051V67.1077H18.1575Q18.1857 67.1077 18.2069 67.1289Q18.228 67.1501 18.228 67.1783ZM20.193 67.1783Q20.193 67.21 20.1718 67.2294Q20.1507 67.2488 20.1224 67.2488H18.8278Q18.796 67.2488 18.7766 67.2277Q18.7572 67.2065 18.7572 67.1783V64.8499Q18.7572 64.8217 18.7784 64.8006Q18.7995 64.7794 18.8313 64.7794Q18.863 64.7794 18.8842 64.8006Q18.9054 64.8217 18.9054 64.8499V67.1077H20.1224Q20.1507 67.1077 20.1718 67.1289Q20.193 67.1501 20.193 67.1783Z" style="stroke:#000000;stroke-width:0.25;stroke-linecap:round;stroke-linejoin:bevel" />
    </g>
</svg>
