<?xml version="1.0" encoding="utf-8"?>
<svg xmlns="http://www.w3.org/2000/svg" width="30.48mm" height="128.50mm" viewBox="0 0 30.48 128.50">
    <g id="PanelLayer">
        <defs>
            <linearGradient id="gradient_controls" x1="0" y1="16" x2="0" y2="93" gradientUnits="userSpaceOnUse">
                <stop style="stop-color:#3068ff;stop-opacity:1;" offset="0" />
                <stop style="stop-color:#4f8df2;stop-opacity:1;" offset="1" />
            </linearGradient>
            <linearGradient id="gradient_send_return" x1="0" y1="93" x2="0" y2="110" gradientUnits="userSpaceOnUse">
                <stop style="stop-color:#8a72cf;stop-opacity:1;" offset="0" />
                <stop style="stop-color:#4f8df2;stop-opacity:1;" offset="1" />
            </linearGradient>
            <linearGradient id="gradient_env" x1="0" y1="115" x2="0" y2="126.5" gradientUnits="userSpaceOnUse">
                <stop style="stop-color:#4b9488;stop-opacity:1;" offset="0" />
                <stop style="stop-color:#4f8df2;stop-opacity:1;" offset="1" />
            </linearGradient>
        </defs>
        <rect id="border_rect" width="30.48" height="128.5" x="0" y="0" style="display:inline;fill:#4f8df2;fill-opacity:1;stroke:none;" />
        <path id="controls_art" d="M 0.24,93.00 L 0.24,14.00 A 4 4 0 0 1 4.24 10 L 26.24,10.00 A 4 4 0 0 1 30.24 14 L 30.24,10.00 L 30.24,93.00 z" style="fill:url(#gradient_controls);fill-opacity:1;stroke-width:0;" />
        <path id="send_return_art" d="M 0.24,110.00 L 0.24,87.00 A 4 4 0 0 1 4.24 83 L 26.24,83.00 A 4 4 0 0 1 30.24 87 L 30.24,83.00 L 30.24,110.00 z" style="fill:url(#gradient_send_return);fill-opacity:1;stroke-width:0;" />
        <path id="env_art" d="M 0.24,126.50 L 0.24,114.00 A 4 4 0 0 1 4.24 110 L 26.24,110.00 A 4 4 0 0 1 30.24 114 L 30.24,110.00 L 30.24,126.50 z" style="fill:url(#gradient_env);fill-opacity:1;stroke-width:0;" />
        <path d="M 8.24,93.00 L 8.24,103.00 " style="stroke:#000000;stroke-width:0.25;stroke-linecap:round;stroke-linejoin:bevel;stroke-dasharray:none" fill="none" />
        <path d="M3.86556 87.4137Q3.84439 87.3925 3.84439 87.3608Q3.84439 87.3326 3.86908 87.3061Q3.89378 87.2796 3.922 87.2796Q3.95375 87.2796 3.98197 87.3114Q4.11956 87.4737 4.30829 87.5583Q4.49703 87.643 4.70517 87.643Q4.97681 87.643 5.15319 87.5125Q5.32958 87.3819 5.32958 87.1668Q5.32606 86.9974 5.23786 86.8881Q5.14967 86.7787 5.0209 86.7134Q4.89214 86.6482 4.66989 86.567Q4.42647 86.4753 4.29065 86.4048Q4.15483 86.3342 4.05782 86.2037Q3.96081 86.0731 3.96081 85.8615Q3.96081 85.6886 4.05606 85.5475Q4.15131 85.4064 4.32769 85.3253Q4.50408 85.2441 4.73692 85.2441Q4.94506 85.2441 5.13203 85.32Q5.319 85.3958 5.42836 85.5334Q5.46364 85.5828 5.46364 85.6075Q5.46364 85.6357 5.43718 85.6586Q5.41072 85.6816 5.37897 85.6816Q5.35075 85.6816 5.33311 85.6604Q5.23433 85.5334 5.07911 85.4593Q4.92389 85.3852 4.73692 85.3852Q4.46881 85.3852 4.29065 85.5122Q4.1125 85.6392 4.1125 85.8579Q4.1125 86.0096 4.19893 86.1155Q4.28536 86.2213 4.41589 86.2866Q4.54642 86.3518 4.74044 86.4224Q4.98739 86.5106 5.13203 86.5847Q5.27667 86.6587 5.37897 86.7999Q5.48128 86.941 5.48128 87.1738Q5.48128 87.3361 5.38603 87.4772Q5.29078 87.6183 5.11263 87.7012Q4.93447 87.7841 4.70517 87.7841Q4.44411 87.7841 4.25008 87.6942Q4.05606 87.6042 3.86556 87.4137ZM7.48506 87.6783Q7.48506 87.71 7.46389 87.7294Q7.44272 87.7488 7.4145 87.7488H6.08453Q6.05631 87.7488 6.03514 87.7277Q6.01397 87.7065 6.01397 87.6783V85.3499Q6.01397 85.3217 6.03514 85.3006Q6.05631 85.2794 6.08453 85.2794H7.4145Q7.44272 85.2794 7.46389 85.3006Q7.48506 85.3217 7.48506 85.3499Q7.48506 85.3817 7.46389 85.4011Q7.44272 85.4205 7.4145 85.4205H6.16214V86.4048H7.25575Q7.28397 86.4048 7.30514 86.4259Q7.32631 86.4471 7.32631 86.4753Q7.32631 86.5071 7.30514 86.5265Q7.28397 86.5459 7.25575 86.5459H6.16214V87.6077H7.4145Q7.44272 87.6077 7.46389 87.6289Q7.48506 87.6501 7.48506 87.6783ZM9.86631 85.3464V87.6712Q9.86631 87.71 9.84514 87.7294Q9.82397 87.7488 9.79222 87.7488Q9.75694 87.7488 9.73578 87.7206L8.14828 85.551V87.6889Q8.14828 87.7136 8.12888 87.7312Q8.10947 87.7488 8.08125 87.7488Q8.0495 87.7488 8.03186 87.7312Q8.01422 87.7136 8.01422 87.6889V85.3499Q8.01422 85.3147 8.03363 85.297Q8.05303 85.2794 8.07772 85.2794Q8.10947 85.2794 8.13064 85.3041L9.73225 87.4878V85.3464Q9.73225 85.3182 9.75165 85.2988Q9.77106 85.2794 9.79928 85.2794Q9.83103 85.2794 9.84867 85.2988Q9.86631 85.3182 9.86631 85.3464ZM12.5827 86.5141Q12.5827 86.8634 12.4716 87.1421Q12.3604 87.4207 12.1311 87.5848Q11.9018 87.7488 11.5596 87.7488H10.6424Q10.6142 87.7488 10.593 87.7277Q10.5719 87.7065 10.5719 87.6783V85.3499Q10.5719 85.3217 10.593 85.3006Q10.6142 85.2794 10.6424 85.2794H11.5596Q11.8983 85.2794 12.1294 85.4487Q12.3604 85.6181 12.4716 85.8985Q12.5827 86.179 12.5827 86.5141ZM12.4345 86.5141Q12.4345 86.2143 12.3375 85.9655Q12.2405 85.7168 12.0377 85.5687Q11.8348 85.4205 11.5244 85.4205H10.72V87.6077H11.5244Q11.983 87.6077 12.2088 87.3061Q12.4345 87.0045 12.4345 86.5141Z" style="stroke:#000000;stroke-width:0.25;stroke-linecap:round;stroke-linejoin:bevel" />
        <path d="M 22.24,93.00 L 22.24,103.00 " style="stroke:#000000;stroke-width:0.25;stroke-linecap:round;stroke-linejoin:bevel;stroke-dasharray:none" fill="none" />
        <path d="M19.7159 87.6748Q19.7159 87.7065 19.6965 87.7259Q19.6771 87.7453 19.6488 87.7453Q19.6277 87.7453 19.6171 87.7383Q19.5218 87.6853 19.4654 87.5601Q19.409 87.4349 19.409 87.1491Q19.409 86.8598 19.2537 86.7522Q19.0985 86.6446 18.8939 86.6446H18.0684V87.6783Q18.0684 87.7065 18.0472 87.7277Q18.0261 87.7488 17.9943 87.7488Q17.9626 87.7488 17.9414 87.7277Q17.9202 87.7065 17.9202 87.6783V85.3499Q17.9202 85.3217 17.9414 85.3006Q17.9626 85.2794 17.9908 85.2794H18.9221Q19.1267 85.2794 19.2855 85.3623Q19.4442 85.4452 19.5324 85.5898Q19.6206 85.7345 19.6206 85.9179Q19.6206 86.1543 19.4954 86.3236Q19.3702 86.4929 19.1691 86.5529Q19.3384 86.6058 19.4478 86.7628Q19.5571 86.9198 19.5571 87.1491Q19.5571 87.3855 19.5871 87.479Q19.6171 87.5724 19.6771 87.6112Q19.7159 87.6359 19.7159 87.6748ZM18.9398 86.5035Q19.162 86.4824 19.3172 86.3271Q19.4725 86.1719 19.4725 85.9214Q19.4725 85.7027 19.3172 85.5616Q19.162 85.4205 18.9045 85.4205H18.0684V86.5035ZM21.889 85.3464Q21.889 85.3782 21.8696 85.3958Q21.8502 85.4134 21.8184 85.4134H21.0317V87.6783Q21.0317 87.7065 21.0106 87.7277Q20.9894 87.7488 20.9612 87.7488Q20.9294 87.7488 20.91 87.7277Q20.8906 87.7065 20.8906 87.6783V85.4134H20.1039Q20.0757 85.4134 20.0545 85.394Q20.0334 85.3746 20.0334 85.3464Q20.0334 85.3182 20.0545 85.2988Q20.0757 85.2794 20.1039 85.2794H21.8184Q21.8467 85.2794 21.8678 85.2988Q21.889 85.3182 21.889 85.3464ZM24.1609 87.6748Q24.1609 87.7065 24.1415 87.7259Q24.1221 87.7453 24.0938 87.7453Q24.0727 87.7453 24.0621 87.7383Q23.9668 87.6853 23.9104 87.5601Q23.854 87.4349 23.854 87.1491Q23.854 86.8598 23.6987 86.7522Q23.5435 86.6446 23.3389 86.6446H22.5134V87.6783Q22.5134 87.7065 22.4922 87.7277Q22.4711 87.7488 22.4393 87.7488Q22.4076 87.7488 22.3864 87.7277Q22.3652 87.7065 22.3652 87.6783V85.3499Q22.3652 85.3217 22.3864 85.3006Q22.4076 85.2794 22.4358 85.2794H23.3671Q23.5717 85.2794 23.7305 85.3623Q23.8892 85.4452 23.9774 85.5898Q24.0656 85.7345 24.0656 85.9179Q24.0656 86.1543 23.9404 86.3236Q23.8152 86.4929 23.6141 86.5529Q23.7834 86.6058 23.8928 86.7628Q24.0021 86.9198 24.0021 87.1491Q24.0021 87.3855 24.0321 87.479Q24.0621 87.5724 24.1221 87.6112Q24.1609 87.6359 24.1609 87.6748ZM23.3848 86.5035Q23.607 86.4824 23.7622 86.3271Q23.9175 86.1719 23.9175 85.9214Q23.9175 85.7027 23.7622 85.5616Q23.607 85.4205 23.3495 85.4205H22.5134V86.5035ZM26.5598 85.3464V87.6712Q26.5598 87.71 26.5386 87.7294Q26.5174 87.7488 26.4857 87.7488Q26.4504 87.7488 26.4292 87.7206L24.8417 85.551V87.6889Q24.8417 87.7136 24.8223 87.7312Q24.8029 87.7488 24.7747 87.7488Q24.743 87.7488 24.7253 87.7312Q24.7077 87.7136 24.7077 87.6889V85.3499Q24.7077 85.3147 24.7271 85.297Q24.7465 85.2794 24.7712 85.2794Q24.8029 85.2794 24.8241 85.3041L26.4257 87.4878V85.3464Q26.4257 85.3182 26.4451 85.2988Q26.4645 85.2794 26.4927 85.2794Q26.5245 85.2794 26.5421 85.2988Q26.5598 85.3182 26.5598 85.3464Z" style="stroke:#000000;stroke-width:0.25;stroke-linecap:round;stroke-linejoin:bevel" />
        <path id="env_label" d="M13.6207 116.178Q13.6207 116.21 13.5996 116.229Q13.5784 116.249 13.5502 116.249H12.2202Q12.192 116.249 12.1708 116.228Q12.1497 116.207 12.1497 116.178V113.85Q12.1497 113.822 12.1708 113.801Q12.192 113.779 12.2202 113.779H13.5502Q13.5784 113.779 13.5996 113.801Q13.6207 113.822 13.6207 113.85Q13.6207 113.882 13.5996 113.901Q13.5784 113.921 13.5502 113.921H12.2978V114.905H13.3914Q13.4197 114.905 13.4408 114.926Q13.462 114.947 13.462 114.975Q13.462 115.007 13.4408 115.026Q13.4197 115.046 13.3914 115.046H12.2978V116.108H13.5502Q13.5784 116.108 13.5996 116.129Q13.6207 116.15 13.6207 116.178ZM16.002 113.846V116.171Q16.002 116.21 15.9808 116.229Q15.9597 116.249 15.9279 116.249Q15.8926 116.249 15.8715 116.221L14.284 114.051V116.189Q14.284 116.214 14.2646 116.231Q14.2452 116.249 14.2169 116.249Q14.1852 116.249 14.1676 116.231Q14.1499 116.214 14.1499 116.189V113.85Q14.1499 113.815 14.1693 113.797Q14.1887 113.779 14.2134 113.779Q14.2452 113.779 14.2663 113.804L15.8679 115.988V113.846Q15.8679 113.818 15.8873 113.799Q15.9067 113.779 15.935 113.779Q15.9667 113.779 15.9844 113.799Q16.002 113.818 16.002 113.846ZM18.5596 113.843Q18.5596 113.857 18.5526 113.878L17.586 116.203Q17.5648 116.249 17.5189 116.249Q17.4978 116.249 17.4784 116.236Q17.459 116.224 17.4519 116.203L16.4924 113.889Q16.4818 113.868 16.4818 113.846Q16.4818 113.818 16.5012 113.799Q16.5206 113.779 16.5488 113.779Q16.6017 113.779 16.6264 113.836L17.5225 115.991L18.4221 113.825Q18.4467 113.779 18.4891 113.779Q18.5208 113.779 18.5402 113.797Q18.5596 113.815 18.5596 113.843Z" style="stroke:#000000;stroke-width:0.25;stroke-linecap:round;stroke-linejoin:bevel" />
        <rect x="11.24" y="112.75" width="8" height="4.5" stroke="black" stroke-width="0.2" fill="none" />
        <path d="M 6.24,115.00 L 11.24,115.00 " style="stroke:#000000;stroke-width:0.25;stroke-linecap:round;stroke-linejoin:bevel;stroke-dasharray:none" fill="none" />
        <path d="M 24.24,115.00 L 19.24,115.00 " style="stroke:#000000;stroke-width:0.25;stroke-linecap:round;stroke-linejoin:bevel;stroke-dasharray:none" fill="none" />
        <path d="M 6.24,44.00 L 24.24,44.00 z " style="stroke:#000000;stroke-width:0.25;stroke-linecap:round;stroke-linejoin:bevel;stroke-dasharray:none" />
        <path d="M13.2786 36.8464Q13.2786 36.8782 13.2592 36.8958Q13.2398 36.9134 13.208 36.9134H12.4213V39.1783Q12.4213 39.2065 12.4001 39.2277Q12.379 39.2488 12.3507 39.2488Q12.319 39.2488 12.2996 39.2277Q12.2802 39.2065 12.2802 39.1783V36.9134H11.4935Q11.4653 36.9134 11.4441 36.894Q11.4229 36.8746 11.4229 36.8464Q11.4229 36.8182 11.4441 36.7988Q11.4653 36.7794 11.4935 36.7794H13.208Q13.2362 36.7794 13.2574 36.7988Q13.2786 36.8182 13.2786 36.8464ZM13.8289 39.2488Q13.7936 39.2488 13.7742 39.2277Q13.7548 39.2065 13.7548 39.1747V36.8535Q13.7548 36.8217 13.776 36.8006Q13.7971 36.7794 13.8289 36.7794Q13.8606 36.7794 13.8818 36.8006Q13.903 36.8217 13.903 36.8535V39.1747Q13.8994 39.2065 13.8783 39.2277Q13.8571 39.2488 13.8289 39.2488ZM16.8275 36.8499V39.1783Q16.8275 39.2065 16.8046 39.2277Q16.7816 39.2488 16.7534 39.2488Q16.7217 39.2488 16.7005 39.2277Q16.6793 39.2065 16.6793 39.1783V37.0687L15.7692 38.4445Q15.7515 38.4727 15.7198 38.4727Q15.681 38.4727 15.6633 38.4445L14.7496 37.0651V39.1783Q14.7496 39.2065 14.7285 39.2277Q14.7073 39.2488 14.6791 39.2488Q14.6473 39.2488 14.6279 39.2277Q14.6085 39.2065 14.6085 39.1783V36.8499Q14.6085 36.8252 14.6279 36.8023Q14.6473 36.7794 14.6756 36.7794Q14.7214 36.7794 14.7426 36.8111L15.7198 38.2646L16.697 36.8111Q16.7252 36.7723 16.764 36.7794Q16.7922 36.7829 16.8099 36.8023Q16.8275 36.8217 16.8275 36.8499ZM19.0041 39.1783Q19.0041 39.21 18.983 39.2294Q18.9618 39.2488 18.9336 39.2488H17.6036Q17.5754 39.2488 17.5542 39.2277Q17.5331 39.2065 17.5331 39.1783V36.8499Q17.5331 36.8217 17.5542 36.8006Q17.5754 36.7794 17.6036 36.7794H18.9336Q18.9618 36.7794 18.983 36.8006Q19.0041 36.8217 19.0041 36.8499Q19.0041 36.8817 18.983 36.9011Q18.9618 36.9205 18.9336 36.9205H17.6812V37.9047H18.7748Q18.8031 37.9047 18.8242 37.9259Q18.8454 37.9471 18.8454 37.9753Q18.8454 38.0071 18.8242 38.0265Q18.8031 38.0459 18.7748 38.0459H17.6812V39.1077H18.9336Q18.9618 39.1077 18.983 39.1289Q19.0041 39.1501 19.0041 39.1783Z" style="stroke:#000000;stroke-width:0.25;stroke-linecap:round;stroke-linejoin:bevel" />
        <path d="M 6.24,58.00 L 24.24,58.00 z " style="stroke:#000000;stroke-width:0.25;stroke-linecap:round;stroke-linejoin:bevel;stroke-dasharray:none" />
        <path d="M13.7054 51.4532Q13.7054 51.6507 13.6225 51.8113Q13.5396 51.9718 13.3879 52.0617Q13.2362 52.1517 13.0387 52.1517H12.2696V53.1783Q12.2696 53.2065 12.2467 53.2277Q12.2238 53.2488 12.1955 53.2488Q12.1638 53.2488 12.1426 53.2277Q12.1214 53.2065 12.1214 53.1783V50.8499Q12.1214 50.8217 12.1426 50.8006Q12.1638 50.7794 12.192 50.7794H13.0387Q13.3385 50.7794 13.522 50.9664Q13.7054 51.1533 13.7054 51.4532ZM13.5573 51.4532Q13.5573 51.2098 13.4179 51.0651Q13.2786 50.9205 13.0387 50.9205H12.2696V52.0106H13.0387Q13.275 52.0106 13.4161 51.8536Q13.5573 51.6966 13.5573 51.4532ZM16.0302 53.1818Q16.0302 53.2136 16.0091 53.2312Q15.9879 53.2488 15.9561 53.2488Q15.9314 53.2488 15.912 53.2365Q15.8926 53.2241 15.8856 53.203L15.5893 52.4763L15.5928 52.4833H14.411L14.1252 53.203Q14.1076 53.2488 14.0617 53.2488Q14.03 53.2488 14.0106 53.2312Q13.9912 53.2136 13.9876 53.1889Q13.9841 53.1747 13.9912 53.1536L14.9401 50.8182Q14.9507 50.79 14.9666 50.7812Q14.9825 50.7723 15.0072 50.7723Q15.0601 50.7723 15.0777 50.8182L16.0267 53.1536Q16.0302 53.1642 16.0302 53.1818ZM14.4674 52.3422H15.5363L14.9966 51.0122ZM18.3586 50.8464V53.1712Q18.3586 53.21 18.3374 53.2294Q18.3162 53.2488 18.2845 53.2488Q18.2492 53.2488 18.228 53.2206L16.6405 51.051V53.1889Q16.6405 53.2136 16.6211 53.2312Q16.6017 53.2488 16.5735 53.2488Q16.5418 53.2488 16.5241 53.2312Q16.5065 53.2136 16.5065 53.1889V50.8499Q16.5065 50.8147 16.5259 50.797Q16.5453 50.7794 16.57 50.7794Q16.6017 50.7794 16.6229 50.8041L18.2245 52.9878V50.8464Q18.2245 50.8182 18.2439 50.7988Q18.2633 50.7794 18.2915 50.7794Q18.3233 50.7794 18.3409 50.7988Q18.3586 50.8182 18.3586 50.8464Z" style="stroke:#000000;stroke-width:0.25;stroke-linecap:round;stroke-linejoin:bevel" />
        <path d="M 6.24,72.00 L 24.24,72.00 z " style="stroke:#000000;stroke-width:0.25;stroke-linecap:round;stroke-linejoin:bevel;stroke-dasharray:none" />
        <path d="M 15.24,72.00 L 11.24,76.00 " style="stroke:#000000;stroke-width:0.25;stroke-linecap:round;stroke-linejoin:bevel;stroke-dasharray:none" fill="none" />
        <path d="M 15.24,72.00 L 19.24,76.00 " style="stroke:#000000;stroke-width:0.25;stroke-linecap:round;stroke-linejoin:bevel;stroke-dasharray:none" fill="none" />
        <path d="M12.0227 67.1783Q12.0227 67.21 12.0015 67.2294Q11.9803 67.2488 11.9521 67.2488H10.6574Q10.6257 67.2488 10.6063 67.2277Q10.5869 67.2065 10.5869 67.1783V64.8499Q10.5869 64.8217 10.608 64.8006Q10.6292 64.7794 10.6609 64.7794Q10.6927 64.7794 10.7139 64.8006Q10.735 64.8217 10.735 64.8499V67.1077H11.9521Q11.9803 67.1077 12.0015 67.1289Q12.0227 67.1501 12.0227 67.1783ZM13.8994 67.1783Q13.8994 67.21 13.8783 67.2294Q13.8571 67.2488 13.8289 67.2488H12.4989Q12.4707 67.2488 12.4495 67.2277Q12.4284 67.2065 12.4284 67.1783V64.8499Q12.4284 64.8217 12.4495 64.8006Q12.4707 64.7794 12.4989 64.7794H13.8289Q13.8571 64.7794 13.8783 64.8006Q13.8994 64.8217 13.8994 64.8499Q13.8994 64.8817 13.8783 64.9011Q13.8571 64.9205 13.8289 64.9205H12.5765V65.9048H13.6701Q13.6984 65.9048 13.7195 65.9259Q13.7407 65.9471 13.7407 65.9753Q13.7407 66.0071 13.7195 66.0265Q13.6984 66.0459 13.6701 66.0459H12.5765V67.1077H13.8289Q13.8571 67.1077 13.8783 67.1289Q13.8994 67.1501 13.8994 67.1783ZM16.2807 64.8429Q16.2807 64.857 16.2736 64.8782L15.307 67.203Q15.2859 67.2488 15.24 67.2488Q15.2188 67.2488 15.1994 67.2365Q15.18 67.2241 15.173 67.203L14.2134 64.8888Q14.2028 64.8676 14.2028 64.8464Q14.2028 64.8182 14.2222 64.7988Q14.2416 64.7794 14.2699 64.7794Q14.3228 64.7794 14.3475 64.8358L15.2435 66.9913L16.1431 64.8253Q16.1678 64.7794 16.2101 64.7794Q16.2419 64.7794 16.2613 64.797Q16.2807 64.8147 16.2807 64.8429ZM18.228 67.1783Q18.228 67.21 18.2069 67.2294Q18.1857 67.2488 18.1575 67.2488H16.8275Q16.7993 67.2488 16.7781 67.2277Q16.7569 67.2065 16.7569 67.1783V64.8499Q16.7569 64.8217 16.7781 64.8006Q16.7993 64.7794 16.8275 64.7794H18.1575Q18.1857 64.7794 18.2069 64.8006Q18.228 64.8217 18.228 64.8499Q18.228 64.8817 18.2069 64.9011Q18.1857 64.9205 18.1575 64.9205H16.9051V65.9048H17.9987Q18.0269 65.9048 18.0481 65.9259Q18.0693 65.9471 18.0693 65.9753Q18.0693 66.0071 18.0481 66.0265Q18.0269 66.0459 17.9987 66.0459H16.9051V67.1077H18.1575Q18.1857 67.1077 18.2069 67.1289Q18.228 67.1501 18.228 67.1783ZM20.193 67.1783Q20.193 67.21 20.1718 67.2294Q20.1507 67.2488 20.1224 67.2488H18.8278Q18.796 67.2488 18.7766 67.2277Q18.7572 67.2065 18.7572 67.1783V64.8499Q18.7572 64.8217 18.7784 64.8006Q18.7995 64.7794 18.8313 64.7794Q18.863 64.7794 18.8842 64.8006Q18.9054 64.8217 18.9054 64.8499V67.1077H20.1224Q20.1507 67.1077 20.1718 67.1289Q20.193 67.1501 20.193 67.1783Z" style="stroke:#000000;stroke-width:0.25;stroke-linecap:round;stroke-linejoin:bevel" />
    </g>
</svg>
