<?xml version="1.0" encoding="utf-8"?>
<svg xmlns="http://www.w3.org/2000/svg" width="60.96mm" height="128.50mm" viewBox="0 0 60.96 128.50">
    <path d="M44.4429 115.014Q44.4429 115.363 44.3318 115.642Q44.2207 115.921 43.9914 116.085Q43.7621 116.249 43.4199 116.249H42.5027Q42.4744 116.249 42.4533 116.228Q42.4321 116.207 42.4321 116.178V113.85Q42.4321 113.822 42.4533 113.801Q42.4744 113.779 42.5027 113.779H43.4199Q43.7586 113.779 43.9896 113.949Q44.2207 114.118 44.3318 114.399Q44.4429 114.679 44.4429 115.014ZM44.2948 115.014Q44.2948 114.714 44.1978 114.466Q44.1007 114.217 43.8979 114.069Q43.6951 113.921 43.3846 113.921H42.5803V116.108H43.3846Q43.8432 116.108 44.069 115.806Q44.2948 115.504 44.2948 115.014ZM46.8312 114.04Q46.8312 114.069 46.8171 114.086Q46.796 114.115 46.7642 114.115Q46.7501 114.115 46.7219 114.1Q46.3938 113.878 46.0269 113.878Q45.7306 113.878 45.4819 114.025Q45.2332 114.171 45.0885 114.43Q44.9439 114.69 44.9439 115.014Q44.9439 115.339 45.0885 115.598Q45.2332 115.857 45.4819 116.004Q45.7306 116.15 46.0269 116.15Q46.3973 116.15 46.7184 115.931Q46.736 115.917 46.7607 115.917Q46.796 115.917 46.8171 115.945Q46.8312 115.963 46.8312 115.988Q46.8312 116.023 46.803 116.044Q46.6654 116.143 46.4485 116.214Q46.2315 116.284 46.0269 116.284Q45.6918 116.284 45.4096 116.118Q45.1273 115.953 44.9615 115.661Q44.7957 115.37 44.7957 115.014Q44.7957 114.658 44.9615 114.367Q45.1273 114.076 45.4096 113.91Q45.6918 113.744 46.0269 113.744Q46.2386 113.744 46.4379 113.808Q46.6372 113.871 46.7995 113.984Q46.8312 114.009 46.8312 114.04ZM49.1737 116.192Q49.1737 116.231 49.1472 116.249Q49.1208 116.266 49.0926 116.266Q49.0643 116.266 49.0432 116.242L47.9848 114.933L47.4557 115.423V116.175Q47.4521 116.207 47.431 116.228Q47.4098 116.249 47.3816 116.249Q47.3463 116.249 47.3269 116.228Q47.3075 116.207 47.3075 116.175V113.853Q47.3075 113.822 47.3287 113.801Q47.3498 113.779 47.3816 113.779Q47.4133 113.779 47.4345 113.801Q47.4557 113.822 47.4557 113.853V115.243L48.9797 113.815Q49.0008 113.794 49.0291 113.794Q49.0573 113.794 49.0784 113.815Q49.0996 113.836 49.0996 113.864Q49.0996 113.892 49.0784 113.913L48.1012 114.824L49.1561 116.143Q49.1737 116.168 49.1737 116.192Z" style="stroke:#000000;stroke-width:0.25;stroke-linecap:round;stroke-linejoin:bevel" />
    <rect x="41.72" y="112.75" width="8" height="4.5" stroke="black" stroke-width="0.2" fill="none" />
    <path d="M 36.72,115.00 L 41.72,115.00 " style="stroke:#000000;stroke-width:0.25;stroke-linecap:round;stroke-linejoin:bevel;stroke-dasharray:none" fill="none" />
    <path d="M 54.72,115.00 L 49.72,115.00 " style="stroke:#000000;stroke-width:0.25;stroke-linecap:round;stroke-linejoin:bevel;stroke-dasharray:none" fill="none" />
</svg>
