<?xml version="1.0" encoding="utf-8"?>
<svg xmlns="http://www.w3.org/2000/svg" width="30.48mm" height="128.50mm" viewBox="0 0 30.48 128.50">
    <path d="M14.0529 17.1747Q14.0529 17.2065 14.0335 17.2259Q14.0141 17.2453 13.9859 17.2453Q13.9647 17.2453 13.9541 17.2383Q13.8589 17.1853 13.8024 17.0601Q13.746 16.9349 13.746 16.6491Q13.746 16.3598 13.5908 16.2522Q13.4355 16.1446 13.2309 16.1446H12.4054V17.1783Q12.4054 17.2065 12.3843 17.2277Q12.3631 17.2488 12.3313 17.2488Q12.2996 17.2488 12.2784 17.2277Q12.2573 17.2065 12.2573 17.1783V14.8499Q12.2573 14.8217 12.2784 14.8006Q12.2996 14.7794 12.3278 14.7794H13.2592Q13.4638 14.7794 13.6225 14.8623Q13.7813 14.9452 13.8695 15.0898Q13.9577 15.2345 13.9577 15.4179Q13.9577 15.6543 13.8324 15.8236Q13.7072 15.9929 13.5061 16.0529Q13.6754 16.1058 13.7848 16.2628Q13.8942 16.4198 13.8942 16.6491Q13.8942 16.8855 13.9241 16.979Q13.9541 17.0724 14.0141 17.1113Q14.0529 17.1359 14.0529 17.1747ZM13.2768 16.0035Q13.499 15.9824 13.6543 15.8271Q13.8095 15.6719 13.8095 15.4214Q13.8095 15.2027 13.6543 15.0616Q13.499 14.9205 13.2415 14.9205H12.4054V16.0035ZM16.0708 17.1783Q16.0708 17.21 16.0496 17.2294Q16.0285 17.2488 16.0002 17.2488H14.6703Q14.642 17.2488 14.6209 17.2277Q14.5997 17.2065 14.5997 17.1783V14.8499Q14.5997 14.8217 14.6209 14.8006Q14.642 14.7794 14.6703 14.7794H16.0002Q16.0285 14.7794 16.0496 14.8006Q16.0708 14.8217 16.0708 14.8499Q16.0708 14.8817 16.0496 14.9011Q16.0285 14.9205 16.0002 14.9205H14.7479V15.9047H15.8415Q15.8697 15.9047 15.8909 15.9259Q15.912 15.9471 15.912 15.9753Q15.912 16.0071 15.8909 16.0265Q15.8697 16.0459 15.8415 16.0459H14.7479V17.1077H16.0002Q16.0285 17.1077 16.0496 17.1289Q16.0708 17.1501 16.0708 17.1783ZM18.452 14.8429Q18.452 14.857 18.445 14.8782L17.4784 17.203Q17.4572 17.2488 17.4113 17.2488Q17.3902 17.2488 17.3708 17.2365Q17.3514 17.2241 17.3443 17.203L16.3848 14.8887Q16.3742 14.8676 16.3742 14.8464Q16.3742 14.8182 16.3936 14.7988Q16.413 14.7794 16.4412 14.7794Q16.4941 14.7794 16.5188 14.8358L17.4149 16.9913L18.3145 14.8253Q18.3392 14.7794 18.3815 14.7794Q18.4132 14.7794 18.4326 14.797Q18.452 14.8147 18.452 14.8429Z" style="stroke:#000000;stroke-width:0.25;stroke-linecap:round;stroke-linejoin:bevel" />
</svg>
