<?xml version="1.0" encoding="utf-8"?>
<svg xmlns="http://www.w3.org/2000/svg" width="60.96mm" height="128.50mm" viewBox="0 0 60.96 128.50">
    <path d="M44.1008 116.178Q44.1008 116.21 44.0796 116.229Q44.0584 116.249 44.0302 116.249H42.7002Q42.672 116.249 42.6508 116.228Q42.6297 116.207 42.6297 116.178V113.85Q42.6297 113.822 42.6508 113.801Q42.672 113.779 42.7002 113.779H44.0302Q44.0584 113.779 44.0796 113.801Q44.1008 113.822 44.1008 113.85Q44.1008 113.882 44.0796 113.901Q44.0584 113.921 44.0302 113.921H42.7778V114.905H43.8714Q43.8997 114.905 43.9208 114.926Q43.942 114.947 43.942 114.975Q43.942 115.007 43.9208 115.026Q43.8997 115.046 43.8714 115.046H42.7778V116.108H44.0302Q44.0584 116.108 44.0796 116.129Q44.1008 116.15 44.1008 116.178ZM46.482 113.846V116.171Q46.482 116.21 46.4608 116.229Q46.4397 116.249 46.4079 116.249Q46.3726 116.249 46.3515 116.221L44.764 114.051V116.189Q44.764 116.214 44.7446 116.231Q44.7252 116.249 44.6969 116.249Q44.6652 116.249 44.6476 116.231Q44.6299 116.214 44.6299 116.189V113.85Q44.6299 113.815 44.6493 113.797Q44.6687 113.779 44.6934 113.779Q44.7252 113.779 44.7463 113.804L46.3479 115.988V113.846Q46.3479 113.818 46.3673 113.799Q46.3868 113.779 46.415 113.779Q46.4467 113.779 46.4644 113.799Q46.482 113.818 46.482 113.846ZM49.0396 113.843Q49.0396 113.857 49.0326 113.878L48.066 116.203Q48.0448 116.249 47.9989 116.249Q47.9778 116.249 47.9584 116.236Q47.939 116.224 47.9319 116.203L46.9724 113.889Q46.9618 113.868 46.9618 113.846Q46.9618 113.818 46.9812 113.799Q47.0006 113.779 47.0288 113.779Q47.0817 113.779 47.1064 113.836L48.0025 115.991L48.9021 113.825Q48.9268 113.779 48.9691 113.779Q49.0008 113.779 49.0202 113.797Q49.0396 113.815 49.0396 113.843Z" style="stroke:#000000;stroke-width:0.25;stroke-linecap:round;stroke-linejoin:bevel" />
    <rect x="41.72" y="112.75" width="8" height="4.5" stroke="black" stroke-width="0.2" fill="none" />
    <path d="M 36.72,115.00 L 41.72,115.00 " style="stroke:#000000;stroke-width:0.25;stroke-linecap:round;stroke-linejoin:bevel;stroke-dasharray:none" fill="none" />
    <path d="M 54.72,115.00 L 49.72,115.00 " style="stroke:#000000;stroke-width:0.25;stroke-linecap:round;stroke-linejoin:bevel;stroke-dasharray:none" fill="none" />
</svg>
