<?xml version="1.0" encoding="utf-8"?>
<svg xmlns="http://www.w3.org/2000/svg" width="60.96mm" height="128.50mm" viewBox="0 0 60.96 128.50">
    <path d="M11.6381 68.5154Q11.6381 68.5437 11.624 68.5613Q11.6029 68.5895 11.5711 68.5895Q11.557 68.5895 11.5288 68.5754Q11.2007 68.3532 10.8338 68.3532Q10.5375 68.3532 10.2888 68.4996Q10.0401 68.646 9.89542 68.9053Q9.75078 69.1646 9.75078 69.4891Q9.75078 69.8137 9.89542 70.073Q10.0401 70.3323 10.2888 70.4787Q10.5375 70.6251 10.8338 70.6251Q11.2042 70.6251 11.5252 70.4063Q11.5429 70.3922 11.5676 70.3922Q11.6029 70.3922 11.624 70.4204Q11.6381 70.4381 11.6381 70.4628Q11.6381 70.4981 11.6099 70.5192Q11.4723 70.618 11.2554 70.6886Q11.0384 70.7591 10.8338 70.7591Q10.4987 70.7591 10.2164 70.5933Q9.93422 70.4275 9.76842 70.1365Q9.60261 69.8454 9.60261 69.4891Q9.60261 69.1328 9.76842 68.8418Q9.93422 68.5507 10.2164 68.3849Q10.4987 68.2191 10.8338 68.2191Q11.0455 68.2191 11.2448 68.2826Q11.4441 68.3461 11.6064 68.459Q11.6381 68.4837 11.6381 68.5154ZM13.5502 70.6533Q13.5502 70.685 13.529 70.7044Q13.5079 70.7238 13.4796 70.7238H12.1849Q12.1532 70.7238 12.1338 70.7027Q12.1144 70.6815 12.1144 70.6533V68.3249Q12.1144 68.2967 12.1356 68.2756Q12.1567 68.2544 12.1885 68.2544Q12.2202 68.2544 12.2414 68.2756Q12.2626 68.2967 12.2626 68.3249V70.5827H13.4796Q13.5079 70.5827 13.529 70.6039Q13.5502 70.6251 13.5502 70.6533ZM14.9578 70.7591Q14.6156 70.7591 14.3475 70.5986Q14.0794 70.4381 13.9294 70.1488Q13.7795 69.8595 13.7795 69.4891Q13.7795 69.1187 13.9294 68.8294Q14.0794 68.5401 14.3475 68.3796Q14.6156 68.2191 14.9578 68.2191Q15.3 68.2191 15.5681 68.3796Q15.8362 68.5401 15.9861 68.8294Q16.1361 69.1187 16.1361 69.4891Q16.1361 69.8595 15.9861 70.1488Q15.8362 70.4381 15.5681 70.5986Q15.3 70.7591 14.9578 70.7591ZM14.9578 68.3602Q14.6579 68.3602 14.4233 68.5013Q14.1887 68.6424 14.0582 68.9Q13.9277 69.1575 13.9277 69.4891Q13.9277 69.8207 14.0582 70.0782Q14.1887 70.3358 14.4233 70.4769Q14.6579 70.618 14.9578 70.618Q15.2576 70.618 15.4922 70.4769Q15.7268 70.3358 15.8574 70.0782Q15.9879 69.8207 15.9879 69.4891Q15.9879 69.1575 15.8574 68.9Q15.7268 68.6424 15.4922 68.5013Q15.2576 68.3602 14.9578 68.3602ZM18.5244 68.5154Q18.5244 68.5437 18.5102 68.5613Q18.4891 68.5895 18.4573 68.5895Q18.4432 68.5895 18.415 68.5754Q18.0869 68.3532 17.72 68.3532Q17.4237 68.3532 17.175 68.4996Q16.9263 68.646 16.7816 68.9053Q16.637 69.1646 16.637 69.4891Q16.637 69.8137 16.7816 70.073Q16.9263 70.3323 17.175 70.4787Q17.4237 70.6251 17.72 70.6251Q18.0904 70.6251 18.4115 70.4063Q18.4291 70.3922 18.4538 70.3922Q18.4891 70.3922 18.5102 70.4204Q18.5244 70.4381 18.5244 70.4628Q18.5244 70.4981 18.4961 70.5192Q18.3586 70.618 18.1416 70.6886Q17.9246 70.7591 17.72 70.7591Q17.3849 70.7591 17.1027 70.5933Q16.8204 70.4275 16.6546 70.1365Q16.4888 69.8454 16.4888 69.4891Q16.4888 69.1328 16.6546 68.8418Q16.8204 68.5507 17.1027 68.3849Q17.3849 68.2191 17.72 68.2191Q17.9317 68.2191 18.131 68.2826Q18.3303 68.3461 18.4926 68.459Q18.5244 68.4837 18.5244 68.5154ZM20.8668 70.6674Q20.8668 70.7062 20.8403 70.7238Q20.8139 70.7415 20.7857 70.7415Q20.7574 70.7415 20.7363 70.7168L19.6779 69.408L19.1488 69.8983V70.6497Q19.1453 70.6815 19.1241 70.7027Q19.1029 70.7238 19.0747 70.7238Q19.0394 70.7238 19.02 70.7027Q19.0006 70.6815 19.0006 70.6497V68.3285Q19.0006 68.2967 19.0218 68.2756Q19.0429 68.2544 19.0747 68.2544Q19.1064 68.2544 19.1276 68.2756Q19.1488 68.2967 19.1488 68.3285V69.7184L20.6728 68.2897Q20.6939 68.2685 20.7222 68.2685Q20.7504 68.2685 20.7716 68.2897Q20.7927 68.3108 20.7927 68.3391Q20.7927 68.3673 20.7716 68.3884L19.7944 69.2986L20.8492 70.618Q20.8668 70.6427 20.8668 70.6674Z" style="stroke:#6f02b8;stroke-width:0.25;stroke-linecap:round;stroke-linejoin:bevel" />
</svg>
