<?xml version="1.0" encoding="utf-8"?>
<svg xmlns="http://www.w3.org/2000/svg" width="60.96mm" height="128.50mm" viewBox="0 0 60.96 128.50">
    <path d="M44.5752 14.8499Q44.5752 14.8817 44.5541 14.9011Q44.5329 14.9205 44.5047 14.9205H43.2453V15.8942H44.3459Q44.3742 15.8942 44.3953 15.9153Q44.4165 15.9365 44.4165 15.9647Q44.4165 15.9965 44.3953 16.0159Q44.3742 16.0353 44.3459 16.0353H43.2453V17.1783Q43.2453 17.2065 43.2259 17.2277Q43.2065 17.2488 43.1747 17.2488Q43.143 17.2488 43.1236 17.2277Q43.1042 17.2065 43.1042 17.1783V14.8499Q43.1042 14.8217 43.1253 14.8006Q43.1465 14.7794 43.1747 14.7794H44.5047Q44.5329 14.7794 44.5541 14.8006Q44.5752 14.8217 44.5752 14.8499ZM46.5402 17.1783Q46.5402 17.21 46.519 17.2294Q46.4979 17.2488 46.4697 17.2488H45.175Q45.1432 17.2488 45.1238 17.2277Q45.1044 17.2065 45.1044 17.1783V14.8499Q45.1044 14.8217 45.1256 14.8006Q45.1467 14.7794 45.1785 14.7794Q45.2102 14.7794 45.2314 14.8006Q45.2526 14.8217 45.2526 14.8499V17.1077H46.4697Q46.4979 17.1077 46.519 17.1289Q46.5402 17.1501 46.5402 17.1783ZM48.5299 15.4532Q48.5299 15.6508 48.447 15.8113Q48.3641 15.9718 48.2124 16.0617Q48.0607 16.1517 47.8631 16.1517H47.0941V17.1783Q47.0941 17.2065 47.0711 17.2277Q47.0482 17.2488 47.02 17.2488Q46.9882 17.2488 46.9671 17.2277Q46.9459 17.2065 46.9459 17.1783V14.8499Q46.9459 14.8217 46.9671 14.8006Q46.9882 14.7794 47.0165 14.7794H47.8631Q48.163 14.7794 48.3464 14.9664Q48.5299 15.1533 48.5299 15.4532ZM48.3817 15.4532Q48.3817 15.2098 48.2424 15.0651Q48.103 14.9205 47.8631 14.9205H47.0941V16.0106H47.8631Q48.0995 16.0106 48.2406 15.8536Q48.3817 15.6966 48.3817 15.4532Z" style="stroke:#6f02b8;stroke-width:0.25;stroke-linecap:round;stroke-linejoin:bevel" />
    <path d="M 40.72,16.00 L 42.72,13.50 L 48.92,13.50 L 50.92,16.00 L 48.92,18.50 L 42.72,18.50 z " style="stroke:#6f02b8;stroke-width:0.25;stroke-linecap:round;stroke-linejoin:bevel" fill="none" />
</svg>
