<?xml version="1.0" encoding="utf-8"?>
<svg xmlns="http://www.w3.org/2000/svg" width="60.96mm" height="128.50mm" viewBox="0 0 60.96 128.50">
    <g id="PanelLayer">
        <defs>
            <linearGradient id="gradient_controls" x1="0" y1="16" x2="0" y2="93" gradientUnits="userSpaceOnUse">
                <stop style="stop-color:#3068ff;stop-opacity:1;" offset="0" />
                <stop style="stop-color:#4f8df2;stop-opacity:1;" offset="1" />
            </linearGradient>
            <linearGradient id="gradient_send_return" x1="0" y1="93" x2="0" y2="110" gradientUnits="userSpaceOnUse">
                <stop style="stop-color:#8a72cf;stop-opacity:1;" offset="0" />
                <stop style="stop-color:#4f8df2;stop-opacity:1;" offset="1" />
            </linearGradient>
            <linearGradient id="gradient_env" x1="0" y1="115" x2="0" y2="126.5" gradientUnits="userSpaceOnUse">
                <stop style="stop-color:#4b9488;stop-opacity:1;" offset="0" />
                <stop style="stop-color:#4f8df2;stop-opacity:1;" offset="1" />
            </linearGradient>
        </defs>
        <rect id="border_rect" width="60.96" height="128.5" x="0" y="0" style="display:inline;fill:#4f8df2;fill-opacity:1;stroke:none;" />
        <path id="controls_art" d="M 30.72,93.00 L 30.72,14.00 A 4 4 0 0 1 34.72 10 L 56.72,10.00 A 4 4 0 0 1 60.72 14 L 60.72,10.00 L 60.72,93.00 z" style="fill:url(#gradient_controls);fill-opacity:1;stroke-width:0;" />
        <path id="send_return_art" d="M 30.72,110.00 L 30.72,87.00 A 4 4 0 0 1 34.72 83 L 56.72,83.00 A 4 4 0 0 1 60.72 87 L 60.72,83.00 L 60.72,110.00 z" style="fill:url(#gradient_send_return);fill-opacity:1;stroke-width:0;" />
        <path id="env_art" d="M 30.72,126.50 L 30.72,114.00 A 4 4 0 0 1 34.72 110 L 56.72,110.00 A 4 4 0 0 1 60.72 114 L 60.72,110.00 L 60.72,126.50 z" style="fill:url(#gradient_env);fill-opacity:1;stroke-width:0;" />
        <path id="model_name" d="M10.498 7.35962Q10.498 7.41395 10.4669 7.45276Q10.2108 7.79425 9.83051 8.01156Q9.45021 8.22887 9.01559 8.22887Q8.43351 8.22887 7.98336 7.98051Q7.53322 7.73216 7.28098 7.27425Q7.02874 6.81635 7.02874 6.21098Q7.02874 5.59009 7.27322 5.12054Q7.51769 4.651 7.92127 4.40264Q8.32485 4.15429 8.78276 4.15429Q9.24066 4.15429 9.6326 4.35219Q10.0245 4.5501 10.2729 4.94592Q10.5212 5.34174 10.5368 5.92382Q10.5368 5.98591 10.4902 6.03636Q10.4436 6.0868 10.3815 6.0868H7.33143V6.1877Q7.33143 6.66889 7.52546 7.06858Q7.71948 7.46828 8.09978 7.70111Q8.48007 7.93395 9.01559 7.93395Q9.38812 7.93395 9.71797 7.75156Q10.0478 7.56917 10.2341 7.28977Q10.2884 7.21992 10.366 7.21992Q10.4204 7.21992 10.4592 7.26261Q10.498 7.3053 10.498 7.35962ZM7.36247 5.79188H10.2186V5.72203Q10.1798 5.32621 9.96633 5.04293Q9.75289 4.75965 9.43857 4.61219Q9.12424 4.46473 8.78276 4.46473Q8.49559 4.46473 8.19679 4.61607Q7.89799 4.76741 7.66904 5.06622Q7.44008 5.36502 7.36247 5.79188ZM14.5803 4.70533Q14.5803 4.76741 14.5376 4.81398Q14.4949 4.86055 14.4328 4.86055Q14.363 4.86055 14.3281 4.83726Q14.2931 4.81398 14.2311 4.75189Q14.1302 4.63547 14.0215 4.58115Q13.7421 4.44921 13.2299 4.44921Q12.7875 4.44921 12.4111 4.68204Q12.0347 4.91488 11.8135 5.31457Q11.5923 5.71427 11.5923 6.1877Q11.5923 6.68441 11.7979 7.08411Q12.0036 7.4838 12.38 7.70887Q12.7564 7.93395 13.2299 7.93395Q13.5403 7.93395 13.7188 7.87962Q13.8973 7.82529 14.0758 7.7244Q14.2 7.64679 14.2931 7.55365Q14.332 7.51485 14.3708 7.48768Q14.4096 7.46052 14.4484 7.46052Q14.5105 7.46052 14.5454 7.49932Q14.5803 7.53813 14.5803 7.60022Q14.5803 7.70887 14.4018 7.86022Q14.2233 8.01156 13.909 8.12021Q13.5946 8.22887 13.2066 8.22887Q12.6478 8.22887 12.2093 7.96499Q11.7708 7.70111 11.5263 7.23545Q11.2818 6.76978 11.2818 6.1877Q11.2818 5.64442 11.5263 5.17875Q11.7708 4.71309 12.217 4.43369Q12.6633 4.15429 13.2376 4.15429Q13.5714 4.15429 13.8857 4.2319Q14.2 4.30951 14.3902 4.43757Q14.5803 4.56562 14.5803 4.70533ZM18.6083 5.72979V7.99604Q18.6083 8.05812 18.5618 8.10469Q18.5152 8.15126 18.4531 8.15126Q18.3833 8.15126 18.3406 8.10469Q18.2979 8.05812 18.2979 7.99604V5.72979Q18.2979 5.19427 18.034 4.86055Q17.7701 4.52682 17.2268 4.52682Q16.8931 4.52682 16.571 4.6898Q16.2489 4.85279 16.0472 5.13219Q15.8454 5.41159 15.8454 5.72979V7.99604Q15.8454 8.05812 15.7988 8.10469Q15.7522 8.15126 15.6901 8.15126Q15.6203 8.15126 15.5776 8.10469Q15.5349 8.05812 15.5349 7.99604V2.56326Q15.5349 2.50117 15.5815 2.4546Q15.6281 2.40804 15.6901 2.40804Q15.76 2.40804 15.8027 2.4546Q15.8454 2.50117 15.8454 2.56326V5.01577Q16.0627 4.67428 16.4469 4.45309Q16.831 4.2319 17.2268 4.2319Q17.8943 4.2319 18.2513 4.65488Q18.6083 5.07786 18.6083 5.72979ZM21.542 8.22887Q21.0065 8.22887 20.568 7.96111Q20.1295 7.69335 19.8773 7.22769Q19.625 6.76202 19.625 6.19546Q19.625 5.62114 19.8773 5.15547Q20.1295 4.6898 20.5641 4.42204Q20.9987 4.15429 21.542 4.15429Q22.0775 4.15429 22.516 4.42204Q22.9545 4.6898 23.2029 5.15547Q23.4513 5.62114 23.4513 6.19546Q23.4513 6.76978 23.2029 7.23157Q22.9545 7.69335 22.516 7.96111Q22.0775 8.22887 21.542 8.22887ZM21.542 4.44921Q21.0919 4.44921 20.7232 4.67816Q20.3546 4.90711 20.145 5.30293Q19.9355 5.69875 19.9355 6.19546Q19.9355 6.68441 20.145 7.08022Q20.3546 7.47604 20.7232 7.70499Q21.0919 7.93395 21.542 7.93395Q21.9999 7.93395 22.3647 7.70887Q22.7295 7.4838 22.9351 7.08411Q23.1408 6.68441 23.1408 6.19546Q23.1408 5.69875 22.9351 5.30293Q22.7295 4.90711 22.3647 4.67816Q21.9999 4.44921 21.542 4.44921Z" style="display:inline;stroke:#000000;stroke-width:0.35;stroke-linecap:round;stroke-linejoin:bevel" />
        <path id="sapphire_gemstone" d="m 17.955,122.900 q 0,0.34175 -0.242534,0.63114 -0.0441,0.0524 -0.20395,0.21497 -0.187413,0.19017 -0.785481,0.81304 l -1.444183,1.51309 q -0.01929,0.003 -0.0441,0.003 -0.02756,0 -0.04134,-0.003 -0.08268,-0.0827 -0.647678,-0.67524 -0.468532,-0.47404 -0.934309,-0.94809 -0.556727,-0.56775 -0.89848,-0.98116 -0.132292,-0.15985 -0.168121,-0.29766 -0.02756,-0.10197 -0.02756,-0.34175 0,-0.11024 0.07166,-0.28939 0.06614,-0.16536 0.140559,-0.26458 0.118512,-0.1571 0.42168,-0.42444 0.283875,-0.2508 0.474044,-0.37482 0.272852,-0.17915 0.818555,-0.36656 0.09646,-0.0331 0.110243,-0.0331 h 1.3615 q 0.01102,0 0.104731,0.0331 0.567751,0.20119 0.824066,0.36656 0.165365,0.10473 0.474045,0.37758 0.322461,0.28388 0.421679,0.42168 0.214974,0.2949 0.214974,0.62563 z m -0.16812,-0.27285 q -0.03307,-0.10749 -0.135048,-0.30868 -0.07166,-0.0937 -0.209462,-0.19844 -0.118511,-0.0854 -0.234266,-0.17088 0.245291,0.3638 0.578776,0.678 z m -0.573264,-0.52366 -0.358289,-0.44648 v 0.41065 z m 0.636653,0.75792 q 0,-0.0524 -0.341753,-0.39412 l 0.228754,0.7028 h 0.04961 q 0.06339,-0.21773 0.06339,-0.30868 z m -0.23151,0.27285 -0.316948,-0.90399 -0.410655,-0.0634 -0.159853,0.61461 z m 0.0028,0.15434 -0.771701,-0.3197 h -0.03032 l 0.344509,0.60634 q 0.07993,-0.003 0.234266,-0.0469 0.02481,-0.0138 0.223242,-0.23978 z m -0.857139,-1.05006 -0.719335,0.28388 0.60358,0.22599 z m 0,-0.16261 v -0.51538 l -0.917773,-0.38034 h -1.223697 l -0.917772,0.38034 v 0.51538 l 0.89848,0.4079 h 1.254014 z m 0.573264,1.53789 q -0.0689,0.011 -0.198438,0.0524 -0.08544,0.0551 -0.259071,0.16261 0.01929,0 0.06339,0.003 0.04134,0 0.06339,0 0.118511,0 0.190169,-0.0689 0.07166,-0.0717 0.14056,-0.14883 z m -0.289388,0.003 -0.347266,-0.63114 -0.363801,0.87918 q 0.0248,-0.0165 0.06615,-0.0165 0.03032,0 0.08544,0.011 0.05788,0.008 0.08819,0.008 0.04961,0 0.228754,-0.10749 0.228754,-0.1378 0.242535,-0.14331 z m -0.440972,-0.74139 -0.683507,-0.2756 -0.592556,0.54845 0.903993,0.65595 z m -0.854383,-0.28387 h -1.036284 l 0.523654,0.47404 z m 0.749652,1.36701 q -0.228754,-0.0303 -0.228754,-0.0303 -0.03583,0 -0.272851,0.0937 l 0.190169,0.0193 q 0.01102,0 0.311436,-0.0827 z m -0.388606,-0.0882 -0.843359,-0.61185 v 0.67524 l 0.471289,0.0827 z m 0.854383,0.0496 q -0.09922,0.006 -0.2949,0.0386 -0.01102,0.003 -0.377583,0.17639 -0.129535,0.34726 -0.380338,1.0418 z m -2.543857,-1.39733 -0.719335,-0.28388 0.124023,0.51814 z m -0.802018,-0.45476 v -0.41065 l -0.366557,0.44648 z m 1.515841,1.07212 -0.592556,-0.54019 -0.683506,0.2756 0.380338,0.9288 z m 0.369314,0.94257 q -0.03307,-0.003 -0.135047,-0.0248 -0.08544,-0.0165 -0.137804,-0.0165 -0.05237,0 -0.137804,0.0165 -0.101975,0.0221 -0.135047,0.0248 0.264583,0.0469 0.272851,0.0469 0.0083,0 0.272851,-0.0469 z m -0.30868,-0.1378 v -0.68626 l -0.843359,0.61185 0.37207,0.14607 z m 0.950846,0.20671 -0.396875,-0.0551 -0.479557,0.14056 v 1.27607 z m -2.888366,-2.20211 q -0.118512,0.0854 -0.234267,0.17364 -0.146072,0.10748 -0.209461,0.19568 -0.0441,0.10473 -0.135048,0.31419 0.369314,-0.3638 0.578776,-0.68351 z m 0.476801,0.83234 -0.159853,-0.61461 -0.410655,0.0634 -0.316948,0.90399 z m 0.394118,1.08313 -0.363802,-0.87918 -0.355533,0.63114 q 0.43546,0.2508 0.451996,0.2508 0.09095,0 0.267339,-0.003 z m 1.821765,0.82958 q -0.132291,0.21222 -0.405143,0.6339 -0.07717,0.10749 -0.220486,0.32797 -0.05788,0.10473 -0.05512,0.226 0.159852,-0.15158 0.432704,-0.49609 0.07717,-0.12954 0.140559,-0.339 0.05512,-0.17639 0.107486,-0.35278 z m -1.493792,-0.66146 -0.270095,-0.0882 -0.0083,-0.011 q -0.02481,0 -0.107487,0.011 -0.06615,0.006 -0.107487,0.006 0.272851,0.091 0.311436,0.091 0.02481,0 0.181901,-0.008 z m -0.810286,-1.06384 h -0.03032 l -0.7717,0.3197 q 0.06615,0.0965 0.223242,0.23978 0.07717,0.0138 0.234266,0.0469 z m -0.689018,-0.50161 q -0.341754,0.34727 -0.341754,0.39412 0,0.0799 0.06339,0.30868 h 0.04961 z m 2.235176,3.04547 v -1.27607 l -0.479557,-0.14056 -0.396875,0.0551 z m -1.606791,-1.6757 q -0.256315,-0.1819 -0.457509,-0.22324 0.06615,0.0772 0.20395,0.22324 z m 1.609547,2.04501 v -0.1378 l -0.683507,-1.05007 q 0.05237,0.17639 0.107487,0.35278 0.06339,0.20946 0.14056,0.339 0.0689,0.11851 0.20395,0.25907 0.115755,0.11851 0.23151,0.23702 z m -0.644921,-0.70555 q -0.115756,-0.32798 -0.380339,-1.0418 -0.135047,-0.0662 -0.272851,-0.12954 -0.159852,-0.0716 -0.289388,-0.0716 -0.05237,0 -0.110243,-0.0138 z" style="stroke-width:0;fill:#0000ff;stroke:#2e2114;stroke-linecap:square;stroke-opacity:1" />
        <path d="M 22.24,93.00 L 22.24,111.00 z " style="stroke:#000000;stroke-width:0.25;stroke-linecap:round;stroke-linejoin:bevel;stroke-dasharray:none" />
        <path d="M19.5712 86.5141Q19.5712 86.8634 19.4601 87.1421Q19.349 87.4207 19.1197 87.5848Q18.8904 87.7488 18.5482 87.7488H17.631Q17.6027 87.7488 17.5816 87.7277Q17.5604 87.7065 17.5604 87.6783V85.3499Q17.5604 85.3217 17.5816 85.3006Q17.6027 85.2794 17.631 85.2794H18.5482Q18.8868 85.2794 19.1179 85.4487Q19.349 85.6181 19.4601 85.8985Q19.5712 86.179 19.5712 86.5141ZM19.4231 86.5141Q19.4231 86.2143 19.3261 85.9655Q19.229 85.7168 19.0262 85.5687Q18.8233 85.4205 18.5129 85.4205H17.7086V87.6077H18.5129Q18.9715 87.6077 19.1973 87.3061Q19.4231 87.0045 19.4231 86.5141ZM21.896 87.6748Q21.896 87.7065 21.8766 87.7259Q21.8572 87.7453 21.829 87.7453Q21.8078 87.7453 21.7973 87.7383Q21.702 87.6853 21.6456 87.5601Q21.5891 87.4349 21.5891 87.1491Q21.5891 86.8598 21.4339 86.7522Q21.2787 86.6446 21.0741 86.6446H20.2486V87.6783Q20.2486 87.7065 20.2274 87.7277Q20.2062 87.7488 20.1745 87.7488Q20.1427 87.7488 20.1216 87.7277Q20.1004 87.7065 20.1004 87.6783V85.3499Q20.1004 85.3217 20.1216 85.3006Q20.1427 85.2794 20.171 85.2794H21.1023Q21.3069 85.2794 21.4657 85.3623Q21.6244 85.4452 21.7126 85.5898Q21.8008 85.7345 21.8008 85.9179Q21.8008 86.1543 21.6756 86.3236Q21.5503 86.4929 21.3492 86.5529Q21.5186 86.6058 21.6279 86.7628Q21.7373 86.9198 21.7373 87.1491Q21.7373 87.3855 21.7673 87.479Q21.7973 87.5724 21.8572 87.6112Q21.896 87.6359 21.896 87.6748ZM21.1199 86.5035Q21.3422 86.4824 21.4974 86.3271Q21.6526 86.1719 21.6526 85.9214Q21.6526 85.7027 21.4974 85.5616Q21.3422 85.4205 21.0847 85.4205H20.2486V86.5035ZM22.5169 87.7488Q22.4817 87.7488 22.4623 87.7277Q22.4428 87.7065 22.4428 87.6748V85.3535Q22.4428 85.3217 22.464 85.3006Q22.4852 85.2794 22.5169 85.2794Q22.5487 85.2794 22.5698 85.3006Q22.591 85.3217 22.591 85.3535V87.6748Q22.5875 87.7065 22.5663 87.7277Q22.5452 87.7488 22.5169 87.7488ZM25.1487 85.3429Q25.1487 85.357 25.1416 85.3782L24.175 87.703Q24.1538 87.7488 24.108 87.7488Q24.0868 87.7488 24.0674 87.7365Q24.048 87.7241 24.0409 87.703L23.0814 85.3888Q23.0708 85.3676 23.0708 85.3464Q23.0708 85.3182 23.0902 85.2988Q23.1096 85.2794 23.1378 85.2794Q23.1907 85.2794 23.2154 85.3358L24.1115 87.4913L25.0111 85.3253Q25.0358 85.2794 25.0781 85.2794Q25.1098 85.2794 25.1292 85.297Q25.1487 85.3147 25.1487 85.3429ZM27.096 87.6783Q27.096 87.71 27.0748 87.7294Q27.0537 87.7488 27.0254 87.7488H25.6955Q25.6672 87.7488 25.6461 87.7277Q25.6249 87.7065 25.6249 87.6783V85.3499Q25.6249 85.3217 25.6461 85.3006Q25.6672 85.2794 25.6955 85.2794H27.0254Q27.0537 85.2794 27.0748 85.3006Q27.096 85.3217 27.096 85.3499Q27.096 85.3817 27.0748 85.4011Q27.0537 85.4205 27.0254 85.4205H25.7731V86.4048H26.8667Q26.8949 86.4048 26.9161 86.4259Q26.9372 86.4471 26.9372 86.4753Q26.9372 86.5071 26.9161 86.5265Q26.8949 86.5459 26.8667 86.5459H25.7731V87.6077H27.0254Q27.0537 87.6077 27.0748 87.6289Q27.096 87.6501 27.096 87.6783Z" style="stroke:#000000;stroke-width:0.25;stroke-linecap:round;stroke-linejoin:bevel" />
        <path d="M 11.24,93.00 L 11.24,103.00 " style="stroke:#000000;stroke-width:0.25;stroke-linecap:round;stroke-linejoin:bevel;stroke-dasharray:none" fill="none" />
        <path d="M9.96118 87.7488Q9.9259 87.7488 9.9065 87.7277Q9.8871 87.7065 9.8871 87.6748V85.3535Q9.8871 85.3217 9.90826 85.3006Q9.92943 85.2794 9.96118 85.2794Q9.99293 85.2794 10.0141 85.3006Q10.0353 85.3217 10.0353 85.3535V87.6748Q10.0317 87.7065 10.0106 87.7277Q9.9894 87.7488 9.96118 87.7488ZM12.5929 85.3464V87.6712Q12.5929 87.71 12.5717 87.7294Q12.5506 87.7488 12.5188 87.7488Q12.4835 87.7488 12.4624 87.7206L10.8749 85.551V87.6889Q10.8749 87.7136 10.8555 87.7312Q10.8361 87.7488 10.8078 87.7488Q10.7761 87.7488 10.7585 87.7312Q10.7408 87.7136 10.7408 87.6889V85.3499Q10.7408 85.3147 10.7602 85.297Q10.7796 85.2794 10.8043 85.2794Q10.8361 85.2794 10.8572 85.3041L12.4588 87.4878V85.3464Q12.4588 85.3182 12.4782 85.2988Q12.4977 85.2794 12.5259 85.2794Q12.5576 85.2794 12.5753 85.2988Q12.5929 85.3182 12.5929 85.3464Z" style="stroke:#000000;stroke-width:0.25;stroke-linecap:round;stroke-linejoin:bevel" />
        <path d="M 38.72,93.00 L 38.72,103.00 " style="stroke:#000000;stroke-width:0.25;stroke-linecap:round;stroke-linejoin:bevel;stroke-dasharray:none" fill="none" />
        <path d="M34.3456 87.4137Q34.3244 87.3925 34.3244 87.3608Q34.3244 87.3326 34.3491 87.3061Q34.3738 87.2796 34.402 87.2796Q34.4337 87.2796 34.462 87.3114Q34.5996 87.4737 34.7883 87.5583Q34.977 87.643 35.1852 87.643Q35.4568 87.643 35.6332 87.5125Q35.8096 87.3819 35.8096 87.1668Q35.8061 86.9974 35.7179 86.8881Q35.6297 86.7787 35.5009 86.7134Q35.3721 86.6482 35.1499 86.567Q34.9065 86.4753 34.7707 86.4048Q34.6348 86.3342 34.5378 86.2037Q34.4408 86.0731 34.4408 85.8615Q34.4408 85.6886 34.5361 85.5475Q34.6313 85.4064 34.8077 85.3253Q34.9841 85.2441 35.2169 85.2441Q35.4251 85.2441 35.612 85.32Q35.799 85.3958 35.9084 85.5334Q35.9436 85.5828 35.9436 85.6075Q35.9436 85.6357 35.9172 85.6586Q35.8907 85.6816 35.859 85.6816Q35.8307 85.6816 35.8131 85.6604Q35.7143 85.5334 35.5591 85.4593Q35.4039 85.3852 35.2169 85.3852Q34.9488 85.3852 34.7707 85.5122Q34.5925 85.6392 34.5925 85.8579Q34.5925 86.0096 34.6789 86.1155Q34.7654 86.2213 34.8959 86.2866Q35.0264 86.3518 35.2204 86.4224Q35.4674 86.5106 35.612 86.5847Q35.7567 86.6587 35.859 86.7999Q35.9613 86.941 35.9613 87.1738Q35.9613 87.3361 35.866 87.4772Q35.7708 87.6183 35.5926 87.7012Q35.4145 87.7841 35.1852 87.7841Q34.9241 87.7841 34.7301 87.6942Q34.5361 87.6042 34.3456 87.4137ZM37.9651 87.6783Q37.9651 87.71 37.9439 87.7294Q37.9227 87.7488 37.8945 87.7488H36.5645Q36.5363 87.7488 36.5151 87.7277Q36.494 87.7065 36.494 87.6783V85.3499Q36.494 85.3217 36.5151 85.3006Q36.5363 85.2794 36.5645 85.2794H37.8945Q37.9227 85.2794 37.9439 85.3006Q37.9651 85.3217 37.9651 85.3499Q37.9651 85.3817 37.9439 85.4011Q37.9227 85.4205 37.8945 85.4205H36.6421V86.4048H37.7358Q37.764 86.4048 37.7851 86.4259Q37.8063 86.4471 37.8063 86.4753Q37.8063 86.5071 37.7851 86.5265Q37.764 86.5459 37.7358 86.5459H36.6421V87.6077H37.8945Q37.9227 87.6077 37.9439 87.6289Q37.9651 87.6501 37.9651 87.6783ZM40.3463 85.3464V87.6712Q40.3463 87.71 40.3251 87.7294Q40.304 87.7488 40.2722 87.7488Q40.2369 87.7488 40.2158 87.7206L38.6283 85.551V87.6889Q38.6283 87.7136 38.6089 87.7312Q38.5895 87.7488 38.5613 87.7488Q38.5295 87.7488 38.5119 87.7312Q38.4942 87.7136 38.4942 87.6889V85.3499Q38.4942 85.3147 38.5136 85.297Q38.533 85.2794 38.5577 85.2794Q38.5895 85.2794 38.6106 85.3041L40.2122 87.4878V85.3464Q40.2122 85.3182 40.2317 85.2988Q40.2511 85.2794 40.2793 85.2794Q40.311 85.2794 40.3287 85.2988Q40.3463 85.3182 40.3463 85.3464ZM43.0627 86.5141Q43.0627 86.8634 42.9516 87.1421Q42.8404 87.4207 42.6111 87.5848Q42.3818 87.7488 42.0396 87.7488H41.1224Q41.0942 87.7488 41.073 87.7277Q41.0519 87.7065 41.0519 87.6783V85.3499Q41.0519 85.3217 41.073 85.3006Q41.0942 85.2794 41.1224 85.2794H42.0396Q42.3783 85.2794 42.6094 85.4487Q42.8404 85.6181 42.9516 85.8985Q43.0627 86.179 43.0627 86.5141ZM42.9145 86.5141Q42.9145 86.2143 42.8175 85.9655Q42.7205 85.7168 42.5177 85.5687Q42.3148 85.4205 42.0044 85.4205H41.2V87.6077H42.0044Q42.463 87.6077 42.6887 87.3061Q42.9145 87.0045 42.9145 86.5141Z" style="stroke:#000000;stroke-width:0.25;stroke-linecap:round;stroke-linejoin:bevel" />
        <path d="M 52.72,93.00 L 52.72,103.00 " style="stroke:#000000;stroke-width:0.25;stroke-linecap:round;stroke-linejoin:bevel;stroke-dasharray:none" fill="none" />
        <path d="M50.1959 87.6748Q50.1959 87.7065 50.1765 87.7259Q50.1571 87.7453 50.1288 87.7453Q50.1077 87.7453 50.0971 87.7383Q50.0018 87.6853 49.9454 87.5601Q49.889 87.4349 49.889 87.1491Q49.889 86.8598 49.7337 86.7522Q49.5785 86.6446 49.3739 86.6446H48.5484V87.6783Q48.5484 87.7065 48.5272 87.7277Q48.5061 87.7488 48.4743 87.7488Q48.4426 87.7488 48.4214 87.7277Q48.4002 87.7065 48.4002 87.6783V85.3499Q48.4002 85.3217 48.4214 85.3006Q48.4426 85.2794 48.4708 85.2794H49.4021Q49.6067 85.2794 49.7655 85.3623Q49.9242 85.4452 50.0124 85.5898Q50.1006 85.7345 50.1006 85.9179Q50.1006 86.1543 49.9754 86.3236Q49.8502 86.4929 49.6491 86.5529Q49.8184 86.6058 49.9278 86.7628Q50.0371 86.9198 50.0371 87.1491Q50.0371 87.3855 50.0671 87.479Q50.0971 87.5724 50.1571 87.6112Q50.1959 87.6359 50.1959 87.6748ZM49.4198 86.5035Q49.642 86.4824 49.7972 86.3271Q49.9525 86.1719 49.9525 85.9214Q49.9525 85.7027 49.7972 85.5616Q49.642 85.4205 49.3845 85.4205H48.5484V86.5035ZM52.369 85.3464Q52.369 85.3782 52.3496 85.3958Q52.3302 85.4134 52.2984 85.4134H51.5117V87.6783Q51.5117 87.7065 51.4906 87.7277Q51.4694 87.7488 51.4412 87.7488Q51.4094 87.7488 51.39 87.7277Q51.3706 87.7065 51.3706 87.6783V85.4134H50.5839Q50.5557 85.4134 50.5345 85.394Q50.5134 85.3746 50.5134 85.3464Q50.5134 85.3182 50.5345 85.2988Q50.5557 85.2794 50.5839 85.2794H52.2984Q52.3267 85.2794 52.3478 85.2988Q52.369 85.3182 52.369 85.3464ZM54.6409 87.6748Q54.6409 87.7065 54.6215 87.7259Q54.6021 87.7453 54.5738 87.7453Q54.5527 87.7453 54.5421 87.7383Q54.4468 87.6853 54.3904 87.5601Q54.334 87.4349 54.334 87.1491Q54.334 86.8598 54.1787 86.7522Q54.0235 86.6446 53.8189 86.6446H52.9934V87.6783Q52.9934 87.7065 52.9722 87.7277Q52.9511 87.7488 52.9193 87.7488Q52.8876 87.7488 52.8664 87.7277Q52.8452 87.7065 52.8452 87.6783V85.3499Q52.8452 85.3217 52.8664 85.3006Q52.8876 85.2794 52.9158 85.2794H53.8471Q54.0517 85.2794 54.2105 85.3623Q54.3692 85.4452 54.4574 85.5898Q54.5456 85.7345 54.5456 85.9179Q54.5456 86.1543 54.4204 86.3236Q54.2952 86.4929 54.0941 86.5529Q54.2634 86.6058 54.3728 86.7628Q54.4821 86.9198 54.4821 87.1491Q54.4821 87.3855 54.5121 87.479Q54.5421 87.5724 54.6021 87.6112Q54.6409 87.6359 54.6409 87.6748ZM53.8648 86.5035Q54.087 86.4824 54.2422 86.3271Q54.3975 86.1719 54.3975 85.9214Q54.3975 85.7027 54.2422 85.5616Q54.087 85.4205 53.8295 85.4205H52.9934V86.5035ZM57.0398 85.3464V87.6712Q57.0398 87.71 57.0186 87.7294Q56.9974 87.7488 56.9657 87.7488Q56.9304 87.7488 56.9092 87.7206L55.3217 85.551V87.6889Q55.3217 87.7136 55.3023 87.7312Q55.2829 87.7488 55.2547 87.7488Q55.223 87.7488 55.2053 87.7312Q55.1877 87.7136 55.1877 87.6889V85.3499Q55.1877 85.3147 55.2071 85.297Q55.2265 85.2794 55.2512 85.2794Q55.2829 85.2794 55.3041 85.3041L56.9057 87.4878V85.3464Q56.9057 85.3182 56.9251 85.2988Q56.9445 85.2794 56.9727 85.2794Q57.0045 85.2794 57.0221 85.2988Q57.0398 85.3182 57.0398 85.3464Z" style="stroke:#000000;stroke-width:0.25;stroke-linecap:round;stroke-linejoin:bevel" />
        <path d="M 36.72,49.00 L 54.72,49.00 z " style="stroke:#000000;stroke-width:0.25;stroke-linecap:round;stroke-linejoin:bevel;stroke-dasharray:none" />
        <path d="M43.7586 41.8464Q43.7586 41.8782 43.7392 41.8958Q43.7198 41.9134 43.688 41.9134H42.9013V44.1783Q42.9013 44.2065 42.8801 44.2277Q42.859 44.2488 42.8308 44.2488Q42.799 44.2488 42.7796 44.2277Q42.7602 44.2065 42.7602 44.1783V41.9134H41.9735Q41.9453 41.9134 41.9241 41.894Q41.9029 41.8746 41.9029 41.8464Q41.9029 41.8182 41.9241 41.7988Q41.9453 41.7794 41.9735 41.7794H43.688Q43.7162 41.7794 43.7374 41.7988Q43.7586 41.8182 43.7586 41.8464ZM44.3089 44.2488Q44.2736 44.2488 44.2542 44.2277Q44.2348 44.2065 44.2348 44.1747V41.8535Q44.2348 41.8217 44.256 41.8006Q44.2771 41.7794 44.3089 41.7794Q44.3406 41.7794 44.3618 41.8006Q44.383 41.8217 44.383 41.8535V44.1747Q44.3794 44.2065 44.3583 44.2277Q44.3371 44.2488 44.3089 44.2488ZM47.3075 41.8499V44.1783Q47.3075 44.2065 47.2846 44.2277Q47.2616 44.2488 47.2334 44.2488Q47.2017 44.2488 47.1805 44.2277Q47.1593 44.2065 47.1593 44.1783V42.0687L46.2492 43.4445Q46.2315 43.4727 46.1998 43.4727Q46.161 43.4727 46.1433 43.4445L45.2296 42.0651V44.1783Q45.2296 44.2065 45.2085 44.2277Q45.1873 44.2488 45.1591 44.2488Q45.1273 44.2488 45.1079 44.2277Q45.0885 44.2065 45.0885 44.1783V41.8499Q45.0885 41.8252 45.1079 41.8023Q45.1273 41.7794 45.1556 41.7794Q45.2014 41.7794 45.2226 41.8111L46.1998 43.2646L47.177 41.8111Q47.2052 41.7723 47.244 41.7794Q47.2722 41.7829 47.2899 41.8023Q47.3075 41.8217 47.3075 41.8499ZM49.4841 44.1783Q49.4841 44.21 49.463 44.2294Q49.4418 44.2488 49.4136 44.2488H48.0836Q48.0554 44.2488 48.0342 44.2277Q48.0131 44.2065 48.0131 44.1783V41.8499Q48.0131 41.8217 48.0342 41.8006Q48.0554 41.7794 48.0836 41.7794H49.4136Q49.4418 41.7794 49.463 41.8006Q49.4841 41.8217 49.4841 41.8499Q49.4841 41.8817 49.463 41.9011Q49.4418 41.9205 49.4136 41.9205H48.1612V42.9047H49.2548Q49.2831 42.9047 49.3042 42.9259Q49.3254 42.9471 49.3254 42.9753Q49.3254 43.0071 49.3042 43.0265Q49.2831 43.0459 49.2548 43.0459H48.1612V44.1077H49.4136Q49.4418 44.1077 49.463 44.1289Q49.4841 44.1501 49.4841 44.1783Z" style="stroke:#000000;stroke-width:0.25;stroke-linecap:round;stroke-linejoin:bevel" />
        <path d="M12.4442 15.9749Q12.4442 16.0067 12.4231 16.0261Q12.4019 16.0455 12.3737 16.0455H11.1143V17.0192H12.2149Q12.2432 17.0192 12.2643 17.0403Q12.2855 17.0615 12.2855 17.0897Q12.2855 17.1215 12.2643 17.1409Q12.2432 17.1603 12.2149 17.1603H11.1143V18.3033Q11.1143 18.3315 11.0949 18.3527Q11.0755 18.3738 11.0437 18.3738Q11.012 18.3738 10.9926 18.3527Q10.9732 18.3315 10.9732 18.3033V15.9749Q10.9732 15.9467 10.9943 15.9256Q11.0155 15.9044 11.0437 15.9044H12.3737Q12.4019 15.9044 12.4231 15.9256Q12.4442 15.9467 12.4442 15.9749ZM14.9842 17.1391Q14.9842 17.4884 14.8731 17.7671Q14.762 18.0458 14.5327 18.2098Q14.3034 18.3738 13.9612 18.3738H13.044Q13.0157 18.3738 12.9946 18.3527Q12.9734 18.3315 12.9734 18.3033V15.9749Q12.9734 15.9467 12.9946 15.9256Q13.0157 15.9044 13.044 15.9044H13.9612Q14.2998 15.9044 14.5309 16.0737Q14.762 16.2431 14.8731 16.5235Q14.9842 16.804 14.9842 17.1391ZM14.8361 17.1391Q14.8361 16.8392 14.7391 16.5905Q14.642 16.3418 14.4392 16.1937Q14.2363 16.0455 13.9259 16.0455H13.1216V18.2327H13.9259Q14.3845 18.2327 14.6103 17.9311Q14.8361 17.6295 14.8361 17.1391ZM17.2773 17.7071Q17.2773 18.0281 17.0744 18.201Q16.8716 18.3738 16.5576 18.3738H15.584Q15.5557 18.3738 15.5346 18.3527Q15.5134 18.3315 15.5134 18.3033V15.9749Q15.5134 15.9467 15.5346 15.9256Q15.5557 15.9044 15.584 15.9044H16.5329Q16.8152 15.9044 16.9845 16.0667Q17.1538 16.2289 17.1538 16.5041Q17.1538 16.7017 17.055 16.8622Q16.9563 17.0227 16.7799 17.0827Q17.0057 17.125 17.1415 17.2873Q17.2773 17.4496 17.2773 17.7071ZM16.5153 16.0455H15.6616V17.0368H16.5153Q16.734 17.0333 16.8698 16.8939Q17.0057 16.7546 17.0057 16.5006Q17.0057 16.2924 16.8769 16.169Q16.7481 16.0455 16.5153 16.0455ZM17.1291 17.7071Q17.1291 17.446 16.9668 17.3137Q16.8046 17.1814 16.54 17.1814H15.6616V18.2327H16.54Q16.8046 18.2327 16.9668 18.1004Q17.1291 17.9681 17.1291 17.7071ZM19.6727 18.3174Q19.6727 18.3562 19.6462 18.3738Q19.6197 18.3915 19.5915 18.3915Q19.5633 18.3915 19.5421 18.3668L18.4838 17.058L17.9546 17.5483V18.2997Q17.9511 18.3315 17.9299 18.3527Q17.9088 18.3738 17.8805 18.3738Q17.8453 18.3738 17.8259 18.3527Q17.8065 18.3315 17.8065 18.2997V15.9785Q17.8065 15.9467 17.8276 15.9256Q17.8488 15.9044 17.8805 15.9044Q17.9123 15.9044 17.9335 15.9256Q17.9546 15.9467 17.9546 15.9785V17.3684L19.4786 15.9397Q19.4998 15.9185 19.528 15.9185Q19.5562 15.9185 19.5774 15.9397Q19.5986 15.9608 19.5986 15.9891Q19.5986 16.0173 19.5774 16.0384L18.6002 16.9486L19.655 18.268Q19.6727 18.2927 19.6727 18.3174Z" style="stroke:#000000;stroke-width:0.25;stroke-linecap:round;stroke-linejoin:bevel" />
        <path d="M 15.24,26.32 L 10.24,37.33 z L 20.24,37.33 z " style="stroke:#000000;stroke-width:0.25;stroke-linecap:round;stroke-linejoin:bevel;stroke-dasharray:none" />
        <path d="M 36.72,62.00 L 54.72,62.00 z " style="stroke:#000000;stroke-width:0.25;stroke-linecap:round;stroke-linejoin:bevel;stroke-dasharray:none" />
        <path d="M44.1854 55.4532Q44.1854 55.6507 44.1025 55.8113Q44.0196 55.9718 43.8679 56.0617Q43.7162 56.1517 43.5187 56.1517H42.7496V57.1783Q42.7496 57.2065 42.7267 57.2277Q42.7037 57.2488 42.6755 57.2488Q42.6438 57.2488 42.6226 57.2277Q42.6014 57.2065 42.6014 57.1783V54.8499Q42.6014 54.8217 42.6226 54.8006Q42.6438 54.7794 42.672 54.7794H43.5187Q43.8185 54.7794 44.002 54.9664Q44.1854 55.1533 44.1854 55.4532ZM44.0373 55.4532Q44.0373 55.2098 43.8979 55.0651Q43.7586 54.9205 43.5187 54.9205H42.7496V56.0106H43.5187Q43.755 56.0106 43.8961 55.8536Q44.0373 55.6966 44.0373 55.4532ZM46.5102 57.1818Q46.5102 57.2136 46.4891 57.2312Q46.4679 57.2488 46.4361 57.2488Q46.4114 57.2488 46.392 57.2365Q46.3726 57.2241 46.3656 57.203L46.0692 56.4763L46.0728 56.4833H44.891L44.6052 57.203Q44.5876 57.2488 44.5417 57.2488Q44.51 57.2488 44.4906 57.2312Q44.4712 57.2136 44.4676 57.1889Q44.4641 57.1747 44.4712 57.1536L45.4201 54.8182Q45.4307 54.79 45.4466 54.7812Q45.4625 54.7723 45.4872 54.7723Q45.5401 54.7723 45.5577 54.8182L46.5067 57.1536Q46.5102 57.1642 46.5102 57.1818ZM44.9474 56.3422H46.0163L45.4766 55.0122ZM48.8386 54.8464V57.1712Q48.8386 57.21 48.8174 57.2294Q48.7962 57.2488 48.7645 57.2488Q48.7292 57.2488 48.708 57.2206L47.1205 55.051V57.1889Q47.1205 57.2136 47.1011 57.2312Q47.0817 57.2488 47.0535 57.2488Q47.0217 57.2488 47.0041 57.2312Q46.9865 57.2136 46.9865 57.1889V54.8499Q46.9865 54.8147 47.0059 54.797Q47.0253 54.7794 47.05 54.7794Q47.0817 54.7794 47.1029 54.8041L48.7045 56.9878V54.8464Q48.7045 54.8182 48.7239 54.7988Q48.7433 54.7794 48.7715 54.7794Q48.8033 54.7794 48.8209 54.7988Q48.8386 54.8182 48.8386 54.8464Z" style="stroke:#000000;stroke-width:0.25;stroke-linecap:round;stroke-linejoin:bevel" />
        <path d="M 36.72,75.00 L 54.72,75.00 z " style="stroke:#000000;stroke-width:0.25;stroke-linecap:round;stroke-linejoin:bevel;stroke-dasharray:none" />
        <path d="M 45.72,75.00 L 41.72,79.00 " style="stroke:#000000;stroke-width:0.25;stroke-linecap:round;stroke-linejoin:bevel;stroke-dasharray:none" fill="none" />
        <path d="M 45.72,75.00 L 49.72,79.00 " style="stroke:#000000;stroke-width:0.25;stroke-linecap:round;stroke-linejoin:bevel;stroke-dasharray:none" fill="none" />
        <path d="M42.5027 70.1783Q42.5027 70.21 42.4815 70.2294Q42.4603 70.2488 42.4321 70.2488H41.1374Q41.1057 70.2488 41.0863 70.2277Q41.0669 70.2065 41.0669 70.1783V67.8499Q41.0669 67.8217 41.088 67.8006Q41.1092 67.7794 41.1409 67.7794Q41.1727 67.7794 41.1939 67.8006Q41.215 67.8217 41.215 67.8499V70.1077H42.4321Q42.4603 70.1077 42.4815 70.1289Q42.5027 70.1501 42.5027 70.1783ZM44.3794 70.1783Q44.3794 70.21 44.3583 70.2294Q44.3371 70.2488 44.3089 70.2488H42.9789Q42.9507 70.2488 42.9295 70.2277Q42.9084 70.2065 42.9084 70.1783V67.8499Q42.9084 67.8217 42.9295 67.8006Q42.9507 67.7794 42.9789 67.7794H44.3089Q44.3371 67.7794 44.3583 67.8006Q44.3794 67.8217 44.3794 67.8499Q44.3794 67.8817 44.3583 67.9011Q44.3371 67.9205 44.3089 67.9205H43.0565V68.9048H44.1501Q44.1784 68.9048 44.1995 68.9259Q44.2207 68.9471 44.2207 68.9753Q44.2207 69.0071 44.1995 69.0265Q44.1784 69.0459 44.1501 69.0459H43.0565V70.1077H44.3089Q44.3371 70.1077 44.3583 70.1289Q44.3794 70.1501 44.3794 70.1783ZM46.7607 67.8429Q46.7607 67.857 46.7536 67.8782L45.787 70.203Q45.7659 70.2488 45.72 70.2488Q45.6988 70.2488 45.6794 70.2365Q45.66 70.2241 45.653 70.203L44.6934 67.8888Q44.6828 67.8676 44.6828 67.8464Q44.6828 67.8182 44.7022 67.7988Q44.7216 67.7794 44.7499 67.7794Q44.8028 67.7794 44.8275 67.8358L45.7235 69.9913L46.6231 67.8253Q46.6478 67.7794 46.6901 67.7794Q46.7219 67.7794 46.7413 67.797Q46.7607 67.8147 46.7607 67.8429ZM48.708 70.1783Q48.708 70.21 48.6869 70.2294Q48.6657 70.2488 48.6375 70.2488H47.3075Q47.2793 70.2488 47.2581 70.2277Q47.2369 70.2065 47.2369 70.1783V67.8499Q47.2369 67.8217 47.2581 67.8006Q47.2793 67.7794 47.3075 67.7794H48.6375Q48.6657 67.7794 48.6869 67.8006Q48.708 67.8217 48.708 67.8499Q48.708 67.8817 48.6869 67.9011Q48.6657 67.9205 48.6375 67.9205H47.3851V68.9048H48.4787Q48.5069 68.9048 48.5281 68.9259Q48.5493 68.9471 48.5493 68.9753Q48.5493 69.0071 48.5281 69.0265Q48.5069 69.0459 48.4787 69.0459H47.3851V70.1077H48.6375Q48.6657 70.1077 48.6869 70.1289Q48.708 70.1501 48.708 70.1783ZM50.673 70.1783Q50.673 70.21 50.6518 70.2294Q50.6307 70.2488 50.6024 70.2488H49.3077Q49.276 70.2488 49.2566 70.2277Q49.2372 70.2065 49.2372 70.1783V67.8499Q49.2372 67.8217 49.2584 67.8006Q49.2795 67.7794 49.3113 67.7794Q49.343 67.7794 49.3642 67.8006Q49.3854 67.8217 49.3854 67.8499V70.1077H50.6024Q50.6307 70.1077 50.6518 70.1289Q50.673 70.1501 50.673 70.1783Z" style="stroke:#000000;stroke-width:0.25;stroke-linecap:round;stroke-linejoin:bevel" />
        <path d="M13.7583 48.0374Q13.7583 48.0692 13.7372 48.0886Q13.716 48.108 13.6878 48.108H12.4284V49.0817H13.529Q13.5573 49.0817 13.5784 49.1028Q13.5996 49.124 13.5996 49.1522Q13.5996 49.184 13.5784 49.2034Q13.5573 49.2228 13.529 49.2228H12.4284V50.3658Q12.4284 50.394 12.409 50.4152Q12.3896 50.4363 12.3578 50.4363Q12.3261 50.4363 12.3067 50.4152Q12.2873 50.394 12.2873 50.3658V48.0374Q12.2873 48.0092 12.3084 47.9881Q12.3296 47.9669 12.3578 47.9669H13.6878Q13.716 47.9669 13.7372 47.9881Q13.7583 48.0092 13.7583 48.0374ZM16.0831 50.3622Q16.0831 50.394 16.0637 50.4134Q16.0443 50.4328 16.0161 50.4328Q15.9949 50.4328 15.9844 50.4257Q15.8891 50.3728 15.8327 50.2476Q15.7762 50.1224 15.7762 49.8366Q15.7762 49.5473 15.621 49.4397Q15.4658 49.3321 15.2612 49.3321H14.4357V50.3658Q14.4357 50.394 14.4145 50.4152Q14.3933 50.4363 14.3616 50.4363Q14.3298 50.4363 14.3087 50.4152Q14.2875 50.394 14.2875 50.3658V48.0374Q14.2875 48.0092 14.3087 47.9881Q14.3298 47.9669 14.3581 47.9669H15.2894Q15.494 47.9669 15.6528 48.0498Q15.8115 48.1327 15.8997 48.2773Q15.9879 48.422 15.9879 48.6054Q15.9879 48.8418 15.8627 49.0111Q15.7374 49.1804 15.5363 49.2404Q15.7057 49.2933 15.815 49.4503Q15.9244 49.6073 15.9244 49.8366Q15.9244 50.073 15.9544 50.1665Q15.9844 50.2599 16.0443 50.2987Q16.0831 50.3234 16.0831 50.3622ZM15.307 49.191Q15.5293 49.1699 15.6845 49.0146Q15.8397 48.8594 15.8397 48.6089Q15.8397 48.3902 15.6845 48.2491Q15.5293 48.108 15.2718 48.108H14.4357V49.191ZM18.3656 50.3693Q18.3656 50.3975 18.3444 50.4169Q18.3233 50.4363 18.2951 50.4363H16.5594Q16.5276 50.4363 16.5082 50.4134Q16.4888 50.3905 16.4888 50.3622Q16.4888 50.3376 16.5029 50.3199L18.1681 48.1009H16.6299Q16.6017 48.1009 16.5806 48.0815Q16.5594 48.0621 16.5594 48.0339Q16.5594 48.0057 16.5806 47.9863Q16.6017 47.9669 16.6299 47.9669H18.288Q18.3303 47.9669 18.3497 47.9881Q18.3691 48.0092 18.3691 48.0374Q18.3691 48.0621 18.355 48.0798L16.6934 50.3023H18.2951Q18.3233 50.3023 18.3444 50.3234Q18.3656 50.3446 18.3656 50.3693Z" style="stroke:#000000;stroke-width:0.25;stroke-linecap:round;stroke-linejoin:bevel" />
        <path d="M 10.24,49.19 L 12.24,46.69 L 18.44,46.69 L 20.44,49.19 L 18.44,51.69 L 12.24,51.69 z " style="stroke:#000000;stroke-width:0.25;stroke-linecap:round;stroke-linejoin:bevel;stroke-dasharray:none" fill="none" />
        <path d="M14.1923 59.2904Q14.1923 59.3187 14.1781 59.3363Q14.157 59.3645 14.1252 59.3645Q14.1111 59.3645 14.0829 59.3504Q13.7548 59.1282 13.3879 59.1282Q13.0916 59.1282 12.8429 59.2746Q12.5942 59.421 12.4495 59.6803Q12.3049 59.9396 12.3049 60.2641Q12.3049 60.5887 12.4495 60.848Q12.5942 61.1072 12.8429 61.2537Q13.0916 61.4001 13.3879 61.4001Q13.7583 61.4001 14.0794 61.1813Q14.097 61.1672 14.1217 61.1672Q14.157 61.1672 14.1781 61.1954Q14.1923 61.2131 14.1923 61.2378Q14.1923 61.2731 14.164 61.2942Q14.0264 61.393 13.8095 61.4636Q13.5925 61.5341 13.3879 61.5341Q13.0528 61.5341 12.7706 61.3683Q12.4883 61.2025 12.3225 60.9115Q12.1567 60.6204 12.1567 60.2641Q12.1567 59.9078 12.3225 59.6168Q12.4883 59.3257 12.7706 59.1599Q13.0528 58.9941 13.3879 58.9941Q13.5996 58.9941 13.7989 59.0576Q13.9982 59.1211 14.1605 59.234Q14.1923 59.2587 14.1923 59.2904ZM16.1043 61.4283Q16.1043 61.46 16.0831 61.4794Q16.062 61.4988 16.0338 61.4988H14.7391Q14.7073 61.4988 14.6879 61.4777Q14.6685 61.4565 14.6685 61.4283V59.0999Q14.6685 59.0717 14.6897 59.0506Q14.7108 59.0294 14.7426 59.0294Q14.7743 59.0294 14.7955 59.0506Q14.8167 59.0717 14.8167 59.0999V61.3577H16.0338Q16.062 61.3577 16.0831 61.3789Q16.1043 61.4001 16.1043 61.4283ZM18.3056 61.4247Q18.3056 61.4565 18.2862 61.4759Q18.2668 61.4953 18.2386 61.4953Q18.2174 61.4953 18.2069 61.4882Q18.1116 61.4353 18.0552 61.3101Q17.9987 61.1849 17.9987 60.8991Q17.9987 60.6098 17.8435 60.5022Q17.6883 60.3946 17.4837 60.3946H16.6582V61.4283Q16.6582 61.4565 16.637 61.4777Q16.6158 61.4988 16.5841 61.4988Q16.5523 61.4988 16.5312 61.4777Q16.51 61.4565 16.51 61.4283V59.0999Q16.51 59.0717 16.5312 59.0506Q16.5523 59.0294 16.5806 59.0294H17.5119Q17.7165 59.0294 17.8753 59.1123Q18.034 59.1952 18.1222 59.3398Q18.2104 59.4845 18.2104 59.6679Q18.2104 59.9043 18.0852 60.0736Q17.9599 60.2429 17.7588 60.3029Q17.9282 60.3558 18.0375 60.5128Q18.1469 60.6698 18.1469 60.8991Q18.1469 61.1355 18.1769 61.229Q18.2069 61.3224 18.2668 61.3612Q18.3056 61.3859 18.3056 61.4247ZM17.5295 60.2535Q17.7518 60.2324 17.907 60.0771Q18.0622 59.9219 18.0622 59.6714Q18.0622 59.4527 17.907 59.3116Q17.7518 59.1705 17.4943 59.1705H16.6582V60.2535Z" style="stroke:#000000;stroke-width:0.25;stroke-linecap:round;stroke-linejoin:bevel" />
        <path d="M 10.24,60.25 L 12.24,57.75 L 18.44,57.75 L 20.44,60.25 L 18.44,62.75 L 12.24,62.75 z " style="stroke:#000000;stroke-width:0.25;stroke-linecap:round;stroke-linejoin:bevel;stroke-dasharray:none" fill="none" />
    </g>
</svg>
