<?xml version="1.0" encoding="utf-8"?>
<svg xmlns="http://www.w3.org/2000/svg" width="60.96mm" height="128.50mm" viewBox="0 0 60.96 128.50">
    <path d="M12.1191 68.3179Q12.1191 68.332 12.112 68.3532L11.1454 70.678Q11.1243 70.7238 11.0784 70.7238Q11.0572 70.7238 11.0378 70.7115Q11.0184 70.6991 11.0114 70.678L10.0518 68.3637Q10.0412 68.3426 10.0412 68.3214Q10.0412 68.2932 10.0606 68.2738Q10.08 68.2544 10.1083 68.2544Q10.1612 68.2544 10.1859 68.3108L11.0819 70.4663L11.9815 68.3003Q12.0062 68.2544 12.0485 68.2544Q12.0803 68.2544 12.0997 68.272Q12.1191 68.2897 12.1191 68.3179ZM12.2426 71.1013Q12.2426 71.0801 12.2531 71.059L13.823 67.9863Q13.8477 67.9404 13.8689 67.9245Q13.89 67.9087 13.9253 67.9087Q13.95 67.9087 13.9694 67.9263Q13.9888 67.9439 13.9888 67.9757Q13.9888 68.0039 13.9747 68.0321L12.4048 71.1084Q12.3837 71.1472 12.3643 71.1613Q12.3449 71.1754 12.3131 71.1754Q12.2778 71.1754 12.2602 71.1542Q12.2426 71.1331 12.2426 71.1013ZM15.3858 70.7591Q15.0436 70.7591 14.7755 70.5986Q14.5074 70.4381 14.3575 70.1488Q14.2075 69.8595 14.2075 69.4891Q14.2075 69.1187 14.3575 68.8294Q14.5074 68.5401 14.7755 68.3796Q15.0436 68.2191 15.3858 68.2191Q15.728 68.2191 15.9961 68.3796Q16.2642 68.5401 16.4142 68.8294Q16.5641 69.1187 16.5641 69.4891Q16.5641 69.8595 16.4142 70.1488Q16.2642 70.4381 15.9961 70.5986Q15.728 70.7591 15.3858 70.7591ZM15.3858 68.3602Q15.086 68.3602 14.8514 68.5013Q14.6168 68.6424 14.4862 68.9Q14.3557 69.1575 14.3557 69.4891Q14.3557 69.8207 14.4862 70.0782Q14.6168 70.3358 14.8514 70.4769Q15.086 70.618 15.3858 70.618Q15.6857 70.618 15.9203 70.4769Q16.1549 70.3358 16.2854 70.0782Q16.4159 69.8207 16.4159 69.4891Q16.4159 69.1575 16.2854 68.9Q16.1549 68.6424 15.9203 68.5013Q15.6857 68.3602 15.3858 68.3602ZM18.9524 68.5154Q18.9524 68.5437 18.9383 68.5613Q18.9171 68.5895 18.8854 68.5895Q18.8713 68.5895 18.843 68.5754Q18.515 68.3532 18.1481 68.3532Q17.8517 68.3532 17.603 68.4996Q17.3543 68.646 17.2097 68.9053Q17.065 69.1646 17.065 69.4891Q17.065 69.8137 17.2097 70.073Q17.3543 70.3323 17.603 70.4787Q17.8517 70.6251 18.1481 70.6251Q18.5185 70.6251 18.8395 70.4063Q18.8571 70.3922 18.8818 70.3922Q18.9171 70.3922 18.9383 70.4204Q18.9524 70.4381 18.9524 70.4628Q18.9524 70.4981 18.9242 70.5192Q18.7866 70.618 18.5696 70.6886Q18.3527 70.7591 18.1481 70.7591Q17.8129 70.7591 17.5307 70.5933Q17.2485 70.4275 17.0827 70.1365Q16.9169 69.8454 16.9169 69.4891Q16.9169 69.1328 17.0827 68.8418Q17.2485 68.5507 17.5307 68.3849Q17.8129 68.2191 18.1481 68.2191Q18.3597 68.2191 18.5591 68.2826Q18.7584 68.3461 18.9206 68.459Q18.9524 68.4837 18.9524 68.5154ZM21.055 68.3214Q21.055 68.3532 21.0356 68.3708Q21.0161 68.3884 20.9844 68.3884H20.1977V70.6533Q20.1977 70.6815 20.1765 70.7027Q20.1554 70.7238 20.1271 70.7238Q20.0954 70.7238 20.076 70.7027Q20.0566 70.6815 20.0566 70.6533V68.3884H19.2699Q19.2417 68.3884 19.2205 68.369Q19.1993 68.3496 19.1993 68.3214Q19.1993 68.2932 19.2205 68.2738Q19.2417 68.2544 19.2699 68.2544H20.9844Q21.0126 68.2544 21.0338 68.2738Q21.055 68.2932 21.055 68.3214Z" style="stroke:#6f02b8;stroke-width:0.25;stroke-linecap:round;stroke-linejoin:bevel" />
</svg>
