<?xml version="1.0" encoding="utf-8"?>
<svg xmlns="http://www.w3.org/2000/svg" width="60.96mm" height="128.50mm" viewBox="0 0 60.96 128.50">
    <g id="PanelLayer">
        <defs>
            <linearGradient id="gradient_controls" x1="0" y1="16" x2="0" y2="91" gradientUnits="userSpaceOnUse">
                <stop style="stop-color:#3068ff;stop-opacity:1;" offset="0" />
                <stop style="stop-color:#4f8df2;stop-opacity:1;" offset="1" />
            </linearGradient>
            <linearGradient id="gradient_send_return" x1="0" y1="91" x2="0" y2="108" gradientUnits="userSpaceOnUse">
                <stop style="stop-color:#8a72cf;stop-opacity:1;" offset="0" />
                <stop style="stop-color:#4f8df2;stop-opacity:1;" offset="1" />
            </linearGradient>
            <linearGradient id="gradient_env" x1="0" y1="115" x2="0" y2="126.5" gradientUnits="userSpaceOnUse">
                <stop style="stop-color:#4b9488;stop-opacity:1;" offset="0" />
                <stop style="stop-color:#4f8df2;stop-opacity:1;" offset="1" />
            </linearGradient>
        </defs>
        <rect id="border_rect" width="60.96" height="128.5" x="0" y="0" style="display:inline;fill:#4f8df2;fill-opacity:1;stroke:none;" />
        <path id="controls_art" d="M 30.72,91.00 L 30.72,14.00 A 4 4 0 0 1 34.72 10 L 56.72,10.00 A 4 4 0 0 1 60.72 14 L 60.72,10.00 L 60.72,91.00 z" style="fill:url(#gradient_controls);fill-opacity:1;stroke-width:0;" />
        <path id="send_return_art" d="M 30.72,108.00 L 30.72,85.00 A 4 4 0 0 1 34.72 81 L 56.72,81.00 A 4 4 0 0 1 60.72 85 L 60.72,81.00 L 60.72,108.00 z" style="fill:url(#gradient_send_return);fill-opacity:1;stroke-width:0;" />
        <path id="env_art" d="M 30.72,126.50 L 30.72,114.00 A 4 4 0 0 1 34.72 110 L 56.72,110.00 A 4 4 0 0 1 60.72 114 L 60.72,110.00 L 60.72,126.50 z" style="fill:url(#gradient_env);fill-opacity:1;stroke-width:0;" />
        <path id="model_name" d="M10.498 7.35962Q10.498 7.41395 10.4669 7.45276Q10.2108 7.79425 9.83051 8.01156Q9.45021 8.22887 9.01559 8.22887Q8.43351 8.22887 7.98336 7.98051Q7.53322 7.73216 7.28098 7.27425Q7.02874 6.81635 7.02874 6.21098Q7.02874 5.59009 7.27322 5.12054Q7.51769 4.651 7.92127 4.40264Q8.32485 4.15429 8.78276 4.15429Q9.24066 4.15429 9.6326 4.35219Q10.0245 4.5501 10.2729 4.94592Q10.5212 5.34174 10.5368 5.92382Q10.5368 5.98591 10.4902 6.03636Q10.4436 6.0868 10.3815 6.0868H7.33143V6.1877Q7.33143 6.66889 7.52546 7.06858Q7.71948 7.46828 8.09978 7.70111Q8.48007 7.93395 9.01559 7.93395Q9.38812 7.93395 9.71797 7.75156Q10.0478 7.56917 10.2341 7.28977Q10.2884 7.21992 10.366 7.21992Q10.4204 7.21992 10.4592 7.26261Q10.498 7.3053 10.498 7.35962ZM7.36247 5.79188H10.2186V5.72203Q10.1798 5.32621 9.96633 5.04293Q9.75289 4.75965 9.43857 4.61219Q9.12424 4.46473 8.78276 4.46473Q8.49559 4.46473 8.19679 4.61607Q7.89799 4.76741 7.66904 5.06622Q7.44008 5.36502 7.36247 5.79188ZM14.5803 4.70533Q14.5803 4.76741 14.5376 4.81398Q14.4949 4.86055 14.4328 4.86055Q14.363 4.86055 14.3281 4.83726Q14.2931 4.81398 14.2311 4.75189Q14.1302 4.63547 14.0215 4.58115Q13.7421 4.44921 13.2299 4.44921Q12.7875 4.44921 12.4111 4.68204Q12.0347 4.91488 11.8135 5.31457Q11.5923 5.71427 11.5923 6.1877Q11.5923 6.68441 11.7979 7.08411Q12.0036 7.4838 12.38 7.70887Q12.7564 7.93395 13.2299 7.93395Q13.5403 7.93395 13.7188 7.87962Q13.8973 7.82529 14.0758 7.7244Q14.2 7.64679 14.2931 7.55365Q14.332 7.51485 14.3708 7.48768Q14.4096 7.46052 14.4484 7.46052Q14.5105 7.46052 14.5454 7.49932Q14.5803 7.53813 14.5803 7.60022Q14.5803 7.70887 14.4018 7.86022Q14.2233 8.01156 13.909 8.12021Q13.5946 8.22887 13.2066 8.22887Q12.6478 8.22887 12.2093 7.96499Q11.7708 7.70111 11.5263 7.23545Q11.2818 6.76978 11.2818 6.1877Q11.2818 5.64442 11.5263 5.17875Q11.7708 4.71309 12.217 4.43369Q12.6633 4.15429 13.2376 4.15429Q13.5714 4.15429 13.8857 4.2319Q14.2 4.30951 14.3902 4.43757Q14.5803 4.56562 14.5803 4.70533ZM18.6083 5.72979V7.99604Q18.6083 8.05812 18.5618 8.10469Q18.5152 8.15126 18.4531 8.15126Q18.3833 8.15126 18.3406 8.10469Q18.2979 8.05812 18.2979 7.99604V5.72979Q18.2979 5.19427 18.034 4.86055Q17.7701 4.52682 17.2268 4.52682Q16.8931 4.52682 16.571 4.6898Q16.2489 4.85279 16.0472 5.13219Q15.8454 5.41159 15.8454 5.72979V7.99604Q15.8454 8.05812 15.7988 8.10469Q15.7522 8.15126 15.6901 8.15126Q15.6203 8.15126 15.5776 8.10469Q15.5349 8.05812 15.5349 7.99604V2.56326Q15.5349 2.50117 15.5815 2.4546Q15.6281 2.40804 15.6901 2.40804Q15.76 2.40804 15.8027 2.4546Q15.8454 2.50117 15.8454 2.56326V5.01577Q16.0627 4.67428 16.4469 4.45309Q16.831 4.2319 17.2268 4.2319Q17.8943 4.2319 18.2513 4.65488Q18.6083 5.07786 18.6083 5.72979ZM21.542 8.22887Q21.0065 8.22887 20.568 7.96111Q20.1295 7.69335 19.8773 7.22769Q19.625 6.76202 19.625 6.19546Q19.625 5.62114 19.8773 5.15547Q20.1295 4.6898 20.5641 4.42204Q20.9987 4.15429 21.542 4.15429Q22.0775 4.15429 22.516 4.42204Q22.9545 4.6898 23.2029 5.15547Q23.4513 5.62114 23.4513 6.19546Q23.4513 6.76978 23.2029 7.23157Q22.9545 7.69335 22.516 7.96111Q22.0775 8.22887 21.542 8.22887ZM21.542 4.44921Q21.0919 4.44921 20.7232 4.67816Q20.3546 4.90711 20.145 5.30293Q19.9355 5.69875 19.9355 6.19546Q19.9355 6.68441 20.145 7.08022Q20.3546 7.47604 20.7232 7.70499Q21.0919 7.93395 21.542 7.93395Q21.9999 7.93395 22.3647 7.70887Q22.7295 7.4838 22.9351 7.08411Q23.1408 6.68441 23.1408 6.19546Q23.1408 5.69875 22.9351 5.30293Q22.7295 4.90711 22.3647 4.67816Q21.9999 4.44921 21.542 4.44921Z" style="display:inline;stroke:#000000;stroke-width:0.35;stroke-linecap:round;stroke-linejoin:bevel" />
        <path id="sapphire_gemstone" d="m 17.955,122.900 q 0,0.34175 -0.242534,0.63114 -0.0441,0.0524 -0.20395,0.21497 -0.187413,0.19017 -0.785481,0.81304 l -1.444183,1.51309 q -0.01929,0.003 -0.0441,0.003 -0.02756,0 -0.04134,-0.003 -0.08268,-0.0827 -0.647678,-0.67524 -0.468532,-0.47404 -0.934309,-0.94809 -0.556727,-0.56775 -0.89848,-0.98116 -0.132292,-0.15985 -0.168121,-0.29766 -0.02756,-0.10197 -0.02756,-0.34175 0,-0.11024 0.07166,-0.28939 0.06614,-0.16536 0.140559,-0.26458 0.118512,-0.1571 0.42168,-0.42444 0.283875,-0.2508 0.474044,-0.37482 0.272852,-0.17915 0.818555,-0.36656 0.09646,-0.0331 0.110243,-0.0331 h 1.3615 q 0.01102,0 0.104731,0.0331 0.567751,0.20119 0.824066,0.36656 0.165365,0.10473 0.474045,0.37758 0.322461,0.28388 0.421679,0.42168 0.214974,0.2949 0.214974,0.62563 z m -0.16812,-0.27285 q -0.03307,-0.10749 -0.135048,-0.30868 -0.07166,-0.0937 -0.209462,-0.19844 -0.118511,-0.0854 -0.234266,-0.17088 0.245291,0.3638 0.578776,0.678 z m -0.573264,-0.52366 -0.358289,-0.44648 v 0.41065 z m 0.636653,0.75792 q 0,-0.0524 -0.341753,-0.39412 l 0.228754,0.7028 h 0.04961 q 0.06339,-0.21773 0.06339,-0.30868 z m -0.23151,0.27285 -0.316948,-0.90399 -0.410655,-0.0634 -0.159853,0.61461 z m 0.0028,0.15434 -0.771701,-0.3197 h -0.03032 l 0.344509,0.60634 q 0.07993,-0.003 0.234266,-0.0469 0.02481,-0.0138 0.223242,-0.23978 z m -0.857139,-1.05006 -0.719335,0.28388 0.60358,0.22599 z m 0,-0.16261 v -0.51538 l -0.917773,-0.38034 h -1.223697 l -0.917772,0.38034 v 0.51538 l 0.89848,0.4079 h 1.254014 z m 0.573264,1.53789 q -0.0689,0.011 -0.198438,0.0524 -0.08544,0.0551 -0.259071,0.16261 0.01929,0 0.06339,0.003 0.04134,0 0.06339,0 0.118511,0 0.190169,-0.0689 0.07166,-0.0717 0.14056,-0.14883 z m -0.289388,0.003 -0.347266,-0.63114 -0.363801,0.87918 q 0.0248,-0.0165 0.06615,-0.0165 0.03032,0 0.08544,0.011 0.05788,0.008 0.08819,0.008 0.04961,0 0.228754,-0.10749 0.228754,-0.1378 0.242535,-0.14331 z m -0.440972,-0.74139 -0.683507,-0.2756 -0.592556,0.54845 0.903993,0.65595 z m -0.854383,-0.28387 h -1.036284 l 0.523654,0.47404 z m 0.749652,1.36701 q -0.228754,-0.0303 -0.228754,-0.0303 -0.03583,0 -0.272851,0.0937 l 0.190169,0.0193 q 0.01102,0 0.311436,-0.0827 z m -0.388606,-0.0882 -0.843359,-0.61185 v 0.67524 l 0.471289,0.0827 z m 0.854383,0.0496 q -0.09922,0.006 -0.2949,0.0386 -0.01102,0.003 -0.377583,0.17639 -0.129535,0.34726 -0.380338,1.0418 z m -2.543857,-1.39733 -0.719335,-0.28388 0.124023,0.51814 z m -0.802018,-0.45476 v -0.41065 l -0.366557,0.44648 z m 1.515841,1.07212 -0.592556,-0.54019 -0.683506,0.2756 0.380338,0.9288 z m 0.369314,0.94257 q -0.03307,-0.003 -0.135047,-0.0248 -0.08544,-0.0165 -0.137804,-0.0165 -0.05237,0 -0.137804,0.0165 -0.101975,0.0221 -0.135047,0.0248 0.264583,0.0469 0.272851,0.0469 0.0083,0 0.272851,-0.0469 z m -0.30868,-0.1378 v -0.68626 l -0.843359,0.61185 0.37207,0.14607 z m 0.950846,0.20671 -0.396875,-0.0551 -0.479557,0.14056 v 1.27607 z m -2.888366,-2.20211 q -0.118512,0.0854 -0.234267,0.17364 -0.146072,0.10748 -0.209461,0.19568 -0.0441,0.10473 -0.135048,0.31419 0.369314,-0.3638 0.578776,-0.68351 z m 0.476801,0.83234 -0.159853,-0.61461 -0.410655,0.0634 -0.316948,0.90399 z m 0.394118,1.08313 -0.363802,-0.87918 -0.355533,0.63114 q 0.43546,0.2508 0.451996,0.2508 0.09095,0 0.267339,-0.003 z m 1.821765,0.82958 q -0.132291,0.21222 -0.405143,0.6339 -0.07717,0.10749 -0.220486,0.32797 -0.05788,0.10473 -0.05512,0.226 0.159852,-0.15158 0.432704,-0.49609 0.07717,-0.12954 0.140559,-0.339 0.05512,-0.17639 0.107486,-0.35278 z m -1.493792,-0.66146 -0.270095,-0.0882 -0.0083,-0.011 q -0.02481,0 -0.107487,0.011 -0.06615,0.006 -0.107487,0.006 0.272851,0.091 0.311436,0.091 0.02481,0 0.181901,-0.008 z m -0.810286,-1.06384 h -0.03032 l -0.7717,0.3197 q 0.06615,0.0965 0.223242,0.23978 0.07717,0.0138 0.234266,0.0469 z m -0.689018,-0.50161 q -0.341754,0.34727 -0.341754,0.39412 0,0.0799 0.06339,0.30868 h 0.04961 z m 2.235176,3.04547 v -1.27607 l -0.479557,-0.14056 -0.396875,0.0551 z m -1.606791,-1.6757 q -0.256315,-0.1819 -0.457509,-0.22324 0.06615,0.0772 0.20395,0.22324 z m 1.609547,2.04501 v -0.1378 l -0.683507,-1.05007 q 0.05237,0.17639 0.107487,0.35278 0.06339,0.20946 0.14056,0.339 0.0689,0.11851 0.20395,0.25907 0.115755,0.11851 0.23151,0.23702 z m -0.644921,-0.70555 q -0.115756,-0.32798 -0.380339,-1.0418 -0.135047,-0.0662 -0.272851,-0.12954 -0.159852,-0.0716 -0.289388,-0.0716 -0.05237,0 -0.110243,-0.0138 z" style="stroke-width:0;fill:#0000ff;stroke:#2e2114;stroke-linecap:square;stroke-opacity:1" />
        <path d="M9.60783 102.178Q9.60783 102.21 9.58667 102.229Q9.5655 102.249 9.53728 102.249H8.24258Q8.21083 102.249 8.19143 102.228Q8.17203 102.207 8.17203 102.178V99.8499Q8.17203 99.8217 8.19319 99.8006Q8.21436 99.7794 8.24611 99.7794Q8.27786 99.7794 8.29903 99.8006Q8.32019 99.8217 8.32019 99.8499V102.108H9.53728Q9.5655 102.108 9.58667 102.129Q9.60783 102.15 9.60783 102.178Z" style="stroke:#000000;stroke-width:0.25;stroke-linecap:round;stroke-linejoin:bevel" />
        <path d="M9.71719 112.175Q9.71719 112.207 9.69779 112.226Q9.67839 112.245 9.65017 112.245Q9.629 112.245 9.61842 112.238Q9.52317 112.185 9.46672 112.06Q9.41028 111.935 9.41028 111.649Q9.41028 111.36 9.25506 111.252Q9.09983 111.145 8.89522 111.145H8.06972V112.178Q8.06972 112.207 8.04856 112.228Q8.02739 112.249 7.99564 112.249Q7.96389 112.249 7.94272 112.228Q7.92156 112.207 7.92156 112.178V109.85Q7.92156 109.822 7.94272 109.801Q7.96389 109.779 7.99211 109.779H8.92344Q9.12806 109.779 9.28681 109.862Q9.44556 109.945 9.53375 110.09Q9.62194 110.234 9.62194 110.418Q9.62194 110.654 9.49671 110.824Q9.37147 110.993 9.17039 111.053Q9.33972 111.106 9.44908 111.263Q9.55844 111.42 9.55844 111.649Q9.55844 111.885 9.58843 111.979Q9.61842 112.072 9.67839 112.111Q9.71719 112.136 9.71719 112.175ZM8.94108 111.004Q9.16333 110.982 9.31856 110.827Q9.47378 110.672 9.47378 110.421Q9.47378 110.203 9.31856 110.062Q9.16333 109.921 8.90581 109.921H8.06972V111.004Z" style="stroke:#000000;stroke-width:0.25;stroke-linecap:round;stroke-linejoin:bevel" />
        <path d="M 15.24,101.00 L 15.24,111.00 " style="stroke:#000000;stroke-width:0.25;stroke-linecap:round;stroke-linejoin:bevel;stroke-dasharray:none" fill="none" />
        <path d="M13.9612 95.7488Q13.9259 95.7488 13.9065 95.7277Q13.8871 95.7065 13.8871 95.6748V93.3535Q13.8871 93.3217 13.9083 93.3006Q13.9294 93.2794 13.9612 93.2794Q13.9929 93.2794 14.0141 93.3006Q14.0353 93.3217 14.0353 93.3535V95.6748Q14.0317 95.7065 14.0106 95.7277Q13.9894 95.7488 13.9612 95.7488ZM16.5929 93.3464V95.6712Q16.5929 95.71 16.5717 95.7294Q16.5506 95.7488 16.5188 95.7488Q16.4835 95.7488 16.4624 95.7206L14.8749 93.551V95.6889Q14.8749 95.7136 14.8555 95.7312Q14.8361 95.7488 14.8078 95.7488Q14.7761 95.7488 14.7585 95.7312Q14.7408 95.7136 14.7408 95.6889V93.3499Q14.7408 93.3147 14.7602 93.297Q14.7796 93.2794 14.8043 93.2794Q14.8361 93.2794 14.8572 93.3041L16.4588 95.4878V93.3464Q16.4588 93.3182 16.4782 93.2988Q16.4977 93.2794 16.5259 93.2794Q16.5576 93.2794 16.5753 93.2988Q16.5929 93.3182 16.5929 93.3464Z" style="stroke:#000000;stroke-width:0.25;stroke-linecap:round;stroke-linejoin:bevel" />
        <path d="M 38.72,91.00 L 38.72,101.00 " style="stroke:#000000;stroke-width:0.25;stroke-linecap:round;stroke-linejoin:bevel;stroke-dasharray:none" fill="none" />
        <path d="M34.3456 85.4137Q34.3244 85.3925 34.3244 85.3608Q34.3244 85.3326 34.3491 85.3061Q34.3738 85.2796 34.402 85.2796Q34.4337 85.2796 34.462 85.3114Q34.5996 85.4737 34.7883 85.5583Q34.977 85.643 35.1852 85.643Q35.4568 85.643 35.6332 85.5125Q35.8096 85.3819 35.8096 85.1668Q35.8061 84.9974 35.7179 84.8881Q35.6297 84.7787 35.5009 84.7134Q35.3721 84.6482 35.1499 84.567Q34.9065 84.4753 34.7707 84.4048Q34.6348 84.3342 34.5378 84.2037Q34.4408 84.0731 34.4408 83.8615Q34.4408 83.6886 34.5361 83.5475Q34.6313 83.4064 34.8077 83.3253Q34.9841 83.2441 35.2169 83.2441Q35.4251 83.2441 35.612 83.32Q35.799 83.3958 35.9084 83.5334Q35.9436 83.5828 35.9436 83.6075Q35.9436 83.6357 35.9172 83.6586Q35.8907 83.6816 35.859 83.6816Q35.8307 83.6816 35.8131 83.6604Q35.7143 83.5334 35.5591 83.4593Q35.4039 83.3852 35.2169 83.3852Q34.9488 83.3852 34.7707 83.5122Q34.5925 83.6392 34.5925 83.8579Q34.5925 84.0096 34.6789 84.1155Q34.7654 84.2213 34.8959 84.2866Q35.0264 84.3518 35.2204 84.4224Q35.4674 84.5106 35.612 84.5847Q35.7567 84.6587 35.859 84.7999Q35.9613 84.941 35.9613 85.1738Q35.9613 85.3361 35.866 85.4772Q35.7708 85.6183 35.5926 85.7012Q35.4145 85.7841 35.1852 85.7841Q34.9241 85.7841 34.7301 85.6942Q34.5361 85.6042 34.3456 85.4137ZM37.9651 85.6783Q37.9651 85.71 37.9439 85.7294Q37.9227 85.7488 37.8945 85.7488H36.5645Q36.5363 85.7488 36.5151 85.7277Q36.494 85.7065 36.494 85.6783V83.3499Q36.494 83.3217 36.5151 83.3006Q36.5363 83.2794 36.5645 83.2794H37.8945Q37.9227 83.2794 37.9439 83.3006Q37.9651 83.3217 37.9651 83.3499Q37.9651 83.3817 37.9439 83.4011Q37.9227 83.4205 37.8945 83.4205H36.6421V84.4048H37.7358Q37.764 84.4048 37.7851 84.4259Q37.8063 84.4471 37.8063 84.4753Q37.8063 84.5071 37.7851 84.5265Q37.764 84.5459 37.7358 84.5459H36.6421V85.6077H37.8945Q37.9227 85.6077 37.9439 85.6289Q37.9651 85.6501 37.9651 85.6783ZM40.3463 83.3464V85.6712Q40.3463 85.71 40.3251 85.7294Q40.304 85.7488 40.2722 85.7488Q40.2369 85.7488 40.2158 85.7206L38.6283 83.551V85.6889Q38.6283 85.7136 38.6089 85.7312Q38.5895 85.7488 38.5613 85.7488Q38.5295 85.7488 38.5119 85.7312Q38.4942 85.7136 38.4942 85.6889V83.3499Q38.4942 83.3147 38.5136 83.297Q38.533 83.2794 38.5577 83.2794Q38.5895 83.2794 38.6106 83.3041L40.2122 85.4878V83.3464Q40.2122 83.3182 40.2317 83.2988Q40.2511 83.2794 40.2793 83.2794Q40.311 83.2794 40.3287 83.2988Q40.3463 83.3182 40.3463 83.3464ZM43.0627 84.5141Q43.0627 84.8634 42.9516 85.1421Q42.8404 85.4207 42.6111 85.5848Q42.3818 85.7488 42.0396 85.7488H41.1224Q41.0942 85.7488 41.073 85.7277Q41.0519 85.7065 41.0519 85.6783V83.3499Q41.0519 83.3217 41.073 83.3006Q41.0942 83.2794 41.1224 83.2794H42.0396Q42.3783 83.2794 42.6094 83.4487Q42.8404 83.6181 42.9516 83.8985Q43.0627 84.179 43.0627 84.5141ZM42.9145 84.5141Q42.9145 84.2143 42.8175 83.9655Q42.7205 83.7168 42.5177 83.5687Q42.3148 83.4205 42.0044 83.4205H41.2V85.6077H42.0044Q42.463 85.6077 42.6887 85.3061Q42.9145 85.0045 42.9145 84.5141Z" style="stroke:#000000;stroke-width:0.25;stroke-linecap:round;stroke-linejoin:bevel" />
        <path d="M 52.72,91.00 L 52.72,101.00 " style="stroke:#000000;stroke-width:0.25;stroke-linecap:round;stroke-linejoin:bevel;stroke-dasharray:none" fill="none" />
        <path d="M50.1959 85.6748Q50.1959 85.7065 50.1765 85.7259Q50.1571 85.7453 50.1288 85.7453Q50.1077 85.7453 50.0971 85.7383Q50.0018 85.6853 49.9454 85.5601Q49.889 85.4349 49.889 85.1491Q49.889 84.8598 49.7337 84.7522Q49.5785 84.6446 49.3739 84.6446H48.5484V85.6783Q48.5484 85.7065 48.5272 85.7277Q48.5061 85.7488 48.4743 85.7488Q48.4426 85.7488 48.4214 85.7277Q48.4002 85.7065 48.4002 85.6783V83.3499Q48.4002 83.3217 48.4214 83.3006Q48.4426 83.2794 48.4708 83.2794H49.4021Q49.6067 83.2794 49.7655 83.3623Q49.9242 83.4452 50.0124 83.5898Q50.1006 83.7345 50.1006 83.9179Q50.1006 84.1543 49.9754 84.3236Q49.8502 84.4929 49.6491 84.5529Q49.8184 84.6058 49.9278 84.7628Q50.0371 84.9198 50.0371 85.1491Q50.0371 85.3855 50.0671 85.479Q50.0971 85.5724 50.1571 85.6112Q50.1959 85.6359 50.1959 85.6748ZM49.4198 84.5035Q49.642 84.4824 49.7972 84.3271Q49.9525 84.1719 49.9525 83.9214Q49.9525 83.7027 49.7972 83.5616Q49.642 83.4205 49.3845 83.4205H48.5484V84.5035ZM52.369 83.3464Q52.369 83.3782 52.3496 83.3958Q52.3302 83.4134 52.2984 83.4134H51.5117V85.6783Q51.5117 85.7065 51.4906 85.7277Q51.4694 85.7488 51.4412 85.7488Q51.4094 85.7488 51.39 85.7277Q51.3706 85.7065 51.3706 85.6783V83.4134H50.5839Q50.5557 83.4134 50.5345 83.394Q50.5134 83.3746 50.5134 83.3464Q50.5134 83.3182 50.5345 83.2988Q50.5557 83.2794 50.5839 83.2794H52.2984Q52.3267 83.2794 52.3478 83.2988Q52.369 83.3182 52.369 83.3464ZM54.6409 85.6748Q54.6409 85.7065 54.6215 85.7259Q54.6021 85.7453 54.5738 85.7453Q54.5527 85.7453 54.5421 85.7383Q54.4468 85.6853 54.3904 85.5601Q54.334 85.4349 54.334 85.1491Q54.334 84.8598 54.1787 84.7522Q54.0235 84.6446 53.8189 84.6446H52.9934V85.6783Q52.9934 85.7065 52.9722 85.7277Q52.9511 85.7488 52.9193 85.7488Q52.8876 85.7488 52.8664 85.7277Q52.8452 85.7065 52.8452 85.6783V83.3499Q52.8452 83.3217 52.8664 83.3006Q52.8876 83.2794 52.9158 83.2794H53.8471Q54.0517 83.2794 54.2105 83.3623Q54.3692 83.4452 54.4574 83.5898Q54.5456 83.7345 54.5456 83.9179Q54.5456 84.1543 54.4204 84.3236Q54.2952 84.4929 54.0941 84.5529Q54.2634 84.6058 54.3728 84.7628Q54.4821 84.9198 54.4821 85.1491Q54.4821 85.3855 54.5121 85.479Q54.5421 85.5724 54.6021 85.6112Q54.6409 85.6359 54.6409 85.6748ZM53.8648 84.5035Q54.087 84.4824 54.2422 84.3271Q54.3975 84.1719 54.3975 83.9214Q54.3975 83.7027 54.2422 83.5616Q54.087 83.4205 53.8295 83.4205H52.9934V84.5035ZM57.0398 83.3464V85.6712Q57.0398 85.71 57.0186 85.7294Q56.9974 85.7488 56.9657 85.7488Q56.9304 85.7488 56.9092 85.7206L55.3217 83.551V85.6889Q55.3217 85.7136 55.3023 85.7312Q55.2829 85.7488 55.2547 85.7488Q55.223 85.7488 55.2053 85.7312Q55.1877 85.7136 55.1877 85.6889V83.3499Q55.1877 83.3147 55.2071 83.297Q55.2265 83.2794 55.2512 83.2794Q55.2829 83.2794 55.3041 83.3041L56.9057 85.4878V83.3464Q56.9057 83.3182 56.9251 83.2988Q56.9445 83.2794 56.9727 83.2794Q57.0045 83.2794 57.0221 83.2988Q57.0398 83.3182 57.0398 83.3464Z" style="stroke:#000000;stroke-width:0.25;stroke-linecap:round;stroke-linejoin:bevel" />
        <path d="M46.5878 92.1783Q46.5878 92.21 46.5667 92.2294Q46.5455 92.2488 46.5173 92.2488H45.2226Q45.1908 92.2488 45.1714 92.2277Q45.152 92.2065 45.152 92.1783V89.8499Q45.152 89.8217 45.1732 89.8006Q45.1944 89.7794 45.2261 89.7794Q45.2579 89.7794 45.279 89.8006Q45.3002 89.8217 45.3002 89.8499V92.1077H46.5173Q46.5455 92.1077 46.5667 92.1289Q46.5878 92.1501 46.5878 92.1783Z" style="stroke:#000000;stroke-width:0.25;stroke-linecap:round;stroke-linejoin:bevel" />
        <path d="M46.6972 102.175Q46.6972 102.207 46.6778 102.226Q46.6584 102.245 46.6302 102.245Q46.609 102.245 46.5984 102.238Q46.5032 102.185 46.4467 102.06Q46.3903 101.935 46.3903 101.649Q46.3903 101.36 46.2351 101.252Q46.0798 101.145 45.8752 101.145H45.0497V102.178Q45.0497 102.207 45.0286 102.228Q45.0074 102.249 44.9756 102.249Q44.9439 102.249 44.9227 102.228Q44.9016 102.207 44.9016 102.178V99.8499Q44.9016 99.8217 44.9227 99.8006Q44.9439 99.7794 44.9721 99.7794H45.9034Q46.1081 99.7794 46.2668 99.8623Q46.4256 99.9452 46.5138 100.09Q46.6019 100.234 46.6019 100.418Q46.6019 100.654 46.4767 100.824Q46.3515 100.993 46.1504 101.053Q46.3197 101.106 46.4291 101.263Q46.5384 101.42 46.5384 101.649Q46.5384 101.885 46.5684 101.979Q46.5984 102.072 46.6584 102.111Q46.6972 102.136 46.6972 102.175ZM45.9211 101.004Q46.1433 100.982 46.2986 100.827Q46.4538 100.672 46.4538 100.421Q46.4538 100.203 46.2986 100.062Q46.1433 99.9205 45.8858 99.9205H45.0497V101.004Z" style="stroke:#000000;stroke-width:0.25;stroke-linecap:round;stroke-linejoin:bevel" />
        <path id="env_label" d="M44.1008 116.178Q44.1008 116.21 44.0796 116.229Q44.0584 116.249 44.0302 116.249H42.7002Q42.672 116.249 42.6508 116.228Q42.6297 116.207 42.6297 116.178V113.85Q42.6297 113.822 42.6508 113.801Q42.672 113.779 42.7002 113.779H44.0302Q44.0584 113.779 44.0796 113.801Q44.1008 113.822 44.1008 113.85Q44.1008 113.882 44.0796 113.901Q44.0584 113.921 44.0302 113.921H42.7778V114.905H43.8714Q43.8997 114.905 43.9208 114.926Q43.942 114.947 43.942 114.975Q43.942 115.007 43.9208 115.026Q43.8997 115.046 43.8714 115.046H42.7778V116.108H44.0302Q44.0584 116.108 44.0796 116.129Q44.1008 116.15 44.1008 116.178ZM46.482 113.846V116.171Q46.482 116.21 46.4608 116.229Q46.4397 116.249 46.4079 116.249Q46.3726 116.249 46.3515 116.221L44.764 114.051V116.189Q44.764 116.214 44.7446 116.231Q44.7252 116.249 44.6969 116.249Q44.6652 116.249 44.6476 116.231Q44.6299 116.214 44.6299 116.189V113.85Q44.6299 113.815 44.6493 113.797Q44.6687 113.779 44.6934 113.779Q44.7252 113.779 44.7463 113.804L46.3479 115.988V113.846Q46.3479 113.818 46.3673 113.799Q46.3868 113.779 46.415 113.779Q46.4467 113.779 46.4644 113.799Q46.482 113.818 46.482 113.846ZM49.0396 113.843Q49.0396 113.857 49.0326 113.878L48.066 116.203Q48.0448 116.249 47.9989 116.249Q47.9778 116.249 47.9584 116.236Q47.939 116.224 47.9319 116.203L46.9724 113.889Q46.9618 113.868 46.9618 113.846Q46.9618 113.818 46.9812 113.799Q47.0006 113.779 47.0288 113.779Q47.0817 113.779 47.1064 113.836L48.0025 115.991L48.9021 113.825Q48.9268 113.779 48.9691 113.779Q49.0008 113.779 49.0202 113.797Q49.0396 113.815 49.0396 113.843Z" style="stroke:#000000;stroke-width:0.25;stroke-linecap:round;stroke-linejoin:bevel" />
        <rect x="41.72" y="112.75" width="8" height="4.5" stroke="black" stroke-width="0.2" fill="none" />
        <path d="M 36.72,115.00 L 41.72,115.00 " style="stroke:#000000;stroke-width:0.25;stroke-linecap:round;stroke-linejoin:bevel;stroke-dasharray:none" fill="none" />
        <path d="M 54.72,115.00 L 49.72,115.00 " style="stroke:#000000;stroke-width:0.25;stroke-linecap:round;stroke-linejoin:bevel;stroke-dasharray:none" fill="none" />
        <path d="M11.6381 75.2404Q11.6381 75.2687 11.624 75.2863Q11.6029 75.3145 11.5711 75.3145Q11.557 75.3145 11.5288 75.3004Q11.2007 75.0782 10.8338 75.0782Q10.5375 75.0782 10.2888 75.2246Q10.0401 75.371 9.89542 75.6303Q9.75078 75.8896 9.75078 76.2141Q9.75078 76.5387 9.89542 76.798Q10.0401 77.0573 10.2888 77.2037Q10.5375 77.3501 10.8338 77.3501Q11.2042 77.3501 11.5252 77.1313Q11.5429 77.1172 11.5676 77.1172Q11.6029 77.1172 11.624 77.1454Q11.6381 77.1631 11.6381 77.1878Q11.6381 77.2231 11.6099 77.2442Q11.4723 77.343 11.2554 77.4136Q11.0384 77.4841 10.8338 77.4841Q10.4987 77.4841 10.2164 77.3183Q9.93422 77.1525 9.76842 76.8615Q9.60261 76.5704 9.60261 76.2141Q9.60261 75.8578 9.76842 75.5668Q9.93422 75.2757 10.2164 75.1099Q10.4987 74.9441 10.8338 74.9441Q11.0455 74.9441 11.2448 75.0076Q11.4441 75.0711 11.6064 75.184Q11.6381 75.2087 11.6381 75.2404ZM13.5502 77.3783Q13.5502 77.41 13.529 77.4294Q13.5079 77.4488 13.4796 77.4488H12.1849Q12.1532 77.4488 12.1338 77.4277Q12.1144 77.4065 12.1144 77.3783V75.0499Q12.1144 75.0217 12.1356 75.0006Q12.1567 74.9794 12.1885 74.9794Q12.2202 74.9794 12.2414 75.0006Q12.2626 75.0217 12.2626 75.0499V77.3077H13.4796Q13.5079 77.3077 13.529 77.3289Q13.5502 77.3501 13.5502 77.3783ZM14.9578 77.4841Q14.6156 77.4841 14.3475 77.3236Q14.0794 77.1631 13.9294 76.8738Q13.7795 76.5845 13.7795 76.2141Q13.7795 75.8437 13.9294 75.5544Q14.0794 75.2651 14.3475 75.1046Q14.6156 74.9441 14.9578 74.9441Q15.3 74.9441 15.5681 75.1046Q15.8362 75.2651 15.9861 75.5544Q16.1361 75.8437 16.1361 76.2141Q16.1361 76.5845 15.9861 76.8738Q15.8362 77.1631 15.5681 77.3236Q15.3 77.4841 14.9578 77.4841ZM14.9578 75.0852Q14.6579 75.0852 14.4233 75.2263Q14.1887 75.3674 14.0582 75.625Q13.9277 75.8825 13.9277 76.2141Q13.9277 76.5457 14.0582 76.8033Q14.1887 77.0608 14.4233 77.2019Q14.6579 77.343 14.9578 77.343Q15.2576 77.343 15.4922 77.2019Q15.7268 77.0608 15.8574 76.8033Q15.9879 76.5457 15.9879 76.2141Q15.9879 75.8825 15.8574 75.625Q15.7268 75.3674 15.4922 75.2263Q15.2576 75.0852 14.9578 75.0852ZM18.5244 75.2404Q18.5244 75.2687 18.5102 75.2863Q18.4891 75.3145 18.4573 75.3145Q18.4432 75.3145 18.415 75.3004Q18.0869 75.0782 17.72 75.0782Q17.4237 75.0782 17.175 75.2246Q16.9263 75.371 16.7816 75.6303Q16.637 75.8896 16.637 76.2141Q16.637 76.5387 16.7816 76.798Q16.9263 77.0573 17.175 77.2037Q17.4237 77.3501 17.72 77.3501Q18.0904 77.3501 18.4115 77.1313Q18.4291 77.1172 18.4538 77.1172Q18.4891 77.1172 18.5102 77.1454Q18.5244 77.1631 18.5244 77.1878Q18.5244 77.2231 18.4961 77.2442Q18.3586 77.343 18.1416 77.4136Q17.9246 77.4841 17.72 77.4841Q17.3849 77.4841 17.1027 77.3183Q16.8204 77.1525 16.6546 76.8615Q16.4888 76.5704 16.4888 76.2141Q16.4888 75.8578 16.6546 75.5668Q16.8204 75.2757 17.1027 75.1099Q17.3849 74.9441 17.72 74.9441Q17.9317 74.9441 18.131 75.0076Q18.3303 75.0711 18.4926 75.184Q18.5244 75.2087 18.5244 75.2404ZM20.8668 77.3924Q20.8668 77.4312 20.8403 77.4488Q20.8139 77.4665 20.7857 77.4665Q20.7574 77.4665 20.7363 77.4418L19.6779 76.133L19.1488 76.6233V77.3748Q19.1453 77.4065 19.1241 77.4277Q19.1029 77.4488 19.0747 77.4488Q19.0394 77.4488 19.02 77.4277Q19.0006 77.4065 19.0006 77.3748V75.0535Q19.0006 75.0217 19.0218 75.0006Q19.0429 74.9794 19.0747 74.9794Q19.1064 74.9794 19.1276 75.0006Q19.1488 75.0217 19.1488 75.0535V76.4434L20.6728 75.0147Q20.6939 74.9935 20.7222 74.9935Q20.7504 74.9935 20.7716 75.0147Q20.7927 75.0358 20.7927 75.0641Q20.7927 75.0923 20.7716 75.1134L19.7944 76.0236L20.8492 77.343Q20.8668 77.3677 20.8668 77.3924Z" style="stroke:#000000;stroke-width:0.25;stroke-linecap:round;stroke-linejoin:bevel" />
        <path d="M 36.72,44.00 L 54.72,44.00 z " style="stroke:#000000;stroke-width:0.25;stroke-linecap:round;stroke-linejoin:bevel;stroke-dasharray:none" />
        <path d="M43.7586 36.8464Q43.7586 36.8782 43.7392 36.8958Q43.7198 36.9134 43.688 36.9134H42.9013V39.1783Q42.9013 39.2065 42.8801 39.2277Q42.859 39.2488 42.8308 39.2488Q42.799 39.2488 42.7796 39.2277Q42.7602 39.2065 42.7602 39.1783V36.9134H41.9735Q41.9453 36.9134 41.9241 36.894Q41.9029 36.8746 41.9029 36.8464Q41.9029 36.8182 41.9241 36.7988Q41.9453 36.7794 41.9735 36.7794H43.688Q43.7162 36.7794 43.7374 36.7988Q43.7586 36.8182 43.7586 36.8464ZM44.3089 39.2488Q44.2736 39.2488 44.2542 39.2277Q44.2348 39.2065 44.2348 39.1747V36.8535Q44.2348 36.8217 44.256 36.8006Q44.2771 36.7794 44.3089 36.7794Q44.3406 36.7794 44.3618 36.8006Q44.383 36.8217 44.383 36.8535V39.1747Q44.3794 39.2065 44.3583 39.2277Q44.3371 39.2488 44.3089 39.2488ZM47.3075 36.8499V39.1783Q47.3075 39.2065 47.2846 39.2277Q47.2616 39.2488 47.2334 39.2488Q47.2017 39.2488 47.1805 39.2277Q47.1593 39.2065 47.1593 39.1783V37.0687L46.2492 38.4445Q46.2315 38.4727 46.1998 38.4727Q46.161 38.4727 46.1433 38.4445L45.2296 37.0651V39.1783Q45.2296 39.2065 45.2085 39.2277Q45.1873 39.2488 45.1591 39.2488Q45.1273 39.2488 45.1079 39.2277Q45.0885 39.2065 45.0885 39.1783V36.8499Q45.0885 36.8252 45.1079 36.8023Q45.1273 36.7794 45.1556 36.7794Q45.2014 36.7794 45.2226 36.8111L46.1998 38.2646L47.177 36.8111Q47.2052 36.7723 47.244 36.7794Q47.2722 36.7829 47.2899 36.8023Q47.3075 36.8217 47.3075 36.8499ZM49.4841 39.1783Q49.4841 39.21 49.463 39.2294Q49.4418 39.2488 49.4136 39.2488H48.0836Q48.0554 39.2488 48.0342 39.2277Q48.0131 39.2065 48.0131 39.1783V36.8499Q48.0131 36.8217 48.0342 36.8006Q48.0554 36.7794 48.0836 36.7794H49.4136Q49.4418 36.7794 49.463 36.8006Q49.4841 36.8217 49.4841 36.8499Q49.4841 36.8817 49.463 36.9011Q49.4418 36.9205 49.4136 36.9205H48.1612V37.9047H49.2548Q49.2831 37.9047 49.3042 37.9259Q49.3254 37.9471 49.3254 37.9753Q49.3254 38.0071 49.3042 38.0265Q49.2831 38.0459 49.2548 38.0459H48.1612V39.1077H49.4136Q49.4418 39.1077 49.463 39.1289Q49.4841 39.1501 49.4841 39.1783Z" style="stroke:#000000;stroke-width:0.25;stroke-linecap:round;stroke-linejoin:bevel" />
        <path d="M44.5329 17.1747Q44.5329 17.2065 44.5135 17.2259Q44.4941 17.2453 44.4659 17.2453Q44.4447 17.2453 44.4341 17.2383Q44.3389 17.1853 44.2824 17.0601Q44.226 16.9349 44.226 16.6491Q44.226 16.3598 44.0708 16.2522Q43.9155 16.1446 43.7109 16.1446H42.8854V17.1783Q42.8854 17.2065 42.8643 17.2277Q42.8431 17.2488 42.8113 17.2488Q42.7796 17.2488 42.7584 17.2277Q42.7373 17.2065 42.7373 17.1783V14.8499Q42.7373 14.8217 42.7584 14.8006Q42.7796 14.7794 42.8078 14.7794H43.7392Q43.9438 14.7794 44.1025 14.8623Q44.2613 14.9452 44.3495 15.0898Q44.4377 15.2345 44.4377 15.4179Q44.4377 15.6543 44.3124 15.8236Q44.1872 15.9929 43.9861 16.0529Q44.1554 16.1058 44.2648 16.2628Q44.3742 16.4198 44.3742 16.6491Q44.3742 16.8855 44.4041 16.979Q44.4341 17.0724 44.4941 17.1113Q44.5329 17.1359 44.5329 17.1747ZM43.7568 16.0035Q43.979 15.9824 44.1343 15.8271Q44.2895 15.6719 44.2895 15.4214Q44.2895 15.2027 44.1343 15.0616Q43.979 14.9205 43.7215 14.9205H42.8854V16.0035ZM46.5508 17.1783Q46.5508 17.21 46.5296 17.2294Q46.5085 17.2488 46.4802 17.2488H45.1503Q45.122 17.2488 45.1009 17.2277Q45.0797 17.2065 45.0797 17.1783V14.8499Q45.0797 14.8217 45.1009 14.8006Q45.122 14.7794 45.1503 14.7794H46.4802Q46.5085 14.7794 46.5296 14.8006Q46.5508 14.8217 46.5508 14.8499Q46.5508 14.8817 46.5296 14.9011Q46.5085 14.9205 46.4802 14.9205H45.2279V15.9047H46.3215Q46.3497 15.9047 46.3709 15.9259Q46.392 15.9471 46.392 15.9753Q46.392 16.0071 46.3709 16.0265Q46.3497 16.0459 46.3215 16.0459H45.2279V17.1077H46.4802Q46.5085 17.1077 46.5296 17.1289Q46.5508 17.1501 46.5508 17.1783ZM48.932 14.8429Q48.932 14.857 48.925 14.8782L47.9584 17.203Q47.9372 17.2488 47.8913 17.2488Q47.8702 17.2488 47.8508 17.2365Q47.8314 17.2241 47.8243 17.203L46.8648 14.8887Q46.8542 14.8676 46.8542 14.8464Q46.8542 14.8182 46.8736 14.7988Q46.893 14.7794 46.9212 14.7794Q46.9741 14.7794 46.9988 14.8358L47.8949 16.9913L48.7945 14.8253Q48.8192 14.7794 48.8615 14.7794Q48.8932 14.7794 48.9126 14.797Q48.932 14.8147 48.932 14.8429Z" style="stroke:#000000;stroke-width:0.25;stroke-linecap:round;stroke-linejoin:bevel" />
        <path d="M 40.72,16.00 L 42.72,13.50 L 48.92,13.50 L 50.92,16.00 L 48.92,18.50 L 42.72,18.50 z " style="stroke:#000000;stroke-width:0.25;stroke-linecap:round;stroke-linejoin:bevel;stroke-dasharray:none" fill="none" />
        <path d="M44.5752 28.8499Q44.5752 28.8817 44.5541 28.9011Q44.5329 28.9205 44.5047 28.9205H43.2453V29.8942H44.3459Q44.3742 29.8942 44.3953 29.9153Q44.4165 29.9365 44.4165 29.9647Q44.4165 29.9965 44.3953 30.0159Q44.3742 30.0353 44.3459 30.0353H43.2453V31.1783Q43.2453 31.2065 43.2259 31.2277Q43.2065 31.2488 43.1747 31.2488Q43.143 31.2488 43.1236 31.2277Q43.1042 31.2065 43.1042 31.1783V28.8499Q43.1042 28.8217 43.1253 28.8006Q43.1465 28.7794 43.1747 28.7794H44.5047Q44.5329 28.7794 44.5541 28.8006Q44.5752 28.8217 44.5752 28.8499ZM46.5402 31.1783Q46.5402 31.21 46.519 31.2294Q46.4979 31.2488 46.4697 31.2488H45.175Q45.1432 31.2488 45.1238 31.2277Q45.1044 31.2065 45.1044 31.1783V28.8499Q45.1044 28.8217 45.1256 28.8006Q45.1467 28.7794 45.1785 28.7794Q45.2102 28.7794 45.2314 28.8006Q45.2526 28.8217 45.2526 28.8499V31.1077H46.4697Q46.4979 31.1077 46.519 31.1289Q46.5402 31.1501 46.5402 31.1783ZM48.5299 29.4532Q48.5299 29.6508 48.447 29.8113Q48.3641 29.9718 48.2124 30.0617Q48.0607 30.1517 47.8631 30.1517H47.0941V31.1783Q47.0941 31.2065 47.0711 31.2277Q47.0482 31.2488 47.02 31.2488Q46.9882 31.2488 46.9671 31.2277Q46.9459 31.2065 46.9459 31.1783V28.8499Q46.9459 28.8217 46.9671 28.8006Q46.9882 28.7794 47.0165 28.7794H47.8631Q48.163 28.7794 48.3464 28.9664Q48.5299 29.1533 48.5299 29.4532ZM48.3817 29.4532Q48.3817 29.2098 48.2424 29.0651Q48.103 28.9205 47.8631 28.9205H47.0941V30.0106H47.8631Q48.0995 30.0106 48.2406 29.8536Q48.3817 29.6966 48.3817 29.4532Z" style="stroke:#000000;stroke-width:0.25;stroke-linecap:round;stroke-linejoin:bevel" />
        <path d="M 40.72,30.00 L 42.72,27.50 L 48.92,27.50 L 50.92,30.00 L 48.92,32.50 L 42.72,32.50 z " style="stroke:#000000;stroke-width:0.25;stroke-linecap:round;stroke-linejoin:bevel;stroke-dasharray:none" fill="none" />
        <path d="M12.4442 15.4499Q12.4442 15.4817 12.4231 15.5011Q12.4019 15.5205 12.3737 15.5205H11.1143V16.4942H12.2149Q12.2432 16.4942 12.2643 16.5153Q12.2855 16.5365 12.2855 16.5647Q12.2855 16.5965 12.2643 16.6159Q12.2432 16.6353 12.2149 16.6353H11.1143V17.7783Q11.1143 17.8065 11.0949 17.8277Q11.0755 17.8488 11.0437 17.8488Q11.012 17.8488 10.9926 17.8277Q10.9732 17.8065 10.9732 17.7783V15.4499Q10.9732 15.4217 10.9943 15.4006Q11.0155 15.3794 11.0437 15.3794H12.3737Q12.4019 15.3794 12.4231 15.4006Q12.4442 15.4217 12.4442 15.4499ZM14.9842 16.6141Q14.9842 16.9634 14.8731 17.2421Q14.762 17.5207 14.5327 17.6848Q14.3034 17.8488 13.9612 17.8488H13.044Q13.0157 17.8488 12.9946 17.8277Q12.9734 17.8065 12.9734 17.7783V15.4499Q12.9734 15.4217 12.9946 15.4006Q13.0157 15.3794 13.044 15.3794H13.9612Q14.2998 15.3794 14.5309 15.5487Q14.762 15.7181 14.8731 15.9985Q14.9842 16.279 14.9842 16.6141ZM14.8361 16.6141Q14.8361 16.3142 14.7391 16.0655Q14.642 15.8168 14.4392 15.6687Q14.2363 15.5205 13.9259 15.5205H13.1216V17.7077H13.9259Q14.3845 17.7077 14.6103 17.4061Q14.8361 17.1045 14.8361 16.6141ZM17.2773 17.1821Q17.2773 17.5031 17.0744 17.676Q16.8716 17.8488 16.5576 17.8488H15.584Q15.5557 17.8488 15.5346 17.8277Q15.5134 17.8065 15.5134 17.7783V15.4499Q15.5134 15.4217 15.5346 15.4006Q15.5557 15.3794 15.584 15.3794H16.5329Q16.8152 15.3794 16.9845 15.5417Q17.1538 15.7039 17.1538 15.9791Q17.1538 16.1767 17.055 16.3372Q16.9563 16.4977 16.7799 16.5577Q17.0057 16.6 17.1415 16.7623Q17.2773 16.9246 17.2773 17.1821ZM16.5153 15.5205H15.6616V16.5118H16.5153Q16.734 16.5083 16.8698 16.3689Q17.0057 16.2296 17.0057 15.9756Q17.0057 15.7674 16.8769 15.644Q16.7481 15.5205 16.5153 15.5205ZM17.1291 17.1821Q17.1291 16.921 16.9668 16.7887Q16.8046 16.6564 16.54 16.6564H15.6616V17.7077H16.54Q16.8046 17.7077 16.9668 17.5754Q17.1291 17.4431 17.1291 17.1821ZM19.6727 17.7924Q19.6727 17.8312 19.6462 17.8488Q19.6197 17.8665 19.5915 17.8665Q19.5633 17.8665 19.5421 17.8418L18.4838 16.533L17.9546 17.0233V17.7747Q17.9511 17.8065 17.9299 17.8277Q17.9088 17.8488 17.8805 17.8488Q17.8453 17.8488 17.8259 17.8277Q17.8065 17.8065 17.8065 17.7747V15.4535Q17.8065 15.4217 17.8276 15.4006Q17.8488 15.3794 17.8805 15.3794Q17.9123 15.3794 17.9335 15.4006Q17.9546 15.4217 17.9546 15.4535V16.8434L19.4786 15.4147Q19.4998 15.3935 19.528 15.3935Q19.5562 15.3935 19.5774 15.4147Q19.5986 15.4358 19.5986 15.4641Q19.5986 15.4923 19.5774 15.5134L18.6002 16.4236L19.655 17.743Q19.6727 17.7677 19.6727 17.7924Z" style="stroke:#000000;stroke-width:0.25;stroke-linecap:round;stroke-linejoin:bevel" />
        <path d="M 15.24,25.80 L 10.24,36.80 z L 20.24,36.80 z " style="stroke:#000000;stroke-width:0.25;stroke-linecap:round;stroke-linejoin:bevel;stroke-dasharray:none" />
        <path d="M 36.72,58.00 L 54.72,58.00 z " style="stroke:#000000;stroke-width:0.25;stroke-linecap:round;stroke-linejoin:bevel;stroke-dasharray:none" />
        <path d="M44.1854 51.4532Q44.1854 51.6507 44.1025 51.8113Q44.0196 51.9718 43.8679 52.0617Q43.7162 52.1517 43.5187 52.1517H42.7496V53.1783Q42.7496 53.2065 42.7267 53.2277Q42.7037 53.2488 42.6755 53.2488Q42.6438 53.2488 42.6226 53.2277Q42.6014 53.2065 42.6014 53.1783V50.8499Q42.6014 50.8217 42.6226 50.8006Q42.6438 50.7794 42.672 50.7794H43.5187Q43.8185 50.7794 44.002 50.9664Q44.1854 51.1533 44.1854 51.4532ZM44.0373 51.4532Q44.0373 51.2098 43.8979 51.0651Q43.7586 50.9205 43.5187 50.9205H42.7496V52.0106H43.5187Q43.755 52.0106 43.8961 51.8536Q44.0373 51.6966 44.0373 51.4532ZM46.5102 53.1818Q46.5102 53.2136 46.4891 53.2312Q46.4679 53.2488 46.4361 53.2488Q46.4114 53.2488 46.392 53.2365Q46.3726 53.2241 46.3656 53.203L46.0692 52.4763L46.0728 52.4833H44.891L44.6052 53.203Q44.5876 53.2488 44.5417 53.2488Q44.51 53.2488 44.4906 53.2312Q44.4712 53.2136 44.4676 53.1889Q44.4641 53.1747 44.4712 53.1536L45.4201 50.8182Q45.4307 50.79 45.4466 50.7812Q45.4625 50.7723 45.4872 50.7723Q45.5401 50.7723 45.5577 50.8182L46.5067 53.1536Q46.5102 53.1642 46.5102 53.1818ZM44.9474 52.3422H46.0163L45.4766 51.0122ZM48.8386 50.8464V53.1712Q48.8386 53.21 48.8174 53.2294Q48.7962 53.2488 48.7645 53.2488Q48.7292 53.2488 48.708 53.2206L47.1205 51.051V53.1889Q47.1205 53.2136 47.1011 53.2312Q47.0817 53.2488 47.0535 53.2488Q47.0217 53.2488 47.0041 53.2312Q46.9865 53.2136 46.9865 53.1889V50.8499Q46.9865 50.8147 47.0059 50.797Q47.0253 50.7794 47.05 50.7794Q47.0817 50.7794 47.1029 50.8041L48.7045 52.9878V50.8464Q48.7045 50.8182 48.7239 50.7988Q48.7433 50.7794 48.7715 50.7794Q48.8033 50.7794 48.8209 50.7988Q48.8386 50.8182 48.8386 50.8464Z" style="stroke:#000000;stroke-width:0.25;stroke-linecap:round;stroke-linejoin:bevel" />
        <path d="M 36.72,72.00 L 54.72,72.00 z " style="stroke:#000000;stroke-width:0.25;stroke-linecap:round;stroke-linejoin:bevel;stroke-dasharray:none" />
        <path d="M42.5027 67.1783Q42.5027 67.21 42.4815 67.2294Q42.4603 67.2488 42.4321 67.2488H41.1374Q41.1057 67.2488 41.0863 67.2277Q41.0669 67.2065 41.0669 67.1783V64.8499Q41.0669 64.8217 41.088 64.8006Q41.1092 64.7794 41.1409 64.7794Q41.1727 64.7794 41.1939 64.8006Q41.215 64.8217 41.215 64.8499V67.1077H42.4321Q42.4603 67.1077 42.4815 67.1289Q42.5027 67.1501 42.5027 67.1783ZM44.3794 67.1783Q44.3794 67.21 44.3583 67.2294Q44.3371 67.2488 44.3089 67.2488H42.9789Q42.9507 67.2488 42.9295 67.2277Q42.9084 67.2065 42.9084 67.1783V64.8499Q42.9084 64.8217 42.9295 64.8006Q42.9507 64.7794 42.9789 64.7794H44.3089Q44.3371 64.7794 44.3583 64.8006Q44.3794 64.8217 44.3794 64.8499Q44.3794 64.8817 44.3583 64.9011Q44.3371 64.9205 44.3089 64.9205H43.0565V65.9048H44.1501Q44.1784 65.9048 44.1995 65.9259Q44.2207 65.9471 44.2207 65.9753Q44.2207 66.0071 44.1995 66.0265Q44.1784 66.0459 44.1501 66.0459H43.0565V67.1077H44.3089Q44.3371 67.1077 44.3583 67.1289Q44.3794 67.1501 44.3794 67.1783ZM46.7607 64.8429Q46.7607 64.857 46.7536 64.8782L45.787 67.203Q45.7659 67.2488 45.72 67.2488Q45.6988 67.2488 45.6794 67.2365Q45.66 67.2241 45.653 67.203L44.6934 64.8888Q44.6828 64.8676 44.6828 64.8464Q44.6828 64.8182 44.7022 64.7988Q44.7216 64.7794 44.7499 64.7794Q44.8028 64.7794 44.8275 64.8358L45.7235 66.9913L46.6231 64.8253Q46.6478 64.7794 46.6901 64.7794Q46.7219 64.7794 46.7413 64.797Q46.7607 64.8147 46.7607 64.8429ZM48.708 67.1783Q48.708 67.21 48.6869 67.2294Q48.6657 67.2488 48.6375 67.2488H47.3075Q47.2793 67.2488 47.2581 67.2277Q47.2369 67.2065 47.2369 67.1783V64.8499Q47.2369 64.8217 47.2581 64.8006Q47.2793 64.7794 47.3075 64.7794H48.6375Q48.6657 64.7794 48.6869 64.8006Q48.708 64.8217 48.708 64.8499Q48.708 64.8817 48.6869 64.9011Q48.6657 64.9205 48.6375 64.9205H47.3851V65.9048H48.4787Q48.5069 65.9048 48.5281 65.9259Q48.5493 65.9471 48.5493 65.9753Q48.5493 66.0071 48.5281 66.0265Q48.5069 66.0459 48.4787 66.0459H47.3851V67.1077H48.6375Q48.6657 67.1077 48.6869 67.1289Q48.708 67.1501 48.708 67.1783ZM50.673 67.1783Q50.673 67.21 50.6518 67.2294Q50.6307 67.2488 50.6024 67.2488H49.3077Q49.276 67.2488 49.2566 67.2277Q49.2372 67.2065 49.2372 67.1783V64.8499Q49.2372 64.8217 49.2584 64.8006Q49.2795 64.7794 49.3113 64.7794Q49.343 64.7794 49.3642 64.8006Q49.3854 64.8217 49.3854 64.8499V67.1077H50.6024Q50.6307 67.1077 50.6518 67.1289Q50.673 67.1501 50.673 67.1783Z" style="stroke:#000000;stroke-width:0.25;stroke-linecap:round;stroke-linejoin:bevel" />
        <path d="M13.7583 49.8499Q13.7583 49.8817 13.7372 49.9011Q13.716 49.9205 13.6878 49.9205H12.4284V50.8942H13.529Q13.5573 50.8942 13.5784 50.9153Q13.5996 50.9365 13.5996 50.9647Q13.5996 50.9965 13.5784 51.0159Q13.5573 51.0353 13.529 51.0353H12.4284V52.1783Q12.4284 52.2065 12.409 52.2277Q12.3896 52.2488 12.3578 52.2488Q12.3261 52.2488 12.3067 52.2277Q12.2873 52.2065 12.2873 52.1783V49.8499Q12.2873 49.8217 12.3084 49.8006Q12.3296 49.7794 12.3578 49.7794H13.6878Q13.716 49.7794 13.7372 49.8006Q13.7583 49.8217 13.7583 49.8499ZM16.0831 52.1747Q16.0831 52.2065 16.0637 52.2259Q16.0443 52.2453 16.0161 52.2453Q15.9949 52.2453 15.9844 52.2382Q15.8891 52.1853 15.8327 52.0601Q15.7762 51.9349 15.7762 51.6491Q15.7762 51.3598 15.621 51.2522Q15.4658 51.1446 15.2612 51.1446H14.4357V52.1783Q14.4357 52.2065 14.4145 52.2277Q14.3933 52.2488 14.3616 52.2488Q14.3298 52.2488 14.3087 52.2277Q14.2875 52.2065 14.2875 52.1783V49.8499Q14.2875 49.8217 14.3087 49.8006Q14.3298 49.7794 14.3581 49.7794H15.2894Q15.494 49.7794 15.6528 49.8623Q15.8115 49.9452 15.8997 50.0898Q15.9879 50.2345 15.9879 50.4179Q15.9879 50.6543 15.8627 50.8236Q15.7374 50.9929 15.5363 51.0529Q15.7057 51.1058 15.815 51.2628Q15.9244 51.4198 15.9244 51.6491Q15.9244 51.8855 15.9544 51.979Q15.9844 52.0724 16.0443 52.1112Q16.0831 52.1359 16.0831 52.1747ZM15.307 51.0035Q15.5293 50.9824 15.6845 50.8271Q15.8397 50.6719 15.8397 50.4214Q15.8397 50.2027 15.6845 50.0616Q15.5293 49.9205 15.2718 49.9205H14.4357V51.0035ZM18.3656 52.1818Q18.3656 52.21 18.3444 52.2294Q18.3233 52.2488 18.2951 52.2488H16.5594Q16.5276 52.2488 16.5082 52.2259Q16.4888 52.203 16.4888 52.1747Q16.4888 52.1501 16.5029 52.1324L18.1681 49.9134H16.6299Q16.6017 49.9134 16.5806 49.894Q16.5594 49.8746 16.5594 49.8464Q16.5594 49.8182 16.5806 49.7988Q16.6017 49.7794 16.6299 49.7794H18.288Q18.3303 49.7794 18.3497 49.8006Q18.3691 49.8217 18.3691 49.8499Q18.3691 49.8746 18.355 49.8923L16.6934 52.1148H18.2951Q18.3233 52.1148 18.3444 52.1359Q18.3656 52.1571 18.3656 52.1818Z" style="stroke:#000000;stroke-width:0.25;stroke-linecap:round;stroke-linejoin:bevel" />
        <path d="M 10.24,51.00 L 12.24,48.50 L 18.44,48.50 L 20.44,51.00 L 18.44,53.50 L 12.24,53.50 z " style="stroke:#000000;stroke-width:0.25;stroke-linecap:round;stroke-linejoin:bevel;stroke-dasharray:none" fill="none" />
        <path d="M14.1923 64.0404Q14.1923 64.0687 14.1781 64.0863Q14.157 64.1145 14.1252 64.1145Q14.1111 64.1145 14.0829 64.1004Q13.7548 63.8782 13.3879 63.8782Q13.0916 63.8782 12.8429 64.0246Q12.5942 64.171 12.4495 64.4303Q12.3049 64.6896 12.3049 65.0141Q12.3049 65.3387 12.4495 65.598Q12.5942 65.8573 12.8429 66.0037Q13.0916 66.1501 13.3879 66.1501Q13.7583 66.1501 14.0794 65.9313Q14.097 65.9172 14.1217 65.9172Q14.157 65.9172 14.1781 65.9454Q14.1923 65.9631 14.1923 65.9878Q14.1923 66.0231 14.164 66.0442Q14.0264 66.143 13.8095 66.2136Q13.5925 66.2841 13.3879 66.2841Q13.0528 66.2841 12.7706 66.1183Q12.4883 65.9525 12.3225 65.6615Q12.1567 65.3704 12.1567 65.0141Q12.1567 64.6578 12.3225 64.3668Q12.4883 64.0757 12.7706 63.9099Q13.0528 63.7441 13.3879 63.7441Q13.5996 63.7441 13.7989 63.8076Q13.9982 63.8711 14.1605 63.984Q14.1923 64.0087 14.1923 64.0404ZM16.1043 66.1783Q16.1043 66.21 16.0831 66.2294Q16.062 66.2488 16.0338 66.2488H14.7391Q14.7073 66.2488 14.6879 66.2277Q14.6685 66.2065 14.6685 66.1783V63.8499Q14.6685 63.8217 14.6897 63.8006Q14.7108 63.7794 14.7426 63.7794Q14.7743 63.7794 14.7955 63.8006Q14.8167 63.8217 14.8167 63.8499V66.1077H16.0338Q16.062 66.1077 16.0831 66.1289Q16.1043 66.1501 16.1043 66.1783ZM18.3056 66.1748Q18.3056 66.2065 18.2862 66.2259Q18.2668 66.2453 18.2386 66.2453Q18.2174 66.2453 18.2069 66.2383Q18.1116 66.1853 18.0552 66.0601Q17.9987 65.9349 17.9987 65.6491Q17.9987 65.3598 17.8435 65.2522Q17.6883 65.1446 17.4837 65.1446H16.6582V66.1783Q16.6582 66.2065 16.637 66.2277Q16.6158 66.2488 16.5841 66.2488Q16.5523 66.2488 16.5312 66.2277Q16.51 66.2065 16.51 66.1783V63.8499Q16.51 63.8217 16.5312 63.8006Q16.5523 63.7794 16.5806 63.7794H17.5119Q17.7165 63.7794 17.8753 63.8623Q18.034 63.9452 18.1222 64.0898Q18.2104 64.2345 18.2104 64.4179Q18.2104 64.6543 18.0852 64.8236Q17.9599 64.9929 17.7588 65.0529Q17.9282 65.1058 18.0375 65.2628Q18.1469 65.4198 18.1469 65.6491Q18.1469 65.8855 18.1769 65.979Q18.2069 66.0724 18.2668 66.1112Q18.3056 66.1359 18.3056 66.1748ZM17.5295 65.0035Q17.7518 64.9824 17.907 64.8271Q18.0622 64.6719 18.0622 64.4214Q18.0622 64.2027 17.907 64.0616Q17.7518 63.9205 17.4943 63.9205H16.6582V65.0035Z" style="stroke:#000000;stroke-width:0.25;stroke-linecap:round;stroke-linejoin:bevel" />
        <path d="M 10.24,65.00 L 12.24,62.50 L 18.44,62.50 L 20.44,65.00 L 18.44,67.50 L 12.24,67.50 z " style="stroke:#000000;stroke-width:0.25;stroke-linecap:round;stroke-linejoin:bevel;stroke-dasharray:none" fill="none" />
    </g>
</svg>
