<?xml version="1.0" encoding="utf-8"?>
<svg xmlns="http://www.w3.org/2000/svg" width="60.96mm" height="128.50mm" viewBox="0 0 60.96 128.50">
    <g id="PanelLayer">
        <path d="M21.7712 110.478Q21.7712 110.51 21.75 110.529Q21.7288 110.549 21.7006 110.549H20.3389Q20.3036 110.549 20.2772 110.531Q20.2507 110.514 20.2507 110.475Q20.2507 110.454 20.2683 110.429L21.0974 109.505Q21.3196 109.268 21.4219 109.09Q21.5242 108.912 21.5242 108.739Q21.5242 108.475 21.3672 108.33Q21.2103 108.185 20.9175 108.185Q20.7234 108.185 20.577 108.272Q20.4306 108.358 20.3671 108.545Q20.3601 108.566 20.3442 108.584Q20.3283 108.602 20.3001 108.602Q20.2754 108.602 20.2489 108.584Q20.2225 108.566 20.2225 108.545Q20.2225 108.527 20.2401 108.482Q20.3213 108.27 20.5065 108.157Q20.6917 108.044 20.928 108.044Q21.2843 108.044 21.4819 108.231Q21.6795 108.418 21.6795 108.725Q21.6795 108.912 21.5771 109.109Q21.4748 109.307 21.2138 109.589L20.4941 110.408H21.7006Q21.7288 110.408 21.75 110.429Q21.7712 110.45 21.7712 110.478Z" style="stroke:#000000;stroke-width:0.25;stroke-linecap:round;stroke-linejoin:bevel" />
    </g>
</svg>
