<?xml version="1.0" encoding="utf-8"?>
<svg xmlns="http://www.w3.org/2000/svg" width="60.96mm" height="128.50mm" viewBox="0 0 60.96 128.50">
    <g id="PanelLayer">
        <path d="M8.57118 110.478Q8.57118 110.51 8.55001 110.529Q8.52884 110.549 8.50062 110.549H7.1389Q7.10362 110.549 7.07716 110.531Q7.0507 110.514 7.0507 110.475Q7.0507 110.454 7.06834 110.429L7.89737 109.505Q8.11962 109.268 8.22193 109.09Q8.32423 108.912 8.32423 108.739Q8.32423 108.475 8.16725 108.33Q8.01026 108.185 7.71745 108.185Q7.52343 108.185 7.37702 108.272Q7.23062 108.358 7.16712 108.545Q7.16006 108.566 7.14419 108.584Q7.12831 108.602 7.10009 108.602Q7.0754 108.602 7.04894 108.584Q7.02248 108.566 7.02248 108.545Q7.02248 108.527 7.04012 108.482Q7.12126 108.27 7.30647 108.157Q7.49168 108.044 7.72804 108.044Q8.08434 108.044 8.2819 108.231Q8.47945 108.418 8.47945 108.725Q8.47945 108.912 8.37715 109.109Q8.27484 109.307 8.01379 109.589L7.29412 110.408H8.50062Q8.52884 110.408 8.55001 110.429Q8.57118 110.45 8.57118 110.478Z" style="stroke:#000000;stroke-width:0.25;stroke-linecap:round;stroke-linejoin:bevel" />
    </g>
</svg>
