<?xml version="1.0" encoding="UTF-8" standalone="no"?>
<!-- Created with Inkscape (http://www.inkscape.org/) -->

<svg
   width="60.96mm"
   height="128.5mm"
   viewBox="0 0 60.96 128.5"
   version="1.1"
   id="svg5"
   inkscape:version="1.2 (dc2aeda, 2022-05-15)"
   sodipodi:docname="elastika.svg"
   xmlns:inkscape="http://www.inkscape.org/namespaces/inkscape"
   xmlns:sodipodi="http://sodipodi.sourceforge.net/DTD/sodipodi-0.dtd"
   xmlns:xlink="http://www.w3.org/1999/xlink"
   xmlns="http://www.w3.org/2000/svg"
   xmlns:svg="http://www.w3.org/2000/svg"
   xmlns:rdf="http://www.w3.org/1999/02/22-rdf-syntax-ns#"
   xmlns:cc="http://creativecommons.org/ns#"
   xmlns:dc="http://purl.org/dc/elements/1.1/">
  <title
     id="title3611">Sapphire Elastika</title>
  <sodipodi:namedview
     id="namedview7"
     pagecolor="#ffffff"
     bordercolor="#000000"
     borderopacity="0.25"
     inkscape:showpageshadow="2"
     inkscape:pageopacity="0.0"
     inkscape:pagecheckerboard="false"
     inkscape:deskcolor="#d1d1d1"
     inkscape:document-units="mm"
     showgrid="false"
     inkscape:zoom="1.6801556"
     inkscape:cx="35.710978"
     inkscape:cy="238.37078"
     inkscape:window-width="1300"
     inkscape:window-height="984"
     inkscape:window-x="575"
     inkscape:window-y="41"
     inkscape:window-maximized="0"
     inkscape:current-layer="PanelLayer"
     inkscape:lockguides="false" />
  <defs
     id="defs2">
    <rect
       x="50.429999"
       y="10.593057"
       width="124.74574"
       height="26.165019"
       id="rect509" />
    <rect
       x="47.110939"
       y="11.766477"
       width="137.35496"
       height="23.178909"
       id="rect453" />
    <rect
       x="32.22405"
       y="6.6716509"
       width="48.676804"
       height="19.599862"
       id="rect316" />

    <linearGradient
       inkscape:collect="always"
       id="gradient_fric"
       x1="2.7"
       y1="32.0"
       x2="2.7"
       y2="89.5"
       gradientUnits="userSpaceOnUse">

      <stop
         style="stop-color:#29aab4;stop-opacity:1;"
         offset="0"
         id="stop966" />
      <stop
         style="stop-color:#4f8df2;stop-opacity:0;"
         offset="1"
         id="stop968" />
     </linearGradient>
  </defs>
  <g
     inkscape:label="panel"
     inkscape:groupmode="layer"
     id="PanelLayer">
    <rect
       style="display:inline;fill:#4f8df2;fill-opacity:1;fill-rule:nonzero;stroke:#5021d4;stroke-width:0.401661;stroke-linecap:round;stroke-linejoin:round;stroke-dasharray:none;stroke-opacity:1;image-rendering:auto"
       id="rect13067"
       width="60.5"
       height="128.10001"
       x="0.2"
       y="0.2"
       inkscape:label="border_rect"
       sodipodi:insensitive="true" />
    <path
       style="fill:url(#gradient_fric);fill-opacity:1;stroke:#000000;stroke-width:0.1;stroke-linecap:square"
       d="M 2.70,32.00 8.25,28.50 13.80,32.00 13.80,86.00 8.25,89.50 2.70,86.00 z"
       id="boundary_fric"
       inkscape:label="boundary_fric"
       sodipodi:nodetypes="ccccccccc" />
    <path
       style="fill:#29aab4;fill-opacity:1;stroke:#000000;stroke-width:0.1;stroke-linecap:square"
       d="M 13.80,32.00 19.35,28.50 24.90,32.00 24.90,86.00 19.35,89.50 13.80,86.00 z"
       id="boundary_stif"
       inkscape:label="boundary_stif"
       sodipodi:nodetypes="ccccccccc" />
    <path
       style="fill:#29aab4;fill-opacity:1;stroke:#000000;stroke-width:0.1;stroke-linecap:square"
       d="M 24.90,32.00 30.45,28.50 36.00,32.00 36.00,86.00 30.45,89.50 24.90,86.00 z"
       id="boundary_span"
       inkscape:label="boundary_span"
       sodipodi:nodetypes="ccccccccc" />
    <path
       style="fill:#29aab4;fill-opacity:1;stroke:#000000;stroke-width:0.1;stroke-linecap:square"
       d="M 36.00,32.00 41.55,28.50 47.10,32.00 47.10,86.00 41.55,89.50 36.00,86.00 z"
       id="boundary_curl"
       inkscape:label="boundary_curl"
       sodipodi:nodetypes="ccccccccc" />
    <path
       style="fill:#29aab4;fill-opacity:1;stroke:#000000;stroke-width:0.1;stroke-linecap:square"
       d="M 47.10,32.00 52.65,28.50 58.20,32.00 58.20,86.00 52.65,89.50 47.10,86.00 z"
       id="boundary_tilt"
       inkscape:label="boundary_tilt"
       sodipodi:nodetypes="ccccccccc" />
    <g
       aria-label="sapphire"
       id="brand_text"
       style="fill:#0b0607;stroke:#000000;stroke-width:0.264999;stroke-linecap:square"
       transform="translate(4.4701496,-0.55982513)">
      <path
         d="m 10.804944,125.41509 q -0.05482,-0.0862 -0.05482,-0.1488 0,-0.0548 0.06265,-0.10181 0.03916,-0.0392 0.09398,-0.0392 0.07831,0 0.125304,0.0627 0.454228,0.65001 1.268705,0.65001 0.41507,0 0.72833,-0.20362 0.313261,-0.21145 0.313261,-0.56387 0,-0.36025 -0.274103,-0.54037 -0.274103,-0.18013 -0.751825,-0.2976 -0.634353,-0.15663 -1.002433,-0.41507 -0.36025,-0.26627 -0.36025,-0.74399 0,-0.46206 0.368081,-0.75966 0.368081,-0.30543 0.947613,-0.30543 0.321092,0 0.634352,0.12531 0.321092,0.1253 0.579532,0.3994 0.05482,0.047 0.05482,0.10965 0,0.0705 -0.05482,0.1253 -0.06265,0.0313 -0.10181,0.0313 -0.05482,0 -0.09398,-0.047 -0.407238,-0.4464 -1.049422,-0.4464 -0.41507,0 -0.704836,0.20362 -0.281935,0.20362 -0.281935,0.56387 0.02349,0.33675 0.305429,0.52471 0.289766,0.18012 0.845803,0.32109 0.399407,0.10181 0.657847,0.22712 0.266272,0.11747 0.422902,0.33675 0.15663,0.21928 0.15663,0.5717 0,0.49339 -0.383744,0.78315 -0.375912,0.28194 -0.98677,0.28194 -0.892792,0 -1.464493,-0.70484 z"
         style="stroke-width:0.265"
         id="path2060" />
      <path
         d="m 17.9316,122.13369 q 0.07048,0 0.109641,0.047 0.04699,0.047 0.04699,0.10964 v 3.59466 q 0,0.0627 -0.04699,0.10964 -0.04699,0.047 -0.109641,0.047 -0.07048,0 -0.117473,-0.047 -0.03916,-0.047 -0.03916,-0.10964 v -0.70484 q -0.195788,0.39941 -0.603026,0.67351 -0.407239,0.26628 -0.900624,0.26628 -0.51688,0 -0.93195,-0.26628 -0.41507,-0.2741 -0.650015,-0.74399 -0.234945,-0.47772 -0.234945,-1.06508 0,-0.57954 0.234945,-1.0416 0.242777,-0.46989 0.657847,-0.72833 0.41507,-0.26627 0.924118,-0.26627 0.509048,0 0.916287,0.26627 0.407238,0.26628 0.587363,0.71267 v -0.697 q 0,-0.0626 0.03916,-0.10964 0.04699,-0.047 0.117473,-0.047 z m -1.644617,3.68864 q 0.430733,0 0.77532,-0.22712 0.352417,-0.23494 0.548205,-0.64218 0.195788,-0.40724 0.195788,-0.90845 0,-0.47773 -0.195788,-0.87713 -0.195788,-0.39941 -0.548205,-0.62652 -0.344587,-0.23495 -0.77532,-0.23495 -0.430733,0 -0.783151,0.22711 -0.344586,0.21929 -0.540374,0.61869 -0.195788,0.39158 -0.195788,0.8928 0,0.50121 0.195788,0.90845 0.195788,0.40724 0.540374,0.64218 0.344586,0.22712 0.783151,0.22712 z"
         style="stroke-width:0.265"
         id="path2062" />
      <path
         d="m 21.205166,122.0867 q 0.51688,0 0.93195,0.25844 0.41507,0.25844 0.650015,0.71267 0.234945,0.45422 0.234945,1.02592 0,0.56387 -0.242777,1.02593 -0.234945,0.45423 -0.650015,0.7205 -0.41507,0.25844 -0.924118,0.25844 -0.469891,0 -0.861466,-0.23495 -0.391576,-0.23494 -0.642184,-0.66567 v 2.2633 q 0,0.0627 -0.04699,0.10964 -0.03916,0.047 -0.109641,0.047 -0.06265,0 -0.109641,-0.047 -0.04699,-0.047 -0.04699,-0.10964 v -5.20795 q 0,-0.0627 0.03916,-0.10964 0.04699,-0.047 0.117473,-0.047 0.07048,0 0.109641,0.047 0.04699,0.047 0.04699,0.10964 v 0.7205 q 0.234945,-0.4464 0.626521,-0.65785 0.391575,-0.21928 0.877129,-0.21928 z m -0.01566,3.7043 q 0.430733,0 0.775319,-0.21928 0.344587,-0.21928 0.540375,-0.61086 0.203619,-0.39157 0.203619,-0.87713 0,-0.48555 -0.203619,-0.86929 -0.195788,-0.39158 -0.540375,-0.61086 -0.344586,-0.21928 -0.775319,-0.21928 -0.438565,0 -0.790983,0.21928 -0.344586,0.21145 -0.540374,0.60302 -0.187956,0.38375 -0.187956,0.87713 0,0.49339 0.187956,0.88496 0.195788,0.38375 0.540374,0.60303 0.352418,0.21928 0.790983,0.21928 z"
         style="stroke-width:0.265"
         id="path2064" />
      <path
         d="m 25.864909,122.0867 q 0.51688,0 0.93195,0.25844 0.41507,0.25844 0.650015,0.71267 0.234946,0.45422 0.234946,1.02592 0,0.56387 -0.242777,1.02593 -0.234946,0.45423 -0.650016,0.7205 -0.41507,0.25844 -0.924118,0.25844 -0.46989,0 -0.861466,-0.23495 -0.391575,-0.23494 -0.642184,-0.66567 v 2.2633 q 0,0.0627 -0.04699,0.10964 -0.03916,0.047 -0.109641,0.047 -0.06265,0 -0.109641,-0.047 -0.04699,-0.047 -0.04699,-0.10964 v -5.20795 q 0,-0.0627 0.03916,-0.10964 0.04699,-0.047 0.117473,-0.047 0.07048,0 0.109641,0.047 0.04699,0.047 0.04699,0.10964 v 0.7205 q 0.234946,-0.4464 0.626521,-0.65785 0.391576,-0.21928 0.877129,-0.21928 z m -0.01566,3.7043 q 0.430733,0 0.77532,-0.21928 0.344586,-0.21928 0.540374,-0.61086 0.203619,-0.39157 0.203619,-0.87713 0,-0.48555 -0.203619,-0.86929 -0.195788,-0.39158 -0.540374,-0.61086 -0.344587,-0.21928 -0.77532,-0.21928 -0.438564,0 -0.790982,0.21928 -0.344587,0.21145 -0.540375,0.60302 -0.187956,0.38375 -0.187956,0.87713 0,0.49339 0.187956,0.88496 0.195788,0.38375 0.540375,0.60303 0.352418,0.21928 0.790982,0.21928 z"
         style="stroke-width:0.265"
         id="path2066" />
      <path
         d="m 30.415011,122.0867 q 0.67351,0 1.03376,0.43073 0.360249,0.4229 0.360249,1.08075 v 2.2868 q 0,0.0627 -0.04699,0.10964 -0.04699,0.047 -0.109641,0.047 -0.07048,0 -0.117473,-0.047 -0.03916,-0.047 -0.03916,-0.10964 v -2.2868 q 0,-0.54037 -0.266272,-0.87713 -0.266271,-0.33675 -0.814477,-0.33675 -0.336755,0 -0.665678,0.16446 -0.321092,0.16446 -0.524711,0.44639 -0.203619,0.28194 -0.203619,0.60303 v 2.2868 q 0,0.0627 -0.04699,0.10964 -0.04699,0.047 -0.109642,0.047 -0.07048,0 -0.117472,-0.047 -0.03916,-0.047 -0.03916,-0.10964 v -5.48206 q 0,-0.0626 0.04699,-0.10964 0.04699,-0.047 0.109641,-0.047 0.07048,0 0.109642,0.047 0.04699,0.047 0.04699,0.10964 v 2.47476 q 0.219282,-0.34459 0.603026,-0.56387 0.391575,-0.22711 0.790982,-0.22711 z"
         style="stroke-width:0.265"
         id="path2068" />
      <path
         d="m 33.422299,125.88498 q 0,0.0627 -0.04699,0.10964 -0.04699,0.047 -0.109641,0.047 -0.07048,0 -0.117473,-0.047 -0.03916,-0.047 -0.03916,-0.10964 v -3.71997 q 0,-0.0626 0.04699,-0.10964 0.04699,-0.047 0.109641,-0.047 0.07048,0 0.109641,0.047 0.04699,0.047 0.04699,0.10964 z m -0.15663,-4.40914 q -0.125304,0 -0.203619,-0.0705 -0.07048,-0.0705 -0.07048,-0.18013 v -0.0626 q 0,-0.10964 0.07832,-0.18012 0.07831,-0.0705 0.20362,-0.0705 0.109641,0 0.180124,0.0705 0.07831,0.0705 0.07831,0.18012 v 0.0626 q 0,0.10964 -0.07831,0.18013 -0.07048,0.0705 -0.187956,0.0705 z"
         style="stroke-width:0.265"
         id="path2070" />
      <path
         d="m 36.492245,122.00838 q 0.36025,0 0.36025,0.18013 0,0.0705 -0.03916,0.11747 -0.03916,0.047 -0.10181,0.047 -0.02349,0 -0.117472,-0.0313 -0.08615,-0.0392 -0.187956,-0.0392 -0.321092,0 -0.642184,0.25844 -0.321092,0.2506 -0.524711,0.64218 -0.20362,0.38374 -0.20362,0.74399 v 1.95788 q 0,0.0627 -0.04699,0.10964 -0.04699,0.047 -0.109641,0.047 -0.07048,0 -0.117473,-0.047 -0.03916,-0.047 -0.03916,-0.10964 v -3.59466 q 0,-0.0626 0.04699,-0.10964 0.04699,-0.047 0.109641,-0.047 0.07048,0 0.109641,0.047 0.04699,0.047 0.04699,0.10964 v 0.83014 q 0.180125,-0.47772 0.556037,-0.79099 0.383744,-0.31326 0.900624,-0.32109 z"
         style="stroke-width:0.265"
         id="path2072" />
      <path
         d="m 40.525449,125.10183 q 0.05482,0 0.09398,0.047 0.03916,0.0392 0.03916,0.094 0,0.0548 -0.03133,0.094 -0.25844,0.34459 -0.642184,0.56387 -0.383744,0.21929 -0.822309,0.21929 -0.587363,0 -1.041591,-0.25061 -0.454227,-0.25061 -0.712667,-0.71267 -0.250608,-0.46206 -0.250608,-1.07292 0,-0.62652 0.242776,-1.09641 0.250609,-0.47772 0.657847,-0.72833 0.407239,-0.25061 0.869298,-0.25061 0.462059,0 0.853635,0.20362 0.399407,0.19579 0.650015,0.5952 0.250608,0.3994 0.266271,0.98677 0,0.0627 -0.04699,0.11747 -0.04699,0.047 -0.109641,0.047 h -3.077783 v 0.10181 q 0,0.48555 0.195787,0.89279 0.195788,0.39941 0.579532,0.63435 0.383744,0.23495 0.924118,0.23495 0.375913,0 0.704836,-0.18013 0.336755,-0.18795 0.524711,-0.46989 0.05482,-0.0705 0.133136,-0.0705 z m -1.597628,-2.78019 q -0.289766,0 -0.595195,0.15663 -0.297597,0.1488 -0.532543,0.45423 -0.227113,0.2976 -0.305428,0.72833 h 2.881995 v -0.0705 q -0.03916,-0.39941 -0.25844,-0.68134 -0.21145,-0.28977 -0.532542,-0.43857 -0.313261,-0.1488 -0.657847,-0.1488 z"
         style="stroke-width:0.265"
         id="path2074" />
    </g>
    <g
       aria-label="gemstone1"
       id="gem1"
       style="fill:#0000ff;stroke:#2e2114;stroke-width:0;stroke-linecap:square;stroke-opacity:1"
       transform="translate(4.7625002,-0.52916667)">
      <path
         d="m 7.7984528,123.2582 q 0,0.34175 -0.2425346,0.63114 -0.044097,0.0524 -0.2039495,0.21497 -0.187413,0.19017 -0.7854811,0.81304 l -1.444183,1.51309 q -0.019292,0.003 -0.044097,0.003 -0.027561,0 -0.041341,-0.003 -0.082682,-0.0827 -0.6476774,-0.67524 -0.4685327,-0.47405 -0.9343092,-0.94809 -0.556727,-0.56775 -0.8984802,-0.98116 -0.1322916,-0.15985 -0.1681206,-0.29766 -0.027561,-0.10197 -0.027561,-0.34175 0,-0.11024 0.071658,-0.28939 0.066146,-0.16536 0.1405598,-0.26458 0.1185112,-0.1571 0.4216794,-0.42444 0.2838756,-0.2508 0.4740448,-0.37482 0.2728513,-0.17915 0.818554,-0.36656 0.096463,-0.0331 0.110243,-0.0331 h 1.3615007 q 0.011024,0 0.1047308,0.0331 0.5677513,0.20119 0.8240662,0.36656 0.1653645,0.10473 0.4740448,0.37758 0.3224607,0.28387 0.4216794,0.42168 0.2149738,0.2949 0.2149737,0.62563 z m -0.1681206,-0.27286 q -0.033073,-0.10748 -0.1350476,-0.30868 -0.071658,-0.0937 -0.2094616,-0.19843 -0.1185112,-0.0854 -0.2342664,-0.17088 0.2452907,0.3638 0.5787756,0.67799 z m -0.5732634,-0.52365 -0.3582897,-0.44648 v 0.41065 z m 0.6366532,0.75792 q 0,-0.0524 -0.3417533,-0.39412 l 0.2287542,0.7028 h 0.049609 q 0.06339,-0.21773 0.06339,-0.30868 z m -0.2315103,0.27285 -0.3169485,-0.90399 -0.4106551,-0.0634 -0.1598523,0.6146 z m 0.00276,0.15434 -0.7717008,-0.3197 h -0.030317 l 0.3445093,0.60633 q 0.079926,-0.003 0.2342663,-0.0469 0.024805,-0.0138 0.223242,-0.23978 z m -0.8571391,-1.05006 -0.7193354,0.28387 0.6035803,0.226 z m 0,-0.16261 v -0.51539 l -0.9177728,-0.38033 h -1.223697 l -0.9177727,0.38033 v 0.51539 l 0.8984802,0.4079 h 1.2540138 z m 0.5732634,1.53789 q -0.068902,0.011 -0.1984373,0.0524 -0.085438,0.0551 -0.259071,0.16261 0.019292,0 0.06339,0.003 0.041341,0 0.06339,0 0.1185112,0 0.1901691,-0.0689 0.071658,-0.0717 0.1405598,-0.14883 z m -0.2893878,0.003 -0.3472653,-0.63115 -0.3638018,0.87919 q 0.024805,-0.0165 0.066146,-0.0165 0.030317,0 0.085438,0.011 0.057878,0.008 0.088194,0.008 0.049609,0 0.2287542,-0.10749 0.2287542,-0.1378 0.2425345,-0.14331 z m -0.4409719,-0.74139 -0.6835064,-0.27561 -0.592556,0.54846 0.9039924,0.65595 z m -0.854383,-0.28387 H 4.5600655 l 0.5236541,0.47404 z m 0.7496522,1.36701 q -0.2287541,-0.0303 -0.2287541,-0.0303 -0.035829,0 -0.2728514,0.0937 l 0.1901691,0.0193 q 0.011024,0 0.3114364,-0.0827 z m -0.3886065,-0.0882 -0.8433587,-0.61184 v 0.67523 l 0.4712887,0.0827 z m 0.8543831,0.0496 q -0.099219,0.006 -0.2949,0.0386 -0.011024,0.003 -0.3775821,0.17639 -0.1295355,0.34726 -0.3803383,1.04179 z m -2.5438566,-1.39733 -0.7193354,-0.28387 0.1240233,0.51814 z M 3.465904,122.42586 v -0.41065 l -0.3665579,0.44648 z m 1.5158408,1.07211 -0.5925559,-0.54019 -0.6835065,0.27561 0.3803383,0.9288 z m 0.369314,0.94258 q -0.033073,-0.003 -0.1350476,-0.0248 -0.085438,-0.0165 -0.1378038,-0.0165 -0.052365,0 -0.1378037,0.0165 -0.1019747,0.022 -0.1350476,0.0248 0.2645831,0.0469 0.2728513,0.0469 0.00827,0 0.2728514,-0.0469 z m -0.3086803,-0.1378 v -0.68626 l -0.8433588,0.61184 0.3720701,0.14608 z m 0.9508456,0.2067 -0.3968747,-0.0551 -0.4795569,0.14056 v 1.27606 z m -2.8883659,-2.2021 q -0.1185112,0.0854 -0.2342663,0.17363 -0.1460719,0.10749 -0.2094616,0.19568 -0.044097,0.10474 -0.1350477,0.3142 0.369314,-0.3638 0.5787756,-0.68351 z m 0.4768009,0.83233 -0.1598523,-0.6146 -0.4106551,0.0634 -0.3169485,0.90399 z m 0.3941186,1.08314 -0.3638018,-0.87919 -0.3555336,0.63115 q 0.4354598,0.2508 0.4519962,0.2508 0.09095,0 0.2673392,-0.003 z m 1.8217651,0.82958 q -0.1322915,0.21222 -0.4051429,0.6339 -0.07717,0.10748 -0.2204859,0.32797 -0.057878,0.10473 -0.055122,0.226 0.1598523,-0.15159 0.4327036,-0.49609 0.07717,-0.12954 0.1405598,-0.339 0.055122,-0.17639 0.1074874,-0.35278 z m -1.4937922,-0.66146 -0.2700953,-0.0882 -0.00827,-0.011 q -0.024805,0 -0.1074869,0.011 -0.066146,0.006 -0.1074869,0.006 0.2728513,0.0909 0.3114364,0.0909 0.024805,0 0.1819009,-0.008 z M 3.4934647,123.3271 h -0.030317 l -0.7717008,0.3197 q 0.066146,0.0965 0.223242,0.23978 0.07717,0.0138 0.2342663,0.0469 z m -0.6890186,-0.50161 q -0.3417532,0.34727 -0.3417532,0.39412 0,0.0799 0.06339,0.30868 h 0.049609 z m 2.2351763,3.04546 v -1.27606 l -0.4795569,-0.14056 -0.3968747,0.0551 z m -1.6067913,-1.67569 q -0.2563149,-0.1819 -0.4575084,-0.22324 0.066146,0.0772 0.2039495,0.22324 z m 1.6095474,2.04501 v -0.13781 L 4.3588721,125.0524 q 0.052365,0.17639 0.1074868,0.35278 0.06339,0.20946 0.1405598,0.339 0.068902,0.11851 0.2039495,0.25907 0.1157552,0.11851 0.2315103,0.23702 z m -0.6449214,-0.70556 q -0.1157551,-0.32797 -0.3803383,-1.04179 -0.1350476,-0.0661 -0.2728513,-0.12954 -0.1598523,-0.0717 -0.2893878,-0.0717 -0.052365,0 -0.110243,-0.0138 z"
         style="font-size:5.64444px;fill:#0000ff;stroke:#2e2114;stroke-opacity:1"
         id="path1186" />
    </g>
    <g
       aria-label="gemstone2"
       id="gem2"
       style="fill:#0000ff;stroke:#000000;stroke-width:0;stroke-linecap:square"
       transform="translate(5.5321767,-0.85493785)">
      <path
         d="m 47.771429,123.55357 q 0,0.34175 -0.242534,0.63114 -0.0441,0.0524 -0.20395,0.21497 -0.187413,0.19017 -0.785481,0.81304 l -1.444183,1.51309 q -0.01929,0.003 -0.0441,0.003 -0.02756,0 -0.04134,-0.003 -0.08268,-0.0827 -0.647678,-0.67524 -0.468532,-0.47404 -0.934309,-0.94809 -0.556727,-0.56775 -0.89848,-0.98116 -0.132292,-0.15985 -0.168121,-0.29766 -0.02756,-0.10197 -0.02756,-0.34175 0,-0.11024 0.07166,-0.28939 0.06614,-0.16536 0.140559,-0.26458 0.118512,-0.1571 0.42168,-0.42444 0.283875,-0.2508 0.474044,-0.37482 0.272852,-0.17915 0.818555,-0.36656 0.09646,-0.0331 0.110243,-0.0331 h 1.3615 q 0.01102,0 0.104731,0.0331 0.567751,0.20119 0.824066,0.36656 0.165365,0.10473 0.474045,0.37758 0.322461,0.28388 0.421679,0.42168 0.214974,0.2949 0.214974,0.62563 z m -0.16812,-0.27285 q -0.03307,-0.10749 -0.135048,-0.30868 -0.07166,-0.0937 -0.209462,-0.19844 -0.118511,-0.0854 -0.234266,-0.17088 0.245291,0.3638 0.578776,0.678 z m -0.573264,-0.52366 -0.358289,-0.44648 v 0.41065 z m 0.636653,0.75792 q 0,-0.0524 -0.341753,-0.39412 l 0.228754,0.7028 h 0.04961 q 0.06339,-0.21773 0.06339,-0.30868 z m -0.23151,0.27285 -0.316948,-0.90399 -0.410655,-0.0634 -0.159853,0.61461 z m 0.0028,0.15434 -0.771701,-0.3197 h -0.03032 l 0.344509,0.60634 q 0.07993,-0.003 0.234266,-0.0469 0.02481,-0.0138 0.223242,-0.23978 z m -0.857139,-1.05006 -0.719335,0.28388 0.60358,0.22599 z m 0,-0.16261 v -0.51538 l -0.917773,-0.38034 h -1.223697 l -0.917772,0.38034 v 0.51538 l 0.89848,0.4079 h 1.254014 z m 0.573264,1.53789 q -0.0689,0.011 -0.198438,0.0524 -0.08544,0.0551 -0.259071,0.16261 0.01929,0 0.06339,0.003 0.04134,0 0.06339,0 0.118511,0 0.190169,-0.0689 0.07166,-0.0717 0.14056,-0.14883 z m -0.289388,0.003 -0.347266,-0.63114 -0.363801,0.87918 q 0.0248,-0.0165 0.06615,-0.0165 0.03032,0 0.08544,0.011 0.05788,0.008 0.08819,0.008 0.04961,0 0.228754,-0.10749 0.228754,-0.1378 0.242535,-0.14331 z m -0.440972,-0.74139 -0.683507,-0.2756 -0.592556,0.54845 0.903993,0.65595 z m -0.854383,-0.28387 h -1.036284 l 0.523654,0.47404 z m 0.749652,1.36701 q -0.228754,-0.0303 -0.228754,-0.0303 -0.03583,0 -0.272851,0.0937 l 0.190169,0.0193 q 0.01102,0 0.311436,-0.0827 z m -0.388606,-0.0882 -0.843359,-0.61185 v 0.67524 l 0.471289,0.0827 z m 0.854383,0.0496 q -0.09922,0.006 -0.2949,0.0386 -0.01102,0.003 -0.377583,0.17639 -0.129535,0.34726 -0.380338,1.0418 z m -2.543857,-1.39733 -0.719335,-0.28388 0.124023,0.51814 z m -0.802018,-0.45476 v -0.41065 l -0.366557,0.44648 z m 1.515841,1.07212 -0.592556,-0.54019 -0.683506,0.2756 0.380338,0.9288 z m 0.369314,0.94257 q -0.03307,-0.003 -0.135047,-0.0248 -0.08544,-0.0165 -0.137804,-0.0165 -0.05237,0 -0.137804,0.0165 -0.101975,0.0221 -0.135047,0.0248 0.264583,0.0469 0.272851,0.0469 0.0083,0 0.272851,-0.0469 z m -0.30868,-0.1378 v -0.68626 l -0.843359,0.61185 0.37207,0.14607 z m 0.950846,0.20671 -0.396875,-0.0551 -0.479557,0.14056 v 1.27607 z m -2.888366,-2.20211 q -0.118512,0.0854 -0.234267,0.17364 -0.146072,0.10748 -0.209461,0.19568 -0.0441,0.10473 -0.135048,0.31419 0.369314,-0.3638 0.578776,-0.68351 z m 0.476801,0.83234 -0.159853,-0.61461 -0.410655,0.0634 -0.316948,0.90399 z m 0.394118,1.08313 -0.363802,-0.87918 -0.355533,0.63114 q 0.43546,0.2508 0.451996,0.2508 0.09095,0 0.267339,-0.003 z m 1.821765,0.82958 q -0.132291,0.21222 -0.405143,0.6339 -0.07717,0.10749 -0.220486,0.32797 -0.05788,0.10473 -0.05512,0.226 0.159852,-0.15158 0.432704,-0.49609 0.07717,-0.12954 0.140559,-0.339 0.05512,-0.17639 0.107486,-0.35278 z m -1.493792,-0.66146 -0.270095,-0.0882 -0.0083,-0.011 q -0.02481,0 -0.107487,0.011 -0.06615,0.006 -0.107487,0.006 0.272851,0.091 0.311436,0.091 0.02481,0 0.181901,-0.008 z m -0.810286,-1.06384 h -0.03032 l -0.7717,0.3197 q 0.06615,0.0965 0.223242,0.23978 0.07717,0.0138 0.234266,0.0469 z m -0.689018,-0.50161 q -0.341754,0.34727 -0.341754,0.39412 0,0.0799 0.06339,0.30868 h 0.04961 z m 2.235176,3.04547 v -1.27607 l -0.479557,-0.14056 -0.396875,0.0551 z m -1.606791,-1.6757 q -0.256315,-0.1819 -0.457509,-0.22324 0.06615,0.0772 0.20395,0.22324 z m 1.609547,2.04501 v -0.1378 l -0.683507,-1.05007 q 0.05237,0.17639 0.107487,0.35278 0.06339,0.20946 0.14056,0.339 0.0689,0.11851 0.20395,0.25907 0.115755,0.11851 0.23151,0.23702 z m -0.644921,-0.70555 q -0.115756,-0.32798 -0.380339,-1.0418 -0.135047,-0.0662 -0.272851,-0.12954 -0.159852,-0.0716 -0.289388,-0.0716 -0.05237,0 -0.110243,-0.0138 z"
         style="font-size:5.64444px;fill:#0000ff;stroke:#cdf812"
         id="path1183" />
    </g>
    <g
       aria-label="elastika"
       id="text774"
       style="font-size:7.76111px;font-family:Quicksand;-inkscape-font-specification:'Quicksand, Normal';stroke:#000000;stroke-width:0.2;stroke-linecap:round;stroke-linejoin:round"
       inkscape:label="module_text"
       transform="translate(0,0.52916667)">
      <path
         d="m 21.156433,5.2651893 q 0,0.093133 -0.06985,0.1629833 -0.06985,0.062089 -0.162983,0.062089 h -2.9337 q 0,0.4656666 0.186267,0.8381999 0.194028,0.3647721 0.543278,0.5820832 0.357011,0.20955 0.838199,0.20955 0.372534,0 0.667456,-0.1552222 0.294922,-0.1552222 0.473428,-0.3958166 0.08537,-0.06985 0.162983,-0.06985 0.07761,0 0.1397,0.062089 0.06209,0.062089 0.06209,0.1396999 0,0.085372 -0.07761,0.1629833 -0.248356,0.3026833 -0.62865,0.4967111 -0.372533,0.1940277 -0.791633,0.1940277 -0.597606,0 -1.055511,-0.2561166 Q 18.051989,7.0424835 17.795873,6.584578 17.539756,6.1189114 17.539756,5.5135448 q 0,-0.636411 0.248355,-1.1098387 0.256117,-0.4811888 0.675217,-0.7295443 0.4191,-0.2561166 0.892528,-0.2561166 0.465666,0 0.869244,0.2173111 0.411339,0.217311 0.667455,0.636411 0.256117,0.4190999 0.263878,0.993422 z M 19.355856,3.8681895 q -0.450145,0 -0.8382,0.3104444 -0.380295,0.3104444 -0.48895,0.8925277 h 2.646538 V 5.0090726 Q 20.636444,4.6598226 20.442411,4.403706 20.248383,4.1398283 19.953461,4.0078894 19.6663,3.8681894 19.355856,3.8681895 Z"
         id="path874" />
      <path
         d="m 22.631042,7.2442723 q 0,0.1008945 -0.06985,0.1707444 -0.06209,0.062089 -0.162983,0.062089 -0.100895,0 -0.170745,-0.062089 -0.06209,-0.06985 -0.06209,-0.1707444 V 1.9667176 q 0,-0.1008944 0.06209,-0.1629833 0.06985,-0.06985 0.170745,-0.06985 0.100894,0 0.162983,0.06985 0.06985,0.062089 0.06985,0.1629833 z"
         id="path876" />
      <path
         d="m 27.124721,3.5111785 q 0.100895,0 0.162983,0.06985 0.06985,0.06985 0.06985,0.1707444 v 3.4924994 q 0,0.1008945 -0.06985,0.1707444 -0.06209,0.062089 -0.162983,0.062089 -0.100894,0 -0.170744,-0.062089 -0.06209,-0.06985 -0.06209,-0.1707444 V 6.724278 q -0.194028,0.3492499 -0.582083,0.5898443 -0.388056,0.2405944 -0.845961,0.2405944 -0.519995,0 -0.939095,-0.2716388 Q 24.11341,7.011439 23.872815,6.5380113 23.639982,6.0645836 23.639982,5.4747393 q 0,-0.5898444 0.240594,-1.055511 0.240595,-0.4734277 0.651933,-0.7373054 0.4191,-0.2638777 0.923573,-0.2638777 0.465666,0 0.853722,0.2250722 0.388055,0.2250721 0.582083,0.5898443 V 3.7517729 q 0,-0.1008944 0.06209,-0.1707444 0.06985,-0.06985 0.170744,-0.06985 z M 25.51041,7.1200946 q 0.403578,0 0.721783,-0.20955 0.325967,-0.2173111 0.504473,-0.5898443 0.186266,-0.3802944 0.186266,-0.845961 0,-0.4501444 -0.186266,-0.8226777 Q 26.55816,4.2795284 26.232193,4.0699784 25.913988,3.8526673 25.51041,3.8526673 q -0.403577,0 -0.729544,0.20955 -0.318206,0.20955 -0.504472,0.5820832 -0.178506,0.3647722 -0.178506,0.8304388 0,0.4656666 0.178506,0.845961 0.178505,0.3725332 0.496711,0.5898443 0.325966,0.20955 0.737305,0.20955 z"
         id="path878" />
      <path
         d="m 28.350971,6.8484557 q -0.06209,-0.1008944 -0.06209,-0.1707444 0,-0.1008944 0.100894,-0.1552222 0.04657,-0.046567 0.124178,-0.046567 0.09313,0 0.170745,0.077611 0.457905,0.6053666 1.218494,0.6053666 0.372533,0 0.644172,-0.1707444 0.2794,-0.1785055 0.2794,-0.5122333 0,-0.3259666 -0.256117,-0.4889499 Q 30.314532,5.8239892 29.856626,5.7075726 29.212454,5.5445893 28.847682,5.2884726 28.48291,5.0245949 28.48291,4.5201228 q 0,-0.3182055 0.178505,-0.566561 0.178506,-0.2561167 0.481189,-0.3958166 0.310445,-0.1397 0.6985,-0.1397 0.333728,0 0.667455,0.1319388 0.341489,0.1241778 0.582084,0.4035778 0.06985,0.054328 0.06985,0.1552222 0,0.093133 -0.07761,0.1629833 -0.05433,0.046567 -0.1397,0.046567 -0.07761,0 -0.1397,-0.062089 Q 30.617215,4.0466951 30.361098,3.9380395 30.104982,3.829384 29.81006,3.829384 q -0.364773,0 -0.62865,0.1707444 -0.256117,0.1707444 -0.256117,0.5122333 0.01552,0.3104444 0.2794,0.4734277 0.271639,0.1629833 0.791633,0.2949221 0.403578,0.1008945 0.667456,0.2250722 0.263877,0.1241778 0.426861,0.34925 0.170744,0.2250721 0.170744,0.5976054 0,0.5044722 -0.403578,0.8071554 -0.403577,0.2949222 -1.001183,0.2949222 -0.946855,0 -1.505655,-0.706261 z"
         id="path880" />
      <path
         d="m 32.992113,3.9613229 v 2.5999718 q 0,0.2949221 0.108656,0.4035777 0.108655,0.1008944 0.287161,0.1008944 0.04657,0 0.116417,-0.015522 0.06985,-0.023283 0.108655,-0.023283 0.06985,0 0.116417,0.062089 0.05433,0.054328 0.05433,0.1319389 0,0.1086555 -0.124178,0.1862666 -0.124178,0.06985 -0.294922,0.06985 -0.20955,0 -0.372534,-0.038805 Q 32.82913,7.3994945 32.673908,7.2054668 32.526447,7.011439 32.526447,6.584578 V 3.9613229 h -0.566561 q -0.09313,0 -0.162983,-0.062089 -0.06209,-0.062089 -0.06209,-0.1552222 0,-0.093133 0.06209,-0.1552222 0.06985,-0.062089 0.162983,-0.062089 h 0.566561 v -0.861483 q 0,-0.1008944 0.06209,-0.1629833 0.06985,-0.06985 0.170744,-0.06985 0.100895,0 0.162983,0.06985 0.06985,0.062089 0.06985,0.1629833 v 0.8614832 h 0.776111 q 0.08537,0 0.147461,0.06985 0.06985,0.06985 0.06985,0.1552222 0,0.093133 -0.06209,0.1552222 -0.06209,0.054328 -0.155223,0.054328 z"
         id="path882" />
      <path
         d="m 35.297153,7.2442723 q 0,0.1008945 -0.06985,0.1707444 -0.06209,0.062089 -0.162983,0.062089 -0.100895,0 -0.170745,-0.062089 -0.06209,-0.06985 -0.06209,-0.1707444 V 3.6741618 q 0,-0.1008944 0.06209,-0.1629833 0.06985,-0.06985 0.170745,-0.06985 0.100894,0 0.162983,0.06985 0.06985,0.062089 0.06985,0.1629833 z M 35.06432,2.9213341 q -0.155222,0 -0.240595,-0.06985 -0.08537,-0.077611 -0.08537,-0.2173111 V 2.556562 q 0,-0.1397 0.08537,-0.20955 0.09313,-0.077611 0.248356,-0.077611 0.310444,0 0.310444,0.2871611 v 0.077611 q 0,0.1397 -0.08537,0.2173111 -0.07761,0.06985 -0.232833,0.06985 z"
         id="path884" />
      <path
         d="m 39.651128,7.0657668 q 0.06985,0.077611 0.06985,0.1785055 0,0.1008945 -0.08537,0.1707444 -0.07761,0.062089 -0.147462,0.062089 -0.100894,0 -0.170744,-0.085372 L 37.602197,5.575634 37.020114,6.072345 v 1.1719276 q 0,0.1008945 -0.06985,0.1707444 -0.06209,0.062089 -0.162984,0.062089 -0.100894,0 -0.170744,-0.062089 -0.06209,-0.06985 -0.06209,-0.1707444 v -5.277555 q 0,-0.1008944 0.06209,-0.1629833 0.06985,-0.06985 0.170744,-0.06985 0.100895,0 0.162984,0.06985 0.06985,0.062089 0.06985,0.1629833 v 3.5390661 l 2.24296,-1.9325163 q 0.06985,-0.077611 0.162984,-0.077611 0.08537,0 0.155222,0.077611 0.06985,0.06985 0.06985,0.1552222 0,0.093133 -0.08537,0.1785055 l -1.598789,1.3581942 z"
         id="path886" />
      <path
         d="m 43.849875,3.5111785 q 0.100894,0 0.162983,0.06985 0.06985,0.06985 0.06985,0.1707444 v 3.4924994 q 0,0.1008945 -0.06985,0.1707444 -0.06209,0.062089 -0.162983,0.062089 -0.100895,0 -0.170745,-0.062089 -0.06209,-0.06985 -0.06209,-0.1707444 V 6.724278 q -0.194027,0.3492499 -0.582083,0.5898443 -0.388055,0.2405944 -0.845961,0.2405944 -0.519994,0 -0.939094,-0.2716388 Q 40.838564,7.011439 40.59797,6.5380113 40.365136,6.0645836 40.365136,5.4747393 q 0,-0.5898444 0.240595,-1.055511 0.240594,-0.4734277 0.651933,-0.7373054 0.4191,-0.2638777 0.923572,-0.2638777 0.465667,0 0.853722,0.2250722 0.388056,0.2250721 0.582083,0.5898443 V 3.7517729 q 0,-0.1008944 0.06209,-0.1707444 0.06985,-0.06985 0.170744,-0.06985 z m -1.614311,3.6089161 q 0.403577,0 0.721783,-0.20955 0.325967,-0.2173111 0.504472,-0.5898443 0.186267,-0.3802944 0.186267,-0.845961 0,-0.4501444 -0.186267,-0.8226777 -0.178505,-0.3725332 -0.504472,-0.5820832 -0.318206,-0.2173111 -0.721783,-0.2173111 -0.403578,0 -0.729545,0.20955 -0.318205,0.20955 -0.504472,0.5820832 -0.178505,0.3647722 -0.178505,0.8304388 0,0.4656666 0.178505,0.845961 0.178506,0.3725332 0.496711,0.5898443 0.325967,0.20955 0.737306,0.20955 z"
         id="path888" />
    </g>
    <g
       aria-label="FRIC"
       id="text341"
       style="font-size:4.23333px;font-family:'Quicksand Light';-inkscape-font-specification:'Quicksand Light, Normal';display:inline;fill:#26b0e6;stroke:#000000;stroke-width:0.2;stroke-linecap:round;stroke-linejoin:round"
       inkscape:label="friction_label"
       transform="translate(-2.7463297,-3.0711437)">
      <path
         d="m 8.7402744,65.983442 q 0.045861,0 0.074083,0.03175 0.03175,0.02822 0.03175,0.07408 0,0.04233 -0.03175,0.07408 -0.028222,0.02822 -0.074083,0.02822 H 7.5655237 v 0.885473 h 1.0160006 q 0.045861,0 0.074083,0.02822 0.03175,0.02822 0.03175,0.07408 0,0.04586 -0.03175,0.07408 -0.028222,0.02822 -0.074083,0.02822 H 7.5655237 v 1.065389 q 0,0.04586 -0.03175,0.07761 -0.028222,0.02822 -0.074083,0.02822 -0.049389,0 -0.081139,-0.02822 -0.028222,-0.03175 -0.028222,-0.07761 v -2.257779 q 0,-0.04586 0.028222,-0.07408 0.03175,-0.03175 0.077611,-0.03175 z"
         style="font-size:3.52778px;font-family:Quicksand;-inkscape-font-specification:'Quicksand, Normal';fill:#000000"
         id="path1233" />
      <path
         d="m 11.149748,68.262388 q 0.05292,0.03528 0.05292,0.08819 0,0.01764 -0.01411,0.04586 -0.01411,0.02469 -0.03881,0.03881 -0.02469,0.01411 -0.05292,0.01411 -0.03528,0 -0.05997,-0.01411 -0.09878,-0.05644 -0.15875,-0.183445 -0.05997,-0.127 -0.05997,-0.405695 0,-0.246944 -0.137584,-0.345722 Q 10.54297,67.398082 10.35247,67.398082 H 9.5693026 v 0.948973 q 0,0.04586 -0.028222,0.07761 -0.028222,0.02822 -0.074083,0.02822 -0.049389,0 -0.084667,-0.02822 -0.035278,-0.03175 -0.035278,-0.07761 v -2.257779 q 0,-0.04586 0.028222,-0.07408 0.03175,-0.03175 0.077611,-0.03175 h 0.9525014 q 0.201083,0 0.359833,0.08819 0.15875,0.08467 0.246945,0.236361 0.09172,0.151695 0.09172,0.342195 0,0.225778 -0.119945,0.398639 -0.116416,0.169333 -0.306916,0.232834 0.155222,0.05997 0.254,0.204611 0.09878,0.141111 0.102305,0.345722 0.0035,0.218723 0.02822,0.306917 0.02822,0.08819 0.08819,0.123472 z M 10.41597,67.204054 q 0.123472,-0.01058 0.229306,-0.08114 0.105833,-0.07056 0.169333,-0.1905 0.0635,-0.119944 0.0635,-0.275167 0,-0.201083 -0.137583,-0.331611 Q 10.60647,66.19158 10.387748,66.19158 H 9.5693026 v 1.012473 z"
         style="font-size:3.52778px;font-family:Quicksand;-inkscape-font-specification:'Quicksand, Normal';fill:#000000"
         id="path1235" />
      <path
         d="m 11.932909,68.343527 q -0.0035,0.04586 -0.03528,0.07761 -0.03175,0.03175 -0.07761,0.03175 -0.04939,0 -0.08114,-0.02822 -0.02822,-0.03175 -0.02822,-0.08114 v -2.250723 q 0,-0.04939 0.03175,-0.07761 0.03175,-0.03175 0.08114,-0.03175 0.04586,0 0.07761,0.03175 0.03175,0.03175 0.03175,0.07761 z"
         style="font-size:3.52778px;font-family:Quicksand;-inkscape-font-specification:'Quicksand, Normal';fill:#000000"
         id="path1237" />
      <path
         d="m 14.395293,66.166887 q 0.05292,0.03175 0.05292,0.08819 0,0.03175 -0.02469,0.07055 -0.03175,0.03881 -0.08114,0.03881 -0.02822,0 -0.05644,-0.01764 -0.282223,-0.186973 -0.617362,-0.186973 -0.28575,0 -0.518584,0.134056 -0.229305,0.134056 -0.363361,0.377473 -0.130528,0.239889 -0.130528,0.546805 0,0.313973 0.134056,0.55739 0.134056,0.239889 0.363361,0.373944 0.232834,0.130528 0.515056,0.130528 0.335139,0 0.613834,-0.183444 0.02822,-0.01764 0.05997,-0.01764 0.04939,0 0.08114,0.04233 0.02469,0.02822 0.02469,0.06703 0,0.05644 -0.04939,0.08467 -0.137584,0.09172 -0.338667,0.155222 -0.201084,0.05997 -0.391584,0.05997 -0.335139,0 -0.620889,-0.15875 -0.282223,-0.162278 -0.451556,-0.451556 -0.165806,-0.289278 -0.165806,-0.659695 0,-0.356305 0.165806,-0.645583 0.165806,-0.292806 0.448028,-0.455084 0.282222,-0.165806 0.624417,-0.165806 0.197556,0 0.384528,0.05645 0.1905,0.05644 0.342195,0.15875 z"
         style="font-size:3.52778px;font-family:Quicksand;-inkscape-font-specification:'Quicksand, Normal';fill:#000000"
         id="path1239" />
    </g>
    <g
       aria-label="STIF"
       id="text341-3"
       style="font-size:4.23333px;font-family:'Quicksand Light';-inkscape-font-specification:'Quicksand Light, Normal';display:inline;fill:#26b0e6;stroke:#000000;stroke-width:0.2;stroke-linecap:round;stroke-linejoin:round"
       inkscape:label="stiffness_label"
       transform="translate(-4.10384,-3.0711462)">
      <path
         d="m 20.654198,68.489929 q -0.254,0 -0.451556,-0.08467 -0.194028,-0.08467 -0.377472,-0.264584 -0.04233,-0.03528 -0.04233,-0.08467 0,-0.04233 0.03175,-0.07761 0.03528,-0.03528 0.07761,-0.03528 0.04233,0 0.07761,0.03528 0.275166,0.303389 0.687917,0.303389 0.254,0 0.419805,-0.119945 0.169334,-0.119944 0.169334,-0.313972 0,-0.151695 -0.08467,-0.250473 -0.08114,-0.102305 -0.215194,-0.165805 -0.134056,-0.0635 -0.342195,-0.130528 -0.225778,-0.06703 -0.381,-0.148167 -0.151695,-0.08114 -0.246945,-0.215195 -0.09525,-0.137583 -0.09525,-0.345722 0,-0.186972 0.09878,-0.331611 0.102305,-0.144639 0.282222,-0.225778 0.183445,-0.08467 0.419806,-0.08467 0.215195,0 0.402167,0.07408 0.1905,0.07056 0.303389,0.204612 0.05292,0.05997 0.05292,0.102305 0,0.03881 -0.03528,0.07408 -0.03528,0.03175 -0.07761,0.03175 -0.03528,0 -0.05997,-0.0247 -0.09525,-0.112889 -0.254001,-0.183444 -0.15875,-0.07056 -0.331611,-0.07056 -0.257528,0 -0.419806,0.116417 -0.162278,0.112889 -0.162278,0.310444 0,0.204612 0.155223,0.313973 0.155222,0.109361 0.4445,0.201083 0.250472,0.07408 0.409222,0.151695 0.158751,0.07761 0.257528,0.22225 0.102306,0.141111 0.102306,0.373945 0,0.179916 -0.105833,0.328083 -0.102306,0.144639 -0.289278,0.229306 -0.183445,0.08467 -0.419806,0.08467 z"
         style="font-size:3.52778px;font-family:Quicksand;-inkscape-font-specification:'Quicksand, Normal';fill:#000000"
         id="path1242" />
      <path
         d="m 23.543444,65.985205 q 0.04586,0 0.07408,0.02822 0.03175,0.02822 0.03175,0.07408 0,0.04586 -0.03175,0.07408 -0.02822,0.02469 -0.07408,0.02469 h -0.73025 v 2.162529 q 0,0.04586 -0.03175,0.07761 -0.03175,0.02822 -0.07761,0.02822 -0.04939,0 -0.08114,-0.02822 -0.02822,-0.03175 -0.02822,-0.07761 v -2.162529 h -0.73025 q -0.04586,0 -0.07761,-0.02822 -0.02822,-0.02822 -0.02822,-0.07408 0,-0.04233 0.02822,-0.07056 0.03175,-0.02822 0.07761,-0.02822 z"
         style="font-size:3.52778px;font-family:Quicksand;-inkscape-font-specification:'Quicksand, Normal';fill:#000000"
         id="path1244" />
      <path
         d="m 24.323077,68.34529 q -0.0035,0.04586 -0.03528,0.07761 -0.03175,0.03175 -0.07761,0.03175 -0.04939,0 -0.08114,-0.02822 -0.02822,-0.03175 -0.02822,-0.08114 v -2.250724 q 0,-0.04939 0.03175,-0.07761 0.03175,-0.03175 0.08114,-0.03175 0.04586,0 0.07761,0.03175 0.03175,0.03175 0.03175,0.07761 z"
         style="font-size:3.52778px;font-family:Quicksand;-inkscape-font-specification:'Quicksand, Normal';fill:#000000"
         id="path1246" />
      <path
         d="m 26.372711,65.985205 q 0.04586,0 0.07408,0.03175 0.03175,0.02822 0.03175,0.07408 0,0.04233 -0.03175,0.07408 -0.02822,0.02822 -0.07408,0.02822 H 25.19796 v 0.885473 h 1.016001 q 0.04586,0 0.07408,0.02822 0.03175,0.02822 0.03175,0.07408 0,0.04586 -0.03175,0.07408 -0.02822,0.02822 -0.07408,0.02822 H 25.19796 v 1.065389 q 0,0.04586 -0.03175,0.07761 -0.02822,0.02822 -0.07408,0.02822 -0.04939,0 -0.08114,-0.02822 -0.02822,-0.03175 -0.02822,-0.07761 v -2.257779 q 0,-0.04586 0.02822,-0.07408 0.03175,-0.03175 0.07761,-0.03175 z"
         style="font-size:3.52778px;font-family:Quicksand;-inkscape-font-specification:'Quicksand, Normal';fill:#000000"
         id="path1248" />
    </g>
    <g
       aria-label="SPAN"
       id="text341-9"
       style="font-size:4.23333px;font-family:'Quicksand Light';-inkscape-font-specification:'Quicksand Light, Normal';display:inline;fill:#26b0e6;stroke:#000000;stroke-width:0.2;stroke-linecap:round;stroke-linejoin:round"
       inkscape:label="span_label"
       transform="translate(-6.234947,-3.0711462)">
      <path
         d="m 33.156305,68.489929 q -0.254,0 -0.451555,-0.08467 -0.194028,-0.08467 -0.377473,-0.264584 -0.04233,-0.03528 -0.04233,-0.08467 0,-0.04233 0.03175,-0.07761 0.03528,-0.03528 0.07761,-0.03528 0.04233,0 0.07761,0.03528 0.275167,0.303389 0.687917,0.303389 0.254,0 0.419806,-0.119945 0.169334,-0.119944 0.169334,-0.313972 0,-0.151695 -0.08467,-0.250473 -0.08114,-0.102305 -0.215195,-0.165805 -0.134055,-0.0635 -0.342194,-0.130528 -0.225778,-0.06703 -0.381001,-0.148167 -0.151694,-0.08114 -0.246944,-0.215195 -0.09525,-0.137583 -0.09525,-0.345722 0,-0.186972 0.09878,-0.331611 0.102306,-0.144639 0.282223,-0.225778 0.183444,-0.08467 0.419806,-0.08467 0.215194,0 0.402167,0.07408 0.1905,0.07056 0.303389,0.204612 0.05292,0.05997 0.05292,0.102305 0,0.03881 -0.03528,0.07408 -0.03528,0.03175 -0.07761,0.03175 -0.03528,0 -0.05997,-0.0247 -0.09525,-0.112889 -0.254,-0.183444 -0.15875,-0.07056 -0.331611,-0.07056 -0.257528,0 -0.419806,0.116417 -0.162278,0.112889 -0.162278,0.310444 0,0.204612 0.155222,0.313973 0.155223,0.109361 0.444501,0.201083 0.250472,0.07408 0.409222,0.151695 0.15875,0.07761 0.257528,0.22225 0.102306,0.141111 0.102306,0.373945 0,0.179916 -0.105834,0.328083 -0.102305,0.144639 -0.289278,0.229306 -0.183444,0.08467 -0.419806,0.08467 z"
         style="font-size:3.52778px;font-family:Quicksand;-inkscape-font-specification:'Quicksand, Normal';fill:#000000"
         id="path1251" />
      <path
         d="m 35.414079,65.985205 q 0.194028,0 0.34925,0.09172 0.155223,0.08819 0.239889,0.250473 0.0882,0.15875 0.0882,0.359833 0,0.201084 -0.0882,0.366889 -0.08467,0.165806 -0.239889,0.261056 -0.155222,0.09525 -0.34925,0.09525 h -0.73025 v 0.938389 q 0,0.04586 -0.03175,0.07761 -0.02822,0.02822 -0.07408,0.02822 -0.04586,0 -0.07761,-0.02822 -0.02822,-0.03175 -0.02822,-0.07761 v -2.257779 q 0,-0.04586 0.02822,-0.07408 0.03175,-0.03175 0.07761,-0.03175 z m 0,1.220612 q 0.204611,0 0.331611,-0.148167 0.127,-0.148167 0.127,-0.370417 0,-0.218722 -0.127,-0.356306 -0.127,-0.137583 -0.331611,-0.137583 h -0.73025 v 1.012473 z"
         style="font-size:3.52778px;font-family:Quicksand;-inkscape-font-specification:'Quicksand, Normal';fill:#000000"
         id="path1253" />
      <path
         d="m 38.275101,68.31354 q 0.0071,0.02822 0.0071,0.04233 0,0.04586 -0.03175,0.07408 -0.03175,0.02822 -0.07408,0.02822 -0.03528,0 -0.0635,-0.01764 -0.02469,-0.02117 -0.0388,-0.05292 l -0.264584,-0.645584 h -1.146528 l -0.261056,0.645584 q -0.02822,0.07056 -0.09525,0.07056 -0.04939,0 -0.07408,-0.02469 -0.02469,-0.02469 -0.02822,-0.06703 v -0.01058 q 0,-0.02117 0.0035,-0.03175 l 0.931334,-2.278946 q 0.02822,-0.07056 0.105833,-0.07056 0.03528,0 0.05997,0.02117 0.02822,0.01764 0.04233,0.04939 z M 36.744045,67.5339 h 0.980722 l -0.493889,-1.2065 z"
         style="font-size:3.52778px;font-family:Quicksand;-inkscape-font-specification:'Quicksand, Normal';fill:#000000"
         id="path1255" />
      <path
         d="m 40.522295,65.985205 q 0.04586,0 0.07055,0.02822 0.02822,0.02822 0.02822,0.07056 v 2.257779 q 0,0.05292 -0.03175,0.08467 -0.03175,0.02822 -0.07761,0.02822 -0.02469,0 -0.04939,-0.01058 -0.02117,-0.01058 -0.03528,-0.0247 l -1.513418,-2.039057 v 1.979085 q 0,0.0388 -0.03175,0.06703 -0.02822,0.02822 -0.06703,0.02822 -0.04233,0 -0.07056,-0.02822 -0.02822,-0.02822 -0.02822,-0.06703 v -2.268363 q 0,-0.04939 0.02822,-0.07761 0.03175,-0.02822 0.07408,-0.02822 0.05644,0 0.08467,0.03881 L 40.4235,68.07366 v -1.989668 q 0,-0.04233 0.02822,-0.07056 0.02822,-0.02822 0.07056,-0.02822 z"
         style="font-size:3.52778px;font-family:Quicksand;-inkscape-font-specification:'Quicksand, Normal';fill:#000000"
         id="path1257" />
    </g>
    <g
       aria-label="CURL"
       id="text475"
       style="font-size:3.52777px;font-family:'Quicksand Light';-inkscape-font-specification:'Quicksand Light, Normal';stroke:#000000;stroke-width:0.25;stroke-linecap:round;stroke-linejoin:bevel"
       inkscape:label="curl_label"
       transform="translate(-0.739072,-0.52916667)">
      <path
         d="m 40.430841,63.647838 q 0.03175,0.02469 0.03175,0.05644 0,0.02822 -0.01411,0.04586 -0.02117,0.02822 -0.05292,0.02822 -0.01411,0 -0.04233,-0.01411 -0.328083,-0.222249 -0.694971,-0.222249 -0.296332,0 -0.546804,0.148166 -0.246944,0.144639 -0.391583,0.405694 -0.144638,0.257527 -0.144638,0.582082 0,0.324555 0.144638,0.58561 0.144639,0.257527 0.391583,0.405693 0.250472,0.144639 0.546804,0.144639 0.370416,0 0.691443,-0.218722 0.01764,-0.01411 0.04233,-0.01411 0.03528,0 0.05645,0.02822 0.01411,0.01764 0.01411,0.04233 0,0.03528 -0.02822,0.05644 -0.137583,0.09878 -0.356305,0.169333 -0.215194,0.07056 -0.419805,0.07056 -0.335138,0 -0.617359,-0.165805 -0.282222,-0.165805 -0.448027,-0.455083 -0.165805,-0.292804 -0.165805,-0.649109 0,-0.356305 0.165805,-0.645582 0.165805,-0.292805 0.448027,-0.45861 0.282221,-0.165805 0.617359,-0.165805 0.211666,0 0.409222,0.0635 0.201082,0.0635 0.36336,0.176389 z"
         id="path486" />
      <path
         d="m 42.685082,63.443227 q 0.03175,0 0.04939,0.02117 0.02117,0.02117 0.02117,0.04939 v 1.523996 q 0,0.246944 -0.123472,0.455083 -0.123472,0.208138 -0.33161,0.33161 -0.208139,0.123472 -0.451555,0.123472 -0.246944,0 -0.455082,-0.123472 -0.208139,-0.123472 -0.331611,-0.33161 -0.123472,-0.208139 -0.123472,-0.455083 v -1.523996 q 0,-0.03175 0.02117,-0.04939 0.02117,-0.02117 0.05292,-0.02117 0.03175,0 0.05292,0.02117 0.02117,0.02117 0.02117,0.04939 v 1.523996 q 0,0.208139 0.102305,0.384527 0.102305,0.176389 0.275166,0.282222 0.176389,0.102305 0.384527,0.102305 0.208138,0 0.380999,-0.102305 0.176389,-0.105833 0.278694,-0.282222 0.105833,-0.176388 0.105833,-0.384527 v -1.523996 q 0,-0.02822 0.01764,-0.04939 0.02117,-0.02117 0.05292,-0.02117 z"
         id="path488" />
      <path
         d="m 45.218014,65.775083 q 0.03881,0.0247 0.03881,0.0635 0,0.03175 -0.02117,0.05292 -0.01764,0.01764 -0.04586,0.01764 -0.02117,0 -0.03175,-0.0071 -0.09525,-0.05292 -0.151694,-0.176388 -0.05644,-0.127 -0.05644,-0.41275 0,-0.289277 -0.155222,-0.39511 -0.155222,-0.109361 -0.359832,-0.109361 h -0.825499 v 1.033637 q 0,0.02822 -0.02117,0.04939 -0.02117,0.02117 -0.05292,0.02117 -0.03175,0 -0.05292,-0.02117 -0.02117,-0.02117 -0.02117,-0.04939 v -2.328328 q 0,-0.02822 0.02117,-0.04939 0.02117,-0.02117 0.04939,-0.02117 h 0.931332 q 0.20461,0 0.36336,0.08467 0.15875,0.08114 0.246944,0.225777 0.08819,0.144639 0.08819,0.328083 0,0.23636 -0.127,0.405693 -0.123472,0.169333 -0.324554,0.229305 0.169333,0.05292 0.278693,0.211666 0.109361,0.155222 0.109361,0.384527 0,0.236361 0.02822,0.331611 0.03175,0.09172 0.09172,0.130527 z m -0.737303,-1.10772 q 0.222249,-0.02117 0.377471,-0.176388 0.155222,-0.155222 0.155222,-0.405694 0,-0.218721 -0.155222,-0.359832 -0.155222,-0.141111 -0.412749,-0.141111 h -0.836082 v 1.083025 z"
         id="path490" />
      <path
         d="m 47.16887,65.771556 q 0.02822,0 0.04939,0.02117 0.02117,0.02117 0.02117,0.04939 0,0.03175 -0.02117,0.05292 -0.02117,0.01764 -0.04939,0.01764 h -1.294692 q -0.03175,0 -0.05292,-0.02117 -0.01764,-0.02117 -0.01764,-0.04939 v -2.328328 q 0,-0.02822 0.02117,-0.04939 0.02117,-0.02117 0.05292,-0.02117 0.03175,0 0.05292,0.02117 0.02117,0.02117 0.02117,0.04939 v 2.257773 z"
         id="path492" />
    </g>
    <g
       aria-label="TILT"
       id="text421"
       style="font-size:3.52777px;font-family:'Quicksand Light';-inkscape-font-specification:'Quicksand Light, Normal';stroke:#000000;stroke-width:0.25;stroke-linecap:round;stroke-linejoin:bevel"
       inkscape:label="tilt_label"
       transform="translate(-0.600288,-0.68337617)">
      <path
         d="m 52.211353,63.597433 q 0.02822,0 0.04939,0.02117 0.02117,0.01764 0.02117,0.04586 0,0.03175 -0.02117,0.04939 -0.01764,0.01764 -0.04939,0.01764 h -0.786692 v 2.264828 q 0,0.02822 -0.02117,0.04939 -0.02117,0.02117 -0.04939,0.02117 -0.03175,0 -0.05292,-0.02117 -0.01764,-0.02117 -0.01764,-0.04939 v -2.264828 h -0.786693 q -0.02822,0 -0.04939,-0.01764 -0.02117,-0.02117 -0.02117,-0.04939 0,-0.02822 0.02117,-0.04586 0.02117,-0.02117 0.04939,-0.02117 z"
         id="path495" />
      <path
         d="m 52.90632,65.992788 q -0.0035,0.03175 -0.0247,0.05292 -0.02117,0.02117 -0.04939,0.02117 -0.03528,0 -0.05644,-0.02117 -0.01764,-0.02117 -0.01764,-0.05292 v -2.321272 q 0,-0.03175 0.02117,-0.05292 0.02117,-0.02117 0.05292,-0.02117 0.03175,0 0.05292,0.02117 0.02117,0.02117 0.02117,0.05292 z"
         id="path497" />
      <path
         d="m 54.977116,65.925761 q 0.02822,0 0.04939,0.02117 0.02117,0.02117 0.02117,0.04939 0,0.03175 -0.02117,0.05292 -0.02117,0.01764 -0.04939,0.01764 h -1.294692 q -0.03175,0 -0.05292,-0.02117 -0.01764,-0.02117 -0.01764,-0.04939 v -2.328328 q 0,-0.02822 0.02117,-0.04939 0.02117,-0.02117 0.05292,-0.02117 0.03175,0 0.05292,0.02117 0.02117,0.02117 0.02117,0.04939 v 2.257773 z"
         id="path499" />
      <path
         d="m 56.850359,63.597433 q 0.02822,0 0.04939,0.02117 0.02117,0.01764 0.02117,0.04586 0,0.03175 -0.02117,0.04939 -0.01764,0.01764 -0.04939,0.01764 h -0.786692 v 2.264828 q 0,0.02822 -0.02117,0.04939 -0.02117,0.02117 -0.04939,0.02117 -0.03175,0 -0.05292,-0.02117 -0.01764,-0.02117 -0.01764,-0.04939 v -2.264828 h -0.786693 q -0.02822,0 -0.04939,-0.01764 -0.02117,-0.02117 -0.02117,-0.04939 0,-0.02822 0.02117,-0.04586 0.02117,-0.02117 0.04939,-0.02117 z"
         id="path501" />
    </g>
    <g
       aria-label="L"
       id="text348"
       style="font-size:3.52777px;font-family:'Quicksand Light';-inkscape-font-specification:'Quicksand Light, Normal';stroke:#000000;stroke-width:0.25;stroke-linecap:round;stroke-linejoin:bevel"
       inkscape:label="left_input_label"
       transform="translate(0.7809309,-1.141699)">
      <path
         d="m 7.5115821,111.59235 q 0.028222,0 0.049389,0.0212 0.021167,0.0212 0.021167,0.0494 0,0.0318 -0.021167,0.0529 -0.021167,0.0176 -0.049389,0.0176 H 6.2168905 q -0.03175,0 -0.052917,-0.0212 -0.017639,-0.0212 -0.017639,-0.0494 v -2.32832 q 0,-0.0282 0.021167,-0.0494 0.021167,-0.0212 0.052917,-0.0212 0.03175,0 0.052916,0.0212 0.021167,0.0212 0.021167,0.0494 v 2.25777 z"
         id="path518" />
    </g>
    <g
       aria-label="R"
       id="text352"
       style="font-size:3.52777px;font-family:'Quicksand Light';-inkscape-font-specification:'Quicksand Light, Normal';stroke:#000000;stroke-width:0.25;stroke-linecap:round;stroke-linejoin:bevel"
       inkscape:label="right_input_label"
       transform="translate(4.7349327,-1.141749)">
      <path
         d="m 16.82651,111.59588 q 0.03881,0.0247 0.03881,0.0635 0,0.0318 -0.02117,0.0529 -0.01764,0.0176 -0.04586,0.0176 -0.02117,0 -0.03175,-0.007 -0.09525,-0.0529 -0.151694,-0.17639 -0.05644,-0.127 -0.05644,-0.41275 0,-0.28928 -0.155222,-0.39511 -0.155222,-0.10936 -0.359833,-0.10936 h -0.825498 v 1.03363 q 0,0.0282 -0.02117,0.0494 -0.02117,0.0212 -0.05292,0.0212 -0.03175,0 -0.05292,-0.0212 -0.02117,-0.0212 -0.02117,-0.0494 v -2.32832 q 0,-0.0282 0.02117,-0.0494 0.02117,-0.0212 0.04939,-0.0212 h 0.931331 q 0.204611,0 0.363361,0.0847 0.158749,0.0811 0.246944,0.22577 0.08819,0.14464 0.08819,0.32809 0,0.23636 -0.127,0.40569 -0.123472,0.16933 -0.324555,0.22931 0.169333,0.0529 0.278694,0.21166 0.109361,0.15522 0.109361,0.38453 0,0.23636 0.02822,0.33161 0.03175,0.0917 0.09172,0.13053 z m -0.737304,-1.10772 q 0.22225,-0.0212 0.377472,-0.17639 0.155222,-0.15522 0.155222,-0.4057 0,-0.21872 -0.155222,-0.35983 -0.155222,-0.14111 -0.412749,-0.14111 h -0.836082 v 1.08303 z"
         id="path521" />
    </g>
    <g
       aria-label="L"
       id="text364"
       style="font-size:3.52777px;font-family:'Quicksand Light';-inkscape-font-specification:'Quicksand Light, Normal';stroke:#000000;stroke-width:0.25;stroke-linecap:round;stroke-linejoin:bevel"
       inkscape:label="left_output_label"
       transform="translate(-0.66530888,-1.141699)">
      <path
         d="m 42.753451,111.59235 q 0.02822,0 0.04939,0.0212 0.02117,0.0212 0.02117,0.0494 0,0.0318 -0.02117,0.0529 -0.02117,0.0176 -0.04939,0.0176 h -1.294692 q -0.03175,0 -0.05292,-0.0212 -0.01764,-0.0212 -0.01764,-0.0494 v -2.32832 q 0,-0.0282 0.02117,-0.0494 0.02117,-0.0212 0.05292,-0.0212 0.03175,0 0.05292,0.0212 0.02117,0.0212 0.02117,0.0494 v 2.25777 z"
         id="path524" />
    </g>
    <g
       aria-label="R"
       id="text368"
       style="font-size:3.52777px;font-family:'Quicksand Light';-inkscape-font-specification:'Quicksand Light, Normal';stroke:#000000;stroke-width:0.25;stroke-linecap:round;stroke-linejoin:bevel"
       inkscape:label="right_output_label"
       transform="translate(1.7426653,-1.141749)">
      <path
         d="m 53.602462,111.59588 q 0.0388,0.0247 0.0388,0.0635 0,0.0318 -0.02117,0.0529 -0.01764,0.0176 -0.04586,0.0176 -0.02117,0 -0.03175,-0.007 -0.09525,-0.0529 -0.151694,-0.17639 -0.05644,-0.127 -0.05644,-0.41275 0,-0.28928 -0.155222,-0.39511 -0.155222,-0.10936 -0.359832,-0.10936 h -0.825499 v 1.03363 q 0,0.0282 -0.02117,0.0494 -0.02117,0.0212 -0.05292,0.0212 -0.03175,0 -0.05292,-0.0212 -0.02117,-0.0212 -0.02117,-0.0494 v -2.32832 q 0,-0.0282 0.02117,-0.0494 0.02117,-0.0212 0.04939,-0.0212 h 0.931332 q 0.20461,0 0.36336,0.0847 0.15875,0.0811 0.246944,0.22577 0.08819,0.14464 0.08819,0.32809 0,0.23636 -0.126999,0.40569 -0.123472,0.16933 -0.324555,0.22931 0.169333,0.0529 0.278694,0.21166 0.10936,0.15522 0.10936,0.38453 0,0.23636 0.02822,0.33161 0.03175,0.0917 0.09172,0.13053 z m -0.737304,-1.10772 q 0.222249,-0.0212 0.377471,-0.17639 0.155222,-0.15522 0.155222,-0.4057 0,-0.21872 -0.155222,-0.35983 -0.155222,-0.14111 -0.412749,-0.14111 h -0.836082 v 1.08303 z"
         id="path527" />
    </g>
    <g
       aria-label="LO"
       id="text426"
       style="font-size:3.52777px;font-family:'Quicksand Light';-inkscape-font-specification:'Quicksand Light, Normal';stroke:#000000;stroke-width:0.25;stroke-linecap:round;stroke-linejoin:bevel"
       inkscape:label="lo_cut_label"
       transform="translate(1.0583333,2.1166667)">
      <path
         d="m 7.9006093,18.933959 q 0.028222,0 0.049389,0.02117 0.021167,0.02117 0.021167,0.04939 0,0.03175 -0.021167,0.05292 -0.021167,0.01764 -0.049389,0.01764 H 6.6059176 q -0.03175,0 -0.052916,-0.02117 -0.017639,-0.02117 -0.017639,-0.04939 v -2.328328 q 0,-0.02822 0.021167,-0.04939 0.021167,-0.02117 0.052917,-0.02117 0.03175,0 0.052917,0.02117 0.021167,0.02117 0.021167,0.04939 v 2.257773 z"
         id="path437" />
      <path
         d="m 10.521739,17.84035 q 0,0.370416 -0.151694,0.659693 -0.148166,0.289277 -0.4162767,0.451554 -0.2681105,0.15875 -0.6103042,0.15875 -0.3421937,0 -0.6103042,-0.15875 Q 8.4650494,18.78932 8.3133553,18.500043 8.1651889,18.210766 8.1651889,17.84035 q 0,-0.370416 0.1481664,-0.659693 0.1516941,-0.289277 0.4198046,-0.448027 0.2681105,-0.162277 0.6103042,-0.162277 0.3421937,0 0.6103042,0.162277 0.2681107,0.15875 0.4162767,0.448027 0.151694,0.289277 0.151694,0.659693 z m -0.148166,0 q 0,-0.33161 -0.130528,-0.589138 -0.130527,-0.257527 -0.3668876,-0.398638 -0.2328328,-0.141111 -0.5326933,-0.141111 -0.2998605,0 -0.536221,0.141111 -0.2328329,0.141111 -0.3633604,0.398638 -0.1305274,0.257528 -0.1305274,0.589138 0,0.33161 0.1305274,0.589138 0.1305275,0.257527 0.3633604,0.398638 0.2363605,0.14111 0.536221,0.14111 0.2998605,0 0.5326933,-0.14111 0.2363606,-0.141111 0.3668876,-0.398638 0.130528,-0.257528 0.130528,-0.589138 z"
         id="path439" />
    </g>
    <g
       aria-label="HI"
       id="text430"
       style="font-size:3.52777px;font-family:'Quicksand Light';-inkscape-font-specification:'Quicksand Light, Normal';stroke:#000000;stroke-width:0.25;stroke-linecap:round;stroke-linejoin:bevel"
       inkscape:label="hi_cut_label"
       transform="translate(-3.6666667e-8,2.1166667)">
      <path
         d="m 51.617323,16.60563 q 0.03175,0 0.05292,0.02117 0.02117,0.02117 0.02117,0.05292 v 2.321272 q -0.0035,0.03175 -0.02469,0.05292 -0.02117,0.02117 -0.04939,0.02117 -0.03528,0 -0.05644,-0.02117 -0.01764,-0.02117 -0.01764,-0.05292 v -1.125358 h -1.538108 v 1.125358 q -0.0035,0.03175 -0.0247,0.05292 -0.02117,0.02117 -0.04939,0.02117 -0.03528,0 -0.05645,-0.02117 -0.01764,-0.02117 -0.01764,-0.05292 V 16.67972 q 0,-0.03175 0.02117,-0.05292 0.02117,-0.02117 0.05292,-0.02117 0.03175,0 0.05292,0.02117 0.02117,0.02117 0.02117,0.05292 v 1.054803 h 1.538108 V 16.67972 q 0,-0.03175 0.02117,-0.05292 0.02117,-0.02117 0.05292,-0.02117 z"
         id="path442" />
      <path
         d="m 52.545124,19.000986 q -0.0035,0.03175 -0.02469,0.05292 -0.02117,0.02117 -0.04939,0.02117 -0.03528,0 -0.05644,-0.02117 -0.01764,-0.02117 -0.01764,-0.05292 v -2.321272 q 0,-0.03175 0.02117,-0.05292 0.02117,-0.02117 0.05292,-0.02117 0.03175,0 0.05292,0.02117 0.02117,0.02117 0.02117,0.05292 z"
         id="path444" />
    </g>
    <g
       aria-label="IN"
       id="text756"
       style="font-size:3.52777px;font-family:'Quicksand Light';-inkscape-font-specification:'Quicksand Light, Normal';stroke:#000000;stroke-width:0.25;stroke-linecap:round;stroke-linejoin:bevel"
       inkscape:label="in_label"
       transform="translate(0.96834044,-0.05643697)">
      <path
         d="m 12.159934,93.754896 q -0.0035,0.03175 -0.02469,0.05292 -0.02117,0.02117 -0.04939,0.02117 -0.03528,0 -0.05644,-0.02117 -0.01764,-0.02117 -0.01764,-0.05292 v -2.321272 q 0,-0.03175 0.02117,-0.05292 0.02117,-0.02117 0.05292,-0.02117 0.03175,0 0.05292,0.02117 0.02117,0.02117 0.02117,0.05292 z"
         id="path762" />
      <path
         d="m 14.650535,91.35954 q 0.03175,0 0.04939,0.02117 0.01764,0.01764 0.01764,0.04586 v 2.324801 q 0,0.0388 -0.02117,0.05997 -0.02117,0.01764 -0.05292,0.01764 -0.03528,0 -0.05645,-0.02822 l -1.587496,-2.169578 v 2.137828 q 0,0.02469 -0.02117,0.04233 -0.01764,0.01764 -0.04586,0.01764 -0.03175,0 -0.04939,-0.01764 -0.01764,-0.01764 -0.01764,-0.04233 V 91.4301 q 0,-0.03528 0.01764,-0.05292 0.02117,-0.01764 0.04586,-0.01764 0.03175,0 0.05292,0.0247 l 1.601608,2.18369 v -2.141357 q 0,-0.02822 0.01764,-0.04586 0.02117,-0.02117 0.04939,-0.02117 z"
         id="path764" />
    </g>
    <g
       aria-label="OUT"
       id="text760"
       style="font-size:3.52777px;font-family:'Quicksand Light';-inkscape-font-specification:'Quicksand Light, Normal';stroke:#000000;stroke-width:0.25;stroke-linecap:round;stroke-linejoin:bevel"
       inkscape:label="out_label"
       transform="translate(1.2553828,-0.05643897)">
      <path
         d="m 45.331191,92.59426 q 0,0.370416 -0.151694,0.659693 -0.148166,0.289277 -0.416277,0.451555 -0.268111,0.158749 -0.610304,0.158749 -0.342194,0 -0.610304,-0.158749 -0.268111,-0.162278 -0.419805,-0.451555 -0.148166,-0.289277 -0.148166,-0.659693 0,-0.370416 0.148166,-0.659693 0.151694,-0.289277 0.419805,-0.448027 0.26811,-0.162277 0.610304,-0.162277 0.342193,0 0.610304,0.162277 0.268111,0.15875 0.416277,0.448027 0.151694,0.289277 0.151694,0.659693 z m -0.148166,0 q 0,-0.33161 -0.130528,-0.589138 -0.130527,-0.257527 -0.366888,-0.398638 -0.232833,-0.14111 -0.532693,-0.14111 -0.299861,0 -0.536221,0.14111 -0.232833,0.141111 -0.363361,0.398638 -0.130527,0.257528 -0.130527,0.589138 0,0.33161 0.130527,0.589138 0.130528,0.257527 0.363361,0.398638 0.23636,0.14111 0.536221,0.14111 0.29986,0 0.532693,-0.14111 0.236361,-0.141111 0.366888,-0.398638 0.130528,-0.257528 0.130528,-0.589138 z"
         id="path767" />
      <path
         d="m 47.606602,91.35954 q 0.03175,0 0.04939,0.02117 0.02117,0.02117 0.02117,0.04939 v 1.523997 q 0,0.246943 -0.123472,0.455082 -0.123472,0.208138 -0.33161,0.33161 -0.208139,0.123472 -0.451555,0.123472 -0.246944,0 -0.455082,-0.123472 -0.208139,-0.123472 -0.331611,-0.33161 Q 45.86036,93.20104 45.86036,92.954097 V 91.4301 q 0,-0.03175 0.02117,-0.04939 0.02117,-0.02117 0.05292,-0.02117 0.03175,0 0.05292,0.02117 0.02117,0.02117 0.02117,0.04939 v 1.523997 q 0,0.208138 0.102305,0.384526 0.102305,0.176389 0.275166,0.282222 0.176389,0.102305 0.384527,0.102305 0.208138,0 0.380999,-0.102305 0.176389,-0.105833 0.278694,-0.282222 0.105833,-0.176388 0.105833,-0.384526 V 91.4301 q 0,-0.02822 0.01764,-0.04939 0.02117,-0.02117 0.05292,-0.02117 z"
         id="path769" />
      <path
         d="m 49.938451,91.35954 q 0.02822,0 0.04939,0.02117 0.02117,0.01764 0.02117,0.04586 0,0.03175 -0.02117,0.04939 -0.01764,0.01764 -0.04939,0.01764 h -0.786692 v 2.264828 q 0,0.02822 -0.02117,0.04939 -0.02117,0.02117 -0.04939,0.02117 -0.03175,0 -0.05292,-0.02117 -0.01764,-0.02117 -0.01764,-0.04939 V 91.4936 h -0.786693 q -0.02822,0 -0.04939,-0.01764 -0.02117,-0.02117 -0.02117,-0.04939 0,-0.02822 0.02117,-0.04586 0.02117,-0.02117 0.04939,-0.02117 z"
         id="path771" />
    </g>
  </g>
  <metadata
     id="metadata3609">
    <rdf:RDF>
      <cc:Work
         rdf:about="">
        <dc:creator>
          <cc:Agent>
            <dc:title>Don Cross &lt;cosinekitty@gmail.com&gt;</dc:title>
          </cc:Agent>
        </dc:creator>
        <dc:title>Sapphire Elastika</dc:title>
      </cc:Work>
    </rdf:RDF>
  </metadata>
</svg>
