<?xml version="1.0" encoding="utf-8"?>
<svg xmlns="http://www.w3.org/2000/svg" width="60.96mm" height="128.50mm" viewBox="0 0 60.96 128.50">
    <g id="PanelLayer">
        <path d="M8.16783 110.478Q8.16783 110.51 8.14667 110.529Q8.1255 110.549 8.09728 110.549H6.80258Q6.77083 110.549 6.75143 110.528Q6.73203 110.507 6.73203 110.478V108.15Q6.73203 108.122 6.75319 108.101Q6.77436 108.079 6.80611 108.079Q6.83786 108.079 6.85903 108.101Q6.88019 108.122 6.88019 108.15V110.408H8.09728Q8.1255 110.408 8.14667 110.429Q8.16783 110.45 8.16783 110.478Z" style="stroke:#000000;stroke-width:0.25;stroke-linecap:round;stroke-linejoin:bevel" />
        <path d="M21.4772 110.475Q21.4772 110.507 21.4578 110.526Q21.4384 110.545 21.4102 110.545Q21.389 110.545 21.3784 110.538Q21.2832 110.485 21.2267 110.36Q21.1703 110.235 21.1703 109.949Q21.1703 109.66 21.0151 109.552Q20.8598 109.445 20.6552 109.445H19.8297V110.478Q19.8297 110.507 19.8086 110.528Q19.7874 110.549 19.7556 110.549Q19.7239 110.549 19.7027 110.528Q19.6816 110.507 19.6816 110.478V108.15Q19.6816 108.122 19.7027 108.101Q19.7239 108.079 19.7521 108.079H20.6834Q20.8881 108.079 21.0468 108.162Q21.2056 108.245 21.2937 108.39Q21.3819 108.534 21.3819 108.718Q21.3819 108.954 21.2567 109.124Q21.1315 109.293 20.9304 109.353Q21.0997 109.406 21.2091 109.563Q21.3184 109.72 21.3184 109.949Q21.3184 110.185 21.3484 110.279Q21.3784 110.372 21.4384 110.411Q21.4772 110.436 21.4772 110.475ZM20.7011 109.304Q20.9233 109.282 21.0786 109.127Q21.2338 108.972 21.2338 108.721Q21.2338 108.503 21.0786 108.362Q20.9233 108.221 20.6658 108.221H19.8297V109.304Z" style="stroke:#000000;stroke-width:0.25;stroke-linecap:round;stroke-linejoin:bevel" />
    </g>
</svg>
