<?xml version="1.0" encoding="utf-8"?>
<svg xmlns="http://www.w3.org/2000/svg" width="60.96mm" height="128.50mm" viewBox="0 0 60.96 128.50">
    <g id="PanelLayer">
        <path d="M41.1278 110.478Q41.1278 110.51 41.1067 110.529Q41.0855 110.549 41.0573 110.549H39.7626Q39.7308 110.549 39.7114 110.528Q39.692 110.507 39.692 110.478V108.15Q39.692 108.122 39.7132 108.101Q39.7344 108.079 39.7661 108.079Q39.7979 108.079 39.819 108.101Q39.8402 108.122 39.8402 108.15V110.408H41.0573Q41.0855 110.408 41.1067 110.429Q41.1278 110.45 41.1278 110.478Z" style="stroke:#000000;stroke-width:0.25;stroke-linecap:round;stroke-linejoin:bevel" />
        <path d="M54.4372 110.475Q54.4372 110.507 54.4178 110.526Q54.3984 110.545 54.3702 110.545Q54.349 110.545 54.3384 110.538Q54.2432 110.485 54.1867 110.36Q54.1303 110.235 54.1303 109.949Q54.1303 109.66 53.9751 109.552Q53.8198 109.445 53.6152 109.445H52.7897V110.478Q52.7897 110.507 52.7686 110.528Q52.7474 110.549 52.7156 110.549Q52.6839 110.549 52.6627 110.528Q52.6416 110.507 52.6416 110.478V108.15Q52.6416 108.122 52.6627 108.101Q52.6839 108.079 52.7121 108.079H53.6434Q53.8481 108.079 54.0068 108.162Q54.1656 108.245 54.2538 108.39Q54.3419 108.534 54.3419 108.718Q54.3419 108.954 54.2167 109.124Q54.0915 109.293 53.8904 109.353Q54.0597 109.406 54.1691 109.563Q54.2784 109.72 54.2784 109.949Q54.2784 110.185 54.3084 110.279Q54.3384 110.372 54.3984 110.411Q54.4372 110.436 54.4372 110.475ZM53.6611 109.304Q53.8833 109.282 54.0386 109.127Q54.1938 108.972 54.1938 108.721Q54.1938 108.503 54.0386 108.362Q53.8833 108.221 53.6258 108.221H52.7897V109.304Z" style="stroke:#000000;stroke-width:0.25;stroke-linecap:round;stroke-linejoin:bevel" />
    </g>
</svg>
