<?xml version="1.0" encoding="utf-8"?>
<svg xmlns="http://www.w3.org/2000/svg" width="60.96mm" height="128.50mm" viewBox="0 0 60.96 128.50">
    <g id="PanelLayer">
        <path d="M41.5312 110.478Q41.5312 110.51 41.51 110.529Q41.4888 110.549 41.4606 110.549H40.0989Q40.0636 110.549 40.0372 110.531Q40.0107 110.514 40.0107 110.475Q40.0107 110.454 40.0283 110.429L40.8574 109.505Q41.0796 109.268 41.1819 109.09Q41.2842 108.912 41.2842 108.739Q41.2842 108.475 41.1272 108.33Q40.9703 108.185 40.6775 108.185Q40.4834 108.185 40.337 108.272Q40.1906 108.358 40.1271 108.545Q40.1201 108.566 40.1042 108.584Q40.0883 108.602 40.0601 108.602Q40.0354 108.602 40.0089 108.584Q39.9825 108.566 39.9825 108.545Q39.9825 108.527 40.0001 108.482Q40.0813 108.27 40.2665 108.157Q40.4517 108.044 40.688 108.044Q41.0443 108.044 41.2419 108.231Q41.4395 108.418 41.4395 108.725Q41.4395 108.912 41.3371 109.109Q41.2348 109.307 40.9738 109.589L40.2541 110.408H41.4606Q41.4888 110.408 41.51 110.429Q41.5312 110.45 41.5312 110.478Z" style="stroke:#000000;stroke-width:0.25;stroke-linecap:round;stroke-linejoin:bevel" />
    </g>
</svg>
