<?xml version="1.0" encoding="utf-8"?>
<svg xmlns="http://www.w3.org/2000/svg" width="60.96mm" height="128.50mm" viewBox="0 0 60.96 128.50">
    <g id="PanelLayer">
        <defs>
            <linearGradient id="gradient_fric" x1="0" y1="32" x2="0" y2="89.5" gradientUnits="userSpaceOnUse">
                <stop style="stop-color:#5754c4;stop-opacity:1;" offset="0" />
                <stop style="stop-color:#4f8df2;stop-opacity:1;" offset="1" />
            </linearGradient>
            <linearGradient id="gradient_stif" x1="0" y1="89.5" x2="0" y2="32" gradientUnits="userSpaceOnUse">
                <stop style="stop-color:#0060f9;stop-opacity:1;" offset="0" />
                <stop style="stop-color:#4f8df2;stop-opacity:1;" offset="1" />
            </linearGradient>
            <linearGradient id="gradient_span" x1="0" y1="32" x2="0" y2="89.5" gradientUnits="userSpaceOnUse">
                <stop style="stop-color:#976de4;stop-opacity:1;" offset="0" />
                <stop style="stop-color:#4f8df2;stop-opacity:1;" offset="1" />
            </linearGradient>
            <linearGradient id="gradient_curl" x1="0" y1="89.5" x2="0" y2="32" gradientUnits="userSpaceOnUse">
                <stop style="stop-color:#0081d7;stop-opacity:1;" offset="0" />
                <stop style="stop-color:#4f8df2;stop-opacity:1;" offset="1" />
            </linearGradient>
            <linearGradient id="gradient_tilt" x1="0" y1="32" x2="0" y2="89.5" gradientUnits="userSpaceOnUse">
                <stop style="stop-color:#29aab4;stop-opacity:1;" offset="0" />
                <stop style="stop-color:#4f8df2;stop-opacity:1;" offset="1" />
            </linearGradient>
            <linearGradient id="gradient_power" x1="0" y1="112.5" x2="0" y2="90" gradientUnits="userSpaceOnUse">
                <stop style="stop-color:#b9818b;stop-opacity:1;" offset="0" />
                <stop style="stop-color:#4f8df2;stop-opacity:1;" offset="1" />
            </linearGradient>
        </defs>
        <rect id="border_rect" width="60.96" height="128.5" x="0" y="0" style="display:inline;fill:#4f8df2;fill-opacity:1;fill-rule:nonzero;stroke:#5021d4;stroke-width:0.7;stroke-linecap:round;stroke-linejoin:round;stroke-dasharray:none;stroke-opacity:1;image-rendering:auto" />
        <path id="model_name" d="M20.8756 7.35962Q20.8756 7.41395 20.8446 7.45276Q20.5885 7.79425 20.2082 8.01156Q19.8279 8.22887 19.3933 8.22887Q18.8112 8.22887 18.361 7.98051Q17.9109 7.73216 17.6586 7.27425Q17.4064 6.81635 17.4064 6.21098Q17.4064 5.59009 17.6509 5.12054Q17.8954 4.651 18.2989 4.40264Q18.7025 4.15429 19.1604 4.15429Q19.6183 4.15429 20.0103 4.35219Q20.4022 4.5501 20.6506 4.94592Q20.8989 5.34174 20.9144 5.92382Q20.9144 5.98591 20.8679 6.03636Q20.8213 6.0868 20.7592 6.0868H17.7091V6.1877Q17.7091 6.66889 17.9031 7.06858Q18.0971 7.46828 18.4774 7.70111Q18.8577 7.93395 19.3933 7.93395Q19.7658 7.93395 20.0956 7.75156Q20.4255 7.56917 20.6117 7.28977Q20.6661 7.21992 20.7437 7.21992Q20.798 7.21992 20.8368 7.26261Q20.8756 7.3053 20.8756 7.35962ZM17.7401 5.79188H20.5962V5.72203Q20.5574 5.32621 20.344 5.04293Q20.1306 4.75965 19.8162 4.61219Q19.5019 4.46473 19.1604 4.46473Q18.8733 4.46473 18.5745 4.61607Q18.2757 4.76741 18.0467 5.06622Q17.8177 5.36502 17.7401 5.79188ZM22.1252 8.15126Q22.0553 8.15126 22.0126 8.10469Q21.9699 8.05812 21.9699 7.99604V2.56326Q21.9699 2.50117 22.0165 2.4546Q22.0631 2.40804 22.1252 2.40804Q22.195 2.40804 22.2377 2.4546Q22.2804 2.50117 22.2804 2.56326V7.99604Q22.2804 8.05812 22.2338 8.10469Q22.1873 8.15126 22.1252 8.15126ZM26.9371 4.43369V7.99604Q26.9371 8.05812 26.8905 8.10469Q26.8439 8.15126 26.7818 8.15126Q26.712 8.15126 26.6693 8.10469Q26.6266 8.05812 26.6266 7.99604V7.29754Q26.4326 7.69335 26.029 7.96111Q25.6254 8.22887 25.1365 8.22887Q24.6242 8.22887 24.2129 7.96111Q23.8016 7.69335 23.5687 7.22381Q23.3359 6.75426 23.3359 6.17217Q23.3359 5.59785 23.5726 5.13607Q23.8093 4.67428 24.2207 4.41428Q24.632 4.15429 25.1365 4.15429Q25.6409 4.15429 26.0445 4.41816Q26.4481 4.68204 26.6266 5.12443V4.43369Q26.6266 4.3716 26.6693 4.32503Q26.712 4.27846 26.7818 4.27846Q26.8517 4.27846 26.8944 4.32503Q26.9371 4.3716 26.9371 4.43369ZM26.6577 6.17217Q26.6577 5.69875 26.4636 5.30293Q26.2696 4.90711 25.9242 4.67816Q25.5789 4.44921 25.152 4.44921Q24.7251 4.44921 24.3798 4.6704Q24.0344 4.89159 23.8404 5.28353Q23.6463 5.67546 23.6463 6.17217Q23.6463 6.66889 23.8404 7.07246Q24.0344 7.47604 24.3759 7.70499Q24.7174 7.93395 25.152 7.93395Q25.5789 7.93395 25.9242 7.70499Q26.2696 7.47604 26.4636 7.07246Q26.6577 6.66889 26.6577 6.17217ZM27.9538 7.38291Q27.9538 7.32858 28.0158 7.28201Q28.0547 7.24321 28.109 7.24321Q28.1866 7.24321 28.2332 7.3053Q28.6833 7.94947 29.4905 7.94947Q29.9018 7.94947 30.2122 7.7438Q30.5227 7.53813 30.5227 7.18888Q30.5227 6.83187 30.251 6.65336Q29.9794 6.47486 29.506 6.35844Q28.8773 6.20322 28.5164 5.94322Q28.1555 5.68323 28.1555 5.2098Q28.1555 4.75189 28.5203 4.45309Q28.8851 4.15429 29.4594 4.15429Q29.7776 4.15429 30.0919 4.27846Q30.4063 4.40264 30.6624 4.67428Q30.7167 4.72085 30.7167 4.78294Q30.7167 4.85279 30.6624 4.90711Q30.6003 4.93816 30.5615 4.93816Q30.5072 4.93816 30.4684 4.89159Q30.0648 4.44921 29.4284 4.44921Q29.017 4.44921 28.7338 4.651Q28.4505 4.85279 28.4505 5.2098Q28.4738 5.54352 28.757 5.72591Q29.0403 5.9083 29.5914 6.048Q29.9872 6.14889 30.2472 6.26919Q30.5072 6.38949 30.6624 6.6068Q30.8176 6.82411 30.8176 7.17336Q30.8176 7.66231 30.4412 7.94559Q30.0648 8.22887 29.4594 8.22887Q28.5746 8.22887 28.0081 7.53037Q27.9538 7.445 27.9538 7.38291ZM33.4253 4.39488Q33.4253 4.45697 33.3827 4.49966Q33.34 4.54234 33.2779 4.54234H32.4242V7.3053Q32.4242 7.64679 32.5445 7.75932Q32.6648 7.87186 32.851 7.87186Q32.8821 7.87186 32.9403 7.85634Q32.9985 7.84081 33.0373 7.84081Q33.0916 7.84081 33.1304 7.8835Q33.1692 7.92619 33.1692 7.98051Q33.1692 8.05036 33.0761 8.10081Q32.983 8.15126 32.8588 8.15126Q32.6648 8.15126 32.5328 8.12409Q32.4009 8.09693 32.2573 7.91454Q32.1137 7.73216 32.1137 7.32082V4.54234H31.4773Q31.423 4.54234 31.3764 4.49578Q31.3298 4.44921 31.3298 4.39488Q31.3298 4.33279 31.3725 4.29011Q31.4152 4.24742 31.4773 4.24742H32.1137V3.26176Q32.1137 3.19967 32.1603 3.1531Q32.2068 3.10654 32.2689 3.10654Q32.3388 3.10654 32.3815 3.1531Q32.4242 3.19967 32.4242 3.26176V4.24742H33.2779Q33.3322 4.24742 33.3788 4.29399Q33.4253 4.34055 33.4253 4.39488ZM34.442 8.15126Q34.3722 8.15126 34.3295 8.10469Q34.2868 8.05812 34.2868 7.99604V4.30951Q34.2868 4.24742 34.3334 4.20085Q34.38 4.15429 34.442 4.15429Q34.5119 4.15429 34.5546 4.20085Q34.5973 4.24742 34.5973 4.30951V7.99604Q34.5973 8.05812 34.5507 8.10469Q34.5041 8.15126 34.442 8.15126ZM34.1704 3.37818V3.31609Q34.1704 3.20743 34.248 3.13758Q34.3256 3.06773 34.4498 3.06773Q34.5585 3.06773 34.6322 3.13758Q34.7059 3.20743 34.7059 3.31609V3.37818Q34.7059 3.48683 34.6322 3.55668Q34.5585 3.62653 34.442 3.62653Q34.3179 3.62653 34.2441 3.55668Q34.1704 3.48683 34.1704 3.37818ZM38.9745 7.99604Q38.9745 8.06589 38.9163 8.10857Q38.8581 8.15126 38.8193 8.15126Q38.7572 8.15126 38.7029 8.09693L36.8868 6.16441L36.2349 6.70769V7.99604Q36.2349 8.05812 36.1922 8.10469Q36.1495 8.15126 36.0796 8.15126Q36.0098 8.15126 35.9671 8.10469Q35.9244 8.05812 35.9244 7.99604V2.56326Q35.9244 2.50117 35.9671 2.4546Q36.0098 2.40804 36.0796 2.40804Q36.1495 2.40804 36.1922 2.4546Q36.2349 2.50117 36.2349 2.56326V6.31964L38.6719 4.27846Q38.7184 4.2319 38.7727 4.2319Q38.8348 4.2319 38.8814 4.27846Q38.928 4.32503 38.928 4.39488Q38.928 4.46473 38.8736 4.5113L37.1274 5.96262L38.928 7.87962Q38.9745 7.92619 38.9745 7.99604ZM43.282 4.43369V7.99604Q43.282 8.05812 43.2354 8.10469Q43.1888 8.15126 43.1267 8.15126Q43.0569 8.15126 43.0142 8.10469Q42.9715 8.05812 42.9715 7.99604V7.29754Q42.7775 7.69335 42.3739 7.96111Q41.9703 8.22887 41.4814 8.22887Q40.9691 8.22887 40.5578 7.96111Q40.1465 7.69335 39.9136 7.22381Q39.6808 6.75426 39.6808 6.17217Q39.6808 5.59785 39.9175 5.13607Q40.1542 4.67428 40.5656 4.41428Q40.9769 4.15429 41.4814 4.15429Q41.9858 4.15429 42.3894 4.41816Q42.793 4.68204 42.9715 5.12443V4.43369Q42.9715 4.3716 43.0142 4.32503Q43.0569 4.27846 43.1267 4.27846Q43.1966 4.27846 43.2393 4.32503Q43.282 4.3716 43.282 4.43369ZM43.0026 6.17217Q43.0026 5.69875 42.8085 5.30293Q42.6145 4.90711 42.2691 4.67816Q41.9238 4.44921 41.4969 4.44921Q41.07 4.44921 40.7247 4.6704Q40.3793 4.89159 40.1853 5.28353Q39.9912 5.67546 39.9912 6.17217Q39.9912 6.66889 40.1853 7.07246Q40.3793 7.47604 40.7208 7.70499Q41.0623 7.93395 41.4969 7.93395Q41.9238 7.93395 42.2691 7.70499Q42.6145 7.47604 42.8085 7.07246Q43.0026 6.66889 43.0026 6.17217Z" style="display:inline;stroke:#000000;stroke-width:0.35;stroke-linecap:round;stroke-linejoin:bevel" />
        <g id="sapphire_insignia">
            <path id="brand_name" d="M15.5864 124.775Q15.5864 124.721 15.6485 124.674Q15.6873 124.636 15.7417 124.636Q15.8193 124.636 15.8658 124.698Q16.316 125.342 17.1231 125.342Q17.5345 125.342 17.8449 125.136Q18.1554 124.93 18.1554 124.581Q18.1554 124.224 17.8837 124.046Q17.6121 123.867 17.1387 123.751Q16.51 123.596 16.1491 123.336Q15.7882 123.076 15.7882 122.602Q15.7882 122.144 16.153 121.845Q16.5178 121.547 17.0921 121.547Q17.4103 121.547 17.7246 121.671Q18.0389 121.795 18.2951 122.067Q18.3494 122.113 18.3494 122.175Q18.3494 122.245 18.2951 122.299Q18.233 122.331 18.1942 122.331Q18.1398 122.331 18.101 122.284Q17.6975 121.842 17.061 121.842Q16.6497 121.842 16.3664 122.043Q16.0831 122.245 16.0831 122.602Q16.1064 122.936 16.3897 123.118Q16.673 123.301 17.224 123.44Q17.6198 123.541 17.8798 123.662Q18.1398 123.782 18.2951 123.999Q18.4503 124.216 18.4503 124.566Q18.4503 125.055 18.0739 125.338Q17.6975 125.621 17.0921 125.621Q16.2073 125.621 15.6408 124.923Q15.5864 124.837 15.5864 124.775ZM22.7965 121.826V125.388Q22.7965 125.45 22.7499 125.497Q22.7034 125.544 22.6413 125.544Q22.5714 125.544 22.5287 125.497Q22.4861 125.45 22.4861 125.388V124.69Q22.292 125.086 21.8885 125.353Q21.4849 125.621 20.9959 125.621Q20.4837 125.621 20.0724 125.353Q19.661 125.086 19.4282 124.616Q19.1953 124.147 19.1953 123.565Q19.1953 122.99 19.4321 122.528Q19.6688 122.067 20.0801 121.807Q20.4915 121.547 20.9959 121.547Q21.5004 121.547 21.904 121.811Q22.3076 122.074 22.4861 122.517V121.826Q22.4861 121.764 22.5287 121.717Q22.5714 121.671 22.6413 121.671Q22.7111 121.671 22.7538 121.717Q22.7965 121.764 22.7965 121.826ZM22.5171 123.565Q22.5171 123.091 22.3231 122.695Q22.129 122.299 21.7837 122.071Q21.4383 121.842 21.0114 121.842Q20.5846 121.842 20.2392 122.063Q19.8938 122.284 19.6998 122.676Q19.5058 123.068 19.5058 123.565Q19.5058 124.061 19.6998 124.465Q19.8938 124.868 20.2353 125.097Q20.5768 125.326 21.0114 125.326Q21.4383 125.326 21.7837 125.097Q22.129 124.868 22.3231 124.465Q22.5171 124.061 22.5171 123.565ZM27.686 123.603Q27.686 124.162 27.4493 124.616Q27.2126 125.07 26.8012 125.33Q26.3899 125.59 25.8854 125.59Q25.4198 125.59 25.0317 125.357Q24.6436 125.125 24.3953 124.698V126.941Q24.3953 127.003 24.3526 127.049Q24.3099 127.096 24.2401 127.096Q24.178 127.096 24.1314 127.049Q24.0848 127.003 24.0848 126.941V121.779Q24.0848 121.717 24.1275 121.671Q24.1702 121.624 24.2401 121.624Q24.3099 121.624 24.3526 121.671Q24.3953 121.717 24.3953 121.779V122.493Q24.6281 122.051 25.0162 121.838Q25.4042 121.624 25.8854 121.624Q26.3977 121.624 26.809 121.88Q27.2203 122.136 27.4532 122.587Q27.686 123.037 27.686 123.603ZM27.3756 123.603Q27.3756 123.122 27.1776 122.738Q26.9797 122.354 26.6383 122.136Q26.2968 121.919 25.8699 121.919Q25.4353 121.919 25.0899 122.133Q24.7445 122.346 24.5544 122.73Q24.3642 123.114 24.3642 123.603Q24.3642 124.092 24.5544 124.476Q24.7445 124.861 25.0899 125.078Q25.4353 125.295 25.8699 125.295Q26.2968 125.295 26.6383 125.078Q26.9797 124.861 27.1776 124.473Q27.3756 124.085 27.3756 123.603ZM32.3039 123.603Q32.3039 124.162 32.0671 124.616Q31.8304 125.07 31.4191 125.33Q31.0078 125.59 30.5033 125.59Q30.0376 125.59 29.6496 125.357Q29.2615 125.125 29.0132 124.698V126.941Q29.0132 127.003 28.9705 127.049Q28.9278 127.096 28.8579 127.096Q28.7958 127.096 28.7493 127.049Q28.7027 127.003 28.7027 126.941V121.779Q28.7027 121.717 28.7454 121.671Q28.7881 121.624 28.8579 121.624Q28.9278 121.624 28.9705 121.671Q29.0132 121.717 29.0132 121.779V122.493Q29.246 122.051 29.634 121.838Q30.0221 121.624 30.5033 121.624Q31.0155 121.624 31.4269 121.88Q31.8382 122.136 32.071 122.587Q32.3039 123.037 32.3039 123.603ZM31.9934 123.603Q31.9934 123.122 31.7955 122.738Q31.5976 122.354 31.2561 122.136Q30.9146 121.919 30.4878 121.919Q30.0531 121.919 29.7078 122.133Q29.3624 122.346 29.1723 122.73Q28.9821 123.114 28.9821 123.603Q28.9821 124.092 29.1723 124.476Q29.3624 124.861 29.7078 125.078Q30.0531 125.295 30.4878 125.295Q30.9146 125.295 31.2561 125.078Q31.5976 124.861 31.7955 124.473Q31.9934 124.085 31.9934 123.603ZM36.394 123.122V125.388Q36.394 125.45 36.3474 125.497Q36.3008 125.544 36.2387 125.544Q36.1689 125.544 36.1262 125.497Q36.0835 125.45 36.0835 125.388V123.122Q36.0835 122.587 35.8196 122.253Q35.5558 121.919 35.0125 121.919Q34.6788 121.919 34.3567 122.082Q34.0346 122.245 33.8328 122.525Q33.631 122.804 33.631 123.122V125.388Q33.631 125.45 33.5844 125.497Q33.5379 125.544 33.4758 125.544Q33.4059 125.544 33.3633 125.497Q33.3206 125.45 33.3206 125.388V119.956Q33.3206 119.894 33.3671 119.847Q33.4137 119.8 33.4758 119.8Q33.5456 119.8 33.5883 119.847Q33.631 119.894 33.631 119.956V122.408Q33.8483 122.067 34.2325 121.845Q34.6167 121.624 35.0125 121.624Q35.6799 121.624 36.037 122.047Q36.394 122.47 36.394 123.122ZM37.8375 125.544Q37.7677 125.544 37.725 125.497Q37.6823 125.45 37.6823 125.388V121.702Q37.6823 121.64 37.7289 121.593Q37.7754 121.547 37.8375 121.547Q37.9074 121.547 37.9501 121.593Q37.9928 121.64 37.9928 121.702V125.388Q37.9928 125.45 37.9462 125.497Q37.8996 125.544 37.8375 125.544ZM37.5659 120.771V120.708Q37.5659 120.6 37.6435 120.53Q37.7211 120.46 37.8453 120.46Q37.954 120.46 38.0277 120.53Q38.1014 120.6 38.1014 120.708V120.771Q38.1014 120.879 38.0277 120.949Q37.954 121.019 37.8375 121.019Q37.7134 121.019 37.6396 120.949Q37.5659 120.879 37.5659 120.771ZM41.3921 121.725Q41.3921 121.795 41.3533 121.842Q41.3145 121.888 41.2524 121.888Q41.2291 121.888 41.1399 121.853Q41.0506 121.818 40.9497 121.818Q40.6315 121.818 40.3133 122.071Q39.9951 122.323 39.7933 122.707Q39.5915 123.091 39.5915 123.448V125.388Q39.5915 125.45 39.545 125.497Q39.4984 125.544 39.4363 125.544Q39.3665 125.544 39.3238 125.497Q39.2811 125.45 39.2811 125.388V121.826Q39.2811 121.764 39.3277 121.717Q39.3742 121.671 39.4363 121.671Q39.5062 121.671 39.5489 121.717Q39.5915 121.764 39.5915 121.826V122.649Q39.7701 122.175 40.1465 121.865Q40.5229 121.554 41.0351 121.547Q41.3921 121.547 41.3921 121.725ZM45.3348 124.752Q45.3348 124.806 45.3037 124.845Q45.0476 125.187 44.6673 125.404Q44.287 125.621 43.8524 125.621Q43.2703 125.621 42.8202 125.373Q42.37 125.125 42.1178 124.667Q41.8656 124.209 41.8656 123.603Q41.8656 122.982 42.11 122.513Q42.3545 122.043 42.7581 121.795Q43.1617 121.547 43.6196 121.547Q44.0775 121.547 44.4694 121.745Q44.8613 121.942 45.1097 122.338Q45.3581 122.734 45.3736 123.316Q45.3736 123.378 45.327 123.429Q45.2804 123.479 45.2184 123.479H42.1682V123.58Q42.1682 124.061 42.3623 124.461Q42.5563 124.861 42.9366 125.093Q43.3169 125.326 43.8524 125.326Q44.2249 125.326 44.5548 125.144Q44.8846 124.962 45.0709 124.682Q45.1252 124.612 45.2028 124.612Q45.2572 124.612 45.296 124.655Q45.3348 124.698 45.3348 124.752ZM42.1993 123.184H45.0554V123.114Q45.0166 122.719 44.8031 122.435Q44.5897 122.152 44.2754 122.005Q43.9611 121.857 43.6196 121.857Q43.3324 121.857 43.0336 122.008Q42.7348 122.16 42.5058 122.459Q42.2769 122.757 42.1993 123.184Z" style="fill:#000000;stroke:#000000;stroke-width:0.265;stroke-linecap:square" />
            <g id="gemstones" style="stroke-width:0;fill:#0000ff;stroke:#2e2114;stroke-linecap:square;stroke-opacity:1">
                <path d="m 12.930,122.900 q 0,0.34175 -0.242534,0.63114 -0.0441,0.0524 -0.20395,0.21497 -0.187413,0.19017 -0.785481,0.81304 l -1.444183,1.51309 q -0.01929,0.003 -0.0441,0.003 -0.02756,0 -0.04134,-0.003 -0.08268,-0.0827 -0.647678,-0.67524 -0.468532,-0.47404 -0.934309,-0.94809 -0.556727,-0.56775 -0.89848,-0.98116 -0.132292,-0.15985 -0.168121,-0.29766 -0.02756,-0.10197 -0.02756,-0.34175 0,-0.11024 0.07166,-0.28939 0.06614,-0.16536 0.140559,-0.26458 0.118512,-0.1571 0.42168,-0.42444 0.283875,-0.2508 0.474044,-0.37482 0.272852,-0.17915 0.818555,-0.36656 0.09646,-0.0331 0.110243,-0.0331 h 1.3615 q 0.01102,0 0.104731,0.0331 0.567751,0.20119 0.824066,0.36656 0.165365,0.10473 0.474045,0.37758 0.322461,0.28388 0.421679,0.42168 0.214974,0.2949 0.214974,0.62563 z m -0.16812,-0.27285 q -0.03307,-0.10749 -0.135048,-0.30868 -0.07166,-0.0937 -0.209462,-0.19844 -0.118511,-0.0854 -0.234266,-0.17088 0.245291,0.3638 0.578776,0.678 z m -0.573264,-0.52366 -0.358289,-0.44648 v 0.41065 z m 0.636653,0.75792 q 0,-0.0524 -0.341753,-0.39412 l 0.228754,0.7028 h 0.04961 q 0.06339,-0.21773 0.06339,-0.30868 z m -0.23151,0.27285 -0.316948,-0.90399 -0.410655,-0.0634 -0.159853,0.61461 z m 0.0028,0.15434 -0.771701,-0.3197 h -0.03032 l 0.344509,0.60634 q 0.07993,-0.003 0.234266,-0.0469 0.02481,-0.0138 0.223242,-0.23978 z m -0.857139,-1.05006 -0.719335,0.28388 0.60358,0.22599 z m 0,-0.16261 v -0.51538 l -0.917773,-0.38034 h -1.223697 l -0.917772,0.38034 v 0.51538 l 0.89848,0.4079 h 1.254014 z m 0.573264,1.53789 q -0.0689,0.011 -0.198438,0.0524 -0.08544,0.0551 -0.259071,0.16261 0.01929,0 0.06339,0.003 0.04134,0 0.06339,0 0.118511,0 0.190169,-0.0689 0.07166,-0.0717 0.14056,-0.14883 z m -0.289388,0.003 -0.347266,-0.63114 -0.363801,0.87918 q 0.0248,-0.0165 0.06615,-0.0165 0.03032,0 0.08544,0.011 0.05788,0.008 0.08819,0.008 0.04961,0 0.228754,-0.10749 0.228754,-0.1378 0.242535,-0.14331 z m -0.440972,-0.74139 -0.683507,-0.2756 -0.592556,0.54845 0.903993,0.65595 z m -0.854383,-0.28387 h -1.036284 l 0.523654,0.47404 z m 0.749652,1.36701 q -0.228754,-0.0303 -0.228754,-0.0303 -0.03583,0 -0.272851,0.0937 l 0.190169,0.0193 q 0.01102,0 0.311436,-0.0827 z m -0.388606,-0.0882 -0.843359,-0.61185 v 0.67524 l 0.471289,0.0827 z m 0.854383,0.0496 q -0.09922,0.006 -0.2949,0.0386 -0.01102,0.003 -0.377583,0.17639 -0.129535,0.34726 -0.380338,1.0418 z m -2.543857,-1.39733 -0.719335,-0.28388 0.124023,0.51814 z m -0.802018,-0.45476 v -0.41065 l -0.366557,0.44648 z m 1.515841,1.07212 -0.592556,-0.54019 -0.683506,0.2756 0.380338,0.9288 z m 0.369314,0.94257 q -0.03307,-0.003 -0.135047,-0.0248 -0.08544,-0.0165 -0.137804,-0.0165 -0.05237,0 -0.137804,0.0165 -0.101975,0.0221 -0.135047,0.0248 0.264583,0.0469 0.272851,0.0469 0.0083,0 0.272851,-0.0469 z m -0.30868,-0.1378 v -0.68626 l -0.843359,0.61185 0.37207,0.14607 z m 0.950846,0.20671 -0.396875,-0.0551 -0.479557,0.14056 v 1.27607 z m -2.888366,-2.20211 q -0.118512,0.0854 -0.234267,0.17364 -0.146072,0.10748 -0.209461,0.19568 -0.0441,0.10473 -0.135048,0.31419 0.369314,-0.3638 0.578776,-0.68351 z m 0.476801,0.83234 -0.159853,-0.61461 -0.410655,0.0634 -0.316948,0.90399 z m 0.394118,1.08313 -0.363802,-0.87918 -0.355533,0.63114 q 0.43546,0.2508 0.451996,0.2508 0.09095,0 0.267339,-0.003 z m 1.821765,0.82958 q -0.132291,0.21222 -0.405143,0.6339 -0.07717,0.10749 -0.220486,0.32797 -0.05788,0.10473 -0.05512,0.226 0.159852,-0.15158 0.432704,-0.49609 0.07717,-0.12954 0.140559,-0.339 0.05512,-0.17639 0.107486,-0.35278 z m -1.493792,-0.66146 -0.270095,-0.0882 -0.0083,-0.011 q -0.02481,0 -0.107487,0.011 -0.06615,0.006 -0.107487,0.006 0.272851,0.091 0.311436,0.091 0.02481,0 0.181901,-0.008 z m -0.810286,-1.06384 h -0.03032 l -0.7717,0.3197 q 0.06615,0.0965 0.223242,0.23978 0.07717,0.0138 0.234266,0.0469 z m -0.689018,-0.50161 q -0.341754,0.34727 -0.341754,0.39412 0,0.0799 0.06339,0.30868 h 0.04961 z m 2.235176,3.04547 v -1.27607 l -0.479557,-0.14056 -0.396875,0.0551 z m -1.606791,-1.6757 q -0.256315,-0.1819 -0.457509,-0.22324 0.06615,0.0772 0.20395,0.22324 z m 1.609547,2.04501 v -0.1378 l -0.683507,-1.05007 q 0.05237,0.17639 0.107487,0.35278 0.06339,0.20946 0.14056,0.339 0.0689,0.11851 0.20395,0.25907 0.115755,0.11851 0.23151,0.23702 z m -0.644921,-0.70555 q -0.115756,-0.32798 -0.380339,-1.0418 -0.135047,-0.0662 -0.272851,-0.12954 -0.159852,-0.0716 -0.289388,-0.0716 -0.05237,0 -0.110243,-0.0138 z" />
                <path d="m 53.460,122.900 q 0,0.34175 -0.242534,0.63114 -0.0441,0.0524 -0.20395,0.21497 -0.187413,0.19017 -0.785481,0.81304 l -1.444183,1.51309 q -0.01929,0.003 -0.0441,0.003 -0.02756,0 -0.04134,-0.003 -0.08268,-0.0827 -0.647678,-0.67524 -0.468532,-0.47404 -0.934309,-0.94809 -0.556727,-0.56775 -0.89848,-0.98116 -0.132292,-0.15985 -0.168121,-0.29766 -0.02756,-0.10197 -0.02756,-0.34175 0,-0.11024 0.07166,-0.28939 0.06614,-0.16536 0.140559,-0.26458 0.118512,-0.1571 0.42168,-0.42444 0.283875,-0.2508 0.474044,-0.37482 0.272852,-0.17915 0.818555,-0.36656 0.09646,-0.0331 0.110243,-0.0331 h 1.3615 q 0.01102,0 0.104731,0.0331 0.567751,0.20119 0.824066,0.36656 0.165365,0.10473 0.474045,0.37758 0.322461,0.28388 0.421679,0.42168 0.214974,0.2949 0.214974,0.62563 z m -0.16812,-0.27285 q -0.03307,-0.10749 -0.135048,-0.30868 -0.07166,-0.0937 -0.209462,-0.19844 -0.118511,-0.0854 -0.234266,-0.17088 0.245291,0.3638 0.578776,0.678 z m -0.573264,-0.52366 -0.358289,-0.44648 v 0.41065 z m 0.636653,0.75792 q 0,-0.0524 -0.341753,-0.39412 l 0.228754,0.7028 h 0.04961 q 0.06339,-0.21773 0.06339,-0.30868 z m -0.23151,0.27285 -0.316948,-0.90399 -0.410655,-0.0634 -0.159853,0.61461 z m 0.0028,0.15434 -0.771701,-0.3197 h -0.03032 l 0.344509,0.60634 q 0.07993,-0.003 0.234266,-0.0469 0.02481,-0.0138 0.223242,-0.23978 z m -0.857139,-1.05006 -0.719335,0.28388 0.60358,0.22599 z m 0,-0.16261 v -0.51538 l -0.917773,-0.38034 h -1.223697 l -0.917772,0.38034 v 0.51538 l 0.89848,0.4079 h 1.254014 z m 0.573264,1.53789 q -0.0689,0.011 -0.198438,0.0524 -0.08544,0.0551 -0.259071,0.16261 0.01929,0 0.06339,0.003 0.04134,0 0.06339,0 0.118511,0 0.190169,-0.0689 0.07166,-0.0717 0.14056,-0.14883 z m -0.289388,0.003 -0.347266,-0.63114 -0.363801,0.87918 q 0.0248,-0.0165 0.06615,-0.0165 0.03032,0 0.08544,0.011 0.05788,0.008 0.08819,0.008 0.04961,0 0.228754,-0.10749 0.228754,-0.1378 0.242535,-0.14331 z m -0.440972,-0.74139 -0.683507,-0.2756 -0.592556,0.54845 0.903993,0.65595 z m -0.854383,-0.28387 h -1.036284 l 0.523654,0.47404 z m 0.749652,1.36701 q -0.228754,-0.0303 -0.228754,-0.0303 -0.03583,0 -0.272851,0.0937 l 0.190169,0.0193 q 0.01102,0 0.311436,-0.0827 z m -0.388606,-0.0882 -0.843359,-0.61185 v 0.67524 l 0.471289,0.0827 z m 0.854383,0.0496 q -0.09922,0.006 -0.2949,0.0386 -0.01102,0.003 -0.377583,0.17639 -0.129535,0.34726 -0.380338,1.0418 z m -2.543857,-1.39733 -0.719335,-0.28388 0.124023,0.51814 z m -0.802018,-0.45476 v -0.41065 l -0.366557,0.44648 z m 1.515841,1.07212 -0.592556,-0.54019 -0.683506,0.2756 0.380338,0.9288 z m 0.369314,0.94257 q -0.03307,-0.003 -0.135047,-0.0248 -0.08544,-0.0165 -0.137804,-0.0165 -0.05237,0 -0.137804,0.0165 -0.101975,0.0221 -0.135047,0.0248 0.264583,0.0469 0.272851,0.0469 0.0083,0 0.272851,-0.0469 z m -0.30868,-0.1378 v -0.68626 l -0.843359,0.61185 0.37207,0.14607 z m 0.950846,0.20671 -0.396875,-0.0551 -0.479557,0.14056 v 1.27607 z m -2.888366,-2.20211 q -0.118512,0.0854 -0.234267,0.17364 -0.146072,0.10748 -0.209461,0.19568 -0.0441,0.10473 -0.135048,0.31419 0.369314,-0.3638 0.578776,-0.68351 z m 0.476801,0.83234 -0.159853,-0.61461 -0.410655,0.0634 -0.316948,0.90399 z m 0.394118,1.08313 -0.363802,-0.87918 -0.355533,0.63114 q 0.43546,0.2508 0.451996,0.2508 0.09095,0 0.267339,-0.003 z m 1.821765,0.82958 q -0.132291,0.21222 -0.405143,0.6339 -0.07717,0.10749 -0.220486,0.32797 -0.05788,0.10473 -0.05512,0.226 0.159852,-0.15158 0.432704,-0.49609 0.07717,-0.12954 0.140559,-0.339 0.05512,-0.17639 0.107486,-0.35278 z m -1.493792,-0.66146 -0.270095,-0.0882 -0.0083,-0.011 q -0.02481,0 -0.107487,0.011 -0.06615,0.006 -0.107487,0.006 0.272851,0.091 0.311436,0.091 0.02481,0 0.181901,-0.008 z m -0.810286,-1.06384 h -0.03032 l -0.7717,0.3197 q 0.06615,0.0965 0.223242,0.23978 0.07717,0.0138 0.234266,0.0469 z m -0.689018,-0.50161 q -0.341754,0.34727 -0.341754,0.39412 0,0.0799 0.06339,0.30868 h 0.04961 z m 2.235176,3.04547 v -1.27607 l -0.479557,-0.14056 -0.396875,0.0551 z m -1.606791,-1.6757 q -0.256315,-0.1819 -0.457509,-0.22324 0.06615,0.0772 0.20395,0.22324 z m 1.609547,2.04501 v -0.1378 l -0.683507,-1.05007 q 0.05237,0.17639 0.107487,0.35278 0.06339,0.20946 0.14056,0.339 0.0689,0.11851 0.20395,0.25907 0.115755,0.11851 0.23151,0.23702 z m -0.644921,-0.70555 q -0.115756,-0.32798 -0.380339,-1.0418 -0.135047,-0.0662 -0.272851,-0.12954 -0.159852,-0.0716 -0.289388,-0.0716 -0.05237,0 -0.110243,-0.0138 z" />
            </g>
        </g>
        <path id="boundary_fric" d="M 2.40,32.00 8.01,28.50 13.62,32.00 13.62,86.00 8.01,89.50 2.40,86.00 z" style="fill:url(#gradient_fric);fill-opacity:1;stroke:#000000;stroke-width:0.0;stroke-linecap:square" />
        <path id="boundary_stif" d="M 13.62,32.00 19.23,28.50 24.84,32.00 24.84,86.00 19.23,89.50 13.62,86.00 z" style="fill:url(#gradient_stif);fill-opacity:1;stroke:#000000;stroke-width:0.0;stroke-linecap:square" />
        <path id="boundary_span" d="M 24.84,32.00 30.45,28.50 36.06,32.00 36.06,86.00 30.45,89.50 24.84,86.00 z" style="fill:url(#gradient_span);fill-opacity:1;stroke:#000000;stroke-width:0.0;stroke-linecap:square" />
        <path id="boundary_curl" d="M 36.06,32.00 41.67,28.50 47.28,32.00 47.28,86.00 41.67,89.50 36.06,86.00 z" style="fill:url(#gradient_curl);fill-opacity:1;stroke:#000000;stroke-width:0.0;stroke-linecap:square" />
        <path id="boundary_tilt" d="M 47.28,32.00 52.89,28.50 58.50,32.00 58.50,86.00 52.89,89.50 47.28,86.00 z" style="fill:url(#gradient_tilt);fill-opacity:1;stroke:#000000;stroke-width:0.0;stroke-linecap:square" />
        <path id="boundary_power" d="M 24.84,90.00 30.45,86.50 36.06,90.00 36.06,109.00 30.45,112.50 24.84,109.00 z" style="fill:url(#gradient_power);fill-opacity:1;stroke:#000000;stroke-width:0.0;stroke-linecap:square" />
    </g>
</svg>
