<?xml version="1.0" encoding="utf-8"?>
<svg xmlns="http://www.w3.org/2000/svg" width="30.48mm" height="128.50mm" viewBox="0 0 30.48 128.50">
    <g id="PanelLayer">
        <defs>
            <linearGradient id="gradient_controls" x1="0" y1="25" x2="0" y2="81" gradientUnits="userSpaceOnUse">
                <stop style="stop-color:#3068ff;stop-opacity:1;" offset="0" />
                <stop style="stop-color:#4f8df2;stop-opacity:1;" offset="1" />
            </linearGradient>
            <linearGradient id="gradient_output" x1="0" y1="82.75" x2="0" y2="98.75" gradientUnits="userSpaceOnUse">
                <stop style="stop-color:#a06de4;stop-opacity:1;" offset="0" />
                <stop style="stop-color:#4f8df2;stop-opacity:1;" offset="1" />
            </linearGradient>
            <linearGradient id="gradient_env" x1="0" y1="115" x2="0" y2="126.5" gradientUnits="userSpaceOnUse">
                <stop style="stop-color:#4b9488;stop-opacity:1;" offset="0" />
                <stop style="stop-color:#4f8df2;stop-opacity:1;" offset="1" />
            </linearGradient>
        </defs>
        <rect id="border_rect" width="30.48" height="128.5" x="0" y="0" style="display:inline;fill:#4f8df2;fill-opacity:1;stroke:none;" />
        <path id="controls_art" d="M 0.24,81.00 L 0.24,29.00 A 4 4 0 0 1 4.24 25 L 26.24,25.00 A 4 4 0 0 1 30.24 29 L 30.24,25.00 L 30.24,81.00 z" style="fill:url(#gradient_controls);fill-opacity:1;stroke-width:0;" />
        <path id="output_art" d="M 0.24,98.75 L 0.24,86.75 A 4 4 0 0 1 4.24 82.75 L 26.24,82.75 A 4 4 0 0 1 30.24 86.75 L 30.24,82.75 L 30.24,98.75 z" style="fill:url(#gradient_output);fill-opacity:1;stroke-width:0;" />
        <path id="env_art" d="M 0.24,126.50 L 0.24,114.00 A 4 4 0 0 1 4.24 110 L 26.24,110.00 A 4 4 0 0 1 30.24 114 L 30.24,110.00 L 30.24,126.50 z" style="fill:url(#gradient_env);fill-opacity:1;stroke-width:0;" />
        <path d="M 6.24,35.00 L 24.24,35.00 z " style="stroke:#000000;stroke-width:0.25;stroke-linecap:round;stroke-linejoin:bevel;stroke-dasharray:none" />
        <path d="M12.513 27.8499Q12.513 27.8817 12.4919 27.9011Q12.4707 27.9205 12.4425 27.9205H11.1831V28.8942H12.2837Q12.3119 28.8942 12.3331 28.9153Q12.3543 28.9365 12.3543 28.9647Q12.3543 28.9965 12.3331 29.0159Q12.3119 29.0353 12.2837 29.0353H11.1831V30.1783Q11.1831 30.2065 11.1637 30.2277Q11.1443 30.2488 11.1125 30.2488Q11.0808 30.2488 11.0613 30.2277Q11.0419 30.2065 11.0419 30.1783V27.8499Q11.0419 27.8217 11.0631 27.8006Q11.0843 27.7794 11.1125 27.7794H12.4425Q12.4707 27.7794 12.4919 27.8006Q12.513 27.8217 12.513 27.8499ZM14.8378 30.1747Q14.8378 30.2065 14.8184 30.2259Q14.799 30.2453 14.7708 30.2453Q14.7496 30.2453 14.7391 30.2383Q14.6438 30.1853 14.5874 30.0601Q14.5309 29.9349 14.5309 29.6491Q14.5309 29.3598 14.3757 29.2522Q14.2205 29.1446 14.0159 29.1446H13.1904V30.1783Q13.1904 30.2065 13.1692 30.2277Q13.148 30.2488 13.1163 30.2488Q13.0845 30.2488 13.0634 30.2277Q13.0422 30.2065 13.0422 30.1783V27.8499Q13.0422 27.8217 13.0634 27.8006Q13.0845 27.7794 13.1128 27.7794H14.0441Q14.2487 27.7794 14.4074 27.8623Q14.5662 27.9452 14.6544 28.0898Q14.7426 28.2345 14.7426 28.4179Q14.7426 28.6543 14.6173 28.8236Q14.4921 28.9929 14.291 29.0529Q14.4604 29.1058 14.5697 29.2628Q14.6791 29.4198 14.6791 29.6491Q14.6791 29.8855 14.7091 29.979Q14.7391 30.0724 14.799 30.1113Q14.8378 30.1359 14.8378 30.1747ZM14.0617 29.0035Q14.284 28.9824 14.4392 28.8271Q14.5944 28.6719 14.5944 28.4214Q14.5944 28.2027 14.4392 28.0616Q14.284 27.9205 14.0264 27.9205H13.1904V29.0035ZM16.8557 30.1783Q16.8557 30.21 16.8346 30.2294Q16.8134 30.2488 16.7852 30.2488H15.4552Q15.427 30.2488 15.4058 30.2277Q15.3846 30.2065 15.3846 30.1783V27.8499Q15.3846 27.8217 15.4058 27.8006Q15.427 27.7794 15.4552 27.7794H16.7852Q16.8134 27.7794 16.8346 27.8006Q16.8557 27.8217 16.8557 27.8499Q16.8557 27.8817 16.8346 27.9011Q16.8134 27.9205 16.7852 27.9205H15.5328V28.9047H16.6264Q16.6546 28.9047 16.6758 28.9259Q16.697 28.9471 16.697 28.9753Q16.697 29.0071 16.6758 29.0265Q16.6546 29.0459 16.6264 29.0459H15.5328V30.1077H16.7852Q16.8134 30.1077 16.8346 30.1289Q16.8557 30.1501 16.8557 30.1783ZM19.8438 30.5381Q19.8438 30.6051 19.745 30.6739Q19.6462 30.7427 19.4998 30.7868Q19.3534 30.8309 19.2229 30.8309Q19.0288 30.8309 18.8948 30.7886Q18.7607 30.7462 18.5879 30.6616Q18.4432 30.5875 18.3374 30.5522Q18.2316 30.5169 18.094 30.5169Q18.0446 30.5169 18.004 30.5293Q17.9634 30.5416 17.907 30.5663Q17.8435 30.5946 17.8223 30.5946Q17.7941 30.5946 17.7729 30.5734Q17.7518 30.5522 17.7518 30.5205Q17.7518 30.4781 17.7906 30.4605L18.3056 30.2806Q17.9846 30.2629 17.7359 30.0971Q17.4872 29.9313 17.3478 29.6509Q17.2085 29.3704 17.2085 29.0141Q17.2085 28.6437 17.3584 28.3544Q17.5084 28.0651 17.7765 27.9046Q18.0446 27.7441 18.3868 27.7441Q18.729 27.7441 18.9971 27.9046Q19.2652 28.0651 19.4151 28.3544Q19.5651 28.6437 19.5651 29.0141Q19.5651 29.3316 19.4539 29.5891Q19.3428 29.8467 19.14 30.0195Q18.9371 30.1924 18.6725 30.2524L18.2386 30.3935Q18.348 30.4041 18.4415 30.4393Q18.5349 30.4746 18.6655 30.5381Q18.8348 30.6193 18.9512 30.6581Q19.0676 30.6969 19.2229 30.6969Q19.3534 30.6969 19.4469 30.6633Q19.5404 30.6298 19.6286 30.5804Q19.6568 30.5663 19.6956 30.5275Q19.7168 30.5064 19.7397 30.4922Q19.7626 30.4781 19.7838 30.4781Q19.812 30.4781 19.8279 30.494Q19.8438 30.5099 19.8438 30.5381ZM18.3868 30.143Q18.6866 30.143 18.9212 30.0019Q19.1558 29.8608 19.2864 29.6032Q19.4169 29.3457 19.4169 29.0141Q19.4169 28.6825 19.2864 28.425Q19.1558 28.1674 18.9212 28.0263Q18.6866 27.8852 18.3868 27.8852Q18.0869 27.8852 17.8523 28.0263Q17.6177 28.1674 17.4872 28.425Q17.3567 28.6825 17.3567 29.0141Q17.3567 29.3457 17.4872 29.6032Q17.6177 29.8608 17.8523 30.0019Q18.0869 30.143 18.3868 30.143Z" style="stroke:#000000;stroke-width:0.25;stroke-linecap:round;stroke-linejoin:bevel" />
        <path d="M 6.24,48.33 L 24.24,48.33 z " style="stroke:#000000;stroke-width:0.25;stroke-linecap:round;stroke-linejoin:bevel;stroke-dasharray:none" />
        <path d="M 6.24,61.67 L 24.24,61.67 z " style="stroke:#000000;stroke-width:0.25;stroke-linecap:round;stroke-linejoin:bevel;stroke-dasharray:none" />
        <path d="M13.7054 55.1199Q13.7054 55.3174 13.6225 55.4779Q13.5396 55.6384 13.3879 55.7284Q13.2362 55.8184 13.0387 55.8184H12.2696V56.8449Q12.2696 56.8732 12.2467 56.8943Q12.2238 56.9155 12.1955 56.9155Q12.1638 56.9155 12.1426 56.8943Q12.1214 56.8732 12.1214 56.8449V54.5166Q12.1214 54.4884 12.1426 54.4672Q12.1638 54.4461 12.192 54.4461H13.0387Q13.3385 54.4461 13.522 54.633Q13.7054 54.82 13.7054 55.1199ZM13.5573 55.1199Q13.5573 54.8764 13.4179 54.7318Q13.2786 54.5872 13.0387 54.5872H12.2696V55.6773H13.0387Q13.275 55.6773 13.4161 55.5203Q13.5573 55.3633 13.5573 55.1199ZM16.0302 56.8485Q16.0302 56.8802 16.0091 56.8979Q15.9879 56.9155 15.9561 56.9155Q15.9314 56.9155 15.912 56.9032Q15.8926 56.8908 15.8856 56.8696L15.5893 56.1429L15.5928 56.15H14.411L14.1252 56.8696Q14.1076 56.9155 14.0617 56.9155Q14.03 56.9155 14.0106 56.8979Q13.9912 56.8802 13.9876 56.8555Q13.9841 56.8414 13.9912 56.8203L14.9401 54.4849Q14.9507 54.4566 14.9666 54.4478Q14.9825 54.439 15.0072 54.439Q15.0601 54.439 15.0777 54.4849L16.0267 56.8203Q16.0302 56.8308 16.0302 56.8485ZM14.4674 56.0089H15.5363L14.9966 54.6789ZM18.3586 54.5131V56.8379Q18.3586 56.8767 18.3374 56.8961Q18.3162 56.9155 18.2845 56.9155Q18.2492 56.9155 18.228 56.8873L16.6405 54.7177V56.8555Q16.6405 56.8802 16.6211 56.8979Q16.6017 56.9155 16.5735 56.9155Q16.5418 56.9155 16.5241 56.8979Q16.5065 56.8802 16.5065 56.8555V54.5166Q16.5065 54.4813 16.5259 54.4637Q16.5453 54.4461 16.57 54.4461Q16.6017 54.4461 16.6229 54.4708L18.2245 56.6544V54.5131Q18.2245 54.4849 18.2439 54.4655Q18.2633 54.4461 18.2915 54.4461Q18.3233 54.4461 18.3409 54.4655Q18.3586 54.4849 18.3586 54.5131Z" style="stroke:#000000;stroke-width:0.25;stroke-linecap:round;stroke-linejoin:bevel" />
        <path d="M 6.24,75.00 L 24.24,75.00 z " style="stroke:#000000;stroke-width:0.25;stroke-linecap:round;stroke-linejoin:bevel;stroke-dasharray:none" />
        <path d="M12.0227 70.1783Q12.0227 70.21 12.0015 70.2294Q11.9803 70.2488 11.9521 70.2488H10.6574Q10.6257 70.2488 10.6063 70.2277Q10.5869 70.2065 10.5869 70.1783V67.8499Q10.5869 67.8217 10.608 67.8006Q10.6292 67.7794 10.6609 67.7794Q10.6927 67.7794 10.7139 67.8006Q10.735 67.8217 10.735 67.8499V70.1077H11.9521Q11.9803 70.1077 12.0015 70.1289Q12.0227 70.1501 12.0227 70.1783ZM13.8994 70.1783Q13.8994 70.21 13.8783 70.2294Q13.8571 70.2488 13.8289 70.2488H12.4989Q12.4707 70.2488 12.4495 70.2277Q12.4284 70.2065 12.4284 70.1783V67.8499Q12.4284 67.8217 12.4495 67.8006Q12.4707 67.7794 12.4989 67.7794H13.8289Q13.8571 67.7794 13.8783 67.8006Q13.8994 67.8217 13.8994 67.8499Q13.8994 67.8817 13.8783 67.9011Q13.8571 67.9205 13.8289 67.9205H12.5765V68.9048H13.6701Q13.6984 68.9048 13.7195 68.9259Q13.7407 68.9471 13.7407 68.9753Q13.7407 69.0071 13.7195 69.0265Q13.6984 69.0459 13.6701 69.0459H12.5765V70.1077H13.8289Q13.8571 70.1077 13.8783 70.1289Q13.8994 70.1501 13.8994 70.1783ZM16.2807 67.8429Q16.2807 67.857 16.2736 67.8782L15.307 70.203Q15.2859 70.2488 15.24 70.2488Q15.2188 70.2488 15.1994 70.2365Q15.18 70.2241 15.173 70.203L14.2134 67.8888Q14.2028 67.8676 14.2028 67.8464Q14.2028 67.8182 14.2222 67.7988Q14.2416 67.7794 14.2699 67.7794Q14.3228 67.7794 14.3475 67.8358L15.2435 69.9913L16.1431 67.8253Q16.1678 67.7794 16.2101 67.7794Q16.2419 67.7794 16.2613 67.797Q16.2807 67.8147 16.2807 67.8429ZM18.228 70.1783Q18.228 70.21 18.2069 70.2294Q18.1857 70.2488 18.1575 70.2488H16.8275Q16.7993 70.2488 16.7781 70.2277Q16.7569 70.2065 16.7569 70.1783V67.8499Q16.7569 67.8217 16.7781 67.8006Q16.7993 67.7794 16.8275 67.7794H18.1575Q18.1857 67.7794 18.2069 67.8006Q18.228 67.8217 18.228 67.8499Q18.228 67.8817 18.2069 67.9011Q18.1857 67.9205 18.1575 67.9205H16.9051V68.9048H17.9987Q18.0269 68.9048 18.0481 68.9259Q18.0693 68.9471 18.0693 68.9753Q18.0693 69.0071 18.0481 69.0265Q18.0269 69.0459 17.9987 69.0459H16.9051V70.1077H18.1575Q18.1857 70.1077 18.2069 70.1289Q18.228 70.1501 18.228 70.1783ZM20.193 70.1783Q20.193 70.21 20.1718 70.2294Q20.1507 70.2488 20.1224 70.2488H18.8278Q18.796 70.2488 18.7766 70.2277Q18.7572 70.2065 18.7572 70.1783V67.8499Q18.7572 67.8217 18.7784 67.8006Q18.7995 67.7794 18.8313 67.7794Q18.863 67.7794 18.8842 67.8006Q18.9054 67.8217 18.9054 67.8499V70.1077H20.1224Q20.1507 70.1077 20.1718 70.1289Q20.193 70.1501 20.193 70.1783Z" style="stroke:#000000;stroke-width:0.25;stroke-linecap:round;stroke-linejoin:bevel" />
        <path d="M 15.24,75.00 L 11.24,79.00 " style="stroke:#000000;stroke-width:0.25;stroke-linecap:round;stroke-linejoin:bevel;stroke-dasharray:none" fill="none" />
        <path d="M 15.24,75.00 L 19.24,79.00 " style="stroke:#000000;stroke-width:0.25;stroke-linecap:round;stroke-linejoin:bevel;stroke-dasharray:none" fill="none" />
        <path d="M 8.24,93.00 L 8.24,103.00 " style="stroke:#000000;stroke-width:0.25;stroke-linecap:round;stroke-linejoin:bevel;stroke-dasharray:none" fill="none" />
        <path d="M3.86556 87.4137Q3.84439 87.3925 3.84439 87.3608Q3.84439 87.3326 3.86908 87.3061Q3.89378 87.2796 3.922 87.2796Q3.95375 87.2796 3.98197 87.3114Q4.11956 87.4737 4.30829 87.5583Q4.49703 87.643 4.70517 87.643Q4.97681 87.643 5.15319 87.5125Q5.32958 87.3819 5.32958 87.1668Q5.32606 86.9974 5.23786 86.8881Q5.14967 86.7787 5.0209 86.7134Q4.89214 86.6482 4.66989 86.567Q4.42647 86.4753 4.29065 86.4048Q4.15483 86.3342 4.05782 86.2037Q3.96081 86.0731 3.96081 85.8615Q3.96081 85.6886 4.05606 85.5475Q4.15131 85.4064 4.32769 85.3253Q4.50408 85.2441 4.73692 85.2441Q4.94506 85.2441 5.13203 85.32Q5.319 85.3958 5.42836 85.5334Q5.46364 85.5828 5.46364 85.6075Q5.46364 85.6357 5.43718 85.6586Q5.41072 85.6816 5.37897 85.6816Q5.35075 85.6816 5.33311 85.6604Q5.23433 85.5334 5.07911 85.4593Q4.92389 85.3852 4.73692 85.3852Q4.46881 85.3852 4.29065 85.5122Q4.1125 85.6392 4.1125 85.8579Q4.1125 86.0096 4.19893 86.1155Q4.28536 86.2213 4.41589 86.2866Q4.54642 86.3518 4.74044 86.4224Q4.98739 86.5106 5.13203 86.5847Q5.27667 86.6587 5.37897 86.7999Q5.48128 86.941 5.48128 87.1738Q5.48128 87.3361 5.38603 87.4772Q5.29078 87.6183 5.11263 87.7012Q4.93447 87.7841 4.70517 87.7841Q4.44411 87.7841 4.25008 87.6942Q4.05606 87.6042 3.86556 87.4137ZM7.48506 87.6783Q7.48506 87.71 7.46389 87.7294Q7.44272 87.7488 7.4145 87.7488H6.08453Q6.05631 87.7488 6.03514 87.7277Q6.01397 87.7065 6.01397 87.6783V85.3499Q6.01397 85.3217 6.03514 85.3006Q6.05631 85.2794 6.08453 85.2794H7.4145Q7.44272 85.2794 7.46389 85.3006Q7.48506 85.3217 7.48506 85.3499Q7.48506 85.3817 7.46389 85.4011Q7.44272 85.4205 7.4145 85.4205H6.16214V86.4048H7.25575Q7.28397 86.4048 7.30514 86.4259Q7.32631 86.4471 7.32631 86.4753Q7.32631 86.5071 7.30514 86.5265Q7.28397 86.5459 7.25575 86.5459H6.16214V87.6077H7.4145Q7.44272 87.6077 7.46389 87.6289Q7.48506 87.6501 7.48506 87.6783ZM9.86631 85.3464V87.6712Q9.86631 87.71 9.84514 87.7294Q9.82397 87.7488 9.79222 87.7488Q9.75694 87.7488 9.73578 87.7206L8.14828 85.551V87.6889Q8.14828 87.7136 8.12888 87.7312Q8.10947 87.7488 8.08125 87.7488Q8.0495 87.7488 8.03186 87.7312Q8.01422 87.7136 8.01422 87.6889V85.3499Q8.01422 85.3147 8.03363 85.297Q8.05303 85.2794 8.07772 85.2794Q8.10947 85.2794 8.13064 85.3041L9.73225 87.4878V85.3464Q9.73225 85.3182 9.75165 85.2988Q9.77106 85.2794 9.79928 85.2794Q9.83103 85.2794 9.84867 85.2988Q9.86631 85.3182 9.86631 85.3464ZM12.5827 86.5141Q12.5827 86.8634 12.4716 87.1421Q12.3604 87.4207 12.1311 87.5848Q11.9018 87.7488 11.5596 87.7488H10.6424Q10.6142 87.7488 10.593 87.7277Q10.5719 87.7065 10.5719 87.6783V85.3499Q10.5719 85.3217 10.593 85.3006Q10.6142 85.2794 10.6424 85.2794H11.5596Q11.8983 85.2794 12.1294 85.4487Q12.3604 85.6181 12.4716 85.8985Q12.5827 86.179 12.5827 86.5141ZM12.4345 86.5141Q12.4345 86.2143 12.3375 85.9655Q12.2405 85.7168 12.0377 85.5687Q11.8348 85.4205 11.5244 85.4205H10.72V87.6077H11.5244Q11.983 87.6077 12.2088 87.3061Q12.4345 87.0045 12.4345 86.5141Z" style="stroke:#000000;stroke-width:0.25;stroke-linecap:round;stroke-linejoin:bevel" />
        <path d="M 22.24,93.00 L 22.24,103.00 " style="stroke:#000000;stroke-width:0.25;stroke-linecap:round;stroke-linejoin:bevel;stroke-dasharray:none" fill="none" />
        <path d="M19.7159 87.6748Q19.7159 87.7065 19.6965 87.7259Q19.6771 87.7453 19.6488 87.7453Q19.6277 87.7453 19.6171 87.7383Q19.5218 87.6853 19.4654 87.5601Q19.409 87.4349 19.409 87.1491Q19.409 86.8598 19.2537 86.7522Q19.0985 86.6446 18.8939 86.6446H18.0684V87.6783Q18.0684 87.7065 18.0472 87.7277Q18.0261 87.7488 17.9943 87.7488Q17.9626 87.7488 17.9414 87.7277Q17.9202 87.7065 17.9202 87.6783V85.3499Q17.9202 85.3217 17.9414 85.3006Q17.9626 85.2794 17.9908 85.2794H18.9221Q19.1267 85.2794 19.2855 85.3623Q19.4442 85.4452 19.5324 85.5898Q19.6206 85.7345 19.6206 85.9179Q19.6206 86.1543 19.4954 86.3236Q19.3702 86.4929 19.1691 86.5529Q19.3384 86.6058 19.4478 86.7628Q19.5571 86.9198 19.5571 87.1491Q19.5571 87.3855 19.5871 87.479Q19.6171 87.5724 19.6771 87.6112Q19.7159 87.6359 19.7159 87.6748ZM18.9398 86.5035Q19.162 86.4824 19.3172 86.3271Q19.4725 86.1719 19.4725 85.9214Q19.4725 85.7027 19.3172 85.5616Q19.162 85.4205 18.9045 85.4205H18.0684V86.5035ZM21.889 85.3464Q21.889 85.3782 21.8696 85.3958Q21.8502 85.4134 21.8184 85.4134H21.0317V87.6783Q21.0317 87.7065 21.0106 87.7277Q20.9894 87.7488 20.9612 87.7488Q20.9294 87.7488 20.91 87.7277Q20.8906 87.7065 20.8906 87.6783V85.4134H20.1039Q20.0757 85.4134 20.0545 85.394Q20.0334 85.3746 20.0334 85.3464Q20.0334 85.3182 20.0545 85.2988Q20.0757 85.2794 20.1039 85.2794H21.8184Q21.8467 85.2794 21.8678 85.2988Q21.889 85.3182 21.889 85.3464ZM24.1609 87.6748Q24.1609 87.7065 24.1415 87.7259Q24.1221 87.7453 24.0938 87.7453Q24.0727 87.7453 24.0621 87.7383Q23.9668 87.6853 23.9104 87.5601Q23.854 87.4349 23.854 87.1491Q23.854 86.8598 23.6987 86.7522Q23.5435 86.6446 23.3389 86.6446H22.5134V87.6783Q22.5134 87.7065 22.4922 87.7277Q22.4711 87.7488 22.4393 87.7488Q22.4076 87.7488 22.3864 87.7277Q22.3652 87.7065 22.3652 87.6783V85.3499Q22.3652 85.3217 22.3864 85.3006Q22.4076 85.2794 22.4358 85.2794H23.3671Q23.5717 85.2794 23.7305 85.3623Q23.8892 85.4452 23.9774 85.5898Q24.0656 85.7345 24.0656 85.9179Q24.0656 86.1543 23.9404 86.3236Q23.8152 86.4929 23.6141 86.5529Q23.7834 86.6058 23.8928 86.7628Q24.0021 86.9198 24.0021 87.1491Q24.0021 87.3855 24.0321 87.479Q24.0621 87.5724 24.1221 87.6112Q24.1609 87.6359 24.1609 87.6748ZM23.3848 86.5035Q23.607 86.4824 23.7622 86.3271Q23.9175 86.1719 23.9175 85.9214Q23.9175 85.7027 23.7622 85.5616Q23.607 85.4205 23.3495 85.4205H22.5134V86.5035ZM26.5598 85.3464V87.6712Q26.5598 87.71 26.5386 87.7294Q26.5174 87.7488 26.4857 87.7488Q26.4504 87.7488 26.4292 87.7206L24.8417 85.551V87.6889Q24.8417 87.7136 24.8223 87.7312Q24.8029 87.7488 24.7747 87.7488Q24.743 87.7488 24.7253 87.7312Q24.7077 87.7136 24.7077 87.6889V85.3499Q24.7077 85.3147 24.7271 85.297Q24.7465 85.2794 24.7712 85.2794Q24.8029 85.2794 24.8241 85.3041L26.4257 87.4878V85.3464Q26.4257 85.3182 26.4451 85.2988Q26.4645 85.2794 26.4927 85.2794Q26.5245 85.2794 26.5421 85.2988Q26.5598 85.3182 26.5598 85.3464Z" style="stroke:#000000;stroke-width:0.25;stroke-linecap:round;stroke-linejoin:bevel" />
    </g>
</svg>
