<?xml version="1.0" encoding="utf-8"?>
<svg xmlns="http://www.w3.org/2000/svg" width="30.48mm" height="128.50mm" viewBox="0 0 30.48 128.50">
    <path d="M11.5058 57.8499V60.1783Q11.5058 60.2065 11.4829 60.2277Q11.46 60.2488 11.4318 60.2488Q11.4 60.2488 11.3788 60.2277Q11.3577 60.2065 11.3577 60.1783V58.0687L10.4475 59.4445Q10.4299 59.4727 10.3981 59.4727Q10.3593 59.4727 10.3417 59.4445L9.42799 58.0651V60.1783Q9.42799 60.2065 9.40682 60.2277Q9.38565 60.2488 9.35743 60.2488Q9.32568 60.2488 9.30628 60.2277Q9.28688 60.2065 9.28688 60.1783V57.8499Q9.28688 57.8252 9.30628 57.8023Q9.32568 57.7794 9.3539 57.7794Q9.39976 57.7794 9.42093 57.8111L10.3981 59.2646L11.3753 57.8111Q11.4035 57.7723 11.4423 57.7794Q11.4706 57.7829 11.4882 57.8023Q11.5058 57.8217 11.5058 57.8499ZM13.2133 60.2841Q12.8711 60.2841 12.603 60.1236Q12.3349 59.9631 12.1849 59.6738Q12.035 59.3845 12.035 59.0141Q12.035 58.6437 12.1849 58.3544Q12.3349 58.0651 12.603 57.9046Q12.8711 57.7441 13.2133 57.7441Q13.5555 57.7441 13.8236 57.9046Q14.0917 58.0651 14.2416 58.3544Q14.3916 58.6437 14.3916 59.0141Q14.3916 59.3845 14.2416 59.6738Q14.0917 59.9631 13.8236 60.1236Q13.5555 60.2841 13.2133 60.2841ZM13.2133 57.8852Q12.9134 57.8852 12.6788 58.0263Q12.4442 58.1674 12.3137 58.425Q12.1832 58.6825 12.1832 59.0141Q12.1832 59.3457 12.3137 59.6033Q12.4442 59.8608 12.6788 60.0019Q12.9134 60.143 13.2133 60.143Q13.5132 60.143 13.7477 60.0019Q13.9823 59.8608 14.1129 59.6033Q14.2434 59.3457 14.2434 59.0141Q14.2434 58.6825 14.1129 58.425Q13.9823 58.1674 13.7477 58.0263Q13.5132 57.8852 13.2133 57.8852ZM16.7164 60.1747Q16.7164 60.2065 16.697 60.2259Q16.6776 60.2453 16.6493 60.2453Q16.6282 60.2453 16.6176 60.2382Q16.5223 60.1853 16.4659 60.0601Q16.4095 59.9349 16.4095 59.6491Q16.4095 59.3598 16.2542 59.2522Q16.099 59.1446 15.8944 59.1446H15.0689V60.1783Q15.0689 60.2065 15.0477 60.2277Q15.0266 60.2488 14.9948 60.2488Q14.9631 60.2488 14.9419 60.2277Q14.9207 60.2065 14.9207 60.1783V57.8499Q14.9207 57.8217 14.9419 57.8006Q14.9631 57.7794 14.9913 57.7794H15.9226Q16.1272 57.7794 16.286 57.8623Q16.4447 57.9452 16.5329 58.0898Q16.6211 58.2345 16.6211 58.4179Q16.6211 58.6543 16.4959 58.8236Q16.3707 58.9929 16.1696 59.0529Q16.3389 59.1058 16.4483 59.2628Q16.5576 59.4198 16.5576 59.6491Q16.5576 59.8855 16.5876 59.979Q16.6176 60.0724 16.6776 60.1112Q16.7164 60.1359 16.7164 60.1747ZM15.9403 59.0035Q16.1625 58.9824 16.3177 58.8271Q16.473 58.6719 16.473 58.4214Q16.473 58.2027 16.3177 58.0616Q16.1625 57.9205 15.905 57.9205H15.0689V59.0035ZM18.8472 58.4532Q18.8472 58.6507 18.7642 58.8113Q18.6813 58.9718 18.5297 59.0617Q18.378 59.1517 18.1804 59.1517H17.4113V60.1783Q17.4113 60.2065 17.3884 60.2277Q17.3655 60.2488 17.3373 60.2488Q17.3055 60.2488 17.2843 60.2277Q17.2632 60.2065 17.2632 60.1783V57.8499Q17.2632 57.8217 17.2843 57.8006Q17.3055 57.7794 17.3337 57.7794H18.1804Q18.4803 57.7794 18.6637 57.9664Q18.8472 58.1533 18.8472 58.4532ZM18.699 58.4532Q18.699 58.2098 18.5596 58.0651Q18.4203 57.9205 18.1804 57.9205H17.4113V59.0106H18.1804Q18.4168 59.0106 18.5579 58.8536Q18.699 58.6966 18.699 58.4532ZM21.1931 57.8535V60.1747Q21.1896 60.2065 21.1684 60.2277Q21.1473 60.2488 21.119 60.2488Q21.0838 60.2488 21.0644 60.2277Q21.045 60.2065 21.045 60.1747V59.0494H19.5068V60.1747Q19.5033 60.2065 19.4822 60.2277Q19.461 60.2488 19.4328 60.2488Q19.3975 60.2488 19.3781 60.2277Q19.3587 60.2065 19.3587 60.1747V57.8535Q19.3587 57.8217 19.3798 57.8006Q19.401 57.7794 19.4328 57.7794Q19.4645 57.7794 19.4857 57.8006Q19.5068 57.8217 19.5068 57.8535V58.9083H21.045V57.8535Q21.045 57.8217 21.0661 57.8006Q21.0873 57.7794 21.119 57.7794Q21.1508 57.7794 21.172 57.8006Q21.1931 57.8217 21.1931 57.8535Z" style="stroke:#000000;stroke-width:0.25;stroke-linecap:round;stroke-linejoin:bevel" />
</svg>
