<?xml version="1.0" encoding="utf-8"?>
<svg xmlns="http://www.w3.org/2000/svg" width="40.64mm" height="128.50mm" viewBox="0 0 40.64 128.50">
    <g id="PanelLayer">
        <rect id="border_rect" width="40.64" height="128.5" x="0" y="0" style="display:inline;fill:#4f8df2;fill-opacity:1;stroke:none;" />
        <path id="sapphire_gemstone" d="m 23.035,122.900 q 0,0.34175 -0.242534,0.63114 -0.0441,0.0524 -0.20395,0.21497 -0.187413,0.19017 -0.785481,0.81304 l -1.444183,1.51309 q -0.01929,0.003 -0.0441,0.003 -0.02756,0 -0.04134,-0.003 -0.08268,-0.0827 -0.647678,-0.67524 -0.468532,-0.47404 -0.934309,-0.94809 -0.556727,-0.56775 -0.89848,-0.98116 -0.132292,-0.15985 -0.168121,-0.29766 -0.02756,-0.10197 -0.02756,-0.34175 0,-0.11024 0.07166,-0.28939 0.06614,-0.16536 0.140559,-0.26458 0.118512,-0.1571 0.42168,-0.42444 0.283875,-0.2508 0.474044,-0.37482 0.272852,-0.17915 0.818555,-0.36656 0.09646,-0.0331 0.110243,-0.0331 h 1.3615 q 0.01102,0 0.104731,0.0331 0.567751,0.20119 0.824066,0.36656 0.165365,0.10473 0.474045,0.37758 0.322461,0.28388 0.421679,0.42168 0.214974,0.2949 0.214974,0.62563 z m -0.16812,-0.27285 q -0.03307,-0.10749 -0.135048,-0.30868 -0.07166,-0.0937 -0.209462,-0.19844 -0.118511,-0.0854 -0.234266,-0.17088 0.245291,0.3638 0.578776,0.678 z m -0.573264,-0.52366 -0.358289,-0.44648 v 0.41065 z m 0.636653,0.75792 q 0,-0.0524 -0.341753,-0.39412 l 0.228754,0.7028 h 0.04961 q 0.06339,-0.21773 0.06339,-0.30868 z m -0.23151,0.27285 -0.316948,-0.90399 -0.410655,-0.0634 -0.159853,0.61461 z m 0.0028,0.15434 -0.771701,-0.3197 h -0.03032 l 0.344509,0.60634 q 0.07993,-0.003 0.234266,-0.0469 0.02481,-0.0138 0.223242,-0.23978 z m -0.857139,-1.05006 -0.719335,0.28388 0.60358,0.22599 z m 0,-0.16261 v -0.51538 l -0.917773,-0.38034 h -1.223697 l -0.917772,0.38034 v 0.51538 l 0.89848,0.4079 h 1.254014 z m 0.573264,1.53789 q -0.0689,0.011 -0.198438,0.0524 -0.08544,0.0551 -0.259071,0.16261 0.01929,0 0.06339,0.003 0.04134,0 0.06339,0 0.118511,0 0.190169,-0.0689 0.07166,-0.0717 0.14056,-0.14883 z m -0.289388,0.003 -0.347266,-0.63114 -0.363801,0.87918 q 0.0248,-0.0165 0.06615,-0.0165 0.03032,0 0.08544,0.011 0.05788,0.008 0.08819,0.008 0.04961,0 0.228754,-0.10749 0.228754,-0.1378 0.242535,-0.14331 z m -0.440972,-0.74139 -0.683507,-0.2756 -0.592556,0.54845 0.903993,0.65595 z m -0.854383,-0.28387 h -1.036284 l 0.523654,0.47404 z m 0.749652,1.36701 q -0.228754,-0.0303 -0.228754,-0.0303 -0.03583,0 -0.272851,0.0937 l 0.190169,0.0193 q 0.01102,0 0.311436,-0.0827 z m -0.388606,-0.0882 -0.843359,-0.61185 v 0.67524 l 0.471289,0.0827 z m 0.854383,0.0496 q -0.09922,0.006 -0.2949,0.0386 -0.01102,0.003 -0.377583,0.17639 -0.129535,0.34726 -0.380338,1.0418 z m -2.543857,-1.39733 -0.719335,-0.28388 0.124023,0.51814 z m -0.802018,-0.45476 v -0.41065 l -0.366557,0.44648 z m 1.515841,1.07212 -0.592556,-0.54019 -0.683506,0.2756 0.380338,0.9288 z m 0.369314,0.94257 q -0.03307,-0.003 -0.135047,-0.0248 -0.08544,-0.0165 -0.137804,-0.0165 -0.05237,0 -0.137804,0.0165 -0.101975,0.0221 -0.135047,0.0248 0.264583,0.0469 0.272851,0.0469 0.0083,0 0.272851,-0.0469 z m -0.30868,-0.1378 v -0.68626 l -0.843359,0.61185 0.37207,0.14607 z m 0.950846,0.20671 -0.396875,-0.0551 -0.479557,0.14056 v 1.27607 z m -2.888366,-2.20211 q -0.118512,0.0854 -0.234267,0.17364 -0.146072,0.10748 -0.209461,0.19568 -0.0441,0.10473 -0.135048,0.31419 0.369314,-0.3638 0.578776,-0.68351 z m 0.476801,0.83234 -0.159853,-0.61461 -0.410655,0.0634 -0.316948,0.90399 z m 0.394118,1.08313 -0.363802,-0.87918 -0.355533,0.63114 q 0.43546,0.2508 0.451996,0.2508 0.09095,0 0.267339,-0.003 z m 1.821765,0.82958 q -0.132291,0.21222 -0.405143,0.6339 -0.07717,0.10749 -0.220486,0.32797 -0.05788,0.10473 -0.05512,0.226 0.159852,-0.15158 0.432704,-0.49609 0.07717,-0.12954 0.140559,-0.339 0.05512,-0.17639 0.107486,-0.35278 z m -1.493792,-0.66146 -0.270095,-0.0882 -0.0083,-0.011 q -0.02481,0 -0.107487,0.011 -0.06615,0.006 -0.107487,0.006 0.272851,0.091 0.311436,0.091 0.02481,0 0.181901,-0.008 z m -0.810286,-1.06384 h -0.03032 l -0.7717,0.3197 q 0.06615,0.0965 0.223242,0.23978 0.07717,0.0138 0.234266,0.0469 z m -0.689018,-0.50161 q -0.341754,0.34727 -0.341754,0.39412 0,0.0799 0.06339,0.30868 h 0.04961 z m 2.235176,3.04547 v -1.27607 l -0.479557,-0.14056 -0.396875,0.0551 z m -1.606791,-1.6757 q -0.256315,-0.1819 -0.457509,-0.22324 0.06615,0.0772 0.20395,0.22324 z m 1.609547,2.04501 v -0.1378 l -0.683507,-1.05007 q 0.05237,0.17639 0.107487,0.35278 0.06339,0.20946 0.14056,0.339 0.0689,0.11851 0.20395,0.25907 0.115755,0.11851 0.23151,0.23702 z m -0.644921,-0.70555 q -0.115756,-0.32798 -0.380339,-1.0418 -0.135047,-0.0662 -0.272851,-0.12954 -0.159852,-0.0716 -0.289388,-0.0716 -0.05237,0 -0.110243,-0.0138 z" style="stroke-width:0;fill:#0000ff;stroke:#2e2114;stroke-linecap:square;stroke-opacity:1" />
        <path id="model_name" d="M10.4828 7.35962Q10.4828 7.41395 10.4517 7.45276Q10.1956 7.79425 9.81534 8.01156Q9.43504 8.22887 9.00042 8.22887Q8.41834 8.22887 7.96819 7.98051Q7.51805 7.73216 7.26581 7.27425Q7.01358 6.81635 7.01358 6.21098Q7.01358 5.59009 7.25805 5.12054Q7.50253 4.651 7.9061 4.40264Q8.30968 4.15429 8.76759 4.15429Q9.22549 4.15429 9.61743 4.35219Q10.0094 4.5501 10.2577 4.94592Q10.5061 5.34174 10.5216 5.92382Q10.5216 5.98591 10.475 6.03636Q10.4285 6.0868 10.3664 6.0868H7.31626V6.1877Q7.31626 6.66889 7.51029 7.06858Q7.70431 7.46828 8.08461 7.70111Q8.4649 7.93395 9.00042 7.93395Q9.37295 7.93395 9.7028 7.75156Q10.0326 7.56917 10.2189 7.28977Q10.2732 7.21992 10.3509 7.21992Q10.4052 7.21992 10.444 7.26261Q10.4828 7.3053 10.4828 7.35962ZM7.3473 5.79188H10.2034V5.72203Q10.1646 5.32621 9.95116 5.04293Q9.73773 4.75965 9.4234 4.61219Q9.10908 4.46473 8.76759 4.46473Q8.48043 4.46473 8.18162 4.61607Q7.88282 4.76741 7.65387 5.06622Q7.42491 5.36502 7.3473 5.79188ZM17.3048 5.73755V7.99604Q17.3048 8.05812 17.2621 8.10469Q17.2194 8.15126 17.1496 8.15126Q17.0797 8.15126 17.0371 8.10469Q16.9944 8.05812 16.9944 7.99604V5.7686Q16.9944 5.21756 16.7266 4.87219Q16.4588 4.52682 15.9156 4.52682Q15.5818 4.52682 15.2598 4.69756Q14.9377 4.86831 14.7359 5.15159Q14.5341 5.43487 14.5341 5.7686V7.99604Q14.5341 8.05812 14.4914 8.10469Q14.4487 8.15126 14.3789 8.15126Q14.309 8.15126 14.2663 8.10469Q14.2236 8.05812 14.2236 7.99604V5.72979Q14.2236 5.19427 13.9675 4.86055Q13.7114 4.52682 13.1914 4.52682Q12.8655 4.52682 12.555 4.6898Q12.2446 4.85279 12.0467 5.13219Q11.8487 5.41159 11.8487 5.72979V7.99604Q11.8487 8.05812 11.8022 8.10469Q11.7556 8.15126 11.6935 8.15126Q11.6237 8.15126 11.581 8.10469Q11.5383 8.05812 11.5383 7.99604V4.43369Q11.5383 4.3716 11.5849 4.32503Q11.6314 4.27846 11.6935 4.27846Q11.7634 4.27846 11.8061 4.32503Q11.8487 4.3716 11.8487 4.43369V4.97696Q12.0738 4.651 12.4347 4.44145Q12.7956 4.2319 13.1914 4.2319Q13.6183 4.2319 13.952 4.44921Q14.2857 4.66652 14.441 5.08562Q14.6039 4.72861 15.058 4.48025Q15.512 4.2319 15.9466 4.2319Q16.6141 4.2319 16.9594 4.651Q17.3048 5.0701 17.3048 5.73755ZM22.1943 6.21098Q22.1943 6.76978 21.9576 7.22381Q21.7209 7.67783 21.3095 7.93783Q20.8982 8.19782 20.3937 8.19782Q19.9281 8.19782 19.54 7.96499Q19.152 7.73216 18.9036 7.3053V9.54826Q18.9036 9.61035 18.8609 9.65691Q18.8182 9.70348 18.7484 9.70348Q18.6863 9.70348 18.6397 9.65691Q18.5932 9.61035 18.5932 9.54826V4.38712Q18.5932 4.32503 18.6358 4.27846Q18.6785 4.2319 18.7484 4.2319Q18.8182 4.2319 18.8609 4.27846Q18.9036 4.32503 18.9036 4.38712V5.10114Q19.1364 4.65876 19.5245 4.44533Q19.9125 4.2319 20.3937 4.2319Q20.906 4.2319 21.3173 4.48801Q21.7286 4.74413 21.9615 5.19428Q22.1943 5.64442 22.1943 6.21098ZM21.8839 6.21098Q21.8839 5.72979 21.686 5.34562Q21.488 4.96144 21.1466 4.74413Q20.8051 4.52682 20.3782 4.52682Q19.9436 4.52682 19.5982 4.74025Q19.2528 4.95368 19.0627 5.33786Q18.8726 5.72203 18.8726 6.21098Q18.8726 6.69993 19.0627 7.08411Q19.2528 7.46828 19.5982 7.68559Q19.9436 7.9029 20.3782 7.9029Q20.8051 7.9029 21.1466 7.68559Q21.488 7.46828 21.686 7.08022Q21.8839 6.69217 21.8839 6.21098ZM26.5405 4.43369V7.99604Q26.5405 8.05812 26.494 8.10469Q26.4474 8.15126 26.3853 8.15126Q26.3155 8.15126 26.2728 8.10469Q26.2301 8.05812 26.2301 7.99604V7.29754Q26.0361 7.69335 25.6325 7.96111Q25.2289 8.22887 24.74 8.22887Q24.2277 8.22887 23.8164 7.96111Q23.405 7.69335 23.1722 7.22381Q22.9394 6.75426 22.9394 6.17217Q22.9394 5.59785 23.1761 5.13607Q23.4128 4.67428 23.8241 4.41428Q24.2355 4.15429 24.74 4.15429Q25.2444 4.15429 25.648 4.41816Q26.0516 4.68204 26.2301 5.12443V4.43369Q26.2301 4.3716 26.2728 4.32503Q26.3155 4.27846 26.3853 4.27846Q26.4552 4.27846 26.4978 4.32503Q26.5405 4.3716 26.5405 4.43369ZM26.2611 6.17217Q26.2611 5.69875 26.0671 5.30293Q25.8731 4.90711 25.5277 4.67816Q25.1823 4.44921 24.7555 4.44921Q24.3286 4.44921 23.9832 4.6704Q23.6379 4.89159 23.4438 5.28353Q23.2498 5.67546 23.2498 6.17217Q23.2498 6.66889 23.4438 7.07246Q23.6379 7.47604 23.9794 7.70499Q24.3209 7.93395 24.7555 7.93395Q25.1823 7.93395 25.5277 7.70499Q25.8731 7.47604 26.0671 7.07246Q26.2611 6.66889 26.2611 6.17217ZM29.4199 4.39488Q29.4199 4.45697 29.3772 4.49966Q29.3345 4.54234 29.2724 4.54234H28.4187V7.3053Q28.4187 7.64679 28.539 7.75932Q28.6593 7.87186 28.8456 7.87186Q28.8766 7.87186 28.9348 7.85634Q28.993 7.84081 29.0318 7.84081Q29.0862 7.84081 29.125 7.8835Q29.1638 7.92619 29.1638 7.98051Q29.1638 8.05036 29.0707 8.10081Q28.9775 8.15126 28.8533 8.15126Q28.6593 8.15126 28.5274 8.12409Q28.3954 8.09693 28.2519 7.91454Q28.1083 7.73216 28.1083 7.32082V4.54234H27.4719Q27.4175 4.54234 27.371 4.49578Q27.3244 4.44921 27.3244 4.39488Q27.3244 4.33279 27.3671 4.29011Q27.4098 4.24742 27.4719 4.24742H28.1083V3.26176Q28.1083 3.19967 28.1548 3.1531Q28.2014 3.10654 28.2635 3.10654Q28.3333 3.10654 28.376 3.1531Q28.4187 3.19967 28.4187 3.26176V4.24742H29.2724Q29.3268 4.24742 29.3733 4.29399Q29.4199 4.34055 29.4199 4.39488ZM33.3548 5.72979V7.99604Q33.3548 8.05812 33.3082 8.10469Q33.2617 8.15126 33.1996 8.15126Q33.1297 8.15126 33.087 8.10469Q33.0443 8.05812 33.0443 7.99604V5.72979Q33.0443 5.19427 32.7805 4.86055Q32.5166 4.52682 31.9733 4.52682Q31.6396 4.52682 31.3175 4.6898Q30.9954 4.85279 30.7936 5.13219Q30.5918 5.41159 30.5918 5.72979V7.99604Q30.5918 8.05812 30.5453 8.10469Q30.4987 8.15126 30.4366 8.15126Q30.3668 8.15126 30.3241 8.10469Q30.2814 8.05812 30.2814 7.99604V2.56326Q30.2814 2.50117 30.328 2.4546Q30.3745 2.40804 30.4366 2.40804Q30.5065 2.40804 30.5491 2.4546Q30.5918 2.50117 30.5918 2.56326V5.01577Q30.8091 4.67428 31.1933 4.45309Q31.5775 4.2319 31.9733 4.2319Q32.6408 4.2319 32.9978 4.65488Q33.3548 5.07786 33.3548 5.72979Z" style="display:inline;stroke:#000000;stroke-width:0.35;stroke-linecap:round;stroke-linejoin:bevel" />
        <path d="M 29.40,93.00 L 29.40,111.00 z " style="stroke:#000000;stroke-width:0.25;stroke-linecap:round;stroke-linejoin:bevel;stroke-dasharray:none" />
        <path d="M27.5444 86.6023V87.4878Q27.5444 87.5301 27.5126 87.5513Q27.3504 87.6606 27.1581 87.7224Q26.9658 87.7841 26.7683 87.7841Q26.4049 87.7841 26.1174 87.6201Q25.8299 87.456 25.6658 87.1668Q25.5018 86.8775 25.5018 86.5141Q25.5018 86.1508 25.6658 85.8615Q25.8299 85.5722 26.1174 85.4082Q26.4049 85.2441 26.7683 85.2441Q26.9658 85.2441 27.144 85.2917Q27.3221 85.3394 27.4632 85.4346Q27.495 85.4558 27.495 85.4946Q27.495 85.5263 27.4721 85.5457Q27.4491 85.5651 27.428 85.5651Q27.4103 85.5651 27.3821 85.551Q27.0858 85.3852 26.7683 85.3852Q26.4437 85.3852 26.1897 85.5299Q25.9357 85.6745 25.7928 85.932Q25.65 86.1896 25.65 86.5141Q25.65 86.8387 25.7928 87.0962Q25.9357 87.3537 26.1897 87.4984Q26.4437 87.643 26.7683 87.643Q26.9306 87.643 27.0981 87.5918Q27.2657 87.5407 27.4033 87.456V86.6729H26.7683Q26.7401 86.6729 26.7189 86.6517Q26.6977 86.6305 26.6977 86.6023Q26.6977 86.5706 26.7189 86.5512Q26.7401 86.5318 26.7683 86.5318H27.4738Q27.5056 86.5318 27.525 86.5529Q27.5444 86.5741 27.5444 86.6023ZM29.9398 87.6818Q29.9398 87.7136 29.9186 87.7312Q29.8974 87.7488 29.8657 87.7488Q29.841 87.7488 29.8216 87.7365Q29.8022 87.7241 29.7951 87.703L29.4988 86.9763L29.5023 86.9833H28.3205L28.0347 87.703Q28.0171 87.7488 27.9713 87.7488Q27.9395 87.7488 27.9201 87.7312Q27.9007 87.7136 27.8972 87.6889Q27.8936 87.6748 27.9007 87.6536L28.8497 85.3182Q28.8603 85.29 28.8761 85.2812Q28.892 85.2723 28.9167 85.2723Q28.9696 85.2723 28.9872 85.3182L29.9362 87.6536Q29.9398 87.6642 29.9398 87.6818ZM28.3769 86.8422H29.4459L28.9061 85.5122ZM30.4901 87.7488Q30.4548 87.7488 30.4354 87.7277Q30.416 87.7065 30.416 87.6748V85.3535Q30.416 85.3217 30.4372 85.3006Q30.4583 85.2794 30.4901 85.2794Q30.5218 85.2794 30.543 85.3006Q30.5642 85.3217 30.5642 85.3535V87.6748Q30.5606 87.7065 30.5395 87.7277Q30.5183 87.7488 30.4901 87.7488ZM33.1218 85.3464V87.6712Q33.1218 87.71 33.1006 87.7294Q33.0795 87.7488 33.0477 87.7488Q33.0124 87.7488 32.9913 87.7206L31.4038 85.551V87.6889Q31.4038 87.7136 31.3844 87.7312Q31.365 87.7488 31.3367 87.7488Q31.305 87.7488 31.2874 87.7312Q31.2697 87.7136 31.2697 87.6889V85.3499Q31.2697 85.3147 31.2891 85.297Q31.3085 85.2794 31.3332 85.2794Q31.365 85.2794 31.3861 85.3041L32.9877 87.4878V85.3464Q32.9877 85.3182 33.0072 85.2988Q33.0266 85.2794 33.0548 85.2794Q33.0865 85.2794 33.1042 85.2988Q33.1218 85.3182 33.1218 85.3464Z" style="stroke:#000000;stroke-width:0.25;stroke-linecap:round;stroke-linejoin:bevel" />
        <path d="M 11.24,93.00 L 11.24,103.00 " style="stroke:#000000;stroke-width:0.25;stroke-linecap:round;stroke-linejoin:bevel;stroke-dasharray:none" fill="none" />
        <path d="M9.96118 87.7488Q9.9259 87.7488 9.9065 87.7277Q9.8871 87.7065 9.8871 87.6748V85.3535Q9.8871 85.3217 9.90826 85.3006Q9.92943 85.2794 9.96118 85.2794Q9.99293 85.2794 10.0141 85.3006Q10.0353 85.3217 10.0353 85.3535V87.6748Q10.0317 87.7065 10.0106 87.7277Q9.9894 87.7488 9.96118 87.7488ZM12.5929 85.3464V87.6712Q12.5929 87.71 12.5717 87.7294Q12.5506 87.7488 12.5188 87.7488Q12.4835 87.7488 12.4624 87.7206L10.8749 85.551V87.6889Q10.8749 87.7136 10.8555 87.7312Q10.8361 87.7488 10.8078 87.7488Q10.7761 87.7488 10.7585 87.7312Q10.7408 87.7136 10.7408 87.6889V85.3499Q10.7408 85.3147 10.7602 85.297Q10.7796 85.2794 10.8043 85.2794Q10.8361 85.2794 10.8572 85.3041L12.4588 87.4878V85.3464Q12.4588 85.3182 12.4782 85.2988Q12.4977 85.2794 12.5259 85.2794Q12.5576 85.2794 12.5753 85.2988Q12.5929 85.3182 12.5929 85.3464Z" style="stroke:#000000;stroke-width:0.25;stroke-linecap:round;stroke-linejoin:bevel" />
        <path d="M14.6667 16.1654Q14.6667 16.1937 14.6526 16.2113Q14.6315 16.2395 14.5997 16.2395Q14.5856 16.2395 14.5574 16.2254Q14.2293 16.0032 13.8624 16.0032Q13.5661 16.0032 13.3174 16.1496Q13.0687 16.296 12.924 16.5553Q12.7794 16.8146 12.7794 17.1391Q12.7794 17.4637 12.924 17.723Q13.0687 17.9823 13.3174 18.1287Q13.5661 18.2751 13.8624 18.2751Q14.2328 18.2751 14.5538 18.0563Q14.5715 18.0422 14.5962 18.0422Q14.6315 18.0422 14.6526 18.0704Q14.6667 18.0881 14.6667 18.1128Q14.6667 18.1481 14.6385 18.1692Q14.5009 18.268 14.284 18.3386Q14.067 18.4091 13.8624 18.4091Q13.5273 18.4091 13.245 18.2433Q12.9628 18.0775 12.797 17.7865Q12.6312 17.4954 12.6312 17.1391Q12.6312 16.7828 12.797 16.4918Q12.9628 16.2007 13.245 16.0349Q13.5273 15.8691 13.8624 15.8691Q14.0741 15.8691 14.2734 15.9326Q14.4727 15.9961 14.635 16.109Q14.6667 16.1337 14.6667 16.1654ZM16.9563 18.3068Q16.9563 18.3386 16.9351 18.3562Q16.9139 18.3738 16.8822 18.3738Q16.8575 18.3738 16.8381 18.3615Q16.8187 18.3491 16.8116 18.328L16.5153 17.6013L16.5188 17.6083H15.337L15.0513 18.328Q15.0336 18.3738 14.9878 18.3738Q14.956 18.3738 14.9366 18.3562Q14.9172 18.3386 14.9137 18.3139Q14.9102 18.2997 14.9172 18.2786L15.8662 15.9432Q15.8768 15.915 15.8926 15.9062Q15.9085 15.8973 15.9332 15.8973Q15.9861 15.8973 16.0038 15.9432L16.9527 18.2786Q16.9563 18.2892 16.9563 18.3068ZM15.3935 17.4672H16.4624L15.9226 16.1372ZM17.2244 18.0387Q17.2032 18.0175 17.2032 17.9858Q17.2032 17.9576 17.2279 17.9311Q17.2526 17.9046 17.2808 17.9046Q17.3126 17.9046 17.3408 17.9364Q17.4784 18.0987 17.6671 18.1833Q17.8558 18.268 18.064 18.268Q18.3356 18.268 18.512 18.1375Q18.6884 18.0069 18.6884 17.7918Q18.6849 17.6224 18.5967 17.5131Q18.5085 17.4037 18.3797 17.3384Q18.251 17.2732 18.0287 17.192Q17.7853 17.1003 17.6495 17.0297Q17.5137 16.9592 17.4166 16.8287Q17.3196 16.6981 17.3196 16.4865Q17.3196 16.3136 17.4149 16.1725Q17.5101 16.0314 17.6865 15.9503Q17.8629 15.8691 18.0957 15.8691Q18.3039 15.8691 18.4908 15.945Q18.6778 16.0208 18.7872 16.1584Q18.8225 16.2078 18.8225 16.2325Q18.8225 16.2607 18.796 16.2836Q18.7695 16.3066 18.7378 16.3066Q18.7096 16.3066 18.6919 16.2854Q18.5932 16.1584 18.4379 16.0843Q18.2827 16.0102 18.0957 16.0102Q17.8276 16.0102 17.6495 16.1372Q17.4713 16.2642 17.4713 16.4829Q17.4713 16.6346 17.5578 16.7405Q17.6442 16.8463 17.7747 16.9116Q17.9052 16.9768 18.0993 17.0474Q18.3462 17.1356 18.4908 17.2097Q18.6355 17.2838 18.7378 17.4249Q18.8401 17.566 18.8401 17.7988Q18.8401 17.9611 18.7448 18.1022Q18.6496 18.2433 18.4714 18.3262Q18.2933 18.4091 18.064 18.4091Q17.8029 18.4091 17.6089 18.3192Q17.4149 18.2292 17.2244 18.0387ZM21.2319 16.1654Q21.2319 16.1937 21.2178 16.2113Q21.1967 16.2395 21.1649 16.2395Q21.1508 16.2395 21.1226 16.2254Q20.7945 16.0032 20.4276 16.0032Q20.1313 16.0032 19.8826 16.1496Q19.6338 16.296 19.4892 16.5553Q19.3446 16.8146 19.3446 17.1391Q19.3446 17.4637 19.4892 17.723Q19.6338 17.9823 19.8826 18.1287Q20.1313 18.2751 20.4276 18.2751Q20.798 18.2751 21.119 18.0563Q21.1367 18.0422 21.1614 18.0422Q21.1967 18.0422 21.2178 18.0704Q21.2319 18.0881 21.2319 18.1128Q21.2319 18.1481 21.2037 18.1692Q21.0661 18.268 20.8492 18.3386Q20.6322 18.4091 20.4276 18.4091Q20.0925 18.4091 19.8102 18.2433Q19.528 18.0775 19.3622 17.7865Q19.1964 17.4954 19.1964 17.1391Q19.1964 16.7828 19.3622 16.4918Q19.528 16.2007 19.8102 16.0349Q20.0925 15.8691 20.4276 15.8691Q20.6393 15.8691 20.8386 15.9326Q21.0379 15.9961 21.2002 16.109Q21.2319 16.1337 21.2319 16.1654ZM23.5215 18.3068Q23.5215 18.3386 23.5003 18.3562Q23.4791 18.3738 23.4474 18.3738Q23.4227 18.3738 23.4033 18.3615Q23.3839 18.3491 23.3768 18.328L23.0805 17.6013L23.084 17.6083H21.9022L21.6165 18.328Q21.5988 18.3738 21.553 18.3738Q21.5212 18.3738 21.5018 18.3562Q21.4824 18.3386 21.4789 18.3139Q21.4753 18.2997 21.4824 18.2786L22.4314 15.9432Q22.442 15.915 22.4578 15.9062Q22.4737 15.8973 22.4984 15.8973Q22.5513 15.8973 22.569 15.9432L23.5179 18.2786Q23.5215 18.2892 23.5215 18.3068ZM21.9587 17.4672H23.0276L22.4878 16.1372ZM26.0085 17.1391Q26.0085 17.4884 25.8974 17.7671Q25.7863 18.0458 25.557 18.2098Q25.3277 18.3738 24.9855 18.3738H24.0683Q24.04 18.3738 24.0189 18.3527Q23.9977 18.3315 23.9977 18.3033V15.9749Q23.9977 15.9467 24.0189 15.9256Q24.04 15.9044 24.0683 15.9044H24.9855Q25.3242 15.9044 25.5552 16.0737Q25.7863 16.2431 25.8974 16.5235Q26.0085 16.804 26.0085 17.1391ZM25.8604 17.1391Q25.8604 16.8392 25.7634 16.5905Q25.6663 16.3418 25.4635 16.1937Q25.2607 16.0455 24.9502 16.0455H24.1459V18.2327H24.9502Q25.4088 18.2327 25.6346 17.9311Q25.8604 17.6295 25.8604 17.1391ZM28.0088 18.3033Q28.0088 18.335 27.9876 18.3544Q27.9665 18.3738 27.9382 18.3738H26.6083Q26.58 18.3738 26.5589 18.3527Q26.5377 18.3315 26.5377 18.3033V15.9749Q26.5377 15.9467 26.5589 15.9256Q26.58 15.9044 26.6083 15.9044H27.9382Q27.9665 15.9044 27.9876 15.9256Q28.0088 15.9467 28.0088 15.9749Q28.0088 16.0067 27.9876 16.0261Q27.9665 16.0455 27.9382 16.0455H26.6859V17.0297H27.7795Q27.8077 17.0297 27.8289 17.0509Q27.85 17.0721 27.85 17.1003Q27.85 17.1321 27.8289 17.1515Q27.8077 17.1709 27.7795 17.1709H26.6859V18.2327H27.9382Q27.9665 18.2327 27.9876 18.2539Q28.0088 18.2751 28.0088 18.3033Z" style="stroke:#000000;stroke-width:0.25;stroke-linecap:round;stroke-linejoin:bevel" />
        <path d="M 20.32,26.32 L 15.32,37.33 z L 25.32,37.33 z " style="stroke:#000000;stroke-width:0.25;stroke-linecap:round;stroke-linejoin:bevel;stroke-dasharray:none" />
        <path id="chaos_box_art" d="M 12.82,46.00 L 7.82,46.00 A 4 4 0 0 0 3.82 50 L 3.82,77.00 A 4 4 0 0 0 7.82 81 L 32.82,81.00 A 4 4 0 0 0 36.82 77 L 36.82,50.00 A 4 4 0 0 0 32.82 46 L 27.82,46.00 " style="stroke:#670A83;stroke-width:0.25;stroke-linecap:round;stroke-linejoin:bevel;stroke-dasharray:none" fill="none" />
        <path d="M16.6247 45.0404Q16.6247 45.0687 16.6105 45.0863Q16.5894 45.1145 16.5576 45.1145Q16.5435 45.1145 16.5153 45.1004Q16.1872 44.8782 15.8203 44.8782Q15.524 44.8782 15.2753 45.0246Q15.0266 45.171 14.8819 45.4303Q14.7373 45.6896 14.7373 46.0141Q14.7373 46.3387 14.8819 46.598Q15.0266 46.8572 15.2753 47.0037Q15.524 47.1501 15.8203 47.1501Q16.1907 47.1501 16.5118 46.9313Q16.5294 46.9172 16.5541 46.9172Q16.5894 46.9172 16.6105 46.9454Q16.6247 46.9631 16.6247 46.9878Q16.6247 47.0231 16.5964 47.0442Q16.4588 47.143 16.2419 47.2136Q16.0249 47.2841 15.8203 47.2841Q15.4852 47.2841 15.203 47.1183Q14.9207 46.9525 14.7549 46.6615Q14.5891 46.3704 14.5891 46.0141Q14.5891 45.6578 14.7549 45.3668Q14.9207 45.0757 15.203 44.9099Q15.4852 44.7441 15.8203 44.7441Q16.032 44.7441 16.2313 44.8076Q16.4306 44.8711 16.5929 44.984Q16.6247 45.0087 16.6247 45.0404ZM18.9353 44.8535V47.1747Q18.9318 47.2065 18.9107 47.2277Q18.8895 47.2488 18.8613 47.2488Q18.826 47.2488 18.8066 47.2277Q18.7872 47.2065 18.7872 47.1747V46.0494H17.2491V47.1747Q17.2455 47.2065 17.2244 47.2277Q17.2032 47.2488 17.175 47.2488Q17.1397 47.2488 17.1203 47.2277Q17.1009 47.2065 17.1009 47.1747V44.8535Q17.1009 44.8217 17.1221 44.8006Q17.1432 44.7794 17.175 44.7794Q17.2067 44.7794 17.2279 44.8006Q17.2491 44.8217 17.2491 44.8535V45.9083H18.7872V44.8535Q18.7872 44.8217 18.8083 44.8006Q18.8295 44.7794 18.8613 44.7794Q18.893 44.7794 18.9142 44.8006Q18.9353 44.8217 18.9353 44.8535ZM21.4542 47.1818Q21.4542 47.2136 21.433 47.2312Q21.4118 47.2488 21.3801 47.2488Q21.3554 47.2488 21.336 47.2365Q21.3166 47.2241 21.3095 47.203L21.0132 46.4763L21.0167 46.4833H19.8349L19.5492 47.203Q19.5315 47.2488 19.4857 47.2488Q19.4539 47.2488 19.4345 47.2312Q19.4151 47.2136 19.4116 47.1889Q19.4081 47.1747 19.4151 47.1536L20.3641 44.8182Q20.3747 44.79 20.3906 44.7812Q20.4064 44.7723 20.4311 44.7723Q20.484 44.7723 20.5017 44.8182L21.4507 47.1536Q21.4542 47.1642 21.4542 47.1818ZM19.8914 46.3422H20.9603L20.4205 45.0122ZM22.9323 47.2841Q22.5901 47.2841 22.322 47.1236Q22.0539 46.9631 21.904 46.6738Q21.754 46.3845 21.754 46.0141Q21.754 45.6437 21.904 45.3544Q22.0539 45.0651 22.322 44.9046Q22.5901 44.7441 22.9323 44.7441Q23.2745 44.7441 23.5426 44.9046Q23.8107 45.0651 23.9607 45.3544Q24.1106 45.6437 24.1106 46.0141Q24.1106 46.3845 23.9607 46.6738Q23.8107 46.9631 23.5426 47.1236Q23.2745 47.2841 22.9323 47.2841ZM22.9323 44.8852Q22.6325 44.8852 22.3979 45.0263Q22.1633 45.1674 22.0327 45.425Q21.9022 45.6825 21.9022 46.0141Q21.9022 46.3457 22.0327 46.6033Q22.1633 46.8608 22.3979 47.0019Q22.6325 47.143 22.9323 47.143Q23.2322 47.143 23.4668 47.0019Q23.7014 46.8608 23.8319 46.6033Q23.9624 46.3457 23.9624 46.0141Q23.9624 45.6825 23.8319 45.425Q23.7014 45.1674 23.4668 45.0263Q23.2322 44.8852 22.9323 44.8852ZM24.4316 46.9137Q24.4105 46.8925 24.4105 46.8608Q24.4105 46.8326 24.4352 46.8061Q24.4598 46.7796 24.4881 46.7796Q24.5198 46.7796 24.548 46.8114Q24.6856 46.9737 24.8744 47.0583Q25.0631 47.143 25.2712 47.143Q25.5429 47.143 25.7193 47.0125Q25.8957 46.8819 25.8957 46.6667Q25.8921 46.4974 25.8039 46.3881Q25.7157 46.2787 25.587 46.2134Q25.4582 46.1482 25.236 46.067Q24.9925 45.9753 24.8567 45.9047Q24.7209 45.8342 24.6239 45.7037Q24.5269 45.5731 24.5269 45.3615Q24.5269 45.1886 24.6221 45.0475Q24.7174 44.9064 24.8938 44.8252Q25.0702 44.7441 25.303 44.7441Q25.5111 44.7441 25.6981 44.82Q25.8851 44.8958 25.9944 45.0334Q26.0297 45.0828 26.0297 45.1075Q26.0297 45.1357 26.0033 45.1586Q25.9768 45.1816 25.945 45.1816Q25.9168 45.1816 25.8992 45.1604Q25.8004 45.0334 25.6452 44.9593Q25.49 44.8852 25.303 44.8852Q25.0349 44.8852 24.8567 45.0122Q24.6786 45.1392 24.6786 45.3579Q24.6786 45.5096 24.765 45.6155Q24.8514 45.7213 24.982 45.7866Q25.1125 45.8518 25.3065 45.9224Q25.5535 46.0106 25.6981 46.0847Q25.8427 46.1587 25.945 46.2999Q26.0473 46.441 26.0473 46.6738Q26.0473 46.8361 25.9521 46.9772Q25.8568 47.1183 25.6787 47.2012Q25.5005 47.2841 25.2712 47.2841Q25.0102 47.2841 24.8162 47.1942Q24.6221 47.1042 24.4316 46.9137Z" style="stroke:#670A83;stroke-width:0.25;stroke-linecap:round;stroke-linejoin:bevel" />
        <path d="M 11.32,58.00 L 29.32,58.00 z " style="stroke:#000000;stroke-width:0.25;stroke-linecap:round;stroke-linejoin:bevel;stroke-dasharray:none" />
        <path d="M15.1765 52.9137Q15.1553 52.8925 15.1553 52.8608Q15.1553 52.8326 15.18 52.8061Q15.2047 52.7796 15.2329 52.7796Q15.2647 52.7796 15.2929 52.8114Q15.4305 52.9737 15.6192 53.0583Q15.808 53.143 16.0161 53.143Q16.2878 53.143 16.4641 53.0125Q16.6405 52.8819 16.6405 52.6667Q16.637 52.4974 16.5488 52.3881Q16.4606 52.2787 16.3318 52.2134Q16.2031 52.1482 15.9808 52.067Q15.7374 51.9753 15.6016 51.9047Q15.4658 51.8342 15.3688 51.7037Q15.2718 51.5731 15.2718 51.3615Q15.2718 51.1886 15.367 51.0475Q15.4623 50.9064 15.6386 50.8252Q15.815 50.7441 16.0479 50.7441Q16.256 50.7441 16.443 50.82Q16.6299 50.8958 16.7393 51.0334Q16.7746 51.0828 16.7746 51.1075Q16.7746 51.1357 16.7481 51.1586Q16.7217 51.1816 16.6899 51.1816Q16.6617 51.1816 16.6441 51.1604Q16.5453 51.0334 16.3901 50.9593Q16.2348 50.8852 16.0479 50.8852Q15.7798 50.8852 15.6016 51.0122Q15.4234 51.1392 15.4234 51.3579Q15.4234 51.5096 15.5099 51.6155Q15.5963 51.7213 15.7268 51.7866Q15.8574 51.8518 16.0514 51.9224Q16.2983 52.0106 16.443 52.0847Q16.5876 52.1587 16.6899 52.2999Q16.7922 52.441 16.7922 52.6738Q16.7922 52.8361 16.697 52.9772Q16.6017 53.1183 16.4236 53.2012Q16.2454 53.2841 16.0161 53.2841Q15.7551 53.2841 15.561 53.1942Q15.367 53.1042 15.1765 52.9137ZM18.9089 51.4532Q18.9089 51.6507 18.826 51.8113Q18.7431 51.9718 18.5914 52.0617Q18.4397 52.1517 18.2421 52.1517H17.4731V53.1783Q17.4731 53.2065 17.4502 53.2277Q17.4272 53.2488 17.399 53.2488Q17.3672 53.2488 17.3461 53.2277Q17.3249 53.2065 17.3249 53.1783V50.8499Q17.3249 50.8217 17.3461 50.8006Q17.3672 50.7794 17.3955 50.7794H18.2421Q18.542 50.7794 18.7254 50.9664Q18.9089 51.1533 18.9089 51.4532ZM18.7607 51.4532Q18.7607 51.2098 18.6214 51.0651Q18.482 50.9205 18.2421 50.9205H17.4731V52.0106H18.2421Q18.4785 52.0106 18.6196 51.8536Q18.7607 51.6966 18.7607 51.4532ZM20.8915 53.1783Q20.8915 53.21 20.8703 53.2294Q20.8492 53.2488 20.8209 53.2488H19.491Q19.4627 53.2488 19.4416 53.2277Q19.4204 53.2065 19.4204 53.1783V50.8499Q19.4204 50.8217 19.4416 50.8006Q19.4627 50.7794 19.491 50.7794H20.8209Q20.8492 50.7794 20.8703 50.8006Q20.8915 50.8217 20.8915 50.8499Q20.8915 50.8817 20.8703 50.9011Q20.8492 50.9205 20.8209 50.9205H19.5686V51.9047H20.6622Q20.6904 51.9047 20.7116 51.9259Q20.7328 51.9471 20.7328 51.9753Q20.7328 52.0071 20.7116 52.0265Q20.6904 52.0459 20.6622 52.0459H19.5686V53.1077H20.8209Q20.8492 53.1077 20.8703 53.1289Q20.8915 53.1501 20.8915 53.1783ZM22.8918 53.1783Q22.8918 53.21 22.8706 53.2294Q22.8494 53.2488 22.8212 53.2488H21.4912Q21.463 53.2488 21.4418 53.2277Q21.4207 53.2065 21.4207 53.1783V50.8499Q21.4207 50.8217 21.4418 50.8006Q21.463 50.7794 21.4912 50.7794H22.8212Q22.8494 50.7794 22.8706 50.8006Q22.8918 50.8217 22.8918 50.8499Q22.8918 50.8817 22.8706 50.9011Q22.8494 50.9205 22.8212 50.9205H21.5688V51.9047H22.6624Q22.6907 51.9047 22.7118 51.9259Q22.733 51.9471 22.733 51.9753Q22.733 52.0071 22.7118 52.0265Q22.6907 52.0459 22.6624 52.0459H21.5688V53.1077H22.8212Q22.8494 53.1077 22.8706 53.1289Q22.8918 53.1501 22.8918 53.1783ZM25.4318 52.0141Q25.4318 52.3634 25.3206 52.6421Q25.2095 52.9207 24.9802 53.0848Q24.7509 53.2488 24.4087 53.2488H23.4915Q23.4633 53.2488 23.4421 53.2277Q23.4209 53.2065 23.4209 53.1783V50.8499Q23.4209 50.8217 23.4421 50.8006Q23.4633 50.7794 23.4915 50.7794H24.4087Q24.7474 50.7794 24.9784 50.9487Q25.2095 51.1181 25.3206 51.3985Q25.4318 51.679 25.4318 52.0141ZM25.2836 52.0141Q25.2836 51.7142 25.1866 51.4655Q25.0896 51.2168 24.8867 51.0687Q24.6839 50.9205 24.3734 50.9205H23.5691V53.1077H24.3734Q24.832 53.1077 25.0578 52.8061Q25.2836 52.5045 25.2836 52.0141Z" style="stroke:#000000;stroke-width:0.25;stroke-linecap:round;stroke-linejoin:bevel" />
        <path d="M 11.32,72.00 L 29.32,72.00 z " style="stroke:#000000;stroke-width:0.25;stroke-linecap:round;stroke-linejoin:bevel;stroke-dasharray:none" />
        <path d="M17.1027 67.1783Q17.1027 67.21 17.0815 67.2294Q17.0603 67.2488 17.0321 67.2488H15.7374Q15.7057 67.2488 15.6863 67.2277Q15.6669 67.2065 15.6669 67.1783V64.8499Q15.6669 64.8217 15.688 64.8006Q15.7092 64.7794 15.7409 64.7794Q15.7727 64.7794 15.7939 64.8006Q15.815 64.8217 15.815 64.8499V67.1077H17.0321Q17.0603 67.1077 17.0815 67.1289Q17.1027 67.1501 17.1027 67.1783ZM18.9794 67.1783Q18.9794 67.21 18.9583 67.2294Q18.9371 67.2488 18.9089 67.2488H17.5789Q17.5507 67.2488 17.5295 67.2277Q17.5084 67.2065 17.5084 67.1783V64.8499Q17.5084 64.8217 17.5295 64.8006Q17.5507 64.7794 17.5789 64.7794H18.9089Q18.9371 64.7794 18.9583 64.8006Q18.9794 64.8217 18.9794 64.8499Q18.9794 64.8817 18.9583 64.9011Q18.9371 64.9205 18.9089 64.9205H17.6565V65.9048H18.7501Q18.7784 65.9048 18.7995 65.9259Q18.8207 65.9471 18.8207 65.9753Q18.8207 66.0071 18.7995 66.0265Q18.7784 66.0459 18.7501 66.0459H17.6565V67.1077H18.9089Q18.9371 67.1077 18.9583 67.1289Q18.9794 67.1501 18.9794 67.1783ZM21.3607 64.8429Q21.3607 64.857 21.3536 64.8782L20.387 67.203Q20.3659 67.2488 20.32 67.2488Q20.2988 67.2488 20.2794 67.2365Q20.26 67.2241 20.253 67.203L19.2934 64.8888Q19.2828 64.8676 19.2828 64.8464Q19.2828 64.8182 19.3022 64.7988Q19.3216 64.7794 19.3499 64.7794Q19.4028 64.7794 19.4275 64.8358L20.3235 66.9913L21.2231 64.8253Q21.2478 64.7794 21.2901 64.7794Q21.3219 64.7794 21.3413 64.797Q21.3607 64.8147 21.3607 64.8429ZM23.308 67.1783Q23.308 67.21 23.2869 67.2294Q23.2657 67.2488 23.2375 67.2488H21.9075Q21.8793 67.2488 21.8581 67.2277Q21.8369 67.2065 21.8369 67.1783V64.8499Q21.8369 64.8217 21.8581 64.8006Q21.8793 64.7794 21.9075 64.7794H23.2375Q23.2657 64.7794 23.2869 64.8006Q23.308 64.8217 23.308 64.8499Q23.308 64.8817 23.2869 64.9011Q23.2657 64.9205 23.2375 64.9205H21.9851V65.9048H23.0787Q23.1069 65.9048 23.1281 65.9259Q23.1493 65.9471 23.1493 65.9753Q23.1493 66.0071 23.1281 66.0265Q23.1069 66.0459 23.0787 66.0459H21.9851V67.1077H23.2375Q23.2657 67.1077 23.2869 67.1289Q23.308 67.1501 23.308 67.1783ZM25.273 67.1783Q25.273 67.21 25.2518 67.2294Q25.2307 67.2488 25.2024 67.2488H23.9078Q23.876 67.2488 23.8566 67.2277Q23.8372 67.2065 23.8372 67.1783V64.8499Q23.8372 64.8217 23.8584 64.8006Q23.8795 64.7794 23.9113 64.7794Q23.943 64.7794 23.9642 64.8006Q23.9854 64.8217 23.9854 64.8499V67.1077H25.2024Q25.2307 67.1077 25.2518 67.1289Q25.273 67.1501 25.273 67.1783Z" style="stroke:#000000;stroke-width:0.25;stroke-linecap:round;stroke-linejoin:bevel" />
    </g>
</svg>
