<?xml version="1.0" encoding="utf-8"?>
<svg xmlns="http://www.w3.org/2000/svg" width="40.64mm" height="128.50mm" viewBox="0 0 40.64 128.50">
    <g id="PanelLayer">
        <rect id="border_rect" width="40.64" height="128.5" x="0" y="0" style="display:inline;fill:#4f8df2;fill-opacity:1;stroke:none;" />
        <path id="sapphire_gemstone" d="m 23.035,122.900 q 0,0.34175 -0.242534,0.63114 -0.0441,0.0524 -0.20395,0.21497 -0.187413,0.19017 -0.785481,0.81304 l -1.444183,1.51309 q -0.01929,0.003 -0.0441,0.003 -0.02756,0 -0.04134,-0.003 -0.08268,-0.0827 -0.647678,-0.67524 -0.468532,-0.47404 -0.934309,-0.94809 -0.556727,-0.56775 -0.89848,-0.98116 -0.132292,-0.15985 -0.168121,-0.29766 -0.02756,-0.10197 -0.02756,-0.34175 0,-0.11024 0.07166,-0.28939 0.06614,-0.16536 0.140559,-0.26458 0.118512,-0.1571 0.42168,-0.42444 0.283875,-0.2508 0.474044,-0.37482 0.272852,-0.17915 0.818555,-0.36656 0.09646,-0.0331 0.110243,-0.0331 h 1.3615 q 0.01102,0 0.104731,0.0331 0.567751,0.20119 0.824066,0.36656 0.165365,0.10473 0.474045,0.37758 0.322461,0.28388 0.421679,0.42168 0.214974,0.2949 0.214974,0.62563 z m -0.16812,-0.27285 q -0.03307,-0.10749 -0.135048,-0.30868 -0.07166,-0.0937 -0.209462,-0.19844 -0.118511,-0.0854 -0.234266,-0.17088 0.245291,0.3638 0.578776,0.678 z m -0.573264,-0.52366 -0.358289,-0.44648 v 0.41065 z m 0.636653,0.75792 q 0,-0.0524 -0.341753,-0.39412 l 0.228754,0.7028 h 0.04961 q 0.06339,-0.21773 0.06339,-0.30868 z m -0.23151,0.27285 -0.316948,-0.90399 -0.410655,-0.0634 -0.159853,0.61461 z m 0.0028,0.15434 -0.771701,-0.3197 h -0.03032 l 0.344509,0.60634 q 0.07993,-0.003 0.234266,-0.0469 0.02481,-0.0138 0.223242,-0.23978 z m -0.857139,-1.05006 -0.719335,0.28388 0.60358,0.22599 z m 0,-0.16261 v -0.51538 l -0.917773,-0.38034 h -1.223697 l -0.917772,0.38034 v 0.51538 l 0.89848,0.4079 h 1.254014 z m 0.573264,1.53789 q -0.0689,0.011 -0.198438,0.0524 -0.08544,0.0551 -0.259071,0.16261 0.01929,0 0.06339,0.003 0.04134,0 0.06339,0 0.118511,0 0.190169,-0.0689 0.07166,-0.0717 0.14056,-0.14883 z m -0.289388,0.003 -0.347266,-0.63114 -0.363801,0.87918 q 0.0248,-0.0165 0.06615,-0.0165 0.03032,0 0.08544,0.011 0.05788,0.008 0.08819,0.008 0.04961,0 0.228754,-0.10749 0.228754,-0.1378 0.242535,-0.14331 z m -0.440972,-0.74139 -0.683507,-0.2756 -0.592556,0.54845 0.903993,0.65595 z m -0.854383,-0.28387 h -1.036284 l 0.523654,0.47404 z m 0.749652,1.36701 q -0.228754,-0.0303 -0.228754,-0.0303 -0.03583,0 -0.272851,0.0937 l 0.190169,0.0193 q 0.01102,0 0.311436,-0.0827 z m -0.388606,-0.0882 -0.843359,-0.61185 v 0.67524 l 0.471289,0.0827 z m 0.854383,0.0496 q -0.09922,0.006 -0.2949,0.0386 -0.01102,0.003 -0.377583,0.17639 -0.129535,0.34726 -0.380338,1.0418 z m -2.543857,-1.39733 -0.719335,-0.28388 0.124023,0.51814 z m -0.802018,-0.45476 v -0.41065 l -0.366557,0.44648 z m 1.515841,1.07212 -0.592556,-0.54019 -0.683506,0.2756 0.380338,0.9288 z m 0.369314,0.94257 q -0.03307,-0.003 -0.135047,-0.0248 -0.08544,-0.0165 -0.137804,-0.0165 -0.05237,0 -0.137804,0.0165 -0.101975,0.0221 -0.135047,0.0248 0.264583,0.0469 0.272851,0.0469 0.0083,0 0.272851,-0.0469 z m -0.30868,-0.1378 v -0.68626 l -0.843359,0.61185 0.37207,0.14607 z m 0.950846,0.20671 -0.396875,-0.0551 -0.479557,0.14056 v 1.27607 z m -2.888366,-2.20211 q -0.118512,0.0854 -0.234267,0.17364 -0.146072,0.10748 -0.209461,0.19568 -0.0441,0.10473 -0.135048,0.31419 0.369314,-0.3638 0.578776,-0.68351 z m 0.476801,0.83234 -0.159853,-0.61461 -0.410655,0.0634 -0.316948,0.90399 z m 0.394118,1.08313 -0.363802,-0.87918 -0.355533,0.63114 q 0.43546,0.2508 0.451996,0.2508 0.09095,0 0.267339,-0.003 z m 1.821765,0.82958 q -0.132291,0.21222 -0.405143,0.6339 -0.07717,0.10749 -0.220486,0.32797 -0.05788,0.10473 -0.05512,0.226 0.159852,-0.15158 0.432704,-0.49609 0.07717,-0.12954 0.140559,-0.339 0.05512,-0.17639 0.107486,-0.35278 z m -1.493792,-0.66146 -0.270095,-0.0882 -0.0083,-0.011 q -0.02481,0 -0.107487,0.011 -0.06615,0.006 -0.107487,0.006 0.272851,0.091 0.311436,0.091 0.02481,0 0.181901,-0.008 z m -0.810286,-1.06384 h -0.03032 l -0.7717,0.3197 q 0.06615,0.0965 0.223242,0.23978 0.07717,0.0138 0.234266,0.0469 z m -0.689018,-0.50161 q -0.341754,0.34727 -0.341754,0.39412 0,0.0799 0.06339,0.30868 h 0.04961 z m 2.235176,3.04547 v -1.27607 l -0.479557,-0.14056 -0.396875,0.0551 z m -1.606791,-1.6757 q -0.256315,-0.1819 -0.457509,-0.22324 0.06615,0.0772 0.20395,0.22324 z m 1.609547,2.04501 v -0.1378 l -0.683507,-1.05007 q 0.05237,0.17639 0.107487,0.35278 0.06339,0.20946 0.14056,0.339 0.0689,0.11851 0.20395,0.25907 0.115755,0.11851 0.23151,0.23702 z m -0.644921,-0.70555 q -0.115756,-0.32798 -0.380339,-1.0418 -0.135047,-0.0662 -0.272851,-0.12954 -0.159852,-0.0716 -0.289388,-0.0716 -0.05237,0 -0.110243,-0.0138 z" style="stroke-width:0;fill:#0000ff;stroke:#2e2114;stroke-linecap:square;stroke-opacity:1" />
        <path id="model_name" d="M10.4828 7.35962Q10.4828 7.41395 10.4517 7.45276Q10.1956 7.79425 9.81534 8.01156Q9.43504 8.22887 9.00042 8.22887Q8.41834 8.22887 7.96819 7.98051Q7.51805 7.73216 7.26581 7.27425Q7.01358 6.81635 7.01358 6.21098Q7.01358 5.59009 7.25805 5.12054Q7.50253 4.651 7.9061 4.40264Q8.30968 4.15429 8.76759 4.15429Q9.22549 4.15429 9.61743 4.35219Q10.0094 4.5501 10.2577 4.94592Q10.5061 5.34174 10.5216 5.92382Q10.5216 5.98591 10.475 6.03636Q10.4285 6.0868 10.3664 6.0868H7.31626V6.1877Q7.31626 6.66889 7.51029 7.06858Q7.70431 7.46828 8.08461 7.70111Q8.4649 7.93395 9.00042 7.93395Q9.37295 7.93395 9.7028 7.75156Q10.0326 7.56917 10.2189 7.28977Q10.2732 7.21992 10.3509 7.21992Q10.4052 7.21992 10.444 7.26261Q10.4828 7.3053 10.4828 7.35962ZM7.3473 5.79188H10.2034V5.72203Q10.1646 5.32621 9.95116 5.04293Q9.73773 4.75965 9.4234 4.61219Q9.10908 4.46473 8.76759 4.46473Q8.48043 4.46473 8.18162 4.61607Q7.88282 4.76741 7.65387 5.06622Q7.42491 5.36502 7.3473 5.79188ZM17.3048 5.73755V7.99604Q17.3048 8.05812 17.2621 8.10469Q17.2194 8.15126 17.1496 8.15126Q17.0797 8.15126 17.0371 8.10469Q16.9944 8.05812 16.9944 7.99604V5.7686Q16.9944 5.21756 16.7266 4.87219Q16.4588 4.52682 15.9156 4.52682Q15.5818 4.52682 15.2598 4.69756Q14.9377 4.86831 14.7359 5.15159Q14.5341 5.43487 14.5341 5.7686V7.99604Q14.5341 8.05812 14.4914 8.10469Q14.4487 8.15126 14.3789 8.15126Q14.309 8.15126 14.2663 8.10469Q14.2236 8.05812 14.2236 7.99604V5.72979Q14.2236 5.19427 13.9675 4.86055Q13.7114 4.52682 13.1914 4.52682Q12.8655 4.52682 12.555 4.6898Q12.2446 4.85279 12.0467 5.13219Q11.8487 5.41159 11.8487 5.72979V7.99604Q11.8487 8.05812 11.8022 8.10469Q11.7556 8.15126 11.6935 8.15126Q11.6237 8.15126 11.581 8.10469Q11.5383 8.05812 11.5383 7.99604V4.43369Q11.5383 4.3716 11.5849 4.32503Q11.6314 4.27846 11.6935 4.27846Q11.7634 4.27846 11.8061 4.32503Q11.8487 4.3716 11.8487 4.43369V4.97696Q12.0738 4.651 12.4347 4.44145Q12.7956 4.2319 13.1914 4.2319Q13.6183 4.2319 13.952 4.44921Q14.2857 4.66652 14.441 5.08562Q14.6039 4.72861 15.058 4.48025Q15.512 4.2319 15.9466 4.2319Q16.6141 4.2319 16.9594 4.651Q17.3048 5.0701 17.3048 5.73755ZM22.1943 6.21098Q22.1943 6.76978 21.9576 7.22381Q21.7209 7.67783 21.3095 7.93783Q20.8982 8.19782 20.3937 8.19782Q19.9281 8.19782 19.54 7.96499Q19.152 7.73216 18.9036 7.3053V9.54826Q18.9036 9.61035 18.8609 9.65691Q18.8182 9.70348 18.7484 9.70348Q18.6863 9.70348 18.6397 9.65691Q18.5932 9.61035 18.5932 9.54826V4.38712Q18.5932 4.32503 18.6358 4.27846Q18.6785 4.2319 18.7484 4.2319Q18.8182 4.2319 18.8609 4.27846Q18.9036 4.32503 18.9036 4.38712V5.10114Q19.1364 4.65876 19.5245 4.44533Q19.9125 4.2319 20.3937 4.2319Q20.906 4.2319 21.3173 4.48801Q21.7286 4.74413 21.9615 5.19428Q22.1943 5.64442 22.1943 6.21098ZM21.8839 6.21098Q21.8839 5.72979 21.686 5.34562Q21.488 4.96144 21.1466 4.74413Q20.8051 4.52682 20.3782 4.52682Q19.9436 4.52682 19.5982 4.74025Q19.2528 4.95368 19.0627 5.33786Q18.8726 5.72203 18.8726 6.21098Q18.8726 6.69993 19.0627 7.08411Q19.2528 7.46828 19.5982 7.68559Q19.9436 7.9029 20.3782 7.9029Q20.8051 7.9029 21.1466 7.68559Q21.488 7.46828 21.686 7.08022Q21.8839 6.69217 21.8839 6.21098ZM26.5405 4.43369V7.99604Q26.5405 8.05812 26.494 8.10469Q26.4474 8.15126 26.3853 8.15126Q26.3155 8.15126 26.2728 8.10469Q26.2301 8.05812 26.2301 7.99604V7.29754Q26.0361 7.69335 25.6325 7.96111Q25.2289 8.22887 24.74 8.22887Q24.2277 8.22887 23.8164 7.96111Q23.405 7.69335 23.1722 7.22381Q22.9394 6.75426 22.9394 6.17217Q22.9394 5.59785 23.1761 5.13607Q23.4128 4.67428 23.8241 4.41428Q24.2355 4.15429 24.74 4.15429Q25.2444 4.15429 25.648 4.41816Q26.0516 4.68204 26.2301 5.12443V4.43369Q26.2301 4.3716 26.2728 4.32503Q26.3155 4.27846 26.3853 4.27846Q26.4552 4.27846 26.4978 4.32503Q26.5405 4.3716 26.5405 4.43369ZM26.2611 6.17217Q26.2611 5.69875 26.0671 5.30293Q25.8731 4.90711 25.5277 4.67816Q25.1823 4.44921 24.7555 4.44921Q24.3286 4.44921 23.9832 4.6704Q23.6379 4.89159 23.4438 5.28353Q23.2498 5.67546 23.2498 6.17217Q23.2498 6.66889 23.4438 7.07246Q23.6379 7.47604 23.9794 7.70499Q24.3209 7.93395 24.7555 7.93395Q25.1823 7.93395 25.5277 7.70499Q25.8731 7.47604 26.0671 7.07246Q26.2611 6.66889 26.2611 6.17217ZM29.4199 4.39488Q29.4199 4.45697 29.3772 4.49966Q29.3345 4.54234 29.2724 4.54234H28.4187V7.3053Q28.4187 7.64679 28.539 7.75932Q28.6593 7.87186 28.8456 7.87186Q28.8766 7.87186 28.9348 7.85634Q28.993 7.84081 29.0318 7.84081Q29.0862 7.84081 29.125 7.8835Q29.1638 7.92619 29.1638 7.98051Q29.1638 8.05036 29.0707 8.10081Q28.9775 8.15126 28.8533 8.15126Q28.6593 8.15126 28.5274 8.12409Q28.3954 8.09693 28.2519 7.91454Q28.1083 7.73216 28.1083 7.32082V4.54234H27.4719Q27.4175 4.54234 27.371 4.49578Q27.3244 4.44921 27.3244 4.39488Q27.3244 4.33279 27.3671 4.29011Q27.4098 4.24742 27.4719 4.24742H28.1083V3.26176Q28.1083 3.19967 28.1548 3.1531Q28.2014 3.10654 28.2635 3.10654Q28.3333 3.10654 28.376 3.1531Q28.4187 3.19967 28.4187 3.26176V4.24742H29.2724Q29.3268 4.24742 29.3733 4.29399Q29.4199 4.34055 29.4199 4.39488ZM33.3548 5.72979V7.99604Q33.3548 8.05812 33.3082 8.10469Q33.2617 8.15126 33.1996 8.15126Q33.1297 8.15126 33.087 8.10469Q33.0443 8.05812 33.0443 7.99604V5.72979Q33.0443 5.19427 32.7805 4.86055Q32.5166 4.52682 31.9733 4.52682Q31.6396 4.52682 31.3175 4.6898Q30.9954 4.85279 30.7936 5.13219Q30.5918 5.41159 30.5918 5.72979V7.99604Q30.5918 8.05812 30.5453 8.10469Q30.4987 8.15126 30.4366 8.15126Q30.3668 8.15126 30.3241 8.10469Q30.2814 8.05812 30.2814 7.99604V2.56326Q30.2814 2.50117 30.328 2.4546Q30.3745 2.40804 30.4366 2.40804Q30.5065 2.40804 30.5491 2.4546Q30.5918 2.50117 30.5918 2.56326V5.01577Q30.8091 4.67428 31.1933 4.45309Q31.5775 4.2319 31.9733 4.2319Q32.6408 4.2319 32.9978 4.65488Q33.3548 5.07786 33.3548 5.72979Z" style="display:inline;stroke:#000000;stroke-width:0.35;stroke-linecap:round;stroke-linejoin:bevel" />
        <path d="M 16.32,102.00 L 16.32,112.00 " style="stroke:#000000;stroke-width:0.25;stroke-linecap:round;stroke-linejoin:bevel;stroke-dasharray:none" fill="none" />
        <path d="M15.0412 96.7488Q15.0059 96.7488 14.9865 96.7277Q14.9671 96.7065 14.9671 96.6748V94.3535Q14.9671 94.3217 14.9883 94.3006Q15.0094 94.2794 15.0412 94.2794Q15.0729 94.2794 15.0941 94.3006Q15.1153 94.3217 15.1153 94.3535V96.6748Q15.1117 96.7065 15.0906 96.7277Q15.0694 96.7488 15.0412 96.7488ZM17.6729 94.3464V96.6712Q17.6729 96.71 17.6517 96.7294Q17.6306 96.7488 17.5988 96.7488Q17.5635 96.7488 17.5424 96.7206L15.9549 94.551V96.6889Q15.9549 96.7136 15.9355 96.7312Q15.9161 96.7488 15.8878 96.7488Q15.8561 96.7488 15.8385 96.7312Q15.8208 96.7136 15.8208 96.6889V94.3499Q15.8208 94.3147 15.8402 94.297Q15.8596 94.2794 15.8843 94.2794Q15.9161 94.2794 15.9372 94.3041L17.5388 96.4878V94.3464Q17.5388 94.3182 17.5583 94.2988Q17.5777 94.2794 17.6059 94.2794Q17.6376 94.2794 17.6553 94.2988Q17.6729 94.3182 17.6729 94.3464Z" style="stroke:#000000;stroke-width:0.25;stroke-linecap:round;stroke-linejoin:bevel" />
        <path d="M 11.32,40.00 L 29.32,40.00 z " style="stroke:#000000;stroke-width:0.25;stroke-linecap:round;stroke-linejoin:bevel;stroke-dasharray:none" />
        <path d="M14.6667 33.0404Q14.6667 33.0687 14.6526 33.0863Q14.6315 33.1145 14.5997 33.1145Q14.5856 33.1145 14.5574 33.1004Q14.2293 32.8782 13.8624 32.8782Q13.5661 32.8782 13.3174 33.0246Q13.0687 33.171 12.924 33.4303Q12.7794 33.6896 12.7794 34.0141Q12.7794 34.3387 12.924 34.598Q13.0687 34.8572 13.3174 35.0037Q13.5661 35.1501 13.8624 35.1501Q14.2328 35.1501 14.5538 34.9313Q14.5715 34.9172 14.5962 34.9172Q14.6315 34.9172 14.6526 34.9454Q14.6667 34.9631 14.6667 34.9878Q14.6667 35.0231 14.6385 35.0442Q14.5009 35.143 14.284 35.2136Q14.067 35.2841 13.8624 35.2841Q13.5273 35.2841 13.245 35.1183Q12.9628 34.9525 12.797 34.6615Q12.6312 34.3704 12.6312 34.0141Q12.6312 33.6578 12.797 33.3668Q12.9628 33.0757 13.245 32.9099Q13.5273 32.7441 13.8624 32.7441Q14.0741 32.7441 14.2734 32.8076Q14.4727 32.8711 14.635 32.984Q14.6667 33.0087 14.6667 33.0404ZM16.9563 35.1818Q16.9563 35.2136 16.9351 35.2312Q16.9139 35.2488 16.8822 35.2488Q16.8575 35.2488 16.8381 35.2365Q16.8187 35.2241 16.8116 35.203L16.5153 34.4763L16.5188 34.4833H15.337L15.0513 35.203Q15.0336 35.2488 14.9878 35.2488Q14.956 35.2488 14.9366 35.2312Q14.9172 35.2136 14.9137 35.1889Q14.9102 35.1747 14.9172 35.1536L15.8662 32.8182Q15.8768 32.79 15.8926 32.7812Q15.9085 32.7723 15.9332 32.7723Q15.9861 32.7723 16.0038 32.8182L16.9527 35.1536Q16.9563 35.1642 16.9563 35.1818ZM15.3935 34.3422H16.4624L15.9226 33.0122ZM17.2244 34.9137Q17.2032 34.8925 17.2032 34.8608Q17.2032 34.8326 17.2279 34.8061Q17.2526 34.7796 17.2808 34.7796Q17.3126 34.7796 17.3408 34.8114Q17.4784 34.9737 17.6671 35.0583Q17.8558 35.143 18.064 35.143Q18.3356 35.143 18.512 35.0125Q18.6884 34.8819 18.6884 34.6667Q18.6849 34.4974 18.5967 34.3881Q18.5085 34.2787 18.3797 34.2134Q18.251 34.1482 18.0287 34.067Q17.7853 33.9753 17.6495 33.9047Q17.5137 33.8342 17.4166 33.7037Q17.3196 33.5731 17.3196 33.3615Q17.3196 33.1886 17.4149 33.0475Q17.5101 32.9064 17.6865 32.8252Q17.8629 32.7441 18.0957 32.7441Q18.3039 32.7441 18.4908 32.82Q18.6778 32.8958 18.7872 33.0334Q18.8225 33.0828 18.8225 33.1075Q18.8225 33.1357 18.796 33.1586Q18.7695 33.1816 18.7378 33.1816Q18.7096 33.1816 18.6919 33.1604Q18.5932 33.0334 18.4379 32.9593Q18.2827 32.8852 18.0957 32.8852Q17.8276 32.8852 17.6495 33.0122Q17.4713 33.1392 17.4713 33.3579Q17.4713 33.5096 17.5578 33.6155Q17.6442 33.7213 17.7747 33.7866Q17.9052 33.8518 18.0993 33.9224Q18.3462 34.0106 18.4908 34.0847Q18.6355 34.1587 18.7378 34.2999Q18.8401 34.441 18.8401 34.6738Q18.8401 34.8361 18.7448 34.9772Q18.6496 35.1183 18.4714 35.2012Q18.2933 35.2841 18.064 35.2841Q17.8029 35.2841 17.6089 35.1942Q17.4149 35.1042 17.2244 34.9137ZM21.2319 33.0404Q21.2319 33.0687 21.2178 33.0863Q21.1967 33.1145 21.1649 33.1145Q21.1508 33.1145 21.1226 33.1004Q20.7945 32.8782 20.4276 32.8782Q20.1313 32.8782 19.8826 33.0246Q19.6338 33.171 19.4892 33.4303Q19.3446 33.6896 19.3446 34.0141Q19.3446 34.3387 19.4892 34.598Q19.6338 34.8572 19.8826 35.0037Q20.1313 35.1501 20.4276 35.1501Q20.798 35.1501 21.119 34.9313Q21.1367 34.9172 21.1614 34.9172Q21.1967 34.9172 21.2178 34.9454Q21.2319 34.9631 21.2319 34.9878Q21.2319 35.0231 21.2037 35.0442Q21.0661 35.143 20.8492 35.2136Q20.6322 35.2841 20.4276 35.2841Q20.0925 35.2841 19.8102 35.1183Q19.528 34.9525 19.3622 34.6615Q19.1964 34.3704 19.1964 34.0141Q19.1964 33.6578 19.3622 33.3668Q19.528 33.0757 19.8102 32.9099Q20.0925 32.7441 20.4276 32.7441Q20.6393 32.7441 20.8386 32.8076Q21.0379 32.8711 21.2002 32.984Q21.2319 33.0087 21.2319 33.0404ZM23.5215 35.1818Q23.5215 35.2136 23.5003 35.2312Q23.4791 35.2488 23.4474 35.2488Q23.4227 35.2488 23.4033 35.2365Q23.3839 35.2241 23.3768 35.203L23.0805 34.4763L23.084 34.4833H21.9022L21.6165 35.203Q21.5988 35.2488 21.553 35.2488Q21.5212 35.2488 21.5018 35.2312Q21.4824 35.2136 21.4789 35.1889Q21.4753 35.1747 21.4824 35.1536L22.4314 32.8182Q22.442 32.79 22.4578 32.7812Q22.4737 32.7723 22.4984 32.7723Q22.5513 32.7723 22.569 32.8182L23.5179 35.1536Q23.5215 35.1642 23.5215 35.1818ZM21.9587 34.3422H23.0276L22.4878 33.0122ZM26.0085 34.0141Q26.0085 34.3634 25.8974 34.6421Q25.7863 34.9207 25.557 35.0848Q25.3277 35.2488 24.9855 35.2488H24.0683Q24.04 35.2488 24.0189 35.2277Q23.9977 35.2065 23.9977 35.1783V32.8499Q23.9977 32.8217 24.0189 32.8006Q24.04 32.7794 24.0683 32.7794H24.9855Q25.3242 32.7794 25.5552 32.9487Q25.7863 33.1181 25.8974 33.3985Q26.0085 33.679 26.0085 34.0141ZM25.8604 34.0141Q25.8604 33.7142 25.7634 33.4655Q25.6663 33.2168 25.4635 33.0687Q25.2607 32.9205 24.9502 32.9205H24.1459V35.1077H24.9502Q25.4088 35.1077 25.6346 34.8061Q25.8604 34.5045 25.8604 34.0141ZM28.0088 35.1783Q28.0088 35.21 27.9876 35.2294Q27.9665 35.2488 27.9382 35.2488H26.6083Q26.58 35.2488 26.5589 35.2277Q26.5377 35.2065 26.5377 35.1783V32.8499Q26.5377 32.8217 26.5589 32.8006Q26.58 32.7794 26.6083 32.7794H27.9382Q27.9665 32.7794 27.9876 32.8006Q28.0088 32.8217 28.0088 32.8499Q28.0088 32.8817 27.9876 32.9011Q27.9665 32.9205 27.9382 32.9205H26.6859V33.9047H27.7795Q27.8077 33.9047 27.8289 33.9259Q27.85 33.9471 27.85 33.9753Q27.85 34.0071 27.8289 34.0265Q27.8077 34.0459 27.7795 34.0459H26.6859V35.1077H27.9382Q27.9665 35.1077 27.9876 35.1289Q28.0088 35.1501 28.0088 35.1783Z" style="stroke:#000000;stroke-width:0.25;stroke-linecap:round;stroke-linejoin:bevel" />
    </g>
</svg>
