<?xml version="1.0" encoding="utf-8"?>
<svg xmlns="http://www.w3.org/2000/svg" width="30.48mm" height="128.50mm" viewBox="0 0 30.48 128.50">
    <g id="PanelLayer">
        <defs>
            <linearGradient id="gradient_controls" x1="0" y1="10.5" x2="0" y2="53.5" gradientUnits="userSpaceOnUse">
                <stop style="stop-color:#3068ff;stop-opacity:1;" offset="0" />
                <stop style="stop-color:#4f8df2;stop-opacity:1;" offset="1" />
            </linearGradient>
            <linearGradient id="gradient_output" x1="0" y1="92.5" x2="0" y2="108.5" gradientUnits="userSpaceOnUse">
                <stop style="stop-color:#a06de4;stop-opacity:1;" offset="0" />
                <stop style="stop-color:#4f8df2;stop-opacity:1;" offset="1" />
            </linearGradient>
        </defs>
        <rect id="border_rect" width="30.48" height="128.5" x="0" y="0" style="display:inline;fill:#4f8df2;fill-opacity:1;stroke:none;" />
        <path id="controls_art" d="M 0.38,53.50 L 0.38,14.50 A 4 4 0 0 1 4.38 10.5 L 26.10,10.50 A 4 4 0 0 1 30.1 14.5 L 30.10,10.50 L 30.10,53.50 z" style="fill:url(#gradient_controls);fill-opacity:1;stroke-width:0;" />
        <path id="output_art" d="M 0.38,108.50 L 0.38,96.50 A 4 4 0 0 1 4.38 92.5 L 26.10,92.50 A 4 4 0 0 1 30.1 96.5 L 30.10,92.50 L 30.10,108.50 z" style="fill:url(#gradient_output);fill-opacity:1;stroke-width:0;" />
        <path d="M12.0756 17.4137Q12.0544 17.3925 12.0544 17.3608Q12.0544 17.3326 12.0791 17.3061Q12.1038 17.2796 12.132 17.2796Q12.1638 17.2796 12.192 17.3114Q12.3296 17.4737 12.5183 17.5583Q12.7071 17.643 12.9152 17.643Q13.1868 17.643 13.3632 17.5125Q13.5396 17.3819 13.5396 17.1668Q13.5361 16.9974 13.4479 16.8881Q13.3597 16.7787 13.2309 16.7134Q13.1022 16.6482 12.8799 16.567Q12.6365 16.4753 12.5007 16.4047Q12.3649 16.3342 12.2678 16.2037Q12.1708 16.0731 12.1708 15.8615Q12.1708 15.6886 12.2661 15.5475Q12.3613 15.4064 12.5377 15.3253Q12.7141 15.2441 12.9469 15.2441Q13.1551 15.2441 13.3421 15.32Q13.529 15.3958 13.6384 15.5334Q13.6737 15.5828 13.6737 15.6075Q13.6737 15.6357 13.6472 15.6586Q13.6208 15.6816 13.589 15.6816Q13.5608 15.6816 13.5431 15.6604Q13.4444 15.5334 13.2891 15.4593Q13.1339 15.3852 12.9469 15.3852Q12.6788 15.3852 12.5007 15.5122Q12.3225 15.6392 12.3225 15.8579Q12.3225 16.0096 12.409 16.1155Q12.4954 16.2213 12.6259 16.2866Q12.7564 16.3518 12.9505 16.4224Q13.1974 16.5106 13.3421 16.5847Q13.4867 16.6588 13.589 16.7999Q13.6913 16.941 13.6913 17.1738Q13.6913 17.3361 13.5961 17.4772Q13.5008 17.6183 13.3227 17.7012Q13.1445 17.7841 12.9152 17.7841Q12.6541 17.7841 12.4601 17.6942Q12.2661 17.6042 12.0756 17.4137ZM16.0196 17.6747Q16.0196 17.7065 16.0002 17.7259Q15.9808 17.7453 15.9526 17.7453Q15.9314 17.7453 15.9209 17.7383Q15.8256 17.6853 15.7692 17.5601Q15.7127 17.4349 15.7127 17.1491Q15.7127 16.8598 15.5575 16.7522Q15.4023 16.6446 15.1977 16.6446H14.3722V17.6783Q14.3722 17.7065 14.351 17.7277Q14.3298 17.7488 14.2981 17.7488Q14.2663 17.7488 14.2452 17.7277Q14.224 17.7065 14.224 17.6783V15.3499Q14.224 15.3217 14.2452 15.3006Q14.2663 15.2794 14.2946 15.2794H15.2259Q15.4305 15.2794 15.5893 15.3623Q15.748 15.4452 15.8362 15.5898Q15.9244 15.7345 15.9244 15.9179Q15.9244 16.1543 15.7992 16.3236Q15.6739 16.4929 15.4728 16.5529Q15.6422 16.6058 15.7515 16.7628Q15.8609 16.9198 15.8609 17.1491Q15.8609 17.3855 15.8909 17.479Q15.9209 17.5724 15.9808 17.6113Q16.0196 17.6359 16.0196 17.6747ZM15.2435 16.5035Q15.4658 16.4824 15.621 16.3271Q15.7762 16.1719 15.7762 15.9214Q15.7762 15.7027 15.621 15.5616Q15.4658 15.4205 15.2083 15.4205H14.3722V16.5035ZM18.4256 15.5404Q18.4256 15.5687 18.4115 15.5863Q18.3903 15.6145 18.3586 15.6145Q18.3444 15.6145 18.3162 15.6004Q17.9881 15.3782 17.6213 15.3782Q17.3249 15.3782 17.0762 15.5246Q16.8275 15.671 16.6829 15.9303Q16.5382 16.1896 16.5382 16.5141Q16.5382 16.8387 16.6829 17.098Q16.8275 17.3573 17.0762 17.5037Q17.3249 17.6501 17.6213 17.6501Q17.9917 17.6501 18.3127 17.4313Q18.3303 17.4172 18.355 17.4172Q18.3903 17.4172 18.4115 17.4454Q18.4256 17.4631 18.4256 17.4878Q18.4256 17.5231 18.3974 17.5442Q18.2598 17.643 18.0428 17.7136Q17.8259 17.7841 17.6213 17.7841Q17.2861 17.7841 17.0039 17.6183Q16.7217 17.4525 16.5559 17.1615Q16.3901 16.8704 16.3901 16.5141Q16.3901 16.1578 16.5559 15.8668Q16.7217 15.5757 17.0039 15.4099Q17.2861 15.2441 17.6213 15.2441Q17.8329 15.2441 18.0322 15.3076Q18.2316 15.3711 18.3938 15.484Q18.4256 15.5087 18.4256 15.5404Z" style="stroke:#000000;stroke-width:0.25;stroke-linecap:round;stroke-linejoin:bevel" />
        <path d="M 6.24,20.00 L 24.24,20.00 z " style="stroke:#000000;stroke-width:0.25;stroke-linecap:round;stroke-linejoin:bevel;stroke-dasharray:none" />
        <path d="M12.7247 29.0999V31.4283Q12.7247 31.4565 12.7018 31.4777Q12.6788 31.4988 12.6506 31.4988Q12.6189 31.4988 12.5977 31.4777Q12.5765 31.4565 12.5765 31.4283V29.3187L11.6664 30.6945Q11.6487 30.7227 11.617 30.7227Q11.5782 30.7227 11.5605 30.6945L10.6468 29.3151V31.4283Q10.6468 31.4565 10.6257 31.4777Q10.6045 31.4988 10.5763 31.4988Q10.5445 31.4988 10.5251 31.4777Q10.5057 31.4565 10.5057 31.4283V29.0999Q10.5057 29.0753 10.5251 29.0523Q10.5445 29.0294 10.5728 29.0294Q10.6186 29.0294 10.6398 29.0611L11.617 30.5146L12.5942 29.0611Q12.6224 29.0223 12.6612 29.0294Q12.6894 29.0329 12.7071 29.0523Q12.7247 29.0717 12.7247 29.0999ZM14.4321 31.5341Q14.0899 31.5341 13.8218 31.3736Q13.5537 31.2131 13.4038 30.9238Q13.2539 30.6345 13.2539 30.2641Q13.2539 29.8937 13.4038 29.6044Q13.5537 29.3151 13.8218 29.1546Q14.0899 28.9941 14.4321 28.9941Q14.7743 28.9941 15.0424 29.1546Q15.3106 29.3151 15.4605 29.6044Q15.6104 29.8937 15.6104 30.2641Q15.6104 30.6345 15.4605 30.9238Q15.3106 31.2131 15.0424 31.3736Q14.7743 31.5341 14.4321 31.5341ZM14.4321 29.1352Q14.1323 29.1352 13.8977 29.2763Q13.6631 29.4174 13.5326 29.675Q13.402 29.9325 13.402 30.2641Q13.402 30.5957 13.5326 30.8532Q13.6631 31.1108 13.8977 31.2519Q14.1323 31.393 14.4321 31.393Q14.732 31.393 14.9666 31.2519Q15.2012 31.1108 15.3317 30.8532Q15.4623 30.5957 15.4623 30.2641Q15.4623 29.9325 15.3317 29.675Q15.2012 29.4174 14.9666 29.2763Q14.732 29.1352 14.4321 29.1352ZM18.1504 30.2641Q18.1504 30.6134 18.0393 30.8921Q17.9282 31.1708 17.6989 31.3348Q17.4696 31.4988 17.1274 31.4988H16.2101Q16.1819 31.4988 16.1608 31.4777Q16.1396 31.4565 16.1396 31.4283V29.0999Q16.1396 29.0717 16.1608 29.0506Q16.1819 29.0294 16.2101 29.0294H17.1274Q17.466 29.0294 17.6971 29.1987Q17.9282 29.3681 18.0393 29.6485Q18.1504 29.929 18.1504 30.2641ZM18.0023 30.2641Q18.0023 29.9642 17.9052 29.7155Q17.8082 29.4668 17.6054 29.3187Q17.4025 29.1705 17.0921 29.1705H16.2878V31.3577H17.0921Q17.5507 31.3577 17.7765 31.0561Q18.0023 30.7545 18.0023 30.2641ZM20.1507 31.4283Q20.1507 31.46 20.1295 31.4794Q20.1083 31.4988 20.0801 31.4988H18.7501Q18.7219 31.4988 18.7008 31.4777Q18.6796 31.4565 18.6796 31.4283V29.0999Q18.6796 29.0717 18.7008 29.0506Q18.7219 29.0294 18.7501 29.0294H20.0801Q20.1083 29.0294 20.1295 29.0506Q20.1507 29.0717 20.1507 29.0999Q20.1507 29.1317 20.1295 29.1511Q20.1083 29.1705 20.0801 29.1705H18.8278V30.1547H19.9214Q19.9496 30.1547 19.9708 30.1759Q19.9919 30.1971 19.9919 30.2253Q19.9919 30.2571 19.9708 30.2765Q19.9496 30.2959 19.9214 30.2959H18.8278V31.3577H20.0801Q20.1083 31.3577 20.1295 31.3789Q20.1507 31.4001 20.1507 31.4283Z" style="stroke:#000000;stroke-width:0.25;stroke-linecap:round;stroke-linejoin:bevel" />
        <path d="M 6.24,33.75 L 24.24,33.75 z " style="stroke:#000000;stroke-width:0.25;stroke-linecap:round;stroke-linejoin:bevel;stroke-dasharray:none" />
        <path d="M 6.24,47.50 L 24.24,47.50 z " style="stroke:#000000;stroke-width:0.25;stroke-linecap:round;stroke-linejoin:bevel;stroke-dasharray:none" />
        <path d="M12.513 40.3499Q12.513 40.3817 12.4919 40.4011Q12.4707 40.4205 12.4425 40.4205H11.1831V41.3942H12.2837Q12.3119 41.3942 12.3331 41.4153Q12.3543 41.4365 12.3543 41.4647Q12.3543 41.4965 12.3331 41.5159Q12.3119 41.5353 12.2837 41.5353H11.1831V42.6783Q11.1831 42.7065 11.1637 42.7277Q11.1443 42.7488 11.1125 42.7488Q11.0808 42.7488 11.0613 42.7277Q11.0419 42.7065 11.0419 42.6783V40.3499Q11.0419 40.3217 11.0631 40.3006Q11.0843 40.2794 11.1125 40.2794H12.4425Q12.4707 40.2794 12.4919 40.3006Q12.513 40.3217 12.513 40.3499ZM14.8378 42.6747Q14.8378 42.7065 14.8184 42.7259Q14.799 42.7453 14.7708 42.7453Q14.7496 42.7453 14.7391 42.7382Q14.6438 42.6853 14.5874 42.5601Q14.5309 42.4349 14.5309 42.1491Q14.5309 41.8598 14.3757 41.7522Q14.2205 41.6446 14.0159 41.6446H13.1904V42.6783Q13.1904 42.7065 13.1692 42.7277Q13.148 42.7488 13.1163 42.7488Q13.0845 42.7488 13.0634 42.7277Q13.0422 42.7065 13.0422 42.6783V40.3499Q13.0422 40.3217 13.0634 40.3006Q13.0845 40.2794 13.1128 40.2794H14.0441Q14.2487 40.2794 14.4074 40.3623Q14.5662 40.4452 14.6544 40.5898Q14.7426 40.7345 14.7426 40.9179Q14.7426 41.1543 14.6173 41.3236Q14.4921 41.4929 14.291 41.5529Q14.4604 41.6058 14.5697 41.7628Q14.6791 41.9198 14.6791 42.1491Q14.6791 42.3855 14.7091 42.479Q14.7391 42.5724 14.799 42.6112Q14.8378 42.6359 14.8378 42.6747ZM14.0617 41.5035Q14.284 41.4824 14.4392 41.3271Q14.5944 41.1719 14.5944 40.9214Q14.5944 40.7027 14.4392 40.5616Q14.284 40.4205 14.0264 40.4205H13.1904V41.5035ZM16.8557 42.6783Q16.8557 42.71 16.8346 42.7294Q16.8134 42.7488 16.7852 42.7488H15.4552Q15.427 42.7488 15.4058 42.7277Q15.3846 42.7065 15.3846 42.6783V40.3499Q15.3846 40.3217 15.4058 40.3006Q15.427 40.2794 15.4552 40.2794H16.7852Q16.8134 40.2794 16.8346 40.3006Q16.8557 40.3217 16.8557 40.3499Q16.8557 40.3817 16.8346 40.4011Q16.8134 40.4205 16.7852 40.4205H15.5328V41.4047H16.6264Q16.6546 41.4047 16.6758 41.4259Q16.697 41.4471 16.697 41.4753Q16.697 41.5071 16.6758 41.5265Q16.6546 41.5459 16.6264 41.5459H15.5328V42.6077H16.7852Q16.8134 42.6077 16.8346 42.6289Q16.8557 42.6501 16.8557 42.6783ZM19.8438 43.0381Q19.8438 43.1051 19.745 43.1739Q19.6462 43.2427 19.4998 43.2868Q19.3534 43.3309 19.2229 43.3309Q19.0288 43.3309 18.8948 43.2886Q18.7607 43.2462 18.5879 43.1616Q18.4432 43.0875 18.3374 43.0522Q18.2316 43.0169 18.094 43.0169Q18.0446 43.0169 18.004 43.0293Q17.9634 43.0416 17.907 43.0663Q17.8435 43.0946 17.8223 43.0946Q17.7941 43.0946 17.7729 43.0734Q17.7518 43.0522 17.7518 43.0205Q17.7518 42.9781 17.7906 42.9605L18.3056 42.7806Q17.9846 42.7629 17.7359 42.5971Q17.4872 42.4313 17.3478 42.1509Q17.2085 41.8704 17.2085 41.5141Q17.2085 41.1437 17.3584 40.8544Q17.5084 40.5651 17.7765 40.4046Q18.0446 40.2441 18.3868 40.2441Q18.729 40.2441 18.9971 40.4046Q19.2652 40.5651 19.4151 40.8544Q19.5651 41.1437 19.5651 41.5141Q19.5651 41.8316 19.4539 42.0891Q19.3428 42.3467 19.14 42.5195Q18.9371 42.6924 18.6725 42.7524L18.2386 42.8935Q18.348 42.9041 18.4415 42.9393Q18.5349 42.9746 18.6655 43.0381Q18.8348 43.1192 18.9512 43.1581Q19.0676 43.1969 19.2229 43.1969Q19.3534 43.1969 19.4469 43.1633Q19.5404 43.1298 19.6286 43.0804Q19.6568 43.0663 19.6956 43.0275Q19.7168 43.0064 19.7397 42.9922Q19.7626 42.9781 19.7838 42.9781Q19.812 42.9781 19.8279 42.994Q19.8438 43.0099 19.8438 43.0381ZM18.3868 42.643Q18.6866 42.643 18.9212 42.5019Q19.1558 42.3608 19.2864 42.1033Q19.4169 41.8457 19.4169 41.5141Q19.4169 41.1825 19.2864 40.925Q19.1558 40.6674 18.9212 40.5263Q18.6866 40.3852 18.3868 40.3852Q18.0869 40.3852 17.8523 40.5263Q17.6177 40.6674 17.4872 40.925Q17.3567 41.1825 17.3567 41.5141Q17.3567 41.8457 17.4872 42.1033Q17.6177 42.3608 17.8523 42.5019Q18.0869 42.643 18.3868 42.643Z" style="stroke:#000000;stroke-width:0.25;stroke-linecap:round;stroke-linejoin:bevel" />
        <path d="M 6.24,61.25 L 24.24,61.25 z " style="stroke:#000000;stroke-width:0.25;stroke-linecap:round;stroke-linejoin:bevel;stroke-dasharray:none" />
        <path d="M14.2469 56.4247Q14.2469 56.4565 14.2275 56.4759Q14.2081 56.4953 14.1799 56.4953Q14.1587 56.4953 14.1482 56.4882Q14.0529 56.4353 13.9965 56.3101Q13.94 56.1849 13.94 55.8991Q13.94 55.6098 13.7848 55.5022Q13.6296 55.3946 13.425 55.3946H12.5995V56.4283Q12.5995 56.4565 12.5783 56.4777Q12.5571 56.4988 12.5254 56.4988Q12.4936 56.4988 12.4725 56.4777Q12.4513 56.4565 12.4513 56.4283V54.0999Q12.4513 54.0717 12.4725 54.0506Q12.4936 54.0294 12.5218 54.0294H13.4532Q13.6578 54.0294 13.8165 54.1123Q13.9753 54.1952 14.0635 54.3398Q14.1517 54.4845 14.1517 54.6679Q14.1517 54.9043 14.0264 55.0736Q13.9012 55.2429 13.7001 55.3029Q13.8695 55.3558 13.9788 55.5128Q14.0882 55.6698 14.0882 55.8991Q14.0882 56.1355 14.1182 56.229Q14.1482 56.3224 14.2081 56.3612Q14.2469 56.3859 14.2469 56.4247ZM13.4708 55.2535Q13.6931 55.2324 13.8483 55.0771Q14.0035 54.9219 14.0035 54.6714Q14.0035 54.4527 13.8483 54.3116Q13.6931 54.1705 13.4355 54.1705H12.5995V55.2535ZM16.2648 56.4283Q16.2648 56.46 16.2437 56.4794Q16.2225 56.4988 16.1943 56.4988H14.8643Q14.8361 56.4988 14.8149 56.4777Q14.7937 56.4565 14.7937 56.4283V54.0999Q14.7937 54.0717 14.8149 54.0506Q14.8361 54.0294 14.8643 54.0294H16.1943Q16.2225 54.0294 16.2437 54.0506Q16.2648 54.0717 16.2648 54.0999Q16.2648 54.1317 16.2437 54.1511Q16.2225 54.1705 16.1943 54.1705H14.9419V55.1547H16.0355Q16.0637 55.1547 16.0849 55.1759Q16.1061 55.1971 16.1061 55.2253Q16.1061 55.2571 16.0849 55.2765Q16.0637 55.2959 16.0355 55.2959H14.9419V56.3577H16.1943Q16.2225 56.3577 16.2437 56.3789Q16.2648 56.4001 16.2648 56.4283ZM16.5858 56.1637Q16.5647 56.1425 16.5647 56.1108Q16.5647 56.0826 16.5894 56.0561Q16.6141 56.0296 16.6423 56.0296Q16.674 56.0296 16.7023 56.0614Q16.8398 56.2237 17.0286 56.3083Q17.2173 56.393 17.4255 56.393Q17.6971 56.393 17.8735 56.2625Q18.0499 56.1319 18.0499 55.9167Q18.0463 55.7474 17.9582 55.6381Q17.87 55.5287 17.7412 55.4634Q17.6124 55.3982 17.3902 55.317Q17.1468 55.2253 17.0109 55.1547Q16.8751 55.0842 16.7781 54.9537Q16.6811 54.8231 16.6811 54.6115Q16.6811 54.4386 16.7763 54.2975Q16.8716 54.1564 17.048 54.0752Q17.2244 53.9941 17.4572 53.9941Q17.6653 53.9941 17.8523 54.07Q18.0393 54.1458 18.1487 54.2834Q18.1839 54.3328 18.1839 54.3575Q18.1839 54.3857 18.1575 54.4086Q18.131 54.4316 18.0993 54.4316Q18.071 54.4316 18.0534 54.4104Q17.9546 54.2834 17.7994 54.2093Q17.6442 54.1352 17.4572 54.1352Q17.1891 54.1352 17.0109 54.2622Q16.8328 54.3892 16.8328 54.6079Q16.8328 54.7596 16.9192 54.8655Q17.0057 54.9713 17.1362 55.0366Q17.2667 55.1018 17.4607 55.1724Q17.7077 55.2606 17.8523 55.3347Q17.997 55.4087 18.0993 55.5499Q18.2016 55.691 18.2016 55.9238Q18.2016 56.0861 18.1063 56.2272Q18.0111 56.3683 17.8329 56.4512Q17.6548 56.5341 17.4255 56.5341Q17.1644 56.5341 16.9704 56.4442Q16.7763 56.3542 16.5858 56.1637Z" style="stroke:#000000;stroke-width:0.25;stroke-linecap:round;stroke-linejoin:bevel" />
        <path d="M 6.24,75.00 L 24.24,75.00 z " style="stroke:#000000;stroke-width:0.25;stroke-linecap:round;stroke-linejoin:bevel;stroke-dasharray:none" />
        <path d="M13.0016 68.0404Q13.0016 68.0687 12.9875 68.0863Q12.9663 68.1145 12.9346 68.1145Q12.9205 68.1145 12.8923 68.1004Q12.5642 67.8782 12.1973 67.8782Q11.901 67.8782 11.6523 68.0246Q11.4035 68.171 11.2589 68.4303Q11.1143 68.6896 11.1143 69.0141Q11.1143 69.3387 11.2589 69.598Q11.4035 69.8573 11.6523 70.0037Q11.901 70.1501 12.1973 70.1501Q12.5677 70.1501 12.8887 69.9313Q12.9064 69.9172 12.9311 69.9172Q12.9663 69.9172 12.9875 69.9454Q13.0016 69.9631 13.0016 69.9878Q13.0016 70.0231 12.9734 70.0442Q12.8358 70.143 12.6189 70.2136Q12.4019 70.2841 12.1973 70.2841Q11.8622 70.2841 11.5799 70.1183Q11.2977 69.9525 11.1319 69.6615Q10.9661 69.3704 10.9661 69.0141Q10.9661 68.6578 11.1319 68.3668Q11.2977 68.0757 11.5799 67.9099Q11.8622 67.7441 12.1973 67.7441Q12.409 67.7441 12.6083 67.8076Q12.8076 67.8711 12.9699 67.984Q13.0016 68.0087 13.0016 68.0404ZM15.2912 70.1818Q15.2912 70.2136 15.27 70.2312Q15.2488 70.2488 15.2171 70.2488Q15.1924 70.2488 15.173 70.2365Q15.1536 70.2241 15.1465 70.203L14.8502 69.4763L14.8537 69.4833H13.6719L13.3862 70.203Q13.3685 70.2488 13.3227 70.2488Q13.2909 70.2488 13.2715 70.2312Q13.2521 70.2136 13.2486 70.1889Q13.245 70.1748 13.2521 70.1536L14.2011 67.8182Q14.2117 67.79 14.2275 67.7812Q14.2434 67.7723 14.2681 67.7723Q14.321 67.7723 14.3387 67.8182L15.2876 70.1536Q15.2912 70.1642 15.2912 70.1818ZM13.7283 69.3422H14.7973L14.2575 68.0122ZM15.5593 69.9137Q15.5381 69.8925 15.5381 69.8608Q15.5381 69.8326 15.5628 69.8061Q15.5875 69.7796 15.6157 69.7796Q15.6475 69.7796 15.6757 69.8114Q15.8133 69.9737 16.002 70.0583Q16.1907 70.143 16.3989 70.143Q16.6705 70.143 16.8469 70.0125Q17.0233 69.8819 17.0233 69.6668Q17.0198 69.4974 16.9316 69.3881Q16.8434 69.2787 16.7146 69.2134Q16.5858 69.1482 16.3636 69.067Q16.1202 68.9753 15.9844 68.9048Q15.8485 68.8342 15.7515 68.7037Q15.6545 68.5731 15.6545 68.3615Q15.6545 68.1886 15.7498 68.0475Q15.845 67.9064 16.0214 67.8253Q16.1978 67.7441 16.4306 67.7441Q16.6388 67.7441 16.8257 67.82Q17.0127 67.8958 17.1221 68.0334Q17.1573 68.0828 17.1573 68.1075Q17.1573 68.1357 17.1309 68.1586Q17.1044 68.1816 17.0727 68.1816Q17.0445 68.1816 17.0268 68.1604Q16.928 68.0334 16.7728 67.9593Q16.6176 67.8852 16.4306 67.8852Q16.1625 67.8852 15.9844 68.0122Q15.8062 68.1392 15.8062 68.3579Q15.8062 68.5096 15.8926 68.6155Q15.9791 68.7213 16.1096 68.7866Q16.2401 68.8518 16.4342 68.9224Q16.6811 69.0106 16.8257 69.0847Q16.9704 69.1587 17.0727 69.2999Q17.175 69.441 17.175 69.6738Q17.175 69.8361 17.0797 69.9772Q16.9845 70.1183 16.8063 70.2012Q16.6282 70.2841 16.3989 70.2841Q16.1378 70.2841 15.9438 70.1942Q15.7498 70.1042 15.5593 69.9137ZM19.5668 68.0404Q19.5668 68.0687 19.5527 68.0863Q19.5315 68.1145 19.4998 68.1145Q19.4857 68.1145 19.4575 68.1004Q19.1294 67.8782 18.7625 67.8782Q18.4662 67.8782 18.2174 68.0246Q17.9687 68.171 17.8241 68.4303Q17.6795 68.6896 17.6795 69.0141Q17.6795 69.3387 17.8241 69.598Q17.9687 69.8573 18.2174 70.0037Q18.4662 70.1501 18.7625 70.1501Q19.1329 70.1501 19.4539 69.9313Q19.4716 69.9172 19.4963 69.9172Q19.5315 69.9172 19.5527 69.9454Q19.5668 69.9631 19.5668 69.9878Q19.5668 70.0231 19.5386 70.0442Q19.401 70.143 19.1841 70.2136Q18.9671 70.2841 18.7625 70.2841Q18.4273 70.2841 18.1451 70.1183Q17.8629 69.9525 17.6971 69.6615Q17.5313 69.3704 17.5313 69.0141Q17.5313 68.6578 17.6971 68.3668Q17.8629 68.0757 18.1451 67.9099Q18.4273 67.7441 18.7625 67.7441Q18.9742 67.7441 19.1735 67.8076Q19.3728 67.8711 19.5351 67.984Q19.5668 68.0087 19.5668 68.0404Z" style="stroke:#000000;stroke-width:0.25;stroke-linecap:round;stroke-linejoin:bevel" />
        <path d="M 15.24,102.00 L 15.24,112.00 " style="stroke:#000000;stroke-width:0.25;stroke-linecap:round;stroke-linejoin:bevel;stroke-dasharray:none" fill="none" />
        <path d="M12.9275 96.7841Q12.5853 96.7841 12.3172 96.6236Q12.0491 96.4631 11.8992 96.1738Q11.7493 95.8845 11.7493 95.5141Q11.7493 95.1437 11.8992 94.8544Q12.0491 94.5651 12.3172 94.4046Q12.5853 94.2441 12.9275 94.2441Q13.2697 94.2441 13.5378 94.4046Q13.806 94.5651 13.9559 94.8544Q14.1058 95.1437 14.1058 95.5141Q14.1058 95.8845 13.9559 96.1738Q13.806 96.4631 13.5378 96.6236Q13.2697 96.7841 12.9275 96.7841ZM12.9275 94.3852Q12.6277 94.3852 12.3931 94.5263Q12.1585 94.6674 12.028 94.925Q11.8974 95.1825 11.8974 95.5141Q11.8974 95.8457 12.028 96.1033Q12.1585 96.3608 12.3931 96.5019Q12.6277 96.643 12.9275 96.643Q13.2274 96.643 13.462 96.5019Q13.6966 96.3608 13.8271 96.1033Q13.9577 95.8457 13.9577 95.5141Q13.9577 95.1825 13.8271 94.925Q13.6966 94.6674 13.462 94.5263Q13.2274 94.3852 12.9275 94.3852ZM16.4518 94.3499V95.8739Q16.4518 96.1209 16.3283 96.329Q16.2048 96.5372 15.9967 96.6606Q15.7886 96.7841 15.5452 96.7841Q15.2982 96.7841 15.0901 96.6606Q14.8819 96.5372 14.7585 96.329Q14.635 96.1209 14.635 95.8739V94.3499Q14.635 94.3182 14.6562 94.2988Q14.6773 94.2794 14.7091 94.2794Q14.7408 94.2794 14.762 94.3006Q14.7832 94.3217 14.7832 94.3499V95.8739Q14.7832 96.0821 14.8855 96.2585Q14.9878 96.4349 15.1624 96.5389Q15.337 96.643 15.5452 96.643Q15.7533 96.643 15.9279 96.5389Q16.1025 96.4349 16.2066 96.2585Q16.3107 96.0821 16.3107 95.8739V94.3499Q16.3107 94.3217 16.3301 94.3006Q16.3495 94.2794 16.3812 94.2794Q16.413 94.2794 16.4324 94.3006Q16.4518 94.3217 16.4518 94.3499ZM18.7837 94.3464Q18.7837 94.3782 18.7642 94.3958Q18.7448 94.4134 18.7131 94.4134H17.9264V96.6783Q17.9264 96.7065 17.9052 96.7277Q17.8841 96.7488 17.8558 96.7488Q17.8241 96.7488 17.8047 96.7277Q17.7853 96.7065 17.7853 96.6783V94.4134H16.9986Q16.9704 94.4134 16.9492 94.394Q16.928 94.3746 16.928 94.3464Q16.928 94.3182 16.9492 94.2988Q16.9704 94.2794 16.9986 94.2794H18.7131Q18.7413 94.2794 18.7625 94.2988Q18.7837 94.3182 18.7837 94.3464Z" style="stroke:#000000;stroke-width:0.25;stroke-linecap:round;stroke-linejoin:bevel" />
    </g>
</svg>
