<?xml version="1.0" encoding="utf-8"?>
<svg xmlns="http://www.w3.org/2000/svg" width="20.32mm" height="128.50mm" viewBox="0 0 20.32 128.50">
    <g id="PanelLayer">
        <rect id="border_rect" width="20.32" height="128.5" x="0" y="0" style="display:inline;fill:#4f8df2;fill-opacity:1;stroke:none;" />
        <g id="omri_cohen_logo">
            <ellipse cx="10.9506" cy="119.384" fill="#65995C" fill-rule="evenodd" clip-rule="evenodd" rx="0.222043" ry="0.0788571" transform="rotate=(-56.032 10.9506 119.384)" />
            <path fill="#766857" fill-rule="evenodd" d="M 10.239 123.46c -0.406457 0.0860429 -0.711571 0.282214 -0.836886 0.453686 -0.0869143 0.118929 -0.0393429 0.242129 0.0868286 0.246443 0.0586714 0.002 0.118429 -0.0033 0.178057 -0.0166143l 1.2934 -0.2886a 0.769157 0.769157 0 0 0 0.291671 -0.133486 0.0351286 0.0351286 0 0 0 0.0037 -0.0531857c -0.110143 -0.1085 -0.3251 -0.354671 -1.01677 -0.208243z" clip-rule="evenodd" />
            <path fill="#CE1B42" fill-rule="evenodd" d="M 11.2582 123.717c 0.184457 -0.139914 0.301429 -0.359614 0.302243 -0.6024l 1.42857e-05 -0.00677143c 0 -0.915214 -0.6268 -1.65714 -1.4 -1.65714s -1.4 0.741929 -1.4 1.65714c 0 0.196357 0.0288571 0.384729 0.0818429 0.559514 0.0881286 0.290757 0.352714 0.482 0.6444 0.492786 -0.1244 -0.00577143 -0.170929 -0.128043 -0.0845714 -0.246229 0.125314 -0.171471 0.430443 -0.367643 0.8369 -0.453686 0.691671 -0.146429 0.906614 0.0997429 1.01677 0.208243a 0.0351286 0.0351286 0 0 1 -0.0037 0.0531857l 0.0061 -0.00464286z" clip-rule="evenodd" />
            <ellipse cx="10.9285" cy="122.458" fill="#ffffff" fill-rule="evenodd" clip-rule="evenodd" rx="0.137614" ry="0.149814" transform="rotate=(-51.549 10.9285 122.458)" />
            <ellipse cx="11.2224" cy="122.736" fill="#ffffff" fill-rule="evenodd" clip-rule="evenodd" rx="0.149814" ry="0.137614" transform="rotate=(-24.392 11.2224 122.736)" />
            <ellipse cx="10.7797" cy="122.865" fill="#ffffff" fill-rule="evenodd" clip-rule="evenodd" rx="0.149814" ry="0.126914" transform="rotate=(-9.387 10.7798 122.865)" />
            <path fill="#ffffff" fill-rule="evenodd" d="M 9.04194 122.111c 0.00657143 0.006 0.0132857 0.0119571 0.0204 0.0176143 0.1358 0.107829 0.317486 0.105086 0.4058 -0.00612857 0.0877143 -0.110486 0.0502 -0.286371 -0.0834286 -0.3944 -0.131686 0.103957 -0.247643 0.233586 -0.342771 0.382914z" clip-rule="evenodd" />
            <path id="omri_outer_ring" fill="#7cbf71" d="M 10.1605 118.375c -2.27839 0 -4.1254 1.847 -4.1254 4.12539S 7.88206 126.626 10.1605 126.626 14.2859 124.779 14.2859 122.5 12.4389 118.375 10.1605 118.375zm 0 7.9111c -2.09079 0 -3.78571 -1.69491 -3.78571 -3.78571s 1.69493 -3.78571 3.78571 -3.78571 3.78571 1.69493 3.78571 3.78571 -1.69491 3.78571 -3.78571 3.78571z" />
            <path fill="#A11534" fill-rule="evenodd" d="M 9.40214 123.914c 0.0523286 -0.0716286 0.136143 -0.147529 0.245514 -0.217943 -0.105971 -0.117571 -0.196286 -0.251171 -0.258629 -0.402414 -0.272643 -0.661357 -0.0783714 -1.42857 0.471814 -1.80469 -0.629214 0.162414 -1.10039 0.8255 -1.10039 1.61897 0 0.196357 0.0288571 0.384729 0.0818429 0.559514 0.0881286 0.290757 0.352714 0.482 0.6444 0.492786 -0.1244 -0.00577143 -0.170929 -0.128043 -0.0845714 -0.246229z" clip-rule="evenodd" />
            <path fill="#C7C7C7" fill-rule="evenodd" d="M 9.35537 121.752c -0.00801429 0.00668571 -0.0160857 0.0132857 -0.0239857 0.0201714 -0.008 0.00697143 -0.0158143 0.0142143 -0.0236857 0.0213857 -0.00764286 0.00694286 -0.0153286 0.0138143 -0.0228429 0.0209429 -0.00785714 0.00745714 -0.0155143 0.0152 -0.0232286 0.0228571 -0.00727143 0.00721429 -0.0146143 0.0143429 -0.0217714 0.0217429 -0.00768571 0.00794286 -0.0151429 0.0161429 -0.0226857 0.0242857 -0.0069 0.00745714 -0.0138857 0.0148143 -0.0206571 0.0224286 -0.00752857 0.00845714 -0.0148143 0.0172 -0.0221714 0.0258429 -0.00651429 0.00765714 -0.0131143 0.0152 -0.0195 0.023 -0.00737143 0.009 -0.0144857 0.0182714 -0.0216714 0.0274571 -0.00608571 0.00778571 -0.0122857 0.0154429 -0.0182429 0.0233714 -0.00728571 0.00967143 -0.0143 0.0196286 -0.0213857 0.0295 -0.00557143 0.00774286 -0.0112571 0.0153714 -0.0167143 0.0232429 -0.0073 0.0105714 -0.0143143 0.0214286 -0.0214143 0.0322 -0.00445714 0.00677143 -0.00902857 0.0134286 -0.0134 0.0203 0.00657143 0.006 0.0132286 0.0119143 0.0203286 0.0175571 0.0862571 0.0684857 0.190943 0.0922 0.278543 0.072 0.0372857 -0.116 0.0883286 -0.2264 0.152529 -0.328143 -0.0214286 -0.0529571 -0.0581 -0.103429 -0.1085 -0.144229 -0.00182857 0.00142857 -0.00368571 0.00278571 -0.0055 0.00422857 -0.00811429 0.00645714 -0.0160571 0.0132 -0.0240429 0.0198571z" clip-rule="evenodd" />
            <path fill="#9e887a" fill-rule="evenodd" d="M 10.6387 123.415c -0.111843 -0.000857143 -0.243514 0.0120571 -0.399686 0.0451143 -0.00932857 0.00197143 -0.0182857 0.00431429 -0.0275143 0.0064l 2.85714e-05 -0.0003c -0.00735714 0.00165714 -0.0144286 0.00361429 -0.0217143 0.00535714a 1.97857 1.97857 0 0 0 -0.0417143 0.0102857c -0.0121286 0.00317143 -0.0240143 0.00654286 -0.0359286 0.0099 -0.0118286 0.00332857 -0.0236714 0.00662857 -0.0352857 0.0101429 -0.0141714 0.00428571 -0.0280143 0.0088 -0.0418571 0.0133286 -0.00894286 0.00292857 -0.0179714 0.00578571 -0.0267714 0.00881429 -0.0158714 0.00545714 -0.0313714 0.0111429 -0.0468 0.0169143 -0.00498571 0.00185714 -0.0101857 0.00357143 -0.0151286 0.00547143v 0.000171429c -0.00537143 0.00205714 -0.0109571 0.00395714 -0.0162571 0.00605714 -0.1011 0.692214 -0.524557 1.87333 -1.10067 1.67953a 3.05071 3.05071 0 0 1 -0.0689571 -0.0352286c 0.464286 0.374943 0.950943 0.0426429 1.10039 -0.244 0.147957 -0.283757 0.248286 -0.769186 0.309286 -1.17611a 0.0831857 0.0831857 0 0 1 0.0430429 -0.0612143c 0.365057 -0.1941 0.433 -0.0388571 0.433 -0.0388571l 0.00155714 0.00111429a 5.63889 5.63889 0 0 1 -0.009 -0.262871zM 13.0399 120.628c 0.0221429 0.0149143 0.00604286 0.0775286 -0.0359571 0.139857 -0.042 0.0623429 -0.0939857 0.100771 -0.116114 0.0858571l 0.0710857 0.0054c 0.0164 0.0110571 0.0549286 -0.0174286 0.0860429 -0.0636143 0.0311143 -0.0462 0.0430429 -0.0926 0.0266429 -0.103643l -0.0317143 -0.0638571z" clip-rule="evenodd" />
            <path fill="#7BBA70" fill-rule="evenodd" d="M 10.8266 119.568c 0.0361143 0.0243286 0.120943 -0.0384 0.189457 -0.1401 0.0685286 -0.1017 0.0947857 -0.203857 0.0586714 -0.2282l 0.267143 0.0414286c 0.0548857 0.0369857 0.0149714 0.192229 -0.0891429 0.346757 -0.1041 0.154529 -0.232986 0.249829 -0.287857 0.212857l -0.138271 -0.232743z" clip-rule="evenodd" />
            <path fill="#D0B3A1" fill-rule="evenodd" d="M 3.83143 116.171m 9.20846 4.45706 -0.910986 -0.613929 -0.000142857 0.000228571c -0.0178429 0.0381286 -0.0404286 0.0782286 -0.0674429 0.118343 -0.0270286 0.0401 -0.0557143 0.0761 -0.0843429 0.106943l -0.000142857 0.000242857 0.910986 0.613886c 0.0221429 0.0149143 0.0741286 -0.0235143 0.116114 -0.0858571 0.042 -0.0623286 0.0580857 -0.124943 0.0359571 -0.139857z" clip-rule="evenodd" />
            <path fill="#9e887a" fill-rule="evenodd" d="M 12.0278 120.179a 0.848657 0.848657 0 0 1 -0.0508571 0.0606429l -0.000142857 0.000242857 0.910986 0.613886c 0.0151714 0.0102286 0.0443714 -0.00462857 0.0747571 -0.0350571l -0.934743 -0.639714z" clip-rule="evenodd" />
            <path fill="#70AA67" fill-rule="evenodd" d="M 10.9648 119.801c 0.0548714 0.0369714 0.183757 -0.0583286 0.287857 -0.212857 0.104114 -0.154529 0.144029 -0.309771 0.0891429 -0.346743l 0.8086 0.544757c 0.0548857 0.0369714 0.0149714 0.192214 -0.0891429 0.346743 -0.1041 0.154529 -0.232986 0.249829 -0.287857 0.212857l -0.8086 -0.544757z" clip-rule="evenodd" />
            <path fill="#486e42" fill-rule="evenodd" d="M 12.6468 120.692c 0.0221429 0.0149143 0.0741143 -0.0235286 0.116114 -0.0858571 0.042 -0.0623286 0.0580857 -0.124943 0.0359429 -0.139857l -0.0513857 -0.0346286c 0.0221429 0.0149143 0.00604286 0.0775286 -0.0359571 0.139857 -0.042 0.0623286 -0.0939714 0.100771 -0.116114 0.0858571l 0.0514 0.0346286z" clip-rule="evenodd" />
            <path id="omri_jack_tip" fill="#917e74" d="M 3.83143 116.171m 9.13114 4.64771 -0.0001 -7.14286e-05c -0.0192571 0.0192571 -0.0380571 0.0324571 -0.0530714 0.0367714l 0.0495 0.00375714c 0.0119429 0.00804286 0.0356143 -0.00492857 0.0596286 -0.0303857l -0.0559571 -0.0100714zM 12.9094 120.856l -0.0215857 -0.00165714c 0.00552857 0.00372857 0.0129429 0.00412857 0.0215714 0.00164286z" />
            <path fill="#486e42" fill-rule="evenodd" d="M 11.1705 119.693c -0.0823857 0.0895 -0.164643 0.135714 -0.205629 0.1081l 0.8086 0.544757c 0.0381857 0.0257143 0.112214 -0.0127143 0.188786 -0.0904571l -0.791757 -0.5624z" clip-rule="evenodd" />
            <path fill="#5c8c54" fill-rule="evenodd" d="M 10.9619 119.497c -0.0542143 0.0589 -0.108343 0.0892857 -0.135314 0.0711286l 0.138271 0.232743c 0.0409857 0.0276 0.123243 -0.0186 0.205629 -0.1081l -0.208586 -0.195771z" clip-rule="evenodd" />
            <path fill="#D0B3A1" fill-rule="evenodd" d="M 12.6687 124.492c -0.0682429 -0.0541857 -0.167186 -0.0459 -0.2248 0.0194714a 3.05486 3.05486 0 0 1 -0.895071 0.697043c -0.660529 0.330486 -0.900714 -0.881143 -0.910071 -1.7937 -0.111843 -0.000857143 -0.243514 0.0120571 -0.399686 0.0451143 -0.111114 0.0235286 -0.214571 0.0553143 -0.308943 0.0925429 -0.1011 0.692214 -0.524557 1.87333 -1.10067 1.67953 -1.00653 -0.496357 -1.7094 -1.53366 -1.7118 -2.7253 -0.00341429 -1.68343 1.36023 -3.04914 3.04286 -3.04914 0.256457 0 0.505371 0.0320143 0.743257 0.0918286 0.0356429 -0.0249 0.0762143 -0.0674714 0.1123 -0.121057 0.042 -0.0623286 0.0680286 -0.124757 0.0736429 -0.169429 -0.307886 -0.0881143 -0.633714 -0.133743 -0.970857 -0.129671 -1.85456 0.0223857 -3.33371 1.52381 -3.32977 3.37851 0.00395714 1.85861 1.51187 3.36409 3.37143 3.36409 1.00719 0 1.91111 -0.441757 2.52887 -1.142 0.0624 -0.0707143 0.0531714 -0.179186 -0.0206857 -0.237829z" clip-rule="evenodd" />
        </g>
    </g>
</svg>
