<?xml version="1.0" encoding="utf-8"?>
<svg xmlns="http://www.w3.org/2000/svg" width="30.48mm" height="128.50mm" viewBox="0 0 30.48 128.50">
    <g id="PanelLayer">
        <defs>
            <linearGradient id="gradient_controls" x1="0" y1="10.5" x2="0" y2="53.5" gradientUnits="userSpaceOnUse">
                <stop style="stop-color:#3068ff;stop-opacity:1;" offset="0" />
                <stop style="stop-color:#4f8df2;stop-opacity:1;" offset="1" />
            </linearGradient>
            <linearGradient id="gradient_output" x1="0" y1="83.5" x2="0" y2="99.5" gradientUnits="userSpaceOnUse">
                <stop style="stop-color:#a06de4;stop-opacity:1;" offset="0" />
                <stop style="stop-color:#4f8df2;stop-opacity:1;" offset="1" />
            </linearGradient>
        </defs>
        <rect id="border_rect" width="30.48" height="128.5" x="0" y="0" style="display:inline;fill:#4f8df2;fill-opacity:1;stroke:none;" />
        <path id="controls_art" d="M 0.38,53.50 L 0.38,14.50 A 4 4 0 0 1 4.38 10.5 L 26.10,10.50 A 4 4 0 0 1 30.1 14.5 L 30.10,10.50 L 30.10,53.50 z" style="fill:url(#gradient_controls);fill-opacity:1;stroke-width:0;" />
        <path id="output_art" d="M 0.38,99.50 L 0.38,87.50 A 4 4 0 0 1 4.38 83.5 L 26.10,83.50 A 4 4 0 0 1 30.1 87.5 L 30.10,83.50 L 30.10,99.50 z" style="fill:url(#gradient_output);fill-opacity:1;stroke-width:0;" />
        <path d="M 6.24,33.75 L 24.24,33.75 z " style="stroke:#000000;stroke-width:0.25;stroke-linecap:round;stroke-linejoin:bevel;stroke-dasharray:none" />
        <path d="M11.5058 26.5999V28.9283Q11.5058 28.9565 11.4829 28.9777Q11.46 28.9988 11.4318 28.9988Q11.4 28.9988 11.3788 28.9777Q11.3577 28.9565 11.3577 28.9283V26.8187L10.4475 28.1945Q10.4299 28.2227 10.3981 28.2227Q10.3593 28.2227 10.3417 28.1945L9.42799 26.8151V28.9283Q9.42799 28.9565 9.40682 28.9777Q9.38565 28.9988 9.35743 28.9988Q9.32568 28.9988 9.30628 28.9777Q9.28688 28.9565 9.28688 28.9283V26.5999Q9.28688 26.5753 9.30628 26.5523Q9.32568 26.5294 9.3539 26.5294Q9.39976 26.5294 9.42093 26.5611L10.3981 28.0146L11.3753 26.5611Q11.4035 26.5223 11.4423 26.5294Q11.4706 26.5329 11.4882 26.5523Q11.5058 26.5717 11.5058 26.5999ZM13.2133 29.0341Q12.8711 29.0341 12.603 28.8736Q12.3349 28.7131 12.1849 28.4238Q12.035 28.1345 12.035 27.7641Q12.035 27.3937 12.1849 27.1044Q12.3349 26.8151 12.603 26.6546Q12.8711 26.4941 13.2133 26.4941Q13.5555 26.4941 13.8236 26.6546Q14.0917 26.8151 14.2416 27.1044Q14.3916 27.3937 14.3916 27.7641Q14.3916 28.1345 14.2416 28.4238Q14.0917 28.7131 13.8236 28.8736Q13.5555 29.0341 13.2133 29.0341ZM13.2133 26.6352Q12.9134 26.6352 12.6788 26.7763Q12.4442 26.9174 12.3137 27.175Q12.1832 27.4325 12.1832 27.7641Q12.1832 28.0957 12.3137 28.3532Q12.4442 28.6108 12.6788 28.7519Q12.9134 28.893 13.2133 28.893Q13.5132 28.893 13.7477 28.7519Q13.9823 28.6108 14.1129 28.3532Q14.2434 28.0957 14.2434 27.7641Q14.2434 27.4325 14.1129 27.175Q13.9823 26.9174 13.7477 26.7763Q13.5132 26.6352 13.2133 26.6352ZM16.7164 28.9247Q16.7164 28.9565 16.697 28.9759Q16.6776 28.9953 16.6493 28.9953Q16.6282 28.9953 16.6176 28.9883Q16.5223 28.9353 16.4659 28.8101Q16.4095 28.6849 16.4095 28.3991Q16.4095 28.1098 16.2542 28.0022Q16.099 27.8946 15.8944 27.8946H15.0689V28.9283Q15.0689 28.9565 15.0477 28.9777Q15.0266 28.9988 14.9948 28.9988Q14.9631 28.9988 14.9419 28.9777Q14.9207 28.9565 14.9207 28.9283V26.5999Q14.9207 26.5717 14.9419 26.5506Q14.9631 26.5294 14.9913 26.5294H15.9226Q16.1272 26.5294 16.286 26.6123Q16.4447 26.6952 16.5329 26.8398Q16.6211 26.9845 16.6211 27.1679Q16.6211 27.4043 16.4959 27.5736Q16.3707 27.7429 16.1696 27.8029Q16.3389 27.8558 16.4483 28.0128Q16.5576 28.1698 16.5576 28.3991Q16.5576 28.6355 16.5876 28.729Q16.6176 28.8224 16.6776 28.8613Q16.7164 28.8859 16.7164 28.9247ZM15.9403 27.7535Q16.1625 27.7324 16.3177 27.5771Q16.473 27.4219 16.473 27.1714Q16.473 26.9527 16.3177 26.8116Q16.1625 26.6705 15.905 26.6705H15.0689V27.7535ZM18.8472 27.2032Q18.8472 27.4008 18.7642 27.5613Q18.6813 27.7218 18.5297 27.8117Q18.378 27.9017 18.1804 27.9017H17.4113V28.9283Q17.4113 28.9565 17.3884 28.9777Q17.3655 28.9988 17.3373 28.9988Q17.3055 28.9988 17.2843 28.9777Q17.2632 28.9565 17.2632 28.9283V26.5999Q17.2632 26.5717 17.2843 26.5506Q17.3055 26.5294 17.3337 26.5294H18.1804Q18.4803 26.5294 18.6637 26.7164Q18.8472 26.9033 18.8472 27.2032ZM18.699 27.2032Q18.699 26.9598 18.5596 26.8151Q18.4203 26.6705 18.1804 26.6705H17.4113V27.7606H18.1804Q18.4168 27.7606 18.5579 27.6036Q18.699 27.4466 18.699 27.2032ZM21.1931 26.6035V28.9247Q21.1896 28.9565 21.1684 28.9777Q21.1473 28.9988 21.119 28.9988Q21.0838 28.9988 21.0644 28.9777Q21.045 28.9565 21.045 28.9247V27.7994H19.5068V28.9247Q19.5033 28.9565 19.4822 28.9777Q19.461 28.9988 19.4328 28.9988Q19.3975 28.9988 19.3781 28.9777Q19.3587 28.9565 19.3587 28.9247V26.6035Q19.3587 26.5717 19.3798 26.5506Q19.401 26.5294 19.4328 26.5294Q19.4645 26.5294 19.4857 26.5506Q19.5068 26.5717 19.5068 26.6035V27.6583H21.045V26.6035Q21.045 26.5717 21.0661 26.5506Q21.0873 26.5294 21.119 26.5294Q21.1508 26.5294 21.172 26.5506Q21.1931 26.5717 21.1931 26.6035Z" style="stroke:#000000;stroke-width:0.25;stroke-linecap:round;stroke-linejoin:bevel" />
        <path d="M 6.24,47.50 L 24.24,47.50 z " style="stroke:#000000;stroke-width:0.25;stroke-linecap:round;stroke-linejoin:bevel;stroke-dasharray:none" />
        <path d="M12.513 40.3499Q12.513 40.3817 12.4919 40.4011Q12.4707 40.4205 12.4425 40.4205H11.1831V41.3942H12.2837Q12.3119 41.3942 12.3331 41.4153Q12.3543 41.4365 12.3543 41.4647Q12.3543 41.4965 12.3331 41.5159Q12.3119 41.5353 12.2837 41.5353H11.1831V42.6783Q11.1831 42.7065 11.1637 42.7277Q11.1443 42.7488 11.1125 42.7488Q11.0808 42.7488 11.0613 42.7277Q11.0419 42.7065 11.0419 42.6783V40.3499Q11.0419 40.3217 11.0631 40.3006Q11.0843 40.2794 11.1125 40.2794H12.4425Q12.4707 40.2794 12.4919 40.3006Q12.513 40.3217 12.513 40.3499ZM14.8378 42.6747Q14.8378 42.7065 14.8184 42.7259Q14.799 42.7453 14.7708 42.7453Q14.7496 42.7453 14.7391 42.7382Q14.6438 42.6853 14.5874 42.5601Q14.5309 42.4349 14.5309 42.1491Q14.5309 41.8598 14.3757 41.7522Q14.2205 41.6446 14.0159 41.6446H13.1904V42.6783Q13.1904 42.7065 13.1692 42.7277Q13.148 42.7488 13.1163 42.7488Q13.0845 42.7488 13.0634 42.7277Q13.0422 42.7065 13.0422 42.6783V40.3499Q13.0422 40.3217 13.0634 40.3006Q13.0845 40.2794 13.1128 40.2794H14.0441Q14.2487 40.2794 14.4074 40.3623Q14.5662 40.4452 14.6544 40.5898Q14.7426 40.7345 14.7426 40.9179Q14.7426 41.1543 14.6173 41.3236Q14.4921 41.4929 14.291 41.5529Q14.4604 41.6058 14.5697 41.7628Q14.6791 41.9198 14.6791 42.1491Q14.6791 42.3855 14.7091 42.479Q14.7391 42.5724 14.799 42.6112Q14.8378 42.6359 14.8378 42.6747ZM14.0617 41.5035Q14.284 41.4824 14.4392 41.3271Q14.5944 41.1719 14.5944 40.9214Q14.5944 40.7027 14.4392 40.5616Q14.284 40.4205 14.0264 40.4205H13.1904V41.5035ZM16.8557 42.6783Q16.8557 42.71 16.8346 42.7294Q16.8134 42.7488 16.7852 42.7488H15.4552Q15.427 42.7488 15.4058 42.7277Q15.3846 42.7065 15.3846 42.6783V40.3499Q15.3846 40.3217 15.4058 40.3006Q15.427 40.2794 15.4552 40.2794H16.7852Q16.8134 40.2794 16.8346 40.3006Q16.8557 40.3217 16.8557 40.3499Q16.8557 40.3817 16.8346 40.4011Q16.8134 40.4205 16.7852 40.4205H15.5328V41.4047H16.6264Q16.6546 41.4047 16.6758 41.4259Q16.697 41.4471 16.697 41.4753Q16.697 41.5071 16.6758 41.5265Q16.6546 41.5459 16.6264 41.5459H15.5328V42.6077H16.7852Q16.8134 42.6077 16.8346 42.6289Q16.8557 42.6501 16.8557 42.6783ZM19.8438 43.0381Q19.8438 43.1051 19.745 43.1739Q19.6462 43.2427 19.4998 43.2868Q19.3534 43.3309 19.2229 43.3309Q19.0288 43.3309 18.8948 43.2886Q18.7607 43.2462 18.5879 43.1616Q18.4432 43.0875 18.3374 43.0522Q18.2316 43.0169 18.094 43.0169Q18.0446 43.0169 18.004 43.0293Q17.9634 43.0416 17.907 43.0663Q17.8435 43.0946 17.8223 43.0946Q17.7941 43.0946 17.7729 43.0734Q17.7518 43.0522 17.7518 43.0205Q17.7518 42.9781 17.7906 42.9605L18.3056 42.7806Q17.9846 42.7629 17.7359 42.5971Q17.4872 42.4313 17.3478 42.1509Q17.2085 41.8704 17.2085 41.5141Q17.2085 41.1437 17.3584 40.8544Q17.5084 40.5651 17.7765 40.4046Q18.0446 40.2441 18.3868 40.2441Q18.729 40.2441 18.9971 40.4046Q19.2652 40.5651 19.4151 40.8544Q19.5651 41.1437 19.5651 41.5141Q19.5651 41.8316 19.4539 42.0891Q19.3428 42.3467 19.14 42.5195Q18.9371 42.6924 18.6725 42.7524L18.2386 42.8935Q18.348 42.9041 18.4415 42.9393Q18.5349 42.9746 18.6655 43.0381Q18.8348 43.1192 18.9512 43.1581Q19.0676 43.1969 19.2229 43.1969Q19.3534 43.1969 19.4469 43.1633Q19.5404 43.1298 19.6286 43.0804Q19.6568 43.0663 19.6956 43.0275Q19.7168 43.0064 19.7397 42.9922Q19.7626 42.9781 19.7838 42.9781Q19.812 42.9781 19.8279 42.994Q19.8438 43.0099 19.8438 43.0381ZM18.3868 42.643Q18.6866 42.643 18.9212 42.5019Q19.1558 42.3608 19.2864 42.1033Q19.4169 41.8457 19.4169 41.5141Q19.4169 41.1825 19.2864 40.925Q19.1558 40.6674 18.9212 40.5263Q18.6866 40.3852 18.3868 40.3852Q18.0869 40.3852 17.8523 40.5263Q17.6177 40.6674 17.4872 40.925Q17.3567 41.1825 17.3567 41.5141Q17.3567 41.8457 17.4872 42.1033Q17.6177 42.3608 17.8523 42.5019Q18.0869 42.643 18.3868 42.643Z" style="stroke:#000000;stroke-width:0.25;stroke-linecap:round;stroke-linejoin:bevel" />
        <path d="M 6.24,61.25 L 24.24,61.25 z " style="stroke:#000000;stroke-width:0.25;stroke-linecap:round;stroke-linejoin:bevel;stroke-dasharray:none" />
        <path d="M14.2469 56.4247Q14.2469 56.4565 14.2275 56.4759Q14.2081 56.4953 14.1799 56.4953Q14.1587 56.4953 14.1482 56.4882Q14.0529 56.4353 13.9965 56.3101Q13.94 56.1849 13.94 55.8991Q13.94 55.6098 13.7848 55.5022Q13.6296 55.3946 13.425 55.3946H12.5995V56.4283Q12.5995 56.4565 12.5783 56.4777Q12.5571 56.4988 12.5254 56.4988Q12.4936 56.4988 12.4725 56.4777Q12.4513 56.4565 12.4513 56.4283V54.0999Q12.4513 54.0717 12.4725 54.0506Q12.4936 54.0294 12.5218 54.0294H13.4532Q13.6578 54.0294 13.8165 54.1123Q13.9753 54.1952 14.0635 54.3398Q14.1517 54.4845 14.1517 54.6679Q14.1517 54.9043 14.0264 55.0736Q13.9012 55.2429 13.7001 55.3029Q13.8695 55.3558 13.9788 55.5128Q14.0882 55.6698 14.0882 55.8991Q14.0882 56.1355 14.1182 56.229Q14.1482 56.3224 14.2081 56.3612Q14.2469 56.3859 14.2469 56.4247ZM13.4708 55.2535Q13.6931 55.2324 13.8483 55.0771Q14.0035 54.9219 14.0035 54.6714Q14.0035 54.4527 13.8483 54.3116Q13.6931 54.1705 13.4355 54.1705H12.5995V55.2535ZM16.2648 56.4283Q16.2648 56.46 16.2437 56.4794Q16.2225 56.4988 16.1943 56.4988H14.8643Q14.8361 56.4988 14.8149 56.4777Q14.7937 56.4565 14.7937 56.4283V54.0999Q14.7937 54.0717 14.8149 54.0506Q14.8361 54.0294 14.8643 54.0294H16.1943Q16.2225 54.0294 16.2437 54.0506Q16.2648 54.0717 16.2648 54.0999Q16.2648 54.1317 16.2437 54.1511Q16.2225 54.1705 16.1943 54.1705H14.9419V55.1547H16.0355Q16.0637 55.1547 16.0849 55.1759Q16.1061 55.1971 16.1061 55.2253Q16.1061 55.2571 16.0849 55.2765Q16.0637 55.2959 16.0355 55.2959H14.9419V56.3577H16.1943Q16.2225 56.3577 16.2437 56.3789Q16.2648 56.4001 16.2648 56.4283ZM16.5858 56.1637Q16.5647 56.1425 16.5647 56.1108Q16.5647 56.0826 16.5894 56.0561Q16.6141 56.0296 16.6423 56.0296Q16.674 56.0296 16.7023 56.0614Q16.8398 56.2237 17.0286 56.3083Q17.2173 56.393 17.4255 56.393Q17.6971 56.393 17.8735 56.2625Q18.0499 56.1319 18.0499 55.9167Q18.0463 55.7474 17.9582 55.6381Q17.87 55.5287 17.7412 55.4634Q17.6124 55.3982 17.3902 55.317Q17.1468 55.2253 17.0109 55.1547Q16.8751 55.0842 16.7781 54.9537Q16.6811 54.8231 16.6811 54.6115Q16.6811 54.4386 16.7763 54.2975Q16.8716 54.1564 17.048 54.0752Q17.2244 53.9941 17.4572 53.9941Q17.6653 53.9941 17.8523 54.07Q18.0393 54.1458 18.1487 54.2834Q18.1839 54.3328 18.1839 54.3575Q18.1839 54.3857 18.1575 54.4086Q18.131 54.4316 18.0993 54.4316Q18.071 54.4316 18.0534 54.4104Q17.9546 54.2834 17.7994 54.2093Q17.6442 54.1352 17.4572 54.1352Q17.1891 54.1352 17.0109 54.2622Q16.8328 54.3892 16.8328 54.6079Q16.8328 54.7596 16.9192 54.8655Q17.0057 54.9713 17.1362 55.0366Q17.2667 55.1018 17.4607 55.1724Q17.7077 55.2606 17.8523 55.3347Q17.997 55.4087 18.0993 55.5499Q18.2016 55.691 18.2016 55.9238Q18.2016 56.0861 18.1063 56.2272Q18.0111 56.3683 17.8329 56.4512Q17.6548 56.5341 17.4255 56.5341Q17.1644 56.5341 16.9704 56.4442Q16.7763 56.3542 16.5858 56.1637Z" style="stroke:#000000;stroke-width:0.25;stroke-linecap:round;stroke-linejoin:bevel" />
        <path d="M 6.24,75.00 L 24.24,75.00 z " style="stroke:#000000;stroke-width:0.25;stroke-linecap:round;stroke-linejoin:bevel;stroke-dasharray:none" />
        <path d="M13.0016 68.0404Q13.0016 68.0687 12.9875 68.0863Q12.9663 68.1145 12.9346 68.1145Q12.9205 68.1145 12.8923 68.1004Q12.5642 67.8782 12.1973 67.8782Q11.901 67.8782 11.6523 68.0246Q11.4035 68.171 11.2589 68.4303Q11.1143 68.6896 11.1143 69.0141Q11.1143 69.3387 11.2589 69.598Q11.4035 69.8573 11.6523 70.0037Q11.901 70.1501 12.1973 70.1501Q12.5677 70.1501 12.8887 69.9313Q12.9064 69.9172 12.9311 69.9172Q12.9663 69.9172 12.9875 69.9454Q13.0016 69.9631 13.0016 69.9878Q13.0016 70.0231 12.9734 70.0442Q12.8358 70.143 12.6189 70.2136Q12.4019 70.2841 12.1973 70.2841Q11.8622 70.2841 11.5799 70.1183Q11.2977 69.9525 11.1319 69.6615Q10.9661 69.3704 10.9661 69.0141Q10.9661 68.6578 11.1319 68.3668Q11.2977 68.0757 11.5799 67.9099Q11.8622 67.7441 12.1973 67.7441Q12.409 67.7441 12.6083 67.8076Q12.8076 67.8711 12.9699 67.984Q13.0016 68.0087 13.0016 68.0404ZM15.2912 70.1818Q15.2912 70.2136 15.27 70.2312Q15.2488 70.2488 15.2171 70.2488Q15.1924 70.2488 15.173 70.2365Q15.1536 70.2241 15.1465 70.203L14.8502 69.4763L14.8537 69.4833H13.6719L13.3862 70.203Q13.3685 70.2488 13.3227 70.2488Q13.2909 70.2488 13.2715 70.2312Q13.2521 70.2136 13.2486 70.1889Q13.245 70.1748 13.2521 70.1536L14.2011 67.8182Q14.2117 67.79 14.2275 67.7812Q14.2434 67.7723 14.2681 67.7723Q14.321 67.7723 14.3387 67.8182L15.2876 70.1536Q15.2912 70.1642 15.2912 70.1818ZM13.7283 69.3422H14.7973L14.2575 68.0122ZM15.5593 69.9137Q15.5381 69.8925 15.5381 69.8608Q15.5381 69.8326 15.5628 69.8061Q15.5875 69.7796 15.6157 69.7796Q15.6475 69.7796 15.6757 69.8114Q15.8133 69.9737 16.002 70.0583Q16.1907 70.143 16.3989 70.143Q16.6705 70.143 16.8469 70.0125Q17.0233 69.8819 17.0233 69.6668Q17.0198 69.4974 16.9316 69.3881Q16.8434 69.2787 16.7146 69.2134Q16.5858 69.1482 16.3636 69.067Q16.1202 68.9753 15.9844 68.9048Q15.8485 68.8342 15.7515 68.7037Q15.6545 68.5731 15.6545 68.3615Q15.6545 68.1886 15.7498 68.0475Q15.845 67.9064 16.0214 67.8253Q16.1978 67.7441 16.4306 67.7441Q16.6388 67.7441 16.8257 67.82Q17.0127 67.8958 17.1221 68.0334Q17.1573 68.0828 17.1573 68.1075Q17.1573 68.1357 17.1309 68.1586Q17.1044 68.1816 17.0727 68.1816Q17.0445 68.1816 17.0268 68.1604Q16.928 68.0334 16.7728 67.9593Q16.6176 67.8852 16.4306 67.8852Q16.1625 67.8852 15.9844 68.0122Q15.8062 68.1392 15.8062 68.3579Q15.8062 68.5096 15.8926 68.6155Q15.9791 68.7213 16.1096 68.7866Q16.2401 68.8518 16.4342 68.9224Q16.6811 69.0106 16.8257 69.0847Q16.9704 69.1587 17.0727 69.2999Q17.175 69.441 17.175 69.6738Q17.175 69.8361 17.0797 69.9772Q16.9845 70.1183 16.8063 70.2012Q16.6282 70.2841 16.3989 70.2841Q16.1378 70.2841 15.9438 70.1942Q15.7498 70.1042 15.5593 69.9137ZM19.5668 68.0404Q19.5668 68.0687 19.5527 68.0863Q19.5315 68.1145 19.4998 68.1145Q19.4857 68.1145 19.4575 68.1004Q19.1294 67.8782 18.7625 67.8782Q18.4662 67.8782 18.2174 68.0246Q17.9687 68.171 17.8241 68.4303Q17.6795 68.6896 17.6795 69.0141Q17.6795 69.3387 17.8241 69.598Q17.9687 69.8573 18.2174 70.0037Q18.4662 70.1501 18.7625 70.1501Q19.1329 70.1501 19.4539 69.9313Q19.4716 69.9172 19.4963 69.9172Q19.5315 69.9172 19.5527 69.9454Q19.5668 69.9631 19.5668 69.9878Q19.5668 70.0231 19.5386 70.0442Q19.401 70.143 19.1841 70.2136Q18.9671 70.2841 18.7625 70.2841Q18.4273 70.2841 18.1451 70.1183Q17.8629 69.9525 17.6971 69.6615Q17.5313 69.3704 17.5313 69.0141Q17.5313 68.6578 17.6971 68.3668Q17.8629 68.0757 18.1451 67.9099Q18.4273 67.7441 18.7625 67.7441Q18.9742 67.7441 19.1735 67.8076Q19.3728 67.8711 19.5351 67.984Q19.5668 68.0087 19.5668 68.0404Z" style="stroke:#000000;stroke-width:0.25;stroke-linecap:round;stroke-linejoin:bevel" />
        <path d="M 6.24,20.00 L 24.24,20.00 z " style="stroke:#000000;stroke-width:0.25;stroke-linecap:round;stroke-linejoin:bevel;stroke-dasharray:none" />
        <path d="M8.45961 14.9137Q8.43844 14.8925 8.43844 14.8608Q8.43844 14.8326 8.46314 14.8061Q8.48783 14.7796 8.51606 14.7796Q8.54781 14.7796 8.57603 14.8114Q8.71361 14.9737 8.90235 15.0583Q9.09108 15.143 9.29922 15.143Q9.57086 15.143 9.74725 15.0125Q9.92364 14.8819 9.92364 14.6668Q9.92011 14.4974 9.83192 14.3881Q9.74372 14.2787 9.61496 14.2134Q9.48619 14.1482 9.26394 14.067Q9.02053 13.9753 8.88471 13.9047Q8.74889 13.8342 8.65188 13.7037Q8.55486 13.5731 8.55486 13.3615Q8.55486 13.1886 8.65011 13.0475Q8.74536 12.9064 8.92175 12.8253Q9.09814 12.7441 9.33097 12.7441Q9.53911 12.7441 9.72608 12.82Q9.91306 12.8958 10.0224 13.0334Q10.0577 13.0828 10.0577 13.1075Q10.0577 13.1357 10.0312 13.1586Q10.0048 13.1816 9.97303 13.1816Q9.94481 13.1816 9.92717 13.1604Q9.82839 13.0334 9.67317 12.9593Q9.51794 12.8852 9.33097 12.8852Q9.06286 12.8852 8.88471 13.0122Q8.70656 13.1392 8.70656 13.3579Q8.70656 13.5096 8.79299 13.6155Q8.87942 13.7213 9.00994 13.7866Q9.14047 13.8518 9.3345 13.9224Q9.58144 14.0106 9.72608 14.0847Q9.87072 14.1588 9.97303 14.2999Q10.0753 14.441 10.0753 14.6738Q10.0753 14.8361 9.98008 14.9772Q9.88483 15.1183 9.70668 15.2012Q9.52853 15.2841 9.29922 15.2841Q9.03817 15.2841 8.84414 15.1942Q8.65011 15.1042 8.45961 14.9137ZM11.6099 15.2841Q11.2677 15.2841 10.9996 15.1236Q10.7315 14.9631 10.5816 14.6738Q10.4316 14.3845 10.4316 14.0141Q10.4316 13.6437 10.5816 13.3544Q10.7315 13.0651 10.9996 12.9046Q11.2677 12.7441 11.6099 12.7441Q11.9521 12.7441 12.2202 12.9046Q12.4883 13.0651 12.6383 13.3544Q12.7882 13.6437 12.7882 14.0141Q12.7882 14.3845 12.6383 14.6738Q12.4883 14.9631 12.2202 15.1236Q11.9521 15.2841 11.6099 15.2841ZM11.6099 12.8852Q11.3101 12.8852 11.0755 13.0263Q10.8409 13.1674 10.7103 13.425Q10.5798 13.6825 10.5798 14.0141Q10.5798 14.3457 10.7103 14.6033Q10.8409 14.8608 11.0755 15.0019Q11.3101 15.143 11.6099 15.143Q11.9098 15.143 12.1444 15.0019Q12.379 14.8608 12.5095 14.6033Q12.64 14.3457 12.64 14.0141Q12.64 13.6825 12.5095 13.425Q12.379 13.1674 12.1444 13.0263Q11.9098 12.8852 11.6099 12.8852ZM15.1342 12.8499V14.3739Q15.1342 14.6209 15.0107 14.829Q14.8872 15.0372 14.6791 15.1606Q14.4709 15.2841 14.2275 15.2841Q13.9806 15.2841 13.7724 15.1606Q13.5643 15.0372 13.4408 14.829Q13.3174 14.6209 13.3174 14.3739V12.8499Q13.3174 12.8182 13.3385 12.7988Q13.3597 12.7794 13.3914 12.7794Q13.4232 12.7794 13.4444 12.8006Q13.4655 12.8217 13.4655 12.8499V14.3739Q13.4655 14.5821 13.5678 14.7585Q13.6701 14.9349 13.8448 15.0389Q14.0194 15.143 14.2275 15.143Q14.4357 15.143 14.6103 15.0389Q14.7849 14.9349 14.889 14.7585Q14.9931 14.5821 14.9931 14.3739V12.8499Q14.9931 12.8217 15.0125 12.8006Q15.0319 12.7794 15.0636 12.7794Q15.0954 12.7794 15.1148 12.8006Q15.1342 12.8217 15.1342 12.8499ZM17.6354 15.1747Q17.6354 15.2065 17.616 15.2259Q17.5966 15.2453 17.5683 15.2453Q17.5472 15.2453 17.5366 15.2383Q17.4413 15.1853 17.3849 15.0601Q17.3284 14.9349 17.3284 14.6491Q17.3284 14.3598 17.1732 14.2522Q17.018 14.1446 16.8134 14.1446H15.9879V15.1783Q15.9879 15.2065 15.9667 15.2277Q15.9456 15.2488 15.9138 15.2488Q15.8821 15.2488 15.8609 15.2277Q15.8397 15.2065 15.8397 15.1783V12.8499Q15.8397 12.8217 15.8609 12.8006Q15.8821 12.7794 15.9103 12.7794H16.8416Q17.0462 12.7794 17.205 12.8623Q17.3637 12.9452 17.4519 13.0898Q17.5401 13.2345 17.5401 13.4179Q17.5401 13.6543 17.4149 13.8236Q17.2896 13.9929 17.0886 14.0529Q17.2579 14.1058 17.3673 14.2628Q17.4766 14.4198 17.4766 14.6491Q17.4766 14.8855 17.5066 14.979Q17.5366 15.0724 17.5966 15.1113Q17.6354 15.1359 17.6354 15.1747ZM16.8593 14.0035Q17.0815 13.9824 17.2367 13.8271Q17.3919 13.6719 17.3919 13.4214Q17.3919 13.2027 17.2367 13.0616Q17.0815 12.9205 16.824 12.9205H15.9879V14.0035ZM20.0413 13.0404Q20.0413 13.0687 20.0272 13.0863Q20.006 13.1145 19.9743 13.1145Q19.9602 13.1145 19.9319 13.1004Q19.6039 12.8782 19.237 12.8782Q18.9406 12.8782 18.6919 13.0246Q18.4432 13.171 18.2986 13.4303Q18.1539 13.6896 18.1539 14.0141Q18.1539 14.3387 18.2986 14.598Q18.4432 14.8573 18.6919 15.0037Q18.9406 15.1501 19.237 15.1501Q19.6074 15.1501 19.9284 14.9313Q19.9461 14.9172 19.9708 14.9172Q20.006 14.9172 20.0272 14.9454Q20.0413 14.9631 20.0413 14.9878Q20.0413 15.0231 20.0131 15.0442Q19.8755 15.143 19.6585 15.2136Q19.4416 15.2841 19.237 15.2841Q18.9018 15.2841 18.6196 15.1183Q18.3374 14.9525 18.1716 14.6615Q18.0058 14.3704 18.0058 14.0141Q18.0058 13.6578 18.1716 13.3668Q18.3374 13.0757 18.6196 12.9099Q18.9018 12.7441 19.237 12.7441Q19.4486 12.7441 19.648 12.8076Q19.8473 12.8711 20.0096 12.984Q20.0413 13.0087 20.0413 13.0404ZM21.9886 15.1783Q21.9886 15.21 21.9675 15.2294Q21.9463 15.2488 21.9181 15.2488H20.5881Q20.5599 15.2488 20.5387 15.2277Q20.5176 15.2065 20.5176 15.1783V12.8499Q20.5176 12.8217 20.5387 12.8006Q20.5599 12.7794 20.5881 12.7794H21.9181Q21.9463 12.7794 21.9675 12.8006Q21.9886 12.8217 21.9886 12.8499Q21.9886 12.8817 21.9675 12.9011Q21.9463 12.9205 21.9181 12.9205H20.6657V13.9047H21.7593Q21.7876 13.9047 21.8087 13.9259Q21.8299 13.9471 21.8299 13.9753Q21.8299 14.0071 21.8087 14.0265Q21.7876 14.0459 21.7593 14.0459H20.6657V15.1077H21.9181Q21.9463 15.1077 21.9675 15.1289Q21.9886 15.1501 21.9886 15.1783Z" style="stroke:#000000;stroke-width:0.25;stroke-linecap:round;stroke-linejoin:bevel" />
        <path d="M 15.24,93.00 L 15.24,103.00 " style="stroke:#000000;stroke-width:0.25;stroke-linecap:round;stroke-linejoin:bevel;stroke-dasharray:none" fill="none" />
        <path d="M12.9275 87.7841Q12.5853 87.7841 12.3172 87.6236Q12.0491 87.4631 11.8992 87.1738Q11.7493 86.8845 11.7493 86.5141Q11.7493 86.1437 11.8992 85.8544Q12.0491 85.5651 12.3172 85.4046Q12.5853 85.2441 12.9275 85.2441Q13.2697 85.2441 13.5378 85.4046Q13.806 85.5651 13.9559 85.8544Q14.1058 86.1437 14.1058 86.5141Q14.1058 86.8845 13.9559 87.1738Q13.806 87.4631 13.5378 87.6236Q13.2697 87.7841 12.9275 87.7841ZM12.9275 85.3852Q12.6277 85.3852 12.3931 85.5263Q12.1585 85.6674 12.028 85.925Q11.8974 86.1825 11.8974 86.5141Q11.8974 86.8457 12.028 87.1033Q12.1585 87.3608 12.3931 87.5019Q12.6277 87.643 12.9275 87.643Q13.2274 87.643 13.462 87.5019Q13.6966 87.3608 13.8271 87.1033Q13.9577 86.8457 13.9577 86.5141Q13.9577 86.1825 13.8271 85.925Q13.6966 85.6674 13.462 85.5263Q13.2274 85.3852 12.9275 85.3852ZM16.4518 85.3499V86.8739Q16.4518 87.1209 16.3283 87.329Q16.2048 87.5372 15.9967 87.6606Q15.7886 87.7841 15.5452 87.7841Q15.2982 87.7841 15.0901 87.6606Q14.8819 87.5372 14.7585 87.329Q14.635 87.1209 14.635 86.8739V85.3499Q14.635 85.3182 14.6562 85.2988Q14.6773 85.2794 14.7091 85.2794Q14.7408 85.2794 14.762 85.3006Q14.7832 85.3217 14.7832 85.3499V86.8739Q14.7832 87.0821 14.8855 87.2585Q14.9878 87.4349 15.1624 87.5389Q15.337 87.643 15.5452 87.643Q15.7533 87.643 15.9279 87.5389Q16.1025 87.4349 16.2066 87.2585Q16.3107 87.0821 16.3107 86.8739V85.3499Q16.3107 85.3217 16.3301 85.3006Q16.3495 85.2794 16.3812 85.2794Q16.413 85.2794 16.4324 85.3006Q16.4518 85.3217 16.4518 85.3499ZM18.7837 85.3464Q18.7837 85.3782 18.7642 85.3958Q18.7448 85.4134 18.7131 85.4134H17.9264V87.6783Q17.9264 87.7065 17.9052 87.7277Q17.8841 87.7488 17.8558 87.7488Q17.8241 87.7488 17.8047 87.7277Q17.7853 87.7065 17.7853 87.6783V85.4134H16.9986Q16.9704 85.4134 16.9492 85.394Q16.928 85.3746 16.928 85.3464Q16.928 85.3182 16.9492 85.2988Q16.9704 85.2794 16.9986 85.2794H18.7131Q18.7413 85.2794 18.7625 85.2988Q18.7837 85.3182 18.7837 85.3464Z" style="stroke:#000000;stroke-width:0.25;stroke-linecap:round;stroke-linejoin:bevel" />
    </g>
</svg>
