<?xml version="1.0" encoding="utf-8"?>
<svg xmlns="http://www.w3.org/2000/svg" width="40.64mm" height="128.50mm" viewBox="0 0 40.64 128.50">
    <g id="PanelLayer">
        <rect id="border_rect" width="40.64" height="128.5" x="0" y="0" style="display:inline;fill:#4f8df2;fill-opacity:1;stroke:none;" />
        <path id="sapphire_gemstone" d="m 23.035,122.900 q 0,0.34175 -0.242534,0.63114 -0.0441,0.0524 -0.20395,0.21497 -0.187413,0.19017 -0.785481,0.81304 l -1.444183,1.51309 q -0.01929,0.003 -0.0441,0.003 -0.02756,0 -0.04134,-0.003 -0.08268,-0.0827 -0.647678,-0.67524 -0.468532,-0.47404 -0.934309,-0.94809 -0.556727,-0.56775 -0.89848,-0.98116 -0.132292,-0.15985 -0.168121,-0.29766 -0.02756,-0.10197 -0.02756,-0.34175 0,-0.11024 0.07166,-0.28939 0.06614,-0.16536 0.140559,-0.26458 0.118512,-0.1571 0.42168,-0.42444 0.283875,-0.2508 0.474044,-0.37482 0.272852,-0.17915 0.818555,-0.36656 0.09646,-0.0331 0.110243,-0.0331 h 1.3615 q 0.01102,0 0.104731,0.0331 0.567751,0.20119 0.824066,0.36656 0.165365,0.10473 0.474045,0.37758 0.322461,0.28388 0.421679,0.42168 0.214974,0.2949 0.214974,0.62563 z m -0.16812,-0.27285 q -0.03307,-0.10749 -0.135048,-0.30868 -0.07166,-0.0937 -0.209462,-0.19844 -0.118511,-0.0854 -0.234266,-0.17088 0.245291,0.3638 0.578776,0.678 z m -0.573264,-0.52366 -0.358289,-0.44648 v 0.41065 z m 0.636653,0.75792 q 0,-0.0524 -0.341753,-0.39412 l 0.228754,0.7028 h 0.04961 q 0.06339,-0.21773 0.06339,-0.30868 z m -0.23151,0.27285 -0.316948,-0.90399 -0.410655,-0.0634 -0.159853,0.61461 z m 0.0028,0.15434 -0.771701,-0.3197 h -0.03032 l 0.344509,0.60634 q 0.07993,-0.003 0.234266,-0.0469 0.02481,-0.0138 0.223242,-0.23978 z m -0.857139,-1.05006 -0.719335,0.28388 0.60358,0.22599 z m 0,-0.16261 v -0.51538 l -0.917773,-0.38034 h -1.223697 l -0.917772,0.38034 v 0.51538 l 0.89848,0.4079 h 1.254014 z m 0.573264,1.53789 q -0.0689,0.011 -0.198438,0.0524 -0.08544,0.0551 -0.259071,0.16261 0.01929,0 0.06339,0.003 0.04134,0 0.06339,0 0.118511,0 0.190169,-0.0689 0.07166,-0.0717 0.14056,-0.14883 z m -0.289388,0.003 -0.347266,-0.63114 -0.363801,0.87918 q 0.0248,-0.0165 0.06615,-0.0165 0.03032,0 0.08544,0.011 0.05788,0.008 0.08819,0.008 0.04961,0 0.228754,-0.10749 0.228754,-0.1378 0.242535,-0.14331 z m -0.440972,-0.74139 -0.683507,-0.2756 -0.592556,0.54845 0.903993,0.65595 z m -0.854383,-0.28387 h -1.036284 l 0.523654,0.47404 z m 0.749652,1.36701 q -0.228754,-0.0303 -0.228754,-0.0303 -0.03583,0 -0.272851,0.0937 l 0.190169,0.0193 q 0.01102,0 0.311436,-0.0827 z m -0.388606,-0.0882 -0.843359,-0.61185 v 0.67524 l 0.471289,0.0827 z m 0.854383,0.0496 q -0.09922,0.006 -0.2949,0.0386 -0.01102,0.003 -0.377583,0.17639 -0.129535,0.34726 -0.380338,1.0418 z m -2.543857,-1.39733 -0.719335,-0.28388 0.124023,0.51814 z m -0.802018,-0.45476 v -0.41065 l -0.366557,0.44648 z m 1.515841,1.07212 -0.592556,-0.54019 -0.683506,0.2756 0.380338,0.9288 z m 0.369314,0.94257 q -0.03307,-0.003 -0.135047,-0.0248 -0.08544,-0.0165 -0.137804,-0.0165 -0.05237,0 -0.137804,0.0165 -0.101975,0.0221 -0.135047,0.0248 0.264583,0.0469 0.272851,0.0469 0.0083,0 0.272851,-0.0469 z m -0.30868,-0.1378 v -0.68626 l -0.843359,0.61185 0.37207,0.14607 z m 0.950846,0.20671 -0.396875,-0.0551 -0.479557,0.14056 v 1.27607 z m -2.888366,-2.20211 q -0.118512,0.0854 -0.234267,0.17364 -0.146072,0.10748 -0.209461,0.19568 -0.0441,0.10473 -0.135048,0.31419 0.369314,-0.3638 0.578776,-0.68351 z m 0.476801,0.83234 -0.159853,-0.61461 -0.410655,0.0634 -0.316948,0.90399 z m 0.394118,1.08313 -0.363802,-0.87918 -0.355533,0.63114 q 0.43546,0.2508 0.451996,0.2508 0.09095,0 0.267339,-0.003 z m 1.821765,0.82958 q -0.132291,0.21222 -0.405143,0.6339 -0.07717,0.10749 -0.220486,0.32797 -0.05788,0.10473 -0.05512,0.226 0.159852,-0.15158 0.432704,-0.49609 0.07717,-0.12954 0.140559,-0.339 0.05512,-0.17639 0.107486,-0.35278 z m -1.493792,-0.66146 -0.270095,-0.0882 -0.0083,-0.011 q -0.02481,0 -0.107487,0.011 -0.06615,0.006 -0.107487,0.006 0.272851,0.091 0.311436,0.091 0.02481,0 0.181901,-0.008 z m -0.810286,-1.06384 h -0.03032 l -0.7717,0.3197 q 0.06615,0.0965 0.223242,0.23978 0.07717,0.0138 0.234266,0.0469 z m -0.689018,-0.50161 q -0.341754,0.34727 -0.341754,0.39412 0,0.0799 0.06339,0.30868 h 0.04961 z m 2.235176,3.04547 v -1.27607 l -0.479557,-0.14056 -0.396875,0.0551 z m -1.606791,-1.6757 q -0.256315,-0.1819 -0.457509,-0.22324 0.06615,0.0772 0.20395,0.22324 z m 1.609547,2.04501 v -0.1378 l -0.683507,-1.05007 q 0.05237,0.17639 0.107487,0.35278 0.06339,0.20946 0.14056,0.339 0.0689,0.11851 0.20395,0.25907 0.115755,0.11851 0.23151,0.23702 z m -0.644921,-0.70555 q -0.115756,-0.32798 -0.380339,-1.0418 -0.135047,-0.0662 -0.272851,-0.12954 -0.159852,-0.0716 -0.289388,-0.0716 -0.05237,0 -0.110243,-0.0138 z" style="stroke-width:0;fill:#0000ff;stroke:#2e2114;stroke-linecap:square;stroke-opacity:1" />
        <path id="model_name" d="M10.4828 7.35962Q10.4828 7.41395 10.4517 7.45276Q10.1956 7.79425 9.81534 8.01156Q9.43504 8.22887 9.00042 8.22887Q8.41834 8.22887 7.96819 7.98051Q7.51805 7.73216 7.26581 7.27425Q7.01358 6.81635 7.01358 6.21098Q7.01358 5.59009 7.25805 5.12054Q7.50253 4.651 7.9061 4.40264Q8.30968 4.15429 8.76759 4.15429Q9.22549 4.15429 9.61743 4.35219Q10.0094 4.5501 10.2577 4.94592Q10.5061 5.34174 10.5216 5.92382Q10.5216 5.98591 10.475 6.03636Q10.4285 6.0868 10.3664 6.0868H7.31626V6.1877Q7.31626 6.66889 7.51029 7.06858Q7.70431 7.46828 8.08461 7.70111Q8.4649 7.93395 9.00042 7.93395Q9.37295 7.93395 9.7028 7.75156Q10.0326 7.56917 10.2189 7.28977Q10.2732 7.21992 10.3509 7.21992Q10.4052 7.21992 10.444 7.26261Q10.4828 7.3053 10.4828 7.35962ZM7.3473 5.79188H10.2034V5.72203Q10.1646 5.32621 9.95116 5.04293Q9.73773 4.75965 9.4234 4.61219Q9.10908 4.46473 8.76759 4.46473Q8.48043 4.46473 8.18162 4.61607Q7.88282 4.76741 7.65387 5.06622Q7.42491 5.36502 7.3473 5.79188ZM17.3048 5.73755V7.99604Q17.3048 8.05812 17.2621 8.10469Q17.2194 8.15126 17.1496 8.15126Q17.0797 8.15126 17.0371 8.10469Q16.9944 8.05812 16.9944 7.99604V5.7686Q16.9944 5.21756 16.7266 4.87219Q16.4588 4.52682 15.9156 4.52682Q15.5818 4.52682 15.2598 4.69756Q14.9377 4.86831 14.7359 5.15159Q14.5341 5.43487 14.5341 5.7686V7.99604Q14.5341 8.05812 14.4914 8.10469Q14.4487 8.15126 14.3789 8.15126Q14.309 8.15126 14.2663 8.10469Q14.2236 8.05812 14.2236 7.99604V5.72979Q14.2236 5.19427 13.9675 4.86055Q13.7114 4.52682 13.1914 4.52682Q12.8655 4.52682 12.555 4.6898Q12.2446 4.85279 12.0467 5.13219Q11.8487 5.41159 11.8487 5.72979V7.99604Q11.8487 8.05812 11.8022 8.10469Q11.7556 8.15126 11.6935 8.15126Q11.6237 8.15126 11.581 8.10469Q11.5383 8.05812 11.5383 7.99604V4.43369Q11.5383 4.3716 11.5849 4.32503Q11.6314 4.27846 11.6935 4.27846Q11.7634 4.27846 11.8061 4.32503Q11.8487 4.3716 11.8487 4.43369V4.97696Q12.0738 4.651 12.4347 4.44145Q12.7956 4.2319 13.1914 4.2319Q13.6183 4.2319 13.952 4.44921Q14.2857 4.66652 14.441 5.08562Q14.6039 4.72861 15.058 4.48025Q15.512 4.2319 15.9466 4.2319Q16.6141 4.2319 16.9594 4.651Q17.3048 5.0701 17.3048 5.73755ZM22.1943 6.21098Q22.1943 6.76978 21.9576 7.22381Q21.7209 7.67783 21.3095 7.93783Q20.8982 8.19782 20.3937 8.19782Q19.9281 8.19782 19.54 7.96499Q19.152 7.73216 18.9036 7.3053V9.54826Q18.9036 9.61035 18.8609 9.65691Q18.8182 9.70348 18.7484 9.70348Q18.6863 9.70348 18.6397 9.65691Q18.5932 9.61035 18.5932 9.54826V4.38712Q18.5932 4.32503 18.6358 4.27846Q18.6785 4.2319 18.7484 4.2319Q18.8182 4.2319 18.8609 4.27846Q18.9036 4.32503 18.9036 4.38712V5.10114Q19.1364 4.65876 19.5245 4.44533Q19.9125 4.2319 20.3937 4.2319Q20.906 4.2319 21.3173 4.48801Q21.7286 4.74413 21.9615 5.19428Q22.1943 5.64442 22.1943 6.21098ZM21.8839 6.21098Q21.8839 5.72979 21.686 5.34562Q21.488 4.96144 21.1466 4.74413Q20.8051 4.52682 20.3782 4.52682Q19.9436 4.52682 19.5982 4.74025Q19.2528 4.95368 19.0627 5.33786Q18.8726 5.72203 18.8726 6.21098Q18.8726 6.69993 19.0627 7.08411Q19.2528 7.46828 19.5982 7.68559Q19.9436 7.9029 20.3782 7.9029Q20.8051 7.9029 21.1466 7.68559Q21.488 7.46828 21.686 7.08022Q21.8839 6.69217 21.8839 6.21098ZM26.5405 4.43369V7.99604Q26.5405 8.05812 26.494 8.10469Q26.4474 8.15126 26.3853 8.15126Q26.3155 8.15126 26.2728 8.10469Q26.2301 8.05812 26.2301 7.99604V7.29754Q26.0361 7.69335 25.6325 7.96111Q25.2289 8.22887 24.74 8.22887Q24.2277 8.22887 23.8164 7.96111Q23.405 7.69335 23.1722 7.22381Q22.9394 6.75426 22.9394 6.17217Q22.9394 5.59785 23.1761 5.13607Q23.4128 4.67428 23.8241 4.41428Q24.2355 4.15429 24.74 4.15429Q25.2444 4.15429 25.648 4.41816Q26.0516 4.68204 26.2301 5.12443V4.43369Q26.2301 4.3716 26.2728 4.32503Q26.3155 4.27846 26.3853 4.27846Q26.4552 4.27846 26.4978 4.32503Q26.5405 4.3716 26.5405 4.43369ZM26.2611 6.17217Q26.2611 5.69875 26.0671 5.30293Q25.8731 4.90711 25.5277 4.67816Q25.1823 4.44921 24.7555 4.44921Q24.3286 4.44921 23.9832 4.6704Q23.6379 4.89159 23.4438 5.28353Q23.2498 5.67546 23.2498 6.17217Q23.2498 6.66889 23.4438 7.07246Q23.6379 7.47604 23.9794 7.70499Q24.3209 7.93395 24.7555 7.93395Q25.1823 7.93395 25.5277 7.70499Q25.8731 7.47604 26.0671 7.07246Q26.2611 6.66889 26.2611 6.17217ZM29.4199 4.39488Q29.4199 4.45697 29.3772 4.49966Q29.3345 4.54234 29.2724 4.54234H28.4187V7.3053Q28.4187 7.64679 28.539 7.75932Q28.6593 7.87186 28.8456 7.87186Q28.8766 7.87186 28.9348 7.85634Q28.993 7.84081 29.0318 7.84081Q29.0862 7.84081 29.125 7.8835Q29.1638 7.92619 29.1638 7.98051Q29.1638 8.05036 29.0707 8.10081Q28.9775 8.15126 28.8533 8.15126Q28.6593 8.15126 28.5274 8.12409Q28.3954 8.09693 28.2519 7.91454Q28.1083 7.73216 28.1083 7.32082V4.54234H27.4719Q27.4175 4.54234 27.371 4.49578Q27.3244 4.44921 27.3244 4.39488Q27.3244 4.33279 27.3671 4.29011Q27.4098 4.24742 27.4719 4.24742H28.1083V3.26176Q28.1083 3.19967 28.1548 3.1531Q28.2014 3.10654 28.2635 3.10654Q28.3333 3.10654 28.376 3.1531Q28.4187 3.19967 28.4187 3.26176V4.24742H29.2724Q29.3268 4.24742 29.3733 4.29399Q29.4199 4.34055 29.4199 4.39488ZM33.3548 5.72979V7.99604Q33.3548 8.05812 33.3082 8.10469Q33.2617 8.15126 33.1996 8.15126Q33.1297 8.15126 33.087 8.10469Q33.0443 8.05812 33.0443 7.99604V5.72979Q33.0443 5.19427 32.7805 4.86055Q32.5166 4.52682 31.9733 4.52682Q31.6396 4.52682 31.3175 4.6898Q30.9954 4.85279 30.7936 5.13219Q30.5918 5.41159 30.5918 5.72979V7.99604Q30.5918 8.05812 30.5453 8.10469Q30.4987 8.15126 30.4366 8.15126Q30.3668 8.15126 30.3241 8.10469Q30.2814 8.05812 30.2814 7.99604V2.56326Q30.2814 2.50117 30.328 2.4546Q30.3745 2.40804 30.4366 2.40804Q30.5065 2.40804 30.5491 2.4546Q30.5918 2.50117 30.5918 2.56326V5.01577Q30.8091 4.67428 31.1933 4.45309Q31.5775 4.2319 31.9733 4.2319Q32.6408 4.2319 32.9978 4.65488Q33.3548 5.07786 33.3548 5.72979Z" style="display:inline;stroke:#000000;stroke-width:0.35;stroke-linecap:round;stroke-linejoin:bevel" />
        <path d="M 20.32,93.00 L 20.32,103.00 " style="stroke:#000000;stroke-width:0.25;stroke-linecap:round;stroke-linejoin:bevel;stroke-dasharray:none" fill="none" />
        <path d="M19.0412 87.7488Q19.0059 87.7488 18.9865 87.7277Q18.9671 87.7065 18.9671 87.6748V85.3535Q18.9671 85.3217 18.9883 85.3006Q19.0094 85.2794 19.0412 85.2794Q19.0729 85.2794 19.0941 85.3006Q19.1153 85.3217 19.1153 85.3535V87.6748Q19.1117 87.7065 19.0906 87.7277Q19.0694 87.7488 19.0412 87.7488ZM21.6729 85.3464V87.6712Q21.6729 87.71 21.6517 87.7294Q21.6306 87.7488 21.5988 87.7488Q21.5635 87.7488 21.5424 87.7206L19.9549 85.551V87.6889Q19.9549 87.7136 19.9355 87.7312Q19.9161 87.7488 19.8878 87.7488Q19.8561 87.7488 19.8385 87.7312Q19.8208 87.7136 19.8208 87.6889V85.3499Q19.8208 85.3147 19.8402 85.297Q19.8596 85.2794 19.8843 85.2794Q19.9161 85.2794 19.9372 85.3041L21.5388 87.4878V85.3464Q21.5388 85.3182 21.5582 85.2988Q21.5777 85.2794 21.6059 85.2794Q21.6376 85.2794 21.6553 85.2988Q21.6729 85.3182 21.6729 85.3464Z" style="stroke:#000000;stroke-width:0.25;stroke-linecap:round;stroke-linejoin:bevel" />
        <path d="M14.6667 16.1654Q14.6667 16.1937 14.6526 16.2113Q14.6315 16.2395 14.5997 16.2395Q14.5856 16.2395 14.5574 16.2254Q14.2293 16.0032 13.8624 16.0032Q13.5661 16.0032 13.3174 16.1496Q13.0687 16.296 12.924 16.5553Q12.7794 16.8146 12.7794 17.1391Q12.7794 17.4637 12.924 17.723Q13.0687 17.9823 13.3174 18.1287Q13.5661 18.2751 13.8624 18.2751Q14.2328 18.2751 14.5538 18.0563Q14.5715 18.0422 14.5962 18.0422Q14.6315 18.0422 14.6526 18.0704Q14.6667 18.0881 14.6667 18.1128Q14.6667 18.1481 14.6385 18.1692Q14.5009 18.268 14.284 18.3386Q14.067 18.4091 13.8624 18.4091Q13.5273 18.4091 13.245 18.2433Q12.9628 18.0775 12.797 17.7865Q12.6312 17.4954 12.6312 17.1391Q12.6312 16.7828 12.797 16.4918Q12.9628 16.2007 13.245 16.0349Q13.5273 15.8691 13.8624 15.8691Q14.0741 15.8691 14.2734 15.9326Q14.4727 15.9961 14.635 16.109Q14.6667 16.1337 14.6667 16.1654ZM16.9563 18.3068Q16.9563 18.3386 16.9351 18.3562Q16.9139 18.3738 16.8822 18.3738Q16.8575 18.3738 16.8381 18.3615Q16.8187 18.3491 16.8116 18.328L16.5153 17.6013L16.5188 17.6083H15.337L15.0513 18.328Q15.0336 18.3738 14.9878 18.3738Q14.956 18.3738 14.9366 18.3562Q14.9172 18.3386 14.9137 18.3139Q14.9102 18.2997 14.9172 18.2786L15.8662 15.9432Q15.8768 15.915 15.8926 15.9062Q15.9085 15.8973 15.9332 15.8973Q15.9861 15.8973 16.0038 15.9432L16.9527 18.2786Q16.9563 18.2892 16.9563 18.3068ZM15.3935 17.4672H16.4624L15.9226 16.1372ZM17.2244 18.0387Q17.2032 18.0175 17.2032 17.9858Q17.2032 17.9576 17.2279 17.9311Q17.2526 17.9046 17.2808 17.9046Q17.3126 17.9046 17.3408 17.9364Q17.4784 18.0987 17.6671 18.1833Q17.8558 18.268 18.064 18.268Q18.3356 18.268 18.512 18.1375Q18.6884 18.0069 18.6884 17.7918Q18.6849 17.6224 18.5967 17.5131Q18.5085 17.4037 18.3797 17.3384Q18.251 17.2732 18.0287 17.192Q17.7853 17.1003 17.6495 17.0297Q17.5137 16.9592 17.4166 16.8287Q17.3196 16.6981 17.3196 16.4865Q17.3196 16.3136 17.4149 16.1725Q17.5101 16.0314 17.6865 15.9503Q17.8629 15.8691 18.0957 15.8691Q18.3039 15.8691 18.4908 15.945Q18.6778 16.0208 18.7872 16.1584Q18.8225 16.2078 18.8225 16.2325Q18.8225 16.2607 18.796 16.2836Q18.7695 16.3066 18.7378 16.3066Q18.7096 16.3066 18.6919 16.2854Q18.5932 16.1584 18.4379 16.0843Q18.2827 16.0102 18.0957 16.0102Q17.8276 16.0102 17.6495 16.1372Q17.4713 16.2642 17.4713 16.4829Q17.4713 16.6346 17.5578 16.7405Q17.6442 16.8463 17.7747 16.9116Q17.9052 16.9768 18.0993 17.0474Q18.3462 17.1356 18.4908 17.2097Q18.6355 17.2838 18.7378 17.4249Q18.8401 17.566 18.8401 17.7988Q18.8401 17.9611 18.7448 18.1022Q18.6496 18.2433 18.4714 18.3262Q18.2933 18.4091 18.064 18.4091Q17.8029 18.4091 17.6089 18.3192Q17.4149 18.2292 17.2244 18.0387ZM21.2319 16.1654Q21.2319 16.1937 21.2178 16.2113Q21.1967 16.2395 21.1649 16.2395Q21.1508 16.2395 21.1226 16.2254Q20.7945 16.0032 20.4276 16.0032Q20.1313 16.0032 19.8826 16.1496Q19.6338 16.296 19.4892 16.5553Q19.3446 16.8146 19.3446 17.1391Q19.3446 17.4637 19.4892 17.723Q19.6338 17.9823 19.8826 18.1287Q20.1313 18.2751 20.4276 18.2751Q20.798 18.2751 21.119 18.0563Q21.1367 18.0422 21.1614 18.0422Q21.1967 18.0422 21.2178 18.0704Q21.2319 18.0881 21.2319 18.1128Q21.2319 18.1481 21.2037 18.1692Q21.0661 18.268 20.8492 18.3386Q20.6322 18.4091 20.4276 18.4091Q20.0925 18.4091 19.8102 18.2433Q19.528 18.0775 19.3622 17.7865Q19.1964 17.4954 19.1964 17.1391Q19.1964 16.7828 19.3622 16.4918Q19.528 16.2007 19.8102 16.0349Q20.0925 15.8691 20.4276 15.8691Q20.6393 15.8691 20.8386 15.9326Q21.0379 15.9961 21.2002 16.109Q21.2319 16.1337 21.2319 16.1654ZM23.5215 18.3068Q23.5215 18.3386 23.5003 18.3562Q23.4791 18.3738 23.4474 18.3738Q23.4227 18.3738 23.4033 18.3615Q23.3839 18.3491 23.3768 18.328L23.0805 17.6013L23.084 17.6083H21.9022L21.6165 18.328Q21.5988 18.3738 21.553 18.3738Q21.5212 18.3738 21.5018 18.3562Q21.4824 18.3386 21.4789 18.3139Q21.4753 18.2997 21.4824 18.2786L22.4314 15.9432Q22.442 15.915 22.4578 15.9062Q22.4737 15.8973 22.4984 15.8973Q22.5513 15.8973 22.569 15.9432L23.5179 18.2786Q23.5215 18.2892 23.5215 18.3068ZM21.9587 17.4672H23.0276L22.4878 16.1372ZM26.0085 17.1391Q26.0085 17.4884 25.8974 17.7671Q25.7863 18.0458 25.557 18.2098Q25.3277 18.3738 24.9855 18.3738H24.0683Q24.04 18.3738 24.0189 18.3527Q23.9977 18.3315 23.9977 18.3033V15.9749Q23.9977 15.9467 24.0189 15.9256Q24.04 15.9044 24.0683 15.9044H24.9855Q25.3242 15.9044 25.5552 16.0737Q25.7863 16.2431 25.8974 16.5235Q26.0085 16.804 26.0085 17.1391ZM25.8604 17.1391Q25.8604 16.8392 25.7634 16.5905Q25.6663 16.3418 25.4635 16.1937Q25.2607 16.0455 24.9502 16.0455H24.1459V18.2327H24.9502Q25.4088 18.2327 25.6346 17.9311Q25.8604 17.6295 25.8604 17.1391ZM28.0088 18.3033Q28.0088 18.335 27.9876 18.3544Q27.9665 18.3738 27.9382 18.3738H26.6083Q26.58 18.3738 26.5589 18.3527Q26.5377 18.3315 26.5377 18.3033V15.9749Q26.5377 15.9467 26.5589 15.9256Q26.58 15.9044 26.6083 15.9044H27.9382Q27.9665 15.9044 27.9876 15.9256Q28.0088 15.9467 28.0088 15.9749Q28.0088 16.0067 27.9876 16.0261Q27.9665 16.0455 27.9382 16.0455H26.6859V17.0297H27.7795Q27.8077 17.0297 27.8289 17.0509Q27.85 17.0721 27.85 17.1003Q27.85 17.1321 27.8289 17.1515Q27.8077 17.1709 27.7795 17.1709H26.6859V18.2327H27.9382Q27.9665 18.2327 27.9876 18.2539Q28.0088 18.2751 28.0088 18.3033Z" style="stroke:#000000;stroke-width:0.25;stroke-linecap:round;stroke-linejoin:bevel" />
        <path d="M 20.32,26.32 L 15.32,37.33 z L 25.32,37.33 z " style="stroke:#000000;stroke-width:0.25;stroke-linecap:round;stroke-linejoin:bevel;stroke-dasharray:none" />
        <path d="M10.1606 50.0904Q10.1606 50.1187 10.1465 50.1363Q10.1253 50.1645 10.0936 50.1645Q10.0794 50.1645 10.0512 50.1504Q9.72314 49.9282 9.35625 49.9282Q9.05992 49.9282 8.81121 50.0746Q8.5625 50.221 8.41787 50.4803Q8.27323 50.7396 8.27323 51.0641Q8.27323 51.3887 8.41787 51.648Q8.5625 51.9072 8.81121 52.0537Q9.05992 52.2001 9.35625 52.2001Q9.72667 52.2001 10.0477 51.9813Q10.0653 51.9672 10.09 51.9672Q10.1253 51.9672 10.1465 51.9954Q10.1606 52.0131 10.1606 52.0378Q10.1606 52.0731 10.1324 52.0942Q9.99478 52.193 9.77782 52.2636Q9.56087 52.3341 9.35625 52.3341Q9.02112 52.3341 8.73889 52.1683Q8.45667 52.0025 8.29087 51.7115Q8.12506 51.4204 8.12506 51.0641Q8.12506 50.7078 8.29087 50.4168Q8.45667 50.1257 8.73889 49.9599Q9.02112 49.7941 9.35625 49.7941Q9.56792 49.7941 9.76724 49.8576Q9.96656 49.9211 10.1288 50.034Q10.1606 50.0587 10.1606 50.0904ZM12.4713 49.9035V52.2247Q12.4678 52.2565 12.4466 52.2777Q12.4254 52.2988 12.3972 52.2988Q12.3619 52.2988 12.3425 52.2777Q12.3231 52.2565 12.3231 52.2247V51.0994H10.785V52.2247Q10.7815 52.2565 10.7603 52.2777Q10.7391 52.2988 10.7109 52.2988Q10.6756 52.2988 10.6562 52.2777Q10.6368 52.2565 10.6368 52.2247V49.9035Q10.6368 49.8717 10.658 49.8506Q10.6792 49.8294 10.7109 49.8294Q10.7427 49.8294 10.7638 49.8506Q10.785 49.8717 10.785 49.9035V50.9583H12.3231V49.9035Q12.3231 49.8717 12.3443 49.8506Q12.3654 49.8294 12.3972 49.8294Q12.4289 49.8294 12.4501 49.8506Q12.4713 49.8717 12.4713 49.9035ZM14.9901 52.2318Q14.9901 52.2636 14.9689 52.2812Q14.9478 52.2988 14.916 52.2988Q14.8913 52.2988 14.8719 52.2865Q14.8525 52.2741 14.8455 52.253L14.5491 51.5262L14.5527 51.5333H13.3709L13.0851 52.253Q13.0675 52.2988 13.0216 52.2988Q12.9899 52.2988 12.9705 52.2812Q12.9511 52.2636 12.9475 52.2389Q12.944 52.2247 12.9511 52.2036L13.9 49.8682Q13.9106 49.84 13.9265 49.8312Q13.9424 49.8223 13.9671 49.8223Q14.02 49.8223 14.0376 49.8682L14.9866 52.2036Q14.9901 52.2142 14.9901 52.2318ZM13.4273 51.3922H14.4962L13.9565 50.0622ZM16.4683 52.3341Q16.1261 52.3341 15.8579 52.1736Q15.5898 52.0131 15.4399 51.7238Q15.29 51.4345 15.29 51.0641Q15.29 50.6937 15.4399 50.4044Q15.5898 50.1151 15.8579 49.9546Q16.1261 49.7941 16.4683 49.7941Q16.8104 49.7941 17.0786 49.9546Q17.3467 50.1151 17.4966 50.4044Q17.6465 50.6937 17.6465 51.0641Q17.6465 51.4345 17.4966 51.7238Q17.3467 52.0131 17.0786 52.1736Q16.8104 52.3341 16.4683 52.3341ZM16.4683 49.9352Q16.1684 49.9352 15.9338 50.0763Q15.6992 50.2174 15.5687 50.475Q15.4381 50.7325 15.4381 51.0641Q15.4381 51.3957 15.5687 51.6532Q15.6992 51.9108 15.9338 52.0519Q16.1684 52.193 16.4683 52.193Q16.7681 52.193 17.0027 52.0519Q17.2373 51.9108 17.3678 51.6532Q17.4984 51.3957 17.4984 51.0641Q17.4984 50.7325 17.3678 50.475Q17.2373 50.2174 17.0027 50.0763Q16.7681 49.9352 16.4683 49.9352ZM17.9676 51.9637Q17.9464 51.9425 17.9464 51.9108Q17.9464 51.8826 17.9711 51.8561Q17.9958 51.8296 18.024 51.8296Q18.0558 51.8296 18.084 51.8614Q18.2216 52.0237 18.4103 52.1083Q18.599 52.193 18.8072 52.193Q19.0788 52.193 19.2552 52.0625Q19.4316 51.9319 19.4316 51.7167Q19.4281 51.5474 19.3399 51.4381Q19.2517 51.3287 19.1229 51.2634Q18.9941 51.1982 18.7719 51.117Q18.5285 51.0253 18.3927 50.9547Q18.2568 50.8842 18.1598 50.7537Q18.0628 50.6231 18.0628 50.4115Q18.0628 50.2386 18.1581 50.0975Q18.2533 49.9564 18.4297 49.8752Q18.6061 49.7941 18.8389 49.7941Q19.0471 49.7941 19.234 49.87Q19.421 49.9458 19.5304 50.0834Q19.5656 50.1328 19.5656 50.1575Q19.5656 50.1857 19.5392 50.2086Q19.5127 50.2316 19.481 50.2316Q19.4528 50.2316 19.4351 50.2104Q19.3363 50.0834 19.1811 50.0093Q19.0259 49.9352 18.8389 49.9352Q18.5708 49.9352 18.3927 50.0622Q18.2145 50.1892 18.2145 50.4079Q18.2145 50.5596 18.3009 50.6655Q18.3874 50.7713 18.5179 50.8366Q18.6484 50.9018 18.8424 50.9724Q19.0894 51.0606 19.234 51.1347Q19.3787 51.2087 19.481 51.3499Q19.5833 51.491 19.5833 51.7238Q19.5833 51.8861 19.488 52.0272Q19.3928 52.1683 19.2146 52.2512Q19.0365 52.3341 18.8072 52.3341Q18.5461 52.3341 18.3521 52.2442Q18.1581 52.1542 17.9676 51.9637ZM21.8128 51.9637Q21.7917 51.9425 21.7917 51.9108Q21.7917 51.8826 21.8164 51.8561Q21.8411 51.8296 21.8693 51.8296Q21.901 51.8296 21.9293 51.8614Q22.0668 52.0237 22.2556 52.1083Q22.4443 52.193 22.6524 52.193Q22.9241 52.193 23.1005 52.0625Q23.2769 51.9319 23.2769 51.7167Q23.2733 51.5474 23.1851 51.4381Q23.0969 51.3287 22.9682 51.2634Q22.8394 51.1982 22.6172 51.117Q22.3738 51.0253 22.2379 50.9547Q22.1021 50.8842 22.0051 50.7537Q21.9081 50.6231 21.9081 50.4115Q21.9081 50.2386 22.0033 50.0975Q22.0986 49.9564 22.275 49.8752Q22.4514 49.7941 22.6842 49.7941Q22.8923 49.7941 23.0793 49.87Q23.2663 49.9458 23.3756 50.0834Q23.4109 50.1328 23.4109 50.1575Q23.4109 50.1857 23.3845 50.2086Q23.358 50.2316 23.3263 50.2316Q23.298 50.2316 23.2804 50.2104Q23.1816 50.0834 23.0264 50.0093Q22.8712 49.9352 22.6842 49.9352Q22.4161 49.9352 22.2379 50.0622Q22.0598 50.1892 22.0598 50.4079Q22.0598 50.5596 22.1462 50.6655Q22.2326 50.7713 22.3632 50.8366Q22.4937 50.9018 22.6877 50.9724Q22.9347 51.0606 23.0793 51.1347Q23.2239 51.2087 23.3263 51.3499Q23.4286 51.491 23.4286 51.7238Q23.4286 51.8861 23.3333 52.0272Q23.2381 52.1683 23.0599 52.2512Q22.8818 52.3341 22.6524 52.3341Q22.3914 52.3341 22.1974 52.2442Q22.0033 52.1542 21.8128 51.9637ZM25.5452 50.5032Q25.5452 50.7007 25.4623 50.8613Q25.3794 51.0218 25.2277 51.1117Q25.076 51.2017 24.8785 51.2017H24.1094V52.2283Q24.1094 52.2565 24.0865 52.2777Q24.0636 52.2988 24.0353 52.2988Q24.0036 52.2988 23.9824 52.2777Q23.9613 52.2565 23.9613 52.2283V49.8999Q23.9613 49.8717 23.9824 49.8506Q24.0036 49.8294 24.0318 49.8294H24.8785Q25.1783 49.8294 25.3618 50.0164Q25.5452 50.2033 25.5452 50.5032ZM25.3971 50.5032Q25.3971 50.2598 25.2577 50.1151Q25.1184 49.9705 24.8785 49.9705H24.1094V51.0606H24.8785Q25.1148 51.0606 25.2559 50.9036Q25.3971 50.7466 25.3971 50.5032ZM27.5278 52.2283Q27.5278 52.26 27.5067 52.2794Q27.4855 52.2988 27.4573 52.2988H26.1273Q26.0991 52.2988 26.0779 52.2777Q26.0568 52.2565 26.0568 52.2283V49.8999Q26.0568 49.8717 26.0779 49.8506Q26.0991 49.8294 26.1273 49.8294H27.4573Q27.4855 49.8294 27.5067 49.8506Q27.5278 49.8717 27.5278 49.8999Q27.5278 49.9317 27.5067 49.9511Q27.4855 49.9705 27.4573 49.9705H26.2049V50.9547H27.2985Q27.3268 50.9547 27.3479 50.9759Q27.3691 50.9971 27.3691 51.0253Q27.3691 51.0571 27.3479 51.0765Q27.3268 51.0959 27.2985 51.0959H26.2049V52.1577H27.4573Q27.4855 52.1577 27.5067 52.1789Q27.5278 52.2001 27.5278 52.2283ZM29.5281 52.2283Q29.5281 52.26 29.5069 52.2794Q29.4858 52.2988 29.4575 52.2988H28.1276Q28.0993 52.2988 28.0782 52.2777Q28.057 52.2565 28.057 52.2283V49.8999Q28.057 49.8717 28.0782 49.8506Q28.0993 49.8294 28.1276 49.8294H29.4575Q29.4858 49.8294 29.5069 49.8506Q29.5281 49.8717 29.5281 49.8999Q29.5281 49.9317 29.5069 49.9511Q29.4858 49.9705 29.4575 49.9705H28.2052V50.9547H29.2988Q29.327 50.9547 29.3482 50.9759Q29.3693 50.9971 29.3693 51.0253Q29.3693 51.0571 29.3482 51.0765Q29.327 51.0959 29.2988 51.0959H28.2052V52.1577H29.4575Q29.4858 52.1577 29.5069 52.1789Q29.5281 52.2001 29.5281 52.2283ZM32.0681 51.0641Q32.0681 51.4134 31.957 51.6921Q31.8458 51.9707 31.6165 52.1348Q31.3872 52.2988 31.045 52.2988H30.1278Q30.0996 52.2988 30.0784 52.2777Q30.0573 52.2565 30.0573 52.2283V49.8999Q30.0573 49.8717 30.0784 49.8506Q30.0996 49.8294 30.1278 49.8294H31.045Q31.3837 49.8294 31.6148 49.9987Q31.8458 50.1681 31.957 50.4485Q32.0681 50.729 32.0681 51.0641ZM31.9199 51.0641Q31.9199 50.7642 31.8229 50.5155Q31.7259 50.2668 31.523 50.1187Q31.3202 49.9705 31.0098 49.9705H30.2054V52.1577H31.0098Q31.4684 52.1577 31.6941 51.8561Q31.9199 51.5545 31.9199 51.0641Z" style="stroke:#000000;stroke-width:0.25;stroke-linecap:round;stroke-linejoin:bevel" />
        <path d="M 20.32,60.25 L 15.32,71.25 z L 25.32,71.25 z " style="stroke:#000000;stroke-width:0.25;stroke-linecap:round;stroke-linejoin:bevel;stroke-dasharray:none" />
    </g>
</svg>
