<?xml version="1.0" encoding="utf-8"?>
<svg xmlns="http://www.w3.org/2000/svg" width="30.48mm" height="128.50mm" viewBox="0 0 30.48 128.50">
    <path d="M11.5058 42.8499V45.1783Q11.5058 45.2065 11.4829 45.2277Q11.46 45.2488 11.4318 45.2488Q11.4 45.2488 11.3788 45.2277Q11.3577 45.2065 11.3577 45.1783V43.0687L10.4475 44.4445Q10.4299 44.4727 10.3981 44.4727Q10.3593 44.4727 10.3417 44.4445L9.42799 43.0651V45.1783Q9.42799 45.2065 9.40682 45.2277Q9.38565 45.2488 9.35743 45.2488Q9.32568 45.2488 9.30628 45.2277Q9.28688 45.2065 9.28688 45.1783V42.8499Q9.28688 42.8252 9.30628 42.8023Q9.32568 42.7794 9.3539 42.7794Q9.39976 42.7794 9.42093 42.8111L10.3981 44.2646L11.3753 42.8111Q11.4035 42.7723 11.4423 42.7794Q11.4706 42.7829 11.4882 42.8023Q11.5058 42.8217 11.5058 42.8499ZM13.2133 45.2841Q12.8711 45.2841 12.603 45.1236Q12.3349 44.9631 12.1849 44.6738Q12.035 44.3845 12.035 44.0141Q12.035 43.6437 12.1849 43.3544Q12.3349 43.0651 12.603 42.9046Q12.8711 42.7441 13.2133 42.7441Q13.5555 42.7441 13.8236 42.9046Q14.0917 43.0651 14.2416 43.3544Q14.3916 43.6437 14.3916 44.0141Q14.3916 44.3845 14.2416 44.6738Q14.0917 44.9631 13.8236 45.1236Q13.5555 45.2841 13.2133 45.2841ZM13.2133 42.8852Q12.9134 42.8852 12.6788 43.0263Q12.4442 43.1674 12.3137 43.425Q12.1832 43.6825 12.1832 44.0141Q12.1832 44.3457 12.3137 44.6033Q12.4442 44.8608 12.6788 45.0019Q12.9134 45.143 13.2133 45.143Q13.5132 45.143 13.7477 45.0019Q13.9823 44.8608 14.1129 44.6033Q14.2434 44.3457 14.2434 44.0141Q14.2434 43.6825 14.1129 43.425Q13.9823 43.1674 13.7477 43.0263Q13.5132 42.8852 13.2133 42.8852ZM16.7164 45.1747Q16.7164 45.2065 16.697 45.2259Q16.6776 45.2453 16.6493 45.2453Q16.6282 45.2453 16.6176 45.2382Q16.5223 45.1853 16.4659 45.0601Q16.4095 44.9349 16.4095 44.6491Q16.4095 44.3598 16.2542 44.2522Q16.099 44.1446 15.8944 44.1446H15.0689V45.1783Q15.0689 45.2065 15.0477 45.2277Q15.0266 45.2488 14.9948 45.2488Q14.9631 45.2488 14.9419 45.2277Q14.9207 45.2065 14.9207 45.1783V42.8499Q14.9207 42.8217 14.9419 42.8006Q14.9631 42.7794 14.9913 42.7794H15.9226Q16.1272 42.7794 16.286 42.8623Q16.4447 42.9452 16.5329 43.0898Q16.6211 43.2345 16.6211 43.4179Q16.6211 43.6543 16.4959 43.8236Q16.3707 43.9929 16.1696 44.0529Q16.3389 44.1058 16.4483 44.2628Q16.5576 44.4198 16.5576 44.6491Q16.5576 44.8855 16.5876 44.979Q16.6176 45.0724 16.6776 45.1112Q16.7164 45.1359 16.7164 45.1747ZM15.9403 44.0035Q16.1625 43.9824 16.3177 43.8271Q16.473 43.6719 16.473 43.4214Q16.473 43.2027 16.3177 43.0616Q16.1625 42.9205 15.905 42.9205H15.0689V44.0035ZM18.8472 43.4532Q18.8472 43.6507 18.7642 43.8113Q18.6813 43.9718 18.5297 44.0617Q18.378 44.1517 18.1804 44.1517H17.4113V45.1783Q17.4113 45.2065 17.3884 45.2277Q17.3655 45.2488 17.3373 45.2488Q17.3055 45.2488 17.2843 45.2277Q17.2632 45.2065 17.2632 45.1783V42.8499Q17.2632 42.8217 17.2843 42.8006Q17.3055 42.7794 17.3337 42.7794H18.1804Q18.4803 42.7794 18.6637 42.9664Q18.8472 43.1533 18.8472 43.4532ZM18.699 43.4532Q18.699 43.2098 18.5596 43.0651Q18.4203 42.9205 18.1804 42.9205H17.4113V44.0106H18.1804Q18.4168 44.0106 18.5579 43.8536Q18.699 43.6966 18.699 43.4532ZM21.1931 42.8535V45.1747Q21.1896 45.2065 21.1684 45.2277Q21.1473 45.2488 21.119 45.2488Q21.0838 45.2488 21.0644 45.2277Q21.045 45.2065 21.045 45.1747V44.0494H19.5068V45.1747Q19.5033 45.2065 19.4822 45.2277Q19.461 45.2488 19.4328 45.2488Q19.3975 45.2488 19.3781 45.2277Q19.3587 45.2065 19.3587 45.1747V42.8535Q19.3587 42.8217 19.3798 42.8006Q19.401 42.7794 19.4328 42.7794Q19.4645 42.7794 19.4857 42.8006Q19.5068 42.8217 19.5068 42.8535V43.9083H21.045V42.8535Q21.045 42.8217 21.0661 42.8006Q21.0873 42.7794 21.119 42.7794Q21.1508 42.7794 21.172 42.8006Q21.1931 42.8217 21.1931 42.8535Z" style="stroke:#000000;stroke-width:0.25;stroke-linecap:round;stroke-linejoin:bevel" />
</svg>
