<?xml version="1.0" encoding="utf-8"?>
<svg xmlns="http://www.w3.org/2000/svg" width="30.48mm" height="128.50mm" viewBox="0 0 30.48 128.50">
    <path d="M14.2469 45.1747Q14.2469 45.2065 14.2275 45.2259Q14.2081 45.2453 14.1799 45.2453Q14.1587 45.2453 14.1482 45.2382Q14.0529 45.1853 13.9965 45.0601Q13.94 44.9349 13.94 44.6491Q13.94 44.3598 13.7848 44.2522Q13.6296 44.1446 13.425 44.1446H12.5995V45.1783Q12.5995 45.2065 12.5783 45.2277Q12.5571 45.2488 12.5254 45.2488Q12.4936 45.2488 12.4725 45.2277Q12.4513 45.2065 12.4513 45.1783V42.8499Q12.4513 42.8217 12.4725 42.8006Q12.4936 42.7794 12.5218 42.7794H13.4532Q13.6578 42.7794 13.8165 42.8623Q13.9753 42.9452 14.0635 43.0898Q14.1517 43.2345 14.1517 43.4179Q14.1517 43.6543 14.0264 43.8236Q13.9012 43.9929 13.7001 44.0529Q13.8695 44.1058 13.9788 44.2628Q14.0882 44.4198 14.0882 44.6491Q14.0882 44.8855 14.1182 44.979Q14.1482 45.0724 14.2081 45.1112Q14.2469 45.1359 14.2469 45.1747ZM13.4708 44.0035Q13.6931 43.9824 13.8483 43.8271Q14.0035 43.6719 14.0035 43.4214Q14.0035 43.2027 13.8483 43.0616Q13.6931 42.9205 13.4355 42.9205H12.5995V44.0035ZM16.2648 45.1783Q16.2648 45.21 16.2437 45.2294Q16.2225 45.2488 16.1943 45.2488H14.8643Q14.8361 45.2488 14.8149 45.2277Q14.7937 45.2065 14.7937 45.1783V42.8499Q14.7937 42.8217 14.8149 42.8006Q14.8361 42.7794 14.8643 42.7794H16.1943Q16.2225 42.7794 16.2437 42.8006Q16.2648 42.8217 16.2648 42.8499Q16.2648 42.8817 16.2437 42.9011Q16.2225 42.9205 16.1943 42.9205H14.9419V43.9047H16.0355Q16.0637 43.9047 16.0849 43.9259Q16.1061 43.9471 16.1061 43.9753Q16.1061 44.0071 16.0849 44.0265Q16.0637 44.0459 16.0355 44.0459H14.9419V45.1077H16.1943Q16.2225 45.1077 16.2437 45.1289Q16.2648 45.1501 16.2648 45.1783ZM16.5858 44.9137Q16.5647 44.8925 16.5647 44.8608Q16.5647 44.8326 16.5894 44.8061Q16.6141 44.7796 16.6423 44.7796Q16.674 44.7796 16.7023 44.8114Q16.8398 44.9737 17.0286 45.0583Q17.2173 45.143 17.4255 45.143Q17.6971 45.143 17.8735 45.0125Q18.0499 44.8819 18.0499 44.6667Q18.0463 44.4974 17.9582 44.3881Q17.87 44.2787 17.7412 44.2134Q17.6124 44.1482 17.3902 44.067Q17.1468 43.9753 17.0109 43.9047Q16.8751 43.8342 16.7781 43.7037Q16.6811 43.5731 16.6811 43.3615Q16.6811 43.1886 16.7763 43.0475Q16.8716 42.9064 17.048 42.8252Q17.2244 42.7441 17.4572 42.7441Q17.6653 42.7441 17.8523 42.82Q18.0393 42.8958 18.1487 43.0334Q18.1839 43.0828 18.1839 43.1075Q18.1839 43.1357 18.1575 43.1586Q18.131 43.1816 18.0993 43.1816Q18.071 43.1816 18.0534 43.1604Q17.9546 43.0334 17.7994 42.9593Q17.6442 42.8852 17.4572 42.8852Q17.1891 42.8852 17.0109 43.0122Q16.8328 43.1392 16.8328 43.3579Q16.8328 43.5096 16.9192 43.6155Q17.0057 43.7213 17.1362 43.7866Q17.2667 43.8518 17.4607 43.9224Q17.7077 44.0106 17.8523 44.0847Q17.997 44.1587 18.0993 44.2999Q18.2016 44.441 18.2016 44.6738Q18.2016 44.8361 18.1063 44.9772Q18.0111 45.1183 17.8329 45.2012Q17.6548 45.2841 17.4255 45.2841Q17.1644 45.2841 16.9704 45.1942Q16.7763 45.1042 16.5858 44.9137Z" style="stroke:#000000;stroke-width:0.25;stroke-linecap:round;stroke-linejoin:bevel" />
</svg>
