<?xml version="1.0" encoding="utf-8"?>
<svg xmlns="http://www.w3.org/2000/svg" width="30.48mm" height="128.50mm" viewBox="0 0 30.48 128.50">
    <path d="M14.2469 43.5081Q14.2469 43.5398 14.2275 43.5592Q14.2081 43.5786 14.1799 43.5786Q14.1587 43.5786 14.1482 43.5716Q14.0529 43.5187 13.9965 43.3934Q13.94 43.2682 13.94 42.9824Q13.94 42.6932 13.7848 42.5856Q13.6296 42.478 13.425 42.478H12.5995V43.5116Q12.5995 43.5398 12.5783 43.561Q12.5571 43.5822 12.5254 43.5822Q12.4936 43.5822 12.4725 43.561Q12.4513 43.5398 12.4513 43.5116V41.1833Q12.4513 41.1551 12.4725 41.1339Q12.4936 41.1127 12.5218 41.1127H13.4532Q13.6578 41.1127 13.8165 41.1956Q13.9753 41.2785 14.0635 41.4232Q14.1517 41.5678 14.1517 41.7512Q14.1517 41.9876 14.0264 42.1569Q13.9012 42.3263 13.7001 42.3862Q13.8695 42.4392 13.9788 42.5962Q14.0882 42.7531 14.0882 42.9824Q14.0882 43.2188 14.1182 43.3123Q14.1482 43.4058 14.2081 43.4446Q14.2469 43.4693 14.2469 43.5081ZM13.4708 42.3369Q13.6931 42.3157 13.8483 42.1605Q14.0035 42.0052 14.0035 41.7548Q14.0035 41.5361 13.8483 41.3949Q13.6931 41.2538 13.4355 41.2538H12.5995V42.3369ZM16.2648 43.5116Q16.2648 43.5434 16.2437 43.5628Q16.2225 43.5822 16.1943 43.5822H14.8643Q14.8361 43.5822 14.8149 43.561Q14.7937 43.5398 14.7937 43.5116V41.1833Q14.7937 41.1551 14.8149 41.1339Q14.8361 41.1127 14.8643 41.1127H16.1943Q16.2225 41.1127 16.2437 41.1339Q16.2648 41.1551 16.2648 41.1833Q16.2648 41.215 16.2437 41.2344Q16.2225 41.2538 16.1943 41.2538H14.9419V42.2381H16.0355Q16.0637 42.2381 16.0849 42.2593Q16.1061 42.2804 16.1061 42.3086Q16.1061 42.3404 16.0849 42.3598Q16.0637 42.3792 16.0355 42.3792H14.9419V43.4411H16.1943Q16.2225 43.4411 16.2437 43.4622Q16.2648 43.4834 16.2648 43.5116ZM16.5858 43.247Q16.5647 43.2259 16.5647 43.1941Q16.5647 43.1659 16.5894 43.1394Q16.6141 43.113 16.6423 43.113Q16.674 43.113 16.7023 43.1447Q16.8398 43.307 17.0286 43.3917Q17.2173 43.4763 17.4255 43.4763Q17.6971 43.4763 17.8735 43.3458Q18.0499 43.2153 18.0499 43.0001Q18.0463 42.8308 17.9582 42.7214Q17.87 42.612 17.7412 42.5468Q17.6124 42.4815 17.3902 42.4004Q17.1468 42.3086 17.0109 42.2381Q16.8751 42.1675 16.7781 42.037Q16.6811 41.9065 16.6811 41.6948Q16.6811 41.5219 16.7763 41.3808Q16.8716 41.2397 17.048 41.1586Q17.2244 41.0774 17.4572 41.0774Q17.6653 41.0774 17.8523 41.1533Q18.0393 41.2291 18.1487 41.3667Q18.1839 41.4161 18.1839 41.4408Q18.1839 41.469 18.1575 41.492Q18.131 41.5149 18.0993 41.5149Q18.071 41.5149 18.0534 41.4937Q17.9546 41.3667 17.7994 41.2926Q17.6442 41.2186 17.4572 41.2186Q17.1891 41.2186 17.0109 41.3456Q16.8328 41.4726 16.8328 41.6913Q16.8328 41.843 16.9192 41.9488Q17.0057 42.0546 17.1362 42.1199Q17.2667 42.1852 17.4607 42.2557Q17.7077 42.3439 17.8523 42.418Q17.997 42.4921 18.0993 42.6332Q18.2016 42.7743 18.2016 43.0071Q18.2016 43.1694 18.1063 43.3105Q18.0111 43.4516 17.8329 43.5345Q17.6548 43.6174 17.4255 43.6174Q17.1644 43.6174 16.9704 43.5275Q16.7763 43.4375 16.5858 43.247Z" style="stroke:#000000;stroke-width:0.25;stroke-linecap:round;stroke-linejoin:bevel" />
</svg>
