<?xml version="1.0" encoding="utf-8"?>
<svg xmlns="http://www.w3.org/2000/svg" width="30.48mm" height="128.50mm" viewBox="0 0 30.48 128.50">
    <g id="PanelLayer">
        <defs>
            <linearGradient id="gradient_toggles" x1="0" y1="10.5" x2="0" y2="24" gradientUnits="userSpaceOnUse">
                <stop style="stop-color:#188B31;stop-opacity:1;" offset="0" />
                <stop style="stop-color:#4f8df2;stop-opacity:1;" offset="1" />
            </linearGradient>
            <linearGradient id="gradient_controls" x1="0" y1="40" x2="0" y2="86" gradientUnits="userSpaceOnUse">
                <stop style="stop-color:#3068ff;stop-opacity:1;" offset="0" />
                <stop style="stop-color:#4f8df2;stop-opacity:1;" offset="1" />
            </linearGradient>
            <linearGradient id="gradient_output" x1="0" y1="91.75" x2="0" y2="107.75" gradientUnits="userSpaceOnUse">
                <stop style="stop-color:#a06de4;stop-opacity:1;" offset="0" />
                <stop style="stop-color:#4f8df2;stop-opacity:1;" offset="1" />
            </linearGradient>
        </defs>
        <rect id="border_rect" width="30.48" height="128.5" x="0" y="0" style="display:inline;fill:#4f8df2;fill-opacity:1;stroke:none;" />
        <path id="toggles_art" d="M 0.24,24.00 L 0.24,14.50 A 4 4 0 0 1 4.24 10.5 L 26.24,10.50 A 4 4 0 0 1 30.24 14.5 L 30.24,10.50 L 30.24,24.00 z" style="fill:url(#gradient_toggles);fill-opacity:1;stroke-width:0;" />
        <path id="controls_art" d="M 0.24,86.00 L 0.24,44.00 A 4 4 0 0 1 4.24 40 L 26.24,40.00 A 4 4 0 0 1 30.24 44 L 30.24,40.00 L 30.24,86.00 z" style="fill:url(#gradient_controls);fill-opacity:1;stroke-width:0;" />
        <path id="output_art" d="M 0.24,107.75 L 0.24,95.75 A 4 4 0 0 1 4.24 91.75 L 26.24,91.75 A 4 4 0 0 1 30.24 95.75 L 30.24,91.75 L 30.24,107.75 z" style="fill:url(#gradient_output);fill-opacity:1;stroke-width:0;" />
        <path d="M 6.24,50.00 L 24.24,50.00 z " style="stroke:#000000;stroke-width:0.25;stroke-linecap:round;stroke-linejoin:bevel;stroke-dasharray:none" />
        <path d="M12.513 42.8499Q12.513 42.8817 12.4919 42.9011Q12.4707 42.9205 12.4425 42.9205H11.1831V43.8942H12.2837Q12.3119 43.8942 12.3331 43.9153Q12.3543 43.9365 12.3543 43.9647Q12.3543 43.9965 12.3331 44.0159Q12.3119 44.0353 12.2837 44.0353H11.1831V45.1783Q11.1831 45.2065 11.1637 45.2277Q11.1443 45.2488 11.1125 45.2488Q11.0808 45.2488 11.0613 45.2277Q11.0419 45.2065 11.0419 45.1783V42.8499Q11.0419 42.8217 11.0631 42.8006Q11.0843 42.7794 11.1125 42.7794H12.4425Q12.4707 42.7794 12.4919 42.8006Q12.513 42.8217 12.513 42.8499ZM14.8378 45.1747Q14.8378 45.2065 14.8184 45.2259Q14.799 45.2453 14.7708 45.2453Q14.7496 45.2453 14.7391 45.2382Q14.6438 45.1853 14.5874 45.0601Q14.5309 44.9349 14.5309 44.6491Q14.5309 44.3598 14.3757 44.2522Q14.2205 44.1446 14.0159 44.1446H13.1904V45.1783Q13.1904 45.2065 13.1692 45.2277Q13.148 45.2488 13.1163 45.2488Q13.0845 45.2488 13.0634 45.2277Q13.0422 45.2065 13.0422 45.1783V42.8499Q13.0422 42.8217 13.0634 42.8006Q13.0845 42.7794 13.1128 42.7794H14.0441Q14.2487 42.7794 14.4074 42.8623Q14.5662 42.9452 14.6544 43.0898Q14.7426 43.2345 14.7426 43.4179Q14.7426 43.6543 14.6173 43.8236Q14.4921 43.9929 14.291 44.0529Q14.4604 44.1058 14.5697 44.2628Q14.6791 44.4198 14.6791 44.6491Q14.6791 44.8855 14.7091 44.979Q14.7391 45.0724 14.799 45.1112Q14.8378 45.1359 14.8378 45.1747ZM14.0617 44.0035Q14.284 43.9824 14.4392 43.8271Q14.5944 43.6719 14.5944 43.4214Q14.5944 43.2027 14.4392 43.0616Q14.284 42.9205 14.0264 42.9205H13.1904V44.0035ZM16.8557 45.1783Q16.8557 45.21 16.8346 45.2294Q16.8134 45.2488 16.7852 45.2488H15.4552Q15.427 45.2488 15.4058 45.2277Q15.3846 45.2065 15.3846 45.1783V42.8499Q15.3846 42.8217 15.4058 42.8006Q15.427 42.7794 15.4552 42.7794H16.7852Q16.8134 42.7794 16.8346 42.8006Q16.8557 42.8217 16.8557 42.8499Q16.8557 42.8817 16.8346 42.9011Q16.8134 42.9205 16.7852 42.9205H15.5328V43.9047H16.6264Q16.6546 43.9047 16.6758 43.9259Q16.697 43.9471 16.697 43.9753Q16.697 44.0071 16.6758 44.0265Q16.6546 44.0459 16.6264 44.0459H15.5328V45.1077H16.7852Q16.8134 45.1077 16.8346 45.1289Q16.8557 45.1501 16.8557 45.1783ZM19.8438 45.5381Q19.8438 45.6051 19.745 45.6739Q19.6462 45.7427 19.4998 45.7868Q19.3534 45.8309 19.2229 45.8309Q19.0288 45.8309 18.8948 45.7886Q18.7607 45.7462 18.5879 45.6616Q18.4432 45.5875 18.3374 45.5522Q18.2316 45.5169 18.094 45.5169Q18.0446 45.5169 18.004 45.5293Q17.9634 45.5416 17.907 45.5663Q17.8435 45.5946 17.8223 45.5946Q17.7941 45.5946 17.7729 45.5734Q17.7518 45.5522 17.7518 45.5205Q17.7518 45.4781 17.7906 45.4605L18.3056 45.2806Q17.9846 45.2629 17.7359 45.0971Q17.4872 44.9313 17.3478 44.6509Q17.2085 44.3704 17.2085 44.0141Q17.2085 43.6437 17.3584 43.3544Q17.5084 43.0651 17.7765 42.9046Q18.0446 42.7441 18.3868 42.7441Q18.729 42.7441 18.9971 42.9046Q19.2652 43.0651 19.4151 43.3544Q19.5651 43.6437 19.5651 44.0141Q19.5651 44.3316 19.4539 44.5891Q19.3428 44.8467 19.14 45.0195Q18.9371 45.1924 18.6725 45.2524L18.2386 45.3935Q18.348 45.4041 18.4415 45.4393Q18.5349 45.4746 18.6655 45.5381Q18.8348 45.6192 18.9512 45.6581Q19.0676 45.6969 19.2229 45.6969Q19.3534 45.6969 19.4469 45.6633Q19.5404 45.6298 19.6286 45.5804Q19.6568 45.5663 19.6956 45.5275Q19.7168 45.5064 19.7397 45.4922Q19.7626 45.4781 19.7838 45.4781Q19.812 45.4781 19.8279 45.494Q19.8438 45.5099 19.8438 45.5381ZM18.3868 45.143Q18.6866 45.143 18.9212 45.0019Q19.1558 44.8608 19.2864 44.6033Q19.4169 44.3457 19.4169 44.0141Q19.4169 43.6825 19.2864 43.425Q19.1558 43.1674 18.9212 43.0263Q18.6866 42.8852 18.3868 42.8852Q18.0869 42.8852 17.8523 43.0263Q17.6177 43.1674 17.4872 43.425Q17.3567 43.6825 17.3567 44.0141Q17.3567 44.3457 17.4872 44.6033Q17.6177 44.8608 17.8523 45.0019Q18.0869 45.143 18.3868 45.143Z" style="stroke:#000000;stroke-width:0.25;stroke-linecap:round;stroke-linejoin:bevel" />
        <path d="M 6.24,65.00 L 24.24,65.00 z " style="stroke:#000000;stroke-width:0.25;stroke-linecap:round;stroke-linejoin:bevel;stroke-dasharray:none" />
        <path d="M14.2469 60.1747Q14.2469 60.2065 14.2275 60.2259Q14.2081 60.2453 14.1799 60.2453Q14.1587 60.2453 14.1482 60.2382Q14.0529 60.1853 13.9965 60.0601Q13.94 59.9349 13.94 59.6491Q13.94 59.3598 13.7848 59.2522Q13.6296 59.1446 13.425 59.1446H12.5995V60.1783Q12.5995 60.2065 12.5783 60.2277Q12.5571 60.2488 12.5254 60.2488Q12.4936 60.2488 12.4725 60.2277Q12.4513 60.2065 12.4513 60.1783V57.8499Q12.4513 57.8217 12.4725 57.8006Q12.4936 57.7794 12.5218 57.7794H13.4532Q13.6578 57.7794 13.8165 57.8623Q13.9753 57.9452 14.0635 58.0898Q14.1517 58.2345 14.1517 58.4179Q14.1517 58.6543 14.0264 58.8236Q13.9012 58.9929 13.7001 59.0529Q13.8695 59.1058 13.9788 59.2628Q14.0882 59.4198 14.0882 59.6491Q14.0882 59.8855 14.1182 59.979Q14.1482 60.0724 14.2081 60.1112Q14.2469 60.1359 14.2469 60.1747ZM13.4708 59.0035Q13.6931 58.9824 13.8483 58.8271Q14.0035 58.6719 14.0035 58.4214Q14.0035 58.2027 13.8483 58.0616Q13.6931 57.9205 13.4355 57.9205H12.5995V59.0035ZM16.2648 60.1783Q16.2648 60.21 16.2437 60.2294Q16.2225 60.2488 16.1943 60.2488H14.8643Q14.8361 60.2488 14.8149 60.2277Q14.7937 60.2065 14.7937 60.1783V57.8499Q14.7937 57.8217 14.8149 57.8006Q14.8361 57.7794 14.8643 57.7794H16.1943Q16.2225 57.7794 16.2437 57.8006Q16.2648 57.8217 16.2648 57.8499Q16.2648 57.8817 16.2437 57.9011Q16.2225 57.9205 16.1943 57.9205H14.9419V58.9047H16.0355Q16.0637 58.9047 16.0849 58.9259Q16.1061 58.9471 16.1061 58.9753Q16.1061 59.0071 16.0849 59.0265Q16.0637 59.0459 16.0355 59.0459H14.9419V60.1077H16.1943Q16.2225 60.1077 16.2437 60.1289Q16.2648 60.1501 16.2648 60.1783ZM16.5858 59.9137Q16.5647 59.8925 16.5647 59.8608Q16.5647 59.8326 16.5894 59.8061Q16.6141 59.7796 16.6423 59.7796Q16.674 59.7796 16.7023 59.8114Q16.8398 59.9737 17.0286 60.0583Q17.2173 60.143 17.4255 60.143Q17.6971 60.143 17.8735 60.0125Q18.0499 59.8819 18.0499 59.6667Q18.0463 59.4974 17.9582 59.3881Q17.87 59.2787 17.7412 59.2134Q17.6124 59.1482 17.3902 59.067Q17.1468 58.9753 17.0109 58.9047Q16.8751 58.8342 16.7781 58.7037Q16.6811 58.5731 16.6811 58.3615Q16.6811 58.1886 16.7763 58.0475Q16.8716 57.9064 17.048 57.8252Q17.2244 57.7441 17.4572 57.7441Q17.6653 57.7441 17.8523 57.82Q18.0393 57.8958 18.1487 58.0334Q18.1839 58.0828 18.1839 58.1075Q18.1839 58.1357 18.1575 58.1586Q18.131 58.1816 18.0993 58.1816Q18.071 58.1816 18.0534 58.1604Q17.9546 58.0334 17.7994 57.9593Q17.6442 57.8852 17.4572 57.8852Q17.1891 57.8852 17.0109 58.0122Q16.8328 58.1392 16.8328 58.3579Q16.8328 58.5096 16.9192 58.6155Q17.0057 58.7213 17.1362 58.7866Q17.2667 58.8518 17.4607 58.9224Q17.7077 59.0106 17.8523 59.0847Q17.997 59.1587 18.0993 59.2999Q18.2016 59.441 18.2016 59.6738Q18.2016 59.8361 18.1063 59.9772Q18.0111 60.1183 17.8329 60.2012Q17.6548 60.2841 17.4255 60.2841Q17.1644 60.2841 16.9704 60.1942Q16.7763 60.1042 16.5858 59.9137Z" style="stroke:#000000;stroke-width:0.25;stroke-linecap:round;stroke-linejoin:bevel" />
        <path d="M 8.24,102.00 L 8.24,112.00 " style="stroke:#000000;stroke-width:0.25;stroke-linecap:round;stroke-linejoin:bevel;stroke-dasharray:none" fill="none" />
        <path d="M3.86556 96.4137Q3.84439 96.3925 3.84439 96.3608Q3.84439 96.3326 3.86908 96.3061Q3.89378 96.2796 3.922 96.2796Q3.95375 96.2796 3.98197 96.3114Q4.11956 96.4737 4.30829 96.5583Q4.49703 96.643 4.70517 96.643Q4.97681 96.643 5.15319 96.5125Q5.32958 96.3819 5.32958 96.1668Q5.32606 95.9974 5.23786 95.8881Q5.14967 95.7787 5.0209 95.7134Q4.89214 95.6482 4.66989 95.567Q4.42647 95.4753 4.29065 95.4048Q4.15483 95.3342 4.05782 95.2037Q3.96081 95.0731 3.96081 94.8615Q3.96081 94.6886 4.05606 94.5475Q4.15131 94.4064 4.32769 94.3253Q4.50408 94.2441 4.73692 94.2441Q4.94506 94.2441 5.13203 94.32Q5.319 94.3958 5.42836 94.5334Q5.46364 94.5828 5.46364 94.6075Q5.46364 94.6357 5.43718 94.6586Q5.41072 94.6816 5.37897 94.6816Q5.35075 94.6816 5.33311 94.6604Q5.23433 94.5334 5.07911 94.4593Q4.92389 94.3852 4.73692 94.3852Q4.46881 94.3852 4.29065 94.5122Q4.1125 94.6392 4.1125 94.8579Q4.1125 95.0096 4.19893 95.1155Q4.28536 95.2213 4.41589 95.2866Q4.54642 95.3518 4.74044 95.4224Q4.98739 95.5106 5.13203 95.5847Q5.27667 95.6587 5.37897 95.7999Q5.48128 95.941 5.48128 96.1738Q5.48128 96.3361 5.38603 96.4772Q5.29078 96.6183 5.11263 96.7012Q4.93447 96.7841 4.70517 96.7841Q4.44411 96.7841 4.25008 96.6942Q4.05606 96.6042 3.86556 96.4137ZM7.48506 96.6783Q7.48506 96.71 7.46389 96.7294Q7.44272 96.7488 7.4145 96.7488H6.08453Q6.05631 96.7488 6.03514 96.7277Q6.01397 96.7065 6.01397 96.6783V94.3499Q6.01397 94.3217 6.03514 94.3006Q6.05631 94.2794 6.08453 94.2794H7.4145Q7.44272 94.2794 7.46389 94.3006Q7.48506 94.3217 7.48506 94.3499Q7.48506 94.3817 7.46389 94.4011Q7.44272 94.4205 7.4145 94.4205H6.16214V95.4048H7.25575Q7.28397 95.4048 7.30514 95.4259Q7.32631 95.4471 7.32631 95.4753Q7.32631 95.5071 7.30514 95.5265Q7.28397 95.5459 7.25575 95.5459H6.16214V96.6077H7.4145Q7.44272 96.6077 7.46389 96.6289Q7.48506 96.6501 7.48506 96.6783ZM9.86631 94.3464V96.6712Q9.86631 96.71 9.84514 96.7294Q9.82397 96.7488 9.79222 96.7488Q9.75694 96.7488 9.73578 96.7206L8.14828 94.551V96.6889Q8.14828 96.7136 8.12888 96.7312Q8.10947 96.7488 8.08125 96.7488Q8.0495 96.7488 8.03186 96.7312Q8.01422 96.7136 8.01422 96.6889V94.3499Q8.01422 94.3147 8.03363 94.297Q8.05303 94.2794 8.07772 94.2794Q8.10947 94.2794 8.13064 94.3041L9.73225 96.4878V94.3464Q9.73225 94.3182 9.75165 94.2988Q9.77106 94.2794 9.79928 94.2794Q9.83103 94.2794 9.84867 94.2988Q9.86631 94.3182 9.86631 94.3464ZM12.5827 95.5141Q12.5827 95.8634 12.4716 96.1421Q12.3604 96.4207 12.1311 96.5848Q11.9018 96.7488 11.5596 96.7488H10.6424Q10.6142 96.7488 10.593 96.7277Q10.5719 96.7065 10.5719 96.6783V94.3499Q10.5719 94.3217 10.593 94.3006Q10.6142 94.2794 10.6424 94.2794H11.5596Q11.8983 94.2794 12.1294 94.4487Q12.3604 94.6181 12.4716 94.8985Q12.5827 95.179 12.5827 95.5141ZM12.4345 95.5141Q12.4345 95.2143 12.3375 94.9655Q12.2405 94.7168 12.0377 94.5687Q11.8348 94.4205 11.5244 94.4205H10.72V96.6077H11.5244Q11.983 96.6077 12.2088 96.3061Q12.4345 96.0045 12.4345 95.5141Z" style="stroke:#000000;stroke-width:0.25;stroke-linecap:round;stroke-linejoin:bevel" />
        <path d="M 22.24,102.00 L 22.24,112.00 " style="stroke:#000000;stroke-width:0.25;stroke-linecap:round;stroke-linejoin:bevel;stroke-dasharray:none" fill="none" />
        <path d="M19.7159 96.6748Q19.7159 96.7065 19.6965 96.7259Q19.6771 96.7453 19.6488 96.7453Q19.6277 96.7453 19.6171 96.7383Q19.5218 96.6853 19.4654 96.5601Q19.409 96.4349 19.409 96.1491Q19.409 95.8598 19.2537 95.7522Q19.0985 95.6446 18.8939 95.6446H18.0684V96.6783Q18.0684 96.7065 18.0472 96.7277Q18.0261 96.7488 17.9943 96.7488Q17.9626 96.7488 17.9414 96.7277Q17.9202 96.7065 17.9202 96.6783V94.3499Q17.9202 94.3217 17.9414 94.3006Q17.9626 94.2794 17.9908 94.2794H18.9221Q19.1267 94.2794 19.2855 94.3623Q19.4442 94.4452 19.5324 94.5898Q19.6206 94.7345 19.6206 94.9179Q19.6206 95.1543 19.4954 95.3236Q19.3702 95.4929 19.1691 95.5529Q19.3384 95.6058 19.4478 95.7628Q19.5571 95.9198 19.5571 96.1491Q19.5571 96.3855 19.5871 96.479Q19.6171 96.5724 19.6771 96.6112Q19.7159 96.6359 19.7159 96.6748ZM18.9398 95.5035Q19.162 95.4824 19.3172 95.3271Q19.4725 95.1719 19.4725 94.9214Q19.4725 94.7027 19.3172 94.5616Q19.162 94.4205 18.9045 94.4205H18.0684V95.5035ZM21.889 94.3464Q21.889 94.3782 21.8696 94.3958Q21.8502 94.4134 21.8184 94.4134H21.0317V96.6783Q21.0317 96.7065 21.0106 96.7277Q20.9894 96.7488 20.9612 96.7488Q20.9294 96.7488 20.91 96.7277Q20.8906 96.7065 20.8906 96.6783V94.4134H20.1039Q20.0757 94.4134 20.0545 94.394Q20.0334 94.3746 20.0334 94.3464Q20.0334 94.3182 20.0545 94.2988Q20.0757 94.2794 20.1039 94.2794H21.8184Q21.8467 94.2794 21.8678 94.2988Q21.889 94.3182 21.889 94.3464ZM24.1609 96.6748Q24.1609 96.7065 24.1415 96.7259Q24.1221 96.7453 24.0938 96.7453Q24.0727 96.7453 24.0621 96.7383Q23.9668 96.6853 23.9104 96.5601Q23.854 96.4349 23.854 96.1491Q23.854 95.8598 23.6987 95.7522Q23.5435 95.6446 23.3389 95.6446H22.5134V96.6783Q22.5134 96.7065 22.4922 96.7277Q22.4711 96.7488 22.4393 96.7488Q22.4076 96.7488 22.3864 96.7277Q22.3652 96.7065 22.3652 96.6783V94.3499Q22.3652 94.3217 22.3864 94.3006Q22.4076 94.2794 22.4358 94.2794H23.3671Q23.5717 94.2794 23.7305 94.3623Q23.8892 94.4452 23.9774 94.5898Q24.0656 94.7345 24.0656 94.9179Q24.0656 95.1543 23.9404 95.3236Q23.8152 95.4929 23.6141 95.5529Q23.7834 95.6058 23.8928 95.7628Q24.0021 95.9198 24.0021 96.1491Q24.0021 96.3855 24.0321 96.479Q24.0621 96.5724 24.1221 96.6112Q24.1609 96.6359 24.1609 96.6748ZM23.3848 95.5035Q23.607 95.4824 23.7622 95.3271Q23.9175 95.1719 23.9175 94.9214Q23.9175 94.7027 23.7622 94.5616Q23.607 94.4205 23.3495 94.4205H22.5134V95.5035ZM26.5598 94.3464V96.6712Q26.5598 96.71 26.5386 96.7294Q26.5174 96.7488 26.4857 96.7488Q26.4504 96.7488 26.4292 96.7206L24.8417 94.551V96.6889Q24.8417 96.7136 24.8223 96.7312Q24.8029 96.7488 24.7747 96.7488Q24.743 96.7488 24.7253 96.7312Q24.7077 96.7136 24.7077 96.6889V94.3499Q24.7077 94.3147 24.7271 94.297Q24.7465 94.2794 24.7712 94.2794Q24.8029 94.2794 24.8241 94.3041L26.4257 96.4878V94.3464Q26.4257 94.3182 26.4451 94.2988Q26.4645 94.2794 26.4927 94.2794Q26.5245 94.2794 26.5421 94.2988Q26.5598 94.3182 26.5598 94.3464Z" style="stroke:#000000;stroke-width:0.25;stroke-linecap:round;stroke-linejoin:bevel" />
    </g>
</svg>
