<?xml version="1.0" encoding="utf-8"?>
<svg xmlns="http://www.w3.org/2000/svg" width="30.48mm" height="128.50mm" viewBox="0 0 30.48 128.50">
    <g id="PanelLayer">
        <rect id="border_rect" width="30.48" height="128.5" x="0" y="0" style="display:inline;fill:#4f8df2;fill-opacity:1;stroke:none;" />
        <path d="M 6.24,49.00 L 24.24,49.00 z " style="stroke:#000000;stroke-width:0.25;stroke-linecap:round;stroke-linejoin:bevel;stroke-dasharray:none" />
        <path d="M12.513 41.8499Q12.513 41.8817 12.4919 41.9011Q12.4707 41.9205 12.4425 41.9205H11.1831V42.8942H12.2837Q12.3119 42.8942 12.3331 42.9153Q12.3543 42.9365 12.3543 42.9647Q12.3543 42.9965 12.3331 43.0159Q12.3119 43.0353 12.2837 43.0353H11.1831V44.1783Q11.1831 44.2065 11.1637 44.2277Q11.1443 44.2488 11.1125 44.2488Q11.0808 44.2488 11.0613 44.2277Q11.0419 44.2065 11.0419 44.1783V41.8499Q11.0419 41.8217 11.0631 41.8006Q11.0843 41.7794 11.1125 41.7794H12.4425Q12.4707 41.7794 12.4919 41.8006Q12.513 41.8217 12.513 41.8499ZM14.8378 44.1747Q14.8378 44.2065 14.8184 44.2259Q14.799 44.2453 14.7708 44.2453Q14.7496 44.2453 14.7391 44.2382Q14.6438 44.1853 14.5874 44.0601Q14.5309 43.9349 14.5309 43.6491Q14.5309 43.3598 14.3757 43.2522Q14.2205 43.1446 14.0159 43.1446H13.1904V44.1783Q13.1904 44.2065 13.1692 44.2277Q13.148 44.2488 13.1163 44.2488Q13.0845 44.2488 13.0634 44.2277Q13.0422 44.2065 13.0422 44.1783V41.8499Q13.0422 41.8217 13.0634 41.8006Q13.0845 41.7794 13.1128 41.7794H14.0441Q14.2487 41.7794 14.4074 41.8623Q14.5662 41.9452 14.6544 42.0898Q14.7426 42.2345 14.7426 42.4179Q14.7426 42.6543 14.6173 42.8236Q14.4921 42.9929 14.291 43.0529Q14.4604 43.1058 14.5697 43.2628Q14.6791 43.4198 14.6791 43.6491Q14.6791 43.8855 14.7091 43.979Q14.7391 44.0724 14.799 44.1112Q14.8378 44.1359 14.8378 44.1747ZM14.0617 43.0035Q14.284 42.9824 14.4392 42.8271Q14.5944 42.6719 14.5944 42.4214Q14.5944 42.2027 14.4392 42.0616Q14.284 41.9205 14.0264 41.9205H13.1904V43.0035ZM16.8557 44.1783Q16.8557 44.21 16.8346 44.2294Q16.8134 44.2488 16.7852 44.2488H15.4552Q15.427 44.2488 15.4058 44.2277Q15.3846 44.2065 15.3846 44.1783V41.8499Q15.3846 41.8217 15.4058 41.8006Q15.427 41.7794 15.4552 41.7794H16.7852Q16.8134 41.7794 16.8346 41.8006Q16.8557 41.8217 16.8557 41.8499Q16.8557 41.8817 16.8346 41.9011Q16.8134 41.9205 16.7852 41.9205H15.5328V42.9047H16.6264Q16.6546 42.9047 16.6758 42.9259Q16.697 42.9471 16.697 42.9753Q16.697 43.0071 16.6758 43.0265Q16.6546 43.0459 16.6264 43.0459H15.5328V44.1077H16.7852Q16.8134 44.1077 16.8346 44.1289Q16.8557 44.1501 16.8557 44.1783ZM19.8438 44.5381Q19.8438 44.6051 19.745 44.6739Q19.6462 44.7427 19.4998 44.7868Q19.3534 44.8309 19.2229 44.8309Q19.0288 44.8309 18.8948 44.7886Q18.7607 44.7462 18.5879 44.6616Q18.4432 44.5875 18.3374 44.5522Q18.2316 44.5169 18.094 44.5169Q18.0446 44.5169 18.004 44.5293Q17.9634 44.5416 17.907 44.5663Q17.8435 44.5946 17.8223 44.5946Q17.7941 44.5946 17.7729 44.5734Q17.7518 44.5522 17.7518 44.5205Q17.7518 44.4781 17.7906 44.4605L18.3056 44.2806Q17.9846 44.2629 17.7359 44.0971Q17.4872 43.9313 17.3478 43.6509Q17.2085 43.3704 17.2085 43.0141Q17.2085 42.6437 17.3584 42.3544Q17.5084 42.0651 17.7765 41.9046Q18.0446 41.7441 18.3868 41.7441Q18.729 41.7441 18.9971 41.9046Q19.2652 42.0651 19.4151 42.3544Q19.5651 42.6437 19.5651 43.0141Q19.5651 43.3316 19.4539 43.5891Q19.3428 43.8467 19.14 44.0195Q18.9371 44.1924 18.6725 44.2524L18.2386 44.3935Q18.348 44.4041 18.4415 44.4393Q18.5349 44.4746 18.6655 44.5381Q18.8348 44.6192 18.9512 44.6581Q19.0676 44.6969 19.2229 44.6969Q19.3534 44.6969 19.4469 44.6633Q19.5404 44.6298 19.6286 44.5804Q19.6568 44.5663 19.6956 44.5275Q19.7168 44.5064 19.7397 44.4922Q19.7626 44.4781 19.7838 44.4781Q19.812 44.4781 19.8279 44.494Q19.8438 44.5099 19.8438 44.5381ZM18.3868 44.143Q18.6866 44.143 18.9212 44.0019Q19.1558 43.8608 19.2864 43.6033Q19.4169 43.3457 19.4169 43.0141Q19.4169 42.6825 19.2864 42.425Q19.1558 42.1674 18.9212 42.0263Q18.6866 41.8852 18.3868 41.8852Q18.0869 41.8852 17.8523 42.0263Q17.6177 42.1674 17.4872 42.425Q17.3567 42.6825 17.3567 43.0141Q17.3567 43.3457 17.4872 43.6033Q17.6177 43.8608 17.8523 44.0019Q18.0869 44.143 18.3868 44.143Z" style="stroke:#000000;stroke-width:0.25;stroke-linecap:round;stroke-linejoin:bevel" />
        <path d="M 15.24,93.00 L 15.24,103.00 " style="stroke:#000000;stroke-width:0.25;stroke-linecap:round;stroke-linejoin:bevel;stroke-dasharray:none" fill="none" />
        <path d="M12.9275 87.7841Q12.5853 87.7841 12.3172 87.6236Q12.0491 87.4631 11.8992 87.1738Q11.7493 86.8845 11.7493 86.5141Q11.7493 86.1437 11.8992 85.8544Q12.0491 85.5651 12.3172 85.4046Q12.5853 85.2441 12.9275 85.2441Q13.2697 85.2441 13.5378 85.4046Q13.806 85.5651 13.9559 85.8544Q14.1058 86.1437 14.1058 86.5141Q14.1058 86.8845 13.9559 87.1738Q13.806 87.4631 13.5378 87.6236Q13.2697 87.7841 12.9275 87.7841ZM12.9275 85.3852Q12.6277 85.3852 12.3931 85.5263Q12.1585 85.6674 12.028 85.925Q11.8974 86.1825 11.8974 86.5141Q11.8974 86.8457 12.028 87.1033Q12.1585 87.3608 12.3931 87.5019Q12.6277 87.643 12.9275 87.643Q13.2274 87.643 13.462 87.5019Q13.6966 87.3608 13.8271 87.1033Q13.9577 86.8457 13.9577 86.5141Q13.9577 86.1825 13.8271 85.925Q13.6966 85.6674 13.462 85.5263Q13.2274 85.3852 12.9275 85.3852ZM16.4518 85.3499V86.8739Q16.4518 87.1209 16.3283 87.329Q16.2048 87.5372 15.9967 87.6606Q15.7886 87.7841 15.5452 87.7841Q15.2982 87.7841 15.0901 87.6606Q14.8819 87.5372 14.7585 87.329Q14.635 87.1209 14.635 86.8739V85.3499Q14.635 85.3182 14.6562 85.2988Q14.6773 85.2794 14.7091 85.2794Q14.7408 85.2794 14.762 85.3006Q14.7832 85.3217 14.7832 85.3499V86.8739Q14.7832 87.0821 14.8855 87.2585Q14.9878 87.4349 15.1624 87.5389Q15.337 87.643 15.5452 87.643Q15.7533 87.643 15.9279 87.5389Q16.1025 87.4349 16.2066 87.2585Q16.3107 87.0821 16.3107 86.8739V85.3499Q16.3107 85.3217 16.3301 85.3006Q16.3495 85.2794 16.3812 85.2794Q16.413 85.2794 16.4324 85.3006Q16.4518 85.3217 16.4518 85.3499ZM18.7837 85.3464Q18.7837 85.3782 18.7642 85.3958Q18.7448 85.4134 18.7131 85.4134H17.9264V87.6783Q17.9264 87.7065 17.9052 87.7277Q17.8841 87.7488 17.8558 87.7488Q17.8241 87.7488 17.8047 87.7277Q17.7853 87.7065 17.7853 87.6783V85.4134H16.9986Q16.9704 85.4134 16.9492 85.394Q16.928 85.3746 16.928 85.3464Q16.928 85.3182 16.9492 85.2988Q16.9704 85.2794 16.9986 85.2794H18.7131Q18.7413 85.2794 18.7625 85.2988Q18.7837 85.3182 18.7837 85.3464Z" style="stroke:#000000;stroke-width:0.25;stroke-linecap:round;stroke-linejoin:bevel" />
    </g>
</svg>
