<?xml version="1.0" encoding="utf-8"?>
<svg xmlns="http://www.w3.org/2000/svg" width="30.48mm" height="128.50mm" viewBox="0 0 30.48 128.50">
    <g id="PanelLayer">
        <rect id="border_rect" width="30.48" height="128.5" x="0" y="0" style="display:inline;fill:#4f8df2;fill-opacity:1;stroke:none;" />
        <path id="sapphire_gemstone" d="m 17.955,122.900 q 0,0.34175 -0.242534,0.63114 -0.0441,0.0524 -0.20395,0.21497 -0.187413,0.19017 -0.785481,0.81304 l -1.444183,1.51309 q -0.01929,0.003 -0.0441,0.003 -0.02756,0 -0.04134,-0.003 -0.08268,-0.0827 -0.647678,-0.67524 -0.468532,-0.47404 -0.934309,-0.94809 -0.556727,-0.56775 -0.89848,-0.98116 -0.132292,-0.15985 -0.168121,-0.29766 -0.02756,-0.10197 -0.02756,-0.34175 0,-0.11024 0.07166,-0.28939 0.06614,-0.16536 0.140559,-0.26458 0.118512,-0.1571 0.42168,-0.42444 0.283875,-0.2508 0.474044,-0.37482 0.272852,-0.17915 0.818555,-0.36656 0.09646,-0.0331 0.110243,-0.0331 h 1.3615 q 0.01102,0 0.104731,0.0331 0.567751,0.20119 0.824066,0.36656 0.165365,0.10473 0.474045,0.37758 0.322461,0.28388 0.421679,0.42168 0.214974,0.2949 0.214974,0.62563 z m -0.16812,-0.27285 q -0.03307,-0.10749 -0.135048,-0.30868 -0.07166,-0.0937 -0.209462,-0.19844 -0.118511,-0.0854 -0.234266,-0.17088 0.245291,0.3638 0.578776,0.678 z m -0.573264,-0.52366 -0.358289,-0.44648 v 0.41065 z m 0.636653,0.75792 q 0,-0.0524 -0.341753,-0.39412 l 0.228754,0.7028 h 0.04961 q 0.06339,-0.21773 0.06339,-0.30868 z m -0.23151,0.27285 -0.316948,-0.90399 -0.410655,-0.0634 -0.159853,0.61461 z m 0.0028,0.15434 -0.771701,-0.3197 h -0.03032 l 0.344509,0.60634 q 0.07993,-0.003 0.234266,-0.0469 0.02481,-0.0138 0.223242,-0.23978 z m -0.857139,-1.05006 -0.719335,0.28388 0.60358,0.22599 z m 0,-0.16261 v -0.51538 l -0.917773,-0.38034 h -1.223697 l -0.917772,0.38034 v 0.51538 l 0.89848,0.4079 h 1.254014 z m 0.573264,1.53789 q -0.0689,0.011 -0.198438,0.0524 -0.08544,0.0551 -0.259071,0.16261 0.01929,0 0.06339,0.003 0.04134,0 0.06339,0 0.118511,0 0.190169,-0.0689 0.07166,-0.0717 0.14056,-0.14883 z m -0.289388,0.003 -0.347266,-0.63114 -0.363801,0.87918 q 0.0248,-0.0165 0.06615,-0.0165 0.03032,0 0.08544,0.011 0.05788,0.008 0.08819,0.008 0.04961,0 0.228754,-0.10749 0.228754,-0.1378 0.242535,-0.14331 z m -0.440972,-0.74139 -0.683507,-0.2756 -0.592556,0.54845 0.903993,0.65595 z m -0.854383,-0.28387 h -1.036284 l 0.523654,0.47404 z m 0.749652,1.36701 q -0.228754,-0.0303 -0.228754,-0.0303 -0.03583,0 -0.272851,0.0937 l 0.190169,0.0193 q 0.01102,0 0.311436,-0.0827 z m -0.388606,-0.0882 -0.843359,-0.61185 v 0.67524 l 0.471289,0.0827 z m 0.854383,0.0496 q -0.09922,0.006 -0.2949,0.0386 -0.01102,0.003 -0.377583,0.17639 -0.129535,0.34726 -0.380338,1.0418 z m -2.543857,-1.39733 -0.719335,-0.28388 0.124023,0.51814 z m -0.802018,-0.45476 v -0.41065 l -0.366557,0.44648 z m 1.515841,1.07212 -0.592556,-0.54019 -0.683506,0.2756 0.380338,0.9288 z m 0.369314,0.94257 q -0.03307,-0.003 -0.135047,-0.0248 -0.08544,-0.0165 -0.137804,-0.0165 -0.05237,0 -0.137804,0.0165 -0.101975,0.0221 -0.135047,0.0248 0.264583,0.0469 0.272851,0.0469 0.0083,0 0.272851,-0.0469 z m -0.30868,-0.1378 v -0.68626 l -0.843359,0.61185 0.37207,0.14607 z m 0.950846,0.20671 -0.396875,-0.0551 -0.479557,0.14056 v 1.27607 z m -2.888366,-2.20211 q -0.118512,0.0854 -0.234267,0.17364 -0.146072,0.10748 -0.209461,0.19568 -0.0441,0.10473 -0.135048,0.31419 0.369314,-0.3638 0.578776,-0.68351 z m 0.476801,0.83234 -0.159853,-0.61461 -0.410655,0.0634 -0.316948,0.90399 z m 0.394118,1.08313 -0.363802,-0.87918 -0.355533,0.63114 q 0.43546,0.2508 0.451996,0.2508 0.09095,0 0.267339,-0.003 z m 1.821765,0.82958 q -0.132291,0.21222 -0.405143,0.6339 -0.07717,0.10749 -0.220486,0.32797 -0.05788,0.10473 -0.05512,0.226 0.159852,-0.15158 0.432704,-0.49609 0.07717,-0.12954 0.140559,-0.339 0.05512,-0.17639 0.107486,-0.35278 z m -1.493792,-0.66146 -0.270095,-0.0882 -0.0083,-0.011 q -0.02481,0 -0.107487,0.011 -0.06615,0.006 -0.107487,0.006 0.272851,0.091 0.311436,0.091 0.02481,0 0.181901,-0.008 z m -0.810286,-1.06384 h -0.03032 l -0.7717,0.3197 q 0.06615,0.0965 0.223242,0.23978 0.07717,0.0138 0.234266,0.0469 z m -0.689018,-0.50161 q -0.341754,0.34727 -0.341754,0.39412 0,0.0799 0.06339,0.30868 h 0.04961 z m 2.235176,3.04547 v -1.27607 l -0.479557,-0.14056 -0.396875,0.0551 z m -1.606791,-1.6757 q -0.256315,-0.1819 -0.457509,-0.22324 0.06615,0.0772 0.20395,0.22324 z m 1.609547,2.04501 v -0.1378 l -0.683507,-1.05007 q 0.05237,0.17639 0.107487,0.35278 0.06339,0.20946 0.14056,0.339 0.0689,0.11851 0.20395,0.25907 0.115755,0.11851 0.23151,0.23702 z m -0.644921,-0.70555 q -0.115756,-0.32798 -0.380339,-1.0418 -0.135047,-0.0662 -0.272851,-0.12954 -0.159852,-0.0716 -0.289388,-0.0716 -0.05237,0 -0.110243,-0.0138 z" style="stroke-width:0;fill:#0000ff;stroke:#2e2114;stroke-linecap:square;stroke-opacity:1" />
        <path id="model_name" d="M5.40279 7.35962Q5.40279 7.41395 5.37175 7.45276Q5.11563 7.79425 4.73534 8.01156Q4.35504 8.22887 3.92042 8.22887Q3.33834 8.22887 2.88819 7.98051Q2.43805 7.73216 2.18581 7.27425Q1.93358 6.81635 1.93358 6.21098Q1.93358 5.59009 2.17805 5.12054Q2.42253 4.651 2.8261 4.40264Q3.22968 4.15429 3.68759 4.15429Q4.14549 4.15429 4.53743 4.35219Q4.92936 4.5501 5.17772 4.94592Q5.42608 5.34174 5.4416 5.92382Q5.4416 5.98591 5.39503 6.03636Q5.34846 6.0868 5.28638 6.0868H2.23626V6.1877Q2.23626 6.66889 2.43029 7.06858Q2.62431 7.46828 3.00461 7.70111Q3.3849 7.93395 3.92042 7.93395Q4.29295 7.93395 4.6228 7.75156Q4.95265 7.56917 5.13891 7.28977Q5.19324 7.21992 5.27085 7.21992Q5.32518 7.21992 5.36399 7.26261Q5.40279 7.3053 5.40279 7.35962ZM2.2673 5.79188H5.12339V5.72203Q5.08459 5.32621 4.87116 5.04293Q4.65773 4.75965 4.3434 4.61219Q4.02908 4.46473 3.68759 4.46473Q3.40043 4.46473 3.10162 4.61607Q2.80282 4.76741 2.57387 5.06622Q2.34491 5.36502 2.2673 5.79188ZM12.2248 5.73755V7.99604Q12.2248 8.05812 12.1821 8.10469Q12.1394 8.15126 12.0696 8.15126Q11.9997 8.15126 11.9571 8.10469Q11.9144 8.05812 11.9144 7.99604V5.7686Q11.9144 5.21756 11.6466 4.87219Q11.3788 4.52682 10.8356 4.52682Q10.5018 4.52682 10.1798 4.69756Q9.85767 4.86831 9.65588 5.15159Q9.45409 5.43487 9.45409 5.7686V7.99604Q9.45409 8.05812 9.41141 8.10469Q9.36872 8.15126 9.29887 8.15126Q9.22902 8.15126 9.18633 8.10469Q9.14365 8.05812 9.14365 7.99604V5.72979Q9.14365 5.19427 8.88753 4.86055Q8.63141 4.52682 8.11142 4.52682Q7.78545 4.52682 7.47501 4.6898Q7.16456 4.85279 6.96666 5.13219Q6.76875 5.41159 6.76875 5.72979V7.99604Q6.76875 8.05812 6.72218 8.10469Q6.67561 8.15126 6.61353 8.15126Q6.54368 8.15126 6.50099 8.10469Q6.4583 8.05812 6.4583 7.99604V4.43369Q6.4583 4.3716 6.50487 4.32503Q6.55144 4.27846 6.61353 4.27846Q6.68338 4.27846 6.72606 4.32503Q6.76875 4.3716 6.76875 4.43369V4.97696Q6.99382 4.651 7.35471 4.44145Q7.7156 4.2319 8.11142 4.2319Q8.53828 4.2319 8.87201 4.44921Q9.20574 4.66652 9.36096 5.08562Q9.52394 4.72861 9.97797 4.48025Q10.432 4.2319 10.8666 4.2319Q11.5341 4.2319 11.8794 4.651Q12.2248 5.0701 12.2248 5.73755ZM17.1143 6.21098Q17.1143 6.76978 16.8776 7.22381Q16.6409 7.67783 16.2295 7.93783Q15.8182 8.19782 15.3137 8.19782Q14.8481 8.19782 14.46 7.96499Q14.072 7.73216 13.8236 7.3053V9.54826Q13.8236 9.61035 13.7809 9.65691Q13.7382 9.70348 13.6684 9.70348Q13.6063 9.70348 13.5597 9.65691Q13.5132 9.61035 13.5132 9.54826V4.38712Q13.5132 4.32503 13.5558 4.27846Q13.5985 4.2319 13.6684 4.2319Q13.7382 4.2319 13.7809 4.27846Q13.8236 4.32503 13.8236 4.38712V5.10114Q14.0564 4.65876 14.4445 4.44533Q14.8325 4.2319 15.3137 4.2319Q15.826 4.2319 16.2373 4.48801Q16.6486 4.74413 16.8815 5.19428Q17.1143 5.64442 17.1143 6.21098ZM16.8039 6.21098Q16.8039 5.72979 16.606 5.34562Q16.408 4.96144 16.0666 4.74413Q15.7251 4.52682 15.2982 4.52682Q14.8636 4.52682 14.5182 4.74025Q14.1728 4.95368 13.9827 5.33786Q13.7926 5.72203 13.7926 6.21098Q13.7926 6.69993 13.9827 7.08411Q14.1728 7.46828 14.5182 7.68559Q14.8636 7.9029 15.2982 7.9029Q15.7251 7.9029 16.0666 7.68559Q16.408 7.46828 16.606 7.08022Q16.8039 6.69217 16.8039 6.21098ZM21.4605 4.43369V7.99604Q21.4605 8.05812 21.414 8.10469Q21.3674 8.15126 21.3053 8.15126Q21.2355 8.15126 21.1928 8.10469Q21.1501 8.05812 21.1501 7.99604V7.29754Q20.9561 7.69335 20.5525 7.96111Q20.1489 8.22887 19.66 8.22887Q19.1477 8.22887 18.7364 7.96111Q18.325 7.69335 18.0922 7.22381Q17.8594 6.75426 17.8594 6.17217Q17.8594 5.59785 18.0961 5.13607Q18.3328 4.67428 18.7441 4.41428Q19.1555 4.15429 19.66 4.15429Q20.1644 4.15429 20.568 4.41816Q20.9716 4.68204 21.1501 5.12443V4.43369Q21.1501 4.3716 21.1928 4.32503Q21.2355 4.27846 21.3053 4.27846Q21.3752 4.27846 21.4178 4.32503Q21.4605 4.3716 21.4605 4.43369ZM21.1811 6.17217Q21.1811 5.69875 20.9871 5.30293Q20.7931 4.90711 20.4477 4.67816Q20.1023 4.44921 19.6755 4.44921Q19.2486 4.44921 18.9032 4.6704Q18.5579 4.89159 18.3638 5.28353Q18.1698 5.67546 18.1698 6.17217Q18.1698 6.66889 18.3638 7.07246Q18.5579 7.47604 18.8994 7.70499Q19.2409 7.93395 19.6755 7.93395Q20.1023 7.93395 20.4477 7.70499Q20.7931 7.47604 20.9871 7.07246Q21.1811 6.66889 21.1811 6.17217ZM24.3399 4.39488Q24.3399 4.45697 24.2972 4.49966Q24.2545 4.54234 24.1924 4.54234H23.3387V7.3053Q23.3387 7.64679 23.459 7.75932Q23.5793 7.87186 23.7656 7.87186Q23.7966 7.87186 23.8548 7.85634Q23.913 7.84081 23.9518 7.84081Q24.0062 7.84081 24.045 7.8835Q24.0838 7.92619 24.0838 7.98051Q24.0838 8.05036 23.9907 8.10081Q23.8975 8.15126 23.7733 8.15126Q23.5793 8.15126 23.4474 8.12409Q23.3154 8.09693 23.1719 7.91454Q23.0283 7.73216 23.0283 7.32082V4.54234H22.3919Q22.3375 4.54234 22.291 4.49578Q22.2444 4.44921 22.2444 4.39488Q22.2444 4.33279 22.2871 4.29011Q22.3298 4.24742 22.3919 4.24742H23.0283V3.26176Q23.0283 3.19967 23.0748 3.1531Q23.1214 3.10654 23.1835 3.10654Q23.2533 3.10654 23.296 3.1531Q23.3387 3.19967 23.3387 3.26176V4.24742H24.1924Q24.2468 4.24742 24.2933 4.29399Q24.3399 4.34055 24.3399 4.39488ZM28.2748 5.72979V7.99604Q28.2748 8.05812 28.2282 8.10469Q28.1817 8.15126 28.1196 8.15126Q28.0497 8.15126 28.007 8.10469Q27.9643 8.05812 27.9643 7.99604V5.72979Q27.9643 5.19427 27.7005 4.86055Q27.4366 4.52682 26.8933 4.52682Q26.5596 4.52682 26.2375 4.6898Q25.9154 4.85279 25.7136 5.13219Q25.5118 5.41159 25.5118 5.72979V7.99604Q25.5118 8.05812 25.4653 8.10469Q25.4187 8.15126 25.3566 8.15126Q25.2868 8.15126 25.2441 8.10469Q25.2014 8.05812 25.2014 7.99604V2.56326Q25.2014 2.50117 25.248 2.4546Q25.2945 2.40804 25.3566 2.40804Q25.4265 2.40804 25.4691 2.4546Q25.5118 2.50117 25.5118 2.56326V5.01577Q25.7291 4.67428 26.1133 4.45309Q26.4975 4.2319 26.8933 4.2319Q27.5608 4.2319 27.9178 4.65488Q28.2748 5.07786 28.2748 5.72979Z" style="display:inline;stroke:#000000;stroke-width:0.35;stroke-linecap:round;stroke-linejoin:bevel" />
    </g>
</svg>
