<?xml version="1.0" encoding="utf-8"?>
<svg xmlns="http://www.w3.org/2000/svg" width="30.48mm" height="128.50mm" viewBox="0 0 30.48 128.50">
    <g id="PanelLayer">
        <defs>
            <linearGradient id="gradient_controls" x1="0" y1="6.5" x2="0" y2="51.5" gradientUnits="userSpaceOnUse">
                <stop style="stop-color:#3068ff;stop-opacity:1;" offset="0" />
                <stop style="stop-color:#4f8df2;stop-opacity:1;" offset="1" />
            </linearGradient>
            <linearGradient id="gradient_output" x1="0" y1="83.5" x2="0" y2="99.5" gradientUnits="userSpaceOnUse">
                <stop style="stop-color:#a06de4;stop-opacity:1;" offset="0" />
                <stop style="stop-color:#4f8df2;stop-opacity:1;" offset="1" />
            </linearGradient>
        </defs>
        <rect id="border_rect" width="30.48" height="128.5" x="0" y="0" style="display:inline;fill:#4f8df2;fill-opacity:1;stroke:none;" />
        <path id="controls_art" d="M 0.38,51.50 L 0.38,10.50 A 4 4 0 0 1 4.38 6.5 L 26.10,6.50 A 4 4 0 0 1 30.1 10.5 L 30.10,6.50 L 30.10,51.50 z" style="fill:url(#gradient_controls);fill-opacity:1;stroke-width:0;" />
        <path id="output_art" d="M 0.38,99.50 L 0.38,87.50 A 4 4 0 0 1 4.38 83.5 L 26.10,83.50 A 4 4 0 0 1 30.1 87.5 L 30.10,83.50 L 30.10,99.50 z" style="fill:url(#gradient_output);fill-opacity:1;stroke-width:0;" />
        <path d="M 6.24,16.00 L 24.24,16.00 z " style="stroke:#000000;stroke-width:0.25;stroke-linecap:round;stroke-linejoin:bevel;stroke-dasharray:none" />
        <path d="M11.5058 8.84994V11.1783Q11.5058 11.2065 11.4829 11.2277Q11.46 11.2488 11.4318 11.2488Q11.4 11.2488 11.3788 11.2277Q11.3577 11.2065 11.3577 11.1783V9.06867L10.4475 10.4445Q10.4299 10.4727 10.3981 10.4727Q10.3593 10.4727 10.3417 10.4445L9.42799 9.06514V11.1783Q9.42799 11.2065 9.40682 11.2277Q9.38565 11.2488 9.35743 11.2488Q9.32568 11.2488 9.30628 11.2277Q9.28688 11.2065 9.28688 11.1783V8.84994Q9.28688 8.82525 9.30628 8.80232Q9.32568 8.77939 9.3539 8.77939Q9.39976 8.77939 9.42093 8.81114L10.3981 10.2646L11.3753 8.81114Q11.4035 8.77233 11.4423 8.77939Q11.4706 8.78292 11.4882 8.80232Q11.5058 8.82172 11.5058 8.84994ZM13.2133 11.2841Q12.8711 11.2841 12.603 11.1236Q12.3349 10.9631 12.1849 10.6738Q12.035 10.3845 12.035 10.0141Q12.035 9.64369 12.1849 9.35442Q12.3349 9.06514 12.603 8.90462Q12.8711 8.74411 13.2133 8.74411Q13.5555 8.74411 13.8236 8.90462Q14.0917 9.06514 14.2416 9.35442Q14.3916 9.64369 14.3916 10.0141Q14.3916 10.3845 14.2416 10.6738Q14.0917 10.9631 13.8236 11.1236Q13.5555 11.2841 13.2133 11.2841ZM13.2133 8.88522Q12.9134 8.88522 12.6788 9.02633Q12.4442 9.16744 12.3137 9.42497Q12.1832 9.6825 12.1832 10.0141Q12.1832 10.3457 12.3137 10.6033Q12.4442 10.8608 12.6788 11.0019Q12.9134 11.143 13.2133 11.143Q13.5132 11.143 13.7477 11.0019Q13.9823 10.8608 14.1129 10.6033Q14.2434 10.3457 14.2434 10.0141Q14.2434 9.6825 14.1129 9.42497Q13.9823 9.16744 13.7477 9.02633Q13.5132 8.88522 13.2133 8.88522ZM16.7164 11.1747Q16.7164 11.2065 16.697 11.2259Q16.6776 11.2453 16.6493 11.2453Q16.6282 11.2453 16.6176 11.2383Q16.5223 11.1853 16.4659 11.0601Q16.4095 10.9349 16.4095 10.6491Q16.4095 10.3598 16.2542 10.2522Q16.099 10.1446 15.8944 10.1446H15.0689V11.1783Q15.0689 11.2065 15.0477 11.2277Q15.0266 11.2488 14.9948 11.2488Q14.9631 11.2488 14.9419 11.2277Q14.9207 11.2065 14.9207 11.1783V8.84994Q14.9207 8.82172 14.9419 8.80056Q14.9631 8.77939 14.9913 8.77939H15.9226Q16.1272 8.77939 16.286 8.86229Q16.4447 8.94519 16.5329 9.08983Q16.6211 9.23447 16.6211 9.41792Q16.6211 9.65428 16.4959 9.82361Q16.3707 9.99294 16.1696 10.0529Q16.3389 10.1058 16.4483 10.2628Q16.5576 10.4198 16.5576 10.6491Q16.5576 10.8855 16.5876 10.979Q16.6176 11.0724 16.6776 11.1113Q16.7164 11.1359 16.7164 11.1747ZM15.9403 10.0035Q16.1625 9.98236 16.3177 9.82714Q16.473 9.67192 16.473 9.42144Q16.473 9.20272 16.3177 9.06161Q16.1625 8.9205 15.905 8.9205H15.0689V10.0035ZM18.8472 9.45319Q18.8472 9.65075 18.7642 9.81126Q18.6813 9.97178 18.5297 10.0617Q18.378 10.1517 18.1804 10.1517H17.4113V11.1783Q17.4113 11.2065 17.3884 11.2277Q17.3655 11.2488 17.3373 11.2488Q17.3055 11.2488 17.2843 11.2277Q17.2632 11.2065 17.2632 11.1783V8.84994Q17.2632 8.82172 17.2843 8.80056Q17.3055 8.77939 17.3337 8.77939H18.1804Q18.4803 8.77939 18.6637 8.96636Q18.8472 9.15333 18.8472 9.45319ZM18.699 9.45319Q18.699 9.20978 18.5596 9.06514Q18.4203 8.9205 18.1804 8.9205H17.4113V10.0106H18.1804Q18.4168 10.0106 18.5579 9.8536Q18.699 9.69661 18.699 9.45319ZM21.1931 8.85347V11.1747Q21.1896 11.2065 21.1684 11.2277Q21.1473 11.2488 21.119 11.2488Q21.0838 11.2488 21.0644 11.2277Q21.045 11.2065 21.045 11.1747V10.0494H19.5068V11.1747Q19.5033 11.2065 19.4822 11.2277Q19.461 11.2488 19.4328 11.2488Q19.3975 11.2488 19.3781 11.2277Q19.3587 11.2065 19.3587 11.1747V8.85347Q19.3587 8.82172 19.3798 8.80056Q19.401 8.77939 19.4328 8.77939Q19.4645 8.77939 19.4857 8.80056Q19.5068 8.82172 19.5068 8.85347V9.90828H21.045V8.85347Q21.045 8.82172 21.0661 8.80056Q21.0873 8.77939 21.119 8.77939Q21.1508 8.77939 21.172 8.80056Q21.1931 8.82172 21.1931 8.85347Z" style="stroke:#000000;stroke-width:0.25;stroke-linecap:round;stroke-linejoin:bevel" />
        <path d="M 6.24,30.75 L 24.24,30.75 z " style="stroke:#000000;stroke-width:0.25;stroke-linecap:round;stroke-linejoin:bevel;stroke-dasharray:none" />
        <path d="M12.513 23.5999Q12.513 23.6317 12.4919 23.6511Q12.4707 23.6705 12.4425 23.6705H11.1831V24.6442H12.2837Q12.3119 24.6442 12.3331 24.6653Q12.3543 24.6865 12.3543 24.7147Q12.3543 24.7465 12.3331 24.7659Q12.3119 24.7853 12.2837 24.7853H11.1831V25.9283Q11.1831 25.9565 11.1637 25.9777Q11.1443 25.9988 11.1125 25.9988Q11.0808 25.9988 11.0613 25.9777Q11.0419 25.9565 11.0419 25.9283V23.5999Q11.0419 23.5717 11.0631 23.5506Q11.0843 23.5294 11.1125 23.5294H12.4425Q12.4707 23.5294 12.4919 23.5506Q12.513 23.5717 12.513 23.5999ZM14.8378 25.9247Q14.8378 25.9565 14.8184 25.9759Q14.799 25.9953 14.7708 25.9953Q14.7496 25.9953 14.7391 25.9883Q14.6438 25.9353 14.5874 25.8101Q14.5309 25.6849 14.5309 25.3991Q14.5309 25.1098 14.3757 25.0022Q14.2205 24.8946 14.0159 24.8946H13.1904V25.9283Q13.1904 25.9565 13.1692 25.9777Q13.148 25.9988 13.1163 25.9988Q13.0845 25.9988 13.0634 25.9777Q13.0422 25.9565 13.0422 25.9283V23.5999Q13.0422 23.5717 13.0634 23.5506Q13.0845 23.5294 13.1128 23.5294H14.0441Q14.2487 23.5294 14.4074 23.6123Q14.5662 23.6952 14.6544 23.8398Q14.7426 23.9845 14.7426 24.1679Q14.7426 24.4043 14.6173 24.5736Q14.4921 24.7429 14.291 24.8029Q14.4604 24.8558 14.5697 25.0128Q14.6791 25.1698 14.6791 25.3991Q14.6791 25.6355 14.7091 25.729Q14.7391 25.8224 14.799 25.8613Q14.8378 25.8859 14.8378 25.9247ZM14.0617 24.7535Q14.284 24.7324 14.4392 24.5771Q14.5944 24.4219 14.5944 24.1714Q14.5944 23.9527 14.4392 23.8116Q14.284 23.6705 14.0264 23.6705H13.1904V24.7535ZM16.8557 25.9283Q16.8557 25.96 16.8346 25.9794Q16.8134 25.9988 16.7852 25.9988H15.4552Q15.427 25.9988 15.4058 25.9777Q15.3846 25.9565 15.3846 25.9283V23.5999Q15.3846 23.5717 15.4058 23.5506Q15.427 23.5294 15.4552 23.5294H16.7852Q16.8134 23.5294 16.8346 23.5506Q16.8557 23.5717 16.8557 23.5999Q16.8557 23.6317 16.8346 23.6511Q16.8134 23.6705 16.7852 23.6705H15.5328V24.6547H16.6264Q16.6546 24.6547 16.6758 24.6759Q16.697 24.6971 16.697 24.7253Q16.697 24.7571 16.6758 24.7765Q16.6546 24.7959 16.6264 24.7959H15.5328V25.8577H16.7852Q16.8134 25.8577 16.8346 25.8789Q16.8557 25.9001 16.8557 25.9283ZM19.8438 26.2881Q19.8438 26.3551 19.745 26.4239Q19.6462 26.4927 19.4998 26.5368Q19.3534 26.5809 19.2229 26.5809Q19.0288 26.5809 18.8948 26.5386Q18.7607 26.4962 18.5879 26.4116Q18.4432 26.3375 18.3374 26.3022Q18.2316 26.2669 18.094 26.2669Q18.0446 26.2669 18.004 26.2793Q17.9634 26.2916 17.907 26.3163Q17.8435 26.3446 17.8223 26.3446Q17.7941 26.3446 17.7729 26.3234Q17.7518 26.3022 17.7518 26.2705Q17.7518 26.2281 17.7906 26.2105L18.3056 26.0306Q17.9846 26.0129 17.7359 25.8471Q17.4872 25.6813 17.3478 25.4009Q17.2085 25.1204 17.2085 24.7641Q17.2085 24.3937 17.3584 24.1044Q17.5084 23.8151 17.7765 23.6546Q18.0446 23.4941 18.3868 23.4941Q18.729 23.4941 18.9971 23.6546Q19.2652 23.8151 19.4151 24.1044Q19.5651 24.3937 19.5651 24.7641Q19.5651 25.0816 19.4539 25.3391Q19.3428 25.5967 19.14 25.7695Q18.9371 25.9424 18.6725 26.0024L18.2386 26.1435Q18.348 26.1541 18.4415 26.1893Q18.5349 26.2246 18.6655 26.2881Q18.8348 26.3693 18.9512 26.4081Q19.0676 26.4469 19.2229 26.4469Q19.3534 26.4469 19.4469 26.4133Q19.5404 26.3798 19.6286 26.3304Q19.6568 26.3163 19.6956 26.2775Q19.7168 26.2564 19.7397 26.2422Q19.7626 26.2281 19.7838 26.2281Q19.812 26.2281 19.8279 26.244Q19.8438 26.2599 19.8438 26.2881ZM18.3868 25.893Q18.6866 25.893 18.9212 25.7519Q19.1558 25.6108 19.2864 25.3532Q19.4169 25.0957 19.4169 24.7641Q19.4169 24.4325 19.2864 24.175Q19.1558 23.9174 18.9212 23.7763Q18.6866 23.6352 18.3868 23.6352Q18.0869 23.6352 17.8523 23.7763Q17.6177 23.9174 17.4872 24.175Q17.3567 24.4325 17.3567 24.7641Q17.3567 25.0957 17.4872 25.3532Q17.6177 25.6108 17.8523 25.7519Q18.0869 25.893 18.3868 25.893Z" style="stroke:#000000;stroke-width:0.25;stroke-linecap:round;stroke-linejoin:bevel" />
        <path d="M 6.24,45.50 L 24.24,45.50 z " style="stroke:#000000;stroke-width:0.25;stroke-linecap:round;stroke-linejoin:bevel;stroke-dasharray:none" />
        <path d="M14.2469 40.6747Q14.2469 40.7065 14.2275 40.7259Q14.2081 40.7453 14.1799 40.7453Q14.1587 40.7453 14.1482 40.7382Q14.0529 40.6853 13.9965 40.5601Q13.94 40.4349 13.94 40.1491Q13.94 39.8598 13.7848 39.7522Q13.6296 39.6446 13.425 39.6446H12.5995V40.6783Q12.5995 40.7065 12.5783 40.7277Q12.5571 40.7488 12.5254 40.7488Q12.4936 40.7488 12.4725 40.7277Q12.4513 40.7065 12.4513 40.6783V38.3499Q12.4513 38.3217 12.4725 38.3006Q12.4936 38.2794 12.5218 38.2794H13.4532Q13.6578 38.2794 13.8165 38.3623Q13.9753 38.4452 14.0635 38.5898Q14.1517 38.7345 14.1517 38.9179Q14.1517 39.1543 14.0264 39.3236Q13.9012 39.4929 13.7001 39.5529Q13.8695 39.6058 13.9788 39.7628Q14.0882 39.9198 14.0882 40.1491Q14.0882 40.3855 14.1182 40.479Q14.1482 40.5724 14.2081 40.6112Q14.2469 40.6359 14.2469 40.6747ZM13.4708 39.5035Q13.6931 39.4824 13.8483 39.3271Q14.0035 39.1719 14.0035 38.9214Q14.0035 38.7027 13.8483 38.5616Q13.6931 38.4205 13.4355 38.4205H12.5995V39.5035ZM16.2648 40.6783Q16.2648 40.71 16.2437 40.7294Q16.2225 40.7488 16.1943 40.7488H14.8643Q14.8361 40.7488 14.8149 40.7277Q14.7937 40.7065 14.7937 40.6783V38.3499Q14.7937 38.3217 14.8149 38.3006Q14.8361 38.2794 14.8643 38.2794H16.1943Q16.2225 38.2794 16.2437 38.3006Q16.2648 38.3217 16.2648 38.3499Q16.2648 38.3817 16.2437 38.4011Q16.2225 38.4205 16.1943 38.4205H14.9419V39.4047H16.0355Q16.0637 39.4047 16.0849 39.4259Q16.1061 39.4471 16.1061 39.4753Q16.1061 39.5071 16.0849 39.5265Q16.0637 39.5459 16.0355 39.5459H14.9419V40.6077H16.1943Q16.2225 40.6077 16.2437 40.6289Q16.2648 40.6501 16.2648 40.6783ZM16.5858 40.4137Q16.5647 40.3925 16.5647 40.3608Q16.5647 40.3326 16.5894 40.3061Q16.6141 40.2796 16.6423 40.2796Q16.674 40.2796 16.7023 40.3114Q16.8398 40.4737 17.0286 40.5583Q17.2173 40.643 17.4255 40.643Q17.6971 40.643 17.8735 40.5125Q18.0499 40.3819 18.0499 40.1667Q18.0463 39.9974 17.9582 39.8881Q17.87 39.7787 17.7412 39.7134Q17.6124 39.6482 17.3902 39.567Q17.1468 39.4753 17.0109 39.4047Q16.8751 39.3342 16.7781 39.2037Q16.6811 39.0731 16.6811 38.8615Q16.6811 38.6886 16.7763 38.5475Q16.8716 38.4064 17.048 38.3252Q17.2244 38.2441 17.4572 38.2441Q17.6653 38.2441 17.8523 38.32Q18.0393 38.3958 18.1487 38.5334Q18.1839 38.5828 18.1839 38.6075Q18.1839 38.6357 18.1575 38.6586Q18.131 38.6816 18.0993 38.6816Q18.071 38.6816 18.0534 38.6604Q17.9546 38.5334 17.7994 38.4593Q17.6442 38.3852 17.4572 38.3852Q17.1891 38.3852 17.0109 38.5122Q16.8328 38.6392 16.8328 38.8579Q16.8328 39.0096 16.9192 39.1155Q17.0057 39.2213 17.1362 39.2866Q17.2667 39.3518 17.4607 39.4224Q17.7077 39.5106 17.8523 39.5847Q17.997 39.6587 18.0993 39.7999Q18.2016 39.941 18.2016 40.1738Q18.2016 40.3361 18.1063 40.4772Q18.0111 40.6183 17.8329 40.7012Q17.6548 40.7841 17.4255 40.7841Q17.1644 40.7841 16.9704 40.6942Q16.7763 40.6042 16.5858 40.4137Z" style="stroke:#000000;stroke-width:0.25;stroke-linecap:round;stroke-linejoin:bevel" />
        <path d="M 6.24,60.25 L 24.24,60.25 z " style="stroke:#000000;stroke-width:0.25;stroke-linecap:round;stroke-linejoin:bevel;stroke-dasharray:none" />
        <path d="M13.0016 53.2904Q13.0016 53.3187 12.9875 53.3363Q12.9663 53.3645 12.9346 53.3645Q12.9205 53.3645 12.8923 53.3504Q12.5642 53.1282 12.1973 53.1282Q11.901 53.1282 11.6523 53.2746Q11.4035 53.421 11.2589 53.6803Q11.1143 53.9396 11.1143 54.2641Q11.1143 54.5887 11.2589 54.848Q11.4035 55.1072 11.6523 55.2537Q11.901 55.4001 12.1973 55.4001Q12.5677 55.4001 12.8887 55.1813Q12.9064 55.1672 12.9311 55.1672Q12.9663 55.1672 12.9875 55.1954Q13.0016 55.2131 13.0016 55.2378Q13.0016 55.2731 12.9734 55.2942Q12.8358 55.393 12.6189 55.4636Q12.4019 55.5341 12.1973 55.5341Q11.8622 55.5341 11.5799 55.3683Q11.2977 55.2025 11.1319 54.9115Q10.9661 54.6204 10.9661 54.2641Q10.9661 53.9078 11.1319 53.6168Q11.2977 53.3257 11.5799 53.1599Q11.8622 52.9941 12.1973 52.9941Q12.409 52.9941 12.6083 53.0576Q12.8076 53.1211 12.9699 53.234Q13.0016 53.2587 13.0016 53.2904ZM15.2912 55.4318Q15.2912 55.4636 15.27 55.4812Q15.2488 55.4988 15.2171 55.4988Q15.1924 55.4988 15.173 55.4865Q15.1536 55.4741 15.1465 55.453L14.8502 54.7263L14.8537 54.7333H13.6719L13.3862 55.453Q13.3685 55.4988 13.3227 55.4988Q13.2909 55.4988 13.2715 55.4812Q13.2521 55.4636 13.2486 55.4389Q13.245 55.4247 13.2521 55.4036L14.2011 53.0682Q14.2117 53.04 14.2275 53.0312Q14.2434 53.0223 14.2681 53.0223Q14.321 53.0223 14.3387 53.0682L15.2876 55.4036Q15.2912 55.4142 15.2912 55.4318ZM13.7283 54.5922H14.7973L14.2575 53.2622ZM15.5593 55.1637Q15.5381 55.1425 15.5381 55.1108Q15.5381 55.0826 15.5628 55.0561Q15.5875 55.0296 15.6157 55.0296Q15.6475 55.0296 15.6757 55.0614Q15.8133 55.2237 16.002 55.3083Q16.1907 55.393 16.3989 55.393Q16.6705 55.393 16.8469 55.2625Q17.0233 55.1319 17.0233 54.9167Q17.0198 54.7474 16.9316 54.6381Q16.8434 54.5287 16.7146 54.4634Q16.5858 54.3982 16.3636 54.317Q16.1202 54.2253 15.9844 54.1547Q15.8485 54.0842 15.7515 53.9537Q15.6545 53.8231 15.6545 53.6115Q15.6545 53.4386 15.7498 53.2975Q15.845 53.1564 16.0214 53.0752Q16.1978 52.9941 16.4306 52.9941Q16.6388 52.9941 16.8257 53.07Q17.0127 53.1458 17.1221 53.2834Q17.1573 53.3328 17.1573 53.3575Q17.1573 53.3857 17.1309 53.4086Q17.1044 53.4316 17.0727 53.4316Q17.0445 53.4316 17.0268 53.4104Q16.928 53.2834 16.7728 53.2093Q16.6176 53.1352 16.4306 53.1352Q16.1625 53.1352 15.9844 53.2622Q15.8062 53.3892 15.8062 53.6079Q15.8062 53.7596 15.8926 53.8655Q15.9791 53.9713 16.1096 54.0366Q16.2401 54.1018 16.4342 54.1724Q16.6811 54.2606 16.8257 54.3347Q16.9704 54.4087 17.0727 54.5499Q17.175 54.691 17.175 54.9238Q17.175 55.0861 17.0797 55.2272Q16.9845 55.3683 16.8063 55.4512Q16.6282 55.5341 16.3989 55.5341Q16.1378 55.5341 15.9438 55.4442Q15.7498 55.3542 15.5593 55.1637ZM19.5668 53.2904Q19.5668 53.3187 19.5527 53.3363Q19.5315 53.3645 19.4998 53.3645Q19.4857 53.3645 19.4575 53.3504Q19.1294 53.1282 18.7625 53.1282Q18.4662 53.1282 18.2174 53.2746Q17.9687 53.421 17.8241 53.6803Q17.6795 53.9396 17.6795 54.2641Q17.6795 54.5887 17.8241 54.848Q17.9687 55.1072 18.2174 55.2537Q18.4662 55.4001 18.7625 55.4001Q19.1329 55.4001 19.4539 55.1813Q19.4716 55.1672 19.4963 55.1672Q19.5315 55.1672 19.5527 55.1954Q19.5668 55.2131 19.5668 55.2378Q19.5668 55.2731 19.5386 55.2942Q19.401 55.393 19.1841 55.4636Q18.9671 55.5341 18.7625 55.5341Q18.4273 55.5341 18.1451 55.3683Q17.8629 55.2025 17.6971 54.9115Q17.5313 54.6204 17.5313 54.2641Q17.5313 53.9078 17.6971 53.6168Q17.8629 53.3257 18.1451 53.1599Q18.4273 52.9941 18.7625 52.9941Q18.9742 52.9941 19.1735 53.0576Q19.3728 53.1211 19.5351 53.234Q19.5668 53.2587 19.5668 53.2904Z" style="stroke:#000000;stroke-width:0.25;stroke-linecap:round;stroke-linejoin:bevel" />
        <path d="M 15.24,93.00 L 15.24,103.00 " style="stroke:#000000;stroke-width:0.25;stroke-linecap:round;stroke-linejoin:bevel;stroke-dasharray:none" fill="none" />
        <path d="M12.9275 87.7841Q12.5853 87.7841 12.3172 87.6236Q12.0491 87.4631 11.8992 87.1738Q11.7493 86.8845 11.7493 86.5141Q11.7493 86.1437 11.8992 85.8544Q12.0491 85.5651 12.3172 85.4046Q12.5853 85.2441 12.9275 85.2441Q13.2697 85.2441 13.5378 85.4046Q13.806 85.5651 13.9559 85.8544Q14.1058 86.1437 14.1058 86.5141Q14.1058 86.8845 13.9559 87.1738Q13.806 87.4631 13.5378 87.6236Q13.2697 87.7841 12.9275 87.7841ZM12.9275 85.3852Q12.6277 85.3852 12.3931 85.5263Q12.1585 85.6674 12.028 85.925Q11.8974 86.1825 11.8974 86.5141Q11.8974 86.8457 12.028 87.1033Q12.1585 87.3608 12.3931 87.5019Q12.6277 87.643 12.9275 87.643Q13.2274 87.643 13.462 87.5019Q13.6966 87.3608 13.8271 87.1033Q13.9577 86.8457 13.9577 86.5141Q13.9577 86.1825 13.8271 85.925Q13.6966 85.6674 13.462 85.5263Q13.2274 85.3852 12.9275 85.3852ZM16.4518 85.3499V86.8739Q16.4518 87.1209 16.3283 87.329Q16.2048 87.5372 15.9967 87.6606Q15.7886 87.7841 15.5452 87.7841Q15.2982 87.7841 15.0901 87.6606Q14.8819 87.5372 14.7585 87.329Q14.635 87.1209 14.635 86.8739V85.3499Q14.635 85.3182 14.6562 85.2988Q14.6773 85.2794 14.7091 85.2794Q14.7408 85.2794 14.762 85.3006Q14.7832 85.3217 14.7832 85.3499V86.8739Q14.7832 87.0821 14.8855 87.2585Q14.9878 87.4349 15.1624 87.5389Q15.337 87.643 15.5452 87.643Q15.7533 87.643 15.9279 87.5389Q16.1025 87.4349 16.2066 87.2585Q16.3107 87.0821 16.3107 86.8739V85.3499Q16.3107 85.3217 16.3301 85.3006Q16.3495 85.2794 16.3812 85.2794Q16.413 85.2794 16.4324 85.3006Q16.4518 85.3217 16.4518 85.3499ZM18.7837 85.3464Q18.7837 85.3782 18.7642 85.3958Q18.7448 85.4134 18.7131 85.4134H17.9264V87.6783Q17.9264 87.7065 17.9052 87.7277Q17.8841 87.7488 17.8558 87.7488Q17.8241 87.7488 17.8047 87.7277Q17.7853 87.7065 17.7853 87.6783V85.4134H16.9986Q16.9704 85.4134 16.9492 85.394Q16.928 85.3746 16.928 85.3464Q16.928 85.3182 16.9492 85.2988Q16.9704 85.2794 16.9986 85.2794H18.7131Q18.7413 85.2794 18.7625 85.2988Q18.7837 85.3182 18.7837 85.3464Z" style="stroke:#000000;stroke-width:0.25;stroke-linecap:round;stroke-linejoin:bevel" />
    </g>
</svg>
