<?xml version="1.0" encoding="utf-8"?>
<svg xmlns="http://www.w3.org/2000/svg" width="30.48mm" height="128.50mm" viewBox="0 0 30.48 128.50">
    <g id="PanelLayer">
        <rect id="border_rect" width="30.48" height="128.5" x="0" y="0" style="display:inline;fill:#4f8df2;fill-opacity:1;stroke:none;" />
        <path d="M 15.24,93.00 L 15.24,103.00 " style="stroke:#000000;stroke-width:0.25;stroke-linecap:round;stroke-linejoin:bevel;stroke-dasharray:none" fill="none" />
        <path d="M12.9275 87.7841Q12.5853 87.7841 12.3172 87.6236Q12.0491 87.4631 11.8992 87.1738Q11.7493 86.8845 11.7493 86.5141Q11.7493 86.1437 11.8992 85.8544Q12.0491 85.5651 12.3172 85.4046Q12.5853 85.2441 12.9275 85.2441Q13.2697 85.2441 13.5378 85.4046Q13.806 85.5651 13.9559 85.8544Q14.1058 86.1437 14.1058 86.5141Q14.1058 86.8845 13.9559 87.1738Q13.806 87.4631 13.5378 87.6236Q13.2697 87.7841 12.9275 87.7841ZM12.9275 85.3852Q12.6277 85.3852 12.3931 85.5263Q12.1585 85.6674 12.028 85.925Q11.8974 86.1825 11.8974 86.5141Q11.8974 86.8457 12.028 87.1033Q12.1585 87.3608 12.3931 87.5019Q12.6277 87.643 12.9275 87.643Q13.2274 87.643 13.462 87.5019Q13.6966 87.3608 13.8271 87.1033Q13.9577 86.8457 13.9577 86.5141Q13.9577 86.1825 13.8271 85.925Q13.6966 85.6674 13.462 85.5263Q13.2274 85.3852 12.9275 85.3852ZM16.4518 85.3499V86.8739Q16.4518 87.1209 16.3283 87.329Q16.2048 87.5372 15.9967 87.6606Q15.7886 87.7841 15.5452 87.7841Q15.2982 87.7841 15.0901 87.6606Q14.8819 87.5372 14.7585 87.329Q14.635 87.1209 14.635 86.8739V85.3499Q14.635 85.3182 14.6562 85.2988Q14.6773 85.2794 14.7091 85.2794Q14.7408 85.2794 14.762 85.3006Q14.7832 85.3217 14.7832 85.3499V86.8739Q14.7832 87.0821 14.8855 87.2585Q14.9878 87.4349 15.1624 87.5389Q15.337 87.643 15.5452 87.643Q15.7533 87.643 15.9279 87.5389Q16.1025 87.4349 16.2066 87.2585Q16.3107 87.0821 16.3107 86.8739V85.3499Q16.3107 85.3217 16.3301 85.3006Q16.3495 85.2794 16.3812 85.2794Q16.413 85.2794 16.4324 85.3006Q16.4518 85.3217 16.4518 85.3499ZM18.7837 85.3464Q18.7837 85.3782 18.7642 85.3958Q18.7448 85.4134 18.7131 85.4134H17.9264V87.6783Q17.9264 87.7065 17.9052 87.7277Q17.8841 87.7488 17.8558 87.7488Q17.8241 87.7488 17.8047 87.7277Q17.7853 87.7065 17.7853 87.6783V85.4134H16.9986Q16.9704 85.4134 16.9492 85.394Q16.928 85.3746 16.928 85.3464Q16.928 85.3182 16.9492 85.2988Q16.9704 85.2794 16.9986 85.2794H18.7131Q18.7413 85.2794 18.7625 85.2988Q18.7837 85.3182 18.7837 85.3464Z" style="stroke:#000000;stroke-width:0.25;stroke-linecap:round;stroke-linejoin:bevel" />
    </g>
</svg>
