<?xml version="1.0" encoding="utf-8"?>
<svg xmlns="http://www.w3.org/2000/svg" width="30.48mm" height="128.50mm" viewBox="0 0 30.48 128.50">
    <g id="PanelLayer">
        <defs>
            <linearGradient id="gradient_controls" x1="0" y1="10.5" x2="0" y2="53.5" gradientUnits="userSpaceOnUse">
                <stop style="stop-color:#3068ff;stop-opacity:1;" offset="0" />
                <stop style="stop-color:#4f8df2;stop-opacity:1;" offset="1" />
            </linearGradient>
            <linearGradient id="gradient_output" x1="0" y1="83.5" x2="0" y2="99.5" gradientUnits="userSpaceOnUse">
                <stop style="stop-color:#a06de4;stop-opacity:1;" offset="0" />
                <stop style="stop-color:#4f8df2;stop-opacity:1;" offset="1" />
            </linearGradient>
        </defs>
        <rect id="border_rect" width="30.48" height="128.5" x="0" y="0" style="display:inline;fill:#4f8df2;fill-opacity:1;stroke:none;" />
        <path id="controls_art" d="M 0.38,53.50 L 0.38,14.50 A 4 4 0 0 1 4.38 10.5 L 26.10,10.50 A 4 4 0 0 1 30.1 14.5 L 30.10,10.50 L 30.10,53.50 z" style="fill:url(#gradient_controls);fill-opacity:1;stroke-width:0;" />
        <path id="output_art" d="M 0.38,99.50 L 0.38,87.50 A 4 4 0 0 1 4.38 83.5 L 26.10,83.50 A 4 4 0 0 1 30.1 87.5 L 30.10,83.50 L 30.10,99.50 z" style="fill:url(#gradient_output);fill-opacity:1;stroke-width:0;" />
        <path d="M 6.24,20.00 L 24.24,20.00 z " style="stroke:#000000;stroke-width:0.25;stroke-linecap:round;stroke-linejoin:bevel;stroke-dasharray:none" />
        <path d="M11.5058 12.8499V15.1783Q11.5058 15.2065 11.4829 15.2277Q11.46 15.2488 11.4318 15.2488Q11.4 15.2488 11.3788 15.2277Q11.3577 15.2065 11.3577 15.1783V13.0687L10.4475 14.4445Q10.4299 14.4727 10.3981 14.4727Q10.3593 14.4727 10.3417 14.4445L9.42799 13.0651V15.1783Q9.42799 15.2065 9.40682 15.2277Q9.38565 15.2488 9.35743 15.2488Q9.32568 15.2488 9.30628 15.2277Q9.28688 15.2065 9.28688 15.1783V12.8499Q9.28688 12.8253 9.30628 12.8023Q9.32568 12.7794 9.3539 12.7794Q9.39976 12.7794 9.42093 12.8111L10.3981 14.2646L11.3753 12.8111Q11.4035 12.7723 11.4423 12.7794Q11.4706 12.7829 11.4882 12.8023Q11.5058 12.8217 11.5058 12.8499ZM13.2133 15.2841Q12.8711 15.2841 12.603 15.1236Q12.3349 14.9631 12.1849 14.6738Q12.035 14.3845 12.035 14.0141Q12.035 13.6437 12.1849 13.3544Q12.3349 13.0651 12.603 12.9046Q12.8711 12.7441 13.2133 12.7441Q13.5555 12.7441 13.8236 12.9046Q14.0917 13.0651 14.2416 13.3544Q14.3916 13.6437 14.3916 14.0141Q14.3916 14.3845 14.2416 14.6738Q14.0917 14.9631 13.8236 15.1236Q13.5555 15.2841 13.2133 15.2841ZM13.2133 12.8852Q12.9134 12.8852 12.6788 13.0263Q12.4442 13.1674 12.3137 13.425Q12.1832 13.6825 12.1832 14.0141Q12.1832 14.3457 12.3137 14.6033Q12.4442 14.8608 12.6788 15.0019Q12.9134 15.143 13.2133 15.143Q13.5132 15.143 13.7477 15.0019Q13.9823 14.8608 14.1129 14.6033Q14.2434 14.3457 14.2434 14.0141Q14.2434 13.6825 14.1129 13.425Q13.9823 13.1674 13.7477 13.0263Q13.5132 12.8852 13.2133 12.8852ZM16.7164 15.1747Q16.7164 15.2065 16.697 15.2259Q16.6776 15.2453 16.6493 15.2453Q16.6282 15.2453 16.6176 15.2383Q16.5223 15.1853 16.4659 15.0601Q16.4095 14.9349 16.4095 14.6491Q16.4095 14.3598 16.2542 14.2522Q16.099 14.1446 15.8944 14.1446H15.0689V15.1783Q15.0689 15.2065 15.0477 15.2277Q15.0266 15.2488 14.9948 15.2488Q14.9631 15.2488 14.9419 15.2277Q14.9207 15.2065 14.9207 15.1783V12.8499Q14.9207 12.8217 14.9419 12.8006Q14.9631 12.7794 14.9913 12.7794H15.9226Q16.1272 12.7794 16.286 12.8623Q16.4447 12.9452 16.5329 13.0898Q16.6211 13.2345 16.6211 13.4179Q16.6211 13.6543 16.4959 13.8236Q16.3707 13.9929 16.1696 14.0529Q16.3389 14.1058 16.4483 14.2628Q16.5576 14.4198 16.5576 14.6491Q16.5576 14.8855 16.5876 14.979Q16.6176 15.0724 16.6776 15.1113Q16.7164 15.1359 16.7164 15.1747ZM15.9403 14.0035Q16.1625 13.9824 16.3177 13.8271Q16.473 13.6719 16.473 13.4214Q16.473 13.2027 16.3177 13.0616Q16.1625 12.9205 15.905 12.9205H15.0689V14.0035ZM18.8472 13.4532Q18.8472 13.6508 18.7642 13.8113Q18.6813 13.9718 18.5297 14.0617Q18.378 14.1517 18.1804 14.1517H17.4113V15.1783Q17.4113 15.2065 17.3884 15.2277Q17.3655 15.2488 17.3373 15.2488Q17.3055 15.2488 17.2843 15.2277Q17.2632 15.2065 17.2632 15.1783V12.8499Q17.2632 12.8217 17.2843 12.8006Q17.3055 12.7794 17.3337 12.7794H18.1804Q18.4803 12.7794 18.6637 12.9664Q18.8472 13.1533 18.8472 13.4532ZM18.699 13.4532Q18.699 13.2098 18.5596 13.0651Q18.4203 12.9205 18.1804 12.9205H17.4113V14.0106H18.1804Q18.4168 14.0106 18.5579 13.8536Q18.699 13.6966 18.699 13.4532ZM21.1931 12.8535V15.1747Q21.1896 15.2065 21.1684 15.2277Q21.1473 15.2488 21.119 15.2488Q21.0838 15.2488 21.0644 15.2277Q21.045 15.2065 21.045 15.1747V14.0494H19.5068V15.1747Q19.5033 15.2065 19.4822 15.2277Q19.461 15.2488 19.4328 15.2488Q19.3975 15.2488 19.3781 15.2277Q19.3587 15.2065 19.3587 15.1747V12.8535Q19.3587 12.8217 19.3798 12.8006Q19.401 12.7794 19.4328 12.7794Q19.4645 12.7794 19.4857 12.8006Q19.5068 12.8217 19.5068 12.8535V13.9083H21.045V12.8535Q21.045 12.8217 21.0661 12.8006Q21.0873 12.7794 21.119 12.7794Q21.1508 12.7794 21.172 12.8006Q21.1931 12.8217 21.1931 12.8535Z" style="stroke:#000000;stroke-width:0.25;stroke-linecap:round;stroke-linejoin:bevel" />
        <path d="M 6.24,33.75 L 24.24,33.75 z " style="stroke:#000000;stroke-width:0.25;stroke-linecap:round;stroke-linejoin:bevel;stroke-dasharray:none" />
        <path d="M12.513 26.5999Q12.513 26.6317 12.4919 26.6511Q12.4707 26.6705 12.4425 26.6705H11.1831V27.6442H12.2837Q12.3119 27.6442 12.3331 27.6653Q12.3543 27.6865 12.3543 27.7147Q12.3543 27.7465 12.3331 27.7659Q12.3119 27.7853 12.2837 27.7853H11.1831V28.9283Q11.1831 28.9565 11.1637 28.9777Q11.1443 28.9988 11.1125 28.9988Q11.0808 28.9988 11.0613 28.9777Q11.0419 28.9565 11.0419 28.9283V26.5999Q11.0419 26.5717 11.0631 26.5506Q11.0843 26.5294 11.1125 26.5294H12.4425Q12.4707 26.5294 12.4919 26.5506Q12.513 26.5717 12.513 26.5999ZM14.8378 28.9247Q14.8378 28.9565 14.8184 28.9759Q14.799 28.9953 14.7708 28.9953Q14.7496 28.9953 14.7391 28.9883Q14.6438 28.9353 14.5874 28.8101Q14.5309 28.6849 14.5309 28.3991Q14.5309 28.1098 14.3757 28.0022Q14.2205 27.8946 14.0159 27.8946H13.1904V28.9283Q13.1904 28.9565 13.1692 28.9777Q13.148 28.9988 13.1163 28.9988Q13.0845 28.9988 13.0634 28.9777Q13.0422 28.9565 13.0422 28.9283V26.5999Q13.0422 26.5717 13.0634 26.5506Q13.0845 26.5294 13.1128 26.5294H14.0441Q14.2487 26.5294 14.4074 26.6123Q14.5662 26.6952 14.6544 26.8398Q14.7426 26.9845 14.7426 27.1679Q14.7426 27.4043 14.6173 27.5736Q14.4921 27.7429 14.291 27.8029Q14.4604 27.8558 14.5697 28.0128Q14.6791 28.1698 14.6791 28.3991Q14.6791 28.6355 14.7091 28.729Q14.7391 28.8224 14.799 28.8613Q14.8378 28.8859 14.8378 28.9247ZM14.0617 27.7535Q14.284 27.7324 14.4392 27.5771Q14.5944 27.4219 14.5944 27.1714Q14.5944 26.9527 14.4392 26.8116Q14.284 26.6705 14.0264 26.6705H13.1904V27.7535ZM16.8557 28.9283Q16.8557 28.96 16.8346 28.9794Q16.8134 28.9988 16.7852 28.9988H15.4552Q15.427 28.9988 15.4058 28.9777Q15.3846 28.9565 15.3846 28.9283V26.5999Q15.3846 26.5717 15.4058 26.5506Q15.427 26.5294 15.4552 26.5294H16.7852Q16.8134 26.5294 16.8346 26.5506Q16.8557 26.5717 16.8557 26.5999Q16.8557 26.6317 16.8346 26.6511Q16.8134 26.6705 16.7852 26.6705H15.5328V27.6547H16.6264Q16.6546 27.6547 16.6758 27.6759Q16.697 27.6971 16.697 27.7253Q16.697 27.7571 16.6758 27.7765Q16.6546 27.7959 16.6264 27.7959H15.5328V28.8577H16.7852Q16.8134 28.8577 16.8346 28.8789Q16.8557 28.9001 16.8557 28.9283ZM19.8438 29.2881Q19.8438 29.3551 19.745 29.4239Q19.6462 29.4927 19.4998 29.5368Q19.3534 29.5809 19.2229 29.5809Q19.0288 29.5809 18.8948 29.5386Q18.7607 29.4962 18.5879 29.4116Q18.4432 29.3375 18.3374 29.3022Q18.2316 29.2669 18.094 29.2669Q18.0446 29.2669 18.004 29.2793Q17.9634 29.2916 17.907 29.3163Q17.8435 29.3446 17.8223 29.3446Q17.7941 29.3446 17.7729 29.3234Q17.7518 29.3022 17.7518 29.2705Q17.7518 29.2281 17.7906 29.2105L18.3056 29.0306Q17.9846 29.0129 17.7359 28.8471Q17.4872 28.6813 17.3478 28.4009Q17.2085 28.1204 17.2085 27.7641Q17.2085 27.3937 17.3584 27.1044Q17.5084 26.8151 17.7765 26.6546Q18.0446 26.4941 18.3868 26.4941Q18.729 26.4941 18.9971 26.6546Q19.2652 26.8151 19.4151 27.1044Q19.5651 27.3937 19.5651 27.7641Q19.5651 28.0816 19.4539 28.3391Q19.3428 28.5967 19.14 28.7695Q18.9371 28.9424 18.6725 29.0024L18.2386 29.1435Q18.348 29.1541 18.4415 29.1893Q18.5349 29.2246 18.6655 29.2881Q18.8348 29.3693 18.9512 29.4081Q19.0676 29.4469 19.2229 29.4469Q19.3534 29.4469 19.4469 29.4133Q19.5404 29.3798 19.6286 29.3304Q19.6568 29.3163 19.6956 29.2775Q19.7168 29.2564 19.7397 29.2422Q19.7626 29.2281 19.7838 29.2281Q19.812 29.2281 19.8279 29.244Q19.8438 29.2599 19.8438 29.2881ZM18.3868 28.893Q18.6866 28.893 18.9212 28.7519Q19.1558 28.6108 19.2864 28.3532Q19.4169 28.0957 19.4169 27.7641Q19.4169 27.4325 19.2864 27.175Q19.1558 26.9174 18.9212 26.7763Q18.6866 26.6352 18.3868 26.6352Q18.0869 26.6352 17.8523 26.7763Q17.6177 26.9174 17.4872 27.175Q17.3567 27.4325 17.3567 27.7641Q17.3567 28.0957 17.4872 28.3532Q17.6177 28.6108 17.8523 28.7519Q18.0869 28.893 18.3868 28.893Z" style="stroke:#000000;stroke-width:0.25;stroke-linecap:round;stroke-linejoin:bevel" />
        <path d="M 6.24,47.50 L 24.24,47.50 z " style="stroke:#000000;stroke-width:0.25;stroke-linecap:round;stroke-linejoin:bevel;stroke-dasharray:none" />
        <path d="M14.2469 42.6747Q14.2469 42.7065 14.2275 42.7259Q14.2081 42.7453 14.1799 42.7453Q14.1587 42.7453 14.1482 42.7382Q14.0529 42.6853 13.9965 42.5601Q13.94 42.4349 13.94 42.1491Q13.94 41.8598 13.7848 41.7522Q13.6296 41.6446 13.425 41.6446H12.5995V42.6783Q12.5995 42.7065 12.5783 42.7277Q12.5571 42.7488 12.5254 42.7488Q12.4936 42.7488 12.4725 42.7277Q12.4513 42.7065 12.4513 42.6783V40.3499Q12.4513 40.3217 12.4725 40.3006Q12.4936 40.2794 12.5218 40.2794H13.4532Q13.6578 40.2794 13.8165 40.3623Q13.9753 40.4452 14.0635 40.5898Q14.1517 40.7345 14.1517 40.9179Q14.1517 41.1543 14.0264 41.3236Q13.9012 41.4929 13.7001 41.5529Q13.8695 41.6058 13.9788 41.7628Q14.0882 41.9198 14.0882 42.1491Q14.0882 42.3855 14.1182 42.479Q14.1482 42.5724 14.2081 42.6112Q14.2469 42.6359 14.2469 42.6747ZM13.4708 41.5035Q13.6931 41.4824 13.8483 41.3271Q14.0035 41.1719 14.0035 40.9214Q14.0035 40.7027 13.8483 40.5616Q13.6931 40.4205 13.4355 40.4205H12.5995V41.5035ZM16.2648 42.6783Q16.2648 42.71 16.2437 42.7294Q16.2225 42.7488 16.1943 42.7488H14.8643Q14.8361 42.7488 14.8149 42.7277Q14.7937 42.7065 14.7937 42.6783V40.3499Q14.7937 40.3217 14.8149 40.3006Q14.8361 40.2794 14.8643 40.2794H16.1943Q16.2225 40.2794 16.2437 40.3006Q16.2648 40.3217 16.2648 40.3499Q16.2648 40.3817 16.2437 40.4011Q16.2225 40.4205 16.1943 40.4205H14.9419V41.4047H16.0355Q16.0637 41.4047 16.0849 41.4259Q16.1061 41.4471 16.1061 41.4753Q16.1061 41.5071 16.0849 41.5265Q16.0637 41.5459 16.0355 41.5459H14.9419V42.6077H16.1943Q16.2225 42.6077 16.2437 42.6289Q16.2648 42.6501 16.2648 42.6783ZM16.5858 42.4137Q16.5647 42.3925 16.5647 42.3608Q16.5647 42.3326 16.5894 42.3061Q16.6141 42.2796 16.6423 42.2796Q16.674 42.2796 16.7023 42.3114Q16.8398 42.4737 17.0286 42.5583Q17.2173 42.643 17.4255 42.643Q17.6971 42.643 17.8735 42.5125Q18.0499 42.3819 18.0499 42.1667Q18.0463 41.9974 17.9582 41.8881Q17.87 41.7787 17.7412 41.7134Q17.6124 41.6482 17.3902 41.567Q17.1468 41.4753 17.0109 41.4047Q16.8751 41.3342 16.7781 41.2037Q16.6811 41.0731 16.6811 40.8615Q16.6811 40.6886 16.7763 40.5475Q16.8716 40.4064 17.048 40.3252Q17.2244 40.2441 17.4572 40.2441Q17.6653 40.2441 17.8523 40.32Q18.0393 40.3958 18.1487 40.5334Q18.1839 40.5828 18.1839 40.6075Q18.1839 40.6357 18.1575 40.6586Q18.131 40.6816 18.0993 40.6816Q18.071 40.6816 18.0534 40.6604Q17.9546 40.5334 17.7994 40.4593Q17.6442 40.3852 17.4572 40.3852Q17.1891 40.3852 17.0109 40.5122Q16.8328 40.6392 16.8328 40.8579Q16.8328 41.0096 16.9192 41.1155Q17.0057 41.2213 17.1362 41.2866Q17.2667 41.3518 17.4607 41.4224Q17.7077 41.5106 17.8523 41.5847Q17.997 41.6587 18.0993 41.7999Q18.2016 41.941 18.2016 42.1738Q18.2016 42.3361 18.1063 42.4772Q18.0111 42.6183 17.8329 42.7012Q17.6548 42.7841 17.4255 42.7841Q17.1644 42.7841 16.9704 42.6942Q16.7763 42.6042 16.5858 42.4137Z" style="stroke:#000000;stroke-width:0.25;stroke-linecap:round;stroke-linejoin:bevel" />
        <path d="M 6.24,61.25 L 24.24,61.25 z " style="stroke:#000000;stroke-width:0.25;stroke-linecap:round;stroke-linejoin:bevel;stroke-dasharray:none" />
        <path d="M13.0016 54.2904Q13.0016 54.3187 12.9875 54.3363Q12.9663 54.3645 12.9346 54.3645Q12.9205 54.3645 12.8923 54.3504Q12.5642 54.1282 12.1973 54.1282Q11.901 54.1282 11.6523 54.2746Q11.4035 54.421 11.2589 54.6803Q11.1143 54.9396 11.1143 55.2641Q11.1143 55.5887 11.2589 55.848Q11.4035 56.1072 11.6523 56.2537Q11.901 56.4001 12.1973 56.4001Q12.5677 56.4001 12.8887 56.1813Q12.9064 56.1672 12.9311 56.1672Q12.9663 56.1672 12.9875 56.1954Q13.0016 56.2131 13.0016 56.2378Q13.0016 56.2731 12.9734 56.2942Q12.8358 56.393 12.6189 56.4636Q12.4019 56.5341 12.1973 56.5341Q11.8622 56.5341 11.5799 56.3683Q11.2977 56.2025 11.1319 55.9115Q10.9661 55.6204 10.9661 55.2641Q10.9661 54.9078 11.1319 54.6168Q11.2977 54.3257 11.5799 54.1599Q11.8622 53.9941 12.1973 53.9941Q12.409 53.9941 12.6083 54.0576Q12.8076 54.1211 12.9699 54.234Q13.0016 54.2587 13.0016 54.2904ZM15.2912 56.4318Q15.2912 56.4636 15.27 56.4812Q15.2488 56.4988 15.2171 56.4988Q15.1924 56.4988 15.173 56.4865Q15.1536 56.4741 15.1465 56.453L14.8502 55.7263L14.8537 55.7333H13.6719L13.3862 56.453Q13.3685 56.4988 13.3227 56.4988Q13.2909 56.4988 13.2715 56.4812Q13.2521 56.4636 13.2486 56.4389Q13.245 56.4247 13.2521 56.4036L14.2011 54.0682Q14.2117 54.04 14.2275 54.0312Q14.2434 54.0223 14.2681 54.0223Q14.321 54.0223 14.3387 54.0682L15.2876 56.4036Q15.2912 56.4142 15.2912 56.4318ZM13.7283 55.5922H14.7973L14.2575 54.2622ZM15.5593 56.1637Q15.5381 56.1425 15.5381 56.1108Q15.5381 56.0826 15.5628 56.0561Q15.5875 56.0296 15.6157 56.0296Q15.6475 56.0296 15.6757 56.0614Q15.8133 56.2237 16.002 56.3083Q16.1907 56.393 16.3989 56.393Q16.6705 56.393 16.8469 56.2625Q17.0233 56.1319 17.0233 55.9167Q17.0198 55.7474 16.9316 55.6381Q16.8434 55.5287 16.7146 55.4634Q16.5858 55.3982 16.3636 55.317Q16.1202 55.2253 15.9844 55.1547Q15.8485 55.0842 15.7515 54.9537Q15.6545 54.8231 15.6545 54.6115Q15.6545 54.4386 15.7498 54.2975Q15.845 54.1564 16.0214 54.0752Q16.1978 53.9941 16.4306 53.9941Q16.6388 53.9941 16.8257 54.07Q17.0127 54.1458 17.1221 54.2834Q17.1573 54.3328 17.1573 54.3575Q17.1573 54.3857 17.1309 54.4086Q17.1044 54.4316 17.0727 54.4316Q17.0445 54.4316 17.0268 54.4104Q16.928 54.2834 16.7728 54.2093Q16.6176 54.1352 16.4306 54.1352Q16.1625 54.1352 15.9844 54.2622Q15.8062 54.3892 15.8062 54.6079Q15.8062 54.7596 15.8926 54.8655Q15.9791 54.9713 16.1096 55.0366Q16.2401 55.1018 16.4342 55.1724Q16.6811 55.2606 16.8257 55.3347Q16.9704 55.4087 17.0727 55.5499Q17.175 55.691 17.175 55.9238Q17.175 56.0861 17.0797 56.2272Q16.9845 56.3683 16.8063 56.4512Q16.6282 56.5341 16.3989 56.5341Q16.1378 56.5341 15.9438 56.4442Q15.7498 56.3542 15.5593 56.1637ZM19.5668 54.2904Q19.5668 54.3187 19.5527 54.3363Q19.5315 54.3645 19.4998 54.3645Q19.4857 54.3645 19.4575 54.3504Q19.1294 54.1282 18.7625 54.1282Q18.4662 54.1282 18.2174 54.2746Q17.9687 54.421 17.8241 54.6803Q17.6795 54.9396 17.6795 55.2641Q17.6795 55.5887 17.8241 55.848Q17.9687 56.1072 18.2174 56.2537Q18.4662 56.4001 18.7625 56.4001Q19.1329 56.4001 19.4539 56.1813Q19.4716 56.1672 19.4963 56.1672Q19.5315 56.1672 19.5527 56.1954Q19.5668 56.2131 19.5668 56.2378Q19.5668 56.2731 19.5386 56.2942Q19.401 56.393 19.1841 56.4636Q18.9671 56.5341 18.7625 56.5341Q18.4273 56.5341 18.1451 56.3683Q17.8629 56.2025 17.6971 55.9115Q17.5313 55.6204 17.5313 55.2641Q17.5313 54.9078 17.6971 54.6168Q17.8629 54.3257 18.1451 54.1599Q18.4273 53.9941 18.7625 53.9941Q18.9742 53.9941 19.1735 54.0576Q19.3728 54.1211 19.5351 54.234Q19.5668 54.2587 19.5668 54.2904Z" style="stroke:#000000;stroke-width:0.25;stroke-linecap:round;stroke-linejoin:bevel" />
        <path d="M 6.24,75.00 L 24.24,75.00 z " style="stroke:#000000;stroke-width:0.25;stroke-linecap:round;stroke-linejoin:bevel;stroke-dasharray:none" />
        <path d="M11.5499 70.1748Q11.5499 70.2065 11.5305 70.2259Q11.5111 70.2453 11.4829 70.2453Q11.4618 70.2453 11.4512 70.2383Q11.3559 70.1853 11.2995 70.0601Q11.243 69.9349 11.243 69.6491Q11.243 69.3598 11.0878 69.2522Q10.9326 69.1446 10.728 69.1446H9.90247V70.1783Q9.90247 70.2065 9.88131 70.2277Q9.86014 70.2488 9.82839 70.2488Q9.79664 70.2488 9.77547 70.2277Q9.75431 70.2065 9.75431 70.1783V67.8499Q9.75431 67.8217 9.77547 67.8006Q9.79664 67.7794 9.82486 67.7794H10.7562Q10.9608 67.7794 11.1196 67.8623Q11.2783 67.9452 11.3665 68.0898Q11.4547 68.2345 11.4547 68.4179Q11.4547 68.6543 11.3295 68.8236Q11.2042 68.9929 11.0031 69.0529Q11.1725 69.1058 11.2818 69.2628Q11.3912 69.4198 11.3912 69.6491Q11.3912 69.8855 11.4212 69.979Q11.4512 70.0724 11.5111 70.1112Q11.5499 70.1359 11.5499 70.1748ZM10.7738 69.0035Q10.9961 68.9824 11.1513 68.8271Q11.3065 68.6719 11.3065 68.4214Q11.3065 68.2027 11.1513 68.0616Q10.9961 67.9205 10.7386 67.9205H9.90247V69.0035ZM13.0986 70.2841Q12.7564 70.2841 12.4883 70.1236Q12.2202 69.9631 12.0703 69.6738Q11.9204 69.3845 11.9204 69.0141Q11.9204 68.6437 12.0703 68.3544Q12.2202 68.0651 12.4883 67.9046Q12.7564 67.7441 13.0986 67.7441Q13.4408 67.7441 13.7089 67.9046Q13.9771 68.0651 14.127 68.3544Q14.2769 68.6437 14.2769 69.0141Q14.2769 69.3845 14.127 69.6738Q13.9771 69.9631 13.7089 70.1236Q13.4408 70.2841 13.0986 70.2841ZM13.0986 67.8852Q12.7988 67.8852 12.5642 68.0263Q12.3296 68.1674 12.1991 68.425Q12.0685 68.6825 12.0685 69.0141Q12.0685 69.3457 12.1991 69.6033Q12.3296 69.8608 12.5642 70.0019Q12.7988 70.143 13.0986 70.143Q13.3985 70.143 13.6331 70.0019Q13.8677 69.8608 13.9982 69.6033Q14.1288 69.3457 14.1288 69.0141Q14.1288 68.6825 13.9982 68.425Q13.8677 68.1674 13.6331 68.0263Q13.3985 67.8852 13.0986 67.8852ZM16.6229 67.8499V69.3739Q16.6229 69.6209 16.4994 69.829Q16.3759 70.0372 16.1678 70.1606Q15.9597 70.2841 15.7163 70.2841Q15.4693 70.2841 15.2612 70.1606Q15.053 70.0372 14.9296 69.829Q14.8061 69.6209 14.8061 69.3739V67.8499Q14.8061 67.8182 14.8272 67.7988Q14.8484 67.7794 14.8802 67.7794Q14.9119 67.7794 14.9331 67.8006Q14.9543 67.8217 14.9543 67.8499V69.3739Q14.9543 69.5821 15.0566 69.7585Q15.1589 69.9349 15.3335 70.0389Q15.5081 70.143 15.7163 70.143Q15.9244 70.143 16.099 70.0389Q16.2736 69.9349 16.3777 69.7585Q16.4818 69.5821 16.4818 69.3739V67.8499Q16.4818 67.8217 16.5012 67.8006Q16.5206 67.7794 16.5523 67.7794Q16.5841 67.7794 16.6035 67.8006Q16.6229 67.8217 16.6229 67.8499ZM18.9547 67.8464Q18.9547 67.8782 18.9353 67.8958Q18.9159 67.9134 18.8842 67.9134H18.0975V70.1783Q18.0975 70.2065 18.0763 70.2277Q18.0552 70.2488 18.0269 70.2488Q17.9952 70.2488 17.9758 70.2277Q17.9564 70.2065 17.9564 70.1783V67.9134H17.1697Q17.1415 67.9134 17.1203 67.894Q17.0991 67.8746 17.0991 67.8464Q17.0991 67.8182 17.1203 67.7988Q17.1415 67.7794 17.1697 67.7794H18.8842Q18.9124 67.7794 18.9336 67.7988Q18.9547 67.8182 18.9547 67.8464ZM20.9021 70.1783Q20.9021 70.21 20.8809 70.2294Q20.8597 70.2488 20.8315 70.2488H19.5016Q19.4733 70.2488 19.4522 70.2277Q19.431 70.2065 19.431 70.1783V67.8499Q19.431 67.8217 19.4522 67.8006Q19.4733 67.7794 19.5016 67.7794H20.8315Q20.8597 67.7794 20.8809 67.8006Q20.9021 67.8217 20.9021 67.8499Q20.9021 67.8817 20.8809 67.9011Q20.8597 67.9205 20.8315 67.9205H19.5792V68.9048H20.6728Q20.701 68.9048 20.7222 68.9259Q20.7433 68.9471 20.7433 68.9753Q20.7433 69.0071 20.7222 69.0265Q20.701 69.0459 20.6728 69.0459H19.5792V70.1077H20.8315Q20.8597 70.1077 20.8809 70.1289Q20.9021 70.1501 20.9021 70.1783Z" style="stroke:#000000;stroke-width:0.25;stroke-linecap:round;stroke-linejoin:bevel" />
        <path d="M 15.24,93.00 L 15.24,103.00 " style="stroke:#000000;stroke-width:0.25;stroke-linecap:round;stroke-linejoin:bevel;stroke-dasharray:none" fill="none" />
        <path d="M12.9275 87.7841Q12.5853 87.7841 12.3172 87.6236Q12.0491 87.4631 11.8992 87.1738Q11.7493 86.8845 11.7493 86.5141Q11.7493 86.1437 11.8992 85.8544Q12.0491 85.5651 12.3172 85.4046Q12.5853 85.2441 12.9275 85.2441Q13.2697 85.2441 13.5378 85.4046Q13.806 85.5651 13.9559 85.8544Q14.1058 86.1437 14.1058 86.5141Q14.1058 86.8845 13.9559 87.1738Q13.806 87.4631 13.5378 87.6236Q13.2697 87.7841 12.9275 87.7841ZM12.9275 85.3852Q12.6277 85.3852 12.3931 85.5263Q12.1585 85.6674 12.028 85.925Q11.8974 86.1825 11.8974 86.5141Q11.8974 86.8457 12.028 87.1033Q12.1585 87.3608 12.3931 87.5019Q12.6277 87.643 12.9275 87.643Q13.2274 87.643 13.462 87.5019Q13.6966 87.3608 13.8271 87.1033Q13.9577 86.8457 13.9577 86.5141Q13.9577 86.1825 13.8271 85.925Q13.6966 85.6674 13.462 85.5263Q13.2274 85.3852 12.9275 85.3852ZM16.4518 85.3499V86.8739Q16.4518 87.1209 16.3283 87.329Q16.2048 87.5372 15.9967 87.6606Q15.7886 87.7841 15.5452 87.7841Q15.2982 87.7841 15.0901 87.6606Q14.8819 87.5372 14.7585 87.329Q14.635 87.1209 14.635 86.8739V85.3499Q14.635 85.3182 14.6562 85.2988Q14.6773 85.2794 14.7091 85.2794Q14.7408 85.2794 14.762 85.3006Q14.7832 85.3217 14.7832 85.3499V86.8739Q14.7832 87.0821 14.8855 87.2585Q14.9878 87.4349 15.1624 87.5389Q15.337 87.643 15.5452 87.643Q15.7533 87.643 15.9279 87.5389Q16.1025 87.4349 16.2066 87.2585Q16.3107 87.0821 16.3107 86.8739V85.3499Q16.3107 85.3217 16.3301 85.3006Q16.3495 85.2794 16.3812 85.2794Q16.413 85.2794 16.4324 85.3006Q16.4518 85.3217 16.4518 85.3499ZM18.7837 85.3464Q18.7837 85.3782 18.7642 85.3958Q18.7448 85.4134 18.7131 85.4134H17.9264V87.6783Q17.9264 87.7065 17.9052 87.7277Q17.8841 87.7488 17.8558 87.7488Q17.8241 87.7488 17.8047 87.7277Q17.7853 87.7065 17.7853 87.6783V85.4134H16.9986Q16.9704 85.4134 16.9492 85.394Q16.928 85.3746 16.928 85.3464Q16.928 85.3182 16.9492 85.2988Q16.9704 85.2794 16.9986 85.2794H18.7131Q18.7413 85.2794 18.7625 85.2988Q18.7837 85.3182 18.7837 85.3464Z" style="stroke:#000000;stroke-width:0.25;stroke-linecap:round;stroke-linejoin:bevel" />
    </g>
</svg>
