<?xml version="1.0" encoding="utf-8"?>
<svg xmlns="http://www.w3.org/2000/svg" width="30.48mm" height="128.50mm" viewBox="0 0 30.48 128.50">
    <path d="M14.2469 60.1747Q14.2469 60.2065 14.2275 60.2259Q14.2081 60.2453 14.1799 60.2453Q14.1587 60.2453 14.1482 60.2382Q14.0529 60.1853 13.9965 60.0601Q13.94 59.9349 13.94 59.6491Q13.94 59.3598 13.7848 59.2522Q13.6296 59.1446 13.425 59.1446H12.5995V60.1783Q12.5995 60.2065 12.5783 60.2277Q12.5571 60.2488 12.5254 60.2488Q12.4936 60.2488 12.4725 60.2277Q12.4513 60.2065 12.4513 60.1783V57.8499Q12.4513 57.8217 12.4725 57.8006Q12.4936 57.7794 12.5218 57.7794H13.4532Q13.6578 57.7794 13.8165 57.8623Q13.9753 57.9452 14.0635 58.0898Q14.1517 58.2345 14.1517 58.4179Q14.1517 58.6543 14.0264 58.8236Q13.9012 58.9929 13.7001 59.0529Q13.8695 59.1058 13.9788 59.2628Q14.0882 59.4198 14.0882 59.6491Q14.0882 59.8855 14.1182 59.979Q14.1482 60.0724 14.2081 60.1112Q14.2469 60.1359 14.2469 60.1747ZM13.4708 59.0035Q13.6931 58.9824 13.8483 58.8271Q14.0035 58.6719 14.0035 58.4214Q14.0035 58.2027 13.8483 58.0616Q13.6931 57.9205 13.4355 57.9205H12.5995V59.0035ZM16.2648 60.1783Q16.2648 60.21 16.2437 60.2294Q16.2225 60.2488 16.1943 60.2488H14.8643Q14.8361 60.2488 14.8149 60.2277Q14.7937 60.2065 14.7937 60.1783V57.8499Q14.7937 57.8217 14.8149 57.8006Q14.8361 57.7794 14.8643 57.7794H16.1943Q16.2225 57.7794 16.2437 57.8006Q16.2648 57.8217 16.2648 57.8499Q16.2648 57.8817 16.2437 57.9011Q16.2225 57.9205 16.1943 57.9205H14.9419V58.9047H16.0355Q16.0637 58.9047 16.0849 58.9259Q16.1061 58.9471 16.1061 58.9753Q16.1061 59.0071 16.0849 59.0265Q16.0637 59.0459 16.0355 59.0459H14.9419V60.1077H16.1943Q16.2225 60.1077 16.2437 60.1289Q16.2648 60.1501 16.2648 60.1783ZM16.5858 59.9137Q16.5647 59.8925 16.5647 59.8608Q16.5647 59.8326 16.5894 59.8061Q16.6141 59.7796 16.6423 59.7796Q16.674 59.7796 16.7023 59.8114Q16.8398 59.9737 17.0286 60.0583Q17.2173 60.143 17.4255 60.143Q17.6971 60.143 17.8735 60.0125Q18.0499 59.8819 18.0499 59.6667Q18.0463 59.4974 17.9582 59.3881Q17.87 59.2787 17.7412 59.2134Q17.6124 59.1482 17.3902 59.067Q17.1468 58.9753 17.0109 58.9047Q16.8751 58.8342 16.7781 58.7037Q16.6811 58.5731 16.6811 58.3615Q16.6811 58.1886 16.7763 58.0475Q16.8716 57.9064 17.048 57.8252Q17.2244 57.7441 17.4572 57.7441Q17.6653 57.7441 17.8523 57.82Q18.0393 57.8958 18.1487 58.0334Q18.1839 58.0828 18.1839 58.1075Q18.1839 58.1357 18.1575 58.1586Q18.131 58.1816 18.0993 58.1816Q18.071 58.1816 18.0534 58.1604Q17.9546 58.0334 17.7994 57.9593Q17.6442 57.8852 17.4572 57.8852Q17.1891 57.8852 17.0109 58.0122Q16.8328 58.1392 16.8328 58.3579Q16.8328 58.5096 16.9192 58.6155Q17.0057 58.7213 17.1362 58.7866Q17.2667 58.8518 17.4607 58.9224Q17.7077 59.0106 17.8523 59.0847Q17.997 59.1587 18.0993 59.2999Q18.2016 59.441 18.2016 59.6738Q18.2016 59.8361 18.1063 59.9772Q18.0111 60.1183 17.8329 60.2012Q17.6548 60.2841 17.4255 60.2841Q17.1644 60.2841 16.9704 60.1942Q16.7763 60.1042 16.5858 59.9137Z" style="stroke:#000000;stroke-width:0.25;stroke-linecap:round;stroke-linejoin:bevel" />
</svg>
