<?xml version="1.0" encoding="utf-8"?>
<svg xmlns="http://www.w3.org/2000/svg" width="40.64mm" height="128.50mm" viewBox="0 0 40.64 128.50">
    <g id="PanelLayer">
        <rect id="border_rect" width="40.64" height="128.5" x="0" y="0" style="display:inline;fill:#4f8df2;fill-opacity:1;stroke:none;" />
        <path id="sapphire_gemstone" d="m 23.035,122.900 q 0,0.34175 -0.242534,0.63114 -0.0441,0.0524 -0.20395,0.21497 -0.187413,0.19017 -0.785481,0.81304 l -1.444183,1.51309 q -0.01929,0.003 -0.0441,0.003 -0.02756,0 -0.04134,-0.003 -0.08268,-0.0827 -0.647678,-0.67524 -0.468532,-0.47404 -0.934309,-0.94809 -0.556727,-0.56775 -0.89848,-0.98116 -0.132292,-0.15985 -0.168121,-0.29766 -0.02756,-0.10197 -0.02756,-0.34175 0,-0.11024 0.07166,-0.28939 0.06614,-0.16536 0.140559,-0.26458 0.118512,-0.1571 0.42168,-0.42444 0.283875,-0.2508 0.474044,-0.37482 0.272852,-0.17915 0.818555,-0.36656 0.09646,-0.0331 0.110243,-0.0331 h 1.3615 q 0.01102,0 0.104731,0.0331 0.567751,0.20119 0.824066,0.36656 0.165365,0.10473 0.474045,0.37758 0.322461,0.28388 0.421679,0.42168 0.214974,0.2949 0.214974,0.62563 z m -0.16812,-0.27285 q -0.03307,-0.10749 -0.135048,-0.30868 -0.07166,-0.0937 -0.209462,-0.19844 -0.118511,-0.0854 -0.234266,-0.17088 0.245291,0.3638 0.578776,0.678 z m -0.573264,-0.52366 -0.358289,-0.44648 v 0.41065 z m 0.636653,0.75792 q 0,-0.0524 -0.341753,-0.39412 l 0.228754,0.7028 h 0.04961 q 0.06339,-0.21773 0.06339,-0.30868 z m -0.23151,0.27285 -0.316948,-0.90399 -0.410655,-0.0634 -0.159853,0.61461 z m 0.0028,0.15434 -0.771701,-0.3197 h -0.03032 l 0.344509,0.60634 q 0.07993,-0.003 0.234266,-0.0469 0.02481,-0.0138 0.223242,-0.23978 z m -0.857139,-1.05006 -0.719335,0.28388 0.60358,0.22599 z m 0,-0.16261 v -0.51538 l -0.917773,-0.38034 h -1.223697 l -0.917772,0.38034 v 0.51538 l 0.89848,0.4079 h 1.254014 z m 0.573264,1.53789 q -0.0689,0.011 -0.198438,0.0524 -0.08544,0.0551 -0.259071,0.16261 0.01929,0 0.06339,0.003 0.04134,0 0.06339,0 0.118511,0 0.190169,-0.0689 0.07166,-0.0717 0.14056,-0.14883 z m -0.289388,0.003 -0.347266,-0.63114 -0.363801,0.87918 q 0.0248,-0.0165 0.06615,-0.0165 0.03032,0 0.08544,0.011 0.05788,0.008 0.08819,0.008 0.04961,0 0.228754,-0.10749 0.228754,-0.1378 0.242535,-0.14331 z m -0.440972,-0.74139 -0.683507,-0.2756 -0.592556,0.54845 0.903993,0.65595 z m -0.854383,-0.28387 h -1.036284 l 0.523654,0.47404 z m 0.749652,1.36701 q -0.228754,-0.0303 -0.228754,-0.0303 -0.03583,0 -0.272851,0.0937 l 0.190169,0.0193 q 0.01102,0 0.311436,-0.0827 z m -0.388606,-0.0882 -0.843359,-0.61185 v 0.67524 l 0.471289,0.0827 z m 0.854383,0.0496 q -0.09922,0.006 -0.2949,0.0386 -0.01102,0.003 -0.377583,0.17639 -0.129535,0.34726 -0.380338,1.0418 z m -2.543857,-1.39733 -0.719335,-0.28388 0.124023,0.51814 z m -0.802018,-0.45476 v -0.41065 l -0.366557,0.44648 z m 1.515841,1.07212 -0.592556,-0.54019 -0.683506,0.2756 0.380338,0.9288 z m 0.369314,0.94257 q -0.03307,-0.003 -0.135047,-0.0248 -0.08544,-0.0165 -0.137804,-0.0165 -0.05237,0 -0.137804,0.0165 -0.101975,0.0221 -0.135047,0.0248 0.264583,0.0469 0.272851,0.0469 0.0083,0 0.272851,-0.0469 z m -0.30868,-0.1378 v -0.68626 l -0.843359,0.61185 0.37207,0.14607 z m 0.950846,0.20671 -0.396875,-0.0551 -0.479557,0.14056 v 1.27607 z m -2.888366,-2.20211 q -0.118512,0.0854 -0.234267,0.17364 -0.146072,0.10748 -0.209461,0.19568 -0.0441,0.10473 -0.135048,0.31419 0.369314,-0.3638 0.578776,-0.68351 z m 0.476801,0.83234 -0.159853,-0.61461 -0.410655,0.0634 -0.316948,0.90399 z m 0.394118,1.08313 -0.363802,-0.87918 -0.355533,0.63114 q 0.43546,0.2508 0.451996,0.2508 0.09095,0 0.267339,-0.003 z m 1.821765,0.82958 q -0.132291,0.21222 -0.405143,0.6339 -0.07717,0.10749 -0.220486,0.32797 -0.05788,0.10473 -0.05512,0.226 0.159852,-0.15158 0.432704,-0.49609 0.07717,-0.12954 0.140559,-0.339 0.05512,-0.17639 0.107486,-0.35278 z m -1.493792,-0.66146 -0.270095,-0.0882 -0.0083,-0.011 q -0.02481,0 -0.107487,0.011 -0.06615,0.006 -0.107487,0.006 0.272851,0.091 0.311436,0.091 0.02481,0 0.181901,-0.008 z m -0.810286,-1.06384 h -0.03032 l -0.7717,0.3197 q 0.06615,0.0965 0.223242,0.23978 0.07717,0.0138 0.234266,0.0469 z m -0.689018,-0.50161 q -0.341754,0.34727 -0.341754,0.39412 0,0.0799 0.06339,0.30868 h 0.04961 z m 2.235176,3.04547 v -1.27607 l -0.479557,-0.14056 -0.396875,0.0551 z m -1.606791,-1.6757 q -0.256315,-0.1819 -0.457509,-0.22324 0.06615,0.0772 0.20395,0.22324 z m 1.609547,2.04501 v -0.1378 l -0.683507,-1.05007 q 0.05237,0.17639 0.107487,0.35278 0.06339,0.20946 0.14056,0.339 0.0689,0.11851 0.20395,0.25907 0.115755,0.11851 0.23151,0.23702 z m -0.644921,-0.70555 q -0.115756,-0.32798 -0.380339,-1.0418 -0.135047,-0.0662 -0.272851,-0.12954 -0.159852,-0.0716 -0.289388,-0.0716 -0.05237,0 -0.110243,-0.0138 z" style="stroke-width:0;fill:#0000ff;stroke:#2e2114;stroke-linecap:square;stroke-opacity:1" />
        <path id="model_name" d="M10.4828 7.35962Q10.4828 7.41395 10.4517 7.45276Q10.1956 7.79425 9.81534 8.01156Q9.43504 8.22887 9.00042 8.22887Q8.41834 8.22887 7.96819 7.98051Q7.51805 7.73216 7.26581 7.27425Q7.01358 6.81635 7.01358 6.21098Q7.01358 5.59009 7.25805 5.12054Q7.50253 4.651 7.9061 4.40264Q8.30968 4.15429 8.76759 4.15429Q9.22549 4.15429 9.61743 4.35219Q10.0094 4.5501 10.2577 4.94592Q10.5061 5.34174 10.5216 5.92382Q10.5216 5.98591 10.475 6.03636Q10.4285 6.0868 10.3664 6.0868H7.31626V6.1877Q7.31626 6.66889 7.51029 7.06858Q7.70431 7.46828 8.08461 7.70111Q8.4649 7.93395 9.00042 7.93395Q9.37295 7.93395 9.7028 7.75156Q10.0326 7.56917 10.2189 7.28977Q10.2732 7.21992 10.3509 7.21992Q10.4052 7.21992 10.444 7.26261Q10.4828 7.3053 10.4828 7.35962ZM7.3473 5.79188H10.2034V5.72203Q10.1646 5.32621 9.95116 5.04293Q9.73773 4.75965 9.4234 4.61219Q9.10908 4.46473 8.76759 4.46473Q8.48043 4.46473 8.18162 4.61607Q7.88282 4.76741 7.65387 5.06622Q7.42491 5.36502 7.3473 5.79188ZM17.3048 5.73755V7.99604Q17.3048 8.05812 17.2621 8.10469Q17.2194 8.15126 17.1496 8.15126Q17.0797 8.15126 17.0371 8.10469Q16.9944 8.05812 16.9944 7.99604V5.7686Q16.9944 5.21756 16.7266 4.87219Q16.4588 4.52682 15.9156 4.52682Q15.5818 4.52682 15.2598 4.69756Q14.9377 4.86831 14.7359 5.15159Q14.5341 5.43487 14.5341 5.7686V7.99604Q14.5341 8.05812 14.4914 8.10469Q14.4487 8.15126 14.3789 8.15126Q14.309 8.15126 14.2663 8.10469Q14.2236 8.05812 14.2236 7.99604V5.72979Q14.2236 5.19427 13.9675 4.86055Q13.7114 4.52682 13.1914 4.52682Q12.8655 4.52682 12.555 4.6898Q12.2446 4.85279 12.0467 5.13219Q11.8487 5.41159 11.8487 5.72979V7.99604Q11.8487 8.05812 11.8022 8.10469Q11.7556 8.15126 11.6935 8.15126Q11.6237 8.15126 11.581 8.10469Q11.5383 8.05812 11.5383 7.99604V4.43369Q11.5383 4.3716 11.5849 4.32503Q11.6314 4.27846 11.6935 4.27846Q11.7634 4.27846 11.8061 4.32503Q11.8487 4.3716 11.8487 4.43369V4.97696Q12.0738 4.651 12.4347 4.44145Q12.7956 4.2319 13.1914 4.2319Q13.6183 4.2319 13.952 4.44921Q14.2857 4.66652 14.441 5.08562Q14.6039 4.72861 15.058 4.48025Q15.512 4.2319 15.9466 4.2319Q16.6141 4.2319 16.9594 4.651Q17.3048 5.0701 17.3048 5.73755ZM22.1943 6.21098Q22.1943 6.76978 21.9576 7.22381Q21.7209 7.67783 21.3095 7.93783Q20.8982 8.19782 20.3937 8.19782Q19.9281 8.19782 19.54 7.96499Q19.152 7.73216 18.9036 7.3053V9.54826Q18.9036 9.61035 18.8609 9.65691Q18.8182 9.70348 18.7484 9.70348Q18.6863 9.70348 18.6397 9.65691Q18.5932 9.61035 18.5932 9.54826V4.38712Q18.5932 4.32503 18.6358 4.27846Q18.6785 4.2319 18.7484 4.2319Q18.8182 4.2319 18.8609 4.27846Q18.9036 4.32503 18.9036 4.38712V5.10114Q19.1364 4.65876 19.5245 4.44533Q19.9125 4.2319 20.3937 4.2319Q20.906 4.2319 21.3173 4.48801Q21.7286 4.74413 21.9615 5.19428Q22.1943 5.64442 22.1943 6.21098ZM21.8839 6.21098Q21.8839 5.72979 21.686 5.34562Q21.488 4.96144 21.1466 4.74413Q20.8051 4.52682 20.3782 4.52682Q19.9436 4.52682 19.5982 4.74025Q19.2528 4.95368 19.0627 5.33786Q18.8726 5.72203 18.8726 6.21098Q18.8726 6.69993 19.0627 7.08411Q19.2528 7.46828 19.5982 7.68559Q19.9436 7.9029 20.3782 7.9029Q20.8051 7.9029 21.1466 7.68559Q21.488 7.46828 21.686 7.08022Q21.8839 6.69217 21.8839 6.21098ZM26.5405 4.43369V7.99604Q26.5405 8.05812 26.494 8.10469Q26.4474 8.15126 26.3853 8.15126Q26.3155 8.15126 26.2728 8.10469Q26.2301 8.05812 26.2301 7.99604V7.29754Q26.0361 7.69335 25.6325 7.96111Q25.2289 8.22887 24.74 8.22887Q24.2277 8.22887 23.8164 7.96111Q23.405 7.69335 23.1722 7.22381Q22.9394 6.75426 22.9394 6.17217Q22.9394 5.59785 23.1761 5.13607Q23.4128 4.67428 23.8241 4.41428Q24.2355 4.15429 24.74 4.15429Q25.2444 4.15429 25.648 4.41816Q26.0516 4.68204 26.2301 5.12443V4.43369Q26.2301 4.3716 26.2728 4.32503Q26.3155 4.27846 26.3853 4.27846Q26.4552 4.27846 26.4978 4.32503Q26.5405 4.3716 26.5405 4.43369ZM26.2611 6.17217Q26.2611 5.69875 26.0671 5.30293Q25.8731 4.90711 25.5277 4.67816Q25.1823 4.44921 24.7555 4.44921Q24.3286 4.44921 23.9832 4.6704Q23.6379 4.89159 23.4438 5.28353Q23.2498 5.67546 23.2498 6.17217Q23.2498 6.66889 23.4438 7.07246Q23.6379 7.47604 23.9794 7.70499Q24.3209 7.93395 24.7555 7.93395Q25.1823 7.93395 25.5277 7.70499Q25.8731 7.47604 26.0671 7.07246Q26.2611 6.66889 26.2611 6.17217ZM29.4199 4.39488Q29.4199 4.45697 29.3772 4.49966Q29.3345 4.54234 29.2724 4.54234H28.4187V7.3053Q28.4187 7.64679 28.539 7.75932Q28.6593 7.87186 28.8456 7.87186Q28.8766 7.87186 28.9348 7.85634Q28.993 7.84081 29.0318 7.84081Q29.0862 7.84081 29.125 7.8835Q29.1638 7.92619 29.1638 7.98051Q29.1638 8.05036 29.0707 8.10081Q28.9775 8.15126 28.8533 8.15126Q28.6593 8.15126 28.5274 8.12409Q28.3954 8.09693 28.2519 7.91454Q28.1083 7.73216 28.1083 7.32082V4.54234H27.4719Q27.4175 4.54234 27.371 4.49578Q27.3244 4.44921 27.3244 4.39488Q27.3244 4.33279 27.3671 4.29011Q27.4098 4.24742 27.4719 4.24742H28.1083V3.26176Q28.1083 3.19967 28.1548 3.1531Q28.2014 3.10654 28.2635 3.10654Q28.3333 3.10654 28.376 3.1531Q28.4187 3.19967 28.4187 3.26176V4.24742H29.2724Q29.3268 4.24742 29.3733 4.29399Q29.4199 4.34055 29.4199 4.39488ZM33.3548 5.72979V7.99604Q33.3548 8.05812 33.3082 8.10469Q33.2617 8.15126 33.1996 8.15126Q33.1297 8.15126 33.087 8.10469Q33.0443 8.05812 33.0443 7.99604V5.72979Q33.0443 5.19427 32.7805 4.86055Q32.5166 4.52682 31.9733 4.52682Q31.6396 4.52682 31.3175 4.6898Q30.9954 4.85279 30.7936 5.13219Q30.5918 5.41159 30.5918 5.72979V7.99604Q30.5918 8.05812 30.5453 8.10469Q30.4987 8.15126 30.4366 8.15126Q30.3668 8.15126 30.3241 8.10469Q30.2814 8.05812 30.2814 7.99604V2.56326Q30.2814 2.50117 30.328 2.4546Q30.3745 2.40804 30.4366 2.40804Q30.5065 2.40804 30.5491 2.4546Q30.5918 2.50117 30.5918 2.56326V5.01577Q30.8091 4.67428 31.1933 4.45309Q31.5775 4.2319 31.9733 4.2319Q32.6408 4.2319 32.9978 4.65488Q33.3548 5.07786 33.3548 5.72979Z" style="display:inline;stroke:#000000;stroke-width:0.35;stroke-linecap:round;stroke-linejoin:bevel" />
    </g>
</svg>
