<?xml version="1.0" encoding="utf-8"?>
<svg xmlns="http://www.w3.org/2000/svg" width="30.48mm" height="128.50mm" viewBox="0 0 30.48 128.50">
    <path d="M11.5058 41.1833V43.5116Q11.5058 43.5398 11.4829 43.561Q11.46 43.5822 11.4318 43.5822Q11.4 43.5822 11.3788 43.561Q11.3577 43.5398 11.3577 43.5116V41.402L10.4475 42.7778Q10.4299 42.8061 10.3981 42.8061Q10.3593 42.8061 10.3417 42.7778L9.42799 41.3985V43.5116Q9.42799 43.5398 9.40682 43.561Q9.38565 43.5822 9.35743 43.5822Q9.32568 43.5822 9.30628 43.561Q9.28688 43.5398 9.28688 43.5116V41.1833Q9.28688 41.1586 9.30628 41.1357Q9.32568 41.1127 9.3539 41.1127Q9.39976 41.1127 9.42093 41.1445L10.3981 42.5979L11.3753 41.1445Q11.4035 41.1057 11.4423 41.1127Q11.4706 41.1163 11.4882 41.1357Q11.5058 41.1551 11.5058 41.1833ZM13.2133 43.6174Q12.8711 43.6174 12.603 43.4569Q12.3349 43.2964 12.1849 43.0071Q12.035 42.7179 12.035 42.3474Q12.035 41.977 12.1849 41.6878Q12.3349 41.3985 12.603 41.238Q12.8711 41.0774 13.2133 41.0774Q13.5555 41.0774 13.8236 41.238Q14.0917 41.3985 14.2416 41.6878Q14.3916 41.977 14.3916 42.3474Q14.3916 42.7179 14.2416 43.0071Q14.0917 43.2964 13.8236 43.4569Q13.5555 43.6174 13.2133 43.6174ZM13.2133 41.2186Q12.9134 41.2186 12.6788 41.3597Q12.4442 41.5008 12.3137 41.7583Q12.1832 42.0158 12.1832 42.3474Q12.1832 42.6791 12.3137 42.9366Q12.4442 43.1941 12.6788 43.3352Q12.9134 43.4763 13.2133 43.4763Q13.5132 43.4763 13.7477 43.3352Q13.9823 43.1941 14.1129 42.9366Q14.2434 42.6791 14.2434 42.3474Q14.2434 42.0158 14.1129 41.7583Q13.9823 41.5008 13.7477 41.3597Q13.5132 41.2186 13.2133 41.2186ZM16.7164 43.5081Q16.7164 43.5398 16.697 43.5592Q16.6776 43.5786 16.6493 43.5786Q16.6282 43.5786 16.6176 43.5716Q16.5223 43.5187 16.4659 43.3934Q16.4095 43.2682 16.4095 42.9824Q16.4095 42.6932 16.2542 42.5856Q16.099 42.478 15.8944 42.478H15.0689V43.5116Q15.0689 43.5398 15.0477 43.561Q15.0266 43.5822 14.9948 43.5822Q14.9631 43.5822 14.9419 43.561Q14.9207 43.5398 14.9207 43.5116V41.1833Q14.9207 41.1551 14.9419 41.1339Q14.9631 41.1127 14.9913 41.1127H15.9226Q16.1272 41.1127 16.286 41.1956Q16.4447 41.2785 16.5329 41.4232Q16.6211 41.5678 16.6211 41.7512Q16.6211 41.9876 16.4959 42.1569Q16.3707 42.3263 16.1696 42.3862Q16.3389 42.4392 16.4483 42.5962Q16.5576 42.7531 16.5576 42.9824Q16.5576 43.2188 16.5876 43.3123Q16.6176 43.4058 16.6776 43.4446Q16.7164 43.4693 16.7164 43.5081ZM15.9403 42.3369Q16.1625 42.3157 16.3177 42.1605Q16.473 42.0052 16.473 41.7548Q16.473 41.5361 16.3177 41.3949Q16.1625 41.2538 15.905 41.2538H15.0689V42.3369ZM18.8472 41.7865Q18.8472 41.9841 18.7642 42.1446Q18.6813 42.3051 18.5297 42.3951Q18.378 42.485 18.1804 42.485H17.4113V43.5116Q17.4113 43.5398 17.3884 43.561Q17.3655 43.5822 17.3373 43.5822Q17.3055 43.5822 17.2843 43.561Q17.2632 43.5398 17.2632 43.5116V41.1833Q17.2632 41.1551 17.2843 41.1339Q17.3055 41.1127 17.3337 41.1127H18.1804Q18.4803 41.1127 18.6637 41.2997Q18.8472 41.4867 18.8472 41.7865ZM18.699 41.7865Q18.699 41.5431 18.5596 41.3985Q18.4203 41.2538 18.1804 41.2538H17.4113V42.3439H18.1804Q18.4168 42.3439 18.5579 42.1869Q18.699 42.0299 18.699 41.7865ZM21.1931 41.1868V43.5081Q21.1896 43.5398 21.1684 43.561Q21.1473 43.5822 21.119 43.5822Q21.0838 43.5822 21.0644 43.561Q21.045 43.5398 21.045 43.5081V42.3827H19.5068V43.5081Q19.5033 43.5398 19.4822 43.561Q19.461 43.5822 19.4328 43.5822Q19.3975 43.5822 19.3781 43.561Q19.3587 43.5398 19.3587 43.5081V41.1868Q19.3587 41.1551 19.3798 41.1339Q19.401 41.1127 19.4328 41.1127Q19.4645 41.1127 19.4857 41.1339Q19.5068 41.1551 19.5068 41.1868V42.2416H21.045V41.1868Q21.045 41.1551 21.0661 41.1339Q21.0873 41.1127 21.119 41.1127Q21.1508 41.1127 21.172 41.1339Q21.1931 41.1551 21.1931 41.1868Z" style="stroke:#000000;stroke-width:0.25;stroke-linecap:round;stroke-linejoin:bevel" />
</svg>
