<?xml version="1.0" encoding="utf-8"?>
<svg xmlns="http://www.w3.org/2000/svg" width="30.48mm" height="128.50mm" viewBox="0 0 30.48 128.50">
    <path d="M13.6207 116.178Q13.6207 116.21 13.5996 116.229Q13.5784 116.249 13.5502 116.249H12.2202Q12.192 116.249 12.1708 116.228Q12.1497 116.207 12.1497 116.178V113.85Q12.1497 113.822 12.1708 113.801Q12.192 113.779 12.2202 113.779H13.5502Q13.5784 113.779 13.5996 113.801Q13.6207 113.822 13.6207 113.85Q13.6207 113.882 13.5996 113.901Q13.5784 113.921 13.5502 113.921H12.2978V114.905H13.3914Q13.4197 114.905 13.4408 114.926Q13.462 114.947 13.462 114.975Q13.462 115.007 13.4408 115.026Q13.4197 115.046 13.3914 115.046H12.2978V116.108H13.5502Q13.5784 116.108 13.5996 116.129Q13.6207 116.15 13.6207 116.178ZM16.002 113.846V116.171Q16.002 116.21 15.9808 116.229Q15.9597 116.249 15.9279 116.249Q15.8926 116.249 15.8715 116.221L14.284 114.051V116.189Q14.284 116.214 14.2646 116.231Q14.2452 116.249 14.2169 116.249Q14.1852 116.249 14.1676 116.231Q14.1499 116.214 14.1499 116.189V113.85Q14.1499 113.815 14.1693 113.797Q14.1887 113.779 14.2134 113.779Q14.2452 113.779 14.2663 113.804L15.8679 115.988V113.846Q15.8679 113.818 15.8873 113.799Q15.9067 113.779 15.935 113.779Q15.9667 113.779 15.9844 113.799Q16.002 113.818 16.002 113.846ZM18.5596 113.843Q18.5596 113.857 18.5526 113.878L17.586 116.203Q17.5648 116.249 17.5189 116.249Q17.4978 116.249 17.4784 116.236Q17.459 116.224 17.4519 116.203L16.4924 113.889Q16.4818 113.868 16.4818 113.846Q16.4818 113.818 16.5012 113.799Q16.5206 113.779 16.5488 113.779Q16.6017 113.779 16.6264 113.836L17.5225 115.991L18.4221 113.825Q18.4467 113.779 18.4891 113.779Q18.5208 113.779 18.5402 113.797Q18.5596 113.815 18.5596 113.843Z" style="stroke:#000000;stroke-width:0.25;stroke-linecap:round;stroke-linejoin:bevel" />
    <rect x="11.24" y="112.75" width="8" height="4.5" stroke="black" stroke-width="0.2" fill="none" />
    <path d="M 6.24,115.00 L 11.24,115.00 " style="stroke:#000000;stroke-width:0.25;stroke-linecap:round;stroke-linejoin:bevel;stroke-dasharray:none" fill="none" />
    <path d="M 24.24,115.00 L 19.24,115.00 " style="stroke:#000000;stroke-width:0.25;stroke-linecap:round;stroke-linejoin:bevel;stroke-dasharray:none" fill="none" />
</svg>
