<?xml version="1.0" encoding="utf-8"?>
<svg xmlns="http://www.w3.org/2000/svg" width="30.48mm" height="128.50mm" viewBox="0 0 30.48 128.50">
    <g id="PanelLayer">
        <defs>
            <linearGradient id="gradient_blue" x1="0" y1="13" x2="0" y2="76.5" gradientUnits="userSpaceOnUse">
                <stop style="stop-color:#3068ff;stop-opacity:1;" offset="0" />
                <stop style="stop-color:#4f8df2;stop-opacity:1;" offset="1" />
            </linearGradient>
            <linearGradient id="gradient_purple" x1="0" y1="73.6667" x2="0" y2="91.6667" gradientUnits="userSpaceOnUse">
                <stop style="stop-color:#a06de4;stop-opacity:1;" offset="0" />
                <stop style="stop-color:#4f8df2;stop-opacity:1;" offset="1" />
            </linearGradient>
            <linearGradient id="gradient_out" x1="0" y1="88.8333" x2="0" y2="122" gradientUnits="userSpaceOnUse">
                <stop style="stop-color:#29aab4;stop-opacity:1;" offset="0" />
                <stop style="stop-color:#4f8df2;stop-opacity:1;" offset="1" />
            </linearGradient>
        </defs>
        <rect id="border_rect" width="30.48" height="128.5" x="0" y="0" style="display:inline;fill:#4f8df2;fill-opacity:1;fill-rule:nonzero;stroke:#5021d4;stroke-width:0.7;stroke-linecap:round;stroke-linejoin:round;stroke-dasharray:none;stroke-opacity:1;image-rendering:auto" />
        <path id="control_art" d="M 0.38,76.50 L 0.38,17.00 A 4 4 0 0 1 4.38 13 L 26.10,13.00 A 4 4 0 0 1 30.1 17 L 30.10,13.00 L 30.10,76.50 z" style="fill:url(#gradient_blue);fill-opacity:1;stroke-width:0;" />
        <path id="audio_art" d="M 0.38,91.67 L 0.38,77.67 A 4 4 0 0 1 4.38 73.6667 L 26.10,73.67 A 4 4 0 0 1 30.1 77.6667 L 30.10,73.67 L 30.10,91.67 z" style="fill:url(#gradient_purple);fill-opacity:1;stroke-width:0;" />
        <path id="out_art" d="M 0.38,122.00 L 0.38,92.83 A 4 4 0 0 1 4.38 88.8333 L 26.10,88.83 A 4 4 0 0 1 30.1 92.8333 L 30.10,88.83 L 30.10,122.00 z" style="fill:url(#gradient_out);fill-opacity:1;stroke-width:0;" />
        <path id="sapphire_gemstone" d="m 17.955,122.900 q 0,0.34175 -0.242534,0.63114 -0.0441,0.0524 -0.20395,0.21497 -0.187413,0.19017 -0.785481,0.81304 l -1.444183,1.51309 q -0.01929,0.003 -0.0441,0.003 -0.02756,0 -0.04134,-0.003 -0.08268,-0.0827 -0.647678,-0.67524 -0.468532,-0.47404 -0.934309,-0.94809 -0.556727,-0.56775 -0.89848,-0.98116 -0.132292,-0.15985 -0.168121,-0.29766 -0.02756,-0.10197 -0.02756,-0.34175 0,-0.11024 0.07166,-0.28939 0.06614,-0.16536 0.140559,-0.26458 0.118512,-0.1571 0.42168,-0.42444 0.283875,-0.2508 0.474044,-0.37482 0.272852,-0.17915 0.818555,-0.36656 0.09646,-0.0331 0.110243,-0.0331 h 1.3615 q 0.01102,0 0.104731,0.0331 0.567751,0.20119 0.824066,0.36656 0.165365,0.10473 0.474045,0.37758 0.322461,0.28388 0.421679,0.42168 0.214974,0.2949 0.214974,0.62563 z m -0.16812,-0.27285 q -0.03307,-0.10749 -0.135048,-0.30868 -0.07166,-0.0937 -0.209462,-0.19844 -0.118511,-0.0854 -0.234266,-0.17088 0.245291,0.3638 0.578776,0.678 z m -0.573264,-0.52366 -0.358289,-0.44648 v 0.41065 z m 0.636653,0.75792 q 0,-0.0524 -0.341753,-0.39412 l 0.228754,0.7028 h 0.04961 q 0.06339,-0.21773 0.06339,-0.30868 z m -0.23151,0.27285 -0.316948,-0.90399 -0.410655,-0.0634 -0.159853,0.61461 z m 0.0028,0.15434 -0.771701,-0.3197 h -0.03032 l 0.344509,0.60634 q 0.07993,-0.003 0.234266,-0.0469 0.02481,-0.0138 0.223242,-0.23978 z m -0.857139,-1.05006 -0.719335,0.28388 0.60358,0.22599 z m 0,-0.16261 v -0.51538 l -0.917773,-0.38034 h -1.223697 l -0.917772,0.38034 v 0.51538 l 0.89848,0.4079 h 1.254014 z m 0.573264,1.53789 q -0.0689,0.011 -0.198438,0.0524 -0.08544,0.0551 -0.259071,0.16261 0.01929,0 0.06339,0.003 0.04134,0 0.06339,0 0.118511,0 0.190169,-0.0689 0.07166,-0.0717 0.14056,-0.14883 z m -0.289388,0.003 -0.347266,-0.63114 -0.363801,0.87918 q 0.0248,-0.0165 0.06615,-0.0165 0.03032,0 0.08544,0.011 0.05788,0.008 0.08819,0.008 0.04961,0 0.228754,-0.10749 0.228754,-0.1378 0.242535,-0.14331 z m -0.440972,-0.74139 -0.683507,-0.2756 -0.592556,0.54845 0.903993,0.65595 z m -0.854383,-0.28387 h -1.036284 l 0.523654,0.47404 z m 0.749652,1.36701 q -0.228754,-0.0303 -0.228754,-0.0303 -0.03583,0 -0.272851,0.0937 l 0.190169,0.0193 q 0.01102,0 0.311436,-0.0827 z m -0.388606,-0.0882 -0.843359,-0.61185 v 0.67524 l 0.471289,0.0827 z m 0.854383,0.0496 q -0.09922,0.006 -0.2949,0.0386 -0.01102,0.003 -0.377583,0.17639 -0.129535,0.34726 -0.380338,1.0418 z m -2.543857,-1.39733 -0.719335,-0.28388 0.124023,0.51814 z m -0.802018,-0.45476 v -0.41065 l -0.366557,0.44648 z m 1.515841,1.07212 -0.592556,-0.54019 -0.683506,0.2756 0.380338,0.9288 z m 0.369314,0.94257 q -0.03307,-0.003 -0.135047,-0.0248 -0.08544,-0.0165 -0.137804,-0.0165 -0.05237,0 -0.137804,0.0165 -0.101975,0.0221 -0.135047,0.0248 0.264583,0.0469 0.272851,0.0469 0.0083,0 0.272851,-0.0469 z m -0.30868,-0.1378 v -0.68626 l -0.843359,0.61185 0.37207,0.14607 z m 0.950846,0.20671 -0.396875,-0.0551 -0.479557,0.14056 v 1.27607 z m -2.888366,-2.20211 q -0.118512,0.0854 -0.234267,0.17364 -0.146072,0.10748 -0.209461,0.19568 -0.0441,0.10473 -0.135048,0.31419 0.369314,-0.3638 0.578776,-0.68351 z m 0.476801,0.83234 -0.159853,-0.61461 -0.410655,0.0634 -0.316948,0.90399 z m 0.394118,1.08313 -0.363802,-0.87918 -0.355533,0.63114 q 0.43546,0.2508 0.451996,0.2508 0.09095,0 0.267339,-0.003 z m 1.821765,0.82958 q -0.132291,0.21222 -0.405143,0.6339 -0.07717,0.10749 -0.220486,0.32797 -0.05788,0.10473 -0.05512,0.226 0.159852,-0.15158 0.432704,-0.49609 0.07717,-0.12954 0.140559,-0.339 0.05512,-0.17639 0.107486,-0.35278 z m -1.493792,-0.66146 -0.270095,-0.0882 -0.0083,-0.011 q -0.02481,0 -0.107487,0.011 -0.06615,0.006 -0.107487,0.006 0.272851,0.091 0.311436,0.091 0.02481,0 0.181901,-0.008 z m -0.810286,-1.06384 h -0.03032 l -0.7717,0.3197 q 0.06615,0.0965 0.223242,0.23978 0.07717,0.0138 0.234266,0.0469 z m -0.689018,-0.50161 q -0.341754,0.34727 -0.341754,0.39412 0,0.0799 0.06339,0.30868 h 0.04961 z m 2.235176,3.04547 v -1.27607 l -0.479557,-0.14056 -0.396875,0.0551 z m -1.606791,-1.6757 q -0.256315,-0.1819 -0.457509,-0.22324 0.06615,0.0772 0.20395,0.22324 z m 1.609547,2.04501 v -0.1378 l -0.683507,-1.05007 q 0.05237,0.17639 0.107487,0.35278 0.06339,0.20946 0.14056,0.339 0.0689,0.11851 0.20395,0.25907 0.115755,0.11851 0.23151,0.23702 z m -0.644921,-0.70555 q -0.115756,-0.32798 -0.380339,-1.0418 -0.135047,-0.0662 -0.272851,-0.12954 -0.159852,-0.0716 -0.289388,-0.0716 -0.05237,0 -0.110243,-0.0138 z" style="stroke-width:0;fill:#0000ff;stroke:#2e2114;stroke-linecap:square;stroke-opacity:1" />
        <path id="model_name" d="M12.7254 7.35962Q12.7254 7.41395 12.6944 7.45276Q12.4382 7.79425 12.0579 8.01156Q11.6776 8.22887 11.243 8.22887Q10.6609 8.22887 10.2108 7.98051Q9.76066 7.73216 9.50842 7.27425Q9.25618 6.81635 9.25618 6.21098Q9.25618 5.59009 9.50066 5.12054Q9.74513 4.651 10.1487 4.40264Q10.5523 4.15429 11.0102 4.15429Q11.4681 4.15429 11.86 4.35219Q12.252 4.5501 12.5003 4.94592Q12.7487 5.34174 12.7642 5.92382Q12.7642 5.98591 12.7176 6.03636Q12.6711 6.0868 12.609 6.0868H9.55887V6.1877Q9.55887 6.66889 9.75289 7.06858Q9.94692 7.46828 10.3272 7.70111Q10.7075 7.93395 11.243 7.93395Q11.6156 7.93395 11.9454 7.75156Q12.2753 7.56917 12.4615 7.28977Q12.5159 7.21992 12.5935 7.21992Q12.6478 7.21992 12.6866 7.26261Q12.7254 7.3053 12.7254 7.35962ZM9.58991 5.79188H12.446V5.72203Q12.4072 5.32621 12.1938 5.04293Q11.9803 4.75965 11.666 4.61219Q11.3517 4.46473 11.0102 4.46473Q10.723 4.46473 10.4242 4.61607Q10.1254 4.76741 9.89648 5.06622Q9.66752 5.36502 9.58991 5.79188ZM16.9319 5.62114V7.99604Q16.9319 8.05812 16.8854 8.10469Q16.8388 8.15126 16.7767 8.15126Q16.7068 8.15126 16.6642 8.10469Q16.6215 8.05812 16.6215 7.99604V5.65218Q16.6215 5.12443 16.346 4.78682Q16.0704 4.44921 15.5116 4.44921Q15.1701 4.44921 14.8403 4.61219Q14.5105 4.77517 14.3009 5.05457Q14.0914 5.33397 14.0914 5.65218V7.99604Q14.0914 8.05812 14.0448 8.10469Q13.9982 8.15126 13.9361 8.15126Q13.8663 8.15126 13.8236 8.10469Q13.7809 8.05812 13.7809 7.99604V4.43369Q13.7809 4.3716 13.8275 4.32503Q13.874 4.27846 13.9361 4.27846Q14.006 4.27846 14.0487 4.32503Q14.0914 4.3716 14.0914 4.43369V4.95368Q14.3164 4.60443 14.7239 4.37936Q15.1313 4.15429 15.5427 4.15429Q16.2334 4.15429 16.5827 4.56174Q16.9319 4.9692 16.9319 5.62114ZM21.3014 4.26294Q21.3014 4.30951 21.2781 4.35608L19.7337 8.05036Q19.7182 8.09693 19.6755 8.12409Q19.6328 8.15126 19.5862 8.15126Q19.5397 8.15126 19.497 8.12409Q19.4543 8.09693 19.4388 8.05036L17.8865 4.36384Q17.871 4.31727 17.871 4.29399Q17.871 4.2319 17.9137 4.18533Q17.9564 4.13876 18.034 4.13876Q18.0728 4.13876 18.1155 4.16593Q18.1582 4.19309 18.1737 4.23966L19.5785 7.61574L20.991 4.23966Q21.0298 4.13876 21.154 4.13876Q21.2005 4.13876 21.251 4.17369Q21.3014 4.20861 21.3014 4.26294Z" style="display:inline;stroke:#000000;stroke-width:0.35;stroke-linecap:round;stroke-linejoin:bevel" />
        <path d="M11.9486 78.3485Q11.9486 78.3802 11.9274 78.3979Q11.9062 78.4155 11.8745 78.4155Q11.8498 78.4155 11.8304 78.4032Q11.811 78.3908 11.8039 78.3696L11.5076 77.6429L11.5111 77.65H10.3293L10.0436 78.3696Q10.0259 78.4155 9.98008 78.4155Q9.94833 78.4155 9.92893 78.3979Q9.90953 78.3802 9.906 78.3555Q9.90247 78.3414 9.90953 78.3203L10.8585 75.9849Q10.8691 75.9566 10.885 75.9478Q10.9008 75.939 10.9255 75.939Q10.9784 75.939 10.9961 75.9849L11.9451 78.3203Q11.9486 78.3308 11.9486 78.3485ZM10.3858 77.5089H11.4547L10.9149 76.1789ZM14.2416 76.0166V77.5406Q14.2416 77.7876 14.1182 77.9957Q13.9947 78.2038 13.7866 78.3273Q13.5784 78.4508 13.335 78.4508Q13.0881 78.4508 12.8799 78.3273Q12.6718 78.2038 12.5483 77.9957Q12.4248 77.7876 12.4248 77.5406V76.0166Q12.4248 75.9849 12.446 75.9655Q12.4672 75.9461 12.4989 75.9461Q12.5307 75.9461 12.5518 75.9672Q12.573 75.9884 12.573 76.0166V77.5406Q12.573 77.7488 12.6753 77.9251Q12.7776 78.1015 12.9522 78.2056Q13.1269 78.3097 13.335 78.3097Q13.5431 78.3097 13.7178 78.2056Q13.8924 78.1015 13.9965 77.9251Q14.1005 77.7488 14.1005 77.5406V76.0166Q14.1005 75.9884 14.1199 75.9672Q14.1393 75.9461 14.1711 75.9461Q14.2028 75.9461 14.2222 75.9672Q14.2416 75.9884 14.2416 76.0166ZM16.958 77.1808Q16.958 77.53 16.8469 77.8087Q16.7358 78.0874 16.5065 78.2515Q16.2772 78.4155 15.935 78.4155H15.0178Q14.9895 78.4155 14.9684 78.3943Q14.9472 78.3732 14.9472 78.3449V76.0166Q14.9472 75.9884 14.9684 75.9672Q14.9895 75.9461 15.0178 75.9461H15.935Q16.2736 75.9461 16.5047 76.1154Q16.7358 76.2847 16.8469 76.5652Q16.958 76.8456 16.958 77.1808ZM16.8099 77.1808Q16.8099 76.8809 16.7128 76.6322Q16.6158 76.3835 16.413 76.2353Q16.2101 76.0872 15.8997 76.0872H15.0954V78.2744H15.8997Q16.3583 78.2744 16.5841 77.9728Q16.8099 77.6711 16.8099 77.1808ZM17.5613 78.4155Q17.526 78.4155 17.5066 78.3943Q17.4872 78.3732 17.4872 78.3414V76.0201Q17.4872 75.9884 17.5084 75.9672Q17.5295 75.9461 17.5613 75.9461Q17.593 75.9461 17.6142 75.9672Q17.6354 75.9884 17.6354 76.0201V78.3414Q17.6318 78.3732 17.6107 78.3943Q17.5895 78.4155 17.5613 78.4155ZM19.3428 78.4508Q19.0006 78.4508 18.7325 78.2903Q18.4644 78.1298 18.3145 77.8405Q18.1645 77.5512 18.1645 77.1808Q18.1645 76.8104 18.3145 76.5211Q18.4644 76.2318 18.7325 76.0713Q19.0006 75.9108 19.3428 75.9108Q19.685 75.9108 19.9531 76.0713Q20.2212 76.2318 20.3712 76.5211Q20.5211 76.8104 20.5211 77.1808Q20.5211 77.5512 20.3712 77.8405Q20.2212 78.1298 19.9531 78.2903Q19.685 78.4508 19.3428 78.4508ZM19.3428 76.0519Q19.0429 76.0519 18.8083 76.193Q18.5737 76.3341 18.4432 76.5916Q18.3127 76.8492 18.3127 77.1808Q18.3127 77.5124 18.4432 77.7699Q18.5737 78.0274 18.8083 78.1686Q19.0429 78.3097 19.3428 78.3097Q19.6427 78.3097 19.8773 78.1686Q20.1119 78.0274 20.2424 77.7699Q20.3729 77.5124 20.3729 77.1808Q20.3729 76.8492 20.2424 76.5916Q20.1119 76.3341 19.8773 76.193Q19.6427 76.0519 19.3428 76.0519Z" style="stroke:#000000;stroke-width:0.25;stroke-linecap:round;stroke-linejoin:bevel" />
        <path d="M13.6207 93.5116Q13.6207 93.5434 13.5996 93.5628Q13.5784 93.5822 13.5502 93.5822H12.2202Q12.192 93.5822 12.1708 93.561Q12.1497 93.5398 12.1497 93.5116V91.1833Q12.1497 91.1551 12.1708 91.1339Q12.192 91.1127 12.2202 91.1127H13.5502Q13.5784 91.1127 13.5996 91.1339Q13.6207 91.1551 13.6207 91.1833Q13.6207 91.215 13.5996 91.2344Q13.5784 91.2538 13.5502 91.2538H12.2978V92.2381H13.3914Q13.4197 92.2381 13.4408 92.2593Q13.462 92.2804 13.462 92.3086Q13.462 92.3404 13.4408 92.3598Q13.4197 92.3792 13.3914 92.3792H12.2978V93.4411H13.5502Q13.5784 93.4411 13.5996 93.4622Q13.6207 93.4834 13.6207 93.5116ZM16.002 91.1797V93.5046Q16.002 93.5434 15.9808 93.5628Q15.9597 93.5822 15.9279 93.5822Q15.8926 93.5822 15.8715 93.5539L14.284 91.3844V93.5222Q14.284 93.5469 14.2646 93.5645Q14.2452 93.5822 14.2169 93.5822Q14.1852 93.5822 14.1676 93.5645Q14.1499 93.5469 14.1499 93.5222V91.1833Q14.1499 91.148 14.1693 91.1304Q14.1887 91.1127 14.2134 91.1127Q14.2452 91.1127 14.2663 91.1374L15.8679 93.3211V91.1797Q15.8679 91.1515 15.8873 91.1321Q15.9067 91.1127 15.935 91.1127Q15.9667 91.1127 15.9844 91.1321Q16.002 91.1515 16.002 91.1797ZM18.5596 91.1762Q18.5596 91.1903 18.5526 91.2115L17.586 93.5363Q17.5648 93.5822 17.5189 93.5822Q17.4978 93.5822 17.4784 93.5698Q17.459 93.5575 17.4519 93.5363L16.4924 91.2221Q16.4818 91.2009 16.4818 91.1797Q16.4818 91.1515 16.5012 91.1321Q16.5206 91.1127 16.5488 91.1127Q16.6017 91.1127 16.6264 91.1692L17.5225 93.3246L18.4221 91.1586Q18.4467 91.1127 18.4891 91.1127Q18.5208 91.1127 18.5402 91.1304Q18.5596 91.148 18.5596 91.1762Z" style="stroke:#000000;stroke-width:0.25;stroke-linecap:round;stroke-linejoin:bevel" />
        <path d="M12.1191 106.343Q12.1191 106.357 12.112 106.378L11.1454 108.703Q11.1243 108.749 11.0784 108.749Q11.0572 108.749 11.0378 108.736Q11.0184 108.724 11.0114 108.703L10.0518 106.389Q10.0412 106.368 10.0412 106.346Q10.0412 106.318 10.0606 106.299Q10.08 106.279 10.1083 106.279Q10.1612 106.279 10.1859 106.336L11.0819 108.491L11.9815 106.325Q12.0062 106.279 12.0485 106.279Q12.0803 106.279 12.0997 106.297Q12.1191 106.315 12.1191 106.343ZM12.2426 109.126Q12.2426 109.105 12.2531 109.084L13.823 106.011Q13.8477 105.965 13.8689 105.95Q13.89 105.934 13.9253 105.934Q13.95 105.934 13.9694 105.951Q13.9888 105.969 13.9888 106.001Q13.9888 106.029 13.9747 106.057L12.4048 109.133Q12.3837 109.172 12.3643 109.186Q12.3449 109.2 12.3131 109.2Q12.2778 109.2 12.2602 109.179Q12.2426 109.158 12.2426 109.126ZM15.3858 108.784Q15.0436 108.784 14.7755 108.624Q14.5074 108.463 14.3575 108.174Q14.2075 107.885 14.2075 107.514Q14.2075 107.144 14.3575 106.854Q14.5074 106.565 14.7755 106.405Q15.0436 106.244 15.3858 106.244Q15.728 106.244 15.9961 106.405Q16.2642 106.565 16.4142 106.854Q16.5641 107.144 16.5641 107.514Q16.5641 107.885 16.4142 108.174Q16.2642 108.463 15.9961 108.624Q15.728 108.784 15.3858 108.784ZM15.3858 106.385Q15.086 106.385 14.8514 106.526Q14.6168 106.667 14.4862 106.925Q14.3557 107.183 14.3557 107.514Q14.3557 107.846 14.4862 108.103Q14.6168 108.361 14.8514 108.502Q15.086 108.643 15.3858 108.643Q15.6857 108.643 15.9203 108.502Q16.1549 108.361 16.2854 108.103Q16.4159 107.846 16.4159 107.514Q16.4159 107.183 16.2854 106.925Q16.1549 106.667 15.9203 106.526Q15.6857 106.385 15.3858 106.385ZM18.9524 106.54Q18.9524 106.569 18.9383 106.586Q18.9171 106.615 18.8854 106.615Q18.8713 106.615 18.843 106.6Q18.515 106.378 18.1481 106.378Q17.8517 106.378 17.603 106.525Q17.3543 106.671 17.2097 106.93Q17.065 107.19 17.065 107.514Q17.065 107.839 17.2097 108.098Q17.3543 108.357 17.603 108.504Q17.8517 108.65 18.1481 108.65Q18.5185 108.65 18.8395 108.431Q18.8571 108.417 18.8818 108.417Q18.9171 108.417 18.9383 108.445Q18.9524 108.463 18.9524 108.488Q18.9524 108.523 18.9242 108.544Q18.7866 108.643 18.5696 108.714Q18.3527 108.784 18.1481 108.784Q17.8129 108.784 17.5307 108.618Q17.2485 108.453 17.0827 108.161Q16.9169 107.87 16.9169 107.514Q16.9169 107.158 17.0827 106.867Q17.2485 106.576 17.5307 106.41Q17.8129 106.244 18.1481 106.244Q18.3597 106.244 18.5591 106.308Q18.7584 106.371 18.9206 106.484Q18.9524 106.509 18.9524 106.54ZM21.055 106.346Q21.055 106.378 21.0356 106.396Q21.0161 106.413 20.9844 106.413H20.1977V108.678Q20.1977 108.707 20.1765 108.728Q20.1554 108.749 20.1271 108.749Q20.0954 108.749 20.076 108.728Q20.0566 108.707 20.0566 108.678V106.413H19.2699Q19.2417 106.413 19.2205 106.394Q19.1993 106.375 19.1993 106.346Q19.1993 106.318 19.2205 106.299Q19.2417 106.279 19.2699 106.279H20.9844Q21.0126 106.279 21.0338 106.299Q21.055 106.318 21.055 106.346Z" style="stroke:#000000;stroke-width:0.25;stroke-linecap:round;stroke-linejoin:bevel" />
        <path d="M 6.24,23.00 L 24.24,23.00 z " style="stroke:#000000;stroke-width:0.25;stroke-linecap:round;stroke-linejoin:bevel;stroke-dasharray:none" />
        <path d="M10.4863 15.3464Q10.4863 15.3782 10.4669 15.3958Q10.4475 15.4134 10.4158 15.4134H9.62907V17.6783Q9.62907 17.7065 9.6079 17.7277Q9.58674 17.7488 9.55851 17.7488Q9.52676 17.7488 9.50736 17.7277Q9.48796 17.7065 9.48796 17.6783V15.4134H8.70126Q8.67304 15.4134 8.65188 15.394Q8.63071 15.3746 8.63071 15.3464Q8.63071 15.3182 8.65188 15.2988Q8.67304 15.2794 8.70126 15.2794H10.4158Q10.444 15.2794 10.4652 15.2988Q10.4863 15.3182 10.4863 15.3464ZM12.797 15.3535V17.6747Q12.7935 17.7065 12.7723 17.7277Q12.7512 17.7488 12.7229 17.7488Q12.6877 17.7488 12.6683 17.7277Q12.6488 17.7065 12.6488 17.6747V16.5494H11.1107V17.6747Q11.1072 17.7065 11.086 17.7277Q11.0649 17.7488 11.0367 17.7488Q11.0014 17.7488 10.982 17.7277Q10.9626 17.7065 10.9626 17.6747V15.3535Q10.9626 15.3217 10.9837 15.3006Q11.0049 15.2794 11.0367 15.2794Q11.0684 15.2794 11.0896 15.3006Q11.1107 15.3217 11.1107 15.3535V16.4083H12.6488V15.3535Q12.6488 15.3217 12.67 15.3006Q12.6912 15.2794 12.7229 15.2794Q12.7547 15.2794 12.7758 15.3006Q12.797 15.3217 12.797 15.3535ZM15.2982 17.6747Q15.2982 17.7065 15.2788 17.7259Q15.2594 17.7453 15.2312 17.7453Q15.21 17.7453 15.1994 17.7383Q15.1042 17.6853 15.0477 17.5601Q14.9913 17.4349 14.9913 17.1491Q14.9913 16.8598 14.8361 16.7522Q14.6808 16.6446 14.4762 16.6446H13.6507V17.6783Q13.6507 17.7065 13.6296 17.7277Q13.6084 17.7488 13.5767 17.7488Q13.5449 17.7488 13.5237 17.7277Q13.5026 17.7065 13.5026 17.6783V15.3499Q13.5026 15.3217 13.5237 15.3006Q13.5449 15.2794 13.5731 15.2794H14.5045Q14.7091 15.2794 14.8678 15.3623Q15.0266 15.4452 15.1148 15.5898Q15.203 15.7345 15.203 15.9179Q15.203 16.1543 15.0777 16.3236Q14.9525 16.4929 14.7514 16.5529Q14.9207 16.6058 15.0301 16.7628Q15.1395 16.9198 15.1395 17.1491Q15.1395 17.3855 15.1694 17.479Q15.1994 17.5724 15.2594 17.6113Q15.2982 17.6359 15.2982 17.6747ZM14.5221 16.5035Q14.7443 16.4824 14.8996 16.3271Q15.0548 16.1719 15.0548 15.9214Q15.0548 15.7027 14.8996 15.5616Q14.7443 15.4205 14.4868 15.4205H13.6507V16.5035ZM17.3161 17.6783Q17.3161 17.71 17.2949 17.7294Q17.2738 17.7488 17.2455 17.7488H15.9156Q15.8873 17.7488 15.8662 17.7277Q15.845 17.7065 15.845 17.6783V15.3499Q15.845 15.3217 15.8662 15.3006Q15.8873 15.2794 15.9156 15.2794H17.2455Q17.2738 15.2794 17.2949 15.3006Q17.3161 15.3217 17.3161 15.3499Q17.3161 15.3817 17.2949 15.4011Q17.2738 15.4205 17.2455 15.4205H15.9932V16.4047H17.0868Q17.115 16.4047 17.1362 16.4259Q17.1573 16.4471 17.1573 16.4753Q17.1573 16.5071 17.1362 16.5265Q17.115 16.5459 17.0868 16.5459H15.9932V17.6077H17.2455Q17.2738 17.6077 17.2949 17.6289Q17.3161 17.6501 17.3161 17.6783ZM17.6371 17.4137Q17.616 17.3925 17.616 17.3608Q17.616 17.3326 17.6407 17.3061Q17.6653 17.2796 17.6936 17.2796Q17.7253 17.2796 17.7535 17.3114Q17.8911 17.4737 18.0799 17.5583Q18.2686 17.643 18.4767 17.643Q18.7484 17.643 18.9248 17.5125Q19.1012 17.3819 19.1012 17.1668Q19.0976 16.9974 19.0094 16.8881Q18.9212 16.7787 18.7925 16.7134Q18.6637 16.6482 18.4415 16.567Q18.198 16.4753 18.0622 16.4047Q17.9264 16.3342 17.8294 16.2037Q17.7324 16.0731 17.7324 15.8615Q17.7324 15.6886 17.8276 15.5475Q17.9229 15.4064 18.0993 15.3253Q18.2757 15.2441 18.5085 15.2441Q18.7166 15.2441 18.9036 15.32Q19.0906 15.3958 19.1999 15.5334Q19.2352 15.5828 19.2352 15.6075Q19.2352 15.6357 19.2088 15.6586Q19.1823 15.6816 19.1505 15.6816Q19.1223 15.6816 19.1047 15.6604Q19.0059 15.5334 18.8507 15.4593Q18.6955 15.3852 18.5085 15.3852Q18.2404 15.3852 18.0622 15.5122Q17.8841 15.6392 17.8841 15.8579Q17.8841 16.0096 17.9705 16.1155Q18.0569 16.2213 18.1875 16.2866Q18.318 16.3518 18.512 16.4224Q18.759 16.5106 18.9036 16.5847Q19.0482 16.6588 19.1505 16.7999Q19.2528 16.941 19.2528 17.1738Q19.2528 17.3361 19.1576 17.4772Q19.0623 17.6183 18.8842 17.7012Q18.706 17.7841 18.4767 17.7841Q18.2157 17.7841 18.0217 17.6942Q17.8276 17.6042 17.6371 17.4137ZM21.62 15.3535V17.6747Q21.6165 17.7065 21.5953 17.7277Q21.5741 17.7488 21.5459 17.7488Q21.5106 17.7488 21.4912 17.7277Q21.4718 17.7065 21.4718 17.6747V16.5494H19.9337V17.6747Q19.9302 17.7065 19.909 17.7277Q19.8878 17.7488 19.8596 17.7488Q19.8243 17.7488 19.8049 17.7277Q19.7855 17.7065 19.7855 17.6747V15.3535Q19.7855 15.3217 19.8067 15.3006Q19.8279 15.2794 19.8596 15.2794Q19.8914 15.2794 19.9125 15.3006Q19.9337 15.3217 19.9337 15.3535V16.4083H21.4718V15.3535Q21.4718 15.3217 21.493 15.3006Q21.5142 15.2794 21.5459 15.2794Q21.5777 15.2794 21.5988 15.3006Q21.62 15.3217 21.62 15.3535Z" style="stroke:#000000;stroke-width:0.25;stroke-linecap:round;stroke-linejoin:bevel" />
        <path d="M 6.24,38.17 L 24.24,38.17 z " style="stroke:#000000;stroke-width:0.25;stroke-linecap:round;stroke-linejoin:bevel;stroke-dasharray:none" />
        <path d="M10.0965 32.5804Q10.0753 32.5592 10.0753 32.5274Q10.0753 32.4992 10.1 32.4728Q10.1247 32.4463 10.1529 32.4463Q10.1847 32.4463 10.2129 32.4781Q10.3505 32.6403 10.5392 32.725Q10.728 32.8097 10.9361 32.8097Q11.2078 32.8097 11.3841 32.6791Q11.5605 32.5486 11.5605 32.3334Q11.557 32.1641 11.4688 32.0547Q11.3806 31.9454 11.2518 31.8801Q11.1231 31.8148 10.9008 31.7337Q10.6574 31.642 10.5216 31.5714Q10.3858 31.5009 10.2888 31.3703Q10.1918 31.2398 10.1918 31.0281Q10.1918 30.8553 10.287 30.7142Q10.3823 30.5731 10.5586 30.4919Q10.735 30.4108 10.9679 30.4108Q11.176 30.4108 11.363 30.4866Q11.5499 30.5625 11.6593 30.7001Q11.6946 30.7494 11.6946 30.7741Q11.6946 30.8024 11.6681 30.8253Q11.6417 30.8482 11.6099 30.8482Q11.5817 30.8482 11.5641 30.8271Q11.4653 30.7001 11.3101 30.626Q11.1548 30.5519 10.9679 30.5519Q10.6998 30.5519 10.5216 30.6789Q10.3434 30.8059 10.3434 31.0246Q10.3434 31.1763 10.4299 31.2821Q10.5163 31.388 10.6468 31.4532Q10.7774 31.5185 10.9714 31.5891Q11.2183 31.6772 11.363 31.7513Q11.5076 31.8254 11.6099 31.9665Q11.7122 32.1076 11.7122 32.3405Q11.7122 32.5027 11.617 32.6439Q11.5217 32.785 11.3436 32.8679Q11.1654 32.9508 10.9361 32.9508Q10.6751 32.9508 10.481 32.8608Q10.287 32.7709 10.0965 32.5804ZM13.8289 31.1199Q13.8289 31.3174 13.746 31.4779Q13.6631 31.6384 13.5114 31.7284Q13.3597 31.8184 13.1621 31.8184H12.3931V32.8449Q12.3931 32.8732 12.3702 32.8943Q12.3472 32.9155 12.319 32.9155Q12.2873 32.9155 12.2661 32.8943Q12.2449 32.8732 12.2449 32.8449V30.5166Q12.2449 30.4884 12.2661 30.4672Q12.2873 30.4461 12.3155 30.4461H13.1621Q13.462 30.4461 13.6454 30.633Q13.8289 30.82 13.8289 31.1199ZM13.6807 31.1199Q13.6807 30.8764 13.5414 30.7318Q13.402 30.5872 13.1621 30.5872H12.3931V31.6772H13.1621Q13.3985 31.6772 13.5396 31.5203Q13.6807 31.3633 13.6807 31.1199ZM15.8115 32.8449Q15.8115 32.8767 15.7903 32.8961Q15.7692 32.9155 15.7409 32.9155H14.411Q14.3828 32.9155 14.3616 32.8943Q14.3404 32.8732 14.3404 32.8449V30.5166Q14.3404 30.4884 14.3616 30.4672Q14.3828 30.4461 14.411 30.4461H15.7409Q15.7692 30.4461 15.7903 30.4672Q15.8115 30.4884 15.8115 30.5166Q15.8115 30.5484 15.7903 30.5678Q15.7692 30.5872 15.7409 30.5872H14.4886V31.5714H15.5822Q15.6104 31.5714 15.6316 31.5926Q15.6528 31.6137 15.6528 31.642Q15.6528 31.6737 15.6316 31.6931Q15.6104 31.7125 15.5822 31.7125H14.4886V32.7744H15.7409Q15.7692 32.7744 15.7903 32.7956Q15.8115 32.8167 15.8115 32.8449ZM17.8117 32.8449Q17.8117 32.8767 17.7906 32.8961Q17.7694 32.9155 17.7412 32.9155H16.4112Q16.383 32.9155 16.3618 32.8943Q16.3407 32.8732 16.3407 32.8449V30.5166Q16.3407 30.4884 16.3618 30.4672Q16.383 30.4461 16.4112 30.4461H17.7412Q17.7694 30.4461 17.7906 30.4672Q17.8117 30.4884 17.8117 30.5166Q17.8117 30.5484 17.7906 30.5678Q17.7694 30.5872 17.7412 30.5872H16.4888V31.5714H17.5824Q17.6107 31.5714 17.6318 31.5926Q17.653 31.6137 17.653 31.642Q17.653 31.6737 17.6318 31.6931Q17.6107 31.7125 17.5824 31.7125H16.4888V32.7744H17.7412Q17.7694 32.7744 17.7906 32.7956Q17.8117 32.8167 17.8117 32.8449ZM20.3518 31.6808Q20.3518 32.03 20.2406 32.3087Q20.1295 32.5874 19.9002 32.7515Q19.6709 32.9155 19.3287 32.9155H18.4115Q18.3833 32.9155 18.3621 32.8943Q18.3409 32.8732 18.3409 32.8449V30.5166Q18.3409 30.4884 18.3621 30.4672Q18.3833 30.4461 18.4115 30.4461H19.3287Q19.6674 30.4461 19.8984 30.6154Q20.1295 30.7847 20.2406 31.0652Q20.3518 31.3456 20.3518 31.6808ZM20.2036 31.6808Q20.2036 31.3809 20.1066 31.1322Q20.0096 30.8835 19.8067 30.7353Q19.6039 30.5872 19.2934 30.5872H18.4891V32.7744H19.2934Q19.752 32.7744 19.9778 32.4728Q20.2036 32.1711 20.2036 31.6808Z" style="stroke:#000000;stroke-width:0.25;stroke-linecap:round;stroke-linejoin:bevel" />
        <path d="M 6.24,53.33 L 24.24,53.33 z " style="stroke:#000000;stroke-width:0.25;stroke-linecap:round;stroke-linejoin:bevel;stroke-dasharray:none" />
        <path d="M10.6851 48.0116Q10.6851 48.0434 10.6639 48.0628Q10.6427 48.0822 10.6145 48.0822H9.3198Q9.28805 48.0822 9.26865 48.061Q9.24925 48.0398 9.24925 48.0116V45.6833Q9.24925 45.6551 9.27041 45.6339Q9.29158 45.6127 9.32333 45.6127Q9.35508 45.6127 9.37625 45.6339Q9.39741 45.6551 9.39741 45.6833V47.9411H10.6145Q10.6427 47.9411 10.6639 47.9622Q10.6851 47.9834 10.6851 48.0116ZM12.0926 48.1174Q11.7504 48.1174 11.4823 47.9569Q11.2142 47.7964 11.0643 47.5071Q10.9144 47.2179 10.9144 46.8474Q10.9144 46.477 11.0643 46.1877Q11.2142 45.8985 11.4823 45.738Q11.7504 45.5774 12.0926 45.5774Q12.4348 45.5774 12.7029 45.738Q12.9711 45.8985 13.121 46.1877Q13.2709 46.477 13.2709 46.8474Q13.2709 47.2179 13.121 47.5071Q12.9711 47.7964 12.7029 47.9569Q12.4348 48.1174 12.0926 48.1174ZM12.0926 45.7186Q11.7928 45.7186 11.5582 45.8597Q11.3236 46.0008 11.1931 46.2583Q11.0625 46.5158 11.0625 46.8474Q11.0625 47.1791 11.1931 47.4366Q11.3236 47.6941 11.5582 47.8352Q11.7928 47.9763 12.0926 47.9763Q12.3925 47.9763 12.6271 47.8352Q12.8617 47.6941 12.9922 47.4366Q13.1227 47.1791 13.1227 46.8474Q13.1227 46.5158 12.9922 46.2583Q12.8617 46.0008 12.6271 45.8597Q12.3925 45.7186 12.0926 45.7186ZM16.6117 45.8738Q16.6117 45.902 16.5976 45.9196Q16.5764 45.9479 16.5447 45.9479Q16.5306 45.9479 16.5024 45.9337Q16.1743 45.7115 15.8074 45.7115Q15.5111 45.7115 15.2623 45.8579Q15.0136 46.0043 14.869 46.2636Q14.7244 46.5229 14.7244 46.8474Q14.7244 47.172 14.869 47.4313Q15.0136 47.6906 15.2623 47.837Q15.5111 47.9834 15.8074 47.9834Q16.1778 47.9834 16.4988 47.7647Q16.5165 47.7506 16.5412 47.7506Q16.5764 47.7506 16.5976 47.7788Q16.6117 47.7964 16.6117 47.8211Q16.6117 47.8564 16.5835 47.8776Q16.4459 47.9763 16.229 48.0469Q16.012 48.1174 15.8074 48.1174Q15.4722 48.1174 15.19 47.9516Q14.9078 47.7858 14.742 47.4948Q14.5762 47.2037 14.5762 46.8474Q14.5762 46.4911 14.742 46.2001Q14.9078 45.9091 15.19 45.7432Q15.4722 45.5774 15.8074 45.5774Q16.0191 45.5774 16.2184 45.6409Q16.4177 45.7044 16.58 45.8173Q16.6117 45.842 16.6117 45.8738ZM18.9048 45.6833V47.2073Q18.9048 47.4542 18.7813 47.6624Q18.6578 47.8705 18.4497 47.994Q18.2416 48.1174 17.9981 48.1174Q17.7512 48.1174 17.5431 47.994Q17.3349 47.8705 17.2114 47.6624Q17.088 47.4542 17.088 47.2073V45.6833Q17.088 45.6515 17.1091 45.6321Q17.1303 45.6127 17.1621 45.6127Q17.1938 45.6127 17.215 45.6339Q17.2361 45.6551 17.2361 45.6833V47.2073Q17.2361 47.4154 17.3384 47.5918Q17.4407 47.7682 17.6154 47.8723Q17.79 47.9763 17.9981 47.9763Q18.2063 47.9763 18.3809 47.8723Q18.5555 47.7682 18.6596 47.5918Q18.7637 47.4154 18.7637 47.2073V45.6833Q18.7637 45.6551 18.7831 45.6339Q18.8025 45.6127 18.8342 45.6127Q18.866 45.6127 18.8854 45.6339Q18.9048 45.6551 18.9048 45.6833ZM21.2366 45.6797Q21.2366 45.7115 21.2172 45.7291Q21.1978 45.7468 21.1661 45.7468H20.3794V48.0116Q20.3794 48.0398 20.3582 48.061Q20.3371 48.0822 20.3088 48.0822Q20.2771 48.0822 20.2577 48.061Q20.2383 48.0398 20.2383 48.0116V45.7468H19.4516Q19.4234 45.7468 19.4022 45.7274Q19.381 45.708 19.381 45.6797Q19.381 45.6515 19.4022 45.6321Q19.4234 45.6127 19.4516 45.6127H21.1661Q21.1943 45.6127 21.2155 45.6321Q21.2366 45.6515 21.2366 45.6797Z" style="stroke:#000000;stroke-width:0.25;stroke-linecap:round;stroke-linejoin:bevel" />
        <path d="M 6.24,68.50 L 24.24,68.50 z " style="stroke:#000000;stroke-width:0.25;stroke-linecap:round;stroke-linejoin:bevel;stroke-dasharray:none" />
        <path d="M11.6622 60.8535V63.1747Q11.6587 63.2065 11.6376 63.2277Q11.6164 63.2488 11.5882 63.2488Q11.5529 63.2488 11.5335 63.2277Q11.5141 63.2065 11.5141 63.1747V62.0494H9.97597V63.1747Q9.97244 63.2065 9.95127 63.2277Q9.93011 63.2488 9.90188 63.2488Q9.86661 63.2488 9.8472 63.2277Q9.8278 63.2065 9.8278 63.1747V60.8535Q9.8278 60.8217 9.84897 60.8006Q9.87013 60.7794 9.90188 60.7794Q9.93363 60.7794 9.9548 60.8006Q9.97597 60.8217 9.97597 60.8535V61.9083H11.5141V60.8535Q11.5141 60.8217 11.5352 60.8006Q11.5564 60.7794 11.5882 60.7794Q11.6199 60.7794 11.6411 60.8006Q11.6622 60.8217 11.6622 60.8535ZM12.4419 63.2488Q12.4066 63.2488 12.3872 63.2277Q12.3678 63.2065 12.3678 63.1747V60.8535Q12.3678 60.8217 12.389 60.8006Q12.4101 60.7794 12.4419 60.7794Q12.4736 60.7794 12.4948 60.8006Q12.516 60.8217 12.516 60.8535V63.1747Q12.5124 63.2065 12.4913 63.2277Q12.4701 63.2488 12.4419 63.2488ZM16.0332 61.0404Q16.0332 61.0687 16.0191 61.0863Q15.9979 61.1145 15.9661 61.1145Q15.952 61.1145 15.9238 61.1004Q15.5957 60.8782 15.2288 60.8782Q14.9325 60.8782 14.6838 61.0246Q14.4351 61.171 14.2904 61.4303Q14.1458 61.6896 14.1458 62.0141Q14.1458 62.3387 14.2904 62.598Q14.4351 62.8572 14.6838 63.0037Q14.9325 63.1501 15.2288 63.1501Q15.5992 63.1501 15.9203 62.9313Q15.9379 62.9172 15.9626 62.9172Q15.9979 62.9172 16.0191 62.9454Q16.0332 62.9631 16.0332 62.9878Q16.0332 63.0231 16.0049 63.0442Q15.8674 63.143 15.6504 63.2136Q15.4334 63.2841 15.2288 63.2841Q14.8937 63.2841 14.6115 63.1183Q14.3292 62.9525 14.1634 62.6615Q13.9976 62.3704 13.9976 62.0141Q13.9976 61.6578 14.1634 61.3668Q14.3292 61.0757 14.6115 60.9099Q14.8937 60.7441 15.2288 60.7441Q15.4405 60.7441 15.6398 60.8076Q15.8391 60.8711 16.0014 60.984Q16.0332 61.0087 16.0332 61.0404ZM18.3262 60.8499V62.3739Q18.3262 62.6209 18.2027 62.829Q18.0793 63.0372 17.8711 63.1606Q17.663 63.2841 17.4196 63.2841Q17.1726 63.2841 16.9645 63.1606Q16.7564 63.0372 16.6329 62.829Q16.5094 62.6209 16.5094 62.3739V60.8499Q16.5094 60.8182 16.5306 60.7988Q16.5517 60.7794 16.5835 60.7794Q16.6152 60.7794 16.6364 60.8006Q16.6576 60.8217 16.6576 60.8499V62.3739Q16.6576 62.5821 16.7599 62.7585Q16.8622 62.9349 17.0368 63.0389Q17.2114 63.143 17.4196 63.143Q17.6277 63.143 17.8023 63.0389Q17.977 62.9349 18.081 62.7585Q18.1851 62.5821 18.1851 62.3739V60.8499Q18.1851 60.8217 18.2045 60.8006Q18.2239 60.7794 18.2557 60.7794Q18.2874 60.7794 18.3068 60.8006Q18.3262 60.8217 18.3262 60.8499ZM20.6581 60.8464Q20.6581 60.8782 20.6387 60.8958Q20.6193 60.9134 20.5875 60.9134H19.8008V63.1783Q19.8008 63.2065 19.7797 63.2277Q19.7585 63.2488 19.7303 63.2488Q19.6985 63.2488 19.6791 63.2277Q19.6597 63.2065 19.6597 63.1783V60.9134H18.873Q18.8448 60.9134 18.8236 60.894Q18.8025 60.8746 18.8025 60.8464Q18.8025 60.8182 18.8236 60.7988Q18.8448 60.7794 18.873 60.7794H20.5875Q20.6157 60.7794 20.6369 60.7988Q20.6581 60.8182 20.6581 60.8464Z" style="stroke:#000000;stroke-width:0.25;stroke-linecap:round;stroke-linejoin:bevel" />
    </g>
</svg>
