<?xml version="1.0" encoding="utf-8"?>
<svg xmlns="http://www.w3.org/2000/svg" width="30.48mm" height="128.50mm" viewBox="0 0 30.48 128.50">
    <g id="PanelLayer">
        <defs />
        <rect id="border_rect" width="30.48" height="128.5" x="0" y="0" style="display:inline;fill:#4f8df2;fill-opacity:1;fill-rule:nonzero;stroke:#5021d4;stroke-width:0.7;stroke-linecap:round;stroke-linejoin:round;stroke-dasharray:none;stroke-opacity:1;image-rendering:auto" />
        <path id="sapphire_gemstone" d="m 17.955,122.900 q 0,0.34175 -0.242534,0.63114 -0.0441,0.0524 -0.20395,0.21497 -0.187413,0.19017 -0.785481,0.81304 l -1.444183,1.51309 q -0.01929,0.003 -0.0441,0.003 -0.02756,0 -0.04134,-0.003 -0.08268,-0.0827 -0.647678,-0.67524 -0.468532,-0.47404 -0.934309,-0.94809 -0.556727,-0.56775 -0.89848,-0.98116 -0.132292,-0.15985 -0.168121,-0.29766 -0.02756,-0.10197 -0.02756,-0.34175 0,-0.11024 0.07166,-0.28939 0.06614,-0.16536 0.140559,-0.26458 0.118512,-0.1571 0.42168,-0.42444 0.283875,-0.2508 0.474044,-0.37482 0.272852,-0.17915 0.818555,-0.36656 0.09646,-0.0331 0.110243,-0.0331 h 1.3615 q 0.01102,0 0.104731,0.0331 0.567751,0.20119 0.824066,0.36656 0.165365,0.10473 0.474045,0.37758 0.322461,0.28388 0.421679,0.42168 0.214974,0.2949 0.214974,0.62563 z m -0.16812,-0.27285 q -0.03307,-0.10749 -0.135048,-0.30868 -0.07166,-0.0937 -0.209462,-0.19844 -0.118511,-0.0854 -0.234266,-0.17088 0.245291,0.3638 0.578776,0.678 z m -0.573264,-0.52366 -0.358289,-0.44648 v 0.41065 z m 0.636653,0.75792 q 0,-0.0524 -0.341753,-0.39412 l 0.228754,0.7028 h 0.04961 q 0.06339,-0.21773 0.06339,-0.30868 z m -0.23151,0.27285 -0.316948,-0.90399 -0.410655,-0.0634 -0.159853,0.61461 z m 0.0028,0.15434 -0.771701,-0.3197 h -0.03032 l 0.344509,0.60634 q 0.07993,-0.003 0.234266,-0.0469 0.02481,-0.0138 0.223242,-0.23978 z m -0.857139,-1.05006 -0.719335,0.28388 0.60358,0.22599 z m 0,-0.16261 v -0.51538 l -0.917773,-0.38034 h -1.223697 l -0.917772,0.38034 v 0.51538 l 0.89848,0.4079 h 1.254014 z m 0.573264,1.53789 q -0.0689,0.011 -0.198438,0.0524 -0.08544,0.0551 -0.259071,0.16261 0.01929,0 0.06339,0.003 0.04134,0 0.06339,0 0.118511,0 0.190169,-0.0689 0.07166,-0.0717 0.14056,-0.14883 z m -0.289388,0.003 -0.347266,-0.63114 -0.363801,0.87918 q 0.0248,-0.0165 0.06615,-0.0165 0.03032,0 0.08544,0.011 0.05788,0.008 0.08819,0.008 0.04961,0 0.228754,-0.10749 0.228754,-0.1378 0.242535,-0.14331 z m -0.440972,-0.74139 -0.683507,-0.2756 -0.592556,0.54845 0.903993,0.65595 z m -0.854383,-0.28387 h -1.036284 l 0.523654,0.47404 z m 0.749652,1.36701 q -0.228754,-0.0303 -0.228754,-0.0303 -0.03583,0 -0.272851,0.0937 l 0.190169,0.0193 q 0.01102,0 0.311436,-0.0827 z m -0.388606,-0.0882 -0.843359,-0.61185 v 0.67524 l 0.471289,0.0827 z m 0.854383,0.0496 q -0.09922,0.006 -0.2949,0.0386 -0.01102,0.003 -0.377583,0.17639 -0.129535,0.34726 -0.380338,1.0418 z m -2.543857,-1.39733 -0.719335,-0.28388 0.124023,0.51814 z m -0.802018,-0.45476 v -0.41065 l -0.366557,0.44648 z m 1.515841,1.07212 -0.592556,-0.54019 -0.683506,0.2756 0.380338,0.9288 z m 0.369314,0.94257 q -0.03307,-0.003 -0.135047,-0.0248 -0.08544,-0.0165 -0.137804,-0.0165 -0.05237,0 -0.137804,0.0165 -0.101975,0.0221 -0.135047,0.0248 0.264583,0.0469 0.272851,0.0469 0.0083,0 0.272851,-0.0469 z m -0.30868,-0.1378 v -0.68626 l -0.843359,0.61185 0.37207,0.14607 z m 0.950846,0.20671 -0.396875,-0.0551 -0.479557,0.14056 v 1.27607 z m -2.888366,-2.20211 q -0.118512,0.0854 -0.234267,0.17364 -0.146072,0.10748 -0.209461,0.19568 -0.0441,0.10473 -0.135048,0.31419 0.369314,-0.3638 0.578776,-0.68351 z m 0.476801,0.83234 -0.159853,-0.61461 -0.410655,0.0634 -0.316948,0.90399 z m 0.394118,1.08313 -0.363802,-0.87918 -0.355533,0.63114 q 0.43546,0.2508 0.451996,0.2508 0.09095,0 0.267339,-0.003 z m 1.821765,0.82958 q -0.132291,0.21222 -0.405143,0.6339 -0.07717,0.10749 -0.220486,0.32797 -0.05788,0.10473 -0.05512,0.226 0.159852,-0.15158 0.432704,-0.49609 0.07717,-0.12954 0.140559,-0.339 0.05512,-0.17639 0.107486,-0.35278 z m -1.493792,-0.66146 -0.270095,-0.0882 -0.0083,-0.011 q -0.02481,0 -0.107487,0.011 -0.06615,0.006 -0.107487,0.006 0.272851,0.091 0.311436,0.091 0.02481,0 0.181901,-0.008 z m -0.810286,-1.06384 h -0.03032 l -0.7717,0.3197 q 0.06615,0.0965 0.223242,0.23978 0.07717,0.0138 0.234266,0.0469 z m -0.689018,-0.50161 q -0.341754,0.34727 -0.341754,0.39412 0,0.0799 0.06339,0.30868 h 0.04961 z m 2.235176,3.04547 v -1.27607 l -0.479557,-0.14056 -0.396875,0.0551 z m -1.606791,-1.6757 q -0.256315,-0.1819 -0.457509,-0.22324 0.06615,0.0772 0.20395,0.22324 z m 1.609547,2.04501 v -0.1378 l -0.683507,-1.05007 q 0.05237,0.17639 0.107487,0.35278 0.06339,0.20946 0.14056,0.339 0.0689,0.11851 0.20395,0.25907 0.115755,0.11851 0.23151,0.23702 z m -0.644921,-0.70555 q -0.115756,-0.32798 -0.380339,-1.0418 -0.135047,-0.0662 -0.272851,-0.12954 -0.159852,-0.0716 -0.289388,-0.0716 -0.05237,0 -0.110243,-0.0138 z" style="stroke-width:0;fill:#0000ff;stroke:#2e2114;stroke-linecap:square;stroke-opacity:1" />
        <path id="model_name" d="M12.7254 7.35962Q12.7254 7.41395 12.6944 7.45276Q12.4382 7.79425 12.0579 8.01156Q11.6776 8.22887 11.243 8.22887Q10.6609 8.22887 10.2108 7.98051Q9.76066 7.73216 9.50842 7.27425Q9.25618 6.81635 9.25618 6.21098Q9.25618 5.59009 9.50066 5.12054Q9.74513 4.651 10.1487 4.40264Q10.5523 4.15429 11.0102 4.15429Q11.4681 4.15429 11.86 4.35219Q12.252 4.5501 12.5003 4.94592Q12.7487 5.34174 12.7642 5.92382Q12.7642 5.98591 12.7176 6.03636Q12.6711 6.0868 12.609 6.0868H9.55887V6.1877Q9.55887 6.66889 9.75289 7.06858Q9.94692 7.46828 10.3272 7.70111Q10.7075 7.93395 11.243 7.93395Q11.6156 7.93395 11.9454 7.75156Q12.2753 7.56917 12.4615 7.28977Q12.5159 7.21992 12.5935 7.21992Q12.6478 7.21992 12.6866 7.26261Q12.7254 7.3053 12.7254 7.35962ZM9.58991 5.79188H12.446V5.72203Q12.4072 5.32621 12.1938 5.04293Q11.9803 4.75965 11.666 4.61219Q11.3517 4.46473 11.0102 4.46473Q10.723 4.46473 10.4242 4.61607Q10.1254 4.76741 9.89648 5.06622Q9.66752 5.36502 9.58991 5.79188ZM16.9319 5.62114V7.99604Q16.9319 8.05812 16.8854 8.10469Q16.8388 8.15126 16.7767 8.15126Q16.7068 8.15126 16.6642 8.10469Q16.6215 8.05812 16.6215 7.99604V5.65218Q16.6215 5.12443 16.346 4.78682Q16.0704 4.44921 15.5116 4.44921Q15.1701 4.44921 14.8403 4.61219Q14.5105 4.77517 14.3009 5.05457Q14.0914 5.33397 14.0914 5.65218V7.99604Q14.0914 8.05812 14.0448 8.10469Q13.9982 8.15126 13.9361 8.15126Q13.8663 8.15126 13.8236 8.10469Q13.7809 8.05812 13.7809 7.99604V4.43369Q13.7809 4.3716 13.8275 4.32503Q13.874 4.27846 13.9361 4.27846Q14.006 4.27846 14.0487 4.32503Q14.0914 4.3716 14.0914 4.43369V4.95368Q14.3164 4.60443 14.7239 4.37936Q15.1313 4.15429 15.5427 4.15429Q16.2334 4.15429 16.5827 4.56174Q16.9319 4.9692 16.9319 5.62114ZM21.3014 4.26294Q21.3014 4.30951 21.2781 4.35608L19.7337 8.05036Q19.7182 8.09693 19.6755 8.12409Q19.6328 8.15126 19.5862 8.15126Q19.5397 8.15126 19.497 8.12409Q19.4543 8.09693 19.4388 8.05036L17.8865 4.36384Q17.871 4.31727 17.871 4.29399Q17.871 4.2319 17.9137 4.18533Q17.9564 4.13876 18.034 4.13876Q18.0728 4.13876 18.1155 4.16593Q18.1582 4.19309 18.1737 4.23966L19.5785 7.61574L20.991 4.23966Q21.0298 4.13876 21.154 4.13876Q21.2005 4.13876 21.251 4.17369Q21.3014 4.20861 21.3014 4.26294Z" style="display:inline;stroke:#000000;stroke-width:0.35;stroke-linecap:round;stroke-linejoin:bevel" />
        <path d="M11.9486 76.6818Q11.9486 76.7136 11.9274 76.7312Q11.9062 76.7488 11.8745 76.7488Q11.8498 76.7488 11.8304 76.7365Q11.811 76.7241 11.8039 76.703L11.5076 75.9763L11.5111 75.9833H10.3293L10.0436 76.703Q10.0259 76.7488 9.98008 76.7488Q9.94833 76.7488 9.92893 76.7312Q9.90953 76.7136 9.906 76.6889Q9.90247 76.6748 9.90953 76.6536L10.8585 74.3182Q10.8691 74.29 10.885 74.2812Q10.9008 74.2723 10.9255 74.2723Q10.9784 74.2723 10.9961 74.3182L11.9451 76.6536Q11.9486 76.6642 11.9486 76.6818ZM10.3858 75.8422H11.4547L10.9149 74.5122ZM14.2416 74.3499V75.8739Q14.2416 76.1209 14.1182 76.329Q13.9947 76.5372 13.7866 76.6606Q13.5784 76.7841 13.335 76.7841Q13.0881 76.7841 12.8799 76.6606Q12.6718 76.5372 12.5483 76.329Q12.4248 76.1209 12.4248 75.8739V74.3499Q12.4248 74.3182 12.446 74.2988Q12.4672 74.2794 12.4989 74.2794Q12.5307 74.2794 12.5518 74.3006Q12.573 74.3217 12.573 74.3499V75.8739Q12.573 76.0821 12.6753 76.2585Q12.7776 76.4349 12.9522 76.5389Q13.1269 76.643 13.335 76.643Q13.5431 76.643 13.7178 76.5389Q13.8924 76.4349 13.9965 76.2585Q14.1005 76.0821 14.1005 75.8739V74.3499Q14.1005 74.3217 14.1199 74.3006Q14.1393 74.2794 14.1711 74.2794Q14.2028 74.2794 14.2222 74.3006Q14.2416 74.3217 14.2416 74.3499ZM16.958 75.5141Q16.958 75.8634 16.8469 76.1421Q16.7358 76.4207 16.5065 76.5848Q16.2772 76.7488 15.935 76.7488H15.0178Q14.9895 76.7488 14.9684 76.7277Q14.9472 76.7065 14.9472 76.6783V74.3499Q14.9472 74.3217 14.9684 74.3006Q14.9895 74.2794 15.0178 74.2794H15.935Q16.2736 74.2794 16.5047 74.4487Q16.7358 74.6181 16.8469 74.8985Q16.958 75.179 16.958 75.5141ZM16.8099 75.5141Q16.8099 75.2143 16.7128 74.9655Q16.6158 74.7168 16.413 74.5687Q16.2101 74.4205 15.8997 74.4205H15.0954V76.6077H15.8997Q16.3583 76.6077 16.5841 76.3061Q16.8099 76.0045 16.8099 75.5141ZM17.5613 76.7488Q17.526 76.7488 17.5066 76.7277Q17.4872 76.7065 17.4872 76.6748V74.3535Q17.4872 74.3217 17.5084 74.3006Q17.5295 74.2794 17.5613 74.2794Q17.593 74.2794 17.6142 74.3006Q17.6354 74.3217 17.6354 74.3535V76.6748Q17.6318 76.7065 17.6107 76.7277Q17.5895 76.7488 17.5613 76.7488ZM19.3428 76.7841Q19.0006 76.7841 18.7325 76.6236Q18.4644 76.4631 18.3145 76.1738Q18.1645 75.8845 18.1645 75.5141Q18.1645 75.1437 18.3145 74.8544Q18.4644 74.5651 18.7325 74.4046Q19.0006 74.2441 19.3428 74.2441Q19.685 74.2441 19.9531 74.4046Q20.2212 74.5651 20.3712 74.8544Q20.5211 75.1437 20.5211 75.5141Q20.5211 75.8845 20.3712 76.1738Q20.2212 76.4631 19.9531 76.6236Q19.685 76.7841 19.3428 76.7841ZM19.3428 74.3852Q19.0429 74.3852 18.8083 74.5263Q18.5737 74.6674 18.4432 74.925Q18.3127 75.1825 18.3127 75.5141Q18.3127 75.8457 18.4432 76.1033Q18.5737 76.3608 18.8083 76.5019Q19.0429 76.643 19.3428 76.643Q19.6427 76.643 19.8773 76.5019Q20.1119 76.3608 20.2424 76.1033Q20.3729 75.8457 20.3729 75.5141Q20.3729 75.1825 20.2424 74.925Q20.1119 74.6674 19.8773 74.5263Q19.6427 74.3852 19.3428 74.3852Z" style="stroke:#000000;stroke-width:0.25;stroke-linecap:round;stroke-linejoin:bevel" />
        <path d="M13.6207 93.1783Q13.6207 93.21 13.5996 93.2294Q13.5784 93.2488 13.5502 93.2488H12.2202Q12.192 93.2488 12.1708 93.2277Q12.1497 93.2065 12.1497 93.1783V90.8499Q12.1497 90.8217 12.1708 90.8006Q12.192 90.7794 12.2202 90.7794H13.5502Q13.5784 90.7794 13.5996 90.8006Q13.6207 90.8217 13.6207 90.8499Q13.6207 90.8817 13.5996 90.9011Q13.5784 90.9205 13.5502 90.9205H12.2978V91.9048H13.3914Q13.4197 91.9048 13.4408 91.9259Q13.462 91.9471 13.462 91.9753Q13.462 92.0071 13.4408 92.0265Q13.4197 92.0459 13.3914 92.0459H12.2978V93.1077H13.5502Q13.5784 93.1077 13.5996 93.1289Q13.6207 93.1501 13.6207 93.1783ZM16.002 90.8464V93.1712Q16.002 93.21 15.9808 93.2294Q15.9597 93.2488 15.9279 93.2488Q15.8926 93.2488 15.8715 93.2206L14.284 91.051V93.1889Q14.284 93.2136 14.2646 93.2312Q14.2452 93.2488 14.2169 93.2488Q14.1852 93.2488 14.1676 93.2312Q14.1499 93.2136 14.1499 93.1889V90.8499Q14.1499 90.8147 14.1693 90.797Q14.1887 90.7794 14.2134 90.7794Q14.2452 90.7794 14.2663 90.8041L15.8679 92.9878V90.8464Q15.8679 90.8182 15.8873 90.7988Q15.9067 90.7794 15.935 90.7794Q15.9667 90.7794 15.9844 90.7988Q16.002 90.8182 16.002 90.8464ZM18.5596 90.8429Q18.5596 90.857 18.5526 90.8782L17.586 93.203Q17.5648 93.2488 17.5189 93.2488Q17.4978 93.2488 17.4784 93.2365Q17.459 93.2241 17.4519 93.203L16.4924 90.8888Q16.4818 90.8676 16.4818 90.8464Q16.4818 90.8182 16.5012 90.7988Q16.5206 90.7794 16.5488 90.7794Q16.6017 90.7794 16.6264 90.8358L17.5225 92.9913L18.4221 90.8253Q18.4467 90.7794 18.4891 90.7794Q18.5208 90.7794 18.5402 90.797Q18.5596 90.8147 18.5596 90.8429Z" style="stroke:#000000;stroke-width:0.25;stroke-linecap:round;stroke-linejoin:bevel" />
        <path d="M12.1191 107.343Q12.1191 107.357 12.112 107.378L11.1454 109.703Q11.1243 109.749 11.0784 109.749Q11.0572 109.749 11.0378 109.736Q11.0184 109.724 11.0114 109.703L10.0518 107.389Q10.0412 107.368 10.0412 107.346Q10.0412 107.318 10.0606 107.299Q10.08 107.279 10.1083 107.279Q10.1612 107.279 10.1859 107.336L11.0819 109.491L11.9815 107.325Q12.0062 107.279 12.0485 107.279Q12.0803 107.279 12.0997 107.297Q12.1191 107.315 12.1191 107.343ZM12.2426 110.126Q12.2426 110.105 12.2531 110.084L13.823 107.011Q13.8477 106.965 13.8689 106.95Q13.89 106.934 13.9253 106.934Q13.95 106.934 13.9694 106.951Q13.9888 106.969 13.9888 107.001Q13.9888 107.029 13.9747 107.057L12.4048 110.133Q12.3837 110.172 12.3643 110.186Q12.3449 110.2 12.3131 110.2Q12.2778 110.2 12.2602 110.179Q12.2426 110.158 12.2426 110.126ZM15.3858 109.784Q15.0436 109.784 14.7755 109.624Q14.5074 109.463 14.3575 109.174Q14.2075 108.885 14.2075 108.514Q14.2075 108.144 14.3575 107.854Q14.5074 107.565 14.7755 107.405Q15.0436 107.244 15.3858 107.244Q15.728 107.244 15.9961 107.405Q16.2642 107.565 16.4142 107.854Q16.5641 108.144 16.5641 108.514Q16.5641 108.885 16.4142 109.174Q16.2642 109.463 15.9961 109.624Q15.728 109.784 15.3858 109.784ZM15.3858 107.385Q15.086 107.385 14.8514 107.526Q14.6168 107.667 14.4862 107.925Q14.3557 108.183 14.3557 108.514Q14.3557 108.846 14.4862 109.103Q14.6168 109.361 14.8514 109.502Q15.086 109.643 15.3858 109.643Q15.6857 109.643 15.9203 109.502Q16.1549 109.361 16.2854 109.103Q16.4159 108.846 16.4159 108.514Q16.4159 108.183 16.2854 107.925Q16.1549 107.667 15.9203 107.526Q15.6857 107.385 15.3858 107.385ZM18.9524 107.54Q18.9524 107.569 18.9383 107.586Q18.9171 107.615 18.8854 107.615Q18.8713 107.615 18.843 107.6Q18.515 107.378 18.1481 107.378Q17.8517 107.378 17.603 107.525Q17.3543 107.671 17.2097 107.93Q17.065 108.19 17.065 108.514Q17.065 108.839 17.2097 109.098Q17.3543 109.357 17.603 109.504Q17.8517 109.65 18.1481 109.65Q18.5185 109.65 18.8395 109.431Q18.8571 109.417 18.8818 109.417Q18.9171 109.417 18.9383 109.445Q18.9524 109.463 18.9524 109.488Q18.9524 109.523 18.9242 109.544Q18.7866 109.643 18.5696 109.714Q18.3527 109.784 18.1481 109.784Q17.8129 109.784 17.5307 109.618Q17.2485 109.453 17.0827 109.161Q16.9169 108.87 16.9169 108.514Q16.9169 108.158 17.0827 107.867Q17.2485 107.576 17.5307 107.41Q17.8129 107.244 18.1481 107.244Q18.3597 107.244 18.5591 107.308Q18.7584 107.371 18.9206 107.484Q18.9524 107.509 18.9524 107.54ZM21.055 107.346Q21.055 107.378 21.0356 107.396Q21.0161 107.413 20.9844 107.413H20.1977V109.678Q20.1977 109.707 20.1765 109.728Q20.1554 109.749 20.1271 109.749Q20.0954 109.749 20.076 109.728Q20.0566 109.707 20.0566 109.678V107.413H19.2699Q19.2417 107.413 19.2205 107.394Q19.1993 107.375 19.1993 107.346Q19.1993 107.318 19.2205 107.299Q19.2417 107.279 19.2699 107.279H20.9844Q21.0126 107.279 21.0338 107.299Q21.055 107.318 21.055 107.346Z" style="stroke:#000000;stroke-width:0.25;stroke-linecap:round;stroke-linejoin:bevel" />
        <path d="M10.4863 19.6464Q10.4863 19.6782 10.4669 19.6958Q10.4475 19.7134 10.4158 19.7134H9.62907V21.9783Q9.62907 22.0065 9.6079 22.0277Q9.58674 22.0488 9.55851 22.0488Q9.52676 22.0488 9.50736 22.0277Q9.48796 22.0065 9.48796 21.9783V19.7134H8.70126Q8.67304 19.7134 8.65188 19.694Q8.63071 19.6746 8.63071 19.6464Q8.63071 19.6182 8.65188 19.5988Q8.67304 19.5794 8.70126 19.5794H10.4158Q10.444 19.5794 10.4652 19.5988Q10.4863 19.6182 10.4863 19.6464ZM12.797 19.6535V21.9747Q12.7935 22.0065 12.7723 22.0277Q12.7512 22.0488 12.7229 22.0488Q12.6877 22.0488 12.6683 22.0277Q12.6488 22.0065 12.6488 21.9747V20.8494H11.1107V21.9747Q11.1072 22.0065 11.086 22.0277Q11.0649 22.0488 11.0367 22.0488Q11.0014 22.0488 10.982 22.0277Q10.9626 22.0065 10.9626 21.9747V19.6535Q10.9626 19.6217 10.9837 19.6006Q11.0049 19.5794 11.0367 19.5794Q11.0684 19.5794 11.0896 19.6006Q11.1107 19.6217 11.1107 19.6535V20.7083H12.6488V19.6535Q12.6488 19.6217 12.67 19.6006Q12.6912 19.5794 12.7229 19.5794Q12.7547 19.5794 12.7758 19.6006Q12.797 19.6217 12.797 19.6535ZM15.2982 21.9747Q15.2982 22.0065 15.2788 22.0259Q15.2594 22.0453 15.2312 22.0453Q15.21 22.0453 15.1994 22.0382Q15.1042 21.9853 15.0477 21.8601Q14.9913 21.7349 14.9913 21.4491Q14.9913 21.1598 14.8361 21.0522Q14.6808 20.9446 14.4762 20.9446H13.6507V21.9783Q13.6507 22.0065 13.6296 22.0277Q13.6084 22.0488 13.5767 22.0488Q13.5449 22.0488 13.5237 22.0277Q13.5026 22.0065 13.5026 21.9783V19.6499Q13.5026 19.6217 13.5237 19.6006Q13.5449 19.5794 13.5731 19.5794H14.5045Q14.7091 19.5794 14.8678 19.6623Q15.0266 19.7452 15.1148 19.8898Q15.203 20.0345 15.203 20.2179Q15.203 20.4543 15.0777 20.6236Q14.9525 20.7929 14.7514 20.8529Q14.9207 20.9058 15.0301 21.0628Q15.1395 21.2198 15.1395 21.4491Q15.1395 21.6855 15.1694 21.779Q15.1994 21.8724 15.2594 21.9112Q15.2982 21.9359 15.2982 21.9747ZM14.5221 20.8035Q14.7443 20.7824 14.8996 20.6271Q15.0548 20.4719 15.0548 20.2214Q15.0548 20.0027 14.8996 19.8616Q14.7443 19.7205 14.4868 19.7205H13.6507V20.8035ZM17.3161 21.9783Q17.3161 22.01 17.2949 22.0294Q17.2738 22.0488 17.2455 22.0488H15.9156Q15.8873 22.0488 15.8662 22.0277Q15.845 22.0065 15.845 21.9783V19.6499Q15.845 19.6217 15.8662 19.6006Q15.8873 19.5794 15.9156 19.5794H17.2455Q17.2738 19.5794 17.2949 19.6006Q17.3161 19.6217 17.3161 19.6499Q17.3161 19.6817 17.2949 19.7011Q17.2738 19.7205 17.2455 19.7205H15.9932V20.7047H17.0868Q17.115 20.7047 17.1362 20.7259Q17.1573 20.7471 17.1573 20.7753Q17.1573 20.8071 17.1362 20.8265Q17.115 20.8459 17.0868 20.8459H15.9932V21.9077H17.2455Q17.2738 21.9077 17.2949 21.9289Q17.3161 21.9501 17.3161 21.9783ZM17.6371 21.7137Q17.616 21.6925 17.616 21.6608Q17.616 21.6326 17.6407 21.6061Q17.6653 21.5796 17.6936 21.5796Q17.7253 21.5796 17.7535 21.6114Q17.8911 21.7737 18.0799 21.8583Q18.2686 21.943 18.4767 21.943Q18.7484 21.943 18.9248 21.8125Q19.1012 21.6819 19.1012 21.4667Q19.0976 21.2974 19.0094 21.1881Q18.9212 21.0787 18.7925 21.0134Q18.6637 20.9482 18.4415 20.867Q18.198 20.7753 18.0622 20.7047Q17.9264 20.6342 17.8294 20.5037Q17.7324 20.3731 17.7324 20.1615Q17.7324 19.9886 17.8276 19.8475Q17.9229 19.7064 18.0993 19.6252Q18.2757 19.5441 18.5085 19.5441Q18.7166 19.5441 18.9036 19.62Q19.0906 19.6958 19.1999 19.8334Q19.2352 19.8828 19.2352 19.9075Q19.2352 19.9357 19.2088 19.9586Q19.1823 19.9816 19.1505 19.9816Q19.1223 19.9816 19.1047 19.9604Q19.0059 19.8334 18.8507 19.7593Q18.6955 19.6852 18.5085 19.6852Q18.2404 19.6852 18.0622 19.8122Q17.8841 19.9392 17.8841 20.1579Q17.8841 20.3096 17.9705 20.4155Q18.0569 20.5213 18.1875 20.5866Q18.318 20.6518 18.512 20.7224Q18.759 20.8106 18.9036 20.8847Q19.0482 20.9587 19.1505 21.0999Q19.2528 21.241 19.2528 21.4738Q19.2528 21.6361 19.1576 21.7772Q19.0623 21.9183 18.8842 22.0012Q18.706 22.0841 18.4767 22.0841Q18.2157 22.0841 18.0217 21.9942Q17.8276 21.9042 17.6371 21.7137ZM21.62 19.6535V21.9747Q21.6165 22.0065 21.5953 22.0277Q21.5741 22.0488 21.5459 22.0488Q21.5106 22.0488 21.4912 22.0277Q21.4718 22.0065 21.4718 21.9747V20.8494H19.9337V21.9747Q19.9302 22.0065 19.909 22.0277Q19.8878 22.0488 19.8596 22.0488Q19.8243 22.0488 19.8049 22.0277Q19.7855 22.0065 19.7855 21.9747V19.6535Q19.7855 19.6217 19.8067 19.6006Q19.8279 19.5794 19.8596 19.5794Q19.8914 19.5794 19.9125 19.6006Q19.9337 19.6217 19.9337 19.6535V20.7083H21.4718V19.6535Q21.4718 19.6217 21.493 19.6006Q21.5142 19.5794 21.5459 19.5794Q21.5777 19.5794 21.5988 19.6006Q21.62 19.6217 21.62 19.6535Z" style="stroke:#000000;stroke-width:0.25;stroke-linecap:round;stroke-linejoin:bevel" />
        <path d="M 15.24,30.00 L 10.24,41.00 z L 20.24,41.00 z " style="stroke:#000000;stroke-width:0.25;stroke-linecap:round;stroke-linejoin:bevel;stroke-dasharray:none" />
    </g>
</svg>
