<?xml version="1.0" encoding="utf-8"?>
<svg xmlns="http://www.w3.org/2000/svg" width="30.48mm" height="128.50mm" viewBox="0 0 30.48 128.50">
    <g id="PanelLayer">
        <defs>
            <linearGradient id="gradient_blue" x1="0" y1="11.4" x2="0" y2="68.2857" gradientUnits="userSpaceOnUse">
                <stop style="stop-color:#3068ff;stop-opacity:1;" offset="0" />
                <stop style="stop-color:#4f8df2;stop-opacity:1;" offset="1" />
            </linearGradient>
            <linearGradient id="gradient_purple" x1="0" y1="78.5429" x2="0" y2="95.1429" gradientUnits="userSpaceOnUse">
                <stop style="stop-color:#a06de4;stop-opacity:1;" offset="0" />
                <stop style="stop-color:#4f8df2;stop-opacity:1;" offset="1" />
            </linearGradient>
            <linearGradient id="gradient_out" x1="0" y1="91.9714" x2="0" y2="122" gradientUnits="userSpaceOnUse">
                <stop style="stop-color:#29aab4;stop-opacity:1;" offset="0" />
                <stop style="stop-color:#4f8df2;stop-opacity:1;" offset="1" />
            </linearGradient>
        </defs>
        <rect id="border_rect" width="30.48" height="128.5" x="0" y="0" style="display:inline;fill:#4f8df2;fill-opacity:1;stroke:none;" />
        <path id="control_art" d="M 0.38,68.29 L 0.38,15.40 A 4 4 0 0 1 4.38 11.4 L 26.10,11.40 A 4 4 0 0 1 30.1 15.4 L 30.10,11.40 L 30.10,68.29 z" style="fill:url(#gradient_blue);fill-opacity:1;stroke-width:0;" />
        <path id="audio_art" d="M 0.38,95.14 L 0.38,82.54 A 4 4 0 0 1 4.38 78.5429 L 26.10,78.54 A 4 4 0 0 1 30.1 82.5429 L 30.10,78.54 L 30.10,95.14 z" style="fill:url(#gradient_purple);fill-opacity:1;stroke-width:0;" />
        <path id="out_art" d="M 0.38,122.00 L 0.38,95.97 A 4 4 0 0 1 4.38 91.9714 L 26.10,91.97 A 4 4 0 0 1 30.1 95.9714 L 30.10,91.97 L 30.10,122.00 z" style="fill:url(#gradient_out);fill-opacity:1;stroke-width:0;" />
        <path id="sapphire_gemstone" d="m 17.955,122.900 q 0,0.34175 -0.242534,0.63114 -0.0441,0.0524 -0.20395,0.21497 -0.187413,0.19017 -0.785481,0.81304 l -1.444183,1.51309 q -0.01929,0.003 -0.0441,0.003 -0.02756,0 -0.04134,-0.003 -0.08268,-0.0827 -0.647678,-0.67524 -0.468532,-0.47404 -0.934309,-0.94809 -0.556727,-0.56775 -0.89848,-0.98116 -0.132292,-0.15985 -0.168121,-0.29766 -0.02756,-0.10197 -0.02756,-0.34175 0,-0.11024 0.07166,-0.28939 0.06614,-0.16536 0.140559,-0.26458 0.118512,-0.1571 0.42168,-0.42444 0.283875,-0.2508 0.474044,-0.37482 0.272852,-0.17915 0.818555,-0.36656 0.09646,-0.0331 0.110243,-0.0331 h 1.3615 q 0.01102,0 0.104731,0.0331 0.567751,0.20119 0.824066,0.36656 0.165365,0.10473 0.474045,0.37758 0.322461,0.28388 0.421679,0.42168 0.214974,0.2949 0.214974,0.62563 z m -0.16812,-0.27285 q -0.03307,-0.10749 -0.135048,-0.30868 -0.07166,-0.0937 -0.209462,-0.19844 -0.118511,-0.0854 -0.234266,-0.17088 0.245291,0.3638 0.578776,0.678 z m -0.573264,-0.52366 -0.358289,-0.44648 v 0.41065 z m 0.636653,0.75792 q 0,-0.0524 -0.341753,-0.39412 l 0.228754,0.7028 h 0.04961 q 0.06339,-0.21773 0.06339,-0.30868 z m -0.23151,0.27285 -0.316948,-0.90399 -0.410655,-0.0634 -0.159853,0.61461 z m 0.0028,0.15434 -0.771701,-0.3197 h -0.03032 l 0.344509,0.60634 q 0.07993,-0.003 0.234266,-0.0469 0.02481,-0.0138 0.223242,-0.23978 z m -0.857139,-1.05006 -0.719335,0.28388 0.60358,0.22599 z m 0,-0.16261 v -0.51538 l -0.917773,-0.38034 h -1.223697 l -0.917772,0.38034 v 0.51538 l 0.89848,0.4079 h 1.254014 z m 0.573264,1.53789 q -0.0689,0.011 -0.198438,0.0524 -0.08544,0.0551 -0.259071,0.16261 0.01929,0 0.06339,0.003 0.04134,0 0.06339,0 0.118511,0 0.190169,-0.0689 0.07166,-0.0717 0.14056,-0.14883 z m -0.289388,0.003 -0.347266,-0.63114 -0.363801,0.87918 q 0.0248,-0.0165 0.06615,-0.0165 0.03032,0 0.08544,0.011 0.05788,0.008 0.08819,0.008 0.04961,0 0.228754,-0.10749 0.228754,-0.1378 0.242535,-0.14331 z m -0.440972,-0.74139 -0.683507,-0.2756 -0.592556,0.54845 0.903993,0.65595 z m -0.854383,-0.28387 h -1.036284 l 0.523654,0.47404 z m 0.749652,1.36701 q -0.228754,-0.0303 -0.228754,-0.0303 -0.03583,0 -0.272851,0.0937 l 0.190169,0.0193 q 0.01102,0 0.311436,-0.0827 z m -0.388606,-0.0882 -0.843359,-0.61185 v 0.67524 l 0.471289,0.0827 z m 0.854383,0.0496 q -0.09922,0.006 -0.2949,0.0386 -0.01102,0.003 -0.377583,0.17639 -0.129535,0.34726 -0.380338,1.0418 z m -2.543857,-1.39733 -0.719335,-0.28388 0.124023,0.51814 z m -0.802018,-0.45476 v -0.41065 l -0.366557,0.44648 z m 1.515841,1.07212 -0.592556,-0.54019 -0.683506,0.2756 0.380338,0.9288 z m 0.369314,0.94257 q -0.03307,-0.003 -0.135047,-0.0248 -0.08544,-0.0165 -0.137804,-0.0165 -0.05237,0 -0.137804,0.0165 -0.101975,0.0221 -0.135047,0.0248 0.264583,0.0469 0.272851,0.0469 0.0083,0 0.272851,-0.0469 z m -0.30868,-0.1378 v -0.68626 l -0.843359,0.61185 0.37207,0.14607 z m 0.950846,0.20671 -0.396875,-0.0551 -0.479557,0.14056 v 1.27607 z m -2.888366,-2.20211 q -0.118512,0.0854 -0.234267,0.17364 -0.146072,0.10748 -0.209461,0.19568 -0.0441,0.10473 -0.135048,0.31419 0.369314,-0.3638 0.578776,-0.68351 z m 0.476801,0.83234 -0.159853,-0.61461 -0.410655,0.0634 -0.316948,0.90399 z m 0.394118,1.08313 -0.363802,-0.87918 -0.355533,0.63114 q 0.43546,0.2508 0.451996,0.2508 0.09095,0 0.267339,-0.003 z m 1.821765,0.82958 q -0.132291,0.21222 -0.405143,0.6339 -0.07717,0.10749 -0.220486,0.32797 -0.05788,0.10473 -0.05512,0.226 0.159852,-0.15158 0.432704,-0.49609 0.07717,-0.12954 0.140559,-0.339 0.05512,-0.17639 0.107486,-0.35278 z m -1.493792,-0.66146 -0.270095,-0.0882 -0.0083,-0.011 q -0.02481,0 -0.107487,0.011 -0.06615,0.006 -0.107487,0.006 0.272851,0.091 0.311436,0.091 0.02481,0 0.181901,-0.008 z m -0.810286,-1.06384 h -0.03032 l -0.7717,0.3197 q 0.06615,0.0965 0.223242,0.23978 0.07717,0.0138 0.234266,0.0469 z m -0.689018,-0.50161 q -0.341754,0.34727 -0.341754,0.39412 0,0.0799 0.06339,0.30868 h 0.04961 z m 2.235176,3.04547 v -1.27607 l -0.479557,-0.14056 -0.396875,0.0551 z m -1.606791,-1.6757 q -0.256315,-0.1819 -0.457509,-0.22324 0.06615,0.0772 0.20395,0.22324 z m 1.609547,2.04501 v -0.1378 l -0.683507,-1.05007 q 0.05237,0.17639 0.107487,0.35278 0.06339,0.20946 0.14056,0.339 0.0689,0.11851 0.20395,0.25907 0.115755,0.11851 0.23151,0.23702 z m -0.644921,-0.70555 q -0.115756,-0.32798 -0.380339,-1.0418 -0.135047,-0.0662 -0.272851,-0.12954 -0.159852,-0.0716 -0.289388,-0.0716 -0.05237,0 -0.110243,-0.0138 z" style="stroke-width:0;fill:#0000ff;stroke:#2e2114;stroke-linecap:square;stroke-opacity:1" />
        <path id="model_name" d="M12.7254 7.35962Q12.7254 7.41395 12.6944 7.45276Q12.4382 7.79425 12.0579 8.01156Q11.6776 8.22887 11.243 8.22887Q10.6609 8.22887 10.2108 7.98051Q9.76066 7.73216 9.50842 7.27425Q9.25618 6.81635 9.25618 6.21098Q9.25618 5.59009 9.50066 5.12054Q9.74513 4.651 10.1487 4.40264Q10.5523 4.15429 11.0102 4.15429Q11.4681 4.15429 11.86 4.35219Q12.252 4.5501 12.5003 4.94592Q12.7487 5.34174 12.7642 5.92382Q12.7642 5.98591 12.7176 6.03636Q12.6711 6.0868 12.609 6.0868H9.55887V6.1877Q9.55887 6.66889 9.75289 7.06858Q9.94692 7.46828 10.3272 7.70111Q10.7075 7.93395 11.243 7.93395Q11.6156 7.93395 11.9454 7.75156Q12.2753 7.56917 12.4615 7.28977Q12.5159 7.21992 12.5935 7.21992Q12.6478 7.21992 12.6866 7.26261Q12.7254 7.3053 12.7254 7.35962ZM9.58991 5.79188H12.446V5.72203Q12.4072 5.32621 12.1938 5.04293Q11.9803 4.75965 11.666 4.61219Q11.3517 4.46473 11.0102 4.46473Q10.723 4.46473 10.4242 4.61607Q10.1254 4.76741 9.89648 5.06622Q9.66752 5.36502 9.58991 5.79188ZM16.9319 5.62114V7.99604Q16.9319 8.05812 16.8854 8.10469Q16.8388 8.15126 16.7767 8.15126Q16.7068 8.15126 16.6642 8.10469Q16.6215 8.05812 16.6215 7.99604V5.65218Q16.6215 5.12443 16.346 4.78682Q16.0704 4.44921 15.5116 4.44921Q15.1701 4.44921 14.8403 4.61219Q14.5105 4.77517 14.3009 5.05457Q14.0914 5.33397 14.0914 5.65218V7.99604Q14.0914 8.05812 14.0448 8.10469Q13.9982 8.15126 13.9361 8.15126Q13.8663 8.15126 13.8236 8.10469Q13.7809 8.05812 13.7809 7.99604V4.43369Q13.7809 4.3716 13.8275 4.32503Q13.874 4.27846 13.9361 4.27846Q14.006 4.27846 14.0487 4.32503Q14.0914 4.3716 14.0914 4.43369V4.95368Q14.3164 4.60443 14.7239 4.37936Q15.1313 4.15429 15.5427 4.15429Q16.2334 4.15429 16.5827 4.56174Q16.9319 4.9692 16.9319 5.62114ZM21.3014 4.26294Q21.3014 4.30951 21.2781 4.35608L19.7337 8.05036Q19.7182 8.09693 19.6755 8.12409Q19.6328 8.15126 19.5862 8.15126Q19.5397 8.15126 19.497 8.12409Q19.4543 8.09693 19.4388 8.05036L17.8865 4.36384Q17.871 4.31727 17.871 4.29399Q17.871 4.2319 17.9137 4.18533Q17.9564 4.13876 18.034 4.13876Q18.0728 4.13876 18.1155 4.16593Q18.1582 4.19309 18.1737 4.23966L19.5785 7.61574L20.991 4.23966Q21.0298 4.13876 21.154 4.13876Q21.2005 4.13876 21.251 4.17369Q21.3014 4.20861 21.3014 4.26294Z" style="display:inline;stroke:#000000;stroke-width:0.35;stroke-linecap:round;stroke-linejoin:bevel" />
        <path d="M11.9486 82.5247Q11.9486 82.5564 11.9274 82.5741Q11.9062 82.5917 11.8745 82.5917Q11.8498 82.5917 11.8304 82.5793Q11.811 82.567 11.8039 82.5458L11.5076 81.8191L11.5111 81.8262H10.3293L10.0436 82.5458Q10.0259 82.5917 9.98008 82.5917Q9.94833 82.5917 9.92893 82.5741Q9.90953 82.5564 9.906 82.5317Q9.90247 82.5176 9.90953 82.4964L10.8585 80.1611Q10.8691 80.1328 10.885 80.124Q10.9008 80.1152 10.9255 80.1152Q10.9784 80.1152 10.9961 80.1611L11.9451 82.4964Q11.9486 82.507 11.9486 82.5247ZM10.3858 81.6851H11.4547L10.9149 80.3551ZM14.2416 80.1928V81.7168Q14.2416 81.9637 14.1182 82.1719Q13.9947 82.38 13.7866 82.5035Q13.5784 82.627 13.335 82.627Q13.0881 82.627 12.8799 82.5035Q12.6718 82.38 12.5483 82.1719Q12.4248 81.9637 12.4248 81.7168V80.1928Q12.4248 80.1611 12.446 80.1416Q12.4672 80.1222 12.4989 80.1222Q12.5307 80.1222 12.5518 80.1434Q12.573 80.1646 12.573 80.1928V81.7168Q12.573 81.9249 12.6753 82.1013Q12.7776 82.2777 12.9522 82.3818Q13.1269 82.4859 13.335 82.4859Q13.5431 82.4859 13.7178 82.3818Q13.8924 82.2777 13.9965 82.1013Q14.1005 81.9249 14.1005 81.7168V80.1928Q14.1005 80.1646 14.1199 80.1434Q14.1393 80.1222 14.1711 80.1222Q14.2028 80.1222 14.2222 80.1434Q14.2416 80.1646 14.2416 80.1928ZM16.958 81.357Q16.958 81.7062 16.8469 81.9849Q16.7358 82.2636 16.5065 82.4276Q16.2772 82.5917 15.935 82.5917H15.0178Q14.9895 82.5917 14.9684 82.5705Q14.9472 82.5494 14.9472 82.5211V80.1928Q14.9472 80.1646 14.9684 80.1434Q14.9895 80.1222 15.0178 80.1222H15.935Q16.2736 80.1222 16.5047 80.2916Q16.7358 80.4609 16.8469 80.7414Q16.958 81.0218 16.958 81.357ZM16.8099 81.357Q16.8099 81.0571 16.7128 80.8084Q16.6158 80.5597 16.413 80.4115Q16.2101 80.2634 15.8997 80.2634H15.0954V82.4506H15.8997Q16.3583 82.4506 16.5841 82.149Q16.8099 81.8473 16.8099 81.357ZM17.5613 82.5917Q17.526 82.5917 17.5066 82.5705Q17.4872 82.5494 17.4872 82.5176V80.1963Q17.4872 80.1646 17.5084 80.1434Q17.5295 80.1222 17.5613 80.1222Q17.593 80.1222 17.6142 80.1434Q17.6354 80.1646 17.6354 80.1963V82.5176Q17.6318 82.5494 17.6107 82.5705Q17.5895 82.5917 17.5613 82.5917ZM19.3428 82.627Q19.0006 82.627 18.7325 82.4665Q18.4644 82.3059 18.3145 82.0167Q18.1645 81.7274 18.1645 81.357Q18.1645 80.9866 18.3145 80.6973Q18.4644 80.408 18.7325 80.2475Q19.0006 80.087 19.3428 80.087Q19.685 80.087 19.9531 80.2475Q20.2212 80.408 20.3712 80.6973Q20.5211 80.9866 20.5211 81.357Q20.5211 81.7274 20.3712 82.0167Q20.2212 82.3059 19.9531 82.4665Q19.685 82.627 19.3428 82.627ZM19.3428 80.2281Q19.0429 80.2281 18.8083 80.3692Q18.5737 80.5103 18.4432 80.7678Q18.3127 81.0254 18.3127 81.357Q18.3127 81.6886 18.4432 81.9461Q18.5737 82.2036 18.8083 82.3447Q19.0429 82.4859 19.3428 82.4859Q19.6427 82.4859 19.8773 82.3447Q20.1119 82.2036 20.2424 81.9461Q20.3729 81.6886 20.3729 81.357Q20.3729 81.0254 20.2424 80.7678Q20.1119 80.5103 19.8773 80.3692Q19.6427 80.2281 19.3428 80.2281Z" style="stroke:#000000;stroke-width:0.25;stroke-linecap:round;stroke-linejoin:bevel" />
        <path d="M7.12075 95.9497Q7.12075 95.9815 7.09958 96.0009Q7.07842 96.0203 7.05019 96.0203H5.72022Q5.692 96.0203 5.67083 95.9991Q5.64967 95.9779 5.64967 95.9497V93.6214Q5.64967 93.5932 5.67083 93.572Q5.692 93.5508 5.72022 93.5508H7.05019Q7.07842 93.5508 7.09958 93.572Q7.12075 93.5932 7.12075 93.6214Q7.12075 93.6531 7.09958 93.6725Q7.07842 93.6919 7.05019 93.6919H5.79783V94.6762H6.89144Q6.91967 94.6762 6.94083 94.6973Q6.962 94.7185 6.962 94.7467Q6.962 94.7785 6.94083 94.7979Q6.91967 94.8173 6.89144 94.8173H5.79783V95.8792H7.05019Q7.07842 95.8792 7.09958 95.9003Q7.12075 95.9215 7.12075 95.9497ZM9.502 93.6178V95.9427Q9.502 95.9815 9.48083 96.0009Q9.45967 96.0203 9.42792 96.0203Q9.39264 96.0203 9.37147 95.992L7.78397 93.8225V95.9603Q7.78397 95.985 7.76457 96.0026Q7.74517 96.0203 7.71694 96.0203Q7.68519 96.0203 7.66756 96.0026Q7.64992 95.985 7.64992 95.9603V93.6214Q7.64992 93.5861 7.66932 93.5685Q7.68872 93.5508 7.71342 93.5508Q7.74517 93.5508 7.76633 93.5755L9.36794 95.7592V93.6178Q9.36794 93.5896 9.38735 93.5702Q9.40675 93.5508 9.43497 93.5508Q9.46672 93.5508 9.48436 93.5702Q9.502 93.5896 9.502 93.6178ZM12.0596 93.6143Q12.0596 93.6284 12.0526 93.6496L11.086 95.9744Q11.0648 96.0203 11.0189 96.0203Q10.9978 96.0203 10.9784 96.0079Q10.959 95.9956 10.9519 95.9744L9.99236 93.6602Q9.98178 93.639 9.98178 93.6178Q9.98178 93.5896 10.0012 93.5702Q10.0206 93.5508 10.0488 93.5508Q10.1017 93.5508 10.1264 93.6073L11.0225 95.7627L11.9221 93.5967Q11.9467 93.5508 11.9891 93.5508Q12.0208 93.5508 12.0402 93.5685Q12.0596 93.5861 12.0596 93.6143Z" style="stroke:#000000;stroke-width:0.25;stroke-linecap:round;stroke-linejoin:bevel" />
        <path d="M19.5387 94.8737V95.7592Q19.5387 95.8015 19.5069 95.8227Q19.3446 95.9321 19.1524 95.9938Q18.9601 96.0555 18.7626 96.0555Q18.3992 96.0555 18.1117 95.8915Q17.8242 95.7275 17.6601 95.4382Q17.4961 95.1489 17.4961 94.7855Q17.4961 94.4222 17.6601 94.1329Q17.8242 93.8436 18.1117 93.6796Q18.3992 93.5155 18.7626 93.5155Q18.9601 93.5155 19.1383 93.5632Q19.3164 93.6108 19.4575 93.706Q19.4893 93.7272 19.4893 93.766Q19.4893 93.7978 19.4663 93.8172Q19.4434 93.8366 19.4223 93.8366Q19.4046 93.8366 19.3764 93.8225Q19.0801 93.6567 18.7626 93.6567Q18.438 93.6567 18.184 93.8013Q17.93 93.9459 17.7871 94.2035Q17.6443 94.461 17.6443 94.7855Q17.6443 95.1101 17.7871 95.3676Q17.93 95.6252 18.184 95.7698Q18.438 95.9144 18.7626 95.9144Q18.9248 95.9144 19.0924 95.8633Q19.26 95.8121 19.3976 95.7275V94.9443H18.7626Q18.7343 94.9443 18.7132 94.9231Q18.692 94.902 18.692 94.8737Q18.692 94.842 18.7132 94.8226Q18.7343 94.8032 18.7626 94.8032H19.4681Q19.4999 94.8032 19.5193 94.8243Q19.5387 94.8455 19.5387 94.8737ZM21.934 95.9532Q21.934 95.985 21.9129 96.0026Q21.8917 96.0203 21.8599 96.0203Q21.8353 96.0203 21.8158 96.0079Q21.7964 95.9956 21.7894 95.9744L21.4931 95.2477L21.4966 95.2547H20.3148L20.029 95.9744Q20.0114 96.0203 19.9655 96.0203Q19.9338 96.0203 19.9144 96.0026Q19.895 95.985 19.8914 95.9603Q19.8879 95.9462 19.895 95.925L20.8439 93.5896Q20.8545 93.5614 20.8704 93.5526Q20.8863 93.5438 20.911 93.5438Q20.9639 93.5438 20.9815 93.5896L21.9305 95.925Q21.934 95.9356 21.934 95.9532ZM20.3712 95.1136H21.4401L20.9004 93.7837ZM24.0366 93.6178Q24.0366 93.6496 24.0172 93.6672Q23.9978 93.6849 23.966 93.6849H23.1793V95.9497Q23.1793 95.9779 23.1582 95.9991Q23.137 96.0203 23.1088 96.0203Q23.077 96.0203 23.0576 95.9991Q23.0382 95.9779 23.0382 95.9497V93.6849H22.2515Q22.2233 93.6849 22.2021 93.6655Q22.181 93.6461 22.181 93.6178Q22.181 93.5896 22.2021 93.5702Q22.2233 93.5508 22.2515 93.5508H23.966Q23.9943 93.5508 24.0154 93.5702Q24.0366 93.5896 24.0366 93.6178ZM25.9839 95.9497Q25.9839 95.9815 25.9628 96.0009Q25.9416 96.0203 25.9134 96.0203H24.5834Q24.5552 96.0203 24.534 95.9991Q24.5128 95.9779 24.5128 95.9497V93.6214Q24.5128 93.5932 24.534 93.572Q24.5552 93.5508 24.5834 93.5508H25.9134Q25.9416 93.5508 25.9628 93.572Q25.9839 93.5932 25.9839 93.6214Q25.9839 93.6531 25.9628 93.6725Q25.9416 93.6919 25.9134 93.6919H24.661V94.6762H25.7546Q25.7828 94.6762 25.804 94.6973Q25.8252 94.7185 25.8252 94.7467Q25.8252 94.7785 25.804 94.7979Q25.7828 94.8173 25.7546 94.8173H24.661V95.8792H25.9134Q25.9416 95.8792 25.9628 95.9003Q25.9839 95.9215 25.9839 95.9497Z" style="stroke:#000000;stroke-width:0.25;stroke-linecap:round;stroke-linejoin:bevel" />
        <path id="env_gate_connector" d="M 8.74,100.57 L 21.74,100.57 " style="stroke:#000000;stroke-width:0.25;stroke-linecap:round;stroke-linejoin:bevel;stroke-dasharray:none" fill="none" />
        <path d="M12.1191 107.043Q12.1191 107.057 12.112 107.078L11.1454 109.403Q11.1243 109.449 11.0784 109.449Q11.0572 109.449 11.0378 109.436Q11.0184 109.424 11.0114 109.403L10.0518 107.089Q10.0412 107.068 10.0412 107.046Q10.0412 107.018 10.0606 106.999Q10.08 106.979 10.1083 106.979Q10.1612 106.979 10.1859 107.036L11.0819 109.191L11.9815 107.025Q12.0062 106.979 12.0485 106.979Q12.0803 106.979 12.0997 106.997Q12.1191 107.015 12.1191 107.043ZM12.2426 109.826Q12.2426 109.805 12.2531 109.784L13.823 106.711Q13.8477 106.665 13.8689 106.65Q13.89 106.634 13.9253 106.634Q13.95 106.634 13.9694 106.651Q13.9888 106.669 13.9888 106.701Q13.9888 106.729 13.9747 106.757L12.4048 109.833Q12.3837 109.872 12.3643 109.886Q12.3449 109.9 12.3131 109.9Q12.2778 109.9 12.2602 109.879Q12.2426 109.858 12.2426 109.826ZM15.3858 109.484Q15.0436 109.484 14.7755 109.324Q14.5074 109.163 14.3575 108.874Q14.2075 108.585 14.2075 108.214Q14.2075 107.844 14.3575 107.554Q14.5074 107.265 14.7755 107.105Q15.0436 106.944 15.3858 106.944Q15.728 106.944 15.9961 107.105Q16.2642 107.265 16.4142 107.554Q16.5641 107.844 16.5641 108.214Q16.5641 108.585 16.4142 108.874Q16.2642 109.163 15.9961 109.324Q15.728 109.484 15.3858 109.484ZM15.3858 107.085Q15.086 107.085 14.8514 107.226Q14.6168 107.367 14.4862 107.625Q14.3557 107.883 14.3557 108.214Q14.3557 108.546 14.4862 108.803Q14.6168 109.061 14.8514 109.202Q15.086 109.343 15.3858 109.343Q15.6857 109.343 15.9203 109.202Q16.1549 109.061 16.2854 108.803Q16.4159 108.546 16.4159 108.214Q16.4159 107.883 16.2854 107.625Q16.1549 107.367 15.9203 107.226Q15.6857 107.085 15.3858 107.085ZM18.9524 107.24Q18.9524 107.269 18.9383 107.286Q18.9171 107.315 18.8854 107.315Q18.8713 107.315 18.843 107.3Q18.515 107.078 18.1481 107.078Q17.8517 107.078 17.603 107.225Q17.3543 107.371 17.2097 107.63Q17.065 107.89 17.065 108.214Q17.065 108.539 17.2097 108.798Q17.3543 109.057 17.603 109.204Q17.8517 109.35 18.1481 109.35Q18.5185 109.35 18.8395 109.131Q18.8571 109.117 18.8818 109.117Q18.9171 109.117 18.9383 109.145Q18.9524 109.163 18.9524 109.188Q18.9524 109.223 18.9242 109.244Q18.7866 109.343 18.5696 109.414Q18.3527 109.484 18.1481 109.484Q17.8129 109.484 17.5307 109.318Q17.2485 109.153 17.0827 108.861Q16.9169 108.57 16.9169 108.214Q16.9169 107.858 17.0827 107.567Q17.2485 107.276 17.5307 107.11Q17.8129 106.944 18.1481 106.944Q18.3597 106.944 18.5591 107.008Q18.7584 107.071 18.9206 107.184Q18.9524 107.209 18.9524 107.24ZM21.055 107.046Q21.055 107.078 21.0356 107.096Q21.0161 107.113 20.9844 107.113H20.1977V109.378Q20.1977 109.407 20.1765 109.428Q20.1554 109.449 20.1271 109.449Q20.0954 109.449 20.076 109.428Q20.0566 109.407 20.0566 109.378V107.113H19.2699Q19.2417 107.113 19.2205 107.094Q19.1993 107.075 19.1993 107.046Q19.1993 107.018 19.2205 106.999Q19.2417 106.979 19.2699 106.979H20.9844Q21.0126 106.979 21.0338 106.999Q21.055 107.018 21.055 107.046Z" style="stroke:#000000;stroke-width:0.25;stroke-linecap:round;stroke-linejoin:bevel" />
        <path d="M 6.24,20.00 L 24.24,20.00 z " style="stroke:#000000;stroke-width:0.25;stroke-linecap:round;stroke-linejoin:bevel;stroke-dasharray:none" />
        <path d="M10.4863 13.0464Q10.4863 13.0782 10.4669 13.0958Q10.4475 13.1134 10.4158 13.1134H9.62907V15.3783Q9.62907 15.4065 9.6079 15.4277Q9.58674 15.4488 9.55851 15.4488Q9.52676 15.4488 9.50736 15.4277Q9.48796 15.4065 9.48796 15.3783V13.1134H8.70126Q8.67304 13.1134 8.65188 13.094Q8.63071 13.0746 8.63071 13.0464Q8.63071 13.0182 8.65188 12.9988Q8.67304 12.9794 8.70126 12.9794H10.4158Q10.444 12.9794 10.4652 12.9988Q10.4863 13.0182 10.4863 13.0464ZM12.797 13.0535V15.3747Q12.7935 15.4065 12.7723 15.4277Q12.7512 15.4488 12.7229 15.4488Q12.6877 15.4488 12.6683 15.4277Q12.6488 15.4065 12.6488 15.3747V14.2494H11.1107V15.3747Q11.1072 15.4065 11.086 15.4277Q11.0649 15.4488 11.0367 15.4488Q11.0014 15.4488 10.982 15.4277Q10.9626 15.4065 10.9626 15.3747V13.0535Q10.9626 13.0217 10.9837 13.0006Q11.0049 12.9794 11.0367 12.9794Q11.0684 12.9794 11.0896 13.0006Q11.1107 13.0217 11.1107 13.0535V14.1083H12.6488V13.0535Q12.6488 13.0217 12.67 13.0006Q12.6912 12.9794 12.7229 12.9794Q12.7547 12.9794 12.7758 13.0006Q12.797 13.0217 12.797 13.0535ZM15.2982 15.3747Q15.2982 15.4065 15.2788 15.4259Q15.2594 15.4453 15.2312 15.4453Q15.21 15.4453 15.1994 15.4383Q15.1042 15.3853 15.0477 15.2601Q14.9913 15.1349 14.9913 14.8491Q14.9913 14.5598 14.8361 14.4522Q14.6808 14.3446 14.4762 14.3446H13.6507V15.3783Q13.6507 15.4065 13.6296 15.4277Q13.6084 15.4488 13.5767 15.4488Q13.5449 15.4488 13.5237 15.4277Q13.5026 15.4065 13.5026 15.3783V13.0499Q13.5026 13.0217 13.5237 13.0006Q13.5449 12.9794 13.5731 12.9794H14.5045Q14.7091 12.9794 14.8678 13.0623Q15.0266 13.1452 15.1148 13.2898Q15.203 13.4345 15.203 13.6179Q15.203 13.8543 15.0777 14.0236Q14.9525 14.1929 14.7514 14.2529Q14.9207 14.3058 15.0301 14.4628Q15.1395 14.6198 15.1395 14.8491Q15.1395 15.0855 15.1694 15.179Q15.1994 15.2724 15.2594 15.3112Q15.2982 15.3359 15.2982 15.3747ZM14.5221 14.2035Q14.7443 14.1824 14.8996 14.0271Q15.0548 13.8719 15.0548 13.6214Q15.0548 13.4027 14.8996 13.2616Q14.7443 13.1205 14.4868 13.1205H13.6507V14.2035ZM17.3161 15.3783Q17.3161 15.41 17.2949 15.4294Q17.2738 15.4488 17.2455 15.4488H15.9156Q15.8873 15.4488 15.8662 15.4277Q15.845 15.4065 15.845 15.3783V13.0499Q15.845 13.0217 15.8662 13.0006Q15.8873 12.9794 15.9156 12.9794H17.2455Q17.2738 12.9794 17.2949 13.0006Q17.3161 13.0217 17.3161 13.0499Q17.3161 13.0817 17.2949 13.1011Q17.2738 13.1205 17.2455 13.1205H15.9932V14.1047H17.0868Q17.115 14.1047 17.1362 14.1259Q17.1573 14.1471 17.1573 14.1753Q17.1573 14.2071 17.1362 14.2265Q17.115 14.2459 17.0868 14.2459H15.9932V15.3077H17.2455Q17.2738 15.3077 17.2949 15.3289Q17.3161 15.3501 17.3161 15.3783ZM17.6371 15.1137Q17.616 15.0925 17.616 15.0608Q17.616 15.0326 17.6407 15.0061Q17.6653 14.9796 17.6936 14.9796Q17.7253 14.9796 17.7535 15.0114Q17.8911 15.1737 18.0799 15.2583Q18.2686 15.343 18.4767 15.343Q18.7484 15.343 18.9248 15.2125Q19.1012 15.0819 19.1012 14.8667Q19.0976 14.6974 19.0094 14.5881Q18.9212 14.4787 18.7925 14.4134Q18.6637 14.3482 18.4415 14.267Q18.198 14.1753 18.0622 14.1047Q17.9264 14.0342 17.8294 13.9037Q17.7324 13.7731 17.7324 13.5615Q17.7324 13.3886 17.8276 13.2475Q17.9229 13.1064 18.0993 13.0252Q18.2757 12.9441 18.5085 12.9441Q18.7166 12.9441 18.9036 13.02Q19.0906 13.0958 19.1999 13.2334Q19.2352 13.2828 19.2352 13.3075Q19.2352 13.3357 19.2088 13.3586Q19.1823 13.3816 19.1505 13.3816Q19.1223 13.3816 19.1047 13.3604Q19.0059 13.2334 18.8507 13.1593Q18.6955 13.0852 18.5085 13.0852Q18.2404 13.0852 18.0622 13.2122Q17.8841 13.3392 17.8841 13.5579Q17.8841 13.7096 17.9705 13.8155Q18.0569 13.9213 18.1875 13.9866Q18.318 14.0518 18.512 14.1224Q18.759 14.2106 18.9036 14.2847Q19.0482 14.3588 19.1505 14.4999Q19.2528 14.641 19.2528 14.8738Q19.2528 15.0361 19.1576 15.1772Q19.0623 15.3183 18.8842 15.4012Q18.706 15.4841 18.4767 15.4841Q18.2157 15.4841 18.0217 15.3942Q17.8276 15.3042 17.6371 15.1137ZM21.62 13.0535V15.3747Q21.6165 15.4065 21.5953 15.4277Q21.5741 15.4488 21.5459 15.4488Q21.5106 15.4488 21.4912 15.4277Q21.4718 15.4065 21.4718 15.3747V14.2494H19.9337V15.3747Q19.9302 15.4065 19.909 15.4277Q19.8878 15.4488 19.8596 15.4488Q19.8243 15.4488 19.8049 15.4277Q19.7855 15.4065 19.7855 15.3747V13.0535Q19.7855 13.0217 19.8067 13.0006Q19.8279 12.9794 19.8596 12.9794Q19.8914 12.9794 19.9125 13.0006Q19.9337 13.0217 19.9337 13.0535V14.1083H21.4718V13.0535Q21.4718 13.0217 21.493 13.0006Q21.5142 12.9794 21.5459 12.9794Q21.5777 12.9794 21.5988 13.0006Q21.62 13.0217 21.62 13.0535Z" style="stroke:#000000;stroke-width:0.25;stroke-linecap:round;stroke-linejoin:bevel" />
        <path d="M 6.24,33.43 L 24.24,33.43 z " style="stroke:#000000;stroke-width:0.25;stroke-linecap:round;stroke-linejoin:bevel;stroke-dasharray:none" />
        <path d="M10.0965 28.5423Q10.0753 28.5211 10.0753 28.4893Q10.0753 28.4611 10.1 28.4347Q10.1247 28.4082 10.1529 28.4082Q10.1847 28.4082 10.2129 28.44Q10.3505 28.6022 10.5392 28.6869Q10.728 28.7716 10.9361 28.7716Q11.2078 28.7716 11.3841 28.641Q11.5605 28.5105 11.5605 28.2953Q11.557 28.126 11.4688 28.0166Q11.3806 27.9073 11.2518 27.842Q11.1231 27.7767 10.9008 27.6956Q10.6574 27.6039 10.5216 27.5333Q10.3858 27.4628 10.2888 27.3322Q10.1918 27.2017 10.1918 26.99Q10.1918 26.8172 10.287 26.6761Q10.3823 26.535 10.5586 26.4538Q10.735 26.3727 10.9679 26.3727Q11.176 26.3727 11.363 26.4485Q11.5499 26.5244 11.6593 26.662Q11.6946 26.7113 11.6946 26.736Q11.6946 26.7643 11.6681 26.7872Q11.6417 26.8101 11.6099 26.8101Q11.5817 26.8101 11.5641 26.789Q11.4653 26.662 11.3101 26.5879Q11.1548 26.5138 10.9679 26.5138Q10.6998 26.5138 10.5216 26.6408Q10.3434 26.7678 10.3434 26.9865Q10.3434 27.1382 10.4299 27.244Q10.5163 27.3499 10.6468 27.4151Q10.7774 27.4804 10.9714 27.551Q11.2183 27.6392 11.363 27.7132Q11.5076 27.7873 11.6099 27.9284Q11.7122 28.0695 11.7122 28.3024Q11.7122 28.4647 11.617 28.6058Q11.5217 28.7469 11.3436 28.8298Q11.1654 28.9127 10.9361 28.9127Q10.6751 28.9127 10.481 28.8227Q10.287 28.7328 10.0965 28.5423ZM13.8289 27.0818Q13.8289 27.2793 13.746 27.4398Q13.6631 27.6003 13.5114 27.6903Q13.3597 27.7803 13.1621 27.7803H12.3931V28.8068Q12.3931 28.8351 12.3702 28.8562Q12.3472 28.8774 12.319 28.8774Q12.2873 28.8774 12.2661 28.8562Q12.2449 28.8351 12.2449 28.8068V26.4785Q12.2449 26.4503 12.2661 26.4291Q12.2873 26.408 12.3155 26.408H13.1621Q13.462 26.408 13.6454 26.5949Q13.8289 26.7819 13.8289 27.0818ZM13.6807 27.0818Q13.6807 26.8383 13.5414 26.6937Q13.402 26.5491 13.1621 26.5491H12.3931V27.6392H13.1621Q13.3985 27.6392 13.5396 27.4822Q13.6807 27.3252 13.6807 27.0818ZM15.8115 28.8068Q15.8115 28.8386 15.7903 28.858Q15.7692 28.8774 15.7409 28.8774H14.411Q14.3828 28.8774 14.3616 28.8562Q14.3404 28.8351 14.3404 28.8068V26.4785Q14.3404 26.4503 14.3616 26.4291Q14.3828 26.408 14.411 26.408H15.7409Q15.7692 26.408 15.7903 26.4291Q15.8115 26.4503 15.8115 26.4785Q15.8115 26.5103 15.7903 26.5297Q15.7692 26.5491 15.7409 26.5491H14.4886V27.5333H15.5822Q15.6104 27.5333 15.6316 27.5545Q15.6528 27.5757 15.6528 27.6039Q15.6528 27.6356 15.6316 27.655Q15.6104 27.6744 15.5822 27.6744H14.4886V28.7363H15.7409Q15.7692 28.7363 15.7903 28.7575Q15.8115 28.7786 15.8115 28.8068ZM17.8117 28.8068Q17.8117 28.8386 17.7906 28.858Q17.7694 28.8774 17.7412 28.8774H16.4112Q16.383 28.8774 16.3618 28.8562Q16.3407 28.8351 16.3407 28.8068V26.4785Q16.3407 26.4503 16.3618 26.4291Q16.383 26.408 16.4112 26.408H17.7412Q17.7694 26.408 17.7906 26.4291Q17.8117 26.4503 17.8117 26.4785Q17.8117 26.5103 17.7906 26.5297Q17.7694 26.5491 17.7412 26.5491H16.4888V27.5333H17.5824Q17.6107 27.5333 17.6318 27.5545Q17.653 27.5757 17.653 27.6039Q17.653 27.6356 17.6318 27.655Q17.6107 27.6744 17.5824 27.6744H16.4888V28.7363H17.7412Q17.7694 28.7363 17.7906 28.7575Q17.8117 28.7786 17.8117 28.8068ZM20.3518 27.6427Q20.3518 27.9919 20.2406 28.2706Q20.1295 28.5493 19.9002 28.7134Q19.6709 28.8774 19.3287 28.8774H18.4115Q18.3833 28.8774 18.3621 28.8562Q18.3409 28.8351 18.3409 28.8068V26.4785Q18.3409 26.4503 18.3621 26.4291Q18.3833 26.408 18.4115 26.408H19.3287Q19.6674 26.408 19.8984 26.5773Q20.1295 26.7466 20.2406 27.0271Q20.3518 27.3075 20.3518 27.6427ZM20.2036 27.6427Q20.2036 27.3428 20.1066 27.0941Q20.0096 26.8454 19.8067 26.6972Q19.6039 26.5491 19.2934 26.5491H18.4891V28.7363H19.2934Q19.752 28.7363 19.9778 28.4347Q20.2036 28.133 20.2036 27.6427Z" style="stroke:#000000;stroke-width:0.25;stroke-linecap:round;stroke-linejoin:bevel" />
        <path d="M 6.24,46.86 L 24.24,46.86 z " style="stroke:#000000;stroke-width:0.25;stroke-linecap:round;stroke-linejoin:bevel;stroke-dasharray:none" />
        <path d="M12.513 39.9071Q12.513 39.9388 12.4919 39.9582Q12.4707 39.9776 12.4425 39.9776H11.1831V40.9513H12.2837Q12.3119 40.9513 12.3331 40.9725Q12.3543 40.9936 12.3543 41.0219Q12.3543 41.0536 12.3331 41.073Q12.3119 41.0924 12.2837 41.0924H11.1831V42.2354Q11.1831 42.2636 11.1637 42.2848Q11.1443 42.306 11.1125 42.306Q11.0808 42.306 11.0613 42.2848Q11.0419 42.2636 11.0419 42.2354V39.9071Q11.0419 39.8789 11.0631 39.8577Q11.0843 39.8365 11.1125 39.8365H12.4425Q12.4707 39.8365 12.4919 39.8577Q12.513 39.8789 12.513 39.9071ZM14.8378 42.2319Q14.8378 42.2636 14.8184 42.283Q14.799 42.3024 14.7708 42.3024Q14.7496 42.3024 14.7391 42.2954Q14.6438 42.2425 14.5874 42.1172Q14.5309 41.992 14.5309 41.7063Q14.5309 41.417 14.3757 41.3094Q14.2205 41.2018 14.0159 41.2018H13.1904V42.2354Q13.1904 42.2636 13.1692 42.2848Q13.148 42.306 13.1163 42.306Q13.0845 42.306 13.0634 42.2848Q13.0422 42.2636 13.0422 42.2354V39.9071Q13.0422 39.8789 13.0634 39.8577Q13.0845 39.8365 13.1128 39.8365H14.0441Q14.2487 39.8365 14.4074 39.9194Q14.5662 40.0023 14.6544 40.147Q14.7426 40.2916 14.7426 40.4751Q14.7426 40.7114 14.6173 40.8808Q14.4921 41.0501 14.291 41.1101Q14.4604 41.163 14.5697 41.32Q14.6791 41.4769 14.6791 41.7063Q14.6791 41.9426 14.7091 42.0361Q14.7391 42.1296 14.799 42.1684Q14.8378 42.1931 14.8378 42.2319ZM14.0617 41.0607Q14.284 41.0395 14.4392 40.8843Q14.5944 40.7291 14.5944 40.4786Q14.5944 40.2599 14.4392 40.1188Q14.284 39.9776 14.0264 39.9776H13.1904V41.0607ZM16.8557 42.2354Q16.8557 42.2672 16.8346 42.2866Q16.8134 42.306 16.7852 42.306H15.4552Q15.427 42.306 15.4058 42.2848Q15.3846 42.2636 15.3846 42.2354V39.9071Q15.3846 39.8789 15.4058 39.8577Q15.427 39.8365 15.4552 39.8365H16.7852Q16.8134 39.8365 16.8346 39.8577Q16.8557 39.8789 16.8557 39.9071Q16.8557 39.9388 16.8346 39.9582Q16.8134 39.9776 16.7852 39.9776H15.5328V40.9619H16.6264Q16.6546 40.9619 16.6758 40.9831Q16.697 41.0042 16.697 41.0324Q16.697 41.0642 16.6758 41.0836Q16.6546 41.103 16.6264 41.103H15.5328V42.1649H16.7852Q16.8134 42.1649 16.8346 42.186Q16.8557 42.2072 16.8557 42.2354ZM19.8438 42.5953Q19.8438 42.6623 19.745 42.7311Q19.6462 42.7999 19.4998 42.844Q19.3534 42.8881 19.2229 42.8881Q19.0288 42.8881 18.8948 42.8457Q18.7607 42.8034 18.5879 42.7187Q18.4432 42.6446 18.3374 42.6094Q18.2316 42.5741 18.094 42.5741Q18.0446 42.5741 18.004 42.5864Q17.9634 42.5988 17.907 42.6235Q17.8435 42.6517 17.8223 42.6517Q17.7941 42.6517 17.7729 42.6305Q17.7518 42.6094 17.7518 42.5776Q17.7518 42.5353 17.7906 42.5176L18.3056 42.3377Q17.9846 42.3201 17.7359 42.1543Q17.4872 41.9885 17.3478 41.708Q17.2085 41.4276 17.2085 41.0713Q17.2085 40.7008 17.3584 40.4116Q17.5084 40.1223 17.7765 39.9618Q18.0446 39.8013 18.3868 39.8013Q18.729 39.8013 18.9971 39.9618Q19.2652 40.1223 19.4151 40.4116Q19.5651 40.7008 19.5651 41.0713Q19.5651 41.3888 19.4539 41.6463Q19.3428 41.9038 19.14 42.0767Q18.9371 42.2495 18.6725 42.3095L18.2386 42.4506Q18.348 42.4612 18.4415 42.4965Q18.5349 42.5318 18.6655 42.5953Q18.8348 42.6764 18.9512 42.7152Q19.0676 42.754 19.2229 42.754Q19.3534 42.754 19.4469 42.7205Q19.5404 42.687 19.6286 42.6376Q19.6568 42.6235 19.6956 42.5847Q19.7168 42.5635 19.7397 42.5494Q19.7626 42.5353 19.7838 42.5353Q19.812 42.5353 19.8279 42.5512Q19.8438 42.567 19.8438 42.5953ZM18.3868 42.2001Q18.6866 42.2001 18.9212 42.059Q19.1558 41.9179 19.2864 41.6604Q19.4169 41.4029 19.4169 41.0713Q19.4169 40.7396 19.2864 40.4821Q19.1558 40.2246 18.9212 40.0835Q18.6866 39.9424 18.3868 39.9424Q18.0869 39.9424 17.8523 40.0835Q17.6177 40.2246 17.4872 40.4821Q17.3567 40.7396 17.3567 41.0713Q17.3567 41.4029 17.4872 41.6604Q17.6177 41.9179 17.8523 42.059Q18.0869 42.2001 18.3868 42.2001Z" style="stroke:#000000;stroke-width:0.25;stroke-linecap:round;stroke-linejoin:bevel" />
        <path d="M 6.24,60.29 L 24.24,60.29 z " style="stroke:#000000;stroke-width:0.25;stroke-linecap:round;stroke-linejoin:bevel;stroke-dasharray:none" />
        <path d="M14.2469 55.6605Q14.2469 55.6922 14.2275 55.7116Q14.2081 55.731 14.1799 55.731Q14.1587 55.731 14.1482 55.724Q14.0529 55.671 13.9965 55.5458Q13.94 55.4206 13.94 55.1348Q13.94 54.8455 13.7848 54.738Q13.6296 54.6304 13.425 54.6304H12.5995V55.664Q12.5995 55.6922 12.5783 55.7134Q12.5571 55.7345 12.5254 55.7345Q12.4936 55.7345 12.4725 55.7134Q12.4513 55.6922 12.4513 55.664V53.3357Q12.4513 53.3074 12.4725 53.2863Q12.4936 53.2651 12.5218 53.2651H13.4532Q13.6578 53.2651 13.8165 53.348Q13.9753 53.4309 14.0635 53.5755Q14.1517 53.7202 14.1517 53.9036Q14.1517 54.14 14.0264 54.3093Q13.9012 54.4787 13.7001 54.5386Q13.8695 54.5915 13.9788 54.7485Q14.0882 54.9055 14.0882 55.1348Q14.0882 55.3712 14.1182 55.4647Q14.1482 55.5582 14.2081 55.597Q14.2469 55.6217 14.2469 55.6605ZM13.4708 54.4892Q13.6931 54.4681 13.8483 54.3129Q14.0035 54.1576 14.0035 53.9072Q14.0035 53.6884 13.8483 53.5473Q13.6931 53.4062 13.4355 53.4062H12.5995V54.4892ZM16.2648 55.664Q16.2648 55.6957 16.2437 55.7151Q16.2225 55.7345 16.1943 55.7345H14.8643Q14.8361 55.7345 14.8149 55.7134Q14.7937 55.6922 14.7937 55.664V53.3357Q14.7937 53.3074 14.8149 53.2863Q14.8361 53.2651 14.8643 53.2651H16.1943Q16.2225 53.2651 16.2437 53.2863Q16.2648 53.3074 16.2648 53.3357Q16.2648 53.3674 16.2437 53.3868Q16.2225 53.4062 16.1943 53.4062H14.9419V54.3905H16.0355Q16.0637 54.3905 16.0849 54.4116Q16.1061 54.4328 16.1061 54.461Q16.1061 54.4928 16.0849 54.5122Q16.0637 54.5316 16.0355 54.5316H14.9419V55.5934H16.1943Q16.2225 55.5934 16.2437 55.6146Q16.2648 55.6358 16.2648 55.664ZM16.5858 55.3994Q16.5647 55.3782 16.5647 55.3465Q16.5647 55.3183 16.5894 55.2918Q16.6141 55.2654 16.6423 55.2654Q16.674 55.2654 16.7023 55.2971Q16.8398 55.4594 17.0286 55.544Q17.2173 55.6287 17.4255 55.6287Q17.6971 55.6287 17.8735 55.4982Q18.0499 55.3677 18.0499 55.1525Q18.0463 54.9831 17.9582 54.8738Q17.87 54.7644 17.7412 54.6991Q17.6124 54.6339 17.3902 54.5527Q17.1468 54.461 17.0109 54.3905Q16.8751 54.3199 16.7781 54.1894Q16.6811 54.0589 16.6811 53.8472Q16.6811 53.6743 16.7763 53.5332Q16.8716 53.3921 17.048 53.311Q17.2244 53.2298 17.4572 53.2298Q17.6653 53.2298 17.8523 53.3057Q18.0393 53.3815 18.1487 53.5191Q18.1839 53.5685 18.1839 53.5932Q18.1839 53.6214 18.1575 53.6443Q18.131 53.6673 18.0993 53.6673Q18.071 53.6673 18.0534 53.6461Q17.9546 53.5191 17.7994 53.445Q17.6442 53.3709 17.4572 53.3709Q17.1891 53.3709 17.0109 53.4979Q16.8328 53.6249 16.8328 53.8437Q16.8328 53.9954 16.9192 54.1012Q17.0057 54.207 17.1362 54.2723Q17.2667 54.3375 17.4607 54.4081Q17.7077 54.4963 17.8523 54.5704Q17.997 54.6445 18.0993 54.7856Q18.2016 54.9267 18.2016 55.1595Q18.2016 55.3218 18.1063 55.4629Q18.0111 55.604 17.8329 55.6869Q17.6548 55.7698 17.4255 55.7698Q17.1644 55.7698 16.9704 55.6799Q16.7763 55.5899 16.5858 55.3994Z" style="stroke:#000000;stroke-width:0.25;stroke-linecap:round;stroke-linejoin:bevel" />
        <path d="M 6.24,73.71 L 24.24,73.71 z " style="stroke:#000000;stroke-width:0.25;stroke-linecap:round;stroke-linejoin:bevel;stroke-dasharray:none" />
        <path d="M13.3844 68.0166V68.9021Q13.3844 68.9444 13.3526 68.9656Q13.1904 69.0749 12.9981 69.1367Q12.8058 69.1984 12.6083 69.1984Q12.2449 69.1984 11.9574 69.0344Q11.6699 68.8703 11.5058 68.581Q11.3418 68.2918 11.3418 67.9284Q11.3418 67.565 11.5058 67.2758Q11.6699 66.9865 11.9574 66.8224Q12.2449 66.6584 12.6083 66.6584Q12.8058 66.6584 12.984 66.706Q13.1621 66.7536 13.3033 66.8489Q13.335 66.8701 13.335 66.9089Q13.335 66.9406 13.3121 66.96Q13.2891 66.9794 13.268 66.9794Q13.2503 66.9794 13.2221 66.9653Q12.9258 66.7995 12.6083 66.7995Q12.2837 66.7995 12.0297 66.9441Q11.7757 67.0888 11.6328 67.3463Q11.49 67.6038 11.49 67.9284Q11.49 68.253 11.6328 68.5105Q11.7757 68.768 12.0297 68.9126Q12.2837 69.0573 12.6083 69.0573Q12.7706 69.0573 12.9381 69.0061Q13.1057 68.955 13.2433 68.8703V68.0871H12.6083Q12.5801 68.0871 12.5589 68.066Q12.5377 68.0448 12.5377 68.0166Q12.5377 67.9848 12.5589 67.9654Q12.5801 67.946 12.6083 67.946H13.3138Q13.3456 67.946 13.365 67.9672Q13.3844 67.9884 13.3844 68.0166ZM15.7797 69.0961Q15.7797 69.1278 15.7586 69.1455Q15.7374 69.1631 15.7057 69.1631Q15.681 69.1631 15.6616 69.1508Q15.6422 69.1384 15.6351 69.1173L15.3388 68.3905L15.3423 68.3976H14.1605L13.8748 69.1173Q13.8571 69.1631 13.8112 69.1631Q13.7795 69.1631 13.7601 69.1455Q13.7407 69.1278 13.7372 69.1031Q13.7336 69.089 13.7407 69.0679L14.6897 66.7325Q14.7003 66.7043 14.7161 66.6954Q14.732 66.6866 14.7567 66.6866Q14.8096 66.6866 14.8272 66.7325L15.7762 69.0679Q15.7797 69.0785 15.7797 69.0961ZM14.2169 68.2565H15.2859L14.7461 66.9265ZM16.3301 69.1631Q16.2948 69.1631 16.2754 69.142Q16.256 69.1208 16.256 69.089V66.7678Q16.256 66.736 16.2772 66.7148Q16.2983 66.6937 16.3301 66.6937Q16.3618 66.6937 16.383 66.7148Q16.4042 66.736 16.4042 66.7678V69.089Q16.4006 69.1208 16.3795 69.142Q16.3583 69.1631 16.3301 69.1631ZM18.9618 66.7607V69.0855Q18.9618 69.1243 18.9406 69.1437Q18.9195 69.1631 18.8877 69.1631Q18.8524 69.1631 18.8313 69.1349L17.2438 66.9653V69.1031Q17.2438 69.1278 17.2244 69.1455Q17.205 69.1631 17.1767 69.1631Q17.145 69.1631 17.1274 69.1455Q17.1097 69.1278 17.1097 69.1031V66.7642Q17.1097 66.729 17.1291 66.7113Q17.1485 66.6937 17.1732 66.6937Q17.205 66.6937 17.2261 66.7184L18.8277 68.9021V66.7607Q18.8277 66.7325 18.8472 66.7131Q18.8666 66.6937 18.8948 66.6937Q18.9265 66.6937 18.9442 66.7131Q18.9618 66.7325 18.9618 66.7607Z" style="stroke:#000000;stroke-width:0.25;stroke-linecap:round;stroke-linejoin:bevel" />
    </g>
</svg>
