<?xml version="1.0" encoding="utf-8"?>
<svg xmlns="http://www.w3.org/2000/svg" width="30.48mm" height="128.50mm" viewBox="0 0 30.48 128.50">
    <g id="PanelLayer">
        <defs />
        <rect id="border_rect" width="30.48" height="128.5" x="0" y="0" style="display:inline;fill:#4f8df2;fill-opacity:1;fill-rule:nonzero;stroke:#5021d4;stroke-width:0.7;stroke-linecap:round;stroke-linejoin:round;stroke-dasharray:none;stroke-opacity:1;image-rendering:auto" />
        <path id="sapphire_gemstone" d="m 17.955,122.900 q 0,0.34175 -0.242534,0.63114 -0.0441,0.0524 -0.20395,0.21497 -0.187413,0.19017 -0.785481,0.81304 l -1.444183,1.51309 q -0.01929,0.003 -0.0441,0.003 -0.02756,0 -0.04134,-0.003 -0.08268,-0.0827 -0.647678,-0.67524 -0.468532,-0.47404 -0.934309,-0.94809 -0.556727,-0.56775 -0.89848,-0.98116 -0.132292,-0.15985 -0.168121,-0.29766 -0.02756,-0.10197 -0.02756,-0.34175 0,-0.11024 0.07166,-0.28939 0.06614,-0.16536 0.140559,-0.26458 0.118512,-0.1571 0.42168,-0.42444 0.283875,-0.2508 0.474044,-0.37482 0.272852,-0.17915 0.818555,-0.36656 0.09646,-0.0331 0.110243,-0.0331 h 1.3615 q 0.01102,0 0.104731,0.0331 0.567751,0.20119 0.824066,0.36656 0.165365,0.10473 0.474045,0.37758 0.322461,0.28388 0.421679,0.42168 0.214974,0.2949 0.214974,0.62563 z m -0.16812,-0.27285 q -0.03307,-0.10749 -0.135048,-0.30868 -0.07166,-0.0937 -0.209462,-0.19844 -0.118511,-0.0854 -0.234266,-0.17088 0.245291,0.3638 0.578776,0.678 z m -0.573264,-0.52366 -0.358289,-0.44648 v 0.41065 z m 0.636653,0.75792 q 0,-0.0524 -0.341753,-0.39412 l 0.228754,0.7028 h 0.04961 q 0.06339,-0.21773 0.06339,-0.30868 z m -0.23151,0.27285 -0.316948,-0.90399 -0.410655,-0.0634 -0.159853,0.61461 z m 0.0028,0.15434 -0.771701,-0.3197 h -0.03032 l 0.344509,0.60634 q 0.07993,-0.003 0.234266,-0.0469 0.02481,-0.0138 0.223242,-0.23978 z m -0.857139,-1.05006 -0.719335,0.28388 0.60358,0.22599 z m 0,-0.16261 v -0.51538 l -0.917773,-0.38034 h -1.223697 l -0.917772,0.38034 v 0.51538 l 0.89848,0.4079 h 1.254014 z m 0.573264,1.53789 q -0.0689,0.011 -0.198438,0.0524 -0.08544,0.0551 -0.259071,0.16261 0.01929,0 0.06339,0.003 0.04134,0 0.06339,0 0.118511,0 0.190169,-0.0689 0.07166,-0.0717 0.14056,-0.14883 z m -0.289388,0.003 -0.347266,-0.63114 -0.363801,0.87918 q 0.0248,-0.0165 0.06615,-0.0165 0.03032,0 0.08544,0.011 0.05788,0.008 0.08819,0.008 0.04961,0 0.228754,-0.10749 0.228754,-0.1378 0.242535,-0.14331 z m -0.440972,-0.74139 -0.683507,-0.2756 -0.592556,0.54845 0.903993,0.65595 z m -0.854383,-0.28387 h -1.036284 l 0.523654,0.47404 z m 0.749652,1.36701 q -0.228754,-0.0303 -0.228754,-0.0303 -0.03583,0 -0.272851,0.0937 l 0.190169,0.0193 q 0.01102,0 0.311436,-0.0827 z m -0.388606,-0.0882 -0.843359,-0.61185 v 0.67524 l 0.471289,0.0827 z m 0.854383,0.0496 q -0.09922,0.006 -0.2949,0.0386 -0.01102,0.003 -0.377583,0.17639 -0.129535,0.34726 -0.380338,1.0418 z m -2.543857,-1.39733 -0.719335,-0.28388 0.124023,0.51814 z m -0.802018,-0.45476 v -0.41065 l -0.366557,0.44648 z m 1.515841,1.07212 -0.592556,-0.54019 -0.683506,0.2756 0.380338,0.9288 z m 0.369314,0.94257 q -0.03307,-0.003 -0.135047,-0.0248 -0.08544,-0.0165 -0.137804,-0.0165 -0.05237,0 -0.137804,0.0165 -0.101975,0.0221 -0.135047,0.0248 0.264583,0.0469 0.272851,0.0469 0.0083,0 0.272851,-0.0469 z m -0.30868,-0.1378 v -0.68626 l -0.843359,0.61185 0.37207,0.14607 z m 0.950846,0.20671 -0.396875,-0.0551 -0.479557,0.14056 v 1.27607 z m -2.888366,-2.20211 q -0.118512,0.0854 -0.234267,0.17364 -0.146072,0.10748 -0.209461,0.19568 -0.0441,0.10473 -0.135048,0.31419 0.369314,-0.3638 0.578776,-0.68351 z m 0.476801,0.83234 -0.159853,-0.61461 -0.410655,0.0634 -0.316948,0.90399 z m 0.394118,1.08313 -0.363802,-0.87918 -0.355533,0.63114 q 0.43546,0.2508 0.451996,0.2508 0.09095,0 0.267339,-0.003 z m 1.821765,0.82958 q -0.132291,0.21222 -0.405143,0.6339 -0.07717,0.10749 -0.220486,0.32797 -0.05788,0.10473 -0.05512,0.226 0.159852,-0.15158 0.432704,-0.49609 0.07717,-0.12954 0.140559,-0.339 0.05512,-0.17639 0.107486,-0.35278 z m -1.493792,-0.66146 -0.270095,-0.0882 -0.0083,-0.011 q -0.02481,0 -0.107487,0.011 -0.06615,0.006 -0.107487,0.006 0.272851,0.091 0.311436,0.091 0.02481,0 0.181901,-0.008 z m -0.810286,-1.06384 h -0.03032 l -0.7717,0.3197 q 0.06615,0.0965 0.223242,0.23978 0.07717,0.0138 0.234266,0.0469 z m -0.689018,-0.50161 q -0.341754,0.34727 -0.341754,0.39412 0,0.0799 0.06339,0.30868 h 0.04961 z m 2.235176,3.04547 v -1.27607 l -0.479557,-0.14056 -0.396875,0.0551 z m -1.606791,-1.6757 q -0.256315,-0.1819 -0.457509,-0.22324 0.06615,0.0772 0.20395,0.22324 z m 1.609547,2.04501 v -0.1378 l -0.683507,-1.05007 q 0.05237,0.17639 0.107487,0.35278 0.06339,0.20946 0.14056,0.339 0.0689,0.11851 0.20395,0.25907 0.115755,0.11851 0.23151,0.23702 z m -0.644921,-0.70555 q -0.115756,-0.32798 -0.380339,-1.0418 -0.135047,-0.0662 -0.272851,-0.12954 -0.159852,-0.0716 -0.289388,-0.0716 -0.05237,0 -0.110243,-0.0138 z" style="stroke-width:0;fill:#0000ff;stroke:#2e2114;stroke-linecap:square;stroke-opacity:1" />
        <path id="model_name" d="M12.7254 7.35962Q12.7254 7.41395 12.6944 7.45276Q12.4382 7.79425 12.0579 8.01156Q11.6776 8.22887 11.243 8.22887Q10.6609 8.22887 10.2108 7.98051Q9.76066 7.73216 9.50842 7.27425Q9.25618 6.81635 9.25618 6.21098Q9.25618 5.59009 9.50066 5.12054Q9.74513 4.651 10.1487 4.40264Q10.5523 4.15429 11.0102 4.15429Q11.4681 4.15429 11.86 4.35219Q12.252 4.5501 12.5003 4.94592Q12.7487 5.34174 12.7642 5.92382Q12.7642 5.98591 12.7176 6.03636Q12.6711 6.0868 12.609 6.0868H9.55887V6.1877Q9.55887 6.66889 9.75289 7.06858Q9.94692 7.46828 10.3272 7.70111Q10.7075 7.93395 11.243 7.93395Q11.6156 7.93395 11.9454 7.75156Q12.2753 7.56917 12.4615 7.28977Q12.5159 7.21992 12.5935 7.21992Q12.6478 7.21992 12.6866 7.26261Q12.7254 7.3053 12.7254 7.35962ZM9.58991 5.79188H12.446V5.72203Q12.4072 5.32621 12.1938 5.04293Q11.9803 4.75965 11.666 4.61219Q11.3517 4.46473 11.0102 4.46473Q10.723 4.46473 10.4242 4.61607Q10.1254 4.76741 9.89648 5.06622Q9.66752 5.36502 9.58991 5.79188ZM16.9319 5.62114V7.99604Q16.9319 8.05812 16.8854 8.10469Q16.8388 8.15126 16.7767 8.15126Q16.7068 8.15126 16.6642 8.10469Q16.6215 8.05812 16.6215 7.99604V5.65218Q16.6215 5.12443 16.346 4.78682Q16.0704 4.44921 15.5116 4.44921Q15.1701 4.44921 14.8403 4.61219Q14.5105 4.77517 14.3009 5.05457Q14.0914 5.33397 14.0914 5.65218V7.99604Q14.0914 8.05812 14.0448 8.10469Q13.9982 8.15126 13.9361 8.15126Q13.8663 8.15126 13.8236 8.10469Q13.7809 8.05812 13.7809 7.99604V4.43369Q13.7809 4.3716 13.8275 4.32503Q13.874 4.27846 13.9361 4.27846Q14.006 4.27846 14.0487 4.32503Q14.0914 4.3716 14.0914 4.43369V4.95368Q14.3164 4.60443 14.7239 4.37936Q15.1313 4.15429 15.5427 4.15429Q16.2334 4.15429 16.5827 4.56174Q16.9319 4.9692 16.9319 5.62114ZM21.3014 4.26294Q21.3014 4.30951 21.2781 4.35608L19.7337 8.05036Q19.7182 8.09693 19.6755 8.12409Q19.6328 8.15126 19.5862 8.15126Q19.5397 8.15126 19.497 8.12409Q19.4543 8.09693 19.4388 8.05036L17.8865 4.36384Q17.871 4.31727 17.871 4.29399Q17.871 4.2319 17.9137 4.18533Q17.9564 4.13876 18.034 4.13876Q18.0728 4.13876 18.1155 4.16593Q18.1582 4.19309 18.1737 4.23966L19.5785 7.61574L20.991 4.23966Q21.0298 4.13876 21.154 4.13876Q21.2005 4.13876 21.251 4.17369Q21.3014 4.20861 21.3014 4.26294Z" style="display:inline;stroke:#000000;stroke-width:0.35;stroke-linecap:round;stroke-linejoin:bevel" />
        <path d="M11.9486 77.6818Q11.9486 77.7136 11.9274 77.7312Q11.9062 77.7488 11.8745 77.7488Q11.8498 77.7488 11.8304 77.7365Q11.811 77.7241 11.8039 77.703L11.5076 76.9763L11.5111 76.9833H10.3293L10.0436 77.703Q10.0259 77.7488 9.98008 77.7488Q9.94833 77.7488 9.92893 77.7312Q9.90953 77.7136 9.906 77.6889Q9.90247 77.6748 9.90953 77.6536L10.8585 75.3182Q10.8691 75.29 10.885 75.2812Q10.9008 75.2723 10.9255 75.2723Q10.9784 75.2723 10.9961 75.3182L11.9451 77.6536Q11.9486 77.6642 11.9486 77.6818ZM10.3858 76.8422H11.4547L10.9149 75.5122ZM14.2416 75.3499V76.8739Q14.2416 77.1209 14.1182 77.329Q13.9947 77.5372 13.7866 77.6606Q13.5784 77.7841 13.335 77.7841Q13.0881 77.7841 12.8799 77.6606Q12.6718 77.5372 12.5483 77.329Q12.4248 77.1209 12.4248 76.8739V75.3499Q12.4248 75.3182 12.446 75.2988Q12.4672 75.2794 12.4989 75.2794Q12.5307 75.2794 12.5518 75.3006Q12.573 75.3217 12.573 75.3499V76.8739Q12.573 77.0821 12.6753 77.2585Q12.7776 77.4349 12.9522 77.5389Q13.1269 77.643 13.335 77.643Q13.5431 77.643 13.7178 77.5389Q13.8924 77.4349 13.9965 77.2585Q14.1005 77.0821 14.1005 76.8739V75.3499Q14.1005 75.3217 14.1199 75.3006Q14.1393 75.2794 14.1711 75.2794Q14.2028 75.2794 14.2222 75.3006Q14.2416 75.3217 14.2416 75.3499ZM16.958 76.5141Q16.958 76.8634 16.8469 77.1421Q16.7358 77.4207 16.5065 77.5848Q16.2772 77.7488 15.935 77.7488H15.0178Q14.9895 77.7488 14.9684 77.7277Q14.9472 77.7065 14.9472 77.6783V75.3499Q14.9472 75.3217 14.9684 75.3006Q14.9895 75.2794 15.0178 75.2794H15.935Q16.2736 75.2794 16.5047 75.4487Q16.7358 75.6181 16.8469 75.8985Q16.958 76.179 16.958 76.5141ZM16.8099 76.5141Q16.8099 76.2143 16.7128 75.9655Q16.6158 75.7168 16.413 75.5687Q16.2101 75.4205 15.8997 75.4205H15.0954V77.6077H15.8997Q16.3583 77.6077 16.5841 77.3061Q16.8099 77.0045 16.8099 76.5141ZM17.5613 77.7488Q17.526 77.7488 17.5066 77.7277Q17.4872 77.7065 17.4872 77.6748V75.3535Q17.4872 75.3217 17.5084 75.3006Q17.5295 75.2794 17.5613 75.2794Q17.593 75.2794 17.6142 75.3006Q17.6354 75.3217 17.6354 75.3535V77.6748Q17.6318 77.7065 17.6107 77.7277Q17.5895 77.7488 17.5613 77.7488ZM19.3428 77.7841Q19.0006 77.7841 18.7325 77.6236Q18.4644 77.4631 18.3145 77.1738Q18.1645 76.8845 18.1645 76.5141Q18.1645 76.1437 18.3145 75.8544Q18.4644 75.5651 18.7325 75.4046Q19.0006 75.2441 19.3428 75.2441Q19.685 75.2441 19.9531 75.4046Q20.2212 75.5651 20.3712 75.8544Q20.5211 76.1437 20.5211 76.5141Q20.5211 76.8845 20.3712 77.1738Q20.2212 77.4631 19.9531 77.6236Q19.685 77.7841 19.3428 77.7841ZM19.3428 75.3852Q19.0429 75.3852 18.8083 75.5263Q18.5737 75.6674 18.4432 75.925Q18.3127 76.1825 18.3127 76.5141Q18.3127 76.8457 18.4432 77.1033Q18.5737 77.3608 18.8083 77.5019Q19.0429 77.643 19.3428 77.643Q19.6427 77.643 19.8773 77.5019Q20.1119 77.3608 20.2424 77.1033Q20.3729 76.8457 20.3729 76.5141Q20.3729 76.1825 20.2424 75.925Q20.1119 75.6674 19.8773 75.5263Q19.6427 75.3852 19.3428 75.3852Z" style="stroke:#000000;stroke-width:0.25;stroke-linecap:round;stroke-linejoin:bevel" />
        <path d="M13.6207 93.1783Q13.6207 93.21 13.5996 93.2294Q13.5784 93.2488 13.5502 93.2488H12.2202Q12.192 93.2488 12.1708 93.2277Q12.1497 93.2065 12.1497 93.1783V90.8499Q12.1497 90.8217 12.1708 90.8006Q12.192 90.7794 12.2202 90.7794H13.5502Q13.5784 90.7794 13.5996 90.8006Q13.6207 90.8217 13.6207 90.8499Q13.6207 90.8817 13.5996 90.9011Q13.5784 90.9205 13.5502 90.9205H12.2978V91.9048H13.3914Q13.4197 91.9048 13.4408 91.9259Q13.462 91.9471 13.462 91.9753Q13.462 92.0071 13.4408 92.0265Q13.4197 92.0459 13.3914 92.0459H12.2978V93.1077H13.5502Q13.5784 93.1077 13.5996 93.1289Q13.6207 93.1501 13.6207 93.1783ZM16.002 90.8464V93.1712Q16.002 93.21 15.9808 93.2294Q15.9597 93.2488 15.9279 93.2488Q15.8926 93.2488 15.8715 93.2206L14.284 91.051V93.1889Q14.284 93.2136 14.2646 93.2312Q14.2452 93.2488 14.2169 93.2488Q14.1852 93.2488 14.1676 93.2312Q14.1499 93.2136 14.1499 93.1889V90.8499Q14.1499 90.8147 14.1693 90.797Q14.1887 90.7794 14.2134 90.7794Q14.2452 90.7794 14.2663 90.8041L15.8679 92.9878V90.8464Q15.8679 90.8182 15.8873 90.7988Q15.9067 90.7794 15.935 90.7794Q15.9667 90.7794 15.9844 90.7988Q16.002 90.8182 16.002 90.8464ZM18.5596 90.8429Q18.5596 90.857 18.5526 90.8782L17.586 93.203Q17.5648 93.2488 17.5189 93.2488Q17.4978 93.2488 17.4784 93.2365Q17.459 93.2241 17.4519 93.203L16.4924 90.8888Q16.4818 90.8676 16.4818 90.8464Q16.4818 90.8182 16.5012 90.7988Q16.5206 90.7794 16.5488 90.7794Q16.6017 90.7794 16.6264 90.8358L17.5225 92.9913L18.4221 90.8253Q18.4467 90.7794 18.4891 90.7794Q18.5208 90.7794 18.5402 90.797Q18.5596 90.8147 18.5596 90.8429Z" style="stroke:#000000;stroke-width:0.25;stroke-linecap:round;stroke-linejoin:bevel" />
        <path d="M12.1191 106.343Q12.1191 106.357 12.112 106.378L11.1454 108.703Q11.1243 108.749 11.0784 108.749Q11.0572 108.749 11.0378 108.736Q11.0184 108.724 11.0114 108.703L10.0518 106.389Q10.0412 106.368 10.0412 106.346Q10.0412 106.318 10.0606 106.299Q10.08 106.279 10.1083 106.279Q10.1612 106.279 10.1859 106.336L11.0819 108.491L11.9815 106.325Q12.0062 106.279 12.0485 106.279Q12.0803 106.279 12.0997 106.297Q12.1191 106.315 12.1191 106.343ZM12.2426 109.126Q12.2426 109.105 12.2531 109.084L13.823 106.011Q13.8477 105.965 13.8689 105.95Q13.89 105.934 13.9253 105.934Q13.95 105.934 13.9694 105.951Q13.9888 105.969 13.9888 106.001Q13.9888 106.029 13.9747 106.057L12.4048 109.133Q12.3837 109.172 12.3643 109.186Q12.3449 109.2 12.3131 109.2Q12.2778 109.2 12.2602 109.179Q12.2426 109.158 12.2426 109.126ZM15.3858 108.784Q15.0436 108.784 14.7755 108.624Q14.5074 108.463 14.3575 108.174Q14.2075 107.885 14.2075 107.514Q14.2075 107.144 14.3575 106.854Q14.5074 106.565 14.7755 106.405Q15.0436 106.244 15.3858 106.244Q15.728 106.244 15.9961 106.405Q16.2642 106.565 16.4142 106.854Q16.5641 107.144 16.5641 107.514Q16.5641 107.885 16.4142 108.174Q16.2642 108.463 15.9961 108.624Q15.728 108.784 15.3858 108.784ZM15.3858 106.385Q15.086 106.385 14.8514 106.526Q14.6168 106.667 14.4862 106.925Q14.3557 107.183 14.3557 107.514Q14.3557 107.846 14.4862 108.103Q14.6168 108.361 14.8514 108.502Q15.086 108.643 15.3858 108.643Q15.6857 108.643 15.9203 108.502Q16.1549 108.361 16.2854 108.103Q16.4159 107.846 16.4159 107.514Q16.4159 107.183 16.2854 106.925Q16.1549 106.667 15.9203 106.526Q15.6857 106.385 15.3858 106.385ZM18.9524 106.54Q18.9524 106.569 18.9383 106.586Q18.9171 106.615 18.8854 106.615Q18.8713 106.615 18.843 106.6Q18.515 106.378 18.1481 106.378Q17.8517 106.378 17.603 106.525Q17.3543 106.671 17.2097 106.93Q17.065 107.19 17.065 107.514Q17.065 107.839 17.2097 108.098Q17.3543 108.357 17.603 108.504Q17.8517 108.65 18.1481 108.65Q18.5185 108.65 18.8395 108.431Q18.8571 108.417 18.8818 108.417Q18.9171 108.417 18.9383 108.445Q18.9524 108.463 18.9524 108.488Q18.9524 108.523 18.9242 108.544Q18.7866 108.643 18.5696 108.714Q18.3527 108.784 18.1481 108.784Q17.8129 108.784 17.5307 108.618Q17.2485 108.453 17.0827 108.161Q16.9169 107.87 16.9169 107.514Q16.9169 107.158 17.0827 106.867Q17.2485 106.576 17.5307 106.41Q17.8129 106.244 18.1481 106.244Q18.3597 106.244 18.5591 106.308Q18.7584 106.371 18.9206 106.484Q18.9524 106.509 18.9524 106.54ZM21.055 106.346Q21.055 106.378 21.0356 106.396Q21.0161 106.413 20.9844 106.413H20.1977V108.678Q20.1977 108.707 20.1765 108.728Q20.1554 108.749 20.1271 108.749Q20.0954 108.749 20.076 108.728Q20.0566 108.707 20.0566 108.678V106.413H19.2699Q19.2417 106.413 19.2205 106.394Q19.1993 106.375 19.1993 106.346Q19.1993 106.318 19.2205 106.299Q19.2417 106.279 19.2699 106.279H20.9844Q21.0126 106.279 21.0338 106.299Q21.055 106.318 21.055 106.346Z" style="stroke:#000000;stroke-width:0.25;stroke-linecap:round;stroke-linejoin:bevel" />
        <path d="M 6.24,21.00 L 24.24,21.00 z " style="stroke:#000000;stroke-width:0.25;stroke-linecap:round;stroke-linejoin:bevel;stroke-dasharray:none" />
        <path d="M10.4863 13.3464Q10.4863 13.3782 10.4669 13.3958Q10.4475 13.4134 10.4158 13.4134H9.62907V15.6783Q9.62907 15.7065 9.6079 15.7277Q9.58674 15.7488 9.55851 15.7488Q9.52676 15.7488 9.50736 15.7277Q9.48796 15.7065 9.48796 15.6783V13.4134H8.70126Q8.67304 13.4134 8.65188 13.394Q8.63071 13.3746 8.63071 13.3464Q8.63071 13.3182 8.65188 13.2988Q8.67304 13.2794 8.70126 13.2794H10.4158Q10.444 13.2794 10.4652 13.2988Q10.4863 13.3182 10.4863 13.3464ZM12.797 13.3535V15.6747Q12.7935 15.7065 12.7723 15.7277Q12.7512 15.7488 12.7229 15.7488Q12.6877 15.7488 12.6683 15.7277Q12.6488 15.7065 12.6488 15.6747V14.5494H11.1107V15.6747Q11.1072 15.7065 11.086 15.7277Q11.0649 15.7488 11.0367 15.7488Q11.0014 15.7488 10.982 15.7277Q10.9626 15.7065 10.9626 15.6747V13.3535Q10.9626 13.3217 10.9837 13.3006Q11.0049 13.2794 11.0367 13.2794Q11.0684 13.2794 11.0896 13.3006Q11.1107 13.3217 11.1107 13.3535V14.4083H12.6488V13.3535Q12.6488 13.3217 12.67 13.3006Q12.6912 13.2794 12.7229 13.2794Q12.7547 13.2794 12.7758 13.3006Q12.797 13.3217 12.797 13.3535ZM15.2982 15.6747Q15.2982 15.7065 15.2788 15.7259Q15.2594 15.7453 15.2312 15.7453Q15.21 15.7453 15.1994 15.7383Q15.1042 15.6853 15.0477 15.5601Q14.9913 15.4349 14.9913 15.1491Q14.9913 14.8598 14.8361 14.7522Q14.6808 14.6446 14.4762 14.6446H13.6507V15.6783Q13.6507 15.7065 13.6296 15.7277Q13.6084 15.7488 13.5767 15.7488Q13.5449 15.7488 13.5237 15.7277Q13.5026 15.7065 13.5026 15.6783V13.3499Q13.5026 13.3217 13.5237 13.3006Q13.5449 13.2794 13.5731 13.2794H14.5045Q14.7091 13.2794 14.8678 13.3623Q15.0266 13.4452 15.1148 13.5898Q15.203 13.7345 15.203 13.9179Q15.203 14.1543 15.0777 14.3236Q14.9525 14.4929 14.7514 14.5529Q14.9207 14.6058 15.0301 14.7628Q15.1395 14.9198 15.1395 15.1491Q15.1395 15.3855 15.1694 15.479Q15.1994 15.5724 15.2594 15.6113Q15.2982 15.6359 15.2982 15.6747ZM14.5221 14.5035Q14.7443 14.4824 14.8996 14.3271Q15.0548 14.1719 15.0548 13.9214Q15.0548 13.7027 14.8996 13.5616Q14.7443 13.4205 14.4868 13.4205H13.6507V14.5035ZM17.3161 15.6783Q17.3161 15.71 17.2949 15.7294Q17.2738 15.7488 17.2455 15.7488H15.9156Q15.8873 15.7488 15.8662 15.7277Q15.845 15.7065 15.845 15.6783V13.3499Q15.845 13.3217 15.8662 13.3006Q15.8873 13.2794 15.9156 13.2794H17.2455Q17.2738 13.2794 17.2949 13.3006Q17.3161 13.3217 17.3161 13.3499Q17.3161 13.3817 17.2949 13.4011Q17.2738 13.4205 17.2455 13.4205H15.9932V14.4047H17.0868Q17.115 14.4047 17.1362 14.4259Q17.1573 14.4471 17.1573 14.4753Q17.1573 14.5071 17.1362 14.5265Q17.115 14.5459 17.0868 14.5459H15.9932V15.6077H17.2455Q17.2738 15.6077 17.2949 15.6289Q17.3161 15.6501 17.3161 15.6783ZM17.6371 15.4137Q17.616 15.3925 17.616 15.3608Q17.616 15.3326 17.6407 15.3061Q17.6653 15.2796 17.6936 15.2796Q17.7253 15.2796 17.7535 15.3114Q17.8911 15.4737 18.0799 15.5583Q18.2686 15.643 18.4767 15.643Q18.7484 15.643 18.9248 15.5125Q19.1012 15.3819 19.1012 15.1668Q19.0976 14.9974 19.0094 14.8881Q18.9212 14.7787 18.7925 14.7134Q18.6637 14.6482 18.4415 14.567Q18.198 14.4753 18.0622 14.4047Q17.9264 14.3342 17.8294 14.2037Q17.7324 14.0731 17.7324 13.8615Q17.7324 13.6886 17.8276 13.5475Q17.9229 13.4064 18.0993 13.3253Q18.2757 13.2441 18.5085 13.2441Q18.7166 13.2441 18.9036 13.32Q19.0906 13.3958 19.1999 13.5334Q19.2352 13.5828 19.2352 13.6075Q19.2352 13.6357 19.2088 13.6586Q19.1823 13.6816 19.1505 13.6816Q19.1223 13.6816 19.1047 13.6604Q19.0059 13.5334 18.8507 13.4593Q18.6955 13.3852 18.5085 13.3852Q18.2404 13.3852 18.0622 13.5122Q17.8841 13.6392 17.8841 13.8579Q17.8841 14.0096 17.9705 14.1155Q18.0569 14.2213 18.1875 14.2866Q18.318 14.3518 18.512 14.4224Q18.759 14.5106 18.9036 14.5847Q19.0482 14.6588 19.1505 14.7999Q19.2528 14.941 19.2528 15.1738Q19.2528 15.3361 19.1576 15.4772Q19.0623 15.6183 18.8842 15.7012Q18.706 15.7841 18.4767 15.7841Q18.2157 15.7841 18.0217 15.6942Q17.8276 15.6042 17.6371 15.4137ZM21.62 13.3535V15.6747Q21.6165 15.7065 21.5953 15.7277Q21.5741 15.7488 21.5459 15.7488Q21.5106 15.7488 21.4912 15.7277Q21.4718 15.7065 21.4718 15.6747V14.5494H19.9337V15.6747Q19.9302 15.7065 19.909 15.7277Q19.8878 15.7488 19.8596 15.7488Q19.8243 15.7488 19.8049 15.7277Q19.7855 15.7065 19.7855 15.6747V13.3535Q19.7855 13.3217 19.8067 13.3006Q19.8279 13.2794 19.8596 13.2794Q19.8914 13.2794 19.9125 13.3006Q19.9337 13.3217 19.9337 13.3535V14.4083H21.4718V13.3535Q21.4718 13.3217 21.493 13.3006Q21.5142 13.2794 21.5459 13.2794Q21.5777 13.2794 21.5988 13.3006Q21.62 13.3217 21.62 13.3535Z" style="stroke:#000000;stroke-width:0.25;stroke-linecap:round;stroke-linejoin:bevel" />
        <path d="M 6.24,36.50 L 24.24,36.50 z " style="stroke:#000000;stroke-width:0.25;stroke-linecap:round;stroke-linejoin:bevel;stroke-dasharray:none" />
        <path d="M10.0965 30.9137Q10.0753 30.8925 10.0753 30.8608Q10.0753 30.8326 10.1 30.8061Q10.1247 30.7796 10.1529 30.7796Q10.1847 30.7796 10.2129 30.8114Q10.3505 30.9737 10.5392 31.0583Q10.728 31.143 10.9361 31.143Q11.2078 31.143 11.3841 31.0125Q11.5605 30.8819 11.5605 30.6668Q11.557 30.4974 11.4688 30.3881Q11.3806 30.2787 11.2518 30.2134Q11.1231 30.1482 10.9008 30.067Q10.6574 29.9753 10.5216 29.9047Q10.3858 29.8342 10.2888 29.7037Q10.1918 29.5731 10.1918 29.3615Q10.1918 29.1886 10.287 29.0475Q10.3823 28.9064 10.5586 28.8253Q10.735 28.7441 10.9679 28.7441Q11.176 28.7441 11.363 28.82Q11.5499 28.8958 11.6593 29.0334Q11.6946 29.0828 11.6946 29.1075Q11.6946 29.1357 11.6681 29.1586Q11.6417 29.1816 11.6099 29.1816Q11.5817 29.1816 11.5641 29.1604Q11.4653 29.0334 11.3101 28.9593Q11.1548 28.8852 10.9679 28.8852Q10.6998 28.8852 10.5216 29.0122Q10.3434 29.1392 10.3434 29.3579Q10.3434 29.5096 10.4299 29.6155Q10.5163 29.7213 10.6468 29.7866Q10.7774 29.8518 10.9714 29.9224Q11.2183 30.0106 11.363 30.0847Q11.5076 30.1588 11.6099 30.2999Q11.7122 30.441 11.7122 30.6738Q11.7122 30.8361 11.617 30.9772Q11.5217 31.1183 11.3436 31.2012Q11.1654 31.2841 10.9361 31.2841Q10.6751 31.2841 10.481 31.1942Q10.287 31.1042 10.0965 30.9137ZM13.8289 29.4532Q13.8289 29.6508 13.746 29.8113Q13.6631 29.9718 13.5114 30.0617Q13.3597 30.1517 13.1621 30.1517H12.3931V31.1783Q12.3931 31.2065 12.3702 31.2277Q12.3472 31.2488 12.319 31.2488Q12.2873 31.2488 12.2661 31.2277Q12.2449 31.2065 12.2449 31.1783V28.8499Q12.2449 28.8217 12.2661 28.8006Q12.2873 28.7794 12.3155 28.7794H13.1621Q13.462 28.7794 13.6454 28.9664Q13.8289 29.1533 13.8289 29.4532ZM13.6807 29.4532Q13.6807 29.2098 13.5414 29.0651Q13.402 28.9205 13.1621 28.9205H12.3931V30.0106H13.1621Q13.3985 30.0106 13.5396 29.8536Q13.6807 29.6966 13.6807 29.4532ZM15.8115 31.1783Q15.8115 31.21 15.7903 31.2294Q15.7692 31.2488 15.7409 31.2488H14.411Q14.3828 31.2488 14.3616 31.2277Q14.3404 31.2065 14.3404 31.1783V28.8499Q14.3404 28.8217 14.3616 28.8006Q14.3828 28.7794 14.411 28.7794H15.7409Q15.7692 28.7794 15.7903 28.8006Q15.8115 28.8217 15.8115 28.8499Q15.8115 28.8817 15.7903 28.9011Q15.7692 28.9205 15.7409 28.9205H14.4886V29.9047H15.5822Q15.6104 29.9047 15.6316 29.9259Q15.6528 29.9471 15.6528 29.9753Q15.6528 30.0071 15.6316 30.0265Q15.6104 30.0459 15.5822 30.0459H14.4886V31.1077H15.7409Q15.7692 31.1077 15.7903 31.1289Q15.8115 31.1501 15.8115 31.1783ZM17.8117 31.1783Q17.8117 31.21 17.7906 31.2294Q17.7694 31.2488 17.7412 31.2488H16.4112Q16.383 31.2488 16.3618 31.2277Q16.3407 31.2065 16.3407 31.1783V28.8499Q16.3407 28.8217 16.3618 28.8006Q16.383 28.7794 16.4112 28.7794H17.7412Q17.7694 28.7794 17.7906 28.8006Q17.8117 28.8217 17.8117 28.8499Q17.8117 28.8817 17.7906 28.9011Q17.7694 28.9205 17.7412 28.9205H16.4888V29.9047H17.5824Q17.6107 29.9047 17.6318 29.9259Q17.653 29.9471 17.653 29.9753Q17.653 30.0071 17.6318 30.0265Q17.6107 30.0459 17.5824 30.0459H16.4888V31.1077H17.7412Q17.7694 31.1077 17.7906 31.1289Q17.8117 31.1501 17.8117 31.1783ZM20.3518 30.0141Q20.3518 30.3634 20.2406 30.6421Q20.1295 30.9208 19.9002 31.0848Q19.6709 31.2488 19.3287 31.2488H18.4115Q18.3833 31.2488 18.3621 31.2277Q18.3409 31.2065 18.3409 31.1783V28.8499Q18.3409 28.8217 18.3621 28.8006Q18.3833 28.7794 18.4115 28.7794H19.3287Q19.6674 28.7794 19.8984 28.9487Q20.1295 29.1181 20.2406 29.3985Q20.3518 29.679 20.3518 30.0141ZM20.2036 30.0141Q20.2036 29.7142 20.1066 29.4655Q20.0096 29.2168 19.8067 29.0687Q19.6039 28.9205 19.2934 28.9205H18.4891V31.1077H19.2934Q19.752 31.1077 19.9778 30.8061Q20.2036 30.5045 20.2036 30.0141Z" style="stroke:#000000;stroke-width:0.25;stroke-linecap:round;stroke-linejoin:bevel" />
        <path d="M 6.24,52.00 L 24.24,52.00 z " style="stroke:#000000;stroke-width:0.25;stroke-linecap:round;stroke-linejoin:bevel;stroke-dasharray:none" />
        <path d="M10.6851 46.6783Q10.6851 46.71 10.6639 46.7294Q10.6427 46.7488 10.6145 46.7488H9.3198Q9.28805 46.7488 9.26865 46.7277Q9.24925 46.7065 9.24925 46.6783V44.3499Q9.24925 44.3217 9.27041 44.3006Q9.29158 44.2794 9.32333 44.2794Q9.35508 44.2794 9.37625 44.3006Q9.39741 44.3217 9.39741 44.3499V46.6077H10.6145Q10.6427 46.6077 10.6639 46.6289Q10.6851 46.6501 10.6851 46.6783ZM12.0926 46.7841Q11.7504 46.7841 11.4823 46.6236Q11.2142 46.4631 11.0643 46.1738Q10.9144 45.8845 10.9144 45.5141Q10.9144 45.1437 11.0643 44.8544Q11.2142 44.5651 11.4823 44.4046Q11.7504 44.2441 12.0926 44.2441Q12.4348 44.2441 12.7029 44.4046Q12.9711 44.5651 13.121 44.8544Q13.2709 45.1437 13.2709 45.5141Q13.2709 45.8845 13.121 46.1738Q12.9711 46.4631 12.7029 46.6236Q12.4348 46.7841 12.0926 46.7841ZM12.0926 44.3852Q11.7928 44.3852 11.5582 44.5263Q11.3236 44.6674 11.1931 44.925Q11.0625 45.1825 11.0625 45.5141Q11.0625 45.8457 11.1931 46.1033Q11.3236 46.3608 11.5582 46.5019Q11.7928 46.643 12.0926 46.643Q12.3925 46.643 12.6271 46.5019Q12.8617 46.3608 12.9922 46.1033Q13.1227 45.8457 13.1227 45.5141Q13.1227 45.1825 12.9922 44.925Q12.8617 44.6674 12.6271 44.5263Q12.3925 44.3852 12.0926 44.3852ZM16.6117 44.5404Q16.6117 44.5687 16.5976 44.5863Q16.5764 44.6145 16.5447 44.6145Q16.5306 44.6145 16.5024 44.6004Q16.1743 44.3782 15.8074 44.3782Q15.5111 44.3782 15.2623 44.5246Q15.0136 44.671 14.869 44.9303Q14.7244 45.1896 14.7244 45.5141Q14.7244 45.8387 14.869 46.098Q15.0136 46.3572 15.2623 46.5037Q15.5111 46.6501 15.8074 46.6501Q16.1778 46.6501 16.4988 46.4313Q16.5165 46.4172 16.5412 46.4172Q16.5764 46.4172 16.5976 46.4454Q16.6117 46.4631 16.6117 46.4878Q16.6117 46.5231 16.5835 46.5442Q16.4459 46.643 16.229 46.7136Q16.012 46.7841 15.8074 46.7841Q15.4722 46.7841 15.19 46.6183Q14.9078 46.4525 14.742 46.1615Q14.5762 45.8704 14.5762 45.5141Q14.5762 45.1578 14.742 44.8668Q14.9078 44.5757 15.19 44.4099Q15.4722 44.2441 15.8074 44.2441Q16.0191 44.2441 16.2184 44.3076Q16.4177 44.3711 16.58 44.484Q16.6117 44.5087 16.6117 44.5404ZM18.9048 44.3499V45.8739Q18.9048 46.1209 18.7813 46.329Q18.6578 46.5372 18.4497 46.6606Q18.2416 46.7841 17.9981 46.7841Q17.7512 46.7841 17.5431 46.6606Q17.3349 46.5372 17.2114 46.329Q17.088 46.1209 17.088 45.8739V44.3499Q17.088 44.3182 17.1091 44.2988Q17.1303 44.2794 17.1621 44.2794Q17.1938 44.2794 17.215 44.3006Q17.2361 44.3217 17.2361 44.3499V45.8739Q17.2361 46.0821 17.3384 46.2585Q17.4407 46.4349 17.6154 46.5389Q17.79 46.643 17.9981 46.643Q18.2063 46.643 18.3809 46.5389Q18.5555 46.4349 18.6596 46.2585Q18.7637 46.0821 18.7637 45.8739V44.3499Q18.7637 44.3217 18.7831 44.3006Q18.8025 44.2794 18.8342 44.2794Q18.866 44.2794 18.8854 44.3006Q18.9048 44.3217 18.9048 44.3499ZM21.2366 44.3464Q21.2366 44.3782 21.2172 44.3958Q21.1978 44.4134 21.1661 44.4134H20.3794V46.6783Q20.3794 46.7065 20.3582 46.7277Q20.3371 46.7488 20.3088 46.7488Q20.2771 46.7488 20.2577 46.7277Q20.2383 46.7065 20.2383 46.6783V44.4134H19.4516Q19.4234 44.4134 19.4022 44.394Q19.381 44.3746 19.381 44.3464Q19.381 44.3182 19.4022 44.2988Q19.4234 44.2794 19.4516 44.2794H21.1661Q21.1943 44.2794 21.2155 44.2988Q21.2366 44.3182 21.2366 44.3464Z" style="stroke:#000000;stroke-width:0.25;stroke-linecap:round;stroke-linejoin:bevel" />
        <path d="M 6.24,67.50 L 24.24,67.50 z " style="stroke:#000000;stroke-width:0.25;stroke-linecap:round;stroke-linejoin:bevel;stroke-dasharray:none" />
        <path d="M11.6622 59.8535V62.1747Q11.6587 62.2065 11.6376 62.2277Q11.6164 62.2488 11.5882 62.2488Q11.5529 62.2488 11.5335 62.2277Q11.5141 62.2065 11.5141 62.1747V61.0494H9.97597V62.1747Q9.97244 62.2065 9.95127 62.2277Q9.93011 62.2488 9.90188 62.2488Q9.86661 62.2488 9.8472 62.2277Q9.8278 62.2065 9.8278 62.1747V59.8535Q9.8278 59.8217 9.84897 59.8006Q9.87013 59.7794 9.90188 59.7794Q9.93363 59.7794 9.9548 59.8006Q9.97597 59.8217 9.97597 59.8535V60.9083H11.5141V59.8535Q11.5141 59.8217 11.5352 59.8006Q11.5564 59.7794 11.5882 59.7794Q11.6199 59.7794 11.6411 59.8006Q11.6622 59.8217 11.6622 59.8535ZM12.4419 62.2488Q12.4066 62.2488 12.3872 62.2277Q12.3678 62.2065 12.3678 62.1747V59.8535Q12.3678 59.8217 12.389 59.8006Q12.4101 59.7794 12.4419 59.7794Q12.4736 59.7794 12.4948 59.8006Q12.516 59.8217 12.516 59.8535V62.1747Q12.5124 62.2065 12.4913 62.2277Q12.4701 62.2488 12.4419 62.2488ZM16.0332 60.0404Q16.0332 60.0687 16.0191 60.0863Q15.9979 60.1145 15.9661 60.1145Q15.952 60.1145 15.9238 60.1004Q15.5957 59.8782 15.2288 59.8782Q14.9325 59.8782 14.6838 60.0246Q14.4351 60.171 14.2904 60.4303Q14.1458 60.6896 14.1458 61.0141Q14.1458 61.3387 14.2904 61.598Q14.4351 61.8572 14.6838 62.0037Q14.9325 62.1501 15.2288 62.1501Q15.5992 62.1501 15.9203 61.9313Q15.9379 61.9172 15.9626 61.9172Q15.9979 61.9172 16.0191 61.9454Q16.0332 61.9631 16.0332 61.9878Q16.0332 62.0231 16.0049 62.0442Q15.8674 62.143 15.6504 62.2136Q15.4334 62.2841 15.2288 62.2841Q14.8937 62.2841 14.6115 62.1183Q14.3292 61.9525 14.1634 61.6615Q13.9976 61.3704 13.9976 61.0141Q13.9976 60.6578 14.1634 60.3668Q14.3292 60.0757 14.6115 59.9099Q14.8937 59.7441 15.2288 59.7441Q15.4405 59.7441 15.6398 59.8076Q15.8391 59.8711 16.0014 59.984Q16.0332 60.0087 16.0332 60.0404ZM18.3262 59.8499V61.3739Q18.3262 61.6209 18.2027 61.829Q18.0793 62.0372 17.8711 62.1606Q17.663 62.2841 17.4196 62.2841Q17.1726 62.2841 16.9645 62.1606Q16.7564 62.0372 16.6329 61.829Q16.5094 61.6209 16.5094 61.3739V59.8499Q16.5094 59.8182 16.5306 59.7988Q16.5517 59.7794 16.5835 59.7794Q16.6152 59.7794 16.6364 59.8006Q16.6576 59.8217 16.6576 59.8499V61.3739Q16.6576 61.5821 16.7599 61.7585Q16.8622 61.9349 17.0368 62.0389Q17.2114 62.143 17.4196 62.143Q17.6277 62.143 17.8023 62.0389Q17.977 61.9349 18.081 61.7585Q18.1851 61.5821 18.1851 61.3739V59.8499Q18.1851 59.8217 18.2045 59.8006Q18.2239 59.7794 18.2557 59.7794Q18.2874 59.7794 18.3068 59.8006Q18.3262 59.8217 18.3262 59.8499ZM20.6581 59.8464Q20.6581 59.8782 20.6387 59.8958Q20.6193 59.9134 20.5875 59.9134H19.8008V62.1783Q19.8008 62.2065 19.7797 62.2277Q19.7585 62.2488 19.7303 62.2488Q19.6985 62.2488 19.6791 62.2277Q19.6597 62.2065 19.6597 62.1783V59.9134H18.873Q18.8448 59.9134 18.8236 59.894Q18.8025 59.8746 18.8025 59.8464Q18.8025 59.8182 18.8236 59.7988Q18.8448 59.7794 18.873 59.7794H20.5875Q20.6157 59.7794 20.6369 59.7988Q20.6581 59.8182 20.6581 59.8464Z" style="stroke:#000000;stroke-width:0.25;stroke-linecap:round;stroke-linejoin:bevel" />
    </g>
</svg>
