<?xml version="1.0" encoding="utf-8"?>
<svg xmlns="http://www.w3.org/2000/svg" width="30.48mm" height="128.50mm" viewBox="0 0 30.48 128.50">
    <g id="PanelLayer">
        <defs />
        <rect id="border_rect" width="30.48" height="128.5" x="0" y="0" style="display:inline;fill:#4f8df2;fill-opacity:1;fill-rule:nonzero;stroke:#5021d4;stroke-width:0.7;stroke-linecap:round;stroke-linejoin:round;stroke-dasharray:none;stroke-opacity:1;image-rendering:auto" />
        <path id="sapphire_gemstone" d="m 17.955,122.900 q 0,0.34175 -0.242534,0.63114 -0.0441,0.0524 -0.20395,0.21497 -0.187413,0.19017 -0.785481,0.81304 l -1.444183,1.51309 q -0.01929,0.003 -0.0441,0.003 -0.02756,0 -0.04134,-0.003 -0.08268,-0.0827 -0.647678,-0.67524 -0.468532,-0.47404 -0.934309,-0.94809 -0.556727,-0.56775 -0.89848,-0.98116 -0.132292,-0.15985 -0.168121,-0.29766 -0.02756,-0.10197 -0.02756,-0.34175 0,-0.11024 0.07166,-0.28939 0.06614,-0.16536 0.140559,-0.26458 0.118512,-0.1571 0.42168,-0.42444 0.283875,-0.2508 0.474044,-0.37482 0.272852,-0.17915 0.818555,-0.36656 0.09646,-0.0331 0.110243,-0.0331 h 1.3615 q 0.01102,0 0.104731,0.0331 0.567751,0.20119 0.824066,0.36656 0.165365,0.10473 0.474045,0.37758 0.322461,0.28388 0.421679,0.42168 0.214974,0.2949 0.214974,0.62563 z m -0.16812,-0.27285 q -0.03307,-0.10749 -0.135048,-0.30868 -0.07166,-0.0937 -0.209462,-0.19844 -0.118511,-0.0854 -0.234266,-0.17088 0.245291,0.3638 0.578776,0.678 z m -0.573264,-0.52366 -0.358289,-0.44648 v 0.41065 z m 0.636653,0.75792 q 0,-0.0524 -0.341753,-0.39412 l 0.228754,0.7028 h 0.04961 q 0.06339,-0.21773 0.06339,-0.30868 z m -0.23151,0.27285 -0.316948,-0.90399 -0.410655,-0.0634 -0.159853,0.61461 z m 0.0028,0.15434 -0.771701,-0.3197 h -0.03032 l 0.344509,0.60634 q 0.07993,-0.003 0.234266,-0.0469 0.02481,-0.0138 0.223242,-0.23978 z m -0.857139,-1.05006 -0.719335,0.28388 0.60358,0.22599 z m 0,-0.16261 v -0.51538 l -0.917773,-0.38034 h -1.223697 l -0.917772,0.38034 v 0.51538 l 0.89848,0.4079 h 1.254014 z m 0.573264,1.53789 q -0.0689,0.011 -0.198438,0.0524 -0.08544,0.0551 -0.259071,0.16261 0.01929,0 0.06339,0.003 0.04134,0 0.06339,0 0.118511,0 0.190169,-0.0689 0.07166,-0.0717 0.14056,-0.14883 z m -0.289388,0.003 -0.347266,-0.63114 -0.363801,0.87918 q 0.0248,-0.0165 0.06615,-0.0165 0.03032,0 0.08544,0.011 0.05788,0.008 0.08819,0.008 0.04961,0 0.228754,-0.10749 0.228754,-0.1378 0.242535,-0.14331 z m -0.440972,-0.74139 -0.683507,-0.2756 -0.592556,0.54845 0.903993,0.65595 z m -0.854383,-0.28387 h -1.036284 l 0.523654,0.47404 z m 0.749652,1.36701 q -0.228754,-0.0303 -0.228754,-0.0303 -0.03583,0 -0.272851,0.0937 l 0.190169,0.0193 q 0.01102,0 0.311436,-0.0827 z m -0.388606,-0.0882 -0.843359,-0.61185 v 0.67524 l 0.471289,0.0827 z m 0.854383,0.0496 q -0.09922,0.006 -0.2949,0.0386 -0.01102,0.003 -0.377583,0.17639 -0.129535,0.34726 -0.380338,1.0418 z m -2.543857,-1.39733 -0.719335,-0.28388 0.124023,0.51814 z m -0.802018,-0.45476 v -0.41065 l -0.366557,0.44648 z m 1.515841,1.07212 -0.592556,-0.54019 -0.683506,0.2756 0.380338,0.9288 z m 0.369314,0.94257 q -0.03307,-0.003 -0.135047,-0.0248 -0.08544,-0.0165 -0.137804,-0.0165 -0.05237,0 -0.137804,0.0165 -0.101975,0.0221 -0.135047,0.0248 0.264583,0.0469 0.272851,0.0469 0.0083,0 0.272851,-0.0469 z m -0.30868,-0.1378 v -0.68626 l -0.843359,0.61185 0.37207,0.14607 z m 0.950846,0.20671 -0.396875,-0.0551 -0.479557,0.14056 v 1.27607 z m -2.888366,-2.20211 q -0.118512,0.0854 -0.234267,0.17364 -0.146072,0.10748 -0.209461,0.19568 -0.0441,0.10473 -0.135048,0.31419 0.369314,-0.3638 0.578776,-0.68351 z m 0.476801,0.83234 -0.159853,-0.61461 -0.410655,0.0634 -0.316948,0.90399 z m 0.394118,1.08313 -0.363802,-0.87918 -0.355533,0.63114 q 0.43546,0.2508 0.451996,0.2508 0.09095,0 0.267339,-0.003 z m 1.821765,0.82958 q -0.132291,0.21222 -0.405143,0.6339 -0.07717,0.10749 -0.220486,0.32797 -0.05788,0.10473 -0.05512,0.226 0.159852,-0.15158 0.432704,-0.49609 0.07717,-0.12954 0.140559,-0.339 0.05512,-0.17639 0.107486,-0.35278 z m -1.493792,-0.66146 -0.270095,-0.0882 -0.0083,-0.011 q -0.02481,0 -0.107487,0.011 -0.06615,0.006 -0.107487,0.006 0.272851,0.091 0.311436,0.091 0.02481,0 0.181901,-0.008 z m -0.810286,-1.06384 h -0.03032 l -0.7717,0.3197 q 0.06615,0.0965 0.223242,0.23978 0.07717,0.0138 0.234266,0.0469 z m -0.689018,-0.50161 q -0.341754,0.34727 -0.341754,0.39412 0,0.0799 0.06339,0.30868 h 0.04961 z m 2.235176,3.04547 v -1.27607 l -0.479557,-0.14056 -0.396875,0.0551 z m -1.606791,-1.6757 q -0.256315,-0.1819 -0.457509,-0.22324 0.06615,0.0772 0.20395,0.22324 z m 1.609547,2.04501 v -0.1378 l -0.683507,-1.05007 q 0.05237,0.17639 0.107487,0.35278 0.06339,0.20946 0.14056,0.339 0.0689,0.11851 0.20395,0.25907 0.115755,0.11851 0.23151,0.23702 z m -0.644921,-0.70555 q -0.115756,-0.32798 -0.380339,-1.0418 -0.135047,-0.0662 -0.272851,-0.12954 -0.159852,-0.0716 -0.289388,-0.0716 -0.05237,0 -0.110243,-0.0138 z" style="stroke-width:0;fill:#0000ff;stroke:#2e2114;stroke-linecap:square;stroke-opacity:1" />
        <path id="model_name" d="M12.7254 7.35962Q12.7254 7.41395 12.6944 7.45276Q12.4382 7.79425 12.0579 8.01156Q11.6776 8.22887 11.243 8.22887Q10.6609 8.22887 10.2108 7.98051Q9.76066 7.73216 9.50842 7.27425Q9.25618 6.81635 9.25618 6.21098Q9.25618 5.59009 9.50066 5.12054Q9.74513 4.651 10.1487 4.40264Q10.5523 4.15429 11.0102 4.15429Q11.4681 4.15429 11.86 4.35219Q12.252 4.5501 12.5003 4.94592Q12.7487 5.34174 12.7642 5.92382Q12.7642 5.98591 12.7176 6.03636Q12.6711 6.0868 12.609 6.0868H9.55887V6.1877Q9.55887 6.66889 9.75289 7.06858Q9.94692 7.46828 10.3272 7.70111Q10.7075 7.93395 11.243 7.93395Q11.6156 7.93395 11.9454 7.75156Q12.2753 7.56917 12.4615 7.28977Q12.5159 7.21992 12.5935 7.21992Q12.6478 7.21992 12.6866 7.26261Q12.7254 7.3053 12.7254 7.35962ZM9.58991 5.79188H12.446V5.72203Q12.4072 5.32621 12.1938 5.04293Q11.9803 4.75965 11.666 4.61219Q11.3517 4.46473 11.0102 4.46473Q10.723 4.46473 10.4242 4.61607Q10.1254 4.76741 9.89648 5.06622Q9.66752 5.36502 9.58991 5.79188ZM16.9319 5.62114V7.99604Q16.9319 8.05812 16.8854 8.10469Q16.8388 8.15126 16.7767 8.15126Q16.7068 8.15126 16.6642 8.10469Q16.6215 8.05812 16.6215 7.99604V5.65218Q16.6215 5.12443 16.346 4.78682Q16.0704 4.44921 15.5116 4.44921Q15.1701 4.44921 14.8403 4.61219Q14.5105 4.77517 14.3009 5.05457Q14.0914 5.33397 14.0914 5.65218V7.99604Q14.0914 8.05812 14.0448 8.10469Q13.9982 8.15126 13.9361 8.15126Q13.8663 8.15126 13.8236 8.10469Q13.7809 8.05812 13.7809 7.99604V4.43369Q13.7809 4.3716 13.8275 4.32503Q13.874 4.27846 13.9361 4.27846Q14.006 4.27846 14.0487 4.32503Q14.0914 4.3716 14.0914 4.43369V4.95368Q14.3164 4.60443 14.7239 4.37936Q15.1313 4.15429 15.5427 4.15429Q16.2334 4.15429 16.5827 4.56174Q16.9319 4.9692 16.9319 5.62114ZM21.3014 4.26294Q21.3014 4.30951 21.2781 4.35608L19.7337 8.05036Q19.7182 8.09693 19.6755 8.12409Q19.6328 8.15126 19.5862 8.15126Q19.5397 8.15126 19.497 8.12409Q19.4543 8.09693 19.4388 8.05036L17.8865 4.36384Q17.871 4.31727 17.871 4.29399Q17.871 4.2319 17.9137 4.18533Q17.9564 4.13876 18.034 4.13876Q18.0728 4.13876 18.1155 4.16593Q18.1582 4.19309 18.1737 4.23966L19.5785 7.61574L20.991 4.23966Q21.0298 4.13876 21.154 4.13876Q21.2005 4.13876 21.251 4.17369Q21.3014 4.20861 21.3014 4.26294Z" style="display:inline;stroke:#000000;stroke-width:0.35;stroke-linecap:round;stroke-linejoin:bevel" />
    </g>
</svg>
