<?xml version="1.0" encoding="utf-8"?>
<svg xmlns="http://www.w3.org/2000/svg" width="30.48mm" height="128.50mm" viewBox="0 0 30.48 128.50">
    <g id="PanelLayer">
        <defs />
        <rect id="border_rect" width="30.48" height="128.5" x="0" y="0" style="display:inline;fill:#4f8df2;fill-opacity:1;fill-rule:nonzero;stroke:#5021d4;stroke-width:0.7;stroke-linecap:round;stroke-linejoin:round;stroke-dasharray:none;stroke-opacity:1;image-rendering:auto" />
        <path id="sapphire_gemstone" d="m 17.955,122.900 q 0,0.34175 -0.242534,0.63114 -0.0441,0.0524 -0.20395,0.21497 -0.187413,0.19017 -0.785481,0.81304 l -1.444183,1.51309 q -0.01929,0.003 -0.0441,0.003 -0.02756,0 -0.04134,-0.003 -0.08268,-0.0827 -0.647678,-0.67524 -0.468532,-0.47404 -0.934309,-0.94809 -0.556727,-0.56775 -0.89848,-0.98116 -0.132292,-0.15985 -0.168121,-0.29766 -0.02756,-0.10197 -0.02756,-0.34175 0,-0.11024 0.07166,-0.28939 0.06614,-0.16536 0.140559,-0.26458 0.118512,-0.1571 0.42168,-0.42444 0.283875,-0.2508 0.474044,-0.37482 0.272852,-0.17915 0.818555,-0.36656 0.09646,-0.0331 0.110243,-0.0331 h 1.3615 q 0.01102,0 0.104731,0.0331 0.567751,0.20119 0.824066,0.36656 0.165365,0.10473 0.474045,0.37758 0.322461,0.28388 0.421679,0.42168 0.214974,0.2949 0.214974,0.62563 z m -0.16812,-0.27285 q -0.03307,-0.10749 -0.135048,-0.30868 -0.07166,-0.0937 -0.209462,-0.19844 -0.118511,-0.0854 -0.234266,-0.17088 0.245291,0.3638 0.578776,0.678 z m -0.573264,-0.52366 -0.358289,-0.44648 v 0.41065 z m 0.636653,0.75792 q 0,-0.0524 -0.341753,-0.39412 l 0.228754,0.7028 h 0.04961 q 0.06339,-0.21773 0.06339,-0.30868 z m -0.23151,0.27285 -0.316948,-0.90399 -0.410655,-0.0634 -0.159853,0.61461 z m 0.0028,0.15434 -0.771701,-0.3197 h -0.03032 l 0.344509,0.60634 q 0.07993,-0.003 0.234266,-0.0469 0.02481,-0.0138 0.223242,-0.23978 z m -0.857139,-1.05006 -0.719335,0.28388 0.60358,0.22599 z m 0,-0.16261 v -0.51538 l -0.917773,-0.38034 h -1.223697 l -0.917772,0.38034 v 0.51538 l 0.89848,0.4079 h 1.254014 z m 0.573264,1.53789 q -0.0689,0.011 -0.198438,0.0524 -0.08544,0.0551 -0.259071,0.16261 0.01929,0 0.06339,0.003 0.04134,0 0.06339,0 0.118511,0 0.190169,-0.0689 0.07166,-0.0717 0.14056,-0.14883 z m -0.289388,0.003 -0.347266,-0.63114 -0.363801,0.87918 q 0.0248,-0.0165 0.06615,-0.0165 0.03032,0 0.08544,0.011 0.05788,0.008 0.08819,0.008 0.04961,0 0.228754,-0.10749 0.228754,-0.1378 0.242535,-0.14331 z m -0.440972,-0.74139 -0.683507,-0.2756 -0.592556,0.54845 0.903993,0.65595 z m -0.854383,-0.28387 h -1.036284 l 0.523654,0.47404 z m 0.749652,1.36701 q -0.228754,-0.0303 -0.228754,-0.0303 -0.03583,0 -0.272851,0.0937 l 0.190169,0.0193 q 0.01102,0 0.311436,-0.0827 z m -0.388606,-0.0882 -0.843359,-0.61185 v 0.67524 l 0.471289,0.0827 z m 0.854383,0.0496 q -0.09922,0.006 -0.2949,0.0386 -0.01102,0.003 -0.377583,0.17639 -0.129535,0.34726 -0.380338,1.0418 z m -2.543857,-1.39733 -0.719335,-0.28388 0.124023,0.51814 z m -0.802018,-0.45476 v -0.41065 l -0.366557,0.44648 z m 1.515841,1.07212 -0.592556,-0.54019 -0.683506,0.2756 0.380338,0.9288 z m 0.369314,0.94257 q -0.03307,-0.003 -0.135047,-0.0248 -0.08544,-0.0165 -0.137804,-0.0165 -0.05237,0 -0.137804,0.0165 -0.101975,0.0221 -0.135047,0.0248 0.264583,0.0469 0.272851,0.0469 0.0083,0 0.272851,-0.0469 z m -0.30868,-0.1378 v -0.68626 l -0.843359,0.61185 0.37207,0.14607 z m 0.950846,0.20671 -0.396875,-0.0551 -0.479557,0.14056 v 1.27607 z m -2.888366,-2.20211 q -0.118512,0.0854 -0.234267,0.17364 -0.146072,0.10748 -0.209461,0.19568 -0.0441,0.10473 -0.135048,0.31419 0.369314,-0.3638 0.578776,-0.68351 z m 0.476801,0.83234 -0.159853,-0.61461 -0.410655,0.0634 -0.316948,0.90399 z m 0.394118,1.08313 -0.363802,-0.87918 -0.355533,0.63114 q 0.43546,0.2508 0.451996,0.2508 0.09095,0 0.267339,-0.003 z m 1.821765,0.82958 q -0.132291,0.21222 -0.405143,0.6339 -0.07717,0.10749 -0.220486,0.32797 -0.05788,0.10473 -0.05512,0.226 0.159852,-0.15158 0.432704,-0.49609 0.07717,-0.12954 0.140559,-0.339 0.05512,-0.17639 0.107486,-0.35278 z m -1.493792,-0.66146 -0.270095,-0.0882 -0.0083,-0.011 q -0.02481,0 -0.107487,0.011 -0.06615,0.006 -0.107487,0.006 0.272851,0.091 0.311436,0.091 0.02481,0 0.181901,-0.008 z m -0.810286,-1.06384 h -0.03032 l -0.7717,0.3197 q 0.06615,0.0965 0.223242,0.23978 0.07717,0.0138 0.234266,0.0469 z m -0.689018,-0.50161 q -0.341754,0.34727 -0.341754,0.39412 0,0.0799 0.06339,0.30868 h 0.04961 z m 2.235176,3.04547 v -1.27607 l -0.479557,-0.14056 -0.396875,0.0551 z m -1.606791,-1.6757 q -0.256315,-0.1819 -0.457509,-0.22324 0.06615,0.0772 0.20395,0.22324 z m 1.609547,2.04501 v -0.1378 l -0.683507,-1.05007 q 0.05237,0.17639 0.107487,0.35278 0.06339,0.20946 0.14056,0.339 0.0689,0.11851 0.20395,0.25907 0.115755,0.11851 0.23151,0.23702 z m -0.644921,-0.70555 q -0.115756,-0.32798 -0.380339,-1.0418 -0.135047,-0.0662 -0.272851,-0.12954 -0.159852,-0.0716 -0.289388,-0.0716 -0.05237,0 -0.110243,-0.0138 z" style="stroke-width:0;fill:#0000ff;stroke:#2e2114;stroke-linecap:square;stroke-opacity:1" />
        <path id="model_name" d="M12.7254 7.35962Q12.7254 7.41395 12.6944 7.45276Q12.4382 7.79425 12.0579 8.01156Q11.6776 8.22887 11.243 8.22887Q10.6609 8.22887 10.2108 7.98051Q9.76066 7.73216 9.50842 7.27425Q9.25618 6.81635 9.25618 6.21098Q9.25618 5.59009 9.50066 5.12054Q9.74513 4.651 10.1487 4.40264Q10.5523 4.15429 11.0102 4.15429Q11.4681 4.15429 11.86 4.35219Q12.252 4.5501 12.5003 4.94592Q12.7487 5.34174 12.7642 5.92382Q12.7642 5.98591 12.7176 6.03636Q12.6711 6.0868 12.609 6.0868H9.55887V6.1877Q9.55887 6.66889 9.75289 7.06858Q9.94692 7.46828 10.3272 7.70111Q10.7075 7.93395 11.243 7.93395Q11.6156 7.93395 11.9454 7.75156Q12.2753 7.56917 12.4615 7.28977Q12.5159 7.21992 12.5935 7.21992Q12.6478 7.21992 12.6866 7.26261Q12.7254 7.3053 12.7254 7.35962ZM9.58991 5.79188H12.446V5.72203Q12.4072 5.32621 12.1938 5.04293Q11.9803 4.75965 11.666 4.61219Q11.3517 4.46473 11.0102 4.46473Q10.723 4.46473 10.4242 4.61607Q10.1254 4.76741 9.89648 5.06622Q9.66752 5.36502 9.58991 5.79188ZM16.9319 5.62114V7.99604Q16.9319 8.05812 16.8854 8.10469Q16.8388 8.15126 16.7767 8.15126Q16.7068 8.15126 16.6642 8.10469Q16.6215 8.05812 16.6215 7.99604V5.65218Q16.6215 5.12443 16.346 4.78682Q16.0704 4.44921 15.5116 4.44921Q15.1701 4.44921 14.8403 4.61219Q14.5105 4.77517 14.3009 5.05457Q14.0914 5.33397 14.0914 5.65218V7.99604Q14.0914 8.05812 14.0448 8.10469Q13.9982 8.15126 13.9361 8.15126Q13.8663 8.15126 13.8236 8.10469Q13.7809 8.05812 13.7809 7.99604V4.43369Q13.7809 4.3716 13.8275 4.32503Q13.874 4.27846 13.9361 4.27846Q14.006 4.27846 14.0487 4.32503Q14.0914 4.3716 14.0914 4.43369V4.95368Q14.3164 4.60443 14.7239 4.37936Q15.1313 4.15429 15.5427 4.15429Q16.2334 4.15429 16.5827 4.56174Q16.9319 4.9692 16.9319 5.62114ZM21.3014 4.26294Q21.3014 4.30951 21.2781 4.35608L19.7337 8.05036Q19.7182 8.09693 19.6755 8.12409Q19.6328 8.15126 19.5862 8.15126Q19.5397 8.15126 19.497 8.12409Q19.4543 8.09693 19.4388 8.05036L17.8865 4.36384Q17.871 4.31727 17.871 4.29399Q17.871 4.2319 17.9137 4.18533Q17.9564 4.13876 18.034 4.13876Q18.0728 4.13876 18.1155 4.16593Q18.1582 4.19309 18.1737 4.23966L19.5785 7.61574L20.991 4.23966Q21.0298 4.13876 21.154 4.13876Q21.2005 4.13876 21.251 4.17369Q21.3014 4.20861 21.3014 4.26294Z" style="display:inline;stroke:#000000;stroke-width:0.35;stroke-linecap:round;stroke-linejoin:bevel" />
        <path d="M9.69727 34.7488Q9.662 34.7488 9.64259 34.7277Q9.62319 34.7065 9.62319 34.6747V32.3535Q9.62319 32.3217 9.64436 32.3006Q9.66552 32.2794 9.69727 32.2794Q9.72902 32.2794 9.75019 32.3006Q9.77136 32.3217 9.77136 32.3535V34.6747Q9.76783 34.7065 9.74666 34.7277Q9.7255 34.7488 9.69727 34.7488ZM12.329 32.3464V34.6712Q12.329 34.71 12.3078 34.7294Q12.2867 34.7488 12.2549 34.7488Q12.2196 34.7488 12.1985 34.7206L10.611 32.551V34.6889Q10.611 34.7136 10.5916 34.7312Q10.5722 34.7488 10.5439 34.7488Q10.5122 34.7488 10.4946 34.7312Q10.4769 34.7136 10.4769 34.6889V32.3499Q10.4769 32.3147 10.4963 32.297Q10.5157 32.2794 10.5404 32.2794Q10.5722 32.2794 10.5933 32.3041L12.1949 34.4878V32.3464Q12.1949 32.3182 12.2143 32.2988Q12.2337 32.2794 12.262 32.2794Q12.2937 32.2794 12.3114 32.2988Q12.329 32.3182 12.329 32.3464ZM15.8003 34.6818Q15.8003 34.7136 15.7792 34.7312Q15.758 34.7488 15.7262 34.7488Q15.7016 34.7488 15.6821 34.7365Q15.6627 34.7241 15.6557 34.703L15.3594 33.9763L15.3629 33.9833H14.1811L13.8953 34.703Q13.8777 34.7488 13.8318 34.7488Q13.8001 34.7488 13.7807 34.7312Q13.7613 34.7136 13.7577 34.6889Q13.7542 34.6747 13.7613 34.6536L14.7102 32.3182Q14.7208 32.29 14.7367 32.2812Q14.7526 32.2723 14.7773 32.2723Q14.8302 32.2723 14.8478 32.3182L15.7968 34.6536Q15.8003 34.6642 15.8003 34.6818ZM14.2375 33.8422H15.3064L14.7667 32.5122ZM18.0934 32.3499V33.8739Q18.0934 34.1209 17.9699 34.329Q17.8464 34.5372 17.6383 34.6606Q17.4302 34.7841 17.1867 34.7841Q16.9398 34.7841 16.7317 34.6606Q16.5235 34.5372 16.4001 34.329Q16.2766 34.1209 16.2766 33.8739V32.3499Q16.2766 32.3182 16.2977 32.2988Q16.3189 32.2794 16.3507 32.2794Q16.3824 32.2794 16.4036 32.3006Q16.4247 32.3217 16.4247 32.3499V33.8739Q16.4247 34.0821 16.5271 34.2585Q16.6294 34.4349 16.804 34.5389Q16.9786 34.643 17.1867 34.643Q17.3949 34.643 17.5695 34.5389Q17.7441 34.4349 17.8482 34.2585Q17.9523 34.0821 17.9523 33.8739V32.3499Q17.9523 32.3217 17.9717 32.3006Q17.9911 32.2794 18.0228 32.2794Q18.0546 32.2794 18.074 32.3006Q18.0934 32.3217 18.0934 32.3499ZM20.8098 33.5141Q20.8098 33.8634 20.6986 34.1421Q20.5875 34.4207 20.3582 34.5848Q20.1289 34.7488 19.7867 34.7488H18.8695Q18.8413 34.7488 18.8201 34.7277Q18.7989 34.7065 18.7989 34.6783V32.3499Q18.7989 32.3217 18.8201 32.3006Q18.8413 32.2794 18.8695 32.2794H19.7867Q20.1254 32.2794 20.3565 32.4487Q20.5875 32.6181 20.6986 32.8985Q20.8098 33.179 20.8098 33.5141ZM20.6616 33.5141Q20.6616 33.2142 20.5646 32.9655Q20.4676 32.7168 20.2647 32.5687Q20.0619 32.4205 19.7514 32.4205H18.9471V34.6077H19.7514Q20.2101 34.6077 20.4358 34.3061Q20.6616 34.0045 20.6616 33.5141Z" style="stroke:#000000;stroke-width:0.25;stroke-linecap:round;stroke-linejoin:bevel" />
        <path d="M13.6207 54.6783Q13.6207 54.71 13.5996 54.7294Q13.5784 54.7488 13.5502 54.7488H12.2202Q12.192 54.7488 12.1708 54.7277Q12.1497 54.7065 12.1497 54.6783V52.3499Q12.1497 52.3217 12.1708 52.3006Q12.192 52.2794 12.2202 52.2794H13.5502Q13.5784 52.2794 13.5996 52.3006Q13.6207 52.3217 13.6207 52.3499Q13.6207 52.3817 13.5996 52.4011Q13.5784 52.4205 13.5502 52.4205H12.2978V53.4047H13.3914Q13.4197 53.4047 13.4408 53.4259Q13.462 53.4471 13.462 53.4753Q13.462 53.5071 13.4408 53.5265Q13.4197 53.5459 13.3914 53.5459H12.2978V54.6077H13.5502Q13.5784 54.6077 13.5996 54.6289Q13.6207 54.6501 13.6207 54.6783ZM16.002 52.3464V54.6712Q16.002 54.71 15.9808 54.7294Q15.9597 54.7488 15.9279 54.7488Q15.8926 54.7488 15.8715 54.7206L14.284 52.551V54.6889Q14.284 54.7136 14.2646 54.7312Q14.2452 54.7488 14.2169 54.7488Q14.1852 54.7488 14.1676 54.7312Q14.1499 54.7136 14.1499 54.6889V52.3499Q14.1499 52.3147 14.1693 52.297Q14.1887 52.2794 14.2134 52.2794Q14.2452 52.2794 14.2663 52.3041L15.8679 54.4878V52.3464Q15.8679 52.3182 15.8873 52.2988Q15.9067 52.2794 15.935 52.2794Q15.9667 52.2794 15.9844 52.2988Q16.002 52.3182 16.002 52.3464ZM18.5596 52.3429Q18.5596 52.357 18.5526 52.3782L17.586 54.703Q17.5648 54.7488 17.5189 54.7488Q17.4978 54.7488 17.4784 54.7365Q17.459 54.7241 17.4519 54.703L16.4924 52.3887Q16.4818 52.3676 16.4818 52.3464Q16.4818 52.3182 16.5012 52.2988Q16.5206 52.2794 16.5488 52.2794Q16.6017 52.2794 16.6264 52.3358L17.5225 54.4913L18.4221 52.3252Q18.4467 52.2794 18.4891 52.2794Q18.5208 52.2794 18.5402 52.297Q18.5596 52.3147 18.5596 52.3429Z" style="stroke:#000000;stroke-width:0.25;stroke-linecap:round;stroke-linejoin:bevel" />
        <path d="M12.1191 72.3429Q12.1191 72.357 12.112 72.3782L11.1454 74.703Q11.1243 74.7488 11.0784 74.7488Q11.0572 74.7488 11.0378 74.7365Q11.0184 74.7241 11.0114 74.703L10.0518 72.3888Q10.0412 72.3676 10.0412 72.3464Q10.0412 72.3182 10.0606 72.2988Q10.08 72.2794 10.1083 72.2794Q10.1612 72.2794 10.1859 72.3358L11.0819 74.4913L11.9815 72.3253Q12.0062 72.2794 12.0485 72.2794Q12.0803 72.2794 12.0997 72.297Q12.1191 72.3147 12.1191 72.3429ZM12.2426 75.1263Q12.2426 75.1051 12.2531 75.084L13.823 72.0113Q13.8477 71.9654 13.8689 71.9495Q13.89 71.9337 13.9253 71.9337Q13.95 71.9337 13.9694 71.9513Q13.9888 71.9689 13.9888 72.0007Q13.9888 72.0289 13.9747 72.0571L12.4048 75.1334Q12.3837 75.1722 12.3643 75.1863Q12.3449 75.2004 12.3131 75.2004Q12.2778 75.2004 12.2602 75.1792Q12.2426 75.1581 12.2426 75.1263ZM15.3858 74.7841Q15.0436 74.7841 14.7755 74.6236Q14.5074 74.4631 14.3575 74.1738Q14.2075 73.8845 14.2075 73.5141Q14.2075 73.1437 14.3575 72.8544Q14.5074 72.5651 14.7755 72.4046Q15.0436 72.2441 15.3858 72.2441Q15.728 72.2441 15.9961 72.4046Q16.2642 72.5651 16.4142 72.8544Q16.5641 73.1437 16.5641 73.5141Q16.5641 73.8845 16.4142 74.1738Q16.2642 74.4631 15.9961 74.6236Q15.728 74.7841 15.3858 74.7841ZM15.3858 72.3852Q15.086 72.3852 14.8514 72.5263Q14.6168 72.6674 14.4862 72.925Q14.3557 73.1825 14.3557 73.5141Q14.3557 73.8457 14.4862 74.1033Q14.6168 74.3608 14.8514 74.5019Q15.086 74.643 15.3858 74.643Q15.6857 74.643 15.9203 74.5019Q16.1549 74.3608 16.2854 74.1033Q16.4159 73.8457 16.4159 73.5141Q16.4159 73.1825 16.2854 72.925Q16.1549 72.6674 15.9203 72.5263Q15.6857 72.3852 15.3858 72.3852ZM18.9524 72.5404Q18.9524 72.5687 18.9383 72.5863Q18.9171 72.6145 18.8854 72.6145Q18.8713 72.6145 18.843 72.6004Q18.515 72.3782 18.1481 72.3782Q17.8517 72.3782 17.603 72.5246Q17.3543 72.671 17.2097 72.9303Q17.065 73.1896 17.065 73.5141Q17.065 73.8387 17.2097 74.098Q17.3543 74.3573 17.603 74.5037Q17.8517 74.6501 18.1481 74.6501Q18.5185 74.6501 18.8395 74.4313Q18.8571 74.4172 18.8818 74.4172Q18.9171 74.4172 18.9383 74.4454Q18.9524 74.4631 18.9524 74.4878Q18.9524 74.5231 18.9242 74.5442Q18.7866 74.643 18.5696 74.7136Q18.3527 74.7841 18.1481 74.7841Q17.8129 74.7841 17.5307 74.6183Q17.2485 74.4525 17.0827 74.1615Q16.9169 73.8704 16.9169 73.5141Q16.9169 73.1578 17.0827 72.8668Q17.2485 72.5757 17.5307 72.4099Q17.8129 72.2441 18.1481 72.2441Q18.3597 72.2441 18.5591 72.3076Q18.7584 72.3711 18.9206 72.484Q18.9524 72.5087 18.9524 72.5404ZM21.055 72.3464Q21.055 72.3782 21.0356 72.3958Q21.0161 72.4134 20.9844 72.4134H20.1977V74.6783Q20.1977 74.7065 20.1765 74.7277Q20.1554 74.7488 20.1271 74.7488Q20.0954 74.7488 20.076 74.7277Q20.0566 74.7065 20.0566 74.6783V72.4134H19.2699Q19.2417 72.4134 19.2205 72.394Q19.1993 72.3746 19.1993 72.3464Q19.1993 72.3182 19.2205 72.2988Q19.2417 72.2794 19.2699 72.2794H20.9844Q21.0126 72.2794 21.0338 72.2988Q21.055 72.3182 21.055 72.3464Z" style="stroke:#000000;stroke-width:0.25;stroke-linecap:round;stroke-linejoin:bevel" />
    </g>
</svg>
