<?xml version="1.0" encoding="utf-8"?>
<svg xmlns="http://www.w3.org/2000/svg" width="4.00mm" height="4.00mm" viewBox="0 0 4.00 4.00">
    <path d="M3.03651 2.47413Q3.03651 2.508 3.01111 2.53128Q2.98571 2.55457 2.94761 2.55457H2.16021V3.40547Q2.16021 3.4478 2.13481 3.4732Q2.10941 3.4986 2.07131 3.4986Q2.03321 3.4986 2.00781 3.4732Q1.98241 3.4478 1.98241 3.4097V2.55457H1.19501Q1.15691 2.55457 1.13151 2.52917Q1.10611 2.50377 1.10611 2.46567Q1.10611 2.4318 1.13151 2.40852Q1.15691 2.38523 1.19501 2.38523H1.98241V1.5682Q1.98241 1.52587 2.00781 1.50047Q2.03321 1.47507 2.07131 1.47507Q2.11364 1.47507 2.13693 1.50047Q2.16021 1.52587 2.16021 1.56397V2.38523H2.94761Q2.98571 2.38523 3.01111 2.41063Q3.03651 2.43603 3.03651 2.47413Z" style="stroke:#000000;stroke-width:0.25;stroke-linecap:round;stroke-linejoin:bevel" />
</svg>
