<?xml version="1.0" encoding="utf-8"?>
<svg xmlns="http://www.w3.org/2000/svg" width="4.00mm" height="4.00mm" viewBox="0 0 4.00 4.00">
    <path d="M2.99418 2.49107Q2.99418 2.53763 2.97513 2.56727Q2.95608 2.5969 2.90528 2.6223L1.34741 3.4732Q1.30508 3.4986 1.27121 3.4986Q1.23734 3.4986 1.21406 3.47532Q1.19078 3.45203 1.19078 3.41817Q1.19078 3.38007 1.21194 3.35678Q1.23311 3.3335 1.29238 3.30387L2.79521 2.49953L1.27121 1.66557Q1.20348 1.6317 1.20348 1.56397Q1.20348 1.5301 1.23099 1.50682Q1.25851 1.48353 1.29661 1.48777Q1.33048 1.48777 1.36434 1.50893L2.88834 2.35983Q2.94338 2.38947 2.96878 2.4191Q2.99418 2.44873 2.99418 2.49107Z" style="stroke:#000000;stroke-width:0.25;stroke-linecap:round;stroke-linejoin:bevel" />
</svg>
