<?xml version="1.0" encoding="utf-8"?>
<svg xmlns="http://www.w3.org/2000/svg" width="20.32mm" height="128.50mm" viewBox="0 0 20.32 128.50">
    <g id="PanelLayer">
        <defs>
            <linearGradient id="gradient_blue" x1="0" y1="13" x2="0" y2="51" gradientUnits="userSpaceOnUse">
                <stop style="stop-color:#3068ff;stop-opacity:1;" offset="0" />
                <stop style="stop-color:#4f8df2;stop-opacity:1;" offset="1" />
            </linearGradient>
            <linearGradient id="gradient_purple" x1="0" y1="44" x2="0" y2="82" gradientUnits="userSpaceOnUse">
                <stop style="stop-color:#a06de4;stop-opacity:1;" offset="0" />
                <stop style="stop-color:#4f8df2;stop-opacity:1;" offset="1" />
            </linearGradient>
            <linearGradient id="gradient_out" x1="0" y1="76" x2="0" y2="113.6" gradientUnits="userSpaceOnUse">
                <stop style="stop-color:#29aab4;stop-opacity:1;" offset="0" />
                <stop style="stop-color:#4f8df2;stop-opacity:1;" offset="1" />
            </linearGradient>
        </defs>
        <g id="ControlLayer" style="display:none;">
            <circle id="x_output" cx="10.16" cy="88" r="1" />
            <circle id="y_output" cx="10.16" cy="97" r="1" />
            <circle id="z_output" cx="10.16" cy="106" r="1" />
            <circle id="p_output" cx="10.16" cy="115" r="1" />
            <circle id="speed_knob" cx="10.16" cy="26" r="1" />
            <circle id="speed_atten" cx="5.16" cy="37" r="1" />
            <circle id="speed_cv" cx="15.16" cy="37" r="1" />
            <circle id="chaos_knob" cx="10.16" cy="57" r="1" />
            <circle id="chaos_atten" cx="5.16" cy="68" r="1" />
            <circle id="chaos_cv" cx="15.16" cy="68" r="1" />
        </g>
        <rect id="border_rect" width="20.32" height="128.5" x="0" y="0" style="display:inline;fill:#4f8df2;fill-opacity:1;fill-rule:nonzero;stroke:#5021d4;stroke-width:0.7;stroke-linecap:round;stroke-linejoin:round;stroke-dasharray:none;stroke-opacity:1;image-rendering:auto" />
        <path id="sapphire_gemstone" d="m 12.875,122.900 q 0,0.34175 -0.242534,0.63114 -0.0441,0.0524 -0.20395,0.21497 -0.187413,0.19017 -0.785481,0.81304 l -1.444183,1.51309 q -0.01929,0.003 -0.0441,0.003 -0.02756,0 -0.04134,-0.003 -0.08268,-0.0827 -0.647678,-0.67524 -0.468532,-0.47404 -0.934309,-0.94809 -0.556727,-0.56775 -0.89848,-0.98116 -0.132292,-0.15985 -0.168121,-0.29766 -0.02756,-0.10197 -0.02756,-0.34175 0,-0.11024 0.07166,-0.28939 0.06614,-0.16536 0.140559,-0.26458 0.118512,-0.1571 0.42168,-0.42444 0.283875,-0.2508 0.474044,-0.37482 0.272852,-0.17915 0.818555,-0.36656 0.09646,-0.0331 0.110243,-0.0331 h 1.3615 q 0.01102,0 0.104731,0.0331 0.567751,0.20119 0.824066,0.36656 0.165365,0.10473 0.474045,0.37758 0.322461,0.28388 0.421679,0.42168 0.214974,0.2949 0.214974,0.62563 z m -0.16812,-0.27285 q -0.03307,-0.10749 -0.135048,-0.30868 -0.07166,-0.0937 -0.209462,-0.19844 -0.118511,-0.0854 -0.234266,-0.17088 0.245291,0.3638 0.578776,0.678 z m -0.573264,-0.52366 -0.358289,-0.44648 v 0.41065 z m 0.636653,0.75792 q 0,-0.0524 -0.341753,-0.39412 l 0.228754,0.7028 h 0.04961 q 0.06339,-0.21773 0.06339,-0.30868 z m -0.23151,0.27285 -0.316948,-0.90399 -0.410655,-0.0634 -0.159853,0.61461 z m 0.0028,0.15434 -0.771701,-0.3197 h -0.03032 l 0.344509,0.60634 q 0.07993,-0.003 0.234266,-0.0469 0.02481,-0.0138 0.223242,-0.23978 z m -0.857139,-1.05006 -0.719335,0.28388 0.60358,0.22599 z m 0,-0.16261 v -0.51538 l -0.917773,-0.38034 h -1.223697 l -0.917772,0.38034 v 0.51538 l 0.89848,0.4079 h 1.254014 z m 0.573264,1.53789 q -0.0689,0.011 -0.198438,0.0524 -0.08544,0.0551 -0.259071,0.16261 0.01929,0 0.06339,0.003 0.04134,0 0.06339,0 0.118511,0 0.190169,-0.0689 0.07166,-0.0717 0.14056,-0.14883 z m -0.289388,0.003 -0.347266,-0.63114 -0.363801,0.87918 q 0.0248,-0.0165 0.06615,-0.0165 0.03032,0 0.08544,0.011 0.05788,0.008 0.08819,0.008 0.04961,0 0.228754,-0.10749 0.228754,-0.1378 0.242535,-0.14331 z m -0.440972,-0.74139 -0.683507,-0.2756 -0.592556,0.54845 0.903993,0.65595 z m -0.854383,-0.28387 h -1.036284 l 0.523654,0.47404 z m 0.749652,1.36701 q -0.228754,-0.0303 -0.228754,-0.0303 -0.03583,0 -0.272851,0.0937 l 0.190169,0.0193 q 0.01102,0 0.311436,-0.0827 z m -0.388606,-0.0882 -0.843359,-0.61185 v 0.67524 l 0.471289,0.0827 z m 0.854383,0.0496 q -0.09922,0.006 -0.2949,0.0386 -0.01102,0.003 -0.377583,0.17639 -0.129535,0.34726 -0.380338,1.0418 z m -2.543857,-1.39733 -0.719335,-0.28388 0.124023,0.51814 z m -0.802018,-0.45476 v -0.41065 l -0.366557,0.44648 z m 1.515841,1.07212 -0.592556,-0.54019 -0.683506,0.2756 0.380338,0.9288 z m 0.369314,0.94257 q -0.03307,-0.003 -0.135047,-0.0248 -0.08544,-0.0165 -0.137804,-0.0165 -0.05237,0 -0.137804,0.0165 -0.101975,0.0221 -0.135047,0.0248 0.264583,0.0469 0.272851,0.0469 0.0083,0 0.272851,-0.0469 z m -0.30868,-0.1378 v -0.68626 l -0.843359,0.61185 0.37207,0.14607 z m 0.950846,0.20671 -0.396875,-0.0551 -0.479557,0.14056 v 1.27607 z m -2.888366,-2.20211 q -0.118512,0.0854 -0.234267,0.17364 -0.146072,0.10748 -0.209461,0.19568 -0.0441,0.10473 -0.135048,0.31419 0.369314,-0.3638 0.578776,-0.68351 z m 0.476801,0.83234 -0.159853,-0.61461 -0.410655,0.0634 -0.316948,0.90399 z m 0.394118,1.08313 -0.363802,-0.87918 -0.355533,0.63114 q 0.43546,0.2508 0.451996,0.2508 0.09095,0 0.267339,-0.003 z m 1.821765,0.82958 q -0.132291,0.21222 -0.405143,0.6339 -0.07717,0.10749 -0.220486,0.32797 -0.05788,0.10473 -0.05512,0.226 0.159852,-0.15158 0.432704,-0.49609 0.07717,-0.12954 0.140559,-0.339 0.05512,-0.17639 0.107486,-0.35278 z m -1.493792,-0.66146 -0.270095,-0.0882 -0.0083,-0.011 q -0.02481,0 -0.107487,0.011 -0.06615,0.006 -0.107487,0.006 0.272851,0.091 0.311436,0.091 0.02481,0 0.181901,-0.008 z m -0.810286,-1.06384 h -0.03032 l -0.7717,0.3197 q 0.06615,0.0965 0.223242,0.23978 0.07717,0.0138 0.234266,0.0469 z m -0.689018,-0.50161 q -0.341754,0.34727 -0.341754,0.39412 0,0.0799 0.06339,0.30868 h 0.04961 z m 2.235176,3.04547 v -1.27607 l -0.479557,-0.14056 -0.396875,0.0551 z m -1.606791,-1.6757 q -0.256315,-0.1819 -0.457509,-0.22324 0.06615,0.0772 0.20395,0.22324 z m 1.609547,2.04501 v -0.1378 l -0.683507,-1.05007 q 0.05237,0.17639 0.107487,0.35278 0.06339,0.20946 0.14056,0.339 0.0689,0.11851 0.20395,0.25907 0.115755,0.11851 0.23151,0.23702 z m -0.644921,-0.70555 q -0.115756,-0.32798 -0.380339,-1.0418 -0.135047,-0.0662 -0.272851,-0.12954 -0.159852,-0.0716 -0.289388,-0.0716 -0.05237,0 -0.110243,-0.0138 z" style="stroke-width:0;fill:#0000ff;stroke:#2e2114;stroke-linecap:square;stroke-opacity:1" />
        <path id="model_name" d="M3.88902 4.47249Q3.88902 4.53458 3.84634 4.57727Q3.80365 4.61995 3.74156 4.61995H2.82575V7.99604Q2.82575 8.05812 2.77918 8.10469Q2.73262 8.15126 2.67053 8.15126Q2.60068 8.15126 2.55799 8.10469Q2.51531 8.05812 2.51531 7.99604V4.61995H1.89442Q1.84009 4.61995 1.79352 4.57339Q1.74696 4.52682 1.74696 4.47249Q1.74696 4.40264 1.78964 4.36384Q1.83233 4.32503 1.89442 4.32503H2.51531V3.37817Q2.51531 2.92027 2.75978 2.68356Q3.00426 2.44684 3.38455 2.44684Q3.57858 2.44684 3.7532 2.49729Q3.92783 2.54774 3.92783 2.66415Q3.92783 2.72624 3.88126 2.77281Q3.83469 2.81937 3.78037 2.81937Q3.71828 2.81937 3.61738 2.78057Q3.43888 2.72624 3.35351 2.72624Q3.11291 2.72624 2.96933 2.88923Q2.82575 3.05221 2.82575 3.37817V4.32503H3.74156Q3.80365 4.32503 3.84634 4.36772Q3.88902 4.4104 3.88902 4.47249ZM6.86153 4.33279Q6.86153 4.40264 6.82272 4.44921Q6.78392 4.49578 6.72183 4.49578Q6.69854 4.49578 6.60929 4.46085Q6.52004 4.42592 6.41914 4.42592Q6.10094 4.42592 5.78273 4.67816Q5.46453 4.9304 5.26274 5.31457Q5.06095 5.69875 5.06095 6.05576V7.99604Q5.06095 8.05812 5.01438 8.10469Q4.96782 8.15126 4.90573 8.15126Q4.83588 8.15126 4.79319 8.10469Q4.75051 8.05812 4.75051 7.99604V4.43369Q4.75051 4.3716 4.79707 4.32503Q4.84364 4.27846 4.90573 4.27846Q4.97558 4.27846 5.01826 4.32503Q5.06095 4.3716 5.06095 4.43369V5.25636Q5.23946 4.78294 5.61587 4.47249Q5.99228 4.16205 6.50452 4.15429Q6.86153 4.15429 6.86153 4.33279ZM9.25195 8.22887Q8.71643 8.22887 8.27793 7.96111Q7.83943 7.69335 7.58719 7.22769Q7.33496 6.76202 7.33496 6.19546Q7.33496 5.62114 7.58719 5.15547Q7.83943 4.6898 8.27405 4.42204Q8.70867 4.15429 9.25195 4.15429Q9.78747 4.15429 10.226 4.42204Q10.6645 4.6898 10.9128 5.15547Q11.1612 5.62114 11.1612 6.19546Q11.1612 6.76978 10.9128 7.23157Q10.6645 7.69335 10.226 7.96111Q9.78747 8.22887 9.25195 8.22887ZM9.25195 4.44921Q8.80181 4.44921 8.43315 4.67816Q8.0645 4.90711 7.85495 5.30293Q7.6454 5.69875 7.6454 6.19546Q7.6454 6.68441 7.85495 7.08022Q8.0645 7.47604 8.43315 7.70499Q8.80181 7.93395 9.25195 7.93395Q9.70986 7.93395 10.0746 7.70887Q10.4394 7.4838 10.6451 7.08411Q10.8507 6.68441 10.8507 6.19546Q10.8507 5.69875 10.6451 5.30293Q10.4394 4.90711 10.0746 4.67816Q9.70986 4.44921 9.25195 4.44921ZM12.3719 8.15126Q12.3021 8.15126 12.2594 8.10469Q12.2167 8.05812 12.2167 7.99604V2.56326Q12.2167 2.50117 12.2633 2.4546Q12.3098 2.40804 12.3719 2.40804Q12.4418 2.40804 12.4845 2.4546Q12.5271 2.50117 12.5271 2.56326V7.99604Q12.5271 8.05812 12.4806 8.10469Q12.434 8.15126 12.3719 8.15126ZM14.0095 8.15126Q13.9397 8.15126 13.897 8.10469Q13.8543 8.05812 13.8543 7.99604V4.30951Q13.8543 4.24742 13.9009 4.20085Q13.9474 4.15429 14.0095 4.15429Q14.0794 4.15429 14.122 4.20085Q14.1647 4.24742 14.1647 4.30951V7.99604Q14.1647 8.05812 14.1182 8.10469Q14.0716 8.15126 14.0095 8.15126ZM13.7379 3.37818V3.31609Q13.7379 3.20743 13.8155 3.13758Q13.8931 3.06773 14.0173 3.06773Q14.1259 3.06773 14.1997 3.13758Q14.2734 3.20743 14.2734 3.31609V3.37818Q14.2734 3.48683 14.1997 3.55668Q14.1259 3.62653 14.0095 3.62653Q13.8853 3.62653 13.8116 3.55668Q13.7379 3.48683 13.7379 3.37818ZM18.4799 4.70533Q18.4799 4.76741 18.4372 4.81398Q18.3945 4.86055 18.3324 4.86055Q18.2626 4.86055 18.2277 4.83726Q18.1928 4.81398 18.1307 4.75189Q18.0298 4.63547 17.9211 4.58115Q17.6417 4.44921 17.1295 4.44921Q16.6871 4.44921 16.3107 4.68204Q15.9343 4.91488 15.7131 5.31457Q15.4919 5.71427 15.4919 6.1877Q15.4919 6.68441 15.6976 7.08411Q15.9032 7.4838 16.2796 7.70887Q16.6561 7.93395 17.1295 7.93395Q17.4399 7.93395 17.6184 7.87962Q17.7969 7.82529 17.9754 7.7244Q18.0996 7.64679 18.1928 7.55365Q18.2316 7.51485 18.2704 7.48768Q18.3092 7.46052 18.348 7.46052Q18.4101 7.46052 18.445 7.49932Q18.4799 7.53813 18.4799 7.60022Q18.4799 7.70887 18.3014 7.86022Q18.1229 8.01156 17.8086 8.12021Q17.4942 8.22887 17.1062 8.22887Q16.5474 8.22887 16.1089 7.96499Q15.6704 7.70111 15.4259 7.23545Q15.1814 6.76978 15.1814 6.1877Q15.1814 5.64442 15.4259 5.17875Q15.6704 4.71309 16.1167 4.43369Q16.5629 4.15429 17.1372 4.15429Q17.471 4.15429 17.7853 4.2319Q18.0996 4.30951 18.2898 4.43757Q18.4799 4.56562 18.4799 4.70533Z" style="display:inline;stroke:#000000;stroke-width:0.35;stroke-linecap:round;stroke-linejoin:bevel" />
        <path id="speed_art" d="M 0.38,51.00 L 0.38,17.00 A 4 4 0 0 1 4.38 13 L 15.94,13.00 A 4 4 0 0 1 19.94 17 L 19.94,13.00 L 19.94,51.00 z" style="fill:url(#gradient_blue);fill-opacity:1;stroke-width:0;" />
        <path id="chaos_art" d="M 0.38,82.00 L 0.38,48.00 A 4 4 0 0 1 4.38 44 L 15.94,44.00 A 4 4 0 0 1 19.94 48 L 19.94,44.00 L 19.94,82.00 z" style="fill:url(#gradient_purple);fill-opacity:1;stroke-width:0;" />
        <path id="out_art" d="M 0.38,113.60 L 0.38,80.00 A 4 4 0 0 1 4.38 76 L 15.94,76.00 A 4 4 0 0 1 19.94 80 L 19.94,76.00 L 19.94,113.60 z" style="fill:url(#gradient_out);fill-opacity:1;stroke-width:0;" />
        <path d="M4.80464 17.6791Q4.78347 17.6579 4.78347 17.6262Q4.78347 17.5979 4.80817 17.5715Q4.83286 17.545 4.86108 17.545Q4.89283 17.545 4.92106 17.5768Q5.05864 17.739 5.24737 17.8237Q5.43611 17.9084 5.64425 17.9084Q5.91589 17.9084 6.09228 17.7778Q6.26867 17.6473 6.26867 17.4321Q6.26514 17.2628 6.17694 17.1534Q6.08875 17.0441 5.95999 16.9788Q5.83122 16.9135 5.60897 16.8324Q5.36556 16.7407 5.22974 16.6701Q5.09392 16.5996 4.9969 16.469Q4.89989 16.3385 4.89989 16.1268Q4.89989 15.954 4.99514 15.8129Q5.09039 15.6718 5.26678 15.5906Q5.44317 15.5095 5.676 15.5095Q5.88414 15.5095 6.07111 15.5853Q6.25808 15.6612 6.36744 15.7988Q6.40272 15.8482 6.40272 15.8728Q6.40272 15.9011 6.37626 15.924Q6.34981 15.9469 6.31806 15.9469Q6.28983 15.9469 6.27219 15.9258Q6.17342 15.7988 6.01819 15.7247Q5.86297 15.6506 5.676 15.6506Q5.40789 15.6506 5.22974 15.7776Q5.05158 15.9046 5.05158 16.1233Q5.05158 16.275 5.13801 16.3808Q5.22444 16.4867 5.35497 16.5519Q5.4855 16.6172 5.67953 16.6878Q5.92647 16.776 6.07111 16.85Q6.21575 16.9241 6.31806 17.0652Q6.42036 17.2063 6.42036 17.4392Q6.42036 17.6015 6.32511 17.7426Q6.22986 17.8837 6.05171 17.9666Q5.87356 18.0495 5.64425 18.0495Q5.38319 18.0495 5.18917 17.9595Q4.99514 17.8696 4.80464 17.6791ZM8.53703 16.2186Q8.53703 16.4161 8.45413 16.5766Q8.37122 16.7372 8.21953 16.8271Q8.06783 16.9171 7.87028 16.9171H7.10122V17.9437Q7.10122 17.9719 7.07829 17.993Q7.05536 18.0142 7.02714 18.0142Q6.99539 18.0142 6.97422 17.993Q6.95306 17.9719 6.95306 17.9437V15.6153Q6.95306 15.5871 6.97422 15.5659Q6.99539 15.5448 7.02361 15.5448H7.87028Q8.17014 15.5448 8.35358 15.7317Q8.53703 15.9187 8.53703 16.2186ZM8.38886 16.2186Q8.38886 15.9752 8.24951 15.8305Q8.11017 15.6859 7.87028 15.6859H7.10122V16.776H7.87028Q8.10664 16.776 8.24775 16.619Q8.38886 16.462 8.38886 16.2186ZM10.5196 17.9437Q10.5196 17.9754 10.4985 17.9948Q10.4773 18.0142 10.4491 18.0142H9.11911Q9.09089 18.0142 9.06972 17.993Q9.04856 17.9719 9.04856 17.9437V15.6153Q9.04856 15.5871 9.06972 15.5659Q9.09089 15.5448 9.11911 15.5448H10.4491Q10.4773 15.5448 10.4985 15.5659Q10.5196 15.5871 10.5196 15.6153Q10.5196 15.6471 10.4985 15.6665Q10.4773 15.6859 10.4491 15.6859H9.19672V16.6701H10.2903Q10.3186 16.6701 10.3397 16.6913Q10.3609 16.7125 10.3609 16.7407Q10.3609 16.7724 10.3397 16.7918Q10.3186 16.8112 10.2903 16.8112H9.19672V17.8731H10.4491Q10.4773 17.8731 10.4985 17.8943Q10.5196 17.9154 10.5196 17.9437ZM12.5199 17.9437Q12.5199 17.9754 12.4987 17.9948Q12.4776 18.0142 12.4493 18.0142H11.1194Q11.0911 18.0142 11.07 17.993Q11.0488 17.9719 11.0488 17.9437V15.6153Q11.0488 15.5871 11.07 15.5659Q11.0911 15.5448 11.1194 15.5448H12.4493Q12.4776 15.5448 12.4987 15.5659Q12.5199 15.5871 12.5199 15.6153Q12.5199 15.6471 12.4987 15.6665Q12.4776 15.6859 12.4493 15.6859H11.197V16.6701H12.2906Q12.3188 16.6701 12.34 16.6913Q12.3611 16.7125 12.3611 16.7407Q12.3611 16.7724 12.34 16.7918Q12.3188 16.8112 12.2906 16.8112H11.197V17.8731H12.4493Q12.4776 17.8731 12.4987 17.8943Q12.5199 17.9154 12.5199 17.9437ZM15.0599 16.7795Q15.0599 17.1287 14.9488 17.4074Q14.8376 17.6861 14.6083 17.8502Q14.379 18.0142 14.0368 18.0142H13.1196Q13.0914 18.0142 13.0702 17.993Q13.0491 17.9719 13.0491 17.9437V15.6153Q13.0491 15.5871 13.0702 15.5659Q13.0914 15.5448 13.1196 15.5448H14.0368Q14.3755 15.5448 14.6066 15.7141Q14.8376 15.8834 14.9488 16.1639Q15.0599 16.4443 15.0599 16.7795ZM14.9117 16.7795Q14.9117 16.4796 14.8147 16.2309Q14.7177 15.9822 14.5148 15.834Q14.312 15.6859 14.0016 15.6859H13.1972V17.8731H14.0016Q14.4602 17.8731 14.6859 17.5715Q14.9117 17.2698 14.9117 16.7795Z" style="stroke:#000000;stroke-width:0.25;stroke-linecap:round;stroke-linejoin:bevel" />
        <path d="M6.37192 46.8058Q6.37192 46.834 6.35781 46.8517Q6.33664 46.8799 6.30489 46.8799Q6.29078 46.8799 6.26256 46.8658Q5.93447 46.6435 5.56758 46.6435Q5.27125 46.6435 5.02254 46.7899Q4.77383 46.9363 4.62919 47.1956Q4.48456 47.4549 4.48456 47.7795Q4.48456 48.104 4.62919 48.3633Q4.77383 48.6226 5.02254 48.769Q5.27125 48.9154 5.56758 48.9154Q5.938 48.9154 6.25903 48.6967Q6.27667 48.6826 6.30136 48.6826Q6.33664 48.6826 6.35781 48.7108Q6.37192 48.7285 6.37192 48.7532Q6.37192 48.7884 6.34369 48.8096Q6.20611 48.9084 5.98915 48.9789Q5.77219 49.0495 5.56758 49.0495Q5.23244 49.0495 4.95022 48.8837Q4.668 48.7179 4.50219 48.4268Q4.33639 48.1358 4.33639 47.7795Q4.33639 47.4232 4.50219 47.1321Q4.668 46.8411 4.95022 46.6753Q5.23244 46.5095 5.56758 46.5095Q5.77925 46.5095 5.97857 46.573Q6.17789 46.6365 6.34017 46.7494Q6.37192 46.7741 6.37192 46.8058ZM8.68261 46.6188V48.9401Q8.67908 48.9719 8.65792 48.993Q8.63675 49.0142 8.60853 49.0142Q8.57325 49.0142 8.55385 48.993Q8.53444 48.9719 8.53444 48.9401V47.8148H6.99633V48.9401Q6.99281 48.9719 6.97164 48.993Q6.95047 49.0142 6.92225 49.0142Q6.88697 49.0142 6.86757 48.993Q6.84817 48.9719 6.84817 48.9401V46.6188Q6.84817 46.5871 6.86933 46.5659Q6.8905 46.5448 6.92225 46.5448Q6.954 46.5448 6.97517 46.5659Q6.99633 46.5871 6.99633 46.6188V47.6737H8.53444V46.6188Q8.53444 46.5871 8.55561 46.5659Q8.57678 46.5448 8.60853 46.5448Q8.64028 46.5448 8.66144 46.5659Q8.68261 46.5871 8.68261 46.6188ZM11.2014 48.9472Q11.2014 48.9789 11.1803 48.9966Q11.1591 49.0142 11.1274 49.0142Q11.1027 49.0142 11.0833 49.0019Q11.0639 48.9895 11.0568 48.9683L10.7605 48.2416L10.764 48.2487H9.58219L9.29644 48.9683Q9.27881 49.0142 9.23294 49.0142Q9.20119 49.0142 9.18179 48.9966Q9.16239 48.9789 9.15886 48.9542Q9.15533 48.9401 9.16239 48.919L10.1114 46.5836Q10.1219 46.5553 10.1378 46.5465Q10.1537 46.5377 10.1784 46.5377Q10.2313 46.5377 10.2489 46.5836L11.1979 48.919Q11.2014 48.9295 11.2014 48.9472ZM9.63864 48.1076H10.7076L10.1678 46.7776ZM12.6796 49.0495Q12.3374 49.0495 12.0693 48.889Q11.8012 48.7285 11.6512 48.4392Q11.5013 48.1499 11.5013 47.7795Q11.5013 47.4091 11.6512 47.1198Q11.8012 46.8305 12.0693 46.67Q12.3374 46.5095 12.6796 46.5095Q13.0218 46.5095 13.2899 46.67Q13.558 46.8305 13.7079 47.1198Q13.8579 47.4091 13.8579 47.7795Q13.8579 48.1499 13.7079 48.4392Q13.558 48.7285 13.2899 48.889Q13.0218 49.0495 12.6796 49.0495ZM12.6796 46.6506Q12.3797 46.6506 12.1451 46.7917Q11.9105 46.9328 11.78 47.1903Q11.6495 47.4479 11.6495 47.7795Q11.6495 48.1111 11.78 48.3686Q11.9105 48.6262 12.1451 48.7673Q12.3797 48.9084 12.6796 48.9084Q12.9794 48.9084 13.214 48.7673Q13.4486 48.6262 13.5792 48.3686Q13.7097 48.1111 13.7097 47.7795Q13.7097 47.4479 13.5792 47.1903Q13.4486 46.9328 13.214 46.7917Q12.9794 46.6506 12.6796 46.6506ZM14.1789 48.6791Q14.1577 48.6579 14.1577 48.6262Q14.1577 48.5979 14.1824 48.5715Q14.2071 48.545 14.2353 48.545Q14.2671 48.545 14.2953 48.5768Q14.4329 48.739 14.6216 48.8237Q14.8104 48.9084 15.0185 48.9084Q15.2901 48.9084 15.4665 48.7778Q15.6429 48.6473 15.6429 48.4321Q15.6394 48.2628 15.5512 48.1534Q15.463 48.0441 15.3342 47.9788Q15.2055 47.9135 14.9832 47.8324Q14.7398 47.7407 14.604 47.6701Q14.4682 47.5996 14.3712 47.469Q14.2741 47.3385 14.2741 47.1268Q14.2741 46.954 14.3694 46.8129Q14.4646 46.6718 14.641 46.5906Q14.8174 46.5095 15.0503 46.5095Q15.2584 46.5095 15.4454 46.5853Q15.6323 46.6612 15.7417 46.7988Q15.777 46.8482 15.777 46.8728Q15.777 46.9011 15.7505 46.924Q15.7241 46.9469 15.6923 46.9469Q15.6641 46.9469 15.6464 46.9258Q15.5477 46.7988 15.3924 46.7247Q15.2372 46.6506 15.0503 46.6506Q14.7821 46.6506 14.604 46.7776Q14.4258 46.9046 14.4258 47.1233Q14.4258 47.275 14.5123 47.3808Q14.5987 47.4867 14.7292 47.5519Q14.8598 47.6172 15.0538 47.6878Q15.3007 47.776 15.4454 47.85Q15.59 47.9241 15.6923 48.0652Q15.7946 48.2063 15.7946 48.4392Q15.7946 48.6015 15.6994 48.7426Q15.6041 48.8837 15.426 48.9666Q15.2478 49.0495 15.0185 49.0495Q14.7574 49.0495 14.5634 48.9595Q14.3694 48.8696 14.1789 48.6791Z" style="stroke:#000000;stroke-width:0.25;stroke-linecap:round;stroke-linejoin:bevel" />
        <g id="connector_lines" style="fill:none;stroke:#000000;stroke-width:0.25;stroke-linecap:round;stroke-linejoin:bevel;stroke-dasharray:none">
            <line x1="10.16" y1="26.00" x2="5.16" y2="37.00" />
            <line x1="10.16" y1="26.00" x2="15.16" y2="37.00" />
            <line x1="10.16" y1="57.00" x2="5.16" y2="68.00" />
            <line x1="10.16" y1="57.00" x2="15.16" y2="68.00" />
        </g>
        <path id="out_label" d="M7.61467 81.1495Q7.27247 81.1495 7.00436 80.989Q6.73625 80.8285 6.58632 80.5392Q6.43639 80.2499 6.43639 79.8795Q6.43639 79.5091 6.58632 79.2198Q6.73625 78.9305 7.00436 78.77Q7.27247 78.6095 7.61467 78.6095Q7.95686 78.6095 8.22497 78.77Q8.49308 78.9305 8.64301 79.2198Q8.79294 79.5091 8.79294 79.8795Q8.79294 80.2499 8.64301 80.5392Q8.49308 80.8285 8.22497 80.989Q7.95686 81.1495 7.61467 81.1495ZM7.61467 78.7506Q7.31481 78.7506 7.08021 78.8917Q6.84561 79.0328 6.71508 79.2903Q6.58456 79.5479 6.58456 79.8795Q6.58456 80.2111 6.71508 80.4686Q6.84561 80.7262 7.08021 80.8673Q7.31481 81.0084 7.61467 81.0084Q7.91453 81.0084 8.14912 80.8673Q8.38372 80.7262 8.51425 80.4686Q8.64478 80.2111 8.64478 79.8795Q8.64478 79.5479 8.51425 79.2903Q8.38372 79.0328 8.14912 78.8917Q7.91453 78.7506 7.61467 78.7506ZM11.1389 78.7153V80.2393Q11.1389 80.4863 11.0154 80.6944Q10.892 80.9025 10.6838 81.026Q10.4757 81.1495 10.2323 81.1495Q9.98533 81.1495 9.77719 81.026Q9.56906 80.9025 9.44558 80.6944Q9.32211 80.4863 9.32211 80.2393V78.7153Q9.32211 78.6836 9.34328 78.6642Q9.36444 78.6448 9.39619 78.6448Q9.42794 78.6448 9.44911 78.6659Q9.47028 78.6871 9.47028 78.7153V80.2393Q9.47028 80.4475 9.57258 80.6238Q9.67489 80.8002 9.84951 80.9043Q10.0241 81.0084 10.2323 81.0084Q10.4404 81.0084 10.615 80.9043Q10.7897 80.8002 10.8937 80.6238Q10.9978 80.4475 10.9978 80.2393V78.7153Q10.9978 78.6871 11.0172 78.6659Q11.0366 78.6448 11.0684 78.6448Q11.1001 78.6448 11.1195 78.6659Q11.1389 78.6871 11.1389 78.7153ZM13.4708 78.7118Q13.4708 78.7435 13.4514 78.7612Q13.432 78.7788 13.4002 78.7788H12.6135V81.0437Q12.6135 81.0719 12.5924 81.093Q12.5712 81.1142 12.543 81.1142Q12.5112 81.1142 12.4918 81.093Q12.4724 81.0719 12.4724 81.0437V78.7788H11.6857Q11.6575 78.7788 11.6363 78.7594Q11.6152 78.74 11.6152 78.7118Q11.6152 78.6836 11.6363 78.6642Q11.6575 78.6448 11.6857 78.6448H13.4002Q13.4284 78.6448 13.4496 78.6642Q13.4708 78.6836 13.4708 78.7118Z" style="stroke:#000000;stroke-width:0.25;stroke-linecap:round;stroke-linejoin:bevel" />
        <path id="port_label_x" d="M4.61439 89.1119Q4.63203 89.1366 4.63203 89.1542Q4.63203 89.186 4.61086 89.2054Q4.58969 89.2248 4.55794 89.2248Q4.51914 89.2248 4.5015 89.1966L3.69364 88.0959L2.88931 89.1966Q2.87167 89.2248 2.83639 89.2248Q2.80464 89.2248 2.787 89.2054Q2.76936 89.186 2.76936 89.1648Q2.76936 89.1472 2.787 89.119L3.61603 87.9865L2.77994 86.8471Q2.76583 86.8294 2.76583 86.8047Q2.76583 86.773 2.787 86.7536Q2.80817 86.7342 2.83639 86.7342Q2.87872 86.7342 2.89636 86.7624L3.70422 87.8666L4.50856 86.7589Q4.52972 86.7307 4.56147 86.7307Q4.59322 86.7307 4.61262 86.7465Q4.63203 86.7624 4.63203 86.7871Q4.63203 86.8118 4.61439 86.8365L3.78536 87.9795Z" style="stroke:#000000;stroke-width:0.25;stroke-linecap:round;stroke-linejoin:bevel" />
        <path id="port_label_y" d="M4.50503 95.8435 3.70069 96.9372V98.1437Q3.70069 98.1719 3.67953 98.193Q3.65836 98.2142 3.62661 98.2142Q3.59486 98.2142 3.57369 98.193Q3.55253 98.1719 3.55253 98.1437V96.9513L2.74467 95.8435Q2.73056 95.8259 2.73056 95.7977Q2.73056 95.773 2.75349 95.7518Q2.77642 95.7307 2.80464 95.7307Q2.84344 95.7307 2.86461 95.7624L3.62661 96.8031L4.38861 95.7624Q4.40978 95.7307 4.44858 95.7307Q4.48033 95.7307 4.49974 95.7536Q4.51914 95.7765 4.51914 95.7977Q4.51914 95.8153 4.50503 95.8435Z" style="stroke:#000000;stroke-width:0.25;stroke-linecap:round;stroke-linejoin:bevel" />
        <path id="port_label_z" d="M4.74844 107.147Q4.74844 107.175 4.72728 107.195Q4.70611 107.214 4.67789 107.214H2.94222Q2.91047 107.214 2.89107 107.191Q2.87167 107.168 2.87167 107.14Q2.87167 107.115 2.88578 107.098L4.55089 104.879H3.01278Q2.98456 104.879 2.96339 104.859Q2.94222 104.84 2.94222 104.812Q2.94222 104.784 2.96339 104.764Q2.98456 104.745 3.01278 104.745H4.67083Q4.71317 104.745 4.73257 104.766Q4.75197 104.787 4.75197 104.815Q4.75197 104.84 4.73786 104.858L3.07628 107.08H4.67789Q4.70611 107.08 4.72728 107.101Q4.74844 107.122 4.74844 107.147Z" style="stroke:#000000;stroke-width:0.25;stroke-linecap:round;stroke-linejoin:bevel" />
        <path id="port_label_p" d="M4.59675 114.419Q4.59675 114.616 4.51385 114.777Q4.43094 114.937 4.27925 115.027Q4.12756 115.117 3.93 115.117H3.16094V116.144Q3.16094 116.172 3.13801 116.193Q3.11508 116.214 3.08686 116.214Q3.05511 116.214 3.03394 116.193Q3.01278 116.172 3.01278 116.144V113.815Q3.01278 113.787 3.03394 113.766Q3.05511 113.745 3.08333 113.745H3.93Q4.22986 113.745 4.41331 113.932Q4.59675 114.119 4.59675 114.419ZM4.44858 114.419Q4.44858 114.175 4.30924 114.031Q4.16989 113.886 3.93 113.886H3.16094V114.976H3.93Q4.16636 114.976 4.30747 114.819Q4.44858 114.662 4.44858 114.419Z" style="stroke:#000000;stroke-width:0.25;stroke-linecap:round;stroke-linejoin:bevel" />
        <path d="M 14.71,117.62 L 10.16,120.25 L 5.61,117.62 L 5.61,112.38 L 10.16,109.75 L 14.71,112.38 z " style="stroke:#000000;fill:#2455a6;stroke-width:0.15;stroke-linecap:round;stroke-linejoin:round;stroke-dasharray:none" />
    </g>
</svg>
