<?xml version="1.0" encoding="utf-8"?>
<svg xmlns="http://www.w3.org/2000/svg" width="20.32mm" height="128.50mm" viewBox="0 0 20.32 128.50">
    <g id="PanelLayer">
        <rect id="border_rect" width="20.32" height="128.5" x="0" y="0" style="display:inline;fill:#4f8df2;fill-opacity:1;fill-rule:nonzero;stroke:#5021d4;stroke-width:0.7;stroke-linecap:round;stroke-linejoin:round;stroke-dasharray:none;stroke-opacity:1;image-rendering:auto" />
        <path id="sapphire_gemstone" d="m 12.875,122.900 q 0,0.34175 -0.242534,0.63114 -0.0441,0.0524 -0.20395,0.21497 -0.187413,0.19017 -0.785481,0.81304 l -1.444183,1.51309 q -0.01929,0.003 -0.0441,0.003 -0.02756,0 -0.04134,-0.003 -0.08268,-0.0827 -0.647678,-0.67524 -0.468532,-0.47404 -0.934309,-0.94809 -0.556727,-0.56775 -0.89848,-0.98116 -0.132292,-0.15985 -0.168121,-0.29766 -0.02756,-0.10197 -0.02756,-0.34175 0,-0.11024 0.07166,-0.28939 0.06614,-0.16536 0.140559,-0.26458 0.118512,-0.1571 0.42168,-0.42444 0.283875,-0.2508 0.474044,-0.37482 0.272852,-0.17915 0.818555,-0.36656 0.09646,-0.0331 0.110243,-0.0331 h 1.3615 q 0.01102,0 0.104731,0.0331 0.567751,0.20119 0.824066,0.36656 0.165365,0.10473 0.474045,0.37758 0.322461,0.28388 0.421679,0.42168 0.214974,0.2949 0.214974,0.62563 z m -0.16812,-0.27285 q -0.03307,-0.10749 -0.135048,-0.30868 -0.07166,-0.0937 -0.209462,-0.19844 -0.118511,-0.0854 -0.234266,-0.17088 0.245291,0.3638 0.578776,0.678 z m -0.573264,-0.52366 -0.358289,-0.44648 v 0.41065 z m 0.636653,0.75792 q 0,-0.0524 -0.341753,-0.39412 l 0.228754,0.7028 h 0.04961 q 0.06339,-0.21773 0.06339,-0.30868 z m -0.23151,0.27285 -0.316948,-0.90399 -0.410655,-0.0634 -0.159853,0.61461 z m 0.0028,0.15434 -0.771701,-0.3197 h -0.03032 l 0.344509,0.60634 q 0.07993,-0.003 0.234266,-0.0469 0.02481,-0.0138 0.223242,-0.23978 z m -0.857139,-1.05006 -0.719335,0.28388 0.60358,0.22599 z m 0,-0.16261 v -0.51538 l -0.917773,-0.38034 h -1.223697 l -0.917772,0.38034 v 0.51538 l 0.89848,0.4079 h 1.254014 z m 0.573264,1.53789 q -0.0689,0.011 -0.198438,0.0524 -0.08544,0.0551 -0.259071,0.16261 0.01929,0 0.06339,0.003 0.04134,0 0.06339,0 0.118511,0 0.190169,-0.0689 0.07166,-0.0717 0.14056,-0.14883 z m -0.289388,0.003 -0.347266,-0.63114 -0.363801,0.87918 q 0.0248,-0.0165 0.06615,-0.0165 0.03032,0 0.08544,0.011 0.05788,0.008 0.08819,0.008 0.04961,0 0.228754,-0.10749 0.228754,-0.1378 0.242535,-0.14331 z m -0.440972,-0.74139 -0.683507,-0.2756 -0.592556,0.54845 0.903993,0.65595 z m -0.854383,-0.28387 h -1.036284 l 0.523654,0.47404 z m 0.749652,1.36701 q -0.228754,-0.0303 -0.228754,-0.0303 -0.03583,0 -0.272851,0.0937 l 0.190169,0.0193 q 0.01102,0 0.311436,-0.0827 z m -0.388606,-0.0882 -0.843359,-0.61185 v 0.67524 l 0.471289,0.0827 z m 0.854383,0.0496 q -0.09922,0.006 -0.2949,0.0386 -0.01102,0.003 -0.377583,0.17639 -0.129535,0.34726 -0.380338,1.0418 z m -2.543857,-1.39733 -0.719335,-0.28388 0.124023,0.51814 z m -0.802018,-0.45476 v -0.41065 l -0.366557,0.44648 z m 1.515841,1.07212 -0.592556,-0.54019 -0.683506,0.2756 0.380338,0.9288 z m 0.369314,0.94257 q -0.03307,-0.003 -0.135047,-0.0248 -0.08544,-0.0165 -0.137804,-0.0165 -0.05237,0 -0.137804,0.0165 -0.101975,0.0221 -0.135047,0.0248 0.264583,0.0469 0.272851,0.0469 0.0083,0 0.272851,-0.0469 z m -0.30868,-0.1378 v -0.68626 l -0.843359,0.61185 0.37207,0.14607 z m 0.950846,0.20671 -0.396875,-0.0551 -0.479557,0.14056 v 1.27607 z m -2.888366,-2.20211 q -0.118512,0.0854 -0.234267,0.17364 -0.146072,0.10748 -0.209461,0.19568 -0.0441,0.10473 -0.135048,0.31419 0.369314,-0.3638 0.578776,-0.68351 z m 0.476801,0.83234 -0.159853,-0.61461 -0.410655,0.0634 -0.316948,0.90399 z m 0.394118,1.08313 -0.363802,-0.87918 -0.355533,0.63114 q 0.43546,0.2508 0.451996,0.2508 0.09095,0 0.267339,-0.003 z m 1.821765,0.82958 q -0.132291,0.21222 -0.405143,0.6339 -0.07717,0.10749 -0.220486,0.32797 -0.05788,0.10473 -0.05512,0.226 0.159852,-0.15158 0.432704,-0.49609 0.07717,-0.12954 0.140559,-0.339 0.05512,-0.17639 0.107486,-0.35278 z m -1.493792,-0.66146 -0.270095,-0.0882 -0.0083,-0.011 q -0.02481,0 -0.107487,0.011 -0.06615,0.006 -0.107487,0.006 0.272851,0.091 0.311436,0.091 0.02481,0 0.181901,-0.008 z m -0.810286,-1.06384 h -0.03032 l -0.7717,0.3197 q 0.06615,0.0965 0.223242,0.23978 0.07717,0.0138 0.234266,0.0469 z m -0.689018,-0.50161 q -0.341754,0.34727 -0.341754,0.39412 0,0.0799 0.06339,0.30868 h 0.04961 z m 2.235176,3.04547 v -1.27607 l -0.479557,-0.14056 -0.396875,0.0551 z m -1.606791,-1.6757 q -0.256315,-0.1819 -0.457509,-0.22324 0.06615,0.0772 0.20395,0.22324 z m 1.609547,2.04501 v -0.1378 l -0.683507,-1.05007 q 0.05237,0.17639 0.107487,0.35278 0.06339,0.20946 0.14056,0.339 0.0689,0.11851 0.20395,0.25907 0.115755,0.11851 0.23151,0.23702 z m -0.644921,-0.70555 q -0.115756,-0.32798 -0.380339,-1.0418 -0.135047,-0.0662 -0.272851,-0.12954 -0.159852,-0.0716 -0.289388,-0.0716 -0.05237,0 -0.110243,-0.0138 z" style="stroke-width:0;fill:#0000ff;stroke:#2e2114;stroke-linecap:square;stroke-opacity:1" />
        <path id="model_name" d="M3.88902 4.47249Q3.88902 4.53458 3.84634 4.57727Q3.80365 4.61995 3.74156 4.61995H2.82575V7.99604Q2.82575 8.05812 2.77918 8.10469Q2.73262 8.15126 2.67053 8.15126Q2.60068 8.15126 2.55799 8.10469Q2.51531 8.05812 2.51531 7.99604V4.61995H1.89442Q1.84009 4.61995 1.79352 4.57339Q1.74696 4.52682 1.74696 4.47249Q1.74696 4.40264 1.78964 4.36384Q1.83233 4.32503 1.89442 4.32503H2.51531V3.37817Q2.51531 2.92027 2.75978 2.68356Q3.00426 2.44684 3.38455 2.44684Q3.57858 2.44684 3.7532 2.49729Q3.92783 2.54774 3.92783 2.66415Q3.92783 2.72624 3.88126 2.77281Q3.83469 2.81937 3.78037 2.81937Q3.71828 2.81937 3.61738 2.78057Q3.43888 2.72624 3.35351 2.72624Q3.11291 2.72624 2.96933 2.88923Q2.82575 3.05221 2.82575 3.37817V4.32503H3.74156Q3.80365 4.32503 3.84634 4.36772Q3.88902 4.4104 3.88902 4.47249ZM6.86153 4.33279Q6.86153 4.40264 6.82272 4.44921Q6.78392 4.49578 6.72183 4.49578Q6.69854 4.49578 6.60929 4.46085Q6.52004 4.42592 6.41914 4.42592Q6.10094 4.42592 5.78273 4.67816Q5.46453 4.9304 5.26274 5.31457Q5.06095 5.69875 5.06095 6.05576V7.99604Q5.06095 8.05812 5.01438 8.10469Q4.96782 8.15126 4.90573 8.15126Q4.83588 8.15126 4.79319 8.10469Q4.75051 8.05812 4.75051 7.99604V4.43369Q4.75051 4.3716 4.79707 4.32503Q4.84364 4.27846 4.90573 4.27846Q4.97558 4.27846 5.01826 4.32503Q5.06095 4.3716 5.06095 4.43369V5.25636Q5.23946 4.78294 5.61587 4.47249Q5.99228 4.16205 6.50452 4.15429Q6.86153 4.15429 6.86153 4.33279ZM9.25195 8.22887Q8.71643 8.22887 8.27793 7.96111Q7.83943 7.69335 7.58719 7.22769Q7.33496 6.76202 7.33496 6.19546Q7.33496 5.62114 7.58719 5.15547Q7.83943 4.6898 8.27405 4.42204Q8.70867 4.15429 9.25195 4.15429Q9.78747 4.15429 10.226 4.42204Q10.6645 4.6898 10.9128 5.15547Q11.1612 5.62114 11.1612 6.19546Q11.1612 6.76978 10.9128 7.23157Q10.6645 7.69335 10.226 7.96111Q9.78747 8.22887 9.25195 8.22887ZM9.25195 4.44921Q8.80181 4.44921 8.43315 4.67816Q8.0645 4.90711 7.85495 5.30293Q7.6454 5.69875 7.6454 6.19546Q7.6454 6.68441 7.85495 7.08022Q8.0645 7.47604 8.43315 7.70499Q8.80181 7.93395 9.25195 7.93395Q9.70986 7.93395 10.0746 7.70887Q10.4394 7.4838 10.6451 7.08411Q10.8507 6.68441 10.8507 6.19546Q10.8507 5.69875 10.6451 5.30293Q10.4394 4.90711 10.0746 4.67816Q9.70986 4.44921 9.25195 4.44921ZM12.3719 8.15126Q12.3021 8.15126 12.2594 8.10469Q12.2167 8.05812 12.2167 7.99604V2.56326Q12.2167 2.50117 12.2633 2.4546Q12.3098 2.40804 12.3719 2.40804Q12.4418 2.40804 12.4845 2.4546Q12.5271 2.50117 12.5271 2.56326V7.99604Q12.5271 8.05812 12.4806 8.10469Q12.434 8.15126 12.3719 8.15126ZM14.0095 8.15126Q13.9397 8.15126 13.897 8.10469Q13.8543 8.05812 13.8543 7.99604V4.30951Q13.8543 4.24742 13.9009 4.20085Q13.9474 4.15429 14.0095 4.15429Q14.0794 4.15429 14.122 4.20085Q14.1647 4.24742 14.1647 4.30951V7.99604Q14.1647 8.05812 14.1182 8.10469Q14.0716 8.15126 14.0095 8.15126ZM13.7379 3.37818V3.31609Q13.7379 3.20743 13.8155 3.13758Q13.8931 3.06773 14.0173 3.06773Q14.1259 3.06773 14.1997 3.13758Q14.2734 3.20743 14.2734 3.31609V3.37818Q14.2734 3.48683 14.1997 3.55668Q14.1259 3.62653 14.0095 3.62653Q13.8853 3.62653 13.8116 3.55668Q13.7379 3.48683 13.7379 3.37818ZM18.4799 4.70533Q18.4799 4.76741 18.4372 4.81398Q18.3945 4.86055 18.3324 4.86055Q18.2626 4.86055 18.2277 4.83726Q18.1928 4.81398 18.1307 4.75189Q18.0298 4.63547 17.9211 4.58115Q17.6417 4.44921 17.1295 4.44921Q16.6871 4.44921 16.3107 4.68204Q15.9343 4.91488 15.7131 5.31457Q15.4919 5.71427 15.4919 6.1877Q15.4919 6.68441 15.6976 7.08411Q15.9032 7.4838 16.2796 7.70887Q16.6561 7.93395 17.1295 7.93395Q17.4399 7.93395 17.6184 7.87962Q17.7969 7.82529 17.9754 7.7244Q18.0996 7.64679 18.1928 7.55365Q18.2316 7.51485 18.2704 7.48768Q18.3092 7.46052 18.348 7.46052Q18.4101 7.46052 18.445 7.49932Q18.4799 7.53813 18.4799 7.60022Q18.4799 7.70887 18.3014 7.86022Q18.1229 8.01156 17.8086 8.12021Q17.4942 8.22887 17.1062 8.22887Q16.5474 8.22887 16.1089 7.96499Q15.6704 7.70111 15.4259 7.23545Q15.1814 6.76978 15.1814 6.1877Q15.1814 5.64442 15.4259 5.17875Q15.6704 4.71309 16.1167 4.43369Q16.5629 4.15429 17.1372 4.15429Q17.471 4.15429 17.7853 4.2319Q18.0996 4.30951 18.2898 4.43757Q18.4799 4.56562 18.4799 4.70533Z" style="display:inline;stroke:#000000;stroke-width:0.35;stroke-linecap:round;stroke-linejoin:bevel" />
        <g id="ControlLayer" style="display:none;">
            <circle id="x_output" cx="10.16" cy="91.5" r="1" />
            <circle id="y_output" cx="10.16" cy="101.5" r="1" />
            <circle id="z_output" cx="10.16" cy="111.5" r="1" />
            <circle id="speed_knob" cx="10.16" cy="27" r="1" />
            <circle id="speed_atten" cx="5.16" cy="38" r="1" />
            <circle id="speed_cv" cx="15.16" cy="38" r="1" />
            <circle id="chaos_knob" cx="10.16" cy="59" r="1" />
            <circle id="chaos_atten" cx="5.16" cy="70" r="1" />
            <circle id="chaos_cv" cx="15.16" cy="70" r="1" />
        </g>
        <path d="M4.80464 18.6791Q4.78347 18.6579 4.78347 18.6262Q4.78347 18.5979 4.80817 18.5715Q4.83286 18.545 4.86108 18.545Q4.89283 18.545 4.92106 18.5768Q5.05864 18.739 5.24737 18.8237Q5.43611 18.9084 5.64425 18.9084Q5.91589 18.9084 6.09228 18.7778Q6.26867 18.6473 6.26867 18.4321Q6.26514 18.2628 6.17694 18.1534Q6.08875 18.0441 5.95999 17.9788Q5.83122 17.9135 5.60897 17.8324Q5.36556 17.7407 5.22974 17.6701Q5.09392 17.5996 4.9969 17.469Q4.89989 17.3385 4.89989 17.1268Q4.89989 16.954 4.99514 16.8129Q5.09039 16.6718 5.26678 16.5906Q5.44317 16.5095 5.676 16.5095Q5.88414 16.5095 6.07111 16.5853Q6.25808 16.6612 6.36744 16.7988Q6.40272 16.8482 6.40272 16.8728Q6.40272 16.9011 6.37626 16.924Q6.34981 16.9469 6.31806 16.9469Q6.28983 16.9469 6.27219 16.9258Q6.17342 16.7988 6.01819 16.7247Q5.86297 16.6506 5.676 16.6506Q5.40789 16.6506 5.22974 16.7776Q5.05158 16.9046 5.05158 17.1233Q5.05158 17.275 5.13801 17.3808Q5.22444 17.4867 5.35497 17.5519Q5.4855 17.6172 5.67953 17.6878Q5.92647 17.776 6.07111 17.85Q6.21575 17.9241 6.31806 18.0652Q6.42036 18.2063 6.42036 18.4392Q6.42036 18.6015 6.32511 18.7426Q6.22986 18.8837 6.05171 18.9666Q5.87356 19.0495 5.64425 19.0495Q5.38319 19.0495 5.18917 18.9595Q4.99514 18.8696 4.80464 18.6791ZM8.53703 17.2186Q8.53703 17.4161 8.45413 17.5766Q8.37122 17.7372 8.21953 17.8271Q8.06783 17.9171 7.87028 17.9171H7.10122V18.9437Q7.10122 18.9719 7.07829 18.993Q7.05536 19.0142 7.02714 19.0142Q6.99539 19.0142 6.97422 18.993Q6.95306 18.9719 6.95306 18.9437V16.6153Q6.95306 16.5871 6.97422 16.5659Q6.99539 16.5448 7.02361 16.5448H7.87028Q8.17014 16.5448 8.35358 16.7317Q8.53703 16.9187 8.53703 17.2186ZM8.38886 17.2186Q8.38886 16.9752 8.24951 16.8305Q8.11017 16.6859 7.87028 16.6859H7.10122V17.776H7.87028Q8.10664 17.776 8.24775 17.619Q8.38886 17.462 8.38886 17.2186ZM10.5196 18.9437Q10.5196 18.9754 10.4985 18.9948Q10.4773 19.0142 10.4491 19.0142H9.11911Q9.09089 19.0142 9.06972 18.993Q9.04856 18.9719 9.04856 18.9437V16.6153Q9.04856 16.5871 9.06972 16.5659Q9.09089 16.5448 9.11911 16.5448H10.4491Q10.4773 16.5448 10.4985 16.5659Q10.5196 16.5871 10.5196 16.6153Q10.5196 16.6471 10.4985 16.6665Q10.4773 16.6859 10.4491 16.6859H9.19672V17.6701H10.2903Q10.3186 17.6701 10.3397 17.6913Q10.3609 17.7125 10.3609 17.7407Q10.3609 17.7724 10.3397 17.7918Q10.3186 17.8112 10.2903 17.8112H9.19672V18.8731H10.4491Q10.4773 18.8731 10.4985 18.8943Q10.5196 18.9154 10.5196 18.9437ZM12.5199 18.9437Q12.5199 18.9754 12.4987 18.9948Q12.4776 19.0142 12.4493 19.0142H11.1194Q11.0911 19.0142 11.07 18.993Q11.0488 18.9719 11.0488 18.9437V16.6153Q11.0488 16.5871 11.07 16.5659Q11.0911 16.5448 11.1194 16.5448H12.4493Q12.4776 16.5448 12.4987 16.5659Q12.5199 16.5871 12.5199 16.6153Q12.5199 16.6471 12.4987 16.6665Q12.4776 16.6859 12.4493 16.6859H11.197V17.6701H12.2906Q12.3188 17.6701 12.34 17.6913Q12.3611 17.7125 12.3611 17.7407Q12.3611 17.7724 12.34 17.7918Q12.3188 17.8112 12.2906 17.8112H11.197V18.8731H12.4493Q12.4776 18.8731 12.4987 18.8943Q12.5199 18.9154 12.5199 18.9437ZM15.0599 17.7795Q15.0599 18.1287 14.9488 18.4074Q14.8376 18.6861 14.6083 18.8502Q14.379 19.0142 14.0368 19.0142H13.1196Q13.0914 19.0142 13.0702 18.993Q13.0491 18.9719 13.0491 18.9437V16.6153Q13.0491 16.5871 13.0702 16.5659Q13.0914 16.5448 13.1196 16.5448H14.0368Q14.3755 16.5448 14.6066 16.7141Q14.8376 16.8834 14.9488 17.1639Q15.0599 17.4443 15.0599 17.7795ZM14.9117 17.7795Q14.9117 17.4796 14.8147 17.2309Q14.7177 16.9822 14.5148 16.834Q14.312 16.6859 14.0016 16.6859H13.1972V18.8731H14.0016Q14.4602 18.8731 14.6859 18.5715Q14.9117 18.2698 14.9117 17.7795Z" style="stroke:#000000;stroke-width:0.25;stroke-linecap:round;stroke-linejoin:bevel" />
        <path d="M6.37192 48.8058Q6.37192 48.834 6.35781 48.8517Q6.33664 48.8799 6.30489 48.8799Q6.29078 48.8799 6.26256 48.8658Q5.93447 48.6435 5.56758 48.6435Q5.27125 48.6435 5.02254 48.7899Q4.77383 48.9363 4.62919 49.1956Q4.48456 49.4549 4.48456 49.7795Q4.48456 50.104 4.62919 50.3633Q4.77383 50.6226 5.02254 50.769Q5.27125 50.9154 5.56758 50.9154Q5.938 50.9154 6.25903 50.6967Q6.27667 50.6826 6.30136 50.6826Q6.33664 50.6826 6.35781 50.7108Q6.37192 50.7285 6.37192 50.7532Q6.37192 50.7884 6.34369 50.8096Q6.20611 50.9084 5.98915 50.9789Q5.77219 51.0495 5.56758 51.0495Q5.23244 51.0495 4.95022 50.8837Q4.668 50.7179 4.50219 50.4268Q4.33639 50.1358 4.33639 49.7795Q4.33639 49.4232 4.50219 49.1321Q4.668 48.8411 4.95022 48.6753Q5.23244 48.5095 5.56758 48.5095Q5.77925 48.5095 5.97857 48.573Q6.17789 48.6365 6.34017 48.7494Q6.37192 48.7741 6.37192 48.8058ZM8.68261 48.6188V50.9401Q8.67908 50.9719 8.65792 50.993Q8.63675 51.0142 8.60853 51.0142Q8.57325 51.0142 8.55385 50.993Q8.53444 50.9719 8.53444 50.9401V49.8148H6.99633V50.9401Q6.99281 50.9719 6.97164 50.993Q6.95047 51.0142 6.92225 51.0142Q6.88697 51.0142 6.86757 50.993Q6.84817 50.9719 6.84817 50.9401V48.6188Q6.84817 48.5871 6.86933 48.5659Q6.8905 48.5448 6.92225 48.5448Q6.954 48.5448 6.97517 48.5659Q6.99633 48.5871 6.99633 48.6188V49.6737H8.53444V48.6188Q8.53444 48.5871 8.55561 48.5659Q8.57678 48.5448 8.60853 48.5448Q8.64028 48.5448 8.66144 48.5659Q8.68261 48.5871 8.68261 48.6188ZM11.2014 50.9472Q11.2014 50.9789 11.1803 50.9966Q11.1591 51.0142 11.1274 51.0142Q11.1027 51.0142 11.0833 51.0019Q11.0639 50.9895 11.0568 50.9683L10.7605 50.2416L10.764 50.2487H9.58219L9.29644 50.9683Q9.27881 51.0142 9.23294 51.0142Q9.20119 51.0142 9.18179 50.9966Q9.16239 50.9789 9.15886 50.9542Q9.15533 50.9401 9.16239 50.919L10.1114 48.5836Q10.1219 48.5553 10.1378 48.5465Q10.1537 48.5377 10.1784 48.5377Q10.2313 48.5377 10.2489 48.5836L11.1979 50.919Q11.2014 50.9295 11.2014 50.9472ZM9.63864 50.1076H10.7076L10.1678 48.7776ZM12.6796 51.0495Q12.3374 51.0495 12.0693 50.889Q11.8012 50.7285 11.6512 50.4392Q11.5013 50.1499 11.5013 49.7795Q11.5013 49.4091 11.6512 49.1198Q11.8012 48.8305 12.0693 48.67Q12.3374 48.5095 12.6796 48.5095Q13.0218 48.5095 13.2899 48.67Q13.558 48.8305 13.7079 49.1198Q13.8579 49.4091 13.8579 49.7795Q13.8579 50.1499 13.7079 50.4392Q13.558 50.7285 13.2899 50.889Q13.0218 51.0495 12.6796 51.0495ZM12.6796 48.6506Q12.3797 48.6506 12.1451 48.7917Q11.9105 48.9328 11.78 49.1903Q11.6495 49.4479 11.6495 49.7795Q11.6495 50.1111 11.78 50.3686Q11.9105 50.6262 12.1451 50.7673Q12.3797 50.9084 12.6796 50.9084Q12.9794 50.9084 13.214 50.7673Q13.4486 50.6262 13.5792 50.3686Q13.7097 50.1111 13.7097 49.7795Q13.7097 49.4479 13.5792 49.1903Q13.4486 48.9328 13.214 48.7917Q12.9794 48.6506 12.6796 48.6506ZM14.1789 50.6791Q14.1577 50.6579 14.1577 50.6262Q14.1577 50.5979 14.1824 50.5715Q14.2071 50.545 14.2353 50.545Q14.2671 50.545 14.2953 50.5768Q14.4329 50.739 14.6216 50.8237Q14.8104 50.9084 15.0185 50.9084Q15.2901 50.9084 15.4665 50.7778Q15.6429 50.6473 15.6429 50.4321Q15.6394 50.2628 15.5512 50.1534Q15.463 50.0441 15.3342 49.9788Q15.2055 49.9135 14.9832 49.8324Q14.7398 49.7407 14.604 49.6701Q14.4682 49.5996 14.3712 49.469Q14.2741 49.3385 14.2741 49.1268Q14.2741 48.954 14.3694 48.8129Q14.4646 48.6718 14.641 48.5906Q14.8174 48.5095 15.0503 48.5095Q15.2584 48.5095 15.4454 48.5853Q15.6323 48.6612 15.7417 48.7988Q15.777 48.8482 15.777 48.8728Q15.777 48.9011 15.7505 48.924Q15.7241 48.9469 15.6923 48.9469Q15.6641 48.9469 15.6464 48.9258Q15.5477 48.7988 15.3924 48.7247Q15.2372 48.6506 15.0503 48.6506Q14.7821 48.6506 14.604 48.7776Q14.4258 48.9046 14.4258 49.1233Q14.4258 49.275 14.5123 49.3808Q14.5987 49.4867 14.7292 49.5519Q14.8598 49.6172 15.0538 49.6878Q15.3007 49.776 15.4454 49.85Q15.59 49.9241 15.6923 50.0652Q15.7946 50.2063 15.7946 50.4392Q15.7946 50.6015 15.6994 50.7426Q15.6041 50.8837 15.426 50.9666Q15.2478 51.0495 15.0185 51.0495Q14.7574 51.0495 14.5634 50.9595Q14.3694 50.8696 14.1789 50.6791Z" style="stroke:#000000;stroke-width:0.25;stroke-linecap:round;stroke-linejoin:bevel" />
        <g id="connector_lines" style="fill:none;stroke:#000000;stroke-width:0.25;stroke-linecap:round;stroke-linejoin:bevel;stroke-dasharray:none">
            <line x1="10.16" y1="27.00" x2="5.16" y2="38.00" />
            <line x1="10.16" y1="27.00" x2="15.16" y2="38.00" />
            <line x1="10.16" y1="59.00" x2="5.16" y2="70.00" />
            <line x1="10.16" y1="59.00" x2="15.16" y2="70.00" />
        </g>
        <path id="out_label" d="M7.61467 84.6495Q7.27247 84.6495 7.00436 84.489Q6.73625 84.3285 6.58632 84.0392Q6.43639 83.7499 6.43639 83.3795Q6.43639 83.0091 6.58632 82.7198Q6.73625 82.4305 7.00436 82.27Q7.27247 82.1095 7.61467 82.1095Q7.95686 82.1095 8.22497 82.27Q8.49308 82.4305 8.64301 82.7198Q8.79294 83.0091 8.79294 83.3795Q8.79294 83.7499 8.64301 84.0392Q8.49308 84.3285 8.22497 84.489Q7.95686 84.6495 7.61467 84.6495ZM7.61467 82.2506Q7.31481 82.2506 7.08021 82.3917Q6.84561 82.5328 6.71508 82.7903Q6.58456 83.0479 6.58456 83.3795Q6.58456 83.7111 6.71508 83.9686Q6.84561 84.2262 7.08021 84.3673Q7.31481 84.5084 7.61467 84.5084Q7.91453 84.5084 8.14912 84.3673Q8.38372 84.2262 8.51425 83.9686Q8.64478 83.7111 8.64478 83.3795Q8.64478 83.0479 8.51425 82.7903Q8.38372 82.5328 8.14912 82.3917Q7.91453 82.2506 7.61467 82.2506ZM11.1389 82.2153V83.7393Q11.1389 83.9863 11.0154 84.1944Q10.892 84.4025 10.6838 84.526Q10.4757 84.6495 10.2323 84.6495Q9.98533 84.6495 9.77719 84.526Q9.56906 84.4025 9.44558 84.1944Q9.32211 83.9863 9.32211 83.7393V82.2153Q9.32211 82.1836 9.34328 82.1642Q9.36444 82.1448 9.39619 82.1448Q9.42794 82.1448 9.44911 82.1659Q9.47028 82.1871 9.47028 82.2153V83.7393Q9.47028 83.9475 9.57258 84.1238Q9.67489 84.3002 9.84951 84.4043Q10.0241 84.5084 10.2323 84.5084Q10.4404 84.5084 10.615 84.4043Q10.7897 84.3002 10.8937 84.1238Q10.9978 83.9475 10.9978 83.7393V82.2153Q10.9978 82.1871 11.0172 82.1659Q11.0366 82.1448 11.0684 82.1448Q11.1001 82.1448 11.1195 82.1659Q11.1389 82.1871 11.1389 82.2153ZM13.4708 82.2118Q13.4708 82.2435 13.4514 82.2612Q13.432 82.2788 13.4002 82.2788H12.6135V84.5437Q12.6135 84.5719 12.5924 84.593Q12.5712 84.6142 12.543 84.6142Q12.5112 84.6142 12.4918 84.593Q12.4724 84.5719 12.4724 84.5437V82.2788H11.6857Q11.6575 82.2788 11.6363 82.2594Q11.6152 82.24 11.6152 82.2118Q11.6152 82.1836 11.6363 82.1642Q11.6575 82.1448 11.6857 82.1448H13.4002Q13.4284 82.1448 13.4496 82.1642Q13.4708 82.1836 13.4708 82.2118Z" style="stroke:#000000;stroke-width:0.25;stroke-linecap:round;stroke-linejoin:bevel" />
        <path id="port_label_x" d="M4.61439 92.6119Q4.63203 92.6366 4.63203 92.6542Q4.63203 92.686 4.61086 92.7054Q4.58969 92.7248 4.55794 92.7248Q4.51914 92.7248 4.5015 92.6966L3.69364 91.5959L2.88931 92.6966Q2.87167 92.7248 2.83639 92.7248Q2.80464 92.7248 2.787 92.7054Q2.76936 92.686 2.76936 92.6648Q2.76936 92.6472 2.787 92.619L3.61603 91.4865L2.77994 90.3471Q2.76583 90.3294 2.76583 90.3047Q2.76583 90.273 2.787 90.2536Q2.80817 90.2342 2.83639 90.2342Q2.87872 90.2342 2.89636 90.2624L3.70422 91.3666L4.50856 90.2589Q4.52972 90.2307 4.56147 90.2307Q4.59322 90.2307 4.61262 90.2465Q4.63203 90.2624 4.63203 90.2871Q4.63203 90.3118 4.61439 90.3365L3.78536 91.4795Z" style="stroke:#000000;stroke-width:0.25;stroke-linecap:round;stroke-linejoin:bevel" />
        <path id="port_label_y" d="M4.50503 100.344 3.70069 101.437V102.644Q3.70069 102.672 3.67953 102.693Q3.65836 102.714 3.62661 102.714Q3.59486 102.714 3.57369 102.693Q3.55253 102.672 3.55253 102.644V101.451L2.74467 100.344Q2.73056 100.326 2.73056 100.298Q2.73056 100.273 2.75349 100.252Q2.77642 100.231 2.80464 100.231Q2.84344 100.231 2.86461 100.262L3.62661 101.303L4.38861 100.262Q4.40978 100.231 4.44858 100.231Q4.48033 100.231 4.49974 100.254Q4.51914 100.277 4.51914 100.298Q4.51914 100.315 4.50503 100.344Z" style="stroke:#000000;stroke-width:0.25;stroke-linecap:round;stroke-linejoin:bevel" />
        <path id="port_label_z" d="M4.74844 112.647Q4.74844 112.675 4.72728 112.695Q4.70611 112.714 4.67789 112.714H2.94222Q2.91047 112.714 2.89107 112.691Q2.87167 112.668 2.87167 112.64Q2.87167 112.615 2.88578 112.598L4.55089 110.379H3.01278Q2.98456 110.379 2.96339 110.359Q2.94222 110.34 2.94222 110.312Q2.94222 110.284 2.96339 110.264Q2.98456 110.245 3.01278 110.245H4.67083Q4.71317 110.245 4.73257 110.266Q4.75197 110.287 4.75197 110.315Q4.75197 110.34 4.73786 110.358L3.07628 112.58H4.67789Q4.70611 112.58 4.72728 112.601Q4.74844 112.622 4.74844 112.647Z" style="stroke:#000000;stroke-width:0.25;stroke-linecap:round;stroke-linejoin:bevel" />
    </g>
</svg>
