<?xml version="1.0" encoding="utf-8"?>
<svg xmlns="http://www.w3.org/2000/svg" width="20.32mm" height="128.50mm" viewBox="0 0 20.32 128.50">
    <g id="PanelLayer">
        <rect id="border_rect" width="20.32" height="128.5" x="0" y="0" style="display:inline;fill:#4f8df2;fill-opacity:1;fill-rule:nonzero;stroke:#5021d4;stroke-width:0.7;stroke-linecap:round;stroke-linejoin:round;stroke-dasharray:none;stroke-opacity:1;image-rendering:auto" />
        <path id="sapphire_gemstone" d="m 12.875,122.900 q 0,0.34175 -0.242534,0.63114 -0.0441,0.0524 -0.20395,0.21497 -0.187413,0.19017 -0.785481,0.81304 l -1.444183,1.51309 q -0.01929,0.003 -0.0441,0.003 -0.02756,0 -0.04134,-0.003 -0.08268,-0.0827 -0.647678,-0.67524 -0.468532,-0.47404 -0.934309,-0.94809 -0.556727,-0.56775 -0.89848,-0.98116 -0.132292,-0.15985 -0.168121,-0.29766 -0.02756,-0.10197 -0.02756,-0.34175 0,-0.11024 0.07166,-0.28939 0.06614,-0.16536 0.140559,-0.26458 0.118512,-0.1571 0.42168,-0.42444 0.283875,-0.2508 0.474044,-0.37482 0.272852,-0.17915 0.818555,-0.36656 0.09646,-0.0331 0.110243,-0.0331 h 1.3615 q 0.01102,0 0.104731,0.0331 0.567751,0.20119 0.824066,0.36656 0.165365,0.10473 0.474045,0.37758 0.322461,0.28388 0.421679,0.42168 0.214974,0.2949 0.214974,0.62563 z m -0.16812,-0.27285 q -0.03307,-0.10749 -0.135048,-0.30868 -0.07166,-0.0937 -0.209462,-0.19844 -0.118511,-0.0854 -0.234266,-0.17088 0.245291,0.3638 0.578776,0.678 z m -0.573264,-0.52366 -0.358289,-0.44648 v 0.41065 z m 0.636653,0.75792 q 0,-0.0524 -0.341753,-0.39412 l 0.228754,0.7028 h 0.04961 q 0.06339,-0.21773 0.06339,-0.30868 z m -0.23151,0.27285 -0.316948,-0.90399 -0.410655,-0.0634 -0.159853,0.61461 z m 0.0028,0.15434 -0.771701,-0.3197 h -0.03032 l 0.344509,0.60634 q 0.07993,-0.003 0.234266,-0.0469 0.02481,-0.0138 0.223242,-0.23978 z m -0.857139,-1.05006 -0.719335,0.28388 0.60358,0.22599 z m 0,-0.16261 v -0.51538 l -0.917773,-0.38034 h -1.223697 l -0.917772,0.38034 v 0.51538 l 0.89848,0.4079 h 1.254014 z m 0.573264,1.53789 q -0.0689,0.011 -0.198438,0.0524 -0.08544,0.0551 -0.259071,0.16261 0.01929,0 0.06339,0.003 0.04134,0 0.06339,0 0.118511,0 0.190169,-0.0689 0.07166,-0.0717 0.14056,-0.14883 z m -0.289388,0.003 -0.347266,-0.63114 -0.363801,0.87918 q 0.0248,-0.0165 0.06615,-0.0165 0.03032,0 0.08544,0.011 0.05788,0.008 0.08819,0.008 0.04961,0 0.228754,-0.10749 0.228754,-0.1378 0.242535,-0.14331 z m -0.440972,-0.74139 -0.683507,-0.2756 -0.592556,0.54845 0.903993,0.65595 z m -0.854383,-0.28387 h -1.036284 l 0.523654,0.47404 z m 0.749652,1.36701 q -0.228754,-0.0303 -0.228754,-0.0303 -0.03583,0 -0.272851,0.0937 l 0.190169,0.0193 q 0.01102,0 0.311436,-0.0827 z m -0.388606,-0.0882 -0.843359,-0.61185 v 0.67524 l 0.471289,0.0827 z m 0.854383,0.0496 q -0.09922,0.006 -0.2949,0.0386 -0.01102,0.003 -0.377583,0.17639 -0.129535,0.34726 -0.380338,1.0418 z m -2.543857,-1.39733 -0.719335,-0.28388 0.124023,0.51814 z m -0.802018,-0.45476 v -0.41065 l -0.366557,0.44648 z m 1.515841,1.07212 -0.592556,-0.54019 -0.683506,0.2756 0.380338,0.9288 z m 0.369314,0.94257 q -0.03307,-0.003 -0.135047,-0.0248 -0.08544,-0.0165 -0.137804,-0.0165 -0.05237,0 -0.137804,0.0165 -0.101975,0.0221 -0.135047,0.0248 0.264583,0.0469 0.272851,0.0469 0.0083,0 0.272851,-0.0469 z m -0.30868,-0.1378 v -0.68626 l -0.843359,0.61185 0.37207,0.14607 z m 0.950846,0.20671 -0.396875,-0.0551 -0.479557,0.14056 v 1.27607 z m -2.888366,-2.20211 q -0.118512,0.0854 -0.234267,0.17364 -0.146072,0.10748 -0.209461,0.19568 -0.0441,0.10473 -0.135048,0.31419 0.369314,-0.3638 0.578776,-0.68351 z m 0.476801,0.83234 -0.159853,-0.61461 -0.410655,0.0634 -0.316948,0.90399 z m 0.394118,1.08313 -0.363802,-0.87918 -0.355533,0.63114 q 0.43546,0.2508 0.451996,0.2508 0.09095,0 0.267339,-0.003 z m 1.821765,0.82958 q -0.132291,0.21222 -0.405143,0.6339 -0.07717,0.10749 -0.220486,0.32797 -0.05788,0.10473 -0.05512,0.226 0.159852,-0.15158 0.432704,-0.49609 0.07717,-0.12954 0.140559,-0.339 0.05512,-0.17639 0.107486,-0.35278 z m -1.493792,-0.66146 -0.270095,-0.0882 -0.0083,-0.011 q -0.02481,0 -0.107487,0.011 -0.06615,0.006 -0.107487,0.006 0.272851,0.091 0.311436,0.091 0.02481,0 0.181901,-0.008 z m -0.810286,-1.06384 h -0.03032 l -0.7717,0.3197 q 0.06615,0.0965 0.223242,0.23978 0.07717,0.0138 0.234266,0.0469 z m -0.689018,-0.50161 q -0.341754,0.34727 -0.341754,0.39412 0,0.0799 0.06339,0.30868 h 0.04961 z m 2.235176,3.04547 v -1.27607 l -0.479557,-0.14056 -0.396875,0.0551 z m -1.606791,-1.6757 q -0.256315,-0.1819 -0.457509,-0.22324 0.06615,0.0772 0.20395,0.22324 z m 1.609547,2.04501 v -0.1378 l -0.683507,-1.05007 q 0.05237,0.17639 0.107487,0.35278 0.06339,0.20946 0.14056,0.339 0.0689,0.11851 0.20395,0.25907 0.115755,0.11851 0.23151,0.23702 z m -0.644921,-0.70555 q -0.115756,-0.32798 -0.380339,-1.0418 -0.135047,-0.0662 -0.272851,-0.12954 -0.159852,-0.0716 -0.289388,-0.0716 -0.05237,0 -0.110243,-0.0138 z" style="stroke-width:0;fill:#0000ff;stroke:#2e2114;stroke-linecap:square;stroke-opacity:1" />
        <path id="model_name" d="M3.88902 4.47249Q3.88902 4.53458 3.84634 4.57727Q3.80365 4.61995 3.74156 4.61995H2.82575V7.99604Q2.82575 8.05812 2.77918 8.10469Q2.73262 8.15126 2.67053 8.15126Q2.60068 8.15126 2.55799 8.10469Q2.51531 8.05812 2.51531 7.99604V4.61995H1.89442Q1.84009 4.61995 1.79352 4.57339Q1.74696 4.52682 1.74696 4.47249Q1.74696 4.40264 1.78964 4.36384Q1.83233 4.32503 1.89442 4.32503H2.51531V3.37817Q2.51531 2.92027 2.75978 2.68356Q3.00426 2.44684 3.38455 2.44684Q3.57858 2.44684 3.7532 2.49729Q3.92783 2.54774 3.92783 2.66415Q3.92783 2.72624 3.88126 2.77281Q3.83469 2.81937 3.78037 2.81937Q3.71828 2.81937 3.61738 2.78057Q3.43888 2.72624 3.35351 2.72624Q3.11291 2.72624 2.96933 2.88923Q2.82575 3.05221 2.82575 3.37817V4.32503H3.74156Q3.80365 4.32503 3.84634 4.36772Q3.88902 4.4104 3.88902 4.47249ZM6.86153 4.33279Q6.86153 4.40264 6.82272 4.44921Q6.78392 4.49578 6.72183 4.49578Q6.69854 4.49578 6.60929 4.46085Q6.52004 4.42592 6.41914 4.42592Q6.10094 4.42592 5.78273 4.67816Q5.46453 4.9304 5.26274 5.31457Q5.06095 5.69875 5.06095 6.05576V7.99604Q5.06095 8.05812 5.01438 8.10469Q4.96782 8.15126 4.90573 8.15126Q4.83588 8.15126 4.79319 8.10469Q4.75051 8.05812 4.75051 7.99604V4.43369Q4.75051 4.3716 4.79707 4.32503Q4.84364 4.27846 4.90573 4.27846Q4.97558 4.27846 5.01826 4.32503Q5.06095 4.3716 5.06095 4.43369V5.25636Q5.23946 4.78294 5.61587 4.47249Q5.99228 4.16205 6.50452 4.15429Q6.86153 4.15429 6.86153 4.33279ZM9.25195 8.22887Q8.71643 8.22887 8.27793 7.96111Q7.83943 7.69335 7.58719 7.22769Q7.33496 6.76202 7.33496 6.19546Q7.33496 5.62114 7.58719 5.15547Q7.83943 4.6898 8.27405 4.42204Q8.70867 4.15429 9.25195 4.15429Q9.78747 4.15429 10.226 4.42204Q10.6645 4.6898 10.9128 5.15547Q11.1612 5.62114 11.1612 6.19546Q11.1612 6.76978 10.9128 7.23157Q10.6645 7.69335 10.226 7.96111Q9.78747 8.22887 9.25195 8.22887ZM9.25195 4.44921Q8.80181 4.44921 8.43315 4.67816Q8.0645 4.90711 7.85495 5.30293Q7.6454 5.69875 7.6454 6.19546Q7.6454 6.68441 7.85495 7.08022Q8.0645 7.47604 8.43315 7.70499Q8.80181 7.93395 9.25195 7.93395Q9.70986 7.93395 10.0746 7.70887Q10.4394 7.4838 10.6451 7.08411Q10.8507 6.68441 10.8507 6.19546Q10.8507 5.69875 10.6451 5.30293Q10.4394 4.90711 10.0746 4.67816Q9.70986 4.44921 9.25195 4.44921ZM12.3719 8.15126Q12.3021 8.15126 12.2594 8.10469Q12.2167 8.05812 12.2167 7.99604V2.56326Q12.2167 2.50117 12.2633 2.4546Q12.3098 2.40804 12.3719 2.40804Q12.4418 2.40804 12.4845 2.4546Q12.5271 2.50117 12.5271 2.56326V7.99604Q12.5271 8.05812 12.4806 8.10469Q12.434 8.15126 12.3719 8.15126ZM14.0095 8.15126Q13.9397 8.15126 13.897 8.10469Q13.8543 8.05812 13.8543 7.99604V4.30951Q13.8543 4.24742 13.9009 4.20085Q13.9474 4.15429 14.0095 4.15429Q14.0794 4.15429 14.122 4.20085Q14.1647 4.24742 14.1647 4.30951V7.99604Q14.1647 8.05812 14.1182 8.10469Q14.0716 8.15126 14.0095 8.15126ZM13.7379 3.37818V3.31609Q13.7379 3.20743 13.8155 3.13758Q13.8931 3.06773 14.0173 3.06773Q14.1259 3.06773 14.1997 3.13758Q14.2734 3.20743 14.2734 3.31609V3.37818Q14.2734 3.48683 14.1997 3.55668Q14.1259 3.62653 14.0095 3.62653Q13.8853 3.62653 13.8116 3.55668Q13.7379 3.48683 13.7379 3.37818ZM18.4799 4.70533Q18.4799 4.76741 18.4372 4.81398Q18.3945 4.86055 18.3324 4.86055Q18.2626 4.86055 18.2277 4.83726Q18.1928 4.81398 18.1307 4.75189Q18.0298 4.63547 17.9211 4.58115Q17.6417 4.44921 17.1295 4.44921Q16.6871 4.44921 16.3107 4.68204Q15.9343 4.91488 15.7131 5.31457Q15.4919 5.71427 15.4919 6.1877Q15.4919 6.68441 15.6976 7.08411Q15.9032 7.4838 16.2796 7.70887Q16.6561 7.93395 17.1295 7.93395Q17.4399 7.93395 17.6184 7.87962Q17.7969 7.82529 17.9754 7.7244Q18.0996 7.64679 18.1928 7.55365Q18.2316 7.51485 18.2704 7.48768Q18.3092 7.46052 18.348 7.46052Q18.4101 7.46052 18.445 7.49932Q18.4799 7.53813 18.4799 7.60022Q18.4799 7.70887 18.3014 7.86022Q18.1229 8.01156 17.8086 8.12021Q17.4942 8.22887 17.1062 8.22887Q16.5474 8.22887 16.1089 7.96499Q15.6704 7.70111 15.4259 7.23545Q15.1814 6.76978 15.1814 6.1877Q15.1814 5.64442 15.4259 5.17875Q15.6704 4.71309 16.1167 4.43369Q16.5629 4.15429 17.1372 4.15429Q17.471 4.15429 17.7853 4.2319Q18.0996 4.30951 18.2898 4.43757Q18.4799 4.56562 18.4799 4.70533Z" style="display:inline;stroke:#000000;stroke-width:0.35;stroke-linecap:round;stroke-linejoin:bevel" />
        <circle id="x_output" cx="10.16" cy="90" r="1" />
        <circle id="y_output" cx="10.16" cy="100" r="1" />
        <circle id="z_output" cx="10.16" cy="110" r="1" />
        <circle id="speed_knob" cx="10.16" cy="30" r="1" />
        <circle id="chaos_knob" cx="10.16" cy="60" r="1" />
    </g>
</svg>
