<?xml version="1.0" encoding="utf-8"?>
<svg xmlns="http://www.w3.org/2000/svg" width="30.48mm" height="128.50mm" viewBox="0 0 30.48 128.50">
    <g id="PanelLayer">
        <rect id="border_rect" width="30.48" height="128.5" x="0" y="0" style="display:inline;fill:#4f8df2;fill-opacity:1;fill-rule:nonzero;stroke:#5021d4;stroke-width:0.7;stroke-linecap:round;stroke-linejoin:round;stroke-dasharray:none;stroke-opacity:1;image-rendering:auto" />
        <path id="model_name" d="M7.47113 4.43369V7.77096Q7.47113 8.36081 7.23053 8.79543Q6.98994 9.23005 6.55532 9.46677Q6.12069 9.70348 5.56189 9.70348Q5.25145 9.70348 4.93324 9.62199Q4.61504 9.5405 4.40937 9.41244Q4.2037 9.28438 4.2037 9.15244Q4.2037 9.09035 4.23863 9.05155Q4.27355 9.01274 4.33564 9.01274Q4.38221 9.01274 4.47534 9.09035Q4.58399 9.19901 4.71593 9.25334Q5.09623 9.40856 5.57742 9.40856Q6.30696 9.40856 6.73382 8.95841Q7.16068 8.50827 7.16068 7.77096V7.23545Q6.95113 7.73216 6.51263 7.98051Q6.07413 8.22887 5.59294 8.22887Q5.06518 8.22887 4.63444 7.96111Q4.2037 7.69335 3.95923 7.22769Q3.71475 6.76202 3.71475 6.1877Q3.71475 5.61337 3.95923 5.14771Q4.2037 4.68204 4.63444 4.41816Q5.06518 4.15429 5.59294 4.15429Q6.11293 4.15429 6.54368 4.42981Q6.97442 4.70533 7.16068 5.09338V4.43369Q7.16068 4.3716 7.20337 4.32503Q7.24606 4.27846 7.31591 4.27846Q7.38576 4.27846 7.42844 4.32503Q7.47113 4.3716 7.47113 4.43369ZM7.19173 6.1877Q7.19173 5.67546 6.98606 5.27965Q6.78039 4.88383 6.4195 4.66652Q6.05861 4.44921 5.60846 4.44921Q5.15832 4.44921 4.79743 4.67428Q4.43653 4.89935 4.23086 5.29517Q4.02519 5.69099 4.02519 6.1877Q4.02519 6.68441 4.23086 7.08022Q4.43653 7.47604 4.79743 7.70499Q5.15832 7.93395 5.60846 7.93395Q6.05861 7.93395 6.4195 7.71276Q6.78039 7.49156 6.98606 7.09575Q7.19173 6.69993 7.19173 6.1877ZM12.089 4.43369V7.99604Q12.089 8.05812 12.0424 8.10469Q11.9959 8.15126 11.9338 8.15126Q11.8639 8.15126 11.8212 8.10469Q11.7785 8.05812 11.7785 7.99604V7.29754Q11.5845 7.69335 11.1809 7.96111Q10.7774 8.22887 10.2884 8.22887Q9.77618 8.22887 9.36484 7.96111Q8.9535 7.69335 8.72067 7.22381Q8.48783 6.75426 8.48783 6.17217Q8.48783 5.59785 8.72455 5.13607Q8.96126 4.67428 9.3726 4.41428Q9.78394 4.15429 10.2884 4.15429Q10.7929 4.15429 11.1965 4.41816Q11.6 4.68204 11.7785 5.12443V4.43369Q11.7785 4.3716 11.8212 4.32503Q11.8639 4.27846 11.9338 4.27846Q12.0036 4.27846 12.0463 4.32503Q12.089 4.3716 12.089 4.43369ZM11.8096 6.17217Q11.8096 5.69875 11.6156 5.30293Q11.4215 4.90711 11.0762 4.67816Q10.7308 4.44921 10.3039 4.44921Q9.87707 4.44921 9.5317 4.6704Q9.18633 4.89159 8.99231 5.28353Q8.79828 5.67546 8.79828 6.17217Q8.79828 6.66889 8.99231 7.07246Q9.18633 7.47604 9.52782 7.70499Q9.86931 7.93395 10.3039 7.93395Q10.7308 7.93395 11.0762 7.70499Q11.4215 7.47604 11.6156 7.07246Q11.8096 6.66889 11.8096 6.17217ZM13.5714 8.15126Q13.5015 8.15126 13.4588 8.10469Q13.4161 8.05812 13.4161 7.99604V2.56326Q13.4161 2.50117 13.4627 2.4546Q13.5093 2.40804 13.5714 2.40804Q13.6412 2.40804 13.6839 2.4546Q13.7266 2.50117 13.7266 2.56326V7.99604Q13.7266 8.05812 13.68 8.10469Q13.6335 8.15126 13.5714 8.15126ZM18.3833 4.43369V7.99604Q18.3833 8.05812 18.3367 8.10469Q18.2901 8.15126 18.228 8.15126Q18.1582 8.15126 18.1155 8.10469Q18.0728 8.05812 18.0728 7.99604V7.29754Q17.8788 7.69335 17.4752 7.96111Q17.0716 8.22887 16.5827 8.22887Q16.0704 8.22887 15.6591 7.96111Q15.2478 7.69335 15.0149 7.22381Q14.7821 6.75426 14.7821 6.17217Q14.7821 5.59785 15.0188 5.13607Q15.2555 4.67428 15.6669 4.41428Q16.0782 4.15429 16.5827 4.15429Q17.0871 4.15429 17.4907 4.41816Q17.8943 4.68204 18.0728 5.12443V4.43369Q18.0728 4.3716 18.1155 4.32503Q18.1582 4.27846 18.228 4.27846Q18.2979 4.27846 18.3406 4.32503Q18.3833 4.3716 18.3833 4.43369ZM18.1039 6.17217Q18.1039 5.69875 17.9098 5.30293Q17.7158 4.90711 17.3704 4.67816Q17.0251 4.44921 16.5982 4.44921Q16.1713 4.44921 15.826 4.6704Q15.4806 4.89159 15.2866 5.28353Q15.0925 5.67546 15.0925 6.17217Q15.0925 6.66889 15.2866 7.07246Q15.4806 7.47604 15.8221 7.70499Q16.1636 7.93395 16.5982 7.93395Q17.0251 7.93395 17.3704 7.70499Q17.7158 7.47604 17.9098 7.07246Q18.1039 6.66889 18.1039 6.17217ZM22.4268 7.93395Q22.4578 7.97275 22.4578 8.02708Q22.4578 8.08917 22.4151 8.13574Q22.3725 8.1823 22.3104 8.1823Q22.2405 8.1823 22.1784 8.11245L20.9056 6.45158L19.625 8.12021Q19.5785 8.1823 19.5008 8.1823Q19.4388 8.1823 19.3961 8.1435Q19.3534 8.10469 19.3534 8.03484Q19.3534 7.98051 19.3844 7.94171L20.7193 6.21098L19.3689 4.44921Q19.3379 4.4104 19.3379 4.35608Q19.3379 4.28622 19.3883 4.23966Q19.4388 4.19309 19.5008 4.19309Q19.5785 4.19309 19.625 4.26294L20.9134 5.9471L22.1784 4.26294Q22.2405 4.19309 22.3104 4.19309Q22.3802 4.19309 22.419 4.2319Q22.4578 4.2707 22.4578 4.32503Q22.4578 4.3716 22.419 4.42592L21.0996 6.19546ZM26.4936 4.30951V7.77096Q26.4936 8.35305 26.2569 8.79155Q26.0202 9.23005 25.605 9.46677Q25.1897 9.70348 24.662 9.70348Q24.3205 9.70348 24.0372 9.62199Q23.7539 9.5405 23.5599 9.40856Q23.4202 9.31542 23.4745 9.19901Q23.5289 9.10587 23.6065 9.10587Q23.6453 9.10587 23.6763 9.12916Q23.8626 9.24557 24.1226 9.33483Q24.3826 9.42408 24.6775 9.42408Q25.1199 9.42408 25.4614 9.21453Q25.8029 9.00498 25.993 8.62857Q26.1832 8.25215 26.1832 7.77096V7.42171Q26.0047 7.77096 25.6127 7.99992Q25.2208 8.22887 24.8017 8.22887Q24.1032 8.22887 23.7617 7.82917Q23.4202 7.42948 23.4202 6.73097V4.30951Q23.4202 4.24742 23.4629 4.20085Q23.5056 4.15429 23.5754 4.15429Q23.6453 4.15429 23.688 4.20085Q23.7307 4.24742 23.7307 4.30951V6.73097Q23.7307 7.93395 24.8017 7.93395Q25.1354 7.93395 25.4575 7.75932Q25.7796 7.5847 25.9814 7.3053Q26.1832 7.0259 26.1832 6.73097V4.30951Q26.1832 4.24742 26.2259 4.20085Q26.2685 4.15429 26.3384 4.15429Q26.4082 4.15429 26.4509 4.20085Q26.4936 4.24742 26.4936 4.30951Z" style="display:inline;stroke:#000000;stroke-width:0.35;stroke-linecap:round;stroke-linejoin:bevel" />
        <path id="sapphire_gemstone" d="m 17.955,122.900 q 0,0.34175 -0.242534,0.63114 -0.0441,0.0524 -0.20395,0.21497 -0.187413,0.19017 -0.785481,0.81304 l -1.444183,1.51309 q -0.01929,0.003 -0.0441,0.003 -0.02756,0 -0.04134,-0.003 -0.08268,-0.0827 -0.647678,-0.67524 -0.468532,-0.47404 -0.934309,-0.94809 -0.556727,-0.56775 -0.89848,-0.98116 -0.132292,-0.15985 -0.168121,-0.29766 -0.02756,-0.10197 -0.02756,-0.34175 0,-0.11024 0.07166,-0.28939 0.06614,-0.16536 0.140559,-0.26458 0.118512,-0.1571 0.42168,-0.42444 0.283875,-0.2508 0.474044,-0.37482 0.272852,-0.17915 0.818555,-0.36656 0.09646,-0.0331 0.110243,-0.0331 h 1.3615 q 0.01102,0 0.104731,0.0331 0.567751,0.20119 0.824066,0.36656 0.165365,0.10473 0.474045,0.37758 0.322461,0.28388 0.421679,0.42168 0.214974,0.2949 0.214974,0.62563 z m -0.16812,-0.27285 q -0.03307,-0.10749 -0.135048,-0.30868 -0.07166,-0.0937 -0.209462,-0.19844 -0.118511,-0.0854 -0.234266,-0.17088 0.245291,0.3638 0.578776,0.678 z m -0.573264,-0.52366 -0.358289,-0.44648 v 0.41065 z m 0.636653,0.75792 q 0,-0.0524 -0.341753,-0.39412 l 0.228754,0.7028 h 0.04961 q 0.06339,-0.21773 0.06339,-0.30868 z m -0.23151,0.27285 -0.316948,-0.90399 -0.410655,-0.0634 -0.159853,0.61461 z m 0.0028,0.15434 -0.771701,-0.3197 h -0.03032 l 0.344509,0.60634 q 0.07993,-0.003 0.234266,-0.0469 0.02481,-0.0138 0.223242,-0.23978 z m -0.857139,-1.05006 -0.719335,0.28388 0.60358,0.22599 z m 0,-0.16261 v -0.51538 l -0.917773,-0.38034 h -1.223697 l -0.917772,0.38034 v 0.51538 l 0.89848,0.4079 h 1.254014 z m 0.573264,1.53789 q -0.0689,0.011 -0.198438,0.0524 -0.08544,0.0551 -0.259071,0.16261 0.01929,0 0.06339,0.003 0.04134,0 0.06339,0 0.118511,0 0.190169,-0.0689 0.07166,-0.0717 0.14056,-0.14883 z m -0.289388,0.003 -0.347266,-0.63114 -0.363801,0.87918 q 0.0248,-0.0165 0.06615,-0.0165 0.03032,0 0.08544,0.011 0.05788,0.008 0.08819,0.008 0.04961,0 0.228754,-0.10749 0.228754,-0.1378 0.242535,-0.14331 z m -0.440972,-0.74139 -0.683507,-0.2756 -0.592556,0.54845 0.903993,0.65595 z m -0.854383,-0.28387 h -1.036284 l 0.523654,0.47404 z m 0.749652,1.36701 q -0.228754,-0.0303 -0.228754,-0.0303 -0.03583,0 -0.272851,0.0937 l 0.190169,0.0193 q 0.01102,0 0.311436,-0.0827 z m -0.388606,-0.0882 -0.843359,-0.61185 v 0.67524 l 0.471289,0.0827 z m 0.854383,0.0496 q -0.09922,0.006 -0.2949,0.0386 -0.01102,0.003 -0.377583,0.17639 -0.129535,0.34726 -0.380338,1.0418 z m -2.543857,-1.39733 -0.719335,-0.28388 0.124023,0.51814 z m -0.802018,-0.45476 v -0.41065 l -0.366557,0.44648 z m 1.515841,1.07212 -0.592556,-0.54019 -0.683506,0.2756 0.380338,0.9288 z m 0.369314,0.94257 q -0.03307,-0.003 -0.135047,-0.0248 -0.08544,-0.0165 -0.137804,-0.0165 -0.05237,0 -0.137804,0.0165 -0.101975,0.0221 -0.135047,0.0248 0.264583,0.0469 0.272851,0.0469 0.0083,0 0.272851,-0.0469 z m -0.30868,-0.1378 v -0.68626 l -0.843359,0.61185 0.37207,0.14607 z m 0.950846,0.20671 -0.396875,-0.0551 -0.479557,0.14056 v 1.27607 z m -2.888366,-2.20211 q -0.118512,0.0854 -0.234267,0.17364 -0.146072,0.10748 -0.209461,0.19568 -0.0441,0.10473 -0.135048,0.31419 0.369314,-0.3638 0.578776,-0.68351 z m 0.476801,0.83234 -0.159853,-0.61461 -0.410655,0.0634 -0.316948,0.90399 z m 0.394118,1.08313 -0.363802,-0.87918 -0.355533,0.63114 q 0.43546,0.2508 0.451996,0.2508 0.09095,0 0.267339,-0.003 z m 1.821765,0.82958 q -0.132291,0.21222 -0.405143,0.6339 -0.07717,0.10749 -0.220486,0.32797 -0.05788,0.10473 -0.05512,0.226 0.159852,-0.15158 0.432704,-0.49609 0.07717,-0.12954 0.140559,-0.339 0.05512,-0.17639 0.107486,-0.35278 z m -1.493792,-0.66146 -0.270095,-0.0882 -0.0083,-0.011 q -0.02481,0 -0.107487,0.011 -0.06615,0.006 -0.107487,0.006 0.272851,0.091 0.311436,0.091 0.02481,0 0.181901,-0.008 z m -0.810286,-1.06384 h -0.03032 l -0.7717,0.3197 q 0.06615,0.0965 0.223242,0.23978 0.07717,0.0138 0.234266,0.0469 z m -0.689018,-0.50161 q -0.341754,0.34727 -0.341754,0.39412 0,0.0799 0.06339,0.30868 h 0.04961 z m 2.235176,3.04547 v -1.27607 l -0.479557,-0.14056 -0.396875,0.0551 z m -1.606791,-1.6757 q -0.256315,-0.1819 -0.457509,-0.22324 0.06615,0.0772 0.20395,0.22324 z m 1.609547,2.04501 v -0.1378 l -0.683507,-1.05007 q 0.05237,0.17639 0.107487,0.35278 0.06339,0.20946 0.14056,0.339 0.0689,0.11851 0.20395,0.25907 0.115755,0.11851 0.23151,0.23702 z m -0.644921,-0.70555 q -0.115756,-0.32798 -0.380339,-1.0418 -0.135047,-0.0662 -0.272851,-0.12954 -0.159852,-0.0716 -0.289388,-0.0716 -0.05237,0 -0.110243,-0.0138 z" style="stroke-width:0;fill:#0000ff;stroke:#2e2114;stroke-linecap:square;stroke-opacity:1" />
        <g id="ControlLayer" style="display:none;" />
    </g>
</svg>
