<?xml version="1.0" encoding="utf-8"?>
<svg xmlns="http://www.w3.org/2000/svg" width="30.48mm" height="128.50mm" viewBox="0 0 30.48 128.50">
    <g id="PanelLayer">
        <defs>
            <linearGradient id="gradient_in" x1="0" y1="12.5" x2="0" y2="28" gradientUnits="userSpaceOnUse">
                <stop style="stop-color:#a06de4;stop-opacity:1;" offset="0" />
                <stop style="stop-color:#4f8df2;stop-opacity:1;" offset="1" />
            </linearGradient>
            <linearGradient id="gradient_controls" x1="0" y1="27.8333" x2="0" y2="104.667" gradientUnits="userSpaceOnUse">
                <stop style="stop-color:#3068ff;stop-opacity:1;" offset="0" />
                <stop style="stop-color:#4f8df2;stop-opacity:1;" offset="1" />
            </linearGradient>
            <linearGradient id="gradient_out" x1="0" y1="104.5" x2="0" y2="120" gradientUnits="userSpaceOnUse">
                <stop style="stop-color:#ba60d1;stop-opacity:1;" offset="0" />
                <stop style="stop-color:#4f8df2;stop-opacity:1;" offset="1" />
            </linearGradient>
        </defs>
        <rect id="border_rect" width="30.48" height="128.5" x="0" y="0" style="display:inline;fill:#4f8df2;fill-opacity:1;fill-rule:nonzero;stroke:#5021d4;stroke-width:0.7;stroke-linecap:round;stroke-linejoin:round;stroke-dasharray:none;stroke-opacity:1;image-rendering:auto" />
        <path id="model_name" d="M7.47113 4.43369V7.77096Q7.47113 8.36081 7.23053 8.79543Q6.98994 9.23005 6.55532 9.46677Q6.12069 9.70348 5.56189 9.70348Q5.25145 9.70348 4.93324 9.62199Q4.61504 9.5405 4.40937 9.41244Q4.2037 9.28438 4.2037 9.15244Q4.2037 9.09035 4.23863 9.05155Q4.27355 9.01274 4.33564 9.01274Q4.38221 9.01274 4.47534 9.09035Q4.58399 9.19901 4.71593 9.25334Q5.09623 9.40856 5.57742 9.40856Q6.30696 9.40856 6.73382 8.95841Q7.16068 8.50827 7.16068 7.77096V7.23545Q6.95113 7.73216 6.51263 7.98051Q6.07413 8.22887 5.59294 8.22887Q5.06518 8.22887 4.63444 7.96111Q4.2037 7.69335 3.95923 7.22769Q3.71475 6.76202 3.71475 6.1877Q3.71475 5.61337 3.95923 5.14771Q4.2037 4.68204 4.63444 4.41816Q5.06518 4.15429 5.59294 4.15429Q6.11293 4.15429 6.54368 4.42981Q6.97442 4.70533 7.16068 5.09338V4.43369Q7.16068 4.3716 7.20337 4.32503Q7.24606 4.27846 7.31591 4.27846Q7.38576 4.27846 7.42844 4.32503Q7.47113 4.3716 7.47113 4.43369ZM7.19173 6.1877Q7.19173 5.67546 6.98606 5.27965Q6.78039 4.88383 6.4195 4.66652Q6.05861 4.44921 5.60846 4.44921Q5.15832 4.44921 4.79743 4.67428Q4.43653 4.89935 4.23086 5.29517Q4.02519 5.69099 4.02519 6.1877Q4.02519 6.68441 4.23086 7.08022Q4.43653 7.47604 4.79743 7.70499Q5.15832 7.93395 5.60846 7.93395Q6.05861 7.93395 6.4195 7.71276Q6.78039 7.49156 6.98606 7.09575Q7.19173 6.69993 7.19173 6.1877ZM12.089 4.43369V7.99604Q12.089 8.05812 12.0424 8.10469Q11.9959 8.15126 11.9338 8.15126Q11.8639 8.15126 11.8212 8.10469Q11.7785 8.05812 11.7785 7.99604V7.29754Q11.5845 7.69335 11.1809 7.96111Q10.7774 8.22887 10.2884 8.22887Q9.77618 8.22887 9.36484 7.96111Q8.9535 7.69335 8.72067 7.22381Q8.48783 6.75426 8.48783 6.17217Q8.48783 5.59785 8.72455 5.13607Q8.96126 4.67428 9.3726 4.41428Q9.78394 4.15429 10.2884 4.15429Q10.7929 4.15429 11.1965 4.41816Q11.6 4.68204 11.7785 5.12443V4.43369Q11.7785 4.3716 11.8212 4.32503Q11.8639 4.27846 11.9338 4.27846Q12.0036 4.27846 12.0463 4.32503Q12.089 4.3716 12.089 4.43369ZM11.8096 6.17217Q11.8096 5.69875 11.6156 5.30293Q11.4215 4.90711 11.0762 4.67816Q10.7308 4.44921 10.3039 4.44921Q9.87707 4.44921 9.5317 4.6704Q9.18633 4.89159 8.99231 5.28353Q8.79828 5.67546 8.79828 6.17217Q8.79828 6.66889 8.99231 7.07246Q9.18633 7.47604 9.52782 7.70499Q9.86931 7.93395 10.3039 7.93395Q10.7308 7.93395 11.0762 7.70499Q11.4215 7.47604 11.6156 7.07246Q11.8096 6.66889 11.8096 6.17217ZM13.5714 8.15126Q13.5015 8.15126 13.4588 8.10469Q13.4161 8.05812 13.4161 7.99604V2.56326Q13.4161 2.50117 13.4627 2.4546Q13.5093 2.40804 13.5714 2.40804Q13.6412 2.40804 13.6839 2.4546Q13.7266 2.50117 13.7266 2.56326V7.99604Q13.7266 8.05812 13.68 8.10469Q13.6335 8.15126 13.5714 8.15126ZM18.3833 4.43369V7.99604Q18.3833 8.05812 18.3367 8.10469Q18.2901 8.15126 18.228 8.15126Q18.1582 8.15126 18.1155 8.10469Q18.0728 8.05812 18.0728 7.99604V7.29754Q17.8788 7.69335 17.4752 7.96111Q17.0716 8.22887 16.5827 8.22887Q16.0704 8.22887 15.6591 7.96111Q15.2478 7.69335 15.0149 7.22381Q14.7821 6.75426 14.7821 6.17217Q14.7821 5.59785 15.0188 5.13607Q15.2555 4.67428 15.6669 4.41428Q16.0782 4.15429 16.5827 4.15429Q17.0871 4.15429 17.4907 4.41816Q17.8943 4.68204 18.0728 5.12443V4.43369Q18.0728 4.3716 18.1155 4.32503Q18.1582 4.27846 18.228 4.27846Q18.2979 4.27846 18.3406 4.32503Q18.3833 4.3716 18.3833 4.43369ZM18.1039 6.17217Q18.1039 5.69875 17.9098 5.30293Q17.7158 4.90711 17.3704 4.67816Q17.0251 4.44921 16.5982 4.44921Q16.1713 4.44921 15.826 4.6704Q15.4806 4.89159 15.2866 5.28353Q15.0925 5.67546 15.0925 6.17217Q15.0925 6.66889 15.2866 7.07246Q15.4806 7.47604 15.8221 7.70499Q16.1636 7.93395 16.5982 7.93395Q17.0251 7.93395 17.3704 7.70499Q17.7158 7.47604 17.9098 7.07246Q18.1039 6.66889 18.1039 6.17217ZM22.4268 7.93395Q22.4578 7.97275 22.4578 8.02708Q22.4578 8.08917 22.4151 8.13574Q22.3725 8.1823 22.3104 8.1823Q22.2405 8.1823 22.1784 8.11245L20.9056 6.45158L19.625 8.12021Q19.5785 8.1823 19.5008 8.1823Q19.4388 8.1823 19.3961 8.1435Q19.3534 8.10469 19.3534 8.03484Q19.3534 7.98051 19.3844 7.94171L20.7193 6.21098L19.3689 4.44921Q19.3379 4.4104 19.3379 4.35608Q19.3379 4.28622 19.3883 4.23966Q19.4388 4.19309 19.5008 4.19309Q19.5785 4.19309 19.625 4.26294L20.9134 5.9471L22.1784 4.26294Q22.2405 4.19309 22.3104 4.19309Q22.3802 4.19309 22.419 4.2319Q22.4578 4.2707 22.4578 4.32503Q22.4578 4.3716 22.419 4.42592L21.0996 6.19546ZM26.4936 4.30951V7.77096Q26.4936 8.35305 26.2569 8.79155Q26.0202 9.23005 25.605 9.46677Q25.1897 9.70348 24.662 9.70348Q24.3205 9.70348 24.0372 9.62199Q23.7539 9.5405 23.5599 9.40856Q23.4202 9.31542 23.4745 9.19901Q23.5289 9.10587 23.6065 9.10587Q23.6453 9.10587 23.6763 9.12916Q23.8626 9.24557 24.1226 9.33483Q24.3826 9.42408 24.6775 9.42408Q25.1199 9.42408 25.4614 9.21453Q25.8029 9.00498 25.993 8.62857Q26.1832 8.25215 26.1832 7.77096V7.42171Q26.0047 7.77096 25.6127 7.99992Q25.2208 8.22887 24.8017 8.22887Q24.1032 8.22887 23.7617 7.82917Q23.4202 7.42948 23.4202 6.73097V4.30951Q23.4202 4.24742 23.4629 4.20085Q23.5056 4.15429 23.5754 4.15429Q23.6453 4.15429 23.688 4.20085Q23.7307 4.24742 23.7307 4.30951V6.73097Q23.7307 7.93395 24.8017 7.93395Q25.1354 7.93395 25.4575 7.75932Q25.7796 7.5847 25.9814 7.3053Q26.1832 7.0259 26.1832 6.73097V4.30951Q26.1832 4.24742 26.2259 4.20085Q26.2685 4.15429 26.3384 4.15429Q26.4082 4.15429 26.4509 4.20085Q26.4936 4.24742 26.4936 4.30951Z" style="display:inline;stroke:#000000;stroke-width:0.35;stroke-linecap:round;stroke-linejoin:bevel" />
        <path id="sapphire_gemstone" d="m 17.955,122.900 q 0,0.34175 -0.242534,0.63114 -0.0441,0.0524 -0.20395,0.21497 -0.187413,0.19017 -0.785481,0.81304 l -1.444183,1.51309 q -0.01929,0.003 -0.0441,0.003 -0.02756,0 -0.04134,-0.003 -0.08268,-0.0827 -0.647678,-0.67524 -0.468532,-0.47404 -0.934309,-0.94809 -0.556727,-0.56775 -0.89848,-0.98116 -0.132292,-0.15985 -0.168121,-0.29766 -0.02756,-0.10197 -0.02756,-0.34175 0,-0.11024 0.07166,-0.28939 0.06614,-0.16536 0.140559,-0.26458 0.118512,-0.1571 0.42168,-0.42444 0.283875,-0.2508 0.474044,-0.37482 0.272852,-0.17915 0.818555,-0.36656 0.09646,-0.0331 0.110243,-0.0331 h 1.3615 q 0.01102,0 0.104731,0.0331 0.567751,0.20119 0.824066,0.36656 0.165365,0.10473 0.474045,0.37758 0.322461,0.28388 0.421679,0.42168 0.214974,0.2949 0.214974,0.62563 z m -0.16812,-0.27285 q -0.03307,-0.10749 -0.135048,-0.30868 -0.07166,-0.0937 -0.209462,-0.19844 -0.118511,-0.0854 -0.234266,-0.17088 0.245291,0.3638 0.578776,0.678 z m -0.573264,-0.52366 -0.358289,-0.44648 v 0.41065 z m 0.636653,0.75792 q 0,-0.0524 -0.341753,-0.39412 l 0.228754,0.7028 h 0.04961 q 0.06339,-0.21773 0.06339,-0.30868 z m -0.23151,0.27285 -0.316948,-0.90399 -0.410655,-0.0634 -0.159853,0.61461 z m 0.0028,0.15434 -0.771701,-0.3197 h -0.03032 l 0.344509,0.60634 q 0.07993,-0.003 0.234266,-0.0469 0.02481,-0.0138 0.223242,-0.23978 z m -0.857139,-1.05006 -0.719335,0.28388 0.60358,0.22599 z m 0,-0.16261 v -0.51538 l -0.917773,-0.38034 h -1.223697 l -0.917772,0.38034 v 0.51538 l 0.89848,0.4079 h 1.254014 z m 0.573264,1.53789 q -0.0689,0.011 -0.198438,0.0524 -0.08544,0.0551 -0.259071,0.16261 0.01929,0 0.06339,0.003 0.04134,0 0.06339,0 0.118511,0 0.190169,-0.0689 0.07166,-0.0717 0.14056,-0.14883 z m -0.289388,0.003 -0.347266,-0.63114 -0.363801,0.87918 q 0.0248,-0.0165 0.06615,-0.0165 0.03032,0 0.08544,0.011 0.05788,0.008 0.08819,0.008 0.04961,0 0.228754,-0.10749 0.228754,-0.1378 0.242535,-0.14331 z m -0.440972,-0.74139 -0.683507,-0.2756 -0.592556,0.54845 0.903993,0.65595 z m -0.854383,-0.28387 h -1.036284 l 0.523654,0.47404 z m 0.749652,1.36701 q -0.228754,-0.0303 -0.228754,-0.0303 -0.03583,0 -0.272851,0.0937 l 0.190169,0.0193 q 0.01102,0 0.311436,-0.0827 z m -0.388606,-0.0882 -0.843359,-0.61185 v 0.67524 l 0.471289,0.0827 z m 0.854383,0.0496 q -0.09922,0.006 -0.2949,0.0386 -0.01102,0.003 -0.377583,0.17639 -0.129535,0.34726 -0.380338,1.0418 z m -2.543857,-1.39733 -0.719335,-0.28388 0.124023,0.51814 z m -0.802018,-0.45476 v -0.41065 l -0.366557,0.44648 z m 1.515841,1.07212 -0.592556,-0.54019 -0.683506,0.2756 0.380338,0.9288 z m 0.369314,0.94257 q -0.03307,-0.003 -0.135047,-0.0248 -0.08544,-0.0165 -0.137804,-0.0165 -0.05237,0 -0.137804,0.0165 -0.101975,0.0221 -0.135047,0.0248 0.264583,0.0469 0.272851,0.0469 0.0083,0 0.272851,-0.0469 z m -0.30868,-0.1378 v -0.68626 l -0.843359,0.61185 0.37207,0.14607 z m 0.950846,0.20671 -0.396875,-0.0551 -0.479557,0.14056 v 1.27607 z m -2.888366,-2.20211 q -0.118512,0.0854 -0.234267,0.17364 -0.146072,0.10748 -0.209461,0.19568 -0.0441,0.10473 -0.135048,0.31419 0.369314,-0.3638 0.578776,-0.68351 z m 0.476801,0.83234 -0.159853,-0.61461 -0.410655,0.0634 -0.316948,0.90399 z m 0.394118,1.08313 -0.363802,-0.87918 -0.355533,0.63114 q 0.43546,0.2508 0.451996,0.2508 0.09095,0 0.267339,-0.003 z m 1.821765,0.82958 q -0.132291,0.21222 -0.405143,0.6339 -0.07717,0.10749 -0.220486,0.32797 -0.05788,0.10473 -0.05512,0.226 0.159852,-0.15158 0.432704,-0.49609 0.07717,-0.12954 0.140559,-0.339 0.05512,-0.17639 0.107486,-0.35278 z m -1.493792,-0.66146 -0.270095,-0.0882 -0.0083,-0.011 q -0.02481,0 -0.107487,0.011 -0.06615,0.006 -0.107487,0.006 0.272851,0.091 0.311436,0.091 0.02481,0 0.181901,-0.008 z m -0.810286,-1.06384 h -0.03032 l -0.7717,0.3197 q 0.06615,0.0965 0.223242,0.23978 0.07717,0.0138 0.234266,0.0469 z m -0.689018,-0.50161 q -0.341754,0.34727 -0.341754,0.39412 0,0.0799 0.06339,0.30868 h 0.04961 z m 2.235176,3.04547 v -1.27607 l -0.479557,-0.14056 -0.396875,0.0551 z m -1.606791,-1.6757 q -0.256315,-0.1819 -0.457509,-0.22324 0.06615,0.0772 0.20395,0.22324 z m 1.609547,2.04501 v -0.1378 l -0.683507,-1.05007 q 0.05237,0.17639 0.107487,0.35278 0.06339,0.20946 0.14056,0.339 0.0689,0.11851 0.20395,0.25907 0.115755,0.11851 0.23151,0.23702 z m -0.644921,-0.70555 q -0.115756,-0.32798 -0.380339,-1.0418 -0.135047,-0.0662 -0.272851,-0.12954 -0.159852,-0.0716 -0.289388,-0.0716 -0.05237,0 -0.110243,-0.0138 z" style="stroke-width:0;fill:#0000ff;stroke:#2e2114;stroke-linecap:square;stroke-opacity:1" />
        <path id="in_art" d="M 0.38,28.00 L 0.38,16.50 A 4 4 0 0 1 4.38 12.5 L 26.10,12.50 A 4 4 0 0 1 30.1 16.5 L 30.10,12.50 L 30.10,28.00 z" style="fill:url(#gradient_in);fill-opacity:1;stroke-width:0;" />
        <path id="controls_art" d="M 0.38,104.67 L 0.38,31.83 A 4 4 0 0 1 4.38 27.8333 L 26.10,27.83 A 4 4 0 0 1 30.1 31.8333 L 30.10,27.83 L 30.10,104.67 z" style="fill:url(#gradient_controls);fill-opacity:1;stroke-width:0;" />
        <path id="out_art" d="M 0.38,120.00 L 0.38,108.50 A 4 4 0 0 1 4.38 104.5 L 26.10,104.50 A 4 4 0 0 1 30.1 108.5 L 30.10,104.50 L 30.10,120.00 z" style="fill:url(#gradient_out);fill-opacity:1;stroke-width:0;" />
        <path d="M13.9612 16.7488Q13.9259 16.7488 13.9065 16.7277Q13.8871 16.7065 13.8871 16.6747V14.3535Q13.8871 14.3217 13.9083 14.3006Q13.9294 14.2794 13.9612 14.2794Q13.9929 14.2794 14.0141 14.3006Q14.0353 14.3217 14.0353 14.3535V16.6747Q14.0317 16.7065 14.0106 16.7277Q13.9894 16.7488 13.9612 16.7488ZM16.5929 14.3464V16.6712Q16.5929 16.71 16.5717 16.7294Q16.5506 16.7488 16.5188 16.7488Q16.4835 16.7488 16.4624 16.7206L14.8749 14.551V16.6889Q14.8749 16.7136 14.8555 16.7312Q14.8361 16.7488 14.8078 16.7488Q14.7761 16.7488 14.7585 16.7312Q14.7408 16.7136 14.7408 16.6889V14.3499Q14.7408 14.3147 14.7602 14.297Q14.7796 14.2794 14.8043 14.2794Q14.8361 14.2794 14.8572 14.3041L16.4588 16.4878V14.3464Q16.4588 14.3182 16.4782 14.2988Q16.4977 14.2794 16.5259 14.2794Q16.5576 14.2794 16.5753 14.2988Q16.5929 14.3182 16.5929 14.3464Z" style="stroke:#000000;stroke-width:0.25;stroke-linecap:round;stroke-linejoin:bevel" />
        <path d="M12.9275 108.784Q12.5853 108.784 12.3172 108.624Q12.0491 108.463 11.8992 108.174Q11.7493 107.885 11.7493 107.514Q11.7493 107.144 11.8992 106.854Q12.0491 106.565 12.3172 106.405Q12.5853 106.244 12.9275 106.244Q13.2697 106.244 13.5378 106.405Q13.806 106.565 13.9559 106.854Q14.1058 107.144 14.1058 107.514Q14.1058 107.885 13.9559 108.174Q13.806 108.463 13.5378 108.624Q13.2697 108.784 12.9275 108.784ZM12.9275 106.385Q12.6277 106.385 12.3931 106.526Q12.1585 106.667 12.028 106.925Q11.8974 107.183 11.8974 107.514Q11.8974 107.846 12.028 108.103Q12.1585 108.361 12.3931 108.502Q12.6277 108.643 12.9275 108.643Q13.2274 108.643 13.462 108.502Q13.6966 108.361 13.8271 108.103Q13.9577 107.846 13.9577 107.514Q13.9577 107.183 13.8271 106.925Q13.6966 106.667 13.462 106.526Q13.2274 106.385 12.9275 106.385ZM16.4518 106.35V107.874Q16.4518 108.121 16.3283 108.329Q16.2048 108.537 15.9967 108.661Q15.7886 108.784 15.5452 108.784Q15.2982 108.784 15.0901 108.661Q14.8819 108.537 14.7585 108.329Q14.635 108.121 14.635 107.874V106.35Q14.635 106.318 14.6562 106.299Q14.6773 106.279 14.7091 106.279Q14.7408 106.279 14.762 106.301Q14.7832 106.322 14.7832 106.35V107.874Q14.7832 108.082 14.8855 108.258Q14.9878 108.435 15.1624 108.539Q15.337 108.643 15.5452 108.643Q15.7533 108.643 15.9279 108.539Q16.1025 108.435 16.2066 108.258Q16.3107 108.082 16.3107 107.874V106.35Q16.3107 106.322 16.3301 106.301Q16.3495 106.279 16.3812 106.279Q16.413 106.279 16.4324 106.301Q16.4518 106.322 16.4518 106.35ZM18.7837 106.346Q18.7837 106.378 18.7642 106.396Q18.7448 106.413 18.7131 106.413H17.9264V108.678Q17.9264 108.707 17.9052 108.728Q17.8841 108.749 17.8558 108.749Q17.8241 108.749 17.8047 108.728Q17.7853 108.707 17.7853 108.678V106.413H16.9986Q16.9704 106.413 16.9492 106.394Q16.928 106.375 16.928 106.346Q16.928 106.318 16.9492 106.299Q16.9704 106.279 16.9986 106.279H18.7131Q18.7413 106.279 18.7625 106.299Q18.7837 106.318 18.7837 106.346Z" style="stroke:#000000;stroke-width:0.25;stroke-linecap:round;stroke-linejoin:bevel" />
        <path d="M 9.24,22.00 L 21.24,22.00 z " style="stroke:#000000;stroke-width:0.25;stroke-linecap:round;stroke-linejoin:bevel;stroke-dasharray:none" />
        <path d="M 9.24,114.00 L 21.24,114.00 z " style="stroke:#000000;stroke-width:0.25;stroke-linecap:round;stroke-linejoin:bevel;stroke-dasharray:none" />
        <path d="M9.93599 32.0081Q9.93599 32.0398 9.91658 32.0592Q9.89718 32.0786 9.86896 32.0786Q9.84779 32.0786 9.83721 32.0716Q9.74196 32.0187 9.68551 31.8934Q9.62907 31.7682 9.62907 31.4824Q9.62907 31.1932 9.47385 31.0856Q9.31863 30.978 9.11401 30.978H8.28851V32.0116Q8.28851 32.0398 8.26735 32.061Q8.24618 32.0822 8.21443 32.0822Q8.18268 32.0822 8.16151 32.061Q8.14035 32.0398 8.14035 32.0116V29.6833Q8.14035 29.6551 8.16151 29.6339Q8.18268 29.6127 8.2109 29.6127H9.14224Q9.34685 29.6127 9.5056 29.6956Q9.66435 29.7785 9.75254 29.9232Q9.84074 30.0678 9.84074 30.2512Q9.84074 30.4876 9.7155 30.6569Q9.59026 30.8263 9.38918 30.8863Q9.55851 30.9392 9.66788 31.0962Q9.77724 31.2531 9.77724 31.4824Q9.77724 31.7188 9.80722 31.8123Q9.83721 31.9058 9.89718 31.9446Q9.93599 31.9693 9.93599 32.0081ZM9.15988 30.8369Q9.38213 30.8157 9.53735 30.6605Q9.69257 30.5053 9.69257 30.2548Q9.69257 30.0361 9.53735 29.8949Q9.38213 29.7538 9.1246 29.7538H8.28851V30.8369ZM11.9539 32.0116Q11.9539 32.0434 11.9327 32.0628Q11.9115 32.0822 11.8833 32.0822H10.5533Q10.5251 32.0822 10.504 32.061Q10.4828 32.0398 10.4828 32.0116V29.6833Q10.4828 29.6551 10.504 29.6339Q10.5251 29.6127 10.5533 29.6127H11.8833Q11.9115 29.6127 11.9327 29.6339Q11.9539 29.6551 11.9539 29.6833Q11.9539 29.715 11.9327 29.7344Q11.9115 29.7538 11.8833 29.7538H10.631V30.7381H11.7246Q11.7528 30.7381 11.774 30.7593Q11.7951 30.7804 11.7951 30.8086Q11.7951 30.8404 11.774 30.8598Q11.7528 30.8792 11.7246 30.8792H10.631V31.9411H11.8833Q11.9115 31.9411 11.9327 31.9622Q11.9539 31.9834 11.9539 32.0116ZM14.067 30.2865Q14.067 30.4841 13.9841 30.6446Q13.9012 30.8051 13.7495 30.8951Q13.5978 30.985 13.4003 30.985H12.6312V32.0116Q12.6312 32.0398 12.6083 32.061Q12.5853 32.0822 12.5571 32.0822Q12.5254 32.0822 12.5042 32.061Q12.483 32.0398 12.483 32.0116V29.6833Q12.483 29.6551 12.5042 29.6339Q12.5254 29.6127 12.5536 29.6127H13.4003Q13.7001 29.6127 13.8836 29.7997Q14.067 29.9867 14.067 30.2865ZM13.9188 30.2865Q13.9188 30.0431 13.7795 29.8985Q13.6402 29.7538 13.4003 29.7538H12.6312V30.8439H13.4003Q13.6366 30.8439 13.7777 30.6869Q13.9188 30.5299 13.9188 30.2865ZM16.0143 32.0116Q16.0143 32.0434 15.9932 32.0628Q15.972 32.0822 15.9438 32.0822H14.6491Q14.6173 32.0822 14.5979 32.061Q14.5785 32.0398 14.5785 32.0116V29.6833Q14.5785 29.6551 14.5997 29.6339Q14.6209 29.6127 14.6526 29.6127Q14.6844 29.6127 14.7055 29.6339Q14.7267 29.6551 14.7267 29.6833V31.9411H15.9438Q15.972 31.9411 15.9932 31.9622Q16.0143 31.9834 16.0143 32.0116ZM18.2333 32.0151Q18.2333 32.0469 18.2122 32.0645Q18.191 32.0822 18.1592 32.0822Q18.1345 32.0822 18.1151 32.0698Q18.0957 32.0575 18.0887 32.0363L17.7923 31.3096L17.7959 31.3166H16.6141L16.3283 32.0363Q16.3107 32.0822 16.2648 32.0822Q16.2331 32.0822 16.2137 32.0645Q16.1943 32.0469 16.1907 32.0222Q16.1872 32.0081 16.1943 31.9869L17.1432 29.6515Q17.1538 29.6233 17.1697 29.6145Q17.1856 29.6057 17.2103 29.6057Q17.2632 29.6057 17.2808 29.6515L18.2298 31.9869Q18.2333 31.9975 18.2333 32.0151ZM16.6705 31.1755H17.7394L17.1997 29.8456ZM20.5687 29.8738Q20.5687 29.902 20.5546 29.9196Q20.5334 29.9479 20.5017 29.9479Q20.4876 29.9479 20.4593 29.9337Q20.1313 29.7115 19.7644 29.7115Q19.468 29.7115 19.2193 29.8579Q18.9706 30.0043 18.826 30.2636Q18.6813 30.5229 18.6813 30.8474Q18.6813 31.172 18.826 31.4313Q18.9706 31.6906 19.2193 31.837Q19.468 31.9834 19.7644 31.9834Q20.1348 31.9834 20.4558 31.7647Q20.4735 31.7506 20.4982 31.7506Q20.5334 31.7506 20.5546 31.7788Q20.5687 31.7964 20.5687 31.8211Q20.5687 31.8564 20.5405 31.8776Q20.4029 31.9763 20.1859 32.0469Q19.969 32.1174 19.7644 32.1174Q19.4292 32.1174 19.147 31.9516Q18.8648 31.7858 18.699 31.4948Q18.5332 31.2037 18.5332 30.8474Q18.5332 30.4911 18.699 30.2001Q18.8648 29.9091 19.147 29.7432Q19.4292 29.5774 19.7644 29.5774Q19.976 29.5774 20.1754 29.6409Q20.3747 29.7044 20.537 29.8173Q20.5687 29.842 20.5687 29.8738ZM22.516 32.0116Q22.516 32.0434 22.4949 32.0628Q22.4737 32.0822 22.4455 32.0822H21.1155Q21.0873 32.0822 21.0661 32.061Q21.045 32.0398 21.045 32.0116V29.6833Q21.045 29.6551 21.0661 29.6339Q21.0873 29.6127 21.1155 29.6127H22.4455Q22.4737 29.6127 22.4949 29.6339Q22.516 29.6551 22.516 29.6833Q22.516 29.715 22.4949 29.7344Q22.4737 29.7538 22.4455 29.7538H21.1931V30.7381H22.2867Q22.315 30.7381 22.3361 30.7593Q22.3573 30.7804 22.3573 30.8086Q22.3573 30.8404 22.3361 30.8598Q22.315 30.8792 22.2867 30.8792H21.1931V31.9411H22.4455Q22.4737 31.9411 22.4949 31.9622Q22.516 31.9834 22.516 32.0116Z" style="stroke:#000000;stroke-width:0.25;stroke-linecap:round;stroke-linejoin:bevel" />
        <path d="M 6.24,37.33 L 24.24,37.33 z " style="stroke:#000000;stroke-width:0.25;stroke-linecap:round;stroke-linejoin:bevel;stroke-dasharray:none" />
        <path d="M11.0666 46.7488Q11.0666 47.0698 10.8638 47.2426Q10.6609 47.4155 10.347 47.4155H9.37331Q9.34508 47.4155 9.32392 47.3943Q9.30275 47.3732 9.30275 47.3449V45.0166Q9.30275 44.9884 9.32392 44.9672Q9.34508 44.9461 9.37331 44.9461H10.3223Q10.6045 44.9461 10.7738 45.1083Q10.9432 45.2706 10.9432 45.5458Q10.9432 45.7433 10.8444 45.9038Q10.7456 46.0644 10.5692 46.1243Q10.795 46.1667 10.9308 46.3289Q11.0666 46.4912 11.0666 46.7488ZM10.3046 45.0872H9.45092V46.0785H10.3046Q10.5234 46.0749 10.6592 45.9356Q10.795 45.7963 10.795 45.5423Q10.795 45.3341 10.6662 45.2106Q10.5375 45.0872 10.3046 45.0872ZM10.9185 46.7488Q10.9185 46.4877 10.7562 46.3554Q10.5939 46.2231 10.3293 46.2231H9.45092V47.2744H10.3293Q10.5939 47.2744 10.7562 47.1421Q10.9185 47.0098 10.9185 46.7488ZM13.3914 47.3414Q13.3914 47.3732 13.372 47.3926Q13.3526 47.412 13.3244 47.412Q13.3033 47.412 13.2927 47.4049Q13.1974 47.352 13.141 47.2268Q13.0845 47.1015 13.0845 46.8158Q13.0845 46.5265 12.9293 46.4189Q12.7741 46.3113 12.5695 46.3113H11.744V47.3449Q11.744 47.3732 11.7228 47.3943Q11.7016 47.4155 11.6699 47.4155Q11.6381 47.4155 11.617 47.3943Q11.5958 47.3732 11.5958 47.3449V45.0166Q11.5958 44.9884 11.617 44.9672Q11.6381 44.9461 11.6664 44.9461H12.5977Q12.8023 44.9461 12.9611 45.029Q13.1198 45.1119 13.208 45.2565Q13.2962 45.4011 13.2962 45.5846Q13.2962 45.8209 13.171 45.9903Q13.0457 46.1596 12.8446 46.2196Q13.014 46.2725 13.1233 46.4295Q13.2327 46.5865 13.2327 46.8158Q13.2327 47.0521 13.2627 47.1456Q13.2927 47.2391 13.3526 47.2779Q13.3914 47.3026 13.3914 47.3414ZM12.6153 46.1702Q12.8376 46.149 12.9928 45.9938Q13.148 45.8386 13.148 45.5881Q13.148 45.3694 12.9928 45.2283Q12.8376 45.0872 12.5801 45.0872H11.744V46.1702ZM14.0123 47.4155Q13.9771 47.4155 13.9577 47.3943Q13.9383 47.3732 13.9383 47.3414V45.0201Q13.9383 44.9884 13.9594 44.9672Q13.9806 44.9461 14.0123 44.9461Q14.0441 44.9461 14.0652 44.9672Q14.0864 44.9884 14.0864 45.0201V47.3414Q14.0829 47.3732 14.0617 47.3943Q14.0406 47.4155 14.0123 47.4155ZM16.6582 46.269V47.1544Q16.6582 47.1968 16.6264 47.2179Q16.4641 47.3273 16.2719 47.389Q16.0796 47.4508 15.8821 47.4508Q15.5187 47.4508 15.2312 47.2867Q14.9437 47.1227 14.7796 46.8334Q14.6156 46.5441 14.6156 46.1808Q14.6156 45.8174 14.7796 45.5281Q14.9437 45.2389 15.2312 45.0748Q15.5187 44.9108 15.8821 44.9108Q16.0796 44.9108 16.2578 44.9584Q16.4359 45.006 16.577 45.1013Q16.6088 45.1224 16.6088 45.1613Q16.6088 45.193 16.5858 45.2124Q16.5629 45.2318 16.5418 45.2318Q16.5241 45.2318 16.4959 45.2177Q16.1996 45.0519 15.8821 45.0519Q15.5575 45.0519 15.3035 45.1965Q15.0495 45.3412 14.9066 45.5987Q14.7637 45.8562 14.7637 46.1808Q14.7637 46.5053 14.9066 46.7629Q15.0495 47.0204 15.3035 47.165Q15.5575 47.3097 15.8821 47.3097Q16.0443 47.3097 16.2119 47.2585Q16.3795 47.2074 16.5171 47.1227V46.3395H15.8821Q15.8538 46.3395 15.8327 46.3184Q15.8115 46.2972 15.8115 46.269Q15.8115 46.2372 15.8327 46.2178Q15.8538 46.1984 15.8821 46.1984H16.5876Q16.6194 46.1984 16.6388 46.2196Q16.6582 46.2407 16.6582 46.269ZM19.0747 45.0201V47.3414Q19.0712 47.3732 19.05 47.3943Q19.0288 47.4155 19.0006 47.4155Q18.9653 47.4155 18.9459 47.3943Q18.9265 47.3732 18.9265 47.3414V46.2161H17.3884V47.3414Q17.3849 47.3732 17.3637 47.3943Q17.3426 47.4155 17.3143 47.4155Q17.2791 47.4155 17.2597 47.3943Q17.2402 47.3732 17.2402 47.3414V45.0201Q17.2402 44.9884 17.2614 44.9672Q17.2826 44.9461 17.3143 44.9461Q17.3461 44.9461 17.3672 44.9672Q17.3884 44.9884 17.3884 45.0201V46.0749H18.9265V45.0201Q18.9265 44.9884 18.9477 44.9672Q18.9689 44.9461 19.0006 44.9461Q19.0324 44.9461 19.0535 44.9672Q19.0747 44.9884 19.0747 45.0201ZM21.4066 45.0131Q21.4066 45.0448 21.3872 45.0625Q21.3677 45.0801 21.336 45.0801H20.5493V47.3449Q20.5493 47.3732 20.5281 47.3943Q20.507 47.4155 20.4787 47.4155Q20.447 47.4155 20.4276 47.3943Q20.4082 47.3732 20.4082 47.3449V45.0801H19.6215Q19.5933 45.0801 19.5721 45.0607Q19.5509 45.0413 19.5509 45.0131Q19.5509 44.9849 19.5721 44.9655Q19.5933 44.9461 19.6215 44.9461H21.336Q21.3642 44.9461 21.3854 44.9655Q21.4066 44.9849 21.4066 45.0131Z" style="stroke:#000000;stroke-width:0.25;stroke-linecap:round;stroke-linejoin:bevel" />
        <path d="M 6.24,52.67 L 24.24,52.67 z " style="stroke:#000000;stroke-width:0.25;stroke-linecap:round;stroke-linejoin:bevel;stroke-dasharray:none" />
        <path d="M10.7421 61.5141Q10.7421 61.8634 10.631 62.1421Q10.5198 62.4207 10.2905 62.5848Q10.0612 62.7488 9.71903 62.7488H8.80181Q8.77358 62.7488 8.75242 62.7277Q8.73125 62.7065 8.73125 62.6783V60.3499Q8.73125 60.3217 8.75242 60.3006Q8.77358 60.2794 8.80181 60.2794H9.71903Q10.0577 60.2794 10.2888 60.4487Q10.5198 60.6181 10.631 60.8985Q10.7421 61.179 10.7421 61.5141ZM10.5939 61.5141Q10.5939 61.2142 10.4969 60.9655Q10.3999 60.7168 10.197 60.5687Q9.99419 60.4205 9.68375 60.4205H8.87942V62.6077H9.68375Q10.1424 62.6077 10.3681 62.3061Q10.5939 62.0045 10.5939 61.5141ZM12.7423 62.6783Q12.7423 62.71 12.7212 62.7294Q12.7 62.7488 12.6718 62.7488H11.3418Q11.3136 62.7488 11.2924 62.7277Q11.2712 62.7065 11.2712 62.6783V60.3499Q11.2712 60.3217 11.2924 60.3006Q11.3136 60.2794 11.3418 60.2794H12.6718Q12.7 60.2794 12.7212 60.3006Q12.7423 60.3217 12.7423 60.3499Q12.7423 60.3817 12.7212 60.4011Q12.7 60.4205 12.6718 60.4205H11.4194V61.4047H12.513Q12.5412 61.4047 12.5624 61.4259Q12.5836 61.4471 12.5836 61.4753Q12.5836 61.5071 12.5624 61.5265Q12.5412 61.5459 12.513 61.5459H11.4194V62.6077H12.6718Q12.7 62.6077 12.7212 62.6289Q12.7423 62.6501 12.7423 62.6783ZM14.8978 60.3464Q14.8978 60.3782 14.8784 60.3958Q14.859 60.4134 14.8272 60.4134H14.0406V62.6783Q14.0406 62.7065 14.0194 62.7277Q13.9982 62.7488 13.97 62.7488Q13.9382 62.7488 13.9188 62.7277Q13.8994 62.7065 13.8994 62.6783V60.4134H13.1127Q13.0845 60.4134 13.0634 60.394Q13.0422 60.3746 13.0422 60.3464Q13.0422 60.3182 13.0634 60.2988Q13.0845 60.2794 13.1127 60.2794H14.8272Q14.8555 60.2794 14.8766 60.2988Q14.8978 60.3182 14.8978 60.3464ZM17.1909 60.3499V61.8739Q17.1909 62.1209 17.0674 62.329Q16.9439 62.5372 16.7358 62.6606Q16.5276 62.7841 16.2842 62.7841Q16.0373 62.7841 15.8291 62.6606Q15.621 62.5372 15.4975 62.329Q15.3741 62.1209 15.3741 61.8739V60.3499Q15.3741 60.3182 15.3952 60.2988Q15.4164 60.2794 15.4481 60.2794Q15.4799 60.2794 15.5011 60.3006Q15.5222 60.3217 15.5222 60.3499V61.8739Q15.5222 62.0821 15.6245 62.2585Q15.7268 62.4349 15.9015 62.5389Q16.0761 62.643 16.2842 62.643Q16.4924 62.643 16.667 62.5389Q16.8416 62.4349 16.9457 62.2585Q17.0497 62.0821 17.0497 61.8739V60.3499Q17.0497 60.3217 17.0692 60.3006Q17.0886 60.2794 17.1203 60.2794Q17.1521 60.2794 17.1715 60.3006Q17.1909 60.3217 17.1909 60.3499ZM19.7485 60.3464V62.6712Q19.7485 62.71 19.7273 62.7294Q19.7062 62.7488 19.6744 62.7488Q19.6391 62.7488 19.618 62.7206L18.0305 60.551V62.6889Q18.0305 62.7136 18.0111 62.7312Q17.9917 62.7488 17.9634 62.7488Q17.9317 62.7488 17.9141 62.7312Q17.8964 62.7136 17.8964 62.6889V60.3499Q17.8964 60.3147 17.9158 60.297Q17.9352 60.2794 17.9599 60.2794Q17.9917 60.2794 18.0128 60.3041L19.6144 62.4878V60.3464Q19.6144 60.3182 19.6338 60.2988Q19.6532 60.2794 19.6815 60.2794Q19.7132 60.2794 19.7309 60.2988Q19.7485 60.3182 19.7485 60.3464ZM21.9251 62.6783Q21.9251 62.71 21.904 62.7294Q21.8828 62.7488 21.8546 62.7488H20.5246Q20.4964 62.7488 20.4752 62.7277Q20.4541 62.7065 20.4541 62.6783V60.3499Q20.4541 60.3217 20.4752 60.3006Q20.4964 60.2794 20.5246 60.2794H21.8546Q21.8828 60.2794 21.904 60.3006Q21.9251 60.3217 21.9251 60.3499Q21.9251 60.3817 21.904 60.4011Q21.8828 60.4205 21.8546 60.4205H20.6022V61.4047H21.6958Q21.7241 61.4047 21.7452 61.4259Q21.7664 61.4471 21.7664 61.4753Q21.7664 61.5071 21.7452 61.5265Q21.7241 61.5459 21.6958 61.5459H20.6022V62.6077H21.8546Q21.8828 62.6077 21.904 62.6289Q21.9251 62.6501 21.9251 62.6783Z" style="stroke:#000000;stroke-width:0.25;stroke-linecap:round;stroke-linejoin:bevel" />
        <path d="M 6.24,68.00 L 24.24,68.00 z " style="stroke:#000000;stroke-width:0.25;stroke-linecap:round;stroke-linejoin:bevel;stroke-dasharray:none" />
        <path d="M11.8533 77.747Q11.8322 77.7259 11.8322 77.6941Q11.8322 77.6659 11.8569 77.6394Q11.8816 77.613 11.9098 77.613Q11.9415 77.613 11.9698 77.6447Q12.1073 77.807 12.2961 77.8917Q12.4848 77.9763 12.6929 77.9763Q12.9646 77.9763 13.141 77.8458Q13.3174 77.7153 13.3174 77.5001Q13.3138 77.3308 13.2256 77.2214Q13.1374 77.112 13.0087 77.0468Q12.8799 76.9815 12.6577 76.9004Q12.4143 76.8086 12.2784 76.7381Q12.1426 76.6675 12.0456 76.537Q11.9486 76.4065 11.9486 76.1948Q11.9486 76.0219 12.0438 75.8808Q12.1391 75.7397 12.3155 75.6586Q12.4919 75.5774 12.7247 75.5774Q12.9328 75.5774 13.1198 75.6533Q13.3068 75.7291 13.4161 75.8667Q13.4514 75.9161 13.4514 75.9408Q13.4514 75.969 13.425 75.992Q13.3985 76.0149 13.3668 76.0149Q13.3385 76.0149 13.3209 75.9937Q13.2221 75.8667 13.0669 75.7926Q12.9117 75.7186 12.7247 75.7186Q12.4566 75.7186 12.2784 75.8456Q12.1003 75.9726 12.1003 76.1913Q12.1003 76.343 12.1867 76.4488Q12.2731 76.5546 12.4037 76.6199Q12.5342 76.6852 12.7282 76.7557Q12.9752 76.8439 13.1198 76.918Q13.2644 76.9921 13.3667 77.1332Q13.4691 77.2743 13.4691 77.5071Q13.4691 77.6694 13.3738 77.8105Q13.2786 77.9516 13.1004 78.0345Q12.9223 78.1174 12.6929 78.1174Q12.4319 78.1174 12.2379 78.0275Q12.0438 77.9375 11.8533 77.747ZM14.0758 78.0822Q14.0406 78.0822 14.0212 78.061Q14.0018 78.0398 14.0018 78.0081V75.6868Q14.0018 75.6551 14.0229 75.6339Q14.0441 75.6127 14.0758 75.6127Q14.1076 75.6127 14.1288 75.6339Q14.1499 75.6551 14.1499 75.6868V78.0081Q14.1464 78.0398 14.1252 78.061Q14.1041 78.0822 14.0758 78.0822ZM16.5911 78.0151Q16.5911 78.0434 16.57 78.0628Q16.5488 78.0822 16.5206 78.0822H14.7849Q14.7532 78.0822 14.7338 78.0592Q14.7144 78.0363 14.7144 78.0081Q14.7144 77.9834 14.7285 77.9658L16.3936 75.7468H14.8555Q14.8273 75.7468 14.8061 75.7274Q14.7849 75.708 14.7849 75.6798Q14.7849 75.6515 14.8061 75.6321Q14.8273 75.6127 14.8555 75.6127H16.5135Q16.5559 75.6127 16.5753 75.6339Q16.5947 75.6551 16.5947 75.6833Q16.5947 75.708 16.5806 75.7256L14.919 77.9481H16.5206Q16.5488 77.9481 16.57 77.9693Q16.5911 77.9904 16.5911 78.0151ZM18.5949 78.0116Q18.5949 78.0434 18.5738 78.0628Q18.5526 78.0822 18.5244 78.0822H17.1944Q17.1662 78.0822 17.145 78.061Q17.1238 78.0398 17.1238 78.0116V75.6833Q17.1238 75.6551 17.145 75.6339Q17.1662 75.6127 17.1944 75.6127H18.5244Q18.5526 75.6127 18.5738 75.6339Q18.5949 75.6551 18.5949 75.6833Q18.5949 75.715 18.5738 75.7344Q18.5526 75.7538 18.5244 75.7538H17.272V76.7381H18.3656Q18.3938 76.7381 18.415 76.7593Q18.4362 76.7804 18.4362 76.8086Q18.4362 76.8404 18.415 76.8598Q18.3938 76.8792 18.3656 76.8792H17.272V77.9411H18.5244Q18.5526 77.9411 18.5738 77.9622Q18.5949 77.9834 18.5949 78.0116Z" style="stroke:#000000;stroke-width:0.25;stroke-linecap:round;stroke-linejoin:bevel" />
        <path d="M 6.24,83.33 L 24.24,83.33 z " style="stroke:#000000;stroke-width:0.25;stroke-linecap:round;stroke-linejoin:bevel;stroke-dasharray:none" />
        <path d="M14.8837 91.0166V93.3449Q14.8837 93.3732 14.8608 93.3943Q14.8378 93.4155 14.8096 93.4155Q14.7779 93.4155 14.7567 93.3943Q14.7355 93.3732 14.7355 93.3449V91.2353L13.8254 92.6112Q13.8077 92.6394 13.776 92.6394Q13.7372 92.6394 13.7195 92.6112L12.8058 91.2318V93.3449Q12.8058 93.3732 12.7847 93.3943Q12.7635 93.4155 12.7353 93.4155Q12.7035 93.4155 12.6841 93.3943Q12.6647 93.3732 12.6647 93.3449V91.0166Q12.6647 90.9919 12.6841 90.969Q12.7035 90.9461 12.7317 90.9461Q12.7776 90.9461 12.7988 90.9778L13.776 92.4313L14.7532 90.9778Q14.7814 90.939 14.8202 90.9461Q14.8484 90.9496 14.8661 90.969Q14.8837 90.9884 14.8837 91.0166ZM15.6633 93.4155Q15.6281 93.4155 15.6087 93.3943Q15.5892 93.3732 15.5892 93.3414V91.0201Q15.5892 90.9884 15.6104 90.9672Q15.6316 90.9461 15.6633 90.9461Q15.6951 90.9461 15.7162 90.9672Q15.7374 90.9884 15.7374 91.0201V93.3414Q15.7339 93.3732 15.7127 93.3943Q15.6916 93.4155 15.6633 93.4155ZM18.0446 93.3132Q18.0622 93.3379 18.0622 93.3555Q18.0622 93.3873 18.0411 93.4067Q18.0199 93.4261 17.9881 93.4261Q17.9493 93.4261 17.9317 93.3979L17.1238 92.2972L16.3195 93.3979Q16.3019 93.4261 16.2666 93.4261Q16.2348 93.4261 16.2172 93.4067Q16.1996 93.3873 16.1996 93.3661Q16.1996 93.3485 16.2172 93.3203L17.0462 92.1878L16.2101 91.0484Q16.196 91.0307 16.196 91.006Q16.196 90.9743 16.2172 90.9549Q16.2384 90.9355 16.2666 90.9355Q16.3089 90.9355 16.3266 90.9637L17.1344 92.0679L17.9387 90.9602Q17.9599 90.9319 17.9917 90.9319Q18.0234 90.9319 18.0428 90.9478Q18.0622 90.9637 18.0622 90.9884Q18.0622 91.0131 18.0446 91.0378L17.2156 92.1808Z" style="stroke:#000000;stroke-width:0.25;stroke-linecap:round;stroke-linejoin:bevel" />
        <path d="M 6.24,98.67 L 24.24,98.67 z " style="stroke:#000000;stroke-width:0.25;stroke-linecap:round;stroke-linejoin:bevel;stroke-dasharray:none" />
    </g>
</svg>
