<?xml version="1.0" encoding="utf-8"?>
<svg xmlns="http://www.w3.org/2000/svg" width="30.48mm" height="128.50mm" viewBox="0 0 30.48 128.50">
    <g id="PanelLayer">
        <defs>
            <linearGradient id="gradient_in" x1="0" y1="12.5" x2="0" y2="28" gradientUnits="userSpaceOnUse">
                <stop style="stop-color:#a06de4;stop-opacity:1;" offset="0" />
                <stop style="stop-color:#4f8df2;stop-opacity:1;" offset="1" />
            </linearGradient>
            <linearGradient id="gradient_controls" x1="0" y1="39.7857" x2="0" y2="93.7143" gradientUnits="userSpaceOnUse">
                <stop style="stop-color:#3068ff;stop-opacity:1;" offset="0" />
                <stop style="stop-color:#4f8df2;stop-opacity:1;" offset="1" />
            </linearGradient>
            <linearGradient id="gradient_out" x1="0" y1="105.5" x2="0" y2="120" gradientUnits="userSpaceOnUse">
                <stop style="stop-color:#ba60d1;stop-opacity:1;" offset="0" />
                <stop style="stop-color:#4f8df2;stop-opacity:1;" offset="1" />
            </linearGradient>
        </defs>
        <rect id="border_rect" width="30.48" height="128.5" x="0" y="0" style="display:inline;fill:#4f8df2;fill-opacity:1;stroke:none;" />
        <path id="model_name" d="M7.47113 4.43369V7.77096Q7.47113 8.36081 7.23053 8.79543Q6.98994 9.23005 6.55532 9.46677Q6.12069 9.70348 5.56189 9.70348Q5.25145 9.70348 4.93324 9.62199Q4.61504 9.5405 4.40937 9.41244Q4.2037 9.28438 4.2037 9.15244Q4.2037 9.09035 4.23863 9.05155Q4.27355 9.01274 4.33564 9.01274Q4.38221 9.01274 4.47534 9.09035Q4.58399 9.19901 4.71593 9.25334Q5.09623 9.40856 5.57742 9.40856Q6.30696 9.40856 6.73382 8.95841Q7.16068 8.50827 7.16068 7.77096V7.23545Q6.95113 7.73216 6.51263 7.98051Q6.07413 8.22887 5.59294 8.22887Q5.06518 8.22887 4.63444 7.96111Q4.2037 7.69335 3.95923 7.22769Q3.71475 6.76202 3.71475 6.1877Q3.71475 5.61337 3.95923 5.14771Q4.2037 4.68204 4.63444 4.41816Q5.06518 4.15429 5.59294 4.15429Q6.11293 4.15429 6.54368 4.42981Q6.97442 4.70533 7.16068 5.09338V4.43369Q7.16068 4.3716 7.20337 4.32503Q7.24606 4.27846 7.31591 4.27846Q7.38576 4.27846 7.42844 4.32503Q7.47113 4.3716 7.47113 4.43369ZM7.19173 6.1877Q7.19173 5.67546 6.98606 5.27965Q6.78039 4.88383 6.4195 4.66652Q6.05861 4.44921 5.60846 4.44921Q5.15832 4.44921 4.79743 4.67428Q4.43653 4.89935 4.23086 5.29517Q4.02519 5.69099 4.02519 6.1877Q4.02519 6.68441 4.23086 7.08022Q4.43653 7.47604 4.79743 7.70499Q5.15832 7.93395 5.60846 7.93395Q6.05861 7.93395 6.4195 7.71276Q6.78039 7.49156 6.98606 7.09575Q7.19173 6.69993 7.19173 6.1877ZM12.089 4.43369V7.99604Q12.089 8.05812 12.0424 8.10469Q11.9959 8.15126 11.9338 8.15126Q11.8639 8.15126 11.8212 8.10469Q11.7785 8.05812 11.7785 7.99604V7.29754Q11.5845 7.69335 11.1809 7.96111Q10.7774 8.22887 10.2884 8.22887Q9.77618 8.22887 9.36484 7.96111Q8.9535 7.69335 8.72067 7.22381Q8.48783 6.75426 8.48783 6.17217Q8.48783 5.59785 8.72455 5.13607Q8.96126 4.67428 9.3726 4.41428Q9.78394 4.15429 10.2884 4.15429Q10.7929 4.15429 11.1965 4.41816Q11.6 4.68204 11.7785 5.12443V4.43369Q11.7785 4.3716 11.8212 4.32503Q11.8639 4.27846 11.9338 4.27846Q12.0036 4.27846 12.0463 4.32503Q12.089 4.3716 12.089 4.43369ZM11.8096 6.17217Q11.8096 5.69875 11.6156 5.30293Q11.4215 4.90711 11.0762 4.67816Q10.7308 4.44921 10.3039 4.44921Q9.87707 4.44921 9.5317 4.6704Q9.18633 4.89159 8.99231 5.28353Q8.79828 5.67546 8.79828 6.17217Q8.79828 6.66889 8.99231 7.07246Q9.18633 7.47604 9.52782 7.70499Q9.86931 7.93395 10.3039 7.93395Q10.7308 7.93395 11.0762 7.70499Q11.4215 7.47604 11.6156 7.07246Q11.8096 6.66889 11.8096 6.17217ZM13.5714 8.15126Q13.5015 8.15126 13.4588 8.10469Q13.4161 8.05812 13.4161 7.99604V2.56326Q13.4161 2.50117 13.4627 2.4546Q13.5093 2.40804 13.5714 2.40804Q13.6412 2.40804 13.6839 2.4546Q13.7266 2.50117 13.7266 2.56326V7.99604Q13.7266 8.05812 13.68 8.10469Q13.6335 8.15126 13.5714 8.15126ZM18.3833 4.43369V7.99604Q18.3833 8.05812 18.3367 8.10469Q18.2901 8.15126 18.228 8.15126Q18.1582 8.15126 18.1155 8.10469Q18.0728 8.05812 18.0728 7.99604V7.29754Q17.8788 7.69335 17.4752 7.96111Q17.0716 8.22887 16.5827 8.22887Q16.0704 8.22887 15.6591 7.96111Q15.2478 7.69335 15.0149 7.22381Q14.7821 6.75426 14.7821 6.17217Q14.7821 5.59785 15.0188 5.13607Q15.2555 4.67428 15.6669 4.41428Q16.0782 4.15429 16.5827 4.15429Q17.0871 4.15429 17.4907 4.41816Q17.8943 4.68204 18.0728 5.12443V4.43369Q18.0728 4.3716 18.1155 4.32503Q18.1582 4.27846 18.228 4.27846Q18.2979 4.27846 18.3406 4.32503Q18.3833 4.3716 18.3833 4.43369ZM18.1039 6.17217Q18.1039 5.69875 17.9098 5.30293Q17.7158 4.90711 17.3704 4.67816Q17.0251 4.44921 16.5982 4.44921Q16.1713 4.44921 15.826 4.6704Q15.4806 4.89159 15.2866 5.28353Q15.0925 5.67546 15.0925 6.17217Q15.0925 6.66889 15.2866 7.07246Q15.4806 7.47604 15.8221 7.70499Q16.1636 7.93395 16.5982 7.93395Q17.0251 7.93395 17.3704 7.70499Q17.7158 7.47604 17.9098 7.07246Q18.1039 6.66889 18.1039 6.17217ZM22.4268 7.93395Q22.4578 7.97275 22.4578 8.02708Q22.4578 8.08917 22.4151 8.13574Q22.3725 8.1823 22.3104 8.1823Q22.2405 8.1823 22.1784 8.11245L20.9056 6.45158L19.625 8.12021Q19.5785 8.1823 19.5008 8.1823Q19.4388 8.1823 19.3961 8.1435Q19.3534 8.10469 19.3534 8.03484Q19.3534 7.98051 19.3844 7.94171L20.7193 6.21098L19.3689 4.44921Q19.3379 4.4104 19.3379 4.35608Q19.3379 4.28622 19.3883 4.23966Q19.4388 4.19309 19.5008 4.19309Q19.5785 4.19309 19.625 4.26294L20.9134 5.9471L22.1784 4.26294Q22.2405 4.19309 22.3104 4.19309Q22.3802 4.19309 22.419 4.2319Q22.4578 4.2707 22.4578 4.32503Q22.4578 4.3716 22.419 4.42592L21.0996 6.19546ZM26.4936 4.30951V7.77096Q26.4936 8.35305 26.2569 8.79155Q26.0202 9.23005 25.605 9.46677Q25.1897 9.70348 24.662 9.70348Q24.3205 9.70348 24.0372 9.62199Q23.7539 9.5405 23.5599 9.40856Q23.4202 9.31542 23.4745 9.19901Q23.5289 9.10587 23.6065 9.10587Q23.6453 9.10587 23.6763 9.12916Q23.8626 9.24557 24.1226 9.33483Q24.3826 9.42408 24.6775 9.42408Q25.1199 9.42408 25.4614 9.21453Q25.8029 9.00498 25.993 8.62857Q26.1832 8.25215 26.1832 7.77096V7.42171Q26.0047 7.77096 25.6127 7.99992Q25.2208 8.22887 24.8017 8.22887Q24.1032 8.22887 23.7617 7.82917Q23.4202 7.42948 23.4202 6.73097V4.30951Q23.4202 4.24742 23.4629 4.20085Q23.5056 4.15429 23.5754 4.15429Q23.6453 4.15429 23.688 4.20085Q23.7307 4.24742 23.7307 4.30951V6.73097Q23.7307 7.93395 24.8017 7.93395Q25.1354 7.93395 25.4575 7.75932Q25.7796 7.5847 25.9814 7.3053Q26.1832 7.0259 26.1832 6.73097V4.30951Q26.1832 4.24742 26.2259 4.20085Q26.2685 4.15429 26.3384 4.15429Q26.4082 4.15429 26.4509 4.20085Q26.4936 4.24742 26.4936 4.30951Z" style="display:inline;stroke:#000000;stroke-width:0.35;stroke-linecap:round;stroke-linejoin:bevel" />
        <path id="sapphire_gemstone" d="m 17.955,122.900 q 0,0.34175 -0.242534,0.63114 -0.0441,0.0524 -0.20395,0.21497 -0.187413,0.19017 -0.785481,0.81304 l -1.444183,1.51309 q -0.01929,0.003 -0.0441,0.003 -0.02756,0 -0.04134,-0.003 -0.08268,-0.0827 -0.647678,-0.67524 -0.468532,-0.47404 -0.934309,-0.94809 -0.556727,-0.56775 -0.89848,-0.98116 -0.132292,-0.15985 -0.168121,-0.29766 -0.02756,-0.10197 -0.02756,-0.34175 0,-0.11024 0.07166,-0.28939 0.06614,-0.16536 0.140559,-0.26458 0.118512,-0.1571 0.42168,-0.42444 0.283875,-0.2508 0.474044,-0.37482 0.272852,-0.17915 0.818555,-0.36656 0.09646,-0.0331 0.110243,-0.0331 h 1.3615 q 0.01102,0 0.104731,0.0331 0.567751,0.20119 0.824066,0.36656 0.165365,0.10473 0.474045,0.37758 0.322461,0.28388 0.421679,0.42168 0.214974,0.2949 0.214974,0.62563 z m -0.16812,-0.27285 q -0.03307,-0.10749 -0.135048,-0.30868 -0.07166,-0.0937 -0.209462,-0.19844 -0.118511,-0.0854 -0.234266,-0.17088 0.245291,0.3638 0.578776,0.678 z m -0.573264,-0.52366 -0.358289,-0.44648 v 0.41065 z m 0.636653,0.75792 q 0,-0.0524 -0.341753,-0.39412 l 0.228754,0.7028 h 0.04961 q 0.06339,-0.21773 0.06339,-0.30868 z m -0.23151,0.27285 -0.316948,-0.90399 -0.410655,-0.0634 -0.159853,0.61461 z m 0.0028,0.15434 -0.771701,-0.3197 h -0.03032 l 0.344509,0.60634 q 0.07993,-0.003 0.234266,-0.0469 0.02481,-0.0138 0.223242,-0.23978 z m -0.857139,-1.05006 -0.719335,0.28388 0.60358,0.22599 z m 0,-0.16261 v -0.51538 l -0.917773,-0.38034 h -1.223697 l -0.917772,0.38034 v 0.51538 l 0.89848,0.4079 h 1.254014 z m 0.573264,1.53789 q -0.0689,0.011 -0.198438,0.0524 -0.08544,0.0551 -0.259071,0.16261 0.01929,0 0.06339,0.003 0.04134,0 0.06339,0 0.118511,0 0.190169,-0.0689 0.07166,-0.0717 0.14056,-0.14883 z m -0.289388,0.003 -0.347266,-0.63114 -0.363801,0.87918 q 0.0248,-0.0165 0.06615,-0.0165 0.03032,0 0.08544,0.011 0.05788,0.008 0.08819,0.008 0.04961,0 0.228754,-0.10749 0.228754,-0.1378 0.242535,-0.14331 z m -0.440972,-0.74139 -0.683507,-0.2756 -0.592556,0.54845 0.903993,0.65595 z m -0.854383,-0.28387 h -1.036284 l 0.523654,0.47404 z m 0.749652,1.36701 q -0.228754,-0.0303 -0.228754,-0.0303 -0.03583,0 -0.272851,0.0937 l 0.190169,0.0193 q 0.01102,0 0.311436,-0.0827 z m -0.388606,-0.0882 -0.843359,-0.61185 v 0.67524 l 0.471289,0.0827 z m 0.854383,0.0496 q -0.09922,0.006 -0.2949,0.0386 -0.01102,0.003 -0.377583,0.17639 -0.129535,0.34726 -0.380338,1.0418 z m -2.543857,-1.39733 -0.719335,-0.28388 0.124023,0.51814 z m -0.802018,-0.45476 v -0.41065 l -0.366557,0.44648 z m 1.515841,1.07212 -0.592556,-0.54019 -0.683506,0.2756 0.380338,0.9288 z m 0.369314,0.94257 q -0.03307,-0.003 -0.135047,-0.0248 -0.08544,-0.0165 -0.137804,-0.0165 -0.05237,0 -0.137804,0.0165 -0.101975,0.0221 -0.135047,0.0248 0.264583,0.0469 0.272851,0.0469 0.0083,0 0.272851,-0.0469 z m -0.30868,-0.1378 v -0.68626 l -0.843359,0.61185 0.37207,0.14607 z m 0.950846,0.20671 -0.396875,-0.0551 -0.479557,0.14056 v 1.27607 z m -2.888366,-2.20211 q -0.118512,0.0854 -0.234267,0.17364 -0.146072,0.10748 -0.209461,0.19568 -0.0441,0.10473 -0.135048,0.31419 0.369314,-0.3638 0.578776,-0.68351 z m 0.476801,0.83234 -0.159853,-0.61461 -0.410655,0.0634 -0.316948,0.90399 z m 0.394118,1.08313 -0.363802,-0.87918 -0.355533,0.63114 q 0.43546,0.2508 0.451996,0.2508 0.09095,0 0.267339,-0.003 z m 1.821765,0.82958 q -0.132291,0.21222 -0.405143,0.6339 -0.07717,0.10749 -0.220486,0.32797 -0.05788,0.10473 -0.05512,0.226 0.159852,-0.15158 0.432704,-0.49609 0.07717,-0.12954 0.140559,-0.339 0.05512,-0.17639 0.107486,-0.35278 z m -1.493792,-0.66146 -0.270095,-0.0882 -0.0083,-0.011 q -0.02481,0 -0.107487,0.011 -0.06615,0.006 -0.107487,0.006 0.272851,0.091 0.311436,0.091 0.02481,0 0.181901,-0.008 z m -0.810286,-1.06384 h -0.03032 l -0.7717,0.3197 q 0.06615,0.0965 0.223242,0.23978 0.07717,0.0138 0.234266,0.0469 z m -0.689018,-0.50161 q -0.341754,0.34727 -0.341754,0.39412 0,0.0799 0.06339,0.30868 h 0.04961 z m 2.235176,3.04547 v -1.27607 l -0.479557,-0.14056 -0.396875,0.0551 z m -1.606791,-1.6757 q -0.256315,-0.1819 -0.457509,-0.22324 0.06615,0.0772 0.20395,0.22324 z m 1.609547,2.04501 v -0.1378 l -0.683507,-1.05007 q 0.05237,0.17639 0.107487,0.35278 0.06339,0.20946 0.14056,0.339 0.0689,0.11851 0.20395,0.25907 0.115755,0.11851 0.23151,0.23702 z m -0.644921,-0.70555 q -0.115756,-0.32798 -0.380339,-1.0418 -0.135047,-0.0662 -0.272851,-0.12954 -0.159852,-0.0716 -0.289388,-0.0716 -0.05237,0 -0.110243,-0.0138 z" style="stroke-width:0;fill:#0000ff;stroke:#2e2114;stroke-linecap:square;stroke-opacity:1" />
        <path id="in_art" d="M 0.38,28.00 L 0.38,16.50 A 4 4 0 0 1 4.38 12.5 L 26.10,12.50 A 4 4 0 0 1 30.1 16.5 L 30.10,12.50 L 30.10,28.00 z" style="fill:url(#gradient_in);fill-opacity:1;stroke-width:0;" />
        <path id="controls_art" d="M 0.38,93.71 L 0.38,43.79 A 4 4 0 0 1 4.38 39.7857 L 26.10,39.79 A 4 4 0 0 1 30.1 43.7857 L 30.10,39.79 L 30.10,93.71 z" style="fill:url(#gradient_controls);fill-opacity:1;stroke-width:0;" />
        <path id="out_art" d="M 0.38,120.00 L 0.38,109.50 A 4 4 0 0 1 4.38 105.5 L 26.10,105.50 A 4 4 0 0 1 30.1 109.5 L 30.10,105.50 L 30.10,120.00 z" style="fill:url(#gradient_out);fill-opacity:1;stroke-width:0;" />
        <path d="M13.9612 16.7488Q13.9259 16.7488 13.9065 16.7277Q13.8871 16.7065 13.8871 16.6747V14.3535Q13.8871 14.3217 13.9083 14.3006Q13.9294 14.2794 13.9612 14.2794Q13.9929 14.2794 14.0141 14.3006Q14.0353 14.3217 14.0353 14.3535V16.6747Q14.0317 16.7065 14.0106 16.7277Q13.9894 16.7488 13.9612 16.7488ZM16.5929 14.3464V16.6712Q16.5929 16.71 16.5717 16.7294Q16.5506 16.7488 16.5188 16.7488Q16.4835 16.7488 16.4624 16.7206L14.8749 14.551V16.6889Q14.8749 16.7136 14.8555 16.7312Q14.8361 16.7488 14.8078 16.7488Q14.7761 16.7488 14.7585 16.7312Q14.7408 16.7136 14.7408 16.6889V14.3499Q14.7408 14.3147 14.7602 14.297Q14.7796 14.2794 14.8043 14.2794Q14.8361 14.2794 14.8572 14.3041L16.4588 16.4878V14.3464Q16.4588 14.3182 16.4782 14.2988Q16.4977 14.2794 16.5259 14.2794Q16.5576 14.2794 16.5753 14.2988Q16.5929 14.3182 16.5929 14.3464Z" style="stroke:#000000;stroke-width:0.25;stroke-linecap:round;stroke-linejoin:bevel" />
        <path d="M12.9275 109.784Q12.5853 109.784 12.3172 109.624Q12.0491 109.463 11.8992 109.174Q11.7493 108.885 11.7493 108.514Q11.7493 108.144 11.8992 107.854Q12.0491 107.565 12.3172 107.405Q12.5853 107.244 12.9275 107.244Q13.2697 107.244 13.5378 107.405Q13.806 107.565 13.9559 107.854Q14.1058 108.144 14.1058 108.514Q14.1058 108.885 13.9559 109.174Q13.806 109.463 13.5378 109.624Q13.2697 109.784 12.9275 109.784ZM12.9275 107.385Q12.6277 107.385 12.3931 107.526Q12.1585 107.667 12.028 107.925Q11.8974 108.183 11.8974 108.514Q11.8974 108.846 12.028 109.103Q12.1585 109.361 12.3931 109.502Q12.6277 109.643 12.9275 109.643Q13.2274 109.643 13.462 109.502Q13.6966 109.361 13.8271 109.103Q13.9577 108.846 13.9577 108.514Q13.9577 108.183 13.8271 107.925Q13.6966 107.667 13.462 107.526Q13.2274 107.385 12.9275 107.385ZM16.4518 107.35V108.874Q16.4518 109.121 16.3283 109.329Q16.2048 109.537 15.9967 109.661Q15.7886 109.784 15.5452 109.784Q15.2982 109.784 15.0901 109.661Q14.8819 109.537 14.7585 109.329Q14.635 109.121 14.635 108.874V107.35Q14.635 107.318 14.6562 107.299Q14.6773 107.279 14.7091 107.279Q14.7408 107.279 14.762 107.301Q14.7832 107.322 14.7832 107.35V108.874Q14.7832 109.082 14.8855 109.258Q14.9878 109.435 15.1624 109.539Q15.337 109.643 15.5452 109.643Q15.7533 109.643 15.9279 109.539Q16.1025 109.435 16.2066 109.258Q16.3107 109.082 16.3107 108.874V107.35Q16.3107 107.322 16.3301 107.301Q16.3495 107.279 16.3812 107.279Q16.413 107.279 16.4324 107.301Q16.4518 107.322 16.4518 107.35ZM18.7837 107.346Q18.7837 107.378 18.7642 107.396Q18.7448 107.413 18.7131 107.413H17.9264V109.678Q17.9264 109.707 17.9052 109.728Q17.8841 109.749 17.8558 109.749Q17.8241 109.749 17.8047 109.728Q17.7853 109.707 17.7853 109.678V107.413H16.9986Q16.9704 107.413 16.9492 107.394Q16.928 107.375 16.928 107.346Q16.928 107.318 16.9492 107.299Q16.9704 107.279 16.9986 107.279H18.7131Q18.7413 107.279 18.7625 107.299Q18.7837 107.318 18.7837 107.346Z" style="stroke:#000000;stroke-width:0.25;stroke-linecap:round;stroke-linejoin:bevel" />
        <path d="M 9.24,22.00 L 21.24,22.00 z " style="stroke:#000000;stroke-width:0.25;stroke-linecap:round;stroke-linejoin:bevel;stroke-dasharray:none" />
        <path d="M 9.24,114.00 L 21.24,114.00 z " style="stroke:#000000;stroke-width:0.25;stroke-linecap:round;stroke-linejoin:bevel;stroke-dasharray:none" />
        <path d="M14.1923 30.6833Q14.1923 30.7115 14.1781 30.7292Q14.157 30.7574 14.1252 30.7574Q14.1111 30.7574 14.0829 30.7433Q13.7548 30.521 13.3879 30.521Q13.0916 30.521 12.8429 30.6674Q12.5942 30.8138 12.4495 31.0731Q12.3049 31.3324 12.3049 31.657Q12.3049 31.9815 12.4495 32.2408Q12.5942 32.5001 12.8429 32.6465Q13.0916 32.7929 13.3879 32.7929Q13.7583 32.7929 14.0794 32.5742Q14.097 32.5601 14.1217 32.5601Q14.157 32.5601 14.1781 32.5883Q14.1923 32.6059 14.1923 32.6306Q14.1923 32.6659 14.164 32.6871Q14.0264 32.7859 13.8095 32.8564Q13.5925 32.927 13.3879 32.927Q13.0528 32.927 12.7706 32.7612Q12.4883 32.5954 12.3225 32.3043Q12.1567 32.0133 12.1567 31.657Q12.1567 31.3007 12.3225 31.0096Q12.4883 30.7186 12.7706 30.5528Q13.0528 30.387 13.3879 30.387Q13.5996 30.387 13.7989 30.4505Q13.9982 30.514 14.1605 30.6269Q14.1923 30.6516 14.1923 30.6833ZM16.1043 32.8211Q16.1043 32.8529 16.0831 32.8723Q16.062 32.8917 16.0338 32.8917H14.7391Q14.7073 32.8917 14.6879 32.8705Q14.6685 32.8494 14.6685 32.8211V30.4928Q14.6685 30.4646 14.6897 30.4434Q14.7108 30.4222 14.7426 30.4222Q14.7743 30.4222 14.7955 30.4434Q14.8167 30.4646 14.8167 30.4928V32.7506H16.0338Q16.062 32.7506 16.0831 32.7717Q16.1043 32.7929 16.1043 32.8211ZM18.3056 32.8176Q18.3056 32.8494 18.2862 32.8688Q18.2668 32.8882 18.2386 32.8882Q18.2174 32.8882 18.2069 32.8811Q18.1116 32.8282 18.0552 32.703Q17.9987 32.5777 17.9987 32.292Q17.9987 32.0027 17.8435 31.8951Q17.6883 31.7875 17.4837 31.7875H16.6582V32.8211Q16.6582 32.8494 16.637 32.8705Q16.6158 32.8917 16.5841 32.8917Q16.5523 32.8917 16.5312 32.8705Q16.51 32.8494 16.51 32.8211V30.4928Q16.51 30.4646 16.5312 30.4434Q16.5523 30.4222 16.5806 30.4222H17.5119Q17.7165 30.4222 17.8753 30.5051Q18.034 30.5881 18.1222 30.7327Q18.2104 30.8773 18.2104 31.0608Q18.2104 31.2971 18.0852 31.4665Q17.9599 31.6358 17.7588 31.6958Q17.9282 31.7487 18.0375 31.9057Q18.1469 32.0627 18.1469 32.292Q18.1469 32.5283 18.1769 32.6218Q18.2069 32.7153 18.2668 32.7541Q18.3056 32.7788 18.3056 32.8176ZM17.5295 31.6464Q17.7518 31.6252 17.907 31.47Q18.0622 31.3148 18.0622 31.0643Q18.0622 30.8456 17.907 30.7045Q17.7518 30.5634 17.4943 30.5634H16.6582V31.6464Z" style="stroke:#000000;stroke-width:0.25;stroke-linecap:round;stroke-linejoin:bevel" />
        <path d="M 6.24,35.14 L 24.24,35.14 z " style="stroke:#000000;stroke-width:0.25;stroke-linecap:round;stroke-linejoin:bevel;stroke-dasharray:none" />
        <path d="M9.93599 43.9605Q9.93599 43.9922 9.91658 44.0116Q9.89718 44.031 9.86896 44.031Q9.84779 44.031 9.83721 44.024Q9.74196 43.971 9.68551 43.8458Q9.62907 43.7206 9.62907 43.4348Q9.62907 43.1455 9.47385 43.038Q9.31863 42.9304 9.11401 42.9304H8.28851V43.964Q8.28851 43.9922 8.26735 44.0134Q8.24618 44.0345 8.21443 44.0345Q8.18268 44.0345 8.16151 44.0134Q8.14035 43.9922 8.14035 43.964V41.6357Q8.14035 41.6074 8.16151 41.5863Q8.18268 41.5651 8.2109 41.5651H9.14224Q9.34685 41.5651 9.5056 41.648Q9.66435 41.7309 9.75254 41.8755Q9.84074 42.0202 9.84074 42.2036Q9.84074 42.44 9.7155 42.6093Q9.59026 42.7787 9.38918 42.8386Q9.55851 42.8915 9.66788 43.0485Q9.77724 43.2055 9.77724 43.4348Q9.77724 43.6712 9.80722 43.7647Q9.83721 43.8582 9.89718 43.897Q9.93599 43.9217 9.93599 43.9605ZM9.15988 42.7892Q9.38213 42.7681 9.53735 42.6129Q9.69257 42.4576 9.69257 42.2072Q9.69257 41.9884 9.53735 41.8473Q9.38213 41.7062 9.1246 41.7062H8.28851V42.7892ZM11.9539 43.964Q11.9539 43.9957 11.9327 44.0151Q11.9115 44.0345 11.8833 44.0345H10.5533Q10.5251 44.0345 10.504 44.0134Q10.4828 43.9922 10.4828 43.964V41.6357Q10.4828 41.6074 10.504 41.5863Q10.5251 41.5651 10.5533 41.5651H11.8833Q11.9115 41.5651 11.9327 41.5863Q11.9539 41.6074 11.9539 41.6357Q11.9539 41.6674 11.9327 41.6868Q11.9115 41.7062 11.8833 41.7062H10.631V42.6905H11.7246Q11.7528 42.6905 11.774 42.7116Q11.7951 42.7328 11.7951 42.761Q11.7951 42.7928 11.774 42.8122Q11.7528 42.8316 11.7246 42.8316H10.631V43.8934H11.8833Q11.9115 43.8934 11.9327 43.9146Q11.9539 43.9358 11.9539 43.964ZM14.067 42.2389Q14.067 42.4365 13.9841 42.597Q13.9012 42.7575 13.7495 42.8475Q13.5978 42.9374 13.4003 42.9374H12.6312V43.964Q12.6312 43.9922 12.6083 44.0134Q12.5853 44.0345 12.5571 44.0345Q12.5254 44.0345 12.5042 44.0134Q12.483 43.9922 12.483 43.964V41.6357Q12.483 41.6074 12.5042 41.5863Q12.5254 41.5651 12.5536 41.5651H13.4003Q13.7001 41.5651 13.8836 41.7521Q14.067 41.939 14.067 42.2389ZM13.9188 42.2389Q13.9188 41.9955 13.7795 41.8509Q13.6402 41.7062 13.4003 41.7062H12.6312V42.7963H13.4003Q13.6366 42.7963 13.7777 42.6393Q13.9188 42.4823 13.9188 42.2389ZM16.0143 43.964Q16.0143 43.9957 15.9932 44.0151Q15.972 44.0345 15.9438 44.0345H14.6491Q14.6173 44.0345 14.5979 44.0134Q14.5785 43.9922 14.5785 43.964V41.6357Q14.5785 41.6074 14.5997 41.5863Q14.6209 41.5651 14.6526 41.5651Q14.6844 41.5651 14.7055 41.5863Q14.7267 41.6074 14.7267 41.6357V43.8934H15.9438Q15.972 43.8934 15.9932 43.9146Q16.0143 43.9358 16.0143 43.964ZM18.2333 43.9675Q18.2333 43.9993 18.2122 44.0169Q18.191 44.0345 18.1592 44.0345Q18.1345 44.0345 18.1151 44.0222Q18.0957 44.0099 18.0887 43.9887L17.7923 43.262L17.7959 43.269H16.6141L16.3283 43.9887Q16.3107 44.0345 16.2648 44.0345Q16.2331 44.0345 16.2137 44.0169Q16.1943 43.9993 16.1907 43.9746Q16.1872 43.9605 16.1943 43.9393L17.1432 41.6039Q17.1538 41.5757 17.1697 41.5669Q17.1856 41.558 17.2103 41.558Q17.2632 41.558 17.2808 41.6039L18.2298 43.9393Q18.2333 43.9499 18.2333 43.9675ZM16.6705 43.1279H17.7394L17.1997 41.7979ZM20.5687 41.8262Q20.5687 41.8544 20.5546 41.872Q20.5334 41.9002 20.5017 41.9002Q20.4876 41.9002 20.4593 41.8861Q20.1313 41.6639 19.7644 41.6639Q19.468 41.6639 19.2193 41.8103Q18.9706 41.9567 18.826 42.216Q18.6813 42.4753 18.6813 42.7998Q18.6813 43.1244 18.826 43.3837Q18.9706 43.643 19.2193 43.7894Q19.468 43.9358 19.7644 43.9358Q20.1348 43.9358 20.4558 43.717Q20.4735 43.7029 20.4982 43.7029Q20.5334 43.7029 20.5546 43.7312Q20.5687 43.7488 20.5687 43.7735Q20.5687 43.8088 20.5405 43.8299Q20.4029 43.9287 20.1859 43.9993Q19.969 44.0698 19.7644 44.0698Q19.4292 44.0698 19.147 43.904Q18.8648 43.7382 18.699 43.4472Q18.5332 43.1561 18.5332 42.7998Q18.5332 42.4435 18.699 42.1525Q18.8648 41.8614 19.147 41.6956Q19.4292 41.5298 19.7644 41.5298Q19.976 41.5298 20.1754 41.5933Q20.3747 41.6568 20.537 41.7697Q20.5687 41.7944 20.5687 41.8262ZM22.516 43.964Q22.516 43.9957 22.4949 44.0151Q22.4737 44.0345 22.4455 44.0345H21.1155Q21.0873 44.0345 21.0661 44.0134Q21.045 43.9922 21.045 43.964V41.6357Q21.045 41.6074 21.0661 41.5863Q21.0873 41.5651 21.1155 41.5651H22.4455Q22.4737 41.5651 22.4949 41.5863Q22.516 41.6074 22.516 41.6357Q22.516 41.6674 22.4949 41.6868Q22.4737 41.7062 22.4455 41.7062H21.1931V42.6905H22.2867Q22.315 42.6905 22.3361 42.7116Q22.3573 42.7328 22.3573 42.761Q22.3573 42.7928 22.3361 42.8122Q22.315 42.8316 22.2867 42.8316H21.1931V43.8934H22.4455Q22.4737 43.8934 22.4949 43.9146Q22.516 43.9358 22.516 43.964Z" style="stroke:#000000;stroke-width:0.25;stroke-linecap:round;stroke-linejoin:bevel" />
        <path d="M 6.24,48.29 L 24.24,48.29 z " style="stroke:#000000;stroke-width:0.25;stroke-linecap:round;stroke-linejoin:bevel;stroke-dasharray:none" />
        <path d="M11.0666 56.5107Q11.0666 56.8317 10.8638 57.0045Q10.6609 57.1774 10.347 57.1774H9.37331Q9.34508 57.1774 9.32392 57.1562Q9.30275 57.1351 9.30275 57.1068V54.7785Q9.30275 54.7503 9.32392 54.7291Q9.34508 54.708 9.37331 54.708H10.3223Q10.6045 54.708 10.7738 54.8702Q10.9432 55.0325 10.9432 55.3077Q10.9432 55.5052 10.8444 55.6658Q10.7456 55.8263 10.5692 55.8862Q10.795 55.9286 10.9308 56.0908Q11.0666 56.2531 11.0666 56.5107ZM10.3046 54.8491H9.45092V55.8404H10.3046Q10.5234 55.8368 10.6592 55.6975Q10.795 55.5582 10.795 55.3042Q10.795 55.096 10.6662 54.9725Q10.5375 54.8491 10.3046 54.8491ZM10.9185 56.5107Q10.9185 56.2496 10.7562 56.1173Q10.5939 55.985 10.3293 55.985H9.45092V57.0363H10.3293Q10.5939 57.0363 10.7562 56.904Q10.9185 56.7717 10.9185 56.5107ZM13.3914 57.1033Q13.3914 57.1351 13.372 57.1545Q13.3526 57.1739 13.3244 57.1739Q13.3033 57.1739 13.2927 57.1668Q13.1974 57.1139 13.141 56.9887Q13.0845 56.8634 13.0845 56.5777Q13.0845 56.2884 12.9293 56.1808Q12.7741 56.0732 12.5695 56.0732H11.744V57.1068Q11.744 57.1351 11.7228 57.1562Q11.7016 57.1774 11.6699 57.1774Q11.6381 57.1774 11.617 57.1562Q11.5958 57.1351 11.5958 57.1068V54.7785Q11.5958 54.7503 11.617 54.7291Q11.6381 54.708 11.6664 54.708H12.5977Q12.8023 54.708 12.9611 54.7909Q13.1198 54.8738 13.208 55.0184Q13.2962 55.163 13.2962 55.3465Q13.2962 55.5828 13.171 55.7522Q13.0457 55.9215 12.8446 55.9815Q13.014 56.0344 13.1233 56.1914Q13.2327 56.3484 13.2327 56.5777Q13.2327 56.814 13.2627 56.9075Q13.2927 57.001 13.3526 57.0398Q13.3914 57.0645 13.3914 57.1033ZM12.6153 55.9321Q12.8376 55.9109 12.9928 55.7557Q13.148 55.6005 13.148 55.35Q13.148 55.1313 12.9928 54.9902Q12.8376 54.8491 12.5801 54.8491H11.744V55.9321ZM14.0123 57.1774Q13.9771 57.1774 13.9577 57.1562Q13.9383 57.1351 13.9383 57.1033V54.782Q13.9383 54.7503 13.9594 54.7291Q13.9806 54.708 14.0123 54.708Q14.0441 54.708 14.0652 54.7291Q14.0864 54.7503 14.0864 54.782V57.1033Q14.0829 57.1351 14.0617 57.1562Q14.0406 57.1774 14.0123 57.1774ZM16.6582 56.0309V56.9163Q16.6582 56.9587 16.6264 56.9798Q16.4641 57.0892 16.2719 57.1509Q16.0796 57.2127 15.8821 57.2127Q15.5187 57.2127 15.2312 57.0486Q14.9437 56.8846 14.7796 56.5953Q14.6156 56.306 14.6156 55.9427Q14.6156 55.5793 14.7796 55.29Q14.9437 55.0008 15.2312 54.8367Q15.5187 54.6727 15.8821 54.6727Q16.0796 54.6727 16.2578 54.7203Q16.4359 54.7679 16.577 54.8632Q16.6088 54.8843 16.6088 54.9232Q16.6088 54.9549 16.5858 54.9743Q16.5629 54.9937 16.5418 54.9937Q16.5241 54.9937 16.4959 54.9796Q16.1996 54.8138 15.8821 54.8138Q15.5575 54.8138 15.3035 54.9584Q15.0495 55.1031 14.9066 55.3606Q14.7637 55.6181 14.7637 55.9427Q14.7637 56.2672 14.9066 56.5248Q15.0495 56.7823 15.3035 56.9269Q15.5575 57.0716 15.8821 57.0716Q16.0443 57.0716 16.2119 57.0204Q16.3795 56.9693 16.5171 56.8846V56.1014H15.8821Q15.8538 56.1014 15.8327 56.0803Q15.8115 56.0591 15.8115 56.0309Q15.8115 55.9991 15.8327 55.9797Q15.8538 55.9603 15.8821 55.9603H16.5876Q16.6194 55.9603 16.6388 55.9815Q16.6582 56.0027 16.6582 56.0309ZM19.0747 54.782V57.1033Q19.0712 57.1351 19.05 57.1562Q19.0288 57.1774 19.0006 57.1774Q18.9653 57.1774 18.9459 57.1562Q18.9265 57.1351 18.9265 57.1033V55.978H17.3884V57.1033Q17.3849 57.1351 17.3637 57.1562Q17.3426 57.1774 17.3143 57.1774Q17.2791 57.1774 17.2597 57.1562Q17.2402 57.1351 17.2402 57.1033V54.782Q17.2402 54.7503 17.2614 54.7291Q17.2826 54.708 17.3143 54.708Q17.3461 54.708 17.3672 54.7291Q17.3884 54.7503 17.3884 54.782V55.8368H18.9265V54.782Q18.9265 54.7503 18.9477 54.7291Q18.9689 54.708 19.0006 54.708Q19.0324 54.708 19.0535 54.7291Q19.0747 54.7503 19.0747 54.782ZM21.4066 54.775Q21.4066 54.8067 21.3872 54.8244Q21.3677 54.842 21.336 54.842H20.5493V57.1068Q20.5493 57.1351 20.5281 57.1562Q20.507 57.1774 20.4787 57.1774Q20.447 57.1774 20.4276 57.1562Q20.4082 57.1351 20.4082 57.1068V54.842H19.6215Q19.5933 54.842 19.5721 54.8226Q19.5509 54.8032 19.5509 54.775Q19.5509 54.7468 19.5721 54.7274Q19.5933 54.708 19.6215 54.708H21.336Q21.3642 54.708 21.3854 54.7274Q21.4066 54.7468 21.4066 54.775Z" style="stroke:#000000;stroke-width:0.25;stroke-linecap:round;stroke-linejoin:bevel" />
        <path d="M 6.24,61.43 L 24.24,61.43 z " style="stroke:#000000;stroke-width:0.25;stroke-linecap:round;stroke-linejoin:bevel;stroke-dasharray:none" />
        <path d="M10.7421 69.0855Q10.7421 69.4348 10.631 69.7135Q10.5198 69.9922 10.2905 70.1562Q10.0612 70.3203 9.71903 70.3203H8.80181Q8.77358 70.3203 8.75242 70.2991Q8.73125 70.2779 8.73125 70.2497V67.9214Q8.73125 67.8932 8.75242 67.872Q8.77358 67.8508 8.80181 67.8508H9.71903Q10.0577 67.8508 10.2888 68.0202Q10.5198 68.1895 10.631 68.4699Q10.7421 68.7504 10.7421 69.0855ZM10.5939 69.0855Q10.5939 68.7857 10.4969 68.537Q10.3999 68.2883 10.197 68.1401Q9.99419 67.9919 9.68375 67.9919H8.87942V70.1792H9.68375Q10.1424 70.1792 10.3681 69.8775Q10.5939 69.5759 10.5939 69.0855ZM12.7423 70.2497Q12.7423 70.2815 12.7212 70.3009Q12.7 70.3203 12.6718 70.3203H11.3418Q11.3136 70.3203 11.2924 70.2991Q11.2712 70.2779 11.2712 70.2497V67.9214Q11.2712 67.8932 11.2924 67.872Q11.3136 67.8508 11.3418 67.8508H12.6718Q12.7 67.8508 12.7212 67.872Q12.7423 67.8932 12.7423 67.9214Q12.7423 67.9531 12.7212 67.9725Q12.7 67.9919 12.6718 67.9919H11.4194V68.9762H12.513Q12.5412 68.9762 12.5624 68.9973Q12.5836 69.0185 12.5836 69.0467Q12.5836 69.0785 12.5624 69.0979Q12.5412 69.1173 12.513 69.1173H11.4194V70.1792H12.6718Q12.7 70.1792 12.7212 70.2003Q12.7423 70.2215 12.7423 70.2497ZM14.8978 67.9178Q14.8978 67.9496 14.8784 67.9672Q14.859 67.9849 14.8272 67.9849H14.0406V70.2497Q14.0406 70.2779 14.0194 70.2991Q13.9982 70.3203 13.97 70.3203Q13.9382 70.3203 13.9188 70.2991Q13.8994 70.2779 13.8994 70.2497V67.9849H13.1127Q13.0845 67.9849 13.0634 67.9655Q13.0422 67.9461 13.0422 67.9178Q13.0422 67.8896 13.0634 67.8702Q13.0845 67.8508 13.1127 67.8508H14.8272Q14.8555 67.8508 14.8766 67.8702Q14.8978 67.8896 14.8978 67.9178ZM17.1909 67.9214V69.4454Q17.1909 69.6923 17.0674 69.9005Q16.9439 70.1086 16.7358 70.2321Q16.5276 70.3555 16.2842 70.3555Q16.0373 70.3555 15.8291 70.2321Q15.621 70.1086 15.4975 69.9005Q15.3741 69.6923 15.3741 69.4454V67.9214Q15.3741 67.8896 15.3952 67.8702Q15.4164 67.8508 15.4481 67.8508Q15.4799 67.8508 15.5011 67.872Q15.5222 67.8932 15.5222 67.9214V69.4454Q15.5222 69.6535 15.6245 69.8299Q15.7268 70.0063 15.9015 70.1104Q16.0761 70.2144 16.2842 70.2144Q16.4924 70.2144 16.667 70.1104Q16.8416 70.0063 16.9457 69.8299Q17.0497 69.6535 17.0497 69.4454V67.9214Q17.0497 67.8932 17.0692 67.872Q17.0886 67.8508 17.1203 67.8508Q17.1521 67.8508 17.1715 67.872Q17.1909 67.8932 17.1909 67.9214ZM19.7485 67.9178V70.2427Q19.7485 70.2815 19.7273 70.3009Q19.7062 70.3203 19.6744 70.3203Q19.6391 70.3203 19.618 70.292L18.0305 68.1225V70.2603Q18.0305 70.285 18.0111 70.3026Q17.9917 70.3203 17.9634 70.3203Q17.9317 70.3203 17.9141 70.3026Q17.8964 70.285 17.8964 70.2603V67.9214Q17.8964 67.8861 17.9158 67.8685Q17.9352 67.8508 17.9599 67.8508Q17.9917 67.8508 18.0128 67.8755L19.6144 70.0592V67.9178Q19.6144 67.8896 19.6338 67.8702Q19.6532 67.8508 19.6815 67.8508Q19.7132 67.8508 19.7309 67.8702Q19.7485 67.8896 19.7485 67.9178ZM21.9251 70.2497Q21.9251 70.2815 21.904 70.3009Q21.8828 70.3203 21.8546 70.3203H20.5246Q20.4964 70.3203 20.4752 70.2991Q20.4541 70.2779 20.4541 70.2497V67.9214Q20.4541 67.8932 20.4752 67.872Q20.4964 67.8508 20.5246 67.8508H21.8546Q21.8828 67.8508 21.904 67.872Q21.9251 67.8932 21.9251 67.9214Q21.9251 67.9531 21.904 67.9725Q21.8828 67.9919 21.8546 67.9919H20.6022V68.9762H21.6958Q21.7241 68.9762 21.7452 68.9973Q21.7664 69.0185 21.7664 69.0467Q21.7664 69.0785 21.7452 69.0979Q21.7241 69.1173 21.6958 69.1173H20.6022V70.1792H21.8546Q21.8828 70.1792 21.904 70.2003Q21.9251 70.2215 21.9251 70.2497Z" style="stroke:#000000;stroke-width:0.25;stroke-linecap:round;stroke-linejoin:bevel" />
        <path d="M 6.24,74.57 L 24.24,74.57 z " style="stroke:#000000;stroke-width:0.25;stroke-linecap:round;stroke-linejoin:bevel;stroke-dasharray:none" />
        <path d="M11.8533 83.128Q11.8322 83.1068 11.8322 83.0751Q11.8322 83.0468 11.8569 83.0204Q11.8816 82.9939 11.9098 82.9939Q11.9415 82.9939 11.9698 83.0257Q12.1073 83.188 12.2961 83.2726Q12.4848 83.3573 12.6929 83.3573Q12.9646 83.3573 13.141 83.2268Q13.3174 83.0962 13.3174 82.881Q13.3138 82.7117 13.2256 82.6023Q13.1374 82.493 13.0087 82.4277Q12.8799 82.3625 12.6577 82.2813Q12.4143 82.1896 12.2784 82.119Q12.1426 82.0485 12.0456 81.918Q11.9486 81.7874 11.9486 81.5758Q11.9486 81.4029 12.0438 81.2618Q12.1391 81.1207 12.3155 81.0395Q12.4919 80.9584 12.7247 80.9584Q12.9328 80.9584 13.1198 81.0342Q13.3068 81.1101 13.4161 81.2477Q13.4514 81.2971 13.4514 81.3218Q13.4514 81.35 13.425 81.3729Q13.3985 81.3958 13.3668 81.3958Q13.3385 81.3958 13.3209 81.3747Q13.2221 81.2477 13.0669 81.1736Q12.9117 81.0995 12.7247 81.0995Q12.4566 81.0995 12.2784 81.2265Q12.1003 81.3535 12.1003 81.5722Q12.1003 81.7239 12.1867 81.8298Q12.2731 81.9356 12.4037 82.0009Q12.5342 82.0661 12.7282 82.1367Q12.9752 82.2249 13.1198 82.299Q13.2644 82.373 13.3667 82.5141Q13.4691 82.6553 13.4691 82.8881Q13.4691 83.0504 13.3738 83.1915Q13.2786 83.3326 13.1004 83.4155Q12.9223 83.4984 12.6929 83.4984Q12.4319 83.4984 12.2379 83.4084Q12.0438 83.3185 11.8533 83.128ZM14.0758 83.4631Q14.0406 83.4631 14.0212 83.442Q14.0018 83.4208 14.0018 83.389V81.0678Q14.0018 81.036 14.0229 81.0148Q14.0441 80.9937 14.0758 80.9937Q14.1076 80.9937 14.1288 81.0148Q14.1499 81.036 14.1499 81.0678V83.389Q14.1464 83.4208 14.1252 83.442Q14.1041 83.4631 14.0758 83.4631ZM16.5911 83.3961Q16.5911 83.4243 16.57 83.4437Q16.5488 83.4631 16.5206 83.4631H14.7849Q14.7532 83.4631 14.7338 83.4402Q14.7144 83.4173 14.7144 83.389Q14.7144 83.3643 14.7285 83.3467L16.3936 81.1277H14.8555Q14.8273 81.1277 14.8061 81.1083Q14.7849 81.0889 14.7849 81.0607Q14.7849 81.0325 14.8061 81.0131Q14.8273 80.9937 14.8555 80.9937H16.5135Q16.5559 80.9937 16.5753 81.0148Q16.5947 81.036 16.5947 81.0642Q16.5947 81.0889 16.5806 81.1066L14.919 83.3291H16.5206Q16.5488 83.3291 16.57 83.3502Q16.5911 83.3714 16.5911 83.3961ZM18.5949 83.3926Q18.5949 83.4243 18.5738 83.4437Q18.5526 83.4631 18.5244 83.4631H17.1944Q17.1662 83.4631 17.145 83.442Q17.1238 83.4208 17.1238 83.3926V81.0642Q17.1238 81.036 17.145 81.0148Q17.1662 80.9937 17.1944 80.9937H18.5244Q18.5526 80.9937 18.5738 81.0148Q18.5949 81.036 18.5949 81.0642Q18.5949 81.096 18.5738 81.1154Q18.5526 81.1348 18.5244 81.1348H17.272V82.119H18.3656Q18.3938 82.119 18.415 82.1402Q18.4362 82.1614 18.4362 82.1896Q18.4362 82.2213 18.415 82.2407Q18.3938 82.2601 18.3656 82.2601H17.272V83.322H18.5244Q18.5526 83.322 18.5738 83.3432Q18.5949 83.3643 18.5949 83.3926Z" style="stroke:#000000;stroke-width:0.25;stroke-linecap:round;stroke-linejoin:bevel" />
        <path d="M 6.24,87.71 L 24.24,87.71 z " style="stroke:#000000;stroke-width:0.25;stroke-linecap:round;stroke-linejoin:bevel;stroke-dasharray:none" />
        <path d="M14.8837 94.2071V96.5354Q14.8837 96.5636 14.8608 96.5848Q14.8378 96.606 14.8096 96.606Q14.7779 96.606 14.7567 96.5848Q14.7355 96.5636 14.7355 96.5354V94.4258L13.8254 95.8016Q13.8077 95.8299 13.776 95.8299Q13.7372 95.8299 13.7195 95.8016L12.8058 94.4223V96.5354Q12.8058 96.5636 12.7847 96.5848Q12.7635 96.606 12.7353 96.606Q12.7035 96.606 12.6841 96.5848Q12.6647 96.5636 12.6647 96.5354V94.2071Q12.6647 94.1824 12.6841 94.1595Q12.7035 94.1365 12.7317 94.1365Q12.7776 94.1365 12.7988 94.1683L13.776 95.6217L14.7532 94.1683Q14.7814 94.1295 14.8202 94.1365Q14.8484 94.1401 14.8661 94.1595Q14.8837 94.1789 14.8837 94.2071ZM15.6633 96.606Q15.6281 96.606 15.6087 96.5848Q15.5892 96.5636 15.5892 96.5319V94.2106Q15.5892 94.1789 15.6104 94.1577Q15.6316 94.1365 15.6633 94.1365Q15.6951 94.1365 15.7162 94.1577Q15.7374 94.1789 15.7374 94.2106V96.5319Q15.7339 96.5636 15.7127 96.5848Q15.6916 96.606 15.6633 96.606ZM18.0446 96.5037Q18.0622 96.5284 18.0622 96.546Q18.0622 96.5778 18.0411 96.5972Q18.0199 96.6166 17.9881 96.6166Q17.9493 96.6166 17.9317 96.5883L17.1238 95.4877L16.3195 96.5883Q16.3019 96.6166 16.2666 96.6166Q16.2348 96.6166 16.2172 96.5972Q16.1996 96.5778 16.1996 96.5566Q16.1996 96.5389 16.2172 96.5107L17.0462 95.3783L16.2101 94.2388Q16.196 94.2212 16.196 94.1965Q16.196 94.1648 16.2172 94.1454Q16.2384 94.1259 16.2666 94.1259Q16.3089 94.1259 16.3266 94.1542L17.1344 95.2584L17.9387 94.1506Q17.9599 94.1224 17.9917 94.1224Q18.0234 94.1224 18.0428 94.1383Q18.0622 94.1542 18.0622 94.1789Q18.0622 94.2036 18.0446 94.2283L17.2156 95.3713Z" style="stroke:#000000;stroke-width:0.25;stroke-linecap:round;stroke-linejoin:bevel" />
        <path d="M 6.24,100.86 L 24.24,100.86 z " style="stroke:#000000;stroke-width:0.25;stroke-linecap:round;stroke-linejoin:bevel;stroke-dasharray:none" />
    </g>
</svg>
