<?xml version="1.0" encoding="utf-8"?>
<svg xmlns="http://www.w3.org/2000/svg" width="30.48mm" height="128.50mm" viewBox="0 0 30.48 128.50">
    <g id="PanelLayer">
        <rect id="border_rect" width="30.48" height="128.5" x="0" y="0" style="display:inline;fill:#4f8df2;fill-opacity:1;fill-rule:nonzero;stroke:#5021d4;stroke-width:0.7;stroke-linecap:round;stroke-linejoin:round;stroke-dasharray:none;stroke-opacity:1;image-rendering:auto" />
        <path id="model_name" d="M7.47113 4.43369V7.77096Q7.47113 8.36081 7.23053 8.79543Q6.98994 9.23005 6.55532 9.46677Q6.12069 9.70348 5.56189 9.70348Q5.25145 9.70348 4.93324 9.62199Q4.61504 9.5405 4.40937 9.41244Q4.2037 9.28438 4.2037 9.15244Q4.2037 9.09035 4.23863 9.05155Q4.27355 9.01274 4.33564 9.01274Q4.38221 9.01274 4.47534 9.09035Q4.58399 9.19901 4.71593 9.25334Q5.09623 9.40856 5.57742 9.40856Q6.30696 9.40856 6.73382 8.95841Q7.16068 8.50827 7.16068 7.77096V7.23545Q6.95113 7.73216 6.51263 7.98051Q6.07413 8.22887 5.59294 8.22887Q5.06518 8.22887 4.63444 7.96111Q4.2037 7.69335 3.95923 7.22769Q3.71475 6.76202 3.71475 6.1877Q3.71475 5.61337 3.95923 5.14771Q4.2037 4.68204 4.63444 4.41816Q5.06518 4.15429 5.59294 4.15429Q6.11293 4.15429 6.54368 4.42981Q6.97442 4.70533 7.16068 5.09338V4.43369Q7.16068 4.3716 7.20337 4.32503Q7.24606 4.27846 7.31591 4.27846Q7.38576 4.27846 7.42844 4.32503Q7.47113 4.3716 7.47113 4.43369ZM7.19173 6.1877Q7.19173 5.67546 6.98606 5.27965Q6.78039 4.88383 6.4195 4.66652Q6.05861 4.44921 5.60846 4.44921Q5.15832 4.44921 4.79743 4.67428Q4.43653 4.89935 4.23086 5.29517Q4.02519 5.69099 4.02519 6.1877Q4.02519 6.68441 4.23086 7.08022Q4.43653 7.47604 4.79743 7.70499Q5.15832 7.93395 5.60846 7.93395Q6.05861 7.93395 6.4195 7.71276Q6.78039 7.49156 6.98606 7.09575Q7.19173 6.69993 7.19173 6.1877ZM12.089 4.43369V7.99604Q12.089 8.05812 12.0424 8.10469Q11.9959 8.15126 11.9338 8.15126Q11.8639 8.15126 11.8212 8.10469Q11.7785 8.05812 11.7785 7.99604V7.29754Q11.5845 7.69335 11.1809 7.96111Q10.7774 8.22887 10.2884 8.22887Q9.77618 8.22887 9.36484 7.96111Q8.9535 7.69335 8.72067 7.22381Q8.48783 6.75426 8.48783 6.17217Q8.48783 5.59785 8.72455 5.13607Q8.96126 4.67428 9.3726 4.41428Q9.78394 4.15429 10.2884 4.15429Q10.7929 4.15429 11.1965 4.41816Q11.6 4.68204 11.7785 5.12443V4.43369Q11.7785 4.3716 11.8212 4.32503Q11.8639 4.27846 11.9338 4.27846Q12.0036 4.27846 12.0463 4.32503Q12.089 4.3716 12.089 4.43369ZM11.8096 6.17217Q11.8096 5.69875 11.6156 5.30293Q11.4215 4.90711 11.0762 4.67816Q10.7308 4.44921 10.3039 4.44921Q9.87707 4.44921 9.5317 4.6704Q9.18633 4.89159 8.99231 5.28353Q8.79828 5.67546 8.79828 6.17217Q8.79828 6.66889 8.99231 7.07246Q9.18633 7.47604 9.52782 7.70499Q9.86931 7.93395 10.3039 7.93395Q10.7308 7.93395 11.0762 7.70499Q11.4215 7.47604 11.6156 7.07246Q11.8096 6.66889 11.8096 6.17217ZM13.5714 8.15126Q13.5015 8.15126 13.4588 8.10469Q13.4161 8.05812 13.4161 7.99604V2.56326Q13.4161 2.50117 13.4627 2.4546Q13.5093 2.40804 13.5714 2.40804Q13.6412 2.40804 13.6839 2.4546Q13.7266 2.50117 13.7266 2.56326V7.99604Q13.7266 8.05812 13.68 8.10469Q13.6335 8.15126 13.5714 8.15126ZM18.3833 4.43369V7.99604Q18.3833 8.05812 18.3367 8.10469Q18.2901 8.15126 18.228 8.15126Q18.1582 8.15126 18.1155 8.10469Q18.0728 8.05812 18.0728 7.99604V7.29754Q17.8788 7.69335 17.4752 7.96111Q17.0716 8.22887 16.5827 8.22887Q16.0704 8.22887 15.6591 7.96111Q15.2478 7.69335 15.0149 7.22381Q14.7821 6.75426 14.7821 6.17217Q14.7821 5.59785 15.0188 5.13607Q15.2555 4.67428 15.6669 4.41428Q16.0782 4.15429 16.5827 4.15429Q17.0871 4.15429 17.4907 4.41816Q17.8943 4.68204 18.0728 5.12443V4.43369Q18.0728 4.3716 18.1155 4.32503Q18.1582 4.27846 18.228 4.27846Q18.2979 4.27846 18.3406 4.32503Q18.3833 4.3716 18.3833 4.43369ZM18.1039 6.17217Q18.1039 5.69875 17.9098 5.30293Q17.7158 4.90711 17.3704 4.67816Q17.0251 4.44921 16.5982 4.44921Q16.1713 4.44921 15.826 4.6704Q15.4806 4.89159 15.2866 5.28353Q15.0925 5.67546 15.0925 6.17217Q15.0925 6.66889 15.2866 7.07246Q15.4806 7.47604 15.8221 7.70499Q16.1636 7.93395 16.5982 7.93395Q17.0251 7.93395 17.3704 7.70499Q17.7158 7.47604 17.9098 7.07246Q18.1039 6.66889 18.1039 6.17217ZM22.4268 7.93395Q22.4578 7.97275 22.4578 8.02708Q22.4578 8.08917 22.4151 8.13574Q22.3725 8.1823 22.3104 8.1823Q22.2405 8.1823 22.1784 8.11245L20.9056 6.45158L19.625 8.12021Q19.5785 8.1823 19.5008 8.1823Q19.4388 8.1823 19.3961 8.1435Q19.3534 8.10469 19.3534 8.03484Q19.3534 7.98051 19.3844 7.94171L20.7193 6.21098L19.3689 4.44921Q19.3379 4.4104 19.3379 4.35608Q19.3379 4.28622 19.3883 4.23966Q19.4388 4.19309 19.5008 4.19309Q19.5785 4.19309 19.625 4.26294L20.9134 5.9471L22.1784 4.26294Q22.2405 4.19309 22.3104 4.19309Q22.3802 4.19309 22.419 4.2319Q22.4578 4.2707 22.4578 4.32503Q22.4578 4.3716 22.419 4.42592L21.0996 6.19546ZM26.4936 4.30951V7.77096Q26.4936 8.35305 26.2569 8.79155Q26.0202 9.23005 25.605 9.46677Q25.1897 9.70348 24.662 9.70348Q24.3205 9.70348 24.0372 9.62199Q23.7539 9.5405 23.5599 9.40856Q23.4202 9.31542 23.4745 9.19901Q23.5289 9.10587 23.6065 9.10587Q23.6453 9.10587 23.6763 9.12916Q23.8626 9.24557 24.1226 9.33483Q24.3826 9.42408 24.6775 9.42408Q25.1199 9.42408 25.4614 9.21453Q25.8029 9.00498 25.993 8.62857Q26.1832 8.25215 26.1832 7.77096V7.42171Q26.0047 7.77096 25.6127 7.99992Q25.2208 8.22887 24.8017 8.22887Q24.1032 8.22887 23.7617 7.82917Q23.4202 7.42948 23.4202 6.73097V4.30951Q23.4202 4.24742 23.4629 4.20085Q23.5056 4.15429 23.5754 4.15429Q23.6453 4.15429 23.688 4.20085Q23.7307 4.24742 23.7307 4.30951V6.73097Q23.7307 7.93395 24.8017 7.93395Q25.1354 7.93395 25.4575 7.75932Q25.7796 7.5847 25.9814 7.3053Q26.1832 7.0259 26.1832 6.73097V4.30951Q26.1832 4.24742 26.2259 4.20085Q26.2685 4.15429 26.3384 4.15429Q26.4082 4.15429 26.4509 4.20085Q26.4936 4.24742 26.4936 4.30951Z" style="display:inline;stroke:#000000;stroke-width:0.35;stroke-linecap:round;stroke-linejoin:bevel" />
        <path id="sapphire_gemstone" d="m 17.955,122.900 q 0,0.34175 -0.242534,0.63114 -0.0441,0.0524 -0.20395,0.21497 -0.187413,0.19017 -0.785481,0.81304 l -1.444183,1.51309 q -0.01929,0.003 -0.0441,0.003 -0.02756,0 -0.04134,-0.003 -0.08268,-0.0827 -0.647678,-0.67524 -0.468532,-0.47404 -0.934309,-0.94809 -0.556727,-0.56775 -0.89848,-0.98116 -0.132292,-0.15985 -0.168121,-0.29766 -0.02756,-0.10197 -0.02756,-0.34175 0,-0.11024 0.07166,-0.28939 0.06614,-0.16536 0.140559,-0.26458 0.118512,-0.1571 0.42168,-0.42444 0.283875,-0.2508 0.474044,-0.37482 0.272852,-0.17915 0.818555,-0.36656 0.09646,-0.0331 0.110243,-0.0331 h 1.3615 q 0.01102,0 0.104731,0.0331 0.567751,0.20119 0.824066,0.36656 0.165365,0.10473 0.474045,0.37758 0.322461,0.28388 0.421679,0.42168 0.214974,0.2949 0.214974,0.62563 z m -0.16812,-0.27285 q -0.03307,-0.10749 -0.135048,-0.30868 -0.07166,-0.0937 -0.209462,-0.19844 -0.118511,-0.0854 -0.234266,-0.17088 0.245291,0.3638 0.578776,0.678 z m -0.573264,-0.52366 -0.358289,-0.44648 v 0.41065 z m 0.636653,0.75792 q 0,-0.0524 -0.341753,-0.39412 l 0.228754,0.7028 h 0.04961 q 0.06339,-0.21773 0.06339,-0.30868 z m -0.23151,0.27285 -0.316948,-0.90399 -0.410655,-0.0634 -0.159853,0.61461 z m 0.0028,0.15434 -0.771701,-0.3197 h -0.03032 l 0.344509,0.60634 q 0.07993,-0.003 0.234266,-0.0469 0.02481,-0.0138 0.223242,-0.23978 z m -0.857139,-1.05006 -0.719335,0.28388 0.60358,0.22599 z m 0,-0.16261 v -0.51538 l -0.917773,-0.38034 h -1.223697 l -0.917772,0.38034 v 0.51538 l 0.89848,0.4079 h 1.254014 z m 0.573264,1.53789 q -0.0689,0.011 -0.198438,0.0524 -0.08544,0.0551 -0.259071,0.16261 0.01929,0 0.06339,0.003 0.04134,0 0.06339,0 0.118511,0 0.190169,-0.0689 0.07166,-0.0717 0.14056,-0.14883 z m -0.289388,0.003 -0.347266,-0.63114 -0.363801,0.87918 q 0.0248,-0.0165 0.06615,-0.0165 0.03032,0 0.08544,0.011 0.05788,0.008 0.08819,0.008 0.04961,0 0.228754,-0.10749 0.228754,-0.1378 0.242535,-0.14331 z m -0.440972,-0.74139 -0.683507,-0.2756 -0.592556,0.54845 0.903993,0.65595 z m -0.854383,-0.28387 h -1.036284 l 0.523654,0.47404 z m 0.749652,1.36701 q -0.228754,-0.0303 -0.228754,-0.0303 -0.03583,0 -0.272851,0.0937 l 0.190169,0.0193 q 0.01102,0 0.311436,-0.0827 z m -0.388606,-0.0882 -0.843359,-0.61185 v 0.67524 l 0.471289,0.0827 z m 0.854383,0.0496 q -0.09922,0.006 -0.2949,0.0386 -0.01102,0.003 -0.377583,0.17639 -0.129535,0.34726 -0.380338,1.0418 z m -2.543857,-1.39733 -0.719335,-0.28388 0.124023,0.51814 z m -0.802018,-0.45476 v -0.41065 l -0.366557,0.44648 z m 1.515841,1.07212 -0.592556,-0.54019 -0.683506,0.2756 0.380338,0.9288 z m 0.369314,0.94257 q -0.03307,-0.003 -0.135047,-0.0248 -0.08544,-0.0165 -0.137804,-0.0165 -0.05237,0 -0.137804,0.0165 -0.101975,0.0221 -0.135047,0.0248 0.264583,0.0469 0.272851,0.0469 0.0083,0 0.272851,-0.0469 z m -0.30868,-0.1378 v -0.68626 l -0.843359,0.61185 0.37207,0.14607 z m 0.950846,0.20671 -0.396875,-0.0551 -0.479557,0.14056 v 1.27607 z m -2.888366,-2.20211 q -0.118512,0.0854 -0.234267,0.17364 -0.146072,0.10748 -0.209461,0.19568 -0.0441,0.10473 -0.135048,0.31419 0.369314,-0.3638 0.578776,-0.68351 z m 0.476801,0.83234 -0.159853,-0.61461 -0.410655,0.0634 -0.316948,0.90399 z m 0.394118,1.08313 -0.363802,-0.87918 -0.355533,0.63114 q 0.43546,0.2508 0.451996,0.2508 0.09095,0 0.267339,-0.003 z m 1.821765,0.82958 q -0.132291,0.21222 -0.405143,0.6339 -0.07717,0.10749 -0.220486,0.32797 -0.05788,0.10473 -0.05512,0.226 0.159852,-0.15158 0.432704,-0.49609 0.07717,-0.12954 0.140559,-0.339 0.05512,-0.17639 0.107486,-0.35278 z m -1.493792,-0.66146 -0.270095,-0.0882 -0.0083,-0.011 q -0.02481,0 -0.107487,0.011 -0.06615,0.006 -0.107487,0.006 0.272851,0.091 0.311436,0.091 0.02481,0 0.181901,-0.008 z m -0.810286,-1.06384 h -0.03032 l -0.7717,0.3197 q 0.06615,0.0965 0.223242,0.23978 0.07717,0.0138 0.234266,0.0469 z m -0.689018,-0.50161 q -0.341754,0.34727 -0.341754,0.39412 0,0.0799 0.06339,0.30868 h 0.04961 z m 2.235176,3.04547 v -1.27607 l -0.479557,-0.14056 -0.396875,0.0551 z m -1.606791,-1.6757 q -0.256315,-0.1819 -0.457509,-0.22324 0.06615,0.0772 0.20395,0.22324 z m 1.609547,2.04501 v -0.1378 l -0.683507,-1.05007 q 0.05237,0.17639 0.107487,0.35278 0.06339,0.20946 0.14056,0.339 0.0689,0.11851 0.20395,0.25907 0.115755,0.11851 0.23151,0.23702 z m -0.644921,-0.70555 q -0.115756,-0.32798 -0.380339,-1.0418 -0.135047,-0.0662 -0.272851,-0.12954 -0.159852,-0.0716 -0.289388,-0.0716 -0.05237,0 -0.110243,-0.0138 z" style="stroke-width:0;fill:#0000ff;stroke:#2e2114;stroke-linecap:square;stroke-opacity:1" />
        <path d="M9.93599 26.6747Q9.93599 26.7065 9.91658 26.7259Q9.89718 26.7453 9.86896 26.7453Q9.84779 26.7453 9.83721 26.7383Q9.74196 26.6853 9.68551 26.5601Q9.62907 26.4349 9.62907 26.1491Q9.62907 25.8598 9.47385 25.7522Q9.31863 25.6446 9.11401 25.6446H8.28851V26.6783Q8.28851 26.7065 8.26735 26.7277Q8.24618 26.7488 8.21443 26.7488Q8.18268 26.7488 8.16151 26.7277Q8.14035 26.7065 8.14035 26.6783V24.3499Q8.14035 24.3217 8.16151 24.3006Q8.18268 24.2794 8.2109 24.2794H9.14224Q9.34685 24.2794 9.5056 24.3623Q9.66435 24.4452 9.75254 24.5898Q9.84074 24.7345 9.84074 24.9179Q9.84074 25.1543 9.7155 25.3236Q9.59026 25.4929 9.38918 25.5529Q9.55851 25.6058 9.66788 25.7628Q9.77724 25.9198 9.77724 26.1491Q9.77724 26.3855 9.80722 26.479Q9.83721 26.5724 9.89718 26.6113Q9.93599 26.6359 9.93599 26.6747ZM9.15988 25.5035Q9.38213 25.4824 9.53735 25.3271Q9.69257 25.1719 9.69257 24.9214Q9.69257 24.7027 9.53735 24.5616Q9.38213 24.4205 9.1246 24.4205H8.28851V25.5035ZM11.9539 26.6783Q11.9539 26.71 11.9327 26.7294Q11.9115 26.7488 11.8833 26.7488H10.5533Q10.5251 26.7488 10.504 26.7277Q10.4828 26.7065 10.4828 26.6783V24.3499Q10.4828 24.3217 10.504 24.3006Q10.5251 24.2794 10.5533 24.2794H11.8833Q11.9115 24.2794 11.9327 24.3006Q11.9539 24.3217 11.9539 24.3499Q11.9539 24.3817 11.9327 24.4011Q11.9115 24.4205 11.8833 24.4205H10.631V25.4047H11.7246Q11.7528 25.4047 11.774 25.4259Q11.7951 25.4471 11.7951 25.4753Q11.7951 25.5071 11.774 25.5265Q11.7528 25.5459 11.7246 25.5459H10.631V26.6077H11.8833Q11.9115 26.6077 11.9327 26.6289Q11.9539 26.6501 11.9539 26.6783ZM14.067 24.9532Q14.067 25.1508 13.9841 25.3113Q13.9012 25.4718 13.7495 25.5617Q13.5978 25.6517 13.4003 25.6517H12.6312V26.6783Q12.6312 26.7065 12.6083 26.7277Q12.5853 26.7488 12.5571 26.7488Q12.5254 26.7488 12.5042 26.7277Q12.483 26.7065 12.483 26.6783V24.3499Q12.483 24.3217 12.5042 24.3006Q12.5254 24.2794 12.5536 24.2794H13.4003Q13.7001 24.2794 13.8836 24.4664Q14.067 24.6533 14.067 24.9532ZM13.9188 24.9532Q13.9188 24.7098 13.7795 24.5651Q13.6402 24.4205 13.4003 24.4205H12.6312V25.5106H13.4003Q13.6366 25.5106 13.7777 25.3536Q13.9188 25.1966 13.9188 24.9532ZM16.0143 26.6783Q16.0143 26.71 15.9932 26.7294Q15.972 26.7488 15.9438 26.7488H14.6491Q14.6173 26.7488 14.5979 26.7277Q14.5785 26.7065 14.5785 26.6783V24.3499Q14.5785 24.3217 14.5997 24.3006Q14.6209 24.2794 14.6526 24.2794Q14.6844 24.2794 14.7055 24.3006Q14.7267 24.3217 14.7267 24.3499V26.6077H15.9438Q15.972 26.6077 15.9932 26.6289Q16.0143 26.6501 16.0143 26.6783ZM18.2333 26.6818Q18.2333 26.7136 18.2122 26.7312Q18.191 26.7488 18.1592 26.7488Q18.1345 26.7488 18.1151 26.7365Q18.0957 26.7241 18.0887 26.703L17.7923 25.9763L17.7959 25.9833H16.6141L16.3283 26.703Q16.3107 26.7488 16.2648 26.7488Q16.2331 26.7488 16.2137 26.7312Q16.1943 26.7136 16.1907 26.6889Q16.1872 26.6747 16.1943 26.6536L17.1432 24.3182Q17.1538 24.29 17.1697 24.2812Q17.1856 24.2723 17.2103 24.2723Q17.2632 24.2723 17.2808 24.3182L18.2298 26.6536Q18.2333 26.6642 18.2333 26.6818ZM16.6705 25.8422H17.7394L17.1997 24.5122ZM20.5687 24.5404Q20.5687 24.5687 20.5546 24.5863Q20.5334 24.6145 20.5017 24.6145Q20.4876 24.6145 20.4593 24.6004Q20.1313 24.3782 19.7644 24.3782Q19.468 24.3782 19.2193 24.5246Q18.9706 24.671 18.826 24.9303Q18.6813 25.1896 18.6813 25.5141Q18.6813 25.8387 18.826 26.098Q18.9706 26.3573 19.2193 26.5037Q19.468 26.6501 19.7644 26.6501Q20.1348 26.6501 20.4558 26.4313Q20.4735 26.4172 20.4982 26.4172Q20.5334 26.4172 20.5546 26.4454Q20.5687 26.4631 20.5687 26.4878Q20.5687 26.5231 20.5405 26.5442Q20.4029 26.643 20.1859 26.7136Q19.969 26.7841 19.7644 26.7841Q19.4292 26.7841 19.147 26.6183Q18.8648 26.4525 18.699 26.1615Q18.5332 25.8704 18.5332 25.5141Q18.5332 25.1578 18.699 24.8668Q18.8648 24.5757 19.147 24.4099Q19.4292 24.2441 19.7644 24.2441Q19.976 24.2441 20.1754 24.3076Q20.3747 24.3711 20.537 24.484Q20.5687 24.5087 20.5687 24.5404ZM22.516 26.6783Q22.516 26.71 22.4949 26.7294Q22.4737 26.7488 22.4455 26.7488H21.1155Q21.0873 26.7488 21.0661 26.7277Q21.045 26.7065 21.045 26.6783V24.3499Q21.045 24.3217 21.0661 24.3006Q21.0873 24.2794 21.1155 24.2794H22.4455Q22.4737 24.2794 22.4949 24.3006Q22.516 24.3217 22.516 24.3499Q22.516 24.3817 22.4949 24.4011Q22.4737 24.4205 22.4455 24.4205H21.1931V25.4047H22.2867Q22.315 25.4047 22.3361 25.4259Q22.3573 25.4471 22.3573 25.4753Q22.3573 25.5071 22.3361 25.5265Q22.315 25.5459 22.2867 25.5459H21.1931V26.6077H22.4455Q22.4737 26.6077 22.4949 26.6289Q22.516 26.6501 22.516 26.6783Z" style="stroke:#000000;stroke-width:0.25;stroke-linecap:round;stroke-linejoin:bevel" />
        <path d="M11.0666 42.0821Q11.0666 42.4031 10.8638 42.576Q10.6609 42.7488 10.347 42.7488H9.37331Q9.34508 42.7488 9.32392 42.7277Q9.30275 42.7065 9.30275 42.6783V40.3499Q9.30275 40.3217 9.32392 40.3006Q9.34508 40.2794 9.37331 40.2794H10.3223Q10.6045 40.2794 10.7738 40.4417Q10.9432 40.6039 10.9432 40.8791Q10.9432 41.0767 10.8444 41.2372Q10.7456 41.3977 10.5692 41.4577Q10.795 41.5 10.9308 41.6623Q11.0666 41.8246 11.0666 42.0821ZM10.3046 40.4205H9.45092V41.4118H10.3046Q10.5234 41.4083 10.6592 41.2689Q10.795 41.1296 10.795 40.8756Q10.795 40.6674 10.6662 40.544Q10.5375 40.4205 10.3046 40.4205ZM10.9185 42.0821Q10.9185 41.821 10.7562 41.6887Q10.5939 41.5564 10.3293 41.5564H9.45092V42.6077H10.3293Q10.5939 42.6077 10.7562 42.4754Q10.9185 42.3431 10.9185 42.0821ZM13.3914 42.6747Q13.3914 42.7065 13.372 42.7259Q13.3526 42.7453 13.3244 42.7453Q13.3033 42.7453 13.2927 42.7382Q13.1974 42.6853 13.141 42.5601Q13.0845 42.4349 13.0845 42.1491Q13.0845 41.8598 12.9293 41.7522Q12.7741 41.6446 12.5695 41.6446H11.744V42.6783Q11.744 42.7065 11.7228 42.7277Q11.7016 42.7488 11.6699 42.7488Q11.6381 42.7488 11.617 42.7277Q11.5958 42.7065 11.5958 42.6783V40.3499Q11.5958 40.3217 11.617 40.3006Q11.6381 40.2794 11.6664 40.2794H12.5977Q12.8023 40.2794 12.9611 40.3623Q13.1198 40.4452 13.208 40.5898Q13.2962 40.7345 13.2962 40.9179Q13.2962 41.1543 13.171 41.3236Q13.0457 41.4929 12.8446 41.5529Q13.014 41.6058 13.1233 41.7628Q13.2327 41.9198 13.2327 42.1491Q13.2327 42.3855 13.2627 42.479Q13.2927 42.5724 13.3526 42.6112Q13.3914 42.6359 13.3914 42.6747ZM12.6153 41.5035Q12.8376 41.4824 12.9928 41.3271Q13.148 41.1719 13.148 40.9214Q13.148 40.7027 12.9928 40.5616Q12.8376 40.4205 12.5801 40.4205H11.744V41.5035ZM14.0123 42.7488Q13.9771 42.7488 13.9577 42.7277Q13.9383 42.7065 13.9383 42.6747V40.3535Q13.9383 40.3217 13.9594 40.3006Q13.9806 40.2794 14.0123 40.2794Q14.0441 40.2794 14.0652 40.3006Q14.0864 40.3217 14.0864 40.3535V42.6747Q14.0829 42.7065 14.0617 42.7277Q14.0406 42.7488 14.0123 42.7488ZM16.6582 41.6023V42.4878Q16.6582 42.5301 16.6264 42.5513Q16.4641 42.6606 16.2719 42.7224Q16.0796 42.7841 15.8821 42.7841Q15.5187 42.7841 15.2312 42.6201Q14.9437 42.456 14.7796 42.1667Q14.6156 41.8775 14.6156 41.5141Q14.6156 41.1507 14.7796 40.8615Q14.9437 40.5722 15.2312 40.4082Q15.5187 40.2441 15.8821 40.2441Q16.0796 40.2441 16.2578 40.2917Q16.4359 40.3394 16.577 40.4346Q16.6088 40.4558 16.6088 40.4946Q16.6088 40.5263 16.5858 40.5457Q16.5629 40.5651 16.5418 40.5651Q16.5241 40.5651 16.4959 40.551Q16.1996 40.3852 15.8821 40.3852Q15.5575 40.3852 15.3035 40.5299Q15.0495 40.6745 14.9066 40.932Q14.7637 41.1896 14.7637 41.5141Q14.7637 41.8387 14.9066 42.0962Q15.0495 42.3537 15.3035 42.4984Q15.5575 42.643 15.8821 42.643Q16.0443 42.643 16.2119 42.5918Q16.3795 42.5407 16.5171 42.456V41.6729H15.8821Q15.8538 41.6729 15.8327 41.6517Q15.8115 41.6305 15.8115 41.6023Q15.8115 41.5706 15.8327 41.5512Q15.8538 41.5317 15.8821 41.5317H16.5876Q16.6194 41.5317 16.6388 41.5529Q16.6582 41.5741 16.6582 41.6023ZM19.0747 40.3535V42.6747Q19.0712 42.7065 19.05 42.7277Q19.0288 42.7488 19.0006 42.7488Q18.9653 42.7488 18.9459 42.7277Q18.9265 42.7065 18.9265 42.6747V41.5494H17.3884V42.6747Q17.3849 42.7065 17.3637 42.7277Q17.3426 42.7488 17.3143 42.7488Q17.2791 42.7488 17.2597 42.7277Q17.2402 42.7065 17.2402 42.6747V40.3535Q17.2402 40.3217 17.2614 40.3006Q17.2826 40.2794 17.3143 40.2794Q17.3461 40.2794 17.3672 40.3006Q17.3884 40.3217 17.3884 40.3535V41.4083H18.9265V40.3535Q18.9265 40.3217 18.9477 40.3006Q18.9689 40.2794 19.0006 40.2794Q19.0324 40.2794 19.0535 40.3006Q19.0747 40.3217 19.0747 40.3535ZM21.4066 40.3464Q21.4066 40.3782 21.3872 40.3958Q21.3677 40.4134 21.336 40.4134H20.5493V42.6783Q20.5493 42.7065 20.5281 42.7277Q20.507 42.7488 20.4787 42.7488Q20.447 42.7488 20.4276 42.7277Q20.4082 42.7065 20.4082 42.6783V40.4134H19.6215Q19.5933 40.4134 19.5721 40.394Q19.5509 40.3746 19.5509 40.3464Q19.5509 40.3182 19.5721 40.2988Q19.5933 40.2794 19.6215 40.2794H21.336Q21.3642 40.2794 21.3854 40.2988Q21.4066 40.3182 21.4066 40.3464Z" style="stroke:#000000;stroke-width:0.25;stroke-linecap:round;stroke-linejoin:bevel" />
        <path d="M10.7421 57.5141Q10.7421 57.8634 10.631 58.1421Q10.5198 58.4207 10.2905 58.5848Q10.0612 58.7488 9.71903 58.7488H8.80181Q8.77358 58.7488 8.75242 58.7277Q8.73125 58.7065 8.73125 58.6783V56.3499Q8.73125 56.3217 8.75242 56.3006Q8.77358 56.2794 8.80181 56.2794H9.71903Q10.0577 56.2794 10.2888 56.4487Q10.5198 56.6181 10.631 56.8985Q10.7421 57.179 10.7421 57.5141ZM10.5939 57.5141Q10.5939 57.2142 10.4969 56.9655Q10.3999 56.7168 10.197 56.5687Q9.99419 56.4205 9.68375 56.4205H8.87942V58.6077H9.68375Q10.1424 58.6077 10.3681 58.3061Q10.5939 58.0045 10.5939 57.5141ZM12.7423 58.6783Q12.7423 58.71 12.7212 58.7294Q12.7 58.7488 12.6718 58.7488H11.3418Q11.3136 58.7488 11.2924 58.7277Q11.2712 58.7065 11.2712 58.6783V56.3499Q11.2712 56.3217 11.2924 56.3006Q11.3136 56.2794 11.3418 56.2794H12.6718Q12.7 56.2794 12.7212 56.3006Q12.7423 56.3217 12.7423 56.3499Q12.7423 56.3817 12.7212 56.4011Q12.7 56.4205 12.6718 56.4205H11.4194V57.4047H12.513Q12.5412 57.4047 12.5624 57.4259Q12.5836 57.4471 12.5836 57.4753Q12.5836 57.5071 12.5624 57.5265Q12.5412 57.5459 12.513 57.5459H11.4194V58.6077H12.6718Q12.7 58.6077 12.7212 58.6289Q12.7423 58.6501 12.7423 58.6783ZM14.8978 56.3464Q14.8978 56.3782 14.8784 56.3958Q14.859 56.4134 14.8272 56.4134H14.0406V58.6783Q14.0406 58.7065 14.0194 58.7277Q13.9982 58.7488 13.97 58.7488Q13.9382 58.7488 13.9188 58.7277Q13.8994 58.7065 13.8994 58.6783V56.4134H13.1127Q13.0845 56.4134 13.0634 56.394Q13.0422 56.3746 13.0422 56.3464Q13.0422 56.3182 13.0634 56.2988Q13.0845 56.2794 13.1127 56.2794H14.8272Q14.8555 56.2794 14.8766 56.2988Q14.8978 56.3182 14.8978 56.3464ZM17.1909 56.3499V57.8739Q17.1909 58.1209 17.0674 58.329Q16.9439 58.5372 16.7358 58.6606Q16.5276 58.7841 16.2842 58.7841Q16.0373 58.7841 15.8291 58.6606Q15.621 58.5372 15.4975 58.329Q15.3741 58.1209 15.3741 57.8739V56.3499Q15.3741 56.3182 15.3952 56.2988Q15.4164 56.2794 15.4481 56.2794Q15.4799 56.2794 15.5011 56.3006Q15.5222 56.3217 15.5222 56.3499V57.8739Q15.5222 58.0821 15.6245 58.2585Q15.7268 58.4349 15.9015 58.5389Q16.0761 58.643 16.2842 58.643Q16.4924 58.643 16.667 58.5389Q16.8416 58.4349 16.9457 58.2585Q17.0497 58.0821 17.0497 57.8739V56.3499Q17.0497 56.3217 17.0692 56.3006Q17.0886 56.2794 17.1203 56.2794Q17.1521 56.2794 17.1715 56.3006Q17.1909 56.3217 17.1909 56.3499ZM19.7485 56.3464V58.6712Q19.7485 58.71 19.7273 58.7294Q19.7062 58.7488 19.6744 58.7488Q19.6391 58.7488 19.618 58.7206L18.0305 56.551V58.6889Q18.0305 58.7136 18.0111 58.7312Q17.9917 58.7488 17.9634 58.7488Q17.9317 58.7488 17.9141 58.7312Q17.8964 58.7136 17.8964 58.6889V56.3499Q17.8964 56.3147 17.9158 56.297Q17.9352 56.2794 17.9599 56.2794Q17.9917 56.2794 18.0128 56.3041L19.6144 58.4878V56.3464Q19.6144 56.3182 19.6338 56.2988Q19.6532 56.2794 19.6815 56.2794Q19.7132 56.2794 19.7309 56.2988Q19.7485 56.3182 19.7485 56.3464ZM21.9251 58.6783Q21.9251 58.71 21.904 58.7294Q21.8828 58.7488 21.8546 58.7488H20.5246Q20.4964 58.7488 20.4752 58.7277Q20.4541 58.7065 20.4541 58.6783V56.3499Q20.4541 56.3217 20.4752 56.3006Q20.4964 56.2794 20.5246 56.2794H21.8546Q21.8828 56.2794 21.904 56.3006Q21.9251 56.3217 21.9251 56.3499Q21.9251 56.3817 21.904 56.4011Q21.8828 56.4205 21.8546 56.4205H20.6022V57.4047H21.6958Q21.7241 57.4047 21.7452 57.4259Q21.7664 57.4471 21.7664 57.4753Q21.7664 57.5071 21.7452 57.5265Q21.7241 57.5459 21.6958 57.5459H20.6022V58.6077H21.8546Q21.8828 58.6077 21.904 58.6289Q21.9251 58.6501 21.9251 58.6783Z" style="stroke:#000000;stroke-width:0.25;stroke-linecap:round;stroke-linejoin:bevel" />
        <path d="M11.8533 74.4137Q11.8322 74.3925 11.8322 74.3608Q11.8322 74.3326 11.8569 74.3061Q11.8816 74.2796 11.9098 74.2796Q11.9415 74.2796 11.9698 74.3114Q12.1073 74.4737 12.2961 74.5583Q12.4848 74.643 12.6929 74.643Q12.9646 74.643 13.141 74.5125Q13.3174 74.3819 13.3174 74.1668Q13.3138 73.9974 13.2256 73.8881Q13.1374 73.7787 13.0087 73.7134Q12.8799 73.6482 12.6577 73.567Q12.4143 73.4753 12.2784 73.4048Q12.1426 73.3342 12.0456 73.2037Q11.9486 73.0731 11.9486 72.8615Q11.9486 72.6886 12.0438 72.5475Q12.1391 72.4064 12.3155 72.3253Q12.4919 72.2441 12.7247 72.2441Q12.9328 72.2441 13.1198 72.32Q13.3068 72.3958 13.4161 72.5334Q13.4514 72.5828 13.4514 72.6075Q13.4514 72.6357 13.425 72.6586Q13.3985 72.6816 13.3668 72.6816Q13.3385 72.6816 13.3209 72.6604Q13.2221 72.5334 13.0669 72.4593Q12.9117 72.3852 12.7247 72.3852Q12.4566 72.3852 12.2784 72.5122Q12.1003 72.6392 12.1003 72.8579Q12.1003 73.0096 12.1867 73.1155Q12.2731 73.2213 12.4037 73.2866Q12.5342 73.3518 12.7282 73.4224Q12.9752 73.5106 13.1198 73.5847Q13.2644 73.6587 13.3667 73.7999Q13.4691 73.941 13.4691 74.1738Q13.4691 74.3361 13.3738 74.4772Q13.2786 74.6183 13.1004 74.7012Q12.9223 74.7841 12.6929 74.7841Q12.4319 74.7841 12.2379 74.6942Q12.0438 74.6042 11.8533 74.4137ZM14.0758 74.7488Q14.0406 74.7488 14.0212 74.7277Q14.0018 74.7065 14.0018 74.6748V72.3535Q14.0018 72.3217 14.0229 72.3006Q14.0441 72.2794 14.0758 72.2794Q14.1076 72.2794 14.1288 72.3006Q14.1499 72.3217 14.1499 72.3535V74.6748Q14.1464 74.7065 14.1252 74.7277Q14.1041 74.7488 14.0758 74.7488ZM16.5911 74.6818Q16.5911 74.71 16.57 74.7294Q16.5488 74.7488 16.5206 74.7488H14.7849Q14.7532 74.7488 14.7338 74.7259Q14.7144 74.703 14.7144 74.6748Q14.7144 74.6501 14.7285 74.6324L16.3936 72.4134H14.8555Q14.8273 72.4134 14.8061 72.394Q14.7849 72.3746 14.7849 72.3464Q14.7849 72.3182 14.8061 72.2988Q14.8273 72.2794 14.8555 72.2794H16.5135Q16.5559 72.2794 16.5753 72.3006Q16.5947 72.3217 16.5947 72.3499Q16.5947 72.3746 16.5806 72.3923L14.919 74.6148H16.5206Q16.5488 74.6148 16.57 74.6359Q16.5911 74.6571 16.5911 74.6818ZM18.5949 74.6783Q18.5949 74.71 18.5738 74.7294Q18.5526 74.7488 18.5244 74.7488H17.1944Q17.1662 74.7488 17.145 74.7277Q17.1238 74.7065 17.1238 74.6783V72.3499Q17.1238 72.3217 17.145 72.3006Q17.1662 72.2794 17.1944 72.2794H18.5244Q18.5526 72.2794 18.5738 72.3006Q18.5949 72.3217 18.5949 72.3499Q18.5949 72.3817 18.5738 72.4011Q18.5526 72.4205 18.5244 72.4205H17.272V73.4048H18.3656Q18.3938 73.4048 18.415 73.4259Q18.4362 73.4471 18.4362 73.4753Q18.4362 73.5071 18.415 73.5265Q18.3938 73.5459 18.3656 73.5459H17.272V74.6077H18.5244Q18.5526 74.6077 18.5738 74.6289Q18.5949 74.6501 18.5949 74.6783Z" style="stroke:#000000;stroke-width:0.25;stroke-linecap:round;stroke-linejoin:bevel" />
        <path d="M14.8837 88.3499V90.6783Q14.8837 90.7065 14.8608 90.7277Q14.8378 90.7488 14.8096 90.7488Q14.7779 90.7488 14.7567 90.7277Q14.7355 90.7065 14.7355 90.6783V88.5687L13.8254 89.9445Q13.8077 89.9727 13.776 89.9727Q13.7372 89.9727 13.7195 89.9445L12.8058 88.5651V90.6783Q12.8058 90.7065 12.7847 90.7277Q12.7635 90.7488 12.7353 90.7488Q12.7035 90.7488 12.6841 90.7277Q12.6647 90.7065 12.6647 90.6783V88.3499Q12.6647 88.3253 12.6841 88.3023Q12.7035 88.2794 12.7317 88.2794Q12.7776 88.2794 12.7988 88.3111L13.776 89.7646L14.7532 88.3111Q14.7814 88.2723 14.8202 88.2794Q14.8484 88.2829 14.8661 88.3023Q14.8837 88.3217 14.8837 88.3499ZM15.6633 90.7488Q15.6281 90.7488 15.6087 90.7277Q15.5892 90.7065 15.5892 90.6748V88.3535Q15.5892 88.3217 15.6104 88.3006Q15.6316 88.2794 15.6633 88.2794Q15.6951 88.2794 15.7162 88.3006Q15.7374 88.3217 15.7374 88.3535V90.6748Q15.7339 90.7065 15.7127 90.7277Q15.6916 90.7488 15.6633 90.7488ZM18.0446 90.6465Q18.0622 90.6712 18.0622 90.6889Q18.0622 90.7206 18.0411 90.74Q18.0199 90.7594 17.9881 90.7594Q17.9493 90.7594 17.9317 90.7312L17.1238 89.6305L16.3195 90.7312Q16.3019 90.7594 16.2666 90.7594Q16.2348 90.7594 16.2172 90.74Q16.1996 90.7206 16.1996 90.6994Q16.1996 90.6818 16.2172 90.6536L17.0462 89.5212L16.2101 88.3817Q16.196 88.3641 16.196 88.3394Q16.196 88.3076 16.2172 88.2882Q16.2384 88.2688 16.2666 88.2688Q16.3089 88.2688 16.3266 88.297L17.1344 89.4012L17.9387 88.2935Q17.9599 88.2653 17.9917 88.2653Q18.0234 88.2653 18.0428 88.2812Q18.0622 88.297 18.0622 88.3217Q18.0622 88.3464 18.0446 88.3711L17.2156 89.5141Z" style="stroke:#000000;stroke-width:0.25;stroke-linecap:round;stroke-linejoin:bevel" />
        <g id="ControlLayer" style="display:none;">
            <circle id="audio_left_input" cx="9.24" cy="16" r="1" />
            <circle id="audio_right_input" cx="21.24" cy="16" r="1" />
            <circle id="audio_left_output" cx="9.24" cy="112" r="1" />
            <circle id="audio_right_output" cx="21.24" cy="112" r="1" />
            <circle id="replace_cv" cx="7.24" cy="32" r="1" />
            <circle id="replace_atten" cx="15.24" cy="32" r="1" />
            <circle id="replace_knob" cx="23.24" cy="32" r="1" />
            <circle id="brightness_cv" cx="7.24" cy="48" r="1" />
            <circle id="brightness_atten" cx="15.24" cy="48" r="1" />
            <circle id="brightness_knob" cx="23.24" cy="48" r="1" />
            <circle id="detune_cv" cx="7.24" cy="64" r="1" />
            <circle id="detune_atten" cx="15.24" cy="64" r="1" />
            <circle id="detune_knob" cx="23.24" cy="64" r="1" />
            <circle id="bigness_cv" cx="7.24" cy="80" r="1" />
            <circle id="bigness_atten" cx="15.24" cy="80" r="1" />
            <circle id="bigness_knob" cx="23.24" cy="80" r="1" />
            <circle id="mix_cv" cx="7.24" cy="96" r="1" />
            <circle id="mix_atten" cx="15.24" cy="96" r="1" />
            <circle id="mix_knob" cx="23.24" cy="96" r="1" />
        </g>
    </g>
</svg>
