<?xml version="1.0" encoding="utf-8"?>
<svg xmlns="http://www.w3.org/2000/svg" width="30.48mm" height="128.50mm" viewBox="0 0 30.48 128.50">
    <g id="PanelLayer">
        <defs>
            <linearGradient id="gradient_in" x1="0" y1="13" x2="0" y2="23" gradientUnits="userSpaceOnUse">
                <stop style="stop-color:#29aab4;stop-opacity:1;" offset="0" />
                <stop style="stop-color:#4f8df2;stop-opacity:1;" offset="1" />
            </linearGradient>
            <linearGradient id="gradient_controls" x1="0" y1="23.6667" x2="0" y2="101.333" gradientUnits="userSpaceOnUse">
                <stop style="stop-color:#a06de4;stop-opacity:1;" offset="0" />
                <stop style="stop-color:#4f8df2;stop-opacity:1;" offset="1" />
            </linearGradient>
            <linearGradient id="gradient_out" x1="0" y1="107" x2="0" y2="117" gradientUnits="userSpaceOnUse">
                <stop style="stop-color:#3068ff;stop-opacity:1;" offset="0" />
                <stop style="stop-color:#4f8df2;stop-opacity:1;" offset="1" />
            </linearGradient>
        </defs>
        <rect id="border_rect" width="30.48" height="128.5" x="0" y="0" style="display:inline;fill:#4f8df2;fill-opacity:1;fill-rule:nonzero;stroke:#5021d4;stroke-width:0.7;stroke-linecap:round;stroke-linejoin:round;stroke-dasharray:none;stroke-opacity:1;image-rendering:auto" />
        <path id="model_name" d="M7.47113 4.43369V7.77096Q7.47113 8.36081 7.23053 8.79543Q6.98994 9.23005 6.55532 9.46677Q6.12069 9.70348 5.56189 9.70348Q5.25145 9.70348 4.93324 9.62199Q4.61504 9.5405 4.40937 9.41244Q4.2037 9.28438 4.2037 9.15244Q4.2037 9.09035 4.23863 9.05155Q4.27355 9.01274 4.33564 9.01274Q4.38221 9.01274 4.47534 9.09035Q4.58399 9.19901 4.71593 9.25334Q5.09623 9.40856 5.57742 9.40856Q6.30696 9.40856 6.73382 8.95841Q7.16068 8.50827 7.16068 7.77096V7.23545Q6.95113 7.73216 6.51263 7.98051Q6.07413 8.22887 5.59294 8.22887Q5.06518 8.22887 4.63444 7.96111Q4.2037 7.69335 3.95923 7.22769Q3.71475 6.76202 3.71475 6.1877Q3.71475 5.61337 3.95923 5.14771Q4.2037 4.68204 4.63444 4.41816Q5.06518 4.15429 5.59294 4.15429Q6.11293 4.15429 6.54368 4.42981Q6.97442 4.70533 7.16068 5.09338V4.43369Q7.16068 4.3716 7.20337 4.32503Q7.24606 4.27846 7.31591 4.27846Q7.38576 4.27846 7.42844 4.32503Q7.47113 4.3716 7.47113 4.43369ZM7.19173 6.1877Q7.19173 5.67546 6.98606 5.27965Q6.78039 4.88383 6.4195 4.66652Q6.05861 4.44921 5.60846 4.44921Q5.15832 4.44921 4.79743 4.67428Q4.43653 4.89935 4.23086 5.29517Q4.02519 5.69099 4.02519 6.1877Q4.02519 6.68441 4.23086 7.08022Q4.43653 7.47604 4.79743 7.70499Q5.15832 7.93395 5.60846 7.93395Q6.05861 7.93395 6.4195 7.71276Q6.78039 7.49156 6.98606 7.09575Q7.19173 6.69993 7.19173 6.1877ZM12.089 4.43369V7.99604Q12.089 8.05812 12.0424 8.10469Q11.9959 8.15126 11.9338 8.15126Q11.8639 8.15126 11.8212 8.10469Q11.7785 8.05812 11.7785 7.99604V7.29754Q11.5845 7.69335 11.1809 7.96111Q10.7774 8.22887 10.2884 8.22887Q9.77618 8.22887 9.36484 7.96111Q8.9535 7.69335 8.72067 7.22381Q8.48783 6.75426 8.48783 6.17217Q8.48783 5.59785 8.72455 5.13607Q8.96126 4.67428 9.3726 4.41428Q9.78394 4.15429 10.2884 4.15429Q10.7929 4.15429 11.1965 4.41816Q11.6 4.68204 11.7785 5.12443V4.43369Q11.7785 4.3716 11.8212 4.32503Q11.8639 4.27846 11.9338 4.27846Q12.0036 4.27846 12.0463 4.32503Q12.089 4.3716 12.089 4.43369ZM11.8096 6.17217Q11.8096 5.69875 11.6156 5.30293Q11.4215 4.90711 11.0762 4.67816Q10.7308 4.44921 10.3039 4.44921Q9.87707 4.44921 9.5317 4.6704Q9.18633 4.89159 8.99231 5.28353Q8.79828 5.67546 8.79828 6.17217Q8.79828 6.66889 8.99231 7.07246Q9.18633 7.47604 9.52782 7.70499Q9.86931 7.93395 10.3039 7.93395Q10.7308 7.93395 11.0762 7.70499Q11.4215 7.47604 11.6156 7.07246Q11.8096 6.66889 11.8096 6.17217ZM13.5714 8.15126Q13.5015 8.15126 13.4588 8.10469Q13.4161 8.05812 13.4161 7.99604V2.56326Q13.4161 2.50117 13.4627 2.4546Q13.5093 2.40804 13.5714 2.40804Q13.6412 2.40804 13.6839 2.4546Q13.7266 2.50117 13.7266 2.56326V7.99604Q13.7266 8.05812 13.68 8.10469Q13.6335 8.15126 13.5714 8.15126ZM18.3833 4.43369V7.99604Q18.3833 8.05812 18.3367 8.10469Q18.2901 8.15126 18.228 8.15126Q18.1582 8.15126 18.1155 8.10469Q18.0728 8.05812 18.0728 7.99604V7.29754Q17.8788 7.69335 17.4752 7.96111Q17.0716 8.22887 16.5827 8.22887Q16.0704 8.22887 15.6591 7.96111Q15.2478 7.69335 15.0149 7.22381Q14.7821 6.75426 14.7821 6.17217Q14.7821 5.59785 15.0188 5.13607Q15.2555 4.67428 15.6669 4.41428Q16.0782 4.15429 16.5827 4.15429Q17.0871 4.15429 17.4907 4.41816Q17.8943 4.68204 18.0728 5.12443V4.43369Q18.0728 4.3716 18.1155 4.32503Q18.1582 4.27846 18.228 4.27846Q18.2979 4.27846 18.3406 4.32503Q18.3833 4.3716 18.3833 4.43369ZM18.1039 6.17217Q18.1039 5.69875 17.9098 5.30293Q17.7158 4.90711 17.3704 4.67816Q17.0251 4.44921 16.5982 4.44921Q16.1713 4.44921 15.826 4.6704Q15.4806 4.89159 15.2866 5.28353Q15.0925 5.67546 15.0925 6.17217Q15.0925 6.66889 15.2866 7.07246Q15.4806 7.47604 15.8221 7.70499Q16.1636 7.93395 16.5982 7.93395Q17.0251 7.93395 17.3704 7.70499Q17.7158 7.47604 17.9098 7.07246Q18.1039 6.66889 18.1039 6.17217ZM22.4268 7.93395Q22.4578 7.97275 22.4578 8.02708Q22.4578 8.08917 22.4151 8.13574Q22.3725 8.1823 22.3104 8.1823Q22.2405 8.1823 22.1784 8.11245L20.9056 6.45158L19.625 8.12021Q19.5785 8.1823 19.5008 8.1823Q19.4388 8.1823 19.3961 8.1435Q19.3534 8.10469 19.3534 8.03484Q19.3534 7.98051 19.3844 7.94171L20.7193 6.21098L19.3689 4.44921Q19.3379 4.4104 19.3379 4.35608Q19.3379 4.28622 19.3883 4.23966Q19.4388 4.19309 19.5008 4.19309Q19.5785 4.19309 19.625 4.26294L20.9134 5.9471L22.1784 4.26294Q22.2405 4.19309 22.3104 4.19309Q22.3802 4.19309 22.419 4.2319Q22.4578 4.2707 22.4578 4.32503Q22.4578 4.3716 22.419 4.42592L21.0996 6.19546ZM26.4936 4.30951V7.77096Q26.4936 8.35305 26.2569 8.79155Q26.0202 9.23005 25.605 9.46677Q25.1897 9.70348 24.662 9.70348Q24.3205 9.70348 24.0372 9.62199Q23.7539 9.5405 23.5599 9.40856Q23.4202 9.31542 23.4745 9.19901Q23.5289 9.10587 23.6065 9.10587Q23.6453 9.10587 23.6763 9.12916Q23.8626 9.24557 24.1226 9.33483Q24.3826 9.42408 24.6775 9.42408Q25.1199 9.42408 25.4614 9.21453Q25.8029 9.00498 25.993 8.62857Q26.1832 8.25215 26.1832 7.77096V7.42171Q26.0047 7.77096 25.6127 7.99992Q25.2208 8.22887 24.8017 8.22887Q24.1032 8.22887 23.7617 7.82917Q23.4202 7.42948 23.4202 6.73097V4.30951Q23.4202 4.24742 23.4629 4.20085Q23.5056 4.15429 23.5754 4.15429Q23.6453 4.15429 23.688 4.20085Q23.7307 4.24742 23.7307 4.30951V6.73097Q23.7307 7.93395 24.8017 7.93395Q25.1354 7.93395 25.4575 7.75932Q25.7796 7.5847 25.9814 7.3053Q26.1832 7.0259 26.1832 6.73097V4.30951Q26.1832 4.24742 26.2259 4.20085Q26.2685 4.15429 26.3384 4.15429Q26.4082 4.15429 26.4509 4.20085Q26.4936 4.24742 26.4936 4.30951Z" style="display:inline;stroke:#000000;stroke-width:0.35;stroke-linecap:round;stroke-linejoin:bevel" />
        <path id="sapphire_gemstone" d="m 17.955,122.900 q 0,0.34175 -0.242534,0.63114 -0.0441,0.0524 -0.20395,0.21497 -0.187413,0.19017 -0.785481,0.81304 l -1.444183,1.51309 q -0.01929,0.003 -0.0441,0.003 -0.02756,0 -0.04134,-0.003 -0.08268,-0.0827 -0.647678,-0.67524 -0.468532,-0.47404 -0.934309,-0.94809 -0.556727,-0.56775 -0.89848,-0.98116 -0.132292,-0.15985 -0.168121,-0.29766 -0.02756,-0.10197 -0.02756,-0.34175 0,-0.11024 0.07166,-0.28939 0.06614,-0.16536 0.140559,-0.26458 0.118512,-0.1571 0.42168,-0.42444 0.283875,-0.2508 0.474044,-0.37482 0.272852,-0.17915 0.818555,-0.36656 0.09646,-0.0331 0.110243,-0.0331 h 1.3615 q 0.01102,0 0.104731,0.0331 0.567751,0.20119 0.824066,0.36656 0.165365,0.10473 0.474045,0.37758 0.322461,0.28388 0.421679,0.42168 0.214974,0.2949 0.214974,0.62563 z m -0.16812,-0.27285 q -0.03307,-0.10749 -0.135048,-0.30868 -0.07166,-0.0937 -0.209462,-0.19844 -0.118511,-0.0854 -0.234266,-0.17088 0.245291,0.3638 0.578776,0.678 z m -0.573264,-0.52366 -0.358289,-0.44648 v 0.41065 z m 0.636653,0.75792 q 0,-0.0524 -0.341753,-0.39412 l 0.228754,0.7028 h 0.04961 q 0.06339,-0.21773 0.06339,-0.30868 z m -0.23151,0.27285 -0.316948,-0.90399 -0.410655,-0.0634 -0.159853,0.61461 z m 0.0028,0.15434 -0.771701,-0.3197 h -0.03032 l 0.344509,0.60634 q 0.07993,-0.003 0.234266,-0.0469 0.02481,-0.0138 0.223242,-0.23978 z m -0.857139,-1.05006 -0.719335,0.28388 0.60358,0.22599 z m 0,-0.16261 v -0.51538 l -0.917773,-0.38034 h -1.223697 l -0.917772,0.38034 v 0.51538 l 0.89848,0.4079 h 1.254014 z m 0.573264,1.53789 q -0.0689,0.011 -0.198438,0.0524 -0.08544,0.0551 -0.259071,0.16261 0.01929,0 0.06339,0.003 0.04134,0 0.06339,0 0.118511,0 0.190169,-0.0689 0.07166,-0.0717 0.14056,-0.14883 z m -0.289388,0.003 -0.347266,-0.63114 -0.363801,0.87918 q 0.0248,-0.0165 0.06615,-0.0165 0.03032,0 0.08544,0.011 0.05788,0.008 0.08819,0.008 0.04961,0 0.228754,-0.10749 0.228754,-0.1378 0.242535,-0.14331 z m -0.440972,-0.74139 -0.683507,-0.2756 -0.592556,0.54845 0.903993,0.65595 z m -0.854383,-0.28387 h -1.036284 l 0.523654,0.47404 z m 0.749652,1.36701 q -0.228754,-0.0303 -0.228754,-0.0303 -0.03583,0 -0.272851,0.0937 l 0.190169,0.0193 q 0.01102,0 0.311436,-0.0827 z m -0.388606,-0.0882 -0.843359,-0.61185 v 0.67524 l 0.471289,0.0827 z m 0.854383,0.0496 q -0.09922,0.006 -0.2949,0.0386 -0.01102,0.003 -0.377583,0.17639 -0.129535,0.34726 -0.380338,1.0418 z m -2.543857,-1.39733 -0.719335,-0.28388 0.124023,0.51814 z m -0.802018,-0.45476 v -0.41065 l -0.366557,0.44648 z m 1.515841,1.07212 -0.592556,-0.54019 -0.683506,0.2756 0.380338,0.9288 z m 0.369314,0.94257 q -0.03307,-0.003 -0.135047,-0.0248 -0.08544,-0.0165 -0.137804,-0.0165 -0.05237,0 -0.137804,0.0165 -0.101975,0.0221 -0.135047,0.0248 0.264583,0.0469 0.272851,0.0469 0.0083,0 0.272851,-0.0469 z m -0.30868,-0.1378 v -0.68626 l -0.843359,0.61185 0.37207,0.14607 z m 0.950846,0.20671 -0.396875,-0.0551 -0.479557,0.14056 v 1.27607 z m -2.888366,-2.20211 q -0.118512,0.0854 -0.234267,0.17364 -0.146072,0.10748 -0.209461,0.19568 -0.0441,0.10473 -0.135048,0.31419 0.369314,-0.3638 0.578776,-0.68351 z m 0.476801,0.83234 -0.159853,-0.61461 -0.410655,0.0634 -0.316948,0.90399 z m 0.394118,1.08313 -0.363802,-0.87918 -0.355533,0.63114 q 0.43546,0.2508 0.451996,0.2508 0.09095,0 0.267339,-0.003 z m 1.821765,0.82958 q -0.132291,0.21222 -0.405143,0.6339 -0.07717,0.10749 -0.220486,0.32797 -0.05788,0.10473 -0.05512,0.226 0.159852,-0.15158 0.432704,-0.49609 0.07717,-0.12954 0.140559,-0.339 0.05512,-0.17639 0.107486,-0.35278 z m -1.493792,-0.66146 -0.270095,-0.0882 -0.0083,-0.011 q -0.02481,0 -0.107487,0.011 -0.06615,0.006 -0.107487,0.006 0.272851,0.091 0.311436,0.091 0.02481,0 0.181901,-0.008 z m -0.810286,-1.06384 h -0.03032 l -0.7717,0.3197 q 0.06615,0.0965 0.223242,0.23978 0.07717,0.0138 0.234266,0.0469 z m -0.689018,-0.50161 q -0.341754,0.34727 -0.341754,0.39412 0,0.0799 0.06339,0.30868 h 0.04961 z m 2.235176,3.04547 v -1.27607 l -0.479557,-0.14056 -0.396875,0.0551 z m -1.606791,-1.6757 q -0.256315,-0.1819 -0.457509,-0.22324 0.06615,0.0772 0.20395,0.22324 z m 1.609547,2.04501 v -0.1378 l -0.683507,-1.05007 q 0.05237,0.17639 0.107487,0.35278 0.06339,0.20946 0.14056,0.339 0.0689,0.11851 0.20395,0.25907 0.115755,0.11851 0.23151,0.23702 z m -0.644921,-0.70555 q -0.115756,-0.32798 -0.380339,-1.0418 -0.135047,-0.0662 -0.272851,-0.12954 -0.159852,-0.0716 -0.289388,-0.0716 -0.05237,0 -0.110243,-0.0138 z" style="stroke-width:0;fill:#0000ff;stroke:#2e2114;stroke-linecap:square;stroke-opacity:1" />
        <path id="in_art" d="M 0.38,23.00 L 0.38,17.00 A 4 4 0 0 1 4.38 13 L 26.10,13.00 A 4 4 0 0 1 30.1 17 L 30.10,13.00 L 30.10,23.00 z" style="fill:url(#gradient_in);fill-opacity:1;stroke-width:0;" />
        <path id="controls_art" d="M 0.38,101.33 L 0.38,27.67 A 4 4 0 0 1 4.38 23.6667 L 26.10,23.67 A 4 4 0 0 1 30.1 27.6667 L 30.10,23.67 L 30.10,101.33 z" style="fill:url(#gradient_controls);fill-opacity:1;stroke-width:0;" />
        <path id="out_art" d="M 0.38,117.00 L 0.38,111.00 A 4 4 0 0 1 4.38 107 L 26.10,107.00 A 4 4 0 0 1 30.1 111 L 30.10,107.00 L 30.10,117.00 z" style="fill:url(#gradient_out);fill-opacity:1;stroke-width:0;" />
        <path d="M9.93599 28.3414Q9.93599 28.3732 9.91658 28.3926Q9.89718 28.412 9.86896 28.412Q9.84779 28.412 9.83721 28.4049Q9.74196 28.352 9.68551 28.2268Q9.62907 28.1015 9.62907 27.8158Q9.62907 27.5265 9.47385 27.4189Q9.31863 27.3113 9.11401 27.3113H8.28851V28.3449Q8.28851 28.3732 8.26735 28.3943Q8.24618 28.4155 8.21443 28.4155Q8.18268 28.4155 8.16151 28.3943Q8.14035 28.3732 8.14035 28.3449V26.0166Q8.14035 25.9884 8.16151 25.9672Q8.18268 25.9461 8.2109 25.9461H9.14224Q9.34685 25.9461 9.5056 26.029Q9.66435 26.1119 9.75254 26.2565Q9.84074 26.4011 9.84074 26.5846Q9.84074 26.8209 9.7155 26.9903Q9.59026 27.1596 9.38918 27.2196Q9.55851 27.2725 9.66788 27.4295Q9.77724 27.5865 9.77724 27.8158Q9.77724 28.0521 9.80722 28.1456Q9.83721 28.2391 9.89718 28.2779Q9.93599 28.3026 9.93599 28.3414ZM9.15988 27.1702Q9.38213 27.149 9.53735 26.9938Q9.69257 26.8386 9.69257 26.5881Q9.69257 26.3694 9.53735 26.2283Q9.38213 26.0872 9.1246 26.0872H8.28851V27.1702ZM11.9539 28.3449Q11.9539 28.3767 11.9327 28.3961Q11.9115 28.4155 11.8833 28.4155H10.5533Q10.5251 28.4155 10.504 28.3943Q10.4828 28.3732 10.4828 28.3449V26.0166Q10.4828 25.9884 10.504 25.9672Q10.5251 25.9461 10.5533 25.9461H11.8833Q11.9115 25.9461 11.9327 25.9672Q11.9539 25.9884 11.9539 26.0166Q11.9539 26.0484 11.9327 26.0678Q11.9115 26.0872 11.8833 26.0872H10.631V27.0714H11.7246Q11.7528 27.0714 11.774 27.0926Q11.7951 27.1137 11.7951 27.142Q11.7951 27.1737 11.774 27.1931Q11.7528 27.2125 11.7246 27.2125H10.631V28.2744H11.8833Q11.9115 28.2744 11.9327 28.2956Q11.9539 28.3167 11.9539 28.3449ZM14.067 26.6199Q14.067 26.8174 13.9841 26.9779Q13.9012 27.1384 13.7495 27.2284Q13.5978 27.3184 13.4003 27.3184H12.6312V28.3449Q12.6312 28.3732 12.6083 28.3943Q12.5853 28.4155 12.5571 28.4155Q12.5254 28.4155 12.5042 28.3943Q12.483 28.3732 12.483 28.3449V26.0166Q12.483 25.9884 12.5042 25.9672Q12.5254 25.9461 12.5536 25.9461H13.4003Q13.7001 25.9461 13.8836 26.133Q14.067 26.32 14.067 26.6199ZM13.9188 26.6199Q13.9188 26.3764 13.7795 26.2318Q13.6402 26.0872 13.4003 26.0872H12.6312V27.1772H13.4003Q13.6366 27.1772 13.7777 27.0203Q13.9188 26.8633 13.9188 26.6199ZM16.0143 28.3449Q16.0143 28.3767 15.9932 28.3961Q15.972 28.4155 15.9438 28.4155H14.6491Q14.6173 28.4155 14.5979 28.3943Q14.5785 28.3732 14.5785 28.3449V26.0166Q14.5785 25.9884 14.5997 25.9672Q14.6209 25.9461 14.6526 25.9461Q14.6844 25.9461 14.7055 25.9672Q14.7267 25.9884 14.7267 26.0166V28.2744H15.9438Q15.972 28.2744 15.9932 28.2956Q16.0143 28.3167 16.0143 28.3449ZM18.2333 28.3485Q18.2333 28.3802 18.2122 28.3979Q18.191 28.4155 18.1592 28.4155Q18.1345 28.4155 18.1151 28.4032Q18.0957 28.3908 18.0887 28.3696L17.7923 27.6429L17.7959 27.65H16.6141L16.3283 28.3696Q16.3107 28.4155 16.2648 28.4155Q16.2331 28.4155 16.2137 28.3979Q16.1943 28.3802 16.1907 28.3555Q16.1872 28.3414 16.1943 28.3202L17.1432 25.9849Q17.1538 25.9566 17.1697 25.9478Q17.1856 25.939 17.2103 25.939Q17.2632 25.939 17.2808 25.9849L18.2298 28.3202Q18.2333 28.3308 18.2333 28.3485ZM16.6705 27.5089H17.7394L17.1997 26.1789ZM20.5687 26.2071Q20.5687 26.2353 20.5546 26.253Q20.5334 26.2812 20.5017 26.2812Q20.4876 26.2812 20.4593 26.2671Q20.1313 26.0448 19.7644 26.0448Q19.468 26.0448 19.2193 26.1912Q18.9706 26.3376 18.826 26.5969Q18.6813 26.8562 18.6813 27.1808Q18.6813 27.5053 18.826 27.7646Q18.9706 28.0239 19.2193 28.1703Q19.468 28.3167 19.7644 28.3167Q20.1348 28.3167 20.4558 28.098Q20.4735 28.0839 20.4982 28.0839Q20.5334 28.0839 20.5546 28.1121Q20.5687 28.1297 20.5687 28.1544Q20.5687 28.1897 20.5405 28.2109Q20.4029 28.3097 20.1859 28.3802Q19.969 28.4508 19.7644 28.4508Q19.4292 28.4508 19.147 28.285Q18.8648 28.1192 18.699 27.8281Q18.5332 27.5371 18.5332 27.1808Q18.5332 26.8245 18.699 26.5334Q18.8648 26.2424 19.147 26.0766Q19.4292 25.9108 19.7644 25.9108Q19.976 25.9108 20.1754 25.9743Q20.3747 26.0378 20.537 26.1507Q20.5687 26.1754 20.5687 26.2071ZM22.516 28.3449Q22.516 28.3767 22.4949 28.3961Q22.4737 28.4155 22.4455 28.4155H21.1155Q21.0873 28.4155 21.0661 28.3943Q21.045 28.3732 21.045 28.3449V26.0166Q21.045 25.9884 21.0661 25.9672Q21.0873 25.9461 21.1155 25.9461H22.4455Q22.4737 25.9461 22.4949 25.9672Q22.516 25.9884 22.516 26.0166Q22.516 26.0484 22.4949 26.0678Q22.4737 26.0872 22.4455 26.0872H21.1931V27.0714H22.2867Q22.315 27.0714 22.3361 27.0926Q22.3573 27.1137 22.3573 27.142Q22.3573 27.1737 22.3361 27.1931Q22.315 27.2125 22.2867 27.2125H21.1931V28.2744H22.4455Q22.4737 28.2744 22.4949 28.2956Q22.516 28.3167 22.516 28.3449Z" style="stroke:#000000;stroke-width:0.25;stroke-linecap:round;stroke-linejoin:bevel" />
        <path d="M11.0666 43.4154Q11.0666 43.7364 10.8638 43.9093Q10.6609 44.0822 10.347 44.0822H9.37331Q9.34508 44.0822 9.32392 44.061Q9.30275 44.0398 9.30275 44.0116V41.6833Q9.30275 41.6551 9.32392 41.6339Q9.34508 41.6127 9.37331 41.6127H10.3223Q10.6045 41.6127 10.7738 41.775Q10.9432 41.9373 10.9432 42.2124Q10.9432 42.41 10.8444 42.5705Q10.7456 42.731 10.5692 42.791Q10.795 42.8333 10.9308 42.9956Q11.0666 43.1579 11.0666 43.4154ZM10.3046 41.7538H9.45092V42.7451H10.3046Q10.5234 42.7416 10.6592 42.6023Q10.795 42.4629 10.795 42.2089Q10.795 42.0008 10.6662 41.8773Q10.5375 41.7538 10.3046 41.7538ZM10.9185 43.4154Q10.9185 43.1544 10.7562 43.0221Q10.5939 42.8898 10.3293 42.8898H9.45092V43.9411H10.3293Q10.5939 43.9411 10.7562 43.8088Q10.9185 43.6765 10.9185 43.4154ZM13.3914 44.0081Q13.3914 44.0398 13.372 44.0592Q13.3526 44.0786 13.3244 44.0786Q13.3033 44.0786 13.2927 44.0716Q13.1974 44.0187 13.141 43.8934Q13.0845 43.7682 13.0845 43.4824Q13.0845 43.1932 12.9293 43.0856Q12.7741 42.978 12.5695 42.978H11.744V44.0116Q11.744 44.0398 11.7228 44.061Q11.7016 44.0822 11.6699 44.0822Q11.6381 44.0822 11.617 44.061Q11.5958 44.0398 11.5958 44.0116V41.6833Q11.5958 41.6551 11.617 41.6339Q11.6381 41.6127 11.6664 41.6127H12.5977Q12.8023 41.6127 12.9611 41.6956Q13.1198 41.7785 13.208 41.9232Q13.2962 42.0678 13.2962 42.2512Q13.2962 42.4876 13.171 42.6569Q13.0457 42.8263 12.8446 42.8862Q13.014 42.9392 13.1233 43.0962Q13.2327 43.2531 13.2327 43.4824Q13.2327 43.7188 13.2627 43.8123Q13.2927 43.9058 13.3526 43.9446Q13.3914 43.9693 13.3914 44.0081ZM12.6153 42.8369Q12.8376 42.8157 12.9928 42.6605Q13.148 42.5052 13.148 42.2548Q13.148 42.0361 12.9928 41.8949Q12.8376 41.7538 12.5801 41.7538H11.744V42.8369ZM14.0123 44.0822Q13.9771 44.0822 13.9577 44.061Q13.9383 44.0398 13.9383 44.0081V41.6868Q13.9383 41.6551 13.9594 41.6339Q13.9806 41.6127 14.0123 41.6127Q14.0441 41.6127 14.0652 41.6339Q14.0864 41.6551 14.0864 41.6868V44.0081Q14.0829 44.0398 14.0617 44.061Q14.0406 44.0822 14.0123 44.0822ZM16.6582 42.9356V43.8211Q16.6582 43.8634 16.6264 43.8846Q16.4641 43.994 16.2719 44.0557Q16.0796 44.1174 15.8821 44.1174Q15.5187 44.1174 15.2312 43.9534Q14.9437 43.7894 14.7796 43.5001Q14.6156 43.2108 14.6156 42.8474Q14.6156 42.4841 14.7796 42.1948Q14.9437 41.9055 15.2312 41.7415Q15.5187 41.5774 15.8821 41.5774Q16.0796 41.5774 16.2578 41.6251Q16.4359 41.6727 16.577 41.7679Q16.6088 41.7891 16.6088 41.8279Q16.6088 41.8597 16.5858 41.8791Q16.5629 41.8985 16.5418 41.8985Q16.5241 41.8985 16.4959 41.8844Q16.1996 41.7186 15.8821 41.7186Q15.5575 41.7186 15.3035 41.8632Q15.0495 42.0078 14.9066 42.2654Q14.7637 42.5229 14.7637 42.8474Q14.7637 43.172 14.9066 43.4295Q15.0495 43.6871 15.3035 43.8317Q15.5575 43.9763 15.8821 43.9763Q16.0443 43.9763 16.2119 43.9252Q16.3795 43.874 16.5171 43.7894V43.0062H15.8821Q15.8538 43.0062 15.8327 42.985Q15.8115 42.9639 15.8115 42.9356Q15.8115 42.9039 15.8327 42.8845Q15.8538 42.8651 15.8821 42.8651H16.5876Q16.6194 42.8651 16.6388 42.8862Q16.6582 42.9074 16.6582 42.9356ZM19.0747 41.6868V44.0081Q19.0712 44.0398 19.05 44.061Q19.0288 44.0822 19.0006 44.0822Q18.9653 44.0822 18.9459 44.061Q18.9265 44.0398 18.9265 44.0081V42.8827H17.3884V44.0081Q17.3849 44.0398 17.3637 44.061Q17.3426 44.0822 17.3143 44.0822Q17.2791 44.0822 17.2597 44.061Q17.2402 44.0398 17.2402 44.0081V41.6868Q17.2402 41.6551 17.2614 41.6339Q17.2826 41.6127 17.3143 41.6127Q17.3461 41.6127 17.3672 41.6339Q17.3884 41.6551 17.3884 41.6868V42.7416H18.9265V41.6868Q18.9265 41.6551 18.9477 41.6339Q18.9689 41.6127 19.0006 41.6127Q19.0324 41.6127 19.0535 41.6339Q19.0747 41.6551 19.0747 41.6868ZM21.4066 41.6797Q21.4066 41.7115 21.3872 41.7291Q21.3677 41.7468 21.336 41.7468H20.5493V44.0116Q20.5493 44.0398 20.5281 44.061Q20.507 44.0822 20.4787 44.0822Q20.447 44.0822 20.4276 44.061Q20.4082 44.0398 20.4082 44.0116V41.7468H19.6215Q19.5933 41.7468 19.5721 41.7274Q19.5509 41.708 19.5509 41.6797Q19.5509 41.6515 19.5721 41.6321Q19.5933 41.6127 19.6215 41.6127H21.336Q21.3642 41.6127 21.3854 41.6321Q21.4066 41.6515 21.4066 41.6797Z" style="stroke:#000000;stroke-width:0.25;stroke-linecap:round;stroke-linejoin:bevel" />
        <path d="M10.7421 58.5141Q10.7421 58.8634 10.631 59.1421Q10.5198 59.4207 10.2905 59.5848Q10.0612 59.7488 9.71903 59.7488H8.80181Q8.77358 59.7488 8.75242 59.7277Q8.73125 59.7065 8.73125 59.6783V57.3499Q8.73125 57.3217 8.75242 57.3006Q8.77358 57.2794 8.80181 57.2794H9.71903Q10.0577 57.2794 10.2888 57.4487Q10.5198 57.6181 10.631 57.8985Q10.7421 58.179 10.7421 58.5141ZM10.5939 58.5141Q10.5939 58.2142 10.4969 57.9655Q10.3999 57.7168 10.197 57.5687Q9.99419 57.4205 9.68375 57.4205H8.87942V59.6077H9.68375Q10.1424 59.6077 10.3681 59.3061Q10.5939 59.0045 10.5939 58.5141ZM12.7423 59.6783Q12.7423 59.71 12.7212 59.7294Q12.7 59.7488 12.6718 59.7488H11.3418Q11.3136 59.7488 11.2924 59.7277Q11.2712 59.7065 11.2712 59.6783V57.3499Q11.2712 57.3217 11.2924 57.3006Q11.3136 57.2794 11.3418 57.2794H12.6718Q12.7 57.2794 12.7212 57.3006Q12.7423 57.3217 12.7423 57.3499Q12.7423 57.3817 12.7212 57.4011Q12.7 57.4205 12.6718 57.4205H11.4194V58.4047H12.513Q12.5412 58.4047 12.5624 58.4259Q12.5836 58.4471 12.5836 58.4753Q12.5836 58.5071 12.5624 58.5265Q12.5412 58.5459 12.513 58.5459H11.4194V59.6077H12.6718Q12.7 59.6077 12.7212 59.6289Q12.7423 59.6501 12.7423 59.6783ZM14.8978 57.3464Q14.8978 57.3782 14.8784 57.3958Q14.859 57.4134 14.8272 57.4134H14.0406V59.6783Q14.0406 59.7065 14.0194 59.7277Q13.9982 59.7488 13.97 59.7488Q13.9382 59.7488 13.9188 59.7277Q13.8994 59.7065 13.8994 59.6783V57.4134H13.1127Q13.0845 57.4134 13.0634 57.394Q13.0422 57.3746 13.0422 57.3464Q13.0422 57.3182 13.0634 57.2988Q13.0845 57.2794 13.1127 57.2794H14.8272Q14.8555 57.2794 14.8766 57.2988Q14.8978 57.3182 14.8978 57.3464ZM17.1909 57.3499V58.8739Q17.1909 59.1209 17.0674 59.329Q16.9439 59.5372 16.7358 59.6606Q16.5276 59.7841 16.2842 59.7841Q16.0373 59.7841 15.8291 59.6606Q15.621 59.5372 15.4975 59.329Q15.3741 59.1209 15.3741 58.8739V57.3499Q15.3741 57.3182 15.3952 57.2988Q15.4164 57.2794 15.4481 57.2794Q15.4799 57.2794 15.5011 57.3006Q15.5222 57.3217 15.5222 57.3499V58.8739Q15.5222 59.0821 15.6245 59.2585Q15.7268 59.4349 15.9015 59.5389Q16.0761 59.643 16.2842 59.643Q16.4924 59.643 16.667 59.5389Q16.8416 59.4349 16.9457 59.2585Q17.0497 59.0821 17.0497 58.8739V57.3499Q17.0497 57.3217 17.0692 57.3006Q17.0886 57.2794 17.1203 57.2794Q17.1521 57.2794 17.1715 57.3006Q17.1909 57.3217 17.1909 57.3499ZM19.7485 57.3464V59.6712Q19.7485 59.71 19.7273 59.7294Q19.7062 59.7488 19.6744 59.7488Q19.6391 59.7488 19.618 59.7206L18.0305 57.551V59.6889Q18.0305 59.7136 18.0111 59.7312Q17.9917 59.7488 17.9634 59.7488Q17.9317 59.7488 17.9141 59.7312Q17.8964 59.7136 17.8964 59.6889V57.3499Q17.8964 57.3147 17.9158 57.297Q17.9352 57.2794 17.9599 57.2794Q17.9917 57.2794 18.0128 57.3041L19.6144 59.4878V57.3464Q19.6144 57.3182 19.6338 57.2988Q19.6532 57.2794 19.6815 57.2794Q19.7132 57.2794 19.7309 57.2988Q19.7485 57.3182 19.7485 57.3464ZM21.9251 59.6783Q21.9251 59.71 21.904 59.7294Q21.8828 59.7488 21.8546 59.7488H20.5246Q20.4964 59.7488 20.4752 59.7277Q20.4541 59.7065 20.4541 59.6783V57.3499Q20.4541 57.3217 20.4752 57.3006Q20.4964 57.2794 20.5246 57.2794H21.8546Q21.8828 57.2794 21.904 57.3006Q21.9251 57.3217 21.9251 57.3499Q21.9251 57.3817 21.904 57.4011Q21.8828 57.4205 21.8546 57.4205H20.6022V58.4047H21.6958Q21.7241 58.4047 21.7452 58.4259Q21.7664 58.4471 21.7664 58.4753Q21.7664 58.5071 21.7452 58.5265Q21.7241 58.5459 21.6958 58.5459H20.6022V59.6077H21.8546Q21.8828 59.6077 21.904 59.6289Q21.9251 59.6501 21.9251 59.6783Z" style="stroke:#000000;stroke-width:0.25;stroke-linecap:round;stroke-linejoin:bevel" />
        <path d="M11.8533 75.0804Q11.8322 75.0592 11.8322 75.0274Q11.8322 74.9992 11.8569 74.9728Q11.8816 74.9463 11.9098 74.9463Q11.9415 74.9463 11.9698 74.9781Q12.1073 75.1403 12.2961 75.225Q12.4848 75.3097 12.6929 75.3097Q12.9646 75.3097 13.141 75.1791Q13.3174 75.0486 13.3174 74.8334Q13.3138 74.6641 13.2256 74.5547Q13.1374 74.4454 13.0087 74.3801Q12.8799 74.3148 12.6577 74.2337Q12.4143 74.142 12.2784 74.0714Q12.1426 74.0009 12.0456 73.8703Q11.9486 73.7398 11.9486 73.5281Q11.9486 73.3553 12.0438 73.2142Q12.1391 73.0731 12.3155 72.9919Q12.4919 72.9108 12.7247 72.9108Q12.9328 72.9108 13.1198 72.9866Q13.3068 73.0625 13.4161 73.2001Q13.4514 73.2494 13.4514 73.2741Q13.4514 73.3024 13.425 73.3253Q13.3985 73.3482 13.3668 73.3482Q13.3385 73.3482 13.3209 73.3271Q13.2221 73.2001 13.0669 73.126Q12.9117 73.0519 12.7247 73.0519Q12.4566 73.0519 12.2784 73.1789Q12.1003 73.3059 12.1003 73.5246Q12.1003 73.6763 12.1867 73.7821Q12.2731 73.888 12.4037 73.9532Q12.5342 74.0185 12.7282 74.0891Q12.9752 74.1773 13.1198 74.2513Q13.2644 74.3254 13.3667 74.4665Q13.4691 74.6076 13.4691 74.8405Q13.4691 75.0027 13.3738 75.1439Q13.2786 75.285 13.1004 75.3679Q12.9223 75.4508 12.6929 75.4508Q12.4319 75.4508 12.2379 75.3608Q12.0438 75.2709 11.8533 75.0804ZM14.0758 75.4155Q14.0406 75.4155 14.0212 75.3943Q14.0018 75.3732 14.0018 75.3414V73.0201Q14.0018 72.9884 14.0229 72.9672Q14.0441 72.9461 14.0758 72.9461Q14.1076 72.9461 14.1288 72.9672Q14.1499 72.9884 14.1499 73.0201V75.3414Q14.1464 75.3732 14.1252 75.3943Q14.1041 75.4155 14.0758 75.4155ZM16.5911 75.3485Q16.5911 75.3767 16.57 75.3961Q16.5488 75.4155 16.5206 75.4155H14.7849Q14.7532 75.4155 14.7338 75.3926Q14.7144 75.3696 14.7144 75.3414Q14.7144 75.3167 14.7285 75.2991L16.3936 73.0801H14.8555Q14.8273 73.0801 14.8061 73.0607Q14.7849 73.0413 14.7849 73.0131Q14.7849 72.9849 14.8061 72.9655Q14.8273 72.9461 14.8555 72.9461H16.5135Q16.5559 72.9461 16.5753 72.9672Q16.5947 72.9884 16.5947 73.0166Q16.5947 73.0413 16.5806 73.0589L14.919 75.2814H16.5206Q16.5488 75.2814 16.57 75.3026Q16.5911 75.3238 16.5911 75.3485ZM18.5949 75.3449Q18.5949 75.3767 18.5738 75.3961Q18.5526 75.4155 18.5244 75.4155H17.1944Q17.1662 75.4155 17.145 75.3943Q17.1238 75.3732 17.1238 75.3449V73.0166Q17.1238 72.9884 17.145 72.9672Q17.1662 72.9461 17.1944 72.9461H18.5244Q18.5526 72.9461 18.5738 72.9672Q18.5949 72.9884 18.5949 73.0166Q18.5949 73.0484 18.5738 73.0678Q18.5526 73.0872 18.5244 73.0872H17.272V74.0714H18.3656Q18.3938 74.0714 18.415 74.0926Q18.4362 74.1137 18.4362 74.142Q18.4362 74.1737 18.415 74.1931Q18.3938 74.2125 18.3656 74.2125H17.272V75.2744H18.5244Q18.5526 75.2744 18.5738 75.2956Q18.5949 75.3167 18.5949 75.3449Z" style="stroke:#000000;stroke-width:0.25;stroke-linecap:round;stroke-linejoin:bevel" />
        <path d="M14.8837 88.6833V91.0116Q14.8837 91.0398 14.8608 91.061Q14.8378 91.0822 14.8096 91.0822Q14.7779 91.0822 14.7567 91.061Q14.7355 91.0398 14.7355 91.0116V88.902L13.8254 90.2778Q13.8077 90.3061 13.776 90.3061Q13.7372 90.3061 13.7195 90.2778L12.8058 88.8985V91.0116Q12.8058 91.0398 12.7847 91.061Q12.7635 91.0822 12.7353 91.0822Q12.7035 91.0822 12.6841 91.061Q12.6647 91.0398 12.6647 91.0116V88.6833Q12.6647 88.6586 12.6841 88.6357Q12.7035 88.6127 12.7317 88.6127Q12.7776 88.6127 12.7988 88.6445L13.776 90.0979L14.7532 88.6445Q14.7814 88.6057 14.8202 88.6127Q14.8484 88.6162 14.8661 88.6357Q14.8837 88.6551 14.8837 88.6833ZM15.6633 91.0822Q15.6281 91.0822 15.6087 91.061Q15.5892 91.0398 15.5892 91.0081V88.6868Q15.5892 88.6551 15.6104 88.6339Q15.6316 88.6127 15.6633 88.6127Q15.6951 88.6127 15.7162 88.6339Q15.7374 88.6551 15.7374 88.6868V91.0081Q15.7339 91.0398 15.7127 91.061Q15.6916 91.0822 15.6633 91.0822ZM18.0446 90.9799Q18.0622 91.0046 18.0622 91.0222Q18.0622 91.0539 18.0411 91.0733Q18.0199 91.0927 17.9881 91.0927Q17.9493 91.0927 17.9317 91.0645L17.1238 89.9639L16.3195 91.0645Q16.3019 91.0927 16.2666 91.0927Q16.2348 91.0927 16.2172 91.0733Q16.1996 91.0539 16.1996 91.0328Q16.1996 91.0151 16.2172 90.9869L17.0462 89.8545L16.2101 88.715Q16.196 88.6974 16.196 88.6727Q16.196 88.6409 16.2172 88.6215Q16.2384 88.6021 16.2666 88.6021Q16.3089 88.6021 16.3266 88.6304L17.1344 89.7346L17.9387 88.6268Q17.9599 88.5986 17.9917 88.5986Q18.0234 88.5986 18.0428 88.6145Q18.0622 88.6304 18.0622 88.6551Q18.0622 88.6797 18.0446 88.7044L17.2156 89.8474Z" style="stroke:#000000;stroke-width:0.25;stroke-linecap:round;stroke-linejoin:bevel" />
        <g id="ControlLayer" style="display:none;">
            <circle id="audio_left_input" cx="9.24" cy="18" r="1" />
            <circle id="audio_right_input" cx="21.24" cy="18" r="1" />
            <circle id="audio_left_output" cx="9.24" cy="112" r="1" />
            <circle id="audio_right_output" cx="21.24" cy="112" r="1" />
            <circle id="replace_cv" cx="7.24" cy="33.6667" r="1" />
            <circle id="replace_atten" cx="15.24" cy="33.6667" r="1" />
            <circle id="replace_knob" cx="23.24" cy="33.6667" r="1" />
            <circle id="brightness_cv" cx="7.24" cy="49.3333" r="1" />
            <circle id="brightness_atten" cx="15.24" cy="49.3333" r="1" />
            <circle id="brightness_knob" cx="23.24" cy="49.3333" r="1" />
            <circle id="detune_cv" cx="7.24" cy="65" r="1" />
            <circle id="detune_atten" cx="15.24" cy="65" r="1" />
            <circle id="detune_knob" cx="23.24" cy="65" r="1" />
            <circle id="bigness_cv" cx="7.24" cy="80.6667" r="1" />
            <circle id="bigness_atten" cx="15.24" cy="80.6667" r="1" />
            <circle id="bigness_knob" cx="23.24" cy="80.6667" r="1" />
            <circle id="mix_cv" cx="7.24" cy="96.3333" r="1" />
            <circle id="mix_atten" cx="15.24" cy="96.3333" r="1" />
            <circle id="mix_knob" cx="23.24" cy="96.3333" r="1" />
        </g>
    </g>
</svg>
