<?xml version="1.0" encoding="utf-8"?>
<svg xmlns="http://www.w3.org/2000/svg" width="20.32mm" height="128.50mm" viewBox="0 0 20.32 128.50">
    <g id="PanelLayer">
        <defs>
            <linearGradient id="gradient_blue" x1="0" y1="15" x2="0" y2="53" gradientUnits="userSpaceOnUse">
                <stop style="stop-color:#3068ff;stop-opacity:1;" offset="0" />
                <stop style="stop-color:#4f8df2;stop-opacity:1;" offset="1" />
            </linearGradient>
            <linearGradient id="gradient_purple" x1="0" y1="47" x2="0" y2="85" gradientUnits="userSpaceOnUse">
                <stop style="stop-color:#a06de4;stop-opacity:1;" offset="0" />
                <stop style="stop-color:#4f8df2;stop-opacity:1;" offset="1" />
            </linearGradient>
            <linearGradient id="gradient_tan" x1="0" y1="79.5" x2="0" y2="119.1" gradientUnits="userSpaceOnUse">
                <stop style="stop-color:#29aab4;stop-opacity:1;" offset="0" />
                <stop style="stop-color:#4f8df2;stop-opacity:1;" offset="1" />
            </linearGradient>
        </defs>
        <g id="ControlLayer" style="display:none;">
            <circle id="x_output" cx="10.16" cy="91.5" r="1" />
            <circle id="y_output" cx="10.16" cy="101.5" r="1" />
            <circle id="z_output" cx="10.16" cy="111.5" r="1" />
            <circle id="speed_knob" cx="10.16" cy="28" r="1" />
            <circle id="speed_atten" cx="5.16" cy="39" r="1" />
            <circle id="speed_cv" cx="15.16" cy="39" r="1" />
            <circle id="chaos_knob" cx="10.16" cy="60" r="1" />
            <circle id="chaos_atten" cx="5.16" cy="71" r="1" />
            <circle id="chaos_cv" cx="15.16" cy="71" r="1" />
        </g>
        <rect id="border_rect" width="20.32" height="128.5" x="0" y="0" style="display:inline;fill:#4f8df2;fill-opacity:1;fill-rule:nonzero;stroke:#5021d4;stroke-width:0.7;stroke-linecap:round;stroke-linejoin:round;stroke-dasharray:none;stroke-opacity:1;image-rendering:auto" />
        <path id="sapphire_gemstone" d="m 12.875,122.900 q 0,0.34175 -0.242534,0.63114 -0.0441,0.0524 -0.20395,0.21497 -0.187413,0.19017 -0.785481,0.81304 l -1.444183,1.51309 q -0.01929,0.003 -0.0441,0.003 -0.02756,0 -0.04134,-0.003 -0.08268,-0.0827 -0.647678,-0.67524 -0.468532,-0.47404 -0.934309,-0.94809 -0.556727,-0.56775 -0.89848,-0.98116 -0.132292,-0.15985 -0.168121,-0.29766 -0.02756,-0.10197 -0.02756,-0.34175 0,-0.11024 0.07166,-0.28939 0.06614,-0.16536 0.140559,-0.26458 0.118512,-0.1571 0.42168,-0.42444 0.283875,-0.2508 0.474044,-0.37482 0.272852,-0.17915 0.818555,-0.36656 0.09646,-0.0331 0.110243,-0.0331 h 1.3615 q 0.01102,0 0.104731,0.0331 0.567751,0.20119 0.824066,0.36656 0.165365,0.10473 0.474045,0.37758 0.322461,0.28388 0.421679,0.42168 0.214974,0.2949 0.214974,0.62563 z m -0.16812,-0.27285 q -0.03307,-0.10749 -0.135048,-0.30868 -0.07166,-0.0937 -0.209462,-0.19844 -0.118511,-0.0854 -0.234266,-0.17088 0.245291,0.3638 0.578776,0.678 z m -0.573264,-0.52366 -0.358289,-0.44648 v 0.41065 z m 0.636653,0.75792 q 0,-0.0524 -0.341753,-0.39412 l 0.228754,0.7028 h 0.04961 q 0.06339,-0.21773 0.06339,-0.30868 z m -0.23151,0.27285 -0.316948,-0.90399 -0.410655,-0.0634 -0.159853,0.61461 z m 0.0028,0.15434 -0.771701,-0.3197 h -0.03032 l 0.344509,0.60634 q 0.07993,-0.003 0.234266,-0.0469 0.02481,-0.0138 0.223242,-0.23978 z m -0.857139,-1.05006 -0.719335,0.28388 0.60358,0.22599 z m 0,-0.16261 v -0.51538 l -0.917773,-0.38034 h -1.223697 l -0.917772,0.38034 v 0.51538 l 0.89848,0.4079 h 1.254014 z m 0.573264,1.53789 q -0.0689,0.011 -0.198438,0.0524 -0.08544,0.0551 -0.259071,0.16261 0.01929,0 0.06339,0.003 0.04134,0 0.06339,0 0.118511,0 0.190169,-0.0689 0.07166,-0.0717 0.14056,-0.14883 z m -0.289388,0.003 -0.347266,-0.63114 -0.363801,0.87918 q 0.0248,-0.0165 0.06615,-0.0165 0.03032,0 0.08544,0.011 0.05788,0.008 0.08819,0.008 0.04961,0 0.228754,-0.10749 0.228754,-0.1378 0.242535,-0.14331 z m -0.440972,-0.74139 -0.683507,-0.2756 -0.592556,0.54845 0.903993,0.65595 z m -0.854383,-0.28387 h -1.036284 l 0.523654,0.47404 z m 0.749652,1.36701 q -0.228754,-0.0303 -0.228754,-0.0303 -0.03583,0 -0.272851,0.0937 l 0.190169,0.0193 q 0.01102,0 0.311436,-0.0827 z m -0.388606,-0.0882 -0.843359,-0.61185 v 0.67524 l 0.471289,0.0827 z m 0.854383,0.0496 q -0.09922,0.006 -0.2949,0.0386 -0.01102,0.003 -0.377583,0.17639 -0.129535,0.34726 -0.380338,1.0418 z m -2.543857,-1.39733 -0.719335,-0.28388 0.124023,0.51814 z m -0.802018,-0.45476 v -0.41065 l -0.366557,0.44648 z m 1.515841,1.07212 -0.592556,-0.54019 -0.683506,0.2756 0.380338,0.9288 z m 0.369314,0.94257 q -0.03307,-0.003 -0.135047,-0.0248 -0.08544,-0.0165 -0.137804,-0.0165 -0.05237,0 -0.137804,0.0165 -0.101975,0.0221 -0.135047,0.0248 0.264583,0.0469 0.272851,0.0469 0.0083,0 0.272851,-0.0469 z m -0.30868,-0.1378 v -0.68626 l -0.843359,0.61185 0.37207,0.14607 z m 0.950846,0.20671 -0.396875,-0.0551 -0.479557,0.14056 v 1.27607 z m -2.888366,-2.20211 q -0.118512,0.0854 -0.234267,0.17364 -0.146072,0.10748 -0.209461,0.19568 -0.0441,0.10473 -0.135048,0.31419 0.369314,-0.3638 0.578776,-0.68351 z m 0.476801,0.83234 -0.159853,-0.61461 -0.410655,0.0634 -0.316948,0.90399 z m 0.394118,1.08313 -0.363802,-0.87918 -0.355533,0.63114 q 0.43546,0.2508 0.451996,0.2508 0.09095,0 0.267339,-0.003 z m 1.821765,0.82958 q -0.132291,0.21222 -0.405143,0.6339 -0.07717,0.10749 -0.220486,0.32797 -0.05788,0.10473 -0.05512,0.226 0.159852,-0.15158 0.432704,-0.49609 0.07717,-0.12954 0.140559,-0.339 0.05512,-0.17639 0.107486,-0.35278 z m -1.493792,-0.66146 -0.270095,-0.0882 -0.0083,-0.011 q -0.02481,0 -0.107487,0.011 -0.06615,0.006 -0.107487,0.006 0.272851,0.091 0.311436,0.091 0.02481,0 0.181901,-0.008 z m -0.810286,-1.06384 h -0.03032 l -0.7717,0.3197 q 0.06615,0.0965 0.223242,0.23978 0.07717,0.0138 0.234266,0.0469 z m -0.689018,-0.50161 q -0.341754,0.34727 -0.341754,0.39412 0,0.0799 0.06339,0.30868 h 0.04961 z m 2.235176,3.04547 v -1.27607 l -0.479557,-0.14056 -0.396875,0.0551 z m -1.606791,-1.6757 q -0.256315,-0.1819 -0.457509,-0.22324 0.06615,0.0772 0.20395,0.22324 z m 1.609547,2.04501 v -0.1378 l -0.683507,-1.05007 q 0.05237,0.17639 0.107487,0.35278 0.06339,0.20946 0.14056,0.339 0.0689,0.11851 0.20395,0.25907 0.115755,0.11851 0.23151,0.23702 z m -0.644921,-0.70555 q -0.115756,-0.32798 -0.380339,-1.0418 -0.135047,-0.0662 -0.272851,-0.12954 -0.159852,-0.0716 -0.289388,-0.0716 -0.05237,0 -0.110243,-0.0138 z" style="stroke-width:0;fill:#0000ff;stroke:#2e2114;stroke-linecap:square;stroke-opacity:1" />
        <path id="model_name" d="M6.81108 4.43369V7.77096Q6.81108 8.36081 6.57049 8.79543Q6.32989 9.23005 5.89527 9.46677Q5.46065 9.70348 4.90185 9.70348Q4.5914 9.70348 4.2732 9.62199Q3.95499 9.5405 3.74932 9.41244Q3.54365 9.28438 3.54365 9.15244Q3.54365 9.09035 3.57858 9.05155Q3.6135 9.01274 3.67559 9.01274Q3.72216 9.01274 3.81529 9.09035Q3.92395 9.19901 4.05589 9.25334Q4.43618 9.40856 4.91737 9.40856Q5.64691 9.40856 6.07377 8.95841Q6.50064 8.50827 6.50064 7.77096V7.23545Q6.29109 7.73216 5.85258 7.98051Q5.41408 8.22887 4.93289 8.22887Q4.40514 8.22887 3.97439 7.96111Q3.54365 7.69335 3.29918 7.22769Q3.0547 6.76202 3.0547 6.1877Q3.0547 5.61337 3.29918 5.14771Q3.54365 4.68204 3.97439 4.41816Q4.40514 4.15429 4.93289 4.15429Q5.45289 4.15429 5.88363 4.42981Q6.31437 4.70533 6.50064 5.09338V4.43369Q6.50064 4.3716 6.54332 4.32503Q6.58601 4.27846 6.65586 4.27846Q6.72571 4.27846 6.76839 4.32503Q6.81108 4.3716 6.81108 4.43369ZM6.53168 6.1877Q6.53168 5.67546 6.32601 5.27965Q6.12034 4.88383 5.75945 4.66652Q5.39856 4.44921 4.94841 4.44921Q4.49827 4.44921 4.13738 4.67428Q3.77649 4.89935 3.57082 5.29517Q3.36515 5.69099 3.36515 6.1877Q3.36515 6.68441 3.57082 7.08022Q3.77649 7.47604 4.13738 7.70499Q4.49827 7.93395 4.94841 7.93395Q5.39856 7.93395 5.75945 7.71276Q6.12034 7.49156 6.32601 7.09575Q6.53168 6.69993 6.53168 6.1877ZM8.29345 8.15126Q8.2236 8.15126 8.18092 8.10469Q8.13823 8.05812 8.13823 7.99604V2.56326Q8.13823 2.50117 8.1848 2.4546Q8.23136 2.40804 8.29345 2.40804Q8.3633 2.40804 8.40599 2.4546Q8.44867 2.50117 8.44867 2.56326V7.99604Q8.44867 8.05812 8.40211 8.10469Q8.35554 8.15126 8.29345 8.15126ZM12.9734 7.35962Q12.9734 7.41395 12.9424 7.45276Q12.6862 7.79425 12.3059 8.01156Q11.9257 8.22887 11.491 8.22887Q10.9089 8.22887 10.4588 7.98051Q10.0087 7.73216 9.75642 7.27425Q9.50419 6.81635 9.50419 6.21098Q9.50419 5.59009 9.74866 5.12054Q9.99314 4.651 10.3967 4.40264Q10.8003 4.15429 11.2582 4.15429Q11.7161 4.15429 12.108 4.35219Q12.5 4.5501 12.7483 4.94592Q12.9967 5.34174 13.0122 5.92382Q13.0122 5.98591 12.9656 6.03636Q12.9191 6.0868 12.857 6.0868H9.80687V6.1877Q9.80687 6.66889 10.0009 7.06858Q10.1949 7.46828 10.5752 7.70111Q10.9555 7.93395 11.491 7.93395Q11.8636 7.93395 12.1934 7.75156Q12.5233 7.56917 12.7095 7.28977Q12.7639 7.21992 12.8415 7.21992Q12.8958 7.21992 12.9346 7.26261Q12.9734 7.3053 12.9734 7.35962ZM9.83791 5.79188H12.694V5.72203Q12.6552 5.32621 12.4418 5.04293Q12.2283 4.75965 11.914 4.61219Q11.5997 4.46473 11.2582 4.46473Q10.971 4.46473 10.6722 4.61607Q10.3734 4.76741 10.1445 5.06622Q9.91552 5.36502 9.83791 5.79188ZM17.2265 7.35962Q17.2265 7.41395 17.1954 7.45276Q16.9393 7.79425 16.559 8.01156Q16.1787 8.22887 15.7441 8.22887Q15.162 8.22887 14.7119 7.98051Q14.2617 7.73216 14.0095 7.27425Q13.7573 6.81635 13.7573 6.21098Q13.7573 5.59009 14.0018 5.12054Q14.2462 4.651 14.6498 4.40264Q15.0534 4.15429 15.5113 4.15429Q15.9692 4.15429 16.3611 4.35219Q16.7531 4.5501 17.0014 4.94592Q17.2498 5.34174 17.2653 5.92382Q17.2653 5.98591 17.2187 6.03636Q17.1722 6.0868 17.1101 6.0868H14.06V6.1877Q14.06 6.66889 14.254 7.06858Q14.448 7.46828 14.8283 7.70111Q15.2086 7.93395 15.7441 7.93395Q16.1167 7.93395 16.4465 7.75156Q16.7763 7.56917 16.9626 7.28977Q17.0169 7.21992 17.0946 7.21992Q17.1489 7.21992 17.1877 7.26261Q17.2265 7.3053 17.2265 7.35962ZM14.091 5.79188H16.9471V5.72203Q16.9083 5.32621 16.6949 5.04293Q16.4814 4.75965 16.1671 4.61219Q15.8528 4.46473 15.5113 4.46473Q15.2241 4.46473 14.9253 4.61607Q14.6265 4.76741 14.3976 5.06622Q14.1686 5.36502 14.091 5.79188Z" style="display:inline;stroke:#000000;stroke-width:0.35;stroke-linecap:round;stroke-linejoin:bevel" />
        <path id="speed_art" d="M 0.38,53.00 L 0.38,19.00 A 4 4 0 0 1 4.38 15 L 15.94,15.00 A 4 4 0 0 0 19.94 11 L 19.94,15.00 L 19.94,53.00 z" style="fill:url(#gradient_blue);fill-opacity:1;stroke-width:0;" />
        <path id="chaos_art" d="M 0.38,85.00 L 0.38,51.00 A 4 4 0 0 1 4.38 47 L 15.94,47.00 A 4 4 0 0 0 19.94 43 L 19.94,47.00 L 19.94,85.00 z" style="fill:url(#gradient_purple);fill-opacity:1;stroke-width:0;" />
        <path id="out_art" d="M 0.38,119.10 L 0.38,83.50 A 4 4 0 0 1 4.38 79.5 L 15.94,79.50 A 4 4 0 0 0 19.94 75.5 L 19.94,79.50 L 19.94,119.10 z" style="fill:url(#gradient_tan);fill-opacity:1;stroke-width:0;" />
        <path d="M4.80464 19.6791Q4.78347 19.6579 4.78347 19.6262Q4.78347 19.5979 4.80817 19.5715Q4.83286 19.545 4.86108 19.545Q4.89283 19.545 4.92106 19.5768Q5.05864 19.739 5.24737 19.8237Q5.43611 19.9084 5.64425 19.9084Q5.91589 19.9084 6.09228 19.7778Q6.26867 19.6473 6.26867 19.4321Q6.26514 19.2628 6.17694 19.1534Q6.08875 19.0441 5.95999 18.9788Q5.83122 18.9135 5.60897 18.8324Q5.36556 18.7407 5.22974 18.6701Q5.09392 18.5996 4.9969 18.469Q4.89989 18.3385 4.89989 18.1268Q4.89989 17.954 4.99514 17.8129Q5.09039 17.6718 5.26678 17.5906Q5.44317 17.5095 5.676 17.5095Q5.88414 17.5095 6.07111 17.5853Q6.25808 17.6612 6.36744 17.7988Q6.40272 17.8482 6.40272 17.8728Q6.40272 17.9011 6.37626 17.924Q6.34981 17.9469 6.31806 17.9469Q6.28983 17.9469 6.27219 17.9258Q6.17342 17.7988 6.01819 17.7247Q5.86297 17.6506 5.676 17.6506Q5.40789 17.6506 5.22974 17.7776Q5.05158 17.9046 5.05158 18.1233Q5.05158 18.275 5.13801 18.3808Q5.22444 18.4867 5.35497 18.5519Q5.4855 18.6172 5.67953 18.6878Q5.92647 18.776 6.07111 18.85Q6.21575 18.9241 6.31806 19.0652Q6.42036 19.2063 6.42036 19.4392Q6.42036 19.6015 6.32511 19.7426Q6.22986 19.8837 6.05171 19.9666Q5.87356 20.0495 5.64425 20.0495Q5.38319 20.0495 5.18917 19.9595Q4.99514 19.8696 4.80464 19.6791ZM8.53703 18.2186Q8.53703 18.4161 8.45413 18.5766Q8.37122 18.7372 8.21953 18.8271Q8.06783 18.9171 7.87028 18.9171H7.10122V19.9437Q7.10122 19.9719 7.07829 19.993Q7.05536 20.0142 7.02714 20.0142Q6.99539 20.0142 6.97422 19.993Q6.95306 19.9719 6.95306 19.9437V17.6153Q6.95306 17.5871 6.97422 17.5659Q6.99539 17.5448 7.02361 17.5448H7.87028Q8.17014 17.5448 8.35358 17.7317Q8.53703 17.9187 8.53703 18.2186ZM8.38886 18.2186Q8.38886 17.9752 8.24951 17.8305Q8.11017 17.6859 7.87028 17.6859H7.10122V18.776H7.87028Q8.10664 18.776 8.24775 18.619Q8.38886 18.462 8.38886 18.2186ZM10.5196 19.9437Q10.5196 19.9754 10.4985 19.9948Q10.4773 20.0142 10.4491 20.0142H9.11911Q9.09089 20.0142 9.06972 19.993Q9.04856 19.9719 9.04856 19.9437V17.6153Q9.04856 17.5871 9.06972 17.5659Q9.09089 17.5448 9.11911 17.5448H10.4491Q10.4773 17.5448 10.4985 17.5659Q10.5196 17.5871 10.5196 17.6153Q10.5196 17.6471 10.4985 17.6665Q10.4773 17.6859 10.4491 17.6859H9.19672V18.6701H10.2903Q10.3186 18.6701 10.3397 18.6913Q10.3609 18.7125 10.3609 18.7407Q10.3609 18.7724 10.3397 18.7918Q10.3186 18.8112 10.2903 18.8112H9.19672V19.8731H10.4491Q10.4773 19.8731 10.4985 19.8943Q10.5196 19.9154 10.5196 19.9437ZM12.5199 19.9437Q12.5199 19.9754 12.4987 19.9948Q12.4776 20.0142 12.4493 20.0142H11.1194Q11.0911 20.0142 11.07 19.993Q11.0488 19.9719 11.0488 19.9437V17.6153Q11.0488 17.5871 11.07 17.5659Q11.0911 17.5448 11.1194 17.5448H12.4493Q12.4776 17.5448 12.4987 17.5659Q12.5199 17.5871 12.5199 17.6153Q12.5199 17.6471 12.4987 17.6665Q12.4776 17.6859 12.4493 17.6859H11.197V18.6701H12.2906Q12.3188 18.6701 12.34 18.6913Q12.3611 18.7125 12.3611 18.7407Q12.3611 18.7724 12.34 18.7918Q12.3188 18.8112 12.2906 18.8112H11.197V19.8731H12.4493Q12.4776 19.8731 12.4987 19.8943Q12.5199 19.9154 12.5199 19.9437ZM15.0599 18.7795Q15.0599 19.1287 14.9488 19.4074Q14.8376 19.6861 14.6083 19.8502Q14.379 20.0142 14.0368 20.0142H13.1196Q13.0914 20.0142 13.0702 19.993Q13.0491 19.9719 13.0491 19.9437V17.6153Q13.0491 17.5871 13.0702 17.5659Q13.0914 17.5448 13.1196 17.5448H14.0368Q14.3755 17.5448 14.6066 17.7141Q14.8376 17.8834 14.9488 18.1639Q15.0599 18.4443 15.0599 18.7795ZM14.9117 18.7795Q14.9117 18.4796 14.8147 18.2309Q14.7177 17.9822 14.5148 17.834Q14.312 17.6859 14.0016 17.6859H13.1972V19.8731H14.0016Q14.4602 19.8731 14.6859 19.5715Q14.9117 19.2698 14.9117 18.7795Z" style="stroke:#000000;stroke-width:0.25;stroke-linecap:round;stroke-linejoin:bevel" />
        <path d="M6.37192 49.8058Q6.37192 49.834 6.35781 49.8517Q6.33664 49.8799 6.30489 49.8799Q6.29078 49.8799 6.26256 49.8658Q5.93447 49.6435 5.56758 49.6435Q5.27125 49.6435 5.02254 49.7899Q4.77383 49.9363 4.62919 50.1956Q4.48456 50.4549 4.48456 50.7795Q4.48456 51.104 4.62919 51.3633Q4.77383 51.6226 5.02254 51.769Q5.27125 51.9154 5.56758 51.9154Q5.938 51.9154 6.25903 51.6967Q6.27667 51.6826 6.30136 51.6826Q6.33664 51.6826 6.35781 51.7108Q6.37192 51.7285 6.37192 51.7532Q6.37192 51.7884 6.34369 51.8096Q6.20611 51.9084 5.98915 51.9789Q5.77219 52.0495 5.56758 52.0495Q5.23244 52.0495 4.95022 51.8837Q4.668 51.7179 4.50219 51.4268Q4.33639 51.1358 4.33639 50.7795Q4.33639 50.4232 4.50219 50.1321Q4.668 49.8411 4.95022 49.6753Q5.23244 49.5095 5.56758 49.5095Q5.77925 49.5095 5.97857 49.573Q6.17789 49.6365 6.34017 49.7494Q6.37192 49.7741 6.37192 49.8058ZM8.68261 49.6188V51.9401Q8.67908 51.9719 8.65792 51.993Q8.63675 52.0142 8.60853 52.0142Q8.57325 52.0142 8.55385 51.993Q8.53444 51.9719 8.53444 51.9401V50.8148H6.99633V51.9401Q6.99281 51.9719 6.97164 51.993Q6.95047 52.0142 6.92225 52.0142Q6.88697 52.0142 6.86757 51.993Q6.84817 51.9719 6.84817 51.9401V49.6188Q6.84817 49.5871 6.86933 49.5659Q6.8905 49.5448 6.92225 49.5448Q6.954 49.5448 6.97517 49.5659Q6.99633 49.5871 6.99633 49.6188V50.6737H8.53444V49.6188Q8.53444 49.5871 8.55561 49.5659Q8.57678 49.5448 8.60853 49.5448Q8.64028 49.5448 8.66144 49.5659Q8.68261 49.5871 8.68261 49.6188ZM11.2014 51.9472Q11.2014 51.9789 11.1803 51.9966Q11.1591 52.0142 11.1274 52.0142Q11.1027 52.0142 11.0833 52.0019Q11.0639 51.9895 11.0568 51.9683L10.7605 51.2416L10.764 51.2487H9.58219L9.29644 51.9683Q9.27881 52.0142 9.23294 52.0142Q9.20119 52.0142 9.18179 51.9966Q9.16239 51.9789 9.15886 51.9542Q9.15533 51.9401 9.16239 51.919L10.1114 49.5836Q10.1219 49.5553 10.1378 49.5465Q10.1537 49.5377 10.1784 49.5377Q10.2313 49.5377 10.2489 49.5836L11.1979 51.919Q11.2014 51.9295 11.2014 51.9472ZM9.63864 51.1076H10.7076L10.1678 49.7776ZM12.6796 52.0495Q12.3374 52.0495 12.0693 51.889Q11.8012 51.7285 11.6512 51.4392Q11.5013 51.1499 11.5013 50.7795Q11.5013 50.4091 11.6512 50.1198Q11.8012 49.8305 12.0693 49.67Q12.3374 49.5095 12.6796 49.5095Q13.0218 49.5095 13.2899 49.67Q13.558 49.8305 13.7079 50.1198Q13.8579 50.4091 13.8579 50.7795Q13.8579 51.1499 13.7079 51.4392Q13.558 51.7285 13.2899 51.889Q13.0218 52.0495 12.6796 52.0495ZM12.6796 49.6506Q12.3797 49.6506 12.1451 49.7917Q11.9105 49.9328 11.78 50.1903Q11.6495 50.4479 11.6495 50.7795Q11.6495 51.1111 11.78 51.3686Q11.9105 51.6262 12.1451 51.7673Q12.3797 51.9084 12.6796 51.9084Q12.9794 51.9084 13.214 51.7673Q13.4486 51.6262 13.5792 51.3686Q13.7097 51.1111 13.7097 50.7795Q13.7097 50.4479 13.5792 50.1903Q13.4486 49.9328 13.214 49.7917Q12.9794 49.6506 12.6796 49.6506ZM14.1789 51.6791Q14.1577 51.6579 14.1577 51.6262Q14.1577 51.5979 14.1824 51.5715Q14.2071 51.545 14.2353 51.545Q14.2671 51.545 14.2953 51.5768Q14.4329 51.739 14.6216 51.8237Q14.8104 51.9084 15.0185 51.9084Q15.2901 51.9084 15.4665 51.7778Q15.6429 51.6473 15.6429 51.4321Q15.6394 51.2628 15.5512 51.1534Q15.463 51.0441 15.3342 50.9788Q15.2055 50.9135 14.9832 50.8324Q14.7398 50.7407 14.604 50.6701Q14.4682 50.5996 14.3712 50.469Q14.2741 50.3385 14.2741 50.1268Q14.2741 49.954 14.3694 49.8129Q14.4646 49.6718 14.641 49.5906Q14.8174 49.5095 15.0503 49.5095Q15.2584 49.5095 15.4454 49.5853Q15.6323 49.6612 15.7417 49.7988Q15.777 49.8482 15.777 49.8728Q15.777 49.9011 15.7505 49.924Q15.7241 49.9469 15.6923 49.9469Q15.6641 49.9469 15.6464 49.9258Q15.5477 49.7988 15.3924 49.7247Q15.2372 49.6506 15.0503 49.6506Q14.7821 49.6506 14.604 49.7776Q14.4258 49.9046 14.4258 50.1233Q14.4258 50.275 14.5123 50.3808Q14.5987 50.4867 14.7292 50.5519Q14.8598 50.6172 15.0538 50.6878Q15.3007 50.776 15.4454 50.85Q15.59 50.9241 15.6923 51.0652Q15.7946 51.2063 15.7946 51.4392Q15.7946 51.6015 15.6994 51.7426Q15.6041 51.8837 15.426 51.9666Q15.2478 52.0495 15.0185 52.0495Q14.7574 52.0495 14.5634 51.9595Q14.3694 51.8696 14.1789 51.6791Z" style="stroke:#000000;stroke-width:0.25;stroke-linecap:round;stroke-linejoin:bevel" />
        <g id="connector_lines" style="fill:none;stroke:#000000;stroke-width:0.25;stroke-linecap:round;stroke-linejoin:bevel;stroke-dasharray:none">
            <line x1="10.16" y1="28.00" x2="5.16" y2="39.00" />
            <line x1="10.16" y1="28.00" x2="15.16" y2="39.00" />
            <line x1="10.16" y1="60.00" x2="5.16" y2="71.00" />
            <line x1="10.16" y1="60.00" x2="15.16" y2="71.00" />
        </g>
        <path id="out_label" d="M7.61467 84.6495Q7.27247 84.6495 7.00436 84.489Q6.73625 84.3285 6.58632 84.0392Q6.43639 83.7499 6.43639 83.3795Q6.43639 83.0091 6.58632 82.7198Q6.73625 82.4305 7.00436 82.27Q7.27247 82.1095 7.61467 82.1095Q7.95686 82.1095 8.22497 82.27Q8.49308 82.4305 8.64301 82.7198Q8.79294 83.0091 8.79294 83.3795Q8.79294 83.7499 8.64301 84.0392Q8.49308 84.3285 8.22497 84.489Q7.95686 84.6495 7.61467 84.6495ZM7.61467 82.2506Q7.31481 82.2506 7.08021 82.3917Q6.84561 82.5328 6.71508 82.7903Q6.58456 83.0479 6.58456 83.3795Q6.58456 83.7111 6.71508 83.9686Q6.84561 84.2262 7.08021 84.3673Q7.31481 84.5084 7.61467 84.5084Q7.91453 84.5084 8.14912 84.3673Q8.38372 84.2262 8.51425 83.9686Q8.64478 83.7111 8.64478 83.3795Q8.64478 83.0479 8.51425 82.7903Q8.38372 82.5328 8.14912 82.3917Q7.91453 82.2506 7.61467 82.2506ZM11.1389 82.2153V83.7393Q11.1389 83.9863 11.0154 84.1944Q10.892 84.4025 10.6838 84.526Q10.4757 84.6495 10.2323 84.6495Q9.98533 84.6495 9.77719 84.526Q9.56906 84.4025 9.44558 84.1944Q9.32211 83.9863 9.32211 83.7393V82.2153Q9.32211 82.1836 9.34328 82.1642Q9.36444 82.1448 9.39619 82.1448Q9.42794 82.1448 9.44911 82.1659Q9.47028 82.1871 9.47028 82.2153V83.7393Q9.47028 83.9475 9.57258 84.1238Q9.67489 84.3002 9.84951 84.4043Q10.0241 84.5084 10.2323 84.5084Q10.4404 84.5084 10.615 84.4043Q10.7897 84.3002 10.8937 84.1238Q10.9978 83.9475 10.9978 83.7393V82.2153Q10.9978 82.1871 11.0172 82.1659Q11.0366 82.1448 11.0684 82.1448Q11.1001 82.1448 11.1195 82.1659Q11.1389 82.1871 11.1389 82.2153ZM13.4708 82.2118Q13.4708 82.2435 13.4514 82.2612Q13.432 82.2788 13.4002 82.2788H12.6135V84.5437Q12.6135 84.5719 12.5924 84.593Q12.5712 84.6142 12.543 84.6142Q12.5112 84.6142 12.4918 84.593Q12.4724 84.5719 12.4724 84.5437V82.2788H11.6857Q11.6575 82.2788 11.6363 82.2594Q11.6152 82.24 11.6152 82.2118Q11.6152 82.1836 11.6363 82.1642Q11.6575 82.1448 11.6857 82.1448H13.4002Q13.4284 82.1448 13.4496 82.1642Q13.4708 82.1836 13.4708 82.2118Z" style="stroke:#000000;stroke-width:0.25;stroke-linecap:round;stroke-linejoin:bevel" />
        <path id="port_label_x" d="M4.61439 92.6119Q4.63203 92.6366 4.63203 92.6542Q4.63203 92.686 4.61086 92.7054Q4.58969 92.7248 4.55794 92.7248Q4.51914 92.7248 4.5015 92.6966L3.69364 91.5959L2.88931 92.6966Q2.87167 92.7248 2.83639 92.7248Q2.80464 92.7248 2.787 92.7054Q2.76936 92.686 2.76936 92.6648Q2.76936 92.6472 2.787 92.619L3.61603 91.4865L2.77994 90.3471Q2.76583 90.3294 2.76583 90.3047Q2.76583 90.273 2.787 90.2536Q2.80817 90.2342 2.83639 90.2342Q2.87872 90.2342 2.89636 90.2624L3.70422 91.3666L4.50856 90.2589Q4.52972 90.2307 4.56147 90.2307Q4.59322 90.2307 4.61262 90.2465Q4.63203 90.2624 4.63203 90.2871Q4.63203 90.3118 4.61439 90.3365L3.78536 91.4795Z" style="stroke:#000000;stroke-width:0.25;stroke-linecap:round;stroke-linejoin:bevel" />
        <path id="port_label_y" d="M4.50503 100.344 3.70069 101.437V102.644Q3.70069 102.672 3.67953 102.693Q3.65836 102.714 3.62661 102.714Q3.59486 102.714 3.57369 102.693Q3.55253 102.672 3.55253 102.644V101.451L2.74467 100.344Q2.73056 100.326 2.73056 100.298Q2.73056 100.273 2.75349 100.252Q2.77642 100.231 2.80464 100.231Q2.84344 100.231 2.86461 100.262L3.62661 101.303L4.38861 100.262Q4.40978 100.231 4.44858 100.231Q4.48033 100.231 4.49974 100.254Q4.51914 100.277 4.51914 100.298Q4.51914 100.315 4.50503 100.344Z" style="stroke:#000000;stroke-width:0.25;stroke-linecap:round;stroke-linejoin:bevel" />
        <path id="port_label_z" d="M4.74844 112.647Q4.74844 112.675 4.72728 112.695Q4.70611 112.714 4.67789 112.714H2.94222Q2.91047 112.714 2.89107 112.691Q2.87167 112.668 2.87167 112.64Q2.87167 112.615 2.88578 112.598L4.55089 110.379H3.01278Q2.98456 110.379 2.96339 110.359Q2.94222 110.34 2.94222 110.312Q2.94222 110.284 2.96339 110.264Q2.98456 110.245 3.01278 110.245H4.67083Q4.71317 110.245 4.73257 110.266Q4.75197 110.287 4.75197 110.315Q4.75197 110.34 4.73786 110.358L3.07628 112.58H4.67789Q4.70611 112.58 4.72728 112.601Q4.74844 112.622 4.74844 112.647Z" style="stroke:#000000;stroke-width:0.25;stroke-linecap:round;stroke-linejoin:bevel" />
    </g>
</svg>
