<?xml version="1.0" encoding="utf-8"?>
<svg xmlns="http://www.w3.org/2000/svg" width="30.48mm" height="128.50mm" viewBox="0 0 30.48 128.50">
    <g id="PanelLayer">
        <defs>
            <linearGradient id="gradient_in" x1="0" y1="12.5" x2="0" y2="28" gradientUnits="userSpaceOnUse">
                <stop style="stop-color:#a06de4;stop-opacity:1;" offset="0" />
                <stop style="stop-color:#4f8df2;stop-opacity:1;" offset="1" />
            </linearGradient>
            <linearGradient id="gradient_controls" x1="0" y1="30.9" x2="0" y2="120" gradientUnits="userSpaceOnUse">
                <stop style="stop-color:#3068ff;stop-opacity:1;" offset="0" />
                <stop style="stop-color:#4f8df2;stop-opacity:1;" offset="1" />
            </linearGradient>
            <linearGradient id="gradient_out" x1="0" y1="104.5" x2="0" y2="120" gradientUnits="userSpaceOnUse">
                <stop style="stop-color:#ba60d1;stop-opacity:1;" offset="0" />
                <stop style="stop-color:#4f8df2;stop-opacity:1;" offset="1" />
            </linearGradient>
        </defs>
        <rect id="border_rect" width="30.48" height="128.5" x="0" y="0" style="display:inline;fill:#4f8df2;fill-opacity:1;fill-rule:nonzero;stroke:#5021d4;stroke-width:0.7;stroke-linecap:round;stroke-linejoin:round;stroke-dasharray:none;stroke-opacity:1;image-rendering:auto" />
        <path id="model_name" d="M9.05439 4.43369V7.77096Q9.05439 8.36081 8.8138 8.79543Q8.57321 9.23005 8.13858 9.46677Q7.70396 9.70348 7.14516 9.70348Q6.83472 9.70348 6.51651 9.62199Q6.19831 9.5405 5.99264 9.41244Q5.78697 9.28438 5.78697 9.15244Q5.78697 9.09035 5.82189 9.05155Q5.85682 9.01274 5.91891 9.01274Q5.96547 9.01274 6.05861 9.09035Q6.16726 9.19901 6.2992 9.25334Q6.67949 9.40856 7.16068 9.40856Q7.89023 9.40856 8.31709 8.95841Q8.74395 8.50827 8.74395 7.77096V7.23545Q8.5344 7.73216 8.0959 7.98051Q7.65739 8.22887 7.17621 8.22887Q6.64845 8.22887 6.21771 7.96111Q5.78697 7.69335 5.54249 7.22769Q5.29802 6.76202 5.29802 6.1877Q5.29802 5.61337 5.54249 5.14771Q5.78697 4.68204 6.21771 4.41816Q6.64845 4.15429 7.17621 4.15429Q7.6962 4.15429 8.12694 4.42981Q8.55768 4.70533 8.74395 5.09338V4.43369Q8.74395 4.3716 8.78664 4.32503Q8.82932 4.27846 8.89917 4.27846Q8.96902 4.27846 9.01171 4.32503Q9.05439 4.3716 9.05439 4.43369ZM8.77499 6.1877Q8.77499 5.67546 8.56933 5.27965Q8.36366 4.88383 8.00276 4.66652Q7.64187 4.44921 7.19173 4.44921Q6.74158 4.44921 6.38069 4.67428Q6.0198 4.89935 5.81413 5.29517Q5.60846 5.69099 5.60846 6.1877Q5.60846 6.68441 5.81413 7.08022Q6.0198 7.47604 6.38069 7.70499Q6.74158 7.93395 7.19173 7.93395Q7.64187 7.93395 8.00276 7.71276Q8.36366 7.49156 8.56933 7.09575Q8.77499 6.69993 8.77499 6.1877ZM12.4538 4.33279Q12.4538 4.40264 12.415 4.44921Q12.3762 4.49578 12.3141 4.49578Q12.2908 4.49578 12.2015 4.46085Q12.1123 4.42592 12.0114 4.42592Q11.6932 4.42592 11.375 4.67816Q11.0568 4.9304 10.855 5.31457Q10.6532 5.69875 10.6532 6.05576V7.99604Q10.6532 8.05812 10.6066 8.10469Q10.5601 8.15126 10.498 8.15126Q10.4281 8.15126 10.3854 8.10469Q10.3427 8.05812 10.3427 7.99604V4.43369Q10.3427 4.3716 10.3893 4.32503Q10.4359 4.27846 10.498 4.27846Q10.5678 4.27846 10.6105 4.32503Q10.6532 4.3716 10.6532 4.43369V5.25636Q10.8317 4.78294 11.2081 4.47249Q11.5845 4.16205 12.0968 4.15429Q12.4538 4.15429 12.4538 4.33279ZM16.5283 4.43369V7.99604Q16.5283 8.05812 16.4818 8.10469Q16.4352 8.15126 16.3731 8.15126Q16.3033 8.15126 16.2606 8.10469Q16.2179 8.05812 16.2179 7.99604V7.29754Q16.0239 7.69335 15.6203 7.96111Q15.2167 8.22887 14.7278 8.22887Q14.2155 8.22887 13.8042 7.96111Q13.3929 7.69335 13.16 7.22381Q12.9272 6.75426 12.9272 6.17217Q12.9272 5.59785 13.1639 5.13607Q13.4006 4.67428 13.812 4.41428Q14.2233 4.15429 14.7278 4.15429Q15.2322 4.15429 15.6358 4.41816Q16.0394 4.68204 16.2179 5.12443V4.43369Q16.2179 4.3716 16.2606 4.32503Q16.3033 4.27846 16.3731 4.27846Q16.443 4.27846 16.4857 4.32503Q16.5283 4.3716 16.5283 4.43369ZM16.2489 6.17217Q16.2489 5.69875 16.0549 5.30293Q15.8609 4.90711 15.5155 4.67816Q15.1701 4.44921 14.7433 4.44921Q14.3164 4.44921 13.9711 4.6704Q13.6257 4.89159 13.4317 5.28353Q13.2376 5.67546 13.2376 6.17217Q13.2376 6.66889 13.4317 7.07246Q13.6257 7.47604 13.9672 7.70499Q14.3087 7.93395 14.7433 7.93395Q15.1701 7.93395 15.5155 7.70499Q15.8609 7.47604 16.0549 7.07246Q16.2489 6.66889 16.2489 6.17217ZM20.8978 4.26294Q20.8978 4.30951 20.8746 4.35608L19.3301 8.05036Q19.3146 8.09693 19.2719 8.12409Q19.2292 8.15126 19.1826 8.15126Q19.1361 8.15126 19.0934 8.12409Q19.0507 8.09693 19.0352 8.05036L17.483 4.36384Q17.4674 4.31727 17.4674 4.29399Q17.4674 4.2319 17.5101 4.18533Q17.5528 4.13876 17.6304 4.13876Q17.6692 4.13876 17.7119 4.16593Q17.7546 4.19309 17.7701 4.23966L19.1749 7.61574L20.5874 4.23966Q20.6262 4.13876 20.7504 4.13876Q20.797 4.13876 20.8474 4.17369Q20.8978 4.20861 20.8978 4.26294ZM24.9103 4.30951V7.77096Q24.9103 8.35305 24.6736 8.79155Q24.4369 9.23005 24.0217 9.46677Q23.6065 9.70348 23.0787 9.70348Q22.7372 9.70348 22.454 9.62199Q22.1707 9.5405 21.9766 9.40856Q21.8369 9.31542 21.8913 9.19901Q21.9456 9.10587 22.0232 9.10587Q22.062 9.10587 22.0931 9.12916Q22.2793 9.24557 22.5393 9.33483Q22.7993 9.42408 23.0942 9.42408Q23.5366 9.42408 23.8781 9.21453Q24.2196 9.00498 24.4098 8.62857Q24.5999 8.25215 24.5999 7.77096V7.42171Q24.4214 7.77096 24.0295 7.99992Q23.6375 8.22887 23.2184 8.22887Q22.5199 8.22887 22.1784 7.82917Q21.8369 7.42948 21.8369 6.73097V4.30951Q21.8369 4.24742 21.8796 4.20085Q21.9223 4.15429 21.9922 4.15429Q22.062 4.15429 22.1047 4.20085Q22.1474 4.24742 22.1474 4.30951V6.73097Q22.1474 7.93395 23.2184 7.93395Q23.5521 7.93395 23.8742 7.75932Q24.1963 7.5847 24.3981 7.3053Q24.5999 7.0259 24.5999 6.73097V4.30951Q24.5999 4.24742 24.6426 4.20085Q24.6853 4.15429 24.7551 4.15429Q24.825 4.15429 24.8677 4.20085Q24.9103 4.24742 24.9103 4.30951Z" style="display:inline;stroke:#000000;stroke-width:0.35;stroke-linecap:round;stroke-linejoin:bevel" />
        <path id="sapphire_gemstone" d="m 17.955,122.900 q 0,0.34175 -0.242534,0.63114 -0.0441,0.0524 -0.20395,0.21497 -0.187413,0.19017 -0.785481,0.81304 l -1.444183,1.51309 q -0.01929,0.003 -0.0441,0.003 -0.02756,0 -0.04134,-0.003 -0.08268,-0.0827 -0.647678,-0.67524 -0.468532,-0.47404 -0.934309,-0.94809 -0.556727,-0.56775 -0.89848,-0.98116 -0.132292,-0.15985 -0.168121,-0.29766 -0.02756,-0.10197 -0.02756,-0.34175 0,-0.11024 0.07166,-0.28939 0.06614,-0.16536 0.140559,-0.26458 0.118512,-0.1571 0.42168,-0.42444 0.283875,-0.2508 0.474044,-0.37482 0.272852,-0.17915 0.818555,-0.36656 0.09646,-0.0331 0.110243,-0.0331 h 1.3615 q 0.01102,0 0.104731,0.0331 0.567751,0.20119 0.824066,0.36656 0.165365,0.10473 0.474045,0.37758 0.322461,0.28388 0.421679,0.42168 0.214974,0.2949 0.214974,0.62563 z m -0.16812,-0.27285 q -0.03307,-0.10749 -0.135048,-0.30868 -0.07166,-0.0937 -0.209462,-0.19844 -0.118511,-0.0854 -0.234266,-0.17088 0.245291,0.3638 0.578776,0.678 z m -0.573264,-0.52366 -0.358289,-0.44648 v 0.41065 z m 0.636653,0.75792 q 0,-0.0524 -0.341753,-0.39412 l 0.228754,0.7028 h 0.04961 q 0.06339,-0.21773 0.06339,-0.30868 z m -0.23151,0.27285 -0.316948,-0.90399 -0.410655,-0.0634 -0.159853,0.61461 z m 0.0028,0.15434 -0.771701,-0.3197 h -0.03032 l 0.344509,0.60634 q 0.07993,-0.003 0.234266,-0.0469 0.02481,-0.0138 0.223242,-0.23978 z m -0.857139,-1.05006 -0.719335,0.28388 0.60358,0.22599 z m 0,-0.16261 v -0.51538 l -0.917773,-0.38034 h -1.223697 l -0.917772,0.38034 v 0.51538 l 0.89848,0.4079 h 1.254014 z m 0.573264,1.53789 q -0.0689,0.011 -0.198438,0.0524 -0.08544,0.0551 -0.259071,0.16261 0.01929,0 0.06339,0.003 0.04134,0 0.06339,0 0.118511,0 0.190169,-0.0689 0.07166,-0.0717 0.14056,-0.14883 z m -0.289388,0.003 -0.347266,-0.63114 -0.363801,0.87918 q 0.0248,-0.0165 0.06615,-0.0165 0.03032,0 0.08544,0.011 0.05788,0.008 0.08819,0.008 0.04961,0 0.228754,-0.10749 0.228754,-0.1378 0.242535,-0.14331 z m -0.440972,-0.74139 -0.683507,-0.2756 -0.592556,0.54845 0.903993,0.65595 z m -0.854383,-0.28387 h -1.036284 l 0.523654,0.47404 z m 0.749652,1.36701 q -0.228754,-0.0303 -0.228754,-0.0303 -0.03583,0 -0.272851,0.0937 l 0.190169,0.0193 q 0.01102,0 0.311436,-0.0827 z m -0.388606,-0.0882 -0.843359,-0.61185 v 0.67524 l 0.471289,0.0827 z m 0.854383,0.0496 q -0.09922,0.006 -0.2949,0.0386 -0.01102,0.003 -0.377583,0.17639 -0.129535,0.34726 -0.380338,1.0418 z m -2.543857,-1.39733 -0.719335,-0.28388 0.124023,0.51814 z m -0.802018,-0.45476 v -0.41065 l -0.366557,0.44648 z m 1.515841,1.07212 -0.592556,-0.54019 -0.683506,0.2756 0.380338,0.9288 z m 0.369314,0.94257 q -0.03307,-0.003 -0.135047,-0.0248 -0.08544,-0.0165 -0.137804,-0.0165 -0.05237,0 -0.137804,0.0165 -0.101975,0.0221 -0.135047,0.0248 0.264583,0.0469 0.272851,0.0469 0.0083,0 0.272851,-0.0469 z m -0.30868,-0.1378 v -0.68626 l -0.843359,0.61185 0.37207,0.14607 z m 0.950846,0.20671 -0.396875,-0.0551 -0.479557,0.14056 v 1.27607 z m -2.888366,-2.20211 q -0.118512,0.0854 -0.234267,0.17364 -0.146072,0.10748 -0.209461,0.19568 -0.0441,0.10473 -0.135048,0.31419 0.369314,-0.3638 0.578776,-0.68351 z m 0.476801,0.83234 -0.159853,-0.61461 -0.410655,0.0634 -0.316948,0.90399 z m 0.394118,1.08313 -0.363802,-0.87918 -0.355533,0.63114 q 0.43546,0.2508 0.451996,0.2508 0.09095,0 0.267339,-0.003 z m 1.821765,0.82958 q -0.132291,0.21222 -0.405143,0.6339 -0.07717,0.10749 -0.220486,0.32797 -0.05788,0.10473 -0.05512,0.226 0.159852,-0.15158 0.432704,-0.49609 0.07717,-0.12954 0.140559,-0.339 0.05512,-0.17639 0.107486,-0.35278 z m -1.493792,-0.66146 -0.270095,-0.0882 -0.0083,-0.011 q -0.02481,0 -0.107487,0.011 -0.06615,0.006 -0.107487,0.006 0.272851,0.091 0.311436,0.091 0.02481,0 0.181901,-0.008 z m -0.810286,-1.06384 h -0.03032 l -0.7717,0.3197 q 0.06615,0.0965 0.223242,0.23978 0.07717,0.0138 0.234266,0.0469 z m -0.689018,-0.50161 q -0.341754,0.34727 -0.341754,0.39412 0,0.0799 0.06339,0.30868 h 0.04961 z m 2.235176,3.04547 v -1.27607 l -0.479557,-0.14056 -0.396875,0.0551 z m -1.606791,-1.6757 q -0.256315,-0.1819 -0.457509,-0.22324 0.06615,0.0772 0.20395,0.22324 z m 1.609547,2.04501 v -0.1378 l -0.683507,-1.05007 q 0.05237,0.17639 0.107487,0.35278 0.06339,0.20946 0.14056,0.339 0.0689,0.11851 0.20395,0.25907 0.115755,0.11851 0.23151,0.23702 z m -0.644921,-0.70555 q -0.115756,-0.32798 -0.380339,-1.0418 -0.135047,-0.0662 -0.272851,-0.12954 -0.159852,-0.0716 -0.289388,-0.0716 -0.05237,0 -0.110243,-0.0138 z" style="stroke-width:0;fill:#0000ff;stroke:#2e2114;stroke-linecap:square;stroke-opacity:1" />
        <path id="in_art" d="M 0.38,28.00 L 0.38,16.50 A 4 4 0 0 1 4.38 12.5 L 26.10,12.50 A 4 4 0 0 1 30.1 16.5 L 30.10,12.50 L 30.10,28.00 z" style="fill:url(#gradient_in);fill-opacity:1;stroke-width:0;" />
        <path id="controls_art" d="M 0.38,120.00 L 0.38,34.90 A 4 4 0 0 1 4.38 30.9 L 26.10,30.90 A 4 4 0 0 1 30.1 34.9 L 30.10,30.90 L 30.10,120.00 z" style="fill:url(#gradient_controls);fill-opacity:1;stroke-width:0;" />
        <path id="out_art" d="M 0.38,120.00 L 0.38,108.50 A 4 4 0 0 1 4.38 104.5 L 26.10,104.50 A 4 4 0 0 1 30.1 108.5 L 30.10,104.50 L 30.10,120.00 z" style="fill:url(#gradient_out);fill-opacity:1;stroke-width:0;" />
        <path d="M13.9612 16.7488Q13.9259 16.7488 13.9065 16.7277Q13.8871 16.7065 13.8871 16.6747V14.3535Q13.8871 14.3217 13.9083 14.3006Q13.9294 14.2794 13.9612 14.2794Q13.9929 14.2794 14.0141 14.3006Q14.0353 14.3217 14.0353 14.3535V16.6747Q14.0317 16.7065 14.0106 16.7277Q13.9894 16.7488 13.9612 16.7488ZM16.5929 14.3464V16.6712Q16.5929 16.71 16.5717 16.7294Q16.5506 16.7488 16.5188 16.7488Q16.4835 16.7488 16.4624 16.7206L14.8749 14.551V16.6889Q14.8749 16.7136 14.8555 16.7312Q14.8361 16.7488 14.8078 16.7488Q14.7761 16.7488 14.7585 16.7312Q14.7408 16.7136 14.7408 16.6889V14.3499Q14.7408 14.3147 14.7602 14.297Q14.7796 14.2794 14.8043 14.2794Q14.8361 14.2794 14.8572 14.3041L16.4588 16.4878V14.3464Q16.4588 14.3182 16.4782 14.2988Q16.4977 14.2794 16.5259 14.2794Q16.5576 14.2794 16.5753 14.2988Q16.5929 14.3182 16.5929 14.3464Z" style="stroke:#000000;stroke-width:0.25;stroke-linecap:round;stroke-linejoin:bevel" />
        <path d="M3.80783 23.1783Q3.80783 23.21 3.78667 23.2294Q3.7655 23.2488 3.73728 23.2488H2.44258Q2.41083 23.2488 2.39143 23.2277Q2.37203 23.2065 2.37203 23.1783V20.8499Q2.37203 20.8217 2.39319 20.8006Q2.41436 20.7794 2.44611 20.7794Q2.47786 20.7794 2.49903 20.8006Q2.52019 20.8217 2.52019 20.8499V23.1077H3.73728Q3.7655 23.1077 3.78667 23.1289Q3.80783 23.1501 3.80783 23.1783Z" style="stroke:#000000;stroke-width:0.25;stroke-linecap:round;stroke-linejoin:bevel" />
        <path d="M28.5172 23.1747Q28.5172 23.2065 28.4978 23.2259Q28.4784 23.2453 28.4502 23.2453Q28.429 23.2453 28.4184 23.2383Q28.3232 23.1853 28.2667 23.0601Q28.2103 22.9349 28.2103 22.6491Q28.2103 22.3598 28.0551 22.2522Q27.8998 22.1446 27.6952 22.1446H26.8697V23.1783Q26.8697 23.2065 26.8486 23.2277Q26.8274 23.2488 26.7956 23.2488Q26.7639 23.2488 26.7427 23.2277Q26.7216 23.2065 26.7216 23.1783V20.8499Q26.7216 20.8217 26.7427 20.8006Q26.7639 20.7794 26.7921 20.7794H27.7234Q27.9281 20.7794 28.0868 20.8623Q28.2456 20.9452 28.3337 21.0898Q28.4219 21.2345 28.4219 21.4179Q28.4219 21.6543 28.2967 21.8236Q28.1715 21.9929 27.9704 22.0529Q28.1397 22.1058 28.2491 22.2628Q28.3584 22.4198 28.3584 22.6491Q28.3584 22.8855 28.3884 22.979Q28.4184 23.0724 28.4784 23.1113Q28.5172 23.1359 28.5172 23.1747ZM27.7411 22.0035Q27.9633 21.9824 28.1186 21.8271Q28.2738 21.6719 28.2738 21.4214Q28.2738 21.2027 28.1186 21.0616Q27.9633 20.9205 27.7058 20.9205H26.8697V22.0035Z" style="stroke:#000000;stroke-width:0.25;stroke-linecap:round;stroke-linejoin:bevel" />
        <path d="M12.9275 108.784Q12.5853 108.784 12.3172 108.624Q12.0491 108.463 11.8992 108.174Q11.7493 107.885 11.7493 107.514Q11.7493 107.144 11.8992 106.854Q12.0491 106.565 12.3172 106.405Q12.5853 106.244 12.9275 106.244Q13.2697 106.244 13.5378 106.405Q13.806 106.565 13.9559 106.854Q14.1058 107.144 14.1058 107.514Q14.1058 107.885 13.9559 108.174Q13.806 108.463 13.5378 108.624Q13.2697 108.784 12.9275 108.784ZM12.9275 106.385Q12.6277 106.385 12.3931 106.526Q12.1585 106.667 12.028 106.925Q11.8974 107.183 11.8974 107.514Q11.8974 107.846 12.028 108.103Q12.1585 108.361 12.3931 108.502Q12.6277 108.643 12.9275 108.643Q13.2274 108.643 13.462 108.502Q13.6966 108.361 13.8271 108.103Q13.9577 107.846 13.9577 107.514Q13.9577 107.183 13.8271 106.925Q13.6966 106.667 13.462 106.526Q13.2274 106.385 12.9275 106.385ZM16.4518 106.35V107.874Q16.4518 108.121 16.3283 108.329Q16.2048 108.537 15.9967 108.661Q15.7886 108.784 15.5452 108.784Q15.2982 108.784 15.0901 108.661Q14.8819 108.537 14.7585 108.329Q14.635 108.121 14.635 107.874V106.35Q14.635 106.318 14.6562 106.299Q14.6773 106.279 14.7091 106.279Q14.7408 106.279 14.762 106.301Q14.7832 106.322 14.7832 106.35V107.874Q14.7832 108.082 14.8855 108.258Q14.9878 108.435 15.1624 108.539Q15.337 108.643 15.5452 108.643Q15.7533 108.643 15.9279 108.539Q16.1025 108.435 16.2066 108.258Q16.3107 108.082 16.3107 107.874V106.35Q16.3107 106.322 16.3301 106.301Q16.3495 106.279 16.3812 106.279Q16.413 106.279 16.4324 106.301Q16.4518 106.322 16.4518 106.35ZM18.7837 106.346Q18.7837 106.378 18.7642 106.396Q18.7448 106.413 18.7131 106.413H17.9264V108.678Q17.9264 108.707 17.9052 108.728Q17.8841 108.749 17.8558 108.749Q17.8241 108.749 17.8047 108.728Q17.7853 108.707 17.7853 108.678V106.413H16.9986Q16.9704 106.413 16.9492 106.394Q16.928 106.375 16.928 106.346Q16.928 106.318 16.9492 106.299Q16.9704 106.279 16.9986 106.279H18.7131Q18.7413 106.279 18.7625 106.299Q18.7837 106.318 18.7837 106.346Z" style="stroke:#000000;stroke-width:0.25;stroke-linecap:round;stroke-linejoin:bevel" />
        <path d="M3.80783 115.178Q3.80783 115.21 3.78667 115.229Q3.7655 115.249 3.73728 115.249H2.44258Q2.41083 115.249 2.39143 115.228Q2.37203 115.207 2.37203 115.178V112.85Q2.37203 112.822 2.39319 112.801Q2.41436 112.779 2.44611 112.779Q2.47786 112.779 2.49903 112.801Q2.52019 112.822 2.52019 112.85V115.108H3.73728Q3.7655 115.108 3.78667 115.129Q3.80783 115.15 3.80783 115.178Z" style="stroke:#000000;stroke-width:0.25;stroke-linecap:round;stroke-linejoin:bevel" />
        <path d="M28.5172 115.175Q28.5172 115.207 28.4978 115.226Q28.4784 115.245 28.4502 115.245Q28.429 115.245 28.4184 115.238Q28.3232 115.185 28.2667 115.06Q28.2103 114.935 28.2103 114.649Q28.2103 114.36 28.0551 114.252Q27.8998 114.145 27.6952 114.145H26.8697V115.178Q26.8697 115.207 26.8486 115.228Q26.8274 115.249 26.7956 115.249Q26.7639 115.249 26.7427 115.228Q26.7216 115.207 26.7216 115.178V112.85Q26.7216 112.822 26.7427 112.801Q26.7639 112.779 26.7921 112.779H27.7234Q27.9281 112.779 28.0868 112.862Q28.2456 112.945 28.3337 113.09Q28.4219 113.234 28.4219 113.418Q28.4219 113.654 28.2967 113.824Q28.1715 113.993 27.9704 114.053Q28.1397 114.106 28.2491 114.263Q28.3584 114.42 28.3584 114.649Q28.3584 114.885 28.3884 114.979Q28.4184 115.072 28.4784 115.111Q28.5172 115.136 28.5172 115.175ZM27.7411 114.004Q27.9633 113.982 28.1186 113.827Q28.2738 113.672 28.2738 113.421Q28.2738 113.203 28.1186 113.062Q27.9633 112.921 27.7058 112.921H26.8697V114.004Z" style="stroke:#000000;stroke-width:0.25;stroke-linecap:round;stroke-linejoin:bevel" />
        <path d="M 9.24,22.00 L 21.24,22.00 z " style="stroke:#000000;stroke-width:0.1;stroke-linecap:round;stroke-linejoin:bevel;stroke-dasharray:none" />
        <path d="M 9.24,114.00 L 21.24,114.00 z " style="stroke:#000000;stroke-width:0.1;stroke-linecap:round;stroke-linejoin:bevel;stroke-dasharray:none" />
        <path d="M12.513 32.7499Q12.513 32.7817 12.4919 32.8011Q12.4707 32.8205 12.4425 32.8205H11.1831V33.7942H12.2837Q12.3119 33.7942 12.3331 33.8153Q12.3543 33.8365 12.3543 33.8647Q12.3543 33.8965 12.3331 33.9159Q12.3119 33.9353 12.2837 33.9353H11.1831V35.0783Q11.1831 35.1065 11.1637 35.1277Q11.1443 35.1488 11.1125 35.1488Q11.0808 35.1488 11.0613 35.1277Q11.0419 35.1065 11.0419 35.0783V32.7499Q11.0419 32.7217 11.0631 32.7006Q11.0843 32.6794 11.1125 32.6794H12.4425Q12.4707 32.6794 12.4919 32.7006Q12.513 32.7217 12.513 32.7499ZM14.8378 35.0747Q14.8378 35.1065 14.8184 35.1259Q14.799 35.1453 14.7708 35.1453Q14.7496 35.1453 14.7391 35.1382Q14.6438 35.0853 14.5874 34.9601Q14.5309 34.8349 14.5309 34.5491Q14.5309 34.2598 14.3757 34.1522Q14.2205 34.0446 14.0159 34.0446H13.1904V35.0783Q13.1904 35.1065 13.1692 35.1277Q13.148 35.1488 13.1163 35.1488Q13.0845 35.1488 13.0634 35.1277Q13.0422 35.1065 13.0422 35.0783V32.7499Q13.0422 32.7217 13.0634 32.7006Q13.0845 32.6794 13.1128 32.6794H14.0441Q14.2487 32.6794 14.4074 32.7623Q14.5662 32.8452 14.6544 32.9898Q14.7426 33.1345 14.7426 33.3179Q14.7426 33.5543 14.6173 33.7236Q14.4921 33.8929 14.291 33.9529Q14.4604 34.0058 14.5697 34.1628Q14.6791 34.3198 14.6791 34.5491Q14.6791 34.7855 14.7091 34.879Q14.7391 34.9724 14.799 35.0112Q14.8378 35.0359 14.8378 35.0747ZM14.0617 33.9035Q14.284 33.8824 14.4392 33.7271Q14.5944 33.5719 14.5944 33.3214Q14.5944 33.1027 14.4392 32.9616Q14.284 32.8205 14.0264 32.8205H13.1904V33.9035ZM16.8557 35.0783Q16.8557 35.11 16.8346 35.1294Q16.8134 35.1488 16.7852 35.1488H15.4552Q15.427 35.1488 15.4058 35.1277Q15.3846 35.1065 15.3846 35.0783V32.7499Q15.3846 32.7217 15.4058 32.7006Q15.427 32.6794 15.4552 32.6794H16.7852Q16.8134 32.6794 16.8346 32.7006Q16.8557 32.7217 16.8557 32.7499Q16.8557 32.7817 16.8346 32.8011Q16.8134 32.8205 16.7852 32.8205H15.5328V33.8047H16.6264Q16.6546 33.8047 16.6758 33.8259Q16.697 33.8471 16.697 33.8753Q16.697 33.9071 16.6758 33.9265Q16.6546 33.9459 16.6264 33.9459H15.5328V35.0077H16.7852Q16.8134 35.0077 16.8346 35.0289Q16.8557 35.0501 16.8557 35.0783ZM19.8438 35.4381Q19.8438 35.5051 19.745 35.5739Q19.6462 35.6427 19.4998 35.6868Q19.3534 35.7309 19.2229 35.7309Q19.0288 35.7309 18.8948 35.6886Q18.7607 35.6462 18.5879 35.5616Q18.4432 35.4875 18.3374 35.4522Q18.2316 35.4169 18.094 35.4169Q18.0446 35.4169 18.004 35.4293Q17.9634 35.4416 17.907 35.4663Q17.8435 35.4946 17.8223 35.4946Q17.7941 35.4946 17.7729 35.4734Q17.7518 35.4522 17.7518 35.4205Q17.7518 35.3781 17.7906 35.3605L18.3056 35.1806Q17.9846 35.1629 17.7359 34.9971Q17.4872 34.8313 17.3478 34.5509Q17.2085 34.2704 17.2085 33.9141Q17.2085 33.5437 17.3584 33.2544Q17.5084 32.9651 17.7765 32.8046Q18.0446 32.6441 18.3868 32.6441Q18.729 32.6441 18.9971 32.8046Q19.2652 32.9651 19.4151 33.2544Q19.5651 33.5437 19.5651 33.9141Q19.5651 34.2316 19.4539 34.4891Q19.3428 34.7467 19.14 34.9195Q18.9371 35.0924 18.6725 35.1524L18.2386 35.2935Q18.348 35.3041 18.4415 35.3393Q18.5349 35.3746 18.6655 35.4381Q18.8348 35.5192 18.9512 35.5581Q19.0676 35.5969 19.2229 35.5969Q19.3534 35.5969 19.4469 35.5633Q19.5404 35.5298 19.6286 35.4804Q19.6568 35.4663 19.6956 35.4275Q19.7168 35.4064 19.7397 35.3922Q19.7626 35.3781 19.7838 35.3781Q19.812 35.3781 19.8279 35.394Q19.8438 35.4099 19.8438 35.4381ZM18.3868 35.043Q18.6866 35.043 18.9212 34.9019Q19.1558 34.7608 19.2864 34.5032Q19.4169 34.2457 19.4169 33.9141Q19.4169 33.5825 19.2864 33.325Q19.1558 33.0674 18.9212 32.9263Q18.6866 32.7852 18.3868 32.7852Q18.0869 32.7852 17.8523 32.9263Q17.6177 33.0674 17.4872 33.325Q17.3567 33.5825 17.3567 33.9141Q17.3567 34.2457 17.4872 34.5032Q17.6177 34.7608 17.8523 34.9019Q18.0869 35.043 18.3868 35.043Z" style="stroke:#000000;stroke-width:0.25;stroke-linecap:round;stroke-linejoin:bevel" />
        <path d="M 6.24,40.40 L 24.24,40.40 z " style="stroke:#000000;stroke-width:0.1;stroke-linecap:round;stroke-linejoin:bevel;stroke-dasharray:none" />
        <path d="M14.2469 53.4747Q14.2469 53.5065 14.2275 53.5259Q14.2081 53.5453 14.1799 53.5453Q14.1587 53.5453 14.1482 53.5382Q14.0529 53.4853 13.9965 53.3601Q13.94 53.2349 13.94 52.9491Q13.94 52.6598 13.7848 52.5522Q13.6296 52.4446 13.425 52.4446H12.5995V53.4783Q12.5995 53.5065 12.5783 53.5277Q12.5571 53.5488 12.5254 53.5488Q12.4936 53.5488 12.4725 53.5277Q12.4513 53.5065 12.4513 53.4783V51.1499Q12.4513 51.1217 12.4725 51.1006Q12.4936 51.0794 12.5218 51.0794H13.4532Q13.6578 51.0794 13.8165 51.1623Q13.9753 51.2452 14.0635 51.3898Q14.1517 51.5345 14.1517 51.7179Q14.1517 51.9543 14.0264 52.1236Q13.9012 52.2929 13.7001 52.3529Q13.8695 52.4058 13.9788 52.5628Q14.0882 52.7198 14.0882 52.9491Q14.0882 53.1855 14.1182 53.279Q14.1482 53.3724 14.2081 53.4112Q14.2469 53.4359 14.2469 53.4747ZM13.4708 52.3035Q13.6931 52.2824 13.8483 52.1271Q14.0035 51.9719 14.0035 51.7214Q14.0035 51.5027 13.8483 51.3616Q13.6931 51.2205 13.4355 51.2205H12.5995V52.3035ZM16.2648 53.4783Q16.2648 53.51 16.2437 53.5294Q16.2225 53.5488 16.1943 53.5488H14.8643Q14.8361 53.5488 14.8149 53.5277Q14.7937 53.5065 14.7937 53.4783V51.1499Q14.7937 51.1217 14.8149 51.1006Q14.8361 51.0794 14.8643 51.0794H16.1943Q16.2225 51.0794 16.2437 51.1006Q16.2648 51.1217 16.2648 51.1499Q16.2648 51.1817 16.2437 51.2011Q16.2225 51.2205 16.1943 51.2205H14.9419V52.2047H16.0355Q16.0637 52.2047 16.0849 52.2259Q16.1061 52.2471 16.1061 52.2753Q16.1061 52.3071 16.0849 52.3265Q16.0637 52.3459 16.0355 52.3459H14.9419V53.4077H16.1943Q16.2225 53.4077 16.2437 53.4289Q16.2648 53.4501 16.2648 53.4783ZM16.5858 53.2137Q16.5647 53.1925 16.5647 53.1608Q16.5647 53.1326 16.5894 53.1061Q16.6141 53.0796 16.6423 53.0796Q16.674 53.0796 16.7023 53.1114Q16.8398 53.2737 17.0286 53.3583Q17.2173 53.443 17.4255 53.443Q17.6971 53.443 17.8735 53.3125Q18.0499 53.1819 18.0499 52.9667Q18.0463 52.7974 17.9582 52.6881Q17.87 52.5787 17.7412 52.5134Q17.6124 52.4482 17.3902 52.367Q17.1468 52.2753 17.0109 52.2047Q16.8751 52.1342 16.7781 52.0037Q16.6811 51.8731 16.6811 51.6615Q16.6811 51.4886 16.7763 51.3475Q16.8716 51.2064 17.048 51.1252Q17.2244 51.0441 17.4572 51.0441Q17.6653 51.0441 17.8523 51.12Q18.0393 51.1958 18.1487 51.3334Q18.1839 51.3828 18.1839 51.4075Q18.1839 51.4357 18.1575 51.4586Q18.131 51.4816 18.0993 51.4816Q18.071 51.4816 18.0534 51.4604Q17.9546 51.3334 17.7994 51.2593Q17.6442 51.1852 17.4572 51.1852Q17.1891 51.1852 17.0109 51.3122Q16.8328 51.4392 16.8328 51.6579Q16.8328 51.8096 16.9192 51.9155Q17.0057 52.0213 17.1362 52.0866Q17.2667 52.1518 17.4607 52.2224Q17.7077 52.3106 17.8523 52.3847Q17.997 52.4587 18.0993 52.5999Q18.2016 52.741 18.2016 52.9738Q18.2016 53.1361 18.1063 53.2772Q18.0111 53.4183 17.8329 53.5012Q17.6548 53.5841 17.4255 53.5841Q17.1644 53.5841 16.9704 53.4942Q16.7763 53.4042 16.5858 53.2137Z" style="stroke:#000000;stroke-width:0.25;stroke-linecap:round;stroke-linejoin:bevel" />
        <path d="M 6.24,58.80 L 24.24,58.80 z " style="stroke:#000000;stroke-width:0.1;stroke-linecap:round;stroke-linejoin:bevel;stroke-dasharray:none" />
        <path d="M14.8837 69.5499V71.8783Q14.8837 71.9065 14.8608 71.9277Q14.8378 71.9488 14.8096 71.9488Q14.7779 71.9488 14.7567 71.9277Q14.7355 71.9065 14.7355 71.8783V69.7687L13.8254 71.1445Q13.8077 71.1727 13.776 71.1727Q13.7372 71.1727 13.7195 71.1445L12.8058 69.7651V71.8783Q12.8058 71.9065 12.7847 71.9277Q12.7635 71.9488 12.7353 71.9488Q12.7035 71.9488 12.6841 71.9277Q12.6647 71.9065 12.6647 71.8783V69.5499Q12.6647 69.5252 12.6841 69.5023Q12.7035 69.4794 12.7317 69.4794Q12.7776 69.4794 12.7988 69.5111L13.776 70.9646L14.7532 69.5111Q14.7814 69.4723 14.8202 69.4794Q14.8484 69.4829 14.8661 69.5023Q14.8837 69.5217 14.8837 69.5499ZM15.6633 71.9488Q15.6281 71.9488 15.6087 71.9277Q15.5892 71.9065 15.5892 71.8747V69.5535Q15.5892 69.5217 15.6104 69.5006Q15.6316 69.4794 15.6633 69.4794Q15.6951 69.4794 15.7162 69.5006Q15.7374 69.5217 15.7374 69.5535V71.8747Q15.7339 71.9065 15.7127 71.9277Q15.6916 71.9488 15.6633 71.9488ZM18.0446 71.8465Q18.0622 71.8712 18.0622 71.8889Q18.0622 71.9206 18.0411 71.94Q18.0199 71.9594 17.9881 71.9594Q17.9493 71.9594 17.9317 71.9312L17.1238 70.8305L16.3195 71.9312Q16.3019 71.9594 16.2666 71.9594Q16.2348 71.9594 16.2172 71.94Q16.1996 71.9206 16.1996 71.8994Q16.1996 71.8818 16.2172 71.8536L17.0462 70.7212L16.2101 69.5817Q16.196 69.5641 16.196 69.5394Q16.196 69.5076 16.2172 69.4882Q16.2384 69.4688 16.2666 69.4688Q16.3089 69.4688 16.3266 69.497L17.1344 70.6012L17.9387 69.4935Q17.9599 69.4653 17.9917 69.4653Q18.0234 69.4653 18.0428 69.4812Q18.0622 69.497 18.0622 69.5217Q18.0622 69.5464 18.0446 69.5711L17.2156 70.7141Z" style="stroke:#000000;stroke-width:0.25;stroke-linecap:round;stroke-linejoin:bevel" />
        <path d="M 6.24,77.20 L 24.24,77.20 z " style="stroke:#000000;stroke-width:0.1;stroke-linecap:round;stroke-linejoin:bevel;stroke-dasharray:none" />
        <path d="M13.3844 89.2023V90.0878Q13.3844 90.1301 13.3526 90.1513Q13.1904 90.2606 12.9981 90.3224Q12.8058 90.3841 12.6083 90.3841Q12.2449 90.3841 11.9574 90.2201Q11.6699 90.056 11.5058 89.7668Q11.3418 89.4775 11.3418 89.1141Q11.3418 88.7507 11.5058 88.4615Q11.6699 88.1722 11.9574 88.0082Q12.2449 87.8441 12.6083 87.8441Q12.8058 87.8441 12.984 87.8917Q13.1621 87.9394 13.3033 88.0346Q13.335 88.0558 13.335 88.0946Q13.335 88.1263 13.3121 88.1457Q13.2891 88.1651 13.268 88.1651Q13.2503 88.1651 13.2221 88.151Q12.9258 87.9852 12.6083 87.9852Q12.2837 87.9852 12.0297 88.1299Q11.7757 88.2745 11.6328 88.532Q11.49 88.7896 11.49 89.1141Q11.49 89.4387 11.6328 89.6962Q11.7757 89.9537 12.0297 90.0984Q12.2837 90.243 12.6083 90.243Q12.7706 90.243 12.9381 90.1918Q13.1057 90.1407 13.2433 90.056V89.2729H12.6083Q12.5801 89.2729 12.5589 89.2517Q12.5377 89.2305 12.5377 89.2023Q12.5377 89.1706 12.5589 89.1512Q12.5801 89.1317 12.6083 89.1317H13.3138Q13.3456 89.1317 13.365 89.1529Q13.3844 89.1741 13.3844 89.2023ZM15.7797 90.2818Q15.7797 90.3136 15.7586 90.3312Q15.7374 90.3488 15.7057 90.3488Q15.681 90.3488 15.6616 90.3365Q15.6422 90.3241 15.6351 90.303L15.3388 89.5763L15.3423 89.5833H14.1605L13.8748 90.303Q13.8571 90.3488 13.8112 90.3488Q13.7795 90.3488 13.7601 90.3312Q13.7407 90.3136 13.7372 90.2889Q13.7336 90.2747 13.7407 90.2536L14.6897 87.9182Q14.7003 87.89 14.7161 87.8812Q14.732 87.8723 14.7567 87.8723Q14.8096 87.8723 14.8272 87.9182L15.7762 90.2536Q15.7797 90.2642 15.7797 90.2818ZM14.2169 89.4422H15.2859L14.7461 88.1122ZM16.3301 90.3488Q16.2948 90.3488 16.2754 90.3277Q16.256 90.3065 16.256 90.2747V87.9535Q16.256 87.9217 16.2772 87.9006Q16.2983 87.8794 16.3301 87.8794Q16.3618 87.8794 16.383 87.9006Q16.4042 87.9217 16.4042 87.9535V90.2747Q16.4006 90.3065 16.3795 90.3277Q16.3583 90.3488 16.3301 90.3488ZM18.9618 87.9464V90.2712Q18.9618 90.31 18.9406 90.3294Q18.9195 90.3488 18.8877 90.3488Q18.8524 90.3488 18.8313 90.3206L17.2438 88.151V90.2889Q17.2438 90.3136 17.2244 90.3312Q17.205 90.3488 17.1767 90.3488Q17.145 90.3488 17.1274 90.3312Q17.1097 90.3136 17.1097 90.2889V87.9499Q17.1097 87.9147 17.1291 87.897Q17.1485 87.8794 17.1732 87.8794Q17.205 87.8794 17.2261 87.9041L18.8277 90.0878V87.9464Q18.8277 87.9182 18.8472 87.8988Q18.8666 87.8794 18.8948 87.8794Q18.9265 87.8794 18.9442 87.8988Q18.9618 87.9182 18.9618 87.9464Z" style="stroke:#000000;stroke-width:0.25;stroke-linecap:round;stroke-linejoin:bevel" />
        <path d="M 6.24,95.60 L 24.24,95.60 z " style="stroke:#000000;stroke-width:0.1;stroke-linecap:round;stroke-linejoin:bevel;stroke-dasharray:none" />
    </g>
</svg>
