<?xml version="1.0" encoding="utf-8"?>
<svg xmlns="http://www.w3.org/2000/svg" width="15.24mm" height="128.50mm" viewBox="0 0 15.24 128.50">
    <g id="PanelLayer">
        <defs>
            <linearGradient id="gradient_hiss" x1="0" y1="11" x2="0" y2="113.5" gradientUnits="userSpaceOnUse">
                <stop style="stop-color:#1058ef;stop-opacity:1;" offset="0" />
                <stop style="stop-color:#4f8df2;stop-opacity:1;" offset="1" />
            </linearGradient>
        </defs>
        <rect id="border_rect" width="15.24" height="128.5" x="0" y="0" style="display:inline;fill:#4f8df2;fill-opacity:1;fill-rule:nonzero;stroke:#5021d4;stroke-width:0.7;stroke-linecap:round;stroke-linejoin:round;stroke-dasharray:none;stroke-opacity:1;image-rendering:auto" />
        <path id="hiss_art" d="M 0.38,113.50 L 0.38,15.00 A 4 4 0 0 1 4.38 11 L 10.86,11.00 A 4 4 0 0 1 14.86 15 L 14.86,11.00 L 14.86,113.50 z" style="fill:url(#gradient_hiss);fill-opacity:1;stroke-width:0;" />
        <path id="sapphire_gemstone" d="m 10.335,122.900 q 0,0.34175 -0.242534,0.63114 -0.0441,0.0524 -0.20395,0.21497 -0.187413,0.19017 -0.785481,0.81304 l -1.444183,1.51309 q -0.01929,0.003 -0.0441,0.003 -0.02756,0 -0.04134,-0.003 -0.08268,-0.0827 -0.647678,-0.67524 -0.468532,-0.47404 -0.934309,-0.94809 -0.556727,-0.56775 -0.89848,-0.98116 -0.132292,-0.15985 -0.168121,-0.29766 -0.02756,-0.10197 -0.02756,-0.34175 0,-0.11024 0.07166,-0.28939 0.06614,-0.16536 0.140559,-0.26458 0.118512,-0.1571 0.42168,-0.42444 0.283875,-0.2508 0.474044,-0.37482 0.272852,-0.17915 0.818555,-0.36656 0.09646,-0.0331 0.110243,-0.0331 h 1.3615 q 0.01102,0 0.104731,0.0331 0.567751,0.20119 0.824066,0.36656 0.165365,0.10473 0.474045,0.37758 0.322461,0.28388 0.421679,0.42168 0.214974,0.2949 0.214974,0.62563 z m -0.16812,-0.27285 q -0.03307,-0.10749 -0.135048,-0.30868 -0.07166,-0.0937 -0.209462,-0.19844 -0.118511,-0.0854 -0.234266,-0.17088 0.245291,0.3638 0.578776,0.678 z m -0.573264,-0.52366 -0.358289,-0.44648 v 0.41065 z m 0.636653,0.75792 q 0,-0.0524 -0.341753,-0.39412 l 0.228754,0.7028 h 0.04961 q 0.06339,-0.21773 0.06339,-0.30868 z m -0.23151,0.27285 -0.316948,-0.90399 -0.410655,-0.0634 -0.159853,0.61461 z m 0.0028,0.15434 -0.771701,-0.3197 h -0.03032 l 0.344509,0.60634 q 0.07993,-0.003 0.234266,-0.0469 0.02481,-0.0138 0.223242,-0.23978 z m -0.857139,-1.05006 -0.719335,0.28388 0.60358,0.22599 z m 0,-0.16261 v -0.51538 l -0.917773,-0.38034 h -1.223697 l -0.917772,0.38034 v 0.51538 l 0.89848,0.4079 h 1.254014 z m 0.573264,1.53789 q -0.0689,0.011 -0.198438,0.0524 -0.08544,0.0551 -0.259071,0.16261 0.01929,0 0.06339,0.003 0.04134,0 0.06339,0 0.118511,0 0.190169,-0.0689 0.07166,-0.0717 0.14056,-0.14883 z m -0.289388,0.003 -0.347266,-0.63114 -0.363801,0.87918 q 0.0248,-0.0165 0.06615,-0.0165 0.03032,0 0.08544,0.011 0.05788,0.008 0.08819,0.008 0.04961,0 0.228754,-0.10749 0.228754,-0.1378 0.242535,-0.14331 z m -0.440972,-0.74139 -0.683507,-0.2756 -0.592556,0.54845 0.903993,0.65595 z m -0.854383,-0.28387 h -1.036284 l 0.523654,0.47404 z m 0.749652,1.36701 q -0.228754,-0.0303 -0.228754,-0.0303 -0.03583,0 -0.272851,0.0937 l 0.190169,0.0193 q 0.01102,0 0.311436,-0.0827 z m -0.388606,-0.0882 -0.843359,-0.61185 v 0.67524 l 0.471289,0.0827 z m 0.854383,0.0496 q -0.09922,0.006 -0.2949,0.0386 -0.01102,0.003 -0.377583,0.17639 -0.129535,0.34726 -0.380338,1.0418 z m -2.543857,-1.39733 -0.719335,-0.28388 0.124023,0.51814 z m -0.802018,-0.45476 v -0.41065 l -0.366557,0.44648 z m 1.515841,1.07212 -0.592556,-0.54019 -0.683506,0.2756 0.380338,0.9288 z m 0.369314,0.94257 q -0.03307,-0.003 -0.135047,-0.0248 -0.08544,-0.0165 -0.137804,-0.0165 -0.05237,0 -0.137804,0.0165 -0.101975,0.0221 -0.135047,0.0248 0.264583,0.0469 0.272851,0.0469 0.0083,0 0.272851,-0.0469 z m -0.30868,-0.1378 v -0.68626 l -0.843359,0.61185 0.37207,0.14607 z m 0.950846,0.20671 -0.396875,-0.0551 -0.479557,0.14056 v 1.27607 z m -2.888366,-2.20211 q -0.118512,0.0854 -0.234267,0.17364 -0.146072,0.10748 -0.209461,0.19568 -0.0441,0.10473 -0.135048,0.31419 0.369314,-0.3638 0.578776,-0.68351 z m 0.476801,0.83234 -0.159853,-0.61461 -0.410655,0.0634 -0.316948,0.90399 z m 0.394118,1.08313 -0.363802,-0.87918 -0.355533,0.63114 q 0.43546,0.2508 0.451996,0.2508 0.09095,0 0.267339,-0.003 z m 1.821765,0.82958 q -0.132291,0.21222 -0.405143,0.6339 -0.07717,0.10749 -0.220486,0.32797 -0.05788,0.10473 -0.05512,0.226 0.159852,-0.15158 0.432704,-0.49609 0.07717,-0.12954 0.140559,-0.339 0.05512,-0.17639 0.107486,-0.35278 z m -1.493792,-0.66146 -0.270095,-0.0882 -0.0083,-0.011 q -0.02481,0 -0.107487,0.011 -0.06615,0.006 -0.107487,0.006 0.272851,0.091 0.311436,0.091 0.02481,0 0.181901,-0.008 z m -0.810286,-1.06384 h -0.03032 l -0.7717,0.3197 q 0.06615,0.0965 0.223242,0.23978 0.07717,0.0138 0.234266,0.0469 z m -0.689018,-0.50161 q -0.341754,0.34727 -0.341754,0.39412 0,0.0799 0.06339,0.30868 h 0.04961 z m 2.235176,3.04547 v -1.27607 l -0.479557,-0.14056 -0.396875,0.0551 z m -1.606791,-1.6757 q -0.256315,-0.1819 -0.457509,-0.22324 0.06615,0.0772 0.20395,0.22324 z m 1.609547,2.04501 v -0.1378 l -0.683507,-1.05007 q 0.05237,0.17639 0.107487,0.35278 0.06339,0.20946 0.14056,0.339 0.0689,0.11851 0.20395,0.25907 0.115755,0.11851 0.23151,0.23702 z m -0.644921,-0.70555 q -0.115756,-0.32798 -0.380339,-1.0418 -0.135047,-0.0662 -0.272851,-0.12954 -0.159852,-0.0716 -0.289388,-0.0716 -0.05237,0 -0.110243,-0.0138 z" style="stroke-width:0;fill:#0000ff;stroke:#2e2114;stroke-linecap:square;stroke-opacity:1" />
        <path id="model_name" d="M4.74839 5.72979V7.99604Q4.74839 8.05812 4.70182 8.10469Q4.65526 8.15126 4.59317 8.15126Q4.52332 8.15126 4.48063 8.10469Q4.43794 8.05812 4.43794 7.99604V5.72979Q4.43794 5.19427 4.17407 4.86055Q3.91019 4.52682 3.36691 4.52682Q3.03318 4.52682 2.7111 4.6898Q2.38901 4.85279 2.18722 5.13219Q1.98543 5.41159 1.98543 5.72979V7.99604Q1.98543 8.05812 1.93887 8.10469Q1.8923 8.15126 1.83021 8.15126Q1.76036 8.15126 1.71768 8.10469Q1.67499 8.05812 1.67499 7.99604V2.56326Q1.67499 2.50117 1.72156 2.4546Q1.76812 2.40804 1.83021 2.40804Q1.90006 2.40804 1.94275 2.4546Q1.98543 2.50117 1.98543 2.56326V5.01577Q2.20274 4.67428 2.58692 4.45309Q2.97109 4.2319 3.36691 4.2319Q4.03437 4.2319 4.39138 4.65488Q4.74839 5.07786 4.74839 5.72979ZM6.19196 8.15126Q6.12211 8.15126 6.07942 8.10469Q6.03673 8.05812 6.03673 7.99604V4.30951Q6.03673 4.24742 6.0833 4.20085Q6.12987 4.15429 6.19196 4.15429Q6.26181 4.15429 6.30449 4.20085Q6.34718 4.24742 6.34718 4.30951V7.99604Q6.34718 8.05812 6.30061 8.10469Q6.25404 8.15126 6.19196 8.15126ZM5.92032 3.37818V3.31609Q5.92032 3.20743 5.99793 3.13758Q6.07554 3.06773 6.19972 3.06773Q6.30837 3.06773 6.3821 3.13758Q6.45583 3.20743 6.45583 3.31609V3.37818Q6.45583 3.48683 6.3821 3.55668Q6.30837 3.62653 6.19196 3.62653Q6.06778 3.62653 5.99405 3.55668Q5.92032 3.48683 5.92032 3.37818ZM7.36388 7.38291Q7.36388 7.32858 7.42597 7.28201Q7.46478 7.24321 7.51911 7.24321Q7.59672 7.24321 7.64328 7.3053Q8.09343 7.94947 8.90058 7.94947Q9.31192 7.94947 9.62237 7.7438Q9.93281 7.53813 9.93281 7.18888Q9.93281 6.83187 9.66117 6.65336Q9.38953 6.47486 8.91611 6.35844Q8.28746 6.20322 7.92656 5.94322Q7.56567 5.68323 7.56567 5.2098Q7.56567 4.75189 7.93044 4.45309Q8.29522 4.15429 8.86954 4.15429Q9.18774 4.15429 9.50207 4.27846Q9.81639 4.40264 10.0725 4.67428Q10.1268 4.72085 10.1268 4.78294Q10.1268 4.85279 10.0725 4.90711Q10.0104 4.93816 9.97162 4.93816Q9.91729 4.93816 9.87848 4.89159Q9.47491 4.44921 8.83849 4.44921Q8.42716 4.44921 8.14388 4.651Q7.86059 4.85279 7.86059 5.2098Q7.88388 5.54352 8.16716 5.72591Q8.45044 5.9083 9.00148 6.048Q9.39729 6.14889 9.65729 6.26919Q9.91729 6.38949 10.0725 6.6068Q10.2277 6.82411 10.2277 7.17336Q10.2277 7.66231 9.85132 7.94559Q9.47491 8.22887 8.86954 8.22887Q7.98477 8.22887 7.41821 7.53037Q7.36388 7.445 7.36388 7.38291ZM10.9728 7.38291Q10.9728 7.32858 11.0349 7.28201Q11.0737 7.24321 11.128 7.24321Q11.2056 7.24321 11.2522 7.3053Q11.7023 7.94947 12.5095 7.94947Q12.9208 7.94947 13.2313 7.7438Q13.5417 7.53813 13.5417 7.18888Q13.5417 6.83187 13.2701 6.65336Q12.9984 6.47486 12.525 6.35844Q11.8964 6.20322 11.5355 5.94322Q11.1746 5.68323 11.1746 5.2098Q11.1746 4.75189 11.5394 4.45309Q11.9041 4.15429 12.4785 4.15429Q12.7967 4.15429 13.111 4.27846Q13.4253 4.40264 13.6814 4.67428Q13.7358 4.72085 13.7358 4.78294Q13.7358 4.85279 13.6814 4.90711Q13.6193 4.93816 13.5805 4.93816Q13.5262 4.93816 13.4874 4.89159Q13.0838 4.44921 12.4474 4.44921Q12.0361 4.44921 11.7528 4.651Q11.4695 4.85279 11.4695 5.2098Q11.4928 5.54352 11.7761 5.72591Q12.0594 5.9083 12.6104 6.048Q13.0062 6.14889 13.2662 6.26919Q13.5262 6.38949 13.6814 6.6068Q13.8366 6.82411 13.8366 7.17336Q13.8366 7.66231 13.4602 7.94559Q13.0838 8.22887 12.4785 8.22887Q11.5937 8.22887 11.0271 7.53037Q10.9728 7.445 10.9728 7.38291Z" style="display:inline;stroke:#000000;stroke-width:0.35;stroke-linecap:round;stroke-linejoin:bevel" />
    </g>
</svg>
