<?xml version="1.0" encoding="utf-8"?>
<svg xmlns="http://www.w3.org/2000/svg" width="45.72mm" height="128.50mm" viewBox="0 0 45.72 128.50">
    <g id="PanelLayer">
        <defs>
            <linearGradient id="gradient_controls" x1="0" y1="22" x2="0" y2="100" gradientUnits="userSpaceOnUse">
                <stop style="stop-color:#3068ff;stop-opacity:1;" offset="0" />
                <stop style="stop-color:#4f8df2;stop-opacity:1;" offset="1" />
            </linearGradient>
            <linearGradient id="gradient_send_return" x1="0" y1="100" x2="0" y2="117" gradientUnits="userSpaceOnUse">
                <stop style="stop-color:#8a72cf;stop-opacity:1;" offset="0" />
                <stop style="stop-color:#4f8df2;stop-opacity:1;" offset="1" />
            </linearGradient>
        </defs>
        <rect id="border_rect" width="45.72" height="128.5" x="0" y="0" style="display:inline;fill:#4f8df2;fill-opacity:1;stroke:none;" />
        <path id="controls_art" d="M 15.48,100.00 L 15.48,16.00 A 4 4 0 0 1 19.48 12 L 41.48,12.00 A 4 4 0 0 1 45.48 16 L 45.48,12.00 L 45.48,100.00 z" style="fill:url(#gradient_controls);fill-opacity:1;stroke-width:0;" />
        <path id="send_return_art" d="M 15.48,117.00 L 15.48,94.00 A 4 4 0 0 1 19.48 90 L 41.48,90.00 A 4 4 0 0 1 45.48 94 L 45.48,90.00 L 45.48,117.00 z" style="fill:url(#gradient_send_return);fill-opacity:1;stroke-width:0;" />
        <path id="model_name" d="M7.24602 2.56326V7.99604Q7.24602 8.05812 7.19945 8.10469Q7.15289 8.15126 7.0908 8.15126Q7.02095 8.15126 6.97826 8.10469Q6.93558 8.05812 6.93558 7.99604V7.25873Q6.74931 7.67007 6.34573 7.94947Q5.94215 8.22887 5.44544 8.22887Q4.94097 8.22887 4.52963 7.96111Q4.11829 7.69335 3.88158 7.22769Q3.64486 6.76202 3.64486 6.1877Q3.64486 5.61337 3.88158 5.14771Q4.11829 4.68204 4.52963 4.41816Q4.94097 4.15429 5.44544 4.15429Q5.92663 4.15429 6.33797 4.42592Q6.74931 4.69756 6.93558 5.13219V2.56326Q6.93558 2.50117 6.97826 2.4546Q7.02095 2.40804 7.0908 2.40804Q7.16065 2.40804 7.20333 2.4546Q7.24602 2.50117 7.24602 2.56326ZM6.96662 6.1877Q6.96662 5.69099 6.77259 5.29517Q6.57856 4.89935 6.23319 4.67428Q5.88783 4.44921 5.46096 4.44921Q5.04186 4.44921 4.69649 4.67428Q4.35113 4.89935 4.15322 5.29905Q3.95531 5.69875 3.95531 6.1877Q3.95531 6.68441 4.15322 7.08022Q4.35113 7.47604 4.69261 7.70499Q5.0341 7.93395 5.46096 7.93395Q5.89559 7.93395 6.23708 7.70887Q6.57856 7.4838 6.77259 7.08411Q6.96662 6.68441 6.96662 6.1877ZM7.73497 9.54826V9.53274Q7.73497 9.47841 7.77378 9.43572Q7.81258 9.39304 7.87467 9.38528Q8.17735 9.33871 8.40631 9.14468Q8.63526 8.95065 8.63526 8.6014V4.42592Q8.63526 4.36384 8.67794 4.31727Q8.72063 4.2707 8.79048 4.2707Q8.86033 4.2707 8.90302 4.31727Q8.9457 4.36384 8.9457 4.42592V8.6014Q8.9457 8.92737 8.77496 9.17572Q8.60421 9.42408 8.35586 9.55602Q8.1075 9.68796 7.88243 9.68796Q7.81258 9.68796 7.77378 9.64915Q7.73497 9.61035 7.73497 9.54826ZM8.51884 3.37041V3.30832Q8.51884 3.19967 8.59645 3.12982Q8.67406 3.05997 8.79824 3.05997Q8.9069 3.05997 8.98063 3.12982Q9.05436 3.19967 9.05436 3.30832V3.37041Q9.05436 3.47907 8.98063 3.54892Q8.9069 3.61877 8.79048 3.61877Q8.6663 3.61877 8.59257 3.54892Q8.51884 3.47907 8.51884 3.37041ZM10.7696 8.15126Q10.6997 8.15126 10.657 8.10469Q10.6143 8.05812 10.6143 7.99604V4.30951Q10.6143 4.24742 10.6609 4.20085Q10.7075 4.15429 10.7696 4.15429Q10.8394 4.15429 10.8821 4.20085Q10.9248 4.24742 10.9248 4.30951V7.99604Q10.9248 8.05812 10.8782 8.10469Q10.8317 8.15126 10.7696 8.15126ZM10.4979 3.37818V3.31609Q10.4979 3.20743 10.5755 3.13758Q10.6531 3.06773 10.7773 3.06773Q10.886 3.06773 10.9597 3.13758Q11.0334 3.20743 11.0334 3.31609V3.37818Q11.0334 3.48683 10.9597 3.55668Q10.886 3.62653 10.7696 3.62653Q10.6454 3.62653 10.5717 3.55668Q10.4979 3.48683 10.4979 3.37818ZM15.3641 5.62114V7.99604Q15.3641 8.05812 15.3176 8.10469Q15.271 8.15126 15.2089 8.15126Q15.1391 8.15126 15.0964 8.10469Q15.0537 8.05812 15.0537 7.99604V5.65218Q15.0537 5.12443 14.7782 4.78682Q14.5027 4.44921 13.9439 4.44921Q13.6024 4.44921 13.2725 4.61219Q12.9427 4.77517 12.7331 5.05457Q12.5236 5.33397 12.5236 5.65218V7.99604Q12.5236 8.05812 12.477 8.10469Q12.4304 8.15126 12.3684 8.15126Q12.2985 8.15126 12.2558 8.10469Q12.2131 8.05812 12.2131 7.99604V4.43369Q12.2131 4.3716 12.2597 4.32503Q12.3063 4.27846 12.3684 4.27846Q12.4382 4.27846 12.4809 4.32503Q12.5236 4.3716 12.5236 4.43369V4.95368Q12.7486 4.60443 13.1561 4.37936Q13.5636 4.15429 13.9749 4.15429Q14.6656 4.15429 15.0149 4.56174Q15.3641 4.9692 15.3641 5.62114ZM19.8035 5.62114V7.99604Q19.8035 8.05812 19.7569 8.10469Q19.7104 8.15126 19.6483 8.15126Q19.5784 8.15126 19.5357 8.10469Q19.4931 8.05812 19.4931 7.99604V5.65218Q19.4931 5.12443 19.2175 4.78682Q18.942 4.44921 18.3832 4.44921Q18.0417 4.44921 17.7119 4.61219Q17.382 4.77517 17.1725 5.05457Q16.9629 5.33397 16.9629 5.65218V7.99604Q16.9629 8.05812 16.9164 8.10469Q16.8698 8.15126 16.8077 8.15126Q16.7379 8.15126 16.6952 8.10469Q16.6525 8.05812 16.6525 7.99604V4.43369Q16.6525 4.3716 16.6991 4.32503Q16.7456 4.27846 16.8077 4.27846Q16.8776 4.27846 16.9202 4.32503Q16.9629 4.3716 16.9629 4.43369V4.95368Q17.188 4.60443 17.5955 4.37936Q18.0029 4.15429 18.4143 4.15429Q19.105 4.15429 19.4542 4.56174Q19.8035 4.9692 19.8035 5.62114Z" style="display:inline;stroke:#000000;stroke-width:0.35;stroke-linecap:round;stroke-linejoin:bevel" />
        <path id="sapphire_gemstone" d="m 12.575,122.900 q 0,0.34175 -0.242534,0.63114 -0.0441,0.0524 -0.20395,0.21497 -0.187413,0.19017 -0.785481,0.81304 l -1.444183,1.51309 q -0.01929,0.003 -0.0441,0.003 -0.02756,0 -0.04134,-0.003 -0.08268,-0.0827 -0.647678,-0.67524 -0.468532,-0.47404 -0.934309,-0.94809 -0.556727,-0.56775 -0.89848,-0.98116 -0.132292,-0.15985 -0.168121,-0.29766 -0.02756,-0.10197 -0.02756,-0.34175 0,-0.11024 0.07166,-0.28939 0.06614,-0.16536 0.140559,-0.26458 0.118512,-0.1571 0.42168,-0.42444 0.283875,-0.2508 0.474044,-0.37482 0.272852,-0.17915 0.818555,-0.36656 0.09646,-0.0331 0.110243,-0.0331 h 1.3615 q 0.01102,0 0.104731,0.0331 0.567751,0.20119 0.824066,0.36656 0.165365,0.10473 0.474045,0.37758 0.322461,0.28388 0.421679,0.42168 0.214974,0.2949 0.214974,0.62563 z m -0.16812,-0.27285 q -0.03307,-0.10749 -0.135048,-0.30868 -0.07166,-0.0937 -0.209462,-0.19844 -0.118511,-0.0854 -0.234266,-0.17088 0.245291,0.3638 0.578776,0.678 z m -0.573264,-0.52366 -0.358289,-0.44648 v 0.41065 z m 0.636653,0.75792 q 0,-0.0524 -0.341753,-0.39412 l 0.228754,0.7028 h 0.04961 q 0.06339,-0.21773 0.06339,-0.30868 z m -0.23151,0.27285 -0.316948,-0.90399 -0.410655,-0.0634 -0.159853,0.61461 z m 0.0028,0.15434 -0.771701,-0.3197 h -0.03032 l 0.344509,0.60634 q 0.07993,-0.003 0.234266,-0.0469 0.02481,-0.0138 0.223242,-0.23978 z m -0.857139,-1.05006 -0.719335,0.28388 0.60358,0.22599 z m 0,-0.16261 v -0.51538 l -0.917773,-0.38034 h -1.223697 l -0.917772,0.38034 v 0.51538 l 0.89848,0.4079 h 1.254014 z m 0.573264,1.53789 q -0.0689,0.011 -0.198438,0.0524 -0.08544,0.0551 -0.259071,0.16261 0.01929,0 0.06339,0.003 0.04134,0 0.06339,0 0.118511,0 0.190169,-0.0689 0.07166,-0.0717 0.14056,-0.14883 z m -0.289388,0.003 -0.347266,-0.63114 -0.363801,0.87918 q 0.0248,-0.0165 0.06615,-0.0165 0.03032,0 0.08544,0.011 0.05788,0.008 0.08819,0.008 0.04961,0 0.228754,-0.10749 0.228754,-0.1378 0.242535,-0.14331 z m -0.440972,-0.74139 -0.683507,-0.2756 -0.592556,0.54845 0.903993,0.65595 z m -0.854383,-0.28387 h -1.036284 l 0.523654,0.47404 z m 0.749652,1.36701 q -0.228754,-0.0303 -0.228754,-0.0303 -0.03583,0 -0.272851,0.0937 l 0.190169,0.0193 q 0.01102,0 0.311436,-0.0827 z m -0.388606,-0.0882 -0.843359,-0.61185 v 0.67524 l 0.471289,0.0827 z m 0.854383,0.0496 q -0.09922,0.006 -0.2949,0.0386 -0.01102,0.003 -0.377583,0.17639 -0.129535,0.34726 -0.380338,1.0418 z m -2.543857,-1.39733 -0.719335,-0.28388 0.124023,0.51814 z m -0.802018,-0.45476 v -0.41065 l -0.366557,0.44648 z m 1.515841,1.07212 -0.592556,-0.54019 -0.683506,0.2756 0.380338,0.9288 z m 0.369314,0.94257 q -0.03307,-0.003 -0.135047,-0.0248 -0.08544,-0.0165 -0.137804,-0.0165 -0.05237,0 -0.137804,0.0165 -0.101975,0.0221 -0.135047,0.0248 0.264583,0.0469 0.272851,0.0469 0.0083,0 0.272851,-0.0469 z m -0.30868,-0.1378 v -0.68626 l -0.843359,0.61185 0.37207,0.14607 z m 0.950846,0.20671 -0.396875,-0.0551 -0.479557,0.14056 v 1.27607 z m -2.888366,-2.20211 q -0.118512,0.0854 -0.234267,0.17364 -0.146072,0.10748 -0.209461,0.19568 -0.0441,0.10473 -0.135048,0.31419 0.369314,-0.3638 0.578776,-0.68351 z m 0.476801,0.83234 -0.159853,-0.61461 -0.410655,0.0634 -0.316948,0.90399 z m 0.394118,1.08313 -0.363802,-0.87918 -0.355533,0.63114 q 0.43546,0.2508 0.451996,0.2508 0.09095,0 0.267339,-0.003 z m 1.821765,0.82958 q -0.132291,0.21222 -0.405143,0.6339 -0.07717,0.10749 -0.220486,0.32797 -0.05788,0.10473 -0.05512,0.226 0.159852,-0.15158 0.432704,-0.49609 0.07717,-0.12954 0.140559,-0.339 0.05512,-0.17639 0.107486,-0.35278 z m -1.493792,-0.66146 -0.270095,-0.0882 -0.0083,-0.011 q -0.02481,0 -0.107487,0.011 -0.06615,0.006 -0.107487,0.006 0.272851,0.091 0.311436,0.091 0.02481,0 0.181901,-0.008 z m -0.810286,-1.06384 h -0.03032 l -0.7717,0.3197 q 0.06615,0.0965 0.223242,0.23978 0.07717,0.0138 0.234266,0.0469 z m -0.689018,-0.50161 q -0.341754,0.34727 -0.341754,0.39412 0,0.0799 0.06339,0.30868 h 0.04961 z m 2.235176,3.04547 v -1.27607 l -0.479557,-0.14056 -0.396875,0.0551 z m -1.606791,-1.6757 q -0.256315,-0.1819 -0.457509,-0.22324 0.06615,0.0772 0.20395,0.22324 z m 1.609547,2.04501 v -0.1378 l -0.683507,-1.05007 q 0.05237,0.17639 0.107487,0.35278 0.06339,0.20946 0.14056,0.339 0.0689,0.11851 0.20395,0.25907 0.115755,0.11851 0.23151,0.23702 z m -0.644921,-0.70555 q -0.115756,-0.32798 -0.380339,-1.0418 -0.135047,-0.0662 -0.272851,-0.12954 -0.159852,-0.0716 -0.289388,-0.0716 -0.05237,0 -0.110243,-0.0138 z" style="stroke-width:0;fill:#0000ff;stroke:#2e2114;stroke-linecap:square;stroke-opacity:1" />
        <path d="M4.36783 101.178Q4.36783 101.21 4.34667 101.229Q4.3255 101.249 4.29728 101.249H3.00258Q2.97083 101.249 2.95143 101.228Q2.93203 101.207 2.93203 101.178V98.8499Q2.93203 98.8217 2.95319 98.8006Q2.97436 98.7794 3.00611 98.7794Q3.03786 98.7794 3.05903 98.8006Q3.08019 98.8217 3.08019 98.8499V101.108H4.29728Q4.3255 101.108 4.34667 101.129Q4.36783 101.15 4.36783 101.178Z" style="stroke:#000000;stroke-width:0.25;stroke-linecap:round;stroke-linejoin:bevel" />
        <path d="M4.47719 111.175Q4.47719 111.207 4.45779 111.226Q4.43839 111.245 4.41017 111.245Q4.389 111.245 4.37842 111.238Q4.28317 111.185 4.22672 111.06Q4.17028 110.935 4.17028 110.649Q4.17028 110.36 4.01506 110.252Q3.85983 110.145 3.65522 110.145H2.82972V111.178Q2.82972 111.207 2.80856 111.228Q2.78739 111.249 2.75564 111.249Q2.72389 111.249 2.70272 111.228Q2.68156 111.207 2.68156 111.178V108.85Q2.68156 108.822 2.70272 108.801Q2.72389 108.779 2.75211 108.779H3.68344Q3.88806 108.779 4.04681 108.862Q4.20556 108.945 4.29375 109.09Q4.38194 109.234 4.38194 109.418Q4.38194 109.654 4.25671 109.824Q4.13147 109.993 3.93039 110.053Q4.09972 110.106 4.20908 110.263Q4.31844 110.42 4.31844 110.649Q4.31844 110.885 4.34843 110.979Q4.37842 111.072 4.43839 111.111Q4.47719 111.136 4.47719 111.175ZM3.70108 110.004Q3.92333 109.982 4.07856 109.827Q4.23378 109.672 4.23378 109.421Q4.23378 109.203 4.07856 109.062Q3.92333 108.921 3.66581 108.921H2.82972V110.004Z" style="stroke:#000000;stroke-width:0.25;stroke-linecap:round;stroke-linejoin:bevel" />
        <path d="M 10.00,100.00 L 10.00,110.00 " style="stroke:#000000;stroke-width:0.25;stroke-linecap:round;stroke-linejoin:bevel;stroke-dasharray:none" fill="none" />
        <path d="M8.72118 94.7488Q8.6859 94.7488 8.6665 94.7277Q8.6471 94.7065 8.6471 94.6748V92.3535Q8.6471 92.3217 8.66826 92.3006Q8.68943 92.2794 8.72118 92.2794Q8.75293 92.2794 8.7741 92.3006Q8.79526 92.3217 8.79526 92.3535V94.6748Q8.79174 94.7065 8.77057 94.7277Q8.7494 94.7488 8.72118 94.7488ZM11.3529 92.3464V94.6712Q11.3529 94.71 11.3317 94.7294Q11.3106 94.7488 11.2788 94.7488Q11.2435 94.7488 11.2224 94.7206L9.63487 92.551V94.6889Q9.63487 94.7136 9.61547 94.7312Q9.59607 94.7488 9.56785 94.7488Q9.5361 94.7488 9.51846 94.7312Q9.50082 94.7136 9.50082 94.6889V92.3499Q9.50082 92.3147 9.52022 92.297Q9.53962 92.2794 9.56432 92.2794Q9.59607 92.2794 9.61724 92.3041L11.2188 94.4878V92.3464Q11.2188 92.3182 11.2382 92.2988Q11.2577 92.2794 11.2859 92.2794Q11.3176 92.2794 11.3353 92.2988Q11.3529 92.3182 11.3529 92.3464Z" style="stroke:#000000;stroke-width:0.25;stroke-linecap:round;stroke-linejoin:bevel" />
        <path d="M 23.48,100.00 L 23.48,110.00 " style="stroke:#000000;stroke-width:0.25;stroke-linecap:round;stroke-linejoin:bevel;stroke-dasharray:none" fill="none" />
        <path d="M19.1056 94.4137Q19.0844 94.3925 19.0844 94.3608Q19.0844 94.3326 19.1091 94.3061Q19.1338 94.2796 19.162 94.2796Q19.1938 94.2796 19.222 94.3114Q19.3596 94.4737 19.5483 94.5583Q19.737 94.643 19.9452 94.643Q20.2168 94.643 20.3932 94.5125Q20.5696 94.3819 20.5696 94.1668Q20.5661 93.9974 20.4779 93.8881Q20.3897 93.7787 20.2609 93.7134Q20.1321 93.6482 19.9099 93.567Q19.6665 93.4753 19.5307 93.4048Q19.3948 93.3342 19.2978 93.2037Q19.2008 93.0731 19.2008 92.8615Q19.2008 92.6886 19.2961 92.5475Q19.3913 92.4064 19.5677 92.3253Q19.7441 92.2441 19.9769 92.2441Q20.1851 92.2441 20.372 92.32Q20.559 92.3958 20.6684 92.5334Q20.7036 92.5828 20.7036 92.6075Q20.7036 92.6357 20.6772 92.6586Q20.6507 92.6816 20.619 92.6816Q20.5908 92.6816 20.5731 92.6604Q20.4743 92.5334 20.3191 92.4593Q20.1639 92.3852 19.9769 92.3852Q19.7088 92.3852 19.5307 92.5122Q19.3525 92.6392 19.3525 92.8579Q19.3525 93.0096 19.4389 93.1155Q19.5254 93.2213 19.6559 93.2866Q19.7864 93.3518 19.9804 93.4224Q20.2274 93.5106 20.372 93.5847Q20.5167 93.6587 20.619 93.7999Q20.7213 93.941 20.7213 94.1738Q20.7213 94.3361 20.626 94.4772Q20.5308 94.6183 20.3526 94.7012Q20.1745 94.7841 19.9452 94.7841Q19.6841 94.7841 19.4901 94.6942Q19.2961 94.6042 19.1056 94.4137ZM22.7251 94.6783Q22.7251 94.71 22.7039 94.7294Q22.6827 94.7488 22.6545 94.7488H21.3245Q21.2963 94.7488 21.2751 94.7277Q21.254 94.7065 21.254 94.6783V92.3499Q21.254 92.3217 21.2751 92.3006Q21.2963 92.2794 21.3245 92.2794H22.6545Q22.6827 92.2794 22.7039 92.3006Q22.7251 92.3217 22.7251 92.3499Q22.7251 92.3817 22.7039 92.4011Q22.6827 92.4205 22.6545 92.4205H21.4021V93.4048H22.4958Q22.524 93.4048 22.5451 93.4259Q22.5663 93.4471 22.5663 93.4753Q22.5663 93.5071 22.5451 93.5265Q22.524 93.5459 22.4958 93.5459H21.4021V94.6077H22.6545Q22.6827 94.6077 22.7039 94.6289Q22.7251 94.6501 22.7251 94.6783ZM25.1063 92.3464V94.6712Q25.1063 94.71 25.0851 94.7294Q25.064 94.7488 25.0322 94.7488Q24.9969 94.7488 24.9758 94.7206L23.3883 92.551V94.6889Q23.3883 94.7136 23.3689 94.7312Q23.3495 94.7488 23.3213 94.7488Q23.2895 94.7488 23.2719 94.7312Q23.2542 94.7136 23.2542 94.6889V92.3499Q23.2542 92.3147 23.2736 92.297Q23.293 92.2794 23.3177 92.2794Q23.3495 92.2794 23.3706 92.3041L24.9723 94.4878V92.3464Q24.9723 92.3182 24.9917 92.2988Q25.0111 92.2794 25.0393 92.2794Q25.071 92.2794 25.0887 92.2988Q25.1063 92.3182 25.1063 92.3464ZM27.8227 93.5141Q27.8227 93.8634 27.7116 94.1421Q27.6004 94.4207 27.3711 94.5848Q27.1418 94.7488 26.7996 94.7488H25.8824Q25.8542 94.7488 25.833 94.7277Q25.8119 94.7065 25.8119 94.6783V92.3499Q25.8119 92.3217 25.833 92.3006Q25.8542 92.2794 25.8824 92.2794H26.7996Q27.1383 92.2794 27.3694 92.4487Q27.6004 92.6181 27.7116 92.8985Q27.8227 93.179 27.8227 93.5141ZM27.6745 93.5141Q27.6745 93.2143 27.5775 92.9655Q27.4805 92.7168 27.2777 92.5687Q27.0748 92.4205 26.7644 92.4205H25.96V94.6077H26.7644Q27.223 94.6077 27.4488 94.3061Q27.6745 94.0045 27.6745 93.5141Z" style="stroke:#000000;stroke-width:0.25;stroke-linecap:round;stroke-linejoin:bevel" />
        <path d="M 37.48,100.00 L 37.48,110.00 " style="stroke:#000000;stroke-width:0.25;stroke-linecap:round;stroke-linejoin:bevel;stroke-dasharray:none" fill="none" />
        <path d="M34.9559 94.6748Q34.9559 94.7065 34.9365 94.7259Q34.9171 94.7453 34.8888 94.7453Q34.8677 94.7453 34.8571 94.7383Q34.7618 94.6853 34.7054 94.5601Q34.649 94.4349 34.649 94.1491Q34.649 93.8598 34.4937 93.7522Q34.3385 93.6446 34.1339 93.6446H33.3084V94.6783Q33.3084 94.7065 33.2872 94.7277Q33.2661 94.7488 33.2343 94.7488Q33.2026 94.7488 33.1814 94.7277Q33.1602 94.7065 33.1602 94.6783V92.3499Q33.1602 92.3217 33.1814 92.3006Q33.2026 92.2794 33.2308 92.2794H34.1621Q34.3667 92.2794 34.5255 92.3623Q34.6842 92.4452 34.7724 92.5898Q34.8606 92.7345 34.8606 92.9179Q34.8606 93.1543 34.7354 93.3236Q34.6102 93.4929 34.4091 93.5529Q34.5784 93.6058 34.6878 93.7628Q34.7971 93.9198 34.7971 94.1491Q34.7971 94.3855 34.8271 94.479Q34.8571 94.5724 34.9171 94.6112Q34.9559 94.6359 34.9559 94.6748ZM34.1798 93.5035Q34.402 93.4824 34.5572 93.3271Q34.7125 93.1719 34.7125 92.9214Q34.7125 92.7027 34.5572 92.5616Q34.402 92.4205 34.1445 92.4205H33.3084V93.5035ZM37.129 92.3464Q37.129 92.3782 37.1096 92.3958Q37.0902 92.4134 37.0584 92.4134H36.2717V94.6783Q36.2717 94.7065 36.2506 94.7277Q36.2294 94.7488 36.2012 94.7488Q36.1694 94.7488 36.15 94.7277Q36.1306 94.7065 36.1306 94.6783V92.4134H35.3439Q35.3157 92.4134 35.2945 92.394Q35.2734 92.3746 35.2734 92.3464Q35.2734 92.3182 35.2945 92.2988Q35.3157 92.2794 35.3439 92.2794H37.0584Q37.0867 92.2794 37.1078 92.2988Q37.129 92.3182 37.129 92.3464ZM39.4009 94.6748Q39.4009 94.7065 39.3815 94.7259Q39.3621 94.7453 39.3338 94.7453Q39.3127 94.7453 39.3021 94.7383Q39.2068 94.6853 39.1504 94.5601Q39.094 94.4349 39.094 94.1491Q39.094 93.8598 38.9387 93.7522Q38.7835 93.6446 38.5789 93.6446H37.7534V94.6783Q37.7534 94.7065 37.7322 94.7277Q37.7111 94.7488 37.6793 94.7488Q37.6476 94.7488 37.6264 94.7277Q37.6052 94.7065 37.6052 94.6783V92.3499Q37.6052 92.3217 37.6264 92.3006Q37.6476 92.2794 37.6758 92.2794H38.6071Q38.8117 92.2794 38.9705 92.3623Q39.1292 92.4452 39.2174 92.5898Q39.3056 92.7345 39.3056 92.9179Q39.3056 93.1543 39.1804 93.3236Q39.0552 93.4929 38.8541 93.5529Q39.0234 93.6058 39.1328 93.7628Q39.2421 93.9198 39.2421 94.1491Q39.2421 94.3855 39.2721 94.479Q39.3021 94.5724 39.3621 94.6112Q39.4009 94.6359 39.4009 94.6748ZM38.6248 93.5035Q38.847 93.4824 39.0022 93.3271Q39.1575 93.1719 39.1575 92.9214Q39.1575 92.7027 39.0022 92.5616Q38.847 92.4205 38.5895 92.4205H37.7534V93.5035ZM41.7998 92.3464V94.6712Q41.7998 94.71 41.7786 94.7294Q41.7574 94.7488 41.7257 94.7488Q41.6904 94.7488 41.6692 94.7206L40.0817 92.551V94.6889Q40.0817 94.7136 40.0623 94.7312Q40.0429 94.7488 40.0147 94.7488Q39.983 94.7488 39.9653 94.7312Q39.9477 94.7136 39.9477 94.6889V92.3499Q39.9477 92.3147 39.9671 92.297Q39.9865 92.2794 40.0112 92.2794Q40.0429 92.2794 40.0641 92.3041L41.6657 94.4878V92.3464Q41.6657 92.3182 41.6851 92.2988Q41.7045 92.2794 41.7327 92.2794Q41.7645 92.2794 41.7821 92.2988Q41.7998 92.3182 41.7998 92.3464Z" style="stroke:#000000;stroke-width:0.25;stroke-linecap:round;stroke-linejoin:bevel" />
        <path d="M31.3478 101.178Q31.3478 101.21 31.3267 101.229Q31.3055 101.249 31.2773 101.249H29.9826Q29.9508 101.249 29.9314 101.228Q29.912 101.207 29.912 101.178V98.8499Q29.912 98.8217 29.9332 98.8006Q29.9544 98.7794 29.9861 98.7794Q30.0179 98.7794 30.039 98.8006Q30.0602 98.8217 30.0602 98.8499V101.108H31.2773Q31.3055 101.108 31.3267 101.129Q31.3478 101.15 31.3478 101.178Z" style="stroke:#000000;stroke-width:0.25;stroke-linecap:round;stroke-linejoin:bevel" />
        <path d="M31.4572 111.175Q31.4572 111.207 31.4378 111.226Q31.4184 111.245 31.3902 111.245Q31.369 111.245 31.3584 111.238Q31.2632 111.185 31.2067 111.06Q31.1503 110.935 31.1503 110.649Q31.1503 110.36 30.9951 110.252Q30.8398 110.145 30.6352 110.145H29.8097V111.178Q29.8097 111.207 29.7886 111.228Q29.7674 111.249 29.7356 111.249Q29.7039 111.249 29.6827 111.228Q29.6616 111.207 29.6616 111.178V108.85Q29.6616 108.822 29.6827 108.801Q29.7039 108.779 29.7321 108.779H30.6634Q30.8681 108.779 31.0268 108.862Q31.1856 108.945 31.2738 109.09Q31.3619 109.234 31.3619 109.418Q31.3619 109.654 31.2367 109.824Q31.1115 109.993 30.9104 110.053Q31.0797 110.106 31.1891 110.263Q31.2984 110.42 31.2984 110.649Q31.2984 110.885 31.3284 110.979Q31.3584 111.072 31.4184 111.111Q31.4572 111.136 31.4572 111.175ZM30.6811 110.004Q30.9033 109.982 31.0586 109.827Q31.2138 109.672 31.2138 109.421Q31.2138 109.203 31.0586 109.062Q30.9033 108.921 30.6458 108.921H29.8097V110.004Z" style="stroke:#000000;stroke-width:0.25;stroke-linecap:round;stroke-linejoin:bevel" />
        <path d="M 21.48,22.00 L 39.48,22.00 z " style="stroke:#000000;stroke-width:0.25;stroke-linecap:round;stroke-linejoin:bevel;stroke-dasharray:none" />
        <path d="M28.5186 14.8464Q28.5186 14.8782 28.4992 14.8958Q28.4797 14.9134 28.448 14.9134H27.6613V17.1783Q27.6613 17.2065 27.6401 17.2277Q27.619 17.2488 27.5907 17.2488Q27.559 17.2488 27.5396 17.2277Q27.5202 17.2065 27.5202 17.1783V14.9134H26.7335Q26.7053 14.9134 26.6841 14.894Q26.6629 14.8746 26.6629 14.8464Q26.6629 14.8182 26.6841 14.7988Q26.7053 14.7794 26.7335 14.7794H28.448Q28.4762 14.7794 28.4974 14.7988Q28.5186 14.8182 28.5186 14.8464ZM29.0689 17.2488Q29.0336 17.2488 29.0142 17.2277Q28.9948 17.2065 28.9948 17.1747V14.8535Q28.9948 14.8217 29.016 14.8006Q29.0371 14.7794 29.0689 14.7794Q29.1006 14.7794 29.1218 14.8006Q29.143 14.8217 29.143 14.8535V17.1747Q29.1394 17.2065 29.1183 17.2277Q29.0971 17.2488 29.0689 17.2488ZM32.0675 14.8499V17.1783Q32.0675 17.2065 32.0446 17.2277Q32.0216 17.2488 31.9934 17.2488Q31.9617 17.2488 31.9405 17.2277Q31.9193 17.2065 31.9193 17.1783V15.0687L31.0092 16.4445Q30.9915 16.4727 30.9598 16.4727Q30.921 16.4727 30.9033 16.4445L29.9896 15.0651V17.1783Q29.9896 17.2065 29.9685 17.2277Q29.9473 17.2488 29.9191 17.2488Q29.8873 17.2488 29.8679 17.2277Q29.8485 17.2065 29.8485 17.1783V14.8499Q29.8485 14.8253 29.8679 14.8023Q29.8873 14.7794 29.9156 14.7794Q29.9614 14.7794 29.9826 14.8111L30.9598 16.2646L31.937 14.8111Q31.9652 14.7723 32.004 14.7794Q32.0322 14.7829 32.0499 14.8023Q32.0675 14.8217 32.0675 14.8499ZM34.2441 17.1783Q34.2441 17.21 34.223 17.2294Q34.2018 17.2488 34.1736 17.2488H32.8436Q32.8154 17.2488 32.7942 17.2277Q32.7731 17.2065 32.7731 17.1783V14.8499Q32.7731 14.8217 32.7942 14.8006Q32.8154 14.7794 32.8436 14.7794H34.1736Q34.2018 14.7794 34.223 14.8006Q34.2441 14.8217 34.2441 14.8499Q34.2441 14.8817 34.223 14.9011Q34.2018 14.9205 34.1736 14.9205H32.9212V15.9047H34.0148Q34.0431 15.9047 34.0642 15.9259Q34.0854 15.9471 34.0854 15.9753Q34.0854 16.0071 34.0642 16.0265Q34.0431 16.0459 34.0148 16.0459H32.9212V17.1077H34.1736Q34.2018 17.1077 34.223 17.1289Q34.2441 17.1501 34.2441 17.1783Z" style="stroke:#000000;stroke-width:0.25;stroke-linecap:round;stroke-linejoin:bevel" />
        <path d="M 21.48,37.00 L 39.48,37.00 z " style="stroke:#000000;stroke-width:0.25;stroke-linecap:round;stroke-linejoin:bevel;stroke-dasharray:none" />
        <path d="M27.6842 29.8499Q27.6842 29.8817 27.6631 29.9011Q27.6419 29.9205 27.6137 29.9205H26.3543V30.8942H27.4549Q27.4832 30.8942 27.5043 30.9153Q27.5255 30.9365 27.5255 30.9647Q27.5255 30.9965 27.5043 31.0159Q27.4832 31.0353 27.4549 31.0353H26.3543V32.1783Q26.3543 32.2065 26.3349 32.2277Q26.3155 32.2488 26.2837 32.2488Q26.252 32.2488 26.2326 32.2277Q26.2132 32.2065 26.2132 32.1783V29.8499Q26.2132 29.8217 26.2343 29.8006Q26.2555 29.7794 26.2837 29.7794H27.6137Q27.6419 29.7794 27.6631 29.8006Q27.6842 29.8217 27.6842 29.8499ZM30.2242 31.0141Q30.2242 31.3634 30.1131 31.6421Q30.002 31.9207 29.7727 32.0848Q29.5434 32.2488 29.2012 32.2488H28.284Q28.2557 32.2488 28.2346 32.2277Q28.2134 32.2065 28.2134 32.1783V29.8499Q28.2134 29.8217 28.2346 29.8006Q28.2557 29.7794 28.284 29.7794H29.2012Q29.5398 29.7794 29.7709 29.9487Q30.002 30.1181 30.1131 30.3985Q30.2242 30.679 30.2242 31.0141ZM30.0761 31.0141Q30.0761 30.7142 29.9791 30.4655Q29.882 30.2168 29.6792 30.0687Q29.4763 29.9205 29.1659 29.9205H28.3616V32.1077H29.1659Q29.6245 32.1077 29.8503 31.8061Q30.0761 31.5045 30.0761 31.0141ZM32.5173 31.5821Q32.5173 31.9031 32.3144 32.076Q32.1116 32.2488 31.7976 32.2488H30.824Q30.7957 32.2488 30.7746 32.2277Q30.7534 32.2065 30.7534 32.1783V29.8499Q30.7534 29.8217 30.7746 29.8006Q30.7957 29.7794 30.824 29.7794H31.7729Q32.0552 29.7794 32.2245 29.9417Q32.3938 30.1039 32.3938 30.3791Q32.3938 30.5767 32.295 30.7372Q32.1963 30.8977 32.0199 30.9577Q32.2457 31 32.3815 31.1623Q32.5173 31.3246 32.5173 31.5821ZM31.7553 29.9205H30.9016V30.9118H31.7553Q31.974 30.9083 32.1098 30.7689Q32.2457 30.6296 32.2457 30.3756Q32.2457 30.1674 32.1169 30.044Q31.9881 29.9205 31.7553 29.9205ZM32.3691 31.5821Q32.3691 31.321 32.2068 31.1887Q32.0446 31.0564 31.78 31.0564H30.9016V32.1077H31.78Q32.0446 32.1077 32.2068 31.9754Q32.3691 31.8431 32.3691 31.5821ZM34.9127 32.1924Q34.9127 32.2312 34.8862 32.2488Q34.8597 32.2665 34.8315 32.2665Q34.8033 32.2665 34.7821 32.2418L33.7238 30.933L33.1946 31.4233V32.1747Q33.1911 32.2065 33.1699 32.2277Q33.1488 32.2488 33.1205 32.2488Q33.0853 32.2488 33.0659 32.2277Q33.0465 32.2065 33.0465 32.1747V29.8535Q33.0465 29.8217 33.0676 29.8006Q33.0888 29.7794 33.1205 29.7794Q33.1523 29.7794 33.1735 29.8006Q33.1946 29.8217 33.1946 29.8535V31.2434L34.7186 29.8147Q34.7398 29.7935 34.768 29.7935Q34.7962 29.7935 34.8174 29.8147Q34.8386 29.8358 34.8386 29.8641Q34.8386 29.8923 34.8174 29.9134L33.8402 30.8236L34.895 32.143Q34.9127 32.1677 34.9127 32.1924Z" style="stroke:#000000;stroke-width:0.25;stroke-linecap:round;stroke-linejoin:bevel" />
        <path d="M 21.48,52.00 L 39.48,52.00 z " style="stroke:#000000;stroke-width:0.25;stroke-linecap:round;stroke-linejoin:bevel;stroke-dasharray:none" />
        <path d="M28.9454 45.4532Q28.9454 45.6507 28.8625 45.8113Q28.7796 45.9718 28.6279 46.0617Q28.4762 46.1517 28.2787 46.1517H27.5096V47.1783Q27.5096 47.2065 27.4867 47.2277Q27.4638 47.2488 27.4355 47.2488Q27.4038 47.2488 27.3826 47.2277Q27.3614 47.2065 27.3614 47.1783V44.8499Q27.3614 44.8217 27.3826 44.8006Q27.4038 44.7794 27.432 44.7794H28.2787Q28.5785 44.7794 28.762 44.9664Q28.9454 45.1533 28.9454 45.4532ZM28.7972 45.4532Q28.7972 45.2098 28.6579 45.0651Q28.5186 44.9205 28.2787 44.9205H27.5096V46.0106H28.2787Q28.515 46.0106 28.6561 45.8536Q28.7972 45.6966 28.7972 45.4532ZM31.2702 47.1818Q31.2702 47.2136 31.2491 47.2312Q31.2279 47.2488 31.1961 47.2488Q31.1714 47.2488 31.152 47.2365Q31.1326 47.2241 31.1256 47.203L30.8293 46.4763L30.8328 46.4833H29.651L29.3652 47.203Q29.3476 47.2488 29.3017 47.2488Q29.27 47.2488 29.2506 47.2312Q29.2312 47.2136 29.2276 47.1889Q29.2241 47.1747 29.2312 47.1536L30.1801 44.8182Q30.1907 44.79 30.2066 44.7812Q30.2225 44.7723 30.2472 44.7723Q30.3001 44.7723 30.3177 44.8182L31.2667 47.1536Q31.2702 47.1642 31.2702 47.1818ZM29.7074 46.3422H30.7763L30.2366 45.0122ZM33.5986 44.8464V47.1712Q33.5986 47.21 33.5774 47.2294Q33.5562 47.2488 33.5245 47.2488Q33.4892 47.2488 33.468 47.2206L31.8805 45.051V47.1889Q31.8805 47.2136 31.8611 47.2312Q31.8417 47.2488 31.8135 47.2488Q31.7818 47.2488 31.7641 47.2312Q31.7465 47.2136 31.7465 47.1889V44.8499Q31.7465 44.8147 31.7659 44.797Q31.7853 44.7794 31.81 44.7794Q31.8417 44.7794 31.8629 44.8041L33.4645 46.9878V44.8464Q33.4645 44.8182 33.4839 44.7988Q33.5033 44.7794 33.5315 44.7794Q33.5633 44.7794 33.5809 44.7988Q33.5986 44.8182 33.5986 44.8464Z" style="stroke:#000000;stroke-width:0.25;stroke-linecap:round;stroke-linejoin:bevel" />
        <path d="M 21.48,67.00 L 39.48,67.00 z " style="stroke:#000000;stroke-width:0.25;stroke-linecap:round;stroke-linejoin:bevel;stroke-dasharray:none" />
        <path d="M30.1237 59.8499V62.1783Q30.1237 62.2065 30.1008 62.2277Q30.0778 62.2488 30.0496 62.2488Q30.0179 62.2488 29.9967 62.2277Q29.9755 62.2065 29.9755 62.1783V60.0687L29.0654 61.4445Q29.0477 61.4727 29.016 61.4727Q28.9772 61.4727 28.9595 61.4445L28.0458 60.0651V62.1783Q28.0458 62.2065 28.0247 62.2277Q28.0035 62.2488 27.9753 62.2488Q27.9435 62.2488 27.9241 62.2277Q27.9047 62.2065 27.9047 62.1783V59.8499Q27.9047 59.8252 27.9241 59.8023Q27.9435 59.7794 27.9718 59.7794Q28.0176 59.7794 28.0388 59.8111L29.016 61.2646L29.9932 59.8111Q30.0214 59.7723 30.0602 59.7794Q30.0884 59.7829 30.1061 59.8023Q30.1237 59.8217 30.1237 59.8499ZM30.9033 62.2488Q30.8681 62.2488 30.8487 62.2277Q30.8292 62.2065 30.8292 62.1747V59.8535Q30.8292 59.8217 30.8504 59.8006Q30.8716 59.7794 30.9033 59.7794Q30.9351 59.7794 30.9562 59.8006Q30.9774 59.8217 30.9774 59.8535V62.1747Q30.9739 62.2065 30.9527 62.2277Q30.9316 62.2488 30.9033 62.2488ZM33.2846 62.1465Q33.3022 62.1712 33.3022 62.1889Q33.3022 62.2206 33.2811 62.24Q33.2599 62.2594 33.2281 62.2594Q33.1893 62.2594 33.1717 62.2312L32.3638 61.1305L31.5595 62.2312Q31.5419 62.2594 31.5066 62.2594Q31.4748 62.2594 31.4572 62.24Q31.4396 62.2206 31.4396 62.1994Q31.4396 62.1818 31.4572 62.1536L32.2862 61.0212L31.4501 59.8817Q31.436 59.8641 31.436 59.8394Q31.436 59.8076 31.4572 59.7882Q31.4784 59.7688 31.5066 59.7688Q31.5489 59.7688 31.5666 59.797L32.3744 60.9012L33.1787 59.7935Q33.1999 59.7653 33.2317 59.7653Q33.2634 59.7653 33.2828 59.7812Q33.3022 59.797 33.3022 59.8217Q33.3022 59.8464 33.2846 59.8711L32.4556 61.0141Z" style="stroke:#000000;stroke-width:0.25;stroke-linecap:round;stroke-linejoin:bevel" />
        <path d="M 21.48,82.00 L 39.48,82.00 z " style="stroke:#000000;stroke-width:0.25;stroke-linecap:round;stroke-linejoin:bevel;stroke-dasharray:none" />
        <path d="M28.6244 76.1023V76.9878Q28.6244 77.0301 28.5926 77.0513Q28.4304 77.1606 28.2381 77.2224Q28.0458 77.2841 27.8483 77.2841Q27.4849 77.2841 27.1974 77.1201Q26.9099 76.956 26.7458 76.6668Q26.5818 76.3775 26.5818 76.0141Q26.5818 75.6508 26.7458 75.3615Q26.9099 75.0722 27.1974 74.9082Q27.4849 74.7441 27.8483 74.7441Q28.0458 74.7441 28.224 74.7917Q28.4021 74.8394 28.5433 74.9346Q28.575 74.9558 28.575 74.9946Q28.575 75.0263 28.5521 75.0457Q28.5291 75.0651 28.508 75.0651Q28.4903 75.0651 28.4621 75.051Q28.1658 74.8852 27.8483 74.8852Q27.5237 74.8852 27.2697 75.0299Q27.0157 75.1745 26.8728 75.432Q26.73 75.6896 26.73 76.0141Q26.73 76.3387 26.8728 76.5962Q27.0157 76.8537 27.2697 76.9984Q27.5237 77.143 27.8483 77.143Q28.0106 77.143 28.1781 77.0918Q28.3457 77.0407 28.4833 76.956V76.1729H27.8483Q27.8201 76.1729 27.7989 76.1517Q27.7777 76.1305 27.7777 76.1023Q27.7777 76.0706 27.7989 76.0512Q27.8201 76.0318 27.8483 76.0318H28.5538Q28.5856 76.0318 28.605 76.0529Q28.6244 76.0741 28.6244 76.1023ZM31.0198 77.1818Q31.0198 77.2136 30.9986 77.2312Q30.9774 77.2488 30.9457 77.2488Q30.921 77.2488 30.9016 77.2365Q30.8822 77.2241 30.8751 77.203L30.5788 76.4763L30.5823 76.4833H29.4005L29.1148 77.203Q29.0971 77.2488 29.0513 77.2488Q29.0195 77.2488 29.0001 77.2312Q28.9807 77.2136 28.9772 77.1889Q28.9736 77.1748 28.9807 77.1536L29.9297 74.8182Q29.9403 74.79 29.9561 74.7812Q29.972 74.7723 29.9967 74.7723Q30.0496 74.7723 30.0673 74.8182L31.0162 77.1536Q31.0198 77.1642 31.0198 77.1818ZM29.4569 76.3422H30.5259L29.9861 75.0122ZM31.5701 77.2488Q31.5348 77.2488 31.5154 77.2277Q31.496 77.2065 31.496 77.1748V74.8535Q31.496 74.8217 31.5172 74.8006Q31.5383 74.7794 31.5701 74.7794Q31.6018 74.7794 31.623 74.8006Q31.6442 74.8217 31.6442 74.8535V77.1748Q31.6406 77.2065 31.6195 77.2277Q31.5983 77.2488 31.5701 77.2488ZM34.2018 74.8464V77.1712Q34.2018 77.21 34.1806 77.2294Q34.1595 77.2488 34.1277 77.2488Q34.0924 77.2488 34.0713 77.2206L32.4838 75.051V77.1889Q32.4838 77.2136 32.4644 77.2312Q32.445 77.2488 32.4168 77.2488Q32.385 77.2488 32.3674 77.2312Q32.3497 77.2136 32.3497 77.1889V74.8499Q32.3497 74.8147 32.3691 74.797Q32.3885 74.7794 32.4132 74.7794Q32.445 74.7794 32.4661 74.8041L34.0678 76.9878V74.8464Q34.0678 74.8182 34.0872 74.7988Q34.1066 74.7794 34.1348 74.7794Q34.1665 74.7794 34.1842 74.7988Q34.2018 74.8182 34.2018 74.8464Z" style="stroke:#000000;stroke-width:0.25;stroke-linecap:round;stroke-linejoin:bevel" />
    </g>
</svg>
