<?xml version="1.0" encoding="utf-8"?>
<svg xmlns="http://www.w3.org/2000/svg" width="60.96mm" height="128.50mm" viewBox="0 0 60.96 128.50">
    <g id="PanelLayer">
        <defs>
            <linearGradient id="gradient_controls" x1="0" y1="20" x2="0" y2="91" gradientUnits="userSpaceOnUse">
                <stop style="stop-color:#3068ff;stop-opacity:1;" offset="0" />
                <stop style="stop-color:#4f8df2;stop-opacity:1;" offset="1" />
            </linearGradient>
            <linearGradient id="gradient_send_return" x1="0" y1="91" x2="0" y2="108" gradientUnits="userSpaceOnUse">
                <stop style="stop-color:#8a72cf;stop-opacity:1;" offset="0" />
                <stop style="stop-color:#4f8df2;stop-opacity:1;" offset="1" />
            </linearGradient>
        </defs>
        <rect id="border_rect" width="60.96" height="128.5" x="0" y="0" style="display:inline;fill:#4f8df2;fill-opacity:1;stroke:none;" />
        <path id="controls_art" d="M 30.72,91.00 L 30.72,14.00 A 4 4 0 0 1 34.72 10 L 56.72,10.00 A 4 4 0 0 1 60.72 14 L 60.72,10.00 L 60.72,91.00 z" style="fill:url(#gradient_controls);fill-opacity:1;stroke-width:0;" />
        <path id="send_return_art" d="M 30.72,108.00 L 30.72,85.00 A 4 4 0 0 1 34.72 81 L 56.72,81.00 A 4 4 0 0 1 60.72 85 L 60.72,81.00 L 60.72,108.00 z" style="fill:url(#gradient_send_return);fill-opacity:1;stroke-width:0;" />
        <path id="model_name" d="M10.626 2.56326V7.99604Q10.626 8.05812 10.5795 8.10469Q10.5329 8.15126 10.4708 8.15126Q10.4009 8.15126 10.3583 8.10469Q10.3156 8.05812 10.3156 7.99604V7.25873Q10.1293 7.67007 9.72573 7.94947Q9.32215 8.22887 8.82544 8.22887Q8.32097 8.22887 7.90963 7.96111Q7.49829 7.69335 7.26158 7.22769Q7.02486 6.76202 7.02486 6.1877Q7.02486 5.61337 7.26158 5.14771Q7.49829 4.68204 7.90963 4.41816Q8.32097 4.15429 8.82544 4.15429Q9.30663 4.15429 9.71797 4.42592Q10.1293 4.69756 10.3156 5.13219V2.56326Q10.3156 2.50117 10.3583 2.4546Q10.4009 2.40804 10.4708 2.40804Q10.5406 2.40804 10.5833 2.4546Q10.626 2.50117 10.626 2.56326ZM10.3466 6.1877Q10.3466 5.69099 10.1526 5.29517Q9.95856 4.89935 9.61319 4.67428Q9.26783 4.44921 8.84096 4.44921Q8.42186 4.44921 8.07649 4.67428Q7.73113 4.89935 7.53322 5.29905Q7.33531 5.69875 7.33531 6.1877Q7.33531 6.68441 7.53322 7.08022Q7.73113 7.47604 8.07261 7.70499Q8.4141 7.93395 8.84096 7.93395Q9.27559 7.93395 9.61708 7.70887Q9.95856 7.4838 10.1526 7.08411Q10.3466 6.68441 10.3466 6.1877ZM11.115 9.54826V9.53274Q11.115 9.47841 11.1538 9.43572Q11.1926 9.39304 11.2547 9.38528Q11.5574 9.33871 11.7863 9.14468Q12.0153 8.95065 12.0153 8.6014V4.42592Q12.0153 4.36384 12.0579 4.31727Q12.1006 4.2707 12.1705 4.2707Q12.2403 4.2707 12.283 4.31727Q12.3257 4.36384 12.3257 4.42592V8.6014Q12.3257 8.92737 12.155 9.17572Q11.9842 9.42408 11.7359 9.55602Q11.4875 9.68796 11.2624 9.68796Q11.1926 9.68796 11.1538 9.64915Q11.115 9.61035 11.115 9.54826ZM11.8988 3.37041V3.30832Q11.8988 3.19967 11.9765 3.12982Q12.0541 3.05997 12.1782 3.05997Q12.2869 3.05997 12.3606 3.12982Q12.4344 3.19967 12.4344 3.30832V3.37041Q12.4344 3.47907 12.3606 3.54892Q12.2869 3.61877 12.1705 3.61877Q12.0463 3.61877 11.9726 3.54892Q11.8988 3.47907 11.8988 3.37041ZM14.1496 8.15126Q14.0797 8.15126 14.037 8.10469Q13.9943 8.05812 13.9943 7.99604V4.30951Q13.9943 4.24742 14.0409 4.20085Q14.0875 4.15429 14.1496 4.15429Q14.2194 4.15429 14.2621 4.20085Q14.3048 4.24742 14.3048 4.30951V7.99604Q14.3048 8.05812 14.2582 8.10469Q14.2117 8.15126 14.1496 8.15126ZM13.8779 3.37818V3.31609Q13.8779 3.20743 13.9555 3.13758Q14.0331 3.06773 14.1573 3.06773Q14.266 3.06773 14.3397 3.13758Q14.4134 3.20743 14.4134 3.31609V3.37818Q14.4134 3.48683 14.3397 3.55668Q14.266 3.62653 14.1496 3.62653Q14.0254 3.62653 13.9517 3.55668Q13.8779 3.48683 13.8779 3.37818ZM18.7441 5.62114V7.99604Q18.7441 8.05812 18.6976 8.10469Q18.651 8.15126 18.5889 8.15126Q18.5191 8.15126 18.4764 8.10469Q18.4337 8.05812 18.4337 7.99604V5.65218Q18.4337 5.12443 18.1582 4.78682Q17.8827 4.44921 17.3239 4.44921Q16.9824 4.44921 16.6525 4.61219Q16.3227 4.77517 16.1131 5.05457Q15.9036 5.33397 15.9036 5.65218V7.99604Q15.9036 8.05812 15.857 8.10469Q15.8104 8.15126 15.7484 8.15126Q15.6785 8.15126 15.6358 8.10469Q15.5931 8.05812 15.5931 7.99604V4.43369Q15.5931 4.3716 15.6397 4.32503Q15.6863 4.27846 15.7484 4.27846Q15.8182 4.27846 15.8609 4.32503Q15.9036 4.3716 15.9036 4.43369V4.95368Q16.1286 4.60443 16.5361 4.37936Q16.9436 4.15429 17.3549 4.15429Q18.0456 4.15429 18.3949 4.56174Q18.7441 4.9692 18.7441 5.62114ZM23.1835 5.62114V7.99604Q23.1835 8.05812 23.1369 8.10469Q23.0904 8.15126 23.0283 8.15126Q22.9584 8.15126 22.9157 8.10469Q22.8731 8.05812 22.8731 7.99604V5.65218Q22.8731 5.12443 22.5975 4.78682Q22.322 4.44921 21.7632 4.44921Q21.4217 4.44921 21.0919 4.61219Q20.762 4.77517 20.5525 5.05457Q20.3429 5.33397 20.3429 5.65218V7.99604Q20.3429 8.05812 20.2964 8.10469Q20.2498 8.15126 20.1877 8.15126Q20.1179 8.15126 20.0752 8.10469Q20.0325 8.05812 20.0325 7.99604V4.43369Q20.0325 4.3716 20.0791 4.32503Q20.1256 4.27846 20.1877 4.27846Q20.2576 4.27846 20.3002 4.32503Q20.3429 4.3716 20.3429 4.43369V4.95368Q20.568 4.60443 20.9755 4.37936Q21.3829 4.15429 21.7943 4.15429Q22.485 4.15429 22.8342 4.56174Q23.1835 4.9692 23.1835 5.62114Z" style="display:inline;stroke:#000000;stroke-width:0.35;stroke-linecap:round;stroke-linejoin:bevel" />
        <path id="sapphire_gemstone" d="m 17.955,122.900 q 0,0.34175 -0.242534,0.63114 -0.0441,0.0524 -0.20395,0.21497 -0.187413,0.19017 -0.785481,0.81304 l -1.444183,1.51309 q -0.01929,0.003 -0.0441,0.003 -0.02756,0 -0.04134,-0.003 -0.08268,-0.0827 -0.647678,-0.67524 -0.468532,-0.47404 -0.934309,-0.94809 -0.556727,-0.56775 -0.89848,-0.98116 -0.132292,-0.15985 -0.168121,-0.29766 -0.02756,-0.10197 -0.02756,-0.34175 0,-0.11024 0.07166,-0.28939 0.06614,-0.16536 0.140559,-0.26458 0.118512,-0.1571 0.42168,-0.42444 0.283875,-0.2508 0.474044,-0.37482 0.272852,-0.17915 0.818555,-0.36656 0.09646,-0.0331 0.110243,-0.0331 h 1.3615 q 0.01102,0 0.104731,0.0331 0.567751,0.20119 0.824066,0.36656 0.165365,0.10473 0.474045,0.37758 0.322461,0.28388 0.421679,0.42168 0.214974,0.2949 0.214974,0.62563 z m -0.16812,-0.27285 q -0.03307,-0.10749 -0.135048,-0.30868 -0.07166,-0.0937 -0.209462,-0.19844 -0.118511,-0.0854 -0.234266,-0.17088 0.245291,0.3638 0.578776,0.678 z m -0.573264,-0.52366 -0.358289,-0.44648 v 0.41065 z m 0.636653,0.75792 q 0,-0.0524 -0.341753,-0.39412 l 0.228754,0.7028 h 0.04961 q 0.06339,-0.21773 0.06339,-0.30868 z m -0.23151,0.27285 -0.316948,-0.90399 -0.410655,-0.0634 -0.159853,0.61461 z m 0.0028,0.15434 -0.771701,-0.3197 h -0.03032 l 0.344509,0.60634 q 0.07993,-0.003 0.234266,-0.0469 0.02481,-0.0138 0.223242,-0.23978 z m -0.857139,-1.05006 -0.719335,0.28388 0.60358,0.22599 z m 0,-0.16261 v -0.51538 l -0.917773,-0.38034 h -1.223697 l -0.917772,0.38034 v 0.51538 l 0.89848,0.4079 h 1.254014 z m 0.573264,1.53789 q -0.0689,0.011 -0.198438,0.0524 -0.08544,0.0551 -0.259071,0.16261 0.01929,0 0.06339,0.003 0.04134,0 0.06339,0 0.118511,0 0.190169,-0.0689 0.07166,-0.0717 0.14056,-0.14883 z m -0.289388,0.003 -0.347266,-0.63114 -0.363801,0.87918 q 0.0248,-0.0165 0.06615,-0.0165 0.03032,0 0.08544,0.011 0.05788,0.008 0.08819,0.008 0.04961,0 0.228754,-0.10749 0.228754,-0.1378 0.242535,-0.14331 z m -0.440972,-0.74139 -0.683507,-0.2756 -0.592556,0.54845 0.903993,0.65595 z m -0.854383,-0.28387 h -1.036284 l 0.523654,0.47404 z m 0.749652,1.36701 q -0.228754,-0.0303 -0.228754,-0.0303 -0.03583,0 -0.272851,0.0937 l 0.190169,0.0193 q 0.01102,0 0.311436,-0.0827 z m -0.388606,-0.0882 -0.843359,-0.61185 v 0.67524 l 0.471289,0.0827 z m 0.854383,0.0496 q -0.09922,0.006 -0.2949,0.0386 -0.01102,0.003 -0.377583,0.17639 -0.129535,0.34726 -0.380338,1.0418 z m -2.543857,-1.39733 -0.719335,-0.28388 0.124023,0.51814 z m -0.802018,-0.45476 v -0.41065 l -0.366557,0.44648 z m 1.515841,1.07212 -0.592556,-0.54019 -0.683506,0.2756 0.380338,0.9288 z m 0.369314,0.94257 q -0.03307,-0.003 -0.135047,-0.0248 -0.08544,-0.0165 -0.137804,-0.0165 -0.05237,0 -0.137804,0.0165 -0.101975,0.0221 -0.135047,0.0248 0.264583,0.0469 0.272851,0.0469 0.0083,0 0.272851,-0.0469 z m -0.30868,-0.1378 v -0.68626 l -0.843359,0.61185 0.37207,0.14607 z m 0.950846,0.20671 -0.396875,-0.0551 -0.479557,0.14056 v 1.27607 z m -2.888366,-2.20211 q -0.118512,0.0854 -0.234267,0.17364 -0.146072,0.10748 -0.209461,0.19568 -0.0441,0.10473 -0.135048,0.31419 0.369314,-0.3638 0.578776,-0.68351 z m 0.476801,0.83234 -0.159853,-0.61461 -0.410655,0.0634 -0.316948,0.90399 z m 0.394118,1.08313 -0.363802,-0.87918 -0.355533,0.63114 q 0.43546,0.2508 0.451996,0.2508 0.09095,0 0.267339,-0.003 z m 1.821765,0.82958 q -0.132291,0.21222 -0.405143,0.6339 -0.07717,0.10749 -0.220486,0.32797 -0.05788,0.10473 -0.05512,0.226 0.159852,-0.15158 0.432704,-0.49609 0.07717,-0.12954 0.140559,-0.339 0.05512,-0.17639 0.107486,-0.35278 z m -1.493792,-0.66146 -0.270095,-0.0882 -0.0083,-0.011 q -0.02481,0 -0.107487,0.011 -0.06615,0.006 -0.107487,0.006 0.272851,0.091 0.311436,0.091 0.02481,0 0.181901,-0.008 z m -0.810286,-1.06384 h -0.03032 l -0.7717,0.3197 q 0.06615,0.0965 0.223242,0.23978 0.07717,0.0138 0.234266,0.0469 z m -0.689018,-0.50161 q -0.341754,0.34727 -0.341754,0.39412 0,0.0799 0.06339,0.30868 h 0.04961 z m 2.235176,3.04547 v -1.27607 l -0.479557,-0.14056 -0.396875,0.0551 z m -1.606791,-1.6757 q -0.256315,-0.1819 -0.457509,-0.22324 0.06615,0.0772 0.20395,0.22324 z m 1.609547,2.04501 v -0.1378 l -0.683507,-1.05007 q 0.05237,0.17639 0.107487,0.35278 0.06339,0.20946 0.14056,0.339 0.0689,0.11851 0.20395,0.25907 0.115755,0.11851 0.23151,0.23702 z m -0.644921,-0.70555 q -0.115756,-0.32798 -0.380339,-1.0418 -0.135047,-0.0662 -0.272851,-0.12954 -0.159852,-0.0716 -0.289388,-0.0716 -0.05237,0 -0.110243,-0.0138 z" style="stroke-width:0;fill:#0000ff;stroke:#2e2114;stroke-linecap:square;stroke-opacity:1" />
        <path d="M9.60783 92.1783Q9.60783 92.21 9.58667 92.2294Q9.5655 92.2488 9.53728 92.2488H8.24258Q8.21083 92.2488 8.19143 92.2277Q8.17203 92.2065 8.17203 92.1783V89.8499Q8.17203 89.8217 8.19319 89.8006Q8.21436 89.7794 8.24611 89.7794Q8.27786 89.7794 8.29903 89.8006Q8.32019 89.8217 8.32019 89.8499V92.1077H9.53728Q9.5655 92.1077 9.58667 92.1289Q9.60783 92.1501 9.60783 92.1783Z" style="stroke:#000000;stroke-width:0.25;stroke-linecap:round;stroke-linejoin:bevel" />
        <path d="M9.71719 102.175Q9.71719 102.207 9.69779 102.226Q9.67839 102.245 9.65017 102.245Q9.629 102.245 9.61842 102.238Q9.52317 102.185 9.46672 102.06Q9.41028 101.935 9.41028 101.649Q9.41028 101.36 9.25506 101.252Q9.09983 101.145 8.89522 101.145H8.06972V102.178Q8.06972 102.207 8.04856 102.228Q8.02739 102.249 7.99564 102.249Q7.96389 102.249 7.94272 102.228Q7.92156 102.207 7.92156 102.178V99.8499Q7.92156 99.8217 7.94272 99.8006Q7.96389 99.7794 7.99211 99.7794H8.92344Q9.12806 99.7794 9.28681 99.8623Q9.44556 99.9452 9.53375 100.09Q9.62194 100.234 9.62194 100.418Q9.62194 100.654 9.49671 100.824Q9.37147 100.993 9.17039 101.053Q9.33972 101.106 9.44908 101.263Q9.55844 101.42 9.55844 101.649Q9.55844 101.885 9.58843 101.979Q9.61842 102.072 9.67839 102.111Q9.71719 102.136 9.71719 102.175ZM8.94108 101.004Q9.16333 100.982 9.31856 100.827Q9.47378 100.672 9.47378 100.421Q9.47378 100.203 9.31856 100.062Q9.16333 99.9205 8.90581 99.9205H8.06972V101.004Z" style="stroke:#000000;stroke-width:0.25;stroke-linecap:round;stroke-linejoin:bevel" />
        <path d="M 15.24,91.00 L 15.24,101.00 " style="stroke:#000000;stroke-width:0.25;stroke-linecap:round;stroke-linejoin:bevel;stroke-dasharray:none" fill="none" />
        <path d="M13.9612 85.7488Q13.9259 85.7488 13.9065 85.7277Q13.8871 85.7065 13.8871 85.6748V83.3535Q13.8871 83.3217 13.9083 83.3006Q13.9294 83.2794 13.9612 83.2794Q13.9929 83.2794 14.0141 83.3006Q14.0353 83.3217 14.0353 83.3535V85.6748Q14.0317 85.7065 14.0106 85.7277Q13.9894 85.7488 13.9612 85.7488ZM16.5929 83.3464V85.6712Q16.5929 85.71 16.5717 85.7294Q16.5506 85.7488 16.5188 85.7488Q16.4835 85.7488 16.4624 85.7206L14.8749 83.551V85.6889Q14.8749 85.7136 14.8555 85.7312Q14.8361 85.7488 14.8078 85.7488Q14.7761 85.7488 14.7585 85.7312Q14.7408 85.7136 14.7408 85.6889V83.3499Q14.7408 83.3147 14.7602 83.297Q14.7796 83.2794 14.8043 83.2794Q14.8361 83.2794 14.8572 83.3041L16.4588 85.4878V83.3464Q16.4588 83.3182 16.4782 83.2988Q16.4977 83.2794 16.5259 83.2794Q16.5576 83.2794 16.5753 83.2988Q16.5929 83.3182 16.5929 83.3464Z" style="stroke:#000000;stroke-width:0.25;stroke-linecap:round;stroke-linejoin:bevel" />
        <path d="M 38.72,91.00 L 38.72,101.00 " style="stroke:#000000;stroke-width:0.25;stroke-linecap:round;stroke-linejoin:bevel;stroke-dasharray:none" fill="none" />
        <path d="M34.3456 85.4137Q34.3244 85.3925 34.3244 85.3608Q34.3244 85.3326 34.3491 85.3061Q34.3738 85.2796 34.402 85.2796Q34.4337 85.2796 34.462 85.3114Q34.5996 85.4737 34.7883 85.5583Q34.977 85.643 35.1852 85.643Q35.4568 85.643 35.6332 85.5125Q35.8096 85.3819 35.8096 85.1668Q35.8061 84.9974 35.7179 84.8881Q35.6297 84.7787 35.5009 84.7134Q35.3721 84.6482 35.1499 84.567Q34.9065 84.4753 34.7707 84.4048Q34.6348 84.3342 34.5378 84.2037Q34.4408 84.0731 34.4408 83.8615Q34.4408 83.6886 34.5361 83.5475Q34.6313 83.4064 34.8077 83.3253Q34.9841 83.2441 35.2169 83.2441Q35.4251 83.2441 35.612 83.32Q35.799 83.3958 35.9084 83.5334Q35.9436 83.5828 35.9436 83.6075Q35.9436 83.6357 35.9172 83.6586Q35.8907 83.6816 35.859 83.6816Q35.8307 83.6816 35.8131 83.6604Q35.7143 83.5334 35.5591 83.4593Q35.4039 83.3852 35.2169 83.3852Q34.9488 83.3852 34.7707 83.5122Q34.5925 83.6392 34.5925 83.8579Q34.5925 84.0096 34.6789 84.1155Q34.7654 84.2213 34.8959 84.2866Q35.0264 84.3518 35.2204 84.4224Q35.4674 84.5106 35.612 84.5847Q35.7567 84.6587 35.859 84.7999Q35.9613 84.941 35.9613 85.1738Q35.9613 85.3361 35.866 85.4772Q35.7708 85.6183 35.5926 85.7012Q35.4145 85.7841 35.1852 85.7841Q34.9241 85.7841 34.7301 85.6942Q34.5361 85.6042 34.3456 85.4137ZM37.9651 85.6783Q37.9651 85.71 37.9439 85.7294Q37.9227 85.7488 37.8945 85.7488H36.5645Q36.5363 85.7488 36.5151 85.7277Q36.494 85.7065 36.494 85.6783V83.3499Q36.494 83.3217 36.5151 83.3006Q36.5363 83.2794 36.5645 83.2794H37.8945Q37.9227 83.2794 37.9439 83.3006Q37.9651 83.3217 37.9651 83.3499Q37.9651 83.3817 37.9439 83.4011Q37.9227 83.4205 37.8945 83.4205H36.6421V84.4048H37.7358Q37.764 84.4048 37.7851 84.4259Q37.8063 84.4471 37.8063 84.4753Q37.8063 84.5071 37.7851 84.5265Q37.764 84.5459 37.7358 84.5459H36.6421V85.6077H37.8945Q37.9227 85.6077 37.9439 85.6289Q37.9651 85.6501 37.9651 85.6783ZM40.3463 83.3464V85.6712Q40.3463 85.71 40.3251 85.7294Q40.304 85.7488 40.2722 85.7488Q40.2369 85.7488 40.2158 85.7206L38.6283 83.551V85.6889Q38.6283 85.7136 38.6089 85.7312Q38.5895 85.7488 38.5613 85.7488Q38.5295 85.7488 38.5119 85.7312Q38.4942 85.7136 38.4942 85.6889V83.3499Q38.4942 83.3147 38.5136 83.297Q38.533 83.2794 38.5577 83.2794Q38.5895 83.2794 38.6106 83.3041L40.2122 85.4878V83.3464Q40.2122 83.3182 40.2317 83.2988Q40.2511 83.2794 40.2793 83.2794Q40.311 83.2794 40.3287 83.2988Q40.3463 83.3182 40.3463 83.3464ZM43.0627 84.5141Q43.0627 84.8634 42.9516 85.1421Q42.8404 85.4207 42.6111 85.5848Q42.3818 85.7488 42.0396 85.7488H41.1224Q41.0942 85.7488 41.073 85.7277Q41.0519 85.7065 41.0519 85.6783V83.3499Q41.0519 83.3217 41.073 83.3006Q41.0942 83.2794 41.1224 83.2794H42.0396Q42.3783 83.2794 42.6094 83.4487Q42.8404 83.6181 42.9516 83.8985Q43.0627 84.179 43.0627 84.5141ZM42.9145 84.5141Q42.9145 84.2143 42.8175 83.9655Q42.7205 83.7168 42.5177 83.5687Q42.3148 83.4205 42.0044 83.4205H41.2V85.6077H42.0044Q42.463 85.6077 42.6887 85.3061Q42.9145 85.0045 42.9145 84.5141Z" style="stroke:#000000;stroke-width:0.25;stroke-linecap:round;stroke-linejoin:bevel" />
        <path d="M 52.72,91.00 L 52.72,101.00 " style="stroke:#000000;stroke-width:0.25;stroke-linecap:round;stroke-linejoin:bevel;stroke-dasharray:none" fill="none" />
        <path d="M50.1959 85.6748Q50.1959 85.7065 50.1765 85.7259Q50.1571 85.7453 50.1288 85.7453Q50.1077 85.7453 50.0971 85.7383Q50.0018 85.6853 49.9454 85.5601Q49.889 85.4349 49.889 85.1491Q49.889 84.8598 49.7337 84.7522Q49.5785 84.6446 49.3739 84.6446H48.5484V85.6783Q48.5484 85.7065 48.5272 85.7277Q48.5061 85.7488 48.4743 85.7488Q48.4426 85.7488 48.4214 85.7277Q48.4002 85.7065 48.4002 85.6783V83.3499Q48.4002 83.3217 48.4214 83.3006Q48.4426 83.2794 48.4708 83.2794H49.4021Q49.6067 83.2794 49.7655 83.3623Q49.9242 83.4452 50.0124 83.5898Q50.1006 83.7345 50.1006 83.9179Q50.1006 84.1543 49.9754 84.3236Q49.8502 84.4929 49.6491 84.5529Q49.8184 84.6058 49.9278 84.7628Q50.0371 84.9198 50.0371 85.1491Q50.0371 85.3855 50.0671 85.479Q50.0971 85.5724 50.1571 85.6112Q50.1959 85.6359 50.1959 85.6748ZM49.4198 84.5035Q49.642 84.4824 49.7972 84.3271Q49.9525 84.1719 49.9525 83.9214Q49.9525 83.7027 49.7972 83.5616Q49.642 83.4205 49.3845 83.4205H48.5484V84.5035ZM52.369 83.3464Q52.369 83.3782 52.3496 83.3958Q52.3302 83.4134 52.2984 83.4134H51.5117V85.6783Q51.5117 85.7065 51.4906 85.7277Q51.4694 85.7488 51.4412 85.7488Q51.4094 85.7488 51.39 85.7277Q51.3706 85.7065 51.3706 85.6783V83.4134H50.5839Q50.5557 83.4134 50.5345 83.394Q50.5134 83.3746 50.5134 83.3464Q50.5134 83.3182 50.5345 83.2988Q50.5557 83.2794 50.5839 83.2794H52.2984Q52.3267 83.2794 52.3478 83.2988Q52.369 83.3182 52.369 83.3464ZM54.6409 85.6748Q54.6409 85.7065 54.6215 85.7259Q54.6021 85.7453 54.5738 85.7453Q54.5527 85.7453 54.5421 85.7383Q54.4468 85.6853 54.3904 85.5601Q54.334 85.4349 54.334 85.1491Q54.334 84.8598 54.1787 84.7522Q54.0235 84.6446 53.8189 84.6446H52.9934V85.6783Q52.9934 85.7065 52.9722 85.7277Q52.9511 85.7488 52.9193 85.7488Q52.8876 85.7488 52.8664 85.7277Q52.8452 85.7065 52.8452 85.6783V83.3499Q52.8452 83.3217 52.8664 83.3006Q52.8876 83.2794 52.9158 83.2794H53.8471Q54.0517 83.2794 54.2105 83.3623Q54.3692 83.4452 54.4574 83.5898Q54.5456 83.7345 54.5456 83.9179Q54.5456 84.1543 54.4204 84.3236Q54.2952 84.4929 54.0941 84.5529Q54.2634 84.6058 54.3728 84.7628Q54.4821 84.9198 54.4821 85.1491Q54.4821 85.3855 54.5121 85.479Q54.5421 85.5724 54.6021 85.6112Q54.6409 85.6359 54.6409 85.6748ZM53.8648 84.5035Q54.087 84.4824 54.2422 84.3271Q54.3975 84.1719 54.3975 83.9214Q54.3975 83.7027 54.2422 83.5616Q54.087 83.4205 53.8295 83.4205H52.9934V84.5035ZM57.0398 83.3464V85.6712Q57.0398 85.71 57.0186 85.7294Q56.9974 85.7488 56.9657 85.7488Q56.9304 85.7488 56.9092 85.7206L55.3217 83.551V85.6889Q55.3217 85.7136 55.3023 85.7312Q55.2829 85.7488 55.2547 85.7488Q55.223 85.7488 55.2053 85.7312Q55.1877 85.7136 55.1877 85.6889V83.3499Q55.1877 83.3147 55.2071 83.297Q55.2265 83.2794 55.2512 83.2794Q55.2829 83.2794 55.3041 83.3041L56.9057 85.4878V83.3464Q56.9057 83.3182 56.9251 83.2988Q56.9445 83.2794 56.9727 83.2794Q57.0045 83.2794 57.0221 83.2988Q57.0398 83.3182 57.0398 83.3464Z" style="stroke:#000000;stroke-width:0.25;stroke-linecap:round;stroke-linejoin:bevel" />
        <path d="M46.5878 92.1783Q46.5878 92.21 46.5667 92.2294Q46.5455 92.2488 46.5173 92.2488H45.2226Q45.1908 92.2488 45.1714 92.2277Q45.152 92.2065 45.152 92.1783V89.8499Q45.152 89.8217 45.1732 89.8006Q45.1944 89.7794 45.2261 89.7794Q45.2579 89.7794 45.279 89.8006Q45.3002 89.8217 45.3002 89.8499V92.1077H46.5173Q46.5455 92.1077 46.5667 92.1289Q46.5878 92.1501 46.5878 92.1783Z" style="stroke:#000000;stroke-width:0.25;stroke-linecap:round;stroke-linejoin:bevel" />
        <path d="M46.6972 102.175Q46.6972 102.207 46.6778 102.226Q46.6584 102.245 46.6302 102.245Q46.609 102.245 46.5984 102.238Q46.5032 102.185 46.4467 102.06Q46.3903 101.935 46.3903 101.649Q46.3903 101.36 46.2351 101.252Q46.0798 101.145 45.8752 101.145H45.0497V102.178Q45.0497 102.207 45.0286 102.228Q45.0074 102.249 44.9756 102.249Q44.9439 102.249 44.9227 102.228Q44.9016 102.207 44.9016 102.178V99.8499Q44.9016 99.8217 44.9227 99.8006Q44.9439 99.7794 44.9721 99.7794H45.9034Q46.1081 99.7794 46.2668 99.8623Q46.4256 99.9452 46.5138 100.09Q46.6019 100.234 46.6019 100.418Q46.6019 100.654 46.4767 100.824Q46.3515 100.993 46.1504 101.053Q46.3197 101.106 46.4291 101.263Q46.5384 101.42 46.5384 101.649Q46.5384 101.885 46.5684 101.979Q46.5984 102.072 46.6584 102.111Q46.6972 102.136 46.6972 102.175ZM45.9211 101.004Q46.1433 100.982 46.2986 100.827Q46.4538 100.672 46.4538 100.421Q46.4538 100.203 46.2986 100.062Q46.1433 99.9205 45.8858 99.9205H45.0497V101.004Z" style="stroke:#000000;stroke-width:0.25;stroke-linecap:round;stroke-linejoin:bevel" />
        <path d="M 38.72,112.00 L 38.72,122.00 " style="stroke:#000000;stroke-width:0.25;stroke-linecap:round;stroke-linejoin:bevel;stroke-dasharray:none" fill="none" />
        <path id="env_label" d="M51.1008 112.178Q51.1008 112.21 51.0796 112.229Q51.0584 112.249 51.0302 112.249H49.7002Q49.672 112.249 49.6508 112.228Q49.6297 112.207 49.6297 112.178V109.85Q49.6297 109.822 49.6508 109.801Q49.672 109.779 49.7002 109.779H51.0302Q51.0584 109.779 51.0796 109.801Q51.1008 109.822 51.1008 109.85Q51.1008 109.882 51.0796 109.901Q51.0584 109.921 51.0302 109.921H49.7778V110.905H50.8714Q50.8997 110.905 50.9208 110.926Q50.942 110.947 50.942 110.975Q50.942 111.007 50.9208 111.026Q50.8997 111.046 50.8714 111.046H49.7778V112.108H51.0302Q51.0584 112.108 51.0796 112.129Q51.1008 112.15 51.1008 112.178ZM53.482 109.846V112.171Q53.482 112.21 53.4608 112.229Q53.4397 112.249 53.4079 112.249Q53.3726 112.249 53.3515 112.221L51.764 110.051V112.189Q51.764 112.214 51.7446 112.231Q51.7252 112.249 51.6969 112.249Q51.6652 112.249 51.6476 112.231Q51.6299 112.214 51.6299 112.189V109.85Q51.6299 109.815 51.6493 109.797Q51.6687 109.779 51.6934 109.779Q51.7252 109.779 51.7463 109.804L53.3479 111.988V109.846Q53.3479 109.818 53.3673 109.799Q53.3868 109.779 53.415 109.779Q53.4467 109.779 53.4644 109.799Q53.482 109.818 53.482 109.846ZM56.0396 109.843Q56.0396 109.857 56.0326 109.878L55.066 112.203Q55.0448 112.249 54.9989 112.249Q54.9778 112.249 54.9584 112.236Q54.939 112.224 54.9319 112.203L53.9724 109.889Q53.9618 109.868 53.9618 109.846Q53.9618 109.818 53.9812 109.799Q54.0006 109.779 54.0288 109.779Q54.0817 109.779 54.1064 109.836L55.0025 111.991L55.9021 109.825Q55.9268 109.779 55.9691 109.779Q56.0008 109.779 56.0202 109.797Q56.0396 109.815 56.0396 109.843Z" style="stroke:#000000;stroke-width:0.25;stroke-linecap:round;stroke-linejoin:bevel" />
        <path d="M11.6381 67.0404Q11.6381 67.0687 11.624 67.0863Q11.6029 67.1145 11.5711 67.1145Q11.557 67.1145 11.5288 67.1004Q11.2007 66.8782 10.8338 66.8782Q10.5375 66.8782 10.2888 67.0246Q10.0401 67.171 9.89542 67.4303Q9.75078 67.6896 9.75078 68.0141Q9.75078 68.3387 9.89542 68.598Q10.0401 68.8573 10.2888 69.0037Q10.5375 69.1501 10.8338 69.1501Q11.2042 69.1501 11.5252 68.9313Q11.5429 68.9172 11.5676 68.9172Q11.6029 68.9172 11.624 68.9454Q11.6381 68.9631 11.6381 68.9878Q11.6381 69.0231 11.6099 69.0442Q11.4723 69.143 11.2554 69.2136Q11.0384 69.2841 10.8338 69.2841Q10.4987 69.2841 10.2164 69.1183Q9.93422 68.9525 9.76842 68.6615Q9.60261 68.3704 9.60261 68.0141Q9.60261 67.6578 9.76842 67.3668Q9.93422 67.0757 10.2164 66.9099Q10.4987 66.7441 10.8338 66.7441Q11.0455 66.7441 11.2448 66.8076Q11.4441 66.8711 11.6064 66.984Q11.6381 67.0087 11.6381 67.0404ZM13.5502 69.1783Q13.5502 69.21 13.529 69.2294Q13.5079 69.2488 13.4796 69.2488H12.1849Q12.1532 69.2488 12.1338 69.2277Q12.1144 69.2065 12.1144 69.1783V66.8499Q12.1144 66.8217 12.1356 66.8006Q12.1567 66.7794 12.1885 66.7794Q12.2202 66.7794 12.2414 66.8006Q12.2626 66.8217 12.2626 66.8499V69.1077H13.4796Q13.5079 69.1077 13.529 69.1289Q13.5502 69.1501 13.5502 69.1783ZM14.9578 69.2841Q14.6156 69.2841 14.3475 69.1236Q14.0794 68.9631 13.9294 68.6738Q13.7795 68.3845 13.7795 68.0141Q13.7795 67.6437 13.9294 67.3544Q14.0794 67.0651 14.3475 66.9046Q14.6156 66.7441 14.9578 66.7441Q15.3 66.7441 15.5681 66.9046Q15.8362 67.0651 15.9861 67.3544Q16.1361 67.6437 16.1361 68.0141Q16.1361 68.3845 15.9861 68.6738Q15.8362 68.9631 15.5681 69.1236Q15.3 69.2841 14.9578 69.2841ZM14.9578 66.8852Q14.6579 66.8852 14.4233 67.0263Q14.1887 67.1674 14.0582 67.425Q13.9277 67.6825 13.9277 68.0141Q13.9277 68.3457 14.0582 68.6033Q14.1887 68.8608 14.4233 69.0019Q14.6579 69.143 14.9578 69.143Q15.2576 69.143 15.4922 69.0019Q15.7268 68.8608 15.8574 68.6033Q15.9879 68.3457 15.9879 68.0141Q15.9879 67.6825 15.8574 67.425Q15.7268 67.1674 15.4922 67.0263Q15.2576 66.8852 14.9578 66.8852ZM18.5244 67.0404Q18.5244 67.0687 18.5102 67.0863Q18.4891 67.1145 18.4573 67.1145Q18.4432 67.1145 18.415 67.1004Q18.0869 66.8782 17.72 66.8782Q17.4237 66.8782 17.175 67.0246Q16.9263 67.171 16.7816 67.4303Q16.637 67.6896 16.637 68.0141Q16.637 68.3387 16.7816 68.598Q16.9263 68.8573 17.175 69.0037Q17.4237 69.1501 17.72 69.1501Q18.0904 69.1501 18.4115 68.9313Q18.4291 68.9172 18.4538 68.9172Q18.4891 68.9172 18.5102 68.9454Q18.5244 68.9631 18.5244 68.9878Q18.5244 69.0231 18.4961 69.0442Q18.3586 69.143 18.1416 69.2136Q17.9246 69.2841 17.72 69.2841Q17.3849 69.2841 17.1027 69.1183Q16.8204 68.9525 16.6546 68.6615Q16.4888 68.3704 16.4888 68.0141Q16.4888 67.6578 16.6546 67.3668Q16.8204 67.0757 17.1027 66.9099Q17.3849 66.7441 17.72 66.7441Q17.9317 66.7441 18.131 66.8076Q18.3303 66.8711 18.4926 66.984Q18.5244 67.0087 18.5244 67.0404ZM20.8668 69.1924Q20.8668 69.2312 20.8403 69.2488Q20.8139 69.2665 20.7857 69.2665Q20.7574 69.2665 20.7363 69.2418L19.6779 67.933L19.1488 68.4233V69.1748Q19.1453 69.2065 19.1241 69.2277Q19.1029 69.2488 19.0747 69.2488Q19.0394 69.2488 19.02 69.2277Q19.0006 69.2065 19.0006 69.1748V66.8535Q19.0006 66.8217 19.0218 66.8006Q19.0429 66.7794 19.0747 66.7794Q19.1064 66.7794 19.1276 66.8006Q19.1488 66.8217 19.1488 66.8535V68.2434L20.6728 66.8147Q20.6939 66.7935 20.7222 66.7935Q20.7504 66.7935 20.7716 66.8147Q20.7927 66.8358 20.7927 66.8641Q20.7927 66.8923 20.7716 66.9134L19.7944 67.8236L20.8492 69.143Q20.8668 69.1677 20.8668 69.1924Z" style="stroke:#000000;stroke-width:0.25;stroke-linecap:round;stroke-linejoin:bevel" />
        <path d="M 36.72,20.00 L 54.72,20.00 z " style="stroke:#000000;stroke-width:0.25;stroke-linecap:round;stroke-linejoin:bevel;stroke-dasharray:none" />
        <path d="M43.7586 12.8464Q43.7586 12.8782 43.7392 12.8958Q43.7198 12.9134 43.688 12.9134H42.9013V15.1783Q42.9013 15.2065 42.8801 15.2277Q42.859 15.2488 42.8308 15.2488Q42.799 15.2488 42.7796 15.2277Q42.7602 15.2065 42.7602 15.1783V12.9134H41.9735Q41.9453 12.9134 41.9241 12.894Q41.9029 12.8746 41.9029 12.8464Q41.9029 12.8182 41.9241 12.7988Q41.9453 12.7794 41.9735 12.7794H43.688Q43.7162 12.7794 43.7374 12.7988Q43.7586 12.8182 43.7586 12.8464ZM44.3089 15.2488Q44.2736 15.2488 44.2542 15.2277Q44.2348 15.2065 44.2348 15.1747V12.8535Q44.2348 12.8217 44.256 12.8006Q44.2771 12.7794 44.3089 12.7794Q44.3406 12.7794 44.3618 12.8006Q44.383 12.8217 44.383 12.8535V15.1747Q44.3794 15.2065 44.3583 15.2277Q44.3371 15.2488 44.3089 15.2488ZM47.3075 12.8499V15.1783Q47.3075 15.2065 47.2846 15.2277Q47.2616 15.2488 47.2334 15.2488Q47.2017 15.2488 47.1805 15.2277Q47.1593 15.2065 47.1593 15.1783V13.0687L46.2492 14.4445Q46.2315 14.4727 46.1998 14.4727Q46.161 14.4727 46.1433 14.4445L45.2296 13.0651V15.1783Q45.2296 15.2065 45.2085 15.2277Q45.1873 15.2488 45.1591 15.2488Q45.1273 15.2488 45.1079 15.2277Q45.0885 15.2065 45.0885 15.1783V12.8499Q45.0885 12.8253 45.1079 12.8023Q45.1273 12.7794 45.1556 12.7794Q45.2014 12.7794 45.2226 12.8111L46.1998 14.2646L47.177 12.8111Q47.2052 12.7723 47.244 12.7794Q47.2722 12.7829 47.2899 12.8023Q47.3075 12.8217 47.3075 12.8499ZM49.4841 15.1783Q49.4841 15.21 49.463 15.2294Q49.4418 15.2488 49.4136 15.2488H48.0836Q48.0554 15.2488 48.0342 15.2277Q48.0131 15.2065 48.0131 15.1783V12.8499Q48.0131 12.8217 48.0342 12.8006Q48.0554 12.7794 48.0836 12.7794H49.4136Q49.4418 12.7794 49.463 12.8006Q49.4841 12.8217 49.4841 12.8499Q49.4841 12.8817 49.463 12.9011Q49.4418 12.9205 49.4136 12.9205H48.1612V13.9047H49.2548Q49.2831 13.9047 49.3042 13.9259Q49.3254 13.9471 49.3254 13.9753Q49.3254 14.0071 49.3042 14.0265Q49.2831 14.0459 49.2548 14.0459H48.1612V15.1077H49.4136Q49.4418 15.1077 49.463 15.1289Q49.4841 15.1501 49.4841 15.1783Z" style="stroke:#000000;stroke-width:0.25;stroke-linecap:round;stroke-linejoin:bevel" />
        <path d="M40.3913 28.6747Q40.3913 28.7065 40.3719 28.7259Q40.3525 28.7453 40.3243 28.7453Q40.3031 28.7453 40.2925 28.7383Q40.1973 28.6853 40.1408 28.5601Q40.0844 28.4349 40.0844 28.1491Q40.0844 27.8598 39.9292 27.7522Q39.7739 27.6446 39.5693 27.6446H38.7438V28.6783Q38.7438 28.7065 38.7227 28.7277Q38.7015 28.7488 38.6697 28.7488Q38.638 28.7488 38.6168 28.7277Q38.5957 28.7065 38.5957 28.6783V26.3499Q38.5957 26.3217 38.6168 26.3006Q38.638 26.2794 38.6662 26.2794H39.5975Q39.8022 26.2794 39.9609 26.3623Q40.1197 26.4452 40.2078 26.5898Q40.296 26.7345 40.296 26.9179Q40.296 27.1543 40.1708 27.3236Q40.0456 27.4929 39.8445 27.5529Q40.0138 27.6058 40.1232 27.7628Q40.2325 27.9198 40.2325 28.1491Q40.2325 28.3855 40.2625 28.479Q40.2925 28.5724 40.3525 28.6113Q40.3913 28.6359 40.3913 28.6747ZM39.6152 27.5035Q39.8374 27.4824 39.9927 27.3271Q40.1479 27.1719 40.1479 26.9214Q40.1479 26.7027 39.9927 26.5616Q39.8374 26.4205 39.5799 26.4205H38.7438V27.5035ZM42.4092 28.6783Q42.4092 28.71 42.388 28.7294Q42.3668 28.7488 42.3386 28.7488H41.0087Q40.9804 28.7488 40.9593 28.7277Q40.9381 28.7065 40.9381 28.6783V26.3499Q40.9381 26.3217 40.9593 26.3006Q40.9804 26.2794 41.0087 26.2794H42.3386Q42.3668 26.2794 42.388 26.3006Q42.4092 26.3217 42.4092 26.3499Q42.4092 26.3817 42.388 26.4011Q42.3668 26.4205 42.3386 26.4205H41.0863V27.4047H42.1799Q42.2081 27.4047 42.2293 27.4259Q42.2504 27.4471 42.2504 27.4753Q42.2504 27.5071 42.2293 27.5265Q42.2081 27.5459 42.1799 27.5459H41.0863V28.6077H42.3386Q42.3668 28.6077 42.388 28.6289Q42.4092 28.6501 42.4092 28.6783ZM44.7904 26.3429Q44.7904 26.357 44.7834 26.3782L43.8168 28.703Q43.7956 28.7488 43.7497 28.7488Q43.7286 28.7488 43.7092 28.7365Q43.6898 28.7241 43.6827 28.703L42.7232 26.3888Q42.7126 26.3676 42.7126 26.3464Q42.7126 26.3182 42.732 26.2988Q42.7514 26.2794 42.7796 26.2794Q42.8325 26.2794 42.8572 26.3358L43.7533 28.4913L44.6528 26.3253Q44.6775 26.2794 44.7199 26.2794Q44.7516 26.2794 44.771 26.297Q44.7904 26.3147 44.7904 26.3429ZM46.7378 28.6783Q46.7378 28.71 46.7166 28.7294Q46.6954 28.7488 46.6672 28.7488H45.3372Q45.309 28.7488 45.2878 28.7277Q45.2667 28.7065 45.2667 28.6783V26.3499Q45.2667 26.3217 45.2878 26.3006Q45.309 26.2794 45.3372 26.2794H46.6672Q46.6954 26.2794 46.7166 26.3006Q46.7378 26.3217 46.7378 26.3499Q46.7378 26.3817 46.7166 26.4011Q46.6954 26.4205 46.6672 26.4205H45.4148V27.4047H46.5085Q46.5367 27.4047 46.5578 27.4259Q46.579 27.4471 46.579 27.4753Q46.579 27.5071 46.5578 27.5265Q46.5367 27.5459 46.5085 27.5459H45.4148V28.6077H46.6672Q46.6954 28.6077 46.7166 28.6289Q46.7378 28.6501 46.7378 28.6783ZM49.0626 28.6747Q49.0626 28.7065 49.0432 28.7259Q49.0238 28.7453 48.9955 28.7453Q48.9744 28.7453 48.9638 28.7383Q48.8685 28.6853 48.8121 28.5601Q48.7557 28.4349 48.7557 28.1491Q48.7557 27.8598 48.6004 27.7522Q48.4452 27.6446 48.2406 27.6446H47.4151V28.6783Q47.4151 28.7065 47.3939 28.7277Q47.3728 28.7488 47.341 28.7488Q47.3093 28.7488 47.2881 28.7277Q47.2669 28.7065 47.2669 28.6783V26.3499Q47.2669 26.3217 47.2881 26.3006Q47.3093 26.2794 47.3375 26.2794H48.2688Q48.4734 26.2794 48.6322 26.3623Q48.7909 26.4452 48.8791 26.5898Q48.9673 26.7345 48.9673 26.9179Q48.9673 27.1543 48.8421 27.3236Q48.7168 27.4929 48.5158 27.5529Q48.6851 27.6058 48.7945 27.7628Q48.9038 27.9198 48.9038 28.1491Q48.9038 28.3855 48.9338 28.479Q48.9638 28.5724 49.0238 28.6113Q49.0626 28.6359 49.0626 28.6747ZM48.2865 27.5035Q48.5087 27.4824 48.6639 27.3271Q48.8192 27.1719 48.8192 26.9214Q48.8192 26.7027 48.6639 26.5616Q48.5087 26.4205 48.2512 26.4205H47.4151V27.5035ZM49.4012 28.4137Q49.3801 28.3925 49.3801 28.3608Q49.3801 28.3326 49.4048 28.3061Q49.4295 28.2796 49.4577 28.2796Q49.4894 28.2796 49.5177 28.3114Q49.6552 28.4737 49.844 28.5583Q50.0327 28.643 50.2408 28.643Q50.5125 28.643 50.6889 28.5125Q50.8653 28.3819 50.8653 28.1668Q50.8617 27.9974 50.7735 27.8881Q50.6853 27.7787 50.5566 27.7134Q50.4278 27.6482 50.2056 27.567Q49.9622 27.4753 49.8263 27.4047Q49.6905 27.3342 49.5935 27.2037Q49.4965 27.0731 49.4965 26.8615Q49.4965 26.6886 49.5917 26.5475Q49.687 26.4064 49.8634 26.3253Q50.0398 26.2441 50.2726 26.2441Q50.4807 26.2441 50.6677 26.32Q50.8547 26.3958 50.964 26.5334Q50.9993 26.5828 50.9993 26.6075Q50.9993 26.6357 50.9729 26.6586Q50.9464 26.6816 50.9147 26.6816Q50.8864 26.6816 50.8688 26.6604Q50.77 26.5334 50.6148 26.4593Q50.4596 26.3852 50.2726 26.3852Q50.0045 26.3852 49.8263 26.5122Q49.6482 26.6392 49.6482 26.8579Q49.6482 27.0096 49.7346 27.1155Q49.821 27.2213 49.9516 27.2866Q50.0821 27.3518 50.2761 27.4224Q50.5231 27.5106 50.6677 27.5847Q50.8123 27.6588 50.9147 27.7999Q51.017 27.941 51.017 28.1738Q51.017 28.3361 50.9217 28.4772Q50.8265 28.6183 50.6483 28.7012Q50.4702 28.7841 50.2408 28.7841Q49.9798 28.7841 49.7858 28.6942Q49.5917 28.6042 49.4012 28.4137ZM53.0207 28.6783Q53.0207 28.71 52.9996 28.7294Q52.9784 28.7488 52.9502 28.7488H51.6202Q51.592 28.7488 51.5708 28.7277Q51.5497 28.7065 51.5497 28.6783V26.3499Q51.5497 26.3217 51.5708 26.3006Q51.592 26.2794 51.6202 26.2794H52.9502Q52.9784 26.2794 52.9996 26.3006Q53.0207 26.3217 53.0207 26.3499Q53.0207 26.3817 52.9996 26.4011Q52.9784 26.4205 52.9502 26.4205H51.6978V27.4047H52.7914Q52.8197 27.4047 52.8408 27.4259Q52.862 27.4471 52.862 27.4753Q52.862 27.5071 52.8408 27.5265Q52.8197 27.5459 52.7914 27.5459H51.6978V28.6077H52.9502Q52.9784 28.6077 52.9996 28.6289Q53.0207 28.6501 53.0207 28.6783Z" style="stroke:#000000;stroke-width:0.25;stroke-linecap:round;stroke-linejoin:bevel" />
        <path id="reverse_line_art" d="M 36.72,33.50 L 54.72,33.50 " style="stroke:#000000;stroke-width:0.25;stroke-linecap:round;stroke-linejoin:bevel;stroke-dasharray:none" fill="none" />
        <path d="M 6.24,33.50 L 24.24,33.50 z " style="stroke:#000000;stroke-width:0.25;stroke-linecap:round;stroke-linejoin:bevel;stroke-dasharray:none" />
        <path d="M12.4442 26.3499Q12.4442 26.3817 12.4231 26.4011Q12.4019 26.4205 12.3737 26.4205H11.1143V27.3942H12.2149Q12.2432 27.3942 12.2643 27.4153Q12.2855 27.4365 12.2855 27.4647Q12.2855 27.4965 12.2643 27.5159Q12.2432 27.5353 12.2149 27.5353H11.1143V28.6783Q11.1143 28.7065 11.0949 28.7277Q11.0755 28.7488 11.0437 28.7488Q11.012 28.7488 10.9926 28.7277Q10.9732 28.7065 10.9732 28.6783V26.3499Q10.9732 26.3217 10.9943 26.3006Q11.0155 26.2794 11.0437 26.2794H12.3737Q12.4019 26.2794 12.4231 26.3006Q12.4442 26.3217 12.4442 26.3499ZM14.9842 27.5141Q14.9842 27.8634 14.8731 28.1421Q14.762 28.4208 14.5327 28.5848Q14.3034 28.7488 13.9612 28.7488H13.044Q13.0157 28.7488 12.9946 28.7277Q12.9734 28.7065 12.9734 28.6783V26.3499Q12.9734 26.3217 12.9946 26.3006Q13.0157 26.2794 13.044 26.2794H13.9612Q14.2998 26.2794 14.5309 26.4487Q14.762 26.6181 14.8731 26.8985Q14.9842 27.179 14.9842 27.5141ZM14.8361 27.5141Q14.8361 27.2142 14.7391 26.9655Q14.642 26.7168 14.4392 26.5687Q14.2363 26.4205 13.9259 26.4205H13.1216V28.6077H13.9259Q14.3845 28.6077 14.6103 28.3061Q14.8361 28.0045 14.8361 27.5141ZM17.2773 28.0821Q17.2773 28.4031 17.0744 28.576Q16.8716 28.7488 16.5576 28.7488H15.584Q15.5557 28.7488 15.5346 28.7277Q15.5134 28.7065 15.5134 28.6783V26.3499Q15.5134 26.3217 15.5346 26.3006Q15.5557 26.2794 15.584 26.2794H16.5329Q16.8152 26.2794 16.9845 26.4417Q17.1538 26.6039 17.1538 26.8791Q17.1538 27.0767 17.055 27.2372Q16.9563 27.3977 16.7799 27.4577Q17.0057 27.5 17.1415 27.6623Q17.2773 27.8246 17.2773 28.0821ZM16.5153 26.4205H15.6616V27.4118H16.5153Q16.734 27.4083 16.8698 27.2689Q17.0057 27.1296 17.0057 26.8756Q17.0057 26.6674 16.8769 26.544Q16.7481 26.4205 16.5153 26.4205ZM17.1291 28.0821Q17.1291 27.821 16.9668 27.6887Q16.8046 27.5564 16.54 27.5564H15.6616V28.6077H16.54Q16.8046 28.6077 16.9668 28.4754Q17.1291 28.3431 17.1291 28.0821ZM19.6727 28.6924Q19.6727 28.7312 19.6462 28.7488Q19.6197 28.7665 19.5915 28.7665Q19.5633 28.7665 19.5421 28.7418L18.4838 27.433L17.9546 27.9233V28.6747Q17.9511 28.7065 17.9299 28.7277Q17.9088 28.7488 17.8805 28.7488Q17.8453 28.7488 17.8259 28.7277Q17.8065 28.7065 17.8065 28.6747V26.3535Q17.8065 26.3217 17.8276 26.3006Q17.8488 26.2794 17.8805 26.2794Q17.9123 26.2794 17.9335 26.3006Q17.9546 26.3217 17.9546 26.3535V27.7434L19.4786 26.3147Q19.4998 26.2935 19.528 26.2935Q19.5562 26.2935 19.5774 26.3147Q19.5986 26.3358 19.5986 26.3641Q19.5986 26.3923 19.5774 26.4134L18.6002 27.3236L19.655 28.643Q19.6727 28.6677 19.6727 28.6924Z" style="stroke:#000000;stroke-width:0.25;stroke-linecap:round;stroke-linejoin:bevel" />
        <path d="M 36.72,47.00 L 54.72,47.00 z " style="stroke:#000000;stroke-width:0.25;stroke-linecap:round;stroke-linejoin:bevel;stroke-dasharray:none" />
        <path d="M44.1854 40.4532Q44.1854 40.6507 44.1025 40.8113Q44.0196 40.9718 43.8679 41.0617Q43.7162 41.1517 43.5187 41.1517H42.7496V42.1783Q42.7496 42.2065 42.7267 42.2277Q42.7037 42.2488 42.6755 42.2488Q42.6438 42.2488 42.6226 42.2277Q42.6014 42.2065 42.6014 42.1783V39.8499Q42.6014 39.8217 42.6226 39.8006Q42.6438 39.7794 42.672 39.7794H43.5187Q43.8185 39.7794 44.002 39.9664Q44.1854 40.1533 44.1854 40.4532ZM44.0373 40.4532Q44.0373 40.2098 43.8979 40.0651Q43.7586 39.9205 43.5187 39.9205H42.7496V41.0106H43.5187Q43.755 41.0106 43.8961 40.8536Q44.0373 40.6966 44.0373 40.4532ZM46.5102 42.1818Q46.5102 42.2136 46.4891 42.2312Q46.4679 42.2488 46.4361 42.2488Q46.4114 42.2488 46.392 42.2365Q46.3726 42.2241 46.3656 42.203L46.0692 41.4763L46.0728 41.4833H44.891L44.6052 42.203Q44.5876 42.2488 44.5417 42.2488Q44.51 42.2488 44.4906 42.2312Q44.4712 42.2136 44.4676 42.1889Q44.4641 42.1747 44.4712 42.1536L45.4201 39.8182Q45.4307 39.79 45.4466 39.7812Q45.4625 39.7723 45.4872 39.7723Q45.5401 39.7723 45.5577 39.8182L46.5067 42.1536Q46.5102 42.1642 46.5102 42.1818ZM44.9474 41.3422H46.0163L45.4766 40.0122ZM48.8386 39.8464V42.1712Q48.8386 42.21 48.8174 42.2294Q48.7962 42.2488 48.7645 42.2488Q48.7292 42.2488 48.708 42.2206L47.1205 40.051V42.1889Q47.1205 42.2136 47.1011 42.2312Q47.0817 42.2488 47.0535 42.2488Q47.0217 42.2488 47.0041 42.2312Q46.9865 42.2136 46.9865 42.1889V39.8499Q46.9865 39.8147 47.0059 39.797Q47.0253 39.7794 47.05 39.7794Q47.0817 39.7794 47.1029 39.8041L48.7045 41.9878V39.8464Q48.7045 39.8182 48.7239 39.7988Q48.7433 39.7794 48.7715 39.7794Q48.8033 39.7794 48.8209 39.7988Q48.8386 39.8182 48.8386 39.8464Z" style="stroke:#000000;stroke-width:0.25;stroke-linecap:round;stroke-linejoin:bevel" />
        <path d="M 36.72,60.50 L 54.72,60.50 z " style="stroke:#000000;stroke-width:0.25;stroke-linecap:round;stroke-linejoin:bevel;stroke-dasharray:none" />
        <path d="M45.3637 53.3499V55.6783Q45.3637 55.7065 45.3408 55.7277Q45.3178 55.7488 45.2896 55.7488Q45.2579 55.7488 45.2367 55.7277Q45.2155 55.7065 45.2155 55.6783V53.5687L44.3054 54.9445Q44.2877 54.9727 44.256 54.9727Q44.2172 54.9727 44.1995 54.9445L43.2858 53.5651V55.6783Q43.2858 55.7065 43.2647 55.7277Q43.2435 55.7488 43.2153 55.7488Q43.1835 55.7488 43.1641 55.7277Q43.1447 55.7065 43.1447 55.6783V53.3499Q43.1447 53.3252 43.1641 53.3023Q43.1835 53.2794 43.2118 53.2794Q43.2576 53.2794 43.2788 53.3111L44.256 54.7646L45.2332 53.3111Q45.2614 53.2723 45.3002 53.2794Q45.3284 53.2829 45.3461 53.3023Q45.3637 53.3217 45.3637 53.3499ZM46.1433 55.7488Q46.1081 55.7488 46.0887 55.7277Q46.0692 55.7065 46.0692 55.6747V53.3535Q46.0692 53.3217 46.0904 53.3006Q46.1116 53.2794 46.1433 53.2794Q46.1751 53.2794 46.1962 53.3006Q46.2174 53.3217 46.2174 53.3535V55.6747Q46.2139 55.7065 46.1927 55.7277Q46.1716 55.7488 46.1433 55.7488ZM48.5246 55.6465Q48.5422 55.6712 48.5422 55.6889Q48.5422 55.7206 48.5211 55.74Q48.4999 55.7594 48.4681 55.7594Q48.4293 55.7594 48.4117 55.7312L47.6038 54.6305L46.7995 55.7312Q46.7819 55.7594 46.7466 55.7594Q46.7148 55.7594 46.6972 55.74Q46.6796 55.7206 46.6796 55.6994Q46.6796 55.6818 46.6972 55.6536L47.5262 54.5212L46.6901 53.3817Q46.676 53.3641 46.676 53.3394Q46.676 53.3076 46.6972 53.2882Q46.7184 53.2688 46.7466 53.2688Q46.7889 53.2688 46.8066 53.297L47.6144 54.4012L48.4188 53.2935Q48.4399 53.2653 48.4717 53.2653Q48.5034 53.2653 48.5228 53.2812Q48.5422 53.297 48.5422 53.3217Q48.5422 53.3464 48.5246 53.3711L47.6956 54.5141Z" style="stroke:#000000;stroke-width:0.25;stroke-linecap:round;stroke-linejoin:bevel" />
        <path d="M 36.72,74.00 L 54.72,74.00 z " style="stroke:#000000;stroke-width:0.25;stroke-linecap:round;stroke-linejoin:bevel;stroke-dasharray:none" />
        <path d="M42.5027 69.1783Q42.5027 69.21 42.4815 69.2294Q42.4603 69.2488 42.4321 69.2488H41.1374Q41.1057 69.2488 41.0863 69.2277Q41.0669 69.2065 41.0669 69.1783V66.8499Q41.0669 66.8217 41.088 66.8006Q41.1092 66.7794 41.1409 66.7794Q41.1727 66.7794 41.1939 66.8006Q41.215 66.8217 41.215 66.8499V69.1077H42.4321Q42.4603 69.1077 42.4815 69.1289Q42.5027 69.1501 42.5027 69.1783ZM44.3794 69.1783Q44.3794 69.21 44.3583 69.2294Q44.3371 69.2488 44.3089 69.2488H42.9789Q42.9507 69.2488 42.9295 69.2277Q42.9084 69.2065 42.9084 69.1783V66.8499Q42.9084 66.8217 42.9295 66.8006Q42.9507 66.7794 42.9789 66.7794H44.3089Q44.3371 66.7794 44.3583 66.8006Q44.3794 66.8217 44.3794 66.8499Q44.3794 66.8817 44.3583 66.9011Q44.3371 66.9205 44.3089 66.9205H43.0565V67.9048H44.1501Q44.1784 67.9048 44.1995 67.9259Q44.2207 67.9471 44.2207 67.9753Q44.2207 68.0071 44.1995 68.0265Q44.1784 68.0459 44.1501 68.0459H43.0565V69.1077H44.3089Q44.3371 69.1077 44.3583 69.1289Q44.3794 69.1501 44.3794 69.1783ZM46.7607 66.8429Q46.7607 66.857 46.7536 66.8782L45.787 69.203Q45.7659 69.2488 45.72 69.2488Q45.6988 69.2488 45.6794 69.2365Q45.66 69.2241 45.653 69.203L44.6934 66.8888Q44.6828 66.8676 44.6828 66.8464Q44.6828 66.8182 44.7022 66.7988Q44.7216 66.7794 44.7499 66.7794Q44.8028 66.7794 44.8275 66.8358L45.7235 68.9913L46.6231 66.8253Q46.6478 66.7794 46.6901 66.7794Q46.7219 66.7794 46.7413 66.797Q46.7607 66.8147 46.7607 66.8429ZM48.708 69.1783Q48.708 69.21 48.6869 69.2294Q48.6657 69.2488 48.6375 69.2488H47.3075Q47.2793 69.2488 47.2581 69.2277Q47.2369 69.2065 47.2369 69.1783V66.8499Q47.2369 66.8217 47.2581 66.8006Q47.2793 66.7794 47.3075 66.7794H48.6375Q48.6657 66.7794 48.6869 66.8006Q48.708 66.8217 48.708 66.8499Q48.708 66.8817 48.6869 66.9011Q48.6657 66.9205 48.6375 66.9205H47.3851V67.9048H48.4787Q48.5069 67.9048 48.5281 67.9259Q48.5493 67.9471 48.5493 67.9753Q48.5493 68.0071 48.5281 68.0265Q48.5069 68.0459 48.4787 68.0459H47.3851V69.1077H48.6375Q48.6657 69.1077 48.6869 69.1289Q48.708 69.1501 48.708 69.1783ZM50.673 69.1783Q50.673 69.21 50.6518 69.2294Q50.6307 69.2488 50.6024 69.2488H49.3077Q49.276 69.2488 49.2566 69.2277Q49.2372 69.2065 49.2372 69.1783V66.8499Q49.2372 66.8217 49.2584 66.8006Q49.2795 66.7794 49.3113 66.7794Q49.343 66.7794 49.3642 66.8006Q49.3854 66.8217 49.3854 66.8499V69.1077H50.6024Q50.6307 69.1077 50.6518 69.1289Q50.673 69.1501 50.673 69.1783Z" style="stroke:#000000;stroke-width:0.25;stroke-linecap:round;stroke-linejoin:bevel" />
        <path d="M10.758 39.8499Q10.758 39.8817 10.7368 39.9011Q10.7156 39.9205 10.6874 39.9205H9.42799V40.8942H10.5287Q10.5569 40.8942 10.578 40.9153Q10.5992 40.9365 10.5992 40.9647Q10.5992 40.9965 10.578 41.0159Q10.5569 41.0353 10.5287 41.0353H9.42799V42.1783Q9.42799 42.2065 9.40858 42.2277Q9.38918 42.2488 9.35743 42.2488Q9.32568 42.2488 9.30628 42.2277Q9.28688 42.2065 9.28688 42.1783V39.8499Q9.28688 39.8217 9.30804 39.8006Q9.32921 39.7794 9.35743 39.7794H10.6874Q10.7156 39.7794 10.7368 39.8006Q10.758 39.8217 10.758 39.8499ZM13.0828 42.1747Q13.0828 42.2065 13.0634 42.2259Q13.044 42.2453 13.0157 42.2453Q12.9946 42.2453 12.984 42.2382Q12.8887 42.1853 12.8323 42.0601Q12.7758 41.9349 12.7758 41.6491Q12.7758 41.3598 12.6206 41.2522Q12.4654 41.1446 12.2608 41.1446H11.4353V42.1783Q11.4353 42.2065 11.4141 42.2277Q11.393 42.2488 11.3612 42.2488Q11.3295 42.2488 11.3083 42.2277Q11.2871 42.2065 11.2871 42.1783V39.8499Q11.2871 39.8217 11.3083 39.8006Q11.3295 39.7794 11.3577 39.7794H12.289Q12.4936 39.7794 12.6524 39.8623Q12.8111 39.9452 12.8993 40.0898Q12.9875 40.2345 12.9875 40.4179Q12.9875 40.6543 12.8623 40.8236Q12.737 40.9929 12.536 41.0529Q12.7053 41.1058 12.8147 41.2628Q12.924 41.4198 12.924 41.6491Q12.924 41.8855 12.954 41.979Q12.984 42.0724 13.044 42.1112Q13.0828 42.1359 13.0828 42.1747ZM12.3067 41.0035Q12.5289 40.9824 12.6841 40.8271Q12.8393 40.6719 12.8393 40.4214Q12.8393 40.2027 12.6841 40.0616Q12.5289 39.9205 12.2714 39.9205H11.4353V41.0035ZM15.1007 42.1783Q15.1007 42.21 15.0795 42.2294Q15.0583 42.2488 15.0301 42.2488H13.7001Q13.6719 42.2488 13.6507 42.2277Q13.6296 42.2065 13.6296 42.1783V39.8499Q13.6296 39.8217 13.6507 39.8006Q13.6719 39.7794 13.7001 39.7794H15.0301Q15.0583 39.7794 15.0795 39.8006Q15.1007 39.8217 15.1007 39.8499Q15.1007 39.8817 15.0795 39.9011Q15.0583 39.9205 15.0301 39.9205H13.7777V40.9047H14.8713Q14.8996 40.9047 14.9207 40.9259Q14.9419 40.9471 14.9419 40.9753Q14.9419 41.0071 14.9207 41.0265Q14.8996 41.0459 14.8713 41.0459H13.7777V42.1077H15.0301Q15.0583 42.1077 15.0795 42.1289Q15.1007 42.1501 15.1007 42.1783ZM17.1009 42.1783Q17.1009 42.21 17.0797 42.2294Q17.0586 42.2488 17.0303 42.2488H15.7004Q15.6722 42.2488 15.651 42.2277Q15.6298 42.2065 15.6298 42.1783V39.8499Q15.6298 39.8217 15.651 39.8006Q15.6722 39.7794 15.7004 39.7794H17.0303Q17.0586 39.7794 17.0797 39.8006Q17.1009 39.8217 17.1009 39.8499Q17.1009 39.8817 17.0797 39.9011Q17.0586 39.9205 17.0303 39.9205H15.778V40.9047H16.8716Q16.8998 40.9047 16.921 40.9259Q16.9422 40.9471 16.9422 40.9753Q16.9422 41.0071 16.921 41.0265Q16.8998 41.0459 16.8716 41.0459H15.778V42.1077H17.0303Q17.0586 42.1077 17.0797 42.1289Q17.1009 42.1501 17.1009 42.1783ZM19.3657 42.1818Q19.3657 42.21 19.3446 42.2294Q19.3234 42.2488 19.2952 42.2488H17.5595Q17.5278 42.2488 17.5084 42.2259Q17.489 42.203 17.489 42.1747Q17.489 42.1501 17.5031 42.1324L19.1682 39.9134H17.6301Q17.6018 39.9134 17.5807 39.894Q17.5595 39.8746 17.5595 39.8464Q17.5595 39.8182 17.5807 39.7988Q17.6018 39.7794 17.6301 39.7794H19.2881Q19.3305 39.7794 19.3499 39.8006Q19.3693 39.8217 19.3693 39.8499Q19.3693 39.8746 19.3552 39.8923L17.6936 42.1148H19.2952Q19.3234 42.1148 19.3446 42.1359Q19.3657 42.1571 19.3657 42.1818ZM21.3695 42.1783Q21.3695 42.21 21.3483 42.2294Q21.3272 42.2488 21.299 42.2488H19.969Q19.9408 42.2488 19.9196 42.2277Q19.8984 42.2065 19.8984 42.1783V39.8499Q19.8984 39.8217 19.9196 39.8006Q19.9408 39.7794 19.969 39.7794H21.299Q21.3272 39.7794 21.3483 39.8006Q21.3695 39.8217 21.3695 39.8499Q21.3695 39.8817 21.3483 39.9011Q21.3272 39.9205 21.299 39.9205H20.0466V40.9047H21.1402Q21.1684 40.9047 21.1896 40.9259Q21.2108 40.9471 21.2108 40.9753Q21.2108 41.0071 21.1896 41.0265Q21.1684 41.0459 21.1402 41.0459H20.0466V42.1077H21.299Q21.3272 42.1077 21.3483 42.1289Q21.3695 42.1501 21.3695 42.1783Z" style="stroke:#000000;stroke-width:0.25;stroke-linecap:round;stroke-linejoin:bevel" />
        <path id="freeze_line_art" d="M 6.24,47.00 L 24.24,47.00 " style="stroke:#000000;stroke-width:0.25;stroke-linecap:round;stroke-linejoin:bevel;stroke-dasharray:none" fill="none" />
        <path d="M12.0474 53.5404Q12.0474 53.5687 12.0333 53.5863Q12.0121 53.6145 11.9803 53.6145Q11.9662 53.6145 11.938 53.6004Q11.6099 53.3782 11.243 53.3782Q10.9467 53.3782 10.698 53.5246Q10.4493 53.671 10.3046 53.9303Q10.16 54.1896 10.16 54.5141Q10.16 54.8387 10.3046 55.098Q10.4493 55.3572 10.698 55.5037Q10.9467 55.6501 11.243 55.6501Q11.6134 55.6501 11.9345 55.4313Q11.9521 55.4172 11.9768 55.4172Q12.0121 55.4172 12.0333 55.4454Q12.0474 55.4631 12.0474 55.4878Q12.0474 55.5231 12.0191 55.5442Q11.8816 55.643 11.6646 55.7136Q11.4476 55.7841 11.243 55.7841Q10.9079 55.7841 10.6257 55.6183Q10.3434 55.4525 10.1776 55.1615Q10.0118 54.8704 10.0118 54.5141Q10.0118 54.1578 10.1776 53.8668Q10.3434 53.5757 10.6257 53.4099Q10.9079 53.2441 11.243 53.2441Q11.4547 53.2441 11.654 53.3076Q11.8533 53.3711 12.0156 53.484Q12.0474 53.5087 12.0474 53.5404ZM13.9594 55.6783Q13.9594 55.71 13.9383 55.7294Q13.9171 55.7488 13.8889 55.7488H12.5942Q12.5624 55.7488 12.543 55.7277Q12.5236 55.7065 12.5236 55.6783V53.3499Q12.5236 53.3217 12.5448 53.3006Q12.5659 53.2794 12.5977 53.2794Q12.6294 53.2794 12.6506 53.3006Q12.6718 53.3217 12.6718 53.3499V55.6077H13.8889Q13.9171 55.6077 13.9383 55.6289Q13.9594 55.6501 13.9594 55.6783ZM15.8362 55.6783Q15.8362 55.71 15.815 55.7294Q15.7939 55.7488 15.7656 55.7488H14.4357Q14.4074 55.7488 14.3863 55.7277Q14.3651 55.7065 14.3651 55.6783V53.3499Q14.3651 53.3217 14.3863 53.3006Q14.4074 53.2794 14.4357 53.2794H15.7656Q15.7939 53.2794 15.815 53.3006Q15.8362 53.3217 15.8362 53.3499Q15.8362 53.3817 15.815 53.4011Q15.7939 53.4205 15.7656 53.4205H14.5133V54.4047H15.6069Q15.6351 54.4047 15.6563 54.4259Q15.6774 54.4471 15.6774 54.4753Q15.6774 54.5071 15.6563 54.5265Q15.6351 54.5459 15.6069 54.5459H14.5133V55.6077H15.7656Q15.7939 55.6077 15.815 55.6289Q15.8362 55.6501 15.8362 55.6783ZM18.1786 55.6818Q18.1786 55.7136 18.1575 55.7312Q18.1363 55.7488 18.1046 55.7488Q18.0799 55.7488 18.0605 55.7365Q18.0411 55.7241 18.034 55.703L17.7377 54.9763L17.7412 54.9833H16.5594L16.2736 55.703Q16.256 55.7488 16.2101 55.7488Q16.1784 55.7488 16.159 55.7312Q16.1396 55.7136 16.1361 55.6889Q16.1325 55.6747 16.1396 55.6536L17.0886 53.3182Q17.0991 53.29 17.115 53.2812Q17.1309 53.2723 17.1556 53.2723Q17.2085 53.2723 17.2261 53.3182L18.1751 55.6536Q18.1786 55.6642 18.1786 55.6818ZM16.6158 54.8422H17.6848L17.145 53.5122ZM20.4505 55.6747Q20.4505 55.7065 20.4311 55.7259Q20.4117 55.7453 20.3835 55.7453Q20.3623 55.7453 20.3518 55.7382Q20.2565 55.6853 20.2001 55.5601Q20.1436 55.4349 20.1436 55.1491Q20.1436 54.8598 19.9884 54.7522Q19.8332 54.6446 19.6286 54.6446H18.8031V55.6783Q18.8031 55.7065 18.7819 55.7277Q18.7607 55.7488 18.729 55.7488Q18.6972 55.7488 18.6761 55.7277Q18.6549 55.7065 18.6549 55.6783V53.3499Q18.6549 53.3217 18.6761 53.3006Q18.6972 53.2794 18.7254 53.2794H19.6568Q19.8614 53.2794 20.0201 53.3623Q20.1789 53.4452 20.2671 53.5898Q20.3553 53.7345 20.3553 53.9179Q20.3553 54.1543 20.23 54.3236Q20.1048 54.4929 19.9037 54.5529Q20.0731 54.6058 20.1824 54.7628Q20.2918 54.9198 20.2918 55.1491Q20.2918 55.3855 20.3218 55.479Q20.3518 55.5724 20.4117 55.6112Q20.4505 55.6359 20.4505 55.6747ZM19.6744 54.5035Q19.8967 54.4824 20.0519 54.3271Q20.2071 54.1719 20.2071 53.9214Q20.2071 53.7027 20.0519 53.5616Q19.8967 53.4205 19.6391 53.4205H18.8031V54.5035Z" style="stroke:#000000;stroke-width:0.25;stroke-linecap:round;stroke-linejoin:bevel" />
        <path id="clear_line_art" d="M 6.24,60.50 L 24.24,60.50 " style="stroke:#000000;stroke-width:0.25;stroke-linecap:round;stroke-linejoin:bevel;stroke-dasharray:none" fill="none" />
    </g>
</svg>
