<?xml version="1.0" encoding="utf-8"?>
<svg xmlns="http://www.w3.org/2000/svg" width="45.72mm" height="128.50mm" viewBox="0 0 45.72 128.50">
    <g id="PanelLayer">
        <defs />
        <rect id="border_rect" width="45.72" height="128.5" x="0" y="0" style="display:inline;fill:#4f8df2;fill-opacity:1;stroke:none;" />
        <path id="model_name" d="M18.246 2.56326V7.99604Q18.246 8.05812 18.1995 8.10469Q18.1529 8.15126 18.0908 8.15126Q18.0209 8.15126 17.9783 8.10469Q17.9356 8.05812 17.9356 7.99604V7.25873Q17.7493 7.67007 17.3457 7.94947Q16.9422 8.22887 16.4454 8.22887Q15.941 8.22887 15.5296 7.96111Q15.1183 7.69335 14.8816 7.22769Q14.6449 6.76202 14.6449 6.1877Q14.6449 5.61337 14.8816 5.14771Q15.1183 4.68204 15.5296 4.41816Q15.941 4.15429 16.4454 4.15429Q16.9266 4.15429 17.338 4.42592Q17.7493 4.69756 17.9356 5.13219V2.56326Q17.9356 2.50117 17.9783 2.4546Q18.0209 2.40804 18.0908 2.40804Q18.1606 2.40804 18.2033 2.4546Q18.246 2.50117 18.246 2.56326ZM17.9666 6.1877Q17.9666 5.69099 17.7726 5.29517Q17.5786 4.89935 17.2332 4.67428Q16.8878 4.44921 16.461 4.44921Q16.0419 4.44921 15.6965 4.67428Q15.3511 4.89935 15.1532 5.29905Q14.9553 5.69875 14.9553 6.1877Q14.9553 6.68441 15.1532 7.08022Q15.3511 7.47604 15.6926 7.70499Q16.0341 7.93395 16.461 7.93395Q16.8956 7.93395 17.2371 7.70887Q17.5786 7.4838 17.7726 7.08411Q17.9666 6.68441 17.9666 6.1877ZM18.735 9.54826V9.53274Q18.735 9.47841 18.7738 9.43572Q18.8126 9.39304 18.8747 9.38528Q19.1774 9.33871 19.4063 9.14468Q19.6353 8.95065 19.6353 8.6014V4.42592Q19.6353 4.36384 19.6779 4.31727Q19.7206 4.2707 19.7905 4.2707Q19.8603 4.2707 19.903 4.31727Q19.9457 4.36384 19.9457 4.42592V8.6014Q19.9457 8.92737 19.775 9.17572Q19.6042 9.42408 19.3559 9.55602Q19.1075 9.68796 18.8824 9.68796Q18.8126 9.68796 18.7738 9.64915Q18.735 9.61035 18.735 9.54826ZM19.5188 3.37041V3.30832Q19.5188 3.19967 19.5965 3.12982Q19.6741 3.05997 19.7982 3.05997Q19.9069 3.05997 19.9806 3.12982Q20.0544 3.19967 20.0544 3.30832V3.37041Q20.0544 3.47907 19.9806 3.54892Q19.9069 3.61877 19.7905 3.61877Q19.6663 3.61877 19.5926 3.54892Q19.5188 3.47907 19.5188 3.37041ZM21.7696 8.15126Q21.6997 8.15126 21.657 8.10469Q21.6143 8.05812 21.6143 7.99604V4.30951Q21.6143 4.24742 21.6609 4.20085Q21.7075 4.15429 21.7696 4.15429Q21.8394 4.15429 21.8821 4.20085Q21.9248 4.24742 21.9248 4.30951V7.99604Q21.9248 8.05812 21.8782 8.10469Q21.8317 8.15126 21.7696 8.15126ZM21.4979 3.37818V3.31609Q21.4979 3.20743 21.5755 3.13758Q21.6531 3.06773 21.7773 3.06773Q21.886 3.06773 21.9597 3.13758Q22.0334 3.20743 22.0334 3.31609V3.37818Q22.0334 3.48683 21.9597 3.55668Q21.886 3.62653 21.7696 3.62653Q21.6454 3.62653 21.5717 3.55668Q21.4979 3.48683 21.4979 3.37818ZM26.3641 5.62114V7.99604Q26.3641 8.05812 26.3176 8.10469Q26.271 8.15126 26.2089 8.15126Q26.1391 8.15126 26.0964 8.10469Q26.0537 8.05812 26.0537 7.99604V5.65218Q26.0537 5.12443 25.7782 4.78682Q25.5027 4.44921 24.9439 4.44921Q24.6024 4.44921 24.2725 4.61219Q23.9427 4.77517 23.7331 5.05457Q23.5236 5.33397 23.5236 5.65218V7.99604Q23.5236 8.05812 23.477 8.10469Q23.4304 8.15126 23.3684 8.15126Q23.2985 8.15126 23.2558 8.10469Q23.2131 8.05812 23.2131 7.99604V4.43369Q23.2131 4.3716 23.2597 4.32503Q23.3063 4.27846 23.3684 4.27846Q23.4382 4.27846 23.4809 4.32503Q23.5236 4.3716 23.5236 4.43369V4.95368Q23.7486 4.60443 24.1561 4.37936Q24.5636 4.15429 24.9749 4.15429Q25.6656 4.15429 26.0149 4.56174Q26.3641 4.9692 26.3641 5.62114ZM30.8035 5.62114V7.99604Q30.8035 8.05812 30.7569 8.10469Q30.7104 8.15126 30.6483 8.15126Q30.5784 8.15126 30.5357 8.10469Q30.4931 8.05812 30.4931 7.99604V5.65218Q30.4931 5.12443 30.2175 4.78682Q29.942 4.44921 29.3832 4.44921Q29.0417 4.44921 28.7119 4.61219Q28.382 4.77517 28.1725 5.05457Q27.9629 5.33397 27.9629 5.65218V7.99604Q27.9629 8.05812 27.9164 8.10469Q27.8698 8.15126 27.8077 8.15126Q27.7379 8.15126 27.6952 8.10469Q27.6525 8.05812 27.6525 7.99604V4.43369Q27.6525 4.3716 27.6991 4.32503Q27.7456 4.27846 27.8077 4.27846Q27.8776 4.27846 27.9202 4.32503Q27.9629 4.3716 27.9629 4.43369V4.95368Q28.188 4.60443 28.5955 4.37936Q29.0029 4.15429 29.4143 4.15429Q30.105 4.15429 30.4542 4.56174Q30.8035 4.9692 30.8035 5.62114Z" style="display:inline;stroke:#000000;stroke-width:0.35;stroke-linecap:round;stroke-linejoin:bevel" />
        <path id="sapphire_gemstone" d="m 25.575,122.900 q 0,0.34175 -0.242534,0.63114 -0.0441,0.0524 -0.20395,0.21497 -0.187413,0.19017 -0.785481,0.81304 l -1.444183,1.51309 q -0.01929,0.003 -0.0441,0.003 -0.02756,0 -0.04134,-0.003 -0.08268,-0.0827 -0.647678,-0.67524 -0.468532,-0.47404 -0.934309,-0.94809 -0.556727,-0.56775 -0.89848,-0.98116 -0.132292,-0.15985 -0.168121,-0.29766 -0.02756,-0.10197 -0.02756,-0.34175 0,-0.11024 0.07166,-0.28939 0.06614,-0.16536 0.140559,-0.26458 0.118512,-0.1571 0.42168,-0.42444 0.283875,-0.2508 0.474044,-0.37482 0.272852,-0.17915 0.818555,-0.36656 0.09646,-0.0331 0.110243,-0.0331 h 1.3615 q 0.01102,0 0.104731,0.0331 0.567751,0.20119 0.824066,0.36656 0.165365,0.10473 0.474045,0.37758 0.322461,0.28388 0.421679,0.42168 0.214974,0.2949 0.214974,0.62563 z m -0.16812,-0.27285 q -0.03307,-0.10749 -0.135048,-0.30868 -0.07166,-0.0937 -0.209462,-0.19844 -0.118511,-0.0854 -0.234266,-0.17088 0.245291,0.3638 0.578776,0.678 z m -0.573264,-0.52366 -0.358289,-0.44648 v 0.41065 z m 0.636653,0.75792 q 0,-0.0524 -0.341753,-0.39412 l 0.228754,0.7028 h 0.04961 q 0.06339,-0.21773 0.06339,-0.30868 z m -0.23151,0.27285 -0.316948,-0.90399 -0.410655,-0.0634 -0.159853,0.61461 z m 0.0028,0.15434 -0.771701,-0.3197 h -0.03032 l 0.344509,0.60634 q 0.07993,-0.003 0.234266,-0.0469 0.02481,-0.0138 0.223242,-0.23978 z m -0.857139,-1.05006 -0.719335,0.28388 0.60358,0.22599 z m 0,-0.16261 v -0.51538 l -0.917773,-0.38034 h -1.223697 l -0.917772,0.38034 v 0.51538 l 0.89848,0.4079 h 1.254014 z m 0.573264,1.53789 q -0.0689,0.011 -0.198438,0.0524 -0.08544,0.0551 -0.259071,0.16261 0.01929,0 0.06339,0.003 0.04134,0 0.06339,0 0.118511,0 0.190169,-0.0689 0.07166,-0.0717 0.14056,-0.14883 z m -0.289388,0.003 -0.347266,-0.63114 -0.363801,0.87918 q 0.0248,-0.0165 0.06615,-0.0165 0.03032,0 0.08544,0.011 0.05788,0.008 0.08819,0.008 0.04961,0 0.228754,-0.10749 0.228754,-0.1378 0.242535,-0.14331 z m -0.440972,-0.74139 -0.683507,-0.2756 -0.592556,0.54845 0.903993,0.65595 z m -0.854383,-0.28387 h -1.036284 l 0.523654,0.47404 z m 0.749652,1.36701 q -0.228754,-0.0303 -0.228754,-0.0303 -0.03583,0 -0.272851,0.0937 l 0.190169,0.0193 q 0.01102,0 0.311436,-0.0827 z m -0.388606,-0.0882 -0.843359,-0.61185 v 0.67524 l 0.471289,0.0827 z m 0.854383,0.0496 q -0.09922,0.006 -0.2949,0.0386 -0.01102,0.003 -0.377583,0.17639 -0.129535,0.34726 -0.380338,1.0418 z m -2.543857,-1.39733 -0.719335,-0.28388 0.124023,0.51814 z m -0.802018,-0.45476 v -0.41065 l -0.366557,0.44648 z m 1.515841,1.07212 -0.592556,-0.54019 -0.683506,0.2756 0.380338,0.9288 z m 0.369314,0.94257 q -0.03307,-0.003 -0.135047,-0.0248 -0.08544,-0.0165 -0.137804,-0.0165 -0.05237,0 -0.137804,0.0165 -0.101975,0.0221 -0.135047,0.0248 0.264583,0.0469 0.272851,0.0469 0.0083,0 0.272851,-0.0469 z m -0.30868,-0.1378 v -0.68626 l -0.843359,0.61185 0.37207,0.14607 z m 0.950846,0.20671 -0.396875,-0.0551 -0.479557,0.14056 v 1.27607 z m -2.888366,-2.20211 q -0.118512,0.0854 -0.234267,0.17364 -0.146072,0.10748 -0.209461,0.19568 -0.0441,0.10473 -0.135048,0.31419 0.369314,-0.3638 0.578776,-0.68351 z m 0.476801,0.83234 -0.159853,-0.61461 -0.410655,0.0634 -0.316948,0.90399 z m 0.394118,1.08313 -0.363802,-0.87918 -0.355533,0.63114 q 0.43546,0.2508 0.451996,0.2508 0.09095,0 0.267339,-0.003 z m 1.821765,0.82958 q -0.132291,0.21222 -0.405143,0.6339 -0.07717,0.10749 -0.220486,0.32797 -0.05788,0.10473 -0.05512,0.226 0.159852,-0.15158 0.432704,-0.49609 0.07717,-0.12954 0.140559,-0.339 0.05512,-0.17639 0.107486,-0.35278 z m -1.493792,-0.66146 -0.270095,-0.0882 -0.0083,-0.011 q -0.02481,0 -0.107487,0.011 -0.06615,0.006 -0.107487,0.006 0.272851,0.091 0.311436,0.091 0.02481,0 0.181901,-0.008 z m -0.810286,-1.06384 h -0.03032 l -0.7717,0.3197 q 0.06615,0.0965 0.223242,0.23978 0.07717,0.0138 0.234266,0.0469 z m -0.689018,-0.50161 q -0.341754,0.34727 -0.341754,0.39412 0,0.0799 0.06339,0.30868 h 0.04961 z m 2.235176,3.04547 v -1.27607 l -0.479557,-0.14056 -0.396875,0.0551 z m -1.606791,-1.6757 q -0.256315,-0.1819 -0.457509,-0.22324 0.06615,0.0772 0.20395,0.22324 z m 1.609547,2.04501 v -0.1378 l -0.683507,-1.05007 q 0.05237,0.17639 0.107487,0.35278 0.06339,0.20946 0.14056,0.339 0.0689,0.11851 0.20395,0.25907 0.115755,0.11851 0.23151,0.23702 z m -0.644921,-0.70555 q -0.115756,-0.32798 -0.380339,-1.0418 -0.135047,-0.0662 -0.272851,-0.12954 -0.159852,-0.0716 -0.289388,-0.0716 -0.05237,0 -0.110243,-0.0138 z" style="stroke-width:0;fill:#0000ff;stroke:#2e2114;stroke-linecap:square;stroke-opacity:1" />
        <path d="M 21.48,22.00 L 39.48,22.00 z " style="stroke:#000000;stroke-width:0.25;stroke-linecap:round;stroke-linejoin:bevel;stroke-dasharray:none" />
        <path d="M28.5186 14.3464Q28.5186 14.3782 28.4992 14.3958Q28.4797 14.4134 28.448 14.4134H27.6613V16.6783Q27.6613 16.7065 27.6401 16.7277Q27.619 16.7488 27.5907 16.7488Q27.559 16.7488 27.5396 16.7277Q27.5202 16.7065 27.5202 16.6783V14.4134H26.7335Q26.7053 14.4134 26.6841 14.394Q26.6629 14.3746 26.6629 14.3464Q26.6629 14.3182 26.6841 14.2988Q26.7053 14.2794 26.7335 14.2794H28.448Q28.4762 14.2794 28.4974 14.2988Q28.5186 14.3182 28.5186 14.3464ZM29.0689 16.7488Q29.0336 16.7488 29.0142 16.7277Q28.9948 16.7065 28.9948 16.6747V14.3535Q28.9948 14.3217 29.016 14.3006Q29.0371 14.2794 29.0689 14.2794Q29.1006 14.2794 29.1218 14.3006Q29.143 14.3217 29.143 14.3535V16.6747Q29.1394 16.7065 29.1183 16.7277Q29.0971 16.7488 29.0689 16.7488ZM32.0675 14.3499V16.6783Q32.0675 16.7065 32.0446 16.7277Q32.0216 16.7488 31.9934 16.7488Q31.9617 16.7488 31.9405 16.7277Q31.9193 16.7065 31.9193 16.6783V14.5687L31.0092 15.9445Q30.9915 15.9727 30.9598 15.9727Q30.921 15.9727 30.9033 15.9445L29.9896 14.5651V16.6783Q29.9896 16.7065 29.9685 16.7277Q29.9473 16.7488 29.9191 16.7488Q29.8873 16.7488 29.8679 16.7277Q29.8485 16.7065 29.8485 16.6783V14.3499Q29.8485 14.3253 29.8679 14.3023Q29.8873 14.2794 29.9156 14.2794Q29.9614 14.2794 29.9826 14.3111L30.9598 15.7646L31.937 14.3111Q31.9652 14.2723 32.004 14.2794Q32.0322 14.2829 32.0499 14.3023Q32.0675 14.3217 32.0675 14.3499ZM34.2441 16.6783Q34.2441 16.71 34.223 16.7294Q34.2018 16.7488 34.1736 16.7488H32.8436Q32.8154 16.7488 32.7942 16.7277Q32.7731 16.7065 32.7731 16.6783V14.3499Q32.7731 14.3217 32.7942 14.3006Q32.8154 14.2794 32.8436 14.2794H34.1736Q34.2018 14.2794 34.223 14.3006Q34.2441 14.3217 34.2441 14.3499Q34.2441 14.3817 34.223 14.4011Q34.2018 14.4205 34.1736 14.4205H32.9212V15.4047H34.0148Q34.0431 15.4047 34.0642 15.4259Q34.0854 15.4471 34.0854 15.4753Q34.0854 15.5071 34.0642 15.5265Q34.0431 15.5459 34.0148 15.5459H32.9212V16.6077H34.1736Q34.2018 16.6077 34.223 16.6289Q34.2441 16.6501 34.2441 16.6783Z" style="stroke:#000000;stroke-width:0.25;stroke-linecap:round;stroke-linejoin:bevel" />
        <path d="M 21.48,38.25 L 39.48,38.25 z " style="stroke:#000000;stroke-width:0.25;stroke-linecap:round;stroke-linejoin:bevel;stroke-dasharray:none" />
        <path d="M27.6842 30.5999Q27.6842 30.6317 27.6631 30.6511Q27.6419 30.6705 27.6137 30.6705H26.3543V31.6442H27.4549Q27.4832 31.6442 27.5043 31.6653Q27.5255 31.6865 27.5255 31.7147Q27.5255 31.7465 27.5043 31.7659Q27.4832 31.7853 27.4549 31.7853H26.3543V32.9283Q26.3543 32.9565 26.3349 32.9777Q26.3155 32.9988 26.2837 32.9988Q26.252 32.9988 26.2326 32.9777Q26.2132 32.9565 26.2132 32.9283V30.5999Q26.2132 30.5717 26.2343 30.5506Q26.2555 30.5294 26.2837 30.5294H27.6137Q27.6419 30.5294 27.6631 30.5506Q27.6842 30.5717 27.6842 30.5999ZM30.2242 31.7641Q30.2242 32.1134 30.1131 32.3921Q30.002 32.6707 29.7727 32.8348Q29.5434 32.9988 29.2012 32.9988H28.284Q28.2557 32.9988 28.2346 32.9777Q28.2134 32.9565 28.2134 32.9283V30.5999Q28.2134 30.5717 28.2346 30.5506Q28.2557 30.5294 28.284 30.5294H29.2012Q29.5398 30.5294 29.7709 30.6987Q30.002 30.8681 30.1131 31.1485Q30.2242 31.429 30.2242 31.7641ZM30.0761 31.7641Q30.0761 31.4642 29.9791 31.2155Q29.882 30.9668 29.6792 30.8187Q29.4763 30.6705 29.1659 30.6705H28.3616V32.8577H29.1659Q29.6245 32.8577 29.8503 32.5561Q30.0761 32.2545 30.0761 31.7641ZM32.5173 32.3321Q32.5173 32.6531 32.3144 32.826Q32.1116 32.9988 31.7976 32.9988H30.824Q30.7957 32.9988 30.7746 32.9777Q30.7534 32.9565 30.7534 32.9283V30.5999Q30.7534 30.5717 30.7746 30.5506Q30.7957 30.5294 30.824 30.5294H31.7729Q32.0552 30.5294 32.2245 30.6917Q32.3938 30.8539 32.3938 31.1291Q32.3938 31.3267 32.295 31.4872Q32.1963 31.6477 32.0199 31.7077Q32.2457 31.75 32.3815 31.9123Q32.5173 32.0746 32.5173 32.3321ZM31.7553 30.6705H30.9016V31.6618H31.7553Q31.974 31.6583 32.1098 31.5189Q32.2457 31.3796 32.2457 31.1256Q32.2457 30.9174 32.1169 30.794Q31.9881 30.6705 31.7553 30.6705ZM32.3691 32.3321Q32.3691 32.071 32.2068 31.9387Q32.0446 31.8064 31.78 31.8064H30.9016V32.8577H31.78Q32.0446 32.8577 32.2068 32.7254Q32.3691 32.5931 32.3691 32.3321ZM34.9127 32.9424Q34.9127 32.9812 34.8862 32.9988Q34.8597 33.0165 34.8315 33.0165Q34.8033 33.0165 34.7821 32.9918L33.7238 31.683L33.1946 32.1733V32.9247Q33.1911 32.9565 33.1699 32.9777Q33.1488 32.9988 33.1205 32.9988Q33.0853 32.9988 33.0659 32.9777Q33.0465 32.9565 33.0465 32.9247V30.6035Q33.0465 30.5717 33.0676 30.5506Q33.0888 30.5294 33.1205 30.5294Q33.1523 30.5294 33.1735 30.5506Q33.1946 30.5717 33.1946 30.6035V31.9934L34.7186 30.5647Q34.7398 30.5435 34.768 30.5435Q34.7962 30.5435 34.8174 30.5647Q34.8386 30.5858 34.8386 30.6141Q34.8386 30.6423 34.8174 30.6634L33.8402 31.5736L34.895 32.893Q34.9127 32.9177 34.9127 32.9424Z" style="stroke:#000000;stroke-width:0.25;stroke-linecap:round;stroke-linejoin:bevel" />
        <path d="M14.3678 101.178Q14.3678 101.21 14.3467 101.229Q14.3255 101.249 14.2973 101.249H13.0026Q12.9708 101.249 12.9514 101.228Q12.932 101.207 12.932 101.178V98.8499Q12.932 98.8217 12.9532 98.8006Q12.9744 98.7794 13.0061 98.7794Q13.0379 98.7794 13.059 98.8006Q13.0802 98.8217 13.0802 98.8499V101.108H14.2973Q14.3255 101.108 14.3467 101.129Q14.3678 101.15 14.3678 101.178Z" style="stroke:#000000;stroke-width:0.25;stroke-linecap:round;stroke-linejoin:bevel" />
        <path d="M14.4772 111.175Q14.4772 111.207 14.4578 111.226Q14.4384 111.245 14.4102 111.245Q14.389 111.245 14.3784 111.238Q14.2832 111.185 14.2267 111.06Q14.1703 110.935 14.1703 110.649Q14.1703 110.36 14.0151 110.252Q13.8598 110.145 13.6552 110.145H12.8297V111.178Q12.8297 111.207 12.8086 111.228Q12.7874 111.249 12.7556 111.249Q12.7239 111.249 12.7027 111.228Q12.6816 111.207 12.6816 111.178V108.85Q12.6816 108.822 12.7027 108.801Q12.7239 108.779 12.7521 108.779H13.6834Q13.8881 108.779 14.0468 108.862Q14.2056 108.945 14.2937 109.09Q14.3819 109.234 14.3819 109.418Q14.3819 109.654 14.2567 109.824Q14.1315 109.993 13.9304 110.053Q14.0997 110.106 14.2091 110.263Q14.3184 110.42 14.3184 110.649Q14.3184 110.885 14.3484 110.979Q14.3784 111.072 14.4384 111.111Q14.4772 111.136 14.4772 111.175ZM13.7011 110.004Q13.9233 109.982 14.0786 109.827Q14.2338 109.672 14.2338 109.421Q14.2338 109.203 14.0786 109.062Q13.9233 108.921 13.6658 108.921H12.8297V110.004Z" style="stroke:#000000;stroke-width:0.25;stroke-linecap:round;stroke-linejoin:bevel" />
    </g>
</svg>
