<?xml version="1.0" encoding="utf-8"?>
<svg xmlns="http://www.w3.org/2000/svg" width="60.96mm" height="128.50mm" viewBox="0 0 60.96 128.50">
    <g id="PanelLayer">
        <defs>
            <linearGradient id="gradient_controls" x1="0" y1="16" x2="0" y2="91" gradientUnits="userSpaceOnUse">
                <stop style="stop-color:#3068ff;stop-opacity:1;" offset="0" />
                <stop style="stop-color:#4f8df2;stop-opacity:1;" offset="1" />
            </linearGradient>
            <linearGradient id="gradient_send_return" x1="0" y1="91" x2="0" y2="108" gradientUnits="userSpaceOnUse">
                <stop style="stop-color:#8a72cf;stop-opacity:1;" offset="0" />
                <stop style="stop-color:#4f8df2;stop-opacity:1;" offset="1" />
            </linearGradient>
            <linearGradient id="gradient_env" x1="0" y1="112" x2="0" y2="126.5" gradientUnits="userSpaceOnUse">
                <stop style="stop-color:#4b9488;stop-opacity:1;" offset="0" />
                <stop style="stop-color:#4f8df2;stop-opacity:1;" offset="1" />
            </linearGradient>
        </defs>
        <rect id="border_rect" width="60.96" height="128.5" x="0" y="0" style="display:inline;fill:#4f8df2;fill-opacity:1;stroke:none;" />
        <path id="controls_art" d="M 30.72,91.00 L 30.72,14.00 A 4 4 0 0 1 34.72 10 L 56.72,10.00 A 4 4 0 0 1 60.72 14 L 60.72,10.00 L 60.72,91.00 z" style="fill:url(#gradient_controls);fill-opacity:1;stroke-width:0;" />
        <path id="send_return_art" d="M 30.72,108.00 L 30.72,85.00 A 4 4 0 0 1 34.72 81 L 56.72,81.00 A 4 4 0 0 1 60.72 85 L 60.72,81.00 L 60.72,108.00 z" style="fill:url(#gradient_send_return);fill-opacity:1;stroke-width:0;" />
        <path id="env_art" d="M 30.72,126.50 L 30.72,111.00 A 4 4 0 0 1 34.72 107 L 56.72,107.00 A 4 4 0 0 1 60.72 111 L 60.72,107.00 L 60.72,126.50 z" style="fill:url(#gradient_env);fill-opacity:1;stroke-width:0;" />
        <path id="model_name" d="M10.626 2.56326V7.99604Q10.626 8.05812 10.5795 8.10469Q10.5329 8.15126 10.4708 8.15126Q10.4009 8.15126 10.3583 8.10469Q10.3156 8.05812 10.3156 7.99604V7.25873Q10.1293 7.67007 9.72573 7.94947Q9.32215 8.22887 8.82544 8.22887Q8.32097 8.22887 7.90963 7.96111Q7.49829 7.69335 7.26158 7.22769Q7.02486 6.76202 7.02486 6.1877Q7.02486 5.61337 7.26158 5.14771Q7.49829 4.68204 7.90963 4.41816Q8.32097 4.15429 8.82544 4.15429Q9.30663 4.15429 9.71797 4.42592Q10.1293 4.69756 10.3156 5.13219V2.56326Q10.3156 2.50117 10.3583 2.4546Q10.4009 2.40804 10.4708 2.40804Q10.5406 2.40804 10.5833 2.4546Q10.626 2.50117 10.626 2.56326ZM10.3466 6.1877Q10.3466 5.69099 10.1526 5.29517Q9.95856 4.89935 9.61319 4.67428Q9.26783 4.44921 8.84096 4.44921Q8.42186 4.44921 8.07649 4.67428Q7.73113 4.89935 7.53322 5.29905Q7.33531 5.69875 7.33531 6.1877Q7.33531 6.68441 7.53322 7.08022Q7.73113 7.47604 8.07261 7.70499Q8.4141 7.93395 8.84096 7.93395Q9.27559 7.93395 9.61708 7.70887Q9.95856 7.4838 10.1526 7.08411Q10.3466 6.68441 10.3466 6.1877ZM11.115 9.54826V9.53274Q11.115 9.47841 11.1538 9.43572Q11.1926 9.39304 11.2547 9.38528Q11.5574 9.33871 11.7863 9.14468Q12.0153 8.95065 12.0153 8.6014V4.42592Q12.0153 4.36384 12.0579 4.31727Q12.1006 4.2707 12.1705 4.2707Q12.2403 4.2707 12.283 4.31727Q12.3257 4.36384 12.3257 4.42592V8.6014Q12.3257 8.92737 12.155 9.17572Q11.9842 9.42408 11.7359 9.55602Q11.4875 9.68796 11.2624 9.68796Q11.1926 9.68796 11.1538 9.64915Q11.115 9.61035 11.115 9.54826ZM11.8988 3.37041V3.30832Q11.8988 3.19967 11.9765 3.12982Q12.0541 3.05997 12.1782 3.05997Q12.2869 3.05997 12.3606 3.12982Q12.4344 3.19967 12.4344 3.30832V3.37041Q12.4344 3.47907 12.3606 3.54892Q12.2869 3.61877 12.1705 3.61877Q12.0463 3.61877 11.9726 3.54892Q11.8988 3.47907 11.8988 3.37041ZM14.1496 8.15126Q14.0797 8.15126 14.037 8.10469Q13.9943 8.05812 13.9943 7.99604V4.30951Q13.9943 4.24742 14.0409 4.20085Q14.0875 4.15429 14.1496 4.15429Q14.2194 4.15429 14.2621 4.20085Q14.3048 4.24742 14.3048 4.30951V7.99604Q14.3048 8.05812 14.2582 8.10469Q14.2117 8.15126 14.1496 8.15126ZM13.8779 3.37818V3.31609Q13.8779 3.20743 13.9555 3.13758Q14.0331 3.06773 14.1573 3.06773Q14.266 3.06773 14.3397 3.13758Q14.4134 3.20743 14.4134 3.31609V3.37818Q14.4134 3.48683 14.3397 3.55668Q14.266 3.62653 14.1496 3.62653Q14.0254 3.62653 13.9517 3.55668Q13.8779 3.48683 13.8779 3.37818ZM18.7441 5.62114V7.99604Q18.7441 8.05812 18.6976 8.10469Q18.651 8.15126 18.5889 8.15126Q18.5191 8.15126 18.4764 8.10469Q18.4337 8.05812 18.4337 7.99604V5.65218Q18.4337 5.12443 18.1582 4.78682Q17.8827 4.44921 17.3239 4.44921Q16.9824 4.44921 16.6525 4.61219Q16.3227 4.77517 16.1131 5.05457Q15.9036 5.33397 15.9036 5.65218V7.99604Q15.9036 8.05812 15.857 8.10469Q15.8104 8.15126 15.7484 8.15126Q15.6785 8.15126 15.6358 8.10469Q15.5931 8.05812 15.5931 7.99604V4.43369Q15.5931 4.3716 15.6397 4.32503Q15.6863 4.27846 15.7484 4.27846Q15.8182 4.27846 15.8609 4.32503Q15.9036 4.3716 15.9036 4.43369V4.95368Q16.1286 4.60443 16.5361 4.37936Q16.9436 4.15429 17.3549 4.15429Q18.0456 4.15429 18.3949 4.56174Q18.7441 4.9692 18.7441 5.62114ZM23.1835 5.62114V7.99604Q23.1835 8.05812 23.1369 8.10469Q23.0904 8.15126 23.0283 8.15126Q22.9584 8.15126 22.9157 8.10469Q22.8731 8.05812 22.8731 7.99604V5.65218Q22.8731 5.12443 22.5975 4.78682Q22.322 4.44921 21.7632 4.44921Q21.4217 4.44921 21.0919 4.61219Q20.762 4.77517 20.5525 5.05457Q20.3429 5.33397 20.3429 5.65218V7.99604Q20.3429 8.05812 20.2964 8.10469Q20.2498 8.15126 20.1877 8.15126Q20.1179 8.15126 20.0752 8.10469Q20.0325 8.05812 20.0325 7.99604V4.43369Q20.0325 4.3716 20.0791 4.32503Q20.1256 4.27846 20.1877 4.27846Q20.2576 4.27846 20.3002 4.32503Q20.3429 4.3716 20.3429 4.43369V4.95368Q20.568 4.60443 20.9755 4.37936Q21.3829 4.15429 21.7943 4.15429Q22.485 4.15429 22.8342 4.56174Q23.1835 4.9692 23.1835 5.62114Z" style="display:inline;stroke:#000000;stroke-width:0.35;stroke-linecap:round;stroke-linejoin:bevel" />
        <path id="sapphire_gemstone" d="m 17.955,122.900 q 0,0.34175 -0.242534,0.63114 -0.0441,0.0524 -0.20395,0.21497 -0.187413,0.19017 -0.785481,0.81304 l -1.444183,1.51309 q -0.01929,0.003 -0.0441,0.003 -0.02756,0 -0.04134,-0.003 -0.08268,-0.0827 -0.647678,-0.67524 -0.468532,-0.47404 -0.934309,-0.94809 -0.556727,-0.56775 -0.89848,-0.98116 -0.132292,-0.15985 -0.168121,-0.29766 -0.02756,-0.10197 -0.02756,-0.34175 0,-0.11024 0.07166,-0.28939 0.06614,-0.16536 0.140559,-0.26458 0.118512,-0.1571 0.42168,-0.42444 0.283875,-0.2508 0.474044,-0.37482 0.272852,-0.17915 0.818555,-0.36656 0.09646,-0.0331 0.110243,-0.0331 h 1.3615 q 0.01102,0 0.104731,0.0331 0.567751,0.20119 0.824066,0.36656 0.165365,0.10473 0.474045,0.37758 0.322461,0.28388 0.421679,0.42168 0.214974,0.2949 0.214974,0.62563 z m -0.16812,-0.27285 q -0.03307,-0.10749 -0.135048,-0.30868 -0.07166,-0.0937 -0.209462,-0.19844 -0.118511,-0.0854 -0.234266,-0.17088 0.245291,0.3638 0.578776,0.678 z m -0.573264,-0.52366 -0.358289,-0.44648 v 0.41065 z m 0.636653,0.75792 q 0,-0.0524 -0.341753,-0.39412 l 0.228754,0.7028 h 0.04961 q 0.06339,-0.21773 0.06339,-0.30868 z m -0.23151,0.27285 -0.316948,-0.90399 -0.410655,-0.0634 -0.159853,0.61461 z m 0.0028,0.15434 -0.771701,-0.3197 h -0.03032 l 0.344509,0.60634 q 0.07993,-0.003 0.234266,-0.0469 0.02481,-0.0138 0.223242,-0.23978 z m -0.857139,-1.05006 -0.719335,0.28388 0.60358,0.22599 z m 0,-0.16261 v -0.51538 l -0.917773,-0.38034 h -1.223697 l -0.917772,0.38034 v 0.51538 l 0.89848,0.4079 h 1.254014 z m 0.573264,1.53789 q -0.0689,0.011 -0.198438,0.0524 -0.08544,0.0551 -0.259071,0.16261 0.01929,0 0.06339,0.003 0.04134,0 0.06339,0 0.118511,0 0.190169,-0.0689 0.07166,-0.0717 0.14056,-0.14883 z m -0.289388,0.003 -0.347266,-0.63114 -0.363801,0.87918 q 0.0248,-0.0165 0.06615,-0.0165 0.03032,0 0.08544,0.011 0.05788,0.008 0.08819,0.008 0.04961,0 0.228754,-0.10749 0.228754,-0.1378 0.242535,-0.14331 z m -0.440972,-0.74139 -0.683507,-0.2756 -0.592556,0.54845 0.903993,0.65595 z m -0.854383,-0.28387 h -1.036284 l 0.523654,0.47404 z m 0.749652,1.36701 q -0.228754,-0.0303 -0.228754,-0.0303 -0.03583,0 -0.272851,0.0937 l 0.190169,0.0193 q 0.01102,0 0.311436,-0.0827 z m -0.388606,-0.0882 -0.843359,-0.61185 v 0.67524 l 0.471289,0.0827 z m 0.854383,0.0496 q -0.09922,0.006 -0.2949,0.0386 -0.01102,0.003 -0.377583,0.17639 -0.129535,0.34726 -0.380338,1.0418 z m -2.543857,-1.39733 -0.719335,-0.28388 0.124023,0.51814 z m -0.802018,-0.45476 v -0.41065 l -0.366557,0.44648 z m 1.515841,1.07212 -0.592556,-0.54019 -0.683506,0.2756 0.380338,0.9288 z m 0.369314,0.94257 q -0.03307,-0.003 -0.135047,-0.0248 -0.08544,-0.0165 -0.137804,-0.0165 -0.05237,0 -0.137804,0.0165 -0.101975,0.0221 -0.135047,0.0248 0.264583,0.0469 0.272851,0.0469 0.0083,0 0.272851,-0.0469 z m -0.30868,-0.1378 v -0.68626 l -0.843359,0.61185 0.37207,0.14607 z m 0.950846,0.20671 -0.396875,-0.0551 -0.479557,0.14056 v 1.27607 z m -2.888366,-2.20211 q -0.118512,0.0854 -0.234267,0.17364 -0.146072,0.10748 -0.209461,0.19568 -0.0441,0.10473 -0.135048,0.31419 0.369314,-0.3638 0.578776,-0.68351 z m 0.476801,0.83234 -0.159853,-0.61461 -0.410655,0.0634 -0.316948,0.90399 z m 0.394118,1.08313 -0.363802,-0.87918 -0.355533,0.63114 q 0.43546,0.2508 0.451996,0.2508 0.09095,0 0.267339,-0.003 z m 1.821765,0.82958 q -0.132291,0.21222 -0.405143,0.6339 -0.07717,0.10749 -0.220486,0.32797 -0.05788,0.10473 -0.05512,0.226 0.159852,-0.15158 0.432704,-0.49609 0.07717,-0.12954 0.140559,-0.339 0.05512,-0.17639 0.107486,-0.35278 z m -1.493792,-0.66146 -0.270095,-0.0882 -0.0083,-0.011 q -0.02481,0 -0.107487,0.011 -0.06615,0.006 -0.107487,0.006 0.272851,0.091 0.311436,0.091 0.02481,0 0.181901,-0.008 z m -0.810286,-1.06384 h -0.03032 l -0.7717,0.3197 q 0.06615,0.0965 0.223242,0.23978 0.07717,0.0138 0.234266,0.0469 z m -0.689018,-0.50161 q -0.341754,0.34727 -0.341754,0.39412 0,0.0799 0.06339,0.30868 h 0.04961 z m 2.235176,3.04547 v -1.27607 l -0.479557,-0.14056 -0.396875,0.0551 z m -1.606791,-1.6757 q -0.256315,-0.1819 -0.457509,-0.22324 0.06615,0.0772 0.20395,0.22324 z m 1.609547,2.04501 v -0.1378 l -0.683507,-1.05007 q 0.05237,0.17639 0.107487,0.35278 0.06339,0.20946 0.14056,0.339 0.0689,0.11851 0.20395,0.25907 0.115755,0.11851 0.23151,0.23702 z m -0.644921,-0.70555 q -0.115756,-0.32798 -0.380339,-1.0418 -0.135047,-0.0662 -0.272851,-0.12954 -0.159852,-0.0716 -0.289388,-0.0716 -0.05237,0 -0.110243,-0.0138 z" style="stroke-width:0;fill:#0000ff;stroke:#2e2114;stroke-linecap:square;stroke-opacity:1" />
        <path d="M9.60783 102.178Q9.60783 102.21 9.58667 102.229Q9.5655 102.249 9.53728 102.249H8.24258Q8.21083 102.249 8.19143 102.228Q8.17203 102.207 8.17203 102.178V99.8499Q8.17203 99.8217 8.19319 99.8006Q8.21436 99.7794 8.24611 99.7794Q8.27786 99.7794 8.29903 99.8006Q8.32019 99.8217 8.32019 99.8499V102.108H9.53728Q9.5655 102.108 9.58667 102.129Q9.60783 102.15 9.60783 102.178Z" style="stroke:#000000;stroke-width:0.25;stroke-linecap:round;stroke-linejoin:bevel" />
        <path d="M9.71719 112.175Q9.71719 112.207 9.69779 112.226Q9.67839 112.245 9.65017 112.245Q9.629 112.245 9.61842 112.238Q9.52317 112.185 9.46672 112.06Q9.41028 111.935 9.41028 111.649Q9.41028 111.36 9.25506 111.252Q9.09983 111.145 8.89522 111.145H8.06972V112.178Q8.06972 112.207 8.04856 112.228Q8.02739 112.249 7.99564 112.249Q7.96389 112.249 7.94272 112.228Q7.92156 112.207 7.92156 112.178V109.85Q7.92156 109.822 7.94272 109.801Q7.96389 109.779 7.99211 109.779H8.92344Q9.12806 109.779 9.28681 109.862Q9.44556 109.945 9.53375 110.09Q9.62194 110.234 9.62194 110.418Q9.62194 110.654 9.49671 110.824Q9.37147 110.993 9.17039 111.053Q9.33972 111.106 9.44908 111.263Q9.55844 111.42 9.55844 111.649Q9.55844 111.885 9.58843 111.979Q9.61842 112.072 9.67839 112.111Q9.71719 112.136 9.71719 112.175ZM8.94108 111.004Q9.16333 110.982 9.31856 110.827Q9.47378 110.672 9.47378 110.421Q9.47378 110.203 9.31856 110.062Q9.16333 109.921 8.90581 109.921H8.06972V111.004Z" style="stroke:#000000;stroke-width:0.25;stroke-linecap:round;stroke-linejoin:bevel" />
        <path d="M 15.24,101.00 L 15.24,111.00 " style="stroke:#000000;stroke-width:0.25;stroke-linecap:round;stroke-linejoin:bevel;stroke-dasharray:none" fill="none" />
        <path d="M13.9612 95.7488Q13.9259 95.7488 13.9065 95.7277Q13.8871 95.7065 13.8871 95.6748V93.3535Q13.8871 93.3217 13.9083 93.3006Q13.9294 93.2794 13.9612 93.2794Q13.9929 93.2794 14.0141 93.3006Q14.0353 93.3217 14.0353 93.3535V95.6748Q14.0317 95.7065 14.0106 95.7277Q13.9894 95.7488 13.9612 95.7488ZM16.5929 93.3464V95.6712Q16.5929 95.71 16.5717 95.7294Q16.5506 95.7488 16.5188 95.7488Q16.4835 95.7488 16.4624 95.7206L14.8749 93.551V95.6889Q14.8749 95.7136 14.8555 95.7312Q14.8361 95.7488 14.8078 95.7488Q14.7761 95.7488 14.7585 95.7312Q14.7408 95.7136 14.7408 95.6889V93.3499Q14.7408 93.3147 14.7602 93.297Q14.7796 93.2794 14.8043 93.2794Q14.8361 93.2794 14.8572 93.3041L16.4588 95.4878V93.3464Q16.4588 93.3182 16.4782 93.2988Q16.4977 93.2794 16.5259 93.2794Q16.5576 93.2794 16.5753 93.2988Q16.5929 93.3182 16.5929 93.3464Z" style="stroke:#000000;stroke-width:0.25;stroke-linecap:round;stroke-linejoin:bevel" />
        <path d="M 38.72,91.00 L 38.72,101.00 " style="stroke:#000000;stroke-width:0.25;stroke-linecap:round;stroke-linejoin:bevel;stroke-dasharray:none" fill="none" />
        <path d="M34.3456 85.4137Q34.3244 85.3925 34.3244 85.3608Q34.3244 85.3326 34.3491 85.3061Q34.3738 85.2796 34.402 85.2796Q34.4337 85.2796 34.462 85.3114Q34.5996 85.4737 34.7883 85.5583Q34.977 85.643 35.1852 85.643Q35.4568 85.643 35.6332 85.5125Q35.8096 85.3819 35.8096 85.1668Q35.8061 84.9974 35.7179 84.8881Q35.6297 84.7787 35.5009 84.7134Q35.3721 84.6482 35.1499 84.567Q34.9065 84.4753 34.7707 84.4048Q34.6348 84.3342 34.5378 84.2037Q34.4408 84.0731 34.4408 83.8615Q34.4408 83.6886 34.5361 83.5475Q34.6313 83.4064 34.8077 83.3253Q34.9841 83.2441 35.2169 83.2441Q35.4251 83.2441 35.612 83.32Q35.799 83.3958 35.9084 83.5334Q35.9436 83.5828 35.9436 83.6075Q35.9436 83.6357 35.9172 83.6586Q35.8907 83.6816 35.859 83.6816Q35.8307 83.6816 35.8131 83.6604Q35.7143 83.5334 35.5591 83.4593Q35.4039 83.3852 35.2169 83.3852Q34.9488 83.3852 34.7707 83.5122Q34.5925 83.6392 34.5925 83.8579Q34.5925 84.0096 34.6789 84.1155Q34.7654 84.2213 34.8959 84.2866Q35.0264 84.3518 35.2204 84.4224Q35.4674 84.5106 35.612 84.5847Q35.7567 84.6587 35.859 84.7999Q35.9613 84.941 35.9613 85.1738Q35.9613 85.3361 35.866 85.4772Q35.7708 85.6183 35.5926 85.7012Q35.4145 85.7841 35.1852 85.7841Q34.9241 85.7841 34.7301 85.6942Q34.5361 85.6042 34.3456 85.4137ZM37.9651 85.6783Q37.9651 85.71 37.9439 85.7294Q37.9227 85.7488 37.8945 85.7488H36.5645Q36.5363 85.7488 36.5151 85.7277Q36.494 85.7065 36.494 85.6783V83.3499Q36.494 83.3217 36.5151 83.3006Q36.5363 83.2794 36.5645 83.2794H37.8945Q37.9227 83.2794 37.9439 83.3006Q37.9651 83.3217 37.9651 83.3499Q37.9651 83.3817 37.9439 83.4011Q37.9227 83.4205 37.8945 83.4205H36.6421V84.4048H37.7358Q37.764 84.4048 37.7851 84.4259Q37.8063 84.4471 37.8063 84.4753Q37.8063 84.5071 37.7851 84.5265Q37.764 84.5459 37.7358 84.5459H36.6421V85.6077H37.8945Q37.9227 85.6077 37.9439 85.6289Q37.9651 85.6501 37.9651 85.6783ZM40.3463 83.3464V85.6712Q40.3463 85.71 40.3251 85.7294Q40.304 85.7488 40.2722 85.7488Q40.2369 85.7488 40.2158 85.7206L38.6283 83.551V85.6889Q38.6283 85.7136 38.6089 85.7312Q38.5895 85.7488 38.5613 85.7488Q38.5295 85.7488 38.5119 85.7312Q38.4942 85.7136 38.4942 85.6889V83.3499Q38.4942 83.3147 38.5136 83.297Q38.533 83.2794 38.5577 83.2794Q38.5895 83.2794 38.6106 83.3041L40.2122 85.4878V83.3464Q40.2122 83.3182 40.2317 83.2988Q40.2511 83.2794 40.2793 83.2794Q40.311 83.2794 40.3287 83.2988Q40.3463 83.3182 40.3463 83.3464ZM43.0627 84.5141Q43.0627 84.8634 42.9516 85.1421Q42.8404 85.4207 42.6111 85.5848Q42.3818 85.7488 42.0396 85.7488H41.1224Q41.0942 85.7488 41.073 85.7277Q41.0519 85.7065 41.0519 85.6783V83.3499Q41.0519 83.3217 41.073 83.3006Q41.0942 83.2794 41.1224 83.2794H42.0396Q42.3783 83.2794 42.6094 83.4487Q42.8404 83.6181 42.9516 83.8985Q43.0627 84.179 43.0627 84.5141ZM42.9145 84.5141Q42.9145 84.2143 42.8175 83.9655Q42.7205 83.7168 42.5177 83.5687Q42.3148 83.4205 42.0044 83.4205H41.2V85.6077H42.0044Q42.463 85.6077 42.6887 85.3061Q42.9145 85.0045 42.9145 84.5141Z" style="stroke:#000000;stroke-width:0.25;stroke-linecap:round;stroke-linejoin:bevel" />
        <path d="M 52.72,91.00 L 52.72,101.00 " style="stroke:#000000;stroke-width:0.25;stroke-linecap:round;stroke-linejoin:bevel;stroke-dasharray:none" fill="none" />
        <path d="M50.1959 85.6748Q50.1959 85.7065 50.1765 85.7259Q50.1571 85.7453 50.1288 85.7453Q50.1077 85.7453 50.0971 85.7383Q50.0018 85.6853 49.9454 85.5601Q49.889 85.4349 49.889 85.1491Q49.889 84.8598 49.7337 84.7522Q49.5785 84.6446 49.3739 84.6446H48.5484V85.6783Q48.5484 85.7065 48.5272 85.7277Q48.5061 85.7488 48.4743 85.7488Q48.4426 85.7488 48.4214 85.7277Q48.4002 85.7065 48.4002 85.6783V83.3499Q48.4002 83.3217 48.4214 83.3006Q48.4426 83.2794 48.4708 83.2794H49.4021Q49.6067 83.2794 49.7655 83.3623Q49.9242 83.4452 50.0124 83.5898Q50.1006 83.7345 50.1006 83.9179Q50.1006 84.1543 49.9754 84.3236Q49.8502 84.4929 49.6491 84.5529Q49.8184 84.6058 49.9278 84.7628Q50.0371 84.9198 50.0371 85.1491Q50.0371 85.3855 50.0671 85.479Q50.0971 85.5724 50.1571 85.6112Q50.1959 85.6359 50.1959 85.6748ZM49.4198 84.5035Q49.642 84.4824 49.7972 84.3271Q49.9525 84.1719 49.9525 83.9214Q49.9525 83.7027 49.7972 83.5616Q49.642 83.4205 49.3845 83.4205H48.5484V84.5035ZM52.369 83.3464Q52.369 83.3782 52.3496 83.3958Q52.3302 83.4134 52.2984 83.4134H51.5117V85.6783Q51.5117 85.7065 51.4906 85.7277Q51.4694 85.7488 51.4412 85.7488Q51.4094 85.7488 51.39 85.7277Q51.3706 85.7065 51.3706 85.6783V83.4134H50.5839Q50.5557 83.4134 50.5345 83.394Q50.5134 83.3746 50.5134 83.3464Q50.5134 83.3182 50.5345 83.2988Q50.5557 83.2794 50.5839 83.2794H52.2984Q52.3267 83.2794 52.3478 83.2988Q52.369 83.3182 52.369 83.3464ZM54.6409 85.6748Q54.6409 85.7065 54.6215 85.7259Q54.6021 85.7453 54.5738 85.7453Q54.5527 85.7453 54.5421 85.7383Q54.4468 85.6853 54.3904 85.5601Q54.334 85.4349 54.334 85.1491Q54.334 84.8598 54.1787 84.7522Q54.0235 84.6446 53.8189 84.6446H52.9934V85.6783Q52.9934 85.7065 52.9722 85.7277Q52.9511 85.7488 52.9193 85.7488Q52.8876 85.7488 52.8664 85.7277Q52.8452 85.7065 52.8452 85.6783V83.3499Q52.8452 83.3217 52.8664 83.3006Q52.8876 83.2794 52.9158 83.2794H53.8471Q54.0517 83.2794 54.2105 83.3623Q54.3692 83.4452 54.4574 83.5898Q54.5456 83.7345 54.5456 83.9179Q54.5456 84.1543 54.4204 84.3236Q54.2952 84.4929 54.0941 84.5529Q54.2634 84.6058 54.3728 84.7628Q54.4821 84.9198 54.4821 85.1491Q54.4821 85.3855 54.5121 85.479Q54.5421 85.5724 54.6021 85.6112Q54.6409 85.6359 54.6409 85.6748ZM53.8648 84.5035Q54.087 84.4824 54.2422 84.3271Q54.3975 84.1719 54.3975 83.9214Q54.3975 83.7027 54.2422 83.5616Q54.087 83.4205 53.8295 83.4205H52.9934V84.5035ZM57.0398 83.3464V85.6712Q57.0398 85.71 57.0186 85.7294Q56.9974 85.7488 56.9657 85.7488Q56.9304 85.7488 56.9092 85.7206L55.3217 83.551V85.6889Q55.3217 85.7136 55.3023 85.7312Q55.2829 85.7488 55.2547 85.7488Q55.223 85.7488 55.2053 85.7312Q55.1877 85.7136 55.1877 85.6889V83.3499Q55.1877 83.3147 55.2071 83.297Q55.2265 83.2794 55.2512 83.2794Q55.2829 83.2794 55.3041 83.3041L56.9057 85.4878V83.3464Q56.9057 83.3182 56.9251 83.2988Q56.9445 83.2794 56.9727 83.2794Q57.0045 83.2794 57.0221 83.2988Q57.0398 83.3182 57.0398 83.3464Z" style="stroke:#000000;stroke-width:0.25;stroke-linecap:round;stroke-linejoin:bevel" />
        <path d="M46.5878 92.1783Q46.5878 92.21 46.5667 92.2294Q46.5455 92.2488 46.5173 92.2488H45.2226Q45.1908 92.2488 45.1714 92.2277Q45.152 92.2065 45.152 92.1783V89.8499Q45.152 89.8217 45.1732 89.8006Q45.1944 89.7794 45.2261 89.7794Q45.2579 89.7794 45.279 89.8006Q45.3002 89.8217 45.3002 89.8499V92.1077H46.5173Q46.5455 92.1077 46.5667 92.1289Q46.5878 92.1501 46.5878 92.1783Z" style="stroke:#000000;stroke-width:0.25;stroke-linecap:round;stroke-linejoin:bevel" />
        <path d="M46.6972 102.175Q46.6972 102.207 46.6778 102.226Q46.6584 102.245 46.6302 102.245Q46.609 102.245 46.5984 102.238Q46.5032 102.185 46.4467 102.06Q46.3903 101.935 46.3903 101.649Q46.3903 101.36 46.2351 101.252Q46.0798 101.145 45.8752 101.145H45.0497V102.178Q45.0497 102.207 45.0286 102.228Q45.0074 102.249 44.9756 102.249Q44.9439 102.249 44.9227 102.228Q44.9016 102.207 44.9016 102.178V99.8499Q44.9016 99.8217 44.9227 99.8006Q44.9439 99.7794 44.9721 99.7794H45.9034Q46.1081 99.7794 46.2668 99.8623Q46.4256 99.9452 46.5138 100.09Q46.6019 100.234 46.6019 100.418Q46.6019 100.654 46.4767 100.824Q46.3515 100.993 46.1504 101.053Q46.3197 101.106 46.4291 101.263Q46.5384 101.42 46.5384 101.649Q46.5384 101.885 46.5684 101.979Q46.5984 102.072 46.6584 102.111Q46.6972 102.136 46.6972 102.175ZM45.9211 101.004Q46.1433 100.982 46.2986 100.827Q46.4538 100.672 46.4538 100.421Q46.4538 100.203 46.2986 100.062Q46.1433 99.9205 45.8858 99.9205H45.0497V101.004Z" style="stroke:#000000;stroke-width:0.25;stroke-linecap:round;stroke-linejoin:bevel" />
        <path id="env_label" d="M44.1008 118.178Q44.1008 118.21 44.0796 118.229Q44.0584 118.249 44.0302 118.249H42.7002Q42.672 118.249 42.6508 118.228Q42.6297 118.207 42.6297 118.178V115.85Q42.6297 115.822 42.6508 115.801Q42.672 115.779 42.7002 115.779H44.0302Q44.0584 115.779 44.0796 115.801Q44.1008 115.822 44.1008 115.85Q44.1008 115.882 44.0796 115.901Q44.0584 115.921 44.0302 115.921H42.7778V116.905H43.8714Q43.8997 116.905 43.9208 116.926Q43.942 116.947 43.942 116.975Q43.942 117.007 43.9208 117.026Q43.8997 117.046 43.8714 117.046H42.7778V118.108H44.0302Q44.0584 118.108 44.0796 118.129Q44.1008 118.15 44.1008 118.178ZM46.482 115.846V118.171Q46.482 118.21 46.4608 118.229Q46.4397 118.249 46.4079 118.249Q46.3726 118.249 46.3515 118.221L44.764 116.051V118.189Q44.764 118.214 44.7446 118.231Q44.7252 118.249 44.6969 118.249Q44.6652 118.249 44.6476 118.231Q44.6299 118.214 44.6299 118.189V115.85Q44.6299 115.815 44.6493 115.797Q44.6687 115.779 44.6934 115.779Q44.7252 115.779 44.7463 115.804L46.3479 117.988V115.846Q46.3479 115.818 46.3673 115.799Q46.3868 115.779 46.415 115.779Q46.4467 115.779 46.4644 115.799Q46.482 115.818 46.482 115.846ZM49.0396 115.843Q49.0396 115.857 49.0326 115.878L48.066 118.203Q48.0448 118.249 47.9989 118.249Q47.9778 118.249 47.9584 118.236Q47.939 118.224 47.9319 118.203L46.9724 115.889Q46.9618 115.868 46.9618 115.846Q46.9618 115.818 46.9812 115.799Q47.0006 115.779 47.0288 115.779Q47.0817 115.779 47.1064 115.836L48.0025 117.991L48.9021 115.825Q48.9268 115.779 48.9691 115.779Q49.0008 115.779 49.0202 115.797Q49.0396 115.815 49.0396 115.843Z" style="stroke:#000000;stroke-width:0.25;stroke-linecap:round;stroke-linejoin:bevel" />
        <path d="M 52.72,112.00 L 52.72,122.00 " style="stroke:#000000;stroke-width:0.25;stroke-linecap:round;stroke-linejoin:bevel;stroke-dasharray:none" fill="none" />
        <path d="M59.2878 113.178Q59.2878 113.21 59.2667 113.229Q59.2455 113.249 59.2173 113.249H57.9226Q57.8908 113.249 57.8714 113.228Q57.852 113.207 57.852 113.178V110.85Q57.852 110.822 57.8732 110.801Q57.8944 110.779 57.9261 110.779Q57.9579 110.779 57.979 110.801Q58.0002 110.822 58.0002 110.85V113.108H59.2173Q59.2455 113.108 59.2667 113.129Q59.2878 113.15 59.2878 113.178Z" style="stroke:#000000;stroke-width:0.25;stroke-linecap:round;stroke-linejoin:bevel" />
        <path d="M59.3972 123.175Q59.3972 123.207 59.3778 123.226Q59.3584 123.245 59.3302 123.245Q59.309 123.245 59.2984 123.238Q59.2032 123.185 59.1467 123.06Q59.0903 122.935 59.0903 122.649Q59.0903 122.36 58.9351 122.252Q58.7798 122.145 58.5752 122.145H57.7497V123.178Q57.7497 123.207 57.7286 123.228Q57.7074 123.249 57.6756 123.249Q57.6439 123.249 57.6227 123.228Q57.6016 123.207 57.6016 123.178V120.85Q57.6016 120.822 57.6227 120.801Q57.6439 120.779 57.6721 120.779H58.6034Q58.8081 120.779 58.9668 120.862Q59.1256 120.945 59.2138 121.09Q59.3019 121.234 59.3019 121.418Q59.3019 121.654 59.1767 121.824Q59.0515 121.993 58.8504 122.053Q59.0197 122.106 59.1291 122.263Q59.2384 122.42 59.2384 122.649Q59.2384 122.885 59.2684 122.979Q59.2984 123.072 59.3584 123.111Q59.3972 123.136 59.3972 123.175ZM58.6211 122.004Q58.8433 121.982 58.9986 121.827Q59.1538 121.672 59.1538 121.421Q59.1538 121.203 58.9986 121.062Q58.8433 120.921 58.5858 120.921H57.7497V122.004Z" style="stroke:#000000;stroke-width:0.25;stroke-linecap:round;stroke-linejoin:bevel" />
        <path d="M11.6381 74.5404Q11.6381 74.5687 11.624 74.5863Q11.6029 74.6145 11.5711 74.6145Q11.557 74.6145 11.5288 74.6004Q11.2007 74.3782 10.8338 74.3782Q10.5375 74.3782 10.2888 74.5246Q10.0401 74.671 9.89542 74.9303Q9.75078 75.1896 9.75078 75.5141Q9.75078 75.8387 9.89542 76.098Q10.0401 76.3573 10.2888 76.5037Q10.5375 76.6501 10.8338 76.6501Q11.2042 76.6501 11.5252 76.4313Q11.5429 76.4172 11.5676 76.4172Q11.6029 76.4172 11.624 76.4454Q11.6381 76.4631 11.6381 76.4878Q11.6381 76.5231 11.6099 76.5442Q11.4723 76.643 11.2554 76.7136Q11.0384 76.7841 10.8338 76.7841Q10.4987 76.7841 10.2164 76.6183Q9.93422 76.4525 9.76842 76.1615Q9.60261 75.8704 9.60261 75.5141Q9.60261 75.1578 9.76842 74.8668Q9.93422 74.5757 10.2164 74.4099Q10.4987 74.2441 10.8338 74.2441Q11.0455 74.2441 11.2448 74.3076Q11.4441 74.3711 11.6064 74.484Q11.6381 74.5087 11.6381 74.5404ZM13.5502 76.6783Q13.5502 76.71 13.529 76.7294Q13.5079 76.7488 13.4796 76.7488H12.1849Q12.1532 76.7488 12.1338 76.7277Q12.1144 76.7065 12.1144 76.6783V74.3499Q12.1144 74.3217 12.1356 74.3006Q12.1567 74.2794 12.1885 74.2794Q12.2202 74.2794 12.2414 74.3006Q12.2626 74.3217 12.2626 74.3499V76.6077H13.4796Q13.5079 76.6077 13.529 76.6289Q13.5502 76.6501 13.5502 76.6783ZM14.9578 76.7841Q14.6156 76.7841 14.3475 76.6236Q14.0794 76.4631 13.9294 76.1738Q13.7795 75.8845 13.7795 75.5141Q13.7795 75.1437 13.9294 74.8544Q14.0794 74.5651 14.3475 74.4046Q14.6156 74.2441 14.9578 74.2441Q15.3 74.2441 15.5681 74.4046Q15.8362 74.5651 15.9861 74.8544Q16.1361 75.1437 16.1361 75.5141Q16.1361 75.8845 15.9861 76.1738Q15.8362 76.4631 15.5681 76.6236Q15.3 76.7841 14.9578 76.7841ZM14.9578 74.3852Q14.6579 74.3852 14.4233 74.5263Q14.1887 74.6674 14.0582 74.925Q13.9277 75.1825 13.9277 75.5141Q13.9277 75.8457 14.0582 76.1033Q14.1887 76.3608 14.4233 76.5019Q14.6579 76.643 14.9578 76.643Q15.2576 76.643 15.4922 76.5019Q15.7268 76.3608 15.8574 76.1033Q15.9879 75.8457 15.9879 75.5141Q15.9879 75.1825 15.8574 74.925Q15.7268 74.6674 15.4922 74.5263Q15.2576 74.3852 14.9578 74.3852ZM18.5244 74.5404Q18.5244 74.5687 18.5102 74.5863Q18.4891 74.6145 18.4573 74.6145Q18.4432 74.6145 18.415 74.6004Q18.0869 74.3782 17.72 74.3782Q17.4237 74.3782 17.175 74.5246Q16.9263 74.671 16.7816 74.9303Q16.637 75.1896 16.637 75.5141Q16.637 75.8387 16.7816 76.098Q16.9263 76.3573 17.175 76.5037Q17.4237 76.6501 17.72 76.6501Q18.0904 76.6501 18.4115 76.4313Q18.4291 76.4172 18.4538 76.4172Q18.4891 76.4172 18.5102 76.4454Q18.5244 76.4631 18.5244 76.4878Q18.5244 76.5231 18.4961 76.5442Q18.3586 76.643 18.1416 76.7136Q17.9246 76.7841 17.72 76.7841Q17.3849 76.7841 17.1027 76.6183Q16.8204 76.4525 16.6546 76.1615Q16.4888 75.8704 16.4888 75.5141Q16.4888 75.1578 16.6546 74.8668Q16.8204 74.5757 17.1027 74.4099Q17.3849 74.2441 17.72 74.2441Q17.9317 74.2441 18.131 74.3076Q18.3303 74.3711 18.4926 74.484Q18.5244 74.5087 18.5244 74.5404ZM20.8668 76.6924Q20.8668 76.7312 20.8403 76.7488Q20.8139 76.7665 20.7857 76.7665Q20.7574 76.7665 20.7363 76.7418L19.6779 75.433L19.1488 75.9233V76.6748Q19.1453 76.7065 19.1241 76.7277Q19.1029 76.7488 19.0747 76.7488Q19.0394 76.7488 19.02 76.7277Q19.0006 76.7065 19.0006 76.6748V74.3535Q19.0006 74.3217 19.0218 74.3006Q19.0429 74.2794 19.0747 74.2794Q19.1064 74.2794 19.1276 74.3006Q19.1488 74.3217 19.1488 74.3535V75.7434L20.6728 74.3147Q20.6939 74.2935 20.7222 74.2935Q20.7504 74.2935 20.7716 74.3147Q20.7927 74.3358 20.7927 74.3641Q20.7927 74.3923 20.7716 74.4134L19.7944 75.3236L20.8492 76.643Q20.8668 76.6677 20.8668 76.6924Z" style="stroke:#000000;stroke-width:0.25;stroke-linecap:round;stroke-linejoin:bevel" />
        <rect x="9.24" y="78" width="12" height="9" stroke="black" stroke-width="0.2" fill="none" />
        <path d="M 36.72,30.00 L 54.72,30.00 z " style="stroke:#000000;stroke-width:0.25;stroke-linecap:round;stroke-linejoin:bevel;stroke-dasharray:none" />
        <path d="M43.7586 22.8464Q43.7586 22.8782 43.7392 22.8958Q43.7198 22.9134 43.688 22.9134H42.9013V25.1783Q42.9013 25.2065 42.8801 25.2277Q42.859 25.2488 42.8308 25.2488Q42.799 25.2488 42.7796 25.2277Q42.7602 25.2065 42.7602 25.1783V22.9134H41.9735Q41.9453 22.9134 41.9241 22.894Q41.9029 22.8746 41.9029 22.8464Q41.9029 22.8182 41.9241 22.7988Q41.9453 22.7794 41.9735 22.7794H43.688Q43.7162 22.7794 43.7374 22.7988Q43.7586 22.8182 43.7586 22.8464ZM44.3089 25.2488Q44.2736 25.2488 44.2542 25.2277Q44.2348 25.2065 44.2348 25.1747V22.8535Q44.2348 22.8217 44.256 22.8006Q44.2771 22.7794 44.3089 22.7794Q44.3406 22.7794 44.3618 22.8006Q44.383 22.8217 44.383 22.8535V25.1747Q44.3794 25.2065 44.3583 25.2277Q44.3371 25.2488 44.3089 25.2488ZM47.3075 22.8499V25.1783Q47.3075 25.2065 47.2846 25.2277Q47.2616 25.2488 47.2334 25.2488Q47.2017 25.2488 47.1805 25.2277Q47.1593 25.2065 47.1593 25.1783V23.0687L46.2492 24.4445Q46.2315 24.4727 46.1998 24.4727Q46.161 24.4727 46.1433 24.4445L45.2296 23.0651V25.1783Q45.2296 25.2065 45.2085 25.2277Q45.1873 25.2488 45.1591 25.2488Q45.1273 25.2488 45.1079 25.2277Q45.0885 25.2065 45.0885 25.1783V22.8499Q45.0885 22.8253 45.1079 22.8023Q45.1273 22.7794 45.1556 22.7794Q45.2014 22.7794 45.2226 22.8111L46.1998 24.2646L47.177 22.8111Q47.2052 22.7723 47.244 22.7794Q47.2722 22.7829 47.2899 22.8023Q47.3075 22.8217 47.3075 22.8499ZM49.4841 25.1783Q49.4841 25.21 49.463 25.2294Q49.4418 25.2488 49.4136 25.2488H48.0836Q48.0554 25.2488 48.0342 25.2277Q48.0131 25.2065 48.0131 25.1783V22.8499Q48.0131 22.8217 48.0342 22.8006Q48.0554 22.7794 48.0836 22.7794H49.4136Q49.4418 22.7794 49.463 22.8006Q49.4841 22.8217 49.4841 22.8499Q49.4841 22.8817 49.463 22.9011Q49.4418 22.9205 49.4136 22.9205H48.1612V23.9047H49.2548Q49.2831 23.9047 49.3042 23.9259Q49.3254 23.9471 49.3254 23.9753Q49.3254 24.0071 49.3042 24.0265Q49.2831 24.0459 49.2548 24.0459H48.1612V25.1077H49.4136Q49.4418 25.1077 49.463 25.1289Q49.4841 25.1501 49.4841 25.1783Z" style="stroke:#000000;stroke-width:0.25;stroke-linecap:round;stroke-linejoin:bevel" />
        <path d="M44.5329 17.1747Q44.5329 17.2065 44.5135 17.2259Q44.4941 17.2453 44.4659 17.2453Q44.4447 17.2453 44.4341 17.2383Q44.3389 17.1853 44.2824 17.0601Q44.226 16.9349 44.226 16.6491Q44.226 16.3598 44.0708 16.2522Q43.9155 16.1446 43.7109 16.1446H42.8854V17.1783Q42.8854 17.2065 42.8643 17.2277Q42.8431 17.2488 42.8113 17.2488Q42.7796 17.2488 42.7584 17.2277Q42.7373 17.2065 42.7373 17.1783V14.8499Q42.7373 14.8217 42.7584 14.8006Q42.7796 14.7794 42.8078 14.7794H43.7392Q43.9438 14.7794 44.1025 14.8623Q44.2613 14.9452 44.3495 15.0898Q44.4377 15.2345 44.4377 15.4179Q44.4377 15.6543 44.3124 15.8236Q44.1872 15.9929 43.9861 16.0529Q44.1554 16.1058 44.2648 16.2628Q44.3742 16.4198 44.3742 16.6491Q44.3742 16.8855 44.4041 16.979Q44.4341 17.0724 44.4941 17.1113Q44.5329 17.1359 44.5329 17.1747ZM43.7568 16.0035Q43.979 15.9824 44.1343 15.8271Q44.2895 15.6719 44.2895 15.4214Q44.2895 15.2027 44.1343 15.0616Q43.979 14.9205 43.7215 14.9205H42.8854V16.0035ZM46.5508 17.1783Q46.5508 17.21 46.5296 17.2294Q46.5085 17.2488 46.4802 17.2488H45.1503Q45.122 17.2488 45.1009 17.2277Q45.0797 17.2065 45.0797 17.1783V14.8499Q45.0797 14.8217 45.1009 14.8006Q45.122 14.7794 45.1503 14.7794H46.4802Q46.5085 14.7794 46.5296 14.8006Q46.5508 14.8217 46.5508 14.8499Q46.5508 14.8817 46.5296 14.9011Q46.5085 14.9205 46.4802 14.9205H45.2279V15.9047H46.3215Q46.3497 15.9047 46.3709 15.9259Q46.392 15.9471 46.392 15.9753Q46.392 16.0071 46.3709 16.0265Q46.3497 16.0459 46.3215 16.0459H45.2279V17.1077H46.4802Q46.5085 17.1077 46.5296 17.1289Q46.5508 17.1501 46.5508 17.1783ZM48.932 14.8429Q48.932 14.857 48.925 14.8782L47.9584 17.203Q47.9372 17.2488 47.8913 17.2488Q47.8702 17.2488 47.8508 17.2365Q47.8314 17.2241 47.8243 17.203L46.8648 14.8887Q46.8542 14.8676 46.8542 14.8464Q46.8542 14.8182 46.8736 14.7988Q46.893 14.7794 46.9212 14.7794Q46.9741 14.7794 46.9988 14.8358L47.8949 16.9913L48.7945 14.8253Q48.8192 14.7794 48.8615 14.7794Q48.8932 14.7794 48.9126 14.797Q48.932 14.8147 48.932 14.8429Z" style="stroke:#000000;stroke-width:0.25;stroke-linecap:round;stroke-linejoin:bevel" />
        <path d="M 40.92,16.00 L 42.92,13.00 L 48.72,13.00 L 50.72,16.00 L 48.72,19.00 L 42.92,19.00 z " style="stroke:#000000;stroke-width:0.25;stroke-linecap:round;stroke-linejoin:bevel;stroke-dasharray:none" fill="none" />
        <path d="M 6.24,23.00 L 24.24,23.00 z " style="stroke:#000000;stroke-width:0.25;stroke-linecap:round;stroke-linejoin:bevel;stroke-dasharray:none" />
        <path d="M12.4442 15.8499Q12.4442 15.8817 12.4231 15.9011Q12.4019 15.9205 12.3737 15.9205H11.1143V16.8942H12.2149Q12.2432 16.8942 12.2643 16.9153Q12.2855 16.9365 12.2855 16.9647Q12.2855 16.9965 12.2643 17.0159Q12.2432 17.0353 12.2149 17.0353H11.1143V18.1783Q11.1143 18.2065 11.0949 18.2277Q11.0755 18.2488 11.0437 18.2488Q11.012 18.2488 10.9926 18.2277Q10.9732 18.2065 10.9732 18.1783V15.8499Q10.9732 15.8217 10.9943 15.8006Q11.0155 15.7794 11.0437 15.7794H12.3737Q12.4019 15.7794 12.4231 15.8006Q12.4442 15.8217 12.4442 15.8499ZM14.9842 17.0141Q14.9842 17.3634 14.8731 17.6421Q14.762 17.9208 14.5327 18.0848Q14.3034 18.2488 13.9612 18.2488H13.044Q13.0157 18.2488 12.9946 18.2277Q12.9734 18.2065 12.9734 18.1783V15.8499Q12.9734 15.8217 12.9946 15.8006Q13.0157 15.7794 13.044 15.7794H13.9612Q14.2998 15.7794 14.5309 15.9487Q14.762 16.1181 14.8731 16.3985Q14.9842 16.679 14.9842 17.0141ZM14.8361 17.0141Q14.8361 16.7142 14.7391 16.4655Q14.642 16.2168 14.4392 16.0687Q14.2363 15.9205 13.9259 15.9205H13.1216V18.1077H13.9259Q14.3845 18.1077 14.6103 17.8061Q14.8361 17.5045 14.8361 17.0141ZM17.2773 17.5821Q17.2773 17.9031 17.0744 18.076Q16.8716 18.2488 16.5576 18.2488H15.584Q15.5557 18.2488 15.5346 18.2277Q15.5134 18.2065 15.5134 18.1783V15.8499Q15.5134 15.8217 15.5346 15.8006Q15.5557 15.7794 15.584 15.7794H16.5329Q16.8152 15.7794 16.9845 15.9417Q17.1538 16.1039 17.1538 16.3791Q17.1538 16.5767 17.055 16.7372Q16.9563 16.8977 16.7799 16.9577Q17.0057 17 17.1415 17.1623Q17.2773 17.3246 17.2773 17.5821ZM16.5153 15.9205H15.6616V16.9118H16.5153Q16.734 16.9083 16.8698 16.7689Q17.0057 16.6296 17.0057 16.3756Q17.0057 16.1674 16.8769 16.044Q16.7481 15.9205 16.5153 15.9205ZM17.1291 17.5821Q17.1291 17.321 16.9668 17.1887Q16.8046 17.0564 16.54 17.0564H15.6616V18.1077H16.54Q16.8046 18.1077 16.9668 17.9754Q17.1291 17.8431 17.1291 17.5821ZM19.6727 18.1924Q19.6727 18.2312 19.6462 18.2488Q19.6197 18.2665 19.5915 18.2665Q19.5633 18.2665 19.5421 18.2418L18.4838 16.933L17.9546 17.4233V18.1747Q17.9511 18.2065 17.9299 18.2277Q17.9088 18.2488 17.8805 18.2488Q17.8453 18.2488 17.8259 18.2277Q17.8065 18.2065 17.8065 18.1747V15.8535Q17.8065 15.8217 17.8276 15.8006Q17.8488 15.7794 17.8805 15.7794Q17.9123 15.7794 17.9335 15.8006Q17.9546 15.8217 17.9546 15.8535V17.2434L19.4786 15.8147Q19.4998 15.7935 19.528 15.7935Q19.5562 15.7935 19.5774 15.8147Q19.5986 15.8358 19.5986 15.8641Q19.5986 15.8923 19.5774 15.9134L18.6002 16.8236L19.655 18.143Q19.6727 18.1677 19.6727 18.1924Z" style="stroke:#000000;stroke-width:0.25;stroke-linecap:round;stroke-linejoin:bevel" />
        <path d="M 36.72,44.00 L 54.72,44.00 z " style="stroke:#000000;stroke-width:0.25;stroke-linecap:round;stroke-linejoin:bevel;stroke-dasharray:none" />
        <path d="M44.1854 37.4532Q44.1854 37.6507 44.1025 37.8113Q44.0196 37.9718 43.8679 38.0617Q43.7162 38.1517 43.5187 38.1517H42.7496V39.1783Q42.7496 39.2065 42.7267 39.2277Q42.7037 39.2488 42.6755 39.2488Q42.6438 39.2488 42.6226 39.2277Q42.6014 39.2065 42.6014 39.1783V36.8499Q42.6014 36.8217 42.6226 36.8006Q42.6438 36.7794 42.672 36.7794H43.5187Q43.8185 36.7794 44.002 36.9664Q44.1854 37.1533 44.1854 37.4532ZM44.0373 37.4532Q44.0373 37.2098 43.8979 37.0651Q43.7586 36.9205 43.5187 36.9205H42.7496V38.0106H43.5187Q43.755 38.0106 43.8961 37.8536Q44.0373 37.6966 44.0373 37.4532ZM46.5102 39.1818Q46.5102 39.2136 46.4891 39.2312Q46.4679 39.2488 46.4361 39.2488Q46.4114 39.2488 46.392 39.2365Q46.3726 39.2241 46.3656 39.203L46.0692 38.4763L46.0728 38.4833H44.891L44.6052 39.203Q44.5876 39.2488 44.5417 39.2488Q44.51 39.2488 44.4906 39.2312Q44.4712 39.2136 44.4676 39.1889Q44.4641 39.1747 44.4712 39.1536L45.4201 36.8182Q45.4307 36.79 45.4466 36.7812Q45.4625 36.7723 45.4872 36.7723Q45.5401 36.7723 45.5577 36.8182L46.5067 39.1536Q46.5102 39.1642 46.5102 39.1818ZM44.9474 38.3422H46.0163L45.4766 37.0122ZM48.8386 36.8464V39.1712Q48.8386 39.21 48.8174 39.2294Q48.7962 39.2488 48.7645 39.2488Q48.7292 39.2488 48.708 39.2206L47.1205 37.051V39.1889Q47.1205 39.2136 47.1011 39.2312Q47.0817 39.2488 47.0535 39.2488Q47.0217 39.2488 47.0041 39.2312Q46.9865 39.2136 46.9865 39.1889V36.8499Q46.9865 36.8147 47.0059 36.797Q47.0253 36.7794 47.05 36.7794Q47.0817 36.7794 47.1029 36.8041L48.7045 38.9878V36.8464Q48.7045 36.8182 48.7239 36.7988Q48.7433 36.7794 48.7715 36.7794Q48.8033 36.7794 48.8209 36.7988Q48.8386 36.8182 48.8386 36.8464Z" style="stroke:#000000;stroke-width:0.25;stroke-linecap:round;stroke-linejoin:bevel" />
        <path d="M 36.72,58.00 L 54.72,58.00 z " style="stroke:#000000;stroke-width:0.25;stroke-linecap:round;stroke-linejoin:bevel;stroke-dasharray:none" />
        <path d="M45.3637 50.8499V53.1783Q45.3637 53.2065 45.3408 53.2277Q45.3178 53.2488 45.2896 53.2488Q45.2579 53.2488 45.2367 53.2277Q45.2155 53.2065 45.2155 53.1783V51.0687L44.3054 52.4445Q44.2877 52.4727 44.256 52.4727Q44.2172 52.4727 44.1995 52.4445L43.2858 51.0651V53.1783Q43.2858 53.2065 43.2647 53.2277Q43.2435 53.2488 43.2153 53.2488Q43.1835 53.2488 43.1641 53.2277Q43.1447 53.2065 43.1447 53.1783V50.8499Q43.1447 50.8252 43.1641 50.8023Q43.1835 50.7794 43.2118 50.7794Q43.2576 50.7794 43.2788 50.8111L44.256 52.2646L45.2332 50.8111Q45.2614 50.7723 45.3002 50.7794Q45.3284 50.7829 45.3461 50.8023Q45.3637 50.8217 45.3637 50.8499ZM46.1433 53.2488Q46.1081 53.2488 46.0887 53.2277Q46.0692 53.2065 46.0692 53.1747V50.8535Q46.0692 50.8217 46.0904 50.8006Q46.1116 50.7794 46.1433 50.7794Q46.1751 50.7794 46.1962 50.8006Q46.2174 50.8217 46.2174 50.8535V53.1747Q46.2139 53.2065 46.1927 53.2277Q46.1716 53.2488 46.1433 53.2488ZM48.5246 53.1465Q48.5422 53.1712 48.5422 53.1889Q48.5422 53.2206 48.5211 53.24Q48.4999 53.2594 48.4681 53.2594Q48.4293 53.2594 48.4117 53.2312L47.6038 52.1305L46.7995 53.2312Q46.7819 53.2594 46.7466 53.2594Q46.7148 53.2594 46.6972 53.24Q46.6796 53.2206 46.6796 53.1994Q46.6796 53.1818 46.6972 53.1536L47.5262 52.0212L46.6901 50.8817Q46.676 50.8641 46.676 50.8394Q46.676 50.8076 46.6972 50.7882Q46.7184 50.7688 46.7466 50.7688Q46.7889 50.7688 46.8066 50.797L47.6144 51.9012L48.4188 50.7935Q48.4399 50.7653 48.4717 50.7653Q48.5034 50.7653 48.5228 50.7812Q48.5422 50.797 48.5422 50.8217Q48.5422 50.8464 48.5246 50.8711L47.6956 52.0141Z" style="stroke:#000000;stroke-width:0.25;stroke-linecap:round;stroke-linejoin:bevel" />
        <path d="M 36.72,72.00 L 54.72,72.00 z " style="stroke:#000000;stroke-width:0.25;stroke-linecap:round;stroke-linejoin:bevel;stroke-dasharray:none" />
        <path d="M42.5027 67.1783Q42.5027 67.21 42.4815 67.2294Q42.4603 67.2488 42.4321 67.2488H41.1374Q41.1057 67.2488 41.0863 67.2277Q41.0669 67.2065 41.0669 67.1783V64.8499Q41.0669 64.8217 41.088 64.8006Q41.1092 64.7794 41.1409 64.7794Q41.1727 64.7794 41.1939 64.8006Q41.215 64.8217 41.215 64.8499V67.1077H42.4321Q42.4603 67.1077 42.4815 67.1289Q42.5027 67.1501 42.5027 67.1783ZM44.3794 67.1783Q44.3794 67.21 44.3583 67.2294Q44.3371 67.2488 44.3089 67.2488H42.9789Q42.9507 67.2488 42.9295 67.2277Q42.9084 67.2065 42.9084 67.1783V64.8499Q42.9084 64.8217 42.9295 64.8006Q42.9507 64.7794 42.9789 64.7794H44.3089Q44.3371 64.7794 44.3583 64.8006Q44.3794 64.8217 44.3794 64.8499Q44.3794 64.8817 44.3583 64.9011Q44.3371 64.9205 44.3089 64.9205H43.0565V65.9048H44.1501Q44.1784 65.9048 44.1995 65.9259Q44.2207 65.9471 44.2207 65.9753Q44.2207 66.0071 44.1995 66.0265Q44.1784 66.0459 44.1501 66.0459H43.0565V67.1077H44.3089Q44.3371 67.1077 44.3583 67.1289Q44.3794 67.1501 44.3794 67.1783ZM46.7607 64.8429Q46.7607 64.857 46.7536 64.8782L45.787 67.203Q45.7659 67.2488 45.72 67.2488Q45.6988 67.2488 45.6794 67.2365Q45.66 67.2241 45.653 67.203L44.6934 64.8888Q44.6828 64.8676 44.6828 64.8464Q44.6828 64.8182 44.7022 64.7988Q44.7216 64.7794 44.7499 64.7794Q44.8028 64.7794 44.8275 64.8358L45.7235 66.9913L46.6231 64.8253Q46.6478 64.7794 46.6901 64.7794Q46.7219 64.7794 46.7413 64.797Q46.7607 64.8147 46.7607 64.8429ZM48.708 67.1783Q48.708 67.21 48.6869 67.2294Q48.6657 67.2488 48.6375 67.2488H47.3075Q47.2793 67.2488 47.2581 67.2277Q47.2369 67.2065 47.2369 67.1783V64.8499Q47.2369 64.8217 47.2581 64.8006Q47.2793 64.7794 47.3075 64.7794H48.6375Q48.6657 64.7794 48.6869 64.8006Q48.708 64.8217 48.708 64.8499Q48.708 64.8817 48.6869 64.9011Q48.6657 64.9205 48.6375 64.9205H47.3851V65.9048H48.4787Q48.5069 65.9048 48.5281 65.9259Q48.5493 65.9471 48.5493 65.9753Q48.5493 66.0071 48.5281 66.0265Q48.5069 66.0459 48.4787 66.0459H47.3851V67.1077H48.6375Q48.6657 67.1077 48.6869 67.1289Q48.708 67.1501 48.708 67.1783ZM50.673 67.1783Q50.673 67.21 50.6518 67.2294Q50.6307 67.2488 50.6024 67.2488H49.3077Q49.276 67.2488 49.2566 67.2277Q49.2372 67.2065 49.2372 67.1783V64.8499Q49.2372 64.8217 49.2584 64.8006Q49.2795 64.7794 49.3113 64.7794Q49.343 64.7794 49.3642 64.8006Q49.3854 64.8217 49.3854 64.8499V67.1077H50.6024Q50.6307 67.1077 50.6518 67.1289Q50.673 67.1501 50.673 67.1783Z" style="stroke:#000000;stroke-width:0.25;stroke-linecap:round;stroke-linejoin:bevel" />
        <path d="M13.7583 49.8499Q13.7583 49.8817 13.7372 49.9011Q13.716 49.9205 13.6878 49.9205H12.4284V50.8942H13.529Q13.5573 50.8942 13.5784 50.9153Q13.5996 50.9365 13.5996 50.9647Q13.5996 50.9965 13.5784 51.0159Q13.5573 51.0353 13.529 51.0353H12.4284V52.1783Q12.4284 52.2065 12.409 52.2277Q12.3896 52.2488 12.3578 52.2488Q12.3261 52.2488 12.3067 52.2277Q12.2873 52.2065 12.2873 52.1783V49.8499Q12.2873 49.8217 12.3084 49.8006Q12.3296 49.7794 12.3578 49.7794H13.6878Q13.716 49.7794 13.7372 49.8006Q13.7583 49.8217 13.7583 49.8499ZM16.0831 52.1747Q16.0831 52.2065 16.0637 52.2259Q16.0443 52.2453 16.0161 52.2453Q15.9949 52.2453 15.9844 52.2382Q15.8891 52.1853 15.8327 52.0601Q15.7762 51.9349 15.7762 51.6491Q15.7762 51.3598 15.621 51.2522Q15.4658 51.1446 15.2612 51.1446H14.4357V52.1783Q14.4357 52.2065 14.4145 52.2277Q14.3933 52.2488 14.3616 52.2488Q14.3298 52.2488 14.3087 52.2277Q14.2875 52.2065 14.2875 52.1783V49.8499Q14.2875 49.8217 14.3087 49.8006Q14.3298 49.7794 14.3581 49.7794H15.2894Q15.494 49.7794 15.6528 49.8623Q15.8115 49.9452 15.8997 50.0898Q15.9879 50.2345 15.9879 50.4179Q15.9879 50.6543 15.8627 50.8236Q15.7374 50.9929 15.5363 51.0529Q15.7057 51.1058 15.815 51.2628Q15.9244 51.4198 15.9244 51.6491Q15.9244 51.8855 15.9544 51.979Q15.9844 52.0724 16.0443 52.1112Q16.0831 52.1359 16.0831 52.1747ZM15.307 51.0035Q15.5293 50.9824 15.6845 50.8271Q15.8397 50.6719 15.8397 50.4214Q15.8397 50.2027 15.6845 50.0616Q15.5293 49.9205 15.2718 49.9205H14.4357V51.0035ZM18.3656 52.1818Q18.3656 52.21 18.3444 52.2294Q18.3233 52.2488 18.2951 52.2488H16.5594Q16.5276 52.2488 16.5082 52.2259Q16.4888 52.203 16.4888 52.1747Q16.4888 52.1501 16.5029 52.1324L18.1681 49.9134H16.6299Q16.6017 49.9134 16.5806 49.894Q16.5594 49.8746 16.5594 49.8464Q16.5594 49.8182 16.5806 49.7988Q16.6017 49.7794 16.6299 49.7794H18.288Q18.3303 49.7794 18.3497 49.8006Q18.3691 49.8217 18.3691 49.8499Q18.3691 49.8746 18.355 49.8923L16.6934 52.1148H18.2951Q18.3233 52.1148 18.3444 52.1359Q18.3656 52.1571 18.3656 52.1818Z" style="stroke:#000000;stroke-width:0.25;stroke-linecap:round;stroke-linejoin:bevel" />
        <path d="M 10.44,51.00 L 12.44,48.00 L 18.24,48.00 L 20.24,51.00 L 18.24,54.00 L 12.44,54.00 z " style="stroke:#000000;stroke-width:0.25;stroke-linecap:round;stroke-linejoin:bevel;stroke-dasharray:none" fill="none" />
        <path d="M14.1923 64.0404Q14.1923 64.0687 14.1781 64.0863Q14.157 64.1145 14.1252 64.1145Q14.1111 64.1145 14.0829 64.1004Q13.7548 63.8782 13.3879 63.8782Q13.0916 63.8782 12.8429 64.0246Q12.5942 64.171 12.4495 64.4303Q12.3049 64.6896 12.3049 65.0141Q12.3049 65.3387 12.4495 65.598Q12.5942 65.8573 12.8429 66.0037Q13.0916 66.1501 13.3879 66.1501Q13.7583 66.1501 14.0794 65.9313Q14.097 65.9172 14.1217 65.9172Q14.157 65.9172 14.1781 65.9454Q14.1923 65.9631 14.1923 65.9878Q14.1923 66.0231 14.164 66.0442Q14.0264 66.143 13.8095 66.2136Q13.5925 66.2841 13.3879 66.2841Q13.0528 66.2841 12.7706 66.1183Q12.4883 65.9525 12.3225 65.6615Q12.1567 65.3704 12.1567 65.0141Q12.1567 64.6578 12.3225 64.3668Q12.4883 64.0757 12.7706 63.9099Q13.0528 63.7441 13.3879 63.7441Q13.5996 63.7441 13.7989 63.8076Q13.9982 63.8711 14.1605 63.984Q14.1923 64.0087 14.1923 64.0404ZM16.1043 66.1783Q16.1043 66.21 16.0831 66.2294Q16.062 66.2488 16.0338 66.2488H14.7391Q14.7073 66.2488 14.6879 66.2277Q14.6685 66.2065 14.6685 66.1783V63.8499Q14.6685 63.8217 14.6897 63.8006Q14.7108 63.7794 14.7426 63.7794Q14.7743 63.7794 14.7955 63.8006Q14.8167 63.8217 14.8167 63.8499V66.1077H16.0338Q16.062 66.1077 16.0831 66.1289Q16.1043 66.1501 16.1043 66.1783ZM18.3056 66.1748Q18.3056 66.2065 18.2862 66.2259Q18.2668 66.2453 18.2386 66.2453Q18.2174 66.2453 18.2069 66.2383Q18.1116 66.1853 18.0552 66.0601Q17.9987 65.9349 17.9987 65.6491Q17.9987 65.3598 17.8435 65.2522Q17.6883 65.1446 17.4837 65.1446H16.6582V66.1783Q16.6582 66.2065 16.637 66.2277Q16.6158 66.2488 16.5841 66.2488Q16.5523 66.2488 16.5312 66.2277Q16.51 66.2065 16.51 66.1783V63.8499Q16.51 63.8217 16.5312 63.8006Q16.5523 63.7794 16.5806 63.7794H17.5119Q17.7165 63.7794 17.8753 63.8623Q18.034 63.9452 18.1222 64.0898Q18.2104 64.2345 18.2104 64.4179Q18.2104 64.6543 18.0852 64.8236Q17.9599 64.9929 17.7588 65.0529Q17.9282 65.1058 18.0375 65.2628Q18.1469 65.4198 18.1469 65.6491Q18.1469 65.8855 18.1769 65.979Q18.2069 66.0724 18.2668 66.1112Q18.3056 66.1359 18.3056 66.1748ZM17.5295 65.0035Q17.7518 64.9824 17.907 64.8271Q18.0622 64.6719 18.0622 64.4214Q18.0622 64.2027 17.907 64.0616Q17.7518 63.9205 17.4943 63.9205H16.6582V65.0035Z" style="stroke:#000000;stroke-width:0.25;stroke-linecap:round;stroke-linejoin:bevel" />
        <path d="M 10.44,65.00 L 12.44,62.00 L 18.24,62.00 L 20.24,65.00 L 18.24,68.00 L 12.44,68.00 z " style="stroke:#000000;stroke-width:0.25;stroke-linecap:round;stroke-linejoin:bevel;stroke-dasharray:none" fill="none" />
    </g>
</svg>
