<?xml version="1.0" encoding="utf-8"?>
<svg xmlns="http://www.w3.org/2000/svg" width="60.96mm" height="128.50mm" viewBox="0 0 60.96 128.50">
    <g id="PanelLayer">
        <defs>
            <linearGradient id="gradient_controls" x1="0" y1="22" x2="0" y2="100" gradientUnits="userSpaceOnUse">
                <stop style="stop-color:#3068ff;stop-opacity:1;" offset="0" />
                <stop style="stop-color:#4f8df2;stop-opacity:1;" offset="1" />
            </linearGradient>
            <linearGradient id="gradient_send_return" x1="0" y1="100" x2="0" y2="117" gradientUnits="userSpaceOnUse">
                <stop style="stop-color:#8a72cf;stop-opacity:1;" offset="0" />
                <stop style="stop-color:#4f8df2;stop-opacity:1;" offset="1" />
            </linearGradient>
        </defs>
        <rect id="border_rect" width="60.96" height="128.5" x="0" y="0" style="display:inline;fill:#4f8df2;fill-opacity:1;stroke:none;" />
        <path id="controls_art" d="M 30.72,100.00 L 30.72,16.00 A 4 4 0 0 1 34.72 12 L 56.72,12.00 A 4 4 0 0 1 60.72 16 L 60.72,12.00 L 60.72,100.00 z" style="fill:url(#gradient_controls);fill-opacity:1;stroke-width:0;" />
        <path id="send_return_art" d="M 30.72,117.00 L 30.72,94.00 A 4 4 0 0 1 34.72 90 L 56.72,90.00 A 4 4 0 0 1 60.72 94 L 60.72,90.00 L 60.72,117.00 z" style="fill:url(#gradient_send_return);fill-opacity:1;stroke-width:0;" />
        <path id="model_name" d="M10.626 2.56326V7.99604Q10.626 8.05812 10.5795 8.10469Q10.5329 8.15126 10.4708 8.15126Q10.4009 8.15126 10.3583 8.10469Q10.3156 8.05812 10.3156 7.99604V7.25873Q10.1293 7.67007 9.72573 7.94947Q9.32215 8.22887 8.82544 8.22887Q8.32097 8.22887 7.90963 7.96111Q7.49829 7.69335 7.26158 7.22769Q7.02486 6.76202 7.02486 6.1877Q7.02486 5.61337 7.26158 5.14771Q7.49829 4.68204 7.90963 4.41816Q8.32097 4.15429 8.82544 4.15429Q9.30663 4.15429 9.71797 4.42592Q10.1293 4.69756 10.3156 5.13219V2.56326Q10.3156 2.50117 10.3583 2.4546Q10.4009 2.40804 10.4708 2.40804Q10.5406 2.40804 10.5833 2.4546Q10.626 2.50117 10.626 2.56326ZM10.3466 6.1877Q10.3466 5.69099 10.1526 5.29517Q9.95856 4.89935 9.61319 4.67428Q9.26783 4.44921 8.84096 4.44921Q8.42186 4.44921 8.07649 4.67428Q7.73113 4.89935 7.53322 5.29905Q7.33531 5.69875 7.33531 6.1877Q7.33531 6.68441 7.53322 7.08022Q7.73113 7.47604 8.07261 7.70499Q8.4141 7.93395 8.84096 7.93395Q9.27559 7.93395 9.61708 7.70887Q9.95856 7.4838 10.1526 7.08411Q10.3466 6.68441 10.3466 6.1877ZM11.115 9.54826V9.53274Q11.115 9.47841 11.1538 9.43572Q11.1926 9.39304 11.2547 9.38528Q11.5574 9.33871 11.7863 9.14468Q12.0153 8.95065 12.0153 8.6014V4.42592Q12.0153 4.36384 12.0579 4.31727Q12.1006 4.2707 12.1705 4.2707Q12.2403 4.2707 12.283 4.31727Q12.3257 4.36384 12.3257 4.42592V8.6014Q12.3257 8.92737 12.155 9.17572Q11.9842 9.42408 11.7359 9.55602Q11.4875 9.68796 11.2624 9.68796Q11.1926 9.68796 11.1538 9.64915Q11.115 9.61035 11.115 9.54826ZM11.8988 3.37041V3.30832Q11.8988 3.19967 11.9765 3.12982Q12.0541 3.05997 12.1782 3.05997Q12.2869 3.05997 12.3606 3.12982Q12.4344 3.19967 12.4344 3.30832V3.37041Q12.4344 3.47907 12.3606 3.54892Q12.2869 3.61877 12.1705 3.61877Q12.0463 3.61877 11.9726 3.54892Q11.8988 3.47907 11.8988 3.37041ZM14.1496 8.15126Q14.0797 8.15126 14.037 8.10469Q13.9943 8.05812 13.9943 7.99604V4.30951Q13.9943 4.24742 14.0409 4.20085Q14.0875 4.15429 14.1496 4.15429Q14.2194 4.15429 14.2621 4.20085Q14.3048 4.24742 14.3048 4.30951V7.99604Q14.3048 8.05812 14.2582 8.10469Q14.2117 8.15126 14.1496 8.15126ZM13.8779 3.37818V3.31609Q13.8779 3.20743 13.9555 3.13758Q14.0331 3.06773 14.1573 3.06773Q14.266 3.06773 14.3397 3.13758Q14.4134 3.20743 14.4134 3.31609V3.37818Q14.4134 3.48683 14.3397 3.55668Q14.266 3.62653 14.1496 3.62653Q14.0254 3.62653 13.9517 3.55668Q13.8779 3.48683 13.8779 3.37818ZM18.7441 5.62114V7.99604Q18.7441 8.05812 18.6976 8.10469Q18.651 8.15126 18.5889 8.15126Q18.5191 8.15126 18.4764 8.10469Q18.4337 8.05812 18.4337 7.99604V5.65218Q18.4337 5.12443 18.1582 4.78682Q17.8827 4.44921 17.3239 4.44921Q16.9824 4.44921 16.6525 4.61219Q16.3227 4.77517 16.1131 5.05457Q15.9036 5.33397 15.9036 5.65218V7.99604Q15.9036 8.05812 15.857 8.10469Q15.8104 8.15126 15.7484 8.15126Q15.6785 8.15126 15.6358 8.10469Q15.5931 8.05812 15.5931 7.99604V4.43369Q15.5931 4.3716 15.6397 4.32503Q15.6863 4.27846 15.7484 4.27846Q15.8182 4.27846 15.8609 4.32503Q15.9036 4.3716 15.9036 4.43369V4.95368Q16.1286 4.60443 16.5361 4.37936Q16.9436 4.15429 17.3549 4.15429Q18.0456 4.15429 18.3949 4.56174Q18.7441 4.9692 18.7441 5.62114ZM23.1835 5.62114V7.99604Q23.1835 8.05812 23.1369 8.10469Q23.0904 8.15126 23.0283 8.15126Q22.9584 8.15126 22.9157 8.10469Q22.8731 8.05812 22.8731 7.99604V5.65218Q22.8731 5.12443 22.5975 4.78682Q22.322 4.44921 21.7632 4.44921Q21.4217 4.44921 21.0919 4.61219Q20.762 4.77517 20.5525 5.05457Q20.3429 5.33397 20.3429 5.65218V7.99604Q20.3429 8.05812 20.2964 8.10469Q20.2498 8.15126 20.1877 8.15126Q20.1179 8.15126 20.0752 8.10469Q20.0325 8.05812 20.0325 7.99604V4.43369Q20.0325 4.3716 20.0791 4.32503Q20.1256 4.27846 20.1877 4.27846Q20.2576 4.27846 20.3002 4.32503Q20.3429 4.3716 20.3429 4.43369V4.95368Q20.568 4.60443 20.9755 4.37936Q21.3829 4.15429 21.7943 4.15429Q22.485 4.15429 22.8342 4.56174Q23.1835 4.9692 23.1835 5.62114Z" style="display:inline;stroke:#000000;stroke-width:0.35;stroke-linecap:round;stroke-linejoin:bevel" />
        <path id="sapphire_gemstone" d="m 17.955,122.900 q 0,0.34175 -0.242534,0.63114 -0.0441,0.0524 -0.20395,0.21497 -0.187413,0.19017 -0.785481,0.81304 l -1.444183,1.51309 q -0.01929,0.003 -0.0441,0.003 -0.02756,0 -0.04134,-0.003 -0.08268,-0.0827 -0.647678,-0.67524 -0.468532,-0.47404 -0.934309,-0.94809 -0.556727,-0.56775 -0.89848,-0.98116 -0.132292,-0.15985 -0.168121,-0.29766 -0.02756,-0.10197 -0.02756,-0.34175 0,-0.11024 0.07166,-0.28939 0.06614,-0.16536 0.140559,-0.26458 0.118512,-0.1571 0.42168,-0.42444 0.283875,-0.2508 0.474044,-0.37482 0.272852,-0.17915 0.818555,-0.36656 0.09646,-0.0331 0.110243,-0.0331 h 1.3615 q 0.01102,0 0.104731,0.0331 0.567751,0.20119 0.824066,0.36656 0.165365,0.10473 0.474045,0.37758 0.322461,0.28388 0.421679,0.42168 0.214974,0.2949 0.214974,0.62563 z m -0.16812,-0.27285 q -0.03307,-0.10749 -0.135048,-0.30868 -0.07166,-0.0937 -0.209462,-0.19844 -0.118511,-0.0854 -0.234266,-0.17088 0.245291,0.3638 0.578776,0.678 z m -0.573264,-0.52366 -0.358289,-0.44648 v 0.41065 z m 0.636653,0.75792 q 0,-0.0524 -0.341753,-0.39412 l 0.228754,0.7028 h 0.04961 q 0.06339,-0.21773 0.06339,-0.30868 z m -0.23151,0.27285 -0.316948,-0.90399 -0.410655,-0.0634 -0.159853,0.61461 z m 0.0028,0.15434 -0.771701,-0.3197 h -0.03032 l 0.344509,0.60634 q 0.07993,-0.003 0.234266,-0.0469 0.02481,-0.0138 0.223242,-0.23978 z m -0.857139,-1.05006 -0.719335,0.28388 0.60358,0.22599 z m 0,-0.16261 v -0.51538 l -0.917773,-0.38034 h -1.223697 l -0.917772,0.38034 v 0.51538 l 0.89848,0.4079 h 1.254014 z m 0.573264,1.53789 q -0.0689,0.011 -0.198438,0.0524 -0.08544,0.0551 -0.259071,0.16261 0.01929,0 0.06339,0.003 0.04134,0 0.06339,0 0.118511,0 0.190169,-0.0689 0.07166,-0.0717 0.14056,-0.14883 z m -0.289388,0.003 -0.347266,-0.63114 -0.363801,0.87918 q 0.0248,-0.0165 0.06615,-0.0165 0.03032,0 0.08544,0.011 0.05788,0.008 0.08819,0.008 0.04961,0 0.228754,-0.10749 0.228754,-0.1378 0.242535,-0.14331 z m -0.440972,-0.74139 -0.683507,-0.2756 -0.592556,0.54845 0.903993,0.65595 z m -0.854383,-0.28387 h -1.036284 l 0.523654,0.47404 z m 0.749652,1.36701 q -0.228754,-0.0303 -0.228754,-0.0303 -0.03583,0 -0.272851,0.0937 l 0.190169,0.0193 q 0.01102,0 0.311436,-0.0827 z m -0.388606,-0.0882 -0.843359,-0.61185 v 0.67524 l 0.471289,0.0827 z m 0.854383,0.0496 q -0.09922,0.006 -0.2949,0.0386 -0.01102,0.003 -0.377583,0.17639 -0.129535,0.34726 -0.380338,1.0418 z m -2.543857,-1.39733 -0.719335,-0.28388 0.124023,0.51814 z m -0.802018,-0.45476 v -0.41065 l -0.366557,0.44648 z m 1.515841,1.07212 -0.592556,-0.54019 -0.683506,0.2756 0.380338,0.9288 z m 0.369314,0.94257 q -0.03307,-0.003 -0.135047,-0.0248 -0.08544,-0.0165 -0.137804,-0.0165 -0.05237,0 -0.137804,0.0165 -0.101975,0.0221 -0.135047,0.0248 0.264583,0.0469 0.272851,0.0469 0.0083,0 0.272851,-0.0469 z m -0.30868,-0.1378 v -0.68626 l -0.843359,0.61185 0.37207,0.14607 z m 0.950846,0.20671 -0.396875,-0.0551 -0.479557,0.14056 v 1.27607 z m -2.888366,-2.20211 q -0.118512,0.0854 -0.234267,0.17364 -0.146072,0.10748 -0.209461,0.19568 -0.0441,0.10473 -0.135048,0.31419 0.369314,-0.3638 0.578776,-0.68351 z m 0.476801,0.83234 -0.159853,-0.61461 -0.410655,0.0634 -0.316948,0.90399 z m 0.394118,1.08313 -0.363802,-0.87918 -0.355533,0.63114 q 0.43546,0.2508 0.451996,0.2508 0.09095,0 0.267339,-0.003 z m 1.821765,0.82958 q -0.132291,0.21222 -0.405143,0.6339 -0.07717,0.10749 -0.220486,0.32797 -0.05788,0.10473 -0.05512,0.226 0.159852,-0.15158 0.432704,-0.49609 0.07717,-0.12954 0.140559,-0.339 0.05512,-0.17639 0.107486,-0.35278 z m -1.493792,-0.66146 -0.270095,-0.0882 -0.0083,-0.011 q -0.02481,0 -0.107487,0.011 -0.06615,0.006 -0.107487,0.006 0.272851,0.091 0.311436,0.091 0.02481,0 0.181901,-0.008 z m -0.810286,-1.06384 h -0.03032 l -0.7717,0.3197 q 0.06615,0.0965 0.223242,0.23978 0.07717,0.0138 0.234266,0.0469 z m -0.689018,-0.50161 q -0.341754,0.34727 -0.341754,0.39412 0,0.0799 0.06339,0.30868 h 0.04961 z m 2.235176,3.04547 v -1.27607 l -0.479557,-0.14056 -0.396875,0.0551 z m -1.606791,-1.6757 q -0.256315,-0.1819 -0.457509,-0.22324 0.06615,0.0772 0.20395,0.22324 z m 1.609547,2.04501 v -0.1378 l -0.683507,-1.05007 q 0.05237,0.17639 0.107487,0.35278 0.06339,0.20946 0.14056,0.339 0.0689,0.11851 0.20395,0.25907 0.115755,0.11851 0.23151,0.23702 z m -0.644921,-0.70555 q -0.115756,-0.32798 -0.380339,-1.0418 -0.135047,-0.0662 -0.272851,-0.12954 -0.159852,-0.0716 -0.289388,-0.0716 -0.05237,0 -0.110243,-0.0138 z" style="stroke-width:0;fill:#0000ff;stroke:#2e2114;stroke-linecap:square;stroke-opacity:1" />
        <path d="M9.60783 101.178Q9.60783 101.21 9.58667 101.229Q9.5655 101.249 9.53728 101.249H8.24258Q8.21083 101.249 8.19143 101.228Q8.17203 101.207 8.17203 101.178V98.8499Q8.17203 98.8217 8.19319 98.8006Q8.21436 98.7794 8.24611 98.7794Q8.27786 98.7794 8.29903 98.8006Q8.32019 98.8217 8.32019 98.8499V101.108H9.53728Q9.5655 101.108 9.58667 101.129Q9.60783 101.15 9.60783 101.178Z" style="stroke:#000000;stroke-width:0.25;stroke-linecap:round;stroke-linejoin:bevel" />
        <path d="M9.71719 111.175Q9.71719 111.207 9.69779 111.226Q9.67839 111.245 9.65017 111.245Q9.629 111.245 9.61842 111.238Q9.52317 111.185 9.46672 111.06Q9.41028 110.935 9.41028 110.649Q9.41028 110.36 9.25506 110.252Q9.09983 110.145 8.89522 110.145H8.06972V111.178Q8.06972 111.207 8.04856 111.228Q8.02739 111.249 7.99564 111.249Q7.96389 111.249 7.94272 111.228Q7.92156 111.207 7.92156 111.178V108.85Q7.92156 108.822 7.94272 108.801Q7.96389 108.779 7.99211 108.779H8.92344Q9.12806 108.779 9.28681 108.862Q9.44556 108.945 9.53375 109.09Q9.62194 109.234 9.62194 109.418Q9.62194 109.654 9.49671 109.824Q9.37147 109.993 9.17039 110.053Q9.33972 110.106 9.44908 110.263Q9.55844 110.42 9.55844 110.649Q9.55844 110.885 9.58843 110.979Q9.61842 111.072 9.67839 111.111Q9.71719 111.136 9.71719 111.175ZM8.94108 110.004Q9.16333 109.982 9.31856 109.827Q9.47378 109.672 9.47378 109.421Q9.47378 109.203 9.31856 109.062Q9.16333 108.921 8.90581 108.921H8.06972V110.004Z" style="stroke:#000000;stroke-width:0.25;stroke-linecap:round;stroke-linejoin:bevel" />
        <path d="M 15.24,100.00 L 15.24,110.00 " style="stroke:#000000;stroke-width:0.25;stroke-linecap:round;stroke-linejoin:bevel;stroke-dasharray:none" fill="none" />
        <path d="M13.9612 94.7488Q13.9259 94.7488 13.9065 94.7277Q13.8871 94.7065 13.8871 94.6748V92.3535Q13.8871 92.3217 13.9083 92.3006Q13.9294 92.2794 13.9612 92.2794Q13.9929 92.2794 14.0141 92.3006Q14.0353 92.3217 14.0353 92.3535V94.6748Q14.0317 94.7065 14.0106 94.7277Q13.9894 94.7488 13.9612 94.7488ZM16.5929 92.3464V94.6712Q16.5929 94.71 16.5717 94.7294Q16.5506 94.7488 16.5188 94.7488Q16.4835 94.7488 16.4624 94.7206L14.8749 92.551V94.6889Q14.8749 94.7136 14.8555 94.7312Q14.8361 94.7488 14.8078 94.7488Q14.7761 94.7488 14.7585 94.7312Q14.7408 94.7136 14.7408 94.6889V92.3499Q14.7408 92.3147 14.7602 92.297Q14.7796 92.2794 14.8043 92.2794Q14.8361 92.2794 14.8572 92.3041L16.4588 94.4878V92.3464Q16.4588 92.3182 16.4782 92.2988Q16.4977 92.2794 16.5259 92.2794Q16.5576 92.2794 16.5753 92.2988Q16.5929 92.3182 16.5929 92.3464Z" style="stroke:#000000;stroke-width:0.25;stroke-linecap:round;stroke-linejoin:bevel" />
        <path d="M 38.72,100.00 L 38.72,110.00 " style="stroke:#000000;stroke-width:0.25;stroke-linecap:round;stroke-linejoin:bevel;stroke-dasharray:none" fill="none" />
        <path d="M34.3456 94.4137Q34.3244 94.3925 34.3244 94.3608Q34.3244 94.3326 34.3491 94.3061Q34.3738 94.2796 34.402 94.2796Q34.4337 94.2796 34.462 94.3114Q34.5996 94.4737 34.7883 94.5583Q34.977 94.643 35.1852 94.643Q35.4568 94.643 35.6332 94.5125Q35.8096 94.3819 35.8096 94.1668Q35.8061 93.9974 35.7179 93.8881Q35.6297 93.7787 35.5009 93.7134Q35.3721 93.6482 35.1499 93.567Q34.9065 93.4753 34.7707 93.4048Q34.6348 93.3342 34.5378 93.2037Q34.4408 93.0731 34.4408 92.8615Q34.4408 92.6886 34.5361 92.5475Q34.6313 92.4064 34.8077 92.3253Q34.9841 92.2441 35.2169 92.2441Q35.4251 92.2441 35.612 92.32Q35.799 92.3958 35.9084 92.5334Q35.9436 92.5828 35.9436 92.6075Q35.9436 92.6357 35.9172 92.6586Q35.8907 92.6816 35.859 92.6816Q35.8307 92.6816 35.8131 92.6604Q35.7143 92.5334 35.5591 92.4593Q35.4039 92.3852 35.2169 92.3852Q34.9488 92.3852 34.7707 92.5122Q34.5925 92.6392 34.5925 92.8579Q34.5925 93.0096 34.6789 93.1155Q34.7654 93.2213 34.8959 93.2866Q35.0264 93.3518 35.2204 93.4224Q35.4674 93.5106 35.612 93.5847Q35.7567 93.6587 35.859 93.7999Q35.9613 93.941 35.9613 94.1738Q35.9613 94.3361 35.866 94.4772Q35.7708 94.6183 35.5926 94.7012Q35.4145 94.7841 35.1852 94.7841Q34.9241 94.7841 34.7301 94.6942Q34.5361 94.6042 34.3456 94.4137ZM37.9651 94.6783Q37.9651 94.71 37.9439 94.7294Q37.9227 94.7488 37.8945 94.7488H36.5645Q36.5363 94.7488 36.5151 94.7277Q36.494 94.7065 36.494 94.6783V92.3499Q36.494 92.3217 36.5151 92.3006Q36.5363 92.2794 36.5645 92.2794H37.8945Q37.9227 92.2794 37.9439 92.3006Q37.9651 92.3217 37.9651 92.3499Q37.9651 92.3817 37.9439 92.4011Q37.9227 92.4205 37.8945 92.4205H36.6421V93.4048H37.7358Q37.764 93.4048 37.7851 93.4259Q37.8063 93.4471 37.8063 93.4753Q37.8063 93.5071 37.7851 93.5265Q37.764 93.5459 37.7358 93.5459H36.6421V94.6077H37.8945Q37.9227 94.6077 37.9439 94.6289Q37.9651 94.6501 37.9651 94.6783ZM40.3463 92.3464V94.6712Q40.3463 94.71 40.3251 94.7294Q40.304 94.7488 40.2722 94.7488Q40.2369 94.7488 40.2158 94.7206L38.6283 92.551V94.6889Q38.6283 94.7136 38.6089 94.7312Q38.5895 94.7488 38.5613 94.7488Q38.5295 94.7488 38.5119 94.7312Q38.4942 94.7136 38.4942 94.6889V92.3499Q38.4942 92.3147 38.5136 92.297Q38.533 92.2794 38.5577 92.2794Q38.5895 92.2794 38.6106 92.3041L40.2122 94.4878V92.3464Q40.2122 92.3182 40.2317 92.2988Q40.2511 92.2794 40.2793 92.2794Q40.311 92.2794 40.3287 92.2988Q40.3463 92.3182 40.3463 92.3464ZM43.0627 93.5141Q43.0627 93.8634 42.9516 94.1421Q42.8404 94.4207 42.6111 94.5848Q42.3818 94.7488 42.0396 94.7488H41.1224Q41.0942 94.7488 41.073 94.7277Q41.0519 94.7065 41.0519 94.6783V92.3499Q41.0519 92.3217 41.073 92.3006Q41.0942 92.2794 41.1224 92.2794H42.0396Q42.3783 92.2794 42.6094 92.4487Q42.8404 92.6181 42.9516 92.8985Q43.0627 93.179 43.0627 93.5141ZM42.9145 93.5141Q42.9145 93.2143 42.8175 92.9655Q42.7205 92.7168 42.5177 92.5687Q42.3148 92.4205 42.0044 92.4205H41.2V94.6077H42.0044Q42.463 94.6077 42.6887 94.3061Q42.9145 94.0045 42.9145 93.5141Z" style="stroke:#000000;stroke-width:0.25;stroke-linecap:round;stroke-linejoin:bevel" />
        <path d="M 52.72,100.00 L 52.72,110.00 " style="stroke:#000000;stroke-width:0.25;stroke-linecap:round;stroke-linejoin:bevel;stroke-dasharray:none" fill="none" />
        <path d="M50.1959 94.6748Q50.1959 94.7065 50.1765 94.7259Q50.1571 94.7453 50.1288 94.7453Q50.1077 94.7453 50.0971 94.7383Q50.0018 94.6853 49.9454 94.5601Q49.889 94.4349 49.889 94.1491Q49.889 93.8598 49.7337 93.7522Q49.5785 93.6446 49.3739 93.6446H48.5484V94.6783Q48.5484 94.7065 48.5272 94.7277Q48.5061 94.7488 48.4743 94.7488Q48.4426 94.7488 48.4214 94.7277Q48.4002 94.7065 48.4002 94.6783V92.3499Q48.4002 92.3217 48.4214 92.3006Q48.4426 92.2794 48.4708 92.2794H49.4021Q49.6067 92.2794 49.7655 92.3623Q49.9242 92.4452 50.0124 92.5898Q50.1006 92.7345 50.1006 92.9179Q50.1006 93.1543 49.9754 93.3236Q49.8502 93.4929 49.6491 93.5529Q49.8184 93.6058 49.9278 93.7628Q50.0371 93.9198 50.0371 94.1491Q50.0371 94.3855 50.0671 94.479Q50.0971 94.5724 50.1571 94.6112Q50.1959 94.6359 50.1959 94.6748ZM49.4198 93.5035Q49.642 93.4824 49.7972 93.3271Q49.9525 93.1719 49.9525 92.9214Q49.9525 92.7027 49.7972 92.5616Q49.642 92.4205 49.3845 92.4205H48.5484V93.5035ZM52.369 92.3464Q52.369 92.3782 52.3496 92.3958Q52.3302 92.4134 52.2984 92.4134H51.5117V94.6783Q51.5117 94.7065 51.4906 94.7277Q51.4694 94.7488 51.4412 94.7488Q51.4094 94.7488 51.39 94.7277Q51.3706 94.7065 51.3706 94.6783V92.4134H50.5839Q50.5557 92.4134 50.5345 92.394Q50.5134 92.3746 50.5134 92.3464Q50.5134 92.3182 50.5345 92.2988Q50.5557 92.2794 50.5839 92.2794H52.2984Q52.3267 92.2794 52.3478 92.2988Q52.369 92.3182 52.369 92.3464ZM54.6409 94.6748Q54.6409 94.7065 54.6215 94.7259Q54.6021 94.7453 54.5738 94.7453Q54.5527 94.7453 54.5421 94.7383Q54.4468 94.6853 54.3904 94.5601Q54.334 94.4349 54.334 94.1491Q54.334 93.8598 54.1787 93.7522Q54.0235 93.6446 53.8189 93.6446H52.9934V94.6783Q52.9934 94.7065 52.9722 94.7277Q52.9511 94.7488 52.9193 94.7488Q52.8876 94.7488 52.8664 94.7277Q52.8452 94.7065 52.8452 94.6783V92.3499Q52.8452 92.3217 52.8664 92.3006Q52.8876 92.2794 52.9158 92.2794H53.8471Q54.0517 92.2794 54.2105 92.3623Q54.3692 92.4452 54.4574 92.5898Q54.5456 92.7345 54.5456 92.9179Q54.5456 93.1543 54.4204 93.3236Q54.2952 93.4929 54.0941 93.5529Q54.2634 93.6058 54.3728 93.7628Q54.4821 93.9198 54.4821 94.1491Q54.4821 94.3855 54.5121 94.479Q54.5421 94.5724 54.6021 94.6112Q54.6409 94.6359 54.6409 94.6748ZM53.8648 93.5035Q54.087 93.4824 54.2422 93.3271Q54.3975 93.1719 54.3975 92.9214Q54.3975 92.7027 54.2422 92.5616Q54.087 92.4205 53.8295 92.4205H52.9934V93.5035ZM57.0398 92.3464V94.6712Q57.0398 94.71 57.0186 94.7294Q56.9974 94.7488 56.9657 94.7488Q56.9304 94.7488 56.9092 94.7206L55.3217 92.551V94.6889Q55.3217 94.7136 55.3023 94.7312Q55.2829 94.7488 55.2547 94.7488Q55.223 94.7488 55.2053 94.7312Q55.1877 94.7136 55.1877 94.6889V92.3499Q55.1877 92.3147 55.2071 92.297Q55.2265 92.2794 55.2512 92.2794Q55.2829 92.2794 55.3041 92.3041L56.9057 94.4878V92.3464Q56.9057 92.3182 56.9251 92.2988Q56.9445 92.2794 56.9727 92.2794Q57.0045 92.2794 57.0221 92.2988Q57.0398 92.3182 57.0398 92.3464Z" style="stroke:#000000;stroke-width:0.25;stroke-linecap:round;stroke-linejoin:bevel" />
        <path d="M46.5878 101.178Q46.5878 101.21 46.5667 101.229Q46.5455 101.249 46.5173 101.249H45.2226Q45.1908 101.249 45.1714 101.228Q45.152 101.207 45.152 101.178V98.8499Q45.152 98.8217 45.1732 98.8006Q45.1944 98.7794 45.2261 98.7794Q45.2579 98.7794 45.279 98.8006Q45.3002 98.8217 45.3002 98.8499V101.108H46.5173Q46.5455 101.108 46.5667 101.129Q46.5878 101.15 46.5878 101.178Z" style="stroke:#000000;stroke-width:0.25;stroke-linecap:round;stroke-linejoin:bevel" />
        <path d="M46.6972 111.175Q46.6972 111.207 46.6778 111.226Q46.6584 111.245 46.6302 111.245Q46.609 111.245 46.5984 111.238Q46.5032 111.185 46.4467 111.06Q46.3903 110.935 46.3903 110.649Q46.3903 110.36 46.2351 110.252Q46.0798 110.145 45.8752 110.145H45.0497V111.178Q45.0497 111.207 45.0286 111.228Q45.0074 111.249 44.9756 111.249Q44.9439 111.249 44.9227 111.228Q44.9016 111.207 44.9016 111.178V108.85Q44.9016 108.822 44.9227 108.801Q44.9439 108.779 44.9721 108.779H45.9034Q46.1081 108.779 46.2668 108.862Q46.4256 108.945 46.5138 109.09Q46.6019 109.234 46.6019 109.418Q46.6019 109.654 46.4767 109.824Q46.3515 109.993 46.1504 110.053Q46.3197 110.106 46.4291 110.263Q46.5384 110.42 46.5384 110.649Q46.5384 110.885 46.5684 110.979Q46.5984 111.072 46.6584 111.111Q46.6972 111.136 46.6972 111.175ZM45.9211 110.004Q46.1433 109.982 46.2986 109.827Q46.4538 109.672 46.4538 109.421Q46.4538 109.203 46.2986 109.062Q46.1433 108.921 45.8858 108.921H45.0497V110.004Z" style="stroke:#000000;stroke-width:0.25;stroke-linecap:round;stroke-linejoin:bevel" />
        <path d="M 36.72,22.00 L 54.72,22.00 z " style="stroke:#000000;stroke-width:0.25;stroke-linecap:round;stroke-linejoin:bevel;stroke-dasharray:none" />
        <path d="M43.7586 14.8464Q43.7586 14.8782 43.7392 14.8958Q43.7198 14.9134 43.688 14.9134H42.9013V17.1783Q42.9013 17.2065 42.8801 17.2277Q42.859 17.2488 42.8308 17.2488Q42.799 17.2488 42.7796 17.2277Q42.7602 17.2065 42.7602 17.1783V14.9134H41.9735Q41.9453 14.9134 41.9241 14.894Q41.9029 14.8746 41.9029 14.8464Q41.9029 14.8182 41.9241 14.7988Q41.9453 14.7794 41.9735 14.7794H43.688Q43.7162 14.7794 43.7374 14.7988Q43.7586 14.8182 43.7586 14.8464ZM44.3089 17.2488Q44.2736 17.2488 44.2542 17.2277Q44.2348 17.2065 44.2348 17.1747V14.8535Q44.2348 14.8217 44.256 14.8006Q44.2771 14.7794 44.3089 14.7794Q44.3406 14.7794 44.3618 14.8006Q44.383 14.8217 44.383 14.8535V17.1747Q44.3794 17.2065 44.3583 17.2277Q44.3371 17.2488 44.3089 17.2488ZM47.3075 14.8499V17.1783Q47.3075 17.2065 47.2846 17.2277Q47.2616 17.2488 47.2334 17.2488Q47.2017 17.2488 47.1805 17.2277Q47.1593 17.2065 47.1593 17.1783V15.0687L46.2492 16.4445Q46.2315 16.4727 46.1998 16.4727Q46.161 16.4727 46.1433 16.4445L45.2296 15.0651V17.1783Q45.2296 17.2065 45.2085 17.2277Q45.1873 17.2488 45.1591 17.2488Q45.1273 17.2488 45.1079 17.2277Q45.0885 17.2065 45.0885 17.1783V14.8499Q45.0885 14.8253 45.1079 14.8023Q45.1273 14.7794 45.1556 14.7794Q45.2014 14.7794 45.2226 14.8111L46.1998 16.2646L47.177 14.8111Q47.2052 14.7723 47.244 14.7794Q47.2722 14.7829 47.2899 14.8023Q47.3075 14.8217 47.3075 14.8499ZM49.4841 17.1783Q49.4841 17.21 49.463 17.2294Q49.4418 17.2488 49.4136 17.2488H48.0836Q48.0554 17.2488 48.0342 17.2277Q48.0131 17.2065 48.0131 17.1783V14.8499Q48.0131 14.8217 48.0342 14.8006Q48.0554 14.7794 48.0836 14.7794H49.4136Q49.4418 14.7794 49.463 14.8006Q49.4841 14.8217 49.4841 14.8499Q49.4841 14.8817 49.463 14.9011Q49.4418 14.9205 49.4136 14.9205H48.1612V15.9047H49.2548Q49.2831 15.9047 49.3042 15.9259Q49.3254 15.9471 49.3254 15.9753Q49.3254 16.0071 49.3042 16.0265Q49.2831 16.0459 49.2548 16.0459H48.1612V17.1077H49.4136Q49.4418 17.1077 49.463 17.1289Q49.4841 17.1501 49.4841 17.1783Z" style="stroke:#000000;stroke-width:0.25;stroke-linecap:round;stroke-linejoin:bevel" />
        <path d="M40.3913 32.1747Q40.3913 32.2065 40.3719 32.2259Q40.3525 32.2453 40.3243 32.2453Q40.3031 32.2453 40.2925 32.2382Q40.1973 32.1853 40.1408 32.0601Q40.0844 31.9349 40.0844 31.6491Q40.0844 31.3598 39.9292 31.2522Q39.7739 31.1446 39.5693 31.1446H38.7438V32.1783Q38.7438 32.2065 38.7227 32.2277Q38.7015 32.2488 38.6697 32.2488Q38.638 32.2488 38.6168 32.2277Q38.5957 32.2065 38.5957 32.1783V29.8499Q38.5957 29.8217 38.6168 29.8006Q38.638 29.7794 38.6662 29.7794H39.5975Q39.8022 29.7794 39.9609 29.8623Q40.1197 29.9452 40.2078 30.0898Q40.296 30.2345 40.296 30.4179Q40.296 30.6543 40.1708 30.8236Q40.0456 30.9929 39.8445 31.0529Q40.0138 31.1058 40.1232 31.2628Q40.2325 31.4198 40.2325 31.6491Q40.2325 31.8855 40.2625 31.979Q40.2925 32.0724 40.3525 32.1112Q40.3913 32.1359 40.3913 32.1747ZM39.6152 31.0035Q39.8374 30.9824 39.9927 30.8271Q40.1479 30.6719 40.1479 30.4214Q40.1479 30.2027 39.9927 30.0616Q39.8374 29.9205 39.5799 29.9205H38.7438V31.0035ZM42.4092 32.1783Q42.4092 32.21 42.388 32.2294Q42.3668 32.2488 42.3386 32.2488H41.0087Q40.9804 32.2488 40.9593 32.2277Q40.9381 32.2065 40.9381 32.1783V29.8499Q40.9381 29.8217 40.9593 29.8006Q40.9804 29.7794 41.0087 29.7794H42.3386Q42.3668 29.7794 42.388 29.8006Q42.4092 29.8217 42.4092 29.8499Q42.4092 29.8817 42.388 29.9011Q42.3668 29.9205 42.3386 29.9205H41.0863V30.9047H42.1799Q42.2081 30.9047 42.2293 30.9259Q42.2504 30.9471 42.2504 30.9753Q42.2504 31.0071 42.2293 31.0265Q42.2081 31.0459 42.1799 31.0459H41.0863V32.1077H42.3386Q42.3668 32.1077 42.388 32.1289Q42.4092 32.1501 42.4092 32.1783ZM44.7904 29.8429Q44.7904 29.857 44.7834 29.8782L43.8168 32.203Q43.7956 32.2488 43.7497 32.2488Q43.7286 32.2488 43.7092 32.2365Q43.6898 32.2241 43.6827 32.203L42.7232 29.8887Q42.7126 29.8676 42.7126 29.8464Q42.7126 29.8182 42.732 29.7988Q42.7514 29.7794 42.7796 29.7794Q42.8325 29.7794 42.8572 29.8358L43.7533 31.9913L44.6528 29.8252Q44.6775 29.7794 44.7199 29.7794Q44.7516 29.7794 44.771 29.797Q44.7904 29.8147 44.7904 29.8429ZM46.7378 32.1783Q46.7378 32.21 46.7166 32.2294Q46.6954 32.2488 46.6672 32.2488H45.3372Q45.309 32.2488 45.2878 32.2277Q45.2667 32.2065 45.2667 32.1783V29.8499Q45.2667 29.8217 45.2878 29.8006Q45.309 29.7794 45.3372 29.7794H46.6672Q46.6954 29.7794 46.7166 29.8006Q46.7378 29.8217 46.7378 29.8499Q46.7378 29.8817 46.7166 29.9011Q46.6954 29.9205 46.6672 29.9205H45.4148V30.9047H46.5085Q46.5367 30.9047 46.5578 30.9259Q46.579 30.9471 46.579 30.9753Q46.579 31.0071 46.5578 31.0265Q46.5367 31.0459 46.5085 31.0459H45.4148V32.1077H46.6672Q46.6954 32.1077 46.7166 32.1289Q46.7378 32.1501 46.7378 32.1783ZM49.0626 32.1747Q49.0626 32.2065 49.0432 32.2259Q49.0238 32.2453 48.9955 32.2453Q48.9744 32.2453 48.9638 32.2382Q48.8685 32.1853 48.8121 32.0601Q48.7557 31.9349 48.7557 31.6491Q48.7557 31.3598 48.6004 31.2522Q48.4452 31.1446 48.2406 31.1446H47.4151V32.1783Q47.4151 32.2065 47.3939 32.2277Q47.3728 32.2488 47.341 32.2488Q47.3093 32.2488 47.2881 32.2277Q47.2669 32.2065 47.2669 32.1783V29.8499Q47.2669 29.8217 47.2881 29.8006Q47.3093 29.7794 47.3375 29.7794H48.2688Q48.4734 29.7794 48.6322 29.8623Q48.7909 29.9452 48.8791 30.0898Q48.9673 30.2345 48.9673 30.4179Q48.9673 30.6543 48.8421 30.8236Q48.7168 30.9929 48.5158 31.0529Q48.6851 31.1058 48.7945 31.2628Q48.9038 31.4198 48.9038 31.6491Q48.9038 31.8855 48.9338 31.979Q48.9638 32.0724 49.0238 32.1112Q49.0626 32.1359 49.0626 32.1747ZM48.2865 31.0035Q48.5087 30.9824 48.6639 30.8271Q48.8192 30.6719 48.8192 30.4214Q48.8192 30.2027 48.6639 30.0616Q48.5087 29.9205 48.2512 29.9205H47.4151V31.0035ZM49.4012 31.9137Q49.3801 31.8925 49.3801 31.8608Q49.3801 31.8326 49.4048 31.8061Q49.4295 31.7796 49.4577 31.7796Q49.4894 31.7796 49.5177 31.8114Q49.6552 31.9737 49.844 32.0583Q50.0327 32.143 50.2408 32.143Q50.5125 32.143 50.6889 32.0125Q50.8653 31.8819 50.8653 31.6667Q50.8617 31.4974 50.7735 31.3881Q50.6853 31.2787 50.5566 31.2134Q50.4278 31.1482 50.2056 31.067Q49.9622 30.9753 49.8263 30.9047Q49.6905 30.8342 49.5935 30.7037Q49.4965 30.5731 49.4965 30.3615Q49.4965 30.1886 49.5917 30.0475Q49.687 29.9064 49.8634 29.8252Q50.0398 29.7441 50.2726 29.7441Q50.4807 29.7441 50.6677 29.82Q50.8547 29.8958 50.964 30.0334Q50.9993 30.0828 50.9993 30.1075Q50.9993 30.1357 50.9729 30.1586Q50.9464 30.1816 50.9147 30.1816Q50.8864 30.1816 50.8688 30.1604Q50.77 30.0334 50.6148 29.9593Q50.4596 29.8852 50.2726 29.8852Q50.0045 29.8852 49.8263 30.0122Q49.6482 30.1392 49.6482 30.3579Q49.6482 30.5096 49.7346 30.6155Q49.821 30.7213 49.9516 30.7866Q50.0821 30.8518 50.2761 30.9224Q50.5231 31.0106 50.6677 31.0847Q50.8123 31.1587 50.9147 31.2999Q51.017 31.441 51.017 31.6738Q51.017 31.8361 50.9217 31.9772Q50.8265 32.1183 50.6483 32.2012Q50.4702 32.2841 50.2408 32.2841Q49.9798 32.2841 49.7858 32.1942Q49.5917 32.1042 49.4012 31.9137ZM53.0207 32.1783Q53.0207 32.21 52.9996 32.2294Q52.9784 32.2488 52.9502 32.2488H51.6202Q51.592 32.2488 51.5708 32.2277Q51.5497 32.2065 51.5497 32.1783V29.8499Q51.5497 29.8217 51.5708 29.8006Q51.592 29.7794 51.6202 29.7794H52.9502Q52.9784 29.7794 52.9996 29.8006Q53.0207 29.8217 53.0207 29.8499Q53.0207 29.8817 52.9996 29.9011Q52.9784 29.9205 52.9502 29.9205H51.6978V30.9047H52.7914Q52.8197 30.9047 52.8408 30.9259Q52.862 30.9471 52.862 30.9753Q52.862 31.0071 52.8408 31.0265Q52.8197 31.0459 52.7914 31.0459H51.6978V32.1077H52.9502Q52.9784 32.1077 52.9996 32.1289Q53.0207 32.1501 53.0207 32.1783Z" style="stroke:#000000;stroke-width:0.25;stroke-linecap:round;stroke-linejoin:bevel" />
        <path id="reverse_line_art" d="M 36.72,37.00 L 54.72,37.00 " style="stroke:#000000;stroke-width:0.25;stroke-linecap:round;stroke-linejoin:bevel;stroke-dasharray:none" fill="none" />
        <path d="M 6.24,37.00 L 24.24,37.00 z " style="stroke:#000000;stroke-width:0.25;stroke-linecap:round;stroke-linejoin:bevel;stroke-dasharray:none" />
        <path d="M8.13153 29.8499Q8.13153 29.8817 8.11036 29.9011Q8.08919 29.9205 8.06097 29.9205H6.80156V30.8942H7.90222Q7.93044 30.8942 7.95161 30.9153Q7.97278 30.9365 7.97278 30.9647Q7.97278 30.9965 7.95161 31.0159Q7.93044 31.0353 7.90222 31.0353H6.80156V32.1783Q6.80156 32.2065 6.78215 32.2277Q6.76275 32.2488 6.731 32.2488Q6.69925 32.2488 6.67985 32.2277Q6.66044 32.2065 6.66044 32.1783V29.8499Q6.66044 29.8217 6.68161 29.8006Q6.70278 29.7794 6.731 29.7794H8.06097Q8.08919 29.7794 8.11036 29.8006Q8.13153 29.8217 8.13153 29.8499ZM10.1318 32.1783Q10.1318 32.21 10.1106 32.2294Q10.0894 32.2488 10.0612 32.2488H8.73125Q8.70303 32.2488 8.68186 32.2277Q8.66069 32.2065 8.66069 32.1783V29.8499Q8.66069 29.8217 8.68186 29.8006Q8.70303 29.7794 8.73125 29.7794H10.0612Q10.0894 29.7794 10.1106 29.8006Q10.1318 29.8217 10.1318 29.8499Q10.1318 29.8817 10.1106 29.9011Q10.0894 29.9205 10.0612 29.9205H8.80886V30.9047H9.90247Q9.93069 30.9047 9.95186 30.9259Q9.97303 30.9471 9.97303 30.9753Q9.97303 31.0071 9.95186 31.0265Q9.93069 31.0459 9.90247 31.0459H8.80886V32.1077H10.0612Q10.0894 32.1077 10.1106 32.1289Q10.1318 32.1501 10.1318 32.1783ZM12.132 32.1783Q12.132 32.21 12.1109 32.2294Q12.0897 32.2488 12.0615 32.2488H10.7315Q10.7033 32.2488 10.6821 32.2277Q10.6609 32.2065 10.6609 32.1783V29.8499Q10.6609 29.8217 10.6821 29.8006Q10.7033 29.7794 10.7315 29.7794H12.0615Q12.0897 29.7794 12.1109 29.8006Q12.132 29.8217 12.132 29.8499Q12.132 29.8817 12.1109 29.9011Q12.0897 29.9205 12.0615 29.9205H10.8091V30.9047H11.9027Q11.9309 30.9047 11.9521 30.9259Q11.9733 30.9471 11.9733 30.9753Q11.9733 31.0071 11.9521 31.0265Q11.9309 31.0459 11.9027 31.0459H10.8091V32.1077H12.0615Q12.0897 32.1077 12.1109 32.1289Q12.132 32.1501 12.132 32.1783ZM14.672 31.0141Q14.672 31.3634 14.5609 31.6421Q14.4498 31.9207 14.2205 32.0848Q13.9912 32.2488 13.649 32.2488H12.7317Q12.7035 32.2488 12.6824 32.2277Q12.6612 32.2065 12.6612 32.1783V29.8499Q12.6612 29.8217 12.6824 29.8006Q12.7035 29.7794 12.7317 29.7794H13.649Q13.9876 29.7794 14.2187 29.9487Q14.4498 30.1181 14.5609 30.3985Q14.672 30.679 14.672 31.0141ZM14.5239 31.0141Q14.5239 30.7142 14.4268 30.4655Q14.3298 30.2168 14.127 30.0687Q13.9241 29.9205 13.6137 29.9205H12.8094V32.1077H13.6137Q14.0723 32.1077 14.2981 31.8061Q14.5239 31.5045 14.5239 31.0141ZM16.9651 31.5821Q16.9651 31.9031 16.7622 32.076Q16.5594 32.2488 16.2454 32.2488H15.2717Q15.2435 32.2488 15.2224 32.2277Q15.2012 32.2065 15.2012 32.1783V29.8499Q15.2012 29.8217 15.2224 29.8006Q15.2435 29.7794 15.2717 29.7794H16.2207Q16.5029 29.7794 16.6723 29.9417Q16.8416 30.1039 16.8416 30.3791Q16.8416 30.5767 16.7428 30.7372Q16.6441 30.8977 16.4677 30.9577Q16.6934 31 16.8293 31.1623Q16.9651 31.3246 16.9651 31.5821ZM16.2031 29.9205H15.3494V30.9118H16.2031Q16.4218 30.9083 16.5576 30.7689Q16.6934 30.6296 16.6934 30.3756Q16.6934 30.1674 16.5647 30.044Q16.4359 29.9205 16.2031 29.9205ZM16.8169 31.5821Q16.8169 31.321 16.6546 31.1887Q16.4924 31.0564 16.2278 31.0564H15.3494V32.1077H16.2278Q16.4924 32.1077 16.6546 31.9754Q16.8169 31.8431 16.8169 31.5821ZM19.3075 32.1818Q19.3075 32.2136 19.2864 32.2312Q19.2652 32.2488 19.2334 32.2488Q19.2087 32.2488 19.1893 32.2365Q19.1699 32.2241 19.1629 32.203L18.8666 31.4762L18.8701 31.4833H17.6883L17.4025 32.203Q17.3849 32.2488 17.339 32.2488Q17.3073 32.2488 17.2879 32.2312Q17.2685 32.2136 17.2649 32.1889Q17.2614 32.1747 17.2685 32.1536L18.2174 29.8182Q18.228 29.79 18.2439 29.7812Q18.2598 29.7723 18.2845 29.7723Q18.3374 29.7723 18.355 29.8182L19.304 32.1536Q19.3075 32.1642 19.3075 32.1818ZM17.7447 31.3422H18.8136L18.2739 30.0122ZM21.6429 30.0404Q21.6429 30.0687 21.6288 30.0863Q21.6076 30.1145 21.5759 30.1145Q21.5618 30.1145 21.5336 30.1004Q21.2055 29.8782 20.8386 29.8782Q20.5422 29.8782 20.2935 30.0246Q20.0448 30.171 19.9002 30.4303Q19.7556 30.6896 19.7556 31.0141Q19.7556 31.3387 19.9002 31.598Q20.0448 31.8572 20.2935 32.0037Q20.5422 32.1501 20.8386 32.1501Q21.209 32.1501 21.53 31.9313Q21.5477 31.9172 21.5724 31.9172Q21.6076 31.9172 21.6288 31.9454Q21.6429 31.9631 21.6429 31.9878Q21.6429 32.0231 21.6147 32.0442Q21.4771 32.143 21.2602 32.2136Q21.0432 32.2841 20.8386 32.2841Q20.5034 32.2841 20.2212 32.1183Q19.939 31.9525 19.7732 31.6615Q19.6074 31.3704 19.6074 31.0141Q19.6074 30.6578 19.7732 30.3668Q19.939 30.0757 20.2212 29.9099Q20.5034 29.7441 20.8386 29.7441Q21.0502 29.7441 21.2496 29.8076Q21.4489 29.8711 21.6112 29.984Q21.6429 30.0087 21.6429 30.0404ZM23.9854 32.1924Q23.9854 32.2312 23.9589 32.2488Q23.9324 32.2665 23.9042 32.2665Q23.876 32.2665 23.8548 32.2418L22.7965 30.933L22.2673 31.4233V32.1747Q22.2638 32.2065 22.2426 32.2277Q22.2215 32.2488 22.1932 32.2488Q22.158 32.2488 22.1386 32.2277Q22.1192 32.2065 22.1192 32.1747V29.8535Q22.1192 29.8217 22.1403 29.8006Q22.1615 29.7794 22.1932 29.7794Q22.225 29.7794 22.2462 29.8006Q22.2673 29.8217 22.2673 29.8535V31.2434L23.7913 29.8147Q23.8125 29.7935 23.8407 29.7935Q23.8689 29.7935 23.8901 29.8147Q23.9113 29.8358 23.9113 29.8641Q23.9113 29.8923 23.8901 29.9134L22.9129 30.8236L23.9677 32.143Q23.9854 32.1677 23.9854 32.1924Z" style="stroke:#000000;stroke-width:0.25;stroke-linecap:round;stroke-linejoin:bevel" />
        <path d="M 36.72,52.00 L 54.72,52.00 z " style="stroke:#000000;stroke-width:0.25;stroke-linecap:round;stroke-linejoin:bevel;stroke-dasharray:none" />
        <path d="M44.1854 45.4532Q44.1854 45.6507 44.1025 45.8113Q44.0196 45.9718 43.8679 46.0617Q43.7162 46.1517 43.5187 46.1517H42.7496V47.1783Q42.7496 47.2065 42.7267 47.2277Q42.7037 47.2488 42.6755 47.2488Q42.6438 47.2488 42.6226 47.2277Q42.6014 47.2065 42.6014 47.1783V44.8499Q42.6014 44.8217 42.6226 44.8006Q42.6438 44.7794 42.672 44.7794H43.5187Q43.8185 44.7794 44.002 44.9664Q44.1854 45.1533 44.1854 45.4532ZM44.0373 45.4532Q44.0373 45.2098 43.8979 45.0651Q43.7586 44.9205 43.5187 44.9205H42.7496V46.0106H43.5187Q43.755 46.0106 43.8961 45.8536Q44.0373 45.6966 44.0373 45.4532ZM46.5102 47.1818Q46.5102 47.2136 46.4891 47.2312Q46.4679 47.2488 46.4361 47.2488Q46.4114 47.2488 46.392 47.2365Q46.3726 47.2241 46.3656 47.203L46.0692 46.4763L46.0728 46.4833H44.891L44.6052 47.203Q44.5876 47.2488 44.5417 47.2488Q44.51 47.2488 44.4906 47.2312Q44.4712 47.2136 44.4676 47.1889Q44.4641 47.1747 44.4712 47.1536L45.4201 44.8182Q45.4307 44.79 45.4466 44.7812Q45.4625 44.7723 45.4872 44.7723Q45.5401 44.7723 45.5577 44.8182L46.5067 47.1536Q46.5102 47.1642 46.5102 47.1818ZM44.9474 46.3422H46.0163L45.4766 45.0122ZM48.8386 44.8464V47.1712Q48.8386 47.21 48.8174 47.2294Q48.7962 47.2488 48.7645 47.2488Q48.7292 47.2488 48.708 47.2206L47.1205 45.051V47.1889Q47.1205 47.2136 47.1011 47.2312Q47.0817 47.2488 47.0535 47.2488Q47.0217 47.2488 47.0041 47.2312Q46.9865 47.2136 46.9865 47.1889V44.8499Q46.9865 44.8147 47.0059 44.797Q47.0253 44.7794 47.05 44.7794Q47.0817 44.7794 47.1029 44.8041L48.7045 46.9878V44.8464Q48.7045 44.8182 48.7239 44.7988Q48.7433 44.7794 48.7715 44.7794Q48.8033 44.7794 48.8209 44.7988Q48.8386 44.8182 48.8386 44.8464Z" style="stroke:#000000;stroke-width:0.25;stroke-linecap:round;stroke-linejoin:bevel" />
        <path d="M 36.72,67.00 L 54.72,67.00 z " style="stroke:#000000;stroke-width:0.25;stroke-linecap:round;stroke-linejoin:bevel;stroke-dasharray:none" />
        <path d="M45.3637 59.8499V62.1783Q45.3637 62.2065 45.3408 62.2277Q45.3178 62.2488 45.2896 62.2488Q45.2579 62.2488 45.2367 62.2277Q45.2155 62.2065 45.2155 62.1783V60.0687L44.3054 61.4445Q44.2877 61.4727 44.256 61.4727Q44.2172 61.4727 44.1995 61.4445L43.2858 60.0651V62.1783Q43.2858 62.2065 43.2647 62.2277Q43.2435 62.2488 43.2153 62.2488Q43.1835 62.2488 43.1641 62.2277Q43.1447 62.2065 43.1447 62.1783V59.8499Q43.1447 59.8252 43.1641 59.8023Q43.1835 59.7794 43.2118 59.7794Q43.2576 59.7794 43.2788 59.8111L44.256 61.2646L45.2332 59.8111Q45.2614 59.7723 45.3002 59.7794Q45.3284 59.7829 45.3461 59.8023Q45.3637 59.8217 45.3637 59.8499ZM46.1433 62.2488Q46.1081 62.2488 46.0887 62.2277Q46.0692 62.2065 46.0692 62.1747V59.8535Q46.0692 59.8217 46.0904 59.8006Q46.1116 59.7794 46.1433 59.7794Q46.1751 59.7794 46.1962 59.8006Q46.2174 59.8217 46.2174 59.8535V62.1747Q46.2139 62.2065 46.1927 62.2277Q46.1716 62.2488 46.1433 62.2488ZM48.5246 62.1465Q48.5422 62.1712 48.5422 62.1889Q48.5422 62.2206 48.5211 62.24Q48.4999 62.2594 48.4681 62.2594Q48.4293 62.2594 48.4117 62.2312L47.6038 61.1305L46.7995 62.2312Q46.7819 62.2594 46.7466 62.2594Q46.7148 62.2594 46.6972 62.24Q46.6796 62.2206 46.6796 62.1994Q46.6796 62.1818 46.6972 62.1536L47.5262 61.0212L46.6901 59.8817Q46.676 59.8641 46.676 59.8394Q46.676 59.8076 46.6972 59.7882Q46.7184 59.7688 46.7466 59.7688Q46.7889 59.7688 46.8066 59.797L47.6144 60.9012L48.4188 59.7935Q48.4399 59.7653 48.4717 59.7653Q48.5034 59.7653 48.5228 59.7812Q48.5422 59.797 48.5422 59.8217Q48.5422 59.8464 48.5246 59.8711L47.6956 61.0141Z" style="stroke:#000000;stroke-width:0.25;stroke-linecap:round;stroke-linejoin:bevel" />
        <path d="M 36.72,82.00 L 54.72,82.00 z " style="stroke:#000000;stroke-width:0.25;stroke-linecap:round;stroke-linejoin:bevel;stroke-dasharray:none" />
        <path d="M43.8644 76.1023V76.9878Q43.8644 77.0301 43.8326 77.0513Q43.6704 77.1606 43.4781 77.2224Q43.2858 77.2841 43.0883 77.2841Q42.7249 77.2841 42.4374 77.1201Q42.1499 76.956 41.9858 76.6668Q41.8218 76.3775 41.8218 76.0141Q41.8218 75.6508 41.9858 75.3615Q42.1499 75.0722 42.4374 74.9082Q42.7249 74.7441 43.0883 74.7441Q43.2858 74.7441 43.464 74.7917Q43.6421 74.8394 43.7832 74.9346Q43.815 74.9558 43.815 74.9946Q43.815 75.0263 43.7921 75.0457Q43.7691 75.0651 43.748 75.0651Q43.7303 75.0651 43.7021 75.051Q43.4058 74.8852 43.0883 74.8852Q42.7637 74.8852 42.5097 75.0299Q42.2557 75.1745 42.1128 75.432Q41.97 75.6896 41.97 76.0141Q41.97 76.3387 42.1128 76.5962Q42.2557 76.8537 42.5097 76.9984Q42.7637 77.143 43.0883 77.143Q43.2506 77.143 43.4181 77.0918Q43.5857 77.0407 43.7233 76.956V76.1729H43.0883Q43.0601 76.1729 43.0389 76.1517Q43.0177 76.1305 43.0177 76.1023Q43.0177 76.0706 43.0389 76.0512Q43.0601 76.0318 43.0883 76.0318H43.7938Q43.8256 76.0318 43.845 76.0529Q43.8644 76.0741 43.8644 76.1023ZM46.2597 77.1818Q46.2597 77.2136 46.2386 77.2312Q46.2174 77.2488 46.1857 77.2488Q46.161 77.2488 46.1416 77.2365Q46.1222 77.2241 46.1151 77.203L45.8188 76.4763L45.8223 76.4833H44.6405L44.3547 77.203Q44.3371 77.2488 44.2912 77.2488Q44.2595 77.2488 44.2401 77.2312Q44.2207 77.2136 44.2172 77.1889Q44.2136 77.1748 44.2207 77.1536L45.1697 74.8182Q45.1802 74.79 45.1961 74.7812Q45.212 74.7723 45.2367 74.7723Q45.2896 74.7723 45.3072 74.8182L46.2562 77.1536Q46.2597 77.1642 46.2597 77.1818ZM44.6969 76.3422H45.7659L45.2261 75.0122ZM46.8101 77.2488Q46.7748 77.2488 46.7554 77.2277Q46.736 77.2065 46.736 77.1748V74.8535Q46.736 74.8217 46.7572 74.8006Q46.7783 74.7794 46.8101 74.7794Q46.8418 74.7794 46.863 74.8006Q46.8842 74.8217 46.8842 74.8535V77.1748Q46.8806 77.2065 46.8595 77.2277Q46.8383 77.2488 46.8101 77.2488ZM49.4418 74.8464V77.1712Q49.4418 77.21 49.4206 77.2294Q49.3995 77.2488 49.3677 77.2488Q49.3324 77.2488 49.3113 77.2206L47.7238 75.051V77.1889Q47.7238 77.2136 47.7044 77.2312Q47.685 77.2488 47.6567 77.2488Q47.625 77.2488 47.6074 77.2312Q47.5897 77.2136 47.5897 77.1889V74.8499Q47.5897 74.8147 47.6091 74.797Q47.6285 74.7794 47.6532 74.7794Q47.685 74.7794 47.7061 74.8041L49.3077 76.9878V74.8464Q49.3077 74.8182 49.3272 74.7988Q49.3466 74.7794 49.3748 74.7794Q49.4065 74.7794 49.4242 74.7988Q49.4418 74.8182 49.4418 74.8464Z" style="stroke:#000000;stroke-width:0.25;stroke-linecap:round;stroke-linejoin:bevel" />
    </g>
</svg>
