<?xml version="1.0" encoding="utf-8"?>
<svg xmlns="http://www.w3.org/2000/svg" width="45.72mm" height="128.50mm" viewBox="0 0 45.72 128.50">
    <g id="PanelLayer">
        <defs>
            <linearGradient id="gradient_controls" x1="0" y1="22" x2="0" y2="87" gradientUnits="userSpaceOnUse">
                <stop style="stop-color:#3068ff;stop-opacity:1;" offset="0" />
                <stop style="stop-color:#4f8df2;stop-opacity:1;" offset="1" />
            </linearGradient>
        </defs>
        <rect id="border_rect" width="45.72" height="128.5" x="0" y="0" style="display:inline;fill:#4f8df2;fill-opacity:1;stroke:none;" />
        <path id="controls_art" d="M 15.48,87.00 L 15.48,16.00 A 4 4 0 0 1 19.48 12 L 41.48,12.00 A 4 4 0 0 1 45.48 16 L 45.48,12.00 L 45.48,87.00 z" style="fill:url(#gradient_controls);fill-opacity:1;stroke-width:0;" />
        <path id="model_name" d="M7.24602 2.56326V7.99604Q7.24602 8.05812 7.19945 8.10469Q7.15289 8.15126 7.0908 8.15126Q7.02095 8.15126 6.97826 8.10469Q6.93558 8.05812 6.93558 7.99604V7.25873Q6.74931 7.67007 6.34573 7.94947Q5.94215 8.22887 5.44544 8.22887Q4.94097 8.22887 4.52963 7.96111Q4.11829 7.69335 3.88158 7.22769Q3.64486 6.76202 3.64486 6.1877Q3.64486 5.61337 3.88158 5.14771Q4.11829 4.68204 4.52963 4.41816Q4.94097 4.15429 5.44544 4.15429Q5.92663 4.15429 6.33797 4.42592Q6.74931 4.69756 6.93558 5.13219V2.56326Q6.93558 2.50117 6.97826 2.4546Q7.02095 2.40804 7.0908 2.40804Q7.16065 2.40804 7.20333 2.4546Q7.24602 2.50117 7.24602 2.56326ZM6.96662 6.1877Q6.96662 5.69099 6.77259 5.29517Q6.57856 4.89935 6.23319 4.67428Q5.88783 4.44921 5.46096 4.44921Q5.04186 4.44921 4.69649 4.67428Q4.35113 4.89935 4.15322 5.29905Q3.95531 5.69875 3.95531 6.1877Q3.95531 6.68441 4.15322 7.08022Q4.35113 7.47604 4.69261 7.70499Q5.0341 7.93395 5.46096 7.93395Q5.89559 7.93395 6.23708 7.70887Q6.57856 7.4838 6.77259 7.08411Q6.96662 6.68441 6.96662 6.1877ZM7.73497 9.54826V9.53274Q7.73497 9.47841 7.77378 9.43572Q7.81258 9.39304 7.87467 9.38528Q8.17735 9.33871 8.40631 9.14468Q8.63526 8.95065 8.63526 8.6014V4.42592Q8.63526 4.36384 8.67794 4.31727Q8.72063 4.2707 8.79048 4.2707Q8.86033 4.2707 8.90302 4.31727Q8.9457 4.36384 8.9457 4.42592V8.6014Q8.9457 8.92737 8.77496 9.17572Q8.60421 9.42408 8.35586 9.55602Q8.1075 9.68796 7.88243 9.68796Q7.81258 9.68796 7.77378 9.64915Q7.73497 9.61035 7.73497 9.54826ZM8.51884 3.37041V3.30832Q8.51884 3.19967 8.59645 3.12982Q8.67406 3.05997 8.79824 3.05997Q8.9069 3.05997 8.98063 3.12982Q9.05436 3.19967 9.05436 3.30832V3.37041Q9.05436 3.47907 8.98063 3.54892Q8.9069 3.61877 8.79048 3.61877Q8.6663 3.61877 8.59257 3.54892Q8.51884 3.47907 8.51884 3.37041ZM10.7696 8.15126Q10.6997 8.15126 10.657 8.10469Q10.6143 8.05812 10.6143 7.99604V4.30951Q10.6143 4.24742 10.6609 4.20085Q10.7075 4.15429 10.7696 4.15429Q10.8394 4.15429 10.8821 4.20085Q10.9248 4.24742 10.9248 4.30951V7.99604Q10.9248 8.05812 10.8782 8.10469Q10.8317 8.15126 10.7696 8.15126ZM10.4979 3.37818V3.31609Q10.4979 3.20743 10.5755 3.13758Q10.6531 3.06773 10.7773 3.06773Q10.886 3.06773 10.9597 3.13758Q11.0334 3.20743 11.0334 3.31609V3.37818Q11.0334 3.48683 10.9597 3.55668Q10.886 3.62653 10.7696 3.62653Q10.6454 3.62653 10.5717 3.55668Q10.4979 3.48683 10.4979 3.37818ZM15.3641 5.62114V7.99604Q15.3641 8.05812 15.3176 8.10469Q15.271 8.15126 15.2089 8.15126Q15.1391 8.15126 15.0964 8.10469Q15.0537 8.05812 15.0537 7.99604V5.65218Q15.0537 5.12443 14.7782 4.78682Q14.5027 4.44921 13.9439 4.44921Q13.6024 4.44921 13.2725 4.61219Q12.9427 4.77517 12.7331 5.05457Q12.5236 5.33397 12.5236 5.65218V7.99604Q12.5236 8.05812 12.477 8.10469Q12.4304 8.15126 12.3684 8.15126Q12.2985 8.15126 12.2558 8.10469Q12.2131 8.05812 12.2131 7.99604V4.43369Q12.2131 4.3716 12.2597 4.32503Q12.3063 4.27846 12.3684 4.27846Q12.4382 4.27846 12.4809 4.32503Q12.5236 4.3716 12.5236 4.43369V4.95368Q12.7486 4.60443 13.1561 4.37936Q13.5636 4.15429 13.9749 4.15429Q14.6656 4.15429 15.0149 4.56174Q15.3641 4.9692 15.3641 5.62114ZM19.8035 5.62114V7.99604Q19.8035 8.05812 19.7569 8.10469Q19.7104 8.15126 19.6483 8.15126Q19.5784 8.15126 19.5357 8.10469Q19.4931 8.05812 19.4931 7.99604V5.65218Q19.4931 5.12443 19.2175 4.78682Q18.942 4.44921 18.3832 4.44921Q18.0417 4.44921 17.7119 4.61219Q17.382 4.77517 17.1725 5.05457Q16.9629 5.33397 16.9629 5.65218V7.99604Q16.9629 8.05812 16.9164 8.10469Q16.8698 8.15126 16.8077 8.15126Q16.7379 8.15126 16.6952 8.10469Q16.6525 8.05812 16.6525 7.99604V4.43369Q16.6525 4.3716 16.6991 4.32503Q16.7456 4.27846 16.8077 4.27846Q16.8776 4.27846 16.9202 4.32503Q16.9629 4.3716 16.9629 4.43369V4.95368Q17.188 4.60443 17.5955 4.37936Q18.0029 4.15429 18.4143 4.15429Q19.105 4.15429 19.4542 4.56174Q19.8035 4.9692 19.8035 5.62114Z" style="display:inline;stroke:#000000;stroke-width:0.35;stroke-linecap:round;stroke-linejoin:bevel" />
        <path id="sapphire_gemstone" d="m 14.075,122.900 q 0,0.34175 -0.242534,0.63114 -0.0441,0.0524 -0.20395,0.21497 -0.187413,0.19017 -0.785481,0.81304 l -1.444183,1.51309 q -0.01929,0.003 -0.0441,0.003 -0.02756,0 -0.04134,-0.003 -0.08268,-0.0827 -0.647678,-0.67524 -0.468532,-0.47404 -0.934309,-0.94809 -0.556727,-0.56775 -0.89848,-0.98116 -0.132292,-0.15985 -0.168121,-0.29766 -0.02756,-0.10197 -0.02756,-0.34175 0,-0.11024 0.07166,-0.28939 0.06614,-0.16536 0.140559,-0.26458 0.118512,-0.1571 0.42168,-0.42444 0.283875,-0.2508 0.474044,-0.37482 0.272852,-0.17915 0.818555,-0.36656 0.09646,-0.0331 0.110243,-0.0331 h 1.3615 q 0.01102,0 0.104731,0.0331 0.567751,0.20119 0.824066,0.36656 0.165365,0.10473 0.474045,0.37758 0.322461,0.28388 0.421679,0.42168 0.214974,0.2949 0.214974,0.62563 z m -0.16812,-0.27285 q -0.03307,-0.10749 -0.135048,-0.30868 -0.07166,-0.0937 -0.209462,-0.19844 -0.118511,-0.0854 -0.234266,-0.17088 0.245291,0.3638 0.578776,0.678 z m -0.573264,-0.52366 -0.358289,-0.44648 v 0.41065 z m 0.636653,0.75792 q 0,-0.0524 -0.341753,-0.39412 l 0.228754,0.7028 h 0.04961 q 0.06339,-0.21773 0.06339,-0.30868 z m -0.23151,0.27285 -0.316948,-0.90399 -0.410655,-0.0634 -0.159853,0.61461 z m 0.0028,0.15434 -0.771701,-0.3197 h -0.03032 l 0.344509,0.60634 q 0.07993,-0.003 0.234266,-0.0469 0.02481,-0.0138 0.223242,-0.23978 z m -0.857139,-1.05006 -0.719335,0.28388 0.60358,0.22599 z m 0,-0.16261 v -0.51538 l -0.917773,-0.38034 h -1.223697 l -0.917772,0.38034 v 0.51538 l 0.89848,0.4079 h 1.254014 z m 0.573264,1.53789 q -0.0689,0.011 -0.198438,0.0524 -0.08544,0.0551 -0.259071,0.16261 0.01929,0 0.06339,0.003 0.04134,0 0.06339,0 0.118511,0 0.190169,-0.0689 0.07166,-0.0717 0.14056,-0.14883 z m -0.289388,0.003 -0.347266,-0.63114 -0.363801,0.87918 q 0.0248,-0.0165 0.06615,-0.0165 0.03032,0 0.08544,0.011 0.05788,0.008 0.08819,0.008 0.04961,0 0.228754,-0.10749 0.228754,-0.1378 0.242535,-0.14331 z m -0.440972,-0.74139 -0.683507,-0.2756 -0.592556,0.54845 0.903993,0.65595 z m -0.854383,-0.28387 h -1.036284 l 0.523654,0.47404 z m 0.749652,1.36701 q -0.228754,-0.0303 -0.228754,-0.0303 -0.03583,0 -0.272851,0.0937 l 0.190169,0.0193 q 0.01102,0 0.311436,-0.0827 z m -0.388606,-0.0882 -0.843359,-0.61185 v 0.67524 l 0.471289,0.0827 z m 0.854383,0.0496 q -0.09922,0.006 -0.2949,0.0386 -0.01102,0.003 -0.377583,0.17639 -0.129535,0.34726 -0.380338,1.0418 z m -2.543857,-1.39733 -0.719335,-0.28388 0.124023,0.51814 z m -0.802018,-0.45476 v -0.41065 l -0.366557,0.44648 z m 1.515841,1.07212 -0.592556,-0.54019 -0.683506,0.2756 0.380338,0.9288 z m 0.369314,0.94257 q -0.03307,-0.003 -0.135047,-0.0248 -0.08544,-0.0165 -0.137804,-0.0165 -0.05237,0 -0.137804,0.0165 -0.101975,0.0221 -0.135047,0.0248 0.264583,0.0469 0.272851,0.0469 0.0083,0 0.272851,-0.0469 z m -0.30868,-0.1378 v -0.68626 l -0.843359,0.61185 0.37207,0.14607 z m 0.950846,0.20671 -0.396875,-0.0551 -0.479557,0.14056 v 1.27607 z m -2.888366,-2.20211 q -0.118512,0.0854 -0.234267,0.17364 -0.146072,0.10748 -0.209461,0.19568 -0.0441,0.10473 -0.135048,0.31419 0.369314,-0.3638 0.578776,-0.68351 z m 0.476801,0.83234 -0.159853,-0.61461 -0.410655,0.0634 -0.316948,0.90399 z m 0.394118,1.08313 -0.363802,-0.87918 -0.355533,0.63114 q 0.43546,0.2508 0.451996,0.2508 0.09095,0 0.267339,-0.003 z m 1.821765,0.82958 q -0.132291,0.21222 -0.405143,0.6339 -0.07717,0.10749 -0.220486,0.32797 -0.05788,0.10473 -0.05512,0.226 0.159852,-0.15158 0.432704,-0.49609 0.07717,-0.12954 0.140559,-0.339 0.05512,-0.17639 0.107486,-0.35278 z m -1.493792,-0.66146 -0.270095,-0.0882 -0.0083,-0.011 q -0.02481,0 -0.107487,0.011 -0.06615,0.006 -0.107487,0.006 0.272851,0.091 0.311436,0.091 0.02481,0 0.181901,-0.008 z m -0.810286,-1.06384 h -0.03032 l -0.7717,0.3197 q 0.06615,0.0965 0.223242,0.23978 0.07717,0.0138 0.234266,0.0469 z m -0.689018,-0.50161 q -0.341754,0.34727 -0.341754,0.39412 0,0.0799 0.06339,0.30868 h 0.04961 z m 2.235176,3.04547 v -1.27607 l -0.479557,-0.14056 -0.396875,0.0551 z m -1.606791,-1.6757 q -0.256315,-0.1819 -0.457509,-0.22324 0.06615,0.0772 0.20395,0.22324 z m 1.609547,2.04501 v -0.1378 l -0.683507,-1.05007 q 0.05237,0.17639 0.107487,0.35278 0.06339,0.20946 0.14056,0.339 0.0689,0.11851 0.20395,0.25907 0.115755,0.11851 0.23151,0.23702 z m -0.644921,-0.70555 q -0.115756,-0.32798 -0.380339,-1.0418 -0.135047,-0.0662 -0.272851,-0.12954 -0.159852,-0.0716 -0.289388,-0.0716 -0.05237,0 -0.110243,-0.0138 z" style="stroke-width:0;fill:#0000ff;stroke:#2e2114;stroke-linecap:square;stroke-opacity:1" />
        <path d="M18.3678 101.178Q18.3678 101.21 18.3467 101.229Q18.3255 101.249 18.2973 101.249H17.0026Q16.9708 101.249 16.9514 101.228Q16.932 101.207 16.932 101.178V98.8499Q16.932 98.8217 16.9532 98.8006Q16.9744 98.7794 17.0061 98.7794Q17.0379 98.7794 17.059 98.8006Q17.0802 98.8217 17.0802 98.8499V101.108H18.2973Q18.3255 101.108 18.3467 101.129Q18.3678 101.15 18.3678 101.178Z" style="stroke:#000000;stroke-width:0.25;stroke-linecap:round;stroke-linejoin:bevel" />
        <path d="M18.4772 111.175Q18.4772 111.207 18.4578 111.226Q18.4384 111.245 18.4102 111.245Q18.389 111.245 18.3784 111.238Q18.2832 111.185 18.2267 111.06Q18.1703 110.935 18.1703 110.649Q18.1703 110.36 18.0151 110.252Q17.8598 110.145 17.6552 110.145H16.8297V111.178Q16.8297 111.207 16.8086 111.228Q16.7874 111.249 16.7556 111.249Q16.7239 111.249 16.7027 111.228Q16.6816 111.207 16.6816 111.178V108.85Q16.6816 108.822 16.7027 108.801Q16.7239 108.779 16.7521 108.779H17.6834Q17.8881 108.779 18.0468 108.862Q18.2056 108.945 18.2937 109.09Q18.3819 109.234 18.3819 109.418Q18.3819 109.654 18.2567 109.824Q18.1315 109.993 17.9304 110.053Q18.0997 110.106 18.2091 110.263Q18.3184 110.42 18.3184 110.649Q18.3184 110.885 18.3484 110.979Q18.3784 111.072 18.4384 111.111Q18.4772 111.136 18.4772 111.175ZM17.7011 110.004Q17.9233 109.982 18.0786 109.827Q18.2338 109.672 18.2338 109.421Q18.2338 109.203 18.0786 109.062Q17.9233 108.921 17.6658 108.921H16.8297V110.004Z" style="stroke:#000000;stroke-width:0.25;stroke-linecap:round;stroke-linejoin:bevel" />
        <path d="M 21.48,22.00 L 39.48,22.00 z " style="stroke:#000000;stroke-width:0.25;stroke-linecap:round;stroke-linejoin:bevel;stroke-dasharray:none" />
        <path d="M28.5186 14.3464Q28.5186 14.3782 28.4992 14.3958Q28.4797 14.4134 28.448 14.4134H27.6613V16.6783Q27.6613 16.7065 27.6401 16.7277Q27.619 16.7488 27.5907 16.7488Q27.559 16.7488 27.5396 16.7277Q27.5202 16.7065 27.5202 16.6783V14.4134H26.7335Q26.7053 14.4134 26.6841 14.394Q26.6629 14.3746 26.6629 14.3464Q26.6629 14.3182 26.6841 14.2988Q26.7053 14.2794 26.7335 14.2794H28.448Q28.4762 14.2794 28.4974 14.2988Q28.5186 14.3182 28.5186 14.3464ZM29.0689 16.7488Q29.0336 16.7488 29.0142 16.7277Q28.9948 16.7065 28.9948 16.6747V14.3535Q28.9948 14.3217 29.016 14.3006Q29.0371 14.2794 29.0689 14.2794Q29.1006 14.2794 29.1218 14.3006Q29.143 14.3217 29.143 14.3535V16.6747Q29.1394 16.7065 29.1183 16.7277Q29.0971 16.7488 29.0689 16.7488ZM32.0675 14.3499V16.6783Q32.0675 16.7065 32.0446 16.7277Q32.0216 16.7488 31.9934 16.7488Q31.9617 16.7488 31.9405 16.7277Q31.9193 16.7065 31.9193 16.6783V14.5687L31.0092 15.9445Q30.9915 15.9727 30.9598 15.9727Q30.921 15.9727 30.9033 15.9445L29.9896 14.5651V16.6783Q29.9896 16.7065 29.9685 16.7277Q29.9473 16.7488 29.9191 16.7488Q29.8873 16.7488 29.8679 16.7277Q29.8485 16.7065 29.8485 16.6783V14.3499Q29.8485 14.3253 29.8679 14.3023Q29.8873 14.2794 29.9156 14.2794Q29.9614 14.2794 29.9826 14.3111L30.9598 15.7646L31.937 14.3111Q31.9652 14.2723 32.004 14.2794Q32.0322 14.2829 32.0499 14.3023Q32.0675 14.3217 32.0675 14.3499ZM34.2441 16.6783Q34.2441 16.71 34.223 16.7294Q34.2018 16.7488 34.1736 16.7488H32.8436Q32.8154 16.7488 32.7942 16.7277Q32.7731 16.7065 32.7731 16.6783V14.3499Q32.7731 14.3217 32.7942 14.3006Q32.8154 14.2794 32.8436 14.2794H34.1736Q34.2018 14.2794 34.223 14.3006Q34.2441 14.3217 34.2441 14.3499Q34.2441 14.3817 34.223 14.4011Q34.2018 14.4205 34.1736 14.4205H32.9212V15.4047H34.0148Q34.0431 15.4047 34.0642 15.4259Q34.0854 15.4471 34.0854 15.4753Q34.0854 15.5071 34.0642 15.5265Q34.0431 15.5459 34.0148 15.5459H32.9212V16.6077H34.1736Q34.2018 16.6077 34.223 16.6289Q34.2441 16.6501 34.2441 16.6783Z" style="stroke:#000000;stroke-width:0.25;stroke-linecap:round;stroke-linejoin:bevel" />
        <path d="M 21.48,38.25 L 39.48,38.25 z " style="stroke:#000000;stroke-width:0.25;stroke-linecap:round;stroke-linejoin:bevel;stroke-dasharray:none" />
        <path d="M27.6842 30.5999Q27.6842 30.6317 27.6631 30.6511Q27.6419 30.6705 27.6137 30.6705H26.3543V31.6442H27.4549Q27.4832 31.6442 27.5043 31.6653Q27.5255 31.6865 27.5255 31.7147Q27.5255 31.7465 27.5043 31.7659Q27.4832 31.7853 27.4549 31.7853H26.3543V32.9283Q26.3543 32.9565 26.3349 32.9777Q26.3155 32.9988 26.2837 32.9988Q26.252 32.9988 26.2326 32.9777Q26.2132 32.9565 26.2132 32.9283V30.5999Q26.2132 30.5717 26.2343 30.5506Q26.2555 30.5294 26.2837 30.5294H27.6137Q27.6419 30.5294 27.6631 30.5506Q27.6842 30.5717 27.6842 30.5999ZM30.2242 31.7641Q30.2242 32.1134 30.1131 32.3921Q30.002 32.6707 29.7727 32.8348Q29.5434 32.9988 29.2012 32.9988H28.284Q28.2557 32.9988 28.2346 32.9777Q28.2134 32.9565 28.2134 32.9283V30.5999Q28.2134 30.5717 28.2346 30.5506Q28.2557 30.5294 28.284 30.5294H29.2012Q29.5398 30.5294 29.7709 30.6987Q30.002 30.8681 30.1131 31.1485Q30.2242 31.429 30.2242 31.7641ZM30.0761 31.7641Q30.0761 31.4642 29.9791 31.2155Q29.882 30.9668 29.6792 30.8187Q29.4763 30.6705 29.1659 30.6705H28.3616V32.8577H29.1659Q29.6245 32.8577 29.8503 32.5561Q30.0761 32.2545 30.0761 31.7641ZM32.5173 32.3321Q32.5173 32.6531 32.3144 32.826Q32.1116 32.9988 31.7976 32.9988H30.824Q30.7957 32.9988 30.7746 32.9777Q30.7534 32.9565 30.7534 32.9283V30.5999Q30.7534 30.5717 30.7746 30.5506Q30.7957 30.5294 30.824 30.5294H31.7729Q32.0552 30.5294 32.2245 30.6917Q32.3938 30.8539 32.3938 31.1291Q32.3938 31.3267 32.295 31.4872Q32.1963 31.6477 32.0199 31.7077Q32.2457 31.75 32.3815 31.9123Q32.5173 32.0746 32.5173 32.3321ZM31.7553 30.6705H30.9016V31.6618H31.7553Q31.974 31.6583 32.1098 31.5189Q32.2457 31.3796 32.2457 31.1256Q32.2457 30.9174 32.1169 30.794Q31.9881 30.6705 31.7553 30.6705ZM32.3691 32.3321Q32.3691 32.071 32.2068 31.9387Q32.0446 31.8064 31.78 31.8064H30.9016V32.8577H31.78Q32.0446 32.8577 32.2068 32.7254Q32.3691 32.5931 32.3691 32.3321ZM34.9127 32.9424Q34.9127 32.9812 34.8862 32.9988Q34.8597 33.0165 34.8315 33.0165Q34.8033 33.0165 34.7821 32.9918L33.7238 31.683L33.1946 32.1733V32.9247Q33.1911 32.9565 33.1699 32.9777Q33.1488 32.9988 33.1205 32.9988Q33.0853 32.9988 33.0659 32.9777Q33.0465 32.9565 33.0465 32.9247V30.6035Q33.0465 30.5717 33.0676 30.5506Q33.0888 30.5294 33.1205 30.5294Q33.1523 30.5294 33.1735 30.5506Q33.1946 30.5717 33.1946 30.6035V31.9934L34.7186 30.5647Q34.7398 30.5435 34.768 30.5435Q34.7962 30.5435 34.8174 30.5647Q34.8386 30.5858 34.8386 30.6141Q34.8386 30.6423 34.8174 30.6634L33.8402 31.5736L34.895 32.893Q34.9127 32.9177 34.9127 32.9424Z" style="stroke:#000000;stroke-width:0.25;stroke-linecap:round;stroke-linejoin:bevel" />
        <path d="M 21.48,54.50 L 39.48,54.50 z " style="stroke:#000000;stroke-width:0.25;stroke-linecap:round;stroke-linejoin:bevel;stroke-dasharray:none" />
        <path d="M28.9454 47.4532Q28.9454 47.6507 28.8625 47.8113Q28.7796 47.9718 28.6279 48.0617Q28.4762 48.1517 28.2787 48.1517H27.5096V49.1783Q27.5096 49.2065 27.4867 49.2277Q27.4638 49.2488 27.4355 49.2488Q27.4038 49.2488 27.3826 49.2277Q27.3614 49.2065 27.3614 49.1783V46.8499Q27.3614 46.8217 27.3826 46.8006Q27.4038 46.7794 27.432 46.7794H28.2787Q28.5785 46.7794 28.762 46.9664Q28.9454 47.1533 28.9454 47.4532ZM28.7972 47.4532Q28.7972 47.2098 28.6579 47.0651Q28.5186 46.9205 28.2787 46.9205H27.5096V48.0106H28.2787Q28.515 48.0106 28.6561 47.8536Q28.7972 47.6966 28.7972 47.4532ZM31.2702 49.1818Q31.2702 49.2136 31.2491 49.2312Q31.2279 49.2488 31.1961 49.2488Q31.1714 49.2488 31.152 49.2365Q31.1326 49.2241 31.1256 49.203L30.8293 48.4763L30.8328 48.4833H29.651L29.3652 49.203Q29.3476 49.2488 29.3017 49.2488Q29.27 49.2488 29.2506 49.2312Q29.2312 49.2136 29.2276 49.1889Q29.2241 49.1747 29.2312 49.1536L30.1801 46.8182Q30.1907 46.79 30.2066 46.7812Q30.2225 46.7723 30.2472 46.7723Q30.3001 46.7723 30.3177 46.8182L31.2667 49.1536Q31.2702 49.1642 31.2702 49.1818ZM29.7074 48.3422H30.7763L30.2366 47.0122ZM33.5986 46.8464V49.1712Q33.5986 49.21 33.5774 49.2294Q33.5562 49.2488 33.5245 49.2488Q33.4892 49.2488 33.468 49.2206L31.8805 47.051V49.1889Q31.8805 49.2136 31.8611 49.2312Q31.8417 49.2488 31.8135 49.2488Q31.7818 49.2488 31.7641 49.2312Q31.7465 49.2136 31.7465 49.1889V46.8499Q31.7465 46.8147 31.7659 46.797Q31.7853 46.7794 31.81 46.7794Q31.8417 46.7794 31.8629 46.8041L33.4645 48.9878V46.8464Q33.4645 46.8182 33.4839 46.7988Q33.5033 46.7794 33.5315 46.7794Q33.5633 46.7794 33.5809 46.7988Q33.5986 46.8182 33.5986 46.8464Z" style="stroke:#000000;stroke-width:0.25;stroke-linecap:round;stroke-linejoin:bevel" />
        <path d="M 21.48,70.75 L 39.48,70.75 z " style="stroke:#000000;stroke-width:0.25;stroke-linecap:round;stroke-linejoin:bevel;stroke-dasharray:none" />
        <path d="M30.1237 63.0999V65.4283Q30.1237 65.4565 30.1008 65.4777Q30.0778 65.4988 30.0496 65.4988Q30.0179 65.4988 29.9967 65.4777Q29.9755 65.4565 29.9755 65.4283V63.3187L29.0654 64.6945Q29.0477 64.7227 29.016 64.7227Q28.9772 64.7227 28.9595 64.6945L28.0458 63.3151V65.4283Q28.0458 65.4565 28.0247 65.4777Q28.0035 65.4988 27.9753 65.4988Q27.9435 65.4988 27.9241 65.4777Q27.9047 65.4565 27.9047 65.4283V63.0999Q27.9047 63.0753 27.9241 63.0523Q27.9435 63.0294 27.9718 63.0294Q28.0176 63.0294 28.0388 63.0611L29.016 64.5146L29.9932 63.0611Q30.0214 63.0223 30.0602 63.0294Q30.0884 63.0329 30.1061 63.0523Q30.1237 63.0717 30.1237 63.0999ZM30.9033 65.4988Q30.8681 65.4988 30.8487 65.4777Q30.8292 65.4565 30.8292 65.4248V63.1035Q30.8292 63.0717 30.8504 63.0506Q30.8716 63.0294 30.9033 63.0294Q30.9351 63.0294 30.9562 63.0506Q30.9774 63.0717 30.9774 63.1035V65.4248Q30.9739 65.4565 30.9527 65.4777Q30.9316 65.4988 30.9033 65.4988ZM33.2846 65.3965Q33.3022 65.4212 33.3022 65.4389Q33.3022 65.4706 33.2811 65.49Q33.2599 65.5094 33.2281 65.5094Q33.1893 65.5094 33.1717 65.4812L32.3638 64.3805L31.5595 65.4812Q31.5419 65.5094 31.5066 65.5094Q31.4748 65.5094 31.4572 65.49Q31.4396 65.4706 31.4396 65.4494Q31.4396 65.4318 31.4572 65.4036L32.2862 64.2712L31.4501 63.1317Q31.436 63.1141 31.436 63.0894Q31.436 63.0576 31.4572 63.0382Q31.4784 63.0188 31.5066 63.0188Q31.5489 63.0188 31.5666 63.047L32.3744 64.1512L33.1787 63.0435Q33.1999 63.0153 33.2317 63.0153Q33.2634 63.0153 33.2828 63.0312Q33.3022 63.047 33.3022 63.0717Q33.3022 63.0964 33.2846 63.1211L32.4556 64.2641Z" style="stroke:#000000;stroke-width:0.25;stroke-linecap:round;stroke-linejoin:bevel" />
        <path d="M 21.48,87.00 L 39.48,87.00 z " style="stroke:#000000;stroke-width:0.25;stroke-linecap:round;stroke-linejoin:bevel;stroke-dasharray:none" />
        <path d="M28.6244 80.6023V81.4878Q28.6244 81.5301 28.5926 81.5513Q28.4304 81.6606 28.2381 81.7224Q28.0458 81.7841 27.8483 81.7841Q27.4849 81.7841 27.1974 81.6201Q26.9099 81.456 26.7458 81.1668Q26.5818 80.8775 26.5818 80.5141Q26.5818 80.1508 26.7458 79.8615Q26.9099 79.5722 27.1974 79.4082Q27.4849 79.2441 27.8483 79.2441Q28.0458 79.2441 28.224 79.2917Q28.4021 79.3394 28.5433 79.4346Q28.575 79.4558 28.575 79.4946Q28.575 79.5263 28.5521 79.5457Q28.5291 79.5651 28.508 79.5651Q28.4903 79.5651 28.4621 79.551Q28.1658 79.3852 27.8483 79.3852Q27.5237 79.3852 27.2697 79.5299Q27.0157 79.6745 26.8728 79.932Q26.73 80.1896 26.73 80.5141Q26.73 80.8387 26.8728 81.0962Q27.0157 81.3537 27.2697 81.4984Q27.5237 81.643 27.8483 81.643Q28.0106 81.643 28.1781 81.5918Q28.3457 81.5407 28.4833 81.456V80.6729H27.8483Q27.8201 80.6729 27.7989 80.6517Q27.7777 80.6305 27.7777 80.6023Q27.7777 80.5706 27.7989 80.5512Q27.8201 80.5318 27.8483 80.5318H28.5538Q28.5856 80.5318 28.605 80.5529Q28.6244 80.5741 28.6244 80.6023ZM31.0198 81.6818Q31.0198 81.7136 30.9986 81.7312Q30.9774 81.7488 30.9457 81.7488Q30.921 81.7488 30.9016 81.7365Q30.8822 81.7241 30.8751 81.703L30.5788 80.9763L30.5823 80.9833H29.4005L29.1148 81.703Q29.0971 81.7488 29.0513 81.7488Q29.0195 81.7488 29.0001 81.7312Q28.9807 81.7136 28.9772 81.6889Q28.9736 81.6748 28.9807 81.6536L29.9297 79.3182Q29.9403 79.29 29.9561 79.2812Q29.972 79.2723 29.9967 79.2723Q30.0496 79.2723 30.0673 79.3182L31.0162 81.6536Q31.0198 81.6642 31.0198 81.6818ZM29.4569 80.8422H30.5259L29.9861 79.5122ZM31.5701 81.7488Q31.5348 81.7488 31.5154 81.7277Q31.496 81.7065 31.496 81.6748V79.3535Q31.496 79.3217 31.5172 79.3006Q31.5383 79.2794 31.5701 79.2794Q31.6018 79.2794 31.623 79.3006Q31.6442 79.3217 31.6442 79.3535V81.6748Q31.6406 81.7065 31.6195 81.7277Q31.5983 81.7488 31.5701 81.7488ZM34.2018 79.3464V81.6712Q34.2018 81.71 34.1806 81.7294Q34.1595 81.7488 34.1277 81.7488Q34.0924 81.7488 34.0713 81.7206L32.4838 79.551V81.6889Q32.4838 81.7136 32.4644 81.7312Q32.445 81.7488 32.4168 81.7488Q32.385 81.7488 32.3674 81.7312Q32.3497 81.7136 32.3497 81.6889V79.3499Q32.3497 79.3147 32.3691 79.297Q32.3885 79.2794 32.4132 79.2794Q32.445 79.2794 32.4661 79.3041L34.0678 81.4878V79.3464Q34.0678 79.3182 34.0872 79.2988Q34.1066 79.2794 34.1348 79.2794Q34.1665 79.2794 34.1842 79.2988Q34.2018 79.3182 34.2018 79.3464Z" style="stroke:#000000;stroke-width:0.25;stroke-linecap:round;stroke-linejoin:bevel" />
    </g>
</svg>
