<?xml version="1.0" encoding="utf-8"?>
<svg xmlns="http://www.w3.org/2000/svg" width="30.48mm" height="128.50mm" viewBox="0 0 30.48 128.50">
    <g id="PanelLayer">
        <defs />
        <rect id="border_rect" width="30.48" height="128.5" x="0" y="0" style="display:inline;fill:#4f8df2;fill-opacity:1;stroke:none;" />
        <path id="model_name" d="M10.626 2.56326V7.99604Q10.626 8.05812 10.5795 8.10469Q10.5329 8.15126 10.4708 8.15126Q10.4009 8.15126 10.3583 8.10469Q10.3156 8.05812 10.3156 7.99604V7.25873Q10.1293 7.67007 9.72573 7.94947Q9.32215 8.22887 8.82544 8.22887Q8.32097 8.22887 7.90963 7.96111Q7.49829 7.69335 7.26158 7.22769Q7.02486 6.76202 7.02486 6.1877Q7.02486 5.61337 7.26158 5.14771Q7.49829 4.68204 7.90963 4.41816Q8.32097 4.15429 8.82544 4.15429Q9.30663 4.15429 9.71797 4.42592Q10.1293 4.69756 10.3156 5.13219V2.56326Q10.3156 2.50117 10.3583 2.4546Q10.4009 2.40804 10.4708 2.40804Q10.5406 2.40804 10.5833 2.4546Q10.626 2.50117 10.626 2.56326ZM10.3466 6.1877Q10.3466 5.69099 10.1526 5.29517Q9.95856 4.89935 9.61319 4.67428Q9.26783 4.44921 8.84096 4.44921Q8.42186 4.44921 8.07649 4.67428Q7.73113 4.89935 7.53322 5.29905Q7.33531 5.69875 7.33531 6.1877Q7.33531 6.68441 7.53322 7.08022Q7.73113 7.47604 8.07261 7.70499Q8.4141 7.93395 8.84096 7.93395Q9.27559 7.93395 9.61708 7.70887Q9.95856 7.4838 10.1526 7.08411Q10.3466 6.68441 10.3466 6.1877ZM11.115 9.54826V9.53274Q11.115 9.47841 11.1538 9.43572Q11.1926 9.39304 11.2547 9.38528Q11.5574 9.33871 11.7863 9.14468Q12.0153 8.95065 12.0153 8.6014V4.42592Q12.0153 4.36384 12.0579 4.31727Q12.1006 4.2707 12.1705 4.2707Q12.2403 4.2707 12.283 4.31727Q12.3257 4.36384 12.3257 4.42592V8.6014Q12.3257 8.92737 12.155 9.17572Q11.9842 9.42408 11.7359 9.55602Q11.4875 9.68796 11.2624 9.68796Q11.1926 9.68796 11.1538 9.64915Q11.115 9.61035 11.115 9.54826ZM11.8988 3.37041V3.30832Q11.8988 3.19967 11.9765 3.12982Q12.0541 3.05997 12.1782 3.05997Q12.2869 3.05997 12.3606 3.12982Q12.4344 3.19967 12.4344 3.30832V3.37041Q12.4344 3.47907 12.3606 3.54892Q12.2869 3.61877 12.1705 3.61877Q12.0463 3.61877 11.9726 3.54892Q11.8988 3.47907 11.8988 3.37041ZM14.1496 8.15126Q14.0797 8.15126 14.037 8.10469Q13.9943 8.05812 13.9943 7.99604V4.30951Q13.9943 4.24742 14.0409 4.20085Q14.0875 4.15429 14.1496 4.15429Q14.2194 4.15429 14.2621 4.20085Q14.3048 4.24742 14.3048 4.30951V7.99604Q14.3048 8.05812 14.2582 8.10469Q14.2117 8.15126 14.1496 8.15126ZM13.8779 3.37818V3.31609Q13.8779 3.20743 13.9555 3.13758Q14.0331 3.06773 14.1573 3.06773Q14.266 3.06773 14.3397 3.13758Q14.4134 3.20743 14.4134 3.31609V3.37818Q14.4134 3.48683 14.3397 3.55668Q14.266 3.62653 14.1496 3.62653Q14.0254 3.62653 13.9517 3.55668Q13.8779 3.48683 13.8779 3.37818ZM18.7441 5.62114V7.99604Q18.7441 8.05812 18.6976 8.10469Q18.651 8.15126 18.5889 8.15126Q18.5191 8.15126 18.4764 8.10469Q18.4337 8.05812 18.4337 7.99604V5.65218Q18.4337 5.12443 18.1582 4.78682Q17.8827 4.44921 17.3239 4.44921Q16.9824 4.44921 16.6525 4.61219Q16.3227 4.77517 16.1131 5.05457Q15.9036 5.33397 15.9036 5.65218V7.99604Q15.9036 8.05812 15.857 8.10469Q15.8104 8.15126 15.7484 8.15126Q15.6785 8.15126 15.6358 8.10469Q15.5931 8.05812 15.5931 7.99604V4.43369Q15.5931 4.3716 15.6397 4.32503Q15.6863 4.27846 15.7484 4.27846Q15.8182 4.27846 15.8609 4.32503Q15.9036 4.3716 15.9036 4.43369V4.95368Q16.1286 4.60443 16.5361 4.37936Q16.9436 4.15429 17.3549 4.15429Q18.0456 4.15429 18.3949 4.56174Q18.7441 4.9692 18.7441 5.62114ZM23.1835 5.62114V7.99604Q23.1835 8.05812 23.1369 8.10469Q23.0904 8.15126 23.0283 8.15126Q22.9584 8.15126 22.9157 8.10469Q22.8731 8.05812 22.8731 7.99604V5.65218Q22.8731 5.12443 22.5975 4.78682Q22.322 4.44921 21.7632 4.44921Q21.4217 4.44921 21.0919 4.61219Q20.762 4.77517 20.5525 5.05457Q20.3429 5.33397 20.3429 5.65218V7.99604Q20.3429 8.05812 20.2964 8.10469Q20.2498 8.15126 20.1877 8.15126Q20.1179 8.15126 20.0752 8.10469Q20.0325 8.05812 20.0325 7.99604V4.43369Q20.0325 4.3716 20.0791 4.32503Q20.1256 4.27846 20.1877 4.27846Q20.2576 4.27846 20.3002 4.32503Q20.3429 4.3716 20.3429 4.43369V4.95368Q20.568 4.60443 20.9755 4.37936Q21.3829 4.15429 21.7943 4.15429Q22.485 4.15429 22.8342 4.56174Q23.1835 4.9692 23.1835 5.62114Z" style="display:inline;stroke:#000000;stroke-width:0.35;stroke-linecap:round;stroke-linejoin:bevel" />
        <path id="sapphire_gemstone" d="m 17.955,122.900 q 0,0.34175 -0.242534,0.63114 -0.0441,0.0524 -0.20395,0.21497 -0.187413,0.19017 -0.785481,0.81304 l -1.444183,1.51309 q -0.01929,0.003 -0.0441,0.003 -0.02756,0 -0.04134,-0.003 -0.08268,-0.0827 -0.647678,-0.67524 -0.468532,-0.47404 -0.934309,-0.94809 -0.556727,-0.56775 -0.89848,-0.98116 -0.132292,-0.15985 -0.168121,-0.29766 -0.02756,-0.10197 -0.02756,-0.34175 0,-0.11024 0.07166,-0.28939 0.06614,-0.16536 0.140559,-0.26458 0.118512,-0.1571 0.42168,-0.42444 0.283875,-0.2508 0.474044,-0.37482 0.272852,-0.17915 0.818555,-0.36656 0.09646,-0.0331 0.110243,-0.0331 h 1.3615 q 0.01102,0 0.104731,0.0331 0.567751,0.20119 0.824066,0.36656 0.165365,0.10473 0.474045,0.37758 0.322461,0.28388 0.421679,0.42168 0.214974,0.2949 0.214974,0.62563 z m -0.16812,-0.27285 q -0.03307,-0.10749 -0.135048,-0.30868 -0.07166,-0.0937 -0.209462,-0.19844 -0.118511,-0.0854 -0.234266,-0.17088 0.245291,0.3638 0.578776,0.678 z m -0.573264,-0.52366 -0.358289,-0.44648 v 0.41065 z m 0.636653,0.75792 q 0,-0.0524 -0.341753,-0.39412 l 0.228754,0.7028 h 0.04961 q 0.06339,-0.21773 0.06339,-0.30868 z m -0.23151,0.27285 -0.316948,-0.90399 -0.410655,-0.0634 -0.159853,0.61461 z m 0.0028,0.15434 -0.771701,-0.3197 h -0.03032 l 0.344509,0.60634 q 0.07993,-0.003 0.234266,-0.0469 0.02481,-0.0138 0.223242,-0.23978 z m -0.857139,-1.05006 -0.719335,0.28388 0.60358,0.22599 z m 0,-0.16261 v -0.51538 l -0.917773,-0.38034 h -1.223697 l -0.917772,0.38034 v 0.51538 l 0.89848,0.4079 h 1.254014 z m 0.573264,1.53789 q -0.0689,0.011 -0.198438,0.0524 -0.08544,0.0551 -0.259071,0.16261 0.01929,0 0.06339,0.003 0.04134,0 0.06339,0 0.118511,0 0.190169,-0.0689 0.07166,-0.0717 0.14056,-0.14883 z m -0.289388,0.003 -0.347266,-0.63114 -0.363801,0.87918 q 0.0248,-0.0165 0.06615,-0.0165 0.03032,0 0.08544,0.011 0.05788,0.008 0.08819,0.008 0.04961,0 0.228754,-0.10749 0.228754,-0.1378 0.242535,-0.14331 z m -0.440972,-0.74139 -0.683507,-0.2756 -0.592556,0.54845 0.903993,0.65595 z m -0.854383,-0.28387 h -1.036284 l 0.523654,0.47404 z m 0.749652,1.36701 q -0.228754,-0.0303 -0.228754,-0.0303 -0.03583,0 -0.272851,0.0937 l 0.190169,0.0193 q 0.01102,0 0.311436,-0.0827 z m -0.388606,-0.0882 -0.843359,-0.61185 v 0.67524 l 0.471289,0.0827 z m 0.854383,0.0496 q -0.09922,0.006 -0.2949,0.0386 -0.01102,0.003 -0.377583,0.17639 -0.129535,0.34726 -0.380338,1.0418 z m -2.543857,-1.39733 -0.719335,-0.28388 0.124023,0.51814 z m -0.802018,-0.45476 v -0.41065 l -0.366557,0.44648 z m 1.515841,1.07212 -0.592556,-0.54019 -0.683506,0.2756 0.380338,0.9288 z m 0.369314,0.94257 q -0.03307,-0.003 -0.135047,-0.0248 -0.08544,-0.0165 -0.137804,-0.0165 -0.05237,0 -0.137804,0.0165 -0.101975,0.0221 -0.135047,0.0248 0.264583,0.0469 0.272851,0.0469 0.0083,0 0.272851,-0.0469 z m -0.30868,-0.1378 v -0.68626 l -0.843359,0.61185 0.37207,0.14607 z m 0.950846,0.20671 -0.396875,-0.0551 -0.479557,0.14056 v 1.27607 z m -2.888366,-2.20211 q -0.118512,0.0854 -0.234267,0.17364 -0.146072,0.10748 -0.209461,0.19568 -0.0441,0.10473 -0.135048,0.31419 0.369314,-0.3638 0.578776,-0.68351 z m 0.476801,0.83234 -0.159853,-0.61461 -0.410655,0.0634 -0.316948,0.90399 z m 0.394118,1.08313 -0.363802,-0.87918 -0.355533,0.63114 q 0.43546,0.2508 0.451996,0.2508 0.09095,0 0.267339,-0.003 z m 1.821765,0.82958 q -0.132291,0.21222 -0.405143,0.6339 -0.07717,0.10749 -0.220486,0.32797 -0.05788,0.10473 -0.05512,0.226 0.159852,-0.15158 0.432704,-0.49609 0.07717,-0.12954 0.140559,-0.339 0.05512,-0.17639 0.107486,-0.35278 z m -1.493792,-0.66146 -0.270095,-0.0882 -0.0083,-0.011 q -0.02481,0 -0.107487,0.011 -0.06615,0.006 -0.107487,0.006 0.272851,0.091 0.311436,0.091 0.02481,0 0.181901,-0.008 z m -0.810286,-1.06384 h -0.03032 l -0.7717,0.3197 q 0.06615,0.0965 0.223242,0.23978 0.07717,0.0138 0.234266,0.0469 z m -0.689018,-0.50161 q -0.341754,0.34727 -0.341754,0.39412 0,0.0799 0.06339,0.30868 h 0.04961 z m 2.235176,3.04547 v -1.27607 l -0.479557,-0.14056 -0.396875,0.0551 z m -1.606791,-1.6757 q -0.256315,-0.1819 -0.457509,-0.22324 0.06615,0.0772 0.20395,0.22324 z m 1.609547,2.04501 v -0.1378 l -0.683507,-1.05007 q 0.05237,0.17639 0.107487,0.35278 0.06339,0.20946 0.14056,0.339 0.0689,0.11851 0.20395,0.25907 0.115755,0.11851 0.23151,0.23702 z m -0.644921,-0.70555 q -0.115756,-0.32798 -0.380339,-1.0418 -0.135047,-0.0662 -0.272851,-0.12954 -0.159852,-0.0716 -0.289388,-0.0716 -0.05237,0 -0.110243,-0.0138 z" style="stroke-width:0;fill:#0000ff;stroke:#2e2114;stroke-linecap:square;stroke-opacity:1" />
        <path d="M14.3678 101.178Q14.3678 101.21 14.3467 101.229Q14.3255 101.249 14.2973 101.249H13.0026Q12.9708 101.249 12.9514 101.228Q12.932 101.207 12.932 101.178V98.8499Q12.932 98.8217 12.9532 98.8006Q12.9744 98.7794 13.0061 98.7794Q13.0379 98.7794 13.059 98.8006Q13.0802 98.8217 13.0802 98.8499V101.108H14.2973Q14.3255 101.108 14.3467 101.129Q14.3678 101.15 14.3678 101.178Z" style="stroke:#000000;stroke-width:0.25;stroke-linecap:round;stroke-linejoin:bevel" />
        <path d="M14.4772 111.175Q14.4772 111.207 14.4578 111.226Q14.4384 111.245 14.4102 111.245Q14.389 111.245 14.3784 111.238Q14.2832 111.185 14.2267 111.06Q14.1703 110.935 14.1703 110.649Q14.1703 110.36 14.0151 110.252Q13.8598 110.145 13.6552 110.145H12.8297V111.178Q12.8297 111.207 12.8086 111.228Q12.7874 111.249 12.7556 111.249Q12.7239 111.249 12.7027 111.228Q12.6816 111.207 12.6816 111.178V108.85Q12.6816 108.822 12.7027 108.801Q12.7239 108.779 12.7521 108.779H13.6834Q13.8881 108.779 14.0468 108.862Q14.2056 108.945 14.2937 109.09Q14.3819 109.234 14.3819 109.418Q14.3819 109.654 14.2567 109.824Q14.1315 109.993 13.9304 110.053Q14.0997 110.106 14.2091 110.263Q14.3184 110.42 14.3184 110.649Q14.3184 110.885 14.3484 110.979Q14.3784 111.072 14.4384 111.111Q14.4772 111.136 14.4772 111.175ZM13.7011 110.004Q13.9233 109.982 14.0786 109.827Q14.2338 109.672 14.2338 109.421Q14.2338 109.203 14.0786 109.062Q13.9233 108.921 13.6658 108.921H12.8297V110.004Z" style="stroke:#000000;stroke-width:0.25;stroke-linecap:round;stroke-linejoin:bevel" />
    </g>
</svg>
