<?xml version="1.0" encoding="utf-8"?>
<svg xmlns="http://www.w3.org/2000/svg" width="30.48mm" height="128.50mm" viewBox="0 0 30.48 128.50">
    <g id="PanelLayer">
        <defs />
        <rect id="border_rect" width="30.48" height="128.5" x="0" y="0" style="display:inline;fill:#4f8df2;fill-opacity:1;fill-rule:nonzero;stroke:#5021d4;stroke-width:0.7;stroke-linecap:round;stroke-linejoin:round;stroke-dasharray:none;stroke-opacity:1;image-rendering:auto" />
        <path id="model_name" d="M5.3019 8.15126Q5.23205 8.15126 5.18936 8.10469Q5.14668 8.05812 5.14668 7.99604V4.30951Q5.14668 4.24742 5.19324 4.20085Q5.23981 4.15429 5.3019 4.15429Q5.37175 4.15429 5.41443 4.20085Q5.45712 4.24742 5.45712 4.30951V7.99604Q5.45712 8.05812 5.41055 8.10469Q5.36399 8.15126 5.3019 8.15126ZM5.03026 3.37818V3.31609Q5.03026 3.20743 5.10787 3.13758Q5.18548 3.06773 5.30966 3.06773Q5.41831 3.06773 5.49204 3.13758Q5.56578 3.20743 5.56578 3.31609V3.37818Q5.56578 3.48683 5.49204 3.55668Q5.41831 3.62653 5.3019 3.62653Q5.17772 3.62653 5.10399 3.55668Q5.03026 3.48683 5.03026 3.37818ZM9.89648 5.62114V7.99604Q9.89648 8.05812 9.84991 8.10469Q9.80334 8.15126 9.74125 8.15126Q9.6714 8.15126 9.62872 8.10469Q9.58603 8.05812 9.58603 7.99604V5.65218Q9.58603 5.12443 9.31051 4.78682Q9.03499 4.44921 8.47619 4.44921Q8.1347 4.44921 7.80486 4.61219Q7.47501 4.77517 7.26546 5.05457Q7.05591 5.33397 7.05591 5.65218V7.99604Q7.05591 8.05812 7.00934 8.10469Q6.96278 8.15126 6.90069 8.15126Q6.83084 8.15126 6.78815 8.10469Q6.74546 8.05812 6.74546 7.99604V4.43369Q6.74546 4.3716 6.79203 4.32503Q6.8386 4.27846 6.90069 4.27846Q6.97054 4.27846 7.01322 4.32503Q7.05591 4.3716 7.05591 4.43369V4.95368Q7.28098 4.60443 7.68844 4.37936Q8.0959 4.15429 8.50724 4.15429Q9.19798 4.15429 9.54723 4.56174Q9.89648 4.9692 9.89648 5.62114ZM11.3788 8.15126Q11.309 8.15126 11.2663 8.10469Q11.2236 8.05812 11.2236 7.99604V2.56326Q11.2236 2.50117 11.2702 2.4546Q11.3168 2.40804 11.3788 2.40804Q11.4487 2.40804 11.4914 2.4546Q11.5341 2.50117 11.5341 2.56326V7.99604Q11.5341 8.05812 11.4875 8.10469Q11.4409 8.15126 11.3788 8.15126ZM14.5066 8.22887Q13.9711 8.22887 13.5326 7.96111Q13.0941 7.69335 12.8418 7.22769Q12.5896 6.76202 12.5896 6.19546Q12.5896 5.62114 12.8418 5.15547Q13.0941 4.6898 13.5287 4.42204Q13.9633 4.15429 14.5066 4.15429Q15.0421 4.15429 15.4806 4.42204Q15.9191 4.6898 16.1675 5.15547Q16.4158 5.62114 16.4158 6.19546Q16.4158 6.76978 16.1675 7.23157Q15.9191 7.69335 15.4806 7.96111Q15.0421 8.22887 14.5066 8.22887ZM14.5066 4.44921Q14.0564 4.44921 13.6878 4.67816Q13.3191 4.90711 13.1096 5.30293Q12.9 5.69875 12.9 6.19546Q12.9 6.68441 13.1096 7.08022Q13.3191 7.47604 13.6878 7.70499Q14.0564 7.93395 14.5066 7.93395Q14.9645 7.93395 15.3293 7.70887Q15.694 7.4838 15.8997 7.08411Q16.1054 6.68441 16.1054 6.19546Q16.1054 5.69875 15.8997 5.30293Q15.694 4.90711 15.3293 4.67816Q14.9645 4.44921 14.5066 4.44921ZM19.0779 8.22887Q18.5424 8.22887 18.1039 7.96111Q17.6653 7.69335 17.4131 7.22769Q17.1609 6.76202 17.1609 6.19546Q17.1609 5.62114 17.4131 5.15547Q17.6653 4.6898 18.1 4.42204Q18.5346 4.15429 19.0779 4.15429Q19.6134 4.15429 20.0519 4.42204Q20.4904 4.6898 20.7387 5.15547Q20.9871 5.62114 20.9871 6.19546Q20.9871 6.76978 20.7387 7.23157Q20.4904 7.69335 20.0519 7.96111Q19.6134 8.22887 19.0779 8.22887ZM19.0779 4.44921Q18.6277 4.44921 18.2591 4.67816Q17.8904 4.90711 17.6809 5.30293Q17.4713 5.69875 17.4713 6.19546Q17.4713 6.68441 17.6809 7.08022Q17.8904 7.47604 18.2591 7.70499Q18.6277 7.93395 19.0779 7.93395Q19.5358 7.93395 19.9005 7.70887Q20.2653 7.4838 20.471 7.08411Q20.6767 6.68441 20.6767 6.19546Q20.6767 5.69875 20.471 5.30293Q20.2653 4.90711 19.9005 4.67816Q19.5358 4.44921 19.0779 4.44921ZM25.605 6.21098Q25.605 6.76978 25.3682 7.22381Q25.1315 7.67783 24.7202 7.93783Q24.3089 8.19782 23.8044 8.19782Q23.3387 8.19782 22.9507 7.96499Q22.5626 7.73216 22.3143 7.3053V9.54826Q22.3143 9.61035 22.2716 9.65691Q22.2289 9.70348 22.159 9.70348Q22.0969 9.70348 22.0504 9.65691Q22.0038 9.61035 22.0038 9.54826V4.38712Q22.0038 4.32503 22.0465 4.27846Q22.0892 4.2319 22.159 4.2319Q22.2289 4.2319 22.2716 4.27846Q22.3143 4.32503 22.3143 4.38712V5.10114Q22.5471 4.65876 22.9351 4.44533Q23.3232 4.2319 23.8044 4.2319Q24.3166 4.2319 24.728 4.48801Q25.1393 4.74413 25.3721 5.19428Q25.605 5.64442 25.605 6.21098ZM25.2945 6.21098Q25.2945 5.72979 25.0966 5.34562Q24.8987 4.96144 24.5572 4.74413Q24.2157 4.52682 23.7889 4.52682Q23.3542 4.52682 23.0089 4.74025Q22.6635 4.95368 22.4734 5.33786Q22.2832 5.72203 22.2832 6.21098Q22.2832 6.69993 22.4734 7.08411Q22.6635 7.46828 23.0089 7.68559Q23.3542 7.9029 23.7889 7.9029Q24.2157 7.9029 24.5572 7.68559Q24.8987 7.46828 25.0966 7.08022Q25.2945 6.69217 25.2945 6.21098Z" style="display:inline;stroke:#000000;stroke-width:0.35;stroke-linecap:round;stroke-linejoin:bevel" />
        <path id="sapphire_gemstone" d="m 17.955,122.900 q 0,0.34175 -0.242534,0.63114 -0.0441,0.0524 -0.20395,0.21497 -0.187413,0.19017 -0.785481,0.81304 l -1.444183,1.51309 q -0.01929,0.003 -0.0441,0.003 -0.02756,0 -0.04134,-0.003 -0.08268,-0.0827 -0.647678,-0.67524 -0.468532,-0.47404 -0.934309,-0.94809 -0.556727,-0.56775 -0.89848,-0.98116 -0.132292,-0.15985 -0.168121,-0.29766 -0.02756,-0.10197 -0.02756,-0.34175 0,-0.11024 0.07166,-0.28939 0.06614,-0.16536 0.140559,-0.26458 0.118512,-0.1571 0.42168,-0.42444 0.283875,-0.2508 0.474044,-0.37482 0.272852,-0.17915 0.818555,-0.36656 0.09646,-0.0331 0.110243,-0.0331 h 1.3615 q 0.01102,0 0.104731,0.0331 0.567751,0.20119 0.824066,0.36656 0.165365,0.10473 0.474045,0.37758 0.322461,0.28388 0.421679,0.42168 0.214974,0.2949 0.214974,0.62563 z m -0.16812,-0.27285 q -0.03307,-0.10749 -0.135048,-0.30868 -0.07166,-0.0937 -0.209462,-0.19844 -0.118511,-0.0854 -0.234266,-0.17088 0.245291,0.3638 0.578776,0.678 z m -0.573264,-0.52366 -0.358289,-0.44648 v 0.41065 z m 0.636653,0.75792 q 0,-0.0524 -0.341753,-0.39412 l 0.228754,0.7028 h 0.04961 q 0.06339,-0.21773 0.06339,-0.30868 z m -0.23151,0.27285 -0.316948,-0.90399 -0.410655,-0.0634 -0.159853,0.61461 z m 0.0028,0.15434 -0.771701,-0.3197 h -0.03032 l 0.344509,0.60634 q 0.07993,-0.003 0.234266,-0.0469 0.02481,-0.0138 0.223242,-0.23978 z m -0.857139,-1.05006 -0.719335,0.28388 0.60358,0.22599 z m 0,-0.16261 v -0.51538 l -0.917773,-0.38034 h -1.223697 l -0.917772,0.38034 v 0.51538 l 0.89848,0.4079 h 1.254014 z m 0.573264,1.53789 q -0.0689,0.011 -0.198438,0.0524 -0.08544,0.0551 -0.259071,0.16261 0.01929,0 0.06339,0.003 0.04134,0 0.06339,0 0.118511,0 0.190169,-0.0689 0.07166,-0.0717 0.14056,-0.14883 z m -0.289388,0.003 -0.347266,-0.63114 -0.363801,0.87918 q 0.0248,-0.0165 0.06615,-0.0165 0.03032,0 0.08544,0.011 0.05788,0.008 0.08819,0.008 0.04961,0 0.228754,-0.10749 0.228754,-0.1378 0.242535,-0.14331 z m -0.440972,-0.74139 -0.683507,-0.2756 -0.592556,0.54845 0.903993,0.65595 z m -0.854383,-0.28387 h -1.036284 l 0.523654,0.47404 z m 0.749652,1.36701 q -0.228754,-0.0303 -0.228754,-0.0303 -0.03583,0 -0.272851,0.0937 l 0.190169,0.0193 q 0.01102,0 0.311436,-0.0827 z m -0.388606,-0.0882 -0.843359,-0.61185 v 0.67524 l 0.471289,0.0827 z m 0.854383,0.0496 q -0.09922,0.006 -0.2949,0.0386 -0.01102,0.003 -0.377583,0.17639 -0.129535,0.34726 -0.380338,1.0418 z m -2.543857,-1.39733 -0.719335,-0.28388 0.124023,0.51814 z m -0.802018,-0.45476 v -0.41065 l -0.366557,0.44648 z m 1.515841,1.07212 -0.592556,-0.54019 -0.683506,0.2756 0.380338,0.9288 z m 0.369314,0.94257 q -0.03307,-0.003 -0.135047,-0.0248 -0.08544,-0.0165 -0.137804,-0.0165 -0.05237,0 -0.137804,0.0165 -0.101975,0.0221 -0.135047,0.0248 0.264583,0.0469 0.272851,0.0469 0.0083,0 0.272851,-0.0469 z m -0.30868,-0.1378 v -0.68626 l -0.843359,0.61185 0.37207,0.14607 z m 0.950846,0.20671 -0.396875,-0.0551 -0.479557,0.14056 v 1.27607 z m -2.888366,-2.20211 q -0.118512,0.0854 -0.234267,0.17364 -0.146072,0.10748 -0.209461,0.19568 -0.0441,0.10473 -0.135048,0.31419 0.369314,-0.3638 0.578776,-0.68351 z m 0.476801,0.83234 -0.159853,-0.61461 -0.410655,0.0634 -0.316948,0.90399 z m 0.394118,1.08313 -0.363802,-0.87918 -0.355533,0.63114 q 0.43546,0.2508 0.451996,0.2508 0.09095,0 0.267339,-0.003 z m 1.821765,0.82958 q -0.132291,0.21222 -0.405143,0.6339 -0.07717,0.10749 -0.220486,0.32797 -0.05788,0.10473 -0.05512,0.226 0.159852,-0.15158 0.432704,-0.49609 0.07717,-0.12954 0.140559,-0.339 0.05512,-0.17639 0.107486,-0.35278 z m -1.493792,-0.66146 -0.270095,-0.0882 -0.0083,-0.011 q -0.02481,0 -0.107487,0.011 -0.06615,0.006 -0.107487,0.006 0.272851,0.091 0.311436,0.091 0.02481,0 0.181901,-0.008 z m -0.810286,-1.06384 h -0.03032 l -0.7717,0.3197 q 0.06615,0.0965 0.223242,0.23978 0.07717,0.0138 0.234266,0.0469 z m -0.689018,-0.50161 q -0.341754,0.34727 -0.341754,0.39412 0,0.0799 0.06339,0.30868 h 0.04961 z m 2.235176,3.04547 v -1.27607 l -0.479557,-0.14056 -0.396875,0.0551 z m -1.606791,-1.6757 q -0.256315,-0.1819 -0.457509,-0.22324 0.06615,0.0772 0.20395,0.22324 z m 1.609547,2.04501 v -0.1378 l -0.683507,-1.05007 q 0.05237,0.17639 0.107487,0.35278 0.06339,0.20946 0.14056,0.339 0.0689,0.11851 0.20395,0.25907 0.115755,0.11851 0.23151,0.23702 z m -0.644921,-0.70555 q -0.115756,-0.32798 -0.380339,-1.0418 -0.135047,-0.0662 -0.272851,-0.12954 -0.159852,-0.0716 -0.289388,-0.0716 -0.05237,0 -0.110243,-0.0138 z" style="stroke-width:0;fill:#0000ff;stroke:#2e2114;stroke-linecap:square;stroke-opacity:1" />
    </g>
</svg>
