<?xml version="1.0" encoding="utf-8"?>
<svg xmlns="http://www.w3.org/2000/svg" width="20.32mm" height="128.50mm" viewBox="0 0 20.32 128.50">
    <g id="PanelLayer">
        <defs>
            <linearGradient id="gradient_blue" x1="0" y1="13" x2="0" y2="51" gradientUnits="userSpaceOnUse">
                <stop style="stop-color:#3068ff;stop-opacity:1;" offset="0" />
                <stop style="stop-color:#4f8df2;stop-opacity:1;" offset="1" />
            </linearGradient>
            <linearGradient id="gradient_purple" x1="0" y1="44" x2="0" y2="82" gradientUnits="userSpaceOnUse">
                <stop style="stop-color:#a06de4;stop-opacity:1;" offset="0" />
                <stop style="stop-color:#4f8df2;stop-opacity:1;" offset="1" />
            </linearGradient>
            <linearGradient id="gradient_out" x1="0" y1="76" x2="0" y2="113.6" gradientUnits="userSpaceOnUse">
                <stop style="stop-color:#29aab4;stop-opacity:1;" offset="0" />
                <stop style="stop-color:#4f8df2;stop-opacity:1;" offset="1" />
            </linearGradient>
        </defs>
        <rect id="border_rect" width="20.32" height="128.5" x="0" y="0" style="display:inline;fill:#4f8df2;fill-opacity:1;stroke:none;" />
        <path id="sapphire_gemstone" d="m 12.875,122.900 q 0,0.34175 -0.242534,0.63114 -0.0441,0.0524 -0.20395,0.21497 -0.187413,0.19017 -0.785481,0.81304 l -1.444183,1.51309 q -0.01929,0.003 -0.0441,0.003 -0.02756,0 -0.04134,-0.003 -0.08268,-0.0827 -0.647678,-0.67524 -0.468532,-0.47404 -0.934309,-0.94809 -0.556727,-0.56775 -0.89848,-0.98116 -0.132292,-0.15985 -0.168121,-0.29766 -0.02756,-0.10197 -0.02756,-0.34175 0,-0.11024 0.07166,-0.28939 0.06614,-0.16536 0.140559,-0.26458 0.118512,-0.1571 0.42168,-0.42444 0.283875,-0.2508 0.474044,-0.37482 0.272852,-0.17915 0.818555,-0.36656 0.09646,-0.0331 0.110243,-0.0331 h 1.3615 q 0.01102,0 0.104731,0.0331 0.567751,0.20119 0.824066,0.36656 0.165365,0.10473 0.474045,0.37758 0.322461,0.28388 0.421679,0.42168 0.214974,0.2949 0.214974,0.62563 z m -0.16812,-0.27285 q -0.03307,-0.10749 -0.135048,-0.30868 -0.07166,-0.0937 -0.209462,-0.19844 -0.118511,-0.0854 -0.234266,-0.17088 0.245291,0.3638 0.578776,0.678 z m -0.573264,-0.52366 -0.358289,-0.44648 v 0.41065 z m 0.636653,0.75792 q 0,-0.0524 -0.341753,-0.39412 l 0.228754,0.7028 h 0.04961 q 0.06339,-0.21773 0.06339,-0.30868 z m -0.23151,0.27285 -0.316948,-0.90399 -0.410655,-0.0634 -0.159853,0.61461 z m 0.0028,0.15434 -0.771701,-0.3197 h -0.03032 l 0.344509,0.60634 q 0.07993,-0.003 0.234266,-0.0469 0.02481,-0.0138 0.223242,-0.23978 z m -0.857139,-1.05006 -0.719335,0.28388 0.60358,0.22599 z m 0,-0.16261 v -0.51538 l -0.917773,-0.38034 h -1.223697 l -0.917772,0.38034 v 0.51538 l 0.89848,0.4079 h 1.254014 z m 0.573264,1.53789 q -0.0689,0.011 -0.198438,0.0524 -0.08544,0.0551 -0.259071,0.16261 0.01929,0 0.06339,0.003 0.04134,0 0.06339,0 0.118511,0 0.190169,-0.0689 0.07166,-0.0717 0.14056,-0.14883 z m -0.289388,0.003 -0.347266,-0.63114 -0.363801,0.87918 q 0.0248,-0.0165 0.06615,-0.0165 0.03032,0 0.08544,0.011 0.05788,0.008 0.08819,0.008 0.04961,0 0.228754,-0.10749 0.228754,-0.1378 0.242535,-0.14331 z m -0.440972,-0.74139 -0.683507,-0.2756 -0.592556,0.54845 0.903993,0.65595 z m -0.854383,-0.28387 h -1.036284 l 0.523654,0.47404 z m 0.749652,1.36701 q -0.228754,-0.0303 -0.228754,-0.0303 -0.03583,0 -0.272851,0.0937 l 0.190169,0.0193 q 0.01102,0 0.311436,-0.0827 z m -0.388606,-0.0882 -0.843359,-0.61185 v 0.67524 l 0.471289,0.0827 z m 0.854383,0.0496 q -0.09922,0.006 -0.2949,0.0386 -0.01102,0.003 -0.377583,0.17639 -0.129535,0.34726 -0.380338,1.0418 z m -2.543857,-1.39733 -0.719335,-0.28388 0.124023,0.51814 z m -0.802018,-0.45476 v -0.41065 l -0.366557,0.44648 z m 1.515841,1.07212 -0.592556,-0.54019 -0.683506,0.2756 0.380338,0.9288 z m 0.369314,0.94257 q -0.03307,-0.003 -0.135047,-0.0248 -0.08544,-0.0165 -0.137804,-0.0165 -0.05237,0 -0.137804,0.0165 -0.101975,0.0221 -0.135047,0.0248 0.264583,0.0469 0.272851,0.0469 0.0083,0 0.272851,-0.0469 z m -0.30868,-0.1378 v -0.68626 l -0.843359,0.61185 0.37207,0.14607 z m 0.950846,0.20671 -0.396875,-0.0551 -0.479557,0.14056 v 1.27607 z m -2.888366,-2.20211 q -0.118512,0.0854 -0.234267,0.17364 -0.146072,0.10748 -0.209461,0.19568 -0.0441,0.10473 -0.135048,0.31419 0.369314,-0.3638 0.578776,-0.68351 z m 0.476801,0.83234 -0.159853,-0.61461 -0.410655,0.0634 -0.316948,0.90399 z m 0.394118,1.08313 -0.363802,-0.87918 -0.355533,0.63114 q 0.43546,0.2508 0.451996,0.2508 0.09095,0 0.267339,-0.003 z m 1.821765,0.82958 q -0.132291,0.21222 -0.405143,0.6339 -0.07717,0.10749 -0.220486,0.32797 -0.05788,0.10473 -0.05512,0.226 0.159852,-0.15158 0.432704,-0.49609 0.07717,-0.12954 0.140559,-0.339 0.05512,-0.17639 0.107486,-0.35278 z m -1.493792,-0.66146 -0.270095,-0.0882 -0.0083,-0.011 q -0.02481,0 -0.107487,0.011 -0.06615,0.006 -0.107487,0.006 0.272851,0.091 0.311436,0.091 0.02481,0 0.181901,-0.008 z m -0.810286,-1.06384 h -0.03032 l -0.7717,0.3197 q 0.06615,0.0965 0.223242,0.23978 0.07717,0.0138 0.234266,0.0469 z m -0.689018,-0.50161 q -0.341754,0.34727 -0.341754,0.39412 0,0.0799 0.06339,0.30868 h 0.04961 z m 2.235176,3.04547 v -1.27607 l -0.479557,-0.14056 -0.396875,0.0551 z m -1.606791,-1.6757 q -0.256315,-0.1819 -0.457509,-0.22324 0.06615,0.0772 0.20395,0.22324 z m 1.609547,2.04501 v -0.1378 l -0.683507,-1.05007 q 0.05237,0.17639 0.107487,0.35278 0.06339,0.20946 0.14056,0.339 0.0689,0.11851 0.20395,0.25907 0.115755,0.11851 0.23151,0.23702 z m -0.644921,-0.70555 q -0.115756,-0.32798 -0.380339,-1.0418 -0.135047,-0.0662 -0.272851,-0.12954 -0.159852,-0.0716 -0.289388,-0.0716 -0.05237,0 -0.110243,-0.0138 z" style="stroke-width:0;fill:#0000ff;stroke:#2e2114;stroke-linecap:square;stroke-opacity:1" />
        <path id="model_name" d="M4.38961 8.15126Q4.31976 8.15126 4.27708 8.10469Q4.23439 8.05812 4.23439 7.99604V2.56326Q4.23439 2.50117 4.28096 2.4546Q4.32753 2.40804 4.38961 2.40804Q4.45946 2.40804 4.50215 2.4546Q4.54484 2.50117 4.54484 2.56326V7.99604Q4.54484 8.05812 4.49827 8.10469Q4.4517 8.15126 4.38961 8.15126ZM9.2015 4.43369V7.99604Q9.2015 8.05812 9.15494 8.10469Q9.10837 8.15126 9.04628 8.15126Q8.97643 8.15126 8.93374 8.10469Q8.89106 8.05812 8.89106 7.99604V7.29754Q8.69703 7.69335 8.29345 7.96111Q7.88988 8.22887 7.40093 8.22887Q6.88869 8.22887 6.47735 7.96111Q6.06601 7.69335 5.83318 7.22381Q5.60035 6.75426 5.60035 6.17217Q5.60035 5.59785 5.83706 5.13607Q6.07378 4.67428 6.48511 4.41428Q6.89645 4.15429 7.40093 4.15429Q7.9054 4.15429 8.30898 4.41816Q8.71255 4.68204 8.89106 5.12443V4.43369Q8.89106 4.3716 8.93374 4.32503Q8.97643 4.27846 9.04628 4.27846Q9.11613 4.27846 9.15882 4.32503Q9.2015 4.3716 9.2015 4.43369ZM8.9221 6.17217Q8.9221 5.69875 8.72808 5.30293Q8.53405 4.90711 8.18868 4.67816Q7.84331 4.44921 7.41645 4.44921Q6.98959 4.44921 6.64422 4.6704Q6.29885 4.89159 6.10482 5.28353Q5.91079 5.67546 5.91079 6.17217Q5.91079 6.66889 6.10482 7.07246Q6.29885 7.47604 6.64034 7.70499Q6.98183 7.93395 7.41645 7.93395Q7.84331 7.93395 8.18868 7.70499Q8.53405 7.47604 8.72808 7.07246Q8.9221 6.66889 8.9221 6.17217ZM12.6009 4.33279Q12.6009 4.40264 12.5621 4.44921Q12.5233 4.49578 12.4612 4.49578Q12.4379 4.49578 12.3486 4.46085Q12.2594 4.42592 12.1585 4.42592Q11.8403 4.42592 11.5221 4.67816Q11.2039 4.9304 11.0021 5.31457Q10.8003 5.69875 10.8003 6.05576V7.99604Q10.8003 8.05812 10.7537 8.10469Q10.7072 8.15126 10.6451 8.15126Q10.5752 8.15126 10.5325 8.10469Q10.4898 8.05812 10.4898 7.99604V4.43369Q10.4898 4.3716 10.5364 4.32503Q10.583 4.27846 10.6451 4.27846Q10.7149 4.27846 10.7576 4.32503Q10.8003 4.3716 10.8003 4.43369V5.25636Q10.9788 4.78294 11.3552 4.47249Q11.7316 4.16205 12.2439 4.15429Q12.6009 4.15429 12.6009 4.33279ZM16.4349 7.99604Q16.4349 8.06589 16.3766 8.10857Q16.3184 8.15126 16.2796 8.15126Q16.2175 8.15126 16.1632 8.09693L14.3471 6.16441L13.6952 6.70769V7.99604Q13.6952 8.05812 13.6525 8.10469Q13.6098 8.15126 13.54 8.15126Q13.4701 8.15126 13.4274 8.10469Q13.3847 8.05812 13.3847 7.99604V2.56326Q13.3847 2.50117 13.4274 2.4546Q13.4701 2.40804 13.54 2.40804Q13.6098 2.40804 13.6525 2.4546Q13.6952 2.50117 13.6952 2.56326V6.31964L16.1322 4.27846Q16.1787 4.2319 16.2331 4.2319Q16.2952 4.2319 16.3417 4.27846Q16.3883 4.32503 16.3883 4.39488Q16.3883 4.46473 16.334 4.5113L14.5877 5.96262L16.3883 7.87962Q16.4349 7.92619 16.4349 7.99604Z" style="display:inline;stroke:#000000;stroke-width:0.35;stroke-linecap:round;stroke-linejoin:bevel" />
        <path id="speed_art" d="M 0.38,51.00 L 0.38,17.00 A 4 4 0 0 1 4.38 13 L 15.94,13.00 A 4 4 0 0 1 19.94 17 L 19.94,13.00 L 19.94,51.00 z" style="fill:url(#gradient_blue);fill-opacity:1;stroke-width:0;" />
        <path id="chaos_art" d="M 0.38,82.00 L 0.38,48.00 A 4 4 0 0 1 4.38 44 L 15.94,44.00 A 4 4 0 0 1 19.94 48 L 19.94,44.00 L 19.94,82.00 z" style="fill:url(#gradient_purple);fill-opacity:1;stroke-width:0;" />
        <path id="out_art" d="M 0.38,113.60 L 0.38,80.00 A 4 4 0 0 1 4.38 76 L 15.94,76.00 A 4 4 0 0 1 19.94 80 L 19.94,76.00 L 19.94,113.60 z" style="fill:url(#gradient_out);fill-opacity:1;stroke-width:0;" />
        <path d="M5.0165 17.7137Q4.99533 17.6925 4.99533 17.6608Q4.99533 17.6326 5.02003 17.6061Q5.04472 17.5796 5.07294 17.5796Q5.10469 17.5796 5.13292 17.6114Q5.2705 17.7737 5.45924 17.8583Q5.64797 17.943 5.85611 17.943Q6.12775 17.943 6.30414 17.8125Q6.48053 17.6819 6.48053 17.4668Q6.477 17.2974 6.38881 17.1881Q6.30061 17.0787 6.17185 17.0134Q6.04308 16.9482 5.82083 16.867Q5.57742 16.7753 5.4416 16.7048Q5.30578 16.6342 5.20876 16.5037Q5.11175 16.3731 5.11175 16.1615Q5.11175 15.9886 5.207 15.8475Q5.30225 15.7064 5.47864 15.6253Q5.65503 15.5441 5.88786 15.5441Q6.096 15.5441 6.28297 15.62Q6.46994 15.6958 6.57931 15.8334Q6.61458 15.8828 6.61458 15.9075Q6.61458 15.9357 6.58813 15.9586Q6.56167 15.9816 6.52992 15.9816Q6.50169 15.9816 6.48406 15.9604Q6.38528 15.8334 6.23006 15.7593Q6.07483 15.6852 5.88786 15.6852Q5.61975 15.6852 5.4416 15.8122Q5.26344 15.9392 5.26344 16.1579Q5.26344 16.3096 5.34988 16.4155Q5.43631 16.5213 5.56683 16.5866Q5.69736 16.6518 5.89139 16.7224Q6.13833 16.8106 6.28297 16.8847Q6.42761 16.9588 6.52992 17.0999Q6.63222 17.241 6.63222 17.4738Q6.63222 17.6361 6.53697 17.7772Q6.44172 17.9183 6.26357 18.0012Q6.08542 18.0841 5.85611 18.0841Q5.59506 18.0841 5.40103 17.9942Q5.207 17.9042 5.0165 17.7137ZM8.74889 16.2532Q8.74889 16.4507 8.66599 16.6113Q8.58308 16.7718 8.43139 16.8617Q8.27969 16.9517 8.08214 16.9517H7.31308V17.9783Q7.31308 18.0065 7.29015 18.0277Q7.26722 18.0488 7.239 18.0488Q7.20725 18.0488 7.18608 18.0277Q7.16492 18.0065 7.16492 17.9783V15.6499Q7.16492 15.6217 7.18608 15.6006Q7.20725 15.5794 7.23547 15.5794H8.08214Q8.382 15.5794 8.56544 15.7664Q8.74889 15.9533 8.74889 16.2532ZM8.60072 16.2532Q8.60072 16.0098 8.46138 15.8651Q8.32203 15.7205 8.08214 15.7205H7.31308V16.8106H8.08214Q8.3185 16.8106 8.45961 16.6536Q8.60072 16.4966 8.60072 16.2532ZM10.7315 17.9783Q10.7315 18.01 10.7103 18.0294Q10.6892 18.0488 10.6609 18.0488H9.33097Q9.30275 18.0488 9.28158 18.0277Q9.26042 18.0065 9.26042 17.9783V15.6499Q9.26042 15.6217 9.28158 15.6006Q9.30275 15.5794 9.33097 15.5794H10.6609Q10.6892 15.5794 10.7103 15.6006Q10.7315 15.6217 10.7315 15.6499Q10.7315 15.6817 10.7103 15.7011Q10.6892 15.7205 10.6609 15.7205H9.40858V16.7048H10.5022Q10.5304 16.7048 10.5516 16.7259Q10.5728 16.7471 10.5728 16.7753Q10.5728 16.8071 10.5516 16.8265Q10.5304 16.8459 10.5022 16.8459H9.40858V17.9077H10.6609Q10.6892 17.9077 10.7103 17.9289Q10.7315 17.9501 10.7315 17.9783ZM12.7317 17.9783Q12.7317 18.01 12.7106 18.0294Q12.6894 18.0488 12.6612 18.0488H11.3312Q11.303 18.0488 11.2818 18.0277Q11.2607 18.0065 11.2607 17.9783V15.6499Q11.2607 15.6217 11.2818 15.6006Q11.303 15.5794 11.3312 15.5794H12.6612Q12.6894 15.5794 12.7106 15.6006Q12.7317 15.6217 12.7317 15.6499Q12.7317 15.6817 12.7106 15.7011Q12.6894 15.7205 12.6612 15.7205H11.4088V16.7048H12.5024Q12.5307 16.7048 12.5518 16.7259Q12.573 16.7471 12.573 16.7753Q12.573 16.8071 12.5518 16.8265Q12.5307 16.8459 12.5024 16.8459H11.4088V17.9077H12.6612Q12.6894 17.9077 12.7106 17.9289Q12.7317 17.9501 12.7317 17.9783ZM15.2718 16.8141Q15.2718 17.1634 15.1606 17.4421Q15.0495 17.7208 14.8202 17.8848Q14.5909 18.0488 14.2487 18.0488H13.3315Q13.3033 18.0488 13.2821 18.0277Q13.2609 18.0065 13.2609 17.9783V15.6499Q13.2609 15.6217 13.2821 15.6006Q13.3033 15.5794 13.3315 15.5794H14.2487Q14.5874 15.5794 14.8184 15.7487Q15.0495 15.9181 15.1606 16.1985Q15.2718 16.479 15.2718 16.8141ZM15.1236 16.8141Q15.1236 16.5143 15.0266 16.2655Q14.9296 16.0168 14.7267 15.8687Q14.5239 15.7205 14.2134 15.7205H13.4091V17.9077H14.2134Q14.672 17.9077 14.8978 17.6061Q15.1236 17.3045 15.1236 16.8141Z" style="stroke:#000000;stroke-width:0.25;stroke-linecap:round;stroke-linejoin:bevel" />
        <path d="M 10.16,26.00 L 5.16,37.00 z L 15.16,37.00 z " style="stroke:#000000;stroke-width:0.25;stroke-linecap:round;stroke-linejoin:bevel;stroke-dasharray:none" />
        <path d="M6.46465 46.8404Q6.46465 46.8687 6.45054 46.8863Q6.42938 46.9145 6.39762 46.9145Q6.38351 46.9145 6.35529 46.9004Q6.02721 46.6782 5.66032 46.6782Q5.36399 46.6782 5.11528 46.8246Q4.86657 46.971 4.72193 47.2303Q4.57729 47.4896 4.57729 47.8141Q4.57729 48.1387 4.72193 48.398Q4.86657 48.6572 5.11528 48.8037Q5.36399 48.9501 5.66032 48.9501Q6.03074 48.9501 6.35176 48.7313Q6.3694 48.7172 6.3941 48.7172Q6.42938 48.7172 6.45054 48.7454Q6.46465 48.7631 6.46465 48.7878Q6.46465 48.8231 6.43643 48.8442Q6.29885 48.943 6.08189 49.0136Q5.86493 49.0841 5.66032 49.0841Q5.32518 49.0841 5.04296 48.9183Q4.76074 48.7525 4.59493 48.4615Q4.42912 48.1704 4.42912 47.8141Q4.42912 47.4578 4.59493 47.1668Q4.76074 46.8757 5.04296 46.7099Q5.32518 46.5441 5.66032 46.5441Q5.87199 46.5441 6.07131 46.6076Q6.27062 46.6711 6.4329 46.784Q6.46465 46.8087 6.46465 46.8404ZM8.77535 46.6535V48.9747Q8.77182 49.0065 8.75065 49.0277Q8.72949 49.0488 8.70126 49.0488Q8.66599 49.0488 8.64658 49.0277Q8.62718 49.0065 8.62718 48.9747V47.8494H7.08907V48.9747Q7.08554 49.0065 7.06438 49.0277Q7.04321 49.0488 7.01499 49.0488Q6.97971 49.0488 6.96031 49.0277Q6.9409 49.0065 6.9409 48.9747V46.6535Q6.9409 46.6217 6.96207 46.6006Q6.98324 46.5794 7.01499 46.5794Q7.04674 46.5794 7.0679 46.6006Q7.08907 46.6217 7.08907 46.6535V47.7083H8.62718V46.6535Q8.62718 46.6217 8.64835 46.6006Q8.66951 46.5794 8.70126 46.5794Q8.73301 46.5794 8.75418 46.6006Q8.77535 46.6217 8.77535 46.6535ZM11.2942 48.9818Q11.2942 49.0136 11.273 49.0312Q11.2518 49.0488 11.2201 49.0488Q11.1954 49.0488 11.176 49.0365Q11.1566 49.0241 11.1495 49.003L10.8532 48.2762L10.8567 48.2833H9.67493L9.38918 49.003Q9.37154 49.0488 9.32568 49.0488Q9.29393 49.0488 9.27453 49.0312Q9.25513 49.0136 9.2516 48.9889Q9.24807 48.9747 9.25513 48.9536L10.2041 46.6182Q10.2147 46.59 10.2306 46.5812Q10.2464 46.5723 10.2711 46.5723Q10.324 46.5723 10.3417 46.6182L11.2907 48.9536Q11.2942 48.9642 11.2942 48.9818ZM9.73137 48.1422H10.8003L10.2605 46.8122ZM12.7723 49.0841Q12.4301 49.0841 12.162 48.9236Q11.8939 48.7631 11.744 48.4738Q11.594 48.1845 11.594 47.8141Q11.594 47.4437 11.744 47.1544Q11.8939 46.8651 12.162 46.7046Q12.4301 46.5441 12.7723 46.5441Q13.1145 46.5441 13.3826 46.7046Q13.6507 46.8651 13.8007 47.1544Q13.9506 47.4437 13.9506 47.8141Q13.9506 48.1845 13.8007 48.4738Q13.6507 48.7631 13.3826 48.9236Q13.1145 49.0841 12.7723 49.0841ZM12.7723 46.6852Q12.4725 46.6852 12.2379 46.8263Q12.0033 46.9674 11.8727 47.225Q11.7422 47.4825 11.7422 47.8141Q11.7422 48.1457 11.8727 48.4032Q12.0033 48.6608 12.2379 48.8019Q12.4725 48.943 12.7723 48.943Q13.0722 48.943 13.3068 48.8019Q13.5414 48.6608 13.6719 48.4032Q13.8024 48.1457 13.8024 47.8141Q13.8024 47.4825 13.6719 47.225Q13.5414 46.9674 13.3068 46.8263Q13.0722 46.6852 12.7723 46.6852ZM14.2716 48.7137Q14.2505 48.6925 14.2505 48.6608Q14.2505 48.6326 14.2752 48.6061Q14.2998 48.5796 14.3281 48.5796Q14.3598 48.5796 14.388 48.6114Q14.5256 48.7737 14.7144 48.8583Q14.9031 48.943 15.1112 48.943Q15.3829 48.943 15.5593 48.8125Q15.7357 48.6819 15.7357 48.4667Q15.7321 48.2974 15.6439 48.1881Q15.5557 48.0787 15.427 48.0134Q15.2982 47.9482 15.076 47.867Q14.8325 47.7753 14.6967 47.7047Q14.5609 47.6342 14.4639 47.5037Q14.3669 47.3731 14.3669 47.1615Q14.3669 46.9886 14.4621 46.8475Q14.5574 46.7064 14.7338 46.6252Q14.9102 46.5441 15.143 46.5441Q15.3511 46.5441 15.5381 46.62Q15.7251 46.6958 15.8344 46.8334Q15.8697 46.8828 15.8697 46.9075Q15.8697 46.9357 15.8433 46.9586Q15.8168 46.9816 15.785 46.9816Q15.7568 46.9816 15.7392 46.9604Q15.6404 46.8334 15.4852 46.7593Q15.33 46.6852 15.143 46.6852Q14.8749 46.6852 14.6967 46.8122Q14.5186 46.9392 14.5186 47.1579Q14.5186 47.3096 14.605 47.4155Q14.6914 47.5213 14.822 47.5866Q14.9525 47.6518 15.1465 47.7224Q15.3935 47.8106 15.5381 47.8847Q15.6827 47.9587 15.785 48.0999Q15.8873 48.241 15.8873 48.4738Q15.8873 48.6361 15.7921 48.7772Q15.6968 48.9183 15.5187 49.0012Q15.3405 49.0841 15.1112 49.0841Q14.8502 49.0841 14.6562 48.9942Q14.4621 48.9042 14.2716 48.7137Z" style="stroke:#000000;stroke-width:0.25;stroke-linecap:round;stroke-linejoin:bevel" />
        <path d="M 10.16,57.00 L 5.16,68.00 z L 15.16,68.00 z " style="stroke:#000000;stroke-width:0.25;stroke-linecap:round;stroke-linejoin:bevel;stroke-dasharray:none" />
        <path id="out_label" d="M7.61467 81.1495Q7.27247 81.1495 7.00436 80.989Q6.73625 80.8285 6.58632 80.5392Q6.43639 80.2499 6.43639 79.8795Q6.43639 79.5091 6.58632 79.2198Q6.73625 78.9305 7.00436 78.77Q7.27247 78.6095 7.61467 78.6095Q7.95686 78.6095 8.22497 78.77Q8.49308 78.9305 8.64301 79.2198Q8.79294 79.5091 8.79294 79.8795Q8.79294 80.2499 8.64301 80.5392Q8.49308 80.8285 8.22497 80.989Q7.95686 81.1495 7.61467 81.1495ZM7.61467 78.7506Q7.31481 78.7506 7.08021 78.8917Q6.84561 79.0328 6.71508 79.2903Q6.58456 79.5479 6.58456 79.8795Q6.58456 80.2111 6.71508 80.4686Q6.84561 80.7262 7.08021 80.8673Q7.31481 81.0084 7.61467 81.0084Q7.91453 81.0084 8.14912 80.8673Q8.38372 80.7262 8.51425 80.4686Q8.64478 80.2111 8.64478 79.8795Q8.64478 79.5479 8.51425 79.2903Q8.38372 79.0328 8.14912 78.8917Q7.91453 78.7506 7.61467 78.7506ZM11.1389 78.7153V80.2393Q11.1389 80.4863 11.0154 80.6944Q10.892 80.9025 10.6838 81.026Q10.4757 81.1495 10.2323 81.1495Q9.98533 81.1495 9.77719 81.026Q9.56906 80.9025 9.44558 80.6944Q9.32211 80.4863 9.32211 80.2393V78.7153Q9.32211 78.6836 9.34328 78.6642Q9.36444 78.6448 9.39619 78.6448Q9.42794 78.6448 9.44911 78.6659Q9.47028 78.6871 9.47028 78.7153V80.2393Q9.47028 80.4475 9.57258 80.6238Q9.67489 80.8002 9.84951 80.9043Q10.0241 81.0084 10.2323 81.0084Q10.4404 81.0084 10.615 80.9043Q10.7897 80.8002 10.8937 80.6238Q10.9978 80.4475 10.9978 80.2393V78.7153Q10.9978 78.6871 11.0172 78.6659Q11.0366 78.6448 11.0684 78.6448Q11.1001 78.6448 11.1195 78.6659Q11.1389 78.6871 11.1389 78.7153ZM13.4708 78.7118Q13.4708 78.7435 13.4514 78.7612Q13.432 78.7788 13.4002 78.7788H12.6135V81.0437Q12.6135 81.0719 12.5924 81.093Q12.5712 81.1142 12.543 81.1142Q12.5112 81.1142 12.4918 81.093Q12.4724 81.0719 12.4724 81.0437V78.7788H11.6857Q11.6575 78.7788 11.6363 78.7594Q11.6152 78.74 11.6152 78.7118Q11.6152 78.6836 11.6363 78.6642Q11.6575 78.6448 11.6857 78.6448H13.4002Q13.4284 78.6448 13.4496 78.6642Q13.4708 78.6836 13.4708 78.7118Z" style="stroke:#000000;stroke-width:0.25;stroke-linecap:round;stroke-linejoin:bevel" />
        <path id="port_label_x" d="M4.61439 89.1119Q4.63203 89.1366 4.63203 89.1542Q4.63203 89.186 4.61086 89.2054Q4.58969 89.2248 4.55794 89.2248Q4.51914 89.2248 4.5015 89.1966L3.69364 88.0959L2.88931 89.1966Q2.87167 89.2248 2.83639 89.2248Q2.80464 89.2248 2.787 89.2054Q2.76936 89.186 2.76936 89.1648Q2.76936 89.1472 2.787 89.119L3.61603 87.9865L2.77994 86.8471Q2.76583 86.8294 2.76583 86.8047Q2.76583 86.773 2.787 86.7536Q2.80817 86.7342 2.83639 86.7342Q2.87872 86.7342 2.89636 86.7624L3.70422 87.8666L4.50856 86.7589Q4.52972 86.7307 4.56147 86.7307Q4.59322 86.7307 4.61262 86.7465Q4.63203 86.7624 4.63203 86.7871Q4.63203 86.8118 4.61439 86.8365L3.78536 87.9795Z" style="stroke:#000000;stroke-width:0.25;stroke-linecap:round;stroke-linejoin:bevel" />
        <path id="port_label_y" d="M4.50503 95.8435 3.70069 96.9372V98.1437Q3.70069 98.1719 3.67953 98.193Q3.65836 98.2142 3.62661 98.2142Q3.59486 98.2142 3.57369 98.193Q3.55253 98.1719 3.55253 98.1437V96.9513L2.74467 95.8435Q2.73056 95.8259 2.73056 95.7977Q2.73056 95.773 2.75349 95.7518Q2.77642 95.7307 2.80464 95.7307Q2.84344 95.7307 2.86461 95.7624L3.62661 96.8031L4.38861 95.7624Q4.40978 95.7307 4.44858 95.7307Q4.48033 95.7307 4.49974 95.7536Q4.51914 95.7765 4.51914 95.7977Q4.51914 95.8153 4.50503 95.8435Z" style="stroke:#000000;stroke-width:0.25;stroke-linecap:round;stroke-linejoin:bevel" />
        <path id="port_label_z" d="M4.74844 107.147Q4.74844 107.175 4.72728 107.195Q4.70611 107.214 4.67789 107.214H2.94222Q2.91047 107.214 2.89107 107.191Q2.87167 107.168 2.87167 107.14Q2.87167 107.115 2.88578 107.098L4.55089 104.879H3.01278Q2.98456 104.879 2.96339 104.859Q2.94222 104.84 2.94222 104.812Q2.94222 104.784 2.96339 104.764Q2.98456 104.745 3.01278 104.745H4.67083Q4.71317 104.745 4.73257 104.766Q4.75197 104.787 4.75197 104.815Q4.75197 104.84 4.73786 104.858L3.07628 107.08H4.67789Q4.70611 107.08 4.72728 107.101Q4.74844 107.122 4.74844 107.147Z" style="stroke:#000000;stroke-width:0.25;stroke-linecap:round;stroke-linejoin:bevel" />
        <path id="port_label_p" d="M4.59675 114.419Q4.59675 114.616 4.51385 114.777Q4.43094 114.937 4.27925 115.027Q4.12756 115.117 3.93 115.117H3.16094V116.144Q3.16094 116.172 3.13801 116.193Q3.11508 116.214 3.08686 116.214Q3.05511 116.214 3.03394 116.193Q3.01278 116.172 3.01278 116.144V113.815Q3.01278 113.787 3.03394 113.766Q3.05511 113.745 3.08333 113.745H3.93Q4.22986 113.745 4.41331 113.932Q4.59675 114.119 4.59675 114.419ZM4.44858 114.419Q4.44858 114.175 4.30924 114.031Q4.16989 113.886 3.93 113.886H3.16094V114.976H3.93Q4.16636 114.976 4.30747 114.819Q4.44858 114.662 4.44858 114.419Z" style="stroke:#000000;stroke-width:0.25;stroke-linecap:round;stroke-linejoin:bevel" />
        <path d="M 14.71,117.62 L 10.16,120.25 L 5.61,117.62 L 5.61,112.38 L 10.16,109.75 L 14.71,112.38 z " style="stroke:#000000;fill:#2455a6;stroke-width:0.15;stroke-linecap:round;stroke-linejoin:round;stroke-dasharray:none" />
    </g>
</svg>
