<?xml version="1.0" encoding="utf-8"?>
<svg xmlns="http://www.w3.org/2000/svg" width="4.00mm" height="4.00mm" viewBox="0 0 4.00 4.00">
    <path d="M2.80791 3.41817Q2.80791 3.45203 2.78463 3.47532Q2.76134 3.4986 2.72748 3.4986Q2.69361 3.4986 2.65128 3.4732L1.13151 2.61383Q1.08071 2.58843 1.06166 2.5588Q1.04261 2.52917 1.04261 2.4826Q1.04261 2.44027 1.06801 2.41063Q1.09341 2.381 1.14844 2.35137L2.63434 1.50893Q2.66821 1.48777 2.70208 1.48777H2.71054Q2.74864 1.48777 2.77193 1.51105Q2.79521 1.53433 2.79521 1.56397Q2.79521 1.6317 2.72748 1.66557L1.24158 2.49107L2.70631 3.30387Q2.76558 3.3335 2.78674 3.35678Q2.80791 3.38007 2.80791 3.41817Z" style="stroke:#000000;stroke-width:0.25;stroke-linecap:round;stroke-linejoin:bevel" />
</svg>
