<?xml version="1.0" encoding="utf-8"?>
<svg xmlns="http://www.w3.org/2000/svg" width="30.48mm" height="128.50mm" viewBox="0 0 30.48 128.50">
    <g id="PanelLayer">
        <defs />
        <rect id="border_rect" width="30.48" height="128.5" x="0" y="0" style="display:inline;fill:#4f8df2;fill-opacity:1;stroke:none;" />
        <path d="M 6.24,22.00 L 24.24,22.00 z " style="stroke:#000000;stroke-width:0.25;stroke-linecap:round;stroke-linejoin:bevel;stroke-dasharray:none" />
        <path d="M13.2786 14.3464Q13.2786 14.3782 13.2592 14.3958Q13.2398 14.4134 13.208 14.4134H12.4213V16.6783Q12.4213 16.7065 12.4001 16.7277Q12.379 16.7488 12.3507 16.7488Q12.319 16.7488 12.2996 16.7277Q12.2802 16.7065 12.2802 16.6783V14.4134H11.4935Q11.4653 14.4134 11.4441 14.394Q11.4229 14.3746 11.4229 14.3464Q11.4229 14.3182 11.4441 14.2988Q11.4653 14.2794 11.4935 14.2794H13.208Q13.2362 14.2794 13.2574 14.2988Q13.2786 14.3182 13.2786 14.3464ZM13.8289 16.7488Q13.7936 16.7488 13.7742 16.7277Q13.7548 16.7065 13.7548 16.6747V14.3535Q13.7548 14.3217 13.776 14.3006Q13.7971 14.2794 13.8289 14.2794Q13.8606 14.2794 13.8818 14.3006Q13.903 14.3217 13.903 14.3535V16.6747Q13.8994 16.7065 13.8783 16.7277Q13.8571 16.7488 13.8289 16.7488ZM16.8275 14.3499V16.6783Q16.8275 16.7065 16.8046 16.7277Q16.7816 16.7488 16.7534 16.7488Q16.7217 16.7488 16.7005 16.7277Q16.6793 16.7065 16.6793 16.6783V14.5687L15.7692 15.9445Q15.7515 15.9727 15.7198 15.9727Q15.681 15.9727 15.6633 15.9445L14.7496 14.5651V16.6783Q14.7496 16.7065 14.7285 16.7277Q14.7073 16.7488 14.6791 16.7488Q14.6473 16.7488 14.6279 16.7277Q14.6085 16.7065 14.6085 16.6783V14.3499Q14.6085 14.3253 14.6279 14.3023Q14.6473 14.2794 14.6756 14.2794Q14.7214 14.2794 14.7426 14.3111L15.7198 15.7646L16.697 14.3111Q16.7252 14.2723 16.764 14.2794Q16.7922 14.2829 16.8099 14.3023Q16.8275 14.3217 16.8275 14.3499ZM19.0041 16.6783Q19.0041 16.71 18.983 16.7294Q18.9618 16.7488 18.9336 16.7488H17.6036Q17.5754 16.7488 17.5542 16.7277Q17.5331 16.7065 17.5331 16.6783V14.3499Q17.5331 14.3217 17.5542 14.3006Q17.5754 14.2794 17.6036 14.2794H18.9336Q18.9618 14.2794 18.983 14.3006Q19.0041 14.3217 19.0041 14.3499Q19.0041 14.3817 18.983 14.4011Q18.9618 14.4205 18.9336 14.4205H17.6812V15.4047H18.7748Q18.8031 15.4047 18.8242 15.4259Q18.8454 15.4471 18.8454 15.4753Q18.8454 15.5071 18.8242 15.5265Q18.8031 15.5459 18.7748 15.5459H17.6812V16.6077H18.9336Q18.9618 16.6077 18.983 16.6289Q19.0041 16.6501 19.0041 16.6783Z" style="stroke:#000000;stroke-width:0.25;stroke-linecap:round;stroke-linejoin:bevel" />
        <path d="M 6.24,38.25 L 24.24,38.25 z " style="stroke:#000000;stroke-width:0.25;stroke-linecap:round;stroke-linejoin:bevel;stroke-dasharray:none" />
        <path d="M12.4442 30.5999Q12.4442 30.6317 12.4231 30.6511Q12.4019 30.6705 12.3737 30.6705H11.1143V31.6442H12.2149Q12.2432 31.6442 12.2643 31.6653Q12.2855 31.6865 12.2855 31.7147Q12.2855 31.7465 12.2643 31.7659Q12.2432 31.7853 12.2149 31.7853H11.1143V32.9283Q11.1143 32.9565 11.0949 32.9777Q11.0755 32.9988 11.0437 32.9988Q11.012 32.9988 10.9926 32.9777Q10.9732 32.9565 10.9732 32.9283V30.5999Q10.9732 30.5717 10.9943 30.5506Q11.0155 30.5294 11.0437 30.5294H12.3737Q12.4019 30.5294 12.4231 30.5506Q12.4442 30.5717 12.4442 30.5999ZM14.9842 31.7641Q14.9842 32.1134 14.8731 32.3921Q14.762 32.6707 14.5327 32.8348Q14.3034 32.9988 13.9612 32.9988H13.044Q13.0157 32.9988 12.9946 32.9777Q12.9734 32.9565 12.9734 32.9283V30.5999Q12.9734 30.5717 12.9946 30.5506Q13.0157 30.5294 13.044 30.5294H13.9612Q14.2998 30.5294 14.5309 30.6987Q14.762 30.8681 14.8731 31.1485Q14.9842 31.429 14.9842 31.7641ZM14.8361 31.7641Q14.8361 31.4642 14.7391 31.2155Q14.642 30.9668 14.4392 30.8187Q14.2363 30.6705 13.9259 30.6705H13.1216V32.8577H13.9259Q14.3845 32.8577 14.6103 32.5561Q14.8361 32.2545 14.8361 31.7641ZM17.2773 32.3321Q17.2773 32.6531 17.0744 32.826Q16.8716 32.9988 16.5576 32.9988H15.584Q15.5557 32.9988 15.5346 32.9777Q15.5134 32.9565 15.5134 32.9283V30.5999Q15.5134 30.5717 15.5346 30.5506Q15.5557 30.5294 15.584 30.5294H16.5329Q16.8152 30.5294 16.9845 30.6917Q17.1538 30.8539 17.1538 31.1291Q17.1538 31.3267 17.055 31.4872Q16.9563 31.6477 16.7799 31.7077Q17.0057 31.75 17.1415 31.9123Q17.2773 32.0746 17.2773 32.3321ZM16.5153 30.6705H15.6616V31.6618H16.5153Q16.734 31.6583 16.8698 31.5189Q17.0057 31.3796 17.0057 31.1256Q17.0057 30.9174 16.8769 30.794Q16.7481 30.6705 16.5153 30.6705ZM17.1291 32.3321Q17.1291 32.071 16.9668 31.9387Q16.8046 31.8064 16.54 31.8064H15.6616V32.8577H16.54Q16.8046 32.8577 16.9668 32.7254Q17.1291 32.5931 17.1291 32.3321ZM19.6727 32.9424Q19.6727 32.9812 19.6462 32.9988Q19.6197 33.0165 19.5915 33.0165Q19.5633 33.0165 19.5421 32.9918L18.4838 31.683L17.9546 32.1733V32.9247Q17.9511 32.9565 17.9299 32.9777Q17.9088 32.9988 17.8805 32.9988Q17.8453 32.9988 17.8259 32.9777Q17.8065 32.9565 17.8065 32.9247V30.6035Q17.8065 30.5717 17.8276 30.5506Q17.8488 30.5294 17.8805 30.5294Q17.9123 30.5294 17.9335 30.5506Q17.9546 30.5717 17.9546 30.6035V31.9934L19.4786 30.5647Q19.4998 30.5435 19.528 30.5435Q19.5562 30.5435 19.5774 30.5647Q19.5986 30.5858 19.5986 30.6141Q19.5986 30.6423 19.5774 30.6634L18.6002 31.5736L19.655 32.893Q19.6727 32.9177 19.6727 32.9424Z" style="stroke:#000000;stroke-width:0.25;stroke-linecap:round;stroke-linejoin:bevel" />
    </g>
</svg>
