<?xml version="1.0" encoding="utf-8"?>
<svg xmlns="http://www.w3.org/2000/svg" width="30.48mm" height="128.50mm" viewBox="0 0 30.48 128.50">
    <g id="PanelLayer">
        <defs>
            <linearGradient id="gradient_controls" x1="0" y1="22" x2="0" y2="100" gradientUnits="userSpaceOnUse">
                <stop style="stop-color:#3068ff;stop-opacity:1;" offset="0" />
                <stop style="stop-color:#4f8df2;stop-opacity:1;" offset="1" />
            </linearGradient>
            <linearGradient id="gradient_send_return" x1="0" y1="100" x2="0" y2="117" gradientUnits="userSpaceOnUse">
                <stop style="stop-color:#8a72cf;stop-opacity:1;" offset="0" />
                <stop style="stop-color:#4f8df2;stop-opacity:1;" offset="1" />
            </linearGradient>
        </defs>
        <rect id="border_rect" width="30.48" height="128.5" x="0" y="0" style="display:inline;fill:#4f8df2;fill-opacity:1;stroke:none;" />
        <path id="controls_art" d="M 0.24,100.00 L 0.24,16.00 A 4 4 0 0 1 4.24 12 L 26.24,12.00 A 4 4 0 0 1 30.24 16 L 30.24,12.00 L 30.24,100.00 z" style="fill:url(#gradient_controls);fill-opacity:1;stroke-width:0;" />
        <path id="send_return_art" d="M 0.24,117.00 L 0.24,94.00 A 4 4 0 0 1 4.24 90 L 26.24,90.00 A 4 4 0 0 1 30.24 94 L 30.24,90.00 L 30.24,117.00 z" style="fill:url(#gradient_send_return);fill-opacity:1;stroke-width:0;" />
        <path d="M 8.24,100.00 L 8.24,110.00 " style="stroke:#000000;stroke-width:0.25;stroke-linecap:round;stroke-linejoin:bevel;stroke-dasharray:none" fill="none" />
        <path d="M3.86556 94.4137Q3.84439 94.3925 3.84439 94.3608Q3.84439 94.3326 3.86908 94.3061Q3.89378 94.2796 3.922 94.2796Q3.95375 94.2796 3.98197 94.3114Q4.11956 94.4737 4.30829 94.5583Q4.49703 94.643 4.70517 94.643Q4.97681 94.643 5.15319 94.5125Q5.32958 94.3819 5.32958 94.1668Q5.32606 93.9974 5.23786 93.8881Q5.14967 93.7787 5.0209 93.7134Q4.89214 93.6482 4.66989 93.567Q4.42647 93.4753 4.29065 93.4048Q4.15483 93.3342 4.05782 93.2037Q3.96081 93.0731 3.96081 92.8615Q3.96081 92.6886 4.05606 92.5475Q4.15131 92.4064 4.32769 92.3253Q4.50408 92.2441 4.73692 92.2441Q4.94506 92.2441 5.13203 92.32Q5.319 92.3958 5.42836 92.5334Q5.46364 92.5828 5.46364 92.6075Q5.46364 92.6357 5.43718 92.6586Q5.41072 92.6816 5.37897 92.6816Q5.35075 92.6816 5.33311 92.6604Q5.23433 92.5334 5.07911 92.4593Q4.92389 92.3852 4.73692 92.3852Q4.46881 92.3852 4.29065 92.5122Q4.1125 92.6392 4.1125 92.8579Q4.1125 93.0096 4.19893 93.1155Q4.28536 93.2213 4.41589 93.2866Q4.54642 93.3518 4.74044 93.4224Q4.98739 93.5106 5.13203 93.5847Q5.27667 93.6587 5.37897 93.7999Q5.48128 93.941 5.48128 94.1738Q5.48128 94.3361 5.38603 94.4772Q5.29078 94.6183 5.11263 94.7012Q4.93447 94.7841 4.70517 94.7841Q4.44411 94.7841 4.25008 94.6942Q4.05606 94.6042 3.86556 94.4137ZM7.48506 94.6783Q7.48506 94.71 7.46389 94.7294Q7.44272 94.7488 7.4145 94.7488H6.08453Q6.05631 94.7488 6.03514 94.7277Q6.01397 94.7065 6.01397 94.6783V92.3499Q6.01397 92.3217 6.03514 92.3006Q6.05631 92.2794 6.08453 92.2794H7.4145Q7.44272 92.2794 7.46389 92.3006Q7.48506 92.3217 7.48506 92.3499Q7.48506 92.3817 7.46389 92.4011Q7.44272 92.4205 7.4145 92.4205H6.16214V93.4048H7.25575Q7.28397 93.4048 7.30514 93.4259Q7.32631 93.4471 7.32631 93.4753Q7.32631 93.5071 7.30514 93.5265Q7.28397 93.5459 7.25575 93.5459H6.16214V94.6077H7.4145Q7.44272 94.6077 7.46389 94.6289Q7.48506 94.6501 7.48506 94.6783ZM9.86631 92.3464V94.6712Q9.86631 94.71 9.84514 94.7294Q9.82397 94.7488 9.79222 94.7488Q9.75694 94.7488 9.73578 94.7206L8.14828 92.551V94.6889Q8.14828 94.7136 8.12888 94.7312Q8.10947 94.7488 8.08125 94.7488Q8.0495 94.7488 8.03186 94.7312Q8.01422 94.7136 8.01422 94.6889V92.3499Q8.01422 92.3147 8.03363 92.297Q8.05303 92.2794 8.07772 92.2794Q8.10947 92.2794 8.13064 92.3041L9.73225 94.4878V92.3464Q9.73225 92.3182 9.75165 92.2988Q9.77106 92.2794 9.79928 92.2794Q9.83103 92.2794 9.84867 92.2988Q9.86631 92.3182 9.86631 92.3464ZM12.5827 93.5141Q12.5827 93.8634 12.4716 94.1421Q12.3604 94.4207 12.1311 94.5848Q11.9018 94.7488 11.5596 94.7488H10.6424Q10.6142 94.7488 10.593 94.7277Q10.5719 94.7065 10.5719 94.6783V92.3499Q10.5719 92.3217 10.593 92.3006Q10.6142 92.2794 10.6424 92.2794H11.5596Q11.8983 92.2794 12.1294 92.4487Q12.3604 92.6181 12.4716 92.8985Q12.5827 93.179 12.5827 93.5141ZM12.4345 93.5141Q12.4345 93.2143 12.3375 92.9655Q12.2405 92.7168 12.0377 92.5687Q11.8348 92.4205 11.5244 92.4205H10.72V94.6077H11.5244Q11.983 94.6077 12.2088 94.3061Q12.4345 94.0045 12.4345 93.5141Z" style="stroke:#000000;stroke-width:0.25;stroke-linecap:round;stroke-linejoin:bevel" />
        <path d="M 22.24,100.00 L 22.24,110.00 " style="stroke:#000000;stroke-width:0.25;stroke-linecap:round;stroke-linejoin:bevel;stroke-dasharray:none" fill="none" />
        <path d="M19.7159 94.6748Q19.7159 94.7065 19.6965 94.7259Q19.6771 94.7453 19.6488 94.7453Q19.6277 94.7453 19.6171 94.7383Q19.5218 94.6853 19.4654 94.5601Q19.409 94.4349 19.409 94.1491Q19.409 93.8598 19.2537 93.7522Q19.0985 93.6446 18.8939 93.6446H18.0684V94.6783Q18.0684 94.7065 18.0472 94.7277Q18.0261 94.7488 17.9943 94.7488Q17.9626 94.7488 17.9414 94.7277Q17.9202 94.7065 17.9202 94.6783V92.3499Q17.9202 92.3217 17.9414 92.3006Q17.9626 92.2794 17.9908 92.2794H18.9221Q19.1267 92.2794 19.2855 92.3623Q19.4442 92.4452 19.5324 92.5898Q19.6206 92.7345 19.6206 92.9179Q19.6206 93.1543 19.4954 93.3236Q19.3702 93.4929 19.1691 93.5529Q19.3384 93.6058 19.4478 93.7628Q19.5571 93.9198 19.5571 94.1491Q19.5571 94.3855 19.5871 94.479Q19.6171 94.5724 19.6771 94.6112Q19.7159 94.6359 19.7159 94.6748ZM18.9398 93.5035Q19.162 93.4824 19.3172 93.3271Q19.4725 93.1719 19.4725 92.9214Q19.4725 92.7027 19.3172 92.5616Q19.162 92.4205 18.9045 92.4205H18.0684V93.5035ZM21.889 92.3464Q21.889 92.3782 21.8696 92.3958Q21.8502 92.4134 21.8184 92.4134H21.0317V94.6783Q21.0317 94.7065 21.0106 94.7277Q20.9894 94.7488 20.9612 94.7488Q20.9294 94.7488 20.91 94.7277Q20.8906 94.7065 20.8906 94.6783V92.4134H20.1039Q20.0757 92.4134 20.0545 92.394Q20.0334 92.3746 20.0334 92.3464Q20.0334 92.3182 20.0545 92.2988Q20.0757 92.2794 20.1039 92.2794H21.8184Q21.8467 92.2794 21.8678 92.2988Q21.889 92.3182 21.889 92.3464ZM24.1609 94.6748Q24.1609 94.7065 24.1415 94.7259Q24.1221 94.7453 24.0938 94.7453Q24.0727 94.7453 24.0621 94.7383Q23.9668 94.6853 23.9104 94.5601Q23.854 94.4349 23.854 94.1491Q23.854 93.8598 23.6987 93.7522Q23.5435 93.6446 23.3389 93.6446H22.5134V94.6783Q22.5134 94.7065 22.4922 94.7277Q22.4711 94.7488 22.4393 94.7488Q22.4076 94.7488 22.3864 94.7277Q22.3652 94.7065 22.3652 94.6783V92.3499Q22.3652 92.3217 22.3864 92.3006Q22.4076 92.2794 22.4358 92.2794H23.3671Q23.5717 92.2794 23.7305 92.3623Q23.8892 92.4452 23.9774 92.5898Q24.0656 92.7345 24.0656 92.9179Q24.0656 93.1543 23.9404 93.3236Q23.8152 93.4929 23.6141 93.5529Q23.7834 93.6058 23.8928 93.7628Q24.0021 93.9198 24.0021 94.1491Q24.0021 94.3855 24.0321 94.479Q24.0621 94.5724 24.1221 94.6112Q24.1609 94.6359 24.1609 94.6748ZM23.3848 93.5035Q23.607 93.4824 23.7622 93.3271Q23.9175 93.1719 23.9175 92.9214Q23.9175 92.7027 23.7622 92.5616Q23.607 92.4205 23.3495 92.4205H22.5134V93.5035ZM26.5598 92.3464V94.6712Q26.5598 94.71 26.5386 94.7294Q26.5174 94.7488 26.4857 94.7488Q26.4504 94.7488 26.4292 94.7206L24.8417 92.551V94.6889Q24.8417 94.7136 24.8223 94.7312Q24.8029 94.7488 24.7747 94.7488Q24.743 94.7488 24.7253 94.7312Q24.7077 94.7136 24.7077 94.6889V92.3499Q24.7077 92.3147 24.7271 92.297Q24.7465 92.2794 24.7712 92.2794Q24.8029 92.2794 24.8241 92.3041L26.4257 94.4878V92.3464Q26.4257 92.3182 26.4451 92.2988Q26.4645 92.2794 26.4927 92.2794Q26.5245 92.2794 26.5421 92.2988Q26.5598 92.3182 26.5598 92.3464Z" style="stroke:#000000;stroke-width:0.25;stroke-linecap:round;stroke-linejoin:bevel" />
        <path d="M16.1078 101.178Q16.1078 101.21 16.0867 101.229Q16.0655 101.249 16.0373 101.249H14.7426Q14.7108 101.249 14.6914 101.228Q14.672 101.207 14.672 101.178V98.8499Q14.672 98.8217 14.6932 98.8006Q14.7144 98.7794 14.7461 98.7794Q14.7779 98.7794 14.799 98.8006Q14.8202 98.8217 14.8202 98.8499V101.108H16.0373Q16.0655 101.108 16.0867 101.129Q16.1078 101.15 16.1078 101.178Z" style="stroke:#000000;stroke-width:0.25;stroke-linecap:round;stroke-linejoin:bevel" />
        <path d="M16.2172 111.175Q16.2172 111.207 16.1978 111.226Q16.1784 111.245 16.1502 111.245Q16.129 111.245 16.1184 111.238Q16.0232 111.185 15.9667 111.06Q15.9103 110.935 15.9103 110.649Q15.9103 110.36 15.7551 110.252Q15.5998 110.145 15.3952 110.145H14.5697V111.178Q14.5697 111.207 14.5486 111.228Q14.5274 111.249 14.4956 111.249Q14.4639 111.249 14.4427 111.228Q14.4216 111.207 14.4216 111.178V108.85Q14.4216 108.822 14.4427 108.801Q14.4639 108.779 14.4921 108.779H15.4234Q15.6281 108.779 15.7868 108.862Q15.9456 108.945 16.0338 109.09Q16.1219 109.234 16.1219 109.418Q16.1219 109.654 15.9967 109.824Q15.8715 109.993 15.6704 110.053Q15.8397 110.106 15.9491 110.263Q16.0584 110.42 16.0584 110.649Q16.0584 110.885 16.0884 110.979Q16.1184 111.072 16.1784 111.111Q16.2172 111.136 16.2172 111.175ZM15.4411 110.004Q15.6633 109.982 15.8186 109.827Q15.9738 109.672 15.9738 109.421Q15.9738 109.203 15.8186 109.062Q15.6633 108.921 15.4058 108.921H14.5697V110.004Z" style="stroke:#000000;stroke-width:0.25;stroke-linecap:round;stroke-linejoin:bevel" />
        <path d="M 6.24,22.00 L 24.24,22.00 z " style="stroke:#000000;stroke-width:0.25;stroke-linecap:round;stroke-linejoin:bevel;stroke-dasharray:none" />
        <path d="M13.2786 14.8464Q13.2786 14.8782 13.2592 14.8958Q13.2398 14.9134 13.208 14.9134H12.4213V17.1783Q12.4213 17.2065 12.4001 17.2277Q12.379 17.2488 12.3507 17.2488Q12.319 17.2488 12.2996 17.2277Q12.2802 17.2065 12.2802 17.1783V14.9134H11.4935Q11.4653 14.9134 11.4441 14.894Q11.4229 14.8746 11.4229 14.8464Q11.4229 14.8182 11.4441 14.7988Q11.4653 14.7794 11.4935 14.7794H13.208Q13.2362 14.7794 13.2574 14.7988Q13.2786 14.8182 13.2786 14.8464ZM13.8289 17.2488Q13.7936 17.2488 13.7742 17.2277Q13.7548 17.2065 13.7548 17.1747V14.8535Q13.7548 14.8217 13.776 14.8006Q13.7971 14.7794 13.8289 14.7794Q13.8606 14.7794 13.8818 14.8006Q13.903 14.8217 13.903 14.8535V17.1747Q13.8994 17.2065 13.8783 17.2277Q13.8571 17.2488 13.8289 17.2488ZM16.8275 14.8499V17.1783Q16.8275 17.2065 16.8046 17.2277Q16.7816 17.2488 16.7534 17.2488Q16.7217 17.2488 16.7005 17.2277Q16.6793 17.2065 16.6793 17.1783V15.0687L15.7692 16.4445Q15.7515 16.4727 15.7198 16.4727Q15.681 16.4727 15.6633 16.4445L14.7496 15.0651V17.1783Q14.7496 17.2065 14.7285 17.2277Q14.7073 17.2488 14.6791 17.2488Q14.6473 17.2488 14.6279 17.2277Q14.6085 17.2065 14.6085 17.1783V14.8499Q14.6085 14.8253 14.6279 14.8023Q14.6473 14.7794 14.6756 14.7794Q14.7214 14.7794 14.7426 14.8111L15.7198 16.2646L16.697 14.8111Q16.7252 14.7723 16.764 14.7794Q16.7922 14.7829 16.8099 14.8023Q16.8275 14.8217 16.8275 14.8499ZM19.0041 17.1783Q19.0041 17.21 18.983 17.2294Q18.9618 17.2488 18.9336 17.2488H17.6036Q17.5754 17.2488 17.5542 17.2277Q17.5331 17.2065 17.5331 17.1783V14.8499Q17.5331 14.8217 17.5542 14.8006Q17.5754 14.7794 17.6036 14.7794H18.9336Q18.9618 14.7794 18.983 14.8006Q19.0041 14.8217 19.0041 14.8499Q19.0041 14.8817 18.983 14.9011Q18.9618 14.9205 18.9336 14.9205H17.6812V15.9047H18.7748Q18.8031 15.9047 18.8242 15.9259Q18.8454 15.9471 18.8454 15.9753Q18.8454 16.0071 18.8242 16.0265Q18.8031 16.0459 18.7748 16.0459H17.6812V17.1077H18.9336Q18.9618 17.1077 18.983 17.1289Q19.0041 17.1501 19.0041 17.1783Z" style="stroke:#000000;stroke-width:0.25;stroke-linecap:round;stroke-linejoin:bevel" />
        <path d="M9.91129 32.1747Q9.91129 32.2065 9.89189 32.2259Q9.87249 32.2453 9.84426 32.2453Q9.8231 32.2453 9.81251 32.2382Q9.71726 32.1853 9.66082 32.0601Q9.60438 31.9349 9.60438 31.6491Q9.60438 31.3598 9.44915 31.2522Q9.29393 31.1446 9.08932 31.1446H8.26382V32.1783Q8.26382 32.2065 8.24265 32.2277Q8.22149 32.2488 8.18974 32.2488Q8.15799 32.2488 8.13682 32.2277Q8.11565 32.2065 8.11565 32.1783V29.8499Q8.11565 29.8217 8.13682 29.8006Q8.15799 29.7794 8.18621 29.7794H9.11754Q9.32215 29.7794 9.4809 29.8623Q9.63965 29.9452 9.72785 30.0898Q9.81604 30.2345 9.81604 30.4179Q9.81604 30.6543 9.69081 30.8236Q9.56557 30.9929 9.36449 31.0529Q9.53382 31.1058 9.64318 31.2628Q9.75254 31.4198 9.75254 31.6491Q9.75254 31.8855 9.78253 31.979Q9.81251 32.0724 9.87249 32.1112Q9.91129 32.1359 9.91129 32.1747ZM9.13518 31.0035Q9.35743 30.9824 9.51265 30.8271Q9.66788 30.6719 9.66788 30.4214Q9.66788 30.2027 9.51265 30.0616Q9.35743 29.9205 9.0999 29.9205H8.26382V31.0035ZM11.9292 32.1783Q11.9292 32.21 11.908 32.2294Q11.8868 32.2488 11.8586 32.2488H10.5287Q10.5004 32.2488 10.4793 32.2277Q10.4581 32.2065 10.4581 32.1783V29.8499Q10.4581 29.8217 10.4793 29.8006Q10.5004 29.7794 10.5287 29.7794H11.8586Q11.8868 29.7794 11.908 29.8006Q11.9292 29.8217 11.9292 29.8499Q11.9292 29.8817 11.908 29.9011Q11.8868 29.9205 11.8586 29.9205H10.6063V30.9047H11.6999Q11.7281 30.9047 11.7493 30.9259Q11.7704 30.9471 11.7704 30.9753Q11.7704 31.0071 11.7493 31.0265Q11.7281 31.0459 11.6999 31.0459H10.6063V32.1077H11.8586Q11.8868 32.1077 11.908 32.1289Q11.9292 32.1501 11.9292 32.1783ZM14.3104 29.8429Q14.3104 29.857 14.3034 29.8782L13.3368 32.203Q13.3156 32.2488 13.2697 32.2488Q13.2486 32.2488 13.2292 32.2365Q13.2098 32.2241 13.2027 32.203L12.2432 29.8887Q12.2326 29.8676 12.2326 29.8464Q12.2326 29.8182 12.252 29.7988Q12.2714 29.7794 12.2996 29.7794Q12.3525 29.7794 12.3772 29.8358L13.2733 31.9913L14.1728 29.8252Q14.1975 29.7794 14.2399 29.7794Q14.2716 29.7794 14.291 29.797Q14.3104 29.8147 14.3104 29.8429ZM16.2578 32.1783Q16.2578 32.21 16.2366 32.2294Q16.2154 32.2488 16.1872 32.2488H14.8572Q14.829 32.2488 14.8078 32.2277Q14.7867 32.2065 14.7867 32.1783V29.8499Q14.7867 29.8217 14.8078 29.8006Q14.829 29.7794 14.8572 29.7794H16.1872Q16.2154 29.7794 16.2366 29.8006Q16.2578 29.8217 16.2578 29.8499Q16.2578 29.8817 16.2366 29.9011Q16.2154 29.9205 16.1872 29.9205H14.9348V30.9047H16.0285Q16.0567 30.9047 16.0778 30.9259Q16.099 30.9471 16.099 30.9753Q16.099 31.0071 16.0778 31.0265Q16.0567 31.0459 16.0285 31.0459H14.9348V32.1077H16.1872Q16.2154 32.1077 16.2366 32.1289Q16.2578 32.1501 16.2578 32.1783ZM18.5826 32.1747Q18.5826 32.2065 18.5632 32.2259Q18.5438 32.2453 18.5155 32.2453Q18.4944 32.2453 18.4838 32.2382Q18.3885 32.1853 18.3321 32.0601Q18.2757 31.9349 18.2757 31.6491Q18.2757 31.3598 18.1204 31.2522Q17.9652 31.1446 17.7606 31.1446H16.9351V32.1783Q16.9351 32.2065 16.9139 32.2277Q16.8928 32.2488 16.861 32.2488Q16.8293 32.2488 16.8081 32.2277Q16.7869 32.2065 16.7869 32.1783V29.8499Q16.7869 29.8217 16.8081 29.8006Q16.8293 29.7794 16.8575 29.7794H17.7888Q17.9934 29.7794 18.1522 29.8623Q18.3109 29.9452 18.3991 30.0898Q18.4873 30.2345 18.4873 30.4179Q18.4873 30.6543 18.3621 30.8236Q18.2368 30.9929 18.0358 31.0529Q18.2051 31.1058 18.3145 31.2628Q18.4238 31.4198 18.4238 31.6491Q18.4238 31.8855 18.4538 31.979Q18.4838 32.0724 18.5438 32.1112Q18.5826 32.1359 18.5826 32.1747ZM17.8065 31.0035Q18.0287 30.9824 18.1839 30.8271Q18.3392 30.6719 18.3392 30.4214Q18.3392 30.2027 18.1839 30.0616Q18.0287 29.9205 17.7712 29.9205H16.9351V31.0035ZM18.9212 31.9137Q18.9001 31.8925 18.9001 31.8608Q18.9001 31.8326 18.9248 31.8061Q18.9495 31.7796 18.9777 31.7796Q19.0094 31.7796 19.0377 31.8114Q19.1752 31.9737 19.364 32.0583Q19.5527 32.143 19.7608 32.143Q20.0325 32.143 20.2089 32.0125Q20.3853 31.8819 20.3853 31.6667Q20.3817 31.4974 20.2935 31.3881Q20.2053 31.2787 20.0766 31.2134Q19.9478 31.1482 19.7256 31.067Q19.4822 30.9753 19.3463 30.9047Q19.2105 30.8342 19.1135 30.7037Q19.0165 30.5731 19.0165 30.3615Q19.0165 30.1886 19.1117 30.0475Q19.207 29.9064 19.3834 29.8252Q19.5598 29.7441 19.7926 29.7441Q20.0007 29.7441 20.1877 29.82Q20.3747 29.8958 20.484 30.0334Q20.5193 30.0828 20.5193 30.1075Q20.5193 30.1357 20.4929 30.1586Q20.4664 30.1816 20.4347 30.1816Q20.4064 30.1816 20.3888 30.1604Q20.29 30.0334 20.1348 29.9593Q19.9796 29.8852 19.7926 29.8852Q19.5245 29.8852 19.3463 30.0122Q19.1682 30.1392 19.1682 30.3579Q19.1682 30.5096 19.2546 30.6155Q19.341 30.7213 19.4716 30.7866Q19.6021 30.8518 19.7961 30.9224Q20.0431 31.0106 20.1877 31.0847Q20.3323 31.1587 20.4347 31.2999Q20.537 31.441 20.537 31.6738Q20.537 31.8361 20.4417 31.9772Q20.3465 32.1183 20.1683 32.2012Q19.9902 32.2841 19.7608 32.2841Q19.4998 32.2841 19.3058 32.1942Q19.1117 32.1042 18.9212 31.9137ZM22.5407 32.1783Q22.5407 32.21 22.5196 32.2294Q22.4984 32.2488 22.4702 32.2488H21.1402Q21.112 32.2488 21.0908 32.2277Q21.0697 32.2065 21.0697 32.1783V29.8499Q21.0697 29.8217 21.0908 29.8006Q21.112 29.7794 21.1402 29.7794H22.4702Q22.4984 29.7794 22.5196 29.8006Q22.5407 29.8217 22.5407 29.8499Q22.5407 29.8817 22.5196 29.9011Q22.4984 29.9205 22.4702 29.9205H21.2178V30.9047H22.3114Q22.3397 30.9047 22.3608 30.9259Q22.382 30.9471 22.382 30.9753Q22.382 31.0071 22.3608 31.0265Q22.3397 31.0459 22.3114 31.0459H21.2178V32.1077H22.4702Q22.4984 32.1077 22.5196 32.1289Q22.5407 32.1501 22.5407 32.1783Z" style="stroke:#000000;stroke-width:0.25;stroke-linecap:round;stroke-linejoin:bevel" />
        <path id="reverse_line_art" d="M 6.24,37.00 L 24.24,37.00 " style="stroke:#000000;stroke-width:0.25;stroke-linecap:round;stroke-linejoin:bevel;stroke-dasharray:none" fill="none" />
        <path d="M 6.24,52.00 L 24.24,52.00 z " style="stroke:#000000;stroke-width:0.25;stroke-linecap:round;stroke-linejoin:bevel;stroke-dasharray:none" />
        <path d="M13.7054 45.4532Q13.7054 45.6507 13.6225 45.8113Q13.5396 45.9718 13.3879 46.0617Q13.2362 46.1517 13.0387 46.1517H12.2696V47.1783Q12.2696 47.2065 12.2467 47.2277Q12.2238 47.2488 12.1955 47.2488Q12.1638 47.2488 12.1426 47.2277Q12.1214 47.2065 12.1214 47.1783V44.8499Q12.1214 44.8217 12.1426 44.8006Q12.1638 44.7794 12.192 44.7794H13.0387Q13.3385 44.7794 13.522 44.9664Q13.7054 45.1533 13.7054 45.4532ZM13.5573 45.4532Q13.5573 45.2098 13.4179 45.0651Q13.2786 44.9205 13.0387 44.9205H12.2696V46.0106H13.0387Q13.275 46.0106 13.4161 45.8536Q13.5573 45.6966 13.5573 45.4532ZM16.0302 47.1818Q16.0302 47.2136 16.0091 47.2312Q15.9879 47.2488 15.9561 47.2488Q15.9314 47.2488 15.912 47.2365Q15.8926 47.2241 15.8856 47.203L15.5893 46.4763L15.5928 46.4833H14.411L14.1252 47.203Q14.1076 47.2488 14.0617 47.2488Q14.03 47.2488 14.0106 47.2312Q13.9912 47.2136 13.9876 47.1889Q13.9841 47.1747 13.9912 47.1536L14.9401 44.8182Q14.9507 44.79 14.9666 44.7812Q14.9825 44.7723 15.0072 44.7723Q15.0601 44.7723 15.0777 44.8182L16.0267 47.1536Q16.0302 47.1642 16.0302 47.1818ZM14.4674 46.3422H15.5363L14.9966 45.0122ZM18.3586 44.8464V47.1712Q18.3586 47.21 18.3374 47.2294Q18.3162 47.2488 18.2845 47.2488Q18.2492 47.2488 18.228 47.2206L16.6405 45.051V47.1889Q16.6405 47.2136 16.6211 47.2312Q16.6017 47.2488 16.5735 47.2488Q16.5418 47.2488 16.5241 47.2312Q16.5065 47.2136 16.5065 47.1889V44.8499Q16.5065 44.8147 16.5259 44.797Q16.5453 44.7794 16.57 44.7794Q16.6017 44.7794 16.6229 44.8041L18.2245 46.9878V44.8464Q18.2245 44.8182 18.2439 44.7988Q18.2633 44.7794 18.2915 44.7794Q18.3233 44.7794 18.3409 44.7988Q18.3586 44.8182 18.3586 44.8464Z" style="stroke:#000000;stroke-width:0.25;stroke-linecap:round;stroke-linejoin:bevel" />
        <path d="M 6.24,67.00 L 24.24,67.00 z " style="stroke:#000000;stroke-width:0.25;stroke-linecap:round;stroke-linejoin:bevel;stroke-dasharray:none" />
        <path d="M14.8837 59.8499V62.1783Q14.8837 62.2065 14.8608 62.2277Q14.8378 62.2488 14.8096 62.2488Q14.7779 62.2488 14.7567 62.2277Q14.7355 62.2065 14.7355 62.1783V60.0687L13.8254 61.4445Q13.8077 61.4727 13.776 61.4727Q13.7372 61.4727 13.7195 61.4445L12.8058 60.0651V62.1783Q12.8058 62.2065 12.7847 62.2277Q12.7635 62.2488 12.7353 62.2488Q12.7035 62.2488 12.6841 62.2277Q12.6647 62.2065 12.6647 62.1783V59.8499Q12.6647 59.8252 12.6841 59.8023Q12.7035 59.7794 12.7317 59.7794Q12.7776 59.7794 12.7988 59.8111L13.776 61.2646L14.7532 59.8111Q14.7814 59.7723 14.8202 59.7794Q14.8484 59.7829 14.8661 59.8023Q14.8837 59.8217 14.8837 59.8499ZM15.6633 62.2488Q15.6281 62.2488 15.6087 62.2277Q15.5892 62.2065 15.5892 62.1747V59.8535Q15.5892 59.8217 15.6104 59.8006Q15.6316 59.7794 15.6633 59.7794Q15.6951 59.7794 15.7162 59.8006Q15.7374 59.8217 15.7374 59.8535V62.1747Q15.7339 62.2065 15.7127 62.2277Q15.6916 62.2488 15.6633 62.2488ZM18.0446 62.1465Q18.0622 62.1712 18.0622 62.1889Q18.0622 62.2206 18.0411 62.24Q18.0199 62.2594 17.9881 62.2594Q17.9493 62.2594 17.9317 62.2312L17.1238 61.1305L16.3195 62.2312Q16.3019 62.2594 16.2666 62.2594Q16.2348 62.2594 16.2172 62.24Q16.1996 62.2206 16.1996 62.1994Q16.1996 62.1818 16.2172 62.1536L17.0462 61.0212L16.2101 59.8817Q16.196 59.8641 16.196 59.8394Q16.196 59.8076 16.2172 59.7882Q16.2384 59.7688 16.2666 59.7688Q16.3089 59.7688 16.3266 59.797L17.1344 60.9012L17.9387 59.7935Q17.9599 59.7653 17.9917 59.7653Q18.0234 59.7653 18.0428 59.7812Q18.0622 59.797 18.0622 59.8217Q18.0622 59.8464 18.0446 59.8711L17.2156 61.0141Z" style="stroke:#000000;stroke-width:0.25;stroke-linecap:round;stroke-linejoin:bevel" />
        <path d="M 6.24,82.00 L 24.24,82.00 z " style="stroke:#000000;stroke-width:0.25;stroke-linecap:round;stroke-linejoin:bevel;stroke-dasharray:none" />
        <path d="M12.0227 77.1783Q12.0227 77.21 12.0015 77.2294Q11.9803 77.2488 11.9521 77.2488H10.6574Q10.6257 77.2488 10.6063 77.2277Q10.5869 77.2065 10.5869 77.1783V74.8499Q10.5869 74.8217 10.608 74.8006Q10.6292 74.7794 10.6609 74.7794Q10.6927 74.7794 10.7139 74.8006Q10.735 74.8217 10.735 74.8499V77.1077H11.9521Q11.9803 77.1077 12.0015 77.1289Q12.0227 77.1501 12.0227 77.1783ZM13.8994 77.1783Q13.8994 77.21 13.8783 77.2294Q13.8571 77.2488 13.8289 77.2488H12.4989Q12.4707 77.2488 12.4495 77.2277Q12.4284 77.2065 12.4284 77.1783V74.8499Q12.4284 74.8217 12.4495 74.8006Q12.4707 74.7794 12.4989 74.7794H13.8289Q13.8571 74.7794 13.8783 74.8006Q13.8994 74.8217 13.8994 74.8499Q13.8994 74.8817 13.8783 74.9011Q13.8571 74.9205 13.8289 74.9205H12.5765V75.9048H13.6701Q13.6984 75.9048 13.7195 75.9259Q13.7407 75.9471 13.7407 75.9753Q13.7407 76.0071 13.7195 76.0265Q13.6984 76.0459 13.6701 76.0459H12.5765V77.1077H13.8289Q13.8571 77.1077 13.8783 77.1289Q13.8994 77.1501 13.8994 77.1783ZM16.2807 74.8429Q16.2807 74.857 16.2736 74.8782L15.307 77.203Q15.2859 77.2488 15.24 77.2488Q15.2188 77.2488 15.1994 77.2365Q15.18 77.2241 15.173 77.203L14.2134 74.8888Q14.2028 74.8676 14.2028 74.8464Q14.2028 74.8182 14.2222 74.7988Q14.2416 74.7794 14.2699 74.7794Q14.3228 74.7794 14.3475 74.8358L15.2435 76.9913L16.1431 74.8253Q16.1678 74.7794 16.2101 74.7794Q16.2419 74.7794 16.2613 74.797Q16.2807 74.8147 16.2807 74.8429ZM18.228 77.1783Q18.228 77.21 18.2069 77.2294Q18.1857 77.2488 18.1575 77.2488H16.8275Q16.7993 77.2488 16.7781 77.2277Q16.7569 77.2065 16.7569 77.1783V74.8499Q16.7569 74.8217 16.7781 74.8006Q16.7993 74.7794 16.8275 74.7794H18.1575Q18.1857 74.7794 18.2069 74.8006Q18.228 74.8217 18.228 74.8499Q18.228 74.8817 18.2069 74.9011Q18.1857 74.9205 18.1575 74.9205H16.9051V75.9048H17.9987Q18.0269 75.9048 18.0481 75.9259Q18.0693 75.9471 18.0693 75.9753Q18.0693 76.0071 18.0481 76.0265Q18.0269 76.0459 17.9987 76.0459H16.9051V77.1077H18.1575Q18.1857 77.1077 18.2069 77.1289Q18.228 77.1501 18.228 77.1783ZM20.193 77.1783Q20.193 77.21 20.1718 77.2294Q20.1507 77.2488 20.1224 77.2488H18.8278Q18.796 77.2488 18.7766 77.2277Q18.7572 77.2065 18.7572 77.1783V74.8499Q18.7572 74.8217 18.7784 74.8006Q18.7995 74.7794 18.8313 74.7794Q18.863 74.7794 18.8842 74.8006Q18.9054 74.8217 18.9054 74.8499V77.1077H20.1224Q20.1507 77.1077 20.1718 77.1289Q20.193 77.1501 20.193 77.1783Z" style="stroke:#000000;stroke-width:0.25;stroke-linecap:round;stroke-linejoin:bevel" />
    </g>
</svg>
