<?xml version="1.0" encoding="utf-8"?>
<svg xmlns="http://www.w3.org/2000/svg" width="30.48mm" height="128.50mm" viewBox="0 0 30.48 128.50">
    <g id="PanelLayer">
        <defs>
            <linearGradient id="gradient_controls" x1="0" y1="22" x2="0" y2="87" gradientUnits="userSpaceOnUse">
                <stop style="stop-color:#3068ff;stop-opacity:1;" offset="0" />
                <stop style="stop-color:#4f8df2;stop-opacity:1;" offset="1" />
            </linearGradient>
        </defs>
        <rect id="border_rect" width="30.48" height="128.5" x="0" y="0" style="display:inline;fill:#4f8df2;fill-opacity:1;stroke:none;" />
        <path id="controls_art" d="M 0.24,87.00 L 0.24,16.00 A 4 4 0 0 1 4.24 12 L 26.24,12.00 A 4 4 0 0 1 30.24 16 L 30.24,12.00 L 30.24,87.00 z" style="fill:url(#gradient_controls);fill-opacity:1;stroke-width:0;" />
        <path d="M 6.24,22.00 L 24.24,22.00 z " style="stroke:#000000;stroke-width:0.25;stroke-linecap:round;stroke-linejoin:bevel;stroke-dasharray:none" />
        <path d="M13.2786 14.3464Q13.2786 14.3782 13.2592 14.3958Q13.2398 14.4134 13.208 14.4134H12.4213V16.6783Q12.4213 16.7065 12.4001 16.7277Q12.379 16.7488 12.3507 16.7488Q12.319 16.7488 12.2996 16.7277Q12.2802 16.7065 12.2802 16.6783V14.4134H11.4935Q11.4653 14.4134 11.4441 14.394Q11.4229 14.3746 11.4229 14.3464Q11.4229 14.3182 11.4441 14.2988Q11.4653 14.2794 11.4935 14.2794H13.208Q13.2362 14.2794 13.2574 14.2988Q13.2786 14.3182 13.2786 14.3464ZM13.8289 16.7488Q13.7936 16.7488 13.7742 16.7277Q13.7548 16.7065 13.7548 16.6747V14.3535Q13.7548 14.3217 13.776 14.3006Q13.7971 14.2794 13.8289 14.2794Q13.8606 14.2794 13.8818 14.3006Q13.903 14.3217 13.903 14.3535V16.6747Q13.8994 16.7065 13.8783 16.7277Q13.8571 16.7488 13.8289 16.7488ZM16.8275 14.3499V16.6783Q16.8275 16.7065 16.8046 16.7277Q16.7816 16.7488 16.7534 16.7488Q16.7217 16.7488 16.7005 16.7277Q16.6793 16.7065 16.6793 16.6783V14.5687L15.7692 15.9445Q15.7515 15.9727 15.7198 15.9727Q15.681 15.9727 15.6633 15.9445L14.7496 14.5651V16.6783Q14.7496 16.7065 14.7285 16.7277Q14.7073 16.7488 14.6791 16.7488Q14.6473 16.7488 14.6279 16.7277Q14.6085 16.7065 14.6085 16.6783V14.3499Q14.6085 14.3253 14.6279 14.3023Q14.6473 14.2794 14.6756 14.2794Q14.7214 14.2794 14.7426 14.3111L15.7198 15.7646L16.697 14.3111Q16.7252 14.2723 16.764 14.2794Q16.7922 14.2829 16.8099 14.3023Q16.8275 14.3217 16.8275 14.3499ZM19.0041 16.6783Q19.0041 16.71 18.983 16.7294Q18.9618 16.7488 18.9336 16.7488H17.6036Q17.5754 16.7488 17.5542 16.7277Q17.5331 16.7065 17.5331 16.6783V14.3499Q17.5331 14.3217 17.5542 14.3006Q17.5754 14.2794 17.6036 14.2794H18.9336Q18.9618 14.2794 18.983 14.3006Q19.0041 14.3217 19.0041 14.3499Q19.0041 14.3817 18.983 14.4011Q18.9618 14.4205 18.9336 14.4205H17.6812V15.4047H18.7748Q18.8031 15.4047 18.8242 15.4259Q18.8454 15.4471 18.8454 15.4753Q18.8454 15.5071 18.8242 15.5265Q18.8031 15.5459 18.7748 15.5459H17.6812V16.6077H18.9336Q18.9618 16.6077 18.983 16.6289Q19.0041 16.6501 19.0041 16.6783Z" style="stroke:#000000;stroke-width:0.25;stroke-linecap:round;stroke-linejoin:bevel" />
        <path d="M 6.24,38.25 L 24.24,38.25 z " style="stroke:#000000;stroke-width:0.25;stroke-linecap:round;stroke-linejoin:bevel;stroke-dasharray:none" />
        <path d="M12.4442 30.5999Q12.4442 30.6317 12.4231 30.6511Q12.4019 30.6705 12.3737 30.6705H11.1143V31.6442H12.2149Q12.2432 31.6442 12.2643 31.6653Q12.2855 31.6865 12.2855 31.7147Q12.2855 31.7465 12.2643 31.7659Q12.2432 31.7853 12.2149 31.7853H11.1143V32.9283Q11.1143 32.9565 11.0949 32.9777Q11.0755 32.9988 11.0437 32.9988Q11.012 32.9988 10.9926 32.9777Q10.9732 32.9565 10.9732 32.9283V30.5999Q10.9732 30.5717 10.9943 30.5506Q11.0155 30.5294 11.0437 30.5294H12.3737Q12.4019 30.5294 12.4231 30.5506Q12.4442 30.5717 12.4442 30.5999ZM14.9842 31.7641Q14.9842 32.1134 14.8731 32.3921Q14.762 32.6707 14.5327 32.8348Q14.3034 32.9988 13.9612 32.9988H13.044Q13.0157 32.9988 12.9946 32.9777Q12.9734 32.9565 12.9734 32.9283V30.5999Q12.9734 30.5717 12.9946 30.5506Q13.0157 30.5294 13.044 30.5294H13.9612Q14.2998 30.5294 14.5309 30.6987Q14.762 30.8681 14.8731 31.1485Q14.9842 31.429 14.9842 31.7641ZM14.8361 31.7641Q14.8361 31.4642 14.7391 31.2155Q14.642 30.9668 14.4392 30.8187Q14.2363 30.6705 13.9259 30.6705H13.1216V32.8577H13.9259Q14.3845 32.8577 14.6103 32.5561Q14.8361 32.2545 14.8361 31.7641ZM17.2773 32.3321Q17.2773 32.6531 17.0744 32.826Q16.8716 32.9988 16.5576 32.9988H15.584Q15.5557 32.9988 15.5346 32.9777Q15.5134 32.9565 15.5134 32.9283V30.5999Q15.5134 30.5717 15.5346 30.5506Q15.5557 30.5294 15.584 30.5294H16.5329Q16.8152 30.5294 16.9845 30.6917Q17.1538 30.8539 17.1538 31.1291Q17.1538 31.3267 17.055 31.4872Q16.9563 31.6477 16.7799 31.7077Q17.0057 31.75 17.1415 31.9123Q17.2773 32.0746 17.2773 32.3321ZM16.5153 30.6705H15.6616V31.6618H16.5153Q16.734 31.6583 16.8698 31.5189Q17.0057 31.3796 17.0057 31.1256Q17.0057 30.9174 16.8769 30.794Q16.7481 30.6705 16.5153 30.6705ZM17.1291 32.3321Q17.1291 32.071 16.9668 31.9387Q16.8046 31.8064 16.54 31.8064H15.6616V32.8577H16.54Q16.8046 32.8577 16.9668 32.7254Q17.1291 32.5931 17.1291 32.3321ZM19.6727 32.9424Q19.6727 32.9812 19.6462 32.9988Q19.6197 33.0165 19.5915 33.0165Q19.5633 33.0165 19.5421 32.9918L18.4838 31.683L17.9546 32.1733V32.9247Q17.9511 32.9565 17.9299 32.9777Q17.9088 32.9988 17.8805 32.9988Q17.8453 32.9988 17.8259 32.9777Q17.8065 32.9565 17.8065 32.9247V30.6035Q17.8065 30.5717 17.8276 30.5506Q17.8488 30.5294 17.8805 30.5294Q17.9123 30.5294 17.9335 30.5506Q17.9546 30.5717 17.9546 30.6035V31.9934L19.4786 30.5647Q19.4998 30.5435 19.528 30.5435Q19.5562 30.5435 19.5774 30.5647Q19.5986 30.5858 19.5986 30.6141Q19.5986 30.6423 19.5774 30.6634L18.6002 31.5736L19.655 32.893Q19.6727 32.9177 19.6727 32.9424Z" style="stroke:#000000;stroke-width:0.25;stroke-linecap:round;stroke-linejoin:bevel" />
        <path d="M 6.24,54.50 L 24.24,54.50 z " style="stroke:#000000;stroke-width:0.25;stroke-linecap:round;stroke-linejoin:bevel;stroke-dasharray:none" />
        <path d="M13.7054 47.4532Q13.7054 47.6507 13.6225 47.8113Q13.5396 47.9718 13.3879 48.0617Q13.2362 48.1517 13.0387 48.1517H12.2696V49.1783Q12.2696 49.2065 12.2467 49.2277Q12.2238 49.2488 12.1955 49.2488Q12.1638 49.2488 12.1426 49.2277Q12.1214 49.2065 12.1214 49.1783V46.8499Q12.1214 46.8217 12.1426 46.8006Q12.1638 46.7794 12.192 46.7794H13.0387Q13.3385 46.7794 13.522 46.9664Q13.7054 47.1533 13.7054 47.4532ZM13.5573 47.4532Q13.5573 47.2098 13.4179 47.0651Q13.2786 46.9205 13.0387 46.9205H12.2696V48.0106H13.0387Q13.275 48.0106 13.4161 47.8536Q13.5573 47.6966 13.5573 47.4532ZM16.0302 49.1818Q16.0302 49.2136 16.0091 49.2312Q15.9879 49.2488 15.9561 49.2488Q15.9314 49.2488 15.912 49.2365Q15.8926 49.2241 15.8856 49.203L15.5893 48.4763L15.5928 48.4833H14.411L14.1252 49.203Q14.1076 49.2488 14.0617 49.2488Q14.03 49.2488 14.0106 49.2312Q13.9912 49.2136 13.9876 49.1889Q13.9841 49.1747 13.9912 49.1536L14.9401 46.8182Q14.9507 46.79 14.9666 46.7812Q14.9825 46.7723 15.0072 46.7723Q15.0601 46.7723 15.0777 46.8182L16.0267 49.1536Q16.0302 49.1642 16.0302 49.1818ZM14.4674 48.3422H15.5363L14.9966 47.0122ZM18.3586 46.8464V49.1712Q18.3586 49.21 18.3374 49.2294Q18.3162 49.2488 18.2845 49.2488Q18.2492 49.2488 18.228 49.2206L16.6405 47.051V49.1889Q16.6405 49.2136 16.6211 49.2312Q16.6017 49.2488 16.5735 49.2488Q16.5418 49.2488 16.5241 49.2312Q16.5065 49.2136 16.5065 49.1889V46.8499Q16.5065 46.8147 16.5259 46.797Q16.5453 46.7794 16.57 46.7794Q16.6017 46.7794 16.6229 46.8041L18.2245 48.9878V46.8464Q18.2245 46.8182 18.2439 46.7988Q18.2633 46.7794 18.2915 46.7794Q18.3233 46.7794 18.3409 46.7988Q18.3586 46.8182 18.3586 46.8464Z" style="stroke:#000000;stroke-width:0.25;stroke-linecap:round;stroke-linejoin:bevel" />
        <path d="M 6.24,70.75 L 24.24,70.75 z " style="stroke:#000000;stroke-width:0.25;stroke-linecap:round;stroke-linejoin:bevel;stroke-dasharray:none" />
        <path d="M14.8837 63.0999V65.4283Q14.8837 65.4565 14.8608 65.4777Q14.8378 65.4988 14.8096 65.4988Q14.7779 65.4988 14.7567 65.4777Q14.7355 65.4565 14.7355 65.4283V63.3187L13.8254 64.6945Q13.8077 64.7227 13.776 64.7227Q13.7372 64.7227 13.7195 64.6945L12.8058 63.3151V65.4283Q12.8058 65.4565 12.7847 65.4777Q12.7635 65.4988 12.7353 65.4988Q12.7035 65.4988 12.6841 65.4777Q12.6647 65.4565 12.6647 65.4283V63.0999Q12.6647 63.0753 12.6841 63.0523Q12.7035 63.0294 12.7317 63.0294Q12.7776 63.0294 12.7988 63.0611L13.776 64.5146L14.7532 63.0611Q14.7814 63.0223 14.8202 63.0294Q14.8484 63.0329 14.8661 63.0523Q14.8837 63.0717 14.8837 63.0999ZM15.6633 65.4988Q15.6281 65.4988 15.6087 65.4777Q15.5892 65.4565 15.5892 65.4248V63.1035Q15.5892 63.0717 15.6104 63.0506Q15.6316 63.0294 15.6633 63.0294Q15.6951 63.0294 15.7162 63.0506Q15.7374 63.0717 15.7374 63.1035V65.4248Q15.7339 65.4565 15.7127 65.4777Q15.6916 65.4988 15.6633 65.4988ZM18.0446 65.3965Q18.0622 65.4212 18.0622 65.4389Q18.0622 65.4706 18.0411 65.49Q18.0199 65.5094 17.9881 65.5094Q17.9493 65.5094 17.9317 65.4812L17.1238 64.3805L16.3195 65.4812Q16.3019 65.5094 16.2666 65.5094Q16.2348 65.5094 16.2172 65.49Q16.1996 65.4706 16.1996 65.4494Q16.1996 65.4318 16.2172 65.4036L17.0462 64.2712L16.2101 63.1317Q16.196 63.1141 16.196 63.0894Q16.196 63.0576 16.2172 63.0382Q16.2384 63.0188 16.2666 63.0188Q16.3089 63.0188 16.3266 63.047L17.1344 64.1512L17.9387 63.0435Q17.9599 63.0153 17.9917 63.0153Q18.0234 63.0153 18.0428 63.0312Q18.0622 63.047 18.0622 63.0717Q18.0622 63.0964 18.0446 63.1211L17.2156 64.2641Z" style="stroke:#000000;stroke-width:0.25;stroke-linecap:round;stroke-linejoin:bevel" />
        <path d="M 6.24,87.00 L 24.24,87.00 z " style="stroke:#000000;stroke-width:0.25;stroke-linecap:round;stroke-linejoin:bevel;stroke-dasharray:none" />
        <path d="M13.3844 80.6023V81.4878Q13.3844 81.5301 13.3526 81.5513Q13.1904 81.6606 12.9981 81.7224Q12.8058 81.7841 12.6083 81.7841Q12.2449 81.7841 11.9574 81.6201Q11.6699 81.456 11.5058 81.1668Q11.3418 80.8775 11.3418 80.5141Q11.3418 80.1508 11.5058 79.8615Q11.6699 79.5722 11.9574 79.4082Q12.2449 79.2441 12.6083 79.2441Q12.8058 79.2441 12.984 79.2917Q13.1621 79.3394 13.3033 79.4346Q13.335 79.4558 13.335 79.4946Q13.335 79.5263 13.3121 79.5457Q13.2891 79.5651 13.268 79.5651Q13.2503 79.5651 13.2221 79.551Q12.9258 79.3852 12.6083 79.3852Q12.2837 79.3852 12.0297 79.5299Q11.7757 79.6745 11.6328 79.932Q11.49 80.1896 11.49 80.5141Q11.49 80.8387 11.6328 81.0962Q11.7757 81.3537 12.0297 81.4984Q12.2837 81.643 12.6083 81.643Q12.7706 81.643 12.9381 81.5918Q13.1057 81.5407 13.2433 81.456V80.6729H12.6083Q12.5801 80.6729 12.5589 80.6517Q12.5377 80.6305 12.5377 80.6023Q12.5377 80.5706 12.5589 80.5512Q12.5801 80.5318 12.6083 80.5318H13.3138Q13.3456 80.5318 13.365 80.5529Q13.3844 80.5741 13.3844 80.6023ZM15.7797 81.6818Q15.7797 81.7136 15.7586 81.7312Q15.7374 81.7488 15.7057 81.7488Q15.681 81.7488 15.6616 81.7365Q15.6422 81.7241 15.6351 81.703L15.3388 80.9763L15.3423 80.9833H14.1605L13.8748 81.703Q13.8571 81.7488 13.8112 81.7488Q13.7795 81.7488 13.7601 81.7312Q13.7407 81.7136 13.7372 81.6889Q13.7336 81.6748 13.7407 81.6536L14.6897 79.3182Q14.7003 79.29 14.7161 79.2812Q14.732 79.2723 14.7567 79.2723Q14.8096 79.2723 14.8272 79.3182L15.7762 81.6536Q15.7797 81.6642 15.7797 81.6818ZM14.2169 80.8422H15.2859L14.7461 79.5122ZM16.3301 81.7488Q16.2948 81.7488 16.2754 81.7277Q16.256 81.7065 16.256 81.6748V79.3535Q16.256 79.3217 16.2772 79.3006Q16.2983 79.2794 16.3301 79.2794Q16.3618 79.2794 16.383 79.3006Q16.4042 79.3217 16.4042 79.3535V81.6748Q16.4006 81.7065 16.3795 81.7277Q16.3583 81.7488 16.3301 81.7488ZM18.9618 79.3464V81.6712Q18.9618 81.71 18.9406 81.7294Q18.9195 81.7488 18.8877 81.7488Q18.8524 81.7488 18.8313 81.7206L17.2438 79.551V81.6889Q17.2438 81.7136 17.2244 81.7312Q17.205 81.7488 17.1767 81.7488Q17.145 81.7488 17.1274 81.7312Q17.1097 81.7136 17.1097 81.6889V79.3499Q17.1097 79.3147 17.1291 79.297Q17.1485 79.2794 17.1732 79.2794Q17.205 79.2794 17.2261 79.3041L18.8277 81.4878V79.3464Q18.8277 79.3182 18.8472 79.2988Q18.8666 79.2794 18.8948 79.2794Q18.9265 79.2794 18.9442 79.2988Q18.9618 79.3182 18.9618 79.3464Z" style="stroke:#000000;stroke-width:0.25;stroke-linecap:round;stroke-linejoin:bevel" />
    </g>
</svg>
