<?xml version="1.0" encoding="utf-8"?>
<svg xmlns="http://www.w3.org/2000/svg" width="30.48mm" height="128.50mm" viewBox="0 0 30.48 128.50">
    <g id="PanelLayer">
        <defs>
            <linearGradient id="gradient_controls" x1="0" y1="20" x2="0" y2="91" gradientUnits="userSpaceOnUse">
                <stop style="stop-color:#3068ff;stop-opacity:1;" offset="0" />
                <stop style="stop-color:#4f8df2;stop-opacity:1;" offset="1" />
            </linearGradient>
            <linearGradient id="gradient_send_return" x1="0" y1="91" x2="0" y2="108" gradientUnits="userSpaceOnUse">
                <stop style="stop-color:#8a72cf;stop-opacity:1;" offset="0" />
                <stop style="stop-color:#4f8df2;stop-opacity:1;" offset="1" />
            </linearGradient>
        </defs>
        <rect id="border_rect" width="30.48" height="128.5" x="0" y="0" style="display:inline;fill:#4f8df2;fill-opacity:1;stroke:none;" />
        <path id="controls_art" d="M 0.24,91.00 L 0.24,14.00 A 4 4 0 0 1 4.24 10 L 26.24,10.00 A 4 4 0 0 1 30.24 14 L 30.24,10.00 L 30.24,91.00 z" style="fill:url(#gradient_controls);fill-opacity:1;stroke-width:0;" />
        <path id="send_return_art" d="M 0.24,108.00 L 0.24,85.00 A 4 4 0 0 1 4.24 81 L 26.24,81.00 A 4 4 0 0 1 30.24 85 L 30.24,81.00 L 30.24,108.00 z" style="fill:url(#gradient_send_return);fill-opacity:1;stroke-width:0;" />
        <path d="M 8.24,91.00 L 8.24,101.00 " style="stroke:#000000;stroke-width:0.25;stroke-linecap:round;stroke-linejoin:bevel;stroke-dasharray:none" fill="none" />
        <path d="M3.86556 85.4137Q3.84439 85.3925 3.84439 85.3608Q3.84439 85.3326 3.86908 85.3061Q3.89378 85.2796 3.922 85.2796Q3.95375 85.2796 3.98197 85.3114Q4.11956 85.4737 4.30829 85.5583Q4.49703 85.643 4.70517 85.643Q4.97681 85.643 5.15319 85.5125Q5.32958 85.3819 5.32958 85.1668Q5.32606 84.9974 5.23786 84.8881Q5.14967 84.7787 5.0209 84.7134Q4.89214 84.6482 4.66989 84.567Q4.42647 84.4753 4.29065 84.4048Q4.15483 84.3342 4.05782 84.2037Q3.96081 84.0731 3.96081 83.8615Q3.96081 83.6886 4.05606 83.5475Q4.15131 83.4064 4.32769 83.3253Q4.50408 83.2441 4.73692 83.2441Q4.94506 83.2441 5.13203 83.32Q5.319 83.3958 5.42836 83.5334Q5.46364 83.5828 5.46364 83.6075Q5.46364 83.6357 5.43718 83.6586Q5.41072 83.6816 5.37897 83.6816Q5.35075 83.6816 5.33311 83.6604Q5.23433 83.5334 5.07911 83.4593Q4.92389 83.3852 4.73692 83.3852Q4.46881 83.3852 4.29065 83.5122Q4.1125 83.6392 4.1125 83.8579Q4.1125 84.0096 4.19893 84.1155Q4.28536 84.2213 4.41589 84.2866Q4.54642 84.3518 4.74044 84.4224Q4.98739 84.5106 5.13203 84.5847Q5.27667 84.6587 5.37897 84.7999Q5.48128 84.941 5.48128 85.1738Q5.48128 85.3361 5.38603 85.4772Q5.29078 85.6183 5.11263 85.7012Q4.93447 85.7841 4.70517 85.7841Q4.44411 85.7841 4.25008 85.6942Q4.05606 85.6042 3.86556 85.4137ZM7.48506 85.6783Q7.48506 85.71 7.46389 85.7294Q7.44272 85.7488 7.4145 85.7488H6.08453Q6.05631 85.7488 6.03514 85.7277Q6.01397 85.7065 6.01397 85.6783V83.3499Q6.01397 83.3217 6.03514 83.3006Q6.05631 83.2794 6.08453 83.2794H7.4145Q7.44272 83.2794 7.46389 83.3006Q7.48506 83.3217 7.48506 83.3499Q7.48506 83.3817 7.46389 83.4011Q7.44272 83.4205 7.4145 83.4205H6.16214V84.4048H7.25575Q7.28397 84.4048 7.30514 84.4259Q7.32631 84.4471 7.32631 84.4753Q7.32631 84.5071 7.30514 84.5265Q7.28397 84.5459 7.25575 84.5459H6.16214V85.6077H7.4145Q7.44272 85.6077 7.46389 85.6289Q7.48506 85.6501 7.48506 85.6783ZM9.86631 83.3464V85.6712Q9.86631 85.71 9.84514 85.7294Q9.82397 85.7488 9.79222 85.7488Q9.75694 85.7488 9.73578 85.7206L8.14828 83.551V85.6889Q8.14828 85.7136 8.12888 85.7312Q8.10947 85.7488 8.08125 85.7488Q8.0495 85.7488 8.03186 85.7312Q8.01422 85.7136 8.01422 85.6889V83.3499Q8.01422 83.3147 8.03363 83.297Q8.05303 83.2794 8.07772 83.2794Q8.10947 83.2794 8.13064 83.3041L9.73225 85.4878V83.3464Q9.73225 83.3182 9.75165 83.2988Q9.77106 83.2794 9.79928 83.2794Q9.83103 83.2794 9.84867 83.2988Q9.86631 83.3182 9.86631 83.3464ZM12.5827 84.5141Q12.5827 84.8634 12.4716 85.1421Q12.3604 85.4207 12.1311 85.5848Q11.9018 85.7488 11.5596 85.7488H10.6424Q10.6142 85.7488 10.593 85.7277Q10.5719 85.7065 10.5719 85.6783V83.3499Q10.5719 83.3217 10.593 83.3006Q10.6142 83.2794 10.6424 83.2794H11.5596Q11.8983 83.2794 12.1294 83.4487Q12.3604 83.6181 12.4716 83.8985Q12.5827 84.179 12.5827 84.5141ZM12.4345 84.5141Q12.4345 84.2143 12.3375 83.9655Q12.2405 83.7168 12.0377 83.5687Q11.8348 83.4205 11.5244 83.4205H10.72V85.6077H11.5244Q11.983 85.6077 12.2088 85.3061Q12.4345 85.0045 12.4345 84.5141Z" style="stroke:#000000;stroke-width:0.25;stroke-linecap:round;stroke-linejoin:bevel" />
        <path d="M 22.24,91.00 L 22.24,101.00 " style="stroke:#000000;stroke-width:0.25;stroke-linecap:round;stroke-linejoin:bevel;stroke-dasharray:none" fill="none" />
        <path d="M19.7159 85.6748Q19.7159 85.7065 19.6965 85.7259Q19.6771 85.7453 19.6488 85.7453Q19.6277 85.7453 19.6171 85.7383Q19.5218 85.6853 19.4654 85.5601Q19.409 85.4349 19.409 85.1491Q19.409 84.8598 19.2537 84.7522Q19.0985 84.6446 18.8939 84.6446H18.0684V85.6783Q18.0684 85.7065 18.0472 85.7277Q18.0261 85.7488 17.9943 85.7488Q17.9626 85.7488 17.9414 85.7277Q17.9202 85.7065 17.9202 85.6783V83.3499Q17.9202 83.3217 17.9414 83.3006Q17.9626 83.2794 17.9908 83.2794H18.9221Q19.1267 83.2794 19.2855 83.3623Q19.4442 83.4452 19.5324 83.5898Q19.6206 83.7345 19.6206 83.9179Q19.6206 84.1543 19.4954 84.3236Q19.3702 84.4929 19.1691 84.5529Q19.3384 84.6058 19.4478 84.7628Q19.5571 84.9198 19.5571 85.1491Q19.5571 85.3855 19.5871 85.479Q19.6171 85.5724 19.6771 85.6112Q19.7159 85.6359 19.7159 85.6748ZM18.9398 84.5035Q19.162 84.4824 19.3172 84.3271Q19.4725 84.1719 19.4725 83.9214Q19.4725 83.7027 19.3172 83.5616Q19.162 83.4205 18.9045 83.4205H18.0684V84.5035ZM21.889 83.3464Q21.889 83.3782 21.8696 83.3958Q21.8502 83.4134 21.8184 83.4134H21.0317V85.6783Q21.0317 85.7065 21.0106 85.7277Q20.9894 85.7488 20.9612 85.7488Q20.9294 85.7488 20.91 85.7277Q20.8906 85.7065 20.8906 85.6783V83.4134H20.1039Q20.0757 83.4134 20.0545 83.394Q20.0334 83.3746 20.0334 83.3464Q20.0334 83.3182 20.0545 83.2988Q20.0757 83.2794 20.1039 83.2794H21.8184Q21.8467 83.2794 21.8678 83.2988Q21.889 83.3182 21.889 83.3464ZM24.1609 85.6748Q24.1609 85.7065 24.1415 85.7259Q24.1221 85.7453 24.0938 85.7453Q24.0727 85.7453 24.0621 85.7383Q23.9668 85.6853 23.9104 85.5601Q23.854 85.4349 23.854 85.1491Q23.854 84.8598 23.6987 84.7522Q23.5435 84.6446 23.3389 84.6446H22.5134V85.6783Q22.5134 85.7065 22.4922 85.7277Q22.4711 85.7488 22.4393 85.7488Q22.4076 85.7488 22.3864 85.7277Q22.3652 85.7065 22.3652 85.6783V83.3499Q22.3652 83.3217 22.3864 83.3006Q22.4076 83.2794 22.4358 83.2794H23.3671Q23.5717 83.2794 23.7305 83.3623Q23.8892 83.4452 23.9774 83.5898Q24.0656 83.7345 24.0656 83.9179Q24.0656 84.1543 23.9404 84.3236Q23.8152 84.4929 23.6141 84.5529Q23.7834 84.6058 23.8928 84.7628Q24.0021 84.9198 24.0021 85.1491Q24.0021 85.3855 24.0321 85.479Q24.0621 85.5724 24.1221 85.6112Q24.1609 85.6359 24.1609 85.6748ZM23.3848 84.5035Q23.607 84.4824 23.7622 84.3271Q23.9175 84.1719 23.9175 83.9214Q23.9175 83.7027 23.7622 83.5616Q23.607 83.4205 23.3495 83.4205H22.5134V84.5035ZM26.5598 83.3464V85.6712Q26.5598 85.71 26.5386 85.7294Q26.5174 85.7488 26.4857 85.7488Q26.4504 85.7488 26.4292 85.7206L24.8417 83.551V85.6889Q24.8417 85.7136 24.8223 85.7312Q24.8029 85.7488 24.7747 85.7488Q24.743 85.7488 24.7253 85.7312Q24.7077 85.7136 24.7077 85.6889V83.3499Q24.7077 83.3147 24.7271 83.297Q24.7465 83.2794 24.7712 83.2794Q24.8029 83.2794 24.8241 83.3041L26.4257 85.4878V83.3464Q26.4257 83.3182 26.4451 83.2988Q26.4645 83.2794 26.4927 83.2794Q26.5245 83.2794 26.5421 83.2988Q26.5598 83.3182 26.5598 83.3464Z" style="stroke:#000000;stroke-width:0.25;stroke-linecap:round;stroke-linejoin:bevel" />
        <path d="M16.1078 92.1783Q16.1078 92.21 16.0867 92.2294Q16.0655 92.2488 16.0373 92.2488H14.7426Q14.7108 92.2488 14.6914 92.2277Q14.672 92.2065 14.672 92.1783V89.8499Q14.672 89.8217 14.6932 89.8006Q14.7144 89.7794 14.7461 89.7794Q14.7779 89.7794 14.799 89.8006Q14.8202 89.8217 14.8202 89.8499V92.1077H16.0373Q16.0655 92.1077 16.0867 92.1289Q16.1078 92.1501 16.1078 92.1783Z" style="stroke:#000000;stroke-width:0.25;stroke-linecap:round;stroke-linejoin:bevel" />
        <path d="M16.2172 102.175Q16.2172 102.207 16.1978 102.226Q16.1784 102.245 16.1502 102.245Q16.129 102.245 16.1184 102.238Q16.0232 102.185 15.9667 102.06Q15.9103 101.935 15.9103 101.649Q15.9103 101.36 15.7551 101.252Q15.5998 101.145 15.3952 101.145H14.5697V102.178Q14.5697 102.207 14.5486 102.228Q14.5274 102.249 14.4956 102.249Q14.4639 102.249 14.4427 102.228Q14.4216 102.207 14.4216 102.178V99.8499Q14.4216 99.8217 14.4427 99.8006Q14.4639 99.7794 14.4921 99.7794H15.4234Q15.6281 99.7794 15.7868 99.8623Q15.9456 99.9452 16.0338 100.09Q16.1219 100.234 16.1219 100.418Q16.1219 100.654 15.9967 100.824Q15.8715 100.993 15.6704 101.053Q15.8397 101.106 15.9491 101.263Q16.0584 101.42 16.0584 101.649Q16.0584 101.885 16.0884 101.979Q16.1184 102.072 16.1784 102.111Q16.2172 102.136 16.2172 102.175ZM15.4411 101.004Q15.6633 100.982 15.8186 100.827Q15.9738 100.672 15.9738 100.421Q15.9738 100.203 15.8186 100.062Q15.6633 99.9205 15.4058 99.9205H14.5697V101.004Z" style="stroke:#000000;stroke-width:0.25;stroke-linecap:round;stroke-linejoin:bevel" />
        <path d="M 8.24,112.00 L 8.24,122.00 " style="stroke:#000000;stroke-width:0.25;stroke-linecap:round;stroke-linejoin:bevel;stroke-dasharray:none" fill="none" />
        <path id="env_label" d="M20.6208 112.178Q20.6208 112.21 20.5996 112.229Q20.5784 112.249 20.5502 112.249H19.2202Q19.192 112.249 19.1708 112.228Q19.1497 112.207 19.1497 112.178V109.85Q19.1497 109.822 19.1708 109.801Q19.192 109.779 19.2202 109.779H20.5502Q20.5784 109.779 20.5996 109.801Q20.6208 109.822 20.6208 109.85Q20.6208 109.882 20.5996 109.901Q20.5784 109.921 20.5502 109.921H19.2978V110.905H20.3914Q20.4197 110.905 20.4408 110.926Q20.462 110.947 20.462 110.975Q20.462 111.007 20.4408 111.026Q20.4197 111.046 20.3914 111.046H19.2978V112.108H20.5502Q20.5784 112.108 20.5996 112.129Q20.6208 112.15 20.6208 112.178ZM23.002 109.846V112.171Q23.002 112.21 22.9808 112.229Q22.9597 112.249 22.9279 112.249Q22.8926 112.249 22.8715 112.221L21.284 110.051V112.189Q21.284 112.214 21.2646 112.231Q21.2452 112.249 21.2169 112.249Q21.1852 112.249 21.1676 112.231Q21.1499 112.214 21.1499 112.189V109.85Q21.1499 109.815 21.1693 109.797Q21.1887 109.779 21.2134 109.779Q21.2452 109.779 21.2663 109.804L22.8679 111.988V109.846Q22.8679 109.818 22.8873 109.799Q22.9068 109.779 22.935 109.779Q22.9667 109.779 22.9844 109.799Q23.002 109.818 23.002 109.846ZM25.5596 109.843Q25.5596 109.857 25.5526 109.878L24.586 112.203Q24.5648 112.249 24.5189 112.249Q24.4978 112.249 24.4784 112.236Q24.459 112.224 24.4519 112.203L23.4924 109.889Q23.4818 109.868 23.4818 109.846Q23.4818 109.818 23.5012 109.799Q23.5206 109.779 23.5488 109.779Q23.6017 109.779 23.6264 109.836L24.5225 111.991L25.4221 109.825Q25.4468 109.779 25.4891 109.779Q25.5208 109.779 25.5402 109.797Q25.5596 109.815 25.5596 109.843Z" style="stroke:#000000;stroke-width:0.25;stroke-linecap:round;stroke-linejoin:bevel" />
        <path d="M 6.24,20.00 L 24.24,20.00 z " style="stroke:#000000;stroke-width:0.25;stroke-linecap:round;stroke-linejoin:bevel;stroke-dasharray:none" />
        <path d="M13.2786 12.8464Q13.2786 12.8782 13.2592 12.8958Q13.2398 12.9134 13.208 12.9134H12.4213V15.1783Q12.4213 15.2065 12.4001 15.2277Q12.379 15.2488 12.3507 15.2488Q12.319 15.2488 12.2996 15.2277Q12.2802 15.2065 12.2802 15.1783V12.9134H11.4935Q11.4653 12.9134 11.4441 12.894Q11.4229 12.8746 11.4229 12.8464Q11.4229 12.8182 11.4441 12.7988Q11.4653 12.7794 11.4935 12.7794H13.208Q13.2362 12.7794 13.2574 12.7988Q13.2786 12.8182 13.2786 12.8464ZM13.8289 15.2488Q13.7936 15.2488 13.7742 15.2277Q13.7548 15.2065 13.7548 15.1747V12.8535Q13.7548 12.8217 13.776 12.8006Q13.7971 12.7794 13.8289 12.7794Q13.8606 12.7794 13.8818 12.8006Q13.903 12.8217 13.903 12.8535V15.1747Q13.8994 15.2065 13.8783 15.2277Q13.8571 15.2488 13.8289 15.2488ZM16.8275 12.8499V15.1783Q16.8275 15.2065 16.8046 15.2277Q16.7816 15.2488 16.7534 15.2488Q16.7217 15.2488 16.7005 15.2277Q16.6793 15.2065 16.6793 15.1783V13.0687L15.7692 14.4445Q15.7515 14.4727 15.7198 14.4727Q15.681 14.4727 15.6633 14.4445L14.7496 13.0651V15.1783Q14.7496 15.2065 14.7285 15.2277Q14.7073 15.2488 14.6791 15.2488Q14.6473 15.2488 14.6279 15.2277Q14.6085 15.2065 14.6085 15.1783V12.8499Q14.6085 12.8253 14.6279 12.8023Q14.6473 12.7794 14.6756 12.7794Q14.7214 12.7794 14.7426 12.8111L15.7198 14.2646L16.697 12.8111Q16.7252 12.7723 16.764 12.7794Q16.7922 12.7829 16.8099 12.8023Q16.8275 12.8217 16.8275 12.8499ZM19.0041 15.1783Q19.0041 15.21 18.983 15.2294Q18.9618 15.2488 18.9336 15.2488H17.6036Q17.5754 15.2488 17.5542 15.2277Q17.5331 15.2065 17.5331 15.1783V12.8499Q17.5331 12.8217 17.5542 12.8006Q17.5754 12.7794 17.6036 12.7794H18.9336Q18.9618 12.7794 18.983 12.8006Q19.0041 12.8217 19.0041 12.8499Q19.0041 12.8817 18.983 12.9011Q18.9618 12.9205 18.9336 12.9205H17.6812V13.9047H18.7748Q18.8031 13.9047 18.8242 13.9259Q18.8454 13.9471 18.8454 13.9753Q18.8454 14.0071 18.8242 14.0265Q18.8031 14.0459 18.7748 14.0459H17.6812V15.1077H18.9336Q18.9618 15.1077 18.983 15.1289Q19.0041 15.1501 19.0041 15.1783Z" style="stroke:#000000;stroke-width:0.25;stroke-linecap:round;stroke-linejoin:bevel" />
        <path d="M9.91129 28.6747Q9.91129 28.7065 9.89189 28.7259Q9.87249 28.7453 9.84426 28.7453Q9.8231 28.7453 9.81251 28.7383Q9.71726 28.6853 9.66082 28.5601Q9.60438 28.4349 9.60438 28.1491Q9.60438 27.8598 9.44915 27.7522Q9.29393 27.6446 9.08932 27.6446H8.26382V28.6783Q8.26382 28.7065 8.24265 28.7277Q8.22149 28.7488 8.18974 28.7488Q8.15799 28.7488 8.13682 28.7277Q8.11565 28.7065 8.11565 28.6783V26.3499Q8.11565 26.3217 8.13682 26.3006Q8.15799 26.2794 8.18621 26.2794H9.11754Q9.32215 26.2794 9.4809 26.3623Q9.63965 26.4452 9.72785 26.5898Q9.81604 26.7345 9.81604 26.9179Q9.81604 27.1543 9.69081 27.3236Q9.56557 27.4929 9.36449 27.5529Q9.53382 27.6058 9.64318 27.7628Q9.75254 27.9198 9.75254 28.1491Q9.75254 28.3855 9.78253 28.479Q9.81251 28.5724 9.87249 28.6113Q9.91129 28.6359 9.91129 28.6747ZM9.13518 27.5035Q9.35743 27.4824 9.51265 27.3271Q9.66788 27.1719 9.66788 26.9214Q9.66788 26.7027 9.51265 26.5616Q9.35743 26.4205 9.0999 26.4205H8.26382V27.5035ZM11.9292 28.6783Q11.9292 28.71 11.908 28.7294Q11.8868 28.7488 11.8586 28.7488H10.5287Q10.5004 28.7488 10.4793 28.7277Q10.4581 28.7065 10.4581 28.6783V26.3499Q10.4581 26.3217 10.4793 26.3006Q10.5004 26.2794 10.5287 26.2794H11.8586Q11.8868 26.2794 11.908 26.3006Q11.9292 26.3217 11.9292 26.3499Q11.9292 26.3817 11.908 26.4011Q11.8868 26.4205 11.8586 26.4205H10.6063V27.4047H11.6999Q11.7281 27.4047 11.7493 27.4259Q11.7704 27.4471 11.7704 27.4753Q11.7704 27.5071 11.7493 27.5265Q11.7281 27.5459 11.6999 27.5459H10.6063V28.6077H11.8586Q11.8868 28.6077 11.908 28.6289Q11.9292 28.6501 11.9292 28.6783ZM14.3104 26.3429Q14.3104 26.357 14.3034 26.3782L13.3368 28.703Q13.3156 28.7488 13.2697 28.7488Q13.2486 28.7488 13.2292 28.7365Q13.2098 28.7241 13.2027 28.703L12.2432 26.3888Q12.2326 26.3676 12.2326 26.3464Q12.2326 26.3182 12.252 26.2988Q12.2714 26.2794 12.2996 26.2794Q12.3525 26.2794 12.3772 26.3358L13.2733 28.4913L14.1728 26.3253Q14.1975 26.2794 14.2399 26.2794Q14.2716 26.2794 14.291 26.297Q14.3104 26.3147 14.3104 26.3429ZM16.2578 28.6783Q16.2578 28.71 16.2366 28.7294Q16.2154 28.7488 16.1872 28.7488H14.8572Q14.829 28.7488 14.8078 28.7277Q14.7867 28.7065 14.7867 28.6783V26.3499Q14.7867 26.3217 14.8078 26.3006Q14.829 26.2794 14.8572 26.2794H16.1872Q16.2154 26.2794 16.2366 26.3006Q16.2578 26.3217 16.2578 26.3499Q16.2578 26.3817 16.2366 26.4011Q16.2154 26.4205 16.1872 26.4205H14.9348V27.4047H16.0285Q16.0567 27.4047 16.0778 27.4259Q16.099 27.4471 16.099 27.4753Q16.099 27.5071 16.0778 27.5265Q16.0567 27.5459 16.0285 27.5459H14.9348V28.6077H16.1872Q16.2154 28.6077 16.2366 28.6289Q16.2578 28.6501 16.2578 28.6783ZM18.5826 28.6747Q18.5826 28.7065 18.5632 28.7259Q18.5438 28.7453 18.5155 28.7453Q18.4944 28.7453 18.4838 28.7383Q18.3885 28.6853 18.3321 28.5601Q18.2757 28.4349 18.2757 28.1491Q18.2757 27.8598 18.1204 27.7522Q17.9652 27.6446 17.7606 27.6446H16.9351V28.6783Q16.9351 28.7065 16.9139 28.7277Q16.8928 28.7488 16.861 28.7488Q16.8293 28.7488 16.8081 28.7277Q16.7869 28.7065 16.7869 28.6783V26.3499Q16.7869 26.3217 16.8081 26.3006Q16.8293 26.2794 16.8575 26.2794H17.7888Q17.9934 26.2794 18.1522 26.3623Q18.3109 26.4452 18.3991 26.5898Q18.4873 26.7345 18.4873 26.9179Q18.4873 27.1543 18.3621 27.3236Q18.2368 27.4929 18.0358 27.5529Q18.2051 27.6058 18.3145 27.7628Q18.4238 27.9198 18.4238 28.1491Q18.4238 28.3855 18.4538 28.479Q18.4838 28.5724 18.5438 28.6113Q18.5826 28.6359 18.5826 28.6747ZM17.8065 27.5035Q18.0287 27.4824 18.1839 27.3271Q18.3392 27.1719 18.3392 26.9214Q18.3392 26.7027 18.1839 26.5616Q18.0287 26.4205 17.7712 26.4205H16.9351V27.5035ZM18.9212 28.4137Q18.9001 28.3925 18.9001 28.3608Q18.9001 28.3326 18.9248 28.3061Q18.9495 28.2796 18.9777 28.2796Q19.0094 28.2796 19.0377 28.3114Q19.1752 28.4737 19.364 28.5583Q19.5527 28.643 19.7608 28.643Q20.0325 28.643 20.2089 28.5125Q20.3853 28.3819 20.3853 28.1668Q20.3817 27.9974 20.2935 27.8881Q20.2053 27.7787 20.0766 27.7134Q19.9478 27.6482 19.7256 27.567Q19.4822 27.4753 19.3463 27.4047Q19.2105 27.3342 19.1135 27.2037Q19.0165 27.0731 19.0165 26.8615Q19.0165 26.6886 19.1117 26.5475Q19.207 26.4064 19.3834 26.3253Q19.5598 26.2441 19.7926 26.2441Q20.0007 26.2441 20.1877 26.32Q20.3747 26.3958 20.484 26.5334Q20.5193 26.5828 20.5193 26.6075Q20.5193 26.6357 20.4929 26.6586Q20.4664 26.6816 20.4347 26.6816Q20.4064 26.6816 20.3888 26.6604Q20.29 26.5334 20.1348 26.4593Q19.9796 26.3852 19.7926 26.3852Q19.5245 26.3852 19.3463 26.5122Q19.1682 26.6392 19.1682 26.8579Q19.1682 27.0096 19.2546 27.1155Q19.341 27.2213 19.4716 27.2866Q19.6021 27.3518 19.7961 27.4224Q20.0431 27.5106 20.1877 27.5847Q20.3323 27.6588 20.4347 27.7999Q20.537 27.941 20.537 28.1738Q20.537 28.3361 20.4417 28.4772Q20.3465 28.6183 20.1683 28.7012Q19.9902 28.7841 19.7608 28.7841Q19.4998 28.7841 19.3058 28.6942Q19.1117 28.6042 18.9212 28.4137ZM22.5407 28.6783Q22.5407 28.71 22.5196 28.7294Q22.4984 28.7488 22.4702 28.7488H21.1402Q21.112 28.7488 21.0908 28.7277Q21.0697 28.7065 21.0697 28.6783V26.3499Q21.0697 26.3217 21.0908 26.3006Q21.112 26.2794 21.1402 26.2794H22.4702Q22.4984 26.2794 22.5196 26.3006Q22.5407 26.3217 22.5407 26.3499Q22.5407 26.3817 22.5196 26.4011Q22.4984 26.4205 22.4702 26.4205H21.2178V27.4047H22.3114Q22.3397 27.4047 22.3608 27.4259Q22.382 27.4471 22.382 27.4753Q22.382 27.5071 22.3608 27.5265Q22.3397 27.5459 22.3114 27.5459H21.2178V28.6077H22.4702Q22.4984 28.6077 22.5196 28.6289Q22.5407 28.6501 22.5407 28.6783Z" style="stroke:#000000;stroke-width:0.25;stroke-linecap:round;stroke-linejoin:bevel" />
        <path id="reverse_line_art" d="M 6.24,33.50 L 24.24,33.50 " style="stroke:#000000;stroke-width:0.25;stroke-linecap:round;stroke-linejoin:bevel;stroke-dasharray:none" fill="none" />
        <path d="M 6.24,47.00 L 24.24,47.00 z " style="stroke:#000000;stroke-width:0.25;stroke-linecap:round;stroke-linejoin:bevel;stroke-dasharray:none" />
        <path d="M13.7054 40.4532Q13.7054 40.6507 13.6225 40.8113Q13.5396 40.9718 13.3879 41.0617Q13.2362 41.1517 13.0387 41.1517H12.2696V42.1783Q12.2696 42.2065 12.2467 42.2277Q12.2238 42.2488 12.1955 42.2488Q12.1638 42.2488 12.1426 42.2277Q12.1214 42.2065 12.1214 42.1783V39.8499Q12.1214 39.8217 12.1426 39.8006Q12.1638 39.7794 12.192 39.7794H13.0387Q13.3385 39.7794 13.522 39.9664Q13.7054 40.1533 13.7054 40.4532ZM13.5573 40.4532Q13.5573 40.2098 13.4179 40.0651Q13.2786 39.9205 13.0387 39.9205H12.2696V41.0106H13.0387Q13.275 41.0106 13.4161 40.8536Q13.5573 40.6966 13.5573 40.4532ZM16.0302 42.1818Q16.0302 42.2136 16.0091 42.2312Q15.9879 42.2488 15.9561 42.2488Q15.9314 42.2488 15.912 42.2365Q15.8926 42.2241 15.8856 42.203L15.5893 41.4763L15.5928 41.4833H14.411L14.1252 42.203Q14.1076 42.2488 14.0617 42.2488Q14.03 42.2488 14.0106 42.2312Q13.9912 42.2136 13.9876 42.1889Q13.9841 42.1747 13.9912 42.1536L14.9401 39.8182Q14.9507 39.79 14.9666 39.7812Q14.9825 39.7723 15.0072 39.7723Q15.0601 39.7723 15.0777 39.8182L16.0267 42.1536Q16.0302 42.1642 16.0302 42.1818ZM14.4674 41.3422H15.5363L14.9966 40.0122ZM18.3586 39.8464V42.1712Q18.3586 42.21 18.3374 42.2294Q18.3162 42.2488 18.2845 42.2488Q18.2492 42.2488 18.228 42.2206L16.6405 40.051V42.1889Q16.6405 42.2136 16.6211 42.2312Q16.6017 42.2488 16.5735 42.2488Q16.5418 42.2488 16.5241 42.2312Q16.5065 42.2136 16.5065 42.1889V39.8499Q16.5065 39.8147 16.5259 39.797Q16.5453 39.7794 16.57 39.7794Q16.6017 39.7794 16.6229 39.8041L18.2245 41.9878V39.8464Q18.2245 39.8182 18.2439 39.7988Q18.2633 39.7794 18.2915 39.7794Q18.3233 39.7794 18.3409 39.7988Q18.3586 39.8182 18.3586 39.8464Z" style="stroke:#000000;stroke-width:0.25;stroke-linecap:round;stroke-linejoin:bevel" />
        <path d="M 6.24,60.50 L 24.24,60.50 z " style="stroke:#000000;stroke-width:0.25;stroke-linecap:round;stroke-linejoin:bevel;stroke-dasharray:none" />
        <path d="M14.8837 53.3499V55.6783Q14.8837 55.7065 14.8608 55.7277Q14.8378 55.7488 14.8096 55.7488Q14.7779 55.7488 14.7567 55.7277Q14.7355 55.7065 14.7355 55.6783V53.5687L13.8254 54.9445Q13.8077 54.9727 13.776 54.9727Q13.7372 54.9727 13.7195 54.9445L12.8058 53.5651V55.6783Q12.8058 55.7065 12.7847 55.7277Q12.7635 55.7488 12.7353 55.7488Q12.7035 55.7488 12.6841 55.7277Q12.6647 55.7065 12.6647 55.6783V53.3499Q12.6647 53.3252 12.6841 53.3023Q12.7035 53.2794 12.7317 53.2794Q12.7776 53.2794 12.7988 53.3111L13.776 54.7646L14.7532 53.3111Q14.7814 53.2723 14.8202 53.2794Q14.8484 53.2829 14.8661 53.3023Q14.8837 53.3217 14.8837 53.3499ZM15.6633 55.7488Q15.6281 55.7488 15.6087 55.7277Q15.5892 55.7065 15.5892 55.6747V53.3535Q15.5892 53.3217 15.6104 53.3006Q15.6316 53.2794 15.6633 53.2794Q15.6951 53.2794 15.7162 53.3006Q15.7374 53.3217 15.7374 53.3535V55.6747Q15.7339 55.7065 15.7127 55.7277Q15.6916 55.7488 15.6633 55.7488ZM18.0446 55.6465Q18.0622 55.6712 18.0622 55.6889Q18.0622 55.7206 18.0411 55.74Q18.0199 55.7594 17.9881 55.7594Q17.9493 55.7594 17.9317 55.7312L17.1238 54.6305L16.3195 55.7312Q16.3019 55.7594 16.2666 55.7594Q16.2348 55.7594 16.2172 55.74Q16.1996 55.7206 16.1996 55.6994Q16.1996 55.6818 16.2172 55.6536L17.0462 54.5212L16.2101 53.3817Q16.196 53.3641 16.196 53.3394Q16.196 53.3076 16.2172 53.2882Q16.2384 53.2688 16.2666 53.2688Q16.3089 53.2688 16.3266 53.297L17.1344 54.4012L17.9387 53.2935Q17.9599 53.2653 17.9917 53.2653Q18.0234 53.2653 18.0428 53.2812Q18.0622 53.297 18.0622 53.3217Q18.0622 53.3464 18.0446 53.3711L17.2156 54.5141Z" style="stroke:#000000;stroke-width:0.25;stroke-linecap:round;stroke-linejoin:bevel" />
        <path d="M 6.24,74.00 L 24.24,74.00 z " style="stroke:#000000;stroke-width:0.25;stroke-linecap:round;stroke-linejoin:bevel;stroke-dasharray:none" />
        <path d="M12.0227 69.1783Q12.0227 69.21 12.0015 69.2294Q11.9803 69.2488 11.9521 69.2488H10.6574Q10.6257 69.2488 10.6063 69.2277Q10.5869 69.2065 10.5869 69.1783V66.8499Q10.5869 66.8217 10.608 66.8006Q10.6292 66.7794 10.6609 66.7794Q10.6927 66.7794 10.7139 66.8006Q10.735 66.8217 10.735 66.8499V69.1077H11.9521Q11.9803 69.1077 12.0015 69.1289Q12.0227 69.1501 12.0227 69.1783ZM13.8994 69.1783Q13.8994 69.21 13.8783 69.2294Q13.8571 69.2488 13.8289 69.2488H12.4989Q12.4707 69.2488 12.4495 69.2277Q12.4284 69.2065 12.4284 69.1783V66.8499Q12.4284 66.8217 12.4495 66.8006Q12.4707 66.7794 12.4989 66.7794H13.8289Q13.8571 66.7794 13.8783 66.8006Q13.8994 66.8217 13.8994 66.8499Q13.8994 66.8817 13.8783 66.9011Q13.8571 66.9205 13.8289 66.9205H12.5765V67.9048H13.6701Q13.6984 67.9048 13.7195 67.9259Q13.7407 67.9471 13.7407 67.9753Q13.7407 68.0071 13.7195 68.0265Q13.6984 68.0459 13.6701 68.0459H12.5765V69.1077H13.8289Q13.8571 69.1077 13.8783 69.1289Q13.8994 69.1501 13.8994 69.1783ZM16.2807 66.8429Q16.2807 66.857 16.2736 66.8782L15.307 69.203Q15.2859 69.2488 15.24 69.2488Q15.2188 69.2488 15.1994 69.2365Q15.18 69.2241 15.173 69.203L14.2134 66.8888Q14.2028 66.8676 14.2028 66.8464Q14.2028 66.8182 14.2222 66.7988Q14.2416 66.7794 14.2699 66.7794Q14.3228 66.7794 14.3475 66.8358L15.2435 68.9913L16.1431 66.8253Q16.1678 66.7794 16.2101 66.7794Q16.2419 66.7794 16.2613 66.797Q16.2807 66.8147 16.2807 66.8429ZM18.228 69.1783Q18.228 69.21 18.2069 69.2294Q18.1857 69.2488 18.1575 69.2488H16.8275Q16.7993 69.2488 16.7781 69.2277Q16.7569 69.2065 16.7569 69.1783V66.8499Q16.7569 66.8217 16.7781 66.8006Q16.7993 66.7794 16.8275 66.7794H18.1575Q18.1857 66.7794 18.2069 66.8006Q18.228 66.8217 18.228 66.8499Q18.228 66.8817 18.2069 66.9011Q18.1857 66.9205 18.1575 66.9205H16.9051V67.9048H17.9987Q18.0269 67.9048 18.0481 67.9259Q18.0693 67.9471 18.0693 67.9753Q18.0693 68.0071 18.0481 68.0265Q18.0269 68.0459 17.9987 68.0459H16.9051V69.1077H18.1575Q18.1857 69.1077 18.2069 69.1289Q18.228 69.1501 18.228 69.1783ZM20.193 69.1783Q20.193 69.21 20.1718 69.2294Q20.1507 69.2488 20.1224 69.2488H18.8278Q18.796 69.2488 18.7766 69.2277Q18.7572 69.2065 18.7572 69.1783V66.8499Q18.7572 66.8217 18.7784 66.8006Q18.7995 66.7794 18.8313 66.7794Q18.863 66.7794 18.8842 66.8006Q18.9054 66.8217 18.9054 66.8499V69.1077H20.1224Q20.1507 69.1077 20.1718 69.1289Q20.193 69.1501 20.193 69.1783Z" style="stroke:#000000;stroke-width:0.25;stroke-linecap:round;stroke-linejoin:bevel" />
    </g>
</svg>
