<?xml version="1.0" encoding="utf-8"?>
<svg xmlns="http://www.w3.org/2000/svg" width="20.32mm" height="128.50mm" viewBox="0 0 20.32 128.50">
    <g id="PanelLayer">
        <defs />
        <rect id="border_rect" width="20.32" height="128.5" x="0" y="0" style="display:inline;fill:#4f8df2;fill-opacity:1;fill-rule:nonzero;stroke:#5021d4;stroke-width:0.7;stroke-linecap:round;stroke-linejoin:round;stroke-dasharray:none;stroke-opacity:1;image-rendering:auto" />
        <path id="model_name" d="M3.27978 8.15126Q3.20993 8.15126 3.16724 8.10469Q3.12455 8.05812 3.12455 7.99604V2.56326Q3.12455 2.50117 3.17112 2.4546Q3.21769 2.40804 3.27978 2.40804Q3.34963 2.40804 3.39231 2.4546Q3.435 2.50117 3.435 2.56326V7.99604Q3.435 8.05812 3.38843 8.10469Q3.34186 8.15126 3.27978 8.15126ZM6.4075 8.22887Q5.87199 8.22887 5.43348 7.96111Q4.99498 7.69335 4.74274 7.22769Q4.49051 6.76202 4.49051 6.19546Q4.49051 5.62114 4.74274 5.15547Q4.99498 4.6898 5.4296 4.42204Q5.86423 4.15429 6.4075 4.15429Q6.94302 4.15429 7.38152 4.42204Q7.82002 4.6898 8.06838 5.15547Q8.31674 5.62114 8.31674 6.19546Q8.31674 6.76978 8.06838 7.23157Q7.82002 7.69335 7.38152 7.96111Q6.94302 8.22887 6.4075 8.22887ZM6.4075 4.44921Q5.95736 4.44921 5.58871 4.67816Q5.22005 4.90711 5.0105 5.30293Q4.80095 5.69875 4.80095 6.19546Q4.80095 6.68441 5.0105 7.08022Q5.22005 7.47604 5.58871 7.70499Q5.95736 7.93395 6.4075 7.93395Q6.86541 7.93395 7.23018 7.70887Q7.59495 7.4838 7.80062 7.08411Q8.00629 6.68441 8.00629 6.19546Q8.00629 5.69875 7.80062 5.30293Q7.59495 4.90711 7.23018 4.67816Q6.86541 4.44921 6.4075 4.44921ZM10.9788 8.22887Q10.4433 8.22887 10.0048 7.96111Q9.56628 7.69335 9.31404 7.22769Q9.0618 6.76202 9.0618 6.19546Q9.0618 5.62114 9.31404 5.15547Q9.56628 4.6898 10.0009 4.42204Q10.4355 4.15429 10.9788 4.15429Q11.5143 4.15429 11.9528 4.42204Q12.3913 4.6898 12.6397 5.15547Q12.888 5.62114 12.888 6.19546Q12.888 6.76978 12.6397 7.23157Q12.3913 7.69335 11.9528 7.96111Q11.5143 8.22887 10.9788 8.22887ZM10.9788 4.44921Q10.5287 4.44921 10.16 4.67816Q9.79135 4.90711 9.5818 5.30293Q9.37225 5.69875 9.37225 6.19546Q9.37225 6.68441 9.5818 7.08022Q9.79135 7.47604 10.16 7.70499Q10.5287 7.93395 10.9788 7.93395Q11.4367 7.93395 11.8015 7.70887Q12.1662 7.4838 12.3719 7.08411Q12.5776 6.68441 12.5776 6.19546Q12.5776 5.69875 12.3719 5.30293Q12.1662 4.90711 11.8015 4.67816Q11.4367 4.44921 10.9788 4.44921ZM17.5059 6.21098Q17.5059 6.76978 17.2692 7.22381Q17.0325 7.67783 16.6211 7.93783Q16.2098 8.19782 15.7053 8.19782Q15.2396 8.19782 14.8516 7.96499Q14.4635 7.73216 14.2152 7.3053V9.54826Q14.2152 9.61035 14.1725 9.65691Q14.1298 9.70348 14.06 9.70348Q13.9979 9.70348 13.9513 9.65691Q13.9047 9.61035 13.9047 9.54826V4.38712Q13.9047 4.32503 13.9474 4.27846Q13.9901 4.2319 14.06 4.2319Q14.1298 4.2319 14.1725 4.27846Q14.2152 4.32503 14.2152 4.38712V5.10114Q14.448 4.65876 14.8361 4.44533Q15.2241 4.2319 15.7053 4.2319Q16.2175 4.2319 16.6289 4.48801Q17.0402 4.74413 17.2731 5.19428Q17.5059 5.64442 17.5059 6.21098ZM17.1954 6.21098Q17.1954 5.72979 16.9975 5.34562Q16.7996 4.96144 16.4581 4.74413Q16.1167 4.52682 15.6898 4.52682Q15.2552 4.52682 14.9098 4.74025Q14.5644 4.95368 14.3743 5.33786Q14.1841 5.72203 14.1841 6.21098Q14.1841 6.69993 14.3743 7.08411Q14.5644 7.46828 14.9098 7.68559Q15.2552 7.9029 15.6898 7.9029Q16.1167 7.9029 16.4581 7.68559Q16.7996 7.46828 16.9975 7.08022Q17.1954 6.69217 17.1954 6.21098Z" style="display:inline;stroke:#000000;stroke-width:0.35;stroke-linecap:round;stroke-linejoin:bevel" />
        <path id="sapphire_gemstone" d="m 12.875,122.900 q 0,0.34175 -0.242534,0.63114 -0.0441,0.0524 -0.20395,0.21497 -0.187413,0.19017 -0.785481,0.81304 l -1.444183,1.51309 q -0.01929,0.003 -0.0441,0.003 -0.02756,0 -0.04134,-0.003 -0.08268,-0.0827 -0.647678,-0.67524 -0.468532,-0.47404 -0.934309,-0.94809 -0.556727,-0.56775 -0.89848,-0.98116 -0.132292,-0.15985 -0.168121,-0.29766 -0.02756,-0.10197 -0.02756,-0.34175 0,-0.11024 0.07166,-0.28939 0.06614,-0.16536 0.140559,-0.26458 0.118512,-0.1571 0.42168,-0.42444 0.283875,-0.2508 0.474044,-0.37482 0.272852,-0.17915 0.818555,-0.36656 0.09646,-0.0331 0.110243,-0.0331 h 1.3615 q 0.01102,0 0.104731,0.0331 0.567751,0.20119 0.824066,0.36656 0.165365,0.10473 0.474045,0.37758 0.322461,0.28388 0.421679,0.42168 0.214974,0.2949 0.214974,0.62563 z m -0.16812,-0.27285 q -0.03307,-0.10749 -0.135048,-0.30868 -0.07166,-0.0937 -0.209462,-0.19844 -0.118511,-0.0854 -0.234266,-0.17088 0.245291,0.3638 0.578776,0.678 z m -0.573264,-0.52366 -0.358289,-0.44648 v 0.41065 z m 0.636653,0.75792 q 0,-0.0524 -0.341753,-0.39412 l 0.228754,0.7028 h 0.04961 q 0.06339,-0.21773 0.06339,-0.30868 z m -0.23151,0.27285 -0.316948,-0.90399 -0.410655,-0.0634 -0.159853,0.61461 z m 0.0028,0.15434 -0.771701,-0.3197 h -0.03032 l 0.344509,0.60634 q 0.07993,-0.003 0.234266,-0.0469 0.02481,-0.0138 0.223242,-0.23978 z m -0.857139,-1.05006 -0.719335,0.28388 0.60358,0.22599 z m 0,-0.16261 v -0.51538 l -0.917773,-0.38034 h -1.223697 l -0.917772,0.38034 v 0.51538 l 0.89848,0.4079 h 1.254014 z m 0.573264,1.53789 q -0.0689,0.011 -0.198438,0.0524 -0.08544,0.0551 -0.259071,0.16261 0.01929,0 0.06339,0.003 0.04134,0 0.06339,0 0.118511,0 0.190169,-0.0689 0.07166,-0.0717 0.14056,-0.14883 z m -0.289388,0.003 -0.347266,-0.63114 -0.363801,0.87918 q 0.0248,-0.0165 0.06615,-0.0165 0.03032,0 0.08544,0.011 0.05788,0.008 0.08819,0.008 0.04961,0 0.228754,-0.10749 0.228754,-0.1378 0.242535,-0.14331 z m -0.440972,-0.74139 -0.683507,-0.2756 -0.592556,0.54845 0.903993,0.65595 z m -0.854383,-0.28387 h -1.036284 l 0.523654,0.47404 z m 0.749652,1.36701 q -0.228754,-0.0303 -0.228754,-0.0303 -0.03583,0 -0.272851,0.0937 l 0.190169,0.0193 q 0.01102,0 0.311436,-0.0827 z m -0.388606,-0.0882 -0.843359,-0.61185 v 0.67524 l 0.471289,0.0827 z m 0.854383,0.0496 q -0.09922,0.006 -0.2949,0.0386 -0.01102,0.003 -0.377583,0.17639 -0.129535,0.34726 -0.380338,1.0418 z m -2.543857,-1.39733 -0.719335,-0.28388 0.124023,0.51814 z m -0.802018,-0.45476 v -0.41065 l -0.366557,0.44648 z m 1.515841,1.07212 -0.592556,-0.54019 -0.683506,0.2756 0.380338,0.9288 z m 0.369314,0.94257 q -0.03307,-0.003 -0.135047,-0.0248 -0.08544,-0.0165 -0.137804,-0.0165 -0.05237,0 -0.137804,0.0165 -0.101975,0.0221 -0.135047,0.0248 0.264583,0.0469 0.272851,0.0469 0.0083,0 0.272851,-0.0469 z m -0.30868,-0.1378 v -0.68626 l -0.843359,0.61185 0.37207,0.14607 z m 0.950846,0.20671 -0.396875,-0.0551 -0.479557,0.14056 v 1.27607 z m -2.888366,-2.20211 q -0.118512,0.0854 -0.234267,0.17364 -0.146072,0.10748 -0.209461,0.19568 -0.0441,0.10473 -0.135048,0.31419 0.369314,-0.3638 0.578776,-0.68351 z m 0.476801,0.83234 -0.159853,-0.61461 -0.410655,0.0634 -0.316948,0.90399 z m 0.394118,1.08313 -0.363802,-0.87918 -0.355533,0.63114 q 0.43546,0.2508 0.451996,0.2508 0.09095,0 0.267339,-0.003 z m 1.821765,0.82958 q -0.132291,0.21222 -0.405143,0.6339 -0.07717,0.10749 -0.220486,0.32797 -0.05788,0.10473 -0.05512,0.226 0.159852,-0.15158 0.432704,-0.49609 0.07717,-0.12954 0.140559,-0.339 0.05512,-0.17639 0.107486,-0.35278 z m -1.493792,-0.66146 -0.270095,-0.0882 -0.0083,-0.011 q -0.02481,0 -0.107487,0.011 -0.06615,0.006 -0.107487,0.006 0.272851,0.091 0.311436,0.091 0.02481,0 0.181901,-0.008 z m -0.810286,-1.06384 h -0.03032 l -0.7717,0.3197 q 0.06615,0.0965 0.223242,0.23978 0.07717,0.0138 0.234266,0.0469 z m -0.689018,-0.50161 q -0.341754,0.34727 -0.341754,0.39412 0,0.0799 0.06339,0.30868 h 0.04961 z m 2.235176,3.04547 v -1.27607 l -0.479557,-0.14056 -0.396875,0.0551 z m -1.606791,-1.6757 q -0.256315,-0.1819 -0.457509,-0.22324 0.06615,0.0772 0.20395,0.22324 z m 1.609547,2.04501 v -0.1378 l -0.683507,-1.05007 q 0.05237,0.17639 0.107487,0.35278 0.06339,0.20946 0.14056,0.339 0.0689,0.11851 0.20395,0.25907 0.115755,0.11851 0.23151,0.23702 z m -0.644921,-0.70555 q -0.115756,-0.32798 -0.380339,-1.0418 -0.135047,-0.0662 -0.272851,-0.12954 -0.159852,-0.0716 -0.289388,-0.0716 -0.05237,0 -0.110243,-0.0138 z" style="stroke-width:0;fill:#0000ff;stroke:#2e2114;stroke-linecap:square;stroke-opacity:1" />
    </g>
</svg>
