<?xml version="1.0" encoding="utf-8"?>
<svg xmlns="http://www.w3.org/2000/svg" width="50.80mm" height="128.50mm" viewBox="0 0 50.80 128.50">
    <path d="M23.6389 74.5818V75.2902Q23.6389 75.3241 23.6135 75.341Q23.4837 75.4285 23.3299 75.4779Q23.1761 75.5273 23.018 75.5273Q22.7274 75.5273 22.4973 75.3961Q22.2673 75.2648 22.1361 75.0334Q22.0049 74.802 22.0049 74.5113Q22.0049 74.2206 22.1361 73.9892Q22.2673 73.7578 22.4973 73.6265Q22.7274 73.4953 23.018 73.4953Q23.1761 73.4953 23.3186 73.5334Q23.4611 73.5715 23.574 73.6477Q23.5994 73.6646 23.5994 73.6957Q23.5994 73.7211 23.5811 73.7366Q23.5627 73.7521 23.5458 73.7521Q23.5317 73.7521 23.5091 73.7408Q23.272 73.6082 23.018 73.6082Q22.7584 73.6082 22.5552 73.7239Q22.352 73.8396 22.2377 74.0456Q22.1234 74.2516 22.1234 74.5113Q22.1234 74.7709 22.2377 74.977Q22.352 75.183 22.5552 75.2987Q22.7584 75.4144 23.018 75.4144Q23.1479 75.4144 23.2819 75.3735Q23.416 75.3326 23.526 75.2648V74.6383H23.018Q22.9955 74.6383 22.9785 74.6214Q22.9616 74.6044 22.9616 74.5818Q22.9616 74.5564 22.9785 74.5409Q22.9955 74.5254 23.018 74.5254H23.5825Q23.6079 74.5254 23.6234 74.5423Q23.6389 74.5593 23.6389 74.5818ZM25.5552 75.4454Q25.5552 75.4708 25.5383 75.485Q25.5214 75.4991 25.496 75.4991Q25.4762 75.4991 25.4607 75.4892Q25.4452 75.4793 25.4395 75.4624L25.2024 74.881L25.2053 74.8866H24.2598L24.0312 75.4624Q24.0171 75.4991 23.9804 75.4991Q23.955 75.4991 23.9395 75.485Q23.924 75.4708 23.9212 75.4511Q23.9183 75.4398 23.924 75.4229L24.6832 73.5546Q24.6916 73.532 24.7043 73.5249Q24.717 73.5179 24.7368 73.5179Q24.7791 73.5179 24.7932 73.5546L25.5524 75.4229Q25.5552 75.4313 25.5552 75.4454ZM24.305 74.7738H25.1601L24.7283 73.7098ZM27.2373 73.5771Q27.2373 73.6025 27.2217 73.6166Q27.2062 73.6308 27.1808 73.6308H26.5515V75.4426Q26.5515 75.4652 26.5345 75.4821Q26.5176 75.4991 26.495 75.4991Q26.4696 75.4991 26.4541 75.4821Q26.4386 75.4652 26.4386 75.4426V73.6308H25.8092Q25.7866 73.6308 25.7697 73.6152Q25.7528 73.5997 25.7528 73.5771Q25.7528 73.5546 25.7697 73.539Q25.7866 73.5235 25.8092 73.5235H27.1808Q27.2034 73.5235 27.2203 73.539Q27.2373 73.5546 27.2373 73.5771ZM28.7951 75.4426Q28.7951 75.468 28.7782 75.4835Q28.7613 75.4991 28.7387 75.4991H27.6747Q27.6521 75.4991 27.6352 75.4821Q27.6183 75.4652 27.6183 75.4426V73.58Q27.6183 73.5574 27.6352 73.5404Q27.6521 73.5235 27.6747 73.5235H28.7387Q28.7613 73.5235 28.7782 73.5404Q28.7951 73.5574 28.7951 73.58Q28.7951 73.6054 28.7782 73.6209Q28.7613 73.6364 28.7387 73.6364H27.7368V74.4238H28.6117Q28.6343 74.4238 28.6512 74.4407Q28.6681 74.4577 28.6681 74.4802Q28.6681 74.5056 28.6512 74.5212Q28.6343 74.5367 28.6117 74.5367H27.7368V75.3862H28.7387Q28.7613 75.3862 28.7782 75.4031Q28.7951 75.42 28.7951 75.4426Z" style="stroke:#000000;stroke-width:0.25;stroke-linecap:round;stroke-linejoin:bevel" />
</svg>
