<?xml version="1.0" encoding="UTF-8" standalone="no"?>
<!-- Created with Inkscape (http://www.inkscape.org/) -->

<svg
   width="50.8mm"
   height="128.5mm"
   viewBox="0 0 50.8 128.5"
   version="1.1"
   id="svg5"
   inkscape:version="1.2 (dc2aeda, 2022-05-15)"
   sodipodi:docname="moots.svg"
   xmlns:inkscape="http://www.inkscape.org/namespaces/inkscape"
   xmlns:sodipodi="http://sodipodi.sourceforge.net/DTD/sodipodi-0.dtd"
   xmlns="http://www.w3.org/2000/svg"
   xmlns:svg="http://www.w3.org/2000/svg"
   xmlns:rdf="http://www.w3.org/1999/02/22-rdf-syntax-ns#"
   xmlns:cc="http://creativecommons.org/ns#"
   xmlns:dc="http://purl.org/dc/elements/1.1/">
  <title
     id="title3611">Sapphire Moots</title>
  <sodipodi:namedview
     id="namedview7"
     pagecolor="#ffffff"
     bordercolor="#000000"
     borderopacity="0.25"
     inkscape:showpageshadow="2"
     inkscape:pageopacity="0.0"
     inkscape:pagecheckerboard="false"
     inkscape:deskcolor="#d1d1d1"
     inkscape:document-units="mm"
     showgrid="false"
     inkscape:zoom="1.6801556"
     inkscape:cx="-112.19199"
     inkscape:cy="242.83465"
     inkscape:window-width="1920"
     inkscape:window-height="1029"
     inkscape:window-x="0"
     inkscape:window-y="27"
     inkscape:window-maximized="1"
     inkscape:current-layer="PanelLayer" />
  <defs
     id="defs2">
    <rect
       x="32.22405"
       y="6.6716509"
       width="48.676804"
       height="19.599862"
       id="rect316" />
  </defs>
  <g
     inkscape:label="panel"
     inkscape:groupmode="layer"
     id="PanelLayer">
    <rect
       style="display:inline;fill:#3b90f4;fill-opacity:1;stroke:#000000;stroke-width:0.264999;stroke-linecap:square;image-rendering:auto"
       id="rect13067"
       width="50.8"
       height="128.5"
       x="0.0"
       y="0.0"
       inkscape:label="rect13067" />
    <path
       style="fill:#29aab4;stroke:#000000;stroke-width:0.288099;stroke-linecap:square;fill-opacity:1"
       d="m 2.9703079,17.601494 6.716649,-5.892869 H 40.514128 l 6.732585,5.439439 -21.879309,15.129411 z"
       id="path1383-3-3"
       inkscape:label="boundary1" />
    <path
       style="fill:#0081d7;stroke:#000000;stroke-width:0.288099;stroke-linecap:square;fill-opacity:1"
       d="M 2.9577335,39.371112 9.6743819,33.478243 H 40.501553 l 6.732585,5.439439 -21.879309,15.129411 z"
       id="path1383-3"
       inkscape:label="boundary2" />
    <path
       style="fill:#976de4;stroke:#000000;stroke-width:0.288099;stroke-linecap:square;fill-opacity:1"
       d="M 2.8988642,60.943397 9.6155093,55.050528 H 40.44268 l 6.732585,5.439439 -21.879309,15.129411 z"
       id="path1383-3-5"
       inkscape:label="boundary3" />
    <path
       style="fill:#0060f9;stroke:#000000;stroke-width:0.288099;stroke-linecap:square;fill-opacity:1"
       d="M 2.9135651,82.353513 9.6302123,76.460644 H 40.457383 l 6.732585,5.439439 -21.879309,15.129411 z"
       id="path1383-3-6"
       inkscape:label="boundary4" />
    <path
       style="fill:#637cdb;stroke:#000000;stroke-width:0.288099;stroke-linecap:square;fill-opacity:1"
       d="M 2.9726673,103.97346 9.6893159,98.080573 H 40.51649 l 6.732585,5.439457 -21.879309,15.1295 z"
       id="path1383-3-2"
       inkscape:label="boundary5" />
    <g
       aria-label="sapphire"
       id="brand_text"
       style="font-size:7.83151px;font-family:'Quicksand Light';-inkscape-font-specification:'Quicksand Light, Normal';fill:#0b0607;stroke:#000000;stroke-width:0.264999;stroke-linecap:square">
      <path
         d="m 10.804944,125.41509 q -0.05482,-0.0862 -0.05482,-0.1488 0,-0.0548 0.06265,-0.10181 0.03916,-0.0392 0.09398,-0.0392 0.07831,0 0.125304,0.0627 0.454228,0.65001 1.268705,0.65001 0.41507,0 0.72833,-0.20362 0.313261,-0.21145 0.313261,-0.56387 0,-0.36025 -0.274103,-0.54037 -0.274103,-0.18013 -0.751825,-0.2976 -0.634353,-0.15663 -1.002433,-0.41507 -0.36025,-0.26627 -0.36025,-0.74399 0,-0.46206 0.368081,-0.75966 0.368081,-0.30543 0.947613,-0.30543 0.321092,0 0.634352,0.12531 0.321092,0.1253 0.579532,0.3994 0.05482,0.047 0.05482,0.10965 0,0.0705 -0.05482,0.1253 -0.06265,0.0313 -0.10181,0.0313 -0.05482,0 -0.09398,-0.047 -0.407238,-0.4464 -1.049422,-0.4464 -0.41507,0 -0.704836,0.20362 -0.281935,0.20362 -0.281935,0.56387 0.02349,0.33675 0.305429,0.52471 0.289766,0.18012 0.845803,0.32109 0.399407,0.10181 0.657847,0.22712 0.266272,0.11747 0.422902,0.33675 0.15663,0.21928 0.15663,0.5717 0,0.49339 -0.383744,0.78315 -0.375912,0.28194 -0.98677,0.28194 -0.892792,0 -1.464493,-0.70484 z"
         style="stroke-width:0.265"
         id="path2060" />
      <path
         d="m 17.9316,122.13369 q 0.07048,0 0.109641,0.047 0.04699,0.047 0.04699,0.10964 v 3.59466 q 0,0.0627 -0.04699,0.10964 -0.04699,0.047 -0.109641,0.047 -0.07048,0 -0.117473,-0.047 -0.03916,-0.047 -0.03916,-0.10964 v -0.70484 q -0.195788,0.39941 -0.603026,0.67351 -0.407239,0.26628 -0.900624,0.26628 -0.51688,0 -0.93195,-0.26628 -0.41507,-0.2741 -0.650015,-0.74399 -0.234945,-0.47772 -0.234945,-1.06508 0,-0.57954 0.234945,-1.0416 0.242777,-0.46989 0.657847,-0.72833 0.41507,-0.26627 0.924118,-0.26627 0.509048,0 0.916287,0.26627 0.407238,0.26628 0.587363,0.71267 v -0.697 q 0,-0.0626 0.03916,-0.10964 0.04699,-0.047 0.117473,-0.047 z m -1.644617,3.68864 q 0.430733,0 0.77532,-0.22712 0.352417,-0.23494 0.548205,-0.64218 0.195788,-0.40724 0.195788,-0.90845 0,-0.47773 -0.195788,-0.87713 -0.195788,-0.39941 -0.548205,-0.62652 -0.344587,-0.23495 -0.77532,-0.23495 -0.430733,0 -0.783151,0.22711 -0.344586,0.21929 -0.540374,0.61869 -0.195788,0.39158 -0.195788,0.8928 0,0.50121 0.195788,0.90845 0.195788,0.40724 0.540374,0.64218 0.344586,0.22712 0.783151,0.22712 z"
         style="stroke-width:0.265"
         id="path2062" />
      <path
         d="m 21.205166,122.0867 q 0.51688,0 0.93195,0.25844 0.41507,0.25844 0.650015,0.71267 0.234945,0.45422 0.234945,1.02592 0,0.56387 -0.242777,1.02593 -0.234945,0.45423 -0.650015,0.7205 -0.41507,0.25844 -0.924118,0.25844 -0.469891,0 -0.861466,-0.23495 -0.391576,-0.23494 -0.642184,-0.66567 v 2.2633 q 0,0.0627 -0.04699,0.10964 -0.03916,0.047 -0.109641,0.047 -0.06265,0 -0.109641,-0.047 -0.04699,-0.047 -0.04699,-0.10964 v -5.20795 q 0,-0.0627 0.03916,-0.10964 0.04699,-0.047 0.117473,-0.047 0.07048,0 0.109641,0.047 0.04699,0.047 0.04699,0.10964 v 0.7205 q 0.234945,-0.4464 0.626521,-0.65785 0.391575,-0.21928 0.877129,-0.21928 z m -0.01566,3.7043 q 0.430733,0 0.775319,-0.21928 0.344587,-0.21928 0.540375,-0.61086 0.203619,-0.39157 0.203619,-0.87713 0,-0.48555 -0.203619,-0.86929 -0.195788,-0.39158 -0.540375,-0.61086 -0.344586,-0.21928 -0.775319,-0.21928 -0.438565,0 -0.790983,0.21928 -0.344586,0.21145 -0.540374,0.60302 -0.187956,0.38375 -0.187956,0.87713 0,0.49339 0.187956,0.88496 0.195788,0.38375 0.540374,0.60303 0.352418,0.21928 0.790983,0.21928 z"
         style="stroke-width:0.265"
         id="path2064" />
      <path
         d="m 25.864909,122.0867 q 0.51688,0 0.93195,0.25844 0.41507,0.25844 0.650015,0.71267 0.234946,0.45422 0.234946,1.02592 0,0.56387 -0.242777,1.02593 -0.234946,0.45423 -0.650016,0.7205 -0.41507,0.25844 -0.924118,0.25844 -0.46989,0 -0.861466,-0.23495 -0.391575,-0.23494 -0.642184,-0.66567 v 2.2633 q 0,0.0627 -0.04699,0.10964 -0.03916,0.047 -0.109641,0.047 -0.06265,0 -0.109641,-0.047 -0.04699,-0.047 -0.04699,-0.10964 v -5.20795 q 0,-0.0627 0.03916,-0.10964 0.04699,-0.047 0.117473,-0.047 0.07048,0 0.109641,0.047 0.04699,0.047 0.04699,0.10964 v 0.7205 q 0.234946,-0.4464 0.626521,-0.65785 0.391576,-0.21928 0.877129,-0.21928 z m -0.01566,3.7043 q 0.430733,0 0.77532,-0.21928 0.344586,-0.21928 0.540374,-0.61086 0.203619,-0.39157 0.203619,-0.87713 0,-0.48555 -0.203619,-0.86929 -0.195788,-0.39158 -0.540374,-0.61086 -0.344587,-0.21928 -0.77532,-0.21928 -0.438564,0 -0.790982,0.21928 -0.344587,0.21145 -0.540375,0.60302 -0.187956,0.38375 -0.187956,0.87713 0,0.49339 0.187956,0.88496 0.195788,0.38375 0.540375,0.60303 0.352418,0.21928 0.790982,0.21928 z"
         style="stroke-width:0.265"
         id="path2066" />
      <path
         d="m 30.415011,122.0867 q 0.67351,0 1.03376,0.43073 0.360249,0.4229 0.360249,1.08075 v 2.2868 q 0,0.0627 -0.04699,0.10964 -0.04699,0.047 -0.109641,0.047 -0.07048,0 -0.117473,-0.047 -0.03916,-0.047 -0.03916,-0.10964 v -2.2868 q 0,-0.54037 -0.266272,-0.87713 -0.266271,-0.33675 -0.814477,-0.33675 -0.336755,0 -0.665678,0.16446 -0.321092,0.16446 -0.524711,0.44639 -0.203619,0.28194 -0.203619,0.60303 v 2.2868 q 0,0.0627 -0.04699,0.10964 -0.04699,0.047 -0.109642,0.047 -0.07048,0 -0.117472,-0.047 -0.03916,-0.047 -0.03916,-0.10964 v -5.48206 q 0,-0.0626 0.04699,-0.10964 0.04699,-0.047 0.109641,-0.047 0.07048,0 0.109642,0.047 0.04699,0.047 0.04699,0.10964 v 2.47476 q 0.219282,-0.34459 0.603026,-0.56387 0.391575,-0.22711 0.790982,-0.22711 z"
         style="stroke-width:0.265"
         id="path2068" />
      <path
         d="m 33.422299,125.88498 q 0,0.0627 -0.04699,0.10964 -0.04699,0.047 -0.109641,0.047 -0.07048,0 -0.117473,-0.047 -0.03916,-0.047 -0.03916,-0.10964 v -3.71997 q 0,-0.0626 0.04699,-0.10964 0.04699,-0.047 0.109641,-0.047 0.07048,0 0.109641,0.047 0.04699,0.047 0.04699,0.10964 z m -0.15663,-4.40914 q -0.125304,0 -0.203619,-0.0705 -0.07048,-0.0705 -0.07048,-0.18013 v -0.0626 q 0,-0.10964 0.07832,-0.18012 0.07831,-0.0705 0.20362,-0.0705 0.109641,0 0.180124,0.0705 0.07831,0.0705 0.07831,0.18012 v 0.0626 q 0,0.10964 -0.07831,0.18013 -0.07048,0.0705 -0.187956,0.0705 z"
         style="stroke-width:0.265"
         id="path2070" />
      <path
         d="m 36.492245,122.00838 q 0.36025,0 0.36025,0.18013 0,0.0705 -0.03916,0.11747 -0.03916,0.047 -0.10181,0.047 -0.02349,0 -0.117472,-0.0313 -0.08615,-0.0392 -0.187956,-0.0392 -0.321092,0 -0.642184,0.25844 -0.321092,0.2506 -0.524711,0.64218 -0.20362,0.38374 -0.20362,0.74399 v 1.95788 q 0,0.0627 -0.04699,0.10964 -0.04699,0.047 -0.109641,0.047 -0.07048,0 -0.117473,-0.047 -0.03916,-0.047 -0.03916,-0.10964 v -3.59466 q 0,-0.0626 0.04699,-0.10964 0.04699,-0.047 0.109641,-0.047 0.07048,0 0.109641,0.047 0.04699,0.047 0.04699,0.10964 v 0.83014 q 0.180125,-0.47772 0.556037,-0.79099 0.383744,-0.31326 0.900624,-0.32109 z"
         style="stroke-width:0.265"
         id="path2072" />
      <path
         d="m 40.525449,125.10183 q 0.05482,0 0.09398,0.047 0.03916,0.0392 0.03916,0.094 0,0.0548 -0.03133,0.094 -0.25844,0.34459 -0.642184,0.56387 -0.383744,0.21929 -0.822309,0.21929 -0.587363,0 -1.041591,-0.25061 -0.454227,-0.25061 -0.712667,-0.71267 -0.250608,-0.46206 -0.250608,-1.07292 0,-0.62652 0.242776,-1.09641 0.250609,-0.47772 0.657847,-0.72833 0.407239,-0.25061 0.869298,-0.25061 0.462059,0 0.853635,0.20362 0.399407,0.19579 0.650015,0.5952 0.250608,0.3994 0.266271,0.98677 0,0.0627 -0.04699,0.11747 -0.04699,0.047 -0.109641,0.047 h -3.077783 v 0.10181 q 0,0.48555 0.195787,0.89279 0.195788,0.39941 0.579532,0.63435 0.383744,0.23495 0.924118,0.23495 0.375913,0 0.704836,-0.18013 0.336755,-0.18795 0.524711,-0.46989 0.05482,-0.0705 0.133136,-0.0705 z m -1.597628,-2.78019 q -0.289766,0 -0.595195,0.15663 -0.297597,0.1488 -0.532543,0.45423 -0.227113,0.2976 -0.305428,0.72833 h 2.881995 v -0.0705 q -0.03916,-0.39941 -0.25844,-0.68134 -0.21145,-0.28977 -0.532542,-0.43857 -0.313261,-0.1488 -0.657847,-0.1488 z"
         style="stroke-width:0.265"
         id="path2074" />
    </g>
    <g
       aria-label="moots"
       id="title_text"
       style="font-size:7.83151px;font-family:Quicksand;-inkscape-font-specification:'Quicksand, Normal';fill:#2a0a0d;stroke:#000000;stroke-width:0.264999;stroke-linecap:square">
      <path
         d="m 18.535592,3.1676164 q 0.704836,0 1.033759,0.4385645 0.336755,0.430733 0.336755,1.1434004 v 2.2163172 q 0,0.1018096 -0.07048,0.1722932 -0.06265,0.062652 -0.164462,0.062652 -0.10181,0 -0.172293,-0.062652 -0.06265,-0.070484 -0.06265,-0.1722932 V 4.7730758 q 0,-0.5168796 -0.250609,-0.8379715 -0.242777,-0.3289234 -0.759656,-0.3289234 -0.328924,0 -0.626521,0.1566302 -0.289766,0.1566302 -0.469891,0.430733 -0.180124,0.2662714 -0.180124,0.5795317 v 2.1928227 q 0,0.1018096 -0.07048,0.1722932 -0.06265,0.062652 -0.164462,0.062652 -0.101809,0 -0.172293,-0.062652 -0.06265,-0.070484 -0.06265,-0.1722932 V 4.7495813 q 0,-0.5090481 -0.234945,-0.8223085 -0.234945,-0.3210919 -0.736162,-0.3210919 -0.321092,0 -0.610858,0.1566302 -0.281934,0.1566302 -0.462059,0.4229015 -0.172293,0.2584398 -0.172293,0.5638687 v 2.2163172 q 0,0.1018096 -0.07048,0.1722932 -0.06265,0.062652 -0.164461,0.062652 -0.10181,0 -0.172294,-0.062652 -0.06265,-0.070484 -0.06265,-0.1722932 V 3.4573822 q 0,-0.1018096 0.06265,-0.1644617 0.07048,-0.070484 0.172294,-0.070484 0.101809,0 0.164461,0.070484 0.07048,0.062652 0.07048,0.1644617 v 0.4542276 q 0.211451,-0.3210919 0.5717,-0.5325427 0.36025,-0.2114507 0.759657,-0.2114507 0.454227,0 0.783151,0.2192822 0.328923,0.2192823 0.46989,0.6421838 0.164462,-0.3445864 0.603026,-0.6030262 0.438565,-0.2584398 0.884961,-0.2584398 z"
         style="font-size:7.83151px;stroke-width:0.265"
         id="path2049" />
      <path
         d="m 24.832116,5.1959774 q 0,0.5873632 -0.25844,1.0650853 -0.25844,0.477722 -0.712667,0.7518249 -0.454228,0.2662713 -1.010265,0.2662713 -0.556037,0 -1.010265,-0.2662713 -0.454227,-0.2741029 -0.712667,-0.7518249 -0.25844,-0.4777221 -0.25844,-1.0650853 0,-0.5873633 0.25844,-1.0650853 0.25844,-0.4777221 0.712667,-0.751825 0.454228,-0.2741028 1.010265,-0.2741028 0.556037,0 1.010265,0.2741028 0.454227,0.2741029 0.712667,0.751825 0.25844,0.477722 0.25844,1.0650853 z m -0.469891,0 q 0,-0.4698906 -0.195788,-0.8458031 Q 23.97065,3.9742619 23.618232,3.7628111 23.273645,3.5435288 22.850744,3.5435288 q -0.422902,0 -0.767488,0.2192823 -0.344587,0.2114508 -0.548206,0.5873632 -0.195788,0.3759125 -0.195788,0.8458031 0,0.462059 0.195788,0.8379715 0.203619,0.3759124 0.548206,0.5951947 0.344586,0.2114508 0.767488,0.2114508 0.422901,0 0.767488,-0.2114508 0.352418,-0.2114507 0.548205,-0.5873632 0.195788,-0.3759125 0.195788,-0.845803 z"
         style="font-size:7.83151px;stroke-width:0.265"
         id="path2051" />
      <path
         d="m 29.491859,5.1959774 q 0,0.5873632 -0.25844,1.0650853 -0.25844,0.477722 -0.712668,0.7518249 -0.454227,0.2662713 -1.010264,0.2662713 -0.556038,0 -1.010265,-0.2662713 -0.454228,-0.2741029 -0.712667,-0.7518249 -0.25844,-0.4777221 -0.25844,-1.0650853 0,-0.5873633 0.25844,-1.0650853 0.258439,-0.4777221 0.712667,-0.751825 0.454227,-0.2741028 1.010265,-0.2741028 0.556037,0 1.010264,0.2741028 0.454228,0.2741029 0.712668,0.751825 0.25844,0.477722 0.25844,1.0650853 z m -0.469891,0 q 0,-0.4698906 -0.195788,-0.8458031 -0.195787,-0.3759124 -0.548205,-0.5873632 -0.344587,-0.2192823 -0.767488,-0.2192823 -0.422902,0 -0.767488,0.2192823 -0.344587,0.2114508 -0.548206,0.5873632 -0.195788,0.3759125 -0.195788,0.8458031 0,0.462059 0.195788,0.8379715 0.203619,0.3759124 0.548206,0.5951947 0.344586,0.2114508 0.767488,0.2114508 0.422901,0 0.767488,-0.2114508 0.352418,-0.2114507 0.548205,-0.5873632 0.195788,-0.3759125 0.195788,-0.845803 z"
         style="font-size:7.83151px;stroke-width:0.265"
         id="path2053" />
      <path
         d="m 31.23828,3.65317 v 2.6235557 q 0,0.2975973 0.109641,0.4072385 0.109642,0.1018096 0.289766,0.1018096 0.04699,0 0.117473,-0.015663 0.07048,-0.023494 0.109641,-0.023494 0.07048,0 0.117473,0.062652 0.05482,0.054821 0.05482,0.1331357 0,0.1096411 -0.125304,0.1879562 -0.125304,0.070484 -0.297597,0.070484 -0.211451,0 -0.375913,-0.039157 Q 31.073819,7.1225287 30.917188,6.926741 30.76839,6.7309532 30.76839,6.3002202 V 3.65317 h -0.5717 q -0.09398,0 -0.164462,-0.062652 -0.06265,-0.062652 -0.06265,-0.1566302 0,-0.093978 0.06265,-0.1566302 0.07048,-0.062652 0.164462,-0.062652 h 0.5717 V 2.3453079 q 0,-0.1018097 0.06265,-0.1644617 0.07048,-0.070484 0.172293,-0.070484 0.10181,0 0.164462,0.070484 0.07048,0.062652 0.07048,0.1644617 v 0.8692975 h 0.783151 q 0.08615,0 0.148799,0.070484 0.07048,0.070484 0.07048,0.1566302 0,0.093978 -0.06265,0.1566302 -0.06265,0.054821 -0.15663,0.054821 z"
         style="font-size:7.83151px;stroke-width:0.265"
         id="path2055" />
      <path
         d="m 33.039507,6.5664915 q -0.06265,-0.1018096 -0.06265,-0.1722932 0,-0.1018096 0.101809,-0.1566302 0.04699,-0.046989 0.125304,-0.046989 0.09398,0 0.172293,0.078315 0.46206,0.6108577 1.229547,0.6108577 0.375913,0 0.650016,-0.1722932 0.281934,-0.1801247 0.281934,-0.5168796 0,-0.3289234 -0.25844,-0.4933851 Q 35.020879,5.5327323 34.558819,5.4152596 33.908804,5.2507979 33.540723,4.9923581 33.172642,4.7260868 33.172642,4.2170387 q 0,-0.3210919 0.180125,-0.5717002 0.180125,-0.2584399 0.485554,-0.399407 0.31326,-0.1409672 0.704835,-0.1409672 0.336755,0 0.67351,0.1331357 0.344587,0.1253041 0.587363,0.4072385 0.07048,0.054821 0.07048,0.1566301 0,0.093978 -0.07832,0.1644618 -0.05482,0.046989 -0.140967,0.046989 -0.07832,0 -0.140967,-0.062652 -0.187957,-0.2114507 -0.446396,-0.3210919 -0.25844,-0.1096411 -0.556038,-0.1096411 -0.368081,0 -0.634352,0.1722932 -0.25844,0.1722932 -0.25844,0.5168796 0.01566,0.3132604 0.281935,0.4777221 0.274102,0.1644617 0.798814,0.2975974 0.407238,0.1018096 0.673509,0.2271138 0.266272,0.1253041 0.430733,0.3524179 0.172294,0.2271138 0.172294,0.6030262 0,0.5090482 -0.407239,0.814477 -0.407238,0.2975974 -1.010265,0.2975974 -0.955444,0 -1.519312,-0.7126674 z"
         style="font-size:7.83151px;stroke-width:0.265"
         id="path2057" />
    </g>
  </g>
  <g
     inkscape:groupmode="layer"
     id="layer2"
     inkscape:label="components"
     style="display:inline"
     sodipodi:insensitive="true">
    <circle
       id="31c26023-ab1d-46e8-ae54-21b8d609f858"
       data-name=""
       cx="39.60"
       cy="103.25"
       style="display:inline;fill:#0000ff;fill-opacity:1"
       inkscape:label="OutAudio5"
       r="2" />
    <circle
       id="09a321ce-5a03-4641-91cb-228496558225"
       data-name=""
       cx="39.60"
       cy="81.75"
       style="display:inline;fill:#0000ff;fill-opacity:1"
       inkscape:label="OutAudio4"
       r="2" />
    <circle
       id="c9e65b87-5cff-418d-99b5-da7075e79ef9"
       data-name=""
       cx="39.60"
       cy="60.25"
       style="display:inline;fill:#0000ff;fill-opacity:1"
       inkscape:label="OutAudio3"
       r="2" />
    <circle
       id="5d0a9719-8c44-4a3a-bfe2-b12a223329cf"
       data-name=""
       cx="39.60"
       cy="38.75"
       style="display:inline;fill:#0000ff;fill-opacity:1"
       inkscape:label="OutAudio2"
       r="2" />
    <circle
       id="99054daa-0e7d-486b-b363-b2fd948089f7"
       data-name=""
       cx="39.60"
       cy="17.25"
       style="display:inline;fill:#0000ff;fill-opacity:1"
       inkscape:label="OutAudio1"
       r="2" />
    <circle
       id="8aa05a20-7390-44c5-a647-c01b7c104220"
       data-name=""
       cx="10.50"
       cy="103.25"
       style="display:inline;fill:#00ff00;fill-opacity:1"
       inkscape:label="InAudio5"
       r="2" />
    <circle
       id="175014bc-b7ac-4d6a-90db-3df5083205e6"
       data-name=""
       cx="10.50"
       cy="81.75"
       style="display:inline;fill:#00ff00;fill-opacity:1"
       inkscape:label="InAudio4"
       r="2" />
    <circle
       id="0da6c34a-bcb2-4167-bba0-1778bc0ea30b"
       data-name=""
       cx="10.50"
       cy="60.25"
       style="display:inline;fill:#00ff00;fill-opacity:1"
       inkscape:label="InAudio3"
       r="2" />
    <circle
       id="841b7d67-e371-4fa0-9bb5-9a9f899f845c"
       data-name=""
       cx="10.50"
       cy="38.75"
       style="display:inline;fill:#00ff00;fill-opacity:1"
       inkscape:label="InAudio2"
       r="2" />
    <circle
       id="81e89e8d-a9f3-4016-890c-73b96fb4d3d8"
       data-name=""
       cx="10.50"
       cy="17.25"
       style="display:inline;fill:#00ff00;fill-opacity:1"
       inkscape:label="InAudio1"
       r="2" />
    <circle
       id="100a23fd-2f7e-4310-8c38-7f1b4f3dca1f"
       data-name=""
       cx="25.05"
       cy="111.25"
       r="2"
       style="display:inline;fill:#00ff00;fill-opacity:1"
       inkscape:label="InGate5" />
    <circle
       id="e0a580c2-7c64-4367-9200-c459ce1f26ce"
       data-name=""
       cx="25.05"
       cy="89.75"
       r="2"
       style="display:inline;fill:#00ff00;fill-opacity:1"
       inkscape:label="InGate4" />
    <circle
       id="e6074742-2628-43b5-90c0-7731b6fbd30e"
       data-name=""
       cx="25.05"
       cy="68.25"
       r="2"
       style="display:inline;fill:#00ff00;fill-opacity:1"
       inkscape:label="InGate3" />
    <circle
       id="89bdbdc4-031a-48b8-be16-4aaf33f52925"
       data-name=""
       cx="25.05"
       cy="46.75"
       r="2"
       style="display:inline;fill:#00ff00;fill-opacity:1"
       inkscape:label="InGate2" />
    <circle
       id="fbd575e7-79e4-4304-bb45-b3be6e23860e"
       data-name=""
       cx="25.05"
       cy="25.25"
       style="display:inline;fill:#00ff00;fill-opacity:1"
       inkscape:label="InGate1"
       r="2" />
    <circle
       id="eb59edf3-7604-464a-8c1f-0a10c4cbf922"
       data-name=""
       cx="25.05"
       cy="103.25"
       r="2"
       style="display:inline;fill:#ff0000"
       inkscape:label="ToggleButton5" />
    <circle
       id="183b45e2-03d8-4515-a732-d0c7704843e1"
       data-name=""
       cx="25.05"
       cy="81.75"
       r="2"
       style="display:inline;fill:#ff0000"
       inkscape:label="ToggleButton4" />
    <circle
       id="e1bd1169-22cf-4455-9fe7-7e199554d02e"
       data-name=""
       cx="25.05"
       cy="60.25"
       r="2"
       style="display:inline;fill:#ff0000"
       inkscape:label="ToggleButton3" />
    <circle
       id="b829e6ae-bc7d-4b17-8e68-3eb798046fd5"
       data-name=""
       cx="25.05"
       cy="38.75"
       r="2"
       style="display:inline;fill:#ff0000"
       inkscape:label="ToggleButton2" />
    <circle
       id="76d79dec-8118-43fb-b5dd-6b40972a996f"
       data-name=""
       cx="25.05"
       cy="17.25"
       style="display:inline;fill:#ff0000"
       inkscape:label="ToggleButton1"
       r="2" />
  </g>
  <metadata
     id="metadata3609">
    <rdf:RDF>
      <cc:Work
         rdf:about="">
        <dc:creator>
          <cc:Agent>
            <dc:title>Don Cross &lt;cosinekitty@gmail.com&gt;</dc:title>
          </cc:Agent>
        </dc:creator>
        <dc:title>Sapphire Moots</dc:title>
      </cc:Work>
    </rdf:RDF>
  </metadata>
</svg>
