<?xml version="1.0" encoding="utf-8"?>
<svg xmlns="http://www.w3.org/2000/svg" width="50.80mm" height="128.50mm" viewBox="0 0 50.80 128.50">
    <g id="PanelLayer">
        <g id="ControlLayer" style="display:none;" />
        <g id="sapphire_moots_legacy_panel">
            <rect style="display:inline;fill:#4f8df2;fill-opacity:1;fill-rule:nonzero;stroke:#5021d4;stroke-width:0.401661;stroke-linecap:round;stroke-linejoin:round;stroke-dasharray:none;stroke-opacity:1;image-rendering:auto" width="50.384171" height="128.0802" x="0.20660542" y="0.2061476" />
            <path style="fill:#29aab4;fill-opacity:1;stroke:#000000;stroke-width:0.290222;stroke-linecap:square" d="M 2.9716623,17.689808 9.6879004,11.709386 H 40.513186 l 6.732173,5.520255 -17.048685,12.535574 -9.948611,5.39e-4 z" />
            <path style="fill:#0081d7;fill-opacity:1;stroke:#000000;stroke-width:0.292593;stroke-linecap:square" d="M 2.9606053,39.55876 9.6763825,33.479847 H 40.499555 l 6.731712,5.611167 -17.051887,12.336407 -10.209716,-0.0042 z" />
            <path style="fill:#976de4;fill-opacity:1;stroke:#000000;stroke-width:0.289434;stroke-linecap:square" d="M 2.8997186,60.998855 9.6161045,55.051004 H 40.442086 l 6.732325,5.490191 -17.065335,12.228021 -9.926461,-0.01446 z" />
            <path style="fill:#0060f9;fill-opacity:1;stroke:#000000;stroke-width:0.291063;stroke-linecap:square" d="M 2.9154563,82.47698 9.6315298,76.461708 H 40.456067 l 6.73201,5.552424 -17.236589,12.516471 -9.740299,-0.02176 z" />
            <path style="fill:#637cdb;fill-opacity:1;stroke:#000000;stroke-width:0.288099;stroke-linecap:square" d="M 2.9726673,103.97346 9.6893159,98.080573 H 40.51649 l 6.732585,5.439457 -17.437172,12.66642 -9.441437,-0.0102 z" />
            <g id="brand_text" style="fill:#0b0607;stroke:#000000;stroke-width:0.265;stroke-linecap:square" transform="translate(-0.4457988,-0.44557112)">
                <path d="m 10.804944,125.41509 q -0.05482,-0.0862 -0.05482,-0.1488 0,-0.0548 0.06265,-0.10181 0.03916,-0.0392 0.09398,-0.0392 0.07831,0 0.125304,0.0627 0.454228,0.65001 1.268705,0.65001 0.41507,0 0.72833,-0.20362 0.313261,-0.21145 0.313261,-0.56387 0,-0.36025 -0.274103,-0.54037 -0.274103,-0.18013 -0.751825,-0.2976 -0.634353,-0.15663 -1.002433,-0.41507 -0.36025,-0.26627 -0.36025,-0.74399 0,-0.46206 0.368081,-0.75966 0.368081,-0.30543 0.947613,-0.30543 0.321092,0 0.634352,0.12531 0.321092,0.1253 0.579532,0.3994 0.05482,0.047 0.05482,0.10965 0,0.0705 -0.05482,0.1253 -0.06265,0.0313 -0.10181,0.0313 -0.05482,0 -0.09398,-0.047 -0.407238,-0.4464 -1.049422,-0.4464 -0.41507,0 -0.704836,0.20362 -0.281935,0.20362 -0.281935,0.56387 0.02349,0.33675 0.305429,0.52471 0.289766,0.18012 0.845803,0.32109 0.399407,0.10181 0.657847,0.22712 0.266272,0.11747 0.422902,0.33675 0.15663,0.21928 0.15663,0.5717 0,0.49339 -0.383744,0.78315 -0.375912,0.28194 -0.98677,0.28194 -0.892792,0 -1.464493,-0.70484 z" />
                <path d="m 17.9316,122.13369 q 0.07048,0 0.109641,0.047 0.04699,0.047 0.04699,0.10964 v 3.59466 q 0,0.0627 -0.04699,0.10964 -0.04699,0.047 -0.109641,0.047 -0.07048,0 -0.117473,-0.047 -0.03916,-0.047 -0.03916,-0.10964 v -0.70484 q -0.195788,0.39941 -0.603026,0.67351 -0.407239,0.26628 -0.900624,0.26628 -0.51688,0 -0.93195,-0.26628 -0.41507,-0.2741 -0.650015,-0.74399 -0.234945,-0.47772 -0.234945,-1.06508 0,-0.57954 0.234945,-1.0416 0.242777,-0.46989 0.657847,-0.72833 0.41507,-0.26627 0.924118,-0.26627 0.509048,0 0.916287,0.26627 0.407238,0.26628 0.587363,0.71267 v -0.697 q 0,-0.0626 0.03916,-0.10964 0.04699,-0.047 0.117473,-0.047 z m -1.644617,3.68864 q 0.430733,0 0.77532,-0.22712 0.352417,-0.23494 0.548205,-0.64218 0.195788,-0.40724 0.195788,-0.90845 0,-0.47773 -0.195788,-0.87713 -0.195788,-0.39941 -0.548205,-0.62652 -0.344587,-0.23495 -0.77532,-0.23495 -0.430733,0 -0.783151,0.22711 -0.344586,0.21929 -0.540374,0.61869 -0.195788,0.39158 -0.195788,0.8928 0,0.50121 0.195788,0.90845 0.195788,0.40724 0.540374,0.64218 0.344586,0.22712 0.783151,0.22712 z" />
                <path d="m 21.205166,122.0867 q 0.51688,0 0.93195,0.25844 0.41507,0.25844 0.650015,0.71267 0.234945,0.45422 0.234945,1.02592 0,0.56387 -0.242777,1.02593 -0.234945,0.45423 -0.650015,0.7205 -0.41507,0.25844 -0.924118,0.25844 -0.469891,0 -0.861466,-0.23495 -0.391576,-0.23494 -0.642184,-0.66567 v 2.2633 q 0,0.0627 -0.04699,0.10964 -0.03916,0.047 -0.109641,0.047 -0.06265,0 -0.109641,-0.047 -0.04699,-0.047 -0.04699,-0.10964 v -5.20795 q 0,-0.0627 0.03916,-0.10964 0.04699,-0.047 0.117473,-0.047 0.07048,0 0.109641,0.047 0.04699,0.047 0.04699,0.10964 v 0.7205 q 0.234945,-0.4464 0.626521,-0.65785 0.391575,-0.21928 0.877129,-0.21928 z m -0.01566,3.7043 q 0.430733,0 0.775319,-0.21928 0.344587,-0.21928 0.540375,-0.61086 0.203619,-0.39157 0.203619,-0.87713 0,-0.48555 -0.203619,-0.86929 -0.195788,-0.39158 -0.540375,-0.61086 -0.344586,-0.21928 -0.775319,-0.21928 -0.438565,0 -0.790983,0.21928 -0.344586,0.21145 -0.540374,0.60302 -0.187956,0.38375 -0.187956,0.87713 0,0.49339 0.187956,0.88496 0.195788,0.38375 0.540374,0.60303 0.352418,0.21928 0.790983,0.21928 z" />
                <path d="m 25.864909,122.0867 q 0.51688,0 0.93195,0.25844 0.41507,0.25844 0.650015,0.71267 0.234946,0.45422 0.234946,1.02592 0,0.56387 -0.242777,1.02593 -0.234946,0.45423 -0.650016,0.7205 -0.41507,0.25844 -0.924118,0.25844 -0.46989,0 -0.861466,-0.23495 -0.391575,-0.23494 -0.642184,-0.66567 v 2.2633 q 0,0.0627 -0.04699,0.10964 -0.03916,0.047 -0.109641,0.047 -0.06265,0 -0.109641,-0.047 -0.04699,-0.047 -0.04699,-0.10964 v -5.20795 q 0,-0.0627 0.03916,-0.10964 0.04699,-0.047 0.117473,-0.047 0.07048,0 0.109641,0.047 0.04699,0.047 0.04699,0.10964 v 0.7205 q 0.234946,-0.4464 0.626521,-0.65785 0.391576,-0.21928 0.877129,-0.21928 z m -0.01566,3.7043 q 0.430733,0 0.77532,-0.21928 0.344586,-0.21928 0.540374,-0.61086 0.203619,-0.39157 0.203619,-0.87713 0,-0.48555 -0.203619,-0.86929 -0.195788,-0.39158 -0.540374,-0.61086 -0.344587,-0.21928 -0.77532,-0.21928 -0.438564,0 -0.790982,0.21928 -0.344587,0.21145 -0.540375,0.60302 -0.187956,0.38375 -0.187956,0.87713 0,0.49339 0.187956,0.88496 0.195788,0.38375 0.540375,0.60303 0.352418,0.21928 0.790982,0.21928 z" />
                <path d="m 30.415011,122.0867 q 0.67351,0 1.03376,0.43073 0.360249,0.4229 0.360249,1.08075 v 2.2868 q 0,0.0627 -0.04699,0.10964 -0.04699,0.047 -0.109641,0.047 -0.07048,0 -0.117473,-0.047 -0.03916,-0.047 -0.03916,-0.10964 v -2.2868 q 0,-0.54037 -0.266272,-0.87713 -0.266271,-0.33675 -0.814477,-0.33675 -0.336755,0 -0.665678,0.16446 -0.321092,0.16446 -0.524711,0.44639 -0.203619,0.28194 -0.203619,0.60303 v 2.2868 q 0,0.0627 -0.04699,0.10964 -0.04699,0.047 -0.109642,0.047 -0.07048,0 -0.117472,-0.047 -0.03916,-0.047 -0.03916,-0.10964 v -5.48206 q 0,-0.0626 0.04699,-0.10964 0.04699,-0.047 0.109641,-0.047 0.07048,0 0.109642,0.047 0.04699,0.047 0.04699,0.10964 v 2.47476 q 0.219282,-0.34459 0.603026,-0.56387 0.391575,-0.22711 0.790982,-0.22711 z" />
                <path d="m 33.422299,125.88498 q 0,0.0627 -0.04699,0.10964 -0.04699,0.047 -0.109641,0.047 -0.07048,0 -0.117473,-0.047 -0.03916,-0.047 -0.03916,-0.10964 v -3.71997 q 0,-0.0626 0.04699,-0.10964 0.04699,-0.047 0.109641,-0.047 0.07048,0 0.109641,0.047 0.04699,0.047 0.04699,0.10964 z m -0.15663,-4.40914 q -0.125304,0 -0.203619,-0.0705 -0.07048,-0.0705 -0.07048,-0.18013 v -0.0626 q 0,-0.10964 0.07832,-0.18012 0.07831,-0.0705 0.20362,-0.0705 0.109641,0 0.180124,0.0705 0.07831,0.0705 0.07831,0.18012 v 0.0626 q 0,0.10964 -0.07831,0.18013 -0.07048,0.0705 -0.187956,0.0705 z" />
                <path d="m 36.492245,122.00838 q 0.36025,0 0.36025,0.18013 0,0.0705 -0.03916,0.11747 -0.03916,0.047 -0.10181,0.047 -0.02349,0 -0.117472,-0.0313 -0.08615,-0.0392 -0.187956,-0.0392 -0.321092,0 -0.642184,0.25844 -0.321092,0.2506 -0.524711,0.64218 -0.20362,0.38374 -0.20362,0.74399 v 1.95788 q 0,0.0627 -0.04699,0.10964 -0.04699,0.047 -0.109641,0.047 -0.07048,0 -0.117473,-0.047 -0.03916,-0.047 -0.03916,-0.10964 v -3.59466 q 0,-0.0626 0.04699,-0.10964 0.04699,-0.047 0.109641,-0.047 0.07048,0 0.109641,0.047 0.04699,0.047 0.04699,0.10964 v 0.83014 q 0.180125,-0.47772 0.556037,-0.79099 0.383744,-0.31326 0.900624,-0.32109 z" />
                <path d="m 40.525449,125.10183 q 0.05482,0 0.09398,0.047 0.03916,0.0392 0.03916,0.094 0,0.0548 -0.03133,0.094 -0.25844,0.34459 -0.642184,0.56387 -0.383744,0.21929 -0.822309,0.21929 -0.587363,0 -1.041591,-0.25061 -0.454227,-0.25061 -0.712667,-0.71267 -0.250608,-0.46206 -0.250608,-1.07292 0,-0.62652 0.242776,-1.09641 0.250609,-0.47772 0.657847,-0.72833 0.407239,-0.25061 0.869298,-0.25061 0.462059,0 0.853635,0.20362 0.399407,0.19579 0.650015,0.5952 0.250608,0.3994 0.266271,0.98677 0,0.0627 -0.04699,0.11747 -0.04699,0.047 -0.109641,0.047 h -3.077783 v 0.10181 q 0,0.48555 0.195787,0.89279 0.195788,0.39941 0.579532,0.63435 0.383744,0.23495 0.924118,0.23495 0.375913,0 0.704836,-0.18013 0.336755,-0.18795 0.524711,-0.46989 0.05482,-0.0705 0.133136,-0.0705 z m -1.597628,-2.78019 q -0.289766,0 -0.595195,0.15663 -0.297597,0.1488 -0.532543,0.45423 -0.227113,0.2976 -0.305428,0.72833 h 2.881995 v -0.0705 q -0.03916,-0.39941 -0.25844,-0.68134 -0.21145,-0.28977 -0.532542,-0.43857 -0.313261,-0.1488 -0.657847,-0.1488 z" />
            </g>
            <g id="title_text" style="fill:#000000;fill-opacity:1;stroke:#000000;stroke-width:0.264999;stroke-linecap:square">
                <path d="m 18.535592,3.1676164 q 0.704836,0 1.033759,0.4385645 0.336755,0.430733 0.336755,1.1434004 v 2.2163172 q 0,0.1018096 -0.07048,0.1722932 -0.06265,0.062652 -0.164462,0.062652 -0.10181,0 -0.172293,-0.062652 -0.06265,-0.070484 -0.06265,-0.1722932 V 4.7730758 q 0,-0.5168796 -0.250609,-0.8379715 -0.242777,-0.3289234 -0.759656,-0.3289234 -0.328924,0 -0.626521,0.1566302 -0.289766,0.1566302 -0.469891,0.430733 -0.180124,0.2662714 -0.180124,0.5795317 v 2.1928227 q 0,0.1018096 -0.07048,0.1722932 -0.06265,0.062652 -0.164462,0.062652 -0.101809,0 -0.172293,-0.062652 -0.06265,-0.070484 -0.06265,-0.1722932 V 4.7495813 q 0,-0.5090481 -0.234945,-0.8223085 -0.234945,-0.3210919 -0.736162,-0.3210919 -0.321092,0 -0.610858,0.1566302 -0.281934,0.1566302 -0.462059,0.4229015 -0.172293,0.2584398 -0.172293,0.5638687 v 2.2163172 q 0,0.1018096 -0.07048,0.1722932 -0.06265,0.062652 -0.164461,0.062652 -0.10181,0 -0.172294,-0.062652 -0.06265,-0.070484 -0.06265,-0.1722932 V 3.4573822 q 0,-0.1018096 0.06265,-0.1644617 0.07048,-0.070484 0.172294,-0.070484 0.101809,0 0.164461,0.070484 0.07048,0.062652 0.07048,0.1644617 v 0.4542276 q 0.211451,-0.3210919 0.5717,-0.5325427 0.36025,-0.2114507 0.759657,-0.2114507 0.454227,0 0.783151,0.2192822 0.328923,0.2192823 0.46989,0.6421838 0.164462,-0.3445864 0.603026,-0.6030262 0.438565,-0.2584398 0.884961,-0.2584398 z" />
                <path d="m 24.832116,5.1959774 q 0,0.5873632 -0.25844,1.0650853 -0.25844,0.477722 -0.712667,0.7518249 -0.454228,0.2662713 -1.010265,0.2662713 -0.556037,0 -1.010265,-0.2662713 -0.454227,-0.2741029 -0.712667,-0.7518249 -0.25844,-0.4777221 -0.25844,-1.0650853 0,-0.5873633 0.25844,-1.0650853 0.25844,-0.4777221 0.712667,-0.751825 0.454228,-0.2741028 1.010265,-0.2741028 0.556037,0 1.010265,0.2741028 0.454227,0.2741029 0.712667,0.751825 0.25844,0.477722 0.25844,1.0650853 z m -0.469891,0 q 0,-0.4698906 -0.195788,-0.8458031 Q 23.97065,3.9742619 23.618232,3.7628111 23.273645,3.5435288 22.850744,3.5435288 q -0.422902,0 -0.767488,0.2192823 -0.344587,0.2114508 -0.548206,0.5873632 -0.195788,0.3759125 -0.195788,0.8458031 0,0.462059 0.195788,0.8379715 0.203619,0.3759124 0.548206,0.5951947 0.344586,0.2114508 0.767488,0.2114508 0.422901,0 0.767488,-0.2114508 0.352418,-0.2114507 0.548205,-0.5873632 0.195788,-0.3759125 0.195788,-0.845803 z" />
                <path d="m 29.491859,5.1959774 q 0,0.5873632 -0.25844,1.0650853 -0.25844,0.477722 -0.712668,0.7518249 -0.454227,0.2662713 -1.010264,0.2662713 -0.556038,0 -1.010265,-0.2662713 -0.454228,-0.2741029 -0.712667,-0.7518249 -0.25844,-0.4777221 -0.25844,-1.0650853 0,-0.5873633 0.25844,-1.0650853 0.258439,-0.4777221 0.712667,-0.751825 0.454227,-0.2741028 1.010265,-0.2741028 0.556037,0 1.010264,0.2741028 0.454228,0.2741029 0.712668,0.751825 0.25844,0.477722 0.25844,1.0650853 z m -0.469891,0 q 0,-0.4698906 -0.195788,-0.8458031 -0.195787,-0.3759124 -0.548205,-0.5873632 -0.344587,-0.2192823 -0.767488,-0.2192823 -0.422902,0 -0.767488,0.2192823 -0.344587,0.2114508 -0.548206,0.5873632 -0.195788,0.3759125 -0.195788,0.8458031 0,0.462059 0.195788,0.8379715 0.203619,0.3759124 0.548206,0.5951947 0.344586,0.2114508 0.767488,0.2114508 0.422901,0 0.767488,-0.2114508 0.352418,-0.2114507 0.548205,-0.5873632 0.195788,-0.3759125 0.195788,-0.845803 z" />
                <path d="m 31.23828,3.65317 v 2.6235557 q 0,0.2975973 0.109641,0.4072385 0.109642,0.1018096 0.289766,0.1018096 0.04699,0 0.117473,-0.015663 0.07048,-0.023494 0.109641,-0.023494 0.07048,0 0.117473,0.062652 0.05482,0.054821 0.05482,0.1331357 0,0.1096411 -0.125304,0.1879562 -0.125304,0.070484 -0.297597,0.070484 -0.211451,0 -0.375913,-0.039157 Q 31.073819,7.1225287 30.917188,6.926741 30.76839,6.7309532 30.76839,6.3002202 V 3.65317 h -0.5717 q -0.09398,0 -0.164462,-0.062652 -0.06265,-0.062652 -0.06265,-0.1566302 0,-0.093978 0.06265,-0.1566302 0.07048,-0.062652 0.164462,-0.062652 h 0.5717 V 2.3453079 q 0,-0.1018097 0.06265,-0.1644617 0.07048,-0.070484 0.172293,-0.070484 0.10181,0 0.164462,0.070484 0.07048,0.062652 0.07048,0.1644617 v 0.8692975 h 0.783151 q 0.08615,0 0.148799,0.070484 0.07048,0.070484 0.07048,0.1566302 0,0.093978 -0.06265,0.1566302 -0.06265,0.054821 -0.15663,0.054821 z" />
                <path d="m 33.039507,6.5664915 q -0.06265,-0.1018096 -0.06265,-0.1722932 0,-0.1018096 0.101809,-0.1566302 0.04699,-0.046989 0.125304,-0.046989 0.09398,0 0.172293,0.078315 0.46206,0.6108577 1.229547,0.6108577 0.375913,0 0.650016,-0.1722932 0.281934,-0.1801247 0.281934,-0.5168796 0,-0.3289234 -0.25844,-0.4933851 Q 35.020879,5.5327323 34.558819,5.4152596 33.908804,5.2507979 33.540723,4.9923581 33.172642,4.7260868 33.172642,4.2170387 q 0,-0.3210919 0.180125,-0.5717002 0.180125,-0.2584399 0.485554,-0.399407 0.31326,-0.1409672 0.704835,-0.1409672 0.336755,0 0.67351,0.1331357 0.344587,0.1253041 0.587363,0.4072385 0.07048,0.054821 0.07048,0.1566301 0,0.093978 -0.07832,0.1644618 -0.05482,0.046989 -0.140967,0.046989 -0.07832,0 -0.140967,-0.062652 -0.187957,-0.2114507 -0.446396,-0.3210919 -0.25844,-0.1096411 -0.556038,-0.1096411 -0.368081,0 -0.634352,0.1722932 -0.25844,0.1722932 -0.25844,0.5168796 0.01566,0.3132604 0.281935,0.4777221 0.274102,0.1644617 0.798814,0.2975974 0.407238,0.1018096 0.673509,0.2271138 0.266272,0.1253041 0.430733,0.3524179 0.172294,0.2271138 0.172294,0.6030262 0,0.5090482 -0.407239,0.814477 -0.407238,0.2975974 -1.010265,0.2975974 -0.955444,0 -1.519312,-0.7126674 z" />
            </g>
            <g id="gem1" style="fill:#0000ff;stroke:#2e2114;stroke-width:0;stroke-linecap:square" transform="translate(0,-0.52916667)">
                <path d="m 7.7984528,123.2582 q 0,0.34175 -0.2425346,0.63114 -0.044097,0.0524 -0.2039495,0.21497 -0.187413,0.19017 -0.7854811,0.81304 l -1.444183,1.51309 q -0.019292,0.003 -0.044097,0.003 -0.027561,0 -0.041341,-0.003 -0.082682,-0.0827 -0.6476774,-0.67524 -0.4685327,-0.47405 -0.9343092,-0.94809 -0.556727,-0.56775 -0.8984802,-0.98116 -0.1322916,-0.15985 -0.1681206,-0.29766 -0.027561,-0.10197 -0.027561,-0.34175 0,-0.11024 0.071658,-0.28939 0.066146,-0.16536 0.1405598,-0.26458 0.1185112,-0.1571 0.4216794,-0.42444 0.2838756,-0.2508 0.4740448,-0.37482 0.2728513,-0.17915 0.818554,-0.36656 0.096463,-0.0331 0.110243,-0.0331 h 1.3615007 q 0.011024,0 0.1047308,0.0331 0.5677513,0.20119 0.8240662,0.36656 0.1653645,0.10473 0.4740448,0.37758 0.3224607,0.28387 0.4216794,0.42168 0.2149738,0.2949 0.2149737,0.62563 z m -0.1681206,-0.27286 q -0.033073,-0.10748 -0.1350476,-0.30868 -0.071658,-0.0937 -0.2094616,-0.19843 -0.1185112,-0.0854 -0.2342664,-0.17088 0.2452907,0.3638 0.5787756,0.67799 z m -0.5732634,-0.52365 -0.3582897,-0.44648 v 0.41065 z m 0.6366532,0.75792 q 0,-0.0524 -0.3417533,-0.39412 l 0.2287542,0.7028 h 0.049609 q 0.06339,-0.21773 0.06339,-0.30868 z m -0.2315103,0.27285 -0.3169485,-0.90399 -0.4106551,-0.0634 -0.1598523,0.6146 z m 0.00276,0.15434 -0.7717008,-0.3197 h -0.030317 l 0.3445093,0.60633 q 0.079926,-0.003 0.2342663,-0.0469 0.024805,-0.0138 0.223242,-0.23978 z m -0.8571391,-1.05006 -0.7193354,0.28387 0.6035803,0.226 z m 0,-0.16261 v -0.51539 l -0.9177728,-0.38033 h -1.223697 l -0.9177727,0.38033 v 0.51539 l 0.8984802,0.4079 h 1.2540138 z m 0.5732634,1.53789 q -0.068902,0.011 -0.1984373,0.0524 -0.085438,0.0551 -0.259071,0.16261 0.019292,0 0.06339,0.003 0.041341,0 0.06339,0 0.1185112,0 0.1901691,-0.0689 0.071658,-0.0717 0.1405598,-0.14883 z m -0.2893878,0.003 -0.3472653,-0.63115 -0.3638018,0.87919 q 0.024805,-0.0165 0.066146,-0.0165 0.030317,0 0.085438,0.011 0.057878,0.008 0.088194,0.008 0.049609,0 0.2287542,-0.10749 0.2287542,-0.1378 0.2425345,-0.14331 z m -0.4409719,-0.74139 -0.6835064,-0.27561 -0.592556,0.54846 0.9039924,0.65595 z m -0.854383,-0.28387 H 4.5600655 l 0.5236541,0.47404 z m 0.7496522,1.36701 q -0.2287541,-0.0303 -0.2287541,-0.0303 -0.035829,0 -0.2728514,0.0937 l 0.1901691,0.0193 q 0.011024,0 0.3114364,-0.0827 z m -0.3886065,-0.0882 -0.8433587,-0.61184 v 0.67523 l 0.4712887,0.0827 z m 0.8543831,0.0496 q -0.099219,0.006 -0.2949,0.0386 -0.011024,0.003 -0.3775821,0.17639 -0.1295355,0.34726 -0.3803383,1.04179 z m -2.5438566,-1.39733 -0.7193354,-0.28387 0.1240233,0.51814 z M 3.465904,122.42586 v -0.41065 l -0.3665579,0.44648 z m 1.5158408,1.07211 -0.5925559,-0.54019 -0.6835065,0.27561 0.3803383,0.9288 z m 0.369314,0.94258 q -0.033073,-0.003 -0.1350476,-0.0248 -0.085438,-0.0165 -0.1378038,-0.0165 -0.052365,0 -0.1378037,0.0165 -0.1019747,0.022 -0.1350476,0.0248 0.2645831,0.0469 0.2728513,0.0469 0.00827,0 0.2728514,-0.0469 z m -0.3086803,-0.1378 v -0.68626 l -0.8433588,0.61184 0.3720701,0.14608 z m 0.9508456,0.2067 -0.3968747,-0.0551 -0.4795569,0.14056 v 1.27606 z m -2.8883659,-2.2021 q -0.1185112,0.0854 -0.2342663,0.17363 -0.1460719,0.10749 -0.2094616,0.19568 -0.044097,0.10474 -0.1350477,0.3142 0.369314,-0.3638 0.5787756,-0.68351 z m 0.4768009,0.83233 -0.1598523,-0.6146 -0.4106551,0.0634 -0.3169485,0.90399 z m 0.3941186,1.08314 -0.3638018,-0.87919 -0.3555336,0.63115 q 0.4354598,0.2508 0.4519962,0.2508 0.09095,0 0.2673392,-0.003 z m 1.8217651,0.82958 q -0.1322915,0.21222 -0.4051429,0.6339 -0.07717,0.10748 -0.2204859,0.32797 -0.057878,0.10473 -0.055122,0.226 0.1598523,-0.15159 0.4327036,-0.49609 0.07717,-0.12954 0.1405598,-0.339 0.055122,-0.17639 0.1074874,-0.35278 z m -1.4937922,-0.66146 -0.2700953,-0.0882 -0.00827,-0.011 q -0.024805,0 -0.1074869,0.011 -0.066146,0.006 -0.1074869,0.006 0.2728513,0.0909 0.3114364,0.0909 0.024805,0 0.1819009,-0.008 z M 3.4934647,123.3271 h -0.030317 l -0.7717008,0.3197 q 0.066146,0.0965 0.223242,0.23978 0.07717,0.0138 0.2342663,0.0469 z m -0.6890186,-0.50161 q -0.3417532,0.34727 -0.3417532,0.39412 0,0.0799 0.06339,0.30868 h 0.049609 z m 2.2351763,3.04546 v -1.27606 l -0.4795569,-0.14056 -0.3968747,0.0551 z m -1.6067913,-1.67569 q -0.2563149,-0.1819 -0.4575084,-0.22324 0.066146,0.0772 0.2039495,0.22324 z m 1.6095474,2.04501 v -0.13781 L 4.3588721,125.0524 q 0.052365,0.17639 0.1074868,0.35278 0.06339,0.20946 0.1405598,0.339 0.068902,0.11851 0.2039495,0.25907 0.1157552,0.11851 0.2315103,0.23702 z m -0.6449214,-0.70556 q -0.1157551,-0.32797 -0.3803383,-1.04179 -0.1350476,-0.0661 -0.2728513,-0.12954 -0.1598523,-0.0717 -0.2893878,-0.0717 -0.052365,0 -0.110243,-0.0138 z" />
            </g>
            <g id="gem2" style="fill:#0000ff;stroke:#2e2114;stroke-width:0;stroke-linecap:square" transform="translate(0.52916667,-0.52916667)">
                <path d="m 47.771429,123.55357 q 0,0.34175 -0.242534,0.63114 -0.0441,0.0524 -0.20395,0.21497 -0.187413,0.19017 -0.785481,0.81304 l -1.444183,1.51309 q -0.01929,0.003 -0.0441,0.003 -0.02756,0 -0.04134,-0.003 -0.08268,-0.0827 -0.647678,-0.67524 -0.468532,-0.47404 -0.934309,-0.94809 -0.556727,-0.56775 -0.89848,-0.98116 -0.132292,-0.15985 -0.168121,-0.29766 -0.02756,-0.10197 -0.02756,-0.34175 0,-0.11024 0.07166,-0.28939 0.06614,-0.16536 0.140559,-0.26458 0.118512,-0.1571 0.42168,-0.42444 0.283875,-0.2508 0.474044,-0.37482 0.272852,-0.17915 0.818555,-0.36656 0.09646,-0.0331 0.110243,-0.0331 h 1.3615 q 0.01102,0 0.104731,0.0331 0.567751,0.20119 0.824066,0.36656 0.165365,0.10473 0.474045,0.37758 0.322461,0.28388 0.421679,0.42168 0.214974,0.2949 0.214974,0.62563 z m -0.16812,-0.27285 q -0.03307,-0.10749 -0.135048,-0.30868 -0.07166,-0.0937 -0.209462,-0.19844 -0.118511,-0.0854 -0.234266,-0.17088 0.245291,0.3638 0.578776,0.678 z m -0.573264,-0.52366 -0.358289,-0.44648 v 0.41065 z m 0.636653,0.75792 q 0,-0.0524 -0.341753,-0.39412 l 0.228754,0.7028 h 0.04961 q 0.06339,-0.21773 0.06339,-0.30868 z m -0.23151,0.27285 -0.316948,-0.90399 -0.410655,-0.0634 -0.159853,0.61461 z m 0.0028,0.15434 -0.771701,-0.3197 h -0.03032 l 0.344509,0.60634 q 0.07993,-0.003 0.234266,-0.0469 0.02481,-0.0138 0.223242,-0.23978 z m -0.857139,-1.05006 -0.719335,0.28388 0.60358,0.22599 z m 0,-0.16261 v -0.51538 l -0.917773,-0.38034 h -1.223697 l -0.917772,0.38034 v 0.51538 l 0.89848,0.4079 h 1.254014 z m 0.573264,1.53789 q -0.0689,0.011 -0.198438,0.0524 -0.08544,0.0551 -0.259071,0.16261 0.01929,0 0.06339,0.003 0.04134,0 0.06339,0 0.118511,0 0.190169,-0.0689 0.07166,-0.0717 0.14056,-0.14883 z m -0.289388,0.003 -0.347266,-0.63114 -0.363801,0.87918 q 0.0248,-0.0165 0.06615,-0.0165 0.03032,0 0.08544,0.011 0.05788,0.008 0.08819,0.008 0.04961,0 0.228754,-0.10749 0.228754,-0.1378 0.242535,-0.14331 z m -0.440972,-0.74139 -0.683507,-0.2756 -0.592556,0.54845 0.903993,0.65595 z m -0.854383,-0.28387 h -1.036284 l 0.523654,0.47404 z m 0.749652,1.36701 q -0.228754,-0.0303 -0.228754,-0.0303 -0.03583,0 -0.272851,0.0937 l 0.190169,0.0193 q 0.01102,0 0.311436,-0.0827 z m -0.388606,-0.0882 -0.843359,-0.61185 v 0.67524 l 0.471289,0.0827 z m 0.854383,0.0496 q -0.09922,0.006 -0.2949,0.0386 -0.01102,0.003 -0.377583,0.17639 -0.129535,0.34726 -0.380338,1.0418 z m -2.543857,-1.39733 -0.719335,-0.28388 0.124023,0.51814 z m -0.802018,-0.45476 v -0.41065 l -0.366557,0.44648 z m 1.515841,1.07212 -0.592556,-0.54019 -0.683506,0.2756 0.380338,0.9288 z m 0.369314,0.94257 q -0.03307,-0.003 -0.135047,-0.0248 -0.08544,-0.0165 -0.137804,-0.0165 -0.05237,0 -0.137804,0.0165 -0.101975,0.0221 -0.135047,0.0248 0.264583,0.0469 0.272851,0.0469 0.0083,0 0.272851,-0.0469 z m -0.30868,-0.1378 v -0.68626 l -0.843359,0.61185 0.37207,0.14607 z m 0.950846,0.20671 -0.396875,-0.0551 -0.479557,0.14056 v 1.27607 z m -2.888366,-2.20211 q -0.118512,0.0854 -0.234267,0.17364 -0.146072,0.10748 -0.209461,0.19568 -0.0441,0.10473 -0.135048,0.31419 0.369314,-0.3638 0.578776,-0.68351 z m 0.476801,0.83234 -0.159853,-0.61461 -0.410655,0.0634 -0.316948,0.90399 z m 0.394118,1.08313 -0.363802,-0.87918 -0.355533,0.63114 q 0.43546,0.2508 0.451996,0.2508 0.09095,0 0.267339,-0.003 z m 1.821765,0.82958 q -0.132291,0.21222 -0.405143,0.6339 -0.07717,0.10749 -0.220486,0.32797 -0.05788,0.10473 -0.05512,0.226 0.159852,-0.15158 0.432704,-0.49609 0.07717,-0.12954 0.140559,-0.339 0.05512,-0.17639 0.107486,-0.35278 z m -1.493792,-0.66146 -0.270095,-0.0882 -0.0083,-0.011 q -0.02481,0 -0.107487,0.011 -0.06615,0.006 -0.107487,0.006 0.272851,0.091 0.311436,0.091 0.02481,0 0.181901,-0.008 z m -0.810286,-1.06384 h -0.03032 l -0.7717,0.3197 q 0.06615,0.0965 0.223242,0.23978 0.07717,0.0138 0.234266,0.0469 z m -0.689018,-0.50161 q -0.341754,0.34727 -0.341754,0.39412 0,0.0799 0.06339,0.30868 h 0.04961 z m 2.235176,3.04547 v -1.27607 l -0.479557,-0.14056 -0.396875,0.0551 z m -1.606791,-1.6757 q -0.256315,-0.1819 -0.457509,-0.22324 0.06615,0.0772 0.20395,0.22324 z m 1.609547,2.04501 v -0.1378 l -0.683507,-1.05007 q 0.05237,0.17639 0.107487,0.35278 0.06339,0.20946 0.14056,0.339 0.0689,0.11851 0.20395,0.25907 0.115755,0.11851 0.23151,0.23702 z m -0.644921,-0.70555 q -0.115756,-0.32798 -0.380339,-1.0418 -0.135047,-0.0662 -0.272851,-0.12954 -0.159852,-0.0716 -0.289388,-0.0716 -0.05237,0 -0.110243,-0.0138 z" />
            </g>
            <g id="horizontal_lines" style="fill:#000000;stroke:#000000;stroke-width:0.2;stroke-linecap:round;stroke-linejoin:round;stroke-dasharray:none;stroke-opacity:1">
                <path d="M 10.422823,17.292023 H 39.755249" />
                <path d="M 10.295112,38.714519 H 39.627538" />
                <path d="M 10.646172,60.19444 H 39.978598" />
                <path d="M 10.486349,81.727338 H 39.818775" />
                <path d="M 10.431169,103.1942 H 39.763595" />
            </g>
            <g id="in_label" style="stroke:#000000;stroke-width:0.2;stroke-linecap:round;stroke-linejoin:round;stroke-dasharray:none" transform="rotate(-38.639651,67.552846,33.182459)">
                <path d="m 3.4471021,13.631746 q -0.00282,0.03669 -0.028222,0.06209 -0.0254,0.0254 -0.062089,0.0254 -0.039511,0 -0.064911,-0.02258 -0.022578,-0.0254 -0.022578,-0.06491 v -1.800577 q 0,-0.03951 0.0254,-0.06209 0.0254,-0.0254 0.064911,-0.0254 0.036689,0 0.062089,0.0254 0.0254,0.0254 0.0254,0.06209 z" />
                <path d="m 5.4198286,11.74368 q 0.036689,0 0.056444,0.02258 0.022578,0.02258 0.022578,0.05645 v 1.80622 q 0,0.04233 -0.0254,0.06773 -0.0254,0.02258 -0.062089,0.02258 -0.019756,0 -0.039511,-0.0085 -0.016933,-0.0085 -0.028222,-0.01976 L 4.1328962,12.059769 v 1.583266 q 0,0.03104 -0.0254,0.05362 -0.022578,0.02258 -0.053622,0.02258 -0.033867,0 -0.056444,-0.02258 -0.022578,-0.02258 -0.022578,-0.05362 v -1.814688 q 0,-0.03951 0.022578,-0.06209 0.0254,-0.02258 0.059267,-0.02258 0.045156,0 0.067733,0.03105 l 1.2163769,1.63971 v -1.591732 q 0,-0.03387 0.022578,-0.05645 0.022578,-0.02258 0.056444,-0.02258 z" />
            </g>
            <g id="gate_label" style="stroke:#000000;stroke-width:0.2;stroke-linecap:round;stroke-linejoin:round;stroke-dasharray:none" transform="translate(-0.12840409,43.015684)">
                <path d="m 23.517893,31.241946 q 0.03669,0 0.05927,0.0254 0.0254,0.02258 0.0254,0.05927 v 0.680158 q 0,0.04798 -0.04233,0.0762 -0.127001,0.08749 -0.282223,0.135467 -0.155223,0.04798 -0.31609,0.04798 -0.287868,0 -0.519291,-0.132645 -0.231422,-0.132645 -0.364067,-0.364068 -0.132645,-0.231423 -0.132645,-0.51929 0,-0.287867 0.132645,-0.51929 0.132645,-0.231423 0.364067,-0.364068 0.231423,-0.132645 0.519291,-0.132645 0.149578,0 0.287867,0.03669 0.141112,0.03669 0.251179,0.104423 0.03951,0.0254 0.03951,0.07055 0,0.03669 -0.0254,0.06209 -0.02258,0.0254 -0.05362,0.0254 -0.02822,0 -0.0508,-0.01411 -0.211667,-0.115711 -0.448734,-0.115711 -0.23989,0 -0.431801,0.110067 -0.18909,0.110067 -0.296335,0.304801 -0.107244,0.191911 -0.107244,0.431801 0,0.23989 0.107244,0.434623 0.107245,0.191912 0.296335,0.301979 0.191911,0.110067 0.431801,0.110067 0.121356,0 0.242712,-0.03387 0.124178,-0.03387 0.220133,-0.09313 V 31.41128 h -0.445912 q -0.03669,0 -0.06209,-0.02258 -0.0254,-0.0254 -0.0254,-0.06209 0,-0.03669 0.0254,-0.05927 0.0254,-0.0254 0.06209,-0.0254 z" />
                <path d="m 25.510387,32.125304 q 0.0056,0.02258 0.0056,0.03387 0,0.03669 -0.0254,0.05927 -0.0254,0.02258 -0.05927,0.02258 -0.02822,0 -0.0508,-0.01411 -0.01976,-0.01693 -0.03104,-0.04233 l -0.211668,-0.516468 h -0.917225 l -0.208845,0.516468 q -0.02258,0.05645 -0.0762,0.05645 -0.03951,0 -0.05927,-0.01976 -0.01975,-0.01976 -0.02258,-0.05362 v -0.0085 q 0,-0.01693 0.0028,-0.0254 l 0.745069,-1.823161 q 0.02258,-0.05644 0.08467,-0.05644 0.02822,0 0.04798,0.01693 0.02258,0.01411 0.03387,0.03951 z m -1.224848,-0.623713 h 0.78458 l -0.395112,-0.965202 z" />
                <path d="m 26.980763,30.262632 q 0.03669,0 0.05927,0.02258 0.0254,0.02258 0.0254,0.05927 0,0.03669 -0.0254,0.05927 -0.02258,0.01976 -0.05927,0.01976 h -0.584201 v 1.730027 q 0,0.03669 -0.0254,0.06209 -0.0254,0.02258 -0.06209,0.02258 -0.03951,0 -0.06491,-0.02258 -0.02258,-0.0254 -0.02258,-0.06209 V 30.4235 H 25.63738 q -0.03669,0 -0.06209,-0.02258 -0.02258,-0.02258 -0.02258,-0.05927 0,-0.03387 0.02258,-0.05645 0.0254,-0.02258 0.06209,-0.02258 z" />
                <path d="m 28.547096,32.071682 q 0.03669,0 0.05927,0.0254 0.0254,0.0254 0.0254,0.05927 0,0.03669 -0.0254,0.05927 -0.02258,0.02258 -0.05927,0.02258 h -1.035758 q -0.03669,0 -0.06209,-0.02258 -0.02258,-0.0254 -0.02258,-0.06209 v -1.806228 q 0,-0.03669 0.02258,-0.05927 0.0254,-0.0254 0.06209,-0.0254 h 1.035758 q 0.03669,0 0.05927,0.0254 0.0254,0.02258 0.0254,0.05927 0,0.03669 -0.0254,0.05927 -0.02258,0.02258 -0.05927,0.02258 h -0.942625 v 0.70838 h 0.815625 q 0.03669,0 0.05927,0.0254 0.0254,0.02258 0.0254,0.05927 0,0.03669 -0.0254,0.05927 -0.02258,0.02258 -0.05927,0.02258 h -0.815625 v 0.767647 z" />
            </g>
            <g id="out_label" transform="rotate(39.175362,-61.243351,21.475507)" style="stroke:#000000;stroke-width:0.2;stroke-linecap:round;stroke-linejoin:round;stroke-dasharray:none">
                <path d="m 42.372381,-18.213284 q 0,0.290689 -0.121356,0.522112 -0.121356,0.231423 -0.335845,0.364068 -0.21449,0.129822 -0.488246,0.129822 -0.273756,0 -0.488246,-0.129822 -0.214489,-0.132645 -0.335845,-0.364068 -0.121356,-0.231423 -0.121356,-0.522112 0,-0.293512 0.121356,-0.524935 0.121356,-0.231423 0.335845,-0.361246 0.21449,-0.129822 0.488246,-0.129822 0.273756,0 0.488246,0.129822 0.214489,0.129823 0.335845,0.361246 0.121356,0.231423 0.121356,0.524935 z m -0.180623,0 q 0,-0.245534 -0.09878,-0.437446 -0.09596,-0.194734 -0.270934,-0.301979 -0.172156,-0.107244 -0.395112,-0.107244 -0.222956,0 -0.397935,0.107244 -0.172156,0.107245 -0.270934,0.301979 -0.09596,0.191912 -0.09596,0.437446 0,0.245534 0.09596,0.440267 0.09878,0.191912 0.270934,0.299157 0.174979,0.107245 0.397935,0.107245 0.222956,0 0.395112,-0.107245 0.174978,-0.107245 0.270934,-0.299157 0.09878,-0.194733 0.09878,-0.440267 z" />
                <path d="m 44.170138,-19.201065 q 0.03669,0 0.05927,0.0254 0.0254,0.02258 0.0254,0.05927 v 1.168403 q 0,0.206023 -0.09878,0.378179 -0.09878,0.172156 -0.268112,0.270934 -0.169334,0.09878 -0.372534,0.09878 -0.206023,0 -0.375357,-0.09878 -0.169334,-0.09878 -0.268112,-0.270934 -0.09878,-0.172156 -0.09878,-0.378179 v -1.168403 q 0,-0.03669 0.02258,-0.05927 0.0254,-0.0254 0.06773,-0.0254 0.03387,0 0.05927,0.0254 0.0254,0.02258 0.0254,0.05927 v 1.168403 q 0,0.158045 0.0762,0.29069 0.0762,0.132645 0.206023,0.211667 0.132644,0.0762 0.285045,0.0762 0.155222,0 0.285045,-0.0762 0.132645,-0.07902 0.208845,-0.211667 0.07902,-0.132645 0.07902,-0.29069 v -1.168403 q 0,-0.03669 0.02258,-0.05927 0.02258,-0.0254 0.05927,-0.0254 z" />
                <path d="m 46.044097,-19.201065 q 0.03669,0 0.05927,0.02258 0.0254,0.02258 0.0254,0.05927 0,0.03669 -0.0254,0.05927 -0.02258,0.01975 -0.05927,0.01975 h -0.584201 v 1.730027 q 0,0.03669 -0.0254,0.06209 -0.0254,0.02258 -0.06209,0.02258 -0.03951,0 -0.06491,-0.02258 -0.02258,-0.0254 -0.02258,-0.06209 v -1.730027 h -0.584201 q -0.03669,0 -0.06209,-0.02258 -0.02258,-0.02258 -0.02258,-0.05927 0,-0.03387 0.02258,-0.05644 0.0254,-0.02258 0.06209,-0.02258 z" />
            </g>
        </g>
    </g>
</svg>
