<?xml version="1.0" encoding="utf-8"?>
<svg xmlns="http://www.w3.org/2000/svg" width="50.80mm" height="128.50mm" viewBox="0 0 50.80 128.50">
    <path d="M21.1681 73.5771Q21.1681 73.6025 21.1526 73.6166Q21.137 73.6308 21.1116 73.6308H20.4823V75.4426Q20.4823 75.4652 20.4653 75.4821Q20.4484 75.4991 20.4258 75.4991Q20.4004 75.4991 20.3849 75.4821Q20.3694 75.4652 20.3694 75.4426V73.6308H19.74Q19.7175 73.6308 19.7005 73.6152Q19.6836 73.5997 19.6836 73.5771Q19.6836 73.5546 19.7005 73.539Q19.7175 73.5235 19.74 73.5235H21.1116Q21.1342 73.5235 21.1511 73.539Q21.1681 73.5546 21.1681 73.5771ZM22.9856 75.4398Q22.9856 75.4652 22.9701 75.4807Q22.9545 75.4962 22.932 75.4962Q22.915 75.4962 22.9066 75.4906Q22.8304 75.4483 22.7852 75.3481Q22.7401 75.2479 22.7401 75.0193Q22.7401 74.7879 22.6159 74.7018Q22.4917 74.6157 22.328 74.6157H21.6676V75.4426Q21.6676 75.4652 21.6507 75.4821Q21.6337 75.4991 21.6083 75.4991Q21.5829 75.4991 21.566 75.4821Q21.5491 75.4652 21.5491 75.4426V73.58Q21.5491 73.5574 21.566 73.5404Q21.5829 73.5235 21.6055 73.5235H22.3506Q22.5143 73.5235 22.6413 73.5898Q22.7683 73.6562 22.8388 73.7719Q22.9094 73.8876 22.9094 74.0343Q22.9094 74.2234 22.8092 74.3589Q22.709 74.4944 22.5481 74.5423Q22.6836 74.5847 22.7711 74.7103Q22.8586 74.8358 22.8586 75.0193Q22.8586 75.2084 22.8826 75.2832Q22.9066 75.358 22.9545 75.389Q22.9856 75.4088 22.9856 75.4398ZM22.3647 74.5028Q22.5425 74.4859 22.6667 74.3617Q22.7909 74.2375 22.7909 74.0372Q22.7909 73.8622 22.6667 73.7493Q22.5425 73.6364 22.3365 73.6364H21.6676V74.5028ZM23.4823 75.4991Q23.4541 75.4991 23.4386 75.4821Q23.423 75.4652 23.423 75.4398V73.5828Q23.423 73.5574 23.44 73.5404Q23.4569 73.5235 23.4823 73.5235Q23.5077 73.5235 23.5246 73.5404Q23.5416 73.5574 23.5416 73.5828V75.4398Q23.5387 75.4652 23.5218 75.4821Q23.5049 75.4991 23.4823 75.4991ZM25.599 74.5818V75.2902Q25.599 75.3241 25.5736 75.341Q25.4437 75.4285 25.2899 75.4779Q25.1361 75.5273 24.9781 75.5273Q24.6874 75.5273 24.4574 75.3961Q24.2274 75.2648 24.0961 75.0334Q23.9649 74.802 23.9649 74.5113Q23.9649 74.2206 24.0961 73.9892Q24.2274 73.7578 24.4574 73.6265Q24.6874 73.4953 24.9781 73.4953Q25.1361 73.4953 25.2786 73.5334Q25.4212 73.5715 25.5341 73.6477Q25.5595 73.6646 25.5595 73.6957Q25.5595 73.7211 25.5411 73.7366Q25.5228 73.7521 25.5058 73.7521Q25.4917 73.7521 25.4691 73.7408Q25.2321 73.6082 24.9781 73.6082Q24.7184 73.6082 24.5152 73.7239Q24.312 73.8396 24.1977 74.0456Q24.0834 74.2516 24.0834 74.5113Q24.0834 74.7709 24.1977 74.977Q24.312 75.183 24.5152 75.2987Q24.7184 75.4144 24.9781 75.4144Q25.1079 75.4144 25.242 75.3735Q25.376 75.3326 25.4861 75.2648V74.6383H24.9781Q24.9555 74.6383 24.9386 74.6214Q24.9216 74.6044 24.9216 74.5818Q24.9216 74.5564 24.9386 74.5409Q24.9555 74.5254 24.9781 74.5254H25.5425Q25.5679 74.5254 25.5834 74.5423Q25.599 74.5593 25.599 74.5818ZM27.5576 74.5818V75.2902Q27.5576 75.3241 27.5322 75.341Q27.4024 75.4285 27.2486 75.4779Q27.0947 75.5273 26.9367 75.5273Q26.646 75.5273 26.416 75.3961Q26.186 75.2648 26.0548 75.0334Q25.9235 74.802 25.9235 74.5113Q25.9235 74.2206 26.0548 73.9892Q26.186 73.7578 26.416 73.6265Q26.646 73.4953 26.9367 73.4953Q27.0947 73.4953 27.2373 73.5334Q27.3798 73.5715 27.4927 73.6477Q27.5181 73.6646 27.5181 73.6957Q27.5181 73.7211 27.4997 73.7366Q27.4814 73.7521 27.4645 73.7521Q27.4503 73.7521 27.4278 73.7408Q27.1907 73.6082 26.9367 73.6082Q26.6771 73.6082 26.4739 73.7239Q26.2707 73.8396 26.1564 74.0456Q26.0421 74.2516 26.0421 74.5113Q26.0421 74.7709 26.1564 74.977Q26.2707 75.183 26.4739 75.2987Q26.6771 75.4144 26.9367 75.4144Q27.0665 75.4144 27.2006 75.3735Q27.3346 75.3326 27.4447 75.2648V74.6383H26.9367Q26.9141 74.6383 26.8972 74.6214Q26.8803 74.6044 26.8803 74.5818Q26.8803 74.5564 26.8972 74.5409Q26.9141 74.5254 26.9367 74.5254H27.5011Q27.5265 74.5254 27.5421 74.5423Q27.5576 74.5593 27.5576 74.5818ZM29.2001 75.4426Q29.2001 75.468 29.1832 75.4835Q29.1663 75.4991 29.1437 75.4991H28.0797Q28.0571 75.4991 28.0402 75.4821Q28.0233 75.4652 28.0233 75.4426V73.58Q28.0233 73.5574 28.0402 73.5404Q28.0571 73.5235 28.0797 73.5235H29.1437Q29.1663 73.5235 29.1832 73.5404Q29.2001 73.5574 29.2001 73.58Q29.2001 73.6054 29.1832 73.6209Q29.1663 73.6364 29.1437 73.6364H28.1418V74.4238H29.0167Q29.0393 74.4238 29.0562 74.4407Q29.0731 74.4577 29.0731 74.4802Q29.0731 74.5056 29.0562 74.5212Q29.0393 74.5367 29.0167 74.5367H28.1418V75.3862H29.1437Q29.1663 75.3862 29.1832 75.4031Q29.2001 75.42 29.2001 75.4426ZM31.06 75.4398Q31.06 75.4652 31.0444 75.4807Q31.0289 75.4962 31.0063 75.4962Q30.9894 75.4962 30.9809 75.4906Q30.9047 75.4483 30.8596 75.3481Q30.8144 75.2479 30.8144 75.0193Q30.8144 74.7879 30.6903 74.7018Q30.5661 74.6157 30.4024 74.6157H29.742V75.4426Q29.742 75.4652 29.7251 75.4821Q29.7081 75.4991 29.6827 75.4991Q29.6573 75.4991 29.6404 75.4821Q29.6235 75.4652 29.6235 75.4426V73.58Q29.6235 73.5574 29.6404 73.5404Q29.6573 73.5235 29.6799 73.5235H30.425Q30.5887 73.5235 30.7157 73.5898Q30.8427 73.6562 30.9132 73.7719Q30.9838 73.8876 30.9838 74.0343Q30.9838 74.2234 30.8836 74.3589Q30.7834 74.4944 30.6225 74.5423Q30.758 74.5847 30.8455 74.7103Q30.933 74.8358 30.933 75.0193Q30.933 75.2084 30.957 75.2832Q30.9809 75.358 31.0289 75.389Q31.06 75.4088 31.06 75.4398ZM30.4391 74.5028Q30.6169 74.4859 30.7411 74.3617Q30.8652 74.2375 30.8652 74.0372Q30.8652 73.8622 30.7411 73.7493Q30.6169 73.6364 30.4109 73.6364H29.742V74.5028Z" style="stroke:#6f02b8;stroke-width:0.25;stroke-linecap:round;stroke-linejoin:bevel" />
</svg>
