<?xml version="1.0" encoding="utf-8"?>
<svg xmlns="http://www.w3.org/2000/svg" width="81.28mm" height="128.50mm" viewBox="0 0 81.28 128.50">
    <g id="labels" style="stroke:#000000;stroke-width:0.25;stroke-linecap:round;stroke-linejoin:bevel">
        <path d="M12.3486 78.1818Q12.3486 78.2136 12.3274 78.2312Q12.3063 78.2488 12.2745 78.2488Q12.2498 78.2488 12.2304 78.2365Q12.211 78.2241 12.2039 78.203L11.9076 77.4763L11.9111 77.4833H10.7293L10.4436 78.203Q10.4259 78.2488 10.3801 78.2488Q10.3483 78.2488 10.3289 78.2312Q10.3095 78.2136 10.306 78.1889Q10.3025 78.1748 10.3095 78.1536L11.2585 75.8182Q11.2691 75.79 11.285 75.7812Q11.3008 75.7723 11.3255 75.7723Q11.3784 75.7723 11.3961 75.8182L12.3451 78.1536Q12.3486 78.1642 12.3486 78.1818ZM10.7858 77.3422H11.8547L11.3149 76.0122ZM14.6416 75.8499V77.3739Q14.6416 77.6209 14.5182 77.829Q14.3947 78.0372 14.1866 78.1606Q13.9784 78.2841 13.735 78.2841Q13.4881 78.2841 13.2799 78.1606Q13.0718 78.0372 12.9483 77.829Q12.8248 77.6209 12.8248 77.3739V75.8499Q12.8248 75.8182 12.846 75.7988Q12.8672 75.7794 12.8989 75.7794Q12.9307 75.7794 12.9518 75.8006Q12.973 75.8217 12.973 75.8499V77.3739Q12.973 77.5821 13.0753 77.7585Q13.1776 77.9349 13.3522 78.0389Q13.5269 78.143 13.735 78.143Q13.9431 78.143 14.1178 78.0389Q14.2924 77.9349 14.3965 77.7585Q14.5005 77.5821 14.5005 77.3739V75.8499Q14.5005 75.8217 14.5199 75.8006Q14.5393 75.7794 14.5711 75.7794Q14.6028 75.7794 14.6222 75.8006Q14.6416 75.8217 14.6416 75.8499ZM17.358 77.0141Q17.358 77.3634 17.2469 77.6421Q17.1358 77.9207 16.9065 78.0848Q16.6772 78.2488 16.335 78.2488H15.4178Q15.3895 78.2488 15.3684 78.2277Q15.3472 78.2065 15.3472 78.1783V75.8499Q15.3472 75.8217 15.3684 75.8006Q15.3895 75.7794 15.4178 75.7794H16.335Q16.6736 75.7794 16.9047 75.9487Q17.1358 76.1181 17.2469 76.3985Q17.358 76.679 17.358 77.0141ZM17.2099 77.0141Q17.2099 76.7143 17.1128 76.4655Q17.0158 76.2168 16.813 76.0687Q16.6101 75.9205 16.2997 75.9205H15.4954V78.1077H16.2997Q16.7583 78.1077 16.9841 77.8061Q17.2099 77.5045 17.2099 77.0141ZM17.9613 78.2488Q17.926 78.2488 17.9066 78.2277Q17.8872 78.2065 17.8872 78.1748V75.8535Q17.8872 75.8217 17.9084 75.8006Q17.9295 75.7794 17.9613 75.7794Q17.993 75.7794 18.0142 75.8006Q18.0354 75.8217 18.0354 75.8535V78.1748Q18.0318 78.2065 18.0107 78.2277Q17.9895 78.2488 17.9613 78.2488ZM19.7428 78.2841Q19.4006 78.2841 19.1325 78.1236Q18.8644 77.9631 18.7145 77.6738Q18.5645 77.3845 18.5645 77.0141Q18.5645 76.6437 18.7145 76.3544Q18.8644 76.0651 19.1325 75.9046Q19.4006 75.7441 19.7428 75.7441Q20.085 75.7441 20.3531 75.9046Q20.6212 76.0651 20.7712 76.3544Q20.9211 76.6437 20.9211 77.0141Q20.9211 77.3845 20.7712 77.6738Q20.6212 77.9631 20.3531 78.1236Q20.085 78.2841 19.7428 78.2841ZM19.7428 75.8852Q19.4429 75.8852 19.2083 76.0263Q18.9737 76.1674 18.8432 76.425Q18.7127 76.6825 18.7127 77.0141Q18.7127 77.3457 18.8432 77.6033Q18.9737 77.8608 19.2083 78.0019Q19.4429 78.143 19.7428 78.143Q20.0427 78.143 20.2773 78.0019Q20.5119 77.8608 20.6424 77.6033Q20.7729 77.3457 20.7729 77.0141Q20.7729 76.6825 20.6424 76.425Q20.5119 76.1674 20.2773 76.0263Q20.0427 75.8852 19.7428 75.8852Z" />
    </g>
</svg>
