<?xml version="1.0" encoding="utf-8"?>
<svg xmlns="http://www.w3.org/2000/svg" width="81.28mm" height="128.50mm" viewBox="0 0 81.28 128.50">
    <g id="labels" style="stroke:#000000;stroke-width:0.25;stroke-linecap:round;stroke-linejoin:bevel">
        <path d="M10.5528 76.0404Q10.5528 76.0687 10.5387 76.0863Q10.5175 76.1145 10.4858 76.1145Q10.4717 76.1145 10.4435 76.1004Q10.1154 75.8782 9.74849 75.8782Q9.45215 75.8782 9.20344 76.0246Q8.95474 76.171 8.8101 76.4303Q8.66546 76.6896 8.66546 77.0141Q8.66546 77.3387 8.8101 77.598Q8.95474 77.8573 9.20344 78.0037Q9.45215 78.1501 9.74849 78.1501Q10.1189 78.1501 10.4399 77.9313Q10.4576 77.9172 10.4823 77.9172Q10.5175 77.9172 10.5387 77.9454Q10.5528 77.9631 10.5528 77.9878Q10.5528 78.0231 10.5246 78.0442Q10.387 78.143 10.1701 78.2136Q9.9531 78.2841 9.74849 78.2841Q9.41335 78.2841 9.13113 78.1183Q8.8489 77.9525 8.6831 77.6615Q8.51729 77.3704 8.51729 77.0141Q8.51729 76.6578 8.6831 76.3668Q8.8489 76.0757 9.13113 75.9099Q9.41335 75.7441 9.74849 75.7441Q9.96015 75.7441 10.1595 75.8076Q10.3588 75.8711 10.5211 75.984Q10.5528 76.0087 10.5528 76.0404ZM12.031 78.2841Q11.6888 78.2841 11.4207 78.1236Q11.1525 77.9631 11.0026 77.6738Q10.8527 77.3845 10.8527 77.0141Q10.8527 76.6437 11.0026 76.3544Q11.1525 76.0651 11.4207 75.9046Q11.6888 75.7441 12.031 75.7441Q12.3732 75.7441 12.6413 75.9046Q12.9094 76.0651 13.0593 76.3544Q13.2092 76.6437 13.2092 77.0141Q13.2092 77.3845 13.0593 77.6738Q12.9094 77.9631 12.6413 78.1236Q12.3732 78.2841 12.031 78.2841ZM12.031 75.8852Q11.7311 75.8852 11.4965 76.0263Q11.2619 76.1674 11.1314 76.425Q11.0008 76.6825 11.0008 77.0141Q11.0008 77.3457 11.1314 77.6033Q11.2619 77.8608 11.4965 78.0019Q11.7311 78.143 12.031 78.143Q12.3308 78.143 12.5654 78.0019Q12.8 77.8608 12.9305 77.6033Q13.0611 77.3457 13.0611 77.0141Q13.0611 76.6825 12.9305 76.425Q12.8 76.1674 12.5654 76.0263Q12.3308 75.8852 12.031 75.8852ZM15.5905 75.8464V78.1712Q15.5905 78.21 15.5693 78.2294Q15.5482 78.2488 15.5164 78.2488Q15.4811 78.2488 15.46 78.2206L13.8725 76.051V78.1889Q13.8725 78.2136 13.8531 78.2312Q13.8337 78.2488 13.8054 78.2488Q13.7737 78.2488 13.756 78.2312Q13.7384 78.2136 13.7384 78.1889V75.8499Q13.7384 75.8147 13.7578 75.797Q13.7772 75.7794 13.8019 75.7794Q13.8337 75.7794 13.8548 75.8041L15.4564 77.9878V75.8464Q15.4564 75.8182 15.4758 75.7988Q15.4952 75.7794 15.5235 75.7794Q15.5552 75.7794 15.5728 75.7988Q15.5905 75.8182 15.5905 75.8464ZM17.9223 75.8464Q17.9223 75.8782 17.9029 75.8958Q17.8835 75.9134 17.8518 75.9134H17.0651V78.1783Q17.0651 78.2065 17.0439 78.2277Q17.0228 78.2488 16.9945 78.2488Q16.9628 78.2488 16.9434 78.2277Q16.924 78.2065 16.924 78.1783V75.9134H16.1373Q16.1091 75.9134 16.0879 75.894Q16.0667 75.8746 16.0667 75.8464Q16.0667 75.8182 16.0879 75.7988Q16.1091 75.7794 16.1373 75.7794H17.8518Q17.88 75.7794 17.9012 75.7988Q17.9223 75.8182 17.9223 75.8464ZM20.1942 78.1748Q20.1942 78.2065 20.1748 78.2259Q20.1554 78.2453 20.1272 78.2453Q20.106 78.2453 20.0955 78.2383Q20.0002 78.1853 19.9438 78.0601Q19.8873 77.9349 19.8873 77.6491Q19.8873 77.3598 19.7321 77.2522Q19.5769 77.1446 19.3723 77.1446H18.5468V78.1783Q18.5468 78.2065 18.5256 78.2277Q18.5044 78.2488 18.4727 78.2488Q18.4409 78.2488 18.4198 78.2277Q18.3986 78.2065 18.3986 78.1783V75.8499Q18.3986 75.8217 18.4198 75.8006Q18.4409 75.7794 18.4692 75.7794H19.4005Q19.6051 75.7794 19.7638 75.8623Q19.9226 75.9452 20.0108 76.0898Q20.099 76.2345 20.099 76.4179Q20.099 76.6543 19.9737 76.8236Q19.8485 76.9929 19.6474 77.0529Q19.8168 77.1058 19.9261 77.2628Q20.0355 77.4198 20.0355 77.6491Q20.0355 77.8855 20.0655 77.979Q20.0955 78.0724 20.1554 78.1112Q20.1942 78.1359 20.1942 78.1748ZM19.4181 77.0035Q19.6404 76.9824 19.7956 76.8271Q19.9508 76.6719 19.9508 76.4214Q19.9508 76.2027 19.7956 76.0616Q19.6404 75.9205 19.3828 75.9205H18.5468V77.0035ZM21.7429 78.2841Q21.4007 78.2841 21.1326 78.1236Q20.8645 77.9631 20.7146 77.6738Q20.5647 77.3845 20.5647 77.0141Q20.5647 76.6437 20.7146 76.3544Q20.8645 76.0651 21.1326 75.9046Q21.4007 75.7441 21.7429 75.7441Q22.0851 75.7441 22.3532 75.9046Q22.6213 76.0651 22.7713 76.3544Q22.9212 76.6437 22.9212 77.0141Q22.9212 77.3845 22.7713 77.6738Q22.6213 77.9631 22.3532 78.1236Q22.0851 78.2841 21.7429 78.2841ZM21.7429 75.8852Q21.4431 75.8852 21.2085 76.0263Q20.9739 76.1674 20.8433 76.425Q20.7128 76.6825 20.7128 77.0141Q20.7128 77.3457 20.8433 77.6033Q20.9739 77.8608 21.2085 78.0019Q21.4431 78.143 21.7429 78.143Q22.0428 78.143 22.2774 78.0019Q22.512 77.8608 22.6425 77.6033Q22.773 77.3457 22.773 77.0141Q22.773 76.6825 22.6425 76.425Q22.512 76.1674 22.2774 76.0263Q22.0428 75.8852 21.7429 75.8852ZM24.8862 78.1783Q24.8862 78.21 24.865 78.2294Q24.8438 78.2488 24.8156 78.2488H23.5209Q23.4892 78.2488 23.4698 78.2277Q23.4504 78.2065 23.4504 78.1783V75.8499Q23.4504 75.8217 23.4715 75.8006Q23.4927 75.7794 23.5245 75.7794Q23.5562 75.7794 23.5774 75.8006Q23.5985 75.8217 23.5985 75.8499V78.1077H24.8156Q24.8438 78.1077 24.865 78.1289Q24.8862 78.1501 24.8862 78.1783Z" />
    </g>
</svg>
