<?xml version="1.0" encoding="utf-8"?>
<svg xmlns="http://www.w3.org/2000/svg" width="81.28mm" height="128.50mm" viewBox="0 0 81.28 128.50">
    <g id="labels" style="stroke:#000000;stroke-width:0.25;stroke-linecap:round;stroke-linejoin:bevel">
        <path d="M9.55282 76.0404Q9.55282 76.0687 9.53871 76.0863Q9.51754 76.1145 9.48579 76.1145Q9.47168 76.1145 9.44346 76.1004Q9.11538 75.8782 8.74849 75.8782Q8.45215 75.8782 8.20344 76.0246Q7.95474 76.171 7.8101 76.4303Q7.66546 76.6896 7.66546 77.0141Q7.66546 77.3387 7.8101 77.598Q7.95474 77.8573 8.20344 78.0037Q8.45215 78.1501 8.74849 78.1501Q9.1189 78.1501 9.43993 77.9313Q9.45757 77.9172 9.48226 77.9172Q9.51754 77.9172 9.53871 77.9454Q9.55282 77.9631 9.55282 77.9878Q9.55282 78.0231 9.5246 78.0442Q9.38701 78.143 9.17006 78.2136Q8.9531 78.2841 8.74849 78.2841Q8.41335 78.2841 8.13113 78.1183Q7.8489 77.9525 7.6831 77.6615Q7.51729 77.3704 7.51729 77.0141Q7.51729 76.6578 7.6831 76.3668Q7.8489 76.0757 8.13113 75.9099Q8.41335 75.7441 8.74849 75.7441Q8.96015 75.7441 9.15947 75.8076Q9.35879 75.8711 9.52107 75.984Q9.55282 76.0087 9.55282 76.0404ZM11.031 78.2841Q10.6888 78.2841 10.4207 78.1236Q10.1525 77.9631 10.0026 77.6738Q9.85268 77.3845 9.85268 77.0141Q9.85268 76.6437 10.0026 76.3544Q10.1525 76.0651 10.4207 75.9046Q10.6888 75.7441 11.031 75.7441Q11.3732 75.7441 11.6413 75.9046Q11.9094 76.0651 12.0593 76.3544Q12.2092 76.6437 12.2092 77.0141Q12.2092 77.3845 12.0593 77.6738Q11.9094 77.9631 11.6413 78.1236Q11.3732 78.2841 11.031 78.2841ZM11.031 75.8852Q10.7311 75.8852 10.4965 76.0263Q10.2619 76.1674 10.1314 76.425Q10.0008 76.6825 10.0008 77.0141Q10.0008 77.3457 10.1314 77.6033Q10.2619 77.8608 10.4965 78.0019Q10.7311 78.143 11.031 78.143Q11.3308 78.143 11.5654 78.0019Q11.8 77.8608 11.9305 77.6033Q12.0611 77.3457 12.0611 77.0141Q12.0611 76.6825 11.9305 76.425Q11.8 76.1674 11.5654 76.0263Q11.3308 75.8852 11.031 75.8852ZM14.5905 75.8464V78.1712Q14.5905 78.21 14.5693 78.2294Q14.5482 78.2488 14.5164 78.2488Q14.4811 78.2488 14.46 78.2206L12.8725 76.051V78.1889Q12.8725 78.2136 12.8531 78.2312Q12.8337 78.2488 12.8054 78.2488Q12.7737 78.2488 12.756 78.2312Q12.7384 78.2136 12.7384 78.1889V75.8499Q12.7384 75.8147 12.7578 75.797Q12.7772 75.7794 12.8019 75.7794Q12.8337 75.7794 12.8548 75.8041L14.4564 77.9878V75.8464Q14.4564 75.8182 14.4758 75.7988Q14.4952 75.7794 14.5235 75.7794Q14.5552 75.7794 14.5728 75.7988Q14.5905 75.8182 14.5905 75.8464ZM16.9223 75.8464Q16.9223 75.8782 16.9029 75.8958Q16.8835 75.9134 16.8518 75.9134H16.0651V78.1783Q16.0651 78.2065 16.0439 78.2277Q16.0228 78.2488 15.9945 78.2488Q15.9628 78.2488 15.9434 78.2277Q15.924 78.2065 15.924 78.1783V75.9134H15.1373Q15.1091 75.9134 15.0879 75.894Q15.0667 75.8746 15.0667 75.8464Q15.0667 75.8182 15.0879 75.7988Q15.1091 75.7794 15.1373 75.7794H16.8518Q16.88 75.7794 16.9012 75.7988Q16.9223 75.8182 16.9223 75.8464ZM19.1942 78.1748Q19.1942 78.2065 19.1748 78.2259Q19.1554 78.2453 19.1272 78.2453Q19.106 78.2453 19.0955 78.2383Q19.0002 78.1853 18.9438 78.0601Q18.8873 77.9349 18.8873 77.6491Q18.8873 77.3598 18.7321 77.2522Q18.5769 77.1446 18.3723 77.1446H17.5468V78.1783Q17.5468 78.2065 17.5256 78.2277Q17.5044 78.2488 17.4727 78.2488Q17.4409 78.2488 17.4198 78.2277Q17.3986 78.2065 17.3986 78.1783V75.8499Q17.3986 75.8217 17.4198 75.8006Q17.4409 75.7794 17.4692 75.7794H18.4005Q18.6051 75.7794 18.7638 75.8623Q18.9226 75.9452 19.0108 76.0898Q19.099 76.2345 19.099 76.4179Q19.099 76.6543 18.9737 76.8236Q18.8485 76.9929 18.6474 77.0529Q18.8168 77.1058 18.9261 77.2628Q19.0355 77.4198 19.0355 77.6491Q19.0355 77.8855 19.0655 77.979Q19.0955 78.0724 19.1554 78.1112Q19.1942 78.1359 19.1942 78.1748ZM18.4181 77.0035Q18.6404 76.9824 18.7956 76.8271Q18.9508 76.6719 18.9508 76.4214Q18.9508 76.2027 18.7956 76.0616Q18.6404 75.9205 18.3828 75.9205H17.5468V77.0035ZM20.7429 78.2841Q20.4007 78.2841 20.1326 78.1236Q19.8645 77.9631 19.7146 77.6738Q19.5647 77.3845 19.5647 77.0141Q19.5647 76.6437 19.7146 76.3544Q19.8645 76.0651 20.1326 75.9046Q20.4007 75.7441 20.7429 75.7441Q21.0851 75.7441 21.3532 75.9046Q21.6213 76.0651 21.7713 76.3544Q21.9212 76.6437 21.9212 77.0141Q21.9212 77.3845 21.7713 77.6738Q21.6213 77.9631 21.3532 78.1236Q21.0851 78.2841 20.7429 78.2841ZM20.7429 75.8852Q20.4431 75.8852 20.2085 76.0263Q19.9739 76.1674 19.8433 76.425Q19.7128 76.6825 19.7128 77.0141Q19.7128 77.3457 19.8433 77.6033Q19.9739 77.8608 20.2085 78.0019Q20.4431 78.143 20.7429 78.143Q21.0428 78.143 21.2774 78.0019Q21.512 77.8608 21.6425 77.6033Q21.773 77.3457 21.773 77.0141Q21.773 76.6825 21.6425 76.425Q21.512 76.1674 21.2774 76.0263Q21.0428 75.8852 20.7429 75.8852ZM23.8862 78.1783Q23.8862 78.21 23.865 78.2294Q23.8438 78.2488 23.8156 78.2488H22.5209Q22.4892 78.2488 22.4698 78.2277Q22.4504 78.2065 22.4504 78.1783V75.8499Q22.4504 75.8217 22.4715 75.8006Q22.4927 75.7794 22.5245 75.7794Q22.5562 75.7794 22.5774 75.8006Q22.5985 75.8217 22.5985 75.8499V78.1077H23.8156Q23.8438 78.1077 23.865 78.1289Q23.8862 78.1501 23.8862 78.1783Z" />
    </g>
</svg>
