<?xml version="1.0" encoding="utf-8"?>
<svg xmlns="http://www.w3.org/2000/svg" width="50.80mm" height="128.50mm" viewBox="0 0 50.80 128.50">
    <g id="PanelLayer">
        <rect id="border_rect" width="50.8" height="128.5" x="0" y="0" style="display:inline;fill:#4f8df2;fill-opacity:1;fill-rule:nonzero;stroke:#5021d4;stroke-width:0.7;stroke-linecap:round;stroke-linejoin:round;stroke-dasharray:none;stroke-opacity:1;image-rendering:auto" />
        <path id="model_name" d="M15.8461 5.62114V7.99604Q15.8461 8.05812 15.7995 8.10469Q15.7529 8.15126 15.6909 8.15126Q15.621 8.15126 15.5783 8.10469Q15.5356 8.05812 15.5356 7.99604V5.65218Q15.5356 5.12443 15.2601 4.78682Q14.9846 4.44921 14.4258 4.44921Q14.0843 4.44921 13.7545 4.61219Q13.4246 4.77517 13.2151 5.05457Q13.0055 5.33397 13.0055 5.65218V7.99604Q13.0055 8.05812 12.9589 8.10469Q12.9124 8.15126 12.8503 8.15126Q12.7804 8.15126 12.7377 8.10469Q12.6951 8.05812 12.6951 7.99604V4.43369Q12.6951 4.3716 12.7416 4.32503Q12.7882 4.27846 12.8503 4.27846Q12.9201 4.27846 12.9628 4.32503Q13.0055 4.3716 13.0055 4.43369V4.95368Q13.2306 4.60443 13.638 4.37936Q14.0455 4.15429 14.4568 4.15429Q15.1476 4.15429 15.4968 4.56174Q15.8461 4.9692 15.8461 5.62114ZM20.2156 4.43369V6.69217Q20.2156 7.42948 19.8004 7.81365Q19.3851 8.19782 18.6711 8.19782Q17.9571 8.19782 17.5458 7.81365Q17.1344 7.42948 17.1344 6.69217V4.43369Q17.1344 4.3716 17.181 4.32503Q17.2276 4.27846 17.2896 4.27846Q17.3595 4.27846 17.4022 4.32503Q17.4449 4.3716 17.4449 4.43369V6.69217Q17.4449 7.27425 17.7708 7.58858Q18.0968 7.9029 18.6711 7.9029Q19.2532 7.9029 19.5792 7.58858Q19.9051 7.27425 19.9051 6.69217V4.43369Q19.9051 4.3716 19.9478 4.32503Q19.9905 4.27846 20.0604 4.27846Q20.1302 4.27846 20.1729 4.32503Q20.2156 4.3716 20.2156 4.43369ZM24.5308 4.70533Q24.5308 4.76741 24.4881 4.81398Q24.4454 4.86055 24.3833 4.86055Q24.3134 4.86055 24.2785 4.83726Q24.2436 4.81398 24.1815 4.75189Q24.0806 4.63547 23.972 4.58115Q23.6926 4.44921 23.1803 4.44921Q22.7379 4.44921 22.3615 4.68204Q21.9851 4.91488 21.7639 5.31457Q21.5427 5.71427 21.5427 6.1877Q21.5427 6.68441 21.7484 7.08411Q21.9541 7.4838 22.3305 7.70887Q22.7069 7.93395 23.1803 7.93395Q23.4908 7.93395 23.6693 7.87962Q23.8478 7.82529 24.0263 7.7244Q24.1505 7.64679 24.2436 7.55365Q24.2824 7.51485 24.3212 7.48768Q24.36 7.46052 24.3988 7.46052Q24.4609 7.46052 24.4958 7.49932Q24.5308 7.53813 24.5308 7.60022Q24.5308 7.70887 24.3523 7.86022Q24.1737 8.01156 23.8594 8.12021Q23.5451 8.22887 23.157 8.22887Q22.5982 8.22887 22.1597 7.96499Q21.7212 7.70111 21.4768 7.23545Q21.2323 6.76978 21.2323 6.1877Q21.2323 5.64442 21.4768 5.17875Q21.7212 4.71309 22.1675 4.43369Q22.6138 4.15429 23.1881 4.15429Q23.5218 4.15429 23.8361 4.2319Q24.1505 4.30951 24.3406 4.43757Q24.5308 4.56562 24.5308 4.70533ZM25.6794 8.15126Q25.6095 8.15126 25.5669 8.10469Q25.5242 8.05812 25.5242 7.99604V2.56326Q25.5242 2.50117 25.5707 2.4546Q25.6173 2.40804 25.6794 2.40804Q25.7492 2.40804 25.7919 2.4546Q25.8346 2.50117 25.8346 2.56326V7.99604Q25.8346 8.05812 25.7881 8.10469Q25.7415 8.15126 25.6794 8.15126ZM30.3593 7.35962Q30.3593 7.41395 30.3283 7.45276Q30.0722 7.79425 29.6919 8.01156Q29.3116 8.22887 28.877 8.22887Q28.2949 8.22887 27.8448 7.98051Q27.3946 7.73216 27.1424 7.27425Q26.8901 6.81635 26.8901 6.21098Q26.8901 5.59009 27.1346 5.12054Q27.3791 4.651 27.7827 4.40264Q28.1862 4.15429 28.6441 4.15429Q29.1021 4.15429 29.494 4.35219Q29.8859 4.5501 30.1343 4.94592Q30.3826 5.34174 30.3982 5.92382Q30.3982 5.98591 30.3516 6.03636Q30.305 6.0868 30.2429 6.0868H27.1928V6.1877Q27.1928 6.66889 27.3868 7.06858Q27.5809 7.46828 27.9612 7.70111Q28.3415 7.93395 28.877 7.93395Q29.2495 7.93395 29.5794 7.75156Q29.9092 7.56917 30.0955 7.28977Q30.1498 7.21992 30.2274 7.21992Q30.2817 7.21992 30.3205 7.26261Q30.3593 7.3053 30.3593 7.35962ZM27.2239 5.79188H30.08V5.72203Q30.0411 5.32621 29.8277 5.04293Q29.6143 4.75965 29.3 4.61219Q28.9856 4.46473 28.6441 4.46473Q28.357 4.46473 28.0582 4.61607Q27.7594 4.76741 27.5304 5.06622Q27.3015 5.36502 27.2239 5.79188ZM34.496 4.43369V6.69217Q34.496 7.42948 34.0808 7.81365Q33.6656 8.19782 32.9516 8.19782Q32.2375 8.19782 31.8262 7.81365Q31.4149 7.42948 31.4149 6.69217V4.43369Q31.4149 4.3716 31.4614 4.32503Q31.508 4.27846 31.5701 4.27846Q31.6399 4.27846 31.6826 4.32503Q31.7253 4.3716 31.7253 4.43369V6.69217Q31.7253 7.27425 32.0513 7.58858Q32.3772 7.9029 32.9516 7.9029Q33.5336 7.9029 33.8596 7.58858Q34.1856 7.27425 34.1856 6.69217V4.43369Q34.1856 4.3716 34.2283 4.32503Q34.2709 4.27846 34.3408 4.27846Q34.4107 4.27846 34.4533 4.32503Q34.496 4.3716 34.496 4.43369ZM35.5127 7.38291Q35.5127 7.32858 35.5748 7.28201Q35.6136 7.24321 35.668 7.24321Q35.7456 7.24321 35.7921 7.3053Q36.2423 7.94947 37.0494 7.94947Q37.4608 7.94947 37.7712 7.7438Q38.0817 7.53813 38.0817 7.18888Q38.0817 6.83187 37.81 6.65336Q37.5384 6.47486 37.065 6.35844Q36.4363 6.20322 36.0754 5.94322Q35.7145 5.68323 35.7145 5.2098Q35.7145 4.75189 36.0793 4.45309Q36.4441 4.15429 37.0184 4.15429Q37.3366 4.15429 37.6509 4.27846Q37.9652 4.40264 38.2214 4.67428Q38.2757 4.72085 38.2757 4.78294Q38.2757 4.85279 38.2214 4.90711Q38.1593 4.93816 38.1205 4.93816Q38.0661 4.93816 38.0273 4.89159Q37.6238 4.44921 36.9873 4.44921Q36.576 4.44921 36.2927 4.651Q36.0094 4.85279 36.0094 5.2098Q36.0327 5.54352 36.316 5.72591Q36.5993 5.9083 37.1503 6.048Q37.5461 6.14889 37.8061 6.26919Q38.0661 6.38949 38.2214 6.6068Q38.3766 6.82411 38.3766 7.17336Q38.3766 7.66231 38.0002 7.94559Q37.6238 8.22887 37.0184 8.22887Q36.1336 8.22887 35.5671 7.53037Q35.5127 7.445 35.5127 7.38291Z" style="display:inline;stroke:#000000;stroke-width:0.35;stroke-linecap:round;stroke-linejoin:bevel" />
        <g id="sapphire_insignia">
            <path id="brand_name" d="M10.5064 124.775Q10.5064 124.721 10.5685 124.674Q10.6073 124.636 10.6617 124.636Q10.7393 124.636 10.7858 124.698Q11.236 125.342 12.0431 125.342Q12.4545 125.342 12.7649 125.136Q13.0754 124.93 13.0754 124.581Q13.0754 124.224 12.8037 124.046Q12.5321 123.867 12.0587 123.751Q11.43 123.596 11.0691 123.336Q10.7082 123.076 10.7082 122.602Q10.7082 122.144 11.073 121.845Q11.4378 121.547 12.0121 121.547Q12.3303 121.547 12.6446 121.671Q12.9589 121.795 13.2151 122.067Q13.2694 122.113 13.2694 122.175Q13.2694 122.245 13.2151 122.299Q13.153 122.331 13.1142 122.331Q13.0598 122.331 13.021 122.284Q12.6175 121.842 11.981 121.842Q11.5697 121.842 11.2864 122.043Q11.0031 122.245 11.0031 122.602Q11.0264 122.936 11.3097 123.118Q11.593 123.301 12.144 123.44Q12.5398 123.541 12.7998 123.662Q13.0598 123.782 13.2151 123.999Q13.3703 124.216 13.3703 124.566Q13.3703 125.055 12.9939 125.338Q12.6175 125.621 12.0121 125.621Q11.1273 125.621 10.5608 124.923Q10.5064 124.837 10.5064 124.775ZM17.7165 121.826V125.388Q17.7165 125.45 17.6699 125.497Q17.6234 125.544 17.5613 125.544Q17.4914 125.544 17.4487 125.497Q17.4061 125.45 17.4061 125.388V124.69Q17.212 125.086 16.8085 125.353Q16.4049 125.621 15.9159 125.621Q15.4037 125.621 14.9924 125.353Q14.581 125.086 14.3482 124.616Q14.1153 124.147 14.1153 123.565Q14.1153 122.99 14.3521 122.528Q14.5888 122.067 15.0001 121.807Q15.4115 121.547 15.9159 121.547Q16.4204 121.547 16.824 121.811Q17.2276 122.074 17.4061 122.517V121.826Q17.4061 121.764 17.4487 121.717Q17.4914 121.671 17.5613 121.671Q17.6311 121.671 17.6738 121.717Q17.7165 121.764 17.7165 121.826ZM17.4371 123.565Q17.4371 123.091 17.2431 122.695Q17.049 122.299 16.7037 122.071Q16.3583 121.842 15.9314 121.842Q15.5046 121.842 15.1592 122.063Q14.8138 122.284 14.6198 122.676Q14.4258 123.068 14.4258 123.565Q14.4258 124.061 14.6198 124.465Q14.8138 124.868 15.1553 125.097Q15.4968 125.326 15.9314 125.326Q16.3583 125.326 16.7037 125.097Q17.049 124.868 17.2431 124.465Q17.4371 124.061 17.4371 123.565ZM22.606 123.603Q22.606 124.162 22.3693 124.616Q22.1326 125.07 21.7212 125.33Q21.3099 125.59 20.8054 125.59Q20.3398 125.59 19.9517 125.357Q19.5636 125.125 19.3153 124.698V126.941Q19.3153 127.003 19.2726 127.049Q19.2299 127.096 19.1601 127.096Q19.098 127.096 19.0514 127.049Q19.0048 127.003 19.0048 126.941V121.779Q19.0048 121.717 19.0475 121.671Q19.0902 121.624 19.1601 121.624Q19.2299 121.624 19.2726 121.671Q19.3153 121.717 19.3153 121.779V122.493Q19.5481 122.051 19.9362 121.838Q20.3242 121.624 20.8054 121.624Q21.3177 121.624 21.729 121.88Q22.1403 122.136 22.3732 122.587Q22.606 123.037 22.606 123.603ZM22.2956 123.603Q22.2956 123.122 22.0976 122.738Q21.8997 122.354 21.5582 122.136Q21.2168 121.919 20.7899 121.919Q20.3553 121.919 20.0099 122.133Q19.6645 122.346 19.4744 122.73Q19.2842 123.114 19.2842 123.603Q19.2842 124.092 19.4744 124.476Q19.6645 124.861 20.0099 125.078Q20.3553 125.295 20.7899 125.295Q21.2168 125.295 21.5582 125.078Q21.8997 124.861 22.0976 124.473Q22.2956 124.085 22.2956 123.603ZM27.2239 123.603Q27.2239 124.162 26.9871 124.616Q26.7504 125.07 26.3391 125.33Q25.9278 125.59 25.4233 125.59Q24.9576 125.59 24.5696 125.357Q24.1815 125.125 23.9331 124.698V126.941Q23.9331 127.003 23.8905 127.049Q23.8478 127.096 23.7779 127.096Q23.7158 127.096 23.6693 127.049Q23.6227 127.003 23.6227 126.941V121.779Q23.6227 121.717 23.6654 121.671Q23.7081 121.624 23.7779 121.624Q23.8478 121.624 23.8905 121.671Q23.9331 121.717 23.9331 121.779V122.493Q24.166 122.051 24.554 121.838Q24.9421 121.624 25.4233 121.624Q25.9355 121.624 26.3469 121.88Q26.7582 122.136 26.991 122.587Q27.2239 123.037 27.2239 123.603ZM26.9134 123.603Q26.9134 123.122 26.7155 122.738Q26.5176 122.354 26.1761 122.136Q25.8346 121.919 25.4078 121.919Q24.9731 121.919 24.6278 122.133Q24.2824 122.346 24.0923 122.73Q23.9021 123.114 23.9021 123.603Q23.9021 124.092 24.0923 124.476Q24.2824 124.861 24.6278 125.078Q24.9731 125.295 25.4078 125.295Q25.8346 125.295 26.1761 125.078Q26.5176 124.861 26.7155 124.473Q26.9134 124.085 26.9134 123.603ZM31.314 123.122V125.388Q31.314 125.45 31.2674 125.497Q31.2208 125.544 31.1587 125.544Q31.0889 125.544 31.0462 125.497Q31.0035 125.45 31.0035 125.388V123.122Q31.0035 122.587 30.7396 122.253Q30.4758 121.919 29.9325 121.919Q29.5988 121.919 29.2767 122.082Q28.9546 122.245 28.7528 122.525Q28.551 122.804 28.551 123.122V125.388Q28.551 125.45 28.5044 125.497Q28.4579 125.544 28.3958 125.544Q28.3259 125.544 28.2833 125.497Q28.2406 125.45 28.2406 125.388V119.956Q28.2406 119.894 28.2871 119.847Q28.3337 119.8 28.3958 119.8Q28.4656 119.8 28.5083 119.847Q28.551 119.894 28.551 119.956V122.408Q28.7683 122.067 29.1525 121.845Q29.5367 121.624 29.9325 121.624Q30.5999 121.624 30.957 122.047Q31.314 122.47 31.314 123.122ZM32.7575 125.544Q32.6877 125.544 32.645 125.497Q32.6023 125.45 32.6023 125.388V121.702Q32.6023 121.64 32.6489 121.593Q32.6954 121.547 32.7575 121.547Q32.8274 121.547 32.8701 121.593Q32.9128 121.64 32.9128 121.702V125.388Q32.9128 125.45 32.8662 125.497Q32.8196 125.544 32.7575 125.544ZM32.4859 120.771V120.708Q32.4859 120.6 32.5635 120.53Q32.6411 120.46 32.7653 120.46Q32.874 120.46 32.9477 120.53Q33.0214 120.6 33.0214 120.708V120.771Q33.0214 120.879 32.9477 120.949Q32.874 121.019 32.7575 121.019Q32.6334 121.019 32.5596 120.949Q32.4859 120.879 32.4859 120.771ZM36.3121 121.725Q36.3121 121.795 36.2733 121.842Q36.2345 121.888 36.1724 121.888Q36.1491 121.888 36.0599 121.853Q35.9706 121.818 35.8697 121.818Q35.5515 121.818 35.2333 122.071Q34.9151 122.323 34.7133 122.707Q34.5115 123.091 34.5115 123.448V125.388Q34.5115 125.45 34.465 125.497Q34.4184 125.544 34.3563 125.544Q34.2865 125.544 34.2438 125.497Q34.2011 125.45 34.2011 125.388V121.826Q34.2011 121.764 34.2477 121.717Q34.2942 121.671 34.3563 121.671Q34.4262 121.671 34.4689 121.717Q34.5115 121.764 34.5115 121.826V122.649Q34.69 122.175 35.0665 121.865Q35.4429 121.554 35.9551 121.547Q36.3121 121.547 36.3121 121.725ZM40.2548 124.752Q40.2548 124.806 40.2237 124.845Q39.9676 125.187 39.5873 125.404Q39.207 125.621 38.7724 125.621Q38.1903 125.621 37.7402 125.373Q37.29 125.125 37.0378 124.667Q36.7856 124.209 36.7856 123.603Q36.7856 122.982 37.03 122.513Q37.2745 122.043 37.6781 121.795Q38.0817 121.547 38.5396 121.547Q38.9975 121.547 39.3894 121.745Q39.7813 121.942 40.0297 122.338Q40.278 122.734 40.2936 123.316Q40.2936 123.378 40.247 123.429Q40.2004 123.479 40.1383 123.479H37.0882V123.58Q37.0882 124.061 37.2823 124.461Q37.4763 124.861 37.8566 125.093Q38.2369 125.326 38.7724 125.326Q39.1449 125.326 39.4748 125.144Q39.8046 124.962 39.9909 124.682Q40.0452 124.612 40.1228 124.612Q40.1772 124.612 40.216 124.655Q40.2548 124.698 40.2548 124.752ZM37.1193 123.184H39.9754V123.114Q39.9366 122.719 39.7231 122.435Q39.5097 122.152 39.1954 122.005Q38.881 121.857 38.5396 121.857Q38.2524 121.857 37.9536 122.008Q37.6548 122.16 37.4258 122.459Q37.1969 122.757 37.1193 123.184Z" style="fill:#000000;stroke:#000000;stroke-width:0.265;stroke-linecap:square" />
            <g id="gemstones" style="stroke-width:0;fill:#0000ff;stroke:#2e2114;stroke-linecap:square;stroke-opacity:1">
                <path d="m 7.850,122.900 q 0,0.34175 -0.242534,0.63114 -0.0441,0.0524 -0.20395,0.21497 -0.187413,0.19017 -0.785481,0.81304 l -1.444183,1.51309 q -0.01929,0.003 -0.0441,0.003 -0.02756,0 -0.04134,-0.003 -0.08268,-0.0827 -0.647678,-0.67524 -0.468532,-0.47404 -0.934309,-0.94809 -0.556727,-0.56775 -0.89848,-0.98116 -0.132292,-0.15985 -0.168121,-0.29766 -0.02756,-0.10197 -0.02756,-0.34175 0,-0.11024 0.07166,-0.28939 0.06614,-0.16536 0.140559,-0.26458 0.118512,-0.1571 0.42168,-0.42444 0.283875,-0.2508 0.474044,-0.37482 0.272852,-0.17915 0.818555,-0.36656 0.09646,-0.0331 0.110243,-0.0331 h 1.3615 q 0.01102,0 0.104731,0.0331 0.567751,0.20119 0.824066,0.36656 0.165365,0.10473 0.474045,0.37758 0.322461,0.28388 0.421679,0.42168 0.214974,0.2949 0.214974,0.62563 z m -0.16812,-0.27285 q -0.03307,-0.10749 -0.135048,-0.30868 -0.07166,-0.0937 -0.209462,-0.19844 -0.118511,-0.0854 -0.234266,-0.17088 0.245291,0.3638 0.578776,0.678 z m -0.573264,-0.52366 -0.358289,-0.44648 v 0.41065 z m 0.636653,0.75792 q 0,-0.0524 -0.341753,-0.39412 l 0.228754,0.7028 h 0.04961 q 0.06339,-0.21773 0.06339,-0.30868 z m -0.23151,0.27285 -0.316948,-0.90399 -0.410655,-0.0634 -0.159853,0.61461 z m 0.0028,0.15434 -0.771701,-0.3197 h -0.03032 l 0.344509,0.60634 q 0.07993,-0.003 0.234266,-0.0469 0.02481,-0.0138 0.223242,-0.23978 z m -0.857139,-1.05006 -0.719335,0.28388 0.60358,0.22599 z m 0,-0.16261 v -0.51538 l -0.917773,-0.38034 h -1.223697 l -0.917772,0.38034 v 0.51538 l 0.89848,0.4079 h 1.254014 z m 0.573264,1.53789 q -0.0689,0.011 -0.198438,0.0524 -0.08544,0.0551 -0.259071,0.16261 0.01929,0 0.06339,0.003 0.04134,0 0.06339,0 0.118511,0 0.190169,-0.0689 0.07166,-0.0717 0.14056,-0.14883 z m -0.289388,0.003 -0.347266,-0.63114 -0.363801,0.87918 q 0.0248,-0.0165 0.06615,-0.0165 0.03032,0 0.08544,0.011 0.05788,0.008 0.08819,0.008 0.04961,0 0.228754,-0.10749 0.228754,-0.1378 0.242535,-0.14331 z m -0.440972,-0.74139 -0.683507,-0.2756 -0.592556,0.54845 0.903993,0.65595 z m -0.854383,-0.28387 h -1.036284 l 0.523654,0.47404 z m 0.749652,1.36701 q -0.228754,-0.0303 -0.228754,-0.0303 -0.03583,0 -0.272851,0.0937 l 0.190169,0.0193 q 0.01102,0 0.311436,-0.0827 z m -0.388606,-0.0882 -0.843359,-0.61185 v 0.67524 l 0.471289,0.0827 z m 0.854383,0.0496 q -0.09922,0.006 -0.2949,0.0386 -0.01102,0.003 -0.377583,0.17639 -0.129535,0.34726 -0.380338,1.0418 z m -2.543857,-1.39733 -0.719335,-0.28388 0.124023,0.51814 z m -0.802018,-0.45476 v -0.41065 l -0.366557,0.44648 z m 1.515841,1.07212 -0.592556,-0.54019 -0.683506,0.2756 0.380338,0.9288 z m 0.369314,0.94257 q -0.03307,-0.003 -0.135047,-0.0248 -0.08544,-0.0165 -0.137804,-0.0165 -0.05237,0 -0.137804,0.0165 -0.101975,0.0221 -0.135047,0.0248 0.264583,0.0469 0.272851,0.0469 0.0083,0 0.272851,-0.0469 z m -0.30868,-0.1378 v -0.68626 l -0.843359,0.61185 0.37207,0.14607 z m 0.950846,0.20671 -0.396875,-0.0551 -0.479557,0.14056 v 1.27607 z m -2.888366,-2.20211 q -0.118512,0.0854 -0.234267,0.17364 -0.146072,0.10748 -0.209461,0.19568 -0.0441,0.10473 -0.135048,0.31419 0.369314,-0.3638 0.578776,-0.68351 z m 0.476801,0.83234 -0.159853,-0.61461 -0.410655,0.0634 -0.316948,0.90399 z m 0.394118,1.08313 -0.363802,-0.87918 -0.355533,0.63114 q 0.43546,0.2508 0.451996,0.2508 0.09095,0 0.267339,-0.003 z m 1.821765,0.82958 q -0.132291,0.21222 -0.405143,0.6339 -0.07717,0.10749 -0.220486,0.32797 -0.05788,0.10473 -0.05512,0.226 0.159852,-0.15158 0.432704,-0.49609 0.07717,-0.12954 0.140559,-0.339 0.05512,-0.17639 0.107486,-0.35278 z m -1.493792,-0.66146 -0.270095,-0.0882 -0.0083,-0.011 q -0.02481,0 -0.107487,0.011 -0.06615,0.006 -0.107487,0.006 0.272851,0.091 0.311436,0.091 0.02481,0 0.181901,-0.008 z m -0.810286,-1.06384 h -0.03032 l -0.7717,0.3197 q 0.06615,0.0965 0.223242,0.23978 0.07717,0.0138 0.234266,0.0469 z m -0.689018,-0.50161 q -0.341754,0.34727 -0.341754,0.39412 0,0.0799 0.06339,0.30868 h 0.04961 z m 2.235176,3.04547 v -1.27607 l -0.479557,-0.14056 -0.396875,0.0551 z m -1.606791,-1.6757 q -0.256315,-0.1819 -0.457509,-0.22324 0.06615,0.0772 0.20395,0.22324 z m 1.609547,2.04501 v -0.1378 l -0.683507,-1.05007 q 0.05237,0.17639 0.107487,0.35278 0.06339,0.20946 0.14056,0.339 0.0689,0.11851 0.20395,0.25907 0.115755,0.11851 0.23151,0.23702 z m -0.644921,-0.70555 q -0.115756,-0.32798 -0.380339,-1.0418 -0.135047,-0.0662 -0.272851,-0.12954 -0.159852,-0.0716 -0.289388,-0.0716 -0.05237,0 -0.110243,-0.0138 z" />
                <path d="m 48.380,122.900 q 0,0.34175 -0.242534,0.63114 -0.0441,0.0524 -0.20395,0.21497 -0.187413,0.19017 -0.785481,0.81304 l -1.444183,1.51309 q -0.01929,0.003 -0.0441,0.003 -0.02756,0 -0.04134,-0.003 -0.08268,-0.0827 -0.647678,-0.67524 -0.468532,-0.47404 -0.934309,-0.94809 -0.556727,-0.56775 -0.89848,-0.98116 -0.132292,-0.15985 -0.168121,-0.29766 -0.02756,-0.10197 -0.02756,-0.34175 0,-0.11024 0.07166,-0.28939 0.06614,-0.16536 0.140559,-0.26458 0.118512,-0.1571 0.42168,-0.42444 0.283875,-0.2508 0.474044,-0.37482 0.272852,-0.17915 0.818555,-0.36656 0.09646,-0.0331 0.110243,-0.0331 h 1.3615 q 0.01102,0 0.104731,0.0331 0.567751,0.20119 0.824066,0.36656 0.165365,0.10473 0.474045,0.37758 0.322461,0.28388 0.421679,0.42168 0.214974,0.2949 0.214974,0.62563 z m -0.16812,-0.27285 q -0.03307,-0.10749 -0.135048,-0.30868 -0.07166,-0.0937 -0.209462,-0.19844 -0.118511,-0.0854 -0.234266,-0.17088 0.245291,0.3638 0.578776,0.678 z m -0.573264,-0.52366 -0.358289,-0.44648 v 0.41065 z m 0.636653,0.75792 q 0,-0.0524 -0.341753,-0.39412 l 0.228754,0.7028 h 0.04961 q 0.06339,-0.21773 0.06339,-0.30868 z m -0.23151,0.27285 -0.316948,-0.90399 -0.410655,-0.0634 -0.159853,0.61461 z m 0.0028,0.15434 -0.771701,-0.3197 h -0.03032 l 0.344509,0.60634 q 0.07993,-0.003 0.234266,-0.0469 0.02481,-0.0138 0.223242,-0.23978 z m -0.857139,-1.05006 -0.719335,0.28388 0.60358,0.22599 z m 0,-0.16261 v -0.51538 l -0.917773,-0.38034 h -1.223697 l -0.917772,0.38034 v 0.51538 l 0.89848,0.4079 h 1.254014 z m 0.573264,1.53789 q -0.0689,0.011 -0.198438,0.0524 -0.08544,0.0551 -0.259071,0.16261 0.01929,0 0.06339,0.003 0.04134,0 0.06339,0 0.118511,0 0.190169,-0.0689 0.07166,-0.0717 0.14056,-0.14883 z m -0.289388,0.003 -0.347266,-0.63114 -0.363801,0.87918 q 0.0248,-0.0165 0.06615,-0.0165 0.03032,0 0.08544,0.011 0.05788,0.008 0.08819,0.008 0.04961,0 0.228754,-0.10749 0.228754,-0.1378 0.242535,-0.14331 z m -0.440972,-0.74139 -0.683507,-0.2756 -0.592556,0.54845 0.903993,0.65595 z m -0.854383,-0.28387 h -1.036284 l 0.523654,0.47404 z m 0.749652,1.36701 q -0.228754,-0.0303 -0.228754,-0.0303 -0.03583,0 -0.272851,0.0937 l 0.190169,0.0193 q 0.01102,0 0.311436,-0.0827 z m -0.388606,-0.0882 -0.843359,-0.61185 v 0.67524 l 0.471289,0.0827 z m 0.854383,0.0496 q -0.09922,0.006 -0.2949,0.0386 -0.01102,0.003 -0.377583,0.17639 -0.129535,0.34726 -0.380338,1.0418 z m -2.543857,-1.39733 -0.719335,-0.28388 0.124023,0.51814 z m -0.802018,-0.45476 v -0.41065 l -0.366557,0.44648 z m 1.515841,1.07212 -0.592556,-0.54019 -0.683506,0.2756 0.380338,0.9288 z m 0.369314,0.94257 q -0.03307,-0.003 -0.135047,-0.0248 -0.08544,-0.0165 -0.137804,-0.0165 -0.05237,0 -0.137804,0.0165 -0.101975,0.0221 -0.135047,0.0248 0.264583,0.0469 0.272851,0.0469 0.0083,0 0.272851,-0.0469 z m -0.30868,-0.1378 v -0.68626 l -0.843359,0.61185 0.37207,0.14607 z m 0.950846,0.20671 -0.396875,-0.0551 -0.479557,0.14056 v 1.27607 z m -2.888366,-2.20211 q -0.118512,0.0854 -0.234267,0.17364 -0.146072,0.10748 -0.209461,0.19568 -0.0441,0.10473 -0.135048,0.31419 0.369314,-0.3638 0.578776,-0.68351 z m 0.476801,0.83234 -0.159853,-0.61461 -0.410655,0.0634 -0.316948,0.90399 z m 0.394118,1.08313 -0.363802,-0.87918 -0.355533,0.63114 q 0.43546,0.2508 0.451996,0.2508 0.09095,0 0.267339,-0.003 z m 1.821765,0.82958 q -0.132291,0.21222 -0.405143,0.6339 -0.07717,0.10749 -0.220486,0.32797 -0.05788,0.10473 -0.05512,0.226 0.159852,-0.15158 0.432704,-0.49609 0.07717,-0.12954 0.140559,-0.339 0.05512,-0.17639 0.107486,-0.35278 z m -1.493792,-0.66146 -0.270095,-0.0882 -0.0083,-0.011 q -0.02481,0 -0.107487,0.011 -0.06615,0.006 -0.107487,0.006 0.272851,0.091 0.311436,0.091 0.02481,0 0.181901,-0.008 z m -0.810286,-1.06384 h -0.03032 l -0.7717,0.3197 q 0.06615,0.0965 0.223242,0.23978 0.07717,0.0138 0.234266,0.0469 z m -0.689018,-0.50161 q -0.341754,0.34727 -0.341754,0.39412 0,0.0799 0.06339,0.30868 h 0.04961 z m 2.235176,3.04547 v -1.27607 l -0.479557,-0.14056 -0.396875,0.0551 z m -1.606791,-1.6757 q -0.256315,-0.1819 -0.457509,-0.22324 0.06615,0.0772 0.20395,0.22324 z m 1.609547,2.04501 v -0.1378 l -0.683507,-1.05007 q 0.05237,0.17639 0.107487,0.35278 0.06339,0.20946 0.14056,0.339 0.0689,0.11851 0.20395,0.25907 0.115755,0.11851 0.23151,0.23702 z m -0.644921,-0.70555 q -0.115756,-0.32798 -0.380339,-1.0418 -0.135047,-0.0662 -0.272851,-0.12954 -0.159852,-0.0716 -0.289388,-0.0716 -0.05237,0 -0.110243,-0.0138 z" />
            </g>
        </g>
        <g id="ControlLayer" style="display:none;">
            <circle id="x_input" cx="15.4" cy="67" r="1" />
            <circle id="x1_output" cx="15.4" cy="80" r="1" />
            <circle id="x2_output" cx="15.4" cy="90" r="1" />
            <circle id="x3_output" cx="15.4" cy="100" r="1" />
            <circle id="x4_output" cx="15.4" cy="110" r="1" />
            <circle id="y_input" cx="25.4" cy="67" r="1" />
            <circle id="y1_output" cx="25.4" cy="80" r="1" />
            <circle id="y2_output" cx="25.4" cy="90" r="1" />
            <circle id="y3_output" cx="25.4" cy="100" r="1" />
            <circle id="y4_output" cx="25.4" cy="110" r="1" />
            <circle id="z_input" cx="35.4" cy="67" r="1" />
            <circle id="z1_output" cx="35.4" cy="80" r="1" />
            <circle id="z2_output" cx="35.4" cy="90" r="1" />
            <circle id="z3_output" cx="35.4" cy="100" r="1" />
            <circle id="z4_output" cx="35.4" cy="110" r="1" />
        </g>
        <path d="M16.3544 58.5119Q16.372 58.5366 16.372 58.5542Q16.372 58.586 16.3509 58.6054Q16.3297 58.6248 16.2979 58.6248Q16.2591 58.6248 16.2415 58.5966L15.4336 57.4959L14.6293 58.5966Q14.6117 58.6248 14.5764 58.6248Q14.5446 58.6248 14.527 58.6054Q14.5094 58.586 14.5094 58.5648Q14.5094 58.5472 14.527 58.519L15.356 57.3865L14.5199 56.2471Q14.5058 56.2294 14.5058 56.2047Q14.5058 56.173 14.527 56.1536Q14.5482 56.1342 14.5764 56.1342Q14.6187 56.1342 14.6364 56.1624L15.4442 57.2666L16.2486 56.1589Q16.2697 56.1307 16.3015 56.1307Q16.3332 56.1307 16.3526 56.1465Q16.372 56.1624 16.372 56.1871Q16.372 56.2118 16.3544 56.2365L15.5254 57.3795Z" style="stroke:#000000;stroke-width:0.25;stroke-linecap:round;stroke-linejoin:bevel" />
        <path d="M26.245 56.2435 25.4407 57.3372V58.5437Q25.4407 58.5719 25.4195 58.593Q25.3984 58.6142 25.3666 58.6142Q25.3349 58.6142 25.3137 58.593Q25.2925 58.5719 25.2925 58.5437V57.3513L24.4847 56.2435Q24.4706 56.2259 24.4706 56.1977Q24.4706 56.173 24.4935 56.1518Q24.5164 56.1307 24.5446 56.1307Q24.5834 56.1307 24.6046 56.1624L25.3666 57.2031L26.1286 56.1624Q26.1498 56.1307 26.1886 56.1307Q26.2203 56.1307 26.2397 56.1536Q26.2591 56.1765 26.2591 56.1977Q26.2591 56.2153 26.245 56.2435Z" style="stroke:#000000;stroke-width:0.25;stroke-linecap:round;stroke-linejoin:bevel" />
        <path d="M36.4884 58.5472Q36.4884 58.5754 36.4673 58.5948Q36.4461 58.6142 36.4179 58.6142H34.6822Q34.6505 58.6142 34.6311 58.5913Q34.6117 58.5683 34.6117 58.5401Q34.6117 58.5154 34.6258 58.4978L36.2909 56.2788H34.7528Q34.7246 56.2788 34.7034 56.2594Q34.6822 56.24 34.6822 56.2118Q34.6822 56.1836 34.7034 56.1642Q34.7246 56.1448 34.7528 56.1448H36.4108Q36.4532 56.1448 36.4726 56.1659Q36.492 56.1871 36.492 56.2153Q36.492 56.24 36.4779 56.2577L34.8163 58.4802H36.4179Q36.4461 58.4802 36.4673 58.5013Q36.4884 58.5225 36.4884 58.5472Z" style="stroke:#000000;stroke-width:0.25;stroke-linecap:round;stroke-linejoin:bevel" />
    </g>
</svg>
