<?xml version="1.0" encoding="utf-8"?>
<svg xmlns="http://www.w3.org/2000/svg" width="81.28mm" height="128.50mm" viewBox="0 0 81.28 128.50">
    <defs>
        <linearGradient id="gradient_controls" x1="0" y1="0" x2="81.28" y2="0" gradientUnits="userSpaceOnUse">
            <stop offset="0" style="stop-color:#4f8df2;stop-opacity:1;" />
            <stop offset="1" style="stop-color:#b242bd;stop-opacity:1;" />
        </linearGradient>
        <linearGradient id="gradient_input" x1="0" y1="0" x2="81.28" y2="0" gradientUnits="userSpaceOnUse">
            <stop offset="0" style="stop-color:#3068ff;stop-opacity:1;" />
            <stop offset="1" style="stop-color:#4f8df2;stop-opacity:1;" />
        </linearGradient>
        <linearGradient id="gradient_output" x1="0" y1="0" x2="81.28" y2="0" gradientUnits="userSpaceOnUse">
            <stop offset="0" style="stop-color:#4f8df2;stop-opacity:1;" />
            <stop offset="1" style="stop-color:#b9818b;stop-opacity:1;" />
        </linearGradient>
    </defs>
    <g id="PanelLayer">
        <rect id="border_rect" width="81.28" height="128.5" x="0" y="0" style="display:inline;fill:#4f8df2;fill-opacity:1;fill-rule:nonzero;stroke:#5021d4;stroke-width:0.7;stroke-linecap:round;stroke-linejoin:round;stroke-dasharray:none;stroke-opacity:1;image-rendering:auto" />
        <path id="model_name" d="M31.0861 5.62114V7.99604Q31.0861 8.05812 31.0395 8.10469Q30.9929 8.15126 30.9309 8.15126Q30.861 8.15126 30.8183 8.10469Q30.7756 8.05812 30.7756 7.99604V5.65218Q30.7756 5.12443 30.5001 4.78682Q30.2246 4.44921 29.6658 4.44921Q29.3243 4.44921 28.9945 4.61219Q28.6646 4.77517 28.4551 5.05457Q28.2455 5.33397 28.2455 5.65218V7.99604Q28.2455 8.05812 28.1989 8.10469Q28.1524 8.15126 28.0903 8.15126Q28.0204 8.15126 27.9777 8.10469Q27.9351 8.05812 27.9351 7.99604V4.43369Q27.9351 4.3716 27.9816 4.32503Q28.0282 4.27846 28.0903 4.27846Q28.1601 4.27846 28.2028 4.32503Q28.2455 4.3716 28.2455 4.43369V4.95368Q28.4706 4.60443 28.878 4.37936Q29.2855 4.15429 29.6968 4.15429Q30.3876 4.15429 30.7368 4.56174Q31.0861 4.9692 31.0861 5.62114ZM35.4556 4.43369V6.69217Q35.4556 7.42948 35.0404 7.81365Q34.6251 8.19782 33.9111 8.19782Q33.1971 8.19782 32.7858 7.81365Q32.3744 7.42948 32.3744 6.69217V4.43369Q32.3744 4.3716 32.421 4.32503Q32.4676 4.27846 32.5296 4.27846Q32.5995 4.27846 32.6422 4.32503Q32.6849 4.3716 32.6849 4.43369V6.69217Q32.6849 7.27425 33.0108 7.58858Q33.3368 7.9029 33.9111 7.9029Q34.4932 7.9029 34.8192 7.58858Q35.1451 7.27425 35.1451 6.69217V4.43369Q35.1451 4.3716 35.1878 4.32503Q35.2305 4.27846 35.3004 4.27846Q35.3702 4.27846 35.4129 4.32503Q35.4556 4.3716 35.4556 4.43369ZM39.7708 4.70533Q39.7708 4.76741 39.7281 4.81398Q39.6854 4.86055 39.6233 4.86055Q39.5534 4.86055 39.5185 4.83726Q39.4836 4.81398 39.4215 4.75189Q39.3206 4.63547 39.212 4.58115Q38.9326 4.44921 38.4203 4.44921Q37.9779 4.44921 37.6015 4.68204Q37.2251 4.91488 37.0039 5.31457Q36.7827 5.71427 36.7827 6.1877Q36.7827 6.68441 36.9884 7.08411Q37.1941 7.4838 37.5705 7.70887Q37.9469 7.93395 38.4203 7.93395Q38.7308 7.93395 38.9093 7.87962Q39.0878 7.82529 39.2663 7.7244Q39.3905 7.64679 39.4836 7.55365Q39.5224 7.51485 39.5612 7.48768Q39.6 7.46052 39.6388 7.46052Q39.7009 7.46052 39.7358 7.49932Q39.7708 7.53813 39.7708 7.60022Q39.7708 7.70887 39.5922 7.86022Q39.4137 8.01156 39.0994 8.12021Q38.7851 8.22887 38.397 8.22887Q37.8382 8.22887 37.3997 7.96499Q36.9612 7.70111 36.7168 7.23545Q36.4723 6.76978 36.4723 6.1877Q36.4723 5.64442 36.7168 5.17875Q36.9612 4.71309 37.4075 4.43369Q37.8538 4.15429 38.4281 4.15429Q38.7618 4.15429 39.0761 4.2319Q39.3905 4.30951 39.5806 4.43757Q39.7708 4.56562 39.7708 4.70533ZM40.9194 8.15126Q40.8496 8.15126 40.8069 8.10469Q40.7642 8.05812 40.7642 7.99604V2.56326Q40.7642 2.50117 40.8107 2.4546Q40.8573 2.40804 40.9194 2.40804Q40.9893 2.40804 41.0319 2.4546Q41.0746 2.50117 41.0746 2.56326V7.99604Q41.0746 8.05812 41.0281 8.10469Q40.9815 8.15126 40.9194 8.15126ZM45.5994 7.35962Q45.5994 7.41395 45.5683 7.45276Q45.3122 7.79425 44.9319 8.01156Q44.5516 8.22887 44.117 8.22887Q43.5349 8.22887 43.0847 7.98051Q42.6346 7.73216 42.3824 7.27425Q42.1301 6.81635 42.1301 6.21098Q42.1301 5.59009 42.3746 5.12054Q42.6191 4.651 43.0227 4.40264Q43.4262 4.15429 43.8841 4.15429Q44.3421 4.15429 44.734 4.35219Q45.1259 4.5501 45.3743 4.94592Q45.6226 5.34174 45.6382 5.92382Q45.6382 5.98591 45.5916 6.03636Q45.545 6.0868 45.4829 6.0868H42.4328V6.1877Q42.4328 6.66889 42.6268 7.06858Q42.8209 7.46828 43.2012 7.70111Q43.5815 7.93395 44.117 7.93395Q44.4895 7.93395 44.8194 7.75156Q45.1492 7.56917 45.3355 7.28977Q45.3898 7.21992 45.4674 7.21992Q45.5217 7.21992 45.5605 7.26261Q45.5994 7.3053 45.5994 7.35962ZM42.4639 5.79188H45.32V5.72203Q45.2811 5.32621 45.0677 5.04293Q44.8543 4.75965 44.54 4.61219Q44.2256 4.46473 43.8841 4.46473Q43.597 4.46473 43.2982 4.61607Q42.9994 4.76741 42.7704 5.06622Q42.5415 5.36502 42.4639 5.79188ZM49.736 4.43369V6.69217Q49.736 7.42948 49.3208 7.81365Q48.9056 8.19782 48.1916 8.19782Q47.4775 8.19782 47.0662 7.81365Q46.6549 7.42948 46.6549 6.69217V4.43369Q46.6549 4.3716 46.7014 4.32503Q46.748 4.27846 46.8101 4.27846Q46.8799 4.27846 46.9226 4.32503Q46.9653 4.3716 46.9653 4.43369V6.69217Q46.9653 7.27425 47.2913 7.58858Q47.6172 7.9029 48.1916 7.9029Q48.7736 7.9029 49.0996 7.58858Q49.4256 7.27425 49.4256 6.69217V4.43369Q49.4256 4.3716 49.4683 4.32503Q49.511 4.27846 49.5808 4.27846Q49.6507 4.27846 49.6933 4.32503Q49.736 4.3716 49.736 4.43369ZM50.7527 7.38291Q50.7527 7.32858 50.8148 7.28201Q50.8536 7.24321 50.908 7.24321Q50.9856 7.24321 51.0321 7.3053Q51.4823 7.94947 52.2894 7.94947Q52.7008 7.94947 53.0112 7.7438Q53.3217 7.53813 53.3217 7.18888Q53.3217 6.83187 53.05 6.65336Q52.7784 6.47486 52.305 6.35844Q51.6763 6.20322 51.3154 5.94322Q50.9545 5.68323 50.9545 5.2098Q50.9545 4.75189 51.3193 4.45309Q51.6841 4.15429 52.2584 4.15429Q52.5766 4.15429 52.8909 4.27846Q53.2052 4.40264 53.4614 4.67428Q53.5157 4.72085 53.5157 4.78294Q53.5157 4.85279 53.4614 4.90711Q53.3993 4.93816 53.3605 4.93816Q53.3061 4.93816 53.2673 4.89159Q52.8638 4.44921 52.2273 4.44921Q51.816 4.44921 51.5327 4.651Q51.2494 4.85279 51.2494 5.2098Q51.2727 5.54352 51.556 5.72591Q51.8393 5.9083 52.3903 6.048Q52.7861 6.14889 53.0461 6.26919Q53.3061 6.38949 53.4614 6.6068Q53.6166 6.82411 53.6166 7.17336Q53.6166 7.66231 53.2402 7.94559Q52.8638 8.22887 52.2584 8.22887Q51.3736 8.22887 50.8071 7.53037Q50.7527 7.445 50.7527 7.38291Z" style="display:inline;stroke:#000000;stroke-width:0.35;stroke-linecap:round;stroke-linejoin:bevel" />
        <g id="sapphire_insignia">
            <path id="brand_name" d="M25.7464 124.775Q25.7464 124.721 25.8085 124.674Q25.8473 124.636 25.9017 124.636Q25.9793 124.636 26.0258 124.698Q26.476 125.342 27.2831 125.342Q27.6945 125.342 28.0049 125.136Q28.3154 124.93 28.3154 124.581Q28.3154 124.224 28.0437 124.046Q27.7721 123.867 27.2987 123.751Q26.67 123.596 26.3091 123.336Q25.9482 123.076 25.9482 122.602Q25.9482 122.144 26.313 121.845Q26.6778 121.547 27.2521 121.547Q27.5703 121.547 27.8846 121.671Q28.1989 121.795 28.4551 122.067Q28.5094 122.113 28.5094 122.175Q28.5094 122.245 28.4551 122.299Q28.393 122.331 28.3542 122.331Q28.2998 122.331 28.261 122.284Q27.8575 121.842 27.221 121.842Q26.8097 121.842 26.5264 122.043Q26.2431 122.245 26.2431 122.602Q26.2664 122.936 26.5497 123.118Q26.833 123.301 27.384 123.44Q27.7798 123.541 28.0398 123.662Q28.2998 123.782 28.4551 123.999Q28.6103 124.216 28.6103 124.566Q28.6103 125.055 28.2339 125.338Q27.8575 125.621 27.2521 125.621Q26.3673 125.621 25.8008 124.923Q25.7464 124.837 25.7464 124.775ZM32.9565 121.826V125.388Q32.9565 125.45 32.9099 125.497Q32.8634 125.544 32.8013 125.544Q32.7314 125.544 32.6887 125.497Q32.6461 125.45 32.6461 125.388V124.69Q32.452 125.086 32.0485 125.353Q31.6449 125.621 31.1559 125.621Q30.6437 125.621 30.2324 125.353Q29.821 125.086 29.5882 124.616Q29.3553 124.147 29.3553 123.565Q29.3553 122.99 29.5921 122.528Q29.8288 122.067 30.2401 121.807Q30.6515 121.547 31.1559 121.547Q31.6604 121.547 32.064 121.811Q32.4676 122.074 32.6461 122.517V121.826Q32.6461 121.764 32.6887 121.717Q32.7314 121.671 32.8013 121.671Q32.8711 121.671 32.9138 121.717Q32.9565 121.764 32.9565 121.826ZM32.6771 123.565Q32.6771 123.091 32.4831 122.695Q32.289 122.299 31.9437 122.071Q31.5983 121.842 31.1714 121.842Q30.7446 121.842 30.3992 122.063Q30.0538 122.284 29.8598 122.676Q29.6658 123.068 29.6658 123.565Q29.6658 124.061 29.8598 124.465Q30.0538 124.868 30.3953 125.097Q30.7368 125.326 31.1714 125.326Q31.5983 125.326 31.9437 125.097Q32.289 124.868 32.4831 124.465Q32.6771 124.061 32.6771 123.565ZM37.846 123.603Q37.846 124.162 37.6093 124.616Q37.3726 125.07 36.9612 125.33Q36.5499 125.59 36.0454 125.59Q35.5798 125.59 35.1917 125.357Q34.8036 125.125 34.5553 124.698V126.941Q34.5553 127.003 34.5126 127.049Q34.4699 127.096 34.4001 127.096Q34.338 127.096 34.2914 127.049Q34.2448 127.003 34.2448 126.941V121.779Q34.2448 121.717 34.2875 121.671Q34.3302 121.624 34.4001 121.624Q34.4699 121.624 34.5126 121.671Q34.5553 121.717 34.5553 121.779V122.493Q34.7881 122.051 35.1762 121.838Q35.5642 121.624 36.0454 121.624Q36.5577 121.624 36.969 121.88Q37.3803 122.136 37.6132 122.587Q37.846 123.037 37.846 123.603ZM37.5356 123.603Q37.5356 123.122 37.3376 122.738Q37.1397 122.354 36.7982 122.136Q36.4568 121.919 36.0299 121.919Q35.5953 121.919 35.2499 122.133Q34.9045 122.346 34.7144 122.73Q34.5242 123.114 34.5242 123.603Q34.5242 124.092 34.7144 124.476Q34.9045 124.861 35.2499 125.078Q35.5953 125.295 36.0299 125.295Q36.4568 125.295 36.7982 125.078Q37.1397 124.861 37.3376 124.473Q37.5356 124.085 37.5356 123.603ZM42.4639 123.603Q42.4639 124.162 42.2271 124.616Q41.9904 125.07 41.5791 125.33Q41.1678 125.59 40.6633 125.59Q40.1976 125.59 39.8096 125.357Q39.4215 125.125 39.1731 124.698V126.941Q39.1731 127.003 39.1305 127.049Q39.0878 127.096 39.0179 127.096Q38.9558 127.096 38.9093 127.049Q38.8627 127.003 38.8627 126.941V121.779Q38.8627 121.717 38.9054 121.671Q38.9481 121.624 39.0179 121.624Q39.0878 121.624 39.1305 121.671Q39.1731 121.717 39.1731 121.779V122.493Q39.406 122.051 39.794 121.838Q40.1821 121.624 40.6633 121.624Q41.1755 121.624 41.5869 121.88Q41.9982 122.136 42.231 122.587Q42.4639 123.037 42.4639 123.603ZM42.1534 123.603Q42.1534 123.122 41.9555 122.738Q41.7576 122.354 41.4161 122.136Q41.0746 121.919 40.6478 121.919Q40.2131 121.919 39.8678 122.133Q39.5224 122.346 39.3323 122.73Q39.1421 123.114 39.1421 123.603Q39.1421 124.092 39.3323 124.476Q39.5224 124.861 39.8678 125.078Q40.2131 125.295 40.6478 125.295Q41.0746 125.295 41.4161 125.078Q41.7576 124.861 41.9555 124.473Q42.1534 124.085 42.1534 123.603ZM46.554 123.122V125.388Q46.554 125.45 46.5074 125.497Q46.4608 125.544 46.3987 125.544Q46.3289 125.544 46.2862 125.497Q46.2435 125.45 46.2435 125.388V123.122Q46.2435 122.587 45.9796 122.253Q45.7158 121.919 45.1725 121.919Q44.8388 121.919 44.5167 122.082Q44.1946 122.245 43.9928 122.525Q43.791 122.804 43.791 123.122V125.388Q43.791 125.45 43.7444 125.497Q43.6979 125.544 43.6358 125.544Q43.5659 125.544 43.5233 125.497Q43.4806 125.45 43.4806 125.388V119.956Q43.4806 119.894 43.5271 119.847Q43.5737 119.8 43.6358 119.8Q43.7056 119.8 43.7483 119.847Q43.791 119.894 43.791 119.956V122.408Q44.0083 122.067 44.3925 121.845Q44.7767 121.624 45.1725 121.624Q45.8399 121.624 46.197 122.047Q46.554 122.47 46.554 123.122ZM47.9975 125.544Q47.9277 125.544 47.885 125.497Q47.8423 125.45 47.8423 125.388V121.702Q47.8423 121.64 47.8889 121.593Q47.9354 121.547 47.9975 121.547Q48.0674 121.547 48.1101 121.593Q48.1528 121.64 48.1528 121.702V125.388Q48.1528 125.45 48.1062 125.497Q48.0596 125.544 47.9975 125.544ZM47.7259 120.771V120.708Q47.7259 120.6 47.8035 120.53Q47.8811 120.46 48.0053 120.46Q48.114 120.46 48.1877 120.53Q48.2614 120.6 48.2614 120.708V120.771Q48.2614 120.879 48.1877 120.949Q48.114 121.019 47.9975 121.019Q47.8734 121.019 47.7996 120.949Q47.7259 120.879 47.7259 120.771ZM51.5521 121.725Q51.5521 121.795 51.5133 121.842Q51.4745 121.888 51.4124 121.888Q51.3891 121.888 51.2999 121.853Q51.2106 121.818 51.1097 121.818Q50.7915 121.818 50.4733 122.071Q50.1551 122.323 49.9533 122.707Q49.7515 123.091 49.7515 123.448V125.388Q49.7515 125.45 49.705 125.497Q49.6584 125.544 49.5963 125.544Q49.5265 125.544 49.4838 125.497Q49.4411 125.45 49.4411 125.388V121.826Q49.4411 121.764 49.4877 121.717Q49.5342 121.671 49.5963 121.671Q49.6662 121.671 49.7089 121.717Q49.7515 121.764 49.7515 121.826V122.649Q49.9301 122.175 50.3065 121.865Q50.6829 121.554 51.1951 121.547Q51.5521 121.547 51.5521 121.725ZM55.4948 124.752Q55.4948 124.806 55.4637 124.845Q55.2076 125.187 54.8273 125.404Q54.447 125.621 54.0124 125.621Q53.4303 125.621 52.9802 125.373Q52.53 125.125 52.2778 124.667Q52.0256 124.209 52.0256 123.603Q52.0256 122.982 52.27 122.513Q52.5145 122.043 52.9181 121.795Q53.3217 121.547 53.7796 121.547Q54.2375 121.547 54.6294 121.745Q55.0213 121.942 55.2697 122.338Q55.5181 122.734 55.5336 123.316Q55.5336 123.378 55.487 123.429Q55.4404 123.479 55.3784 123.479H52.3282V123.58Q52.3282 124.061 52.5223 124.461Q52.7163 124.861 53.0966 125.093Q53.4769 125.326 54.0124 125.326Q54.3849 125.326 54.7148 125.144Q55.0446 124.962 55.2309 124.682Q55.2852 124.612 55.3628 124.612Q55.4172 124.612 55.456 124.655Q55.4948 124.698 55.4948 124.752ZM52.3593 123.184H55.2154V123.114Q55.1766 122.719 54.9631 122.435Q54.7497 122.152 54.4354 122.005Q54.1211 121.857 53.7796 121.857Q53.4924 121.857 53.1936 122.008Q52.8948 122.16 52.6658 122.459Q52.4369 122.757 52.3593 123.184Z" style="fill:#000000;stroke:#000000;stroke-width:0.265;stroke-linecap:square" />
            <g id="gemstones" style="stroke-width:0;fill:#0000ff;stroke:#2e2114;stroke-linecap:square;stroke-opacity:1">
                <path d="m 23.090,122.900 q 0,0.34175 -0.242534,0.63114 -0.0441,0.0524 -0.20395,0.21497 -0.187413,0.19017 -0.785481,0.81304 l -1.444183,1.51309 q -0.01929,0.003 -0.0441,0.003 -0.02756,0 -0.04134,-0.003 -0.08268,-0.0827 -0.647678,-0.67524 -0.468532,-0.47404 -0.934309,-0.94809 -0.556727,-0.56775 -0.89848,-0.98116 -0.132292,-0.15985 -0.168121,-0.29766 -0.02756,-0.10197 -0.02756,-0.34175 0,-0.11024 0.07166,-0.28939 0.06614,-0.16536 0.140559,-0.26458 0.118512,-0.1571 0.42168,-0.42444 0.283875,-0.2508 0.474044,-0.37482 0.272852,-0.17915 0.818555,-0.36656 0.09646,-0.0331 0.110243,-0.0331 h 1.3615 q 0.01102,0 0.104731,0.0331 0.567751,0.20119 0.824066,0.36656 0.165365,0.10473 0.474045,0.37758 0.322461,0.28388 0.421679,0.42168 0.214974,0.2949 0.214974,0.62563 z m -0.16812,-0.27285 q -0.03307,-0.10749 -0.135048,-0.30868 -0.07166,-0.0937 -0.209462,-0.19844 -0.118511,-0.0854 -0.234266,-0.17088 0.245291,0.3638 0.578776,0.678 z m -0.573264,-0.52366 -0.358289,-0.44648 v 0.41065 z m 0.636653,0.75792 q 0,-0.0524 -0.341753,-0.39412 l 0.228754,0.7028 h 0.04961 q 0.06339,-0.21773 0.06339,-0.30868 z m -0.23151,0.27285 -0.316948,-0.90399 -0.410655,-0.0634 -0.159853,0.61461 z m 0.0028,0.15434 -0.771701,-0.3197 h -0.03032 l 0.344509,0.60634 q 0.07993,-0.003 0.234266,-0.0469 0.02481,-0.0138 0.223242,-0.23978 z m -0.857139,-1.05006 -0.719335,0.28388 0.60358,0.22599 z m 0,-0.16261 v -0.51538 l -0.917773,-0.38034 h -1.223697 l -0.917772,0.38034 v 0.51538 l 0.89848,0.4079 h 1.254014 z m 0.573264,1.53789 q -0.0689,0.011 -0.198438,0.0524 -0.08544,0.0551 -0.259071,0.16261 0.01929,0 0.06339,0.003 0.04134,0 0.06339,0 0.118511,0 0.190169,-0.0689 0.07166,-0.0717 0.14056,-0.14883 z m -0.289388,0.003 -0.347266,-0.63114 -0.363801,0.87918 q 0.0248,-0.0165 0.06615,-0.0165 0.03032,0 0.08544,0.011 0.05788,0.008 0.08819,0.008 0.04961,0 0.228754,-0.10749 0.228754,-0.1378 0.242535,-0.14331 z m -0.440972,-0.74139 -0.683507,-0.2756 -0.592556,0.54845 0.903993,0.65595 z m -0.854383,-0.28387 h -1.036284 l 0.523654,0.47404 z m 0.749652,1.36701 q -0.228754,-0.0303 -0.228754,-0.0303 -0.03583,0 -0.272851,0.0937 l 0.190169,0.0193 q 0.01102,0 0.311436,-0.0827 z m -0.388606,-0.0882 -0.843359,-0.61185 v 0.67524 l 0.471289,0.0827 z m 0.854383,0.0496 q -0.09922,0.006 -0.2949,0.0386 -0.01102,0.003 -0.377583,0.17639 -0.129535,0.34726 -0.380338,1.0418 z m -2.543857,-1.39733 -0.719335,-0.28388 0.124023,0.51814 z m -0.802018,-0.45476 v -0.41065 l -0.366557,0.44648 z m 1.515841,1.07212 -0.592556,-0.54019 -0.683506,0.2756 0.380338,0.9288 z m 0.369314,0.94257 q -0.03307,-0.003 -0.135047,-0.0248 -0.08544,-0.0165 -0.137804,-0.0165 -0.05237,0 -0.137804,0.0165 -0.101975,0.0221 -0.135047,0.0248 0.264583,0.0469 0.272851,0.0469 0.0083,0 0.272851,-0.0469 z m -0.30868,-0.1378 v -0.68626 l -0.843359,0.61185 0.37207,0.14607 z m 0.950846,0.20671 -0.396875,-0.0551 -0.479557,0.14056 v 1.27607 z m -2.888366,-2.20211 q -0.118512,0.0854 -0.234267,0.17364 -0.146072,0.10748 -0.209461,0.19568 -0.0441,0.10473 -0.135048,0.31419 0.369314,-0.3638 0.578776,-0.68351 z m 0.476801,0.83234 -0.159853,-0.61461 -0.410655,0.0634 -0.316948,0.90399 z m 0.394118,1.08313 -0.363802,-0.87918 -0.355533,0.63114 q 0.43546,0.2508 0.451996,0.2508 0.09095,0 0.267339,-0.003 z m 1.821765,0.82958 q -0.132291,0.21222 -0.405143,0.6339 -0.07717,0.10749 -0.220486,0.32797 -0.05788,0.10473 -0.05512,0.226 0.159852,-0.15158 0.432704,-0.49609 0.07717,-0.12954 0.140559,-0.339 0.05512,-0.17639 0.107486,-0.35278 z m -1.493792,-0.66146 -0.270095,-0.0882 -0.0083,-0.011 q -0.02481,0 -0.107487,0.011 -0.06615,0.006 -0.107487,0.006 0.272851,0.091 0.311436,0.091 0.02481,0 0.181901,-0.008 z m -0.810286,-1.06384 h -0.03032 l -0.7717,0.3197 q 0.06615,0.0965 0.223242,0.23978 0.07717,0.0138 0.234266,0.0469 z m -0.689018,-0.50161 q -0.341754,0.34727 -0.341754,0.39412 0,0.0799 0.06339,0.30868 h 0.04961 z m 2.235176,3.04547 v -1.27607 l -0.479557,-0.14056 -0.396875,0.0551 z m -1.606791,-1.6757 q -0.256315,-0.1819 -0.457509,-0.22324 0.06615,0.0772 0.20395,0.22324 z m 1.609547,2.04501 v -0.1378 l -0.683507,-1.05007 q 0.05237,0.17639 0.107487,0.35278 0.06339,0.20946 0.14056,0.339 0.0689,0.11851 0.20395,0.25907 0.115755,0.11851 0.23151,0.23702 z m -0.644921,-0.70555 q -0.115756,-0.32798 -0.380339,-1.0418 -0.135047,-0.0662 -0.272851,-0.12954 -0.159852,-0.0716 -0.289388,-0.0716 -0.05237,0 -0.110243,-0.0138 z" />
                <path d="m 63.620,122.900 q 0,0.34175 -0.242534,0.63114 -0.0441,0.0524 -0.20395,0.21497 -0.187413,0.19017 -0.785481,0.81304 l -1.444183,1.51309 q -0.01929,0.003 -0.0441,0.003 -0.02756,0 -0.04134,-0.003 -0.08268,-0.0827 -0.647678,-0.67524 -0.468532,-0.47404 -0.934309,-0.94809 -0.556727,-0.56775 -0.89848,-0.98116 -0.132292,-0.15985 -0.168121,-0.29766 -0.02756,-0.10197 -0.02756,-0.34175 0,-0.11024 0.07166,-0.28939 0.06614,-0.16536 0.140559,-0.26458 0.118512,-0.1571 0.42168,-0.42444 0.283875,-0.2508 0.474044,-0.37482 0.272852,-0.17915 0.818555,-0.36656 0.09646,-0.0331 0.110243,-0.0331 h 1.3615 q 0.01102,0 0.104731,0.0331 0.567751,0.20119 0.824066,0.36656 0.165365,0.10473 0.474045,0.37758 0.322461,0.28388 0.421679,0.42168 0.214974,0.2949 0.214974,0.62563 z m -0.16812,-0.27285 q -0.03307,-0.10749 -0.135048,-0.30868 -0.07166,-0.0937 -0.209462,-0.19844 -0.118511,-0.0854 -0.234266,-0.17088 0.245291,0.3638 0.578776,0.678 z m -0.573264,-0.52366 -0.358289,-0.44648 v 0.41065 z m 0.636653,0.75792 q 0,-0.0524 -0.341753,-0.39412 l 0.228754,0.7028 h 0.04961 q 0.06339,-0.21773 0.06339,-0.30868 z m -0.23151,0.27285 -0.316948,-0.90399 -0.410655,-0.0634 -0.159853,0.61461 z m 0.0028,0.15434 -0.771701,-0.3197 h -0.03032 l 0.344509,0.60634 q 0.07993,-0.003 0.234266,-0.0469 0.02481,-0.0138 0.223242,-0.23978 z m -0.857139,-1.05006 -0.719335,0.28388 0.60358,0.22599 z m 0,-0.16261 v -0.51538 l -0.917773,-0.38034 h -1.223697 l -0.917772,0.38034 v 0.51538 l 0.89848,0.4079 h 1.254014 z m 0.573264,1.53789 q -0.0689,0.011 -0.198438,0.0524 -0.08544,0.0551 -0.259071,0.16261 0.01929,0 0.06339,0.003 0.04134,0 0.06339,0 0.118511,0 0.190169,-0.0689 0.07166,-0.0717 0.14056,-0.14883 z m -0.289388,0.003 -0.347266,-0.63114 -0.363801,0.87918 q 0.0248,-0.0165 0.06615,-0.0165 0.03032,0 0.08544,0.011 0.05788,0.008 0.08819,0.008 0.04961,0 0.228754,-0.10749 0.228754,-0.1378 0.242535,-0.14331 z m -0.440972,-0.74139 -0.683507,-0.2756 -0.592556,0.54845 0.903993,0.65595 z m -0.854383,-0.28387 h -1.036284 l 0.523654,0.47404 z m 0.749652,1.36701 q -0.228754,-0.0303 -0.228754,-0.0303 -0.03583,0 -0.272851,0.0937 l 0.190169,0.0193 q 0.01102,0 0.311436,-0.0827 z m -0.388606,-0.0882 -0.843359,-0.61185 v 0.67524 l 0.471289,0.0827 z m 0.854383,0.0496 q -0.09922,0.006 -0.2949,0.0386 -0.01102,0.003 -0.377583,0.17639 -0.129535,0.34726 -0.380338,1.0418 z m -2.543857,-1.39733 -0.719335,-0.28388 0.124023,0.51814 z m -0.802018,-0.45476 v -0.41065 l -0.366557,0.44648 z m 1.515841,1.07212 -0.592556,-0.54019 -0.683506,0.2756 0.380338,0.9288 z m 0.369314,0.94257 q -0.03307,-0.003 -0.135047,-0.0248 -0.08544,-0.0165 -0.137804,-0.0165 -0.05237,0 -0.137804,0.0165 -0.101975,0.0221 -0.135047,0.0248 0.264583,0.0469 0.272851,0.0469 0.0083,0 0.272851,-0.0469 z m -0.30868,-0.1378 v -0.68626 l -0.843359,0.61185 0.37207,0.14607 z m 0.950846,0.20671 -0.396875,-0.0551 -0.479557,0.14056 v 1.27607 z m -2.888366,-2.20211 q -0.118512,0.0854 -0.234267,0.17364 -0.146072,0.10748 -0.209461,0.19568 -0.0441,0.10473 -0.135048,0.31419 0.369314,-0.3638 0.578776,-0.68351 z m 0.476801,0.83234 -0.159853,-0.61461 -0.410655,0.0634 -0.316948,0.90399 z m 0.394118,1.08313 -0.363802,-0.87918 -0.355533,0.63114 q 0.43546,0.2508 0.451996,0.2508 0.09095,0 0.267339,-0.003 z m 1.821765,0.82958 q -0.132291,0.21222 -0.405143,0.6339 -0.07717,0.10749 -0.220486,0.32797 -0.05788,0.10473 -0.05512,0.226 0.159852,-0.15158 0.432704,-0.49609 0.07717,-0.12954 0.140559,-0.339 0.05512,-0.17639 0.107486,-0.35278 z m -1.493792,-0.66146 -0.270095,-0.0882 -0.0083,-0.011 q -0.02481,0 -0.107487,0.011 -0.06615,0.006 -0.107487,0.006 0.272851,0.091 0.311436,0.091 0.02481,0 0.181901,-0.008 z m -0.810286,-1.06384 h -0.03032 l -0.7717,0.3197 q 0.06615,0.0965 0.223242,0.23978 0.07717,0.0138 0.234266,0.0469 z m -0.689018,-0.50161 q -0.341754,0.34727 -0.341754,0.39412 0,0.0799 0.06339,0.30868 h 0.04961 z m 2.235176,3.04547 v -1.27607 l -0.479557,-0.14056 -0.396875,0.0551 z m -1.606791,-1.6757 q -0.256315,-0.1819 -0.457509,-0.22324 0.06615,0.0772 0.20395,0.22324 z m 1.609547,2.04501 v -0.1378 l -0.683507,-1.05007 q 0.05237,0.17639 0.107487,0.35278 0.06339,0.20946 0.14056,0.339 0.0689,0.11851 0.20395,0.25907 0.115755,0.11851 0.23151,0.23702 z m -0.644921,-0.70555 q -0.115756,-0.32798 -0.380339,-1.0418 -0.135047,-0.0662 -0.272851,-0.12954 -0.159852,-0.0716 -0.289388,-0.0716 -0.05237,0 -0.110243,-0.0138 z" />
            </g>
        </g>
        <path id="controls_bubble" d="M 5.00,18.00 A 6 6 0 0 1 11 12 L 71.00,12.00 A 6 6 0 0 1 77 18 L 77.00,37.00 A 6 6 0 0 1 71 43 L 11.00,43.00 A 6 6 0 0 1 5 37 z " style="fill:url(#gradient_controls);opacity:0.7;stroke:none" />
        <path id="input_bubble" d="M 5.00,49.00 A 6 6 0 0 1 11 43 L 71.00,43.00 A 6 6 0 0 1 77 49 L 77.00,67.00 A 6 6 0 0 1 71 73 L 11.00,73.00 A 6 6 0 0 1 5 67 z " style="fill:url(#gradient_input);opacity:1;stroke:none" />
        <path id="output_bubble" d="M 5.00,79.00 A 6 6 0 0 1 11 73 L 71.00,73.00 A 6 6 0 0 1 77 79 L 77.00,112.00 A 6 6 0 0 1 71 118 L 11.00,118.00 A 6 6 0 0 1 5 112 z " style="fill:url(#gradient_output);opacity:0.8;stroke:none" />
        <g id="ControlLayer" style="display:none;">
            <circle id="x_input" cx="16.14" cy="58" r="1" />
            <circle id="x1_output" cx="40.14" cy="86" r="1" />
            <circle id="x2_output" cx="40.14" cy="94.6667" r="1" />
            <circle id="x3_output" cx="40.14" cy="103.333" r="1" />
            <circle id="x4_output" cx="40.14" cy="112" r="1" />
            <circle id="y_input" cx="28.64" cy="58" r="1" />
            <circle id="y1_output" cx="52.64" cy="86" r="1" />
            <circle id="y2_output" cx="52.64" cy="94.6667" r="1" />
            <circle id="y3_output" cx="52.64" cy="103.333" r="1" />
            <circle id="y4_output" cx="52.64" cy="112" r="1" />
            <circle id="z_input" cx="41.14" cy="58" r="1" />
            <circle id="z1_output" cx="65.14" cy="86" r="1" />
            <circle id="z2_output" cx="65.14" cy="94.6667" r="1" />
            <circle id="z3_output" cx="65.14" cy="103.333" r="1" />
            <circle id="z4_output" cx="65.14" cy="112" r="1" />
            <circle id="speed_knob" cx="15.64" cy="25" r="1" />
            <circle id="speed_atten" cx="10.64" cy="36" r="1" />
            <circle id="speed_cv" cx="20.64" cy="36" r="1" />
            <circle id="decay_knob" cx="40.64" cy="25" r="1" />
            <circle id="decay_atten" cx="35.64" cy="36" r="1" />
            <circle id="decay_cv" cx="45.64" cy="36" r="1" />
            <circle id="magnet_knob" cx="65.64" cy="25" r="1" />
            <circle id="magnet_atten" cx="60.64" cy="36" r="1" />
            <circle id="magnet_cv" cx="70.64" cy="36" r="1" />
            <circle id="in_drive_knob" cx="61.64" cy="55.5" r="1" />
            <circle id="in_drive_atten" cx="56.64" cy="66.5" r="1" />
            <circle id="in_drive_cv" cx="66.64" cy="66.5" r="1" />
            <circle id="out_level_knob" cx="16.64" cy="103" r="1" />
            <circle id="out_level_atten" cx="11.64" cy="114" r="1" />
            <circle id="out_level_cv" cx="21.64" cy="114" r="1" />
            <circle id="audio_mode_button" cx="16.64" cy="83" r="1" />
        </g>
        <path d="M17.0944 52.5119Q17.112 52.5366 17.112 52.5542Q17.112 52.586 17.0909 52.6054Q17.0697 52.6248 17.0379 52.6248Q16.9991 52.6248 16.9815 52.5966L16.1736 51.4959L15.3693 52.5966Q15.3517 52.6248 15.3164 52.6248Q15.2846 52.6248 15.267 52.6054Q15.2494 52.586 15.2494 52.5648Q15.2494 52.5472 15.267 52.519L16.096 51.3865L15.2599 50.2471Q15.2458 50.2294 15.2458 50.2047Q15.2458 50.173 15.267 50.1536Q15.2882 50.1342 15.3164 50.1342Q15.3587 50.1342 15.3764 50.1624L16.1842 51.2666L16.9886 50.1589Q17.0097 50.1307 17.0415 50.1307Q17.0732 50.1307 17.0926 50.1465Q17.112 50.1624 17.112 50.1871Q17.112 50.2118 17.0944 50.2365L16.2654 51.3795Z" style="stroke:#000000;stroke-width:0.25;stroke-linecap:round;stroke-linejoin:bevel" />
        <path d="M41.0944 80.5119Q41.112 80.5366 41.112 80.5542Q41.112 80.586 41.0909 80.6054Q41.0697 80.6248 41.0379 80.6248Q40.9991 80.6248 40.9815 80.5966L40.1736 79.4959L39.3693 80.5966Q39.3517 80.6248 39.3164 80.6248Q39.2846 80.6248 39.267 80.6054Q39.2494 80.586 39.2494 80.5648Q39.2494 80.5472 39.267 80.519L40.096 79.3865L39.2599 78.2471Q39.2458 78.2294 39.2458 78.2047Q39.2458 78.173 39.267 78.1536Q39.2882 78.1342 39.3164 78.1342Q39.3587 78.1342 39.3764 78.1624L40.1842 79.2666L40.9886 78.1589Q41.0097 78.1307 41.0415 78.1307Q41.0732 78.1307 41.0926 78.1465Q41.112 78.1624 41.112 78.1871Q41.112 78.2118 41.0944 78.2365L40.2654 79.3795Z" style="stroke:#000000;stroke-width:0.25;stroke-linecap:round;stroke-linejoin:bevel" />
        <path d="M29.485 50.2435 28.6807 51.3372V52.5437Q28.6807 52.5719 28.6595 52.593Q28.6384 52.6142 28.6066 52.6142Q28.5749 52.6142 28.5537 52.593Q28.5325 52.5719 28.5325 52.5437V51.3513L27.7247 50.2435Q27.7106 50.2259 27.7106 50.1977Q27.7106 50.173 27.7335 50.1518Q27.7564 50.1307 27.7846 50.1307Q27.8234 50.1307 27.8446 50.1624L28.6066 51.2031L29.3686 50.1624Q29.3898 50.1307 29.4286 50.1307Q29.4603 50.1307 29.4797 50.1536Q29.4991 50.1765 29.4991 50.1977Q29.4991 50.2153 29.485 50.2435Z" style="stroke:#000000;stroke-width:0.25;stroke-linecap:round;stroke-linejoin:bevel" />
        <path d="M53.485 78.2435 52.6807 79.3372V80.5437Q52.6807 80.5719 52.6595 80.593Q52.6384 80.6142 52.6066 80.6142Q52.5749 80.6142 52.5537 80.593Q52.5325 80.5719 52.5325 80.5437V79.3513L51.7247 78.2435Q51.7106 78.2259 51.7106 78.1977Q51.7106 78.173 51.7335 78.1518Q51.7564 78.1307 51.7846 78.1307Q51.8234 78.1307 51.8446 78.1624L52.6066 79.2031L53.3686 78.1624Q53.3898 78.1307 53.4286 78.1307Q53.4603 78.1307 53.4797 78.1536Q53.4991 78.1765 53.4991 78.1977Q53.4991 78.2153 53.485 78.2435Z" style="stroke:#000000;stroke-width:0.25;stroke-linecap:round;stroke-linejoin:bevel" />
        <path d="M42.2284 52.5472Q42.2284 52.5754 42.2073 52.5948Q42.1861 52.6142 42.1579 52.6142H40.4222Q40.3905 52.6142 40.3711 52.5913Q40.3517 52.5683 40.3517 52.5401Q40.3517 52.5154 40.3658 52.4978L42.0309 50.2788H40.4928Q40.4646 50.2788 40.4434 50.2594Q40.4222 50.24 40.4222 50.2118Q40.4222 50.1836 40.4434 50.1642Q40.4646 50.1448 40.4928 50.1448H42.1508Q42.1932 50.1448 42.2126 50.1659Q42.232 50.1871 42.232 50.2153Q42.232 50.24 42.2179 50.2577L40.5563 52.4802H42.1579Q42.1861 52.4802 42.2073 52.5013Q42.2284 52.5225 42.2284 52.5472Z" style="stroke:#000000;stroke-width:0.25;stroke-linecap:round;stroke-linejoin:bevel" />
        <path d="M66.2284 80.5472Q66.2284 80.5754 66.2073 80.5948Q66.1861 80.6142 66.1579 80.6142H64.4222Q64.3905 80.6142 64.3711 80.5913Q64.3517 80.5683 64.3517 80.5401Q64.3517 80.5154 64.3658 80.4978L66.0309 78.2788H64.4928Q64.4646 78.2788 64.4434 78.2594Q64.4222 78.24 64.4222 78.2118Q64.4222 78.1836 64.4434 78.1642Q64.4646 78.1448 64.4928 78.1448H66.1508Q66.1932 78.1448 66.2126 78.1659Q66.232 78.1871 66.232 78.2153Q66.232 78.24 66.2179 78.2577L64.5563 80.4802H66.1579Q66.1861 80.4802 66.2073 80.5013Q66.2284 80.5225 66.2284 80.5472Z" style="stroke:#000000;stroke-width:0.25;stroke-linecap:round;stroke-linejoin:bevel" />
        <path d="M9.80606 59.0472Q9.80606 59.0789 9.78489 59.0966Q9.76372 59.1142 9.73197 59.1142Q9.70728 59.1142 9.68788 59.1019Q9.66847 59.0895 9.66142 59.0683L9.36508 58.3416L9.36861 58.3487H8.18681L7.90106 59.0683Q7.88342 59.1142 7.83756 59.1142Q7.80581 59.1142 7.7864 59.0966Q7.767 59.0789 7.76347 59.0542Q7.75994 59.0401 7.767 59.019L8.71597 56.6836Q8.72656 56.6553 8.74243 56.6465Q8.75831 56.6377 8.783 56.6377Q8.83592 56.6377 8.85356 56.6836L9.80253 59.019Q9.80606 59.0295 9.80606 59.0472ZM8.24325 58.2076H9.31217L8.77242 56.8776Z" style="stroke:#000000;stroke-width:0.25;stroke-linecap:round;stroke-linejoin:bevel" />
        <path d="M33.7567 86.4475Q33.7567 86.7685 33.5538 86.9413Q33.351 87.1142 33.037 87.1142H32.0633Q32.0351 87.1142 32.0139 87.093Q31.9928 87.0719 31.9928 87.0437V84.7153Q31.9928 84.6871 32.0139 84.6659Q32.0351 84.6448 32.0633 84.6448H33.0123Q33.2945 84.6448 33.4639 84.807Q33.6332 84.9693 33.6332 85.2445Q33.6332 85.442 33.5344 85.6026Q33.4356 85.7631 33.2593 85.823Q33.485 85.8654 33.6208 86.0277Q33.7567 86.1899 33.7567 86.4475ZM32.9947 84.7859H32.1409V85.7772H32.9947Q33.2134 85.7737 33.3492 85.6343Q33.485 85.495 33.485 85.241Q33.485 85.0328 33.3563 84.9093Q33.2275 84.7859 32.9947 84.7859ZM33.6085 86.4475Q33.6085 86.1864 33.4462 86.0541Q33.2839 85.9218 33.0194 85.9218H32.1409V86.9731H33.0194Q33.2839 86.9731 33.4462 86.8408Q33.6085 86.7085 33.6085 86.4475Z" style="stroke:#000000;stroke-width:0.25;stroke-linecap:round;stroke-linejoin:bevel" />
        <path d="M33.8519 93.5725Q33.8519 93.6007 33.8378 93.6183Q33.8166 93.6466 33.7849 93.6466Q33.7708 93.6466 33.7426 93.6325Q33.4145 93.4102 33.0476 93.4102Q32.7512 93.4102 32.5025 93.5566Q32.2538 93.703 32.1092 93.9623Q31.9646 94.2216 31.9646 94.5462Q31.9646 94.8707 32.1092 95.13Q32.2538 95.3893 32.5025 95.5357Q32.7512 95.6821 33.0476 95.6821Q33.418 95.6821 33.739 95.4634Q33.7567 95.4493 33.7814 95.4493Q33.8166 95.4493 33.8378 95.4775Q33.8519 95.4951 33.8519 95.5198Q33.8519 95.5551 33.8237 95.5763Q33.6861 95.675 33.4692 95.7456Q33.2522 95.8162 33.0476 95.8162Q32.7124 95.8162 32.4302 95.6503Q32.148 95.4845 31.9822 95.1935Q31.8164 94.9025 31.8164 94.5462Q31.8164 94.1898 31.9822 93.8988Q32.148 93.6078 32.4302 93.442Q32.7124 93.2762 33.0476 93.2762Q33.2593 93.2762 33.4586 93.3397Q33.6579 93.4032 33.8202 93.516Q33.8519 93.5407 33.8519 93.5725Z" style="stroke:#000000;stroke-width:0.25;stroke-linecap:round;stroke-linejoin:bevel" />
        <path d="M34.0036 103.213Q34.0036 103.562 33.8925 103.841Q33.7814 104.119 33.5521 104.284Q33.3227 104.448 32.9806 104.448H32.0633Q32.0351 104.448 32.0139 104.426Q31.9928 104.405 31.9928 104.377V102.049Q31.9928 102.02 32.0139 101.999Q32.0351 101.978 32.0633 101.978H32.9806Q33.3192 101.978 33.5503 102.147Q33.7814 102.317 33.8925 102.597Q34.0036 102.878 34.0036 103.213ZM33.8554 103.213Q33.8554 102.913 33.7584 102.664Q33.6614 102.416 33.4586 102.267Q33.2557 102.119 32.9453 102.119H32.1409V104.306H32.9453Q33.4039 104.306 33.6297 104.005Q33.8554 103.703 33.8554 103.213Z" style="stroke:#000000;stroke-width:0.25;stroke-linecap:round;stroke-linejoin:bevel" />
        <path d="M33.4639 113.044Q33.4639 113.075 33.4427 113.095Q33.4215 113.114 33.3933 113.114H32.0633Q32.0351 113.114 32.0139 113.093Q31.9928 113.072 31.9928 113.044V110.715Q31.9928 110.687 32.0139 110.666Q32.0351 110.645 32.0633 110.645H33.3933Q33.4215 110.645 33.4427 110.666Q33.4639 110.687 33.4639 110.715Q33.4639 110.747 33.4427 110.766Q33.4215 110.786 33.3933 110.786H32.1409V111.77H33.2346Q33.2628 111.77 33.2839 111.791Q33.3051 111.812 33.3051 111.841Q33.3051 111.872 33.2839 111.892Q33.2628 111.911 33.2346 111.911H32.1409V112.973H33.3933Q33.4215 112.973 33.4427 112.994Q33.4639 113.015 33.4639 113.044Z" style="stroke:#000000;stroke-width:0.25;stroke-linecap:round;stroke-linejoin:bevel" />
        <path d="M10.2846 16.6791Q10.2635 16.6579 10.2635 16.6262Q10.2635 16.5979 10.2882 16.5715Q10.3129 16.545 10.3411 16.545Q10.3728 16.545 10.4011 16.5768Q10.5386 16.739 10.7274 16.8237Q10.9161 16.9084 11.1242 16.9084Q11.3959 16.9084 11.5723 16.7778Q11.7487 16.6473 11.7487 16.4321Q11.7451 16.2628 11.6569 16.1534Q11.5688 16.0441 11.44 15.9788Q11.3112 15.9135 11.089 15.8324Q10.8456 15.7407 10.7097 15.6701Q10.5739 15.5996 10.4769 15.469Q10.3799 15.3385 10.3799 15.1268Q10.3799 14.954 10.4751 14.8129Q10.5704 14.6718 10.7468 14.5906Q10.9232 14.5095 11.156 14.5095Q11.3641 14.5095 11.5511 14.5853Q11.7381 14.6612 11.8474 14.7988Q11.8827 14.8482 11.8827 14.8728Q11.8827 14.9011 11.8563 14.924Q11.8298 14.9469 11.7981 14.9469Q11.7698 14.9469 11.7522 14.9258Q11.6534 14.7988 11.4982 14.7247Q11.343 14.6506 11.156 14.6506Q10.8879 14.6506 10.7097 14.7776Q10.5316 14.9046 10.5316 15.1233Q10.5316 15.275 10.618 15.3808Q10.7044 15.4867 10.835 15.5519Q10.9655 15.6172 11.1595 15.6878Q11.4065 15.776 11.5511 15.85Q11.6958 15.9241 11.7981 16.0652Q11.9004 16.2063 11.9004 16.4392Q11.9004 16.6015 11.8051 16.7426Q11.7099 16.8837 11.5317 16.9666Q11.3536 17.0495 11.1242 17.0495Q10.8632 17.0495 10.6692 16.9595Q10.4751 16.8696 10.2846 16.6791ZM14.017 15.2186Q14.017 15.4161 13.9341 15.5766Q13.8512 15.7372 13.6995 15.8271Q13.5478 15.9171 13.3503 15.9171H12.5812V16.9437Q12.5812 16.9719 12.5583 16.993Q12.5354 17.0142 12.5071 17.0142Q12.4754 17.0142 12.4542 16.993Q12.4331 16.9719 12.4331 16.9437V14.6153Q12.4331 14.5871 12.4542 14.5659Q12.4754 14.5448 12.5036 14.5448H13.3503Q13.6501 14.5448 13.8336 14.7317Q14.017 14.9187 14.017 15.2186ZM13.8689 15.2186Q13.8689 14.9752 13.7295 14.8305Q13.5902 14.6859 13.3503 14.6859H12.5812V15.776H13.3503Q13.5866 15.776 13.7278 15.619Q13.8689 15.462 13.8689 15.2186ZM15.9996 16.9437Q15.9996 16.9754 15.9785 16.9948Q15.9573 17.0142 15.9291 17.0142H14.5991Q14.5709 17.0142 14.5497 16.993Q14.5286 16.9719 14.5286 16.9437V14.6153Q14.5286 14.5871 14.5497 14.5659Q14.5709 14.5448 14.5991 14.5448H15.9291Q15.9573 14.5448 15.9785 14.5659Q15.9996 14.5871 15.9996 14.6153Q15.9996 14.6471 15.9785 14.6665Q15.9573 14.6859 15.9291 14.6859H14.6767V15.6701H15.7703Q15.7986 15.6701 15.8197 15.6913Q15.8409 15.7125 15.8409 15.7407Q15.8409 15.7724 15.8197 15.7918Q15.7986 15.8112 15.7703 15.8112H14.6767V16.8731H15.9291Q15.9573 16.8731 15.9785 16.8943Q15.9996 16.9154 15.9996 16.9437ZM17.9999 16.9437Q17.9999 16.9754 17.9787 16.9948Q17.9576 17.0142 17.9293 17.0142H16.5994Q16.5711 17.0142 16.55 16.993Q16.5288 16.9719 16.5288 16.9437V14.6153Q16.5288 14.5871 16.55 14.5659Q16.5711 14.5448 16.5994 14.5448H17.9293Q17.9576 14.5448 17.9787 14.5659Q17.9999 14.5871 17.9999 14.6153Q17.9999 14.6471 17.9787 14.6665Q17.9576 14.6859 17.9293 14.6859H16.677V15.6701H17.7706Q17.7988 15.6701 17.82 15.6913Q17.8411 15.7125 17.8411 15.7407Q17.8411 15.7724 17.82 15.7918Q17.7988 15.8112 17.7706 15.8112H16.677V16.8731H17.9293Q17.9576 16.8731 17.9787 16.8943Q17.9999 16.9154 17.9999 16.9437ZM20.5399 15.7795Q20.5399 16.1287 20.4288 16.4074Q20.3176 16.6861 20.0883 16.8502Q19.859 17.0142 19.5168 17.0142H18.5996Q18.5714 17.0142 18.5502 16.993Q18.5291 16.9719 18.5291 16.9437V14.6153Q18.5291 14.5871 18.5502 14.5659Q18.5714 14.5448 18.5996 14.5448H19.5168Q19.8555 14.5448 20.0866 14.7141Q20.3176 14.8834 20.4288 15.1639Q20.5399 15.4443 20.5399 15.7795ZM20.3917 15.7795Q20.3917 15.4796 20.2947 15.2309Q20.1977 14.9822 19.9948 14.834Q19.792 14.6859 19.4816 14.6859H18.6772V16.8731H19.4816Q19.9402 16.8731 20.1659 16.5715Q20.3917 16.2698 20.3917 15.7795Z" style="stroke:#000000;stroke-width:0.25;stroke-linecap:round;stroke-linejoin:bevel" />
        <path d="M 15.64,25.00 L 10.64,36.00 z L 20.64,36.00 z " style="stroke:#000000;stroke-width:0.1;stroke-linecap:round;stroke-linejoin:bevel;stroke-dasharray:none" />
        <path d="M37.5036 15.7795Q37.5036 16.1287 37.3925 16.4074Q37.2814 16.6861 37.0521 16.8502Q36.8227 17.0142 36.4806 17.0142H35.5633Q35.5351 17.0142 35.5139 16.993Q35.4928 16.9719 35.4928 16.9437V14.6153Q35.4928 14.5871 35.5139 14.5659Q35.5351 14.5448 35.5633 14.5448H36.4806Q36.8192 14.5448 37.0503 14.7141Q37.2814 14.8834 37.3925 15.1639Q37.5036 15.4443 37.5036 15.7795ZM37.3554 15.7795Q37.3554 15.4796 37.2584 15.2309Q37.1614 14.9822 36.9586 14.834Q36.7557 14.6859 36.4453 14.6859H35.6409V16.8731H36.4453Q36.9039 16.8731 37.1297 16.5715Q37.3554 16.2698 37.3554 15.7795ZM39.5039 16.9437Q39.5039 16.9754 39.4827 16.9948Q39.4615 17.0142 39.4333 17.0142H38.1033Q38.0751 17.0142 38.0539 16.993Q38.0328 16.9719 38.0328 16.9437V14.6153Q38.0328 14.5871 38.0539 14.5659Q38.0751 14.5448 38.1033 14.5448H39.4333Q39.4615 14.5448 39.4827 14.5659Q39.5039 14.5871 39.5039 14.6153Q39.5039 14.6471 39.4827 14.6665Q39.4615 14.6859 39.4333 14.6859H38.1809V15.6701H39.2746Q39.3028 15.6701 39.3239 15.6913Q39.3451 15.7125 39.3451 15.7407Q39.3451 15.7724 39.3239 15.7918Q39.3028 15.8112 39.2746 15.8112H38.1809V16.8731H39.4333Q39.4615 16.8731 39.4827 16.8943Q39.5039 16.9154 39.5039 16.9437ZM41.8922 14.8058Q41.8922 14.834 41.8781 14.8517Q41.8569 14.8799 41.8251 14.8799Q41.811 14.8799 41.7828 14.8658Q41.4547 14.6435 41.0878 14.6435Q40.7915 14.6435 40.5428 14.7899Q40.2941 14.9363 40.1494 15.1956Q40.0048 15.4549 40.0048 15.7795Q40.0048 16.104 40.1494 16.3633Q40.2941 16.6226 40.5428 16.769Q40.7915 16.9154 41.0878 16.9154Q41.4582 16.9154 41.7793 16.6967Q41.7969 16.6826 41.8216 16.6826Q41.8569 16.6826 41.8781 16.7108Q41.8922 16.7285 41.8922 16.7532Q41.8922 16.7884 41.8639 16.8096Q41.7264 16.9084 41.5094 16.9789Q41.2924 17.0495 41.0878 17.0495Q40.7527 17.0495 40.4705 16.8837Q40.1883 16.7179 40.0224 16.4268Q39.8566 16.1358 39.8566 15.7795Q39.8566 15.4232 40.0224 15.1321Q40.1883 14.8411 40.4705 14.6753Q40.7527 14.5095 41.0878 14.5095Q41.2995 14.5095 41.4988 14.573Q41.6981 14.6365 41.8604 14.7494Q41.8922 14.7741 41.8922 14.8058ZM44.1817 16.9472Q44.1817 16.9789 44.1605 16.9966Q44.1394 17.0142 44.1076 17.0142Q44.0829 17.0142 44.0635 17.0019Q44.0441 16.9895 44.0371 16.9683L43.7407 16.2416L43.7443 16.2487H42.5624L42.2767 16.9683Q42.2591 17.0142 42.2132 17.0142Q42.1814 17.0142 42.162 16.9966Q42.1426 16.9789 42.1391 16.9542Q42.1356 16.9401 42.1426 16.919L43.0916 14.5836Q43.1022 14.5553 43.1181 14.5465Q43.1339 14.5377 43.1586 14.5377Q43.2116 14.5377 43.2292 14.5836L44.1782 16.919Q44.1817 16.9295 44.1817 16.9472ZM42.6189 16.1076H43.6878L43.1481 14.7776ZM46.1502 14.6435 45.3459 15.7372V16.9437Q45.3459 16.9719 45.3247 16.993Q45.3035 17.0142 45.2718 17.0142Q45.24 17.0142 45.2189 16.993Q45.1977 16.9719 45.1977 16.9437V15.7513L44.3898 14.6435Q44.3757 14.6259 44.3757 14.5977Q44.3757 14.573 44.3987 14.5518Q44.4216 14.5307 44.4498 14.5307Q44.4886 14.5307 44.5098 14.5624L45.2718 15.6031L46.0338 14.5624Q46.0549 14.5307 46.0938 14.5307Q46.1255 14.5307 46.1449 14.5536Q46.1643 14.5765 46.1643 14.5977Q46.1643 14.6153 46.1502 14.6435Z" style="stroke:#000000;stroke-width:0.25;stroke-linecap:round;stroke-linejoin:bevel" />
        <path d="M 40.64,25.00 L 35.64,36.00 z L 45.64,36.00 z " style="stroke:#000000;stroke-width:0.1;stroke-linecap:round;stroke-linejoin:bevel;stroke-dasharray:none" />
        <path d="M61.2118 14.6153V16.9437Q61.2118 16.9719 61.1888 16.993Q61.1659 17.0142 61.1377 17.0142Q61.1059 17.0142 61.0847 16.993Q61.0636 16.9719 61.0636 16.9437V14.834L60.1534 16.2099Q60.1358 16.2381 60.104 16.2381Q60.0652 16.2381 60.0476 16.2099L59.1339 14.8305V16.9437Q59.1339 16.9719 59.1127 16.993Q59.0916 17.0142 59.0633 17.0142Q59.0316 17.0142 59.0122 16.993Q58.9928 16.9719 58.9928 16.9437V14.6153Q58.9928 14.5906 59.0122 14.5677Q59.0316 14.5448 59.0598 14.5448Q59.1057 14.5448 59.1268 14.5765L60.104 16.03L61.0812 14.5765Q61.1094 14.5377 61.1482 14.5448Q61.1765 14.5483 61.1941 14.5677Q61.2118 14.5871 61.2118 14.6153ZM63.7306 16.9472Q63.7306 16.9789 63.7094 16.9966Q63.6882 17.0142 63.6565 17.0142Q63.6318 17.0142 63.6124 17.0019Q63.593 16.9895 63.5859 16.9683L63.2896 16.2416L63.2931 16.2487H62.1113L61.8256 16.9683Q61.8079 17.0142 61.7621 17.0142Q61.7303 17.0142 61.7109 16.9966Q61.6915 16.9789 61.688 16.9542Q61.6845 16.9401 61.6915 16.919L62.6405 14.5836Q62.6511 14.5553 62.667 14.5465Q62.6828 14.5377 62.7075 14.5377Q62.7604 14.5377 62.7781 14.5836L63.7271 16.919Q63.7306 16.9295 63.7306 16.9472ZM62.1678 16.1076H63.2367L62.6969 14.7776ZM66.073 15.8677V16.7532Q66.073 16.7955 66.0413 16.8167Q65.879 16.926 65.6867 16.9877Q65.4945 17.0495 65.2969 17.0495Q64.9336 17.0495 64.646 16.8854Q64.3585 16.7214 64.1945 16.4321Q64.0304 16.1428 64.0304 15.7795Q64.0304 15.4161 64.1945 15.1268Q64.3585 14.8376 64.646 14.6735Q64.9336 14.5095 65.2969 14.5095Q65.4945 14.5095 65.6726 14.5571Q65.8508 14.6047 65.9919 14.7Q66.0236 14.7212 66.0236 14.76Q66.0236 14.7917 66.0007 14.8111Q65.9778 14.8305 65.9566 14.8305Q65.939 14.8305 65.9107 14.8164Q65.6144 14.6506 65.2969 14.6506Q64.9724 14.6506 64.7184 14.7952Q64.4644 14.9399 64.3215 15.1974Q64.1786 15.4549 64.1786 15.7795Q64.1786 16.104 64.3215 16.3616Q64.4644 16.6191 64.7184 16.7637Q64.9724 16.9084 65.2969 16.9084Q65.4592 16.9084 65.6268 16.8572Q65.7943 16.8061 65.9319 16.7214V15.9382H65.2969Q65.2687 15.9382 65.2475 15.9171Q65.2264 15.8959 65.2264 15.8677Q65.2264 15.8359 65.2475 15.8165Q65.2687 15.7971 65.2969 15.7971H66.0025Q66.0342 15.7971 66.0536 15.8183Q66.073 15.8395 66.073 15.8677ZM68.5072 14.6118V16.9366Q68.5072 16.9754 68.486 16.9948Q68.4649 17.0142 68.4331 17.0142Q68.3978 17.0142 68.3767 16.986L66.7892 14.8164V16.9542Q66.7892 16.9789 66.7698 16.9966Q66.7504 17.0142 66.7221 17.0142Q66.6904 17.0142 66.6728 16.9966Q66.6551 16.9789 66.6551 16.9542V14.6153Q66.6551 14.58 66.6745 14.5624Q66.6939 14.5448 66.7186 14.5448Q66.7504 14.5448 66.7715 14.5695L68.3731 16.7532V14.6118Q68.3731 14.5836 68.3925 14.5642Q68.4119 14.5448 68.4402 14.5448Q68.4719 14.5448 68.4896 14.5642Q68.5072 14.5836 68.5072 14.6118ZM70.6838 16.9437Q70.6838 16.9754 70.6627 16.9948Q70.6415 17.0142 70.6133 17.0142H69.2833Q69.2551 17.0142 69.2339 16.993Q69.2127 16.9719 69.2127 16.9437V14.6153Q69.2127 14.5871 69.2339 14.5659Q69.2551 14.5448 69.2833 14.5448H70.6133Q70.6415 14.5448 70.6627 14.5659Q70.6838 14.5871 70.6838 14.6153Q70.6838 14.6471 70.6627 14.6665Q70.6415 14.6859 70.6133 14.6859H69.3609V15.6701H70.4545Q70.4828 15.6701 70.5039 15.6913Q70.5251 15.7125 70.5251 15.7407Q70.5251 15.7724 70.5039 15.7918Q70.4828 15.8112 70.4545 15.8112H69.3609V16.8731H70.6133Q70.6415 16.8731 70.6627 16.8943Q70.6838 16.9154 70.6838 16.9437ZM72.8393 14.6118Q72.8393 14.6435 72.8199 14.6612Q72.8005 14.6788 72.7687 14.6788H71.9821V16.9437Q71.9821 16.9719 71.9609 16.993Q71.9397 17.0142 71.9115 17.0142Q71.8798 17.0142 71.8603 16.993Q71.8409 16.9719 71.8409 16.9437V14.6788H71.0542Q71.026 14.6788 71.0049 14.6594Q70.9837 14.64 70.9837 14.6118Q70.9837 14.5836 71.0049 14.5642Q71.026 14.5448 71.0542 14.5448H72.7687Q72.797 14.5448 72.8181 14.5642Q72.8393 14.5836 72.8393 14.6118Z" style="stroke:#000000;stroke-width:0.25;stroke-linecap:round;stroke-linejoin:bevel" />
        <path d="M 65.64,25.00 L 60.64,36.00 z L 70.64,36.00 z " style="stroke:#000000;stroke-width:0.1;stroke-linecap:round;stroke-linejoin:bevel;stroke-dasharray:none" />
        <path d="M60.5669 47.5142Q60.5316 47.5142 60.5122 47.493Q60.4928 47.4719 60.4928 47.4401V45.1188Q60.4928 45.0871 60.5139 45.0659Q60.5351 45.0448 60.5669 45.0448Q60.5986 45.0448 60.6198 45.0659Q60.6409 45.0871 60.6409 45.1188V47.4401Q60.6374 47.4719 60.6163 47.493Q60.5951 47.5142 60.5669 47.5142ZM63.1986 45.1118V47.4366Q63.1986 47.4754 63.1774 47.4948Q63.1562 47.5142 63.1245 47.5142Q63.0892 47.5142 63.0681 47.486L61.4806 45.3164V47.4542Q61.4806 47.4789 61.4612 47.4966Q61.4417 47.5142 61.4135 47.5142Q61.3818 47.5142 61.3641 47.4966Q61.3465 47.4789 61.3465 47.4542V45.1153Q61.3465 45.08 61.3659 45.0624Q61.3853 45.0448 61.41 45.0448Q61.4417 45.0448 61.4629 45.0695L63.0645 47.2532V45.1118Q63.0645 45.0836 63.0839 45.0642Q63.1033 45.0448 63.1316 45.0448Q63.1633 45.0448 63.1809 45.0642Q63.1986 45.0836 63.1986 45.1118Z" style="stroke:#000000;stroke-width:0.25;stroke-linecap:round;stroke-linejoin:bevel" />
        <path d="M 61.64,55.50 L 56.64,66.50 z L 66.64,66.50 z " style="stroke:#000000;stroke-width:0.1;stroke-linecap:round;stroke-linejoin:bevel;stroke-dasharray:none" />
        <path d="M14.4947 95.0495Q14.1525 95.0495 13.8844 94.889Q13.6163 94.7285 13.4663 94.4392Q13.3164 94.1499 13.3164 93.7795Q13.3164 93.4091 13.4663 93.1198Q13.6163 92.8305 13.8844 92.67Q14.1525 92.5095 14.4947 92.5095Q14.8369 92.5095 15.105 92.67Q15.3731 92.8305 15.523 93.1198Q15.6729 93.4091 15.6729 93.7795Q15.6729 94.1499 15.523 94.4392Q15.3731 94.7285 15.105 94.889Q14.8369 95.0495 14.4947 95.0495ZM14.4947 92.6506Q14.1948 92.6506 13.9602 92.7917Q13.7256 92.9328 13.5951 93.1903Q13.4646 93.4479 13.4646 93.7795Q13.4646 94.1111 13.5951 94.3686Q13.7256 94.6262 13.9602 94.7673Q14.1948 94.9084 14.4947 94.9084Q14.7945 94.9084 15.0291 94.7673Q15.2637 94.6262 15.3942 94.3686Q15.5248 94.1111 15.5248 93.7795Q15.5248 93.4479 15.3942 93.1903Q15.2637 92.9328 15.0291 92.7917Q14.7945 92.6506 14.4947 92.6506ZM18.0189 92.6153V94.1393Q18.0189 94.3863 17.8954 94.5944Q17.772 94.8025 17.5638 94.926Q17.3557 95.0495 17.1123 95.0495Q16.8653 95.0495 16.6572 94.926Q16.4491 94.8025 16.3256 94.5944Q16.2021 94.3863 16.2021 94.1393V92.6153Q16.2021 92.5836 16.2233 92.5642Q16.2444 92.5448 16.2762 92.5448Q16.3079 92.5448 16.3291 92.5659Q16.3503 92.5871 16.3503 92.6153V94.1393Q16.3503 94.3475 16.4526 94.5238Q16.5549 94.7002 16.7295 94.8043Q16.9041 94.9084 17.1123 94.9084Q17.3204 94.9084 17.495 94.8043Q17.6697 94.7002 17.7737 94.5238Q17.8778 94.3475 17.8778 94.1393V92.6153Q17.8778 92.5871 17.8972 92.5659Q17.9166 92.5448 17.9484 92.5448Q17.9801 92.5448 17.9995 92.5659Q18.0189 92.5871 18.0189 92.6153ZM20.3508 92.6118Q20.3508 92.6435 20.3314 92.6612Q20.312 92.6788 20.2802 92.6788H19.4935V94.9437Q19.4935 94.9719 19.4724 94.993Q19.4512 95.0142 19.423 95.0142Q19.3912 95.0142 19.3718 94.993Q19.3524 94.9719 19.3524 94.9437V92.6788H18.5657Q18.5375 92.6788 18.5163 92.6594Q18.4952 92.64 18.4952 92.6118Q18.4952 92.5836 18.5163 92.5642Q18.5375 92.5448 18.5657 92.5448H20.2802Q20.3084 92.5448 20.3296 92.5642Q20.3508 92.5836 20.3508 92.6118Z" style="stroke:#000000;stroke-width:0.25;stroke-linecap:round;stroke-linejoin:bevel" />
        <path d="M 16.64,103.00 L 11.64,114.00 z L 21.64,114.00 z " style="stroke:#000000;stroke-width:0.1;stroke-linecap:round;stroke-linejoin:bevel;stroke-dasharray:none" />
        <path d="M13.3061 77.5472Q13.3061 77.5789 13.2849 77.5966Q13.2637 77.6142 13.232 77.6142Q13.2073 77.6142 13.1879 77.6019Q13.1685 77.5895 13.1614 77.5683L12.8651 76.8416L12.8686 76.8487H11.6868L11.4011 77.5683Q11.3834 77.6142 11.3376 77.6142Q11.3058 77.6142 11.2864 77.5966Q11.267 77.5789 11.2635 77.5542Q11.2599 77.5401 11.267 77.519L12.216 75.1836Q12.2266 75.1553 12.2424 75.1465Q12.2583 75.1377 12.283 75.1377Q12.3359 75.1377 12.3536 75.1836L13.3025 77.519Q13.3061 77.5295 13.3061 77.5472ZM11.7432 76.7076H12.8122L12.2724 75.3776ZM15.5991 75.2153V76.7393Q15.5991 76.9863 15.4756 77.1944Q15.3522 77.4025 15.144 77.526Q14.9359 77.6495 14.6925 77.6495Q14.4455 77.6495 14.2374 77.526Q14.0293 77.4025 13.9058 77.1944Q13.7823 76.9863 13.7823 76.7393V75.2153Q13.7823 75.1836 13.8035 75.1642Q13.8246 75.1448 13.8564 75.1448Q13.8881 75.1448 13.9093 75.1659Q13.9305 75.1871 13.9305 75.2153V76.7393Q13.9305 76.9475 14.0328 77.1238Q14.1351 77.3002 14.3097 77.4043Q14.4843 77.5084 14.6925 77.5084Q14.9006 77.5084 15.0752 77.4043Q15.2499 77.3002 15.3539 77.1238Q15.458 76.9475 15.458 76.7393V75.2153Q15.458 75.1871 15.4774 75.1659Q15.4968 75.1448 15.5286 75.1448Q15.5603 75.1448 15.5797 75.1659Q15.5991 75.1871 15.5991 75.2153ZM18.3155 76.3795Q18.3155 76.7287 18.2044 77.0074Q18.0933 77.2861 17.8639 77.4502Q17.6346 77.6142 17.2924 77.6142H16.3752Q16.347 77.6142 16.3258 77.593Q16.3047 77.5719 16.3047 77.5437V75.2153Q16.3047 75.1871 16.3258 75.1659Q16.347 75.1448 16.3752 75.1448H17.2924Q17.6311 75.1448 17.8622 75.3141Q18.0933 75.4834 18.2044 75.7639Q18.3155 76.0443 18.3155 76.3795ZM18.1673 76.3795Q18.1673 76.0796 18.0703 75.8309Q17.9733 75.5822 17.7705 75.434Q17.5676 75.2859 17.2572 75.2859H16.4528V77.4731H17.2572Q17.7158 77.4731 17.9416 77.1715Q18.1673 76.8698 18.1673 76.3795ZM18.9188 77.6142Q18.8835 77.6142 18.8641 77.593Q18.8447 77.5719 18.8447 77.5401V75.2188Q18.8447 75.1871 18.8658 75.1659Q18.887 75.1448 18.9188 75.1448Q18.9505 75.1448 18.9717 75.1659Q18.9928 75.1871 18.9928 75.2188V77.5401Q18.9893 77.5719 18.9681 77.593Q18.947 77.6142 18.9188 77.6142ZM20.7003 77.6495Q20.3581 77.6495 20.09 77.489Q19.8219 77.3285 19.6719 77.0392Q19.522 76.7499 19.522 76.3795Q19.522 76.0091 19.6719 75.7198Q19.8219 75.4305 20.09 75.27Q20.3581 75.1095 20.7003 75.1095Q21.0425 75.1095 21.3106 75.27Q21.5787 75.4305 21.7286 75.7198Q21.8786 76.0091 21.8786 76.3795Q21.8786 76.7499 21.7286 77.0392Q21.5787 77.3285 21.3106 77.489Q21.0425 77.6495 20.7003 77.6495ZM20.7003 75.2506Q20.4004 75.2506 20.1658 75.3917Q19.9312 75.5328 19.8007 75.7903Q19.6702 76.0479 19.6702 76.3795Q19.6702 76.7111 19.8007 76.9686Q19.9312 77.2262 20.1658 77.3673Q20.4004 77.5084 20.7003 77.5084Q21.0001 77.5084 21.2347 77.3673Q21.4693 77.2262 21.5999 76.9686Q21.7304 76.7111 21.7304 76.3795Q21.7304 76.0479 21.5999 75.7903Q21.4693 75.5328 21.2347 75.3917Q21.0001 75.2506 20.7003 75.2506Z" style="stroke:#000000;stroke-width:0.25;stroke-linecap:round;stroke-linejoin:bevel" />
    </g>
</svg>
