<?xml version="1.0" encoding="utf-8"?>
<svg xmlns="http://www.w3.org/2000/svg" width="81.28mm" height="128.50mm" viewBox="0 0 81.28 128.50">
    <g id="labels" style="stroke:#000000;stroke-width:0.25;stroke-linecap:round;stroke-linejoin:bevel">
        <path d="M13.3486 78.1818Q13.3486 78.2136 13.3274 78.2312Q13.3063 78.2488 13.2745 78.2488Q13.2498 78.2488 13.2304 78.2365Q13.211 78.2241 13.2039 78.203L12.9076 77.4763L12.9111 77.4833H11.7293L11.4436 78.203Q11.4259 78.2488 11.3801 78.2488Q11.3483 78.2488 11.3289 78.2312Q11.3095 78.2136 11.306 78.1889Q11.3025 78.1748 11.3095 78.1536L12.2585 75.8182Q12.2691 75.79 12.285 75.7812Q12.3008 75.7723 12.3255 75.7723Q12.3784 75.7723 12.3961 75.8182L13.3451 78.1536Q13.3486 78.1642 13.3486 78.1818ZM11.7858 77.3422H12.8547L12.3149 76.0122ZM15.6416 75.8499V77.3739Q15.6416 77.6209 15.5182 77.829Q15.3947 78.0372 15.1866 78.1606Q14.9784 78.2841 14.735 78.2841Q14.4881 78.2841 14.2799 78.1606Q14.0718 78.0372 13.9483 77.829Q13.8248 77.6209 13.8248 77.3739V75.8499Q13.8248 75.8182 13.846 75.7988Q13.8672 75.7794 13.8989 75.7794Q13.9307 75.7794 13.9518 75.8006Q13.973 75.8217 13.973 75.8499V77.3739Q13.973 77.5821 14.0753 77.7585Q14.1776 77.9349 14.3522 78.0389Q14.5269 78.143 14.735 78.143Q14.9431 78.143 15.1178 78.0389Q15.2924 77.9349 15.3965 77.7585Q15.5005 77.5821 15.5005 77.3739V75.8499Q15.5005 75.8217 15.5199 75.8006Q15.5393 75.7794 15.5711 75.7794Q15.6028 75.7794 15.6222 75.8006Q15.6416 75.8217 15.6416 75.8499ZM18.358 77.0141Q18.358 77.3634 18.2469 77.6421Q18.1358 77.9207 17.9065 78.0848Q17.6772 78.2488 17.335 78.2488H16.4178Q16.3895 78.2488 16.3684 78.2277Q16.3472 78.2065 16.3472 78.1783V75.8499Q16.3472 75.8217 16.3684 75.8006Q16.3895 75.7794 16.4178 75.7794H17.335Q17.6736 75.7794 17.9047 75.9487Q18.1358 76.1181 18.2469 76.3985Q18.358 76.679 18.358 77.0141ZM18.2099 77.0141Q18.2099 76.7143 18.1128 76.4655Q18.0158 76.2168 17.813 76.0687Q17.6101 75.9205 17.2997 75.9205H16.4954V78.1077H17.2997Q17.7583 78.1077 17.9841 77.8061Q18.2099 77.5045 18.2099 77.0141ZM18.9613 78.2488Q18.926 78.2488 18.9066 78.2277Q18.8872 78.2065 18.8872 78.1748V75.8535Q18.8872 75.8217 18.9084 75.8006Q18.9295 75.7794 18.9613 75.7794Q18.993 75.7794 19.0142 75.8006Q19.0354 75.8217 19.0354 75.8535V78.1748Q19.0318 78.2065 19.0107 78.2277Q18.9895 78.2488 18.9613 78.2488ZM20.7428 78.2841Q20.4006 78.2841 20.1325 78.1236Q19.8644 77.9631 19.7145 77.6738Q19.5645 77.3845 19.5645 77.0141Q19.5645 76.6437 19.7145 76.3544Q19.8644 76.0651 20.1325 75.9046Q20.4006 75.7441 20.7428 75.7441Q21.085 75.7441 21.3531 75.9046Q21.6212 76.0651 21.7712 76.3544Q21.9211 76.6437 21.9211 77.0141Q21.9211 77.3845 21.7712 77.6738Q21.6212 77.9631 21.3531 78.1236Q21.085 78.2841 20.7428 78.2841ZM20.7428 75.8852Q20.4429 75.8852 20.2083 76.0263Q19.9737 76.1674 19.8432 76.425Q19.7127 76.6825 19.7127 77.0141Q19.7127 77.3457 19.8432 77.6033Q19.9737 77.8608 20.2083 78.0019Q20.4429 78.143 20.7428 78.143Q21.0427 78.143 21.2773 78.0019Q21.5119 77.8608 21.6424 77.6033Q21.7729 77.3457 21.7729 77.0141Q21.7729 76.6825 21.6424 76.425Q21.5119 76.1674 21.2773 76.0263Q21.0427 75.8852 20.7428 75.8852Z" />
    </g>
</svg>
