<?xml version="1.0" encoding="utf-8"?>
<svg xmlns="http://www.w3.org/2000/svg" width="30.48mm" height="128.50mm" viewBox="0 0 30.48 128.50">
    <g id="PanelLayer">
        <defs />
        <rect id="border_rect" width="30.48" height="128.5" x="0" y="0" style="display:inline;fill:#4f8df2;fill-opacity:1;fill-rule:nonzero;stroke:#5021d4;stroke-width:0.7;stroke-linecap:round;stroke-linejoin:round;stroke-dasharray:none;stroke-opacity:1;image-rendering:auto" />
        <path id="model_name" d="M5.33294 8.22887Q4.79743 8.22887 4.35892 7.96111Q3.92042 7.69335 3.66818 7.22769Q3.41595 6.76202 3.41595 6.19546Q3.41595 5.62114 3.66818 5.15547Q3.92042 4.6898 4.35504 4.42204Q4.78966 4.15429 5.33294 4.15429Q5.86846 4.15429 6.30696 4.42204Q6.74546 4.6898 6.99382 5.15547Q7.24218 5.62114 7.24218 6.19546Q7.24218 6.76978 6.99382 7.23157Q6.74546 7.69335 6.30696 7.96111Q5.86846 8.22887 5.33294 8.22887ZM5.33294 4.44921Q4.8828 4.44921 4.51414 4.67816Q4.14549 4.90711 3.93594 5.30293Q3.72639 5.69875 3.72639 6.19546Q3.72639 6.68441 3.93594 7.08022Q4.14549 7.47604 4.51414 7.70499Q4.8828 7.93395 5.33294 7.93395Q5.79085 7.93395 6.15562 7.70887Q6.52039 7.4838 6.72606 7.08411Q6.93173 6.68441 6.93173 6.19546Q6.93173 5.69875 6.72606 5.30293Q6.52039 4.90711 6.15562 4.67816Q5.79085 4.44921 5.33294 4.44921ZM11.86 6.17217Q11.86 6.7465 11.6233 7.21604Q11.3866 7.68559 10.9753 7.95723Q10.5639 8.22887 10.0595 8.22887Q9.60155 8.22887 9.2135 7.98439Q8.82544 7.73992 8.56933 7.3053V7.99604Q8.56933 8.05812 8.52664 8.10469Q8.48395 8.15126 8.4141 8.15126Q8.35201 8.15126 8.30545 8.10469Q8.25888 8.05812 8.25888 7.99604V2.57102Q8.25888 2.50893 8.30157 2.46236Q8.34425 2.4158 8.4141 2.4158Q8.48395 2.4158 8.52664 2.46236Q8.56933 2.50893 8.56933 2.57102V5.10114Q8.80216 4.64324 9.19409 4.39876Q9.58603 4.15429 10.0595 4.15429Q10.5717 4.15429 10.983 4.41428Q11.3944 4.67428 11.6272 5.13607Q11.86 5.59785 11.86 6.17217ZM11.5496 6.17217Q11.5496 5.67546 11.3517 5.28353Q11.1538 4.89159 10.8123 4.6704Q10.4708 4.44921 10.0439 4.44921Q9.60931 4.44921 9.26394 4.6704Q8.91858 4.89159 8.72843 5.28353Q8.53828 5.67546 8.53828 6.17217Q8.53828 6.66889 8.73231 7.07246Q8.92634 7.47604 9.26783 7.70499Q9.60931 7.93395 10.0439 7.93395Q10.4708 7.93395 10.8123 7.70111Q11.1538 7.46828 11.3517 7.06858Q11.5496 6.66889 11.5496 6.17217ZM16.0743 7.35962Q16.0743 7.41395 16.0433 7.45276Q15.7872 7.79425 15.4069 8.01156Q15.0266 8.22887 14.5919 8.22887Q14.0099 8.22887 13.5597 7.98051Q13.1096 7.73216 12.8573 7.27425Q12.6051 6.81635 12.6051 6.21098Q12.6051 5.59009 12.8496 5.12054Q13.0941 4.651 13.4976 4.40264Q13.9012 4.15429 14.3591 4.15429Q14.817 4.15429 15.209 4.35219Q15.6009 4.5501 15.8492 4.94592Q16.0976 5.34174 16.1131 5.92382Q16.1131 5.98591 16.0666 6.03636Q16.02 6.0868 15.9579 6.0868H12.9078V6.1877Q12.9078 6.66889 13.1018 7.06858Q13.2958 7.46828 13.6761 7.70111Q14.0564 7.93395 14.5919 7.93395Q14.9645 7.93395 15.2943 7.75156Q15.6242 7.56917 15.8104 7.28977Q15.8648 7.21992 15.9424 7.21992Q15.9967 7.21992 16.0355 7.26261Q16.0743 7.3053 16.0743 7.35962ZM12.9388 5.79188H15.7949V5.72203Q15.7561 5.32621 15.5427 5.04293Q15.3293 4.75965 15.0149 4.61219Q14.7006 4.46473 14.3591 4.46473Q14.072 4.46473 13.7731 4.61607Q13.4743 4.76741 13.2454 5.06622Q13.0164 5.36502 12.9388 5.79188ZM17.3239 8.15126Q17.254 8.15126 17.2113 8.10469Q17.1686 8.05812 17.1686 7.99604V2.56326Q17.1686 2.50117 17.2152 2.4546Q17.2618 2.40804 17.3239 2.40804Q17.3937 2.40804 17.4364 2.4546Q17.4791 2.50117 17.4791 2.56326V7.99604Q17.4791 8.05812 17.4325 8.10469Q17.3859 8.15126 17.3239 8.15126ZM18.9615 8.15126Q18.8916 8.15126 18.8489 8.10469Q18.8062 8.05812 18.8062 7.99604V4.30951Q18.8062 4.24742 18.8528 4.20085Q18.8994 4.15429 18.9615 4.15429Q19.0313 4.15429 19.074 4.20085Q19.1167 4.24742 19.1167 4.30951V7.99604Q19.1167 8.05812 19.0701 8.10469Q19.0235 8.15126 18.9615 8.15126ZM18.6898 3.37818V3.31609Q18.6898 3.20743 18.7674 3.13758Q18.845 3.06773 18.9692 3.06773Q19.0779 3.06773 19.1516 3.13758Q19.2253 3.20743 19.2253 3.31609V3.37818Q19.2253 3.48683 19.1516 3.55668Q19.0779 3.62653 18.9615 3.62653Q18.8373 3.62653 18.7635 3.55668Q18.6898 3.48683 18.6898 3.37818ZM20.1334 7.38291Q20.1334 7.32858 20.1955 7.28201Q20.2343 7.24321 20.2886 7.24321Q20.3662 7.24321 20.4128 7.3053Q20.8629 7.94947 21.6701 7.94947Q22.0814 7.94947 22.3919 7.7438Q22.7023 7.53813 22.7023 7.18888Q22.7023 6.83187 22.4307 6.65336Q22.159 6.47486 21.6856 6.35844Q21.057 6.20322 20.6961 5.94322Q20.3352 5.68323 20.3352 5.2098Q20.3352 4.75189 20.6999 4.45309Q21.0647 4.15429 21.639 4.15429Q21.9572 4.15429 22.2716 4.27846Q22.5859 4.40264 22.842 4.67428Q22.8963 4.72085 22.8963 4.78294Q22.8963 4.85279 22.842 4.90711Q22.7799 4.93816 22.7411 4.93816Q22.6868 4.93816 22.648 4.89159Q22.2444 4.44921 21.608 4.44921Q21.1967 4.44921 20.9134 4.651Q20.6301 4.85279 20.6301 5.2098Q20.6534 5.54352 20.9367 5.72591Q21.2199 5.9083 21.771 6.048Q22.1668 6.14889 22.4268 6.26919Q22.6868 6.38949 22.842 6.6068Q22.9972 6.82411 22.9972 7.17336Q22.9972 7.66231 22.6208 7.94559Q22.2444 8.22887 21.639 8.22887Q20.7543 8.22887 20.1877 7.53037Q20.1334 7.445 20.1334 7.38291ZM27.1029 7.99604Q27.1029 8.06589 27.0447 8.10857Q26.9864 8.15126 26.9476 8.15126Q26.8855 8.15126 26.8312 8.09693L25.0151 6.16441L24.3632 6.70769V7.99604Q24.3632 8.05812 24.3205 8.10469Q24.2778 8.15126 24.208 8.15126Q24.1381 8.15126 24.0954 8.10469Q24.0527 8.05812 24.0527 7.99604V2.56326Q24.0527 2.50117 24.0954 2.4546Q24.1381 2.40804 24.208 2.40804Q24.2778 2.40804 24.3205 2.4546Q24.3632 2.50117 24.3632 2.56326V6.31964L26.8002 4.27846Q26.8467 4.2319 26.9011 4.2319Q26.9632 4.2319 27.0097 4.27846Q27.0563 4.32503 27.0563 4.39488Q27.0563 4.46473 27.002 4.5113L25.2557 5.96262L27.0563 7.87962Q27.1029 7.92619 27.1029 7.99604Z" style="display:inline;stroke:#000000;stroke-width:0.35;stroke-linecap:round;stroke-linejoin:bevel" />
        <path id="sapphire_gemstone" d="m 17.955,122.900 q 0,0.34175 -0.242534,0.63114 -0.0441,0.0524 -0.20395,0.21497 -0.187413,0.19017 -0.785481,0.81304 l -1.444183,1.51309 q -0.01929,0.003 -0.0441,0.003 -0.02756,0 -0.04134,-0.003 -0.08268,-0.0827 -0.647678,-0.67524 -0.468532,-0.47404 -0.934309,-0.94809 -0.556727,-0.56775 -0.89848,-0.98116 -0.132292,-0.15985 -0.168121,-0.29766 -0.02756,-0.10197 -0.02756,-0.34175 0,-0.11024 0.07166,-0.28939 0.06614,-0.16536 0.140559,-0.26458 0.118512,-0.1571 0.42168,-0.42444 0.283875,-0.2508 0.474044,-0.37482 0.272852,-0.17915 0.818555,-0.36656 0.09646,-0.0331 0.110243,-0.0331 h 1.3615 q 0.01102,0 0.104731,0.0331 0.567751,0.20119 0.824066,0.36656 0.165365,0.10473 0.474045,0.37758 0.322461,0.28388 0.421679,0.42168 0.214974,0.2949 0.214974,0.62563 z m -0.16812,-0.27285 q -0.03307,-0.10749 -0.135048,-0.30868 -0.07166,-0.0937 -0.209462,-0.19844 -0.118511,-0.0854 -0.234266,-0.17088 0.245291,0.3638 0.578776,0.678 z m -0.573264,-0.52366 -0.358289,-0.44648 v 0.41065 z m 0.636653,0.75792 q 0,-0.0524 -0.341753,-0.39412 l 0.228754,0.7028 h 0.04961 q 0.06339,-0.21773 0.06339,-0.30868 z m -0.23151,0.27285 -0.316948,-0.90399 -0.410655,-0.0634 -0.159853,0.61461 z m 0.0028,0.15434 -0.771701,-0.3197 h -0.03032 l 0.344509,0.60634 q 0.07993,-0.003 0.234266,-0.0469 0.02481,-0.0138 0.223242,-0.23978 z m -0.857139,-1.05006 -0.719335,0.28388 0.60358,0.22599 z m 0,-0.16261 v -0.51538 l -0.917773,-0.38034 h -1.223697 l -0.917772,0.38034 v 0.51538 l 0.89848,0.4079 h 1.254014 z m 0.573264,1.53789 q -0.0689,0.011 -0.198438,0.0524 -0.08544,0.0551 -0.259071,0.16261 0.01929,0 0.06339,0.003 0.04134,0 0.06339,0 0.118511,0 0.190169,-0.0689 0.07166,-0.0717 0.14056,-0.14883 z m -0.289388,0.003 -0.347266,-0.63114 -0.363801,0.87918 q 0.0248,-0.0165 0.06615,-0.0165 0.03032,0 0.08544,0.011 0.05788,0.008 0.08819,0.008 0.04961,0 0.228754,-0.10749 0.228754,-0.1378 0.242535,-0.14331 z m -0.440972,-0.74139 -0.683507,-0.2756 -0.592556,0.54845 0.903993,0.65595 z m -0.854383,-0.28387 h -1.036284 l 0.523654,0.47404 z m 0.749652,1.36701 q -0.228754,-0.0303 -0.228754,-0.0303 -0.03583,0 -0.272851,0.0937 l 0.190169,0.0193 q 0.01102,0 0.311436,-0.0827 z m -0.388606,-0.0882 -0.843359,-0.61185 v 0.67524 l 0.471289,0.0827 z m 0.854383,0.0496 q -0.09922,0.006 -0.2949,0.0386 -0.01102,0.003 -0.377583,0.17639 -0.129535,0.34726 -0.380338,1.0418 z m -2.543857,-1.39733 -0.719335,-0.28388 0.124023,0.51814 z m -0.802018,-0.45476 v -0.41065 l -0.366557,0.44648 z m 1.515841,1.07212 -0.592556,-0.54019 -0.683506,0.2756 0.380338,0.9288 z m 0.369314,0.94257 q -0.03307,-0.003 -0.135047,-0.0248 -0.08544,-0.0165 -0.137804,-0.0165 -0.05237,0 -0.137804,0.0165 -0.101975,0.0221 -0.135047,0.0248 0.264583,0.0469 0.272851,0.0469 0.0083,0 0.272851,-0.0469 z m -0.30868,-0.1378 v -0.68626 l -0.843359,0.61185 0.37207,0.14607 z m 0.950846,0.20671 -0.396875,-0.0551 -0.479557,0.14056 v 1.27607 z m -2.888366,-2.20211 q -0.118512,0.0854 -0.234267,0.17364 -0.146072,0.10748 -0.209461,0.19568 -0.0441,0.10473 -0.135048,0.31419 0.369314,-0.3638 0.578776,-0.68351 z m 0.476801,0.83234 -0.159853,-0.61461 -0.410655,0.0634 -0.316948,0.90399 z m 0.394118,1.08313 -0.363802,-0.87918 -0.355533,0.63114 q 0.43546,0.2508 0.451996,0.2508 0.09095,0 0.267339,-0.003 z m 1.821765,0.82958 q -0.132291,0.21222 -0.405143,0.6339 -0.07717,0.10749 -0.220486,0.32797 -0.05788,0.10473 -0.05512,0.226 0.159852,-0.15158 0.432704,-0.49609 0.07717,-0.12954 0.140559,-0.339 0.05512,-0.17639 0.107486,-0.35278 z m -1.493792,-0.66146 -0.270095,-0.0882 -0.0083,-0.011 q -0.02481,0 -0.107487,0.011 -0.06615,0.006 -0.107487,0.006 0.272851,0.091 0.311436,0.091 0.02481,0 0.181901,-0.008 z m -0.810286,-1.06384 h -0.03032 l -0.7717,0.3197 q 0.06615,0.0965 0.223242,0.23978 0.07717,0.0138 0.234266,0.0469 z m -0.689018,-0.50161 q -0.341754,0.34727 -0.341754,0.39412 0,0.0799 0.06339,0.30868 h 0.04961 z m 2.235176,3.04547 v -1.27607 l -0.479557,-0.14056 -0.396875,0.0551 z m -1.606791,-1.6757 q -0.256315,-0.1819 -0.457509,-0.22324 0.06615,0.0772 0.20395,0.22324 z m 1.609547,2.04501 v -0.1378 l -0.683507,-1.05007 q 0.05237,0.17639 0.107487,0.35278 0.06339,0.20946 0.14056,0.339 0.0689,0.11851 0.20395,0.25907 0.115755,0.11851 0.23151,0.23702 z m -0.644921,-0.70555 q -0.115756,-0.32798 -0.380339,-1.0418 -0.135047,-0.0662 -0.272851,-0.12954 -0.159852,-0.0716 -0.289388,-0.0716 -0.05237,0 -0.110243,-0.0138 z" style="stroke-width:0;fill:#0000ff;stroke:#2e2114;stroke-linecap:square;stroke-opacity:1" />
        <g id="ControlLayer" style="display:none;">
            <circle id="left_audio_input" cx="9.24" cy="22" r="1" />
            <circle id="right_audio_input" cx="21.24" cy="22" r="1" />
            <circle id="left_audio_output" cx="9.24" cy="114" r="1" />
            <circle id="right_audio_output" cx="21.24" cy="114" r="1" />
        </g>
    </g>
</svg>
