<?xml version="1.0" encoding="utf-8"?>
<svg xmlns="http://www.w3.org/2000/svg" width="30.48mm" height="128.50mm" viewBox="0 0 30.48 128.50">
    <g id="PanelLayer">
        <rect id="border_rect" width="30.48" height="128.5" x="0" y="0" style="display:inline;fill:#4f8df2;fill-opacity:1;fill-rule:nonzero;stroke:#5021d4;stroke-width:0.7;stroke-linecap:round;stroke-linejoin:round;stroke-dasharray:none;stroke-opacity:1;image-rendering:auto" />
        <path id="sapphire_gemstone" d="m 17.955,122.900 q 0,0.34175 -0.242534,0.63114 -0.0441,0.0524 -0.20395,0.21497 -0.187413,0.19017 -0.785481,0.81304 l -1.444183,1.51309 q -0.01929,0.003 -0.0441,0.003 -0.02756,0 -0.04134,-0.003 -0.08268,-0.0827 -0.647678,-0.67524 -0.468532,-0.47404 -0.934309,-0.94809 -0.556727,-0.56775 -0.89848,-0.98116 -0.132292,-0.15985 -0.168121,-0.29766 -0.02756,-0.10197 -0.02756,-0.34175 0,-0.11024 0.07166,-0.28939 0.06614,-0.16536 0.140559,-0.26458 0.118512,-0.1571 0.42168,-0.42444 0.283875,-0.2508 0.474044,-0.37482 0.272852,-0.17915 0.818555,-0.36656 0.09646,-0.0331 0.110243,-0.0331 h 1.3615 q 0.01102,0 0.104731,0.0331 0.567751,0.20119 0.824066,0.36656 0.165365,0.10473 0.474045,0.37758 0.322461,0.28388 0.421679,0.42168 0.214974,0.2949 0.214974,0.62563 z m -0.16812,-0.27285 q -0.03307,-0.10749 -0.135048,-0.30868 -0.07166,-0.0937 -0.209462,-0.19844 -0.118511,-0.0854 -0.234266,-0.17088 0.245291,0.3638 0.578776,0.678 z m -0.573264,-0.52366 -0.358289,-0.44648 v 0.41065 z m 0.636653,0.75792 q 0,-0.0524 -0.341753,-0.39412 l 0.228754,0.7028 h 0.04961 q 0.06339,-0.21773 0.06339,-0.30868 z m -0.23151,0.27285 -0.316948,-0.90399 -0.410655,-0.0634 -0.159853,0.61461 z m 0.0028,0.15434 -0.771701,-0.3197 h -0.03032 l 0.344509,0.60634 q 0.07993,-0.003 0.234266,-0.0469 0.02481,-0.0138 0.223242,-0.23978 z m -0.857139,-1.05006 -0.719335,0.28388 0.60358,0.22599 z m 0,-0.16261 v -0.51538 l -0.917773,-0.38034 h -1.223697 l -0.917772,0.38034 v 0.51538 l 0.89848,0.4079 h 1.254014 z m 0.573264,1.53789 q -0.0689,0.011 -0.198438,0.0524 -0.08544,0.0551 -0.259071,0.16261 0.01929,0 0.06339,0.003 0.04134,0 0.06339,0 0.118511,0 0.190169,-0.0689 0.07166,-0.0717 0.14056,-0.14883 z m -0.289388,0.003 -0.347266,-0.63114 -0.363801,0.87918 q 0.0248,-0.0165 0.06615,-0.0165 0.03032,0 0.08544,0.011 0.05788,0.008 0.08819,0.008 0.04961,0 0.228754,-0.10749 0.228754,-0.1378 0.242535,-0.14331 z m -0.440972,-0.74139 -0.683507,-0.2756 -0.592556,0.54845 0.903993,0.65595 z m -0.854383,-0.28387 h -1.036284 l 0.523654,0.47404 z m 0.749652,1.36701 q -0.228754,-0.0303 -0.228754,-0.0303 -0.03583,0 -0.272851,0.0937 l 0.190169,0.0193 q 0.01102,0 0.311436,-0.0827 z m -0.388606,-0.0882 -0.843359,-0.61185 v 0.67524 l 0.471289,0.0827 z m 0.854383,0.0496 q -0.09922,0.006 -0.2949,0.0386 -0.01102,0.003 -0.377583,0.17639 -0.129535,0.34726 -0.380338,1.0418 z m -2.543857,-1.39733 -0.719335,-0.28388 0.124023,0.51814 z m -0.802018,-0.45476 v -0.41065 l -0.366557,0.44648 z m 1.515841,1.07212 -0.592556,-0.54019 -0.683506,0.2756 0.380338,0.9288 z m 0.369314,0.94257 q -0.03307,-0.003 -0.135047,-0.0248 -0.08544,-0.0165 -0.137804,-0.0165 -0.05237,0 -0.137804,0.0165 -0.101975,0.0221 -0.135047,0.0248 0.264583,0.0469 0.272851,0.0469 0.0083,0 0.272851,-0.0469 z m -0.30868,-0.1378 v -0.68626 l -0.843359,0.61185 0.37207,0.14607 z m 0.950846,0.20671 -0.396875,-0.0551 -0.479557,0.14056 v 1.27607 z m -2.888366,-2.20211 q -0.118512,0.0854 -0.234267,0.17364 -0.146072,0.10748 -0.209461,0.19568 -0.0441,0.10473 -0.135048,0.31419 0.369314,-0.3638 0.578776,-0.68351 z m 0.476801,0.83234 -0.159853,-0.61461 -0.410655,0.0634 -0.316948,0.90399 z m 0.394118,1.08313 -0.363802,-0.87918 -0.355533,0.63114 q 0.43546,0.2508 0.451996,0.2508 0.09095,0 0.267339,-0.003 z m 1.821765,0.82958 q -0.132291,0.21222 -0.405143,0.6339 -0.07717,0.10749 -0.220486,0.32797 -0.05788,0.10473 -0.05512,0.226 0.159852,-0.15158 0.432704,-0.49609 0.07717,-0.12954 0.140559,-0.339 0.05512,-0.17639 0.107486,-0.35278 z m -1.493792,-0.66146 -0.270095,-0.0882 -0.0083,-0.011 q -0.02481,0 -0.107487,0.011 -0.06615,0.006 -0.107487,0.006 0.272851,0.091 0.311436,0.091 0.02481,0 0.181901,-0.008 z m -0.810286,-1.06384 h -0.03032 l -0.7717,0.3197 q 0.06615,0.0965 0.223242,0.23978 0.07717,0.0138 0.234266,0.0469 z m -0.689018,-0.50161 q -0.341754,0.34727 -0.341754,0.39412 0,0.0799 0.06339,0.30868 h 0.04961 z m 2.235176,3.04547 v -1.27607 l -0.479557,-0.14056 -0.396875,0.0551 z m -1.606791,-1.6757 q -0.256315,-0.1819 -0.457509,-0.22324 0.06615,0.0772 0.20395,0.22324 z m 1.609547,2.04501 v -0.1378 l -0.683507,-1.05007 q 0.05237,0.17639 0.107487,0.35278 0.06339,0.20946 0.14056,0.339 0.0689,0.11851 0.20395,0.25907 0.115755,0.11851 0.23151,0.23702 z m -0.644921,-0.70555 q -0.115756,-0.32798 -0.380339,-1.0418 -0.135047,-0.0662 -0.272851,-0.12954 -0.159852,-0.0716 -0.289388,-0.0716 -0.05237,0 -0.110243,-0.0138 z" style="stroke-width:0;fill:#0000ff;stroke:#2e2114;stroke-linecap:square;stroke-opacity:1" />
        <path id="model_name" d="M9.78782 8.22887Q9.2523 8.22887 8.8138 7.96111Q8.3753 7.69335 8.12306 7.22769Q7.87083 6.76202 7.87083 6.19546Q7.87083 5.62114 8.12306 5.15547Q8.3753 4.6898 8.80992 4.42204Q9.24454 4.15429 9.78782 4.15429Q10.3233 4.15429 10.7618 4.42204Q11.2003 4.6898 11.4487 5.15547Q11.6971 5.62114 11.6971 6.19546Q11.6971 6.76978 11.4487 7.23157Q11.2003 7.69335 10.7618 7.96111Q10.3233 8.22887 9.78782 8.22887ZM9.78782 4.44921Q9.33768 4.44921 8.96902 4.67816Q8.60037 4.90711 8.39082 5.30293Q8.18127 5.69875 8.18127 6.19546Q8.18127 6.68441 8.39082 7.08022Q8.60037 7.47604 8.96902 7.70499Q9.33768 7.93395 9.78782 7.93395Q10.2457 7.93395 10.6105 7.70887Q10.9753 7.4838 11.1809 7.08411Q11.3866 6.68441 11.3866 6.19546Q11.3866 5.69875 11.1809 5.30293Q10.9753 4.90711 10.6105 4.67816Q10.2457 4.44921 9.78782 4.44921ZM16.3149 6.21098Q16.3149 6.76978 16.0782 7.22381Q15.8415 7.67783 15.4301 7.93783Q15.0188 8.19782 14.5143 8.19782Q14.0487 8.19782 13.6606 7.96499Q13.2726 7.73216 13.0242 7.3053V9.54826Q13.0242 9.61035 12.9815 9.65691Q12.9388 9.70348 12.869 9.70348Q12.8069 9.70348 12.7603 9.65691Q12.7138 9.61035 12.7138 9.54826V4.38712Q12.7138 4.32503 12.7564 4.27846Q12.7991 4.2319 12.869 4.2319Q12.9388 4.2319 12.9815 4.27846Q13.0242 4.32503 13.0242 4.38712V5.10114Q13.257 4.65876 13.6451 4.44533Q14.0331 4.2319 14.5143 4.2319Q15.0266 4.2319 15.4379 4.48801Q15.8492 4.74413 16.0821 5.19428Q16.3149 5.64442 16.3149 6.21098ZM16.0045 6.21098Q16.0045 5.72979 15.8066 5.34562Q15.6087 4.96144 15.2672 4.74413Q14.9257 4.52682 14.4988 4.52682Q14.0642 4.52682 13.7188 4.74025Q13.3735 4.95368 13.1833 5.33786Q12.9932 5.72203 12.9932 6.21098Q12.9932 6.69993 13.1833 7.08411Q13.3735 7.46828 13.7188 7.68559Q14.0642 7.9029 14.4988 7.9029Q14.9257 7.9029 15.2672 7.68559Q15.6087 7.46828 15.8066 7.08022Q16.0045 6.69217 16.0045 6.21098ZM20.6611 4.43369V7.99604Q20.6611 8.05812 20.6146 8.10469Q20.568 8.15126 20.5059 8.15126Q20.4361 8.15126 20.3934 8.10469Q20.3507 8.05812 20.3507 7.99604V7.29754Q20.1567 7.69335 19.7531 7.96111Q19.3495 8.22887 18.8606 8.22887Q18.3483 8.22887 17.937 7.96111Q17.5256 7.69335 17.2928 7.22381Q17.06 6.75426 17.06 6.17217Q17.06 5.59785 17.2967 5.13607Q17.5334 4.67428 17.9447 4.41428Q18.3561 4.15429 18.8606 4.15429Q19.365 4.15429 19.7686 4.41816Q20.1722 4.68204 20.3507 5.12443V4.43369Q20.3507 4.3716 20.3934 4.32503Q20.4361 4.27846 20.5059 4.27846Q20.5758 4.27846 20.6184 4.32503Q20.6611 4.3716 20.6611 4.43369ZM20.3817 6.17217Q20.3817 5.69875 20.1877 5.30293Q19.9937 4.90711 19.6483 4.67816Q19.3029 4.44921 18.8761 4.44921Q18.4492 4.44921 18.1039 4.6704Q17.7585 4.89159 17.5645 5.28353Q17.3704 5.67546 17.3704 6.17217Q17.3704 6.66889 17.5645 7.07246Q17.7585 7.47604 18.1 7.70499Q18.4415 7.93395 18.8761 7.93395Q19.3029 7.93395 19.6483 7.70499Q19.9937 7.47604 20.1877 7.07246Q20.3817 6.66889 20.3817 6.17217ZM22.1435 8.15126Q22.0737 8.15126 22.031 8.10469Q21.9883 8.05812 21.9883 7.99604V2.56326Q21.9883 2.50117 22.0349 2.4546Q22.0814 2.40804 22.1435 2.40804Q22.2134 2.40804 22.256 2.4546Q22.2987 2.50117 22.2987 2.56326V7.99604Q22.2987 8.05812 22.2522 8.10469Q22.2056 8.15126 22.1435 8.15126Z" style="display:inline;stroke:#000000;stroke-width:0.35;stroke-linecap:round;stroke-linejoin:bevel" />
        <path id="pos_text" d="M 1.49,16.00 L 3.99,16.00 M 2.74,14.75 L 2.74,17.25 " style="stroke:#000000;stroke-width:0.5;stroke-linecap:butt;stroke-linejoin:miter;stroke-dasharray:none" fill="none" />
        <path id="neg_text" d="M 26.49,16.00 L 28.99,16.00 " style="stroke:#000000;stroke-width:0.5;stroke-linecap:butt;stroke-linejoin:miter;stroke-dasharray:none" fill="none" />
        <path id="pos_neg_connector" d="M 8.74,16.00 L 21.74,16.00 " style="stroke:#000000;stroke-width:0.25;stroke-linecap:round;stroke-linejoin:bevel;stroke-dasharray:none" fill="none" />
        <path d="M 6.24,30.00 L 24.24,30.00 z " style="stroke:#000000;stroke-width:0.25;stroke-linecap:round;stroke-linejoin:bevel;stroke-dasharray:none" />
        <path d="M 6.24,44.00 L 24.24,44.00 z " style="stroke:#000000;stroke-width:0.25;stroke-linecap:round;stroke-linejoin:bevel;stroke-dasharray:none" />
        <path d="M12.5554 23.6532Q12.5554 23.8507 12.4725 24.0113Q12.3896 24.1718 12.2379 24.2617Q12.0862 24.3517 11.8886 24.3517H11.1196V25.3783Q11.1196 25.4065 11.0966 25.4277Q11.0737 25.4488 11.0455 25.4488Q11.0137 25.4488 10.9926 25.4277Q10.9714 25.4065 10.9714 25.3783V23.0499Q10.9714 23.0217 10.9926 23.0006Q11.0137 22.9794 11.0419 22.9794H11.8886Q12.1885 22.9794 12.3719 23.1664Q12.5554 23.3533 12.5554 23.6532ZM12.4072 23.6532Q12.4072 23.4098 12.2678 23.2651Q12.1285 23.1205 11.8886 23.1205H11.1196V24.2106H11.8886Q12.125 24.2106 12.2661 24.0536Q12.4072 23.8966 12.4072 23.6532ZM14.8625 25.3747Q14.8625 25.4065 14.8431 25.4259Q14.8237 25.4453 14.7955 25.4453Q14.7743 25.4453 14.7637 25.4383Q14.6685 25.3853 14.6121 25.2601Q14.5556 25.1349 14.5556 24.8491Q14.5556 24.5598 14.4004 24.4522Q14.2452 24.3446 14.0406 24.3446H13.2151V25.3783Q13.2151 25.4065 13.1939 25.4277Q13.1727 25.4488 13.141 25.4488Q13.1092 25.4488 13.0881 25.4277Q13.0669 25.4065 13.0669 25.3783V23.0499Q13.0669 23.0217 13.0881 23.0006Q13.1092 22.9794 13.1374 22.9794H14.0688Q14.2734 22.9794 14.4321 23.0623Q14.5909 23.1452 14.6791 23.2898Q14.7673 23.4345 14.7673 23.6179Q14.7673 23.8543 14.642 24.0236Q14.5168 24.1929 14.3157 24.2529Q14.4851 24.3058 14.5944 24.4628Q14.7038 24.6198 14.7038 24.8491Q14.7038 25.0855 14.7338 25.179Q14.7637 25.2724 14.8237 25.3113Q14.8625 25.3359 14.8625 25.3747ZM14.0864 24.2035Q14.3087 24.1824 14.4639 24.0271Q14.6191 23.8719 14.6191 23.6214Q14.6191 23.4027 14.4639 23.2616Q14.3087 23.1205 14.0511 23.1205H13.2151V24.2035ZM16.4112 25.4841Q16.069 25.4841 15.8009 25.3236Q15.5328 25.1631 15.3829 24.8738Q15.2329 24.5845 15.2329 24.2141Q15.2329 23.8437 15.3829 23.5544Q15.5328 23.2651 15.8009 23.1046Q16.069 22.9441 16.4112 22.9441Q16.7534 22.9441 17.0215 23.1046Q17.2896 23.2651 17.4396 23.5544Q17.5895 23.8437 17.5895 24.2141Q17.5895 24.5845 17.4396 24.8738Q17.2896 25.1631 17.0215 25.3236Q16.7534 25.4841 16.4112 25.4841ZM16.4112 23.0852Q16.1114 23.0852 15.8768 23.2263Q15.6422 23.3674 15.5116 23.625Q15.3811 23.8825 15.3811 24.2141Q15.3811 24.5457 15.5116 24.8032Q15.6422 25.0608 15.8768 25.2019Q16.1114 25.343 16.4112 25.343Q16.7111 25.343 16.9457 25.2019Q17.1803 25.0608 17.3108 24.8032Q17.4413 24.5457 17.4413 24.2141Q17.4413 23.8825 17.3108 23.625Q17.1803 23.3674 16.9457 23.2263Q16.7111 23.0852 16.4112 23.0852ZM19.7026 23.6532Q19.7026 23.8507 19.6197 24.0113Q19.5368 24.1718 19.3851 24.2617Q19.2334 24.3517 19.0359 24.3517H18.2668V25.3783Q18.2668 25.4065 18.2439 25.4277Q18.221 25.4488 18.1928 25.4488Q18.161 25.4488 18.1398 25.4277Q18.1187 25.4065 18.1187 25.3783V23.0499Q18.1187 23.0217 18.1398 23.0006Q18.161 22.9794 18.1892 22.9794H19.0359Q19.3358 22.9794 19.5192 23.1664Q19.7026 23.3533 19.7026 23.6532ZM19.5545 23.6532Q19.5545 23.4098 19.4151 23.2651Q19.2758 23.1205 19.0359 23.1205H18.2668V24.2106H19.0359Q19.2722 24.2106 19.4134 24.0536Q19.5545 23.8966 19.5545 23.6532Z" style="stroke:#000000;stroke-width:0.25;stroke-linecap:round;stroke-linejoin:bevel" />
        <path d="M10.6856 39.4488Q10.6504 39.4488 10.631 39.4277Q10.6116 39.4065 10.6116 39.3747V37.0535Q10.6116 37.0217 10.6327 37.0006Q10.6539 36.9794 10.6856 36.9794Q10.7174 36.9794 10.7386 37.0006Q10.7597 37.0217 10.7597 37.0535V39.3747Q10.7562 39.4065 10.735 39.4277Q10.7139 39.4488 10.6856 39.4488ZM13.3174 37.0464V39.3712Q13.3174 39.41 13.2962 39.4294Q13.275 39.4488 13.2433 39.4488Q13.208 39.4488 13.1868 39.4206L11.5993 37.251V39.3889Q11.5993 39.4136 11.5799 39.4312Q11.5605 39.4488 11.5323 39.4488Q11.5006 39.4488 11.4829 39.4312Q11.4653 39.4136 11.4653 39.3889V37.0499Q11.4653 37.0147 11.4847 36.997Q11.5041 36.9794 11.5288 36.9794Q11.5605 36.9794 11.5817 37.0041L13.1833 39.1878V37.0464Q13.1833 37.0182 13.2027 36.9988Q13.2221 36.9794 13.2503 36.9794Q13.2821 36.9794 13.2997 36.9988Q13.3174 37.0182 13.3174 37.0464ZM15.6492 37.0464Q15.6492 37.0782 15.6298 37.0958Q15.6104 37.1134 15.5787 37.1134H14.792V39.3783Q14.792 39.4065 14.7708 39.4277Q14.7496 39.4488 14.7214 39.4488Q14.6897 39.4488 14.6703 39.4277Q14.6509 39.4065 14.6509 39.3783V37.1134H13.8642Q13.8359 37.1134 13.8148 37.094Q13.7936 37.0746 13.7936 37.0464Q13.7936 37.0182 13.8148 36.9988Q13.8359 36.9794 13.8642 36.9794H15.5787Q15.6069 36.9794 15.6281 36.9988Q15.6492 37.0182 15.6492 37.0464ZM17.5966 39.3783Q17.5966 39.41 17.5754 39.4294Q17.5542 39.4488 17.526 39.4488H16.196Q16.1678 39.4488 16.1466 39.4277Q16.1255 39.4065 16.1255 39.3783V37.0499Q16.1255 37.0217 16.1466 37.0006Q16.1678 36.9794 16.196 36.9794H17.526Q17.5542 36.9794 17.5754 37.0006Q17.5966 37.0217 17.5966 37.0499Q17.5966 37.0817 17.5754 37.1011Q17.5542 37.1205 17.526 37.1205H16.2736V38.1048H17.3673Q17.3955 38.1048 17.4166 38.1259Q17.4378 38.1471 17.4378 38.1753Q17.4378 38.2071 17.4166 38.2265Q17.3955 38.2459 17.3673 38.2459H16.2736V39.3077H17.526Q17.5542 39.3077 17.5754 39.3289Q17.5966 39.3501 17.5966 39.3783ZM19.9919 38.3023V39.1878Q19.9919 39.2301 19.9602 39.2513Q19.7979 39.3606 19.6056 39.4224Q19.4134 39.4841 19.2158 39.4841Q18.8524 39.4841 18.5649 39.3201Q18.2774 39.156 18.1134 38.8667Q17.9493 38.5775 17.9493 38.2141Q17.9493 37.8507 18.1134 37.5615Q18.2774 37.2722 18.5649 37.1082Q18.8524 36.9441 19.2158 36.9441Q19.4134 36.9441 19.5915 36.9917Q19.7697 37.0394 19.9108 37.1346Q19.9425 37.1558 19.9425 37.1946Q19.9425 37.2263 19.9196 37.2457Q19.8967 37.2651 19.8755 37.2651Q19.8579 37.2651 19.8296 37.251Q19.5333 37.0852 19.2158 37.0852Q18.8912 37.0852 18.6373 37.2299Q18.3833 37.3745 18.2404 37.632Q18.0975 37.8896 18.0975 38.2141Q18.0975 38.5387 18.2404 38.7962Q18.3833 39.0537 18.6373 39.1984Q18.8912 39.343 19.2158 39.343Q19.3781 39.343 19.5457 39.2918Q19.7132 39.2407 19.8508 39.156V38.3729H19.2158Q19.1876 38.3729 19.1664 38.3517Q19.1453 38.3305 19.1453 38.3023Q19.1453 38.2706 19.1664 38.2512Q19.1876 38.2317 19.2158 38.2317H19.9214Q19.9531 38.2317 19.9725 38.2529Q19.9919 38.2741 19.9919 38.3023Z" style="stroke:#000000;stroke-width:0.25;stroke-linecap:round;stroke-linejoin:bevel" />
        <path id="control_gate_connector" d="M 8.74,114.00 L 21.74,114.00 " style="stroke:#000000;stroke-width:0.25;stroke-linecap:round;stroke-linejoin:bevel;stroke-dasharray:none" fill="none" />
        <path id="control_text" d="M6.64097 107.24Q6.64097 107.269 6.62686 107.286Q6.60569 107.315 6.57394 107.315Q6.55983 107.315 6.53161 107.3Q6.20353 107.078 5.83664 107.078Q5.54031 107.078 5.2916 107.225Q5.04289 107.371 4.89825 107.63Q4.75361 107.89 4.75361 108.214Q4.75361 108.539 4.89825 108.798Q5.04289 109.057 5.2916 109.204Q5.54031 109.35 5.83664 109.35Q6.20706 109.35 6.52808 109.131Q6.54572 109.117 6.57042 109.117Q6.60569 109.117 6.62686 109.145Q6.64097 109.163 6.64097 109.188Q6.64097 109.223 6.61275 109.244Q6.47517 109.343 6.25821 109.414Q6.04125 109.484 5.83664 109.484Q5.5015 109.484 5.21928 109.318Q4.93706 109.153 4.77125 108.861Q4.60544 108.57 4.60544 108.214Q4.60544 107.858 4.77125 107.567Q4.93706 107.276 5.21928 107.11Q5.5015 106.944 5.83664 106.944Q6.04831 106.944 6.24763 107.008Q6.44694 107.071 6.60922 107.184Q6.64097 107.209 6.64097 107.24ZM8.74353 107.046Q8.74353 107.078 8.72413 107.096Q8.70472 107.113 8.67297 107.113H7.88628V109.378Q7.88628 109.407 7.86511 109.428Q7.84394 109.449 7.81572 109.449Q7.78397 109.449 7.76457 109.428Q7.74517 109.407 7.74517 109.378V107.113H6.95847Q6.93025 107.113 6.90908 107.094Q6.88792 107.075 6.88792 107.046Q6.88792 107.018 6.90908 106.999Q6.93025 106.979 6.95847 106.979H8.67297Q8.70119 106.979 8.72236 106.999Q8.74353 107.018 8.74353 107.046ZM11.0154 109.375Q11.0154 109.407 10.996 109.426Q10.9766 109.445 10.9484 109.445Q10.9272 109.445 10.9166 109.438Q10.8214 109.385 10.7649 109.26Q10.7085 109.135 10.7085 108.849Q10.7085 108.56 10.5533 108.452Q10.3981 108.345 10.1934 108.345H9.36794V109.378Q9.36794 109.407 9.34678 109.428Q9.32561 109.449 9.29386 109.449Q9.26211 109.449 9.24094 109.428Q9.21978 109.407 9.21978 109.378V107.05Q9.21978 107.022 9.24094 107.001Q9.26211 106.979 9.29033 106.979H10.2217Q10.4263 106.979 10.585 107.062Q10.7438 107.145 10.832 107.29Q10.9202 107.434 10.9202 107.618Q10.9202 107.854 10.7949 108.024Q10.6697 108.193 10.4686 108.253Q10.6379 108.306 10.7473 108.463Q10.8567 108.62 10.8567 108.849Q10.8567 109.085 10.8867 109.179Q10.9166 109.272 10.9766 109.311Q11.0154 109.336 11.0154 109.375ZM10.2393 108.204Q10.4616 108.182 10.6168 108.027Q10.772 107.872 10.772 107.621Q10.772 107.403 10.6168 107.262Q10.4616 107.121 10.204 107.121H9.36794V108.204ZM12.998 109.378Q12.998 109.41 12.9769 109.429Q12.9557 109.449 12.9275 109.449H11.6328Q11.601 109.449 11.5816 109.428Q11.5622 109.407 11.5622 109.378V107.05Q11.5622 107.022 11.5834 107.001Q11.6046 106.979 11.6363 106.979Q11.6681 106.979 11.6892 107.001Q11.7104 107.022 11.7104 107.05V109.308H12.9275Q12.9557 109.308 12.9769 109.329Q12.998 109.35 12.998 109.378Z" style="stroke:#000000;stroke-width:0.25;stroke-linecap:round;stroke-linejoin:bevel" />
        <path id="gate_text" d="M19.5387 108.302V109.188Q19.5387 109.23 19.5069 109.251Q19.3446 109.361 19.1524 109.422Q18.9601 109.484 18.7626 109.484Q18.3992 109.484 18.1117 109.32Q17.8242 109.156 17.6601 108.867Q17.4961 108.577 17.4961 108.214Q17.4961 107.851 17.6601 107.561Q17.8242 107.272 18.1117 107.108Q18.3992 106.944 18.7626 106.944Q18.9601 106.944 19.1383 106.992Q19.3164 107.039 19.4575 107.135Q19.4893 107.156 19.4893 107.195Q19.4893 107.226 19.4663 107.246Q19.4434 107.265 19.4223 107.265Q19.4046 107.265 19.3764 107.251Q19.0801 107.085 18.7626 107.085Q18.438 107.085 18.184 107.23Q17.93 107.375 17.7871 107.632Q17.6443 107.89 17.6443 108.214Q17.6443 108.539 17.7871 108.796Q17.93 109.054 18.184 109.198Q18.438 109.343 18.7626 109.343Q18.9248 109.343 19.0924 109.292Q19.26 109.241 19.3976 109.156V108.373H18.7626Q18.7343 108.373 18.7132 108.352Q18.692 108.331 18.692 108.302Q18.692 108.271 18.7132 108.251Q18.7343 108.232 18.7626 108.232H19.4681Q19.4999 108.232 19.5193 108.253Q19.5387 108.274 19.5387 108.302ZM21.934 109.382Q21.934 109.414 21.9129 109.431Q21.8917 109.449 21.8599 109.449Q21.8353 109.449 21.8158 109.436Q21.7964 109.424 21.7894 109.403L21.4931 108.676L21.4966 108.683H20.3148L20.029 109.403Q20.0114 109.449 19.9655 109.449Q19.9338 109.449 19.9144 109.431Q19.895 109.414 19.8914 109.389Q19.8879 109.375 19.895 109.354L20.8439 107.018Q20.8545 106.99 20.8704 106.981Q20.8863 106.972 20.911 106.972Q20.9639 106.972 20.9815 107.018L21.9305 109.354Q21.934 109.364 21.934 109.382ZM20.3712 108.542H21.4401L20.9004 107.212ZM24.0366 107.046Q24.0366 107.078 24.0172 107.096Q23.9978 107.113 23.966 107.113H23.1793V109.378Q23.1793 109.407 23.1582 109.428Q23.137 109.449 23.1088 109.449Q23.077 109.449 23.0576 109.428Q23.0382 109.407 23.0382 109.378V107.113H22.2515Q22.2233 107.113 22.2021 107.094Q22.181 107.075 22.181 107.046Q22.181 107.018 22.2021 106.999Q22.2233 106.979 22.2515 106.979H23.966Q23.9943 106.979 24.0154 106.999Q24.0366 107.018 24.0366 107.046ZM25.9839 109.378Q25.9839 109.41 25.9628 109.429Q25.9416 109.449 25.9134 109.449H24.5834Q24.5552 109.449 24.534 109.428Q24.5128 109.407 24.5128 109.378V107.05Q24.5128 107.022 24.534 107.001Q24.5552 106.979 24.5834 106.979H25.9134Q25.9416 106.979 25.9628 107.001Q25.9839 107.022 25.9839 107.05Q25.9839 107.082 25.9628 107.101Q25.9416 107.121 25.9134 107.121H24.661V108.105H25.7546Q25.7828 108.105 25.804 108.126Q25.8252 108.147 25.8252 108.175Q25.8252 108.207 25.804 108.226Q25.7828 108.246 25.7546 108.246H24.661V109.308H25.9134Q25.9416 109.308 25.9628 109.329Q25.9839 109.35 25.9839 109.378Z" style="stroke:#000000;stroke-width:0.25;stroke-linecap:round;stroke-linejoin:bevel" />
    </g>
</svg>
