<?xml version="1.0" encoding="utf-8"?>
<svg xmlns="http://www.w3.org/2000/svg" width="30.48mm" height="128.50mm" viewBox="0 0 30.48 128.50">
    <g id="PanelLayer">
        <rect id="border_rect" width="30.48" height="128.5" x="0" y="0" style="display:inline;fill:#4f8df2;fill-opacity:1;fill-rule:nonzero;stroke:#5021d4;stroke-width:0.7;stroke-linecap:round;stroke-linejoin:round;stroke-dasharray:none;stroke-opacity:1;image-rendering:auto" />
        <path id="sapphire_gemstone" d="m 17.955,122.900 q 0,0.34175 -0.242534,0.63114 -0.0441,0.0524 -0.20395,0.21497 -0.187413,0.19017 -0.785481,0.81304 l -1.444183,1.51309 q -0.01929,0.003 -0.0441,0.003 -0.02756,0 -0.04134,-0.003 -0.08268,-0.0827 -0.647678,-0.67524 -0.468532,-0.47404 -0.934309,-0.94809 -0.556727,-0.56775 -0.89848,-0.98116 -0.132292,-0.15985 -0.168121,-0.29766 -0.02756,-0.10197 -0.02756,-0.34175 0,-0.11024 0.07166,-0.28939 0.06614,-0.16536 0.140559,-0.26458 0.118512,-0.1571 0.42168,-0.42444 0.283875,-0.2508 0.474044,-0.37482 0.272852,-0.17915 0.818555,-0.36656 0.09646,-0.0331 0.110243,-0.0331 h 1.3615 q 0.01102,0 0.104731,0.0331 0.567751,0.20119 0.824066,0.36656 0.165365,0.10473 0.474045,0.37758 0.322461,0.28388 0.421679,0.42168 0.214974,0.2949 0.214974,0.62563 z m -0.16812,-0.27285 q -0.03307,-0.10749 -0.135048,-0.30868 -0.07166,-0.0937 -0.209462,-0.19844 -0.118511,-0.0854 -0.234266,-0.17088 0.245291,0.3638 0.578776,0.678 z m -0.573264,-0.52366 -0.358289,-0.44648 v 0.41065 z m 0.636653,0.75792 q 0,-0.0524 -0.341753,-0.39412 l 0.228754,0.7028 h 0.04961 q 0.06339,-0.21773 0.06339,-0.30868 z m -0.23151,0.27285 -0.316948,-0.90399 -0.410655,-0.0634 -0.159853,0.61461 z m 0.0028,0.15434 -0.771701,-0.3197 h -0.03032 l 0.344509,0.60634 q 0.07993,-0.003 0.234266,-0.0469 0.02481,-0.0138 0.223242,-0.23978 z m -0.857139,-1.05006 -0.719335,0.28388 0.60358,0.22599 z m 0,-0.16261 v -0.51538 l -0.917773,-0.38034 h -1.223697 l -0.917772,0.38034 v 0.51538 l 0.89848,0.4079 h 1.254014 z m 0.573264,1.53789 q -0.0689,0.011 -0.198438,0.0524 -0.08544,0.0551 -0.259071,0.16261 0.01929,0 0.06339,0.003 0.04134,0 0.06339,0 0.118511,0 0.190169,-0.0689 0.07166,-0.0717 0.14056,-0.14883 z m -0.289388,0.003 -0.347266,-0.63114 -0.363801,0.87918 q 0.0248,-0.0165 0.06615,-0.0165 0.03032,0 0.08544,0.011 0.05788,0.008 0.08819,0.008 0.04961,0 0.228754,-0.10749 0.228754,-0.1378 0.242535,-0.14331 z m -0.440972,-0.74139 -0.683507,-0.2756 -0.592556,0.54845 0.903993,0.65595 z m -0.854383,-0.28387 h -1.036284 l 0.523654,0.47404 z m 0.749652,1.36701 q -0.228754,-0.0303 -0.228754,-0.0303 -0.03583,0 -0.272851,0.0937 l 0.190169,0.0193 q 0.01102,0 0.311436,-0.0827 z m -0.388606,-0.0882 -0.843359,-0.61185 v 0.67524 l 0.471289,0.0827 z m 0.854383,0.0496 q -0.09922,0.006 -0.2949,0.0386 -0.01102,0.003 -0.377583,0.17639 -0.129535,0.34726 -0.380338,1.0418 z m -2.543857,-1.39733 -0.719335,-0.28388 0.124023,0.51814 z m -0.802018,-0.45476 v -0.41065 l -0.366557,0.44648 z m 1.515841,1.07212 -0.592556,-0.54019 -0.683506,0.2756 0.380338,0.9288 z m 0.369314,0.94257 q -0.03307,-0.003 -0.135047,-0.0248 -0.08544,-0.0165 -0.137804,-0.0165 -0.05237,0 -0.137804,0.0165 -0.101975,0.0221 -0.135047,0.0248 0.264583,0.0469 0.272851,0.0469 0.0083,0 0.272851,-0.0469 z m -0.30868,-0.1378 v -0.68626 l -0.843359,0.61185 0.37207,0.14607 z m 0.950846,0.20671 -0.396875,-0.0551 -0.479557,0.14056 v 1.27607 z m -2.888366,-2.20211 q -0.118512,0.0854 -0.234267,0.17364 -0.146072,0.10748 -0.209461,0.19568 -0.0441,0.10473 -0.135048,0.31419 0.369314,-0.3638 0.578776,-0.68351 z m 0.476801,0.83234 -0.159853,-0.61461 -0.410655,0.0634 -0.316948,0.90399 z m 0.394118,1.08313 -0.363802,-0.87918 -0.355533,0.63114 q 0.43546,0.2508 0.451996,0.2508 0.09095,0 0.267339,-0.003 z m 1.821765,0.82958 q -0.132291,0.21222 -0.405143,0.6339 -0.07717,0.10749 -0.220486,0.32797 -0.05788,0.10473 -0.05512,0.226 0.159852,-0.15158 0.432704,-0.49609 0.07717,-0.12954 0.140559,-0.339 0.05512,-0.17639 0.107486,-0.35278 z m -1.493792,-0.66146 -0.270095,-0.0882 -0.0083,-0.011 q -0.02481,0 -0.107487,0.011 -0.06615,0.006 -0.107487,0.006 0.272851,0.091 0.311436,0.091 0.02481,0 0.181901,-0.008 z m -0.810286,-1.06384 h -0.03032 l -0.7717,0.3197 q 0.06615,0.0965 0.223242,0.23978 0.07717,0.0138 0.234266,0.0469 z m -0.689018,-0.50161 q -0.341754,0.34727 -0.341754,0.39412 0,0.0799 0.06339,0.30868 h 0.04961 z m 2.235176,3.04547 v -1.27607 l -0.479557,-0.14056 -0.396875,0.0551 z m -1.606791,-1.6757 q -0.256315,-0.1819 -0.457509,-0.22324 0.06615,0.0772 0.20395,0.22324 z m 1.609547,2.04501 v -0.1378 l -0.683507,-1.05007 q 0.05237,0.17639 0.107487,0.35278 0.06339,0.20946 0.14056,0.339 0.0689,0.11851 0.20395,0.25907 0.115755,0.11851 0.23151,0.23702 z m -0.644921,-0.70555 q -0.115756,-0.32798 -0.380339,-1.0418 -0.135047,-0.0662 -0.272851,-0.12954 -0.159852,-0.0716 -0.289388,-0.0716 -0.05237,0 -0.110243,-0.0138 z" style="stroke-width:0;fill:#0000ff;stroke:#2e2114;stroke-linecap:square;stroke-opacity:1" />
        <path id="model_name" d="M9.78782 8.22887Q9.2523 8.22887 8.8138 7.96111Q8.3753 7.69335 8.12306 7.22769Q7.87083 6.76202 7.87083 6.19546Q7.87083 5.62114 8.12306 5.15547Q8.3753 4.6898 8.80992 4.42204Q9.24454 4.15429 9.78782 4.15429Q10.3233 4.15429 10.7618 4.42204Q11.2003 4.6898 11.4487 5.15547Q11.6971 5.62114 11.6971 6.19546Q11.6971 6.76978 11.4487 7.23157Q11.2003 7.69335 10.7618 7.96111Q10.3233 8.22887 9.78782 8.22887ZM9.78782 4.44921Q9.33768 4.44921 8.96902 4.67816Q8.60037 4.90711 8.39082 5.30293Q8.18127 5.69875 8.18127 6.19546Q8.18127 6.68441 8.39082 7.08022Q8.60037 7.47604 8.96902 7.70499Q9.33768 7.93395 9.78782 7.93395Q10.2457 7.93395 10.6105 7.70887Q10.9753 7.4838 11.1809 7.08411Q11.3866 6.68441 11.3866 6.19546Q11.3866 5.69875 11.1809 5.30293Q10.9753 4.90711 10.6105 4.67816Q10.2457 4.44921 9.78782 4.44921ZM16.3149 6.21098Q16.3149 6.76978 16.0782 7.22381Q15.8415 7.67783 15.4301 7.93783Q15.0188 8.19782 14.5143 8.19782Q14.0487 8.19782 13.6606 7.96499Q13.2726 7.73216 13.0242 7.3053V9.54826Q13.0242 9.61035 12.9815 9.65691Q12.9388 9.70348 12.869 9.70348Q12.8069 9.70348 12.7603 9.65691Q12.7138 9.61035 12.7138 9.54826V4.38712Q12.7138 4.32503 12.7564 4.27846Q12.7991 4.2319 12.869 4.2319Q12.9388 4.2319 12.9815 4.27846Q13.0242 4.32503 13.0242 4.38712V5.10114Q13.257 4.65876 13.6451 4.44533Q14.0331 4.2319 14.5143 4.2319Q15.0266 4.2319 15.4379 4.48801Q15.8492 4.74413 16.0821 5.19428Q16.3149 5.64442 16.3149 6.21098ZM16.0045 6.21098Q16.0045 5.72979 15.8066 5.34562Q15.6087 4.96144 15.2672 4.74413Q14.9257 4.52682 14.4988 4.52682Q14.0642 4.52682 13.7188 4.74025Q13.3735 4.95368 13.1833 5.33786Q12.9932 5.72203 12.9932 6.21098Q12.9932 6.69993 13.1833 7.08411Q13.3735 7.46828 13.7188 7.68559Q14.0642 7.9029 14.4988 7.9029Q14.9257 7.9029 15.2672 7.68559Q15.6087 7.46828 15.8066 7.08022Q16.0045 6.69217 16.0045 6.21098ZM20.6611 4.43369V7.99604Q20.6611 8.05812 20.6146 8.10469Q20.568 8.15126 20.5059 8.15126Q20.4361 8.15126 20.3934 8.10469Q20.3507 8.05812 20.3507 7.99604V7.29754Q20.1567 7.69335 19.7531 7.96111Q19.3495 8.22887 18.8606 8.22887Q18.3483 8.22887 17.937 7.96111Q17.5256 7.69335 17.2928 7.22381Q17.06 6.75426 17.06 6.17217Q17.06 5.59785 17.2967 5.13607Q17.5334 4.67428 17.9447 4.41428Q18.3561 4.15429 18.8606 4.15429Q19.365 4.15429 19.7686 4.41816Q20.1722 4.68204 20.3507 5.12443V4.43369Q20.3507 4.3716 20.3934 4.32503Q20.4361 4.27846 20.5059 4.27846Q20.5758 4.27846 20.6184 4.32503Q20.6611 4.3716 20.6611 4.43369ZM20.3817 6.17217Q20.3817 5.69875 20.1877 5.30293Q19.9937 4.90711 19.6483 4.67816Q19.3029 4.44921 18.8761 4.44921Q18.4492 4.44921 18.1039 4.6704Q17.7585 4.89159 17.5645 5.28353Q17.3704 5.67546 17.3704 6.17217Q17.3704 6.66889 17.5645 7.07246Q17.7585 7.47604 18.1 7.70499Q18.4415 7.93395 18.8761 7.93395Q19.3029 7.93395 19.6483 7.70499Q19.9937 7.47604 20.1877 7.07246Q20.3817 6.66889 20.3817 6.17217ZM22.1435 8.15126Q22.0737 8.15126 22.031 8.10469Q21.9883 8.05812 21.9883 7.99604V2.56326Q21.9883 2.50117 22.0349 2.4546Q22.0814 2.40804 22.1435 2.40804Q22.2134 2.40804 22.256 2.4546Q22.2987 2.50117 22.2987 2.56326V7.99604Q22.2987 8.05812 22.2522 8.10469Q22.2056 8.15126 22.1435 8.15126Z" style="display:inline;stroke:#000000;stroke-width:0.35;stroke-linecap:round;stroke-linejoin:bevel" />
        <path id="pos_text" d="M 20.24,16.00 L 23.24,16.00 M 21.74,14.50 L 21.74,17.50 " style="stroke:#000000;stroke-width:0.5;stroke-linecap:butt;stroke-linejoin:miter;stroke-dasharray:none" fill="none" />
        <path id="neg_text" d="M 20.24,28.25 L 23.24,28.25 " style="stroke:#000000;stroke-width:0.5;stroke-linecap:butt;stroke-linejoin:miter;stroke-dasharray:none" fill="none" />
        <path d="M12.5554 38.7157Q12.5554 38.9132 12.4725 39.0738Q12.3896 39.2343 12.2379 39.3242Q12.0862 39.4142 11.8886 39.4142H11.1196V40.4408Q11.1196 40.469 11.0966 40.4902Q11.0737 40.5113 11.0455 40.5113Q11.0137 40.5113 10.9926 40.4902Q10.9714 40.469 10.9714 40.4408V38.1124Q10.9714 38.0842 10.9926 38.0631Q11.0137 38.0419 11.0419 38.0419H11.8886Q12.1885 38.0419 12.3719 38.2289Q12.5554 38.4158 12.5554 38.7157ZM12.4072 38.7157Q12.4072 38.4723 12.2678 38.3276Q12.1285 38.183 11.8886 38.183H11.1196V39.2731H11.8886Q12.125 39.2731 12.2661 39.1161Q12.4072 38.9591 12.4072 38.7157ZM14.8625 40.4372Q14.8625 40.469 14.8431 40.4884Q14.8237 40.5078 14.7955 40.5078Q14.7743 40.5078 14.7637 40.5007Q14.6685 40.4478 14.6121 40.3226Q14.5556 40.1974 14.5556 39.9116Q14.5556 39.6223 14.4004 39.5147Q14.2452 39.4071 14.0406 39.4071H13.2151V40.4408Q13.2151 40.469 13.1939 40.4902Q13.1727 40.5113 13.141 40.5113Q13.1092 40.5113 13.0881 40.4902Q13.0669 40.469 13.0669 40.4408V38.1124Q13.0669 38.0842 13.0881 38.0631Q13.1092 38.0419 13.1374 38.0419H14.0688Q14.2734 38.0419 14.4321 38.1248Q14.5909 38.2077 14.6791 38.3523Q14.7673 38.497 14.7673 38.6804Q14.7673 38.9168 14.642 39.0861Q14.5168 39.2554 14.3157 39.3154Q14.4851 39.3683 14.5944 39.5253Q14.7038 39.6823 14.7038 39.9116Q14.7038 40.148 14.7338 40.2415Q14.7637 40.3349 14.8237 40.3737Q14.8625 40.3984 14.8625 40.4372ZM14.0864 39.266Q14.3087 39.2449 14.4639 39.0896Q14.6191 38.9344 14.6191 38.6839Q14.6191 38.4652 14.4639 38.3241Q14.3087 38.183 14.0511 38.183H13.2151V39.266ZM16.4112 40.5466Q16.069 40.5466 15.8009 40.3861Q15.5328 40.2256 15.3829 39.9363Q15.2329 39.647 15.2329 39.2766Q15.2329 38.9062 15.3829 38.6169Q15.5328 38.3276 15.8009 38.1671Q16.069 38.0066 16.4112 38.0066Q16.7534 38.0066 17.0215 38.1671Q17.2896 38.3276 17.4396 38.6169Q17.5895 38.9062 17.5895 39.2766Q17.5895 39.647 17.4396 39.9363Q17.2896 40.2256 17.0215 40.3861Q16.7534 40.5466 16.4112 40.5466ZM16.4112 38.1477Q16.1114 38.1477 15.8768 38.2888Q15.6422 38.4299 15.5116 38.6875Q15.3811 38.945 15.3811 39.2766Q15.3811 39.6082 15.5116 39.8657Q15.6422 40.1233 15.8768 40.2644Q16.1114 40.4055 16.4112 40.4055Q16.7111 40.4055 16.9457 40.2644Q17.1803 40.1233 17.3108 39.8657Q17.4413 39.6082 17.4413 39.2766Q17.4413 38.945 17.3108 38.6875Q17.1803 38.4299 16.9457 38.2888Q16.7111 38.1477 16.4112 38.1477ZM19.7026 38.7157Q19.7026 38.9132 19.6197 39.0738Q19.5368 39.2343 19.3851 39.3242Q19.2334 39.4142 19.0359 39.4142H18.2668V40.4408Q18.2668 40.469 18.2439 40.4902Q18.221 40.5113 18.1928 40.5113Q18.161 40.5113 18.1398 40.4902Q18.1187 40.469 18.1187 40.4408V38.1124Q18.1187 38.0842 18.1398 38.0631Q18.161 38.0419 18.1892 38.0419H19.0359Q19.3358 38.0419 19.5192 38.2289Q19.7026 38.4158 19.7026 38.7157ZM19.5545 38.7157Q19.5545 38.4723 19.4151 38.3276Q19.2758 38.183 19.0359 38.183H18.2668V39.2731H19.0359Q19.2722 39.2731 19.4134 39.1161Q19.5545 38.9591 19.5545 38.7157Z" style="stroke:#000000;stroke-width:0.25;stroke-linecap:round;stroke-linejoin:bevel" />
        <path d="M 15.24,48.46 L 10.24,59.46 z L 20.24,59.46 z " style="stroke:#000000;stroke-width:0.25;stroke-linecap:round;stroke-linejoin:bevel;stroke-dasharray:none" />
        <path d="M10.6856 69.2988Q10.6504 69.2988 10.631 69.2777Q10.6116 69.2565 10.6116 69.2248V66.9035Q10.6116 66.8717 10.6327 66.8506Q10.6539 66.8294 10.6856 66.8294Q10.7174 66.8294 10.7386 66.8506Q10.7597 66.8717 10.7597 66.9035V69.2248Q10.7562 69.2565 10.735 69.2777Q10.7139 69.2988 10.6856 69.2988ZM13.3174 66.8964V69.2212Q13.3174 69.26 13.2962 69.2794Q13.275 69.2988 13.2433 69.2988Q13.208 69.2988 13.1868 69.2706L11.5993 67.101V69.2389Q11.5993 69.2636 11.5799 69.2812Q11.5605 69.2988 11.5323 69.2988Q11.5006 69.2988 11.4829 69.2812Q11.4653 69.2636 11.4653 69.2389V66.8999Q11.4653 66.8647 11.4847 66.847Q11.5041 66.8294 11.5288 66.8294Q11.5605 66.8294 11.5817 66.8541L13.1833 69.0378V66.8964Q13.1833 66.8682 13.2027 66.8488Q13.2221 66.8294 13.2503 66.8294Q13.2821 66.8294 13.2997 66.8488Q13.3174 66.8682 13.3174 66.8964ZM15.6492 66.8964Q15.6492 66.9282 15.6298 66.9458Q15.6104 66.9634 15.5787 66.9634H14.792V69.2283Q14.792 69.2565 14.7708 69.2777Q14.7496 69.2988 14.7214 69.2988Q14.6897 69.2988 14.6703 69.2777Q14.6509 69.2565 14.6509 69.2283V66.9634H13.8642Q13.8359 66.9634 13.8148 66.944Q13.7936 66.9246 13.7936 66.8964Q13.7936 66.8682 13.8148 66.8488Q13.8359 66.8294 13.8642 66.8294H15.5787Q15.6069 66.8294 15.6281 66.8488Q15.6492 66.8682 15.6492 66.8964ZM17.5966 69.2283Q17.5966 69.26 17.5754 69.2794Q17.5542 69.2988 17.526 69.2988H16.196Q16.1678 69.2988 16.1466 69.2777Q16.1255 69.2565 16.1255 69.2283V66.8999Q16.1255 66.8717 16.1466 66.8506Q16.1678 66.8294 16.196 66.8294H17.526Q17.5542 66.8294 17.5754 66.8506Q17.5966 66.8717 17.5966 66.8999Q17.5966 66.9317 17.5754 66.9511Q17.5542 66.9705 17.526 66.9705H16.2736V67.9548H17.3673Q17.3955 67.9548 17.4166 67.9759Q17.4378 67.9971 17.4378 68.0253Q17.4378 68.0571 17.4166 68.0765Q17.3955 68.0959 17.3673 68.0959H16.2736V69.1577H17.526Q17.5542 69.1577 17.5754 69.1789Q17.5966 69.2001 17.5966 69.2283ZM19.9919 68.1523V69.0378Q19.9919 69.0801 19.9602 69.1013Q19.7979 69.2106 19.6056 69.2724Q19.4134 69.3341 19.2158 69.3341Q18.8524 69.3341 18.5649 69.1701Q18.2774 69.006 18.1134 68.7168Q17.9493 68.4275 17.9493 68.0641Q17.9493 67.7008 18.1134 67.4115Q18.2774 67.1222 18.5649 66.9582Q18.8524 66.7941 19.2158 66.7941Q19.4134 66.7941 19.5915 66.8417Q19.7697 66.8894 19.9108 66.9846Q19.9425 67.0058 19.9425 67.0446Q19.9425 67.0763 19.9196 67.0957Q19.8967 67.1151 19.8755 67.1151Q19.8579 67.1151 19.8296 67.101Q19.5333 66.9352 19.2158 66.9352Q18.8912 66.9352 18.6373 67.0799Q18.3833 67.2245 18.2404 67.482Q18.0975 67.7396 18.0975 68.0641Q18.0975 68.3887 18.2404 68.6462Q18.3833 68.9037 18.6373 69.0484Q18.8912 69.193 19.2158 69.193Q19.3781 69.193 19.5457 69.1418Q19.7132 69.0907 19.8508 69.006V68.2229H19.2158Q19.1876 68.2229 19.1664 68.2017Q19.1453 68.1805 19.1453 68.1523Q19.1453 68.1206 19.1664 68.1012Q19.1876 68.0818 19.2158 68.0818H19.9214Q19.9531 68.0818 19.9725 68.1029Q19.9919 68.1241 19.9919 68.1523Z" style="stroke:#000000;stroke-width:0.25;stroke-linecap:round;stroke-linejoin:bevel" />
        <path d="M 15.24,77.25 L 10.24,88.25 z L 20.24,88.25 z " style="stroke:#000000;stroke-width:0.25;stroke-linecap:round;stroke-linejoin:bevel;stroke-dasharray:none" />
        <path id="control_text" d="M9.78422 113.04Q9.78422 113.069 9.77011 113.086Q9.74894 113.115 9.71719 113.115Q9.70308 113.115 9.67486 113.1Q9.34678 112.878 8.97989 112.878Q8.68356 112.878 8.43485 113.025Q8.18614 113.171 8.0415 113.43Q7.89686 113.69 7.89686 114.014Q7.89686 114.339 8.0415 114.598Q8.18614 114.857 8.43485 115.004Q8.68356 115.15 8.97989 115.15Q9.35031 115.15 9.67133 114.931Q9.68897 114.917 9.71367 114.917Q9.74894 114.917 9.77011 114.945Q9.78422 114.963 9.78422 114.988Q9.78422 115.023 9.756 115.044Q9.61842 115.143 9.40146 115.214Q9.1845 115.284 8.97989 115.284Q8.64475 115.284 8.36253 115.118Q8.08031 114.953 7.9145 114.661Q7.74869 114.37 7.74869 114.014Q7.74869 113.658 7.9145 113.367Q8.08031 113.076 8.36253 112.91Q8.64475 112.744 8.97989 112.744Q9.19156 112.744 9.39087 112.808Q9.59019 112.871 9.75247 112.984Q9.78422 113.009 9.78422 113.04Z" style="stroke:#000000;stroke-width:0.25;stroke-linecap:round;stroke-linejoin:bevel" />
    </g>
</svg>
