<?xml version="1.0" encoding="utf-8"?>
<svg xmlns="http://www.w3.org/2000/svg" width="20.32mm" height="128.50mm" viewBox="0 0 20.32 128.50">
    <g id="PanelLayer">
        <rect id="border_rect" width="20.32" height="128.5" x="0" y="0" style="display:inline;fill:#4f8df2;fill-opacity:1;fill-rule:nonzero;stroke:#5021d4;stroke-width:0.7;stroke-linecap:round;stroke-linejoin:round;stroke-dasharray:none;stroke-opacity:1;image-rendering:auto" />
        <path id="sapphire_gemstone" d="m 12.875,122.900 q 0,0.34175 -0.242534,0.63114 -0.0441,0.0524 -0.20395,0.21497 -0.187413,0.19017 -0.785481,0.81304 l -1.444183,1.51309 q -0.01929,0.003 -0.0441,0.003 -0.02756,0 -0.04134,-0.003 -0.08268,-0.0827 -0.647678,-0.67524 -0.468532,-0.47404 -0.934309,-0.94809 -0.556727,-0.56775 -0.89848,-0.98116 -0.132292,-0.15985 -0.168121,-0.29766 -0.02756,-0.10197 -0.02756,-0.34175 0,-0.11024 0.07166,-0.28939 0.06614,-0.16536 0.140559,-0.26458 0.118512,-0.1571 0.42168,-0.42444 0.283875,-0.2508 0.474044,-0.37482 0.272852,-0.17915 0.818555,-0.36656 0.09646,-0.0331 0.110243,-0.0331 h 1.3615 q 0.01102,0 0.104731,0.0331 0.567751,0.20119 0.824066,0.36656 0.165365,0.10473 0.474045,0.37758 0.322461,0.28388 0.421679,0.42168 0.214974,0.2949 0.214974,0.62563 z m -0.16812,-0.27285 q -0.03307,-0.10749 -0.135048,-0.30868 -0.07166,-0.0937 -0.209462,-0.19844 -0.118511,-0.0854 -0.234266,-0.17088 0.245291,0.3638 0.578776,0.678 z m -0.573264,-0.52366 -0.358289,-0.44648 v 0.41065 z m 0.636653,0.75792 q 0,-0.0524 -0.341753,-0.39412 l 0.228754,0.7028 h 0.04961 q 0.06339,-0.21773 0.06339,-0.30868 z m -0.23151,0.27285 -0.316948,-0.90399 -0.410655,-0.0634 -0.159853,0.61461 z m 0.0028,0.15434 -0.771701,-0.3197 h -0.03032 l 0.344509,0.60634 q 0.07993,-0.003 0.234266,-0.0469 0.02481,-0.0138 0.223242,-0.23978 z m -0.857139,-1.05006 -0.719335,0.28388 0.60358,0.22599 z m 0,-0.16261 v -0.51538 l -0.917773,-0.38034 h -1.223697 l -0.917772,0.38034 v 0.51538 l 0.89848,0.4079 h 1.254014 z m 0.573264,1.53789 q -0.0689,0.011 -0.198438,0.0524 -0.08544,0.0551 -0.259071,0.16261 0.01929,0 0.06339,0.003 0.04134,0 0.06339,0 0.118511,0 0.190169,-0.0689 0.07166,-0.0717 0.14056,-0.14883 z m -0.289388,0.003 -0.347266,-0.63114 -0.363801,0.87918 q 0.0248,-0.0165 0.06615,-0.0165 0.03032,0 0.08544,0.011 0.05788,0.008 0.08819,0.008 0.04961,0 0.228754,-0.10749 0.228754,-0.1378 0.242535,-0.14331 z m -0.440972,-0.74139 -0.683507,-0.2756 -0.592556,0.54845 0.903993,0.65595 z m -0.854383,-0.28387 h -1.036284 l 0.523654,0.47404 z m 0.749652,1.36701 q -0.228754,-0.0303 -0.228754,-0.0303 -0.03583,0 -0.272851,0.0937 l 0.190169,0.0193 q 0.01102,0 0.311436,-0.0827 z m -0.388606,-0.0882 -0.843359,-0.61185 v 0.67524 l 0.471289,0.0827 z m 0.854383,0.0496 q -0.09922,0.006 -0.2949,0.0386 -0.01102,0.003 -0.377583,0.17639 -0.129535,0.34726 -0.380338,1.0418 z m -2.543857,-1.39733 -0.719335,-0.28388 0.124023,0.51814 z m -0.802018,-0.45476 v -0.41065 l -0.366557,0.44648 z m 1.515841,1.07212 -0.592556,-0.54019 -0.683506,0.2756 0.380338,0.9288 z m 0.369314,0.94257 q -0.03307,-0.003 -0.135047,-0.0248 -0.08544,-0.0165 -0.137804,-0.0165 -0.05237,0 -0.137804,0.0165 -0.101975,0.0221 -0.135047,0.0248 0.264583,0.0469 0.272851,0.0469 0.0083,0 0.272851,-0.0469 z m -0.30868,-0.1378 v -0.68626 l -0.843359,0.61185 0.37207,0.14607 z m 0.950846,0.20671 -0.396875,-0.0551 -0.479557,0.14056 v 1.27607 z m -2.888366,-2.20211 q -0.118512,0.0854 -0.234267,0.17364 -0.146072,0.10748 -0.209461,0.19568 -0.0441,0.10473 -0.135048,0.31419 0.369314,-0.3638 0.578776,-0.68351 z m 0.476801,0.83234 -0.159853,-0.61461 -0.410655,0.0634 -0.316948,0.90399 z m 0.394118,1.08313 -0.363802,-0.87918 -0.355533,0.63114 q 0.43546,0.2508 0.451996,0.2508 0.09095,0 0.267339,-0.003 z m 1.821765,0.82958 q -0.132291,0.21222 -0.405143,0.6339 -0.07717,0.10749 -0.220486,0.32797 -0.05788,0.10473 -0.05512,0.226 0.159852,-0.15158 0.432704,-0.49609 0.07717,-0.12954 0.140559,-0.339 0.05512,-0.17639 0.107486,-0.35278 z m -1.493792,-0.66146 -0.270095,-0.0882 -0.0083,-0.011 q -0.02481,0 -0.107487,0.011 -0.06615,0.006 -0.107487,0.006 0.272851,0.091 0.311436,0.091 0.02481,0 0.181901,-0.008 z m -0.810286,-1.06384 h -0.03032 l -0.7717,0.3197 q 0.06615,0.0965 0.223242,0.23978 0.07717,0.0138 0.234266,0.0469 z m -0.689018,-0.50161 q -0.341754,0.34727 -0.341754,0.39412 0,0.0799 0.06339,0.30868 h 0.04961 z m 2.235176,3.04547 v -1.27607 l -0.479557,-0.14056 -0.396875,0.0551 z m -1.606791,-1.6757 q -0.256315,-0.1819 -0.457509,-0.22324 0.06615,0.0772 0.20395,0.22324 z m 1.609547,2.04501 v -0.1378 l -0.683507,-1.05007 q 0.05237,0.17639 0.107487,0.35278 0.06339,0.20946 0.14056,0.339 0.0689,0.11851 0.20395,0.25907 0.115755,0.11851 0.23151,0.23702 z m -0.644921,-0.70555 q -0.115756,-0.32798 -0.380339,-1.0418 -0.135047,-0.0662 -0.272851,-0.12954 -0.159852,-0.0716 -0.289388,-0.0716 -0.05237,0 -0.110243,-0.0138 z" style="stroke-width:0;fill:#0000ff;stroke:#2e2114;stroke-linecap:square;stroke-opacity:1" />
        <path id="model_name" d="M4.70782 8.22887Q4.1723 8.22887 3.7338 7.96111Q3.2953 7.69335 3.04306 7.22769Q2.79083 6.76202 2.79083 6.19546Q2.79083 5.62114 3.04306 5.15547Q3.2953 4.6898 3.72992 4.42204Q4.16454 4.15429 4.70782 4.15429Q5.24334 4.15429 5.68184 4.42204Q6.12034 4.6898 6.3687 5.15547Q6.61705 5.62114 6.61705 6.19546Q6.61705 6.76978 6.3687 7.23157Q6.12034 7.69335 5.68184 7.96111Q5.24334 8.22887 4.70782 8.22887ZM4.70782 4.44921Q4.25768 4.44921 3.88902 4.67816Q3.52037 4.90711 3.31082 5.30293Q3.10127 5.69875 3.10127 6.19546Q3.10127 6.68441 3.31082 7.08022Q3.52037 7.47604 3.88902 7.70499Q4.25768 7.93395 4.70782 7.93395Q5.16573 7.93395 5.5305 7.70887Q5.89527 7.4838 6.10094 7.08411Q6.30661 6.68441 6.30661 6.19546Q6.30661 5.69875 6.10094 5.30293Q5.89527 4.90711 5.5305 4.67816Q5.16573 4.44921 4.70782 4.44921ZM11.2349 6.21098Q11.2349 6.76978 10.9982 7.22381Q10.7615 7.67783 10.3501 7.93783Q9.93881 8.19782 9.43434 8.19782Q8.96867 8.19782 8.58061 7.96499Q8.19256 7.73216 7.9442 7.3053V9.54826Q7.9442 9.61035 7.90152 9.65691Q7.85883 9.70348 7.78898 9.70348Q7.72689 9.70348 7.68032 9.65691Q7.63376 9.61035 7.63376 9.54826V4.38712Q7.63376 4.32503 7.67644 4.27846Q7.71913 4.2319 7.78898 4.2319Q7.85883 4.2319 7.90152 4.27846Q7.9442 4.32503 7.9442 4.38712V5.10114Q8.17704 4.65876 8.56509 4.44533Q8.95315 4.2319 9.43434 4.2319Q9.94657 4.2319 10.3579 4.48801Q10.7692 4.74413 11.0021 5.19428Q11.2349 5.64442 11.2349 6.21098ZM10.9245 6.21098Q10.9245 5.72979 10.7266 5.34562Q10.5287 4.96144 10.1872 4.74413Q9.84567 4.52682 9.41881 4.52682Q8.98419 4.52682 8.63882 4.74025Q8.29345 4.95368 8.10331 5.33786Q7.91316 5.72203 7.91316 6.21098Q7.91316 6.69993 8.10331 7.08411Q8.29345 7.46828 8.63882 7.68559Q8.98419 7.9029 9.41881 7.9029Q9.84567 7.9029 10.1872 7.68559Q10.5287 7.46828 10.7266 7.08022Q10.9245 6.69217 10.9245 6.21098ZM15.5811 4.43369V7.99604Q15.5811 8.05812 15.5346 8.10469Q15.488 8.15126 15.4259 8.15126Q15.3561 8.15126 15.3134 8.10469Q15.2707 8.05812 15.2707 7.99604V7.29754Q15.0767 7.69335 14.6731 7.96111Q14.2695 8.22887 13.7806 8.22887Q13.2683 8.22887 12.857 7.96111Q12.4456 7.69335 12.2128 7.22381Q11.98 6.75426 11.98 6.17217Q11.98 5.59785 12.2167 5.13607Q12.4534 4.67428 12.8647 4.41428Q13.2761 4.15429 13.7806 4.15429Q14.285 4.15429 14.6886 4.41816Q15.0922 4.68204 15.2707 5.12443V4.43369Q15.2707 4.3716 15.3134 4.32503Q15.3561 4.27846 15.4259 4.27846Q15.4958 4.27846 15.5384 4.32503Q15.5811 4.3716 15.5811 4.43369ZM15.3017 6.17217Q15.3017 5.69875 15.1077 5.30293Q14.9137 4.90711 14.5683 4.67816Q14.2229 4.44921 13.7961 4.44921Q13.3692 4.44921 13.0238 4.6704Q12.6785 4.89159 12.4845 5.28353Q12.2904 5.67546 12.2904 6.17217Q12.2904 6.66889 12.4845 7.07246Q12.6785 7.47604 13.02 7.70499Q13.3615 7.93395 13.7961 7.93395Q14.2229 7.93395 14.5683 7.70499Q14.9137 7.47604 15.1077 7.07246Q15.3017 6.66889 15.3017 6.17217ZM17.0635 8.15126Q16.9937 8.15126 16.951 8.10469Q16.9083 8.05812 16.9083 7.99604V2.56326Q16.9083 2.50117 16.9549 2.4546Q17.0014 2.40804 17.0635 2.40804Q17.1334 2.40804 17.176 2.4546Q17.2187 2.50117 17.2187 2.56326V7.99604Q17.2187 8.05812 17.1722 8.10469Q17.1256 8.15126 17.0635 8.15126Z" style="display:inline;stroke:#000000;stroke-width:0.35;stroke-linecap:round;stroke-linejoin:bevel" />
        <path id="pos_text" d="M 15.16,16.00 L 18.16,16.00 M 16.66,14.50 L 16.66,17.50 " style="stroke:#000000;stroke-width:0.5;stroke-linecap:butt;stroke-linejoin:miter;stroke-dasharray:none" fill="none" />
        <path id="neg_text" d="M 15.16,28.25 L 18.16,28.25 " style="stroke:#000000;stroke-width:0.5;stroke-linecap:butt;stroke-linejoin:miter;stroke-dasharray:none" fill="none" />
        <path d="M7.47536 43.0032Q7.47536 43.2007 7.39246 43.3613Q7.30956 43.5218 7.15786 43.6117Q7.00617 43.7017 6.80861 43.7017H6.03956V44.7283Q6.03956 44.7565 6.01663 44.7777Q5.99369 44.7988 5.96547 44.7988Q5.93372 44.7988 5.91256 44.7777Q5.89139 44.7565 5.89139 44.7283V42.3999Q5.89139 42.3717 5.91256 42.3506Q5.93372 42.3294 5.96194 42.3294H6.80861Q7.10847 42.3294 7.29192 42.5164Q7.47536 42.7033 7.47536 43.0032ZM7.32719 43.0032Q7.32719 42.7598 7.18785 42.6151Q7.0485 42.4705 6.80861 42.4705H6.03956V43.5606H6.80861Q7.04497 43.5606 7.18608 43.4036Q7.32719 43.2466 7.32719 43.0032ZM9.78253 44.7247Q9.78253 44.7565 9.76313 44.7759Q9.74372 44.7953 9.7155 44.7953Q9.69433 44.7953 9.68375 44.7882Q9.5885 44.7353 9.53206 44.6101Q9.47561 44.4849 9.47561 44.1991Q9.47561 43.9098 9.32039 43.8022Q9.16517 43.6946 8.96056 43.6946H8.13506V44.7283Q8.13506 44.7565 8.11389 44.7777Q8.09272 44.7988 8.06097 44.7988Q8.02922 44.7988 8.00806 44.7777Q7.98689 44.7565 7.98689 44.7283V42.3999Q7.98689 42.3717 8.00806 42.3506Q8.02922 42.3294 8.05744 42.3294H8.98878Q9.19339 42.3294 9.35214 42.4123Q9.51089 42.4952 9.59908 42.6398Q9.68728 42.7845 9.68728 42.9679Q9.68728 43.2043 9.56204 43.3736Q9.43681 43.5429 9.23572 43.6029Q9.40506 43.6558 9.51442 43.8128Q9.62378 43.9698 9.62378 44.1991Q9.62378 44.4355 9.65376 44.529Q9.68375 44.6224 9.74372 44.6612Q9.78253 44.6859 9.78253 44.7247ZM9.00642 43.5535Q9.22867 43.5324 9.38389 43.3771Q9.53911 43.2219 9.53911 42.9714Q9.53911 42.7527 9.38389 42.6116Q9.22867 42.4705 8.97114 42.4705H8.13506V43.5535ZM11.3312 44.8341Q10.989 44.8341 10.7209 44.6736Q10.4528 44.5131 10.3029 44.2238Q10.1529 43.9345 10.1529 43.5641Q10.1529 43.1937 10.3029 42.9044Q10.4528 42.6151 10.7209 42.4546Q10.989 42.2941 11.3312 42.2941Q11.6734 42.2941 11.9415 42.4546Q12.2096 42.6151 12.3596 42.9044Q12.5095 43.1937 12.5095 43.5641Q12.5095 43.9345 12.3596 44.2238Q12.2096 44.5131 11.9415 44.6736Q11.6734 44.8341 11.3312 44.8341ZM11.3312 42.4352Q11.0314 42.4352 10.7968 42.5763Q10.5622 42.7174 10.4316 42.975Q10.3011 43.2325 10.3011 43.5641Q10.3011 43.8957 10.4316 44.1532Q10.5622 44.4108 10.7968 44.5519Q11.0314 44.693 11.3312 44.693Q11.6311 44.693 11.8657 44.5519Q12.1003 44.4108 12.2308 44.1532Q12.3613 43.8957 12.3613 43.5641Q12.3613 43.2325 12.2308 42.975Q12.1003 42.7174 11.8657 42.5763Q11.6311 42.4352 11.3312 42.4352ZM14.6226 43.0032Q14.6226 43.2007 14.5397 43.3613Q14.4568 43.5218 14.3051 43.6117Q14.1534 43.7017 13.9559 43.7017H13.1868V44.7283Q13.1868 44.7565 13.1639 44.7777Q13.141 44.7988 13.1128 44.7988Q13.081 44.7988 13.0598 44.7777Q13.0387 44.7565 13.0387 44.7283V42.3999Q13.0387 42.3717 13.0598 42.3506Q13.081 42.3294 13.1092 42.3294H13.9559Q14.2558 42.3294 14.4392 42.5164Q14.6226 42.7033 14.6226 43.0032ZM14.4745 43.0032Q14.4745 42.7598 14.3351 42.6151Q14.1958 42.4705 13.9559 42.4705H13.1868V43.5606H13.9559Q14.1923 43.5606 14.3334 43.4036Q14.4745 43.2466 14.4745 43.0032Z" style="stroke:#000000;stroke-width:0.25;stroke-linecap:round;stroke-linejoin:bevel" />
        <path d="M 10.16,52.75 L 5.16,63.75 z L 15.16,63.75 z " style="stroke:#000000;stroke-width:0.25;stroke-linecap:round;stroke-linejoin:bevel;stroke-dasharray:none" />
        <path d="M5.60564 81.5488Q5.57036 81.5488 5.55096 81.5277Q5.53156 81.5065 5.53156 81.4748V79.1535Q5.53156 79.1217 5.55272 79.1006Q5.57389 79.0794 5.60564 79.0794Q5.63739 79.0794 5.65856 79.1006Q5.67972 79.1217 5.67972 79.1535V81.4748Q5.67619 81.5065 5.65503 81.5277Q5.63386 81.5488 5.60564 81.5488ZM8.23736 79.1464V81.4712Q8.23736 81.51 8.21619 81.5294Q8.19503 81.5488 8.16328 81.5488Q8.128 81.5488 8.10683 81.5206L6.51933 79.351V81.4889Q6.51933 81.5136 6.49993 81.5312Q6.48053 81.5488 6.45231 81.5488Q6.42056 81.5488 6.40292 81.5312Q6.38528 81.5136 6.38528 81.4889V79.1499Q6.38528 79.1147 6.40468 79.097Q6.42408 79.0794 6.44878 79.0794Q6.48053 79.0794 6.50169 79.1041L8.10331 81.2878V79.1464Q8.10331 79.1182 8.12271 79.0988Q8.14211 79.0794 8.17033 79.0794Q8.20208 79.0794 8.21972 79.0988Q8.23736 79.1182 8.23736 79.1464ZM10.5692 79.1464Q10.5692 79.1782 10.5498 79.1958Q10.5304 79.2134 10.4987 79.2134H9.71197V81.4783Q9.71197 81.5065 9.69081 81.5277Q9.66964 81.5488 9.64142 81.5488Q9.60967 81.5488 9.59026 81.5277Q9.57086 81.5065 9.57086 81.4783V79.2134H8.78417Q8.75594 79.2134 8.73478 79.194Q8.71361 79.1746 8.71361 79.1464Q8.71361 79.1182 8.73478 79.0988Q8.75594 79.0794 8.78417 79.0794H10.4987Q10.5269 79.0794 10.5481 79.0988Q10.5692 79.1182 10.5692 79.1464ZM12.5166 81.4783Q12.5166 81.51 12.4954 81.5294Q12.4742 81.5488 12.446 81.5488H11.116Q11.0878 81.5488 11.0666 81.5277Q11.0455 81.5065 11.0455 81.4783V79.1499Q11.0455 79.1217 11.0666 79.1006Q11.0878 79.0794 11.116 79.0794H12.446Q12.4742 79.0794 12.4954 79.1006Q12.5166 79.1217 12.5166 79.1499Q12.5166 79.1817 12.4954 79.2011Q12.4742 79.2205 12.446 79.2205H11.1936V80.2048H12.2873Q12.3155 80.2048 12.3366 80.2259Q12.3578 80.2471 12.3578 80.2753Q12.3578 80.3071 12.3366 80.3265Q12.3155 80.3459 12.2873 80.3459H11.1936V81.4077H12.446Q12.4742 81.4077 12.4954 81.4289Q12.5166 81.4501 12.5166 81.4783ZM14.9119 80.4023V81.2878Q14.9119 81.3301 14.8802 81.3513Q14.7179 81.4606 14.5256 81.5224Q14.3334 81.5841 14.1358 81.5841Q13.7724 81.5841 13.4849 81.4201Q13.1974 81.256 13.0334 80.9668Q12.8693 80.6775 12.8693 80.3141Q12.8693 79.9508 13.0334 79.6615Q13.1974 79.3722 13.4849 79.2082Q13.7724 79.0441 14.1358 79.0441Q14.3334 79.0441 14.5115 79.0917Q14.6897 79.1394 14.8308 79.2346Q14.8625 79.2558 14.8625 79.2946Q14.8625 79.3263 14.8396 79.3457Q14.8167 79.3651 14.7955 79.3651Q14.7779 79.3651 14.7496 79.351Q14.4533 79.1852 14.1358 79.1852Q13.8112 79.1852 13.5572 79.3299Q13.3033 79.4745 13.1604 79.732Q13.0175 79.9896 13.0175 80.3141Q13.0175 80.6387 13.1604 80.8962Q13.3033 81.1537 13.5572 81.2984Q13.8112 81.443 14.1358 81.443Q14.2981 81.443 14.4657 81.3918Q14.6332 81.3407 14.7708 81.256V80.4729H14.1358Q14.1076 80.4729 14.0864 80.4517Q14.0653 80.4305 14.0653 80.4023Q14.0653 80.3706 14.0864 80.3512Q14.1076 80.3318 14.1358 80.3318H14.8414Q14.8731 80.3318 14.8925 80.3529Q14.9119 80.3741 14.9119 80.4023Z" style="stroke:#000000;stroke-width:0.25;stroke-linecap:round;stroke-linejoin:bevel" />
        <path d="M 10.16,89.50 L 5.16,100.50 z L 15.16,100.50 z " style="stroke:#000000;stroke-width:0.25;stroke-linecap:round;stroke-linejoin:bevel;stroke-dasharray:none" />
        <path id="control_text" d="M4.70422 113.04Q4.70422 113.069 4.69011 113.086Q4.66894 113.115 4.63719 113.115Q4.62308 113.115 4.59486 113.1Q4.26678 112.878 3.89989 112.878Q3.60356 112.878 3.35485 113.025Q3.10614 113.171 2.9615 113.43Q2.81686 113.69 2.81686 114.014Q2.81686 114.339 2.9615 114.598Q3.10614 114.857 3.35485 115.004Q3.60356 115.15 3.89989 115.15Q4.27031 115.15 4.59133 114.931Q4.60897 114.917 4.63367 114.917Q4.66894 114.917 4.69011 114.945Q4.70422 114.963 4.70422 114.988Q4.70422 115.023 4.676 115.044Q4.53842 115.143 4.32146 115.214Q4.1045 115.284 3.89989 115.284Q3.56475 115.284 3.28253 115.118Q3.00031 114.953 2.8345 114.661Q2.66869 114.37 2.66869 114.014Q2.66869 113.658 2.8345 113.367Q3.00031 113.076 3.28253 112.91Q3.56475 112.744 3.89989 112.744Q4.11156 112.744 4.31087 112.808Q4.51019 112.871 4.67247 112.984Q4.70422 113.009 4.70422 113.04Z" style="stroke:#000000;stroke-width:0.25;stroke-linecap:round;stroke-linejoin:bevel" />
    </g>
</svg>
