<?xml version="1.0" encoding="utf-8"?>
<svg xmlns="http://www.w3.org/2000/svg" width="20.32mm" height="128.50mm" viewBox="0 0 20.32 128.50">
    <g id="PanelLayer">
        <rect id="border_rect" width="20.32" height="128.5" x="0" y="0" style="display:inline;fill:#4f8df2;fill-opacity:1;fill-rule:nonzero;stroke:#5021d4;stroke-width:0.7;stroke-linecap:round;stroke-linejoin:round;stroke-dasharray:none;stroke-opacity:1;image-rendering:auto" />
        <path id="sapphire_gemstone" d="m 12.875,122.900 q 0,0.34175 -0.242534,0.63114 -0.0441,0.0524 -0.20395,0.21497 -0.187413,0.19017 -0.785481,0.81304 l -1.444183,1.51309 q -0.01929,0.003 -0.0441,0.003 -0.02756,0 -0.04134,-0.003 -0.08268,-0.0827 -0.647678,-0.67524 -0.468532,-0.47404 -0.934309,-0.94809 -0.556727,-0.56775 -0.89848,-0.98116 -0.132292,-0.15985 -0.168121,-0.29766 -0.02756,-0.10197 -0.02756,-0.34175 0,-0.11024 0.07166,-0.28939 0.06614,-0.16536 0.140559,-0.26458 0.118512,-0.1571 0.42168,-0.42444 0.283875,-0.2508 0.474044,-0.37482 0.272852,-0.17915 0.818555,-0.36656 0.09646,-0.0331 0.110243,-0.0331 h 1.3615 q 0.01102,0 0.104731,0.0331 0.567751,0.20119 0.824066,0.36656 0.165365,0.10473 0.474045,0.37758 0.322461,0.28388 0.421679,0.42168 0.214974,0.2949 0.214974,0.62563 z m -0.16812,-0.27285 q -0.03307,-0.10749 -0.135048,-0.30868 -0.07166,-0.0937 -0.209462,-0.19844 -0.118511,-0.0854 -0.234266,-0.17088 0.245291,0.3638 0.578776,0.678 z m -0.573264,-0.52366 -0.358289,-0.44648 v 0.41065 z m 0.636653,0.75792 q 0,-0.0524 -0.341753,-0.39412 l 0.228754,0.7028 h 0.04961 q 0.06339,-0.21773 0.06339,-0.30868 z m -0.23151,0.27285 -0.316948,-0.90399 -0.410655,-0.0634 -0.159853,0.61461 z m 0.0028,0.15434 -0.771701,-0.3197 h -0.03032 l 0.344509,0.60634 q 0.07993,-0.003 0.234266,-0.0469 0.02481,-0.0138 0.223242,-0.23978 z m -0.857139,-1.05006 -0.719335,0.28388 0.60358,0.22599 z m 0,-0.16261 v -0.51538 l -0.917773,-0.38034 h -1.223697 l -0.917772,0.38034 v 0.51538 l 0.89848,0.4079 h 1.254014 z m 0.573264,1.53789 q -0.0689,0.011 -0.198438,0.0524 -0.08544,0.0551 -0.259071,0.16261 0.01929,0 0.06339,0.003 0.04134,0 0.06339,0 0.118511,0 0.190169,-0.0689 0.07166,-0.0717 0.14056,-0.14883 z m -0.289388,0.003 -0.347266,-0.63114 -0.363801,0.87918 q 0.0248,-0.0165 0.06615,-0.0165 0.03032,0 0.08544,0.011 0.05788,0.008 0.08819,0.008 0.04961,0 0.228754,-0.10749 0.228754,-0.1378 0.242535,-0.14331 z m -0.440972,-0.74139 -0.683507,-0.2756 -0.592556,0.54845 0.903993,0.65595 z m -0.854383,-0.28387 h -1.036284 l 0.523654,0.47404 z m 0.749652,1.36701 q -0.228754,-0.0303 -0.228754,-0.0303 -0.03583,0 -0.272851,0.0937 l 0.190169,0.0193 q 0.01102,0 0.311436,-0.0827 z m -0.388606,-0.0882 -0.843359,-0.61185 v 0.67524 l 0.471289,0.0827 z m 0.854383,0.0496 q -0.09922,0.006 -0.2949,0.0386 -0.01102,0.003 -0.377583,0.17639 -0.129535,0.34726 -0.380338,1.0418 z m -2.543857,-1.39733 -0.719335,-0.28388 0.124023,0.51814 z m -0.802018,-0.45476 v -0.41065 l -0.366557,0.44648 z m 1.515841,1.07212 -0.592556,-0.54019 -0.683506,0.2756 0.380338,0.9288 z m 0.369314,0.94257 q -0.03307,-0.003 -0.135047,-0.0248 -0.08544,-0.0165 -0.137804,-0.0165 -0.05237,0 -0.137804,0.0165 -0.101975,0.0221 -0.135047,0.0248 0.264583,0.0469 0.272851,0.0469 0.0083,0 0.272851,-0.0469 z m -0.30868,-0.1378 v -0.68626 l -0.843359,0.61185 0.37207,0.14607 z m 0.950846,0.20671 -0.396875,-0.0551 -0.479557,0.14056 v 1.27607 z m -2.888366,-2.20211 q -0.118512,0.0854 -0.234267,0.17364 -0.146072,0.10748 -0.209461,0.19568 -0.0441,0.10473 -0.135048,0.31419 0.369314,-0.3638 0.578776,-0.68351 z m 0.476801,0.83234 -0.159853,-0.61461 -0.410655,0.0634 -0.316948,0.90399 z m 0.394118,1.08313 -0.363802,-0.87918 -0.355533,0.63114 q 0.43546,0.2508 0.451996,0.2508 0.09095,0 0.267339,-0.003 z m 1.821765,0.82958 q -0.132291,0.21222 -0.405143,0.6339 -0.07717,0.10749 -0.220486,0.32797 -0.05788,0.10473 -0.05512,0.226 0.159852,-0.15158 0.432704,-0.49609 0.07717,-0.12954 0.140559,-0.339 0.05512,-0.17639 0.107486,-0.35278 z m -1.493792,-0.66146 -0.270095,-0.0882 -0.0083,-0.011 q -0.02481,0 -0.107487,0.011 -0.06615,0.006 -0.107487,0.006 0.272851,0.091 0.311436,0.091 0.02481,0 0.181901,-0.008 z m -0.810286,-1.06384 h -0.03032 l -0.7717,0.3197 q 0.06615,0.0965 0.223242,0.23978 0.07717,0.0138 0.234266,0.0469 z m -0.689018,-0.50161 q -0.341754,0.34727 -0.341754,0.39412 0,0.0799 0.06339,0.30868 h 0.04961 z m 2.235176,3.04547 v -1.27607 l -0.479557,-0.14056 -0.396875,0.0551 z m -1.606791,-1.6757 q -0.256315,-0.1819 -0.457509,-0.22324 0.06615,0.0772 0.20395,0.22324 z m 1.609547,2.04501 v -0.1378 l -0.683507,-1.05007 q 0.05237,0.17639 0.107487,0.35278 0.06339,0.20946 0.14056,0.339 0.0689,0.11851 0.20395,0.25907 0.115755,0.11851 0.23151,0.23702 z m -0.644921,-0.70555 q -0.115756,-0.32798 -0.380339,-1.0418 -0.135047,-0.0662 -0.272851,-0.12954 -0.159852,-0.0716 -0.289388,-0.0716 -0.05237,0 -0.110243,-0.0138 z" style="stroke-width:0;fill:#0000ff;stroke:#2e2114;stroke-linecap:square;stroke-opacity:1" />
        <path id="model_name" d="M4.70782 8.22887Q4.1723 8.22887 3.7338 7.96111Q3.2953 7.69335 3.04306 7.22769Q2.79083 6.76202 2.79083 6.19546Q2.79083 5.62114 3.04306 5.15547Q3.2953 4.6898 3.72992 4.42204Q4.16454 4.15429 4.70782 4.15429Q5.24334 4.15429 5.68184 4.42204Q6.12034 4.6898 6.3687 5.15547Q6.61705 5.62114 6.61705 6.19546Q6.61705 6.76978 6.3687 7.23157Q6.12034 7.69335 5.68184 7.96111Q5.24334 8.22887 4.70782 8.22887ZM4.70782 4.44921Q4.25768 4.44921 3.88902 4.67816Q3.52037 4.90711 3.31082 5.30293Q3.10127 5.69875 3.10127 6.19546Q3.10127 6.68441 3.31082 7.08022Q3.52037 7.47604 3.88902 7.70499Q4.25768 7.93395 4.70782 7.93395Q5.16573 7.93395 5.5305 7.70887Q5.89527 7.4838 6.10094 7.08411Q6.30661 6.68441 6.30661 6.19546Q6.30661 5.69875 6.10094 5.30293Q5.89527 4.90711 5.5305 4.67816Q5.16573 4.44921 4.70782 4.44921ZM11.2349 6.21098Q11.2349 6.76978 10.9982 7.22381Q10.7615 7.67783 10.3501 7.93783Q9.93881 8.19782 9.43434 8.19782Q8.96867 8.19782 8.58061 7.96499Q8.19256 7.73216 7.9442 7.3053V9.54826Q7.9442 9.61035 7.90152 9.65691Q7.85883 9.70348 7.78898 9.70348Q7.72689 9.70348 7.68032 9.65691Q7.63376 9.61035 7.63376 9.54826V4.38712Q7.63376 4.32503 7.67644 4.27846Q7.71913 4.2319 7.78898 4.2319Q7.85883 4.2319 7.90152 4.27846Q7.9442 4.32503 7.9442 4.38712V5.10114Q8.17704 4.65876 8.56509 4.44533Q8.95315 4.2319 9.43434 4.2319Q9.94657 4.2319 10.3579 4.48801Q10.7692 4.74413 11.0021 5.19428Q11.2349 5.64442 11.2349 6.21098ZM10.9245 6.21098Q10.9245 5.72979 10.7266 5.34562Q10.5287 4.96144 10.1872 4.74413Q9.84567 4.52682 9.41881 4.52682Q8.98419 4.52682 8.63882 4.74025Q8.29345 4.95368 8.10331 5.33786Q7.91316 5.72203 7.91316 6.21098Q7.91316 6.69993 8.10331 7.08411Q8.29345 7.46828 8.63882 7.68559Q8.98419 7.9029 9.41881 7.9029Q9.84567 7.9029 10.1872 7.68559Q10.5287 7.46828 10.7266 7.08022Q10.9245 6.69217 10.9245 6.21098ZM15.5811 4.43369V7.99604Q15.5811 8.05812 15.5346 8.10469Q15.488 8.15126 15.4259 8.15126Q15.3561 8.15126 15.3134 8.10469Q15.2707 8.05812 15.2707 7.99604V7.29754Q15.0767 7.69335 14.6731 7.96111Q14.2695 8.22887 13.7806 8.22887Q13.2683 8.22887 12.857 7.96111Q12.4456 7.69335 12.2128 7.22381Q11.98 6.75426 11.98 6.17217Q11.98 5.59785 12.2167 5.13607Q12.4534 4.67428 12.8647 4.41428Q13.2761 4.15429 13.7806 4.15429Q14.285 4.15429 14.6886 4.41816Q15.0922 4.68204 15.2707 5.12443V4.43369Q15.2707 4.3716 15.3134 4.32503Q15.3561 4.27846 15.4259 4.27846Q15.4958 4.27846 15.5384 4.32503Q15.5811 4.3716 15.5811 4.43369ZM15.3017 6.17217Q15.3017 5.69875 15.1077 5.30293Q14.9137 4.90711 14.5683 4.67816Q14.2229 4.44921 13.7961 4.44921Q13.3692 4.44921 13.0238 4.6704Q12.6785 4.89159 12.4845 5.28353Q12.2904 5.67546 12.2904 6.17217Q12.2904 6.66889 12.4845 7.07246Q12.6785 7.47604 13.02 7.70499Q13.3615 7.93395 13.7961 7.93395Q14.2229 7.93395 14.5683 7.70499Q14.9137 7.47604 15.1077 7.07246Q15.3017 6.66889 15.3017 6.17217ZM17.0635 8.15126Q16.9937 8.15126 16.951 8.10469Q16.9083 8.05812 16.9083 7.99604V2.56326Q16.9083 2.50117 16.9549 2.4546Q17.0014 2.40804 17.0635 2.40804Q17.1334 2.40804 17.176 2.4546Q17.2187 2.50117 17.2187 2.56326V7.99604Q17.2187 8.05812 17.1722 8.10469Q17.1256 8.15126 17.0635 8.15126Z" style="display:inline;stroke:#000000;stroke-width:0.35;stroke-linecap:round;stroke-linejoin:bevel" />
    </g>
</svg>
