<?xml version="1.0" encoding="utf-8"?>
<svg xmlns="http://www.w3.org/2000/svg" width="20.32mm" height="128.50mm" viewBox="0 0 20.32 128.50">
    <g id="PanelLayer">
        <rect id="border_rect" width="20.32" height="128.5" x="0" y="0" style="display:inline;fill:#4f8df2;fill-opacity:1;fill-rule:nonzero;stroke:#5021d4;stroke-width:0.7;stroke-linecap:round;stroke-linejoin:round;stroke-dasharray:none;stroke-opacity:1;image-rendering:auto" />
        <path id="sapphire_gemstone" d="m 12.875,122.900 q 0,0.34175 -0.242534,0.63114 -0.0441,0.0524 -0.20395,0.21497 -0.187413,0.19017 -0.785481,0.81304 l -1.444183,1.51309 q -0.01929,0.003 -0.0441,0.003 -0.02756,0 -0.04134,-0.003 -0.08268,-0.0827 -0.647678,-0.67524 -0.468532,-0.47404 -0.934309,-0.94809 -0.556727,-0.56775 -0.89848,-0.98116 -0.132292,-0.15985 -0.168121,-0.29766 -0.02756,-0.10197 -0.02756,-0.34175 0,-0.11024 0.07166,-0.28939 0.06614,-0.16536 0.140559,-0.26458 0.118512,-0.1571 0.42168,-0.42444 0.283875,-0.2508 0.474044,-0.37482 0.272852,-0.17915 0.818555,-0.36656 0.09646,-0.0331 0.110243,-0.0331 h 1.3615 q 0.01102,0 0.104731,0.0331 0.567751,0.20119 0.824066,0.36656 0.165365,0.10473 0.474045,0.37758 0.322461,0.28388 0.421679,0.42168 0.214974,0.2949 0.214974,0.62563 z m -0.16812,-0.27285 q -0.03307,-0.10749 -0.135048,-0.30868 -0.07166,-0.0937 -0.209462,-0.19844 -0.118511,-0.0854 -0.234266,-0.17088 0.245291,0.3638 0.578776,0.678 z m -0.573264,-0.52366 -0.358289,-0.44648 v 0.41065 z m 0.636653,0.75792 q 0,-0.0524 -0.341753,-0.39412 l 0.228754,0.7028 h 0.04961 q 0.06339,-0.21773 0.06339,-0.30868 z m -0.23151,0.27285 -0.316948,-0.90399 -0.410655,-0.0634 -0.159853,0.61461 z m 0.0028,0.15434 -0.771701,-0.3197 h -0.03032 l 0.344509,0.60634 q 0.07993,-0.003 0.234266,-0.0469 0.02481,-0.0138 0.223242,-0.23978 z m -0.857139,-1.05006 -0.719335,0.28388 0.60358,0.22599 z m 0,-0.16261 v -0.51538 l -0.917773,-0.38034 h -1.223697 l -0.917772,0.38034 v 0.51538 l 0.89848,0.4079 h 1.254014 z m 0.573264,1.53789 q -0.0689,0.011 -0.198438,0.0524 -0.08544,0.0551 -0.259071,0.16261 0.01929,0 0.06339,0.003 0.04134,0 0.06339,0 0.118511,0 0.190169,-0.0689 0.07166,-0.0717 0.14056,-0.14883 z m -0.289388,0.003 -0.347266,-0.63114 -0.363801,0.87918 q 0.0248,-0.0165 0.06615,-0.0165 0.03032,0 0.08544,0.011 0.05788,0.008 0.08819,0.008 0.04961,0 0.228754,-0.10749 0.228754,-0.1378 0.242535,-0.14331 z m -0.440972,-0.74139 -0.683507,-0.2756 -0.592556,0.54845 0.903993,0.65595 z m -0.854383,-0.28387 h -1.036284 l 0.523654,0.47404 z m 0.749652,1.36701 q -0.228754,-0.0303 -0.228754,-0.0303 -0.03583,0 -0.272851,0.0937 l 0.190169,0.0193 q 0.01102,0 0.311436,-0.0827 z m -0.388606,-0.0882 -0.843359,-0.61185 v 0.67524 l 0.471289,0.0827 z m 0.854383,0.0496 q -0.09922,0.006 -0.2949,0.0386 -0.01102,0.003 -0.377583,0.17639 -0.129535,0.34726 -0.380338,1.0418 z m -2.543857,-1.39733 -0.719335,-0.28388 0.124023,0.51814 z m -0.802018,-0.45476 v -0.41065 l -0.366557,0.44648 z m 1.515841,1.07212 -0.592556,-0.54019 -0.683506,0.2756 0.380338,0.9288 z m 0.369314,0.94257 q -0.03307,-0.003 -0.135047,-0.0248 -0.08544,-0.0165 -0.137804,-0.0165 -0.05237,0 -0.137804,0.0165 -0.101975,0.0221 -0.135047,0.0248 0.264583,0.0469 0.272851,0.0469 0.0083,0 0.272851,-0.0469 z m -0.30868,-0.1378 v -0.68626 l -0.843359,0.61185 0.37207,0.14607 z m 0.950846,0.20671 -0.396875,-0.0551 -0.479557,0.14056 v 1.27607 z m -2.888366,-2.20211 q -0.118512,0.0854 -0.234267,0.17364 -0.146072,0.10748 -0.209461,0.19568 -0.0441,0.10473 -0.135048,0.31419 0.369314,-0.3638 0.578776,-0.68351 z m 0.476801,0.83234 -0.159853,-0.61461 -0.410655,0.0634 -0.316948,0.90399 z m 0.394118,1.08313 -0.363802,-0.87918 -0.355533,0.63114 q 0.43546,0.2508 0.451996,0.2508 0.09095,0 0.267339,-0.003 z m 1.821765,0.82958 q -0.132291,0.21222 -0.405143,0.6339 -0.07717,0.10749 -0.220486,0.32797 -0.05788,0.10473 -0.05512,0.226 0.159852,-0.15158 0.432704,-0.49609 0.07717,-0.12954 0.140559,-0.339 0.05512,-0.17639 0.107486,-0.35278 z m -1.493792,-0.66146 -0.270095,-0.0882 -0.0083,-0.011 q -0.02481,0 -0.107487,0.011 -0.06615,0.006 -0.107487,0.006 0.272851,0.091 0.311436,0.091 0.02481,0 0.181901,-0.008 z m -0.810286,-1.06384 h -0.03032 l -0.7717,0.3197 q 0.06615,0.0965 0.223242,0.23978 0.07717,0.0138 0.234266,0.0469 z m -0.689018,-0.50161 q -0.341754,0.34727 -0.341754,0.39412 0,0.0799 0.06339,0.30868 h 0.04961 z m 2.235176,3.04547 v -1.27607 l -0.479557,-0.14056 -0.396875,0.0551 z m -1.606791,-1.6757 q -0.256315,-0.1819 -0.457509,-0.22324 0.06615,0.0772 0.20395,0.22324 z m 1.609547,2.04501 v -0.1378 l -0.683507,-1.05007 q 0.05237,0.17639 0.107487,0.35278 0.06339,0.20946 0.14056,0.339 0.0689,0.11851 0.20395,0.25907 0.115755,0.11851 0.23151,0.23702 z m -0.644921,-0.70555 q -0.115756,-0.32798 -0.380339,-1.0418 -0.135047,-0.0662 -0.272851,-0.12954 -0.159852,-0.0716 -0.289388,-0.0716 -0.05237,0 -0.110243,-0.0138 z" style="stroke-width:0;fill:#0000ff;stroke:#2e2114;stroke-linecap:square;stroke-opacity:1" />
        <path id="model_name" d="M4.70782 8.22887Q4.1723 8.22887 3.7338 7.96111Q3.2953 7.69335 3.04306 7.22769Q2.79083 6.76202 2.79083 6.19546Q2.79083 5.62114 3.04306 5.15547Q3.2953 4.6898 3.72992 4.42204Q4.16454 4.15429 4.70782 4.15429Q5.24334 4.15429 5.68184 4.42204Q6.12034 4.6898 6.3687 5.15547Q6.61705 5.62114 6.61705 6.19546Q6.61705 6.76978 6.3687 7.23157Q6.12034 7.69335 5.68184 7.96111Q5.24334 8.22887 4.70782 8.22887ZM4.70782 4.44921Q4.25768 4.44921 3.88902 4.67816Q3.52037 4.90711 3.31082 5.30293Q3.10127 5.69875 3.10127 6.19546Q3.10127 6.68441 3.31082 7.08022Q3.52037 7.47604 3.88902 7.70499Q4.25768 7.93395 4.70782 7.93395Q5.16573 7.93395 5.5305 7.70887Q5.89527 7.4838 6.10094 7.08411Q6.30661 6.68441 6.30661 6.19546Q6.30661 5.69875 6.10094 5.30293Q5.89527 4.90711 5.5305 4.67816Q5.16573 4.44921 4.70782 4.44921ZM11.2349 6.21098Q11.2349 6.76978 10.9982 7.22381Q10.7615 7.67783 10.3501 7.93783Q9.93881 8.19782 9.43434 8.19782Q8.96867 8.19782 8.58061 7.96499Q8.19256 7.73216 7.9442 7.3053V9.54826Q7.9442 9.61035 7.90152 9.65691Q7.85883 9.70348 7.78898 9.70348Q7.72689 9.70348 7.68032 9.65691Q7.63376 9.61035 7.63376 9.54826V4.38712Q7.63376 4.32503 7.67644 4.27846Q7.71913 4.2319 7.78898 4.2319Q7.85883 4.2319 7.90152 4.27846Q7.9442 4.32503 7.9442 4.38712V5.10114Q8.17704 4.65876 8.56509 4.44533Q8.95315 4.2319 9.43434 4.2319Q9.94657 4.2319 10.3579 4.48801Q10.7692 4.74413 11.0021 5.19428Q11.2349 5.64442 11.2349 6.21098ZM10.9245 6.21098Q10.9245 5.72979 10.7266 5.34562Q10.5287 4.96144 10.1872 4.74413Q9.84567 4.52682 9.41881 4.52682Q8.98419 4.52682 8.63882 4.74025Q8.29345 4.95368 8.10331 5.33786Q7.91316 5.72203 7.91316 6.21098Q7.91316 6.69993 8.10331 7.08411Q8.29345 7.46828 8.63882 7.68559Q8.98419 7.9029 9.41881 7.9029Q9.84567 7.9029 10.1872 7.68559Q10.5287 7.46828 10.7266 7.08022Q10.9245 6.69217 10.9245 6.21098ZM15.5811 4.43369V7.99604Q15.5811 8.05812 15.5346 8.10469Q15.488 8.15126 15.4259 8.15126Q15.3561 8.15126 15.3134 8.10469Q15.2707 8.05812 15.2707 7.99604V7.29754Q15.0767 7.69335 14.6731 7.96111Q14.2695 8.22887 13.7806 8.22887Q13.2683 8.22887 12.857 7.96111Q12.4456 7.69335 12.2128 7.22381Q11.98 6.75426 11.98 6.17217Q11.98 5.59785 12.2167 5.13607Q12.4534 4.67428 12.8647 4.41428Q13.2761 4.15429 13.7806 4.15429Q14.285 4.15429 14.6886 4.41816Q15.0922 4.68204 15.2707 5.12443V4.43369Q15.2707 4.3716 15.3134 4.32503Q15.3561 4.27846 15.4259 4.27846Q15.4958 4.27846 15.5384 4.32503Q15.5811 4.3716 15.5811 4.43369ZM15.3017 6.17217Q15.3017 5.69875 15.1077 5.30293Q14.9137 4.90711 14.5683 4.67816Q14.2229 4.44921 13.7961 4.44921Q13.3692 4.44921 13.0238 4.6704Q12.6785 4.89159 12.4845 5.28353Q12.2904 5.67546 12.2904 6.17217Q12.2904 6.66889 12.4845 7.07246Q12.6785 7.47604 13.02 7.70499Q13.3615 7.93395 13.7961 7.93395Q14.2229 7.93395 14.5683 7.70499Q14.9137 7.47604 15.1077 7.07246Q15.3017 6.66889 15.3017 6.17217ZM17.0635 8.15126Q16.9937 8.15126 16.951 8.10469Q16.9083 8.05812 16.9083 7.99604V2.56326Q16.9083 2.50117 16.9549 2.4546Q17.0014 2.40804 17.0635 2.40804Q17.1334 2.40804 17.176 2.4546Q17.2187 2.50117 17.2187 2.56326V7.99604Q17.2187 8.05812 17.1722 8.10469Q17.1256 8.15126 17.0635 8.15126Z" style="display:inline;stroke:#000000;stroke-width:0.35;stroke-linecap:round;stroke-linejoin:bevel" />
        <path id="pos_text" d="M 15.16,16.00 L 18.16,16.00 M 16.66,14.50 L 16.66,17.50 " style="stroke:#000000;stroke-width:0.5;stroke-linecap:butt;stroke-linejoin:miter;stroke-dasharray:none" fill="none" />
        <path id="neg_text" d="M 15.16,28.25 L 18.16,28.25 " style="stroke:#000000;stroke-width:0.5;stroke-linecap:butt;stroke-linejoin:miter;stroke-dasharray:none" fill="none" />
        <path d="M7.47536 38.7157Q7.47536 38.9132 7.39246 39.0738Q7.30956 39.2343 7.15786 39.3242Q7.00617 39.4142 6.80861 39.4142H6.03956V40.4408Q6.03956 40.469 6.01663 40.4902Q5.99369 40.5113 5.96547 40.5113Q5.93372 40.5113 5.91256 40.4902Q5.89139 40.469 5.89139 40.4408V38.1124Q5.89139 38.0842 5.91256 38.0631Q5.93372 38.0419 5.96194 38.0419H6.80861Q7.10847 38.0419 7.29192 38.2289Q7.47536 38.4158 7.47536 38.7157ZM7.32719 38.7157Q7.32719 38.4723 7.18785 38.3276Q7.0485 38.183 6.80861 38.183H6.03956V39.2731H6.80861Q7.04497 39.2731 7.18608 39.1161Q7.32719 38.9591 7.32719 38.7157ZM9.78253 40.4372Q9.78253 40.469 9.76313 40.4884Q9.74372 40.5078 9.7155 40.5078Q9.69433 40.5078 9.68375 40.5007Q9.5885 40.4478 9.53206 40.3226Q9.47561 40.1974 9.47561 39.9116Q9.47561 39.6223 9.32039 39.5147Q9.16517 39.4071 8.96056 39.4071H8.13506V40.4408Q8.13506 40.469 8.11389 40.4902Q8.09272 40.5113 8.06097 40.5113Q8.02922 40.5113 8.00806 40.4902Q7.98689 40.469 7.98689 40.4408V38.1124Q7.98689 38.0842 8.00806 38.0631Q8.02922 38.0419 8.05744 38.0419H8.98878Q9.19339 38.0419 9.35214 38.1248Q9.51089 38.2077 9.59908 38.3523Q9.68728 38.497 9.68728 38.6804Q9.68728 38.9168 9.56204 39.0861Q9.43681 39.2554 9.23572 39.3154Q9.40506 39.3683 9.51442 39.5253Q9.62378 39.6823 9.62378 39.9116Q9.62378 40.148 9.65376 40.2415Q9.68375 40.3349 9.74372 40.3737Q9.78253 40.3984 9.78253 40.4372ZM9.00642 39.266Q9.22867 39.2449 9.38389 39.0896Q9.53911 38.9344 9.53911 38.6839Q9.53911 38.4652 9.38389 38.3241Q9.22867 38.183 8.97114 38.183H8.13506V39.266ZM11.3312 40.5466Q10.989 40.5466 10.7209 40.3861Q10.4528 40.2256 10.3029 39.9363Q10.1529 39.647 10.1529 39.2766Q10.1529 38.9062 10.3029 38.6169Q10.4528 38.3276 10.7209 38.1671Q10.989 38.0066 11.3312 38.0066Q11.6734 38.0066 11.9415 38.1671Q12.2096 38.3276 12.3596 38.6169Q12.5095 38.9062 12.5095 39.2766Q12.5095 39.647 12.3596 39.9363Q12.2096 40.2256 11.9415 40.3861Q11.6734 40.5466 11.3312 40.5466ZM11.3312 38.1477Q11.0314 38.1477 10.7968 38.2888Q10.5622 38.4299 10.4316 38.6875Q10.3011 38.945 10.3011 39.2766Q10.3011 39.6082 10.4316 39.8657Q10.5622 40.1233 10.7968 40.2644Q11.0314 40.4055 11.3312 40.4055Q11.6311 40.4055 11.8657 40.2644Q12.1003 40.1233 12.2308 39.8657Q12.3613 39.6082 12.3613 39.2766Q12.3613 38.945 12.2308 38.6875Q12.1003 38.4299 11.8657 38.2888Q11.6311 38.1477 11.3312 38.1477ZM14.6226 38.7157Q14.6226 38.9132 14.5397 39.0738Q14.4568 39.2343 14.3051 39.3242Q14.1534 39.4142 13.9559 39.4142H13.1868V40.4408Q13.1868 40.469 13.1639 40.4902Q13.141 40.5113 13.1128 40.5113Q13.081 40.5113 13.0598 40.4902Q13.0387 40.469 13.0387 40.4408V38.1124Q13.0387 38.0842 13.0598 38.0631Q13.081 38.0419 13.1092 38.0419H13.9559Q14.2558 38.0419 14.4392 38.2289Q14.6226 38.4158 14.6226 38.7157ZM14.4745 38.7157Q14.4745 38.4723 14.3351 38.3276Q14.1958 38.183 13.9559 38.183H13.1868V39.2731H13.9559Q14.1923 39.2731 14.3334 39.1161Q14.4745 38.9591 14.4745 38.7157Z" style="stroke:#000000;stroke-width:0.25;stroke-linecap:round;stroke-linejoin:bevel" />
        <path d="M 10.16,48.46 L 5.16,59.46 z L 15.16,59.46 z " style="stroke:#000000;stroke-width:0.25;stroke-linecap:round;stroke-linejoin:bevel;stroke-dasharray:none" />
        <path d="M5.60564 69.2988Q5.57036 69.2988 5.55096 69.2777Q5.53156 69.2565 5.53156 69.2248V66.9035Q5.53156 66.8717 5.55272 66.8506Q5.57389 66.8294 5.60564 66.8294Q5.63739 66.8294 5.65856 66.8506Q5.67972 66.8717 5.67972 66.9035V69.2248Q5.67619 69.2565 5.65503 69.2777Q5.63386 69.2988 5.60564 69.2988ZM8.23736 66.8964V69.2212Q8.23736 69.26 8.21619 69.2794Q8.19503 69.2988 8.16328 69.2988Q8.128 69.2988 8.10683 69.2706L6.51933 67.101V69.2389Q6.51933 69.2636 6.49993 69.2812Q6.48053 69.2988 6.45231 69.2988Q6.42056 69.2988 6.40292 69.2812Q6.38528 69.2636 6.38528 69.2389V66.8999Q6.38528 66.8647 6.40468 66.847Q6.42408 66.8294 6.44878 66.8294Q6.48053 66.8294 6.50169 66.8541L8.10331 69.0378V66.8964Q8.10331 66.8682 8.12271 66.8488Q8.14211 66.8294 8.17033 66.8294Q8.20208 66.8294 8.21972 66.8488Q8.23736 66.8682 8.23736 66.8964ZM10.5692 66.8964Q10.5692 66.9282 10.5498 66.9458Q10.5304 66.9634 10.4987 66.9634H9.71197V69.2283Q9.71197 69.2565 9.69081 69.2777Q9.66964 69.2988 9.64142 69.2988Q9.60967 69.2988 9.59026 69.2777Q9.57086 69.2565 9.57086 69.2283V66.9634H8.78417Q8.75594 66.9634 8.73478 66.944Q8.71361 66.9246 8.71361 66.8964Q8.71361 66.8682 8.73478 66.8488Q8.75594 66.8294 8.78417 66.8294H10.4987Q10.5269 66.8294 10.5481 66.8488Q10.5692 66.8682 10.5692 66.8964ZM12.5166 69.2283Q12.5166 69.26 12.4954 69.2794Q12.4742 69.2988 12.446 69.2988H11.116Q11.0878 69.2988 11.0666 69.2777Q11.0455 69.2565 11.0455 69.2283V66.8999Q11.0455 66.8717 11.0666 66.8506Q11.0878 66.8294 11.116 66.8294H12.446Q12.4742 66.8294 12.4954 66.8506Q12.5166 66.8717 12.5166 66.8999Q12.5166 66.9317 12.4954 66.9511Q12.4742 66.9705 12.446 66.9705H11.1936V67.9548H12.2873Q12.3155 67.9548 12.3366 67.9759Q12.3578 67.9971 12.3578 68.0253Q12.3578 68.0571 12.3366 68.0765Q12.3155 68.0959 12.2873 68.0959H11.1936V69.1577H12.446Q12.4742 69.1577 12.4954 69.1789Q12.5166 69.2001 12.5166 69.2283ZM14.9119 68.1523V69.0378Q14.9119 69.0801 14.8802 69.1013Q14.7179 69.2106 14.5256 69.2724Q14.3334 69.3341 14.1358 69.3341Q13.7724 69.3341 13.4849 69.1701Q13.1974 69.006 13.0334 68.7168Q12.8693 68.4275 12.8693 68.0641Q12.8693 67.7008 13.0334 67.4115Q13.1974 67.1222 13.4849 66.9582Q13.7724 66.7941 14.1358 66.7941Q14.3334 66.7941 14.5115 66.8417Q14.6897 66.8894 14.8308 66.9846Q14.8625 67.0058 14.8625 67.0446Q14.8625 67.0763 14.8396 67.0957Q14.8167 67.1151 14.7955 67.1151Q14.7779 67.1151 14.7496 67.101Q14.4533 66.9352 14.1358 66.9352Q13.8112 66.9352 13.5572 67.0799Q13.3033 67.2245 13.1604 67.482Q13.0175 67.7396 13.0175 68.0641Q13.0175 68.3887 13.1604 68.6462Q13.3033 68.9037 13.5572 69.0484Q13.8112 69.193 14.1358 69.193Q14.2981 69.193 14.4657 69.1418Q14.6332 69.0907 14.7708 69.006V68.2229H14.1358Q14.1076 68.2229 14.0864 68.2017Q14.0653 68.1805 14.0653 68.1523Q14.0653 68.1206 14.0864 68.1012Q14.1076 68.0818 14.1358 68.0818H14.8414Q14.8731 68.0818 14.8925 68.1029Q14.9119 68.1241 14.9119 68.1523Z" style="stroke:#000000;stroke-width:0.25;stroke-linecap:round;stroke-linejoin:bevel" />
        <path d="M 10.16,77.25 L 5.16,88.25 z L 15.16,88.25 z " style="stroke:#000000;stroke-width:0.25;stroke-linecap:round;stroke-linejoin:bevel;stroke-dasharray:none" />
        <path id="control_text" d="M4.70422 113.04Q4.70422 113.069 4.69011 113.086Q4.66894 113.115 4.63719 113.115Q4.62308 113.115 4.59486 113.1Q4.26678 112.878 3.89989 112.878Q3.60356 112.878 3.35485 113.025Q3.10614 113.171 2.9615 113.43Q2.81686 113.69 2.81686 114.014Q2.81686 114.339 2.9615 114.598Q3.10614 114.857 3.35485 115.004Q3.60356 115.15 3.89989 115.15Q4.27031 115.15 4.59133 114.931Q4.60897 114.917 4.63367 114.917Q4.66894 114.917 4.69011 114.945Q4.70422 114.963 4.70422 114.988Q4.70422 115.023 4.676 115.044Q4.53842 115.143 4.32146 115.214Q4.1045 115.284 3.89989 115.284Q3.56475 115.284 3.28253 115.118Q3.00031 114.953 2.8345 114.661Q2.66869 114.37 2.66869 114.014Q2.66869 113.658 2.8345 113.367Q3.00031 113.076 3.28253 112.91Q3.56475 112.744 3.89989 112.744Q4.11156 112.744 4.31087 112.808Q4.51019 112.871 4.67247 112.984Q4.70422 113.009 4.70422 113.04Z" style="stroke:#000000;stroke-width:0.25;stroke-linecap:round;stroke-linejoin:bevel" />
    </g>
</svg>
