<?xml version="1.0" encoding="utf-8"?>
<svg xmlns="http://www.w3.org/2000/svg" width="30.48mm" height="128.50mm" viewBox="0 0 30.48 128.50">
    <g id="PanelLayer">
        <rect id="border_rect" width="30.48" height="128.5" x="0" y="0" style="display:inline;fill:#4f8df2;fill-opacity:1;fill-rule:nonzero;stroke:#5021d4;stroke-width:0.7;stroke-linecap:round;stroke-linejoin:round;stroke-dasharray:none;stroke-opacity:1;image-rendering:auto" />
        <path id="sapphire_gemstone" d="m 17.955,122.900 q 0,0.34175 -0.242534,0.63114 -0.0441,0.0524 -0.20395,0.21497 -0.187413,0.19017 -0.785481,0.81304 l -1.444183,1.51309 q -0.01929,0.003 -0.0441,0.003 -0.02756,0 -0.04134,-0.003 -0.08268,-0.0827 -0.647678,-0.67524 -0.468532,-0.47404 -0.934309,-0.94809 -0.556727,-0.56775 -0.89848,-0.98116 -0.132292,-0.15985 -0.168121,-0.29766 -0.02756,-0.10197 -0.02756,-0.34175 0,-0.11024 0.07166,-0.28939 0.06614,-0.16536 0.140559,-0.26458 0.118512,-0.1571 0.42168,-0.42444 0.283875,-0.2508 0.474044,-0.37482 0.272852,-0.17915 0.818555,-0.36656 0.09646,-0.0331 0.110243,-0.0331 h 1.3615 q 0.01102,0 0.104731,0.0331 0.567751,0.20119 0.824066,0.36656 0.165365,0.10473 0.474045,0.37758 0.322461,0.28388 0.421679,0.42168 0.214974,0.2949 0.214974,0.62563 z m -0.16812,-0.27285 q -0.03307,-0.10749 -0.135048,-0.30868 -0.07166,-0.0937 -0.209462,-0.19844 -0.118511,-0.0854 -0.234266,-0.17088 0.245291,0.3638 0.578776,0.678 z m -0.573264,-0.52366 -0.358289,-0.44648 v 0.41065 z m 0.636653,0.75792 q 0,-0.0524 -0.341753,-0.39412 l 0.228754,0.7028 h 0.04961 q 0.06339,-0.21773 0.06339,-0.30868 z m -0.23151,0.27285 -0.316948,-0.90399 -0.410655,-0.0634 -0.159853,0.61461 z m 0.0028,0.15434 -0.771701,-0.3197 h -0.03032 l 0.344509,0.60634 q 0.07993,-0.003 0.234266,-0.0469 0.02481,-0.0138 0.223242,-0.23978 z m -0.857139,-1.05006 -0.719335,0.28388 0.60358,0.22599 z m 0,-0.16261 v -0.51538 l -0.917773,-0.38034 h -1.223697 l -0.917772,0.38034 v 0.51538 l 0.89848,0.4079 h 1.254014 z m 0.573264,1.53789 q -0.0689,0.011 -0.198438,0.0524 -0.08544,0.0551 -0.259071,0.16261 0.01929,0 0.06339,0.003 0.04134,0 0.06339,0 0.118511,0 0.190169,-0.0689 0.07166,-0.0717 0.14056,-0.14883 z m -0.289388,0.003 -0.347266,-0.63114 -0.363801,0.87918 q 0.0248,-0.0165 0.06615,-0.0165 0.03032,0 0.08544,0.011 0.05788,0.008 0.08819,0.008 0.04961,0 0.228754,-0.10749 0.228754,-0.1378 0.242535,-0.14331 z m -0.440972,-0.74139 -0.683507,-0.2756 -0.592556,0.54845 0.903993,0.65595 z m -0.854383,-0.28387 h -1.036284 l 0.523654,0.47404 z m 0.749652,1.36701 q -0.228754,-0.0303 -0.228754,-0.0303 -0.03583,0 -0.272851,0.0937 l 0.190169,0.0193 q 0.01102,0 0.311436,-0.0827 z m -0.388606,-0.0882 -0.843359,-0.61185 v 0.67524 l 0.471289,0.0827 z m 0.854383,0.0496 q -0.09922,0.006 -0.2949,0.0386 -0.01102,0.003 -0.377583,0.17639 -0.129535,0.34726 -0.380338,1.0418 z m -2.543857,-1.39733 -0.719335,-0.28388 0.124023,0.51814 z m -0.802018,-0.45476 v -0.41065 l -0.366557,0.44648 z m 1.515841,1.07212 -0.592556,-0.54019 -0.683506,0.2756 0.380338,0.9288 z m 0.369314,0.94257 q -0.03307,-0.003 -0.135047,-0.0248 -0.08544,-0.0165 -0.137804,-0.0165 -0.05237,0 -0.137804,0.0165 -0.101975,0.0221 -0.135047,0.0248 0.264583,0.0469 0.272851,0.0469 0.0083,0 0.272851,-0.0469 z m -0.30868,-0.1378 v -0.68626 l -0.843359,0.61185 0.37207,0.14607 z m 0.950846,0.20671 -0.396875,-0.0551 -0.479557,0.14056 v 1.27607 z m -2.888366,-2.20211 q -0.118512,0.0854 -0.234267,0.17364 -0.146072,0.10748 -0.209461,0.19568 -0.0441,0.10473 -0.135048,0.31419 0.369314,-0.3638 0.578776,-0.68351 z m 0.476801,0.83234 -0.159853,-0.61461 -0.410655,0.0634 -0.316948,0.90399 z m 0.394118,1.08313 -0.363802,-0.87918 -0.355533,0.63114 q 0.43546,0.2508 0.451996,0.2508 0.09095,0 0.267339,-0.003 z m 1.821765,0.82958 q -0.132291,0.21222 -0.405143,0.6339 -0.07717,0.10749 -0.220486,0.32797 -0.05788,0.10473 -0.05512,0.226 0.159852,-0.15158 0.432704,-0.49609 0.07717,-0.12954 0.140559,-0.339 0.05512,-0.17639 0.107486,-0.35278 z m -1.493792,-0.66146 -0.270095,-0.0882 -0.0083,-0.011 q -0.02481,0 -0.107487,0.011 -0.06615,0.006 -0.107487,0.006 0.272851,0.091 0.311436,0.091 0.02481,0 0.181901,-0.008 z m -0.810286,-1.06384 h -0.03032 l -0.7717,0.3197 q 0.06615,0.0965 0.223242,0.23978 0.07717,0.0138 0.234266,0.0469 z m -0.689018,-0.50161 q -0.341754,0.34727 -0.341754,0.39412 0,0.0799 0.06339,0.30868 h 0.04961 z m 2.235176,3.04547 v -1.27607 l -0.479557,-0.14056 -0.396875,0.0551 z m -1.606791,-1.6757 q -0.256315,-0.1819 -0.457509,-0.22324 0.06615,0.0772 0.20395,0.22324 z m 1.609547,2.04501 v -0.1378 l -0.683507,-1.05007 q 0.05237,0.17639 0.107487,0.35278 0.06339,0.20946 0.14056,0.339 0.0689,0.11851 0.20395,0.25907 0.115755,0.11851 0.23151,0.23702 z m -0.644921,-0.70555 q -0.115756,-0.32798 -0.380339,-1.0418 -0.135047,-0.0662 -0.272851,-0.12954 -0.159852,-0.0716 -0.289388,-0.0716 -0.05237,0 -0.110243,-0.0138 z" style="stroke-width:0;fill:#0000ff;stroke:#2e2114;stroke-linecap:square;stroke-opacity:1" />
        <path id="model_name" d="M9.78782 8.22887Q9.2523 8.22887 8.8138 7.96111Q8.3753 7.69335 8.12306 7.22769Q7.87083 6.76202 7.87083 6.19546Q7.87083 5.62114 8.12306 5.15547Q8.3753 4.6898 8.80992 4.42204Q9.24454 4.15429 9.78782 4.15429Q10.3233 4.15429 10.7618 4.42204Q11.2003 4.6898 11.4487 5.15547Q11.6971 5.62114 11.6971 6.19546Q11.6971 6.76978 11.4487 7.23157Q11.2003 7.69335 10.7618 7.96111Q10.3233 8.22887 9.78782 8.22887ZM9.78782 4.44921Q9.33768 4.44921 8.96902 4.67816Q8.60037 4.90711 8.39082 5.30293Q8.18127 5.69875 8.18127 6.19546Q8.18127 6.68441 8.39082 7.08022Q8.60037 7.47604 8.96902 7.70499Q9.33768 7.93395 9.78782 7.93395Q10.2457 7.93395 10.6105 7.70887Q10.9753 7.4838 11.1809 7.08411Q11.3866 6.68441 11.3866 6.19546Q11.3866 5.69875 11.1809 5.30293Q10.9753 4.90711 10.6105 4.67816Q10.2457 4.44921 9.78782 4.44921ZM16.3149 6.21098Q16.3149 6.76978 16.0782 7.22381Q15.8415 7.67783 15.4301 7.93783Q15.0188 8.19782 14.5143 8.19782Q14.0487 8.19782 13.6606 7.96499Q13.2726 7.73216 13.0242 7.3053V9.54826Q13.0242 9.61035 12.9815 9.65691Q12.9388 9.70348 12.869 9.70348Q12.8069 9.70348 12.7603 9.65691Q12.7138 9.61035 12.7138 9.54826V4.38712Q12.7138 4.32503 12.7564 4.27846Q12.7991 4.2319 12.869 4.2319Q12.9388 4.2319 12.9815 4.27846Q13.0242 4.32503 13.0242 4.38712V5.10114Q13.257 4.65876 13.6451 4.44533Q14.0331 4.2319 14.5143 4.2319Q15.0266 4.2319 15.4379 4.48801Q15.8492 4.74413 16.0821 5.19428Q16.3149 5.64442 16.3149 6.21098ZM16.0045 6.21098Q16.0045 5.72979 15.8066 5.34562Q15.6087 4.96144 15.2672 4.74413Q14.9257 4.52682 14.4988 4.52682Q14.0642 4.52682 13.7188 4.74025Q13.3735 4.95368 13.1833 5.33786Q12.9932 5.72203 12.9932 6.21098Q12.9932 6.69993 13.1833 7.08411Q13.3735 7.46828 13.7188 7.68559Q14.0642 7.9029 14.4988 7.9029Q14.9257 7.9029 15.2672 7.68559Q15.6087 7.46828 15.8066 7.08022Q16.0045 6.69217 16.0045 6.21098ZM20.6611 4.43369V7.99604Q20.6611 8.05812 20.6146 8.10469Q20.568 8.15126 20.5059 8.15126Q20.4361 8.15126 20.3934 8.10469Q20.3507 8.05812 20.3507 7.99604V7.29754Q20.1567 7.69335 19.7531 7.96111Q19.3495 8.22887 18.8606 8.22887Q18.3483 8.22887 17.937 7.96111Q17.5256 7.69335 17.2928 7.22381Q17.06 6.75426 17.06 6.17217Q17.06 5.59785 17.2967 5.13607Q17.5334 4.67428 17.9447 4.41428Q18.3561 4.15429 18.8606 4.15429Q19.365 4.15429 19.7686 4.41816Q20.1722 4.68204 20.3507 5.12443V4.43369Q20.3507 4.3716 20.3934 4.32503Q20.4361 4.27846 20.5059 4.27846Q20.5758 4.27846 20.6184 4.32503Q20.6611 4.3716 20.6611 4.43369ZM20.3817 6.17217Q20.3817 5.69875 20.1877 5.30293Q19.9937 4.90711 19.6483 4.67816Q19.3029 4.44921 18.8761 4.44921Q18.4492 4.44921 18.1039 4.6704Q17.7585 4.89159 17.5645 5.28353Q17.3704 5.67546 17.3704 6.17217Q17.3704 6.66889 17.5645 7.07246Q17.7585 7.47604 18.1 7.70499Q18.4415 7.93395 18.8761 7.93395Q19.3029 7.93395 19.6483 7.70499Q19.9937 7.47604 20.1877 7.07246Q20.3817 6.66889 20.3817 6.17217ZM22.1435 8.15126Q22.0737 8.15126 22.031 8.10469Q21.9883 8.05812 21.9883 7.99604V2.56326Q21.9883 2.50117 22.0349 2.4546Q22.0814 2.40804 22.1435 2.40804Q22.2134 2.40804 22.256 2.4546Q22.2987 2.50117 22.2987 2.56326V7.99604Q22.2987 8.05812 22.2522 8.10469Q22.2056 8.15126 22.1435 8.15126Z" style="display:inline;stroke:#000000;stroke-width:0.35;stroke-linecap:round;stroke-linejoin:bevel" />
        <path id="pos_text" d="M 20.24,16.00 L 23.24,16.00 M 21.74,14.50 L 21.74,17.50 " style="stroke:#000000;stroke-width:0.5;stroke-linecap:butt;stroke-linejoin:miter;stroke-dasharray:none" fill="none" />
        <path id="neg_text" d="M 20.24,26.50 L 23.24,26.50 " style="stroke:#000000;stroke-width:0.5;stroke-linecap:butt;stroke-linejoin:miter;stroke-dasharray:none" fill="none" />
        <path d="M 6.24,44.00 L 24.24,44.00 z " style="stroke:#000000;stroke-width:0.25;stroke-linecap:round;stroke-linejoin:bevel;stroke-dasharray:none" />
        <path d="M 6.24,58.00 L 24.24,58.00 z " style="stroke:#000000;stroke-width:0.25;stroke-linecap:round;stroke-linejoin:bevel;stroke-dasharray:none" />
        <path d="M12.5554 37.6532Q12.5554 37.8507 12.4725 38.0113Q12.3896 38.1718 12.2379 38.2617Q12.0862 38.3517 11.8886 38.3517H11.1196V39.3783Q11.1196 39.4065 11.0966 39.4277Q11.0737 39.4488 11.0455 39.4488Q11.0137 39.4488 10.9926 39.4277Q10.9714 39.4065 10.9714 39.3783V37.0499Q10.9714 37.0217 10.9926 37.0006Q11.0137 36.9794 11.0419 36.9794H11.8886Q12.1885 36.9794 12.3719 37.1664Q12.5554 37.3533 12.5554 37.6532ZM12.4072 37.6532Q12.4072 37.4098 12.2678 37.2651Q12.1285 37.1205 11.8886 37.1205H11.1196V38.2106H11.8886Q12.125 38.2106 12.2661 38.0536Q12.4072 37.8966 12.4072 37.6532ZM14.8625 39.3747Q14.8625 39.4065 14.8431 39.4259Q14.8237 39.4453 14.7955 39.4453Q14.7743 39.4453 14.7637 39.4382Q14.6685 39.3853 14.6121 39.2601Q14.5556 39.1349 14.5556 38.8491Q14.5556 38.5598 14.4004 38.4522Q14.2452 38.3446 14.0406 38.3446H13.2151V39.3783Q13.2151 39.4065 13.1939 39.4277Q13.1727 39.4488 13.141 39.4488Q13.1092 39.4488 13.0881 39.4277Q13.0669 39.4065 13.0669 39.3783V37.0499Q13.0669 37.0217 13.0881 37.0006Q13.1092 36.9794 13.1374 36.9794H14.0688Q14.2734 36.9794 14.4321 37.0623Q14.5909 37.1452 14.6791 37.2898Q14.7673 37.4345 14.7673 37.6179Q14.7673 37.8543 14.642 38.0236Q14.5168 38.1929 14.3157 38.2529Q14.4851 38.3058 14.5944 38.4628Q14.7038 38.6198 14.7038 38.8491Q14.7038 39.0855 14.7338 39.179Q14.7637 39.2724 14.8237 39.3113Q14.8625 39.3359 14.8625 39.3747ZM14.0864 38.2035Q14.3087 38.1824 14.4639 38.0271Q14.6191 37.8719 14.6191 37.6214Q14.6191 37.4027 14.4639 37.2616Q14.3087 37.1205 14.0511 37.1205H13.2151V38.2035ZM16.4112 39.4841Q16.069 39.4841 15.8009 39.3236Q15.5328 39.1631 15.3829 38.8738Q15.2329 38.5845 15.2329 38.2141Q15.2329 37.8437 15.3829 37.5544Q15.5328 37.2651 15.8009 37.1046Q16.069 36.9441 16.4112 36.9441Q16.7534 36.9441 17.0215 37.1046Q17.2896 37.2651 17.4396 37.5544Q17.5895 37.8437 17.5895 38.2141Q17.5895 38.5845 17.4396 38.8738Q17.2896 39.1631 17.0215 39.3236Q16.7534 39.4841 16.4112 39.4841ZM16.4112 37.0852Q16.1114 37.0852 15.8768 37.2263Q15.6422 37.3674 15.5116 37.625Q15.3811 37.8825 15.3811 38.2141Q15.3811 38.5457 15.5116 38.8033Q15.6422 39.0608 15.8768 39.2019Q16.1114 39.343 16.4112 39.343Q16.7111 39.343 16.9457 39.2019Q17.1803 39.0608 17.3108 38.8033Q17.4413 38.5457 17.4413 38.2141Q17.4413 37.8825 17.3108 37.625Q17.1803 37.3674 16.9457 37.2263Q16.7111 37.0852 16.4112 37.0852ZM19.7026 37.6532Q19.7026 37.8507 19.6197 38.0113Q19.5368 38.1718 19.3851 38.2617Q19.2334 38.3517 19.0359 38.3517H18.2668V39.3783Q18.2668 39.4065 18.2439 39.4277Q18.221 39.4488 18.1928 39.4488Q18.161 39.4488 18.1398 39.4277Q18.1187 39.4065 18.1187 39.3783V37.0499Q18.1187 37.0217 18.1398 37.0006Q18.161 36.9794 18.1892 36.9794H19.0359Q19.3358 36.9794 19.5192 37.1664Q19.7026 37.3533 19.7026 37.6532ZM19.5545 37.6532Q19.5545 37.4098 19.4151 37.2651Q19.2758 37.1205 19.0359 37.1205H18.2668V38.2106H19.0359Q19.2722 38.2106 19.4134 38.0536Q19.5545 37.8966 19.5545 37.6532Z" style="stroke:#000000;stroke-width:0.25;stroke-linecap:round;stroke-linejoin:bevel" />
        <path d="M10.6856 53.4488Q10.6504 53.4488 10.631 53.4277Q10.6116 53.4065 10.6116 53.3747V51.0535Q10.6116 51.0217 10.6327 51.0006Q10.6539 50.9794 10.6856 50.9794Q10.7174 50.9794 10.7386 51.0006Q10.7597 51.0217 10.7597 51.0535V53.3747Q10.7562 53.4065 10.735 53.4277Q10.7139 53.4488 10.6856 53.4488ZM13.3174 51.0464V53.3712Q13.3174 53.41 13.2962 53.4294Q13.275 53.4488 13.2433 53.4488Q13.208 53.4488 13.1868 53.4206L11.5993 51.251V53.3889Q11.5993 53.4136 11.5799 53.4312Q11.5605 53.4488 11.5323 53.4488Q11.5006 53.4488 11.4829 53.4312Q11.4653 53.4136 11.4653 53.3889V51.0499Q11.4653 51.0147 11.4847 50.997Q11.5041 50.9794 11.5288 50.9794Q11.5605 50.9794 11.5817 51.0041L13.1833 53.1878V51.0464Q13.1833 51.0182 13.2027 50.9988Q13.2221 50.9794 13.2503 50.9794Q13.2821 50.9794 13.2997 50.9988Q13.3174 51.0182 13.3174 51.0464ZM15.6492 51.0464Q15.6492 51.0782 15.6298 51.0958Q15.6104 51.1134 15.5787 51.1134H14.792V53.3783Q14.792 53.4065 14.7708 53.4277Q14.7496 53.4488 14.7214 53.4488Q14.6897 53.4488 14.6703 53.4277Q14.6509 53.4065 14.6509 53.3783V51.1134H13.8642Q13.8359 51.1134 13.8148 51.094Q13.7936 51.0746 13.7936 51.0464Q13.7936 51.0182 13.8148 50.9988Q13.8359 50.9794 13.8642 50.9794H15.5787Q15.6069 50.9794 15.6281 50.9988Q15.6492 51.0182 15.6492 51.0464ZM17.5966 53.3783Q17.5966 53.41 17.5754 53.4294Q17.5542 53.4488 17.526 53.4488H16.196Q16.1678 53.4488 16.1466 53.4277Q16.1255 53.4065 16.1255 53.3783V51.0499Q16.1255 51.0217 16.1466 51.0006Q16.1678 50.9794 16.196 50.9794H17.526Q17.5542 50.9794 17.5754 51.0006Q17.5966 51.0217 17.5966 51.0499Q17.5966 51.0817 17.5754 51.1011Q17.5542 51.1205 17.526 51.1205H16.2736V52.1048H17.3673Q17.3955 52.1048 17.4166 52.1259Q17.4378 52.1471 17.4378 52.1753Q17.4378 52.2071 17.4166 52.2265Q17.3955 52.2459 17.3673 52.2459H16.2736V53.3077H17.526Q17.5542 53.3077 17.5754 53.3289Q17.5966 53.3501 17.5966 53.3783ZM19.9919 52.3023V53.1878Q19.9919 53.2301 19.9602 53.2513Q19.7979 53.3606 19.6056 53.4224Q19.4134 53.4841 19.2158 53.4841Q18.8524 53.4841 18.5649 53.3201Q18.2774 53.156 18.1134 52.8667Q17.9493 52.5775 17.9493 52.2141Q17.9493 51.8507 18.1134 51.5615Q18.2774 51.2722 18.5649 51.1082Q18.8524 50.9441 19.2158 50.9441Q19.4134 50.9441 19.5915 50.9917Q19.7697 51.0394 19.9108 51.1346Q19.9425 51.1558 19.9425 51.1946Q19.9425 51.2263 19.9196 51.2457Q19.8967 51.2651 19.8755 51.2651Q19.8579 51.2651 19.8296 51.251Q19.5333 51.0852 19.2158 51.0852Q18.8912 51.0852 18.6373 51.2299Q18.3833 51.3745 18.2404 51.632Q18.0975 51.8896 18.0975 52.2141Q18.0975 52.5387 18.2404 52.7962Q18.3833 53.0537 18.6373 53.1984Q18.8912 53.343 19.2158 53.343Q19.3781 53.343 19.5457 53.2918Q19.7132 53.2407 19.8508 53.156V52.3729H19.2158Q19.1876 52.3729 19.1664 52.3517Q19.1453 52.3305 19.1453 52.3023Q19.1453 52.2706 19.1664 52.2512Q19.1876 52.2317 19.2158 52.2317H19.9214Q19.9531 52.2317 19.9725 52.2529Q19.9919 52.2741 19.9919 52.3023Z" style="stroke:#000000;stroke-width:0.25;stroke-linecap:round;stroke-linejoin:bevel" />
        <path id="control_text" d="M9.78422 113.04Q9.78422 113.069 9.77011 113.086Q9.74894 113.115 9.71719 113.115Q9.70308 113.115 9.67486 113.1Q9.34678 112.878 8.97989 112.878Q8.68356 112.878 8.43485 113.025Q8.18614 113.171 8.0415 113.43Q7.89686 113.69 7.89686 114.014Q7.89686 114.339 8.0415 114.598Q8.18614 114.857 8.43485 115.004Q8.68356 115.15 8.97989 115.15Q9.35031 115.15 9.67133 114.931Q9.68897 114.917 9.71367 114.917Q9.74894 114.917 9.77011 114.945Q9.78422 114.963 9.78422 114.988Q9.78422 115.023 9.756 115.044Q9.61842 115.143 9.40146 115.214Q9.1845 115.284 8.97989 115.284Q8.64475 115.284 8.36253 115.118Q8.08031 114.953 7.9145 114.661Q7.74869 114.37 7.74869 114.014Q7.74869 113.658 7.9145 113.367Q8.08031 113.076 8.36253 112.91Q8.64475 112.744 8.97989 112.744Q9.19156 112.744 9.39087 112.808Q9.59019 112.871 9.75247 112.984Q9.78422 113.009 9.78422 113.04Z" style="stroke:#000000;stroke-width:0.25;stroke-linecap:round;stroke-linejoin:bevel" />
    </g>
</svg>
