<?xml version="1.0" encoding="utf-8"?>
<svg xmlns="http://www.w3.org/2000/svg" width="20.32mm" height="128.50mm" viewBox="0 0 20.32 128.50">
    <g id="PanelLayer">
        <defs />
        <rect id="border_rect" width="20.32" height="128.5" x="0" y="0" style="display:inline;fill:#4f8df2;fill-opacity:1;stroke:none;" />
        <path d="M 10.16,91.00 L 10.16,101.00 " style="stroke:#000000;stroke-width:0.25;stroke-linecap:round;stroke-linejoin:bevel;stroke-dasharray:none" fill="none" />
        <path d="M7.84754 85.7841Q7.50535 85.7841 7.23724 85.6236Q6.96913 85.4631 6.81919 85.1738Q6.66926 84.8845 6.66926 84.5141Q6.66926 84.1437 6.81919 83.8544Q6.96913 83.5651 7.23724 83.4046Q7.50535 83.2441 7.84754 83.2441Q8.18974 83.2441 8.45785 83.4046Q8.72596 83.5651 8.87589 83.8544Q9.02582 84.1437 9.02582 84.5141Q9.02582 84.8845 8.87589 85.1738Q8.72596 85.4631 8.45785 85.6236Q8.18974 85.7841 7.84754 85.7841ZM7.84754 83.3852Q7.54768 83.3852 7.31308 83.5263Q7.07849 83.6674 6.94796 83.925Q6.81743 84.1825 6.81743 84.5141Q6.81743 84.8457 6.94796 85.1033Q7.07849 85.3608 7.31308 85.5019Q7.54768 85.643 7.84754 85.643Q8.1474 85.643 8.382 85.5019Q8.6166 85.3608 8.74713 85.1033Q8.87765 84.8457 8.87765 84.5141Q8.87765 84.1825 8.74713 83.925Q8.6166 83.6674 8.382 83.5263Q8.1474 83.3852 7.84754 83.3852ZM11.3718 83.3499V84.8739Q11.3718 85.1209 11.2483 85.329Q11.1248 85.5372 10.9167 85.6606Q10.7086 85.7841 10.4652 85.7841Q10.2182 85.7841 10.0101 85.6606Q9.80193 85.5372 9.67846 85.329Q9.55499 85.1209 9.55499 84.8739V83.3499Q9.55499 83.3182 9.57615 83.2988Q9.59732 83.2794 9.62907 83.2794Q9.66082 83.2794 9.68199 83.3006Q9.70315 83.3217 9.70315 83.3499V84.8739Q9.70315 85.0821 9.80546 85.2585Q9.90776 85.4349 10.0824 85.5389Q10.257 85.643 10.4652 85.643Q10.6733 85.643 10.8479 85.5389Q11.0225 85.4349 11.1266 85.2585Q11.2307 85.0821 11.2307 84.8739V83.3499Q11.2307 83.3217 11.2501 83.3006Q11.2695 83.2794 11.3012 83.2794Q11.333 83.2794 11.3524 83.3006Q11.3718 83.3217 11.3718 83.3499ZM13.7037 83.3464Q13.7037 83.3782 13.6843 83.3958Q13.6648 83.4134 13.6331 83.4134H12.8464V85.6783Q12.8464 85.7065 12.8252 85.7277Q12.8041 85.7488 12.7758 85.7488Q12.7441 85.7488 12.7247 85.7277Q12.7053 85.7065 12.7053 85.6783V83.4134H11.9186Q11.8904 83.4134 11.8692 83.394Q11.848 83.3746 11.848 83.3464Q11.848 83.3182 11.8692 83.2988Q11.8904 83.2794 11.9186 83.2794H13.6331Q13.6613 83.2794 13.6825 83.2988Q13.7037 83.3182 13.7037 83.3464Z" style="stroke:#000000;stroke-width:0.25;stroke-linecap:round;stroke-linejoin:bevel" />
        <path d="M17.5278 92.1783Q17.5278 92.21 17.5067 92.2294Q17.4855 92.2488 17.4573 92.2488H16.1626Q16.1308 92.2488 16.1114 92.2277Q16.092 92.2065 16.092 92.1783V89.8499Q16.092 89.8217 16.1132 89.8006Q16.1344 89.7794 16.1661 89.7794Q16.1979 89.7794 16.219 89.8006Q16.2402 89.8217 16.2402 89.8499V92.1077H17.4573Q17.4855 92.1077 17.5067 92.1289Q17.5278 92.1501 17.5278 92.1783Z" style="stroke:#000000;stroke-width:0.25;stroke-linecap:round;stroke-linejoin:bevel" />
        <path d="M17.6372 102.175Q17.6372 102.207 17.6178 102.226Q17.5984 102.245 17.5702 102.245Q17.549 102.245 17.5384 102.238Q17.4432 102.185 17.3867 102.06Q17.3303 101.935 17.3303 101.649Q17.3303 101.36 17.1751 101.252Q17.0198 101.145 16.8152 101.145H15.9897V102.178Q15.9897 102.207 15.9686 102.228Q15.9474 102.249 15.9156 102.249Q15.8839 102.249 15.8627 102.228Q15.8416 102.207 15.8416 102.178V99.8499Q15.8416 99.8217 15.8627 99.8006Q15.8839 99.7794 15.9121 99.7794H16.8434Q17.0481 99.7794 17.2068 99.8623Q17.3656 99.9452 17.4537 100.09Q17.5419 100.234 17.5419 100.418Q17.5419 100.654 17.4167 100.824Q17.2915 100.993 17.0904 101.053Q17.2597 101.106 17.3691 101.263Q17.4784 101.42 17.4784 101.649Q17.4784 101.885 17.5084 101.979Q17.5384 102.072 17.5984 102.111Q17.6372 102.136 17.6372 102.175ZM16.8611 101.004Q17.0833 100.982 17.2386 100.827Q17.3938 100.672 17.3938 100.421Q17.3938 100.203 17.2386 100.062Q17.0833 99.9205 16.8258 99.9205H15.9897V101.004Z" style="stroke:#000000;stroke-width:0.25;stroke-linecap:round;stroke-linejoin:bevel" />
    </g>
</svg>
