<?xml version="1.0" encoding="utf-8"?>
<svg xmlns="http://www.w3.org/2000/svg" width="20.32mm" height="128.50mm" viewBox="0 0 20.32 128.50">
    <g id="PanelLayer">
        <defs />
        <rect id="border_rect" width="20.32" height="128.5" x="0" y="0" style="display:inline;fill:#4f8df2;fill-opacity:1;stroke:none;" />
        <path d="M 10.16,91.00 L 10.16,101.00 " style="stroke:#000000;stroke-width:0.25;stroke-linecap:round;stroke-linejoin:bevel;stroke-dasharray:none" fill="none" />
        <path d="M7.84754 85.7841Q7.50535 85.7841 7.23724 85.6236Q6.96913 85.4631 6.81919 85.1738Q6.66926 84.8845 6.66926 84.5141Q6.66926 84.1437 6.81919 83.8544Q6.96913 83.5651 7.23724 83.4046Q7.50535 83.2441 7.84754 83.2441Q8.18974 83.2441 8.45785 83.4046Q8.72596 83.5651 8.87589 83.8544Q9.02582 84.1437 9.02582 84.5141Q9.02582 84.8845 8.87589 85.1738Q8.72596 85.4631 8.45785 85.6236Q8.18974 85.7841 7.84754 85.7841ZM7.84754 83.3852Q7.54768 83.3852 7.31308 83.5263Q7.07849 83.6674 6.94796 83.925Q6.81743 84.1825 6.81743 84.5141Q6.81743 84.8457 6.94796 85.1033Q7.07849 85.3608 7.31308 85.5019Q7.54768 85.643 7.84754 85.643Q8.1474 85.643 8.382 85.5019Q8.6166 85.3608 8.74713 85.1033Q8.87765 84.8457 8.87765 84.5141Q8.87765 84.1825 8.74713 83.925Q8.6166 83.6674 8.382 83.5263Q8.1474 83.3852 7.84754 83.3852ZM11.3718 83.3499V84.8739Q11.3718 85.1209 11.2483 85.329Q11.1248 85.5372 10.9167 85.6606Q10.7086 85.7841 10.4652 85.7841Q10.2182 85.7841 10.0101 85.6606Q9.80193 85.5372 9.67846 85.329Q9.55499 85.1209 9.55499 84.8739V83.3499Q9.55499 83.3182 9.57615 83.2988Q9.59732 83.2794 9.62907 83.2794Q9.66082 83.2794 9.68199 83.3006Q9.70315 83.3217 9.70315 83.3499V84.8739Q9.70315 85.0821 9.80546 85.2585Q9.90776 85.4349 10.0824 85.5389Q10.257 85.643 10.4652 85.643Q10.6733 85.643 10.8479 85.5389Q11.0225 85.4349 11.1266 85.2585Q11.2307 85.0821 11.2307 84.8739V83.3499Q11.2307 83.3217 11.2501 83.3006Q11.2695 83.2794 11.3012 83.2794Q11.333 83.2794 11.3524 83.3006Q11.3718 83.3217 11.3718 83.3499ZM13.7037 83.3464Q13.7037 83.3782 13.6843 83.3958Q13.6648 83.4134 13.6331 83.4134H12.8464V85.6783Q12.8464 85.7065 12.8252 85.7277Q12.8041 85.7488 12.7758 85.7488Q12.7441 85.7488 12.7247 85.7277Q12.7053 85.7065 12.7053 85.6783V83.4134H11.9186Q11.8904 83.4134 11.8692 83.394Q11.848 83.3746 11.848 83.3464Q11.848 83.3182 11.8692 83.2988Q11.8904 83.2794 11.9186 83.2794H13.6331Q13.6613 83.2794 13.6825 83.2988Q13.7037 83.3182 13.7037 83.3464Z" style="stroke:#000000;stroke-width:0.25;stroke-linecap:round;stroke-linejoin:bevel" />
        <path d="M17.5278 92.1783Q17.5278 92.21 17.5067 92.2294Q17.4855 92.2488 17.4573 92.2488H16.1626Q16.1308 92.2488 16.1114 92.2277Q16.092 92.2065 16.092 92.1783V89.8499Q16.092 89.8217 16.1132 89.8006Q16.1344 89.7794 16.1661 89.7794Q16.1979 89.7794 16.219 89.8006Q16.2402 89.8217 16.2402 89.8499V92.1077H17.4573Q17.4855 92.1077 17.5067 92.1289Q17.5278 92.1501 17.5278 92.1783Z" style="stroke:#000000;stroke-width:0.25;stroke-linecap:round;stroke-linejoin:bevel" />
        <path d="M17.6372 102.175Q17.6372 102.207 17.6178 102.226Q17.5984 102.245 17.5702 102.245Q17.549 102.245 17.5384 102.238Q17.4432 102.185 17.3867 102.06Q17.3303 101.935 17.3303 101.649Q17.3303 101.36 17.1751 101.252Q17.0198 101.145 16.8152 101.145H15.9897V102.178Q15.9897 102.207 15.9686 102.228Q15.9474 102.249 15.9156 102.249Q15.8839 102.249 15.8627 102.228Q15.8416 102.207 15.8416 102.178V99.8499Q15.8416 99.8217 15.8627 99.8006Q15.8839 99.7794 15.9121 99.7794H16.8434Q17.0481 99.7794 17.2068 99.8623Q17.3656 99.9452 17.4537 100.09Q17.5419 100.234 17.5419 100.418Q17.5419 100.654 17.4167 100.824Q17.2915 100.993 17.0904 101.053Q17.2597 101.106 17.3691 101.263Q17.4784 101.42 17.4784 101.649Q17.4784 101.885 17.5084 101.979Q17.5384 102.072 17.5984 102.111Q17.6372 102.136 17.6372 102.175ZM16.8611 101.004Q17.0833 100.982 17.2386 100.827Q17.3938 100.672 17.3938 100.421Q17.3938 100.203 17.2386 100.062Q17.0833 99.9205 16.8258 99.9205H15.9897V101.004Z" style="stroke:#000000;stroke-width:0.25;stroke-linecap:round;stroke-linejoin:bevel" />
        <path d="M9.80369 12.6499V14.9783Q9.80369 15.0065 9.78076 15.0277Q9.75783 15.0488 9.72961 15.0488Q9.69786 15.0488 9.67669 15.0277Q9.65553 15.0065 9.65553 14.9783V12.8687L8.74536 14.2445Q8.72772 14.2727 8.69597 14.2727Q8.65717 14.2727 8.63953 14.2445L7.72583 12.8651V14.9783Q7.72583 15.0065 7.70467 15.0277Q7.6835 15.0488 7.65528 15.0488Q7.62353 15.0488 7.60412 15.0277Q7.58472 15.0065 7.58472 14.9783V12.6499Q7.58472 12.6253 7.60412 12.6023Q7.62353 12.5794 7.65175 12.5794Q7.69761 12.5794 7.71878 12.6111L8.69597 14.0646L9.67317 12.6111Q9.70139 12.5723 9.74019 12.5794Q9.76842 12.5829 9.78606 12.6023Q9.80369 12.6217 9.80369 12.6499ZM10.5833 15.0488Q10.5481 15.0488 10.5287 15.0277Q10.5092 15.0065 10.5092 14.9748V12.6535Q10.5092 12.6217 10.5304 12.6006Q10.5516 12.5794 10.5833 12.5794Q10.6151 12.5794 10.6363 12.6006Q10.6574 12.6217 10.6574 12.6535V14.9748Q10.6539 15.0065 10.6327 15.0277Q10.6116 15.0488 10.5833 15.0488ZM12.9646 14.9465Q12.9822 14.9712 12.9822 14.9889Q12.9822 15.0206 12.9611 15.04Q12.9399 15.0594 12.9081 15.0594Q12.8693 15.0594 12.8517 15.0312L12.0438 13.9305L11.2395 15.0312Q11.2219 15.0594 11.1866 15.0594Q11.1548 15.0594 11.1372 15.04Q11.1196 15.0206 11.1196 14.9994Q11.1196 14.9818 11.1372 14.9536L11.9662 13.8212L11.1301 12.6817Q11.116 12.6641 11.116 12.6394Q11.116 12.6076 11.1372 12.5882Q11.1584 12.5688 11.1866 12.5688Q11.2289 12.5688 11.2466 12.597L12.0544 13.7012L12.8588 12.5935Q12.8799 12.5653 12.9117 12.5653Q12.9434 12.5653 12.9628 12.5812Q12.9822 12.597 12.9822 12.6217Q12.9822 12.6464 12.9646 12.6711L12.1356 13.8141Z" style="stroke:#000000;stroke-width:0.25;stroke-linecap:round;stroke-linejoin:bevel" />
        <path d="M 10.16,23.00 L 5.16,34.00 z L 15.16,34.00 z " style="stroke:#000000;stroke-width:0.25;stroke-linecap:round;stroke-linejoin:bevel;stroke-dasharray:none" />
        <path d="M6.94267 49.9783Q6.94267 50.01 6.9215 50.0294Q6.90033 50.0488 6.87211 50.0488H5.57742Q5.54567 50.0488 5.52626 50.0277Q5.50686 50.0065 5.50686 49.9783V47.6499Q5.50686 47.6217 5.52803 47.6006Q5.54919 47.5794 5.58094 47.5794Q5.61269 47.5794 5.63386 47.6006Q5.65503 47.6217 5.65503 47.6499V49.9077H6.87211Q6.90033 49.9077 6.9215 49.9289Q6.94267 49.9501 6.94267 49.9783ZM8.81944 49.9783Q8.81944 50.01 8.79828 50.0294Q8.77711 50.0488 8.74889 50.0488H7.41892Q7.39069 50.0488 7.36953 50.0277Q7.34836 50.0065 7.34836 49.9783V47.6499Q7.34836 47.6217 7.36953 47.6006Q7.39069 47.5794 7.41892 47.5794H8.74889Q8.77711 47.5794 8.79828 47.6006Q8.81944 47.6217 8.81944 47.6499Q8.81944 47.6817 8.79828 47.7011Q8.77711 47.7205 8.74889 47.7205H7.49653V48.7047H8.59014Q8.61836 48.7047 8.63953 48.7259Q8.66069 48.7471 8.66069 48.7753Q8.66069 48.8071 8.63953 48.8265Q8.61836 48.8459 8.59014 48.8459H7.49653V49.9077H8.74889Q8.77711 49.9077 8.79828 49.9289Q8.81944 49.9501 8.81944 49.9783ZM11.2007 47.6429Q11.2007 47.657 11.1936 47.6782L10.227 50.003Q10.2059 50.0488 10.16 50.0488Q10.1388 50.0488 10.1194 50.0365Q10.1 50.0241 10.093 50.003L9.13342 47.6887Q9.12283 47.6676 9.12283 47.6464Q9.12283 47.6182 9.14224 47.5988Q9.16164 47.5794 9.18986 47.5794Q9.24278 47.5794 9.26747 47.6358L10.1635 49.7913L11.0631 47.6252Q11.0878 47.5794 11.1301 47.5794Q11.1619 47.5794 11.1813 47.597Q11.2007 47.6147 11.2007 47.6429ZM13.148 49.9783Q13.148 50.01 13.1269 50.0294Q13.1057 50.0488 13.0775 50.0488H11.7475Q11.7193 50.0488 11.6981 50.0277Q11.6769 50.0065 11.6769 49.9783V47.6499Q11.6769 47.6217 11.6981 47.6006Q11.7193 47.5794 11.7475 47.5794H13.0775Q13.1057 47.5794 13.1269 47.6006Q13.148 47.6217 13.148 47.6499Q13.148 47.6817 13.1269 47.7011Q13.1057 47.7205 13.0775 47.7205H11.8251V48.7047H12.9187Q12.9469 48.7047 12.9681 48.7259Q12.9893 48.7471 12.9893 48.7753Q12.9893 48.8071 12.9681 48.8265Q12.9469 48.8459 12.9187 48.8459H11.8251V49.9077H13.0775Q13.1057 49.9077 13.1269 49.9289Q13.148 49.9501 13.148 49.9783ZM15.113 49.9783Q15.113 50.01 15.0918 50.0294Q15.0707 50.0488 15.0424 50.0488H13.7477Q13.716 50.0488 13.6966 50.0277Q13.6772 50.0065 13.6772 49.9783V47.6499Q13.6772 47.6217 13.6984 47.6006Q13.7195 47.5794 13.7513 47.5794Q13.783 47.5794 13.8042 47.6006Q13.8254 47.6217 13.8254 47.6499V49.9077H15.0424Q15.0707 49.9077 15.0918 49.9289Q15.113 49.9501 15.113 49.9783Z" style="stroke:#000000;stroke-width:0.25;stroke-linecap:round;stroke-linejoin:bevel" />
        <path d="M 10.16,58.00 L 5.16,69.00 z L 15.16,69.00 z " style="stroke:#000000;stroke-width:0.25;stroke-linecap:round;stroke-linejoin:bevel;stroke-dasharray:none" />
    </g>
</svg>
