<?xml version="1.0" encoding="utf-8"?>
<svg xmlns="http://www.w3.org/2000/svg" width="20.32mm" height="128.50mm" viewBox="0 0 20.32 128.50">
    <g id="PanelLayer">
        <defs />
        <rect id="border_rect" width="20.32" height="128.5" x="0" y="0" style="display:inline;fill:#4f8df2;fill-opacity:1;stroke:none;" />
        <path d="M17.5278 101.178Q17.5278 101.21 17.5067 101.229Q17.4855 101.249 17.4573 101.249H16.1626Q16.1308 101.249 16.1114 101.228Q16.092 101.207 16.092 101.178V98.8499Q16.092 98.8217 16.1132 98.8006Q16.1344 98.7794 16.1661 98.7794Q16.1979 98.7794 16.219 98.8006Q16.2402 98.8217 16.2402 98.8499V101.108H17.4573Q17.4855 101.108 17.5067 101.129Q17.5278 101.15 17.5278 101.178Z" style="stroke:#000000;stroke-width:0.25;stroke-linecap:round;stroke-linejoin:bevel" />
        <path d="M17.6372 111.175Q17.6372 111.207 17.6178 111.226Q17.5984 111.245 17.5702 111.245Q17.549 111.245 17.5384 111.238Q17.4432 111.185 17.3867 111.06Q17.3303 110.935 17.3303 110.649Q17.3303 110.36 17.1751 110.252Q17.0198 110.145 16.8152 110.145H15.9897V111.178Q15.9897 111.207 15.9686 111.228Q15.9474 111.249 15.9156 111.249Q15.8839 111.249 15.8627 111.228Q15.8416 111.207 15.8416 111.178V108.85Q15.8416 108.822 15.8627 108.801Q15.8839 108.779 15.9121 108.779H16.8434Q17.0481 108.779 17.2068 108.862Q17.3656 108.945 17.4537 109.09Q17.5419 109.234 17.5419 109.418Q17.5419 109.654 17.4167 109.824Q17.2915 109.993 17.0904 110.053Q17.2597 110.106 17.3691 110.263Q17.4784 110.42 17.4784 110.649Q17.4784 110.885 17.5084 110.979Q17.5384 111.072 17.5984 111.111Q17.6372 111.136 17.6372 111.175ZM16.8611 110.004Q17.0833 109.982 17.2386 109.827Q17.3938 109.672 17.3938 109.421Q17.3938 109.203 17.2386 109.062Q17.0833 108.921 16.8258 108.921H15.9897V110.004Z" style="stroke:#000000;stroke-width:0.25;stroke-linecap:round;stroke-linejoin:bevel" />
    </g>
</svg>
