<?xml version="1.0" encoding="utf-8"?>
<svg xmlns="http://www.w3.org/2000/svg" width="15.24mm" height="128.50mm" viewBox="0 0 15.24 128.50">
    <g id="PanelLayer">
        <defs />
        <rect id="border_rect" width="15.24" height="128.5" x="0" y="0" style="display:inline;fill:#4f8df2;fill-opacity:1;fill-rule:nonzero;stroke:#5021d4;stroke-width:0.7;stroke-linecap:round;stroke-linejoin:round;stroke-dasharray:none;stroke-opacity:1;image-rendering:auto" />
        <path id="model_name" d="M4.21287 8.22887Q3.67736 8.22887 3.23885 7.96111Q2.80035 7.69335 2.54811 7.22769Q2.29588 6.76202 2.29588 6.19546Q2.29588 5.62114 2.54811 5.15547Q2.80035 4.6898 3.23497 4.42204Q3.66959 4.15429 4.21287 4.15429Q4.74839 4.15429 5.18689 4.42204Q5.62539 4.6898 5.87375 5.15547Q6.12211 5.62114 6.12211 6.19546Q6.12211 6.76978 5.87375 7.23157Q5.62539 7.69335 5.18689 7.96111Q4.74839 8.22887 4.21287 8.22887ZM4.21287 4.44921Q3.76273 4.44921 3.39408 4.67816Q3.02542 4.90711 2.81587 5.30293Q2.60632 5.69875 2.60632 6.19546Q2.60632 6.68441 2.81587 7.08022Q3.02542 7.47604 3.39408 7.70499Q3.76273 7.93395 4.21287 7.93395Q4.67078 7.93395 5.03555 7.70887Q5.40032 7.4838 5.60599 7.08411Q5.81166 6.68441 5.81166 6.19546Q5.81166 5.69875 5.60599 5.30293Q5.40032 4.90711 5.03555 4.67816Q4.67078 4.44921 4.21287 4.44921ZM10.22 4.43369V6.69217Q10.22 7.42948 9.80475 7.81365Q9.38953 8.19782 8.67551 8.19782Q7.96149 8.19782 7.55015 7.81365Q7.13881 7.42948 7.13881 6.69217V4.43369Q7.13881 4.3716 7.18538 4.32503Q7.23194 4.27846 7.29403 4.27846Q7.36388 4.27846 7.40657 4.32503Q7.44926 4.3716 7.44926 4.43369V6.69217Q7.44926 7.27425 7.77522 7.58858Q8.10119 7.9029 8.67551 7.9029Q9.25759 7.9029 9.58356 7.58858Q9.90953 7.27425 9.90953 6.69217V4.43369Q9.90953 4.3716 9.95221 4.32503Q9.9949 4.27846 10.0648 4.27846Q10.1346 4.27846 10.1773 4.32503Q10.22 4.3716 10.22 4.43369ZM13.0993 4.39488Q13.0993 4.45697 13.0567 4.49966Q13.014 4.54234 12.9519 4.54234H12.0982V7.3053Q12.0982 7.64679 12.2185 7.75932Q12.3388 7.87186 12.525 7.87186Q12.5561 7.87186 12.6143 7.85634Q12.6725 7.84081 12.7113 7.84081Q12.7656 7.84081 12.8044 7.8835Q12.8432 7.92619 12.8432 7.98051Q12.8432 8.05036 12.7501 8.10081Q12.657 8.15126 12.5328 8.15126Q12.3388 8.15126 12.2068 8.12409Q12.0749 8.09693 11.9313 7.91454Q11.7877 7.73216 11.7877 7.32082V4.54234H11.1513Q11.097 4.54234 11.0504 4.49578Q11.0038 4.44921 11.0038 4.39488Q11.0038 4.33279 11.0465 4.29011Q11.0892 4.24742 11.1513 4.24742H11.7877V3.26176Q11.7877 3.19967 11.8343 3.1531Q11.8808 3.10654 11.9429 3.10654Q12.0128 3.10654 12.0555 3.1531Q12.0982 3.19967 12.0982 3.26176V4.24742H12.9519Q13.0062 4.24742 13.0528 4.29399Q13.0993 4.34055 13.0993 4.39488Z" style="display:inline;stroke:#000000;stroke-width:0.35;stroke-linecap:round;stroke-linejoin:bevel" />
        <path id="sapphire_gemstone" d="m 10.335,122.900 q 0,0.34175 -0.242534,0.63114 -0.0441,0.0524 -0.20395,0.21497 -0.187413,0.19017 -0.785481,0.81304 l -1.444183,1.51309 q -0.01929,0.003 -0.0441,0.003 -0.02756,0 -0.04134,-0.003 -0.08268,-0.0827 -0.647678,-0.67524 -0.468532,-0.47404 -0.934309,-0.94809 -0.556727,-0.56775 -0.89848,-0.98116 -0.132292,-0.15985 -0.168121,-0.29766 -0.02756,-0.10197 -0.02756,-0.34175 0,-0.11024 0.07166,-0.28939 0.06614,-0.16536 0.140559,-0.26458 0.118512,-0.1571 0.42168,-0.42444 0.283875,-0.2508 0.474044,-0.37482 0.272852,-0.17915 0.818555,-0.36656 0.09646,-0.0331 0.110243,-0.0331 h 1.3615 q 0.01102,0 0.104731,0.0331 0.567751,0.20119 0.824066,0.36656 0.165365,0.10473 0.474045,0.37758 0.322461,0.28388 0.421679,0.42168 0.214974,0.2949 0.214974,0.62563 z m -0.16812,-0.27285 q -0.03307,-0.10749 -0.135048,-0.30868 -0.07166,-0.0937 -0.209462,-0.19844 -0.118511,-0.0854 -0.234266,-0.17088 0.245291,0.3638 0.578776,0.678 z m -0.573264,-0.52366 -0.358289,-0.44648 v 0.41065 z m 0.636653,0.75792 q 0,-0.0524 -0.341753,-0.39412 l 0.228754,0.7028 h 0.04961 q 0.06339,-0.21773 0.06339,-0.30868 z m -0.23151,0.27285 -0.316948,-0.90399 -0.410655,-0.0634 -0.159853,0.61461 z m 0.0028,0.15434 -0.771701,-0.3197 h -0.03032 l 0.344509,0.60634 q 0.07993,-0.003 0.234266,-0.0469 0.02481,-0.0138 0.223242,-0.23978 z m -0.857139,-1.05006 -0.719335,0.28388 0.60358,0.22599 z m 0,-0.16261 v -0.51538 l -0.917773,-0.38034 h -1.223697 l -0.917772,0.38034 v 0.51538 l 0.89848,0.4079 h 1.254014 z m 0.573264,1.53789 q -0.0689,0.011 -0.198438,0.0524 -0.08544,0.0551 -0.259071,0.16261 0.01929,0 0.06339,0.003 0.04134,0 0.06339,0 0.118511,0 0.190169,-0.0689 0.07166,-0.0717 0.14056,-0.14883 z m -0.289388,0.003 -0.347266,-0.63114 -0.363801,0.87918 q 0.0248,-0.0165 0.06615,-0.0165 0.03032,0 0.08544,0.011 0.05788,0.008 0.08819,0.008 0.04961,0 0.228754,-0.10749 0.228754,-0.1378 0.242535,-0.14331 z m -0.440972,-0.74139 -0.683507,-0.2756 -0.592556,0.54845 0.903993,0.65595 z m -0.854383,-0.28387 h -1.036284 l 0.523654,0.47404 z m 0.749652,1.36701 q -0.228754,-0.0303 -0.228754,-0.0303 -0.03583,0 -0.272851,0.0937 l 0.190169,0.0193 q 0.01102,0 0.311436,-0.0827 z m -0.388606,-0.0882 -0.843359,-0.61185 v 0.67524 l 0.471289,0.0827 z m 0.854383,0.0496 q -0.09922,0.006 -0.2949,0.0386 -0.01102,0.003 -0.377583,0.17639 -0.129535,0.34726 -0.380338,1.0418 z m -2.543857,-1.39733 -0.719335,-0.28388 0.124023,0.51814 z m -0.802018,-0.45476 v -0.41065 l -0.366557,0.44648 z m 1.515841,1.07212 -0.592556,-0.54019 -0.683506,0.2756 0.380338,0.9288 z m 0.369314,0.94257 q -0.03307,-0.003 -0.135047,-0.0248 -0.08544,-0.0165 -0.137804,-0.0165 -0.05237,0 -0.137804,0.0165 -0.101975,0.0221 -0.135047,0.0248 0.264583,0.0469 0.272851,0.0469 0.0083,0 0.272851,-0.0469 z m -0.30868,-0.1378 v -0.68626 l -0.843359,0.61185 0.37207,0.14607 z m 0.950846,0.20671 -0.396875,-0.0551 -0.479557,0.14056 v 1.27607 z m -2.888366,-2.20211 q -0.118512,0.0854 -0.234267,0.17364 -0.146072,0.10748 -0.209461,0.19568 -0.0441,0.10473 -0.135048,0.31419 0.369314,-0.3638 0.578776,-0.68351 z m 0.476801,0.83234 -0.159853,-0.61461 -0.410655,0.0634 -0.316948,0.90399 z m 0.394118,1.08313 -0.363802,-0.87918 -0.355533,0.63114 q 0.43546,0.2508 0.451996,0.2508 0.09095,0 0.267339,-0.003 z m 1.821765,0.82958 q -0.132291,0.21222 -0.405143,0.6339 -0.07717,0.10749 -0.220486,0.32797 -0.05788,0.10473 -0.05512,0.226 0.159852,-0.15158 0.432704,-0.49609 0.07717,-0.12954 0.140559,-0.339 0.05512,-0.17639 0.107486,-0.35278 z m -1.493792,-0.66146 -0.270095,-0.0882 -0.0083,-0.011 q -0.02481,0 -0.107487,0.011 -0.06615,0.006 -0.107487,0.006 0.272851,0.091 0.311436,0.091 0.02481,0 0.181901,-0.008 z m -0.810286,-1.06384 h -0.03032 l -0.7717,0.3197 q 0.06615,0.0965 0.223242,0.23978 0.07717,0.0138 0.234266,0.0469 z m -0.689018,-0.50161 q -0.341754,0.34727 -0.341754,0.39412 0,0.0799 0.06339,0.30868 h 0.04961 z m 2.235176,3.04547 v -1.27607 l -0.479557,-0.14056 -0.396875,0.0551 z m -1.606791,-1.6757 q -0.256315,-0.1819 -0.457509,-0.22324 0.06615,0.0772 0.20395,0.22324 z m 1.609547,2.04501 v -0.1378 l -0.683507,-1.05007 q 0.05237,0.17639 0.107487,0.35278 0.06339,0.20946 0.14056,0.339 0.0689,0.11851 0.20395,0.25907 0.115755,0.11851 0.23151,0.23702 z m -0.644921,-0.70555 q -0.115756,-0.32798 -0.380339,-1.0418 -0.135047,-0.0662 -0.272851,-0.12954 -0.159852,-0.0716 -0.289388,-0.0716 -0.05237,0 -0.110243,-0.0138 z" style="stroke-width:0;fill:#0000ff;stroke:#2e2114;stroke-linecap:square;stroke-opacity:1" />
    </g>
</svg>
