<?xml version="1.0" encoding="utf-8"?>
<svg xmlns="http://www.w3.org/2000/svg" width="20.32mm" height="128.50mm" viewBox="0 0 20.32 128.50">
    <g id="PanelLayer">
        <defs />
        <rect id="border_rect" width="20.32" height="128.5" x="0" y="0" style="display:inline;fill:#4f8df2;fill-opacity:1;stroke:none;" />
        <path d="M 10.16,100.00 L 10.16,110.00 " style="stroke:#000000;stroke-width:0.25;stroke-linecap:round;stroke-linejoin:bevel;stroke-dasharray:none" fill="none" />
        <path d="M7.84754 94.7841Q7.50535 94.7841 7.23724 94.6236Q6.96913 94.4631 6.81919 94.1738Q6.66926 93.8845 6.66926 93.5141Q6.66926 93.1437 6.81919 92.8544Q6.96913 92.5651 7.23724 92.4046Q7.50535 92.2441 7.84754 92.2441Q8.18974 92.2441 8.45785 92.4046Q8.72596 92.5651 8.87589 92.8544Q9.02582 93.1437 9.02582 93.5141Q9.02582 93.8845 8.87589 94.1738Q8.72596 94.4631 8.45785 94.6236Q8.18974 94.7841 7.84754 94.7841ZM7.84754 92.3852Q7.54768 92.3852 7.31308 92.5263Q7.07849 92.6674 6.94796 92.925Q6.81743 93.1825 6.81743 93.5141Q6.81743 93.8457 6.94796 94.1033Q7.07849 94.3608 7.31308 94.5019Q7.54768 94.643 7.84754 94.643Q8.1474 94.643 8.382 94.5019Q8.6166 94.3608 8.74713 94.1033Q8.87765 93.8457 8.87765 93.5141Q8.87765 93.1825 8.74713 92.925Q8.6166 92.6674 8.382 92.5263Q8.1474 92.3852 7.84754 92.3852ZM11.3718 92.3499V93.8739Q11.3718 94.1209 11.2483 94.329Q11.1248 94.5372 10.9167 94.6606Q10.7086 94.7841 10.4652 94.7841Q10.2182 94.7841 10.0101 94.6606Q9.80193 94.5372 9.67846 94.329Q9.55499 94.1209 9.55499 93.8739V92.3499Q9.55499 92.3182 9.57615 92.2988Q9.59732 92.2794 9.62907 92.2794Q9.66082 92.2794 9.68199 92.3006Q9.70315 92.3217 9.70315 92.3499V93.8739Q9.70315 94.0821 9.80546 94.2585Q9.90776 94.4349 10.0824 94.5389Q10.257 94.643 10.4652 94.643Q10.6733 94.643 10.8479 94.5389Q11.0225 94.4349 11.1266 94.2585Q11.2307 94.0821 11.2307 93.8739V92.3499Q11.2307 92.3217 11.2501 92.3006Q11.2695 92.2794 11.3012 92.2794Q11.333 92.2794 11.3524 92.3006Q11.3718 92.3217 11.3718 92.3499ZM13.7037 92.3464Q13.7037 92.3782 13.6843 92.3958Q13.6648 92.4134 13.6331 92.4134H12.8464V94.6783Q12.8464 94.7065 12.8252 94.7277Q12.8041 94.7488 12.7758 94.7488Q12.7441 94.7488 12.7247 94.7277Q12.7053 94.7065 12.7053 94.6783V92.4134H11.9186Q11.8904 92.4134 11.8692 92.394Q11.848 92.3746 11.848 92.3464Q11.848 92.3182 11.8692 92.2988Q11.8904 92.2794 11.9186 92.2794H13.6331Q13.6613 92.2794 13.6825 92.2988Q13.7037 92.3182 13.7037 92.3464Z" style="stroke:#000000;stroke-width:0.25;stroke-linecap:round;stroke-linejoin:bevel" />
        <path d="M17.5278 101.178Q17.5278 101.21 17.5067 101.229Q17.4855 101.249 17.4573 101.249H16.1626Q16.1308 101.249 16.1114 101.228Q16.092 101.207 16.092 101.178V98.8499Q16.092 98.8217 16.1132 98.8006Q16.1344 98.7794 16.1661 98.7794Q16.1979 98.7794 16.219 98.8006Q16.2402 98.8217 16.2402 98.8499V101.108H17.4573Q17.4855 101.108 17.5067 101.129Q17.5278 101.15 17.5278 101.178Z" style="stroke:#000000;stroke-width:0.25;stroke-linecap:round;stroke-linejoin:bevel" />
        <path d="M17.6372 111.175Q17.6372 111.207 17.6178 111.226Q17.5984 111.245 17.5702 111.245Q17.549 111.245 17.5384 111.238Q17.4432 111.185 17.3867 111.06Q17.3303 110.935 17.3303 110.649Q17.3303 110.36 17.1751 110.252Q17.0198 110.145 16.8152 110.145H15.9897V111.178Q15.9897 111.207 15.9686 111.228Q15.9474 111.249 15.9156 111.249Q15.8839 111.249 15.8627 111.228Q15.8416 111.207 15.8416 111.178V108.85Q15.8416 108.822 15.8627 108.801Q15.8839 108.779 15.9121 108.779H16.8434Q17.0481 108.779 17.2068 108.862Q17.3656 108.945 17.4537 109.09Q17.5419 109.234 17.5419 109.418Q17.5419 109.654 17.4167 109.824Q17.2915 109.993 17.0904 110.053Q17.2597 110.106 17.3691 110.263Q17.4784 110.42 17.4784 110.649Q17.4784 110.885 17.5084 110.979Q17.5384 111.072 17.5984 111.111Q17.6372 111.136 17.6372 111.175ZM16.8611 110.004Q17.0833 109.982 17.2386 109.827Q17.3938 109.672 17.3938 109.421Q17.3938 109.203 17.2386 109.062Q17.0833 108.921 16.8258 108.921H15.9897V110.004Z" style="stroke:#000000;stroke-width:0.25;stroke-linecap:round;stroke-linejoin:bevel" />
    </g>
</svg>
