<?xml version="1.0" encoding="utf-8"?>
<svg xmlns="http://www.w3.org/2000/svg" width="20.32mm" height="128.50mm" viewBox="0 0 20.32 128.50">
    <g id="PanelLayer">
        <defs />
        <rect id="border_rect" width="20.32" height="128.5" x="0" y="0" style="display:inline;fill:#4f8df2;fill-opacity:1;fill-rule:nonzero;stroke:#5021d4;stroke-width:0.7;stroke-linecap:round;stroke-linejoin:round;stroke-dasharray:none;stroke-opacity:1;image-rendering:auto" />
        <path d="M4.52783 101.178Q4.52783 101.21 4.50667 101.229Q4.4855 101.249 4.45728 101.249H3.16258Q3.13083 101.249 3.11143 101.228Q3.09203 101.207 3.09203 101.178V98.8499Q3.09203 98.8217 3.11319 98.8006Q3.13436 98.7794 3.16611 98.7794Q3.19786 98.7794 3.21903 98.8006Q3.24019 98.8217 3.24019 98.8499V101.108H4.45728Q4.4855 101.108 4.50667 101.129Q4.52783 101.15 4.52783 101.178Z" style="stroke:#000000;stroke-width:0.25;stroke-linecap:round;stroke-linejoin:bevel" />
        <path d="M4.63719 111.175Q4.63719 111.207 4.61779 111.226Q4.59839 111.245 4.57017 111.245Q4.549 111.245 4.53842 111.238Q4.44317 111.185 4.38672 111.06Q4.33028 110.935 4.33028 110.649Q4.33028 110.36 4.17506 110.252Q4.01983 110.145 3.81522 110.145H2.98972V111.178Q2.98972 111.207 2.96856 111.228Q2.94739 111.249 2.91564 111.249Q2.88389 111.249 2.86272 111.228Q2.84156 111.207 2.84156 111.178V108.85Q2.84156 108.822 2.86272 108.801Q2.88389 108.779 2.91211 108.779H3.84344Q4.04806 108.779 4.20681 108.862Q4.36556 108.945 4.45375 109.09Q4.54194 109.234 4.54194 109.418Q4.54194 109.654 4.41671 109.824Q4.29147 109.993 4.09039 110.053Q4.25972 110.106 4.36908 110.263Q4.47844 110.42 4.47844 110.649Q4.47844 110.885 4.50843 110.979Q4.53842 111.072 4.59839 111.111Q4.63719 111.136 4.63719 111.175ZM3.86108 110.004Q4.08333 109.982 4.23856 109.827Q4.39378 109.672 4.39378 109.421Q4.39378 109.203 4.23856 109.062Q4.08333 108.921 3.82581 108.921H2.98972V110.004Z" style="stroke:#000000;stroke-width:0.25;stroke-linecap:round;stroke-linejoin:bevel" />
    </g>
</svg>
