<?xml version="1.0" encoding="utf-8"?>
<svg xmlns="http://www.w3.org/2000/svg" width="30.48mm" height="128.50mm" viewBox="0 0 30.48 128.50">
    <g id="PanelLayer">
        <defs>
            <linearGradient id="gradient_in" x1="0" y1="12.5" x2="0" y2="28" gradientUnits="userSpaceOnUse">
                <stop style="stop-color:#a06de4;stop-opacity:1;" offset="0" />
                <stop style="stop-color:#4f8df2;stop-opacity:1;" offset="1" />
            </linearGradient>
            <linearGradient id="gradient_controls" x1="0" y1="27.8333" x2="0" y2="104.667" gradientUnits="userSpaceOnUse">
                <stop style="stop-color:#3068ff;stop-opacity:1;" offset="0" />
                <stop style="stop-color:#4f8df2;stop-opacity:1;" offset="1" />
            </linearGradient>
            <linearGradient id="gradient_out" x1="0" y1="104.5" x2="0" y2="120" gradientUnits="userSpaceOnUse">
                <stop style="stop-color:#ba60d1;stop-opacity:1;" offset="0" />
                <stop style="stop-color:#4f8df2;stop-opacity:1;" offset="1" />
            </linearGradient>
        </defs>
        <rect id="border_rect" width="30.48" height="128.5" x="0" y="0" style="display:inline;fill:#4f8df2;fill-opacity:1;fill-rule:nonzero;stroke:#5021d4;stroke-width:0.7;stroke-linecap:round;stroke-linejoin:round;stroke-dasharray:none;stroke-opacity:1;image-rendering:auto" />
        <path id="model_name" d="M6.86188 6.21098Q6.86188 6.76978 6.62517 7.22381Q6.38845 7.67783 5.97711 7.93783Q5.56578 8.19782 5.0613 8.19782Q4.59564 8.19782 4.20758 7.96499Q3.81953 7.73216 3.57117 7.3053V9.54826Q3.57117 9.61035 3.52848 9.65691Q3.4858 9.70348 3.41595 9.70348Q3.35386 9.70348 3.30729 9.65691Q3.26073 9.61035 3.26073 9.54826V4.38712Q3.26073 4.32503 3.30341 4.27846Q3.3461 4.2319 3.41595 4.2319Q3.4858 4.2319 3.52848 4.27846Q3.57117 4.32503 3.57117 4.38712V5.10114Q3.804 4.65876 4.19206 4.44533Q4.58011 4.2319 5.0613 4.2319Q5.57354 4.2319 5.98488 4.48801Q6.39621 4.74413 6.62905 5.19428Q6.86188 5.64442 6.86188 6.21098ZM6.55144 6.21098Q6.55144 5.72979 6.35353 5.34562Q6.15562 4.96144 5.81413 4.74413Q5.47264 4.52682 5.04578 4.52682Q4.61116 4.52682 4.26579 4.74025Q3.92042 4.95368 3.73027 5.33786Q3.54013 5.72203 3.54013 6.21098Q3.54013 6.69993 3.73027 7.08411Q3.92042 7.46828 4.26579 7.68559Q4.61116 7.9029 5.04578 7.9029Q5.47264 7.9029 5.81413 7.68559Q6.15562 7.46828 6.35353 7.08022Q6.55144 6.69217 6.55144 6.21098ZM11.3633 4.43369V7.77096Q11.3633 8.36081 11.1227 8.79543Q10.8821 9.23005 10.4475 9.46677Q10.0129 9.70348 9.45409 9.70348Q9.14365 9.70348 8.82544 9.62199Q8.50724 9.5405 8.30157 9.41244Q8.0959 9.28438 8.0959 9.15244Q8.0959 9.09035 8.13082 9.05155Q8.16575 9.01274 8.22784 9.01274Q8.2744 9.01274 8.36754 9.09035Q8.47619 9.19901 8.60813 9.25334Q8.98843 9.40856 9.46961 9.40856Q10.1992 9.40856 10.626 8.95841Q11.0529 8.50827 11.0529 7.77096V7.23545Q10.8433 7.73216 10.4048 7.98051Q9.96633 8.22887 9.48514 8.22887Q8.95738 8.22887 8.52664 7.96111Q8.0959 7.69335 7.85142 7.22769Q7.60695 6.76202 7.60695 6.1877Q7.60695 5.61337 7.85142 5.14771Q8.0959 4.68204 8.52664 4.41816Q8.95738 4.15429 9.48514 4.15429Q10.0051 4.15429 10.4359 4.42981Q10.8666 4.70533 11.0529 5.09338V4.43369Q11.0529 4.3716 11.0956 4.32503Q11.1383 4.27846 11.2081 4.27846Q11.278 4.27846 11.3206 4.32503Q11.3633 4.3716 11.3633 4.43369ZM11.0839 6.1877Q11.0839 5.67546 10.8783 5.27965Q10.6726 4.88383 10.3117 4.66652Q9.9508 4.44921 9.50066 4.44921Q9.05051 4.44921 8.68962 4.67428Q8.32873 4.89935 8.12306 5.29517Q7.91739 5.69099 7.91739 6.1877Q7.91739 6.68441 8.12306 7.08022Q8.32873 7.47604 8.68962 7.70499Q9.05051 7.93395 9.50066 7.93395Q9.9508 7.93395 10.3117 7.71276Q10.6726 7.49156 10.8783 7.09575Q11.0839 6.69993 11.0839 6.1877ZM14.7627 4.33279Q14.7627 4.40264 14.7239 4.44921Q14.6851 4.49578 14.623 4.49578Q14.5997 4.49578 14.5105 4.46085Q14.4212 4.42592 14.3203 4.42592Q14.0021 4.42592 13.6839 4.67816Q13.3657 4.9304 13.1639 5.31457Q12.9621 5.69875 12.9621 6.05576V7.99604Q12.9621 8.05812 12.9155 8.10469Q12.869 8.15126 12.8069 8.15126Q12.737 8.15126 12.6944 8.10469Q12.6517 8.05812 12.6517 7.99604V4.43369Q12.6517 4.3716 12.6982 4.32503Q12.7448 4.27846 12.8069 4.27846Q12.8767 4.27846 12.9194 4.32503Q12.9621 4.3716 12.9621 4.43369V5.25636Q13.1406 4.78294 13.517 4.47249Q13.8934 4.16205 14.4057 4.15429Q14.7627 4.15429 14.7627 4.33279ZM18.8373 4.43369V7.99604Q18.8373 8.05812 18.7907 8.10469Q18.7441 8.15126 18.6821 8.15126Q18.6122 8.15126 18.5695 8.10469Q18.5268 8.05812 18.5268 7.99604V7.29754Q18.3328 7.69335 17.9292 7.96111Q17.5256 8.22887 17.0367 8.22887Q16.5245 8.22887 16.1131 7.96111Q15.7018 7.69335 15.469 7.22381Q15.2361 6.75426 15.2361 6.17217Q15.2361 5.59785 15.4728 5.13607Q15.7095 4.67428 16.1209 4.41428Q16.5322 4.15429 17.0367 4.15429Q17.5412 4.15429 17.9447 4.41816Q18.3483 4.68204 18.5268 5.12443V4.43369Q18.5268 4.3716 18.5695 4.32503Q18.6122 4.27846 18.6821 4.27846Q18.7519 4.27846 18.7946 4.32503Q18.8373 4.3716 18.8373 4.43369ZM18.5579 6.17217Q18.5579 5.69875 18.3638 5.30293Q18.1698 4.90711 17.8244 4.67816Q17.4791 4.44921 17.0522 4.44921Q16.6254 4.44921 16.28 4.6704Q15.9346 4.89159 15.7406 5.28353Q15.5466 5.67546 15.5466 6.17217Q15.5466 6.66889 15.7406 7.07246Q15.9346 7.47604 16.2761 7.70499Q16.6176 7.93395 17.0522 7.93395Q17.4791 7.93395 17.8244 7.70499Q18.1698 7.47604 18.3638 7.07246Q18.5579 6.66889 18.5579 6.17217ZM23.2068 4.26294Q23.2068 4.30951 23.1835 4.35608L21.639 8.05036Q21.6235 8.09693 21.5808 8.12409Q21.5381 8.15126 21.4916 8.15126Q21.445 8.15126 21.4023 8.12409Q21.3596 8.09693 21.3441 8.05036L19.7919 4.36384Q19.7764 4.31727 19.7764 4.29399Q19.7764 4.2319 19.8191 4.18533Q19.8617 4.13876 19.9394 4.13876Q19.9782 4.13876 20.0208 4.16593Q20.0635 4.19309 20.0791 4.23966L21.4838 7.61574L22.8963 4.23966Q22.9351 4.13876 23.0593 4.13876Q23.1059 4.13876 23.1563 4.17369Q23.2068 4.20861 23.2068 4.26294ZM27.2193 4.30951V7.77096Q27.2193 8.35305 26.9826 8.79155Q26.7458 9.23005 26.3306 9.46677Q25.9154 9.70348 25.3877 9.70348Q25.0462 9.70348 24.7629 9.62199Q24.4796 9.5405 24.2856 9.40856Q24.1459 9.31542 24.2002 9.19901Q24.2545 9.10587 24.3321 9.10587Q24.3709 9.10587 24.402 9.12916Q24.5883 9.24557 24.8483 9.33483Q25.1083 9.42408 25.4032 9.42408Q25.8456 9.42408 26.187 9.21453Q26.5285 9.00498 26.7187 8.62857Q26.9088 8.25215 26.9088 7.77096V7.42171Q26.7303 7.77096 26.3384 7.99992Q25.9465 8.22887 25.5274 8.22887Q24.8289 8.22887 24.4874 7.82917Q24.1459 7.42948 24.1459 6.73097V4.30951Q24.1459 4.24742 24.1886 4.20085Q24.2312 4.15429 24.3011 4.15429Q24.3709 4.15429 24.4136 4.20085Q24.4563 4.24742 24.4563 4.30951V6.73097Q24.4563 7.93395 25.5274 7.93395Q25.8611 7.93395 26.1832 7.75932Q26.5053 7.5847 26.707 7.3053Q26.9088 7.0259 26.9088 6.73097V4.30951Q26.9088 4.24742 26.9515 4.20085Q26.9942 4.15429 27.0641 4.15429Q27.1339 4.15429 27.1766 4.20085Q27.2193 4.24742 27.2193 4.30951Z" style="display:inline;stroke:#000000;stroke-width:0.35;stroke-linecap:round;stroke-linejoin:bevel" />
        <path id="sapphire_gemstone" d="m 17.955,122.900 q 0,0.34175 -0.242534,0.63114 -0.0441,0.0524 -0.20395,0.21497 -0.187413,0.19017 -0.785481,0.81304 l -1.444183,1.51309 q -0.01929,0.003 -0.0441,0.003 -0.02756,0 -0.04134,-0.003 -0.08268,-0.0827 -0.647678,-0.67524 -0.468532,-0.47404 -0.934309,-0.94809 -0.556727,-0.56775 -0.89848,-0.98116 -0.132292,-0.15985 -0.168121,-0.29766 -0.02756,-0.10197 -0.02756,-0.34175 0,-0.11024 0.07166,-0.28939 0.06614,-0.16536 0.140559,-0.26458 0.118512,-0.1571 0.42168,-0.42444 0.283875,-0.2508 0.474044,-0.37482 0.272852,-0.17915 0.818555,-0.36656 0.09646,-0.0331 0.110243,-0.0331 h 1.3615 q 0.01102,0 0.104731,0.0331 0.567751,0.20119 0.824066,0.36656 0.165365,0.10473 0.474045,0.37758 0.322461,0.28388 0.421679,0.42168 0.214974,0.2949 0.214974,0.62563 z m -0.16812,-0.27285 q -0.03307,-0.10749 -0.135048,-0.30868 -0.07166,-0.0937 -0.209462,-0.19844 -0.118511,-0.0854 -0.234266,-0.17088 0.245291,0.3638 0.578776,0.678 z m -0.573264,-0.52366 -0.358289,-0.44648 v 0.41065 z m 0.636653,0.75792 q 0,-0.0524 -0.341753,-0.39412 l 0.228754,0.7028 h 0.04961 q 0.06339,-0.21773 0.06339,-0.30868 z m -0.23151,0.27285 -0.316948,-0.90399 -0.410655,-0.0634 -0.159853,0.61461 z m 0.0028,0.15434 -0.771701,-0.3197 h -0.03032 l 0.344509,0.60634 q 0.07993,-0.003 0.234266,-0.0469 0.02481,-0.0138 0.223242,-0.23978 z m -0.857139,-1.05006 -0.719335,0.28388 0.60358,0.22599 z m 0,-0.16261 v -0.51538 l -0.917773,-0.38034 h -1.223697 l -0.917772,0.38034 v 0.51538 l 0.89848,0.4079 h 1.254014 z m 0.573264,1.53789 q -0.0689,0.011 -0.198438,0.0524 -0.08544,0.0551 -0.259071,0.16261 0.01929,0 0.06339,0.003 0.04134,0 0.06339,0 0.118511,0 0.190169,-0.0689 0.07166,-0.0717 0.14056,-0.14883 z m -0.289388,0.003 -0.347266,-0.63114 -0.363801,0.87918 q 0.0248,-0.0165 0.06615,-0.0165 0.03032,0 0.08544,0.011 0.05788,0.008 0.08819,0.008 0.04961,0 0.228754,-0.10749 0.228754,-0.1378 0.242535,-0.14331 z m -0.440972,-0.74139 -0.683507,-0.2756 -0.592556,0.54845 0.903993,0.65595 z m -0.854383,-0.28387 h -1.036284 l 0.523654,0.47404 z m 0.749652,1.36701 q -0.228754,-0.0303 -0.228754,-0.0303 -0.03583,0 -0.272851,0.0937 l 0.190169,0.0193 q 0.01102,0 0.311436,-0.0827 z m -0.388606,-0.0882 -0.843359,-0.61185 v 0.67524 l 0.471289,0.0827 z m 0.854383,0.0496 q -0.09922,0.006 -0.2949,0.0386 -0.01102,0.003 -0.377583,0.17639 -0.129535,0.34726 -0.380338,1.0418 z m -2.543857,-1.39733 -0.719335,-0.28388 0.124023,0.51814 z m -0.802018,-0.45476 v -0.41065 l -0.366557,0.44648 z m 1.515841,1.07212 -0.592556,-0.54019 -0.683506,0.2756 0.380338,0.9288 z m 0.369314,0.94257 q -0.03307,-0.003 -0.135047,-0.0248 -0.08544,-0.0165 -0.137804,-0.0165 -0.05237,0 -0.137804,0.0165 -0.101975,0.0221 -0.135047,0.0248 0.264583,0.0469 0.272851,0.0469 0.0083,0 0.272851,-0.0469 z m -0.30868,-0.1378 v -0.68626 l -0.843359,0.61185 0.37207,0.14607 z m 0.950846,0.20671 -0.396875,-0.0551 -0.479557,0.14056 v 1.27607 z m -2.888366,-2.20211 q -0.118512,0.0854 -0.234267,0.17364 -0.146072,0.10748 -0.209461,0.19568 -0.0441,0.10473 -0.135048,0.31419 0.369314,-0.3638 0.578776,-0.68351 z m 0.476801,0.83234 -0.159853,-0.61461 -0.410655,0.0634 -0.316948,0.90399 z m 0.394118,1.08313 -0.363802,-0.87918 -0.355533,0.63114 q 0.43546,0.2508 0.451996,0.2508 0.09095,0 0.267339,-0.003 z m 1.821765,0.82958 q -0.132291,0.21222 -0.405143,0.6339 -0.07717,0.10749 -0.220486,0.32797 -0.05788,0.10473 -0.05512,0.226 0.159852,-0.15158 0.432704,-0.49609 0.07717,-0.12954 0.140559,-0.339 0.05512,-0.17639 0.107486,-0.35278 z m -1.493792,-0.66146 -0.270095,-0.0882 -0.0083,-0.011 q -0.02481,0 -0.107487,0.011 -0.06615,0.006 -0.107487,0.006 0.272851,0.091 0.311436,0.091 0.02481,0 0.181901,-0.008 z m -0.810286,-1.06384 h -0.03032 l -0.7717,0.3197 q 0.06615,0.0965 0.223242,0.23978 0.07717,0.0138 0.234266,0.0469 z m -0.689018,-0.50161 q -0.341754,0.34727 -0.341754,0.39412 0,0.0799 0.06339,0.30868 h 0.04961 z m 2.235176,3.04547 v -1.27607 l -0.479557,-0.14056 -0.396875,0.0551 z m -1.606791,-1.6757 q -0.256315,-0.1819 -0.457509,-0.22324 0.06615,0.0772 0.20395,0.22324 z m 1.609547,2.04501 v -0.1378 l -0.683507,-1.05007 q 0.05237,0.17639 0.107487,0.35278 0.06339,0.20946 0.14056,0.339 0.0689,0.11851 0.20395,0.25907 0.115755,0.11851 0.23151,0.23702 z m -0.644921,-0.70555 q -0.115756,-0.32798 -0.380339,-1.0418 -0.135047,-0.0662 -0.272851,-0.12954 -0.159852,-0.0716 -0.289388,-0.0716 -0.05237,0 -0.110243,-0.0138 z" style="stroke-width:0;fill:#0000ff;stroke:#2e2114;stroke-linecap:square;stroke-opacity:1" />
        <path id="in_art" d="M 0.38,28.00 L 0.38,16.50 A 4 4 0 0 1 4.38 12.5 L 26.10,12.50 A 4 4 0 0 1 30.1 16.5 L 30.10,12.50 L 30.10,28.00 z" style="fill:url(#gradient_in);fill-opacity:1;stroke-width:0;" />
        <path id="controls_art" d="M 0.38,104.67 L 0.38,31.83 A 4 4 0 0 1 4.38 27.8333 L 26.10,27.83 A 4 4 0 0 1 30.1 31.8333 L 30.10,27.83 L 30.10,104.67 z" style="fill:url(#gradient_controls);fill-opacity:1;stroke-width:0;" />
        <path id="out_art" d="M 0.38,120.00 L 0.38,108.50 A 4 4 0 0 1 4.38 104.5 L 26.10,104.50 A 4 4 0 0 1 30.1 108.5 L 30.10,104.50 L 30.10,120.00 z" style="fill:url(#gradient_out);fill-opacity:1;stroke-width:0;" />
        <path d="M13.9612 16.7488Q13.9259 16.7488 13.9065 16.7277Q13.8871 16.7065 13.8871 16.6747V14.3535Q13.8871 14.3217 13.9083 14.3006Q13.9294 14.2794 13.9612 14.2794Q13.9929 14.2794 14.0141 14.3006Q14.0353 14.3217 14.0353 14.3535V16.6747Q14.0317 16.7065 14.0106 16.7277Q13.9894 16.7488 13.9612 16.7488ZM16.5929 14.3464V16.6712Q16.5929 16.71 16.5717 16.7294Q16.5506 16.7488 16.5188 16.7488Q16.4835 16.7488 16.4624 16.7206L14.8749 14.551V16.6889Q14.8749 16.7136 14.8555 16.7312Q14.8361 16.7488 14.8078 16.7488Q14.7761 16.7488 14.7585 16.7312Q14.7408 16.7136 14.7408 16.6889V14.3499Q14.7408 14.3147 14.7602 14.297Q14.7796 14.2794 14.8043 14.2794Q14.8361 14.2794 14.8572 14.3041L16.4588 16.4878V14.3464Q16.4588 14.3182 16.4782 14.2988Q16.4977 14.2794 16.5259 14.2794Q16.5576 14.2794 16.5753 14.2988Q16.5929 14.3182 16.5929 14.3464Z" style="stroke:#000000;stroke-width:0.25;stroke-linecap:round;stroke-linejoin:bevel" />
        <path d="M12.9275 108.784Q12.5853 108.784 12.3172 108.624Q12.0491 108.463 11.8992 108.174Q11.7493 107.885 11.7493 107.514Q11.7493 107.144 11.8992 106.854Q12.0491 106.565 12.3172 106.405Q12.5853 106.244 12.9275 106.244Q13.2697 106.244 13.5378 106.405Q13.806 106.565 13.9559 106.854Q14.1058 107.144 14.1058 107.514Q14.1058 107.885 13.9559 108.174Q13.806 108.463 13.5378 108.624Q13.2697 108.784 12.9275 108.784ZM12.9275 106.385Q12.6277 106.385 12.3931 106.526Q12.1585 106.667 12.028 106.925Q11.8974 107.183 11.8974 107.514Q11.8974 107.846 12.028 108.103Q12.1585 108.361 12.3931 108.502Q12.6277 108.643 12.9275 108.643Q13.2274 108.643 13.462 108.502Q13.6966 108.361 13.8271 108.103Q13.9577 107.846 13.9577 107.514Q13.9577 107.183 13.8271 106.925Q13.6966 106.667 13.462 106.526Q13.2274 106.385 12.9275 106.385ZM16.4518 106.35V107.874Q16.4518 108.121 16.3283 108.329Q16.2048 108.537 15.9967 108.661Q15.7886 108.784 15.5452 108.784Q15.2982 108.784 15.0901 108.661Q14.8819 108.537 14.7585 108.329Q14.635 108.121 14.635 107.874V106.35Q14.635 106.318 14.6562 106.299Q14.6773 106.279 14.7091 106.279Q14.7408 106.279 14.762 106.301Q14.7832 106.322 14.7832 106.35V107.874Q14.7832 108.082 14.8855 108.258Q14.9878 108.435 15.1624 108.539Q15.337 108.643 15.5452 108.643Q15.7533 108.643 15.9279 108.539Q16.1025 108.435 16.2066 108.258Q16.3107 108.082 16.3107 107.874V106.35Q16.3107 106.322 16.3301 106.301Q16.3495 106.279 16.3812 106.279Q16.413 106.279 16.4324 106.301Q16.4518 106.322 16.4518 106.35ZM18.7837 106.346Q18.7837 106.378 18.7642 106.396Q18.7448 106.413 18.7131 106.413H17.9264V108.678Q17.9264 108.707 17.9052 108.728Q17.8841 108.749 17.8558 108.749Q17.8241 108.749 17.8047 108.728Q17.7853 108.707 17.7853 108.678V106.413H16.9986Q16.9704 106.413 16.9492 106.394Q16.928 106.375 16.928 106.346Q16.928 106.318 16.9492 106.299Q16.9704 106.279 16.9986 106.279H18.7131Q18.7413 106.279 18.7625 106.299Q18.7837 106.318 18.7837 106.346Z" style="stroke:#000000;stroke-width:0.25;stroke-linecap:round;stroke-linejoin:bevel" />
        <path d="M12.7247 91.0166V93.3449Q12.7247 93.3732 12.7018 93.3943Q12.6788 93.4155 12.6506 93.4155Q12.6189 93.4155 12.5977 93.3943Q12.5765 93.3732 12.5765 93.3449V91.2353L11.6664 92.6112Q11.6487 92.6394 11.617 92.6394Q11.5782 92.6394 11.5605 92.6112L10.6468 91.2318V93.3449Q10.6468 93.3732 10.6257 93.3943Q10.6045 93.4155 10.5763 93.4155Q10.5445 93.4155 10.5251 93.3943Q10.5057 93.3732 10.5057 93.3449V91.0166Q10.5057 90.9919 10.5251 90.969Q10.5445 90.9461 10.5727 90.9461Q10.6186 90.9461 10.6398 90.9778L11.617 92.4313L12.5942 90.9778Q12.6224 90.939 12.6612 90.9461Q12.6894 90.9496 12.7071 90.969Q12.7247 90.9884 12.7247 91.0166ZM14.4321 93.4508Q14.0899 93.4508 13.8218 93.2903Q13.5537 93.1298 13.4038 92.8405Q13.2539 92.5512 13.2539 92.1808Q13.2539 91.8104 13.4038 91.5211Q13.5537 91.2318 13.8218 91.0713Q14.0899 90.9108 14.4321 90.9108Q14.7743 90.9108 15.0424 91.0713Q15.3106 91.2318 15.4605 91.5211Q15.6104 91.8104 15.6104 92.1808Q15.6104 92.5512 15.4605 92.8405Q15.3106 93.1298 15.0424 93.2903Q14.7743 93.4508 14.4321 93.4508ZM14.4321 91.0519Q14.1323 91.0519 13.8977 91.193Q13.6631 91.3341 13.5326 91.5916Q13.402 91.8492 13.402 92.1808Q13.402 92.5124 13.5326 92.7699Q13.6631 93.0274 13.8977 93.1686Q14.1323 93.3097 14.4321 93.3097Q14.732 93.3097 14.9666 93.1686Q15.2012 93.0274 15.3317 92.7699Q15.4622 92.5124 15.4622 92.1808Q15.4622 91.8492 15.3317 91.5916Q15.2012 91.3341 14.9666 91.193Q14.732 91.0519 14.4321 91.0519ZM18.1504 92.1808Q18.1504 92.53 18.0393 92.8087Q17.9282 93.0874 17.6989 93.2515Q17.4696 93.4155 17.1274 93.4155H16.2101Q16.1819 93.4155 16.1608 93.3943Q16.1396 93.3732 16.1396 93.3449V91.0166Q16.1396 90.9884 16.1608 90.9672Q16.1819 90.9461 16.2101 90.9461H17.1274Q17.466 90.9461 17.6971 91.1154Q17.9282 91.2847 18.0393 91.5652Q18.1504 91.8456 18.1504 92.1808ZM18.0023 92.1808Q18.0023 91.8809 17.9052 91.6322Q17.8082 91.3835 17.6054 91.2353Q17.4025 91.0872 17.0921 91.0872H16.2877V93.2744H17.0921Q17.5507 93.2744 17.7765 92.9728Q18.0023 92.6711 18.0023 92.1808ZM20.1507 93.3449Q20.1507 93.3767 20.1295 93.3961Q20.1083 93.4155 20.0801 93.4155H18.7501Q18.7219 93.4155 18.7007 93.3943Q18.6796 93.3732 18.6796 93.3449V91.0166Q18.6796 90.9884 18.7007 90.9672Q18.7219 90.9461 18.7501 90.9461H20.0801Q20.1083 90.9461 20.1295 90.9672Q20.1507 90.9884 20.1507 91.0166Q20.1507 91.0484 20.1295 91.0678Q20.1083 91.0872 20.0801 91.0872H18.8278V92.0714H19.9214Q19.9496 92.0714 19.9708 92.0926Q19.9919 92.1138 19.9919 92.142Q19.9919 92.1737 19.9708 92.1931Q19.9496 92.2125 19.9214 92.2125H18.8278V93.2744H20.0801Q20.1083 93.2744 20.1295 93.2956Q20.1507 93.3167 20.1507 93.3449Z" style="stroke:#000000;stroke-width:0.25;stroke-linecap:round;stroke-linejoin:bevel" />
        <path d="M12.513 29.6833Q12.513 29.715 12.4919 29.7344Q12.4707 29.7538 12.4425 29.7538H11.1831V30.7275H12.2837Q12.3119 30.7275 12.3331 30.7487Q12.3543 30.7698 12.3543 30.7981Q12.3543 30.8298 12.3331 30.8492Q12.3119 30.8686 12.2837 30.8686H11.1831V32.0116Q11.1831 32.0398 11.1637 32.061Q11.1443 32.0822 11.1125 32.0822Q11.0808 32.0822 11.0613 32.061Q11.0419 32.0398 11.0419 32.0116V29.6833Q11.0419 29.6551 11.0631 29.6339Q11.0843 29.6127 11.1125 29.6127H12.4425Q12.4707 29.6127 12.4919 29.6339Q12.513 29.6551 12.513 29.6833ZM14.8378 32.0081Q14.8378 32.0398 14.8184 32.0592Q14.799 32.0786 14.7708 32.0786Q14.7496 32.0786 14.7391 32.0716Q14.6438 32.0187 14.5874 31.8934Q14.5309 31.7682 14.5309 31.4824Q14.5309 31.1932 14.3757 31.0856Q14.2205 30.978 14.0159 30.978H13.1904V32.0116Q13.1904 32.0398 13.1692 32.061Q13.148 32.0822 13.1163 32.0822Q13.0845 32.0822 13.0634 32.061Q13.0422 32.0398 13.0422 32.0116V29.6833Q13.0422 29.6551 13.0634 29.6339Q13.0845 29.6127 13.1128 29.6127H14.0441Q14.2487 29.6127 14.4074 29.6956Q14.5662 29.7785 14.6544 29.9232Q14.7426 30.0678 14.7426 30.2512Q14.7426 30.4876 14.6173 30.6569Q14.4921 30.8263 14.291 30.8863Q14.4604 30.9392 14.5697 31.0962Q14.6791 31.2531 14.6791 31.4824Q14.6791 31.7188 14.7091 31.8123Q14.7391 31.9058 14.799 31.9446Q14.8378 31.9693 14.8378 32.0081ZM14.0617 30.8369Q14.284 30.8157 14.4392 30.6605Q14.5944 30.5053 14.5944 30.2548Q14.5944 30.0361 14.4392 29.8949Q14.284 29.7538 14.0264 29.7538H13.1904V30.8369ZM16.8557 32.0116Q16.8557 32.0434 16.8346 32.0628Q16.8134 32.0822 16.7852 32.0822H15.4552Q15.427 32.0822 15.4058 32.061Q15.3846 32.0398 15.3846 32.0116V29.6833Q15.3846 29.6551 15.4058 29.6339Q15.427 29.6127 15.4552 29.6127H16.7852Q16.8134 29.6127 16.8346 29.6339Q16.8557 29.6551 16.8557 29.6833Q16.8557 29.715 16.8346 29.7344Q16.8134 29.7538 16.7852 29.7538H15.5328V30.7381H16.6264Q16.6546 30.7381 16.6758 30.7593Q16.697 30.7804 16.697 30.8086Q16.697 30.8404 16.6758 30.8598Q16.6546 30.8792 16.6264 30.8792H15.5328V31.9411H16.7852Q16.8134 31.9411 16.8346 31.9622Q16.8557 31.9834 16.8557 32.0116ZM19.8438 32.3714Q19.8438 32.4385 19.745 32.5073Q19.6462 32.5761 19.4998 32.6202Q19.3534 32.6642 19.2229 32.6642Q19.0288 32.6642 18.8948 32.6219Q18.7607 32.5796 18.5879 32.4949Q18.4432 32.4208 18.3374 32.3856Q18.2316 32.3503 18.094 32.3503Q18.0446 32.3503 18.004 32.3626Q17.9634 32.375 17.907 32.3997Q17.8435 32.4279 17.8223 32.4279Q17.7941 32.4279 17.7729 32.4067Q17.7518 32.3856 17.7518 32.3538Q17.7518 32.3115 17.7906 32.2938L18.3056 32.1139Q17.9846 32.0963 17.7359 31.9305Q17.4872 31.7647 17.3478 31.4842Q17.2085 31.2037 17.2085 30.8474Q17.2085 30.477 17.3584 30.1878Q17.5084 29.8985 17.7765 29.738Q18.0446 29.5774 18.3868 29.5774Q18.729 29.5774 18.9971 29.738Q19.2652 29.8985 19.4151 30.1878Q19.5651 30.477 19.5651 30.8474Q19.5651 31.1649 19.4539 31.4225Q19.3428 31.68 19.14 31.8529Q18.9371 32.0257 18.6725 32.0857L18.2386 32.2268Q18.348 32.2374 18.4415 32.2727Q18.5349 32.3079 18.6655 32.3714Q18.8348 32.4526 18.9512 32.4914Q19.0676 32.5302 19.2229 32.5302Q19.3534 32.5302 19.4469 32.4967Q19.5404 32.4632 19.6286 32.4138Q19.6568 32.3997 19.6956 32.3609Q19.7168 32.3397 19.7397 32.3256Q19.7626 32.3115 19.7838 32.3115Q19.812 32.3115 19.8279 32.3273Q19.8438 32.3432 19.8438 32.3714ZM18.3868 31.9763Q18.6866 31.9763 18.9212 31.8352Q19.1558 31.6941 19.2864 31.4366Q19.4169 31.1791 19.4169 30.8474Q19.4169 30.5158 19.2864 30.2583Q19.1558 30.0008 18.9212 29.8597Q18.6866 29.7186 18.3868 29.7186Q18.0869 29.7186 17.8523 29.8597Q17.6177 30.0008 17.4872 30.2583Q17.3567 30.5158 17.3567 30.8474Q17.3567 31.1791 17.4872 31.4366Q17.6177 31.6941 17.8523 31.8352Q18.0869 31.9763 18.3868 31.9763Z" style="stroke:#000000;stroke-width:0.25;stroke-linecap:round;stroke-linejoin:bevel" />
        <path d="M 6.24,37.33 L 24.24,37.33 z " style="stroke:#000000;stroke-width:0.1;stroke-linecap:round;stroke-linejoin:bevel;stroke-dasharray:none" />
        <path d="M14.2469 47.3414Q14.2469 47.3732 14.2275 47.3926Q14.2081 47.412 14.1799 47.412Q14.1587 47.412 14.1482 47.4049Q14.0529 47.352 13.9965 47.2268Q13.94 47.1015 13.94 46.8158Q13.94 46.5265 13.7848 46.4189Q13.6296 46.3113 13.425 46.3113H12.5995V47.3449Q12.5995 47.3732 12.5783 47.3943Q12.5571 47.4155 12.5254 47.4155Q12.4936 47.4155 12.4725 47.3943Q12.4513 47.3732 12.4513 47.3449V45.0166Q12.4513 44.9884 12.4725 44.9672Q12.4936 44.9461 12.5218 44.9461H13.4532Q13.6578 44.9461 13.8165 45.029Q13.9753 45.1119 14.0635 45.2565Q14.1517 45.4011 14.1517 45.5846Q14.1517 45.8209 14.0264 45.9903Q13.9012 46.1596 13.7001 46.2196Q13.8695 46.2725 13.9788 46.4295Q14.0882 46.5865 14.0882 46.8158Q14.0882 47.0521 14.1182 47.1456Q14.1482 47.2391 14.2081 47.2779Q14.2469 47.3026 14.2469 47.3414ZM13.4708 46.1702Q13.6931 46.149 13.8483 45.9938Q14.0035 45.8386 14.0035 45.5881Q14.0035 45.3694 13.8483 45.2283Q13.6931 45.0872 13.4355 45.0872H12.5995V46.1702ZM16.2648 47.3449Q16.2648 47.3767 16.2437 47.3961Q16.2225 47.4155 16.1943 47.4155H14.8643Q14.8361 47.4155 14.8149 47.3943Q14.7937 47.3732 14.7937 47.3449V45.0166Q14.7937 44.9884 14.8149 44.9672Q14.8361 44.9461 14.8643 44.9461H16.1943Q16.2225 44.9461 16.2437 44.9672Q16.2648 44.9884 16.2648 45.0166Q16.2648 45.0484 16.2437 45.0678Q16.2225 45.0872 16.1943 45.0872H14.9419V46.0714H16.0355Q16.0637 46.0714 16.0849 46.0926Q16.1061 46.1138 16.1061 46.142Q16.1061 46.1737 16.0849 46.1931Q16.0637 46.2125 16.0355 46.2125H14.9419V47.2744H16.1943Q16.2225 47.2744 16.2437 47.2956Q16.2648 47.3167 16.2648 47.3449ZM16.5858 47.0804Q16.5647 47.0592 16.5647 47.0274Q16.5647 46.9992 16.5894 46.9728Q16.6141 46.9463 16.6423 46.9463Q16.674 46.9463 16.7023 46.9781Q16.8398 47.1403 17.0286 47.225Q17.2173 47.3097 17.4255 47.3097Q17.6971 47.3097 17.8735 47.1791Q18.0499 47.0486 18.0499 46.8334Q18.0463 46.6641 17.9582 46.5547Q17.87 46.4454 17.7412 46.3801Q17.6124 46.3148 17.3902 46.2337Q17.1468 46.142 17.0109 46.0714Q16.8751 46.0009 16.7781 45.8703Q16.6811 45.7398 16.6811 45.5281Q16.6811 45.3553 16.7763 45.2142Q16.8716 45.0731 17.048 44.9919Q17.2244 44.9108 17.4572 44.9108Q17.6653 44.9108 17.8523 44.9866Q18.0393 45.0625 18.1487 45.2001Q18.1839 45.2494 18.1839 45.2741Q18.1839 45.3024 18.1575 45.3253Q18.131 45.3482 18.0993 45.3482Q18.071 45.3482 18.0534 45.3271Q17.9546 45.2001 17.7994 45.126Q17.6442 45.0519 17.4572 45.0519Q17.1891 45.0519 17.0109 45.1789Q16.8328 45.3059 16.8328 45.5246Q16.8328 45.6763 16.9192 45.7821Q17.0057 45.888 17.1362 45.9532Q17.2667 46.0185 17.4607 46.0891Q17.7077 46.1773 17.8523 46.2513Q17.997 46.3254 18.0993 46.4665Q18.2016 46.6076 18.2016 46.8405Q18.2016 47.0027 18.1063 47.1439Q18.0111 47.285 17.8329 47.3679Q17.6548 47.4508 17.4255 47.4508Q17.1644 47.4508 16.9704 47.3608Q16.7763 47.2709 16.5858 47.0804Z" style="stroke:#000000;stroke-width:0.25;stroke-linecap:round;stroke-linejoin:bevel" />
        <path d="M 6.24,52.67 L 24.24,52.67 z " style="stroke:#000000;stroke-width:0.1;stroke-linecap:round;stroke-linejoin:bevel;stroke-dasharray:none" />
        <path d="M14.8837 60.3499V62.6783Q14.8837 62.7065 14.8608 62.7277Q14.8378 62.7488 14.8096 62.7488Q14.7779 62.7488 14.7567 62.7277Q14.7355 62.7065 14.7355 62.6783V60.5687L13.8254 61.9445Q13.8077 61.9727 13.776 61.9727Q13.7372 61.9727 13.7195 61.9445L12.8058 60.5651V62.6783Q12.8058 62.7065 12.7847 62.7277Q12.7635 62.7488 12.7353 62.7488Q12.7035 62.7488 12.6841 62.7277Q12.6647 62.7065 12.6647 62.6783V60.3499Q12.6647 60.3252 12.6841 60.3023Q12.7035 60.2794 12.7317 60.2794Q12.7776 60.2794 12.7988 60.3111L13.776 61.7646L14.7532 60.3111Q14.7814 60.2723 14.8202 60.2794Q14.8484 60.2829 14.8661 60.3023Q14.8837 60.3217 14.8837 60.3499ZM15.6633 62.7488Q15.6281 62.7488 15.6087 62.7277Q15.5892 62.7065 15.5892 62.6747V60.3535Q15.5892 60.3217 15.6104 60.3006Q15.6316 60.2794 15.6633 60.2794Q15.6951 60.2794 15.7162 60.3006Q15.7374 60.3217 15.7374 60.3535V62.6747Q15.7339 62.7065 15.7127 62.7277Q15.6916 62.7488 15.6633 62.7488ZM18.0446 62.6465Q18.0622 62.6712 18.0622 62.6889Q18.0622 62.7206 18.0411 62.74Q18.0199 62.7594 17.9881 62.7594Q17.9493 62.7594 17.9317 62.7312L17.1238 61.6305L16.3195 62.7312Q16.3019 62.7594 16.2666 62.7594Q16.2348 62.7594 16.2172 62.74Q16.1996 62.7206 16.1996 62.6994Q16.1996 62.6818 16.2172 62.6536L17.0462 61.5212L16.2101 60.3817Q16.196 60.3641 16.196 60.3394Q16.196 60.3076 16.2172 60.2882Q16.2384 60.2688 16.2666 60.2688Q16.3089 60.2688 16.3266 60.297L17.1344 61.4012L17.9387 60.2935Q17.9599 60.2653 17.9917 60.2653Q18.0234 60.2653 18.0428 60.2812Q18.0622 60.297 18.0622 60.3217Q18.0622 60.3464 18.0446 60.3711L17.2156 61.5141Z" style="stroke:#000000;stroke-width:0.25;stroke-linecap:round;stroke-linejoin:bevel" />
        <path d="M 6.24,68.00 L 24.24,68.00 z " style="stroke:#000000;stroke-width:0.1;stroke-linecap:round;stroke-linejoin:bevel;stroke-dasharray:none" />
        <path d="M13.3844 76.9356V77.8211Q13.3844 77.8634 13.3526 77.8846Q13.1904 77.994 12.9981 78.0557Q12.8058 78.1174 12.6083 78.1174Q12.2449 78.1174 11.9574 77.9534Q11.6699 77.7894 11.5058 77.5001Q11.3418 77.2108 11.3418 76.8474Q11.3418 76.4841 11.5058 76.1948Q11.6699 75.9055 11.9574 75.7415Q12.2449 75.5774 12.6083 75.5774Q12.8058 75.5774 12.984 75.6251Q13.1621 75.6727 13.3033 75.7679Q13.335 75.7891 13.335 75.8279Q13.335 75.8597 13.3121 75.8791Q13.2891 75.8985 13.268 75.8985Q13.2503 75.8985 13.2221 75.8844Q12.9258 75.7186 12.6083 75.7186Q12.2837 75.7186 12.0297 75.8632Q11.7757 76.0078 11.6328 76.2654Q11.49 76.5229 11.49 76.8474Q11.49 77.172 11.6328 77.4295Q11.7757 77.6871 12.0297 77.8317Q12.2837 77.9763 12.6083 77.9763Q12.7706 77.9763 12.9381 77.9252Q13.1057 77.874 13.2433 77.7894V77.0062H12.6083Q12.5801 77.0062 12.5589 76.985Q12.5377 76.9639 12.5377 76.9356Q12.5377 76.9039 12.5589 76.8845Q12.5801 76.8651 12.6083 76.8651H13.3138Q13.3456 76.8651 13.365 76.8863Q13.3844 76.9074 13.3844 76.9356ZM15.7797 78.0151Q15.7797 78.0469 15.7586 78.0645Q15.7374 78.0822 15.7057 78.0822Q15.681 78.0822 15.6616 78.0698Q15.6422 78.0575 15.6351 78.0363L15.3388 77.3096L15.3423 77.3166H14.1605L13.8748 78.0363Q13.8571 78.0822 13.8112 78.0822Q13.7795 78.0822 13.7601 78.0645Q13.7407 78.0469 13.7372 78.0222Q13.7336 78.0081 13.7407 77.9869L14.6897 75.6515Q14.7003 75.6233 14.7161 75.6145Q14.732 75.6057 14.7567 75.6057Q14.8096 75.6057 14.8272 75.6515L15.7762 77.9869Q15.7797 77.9975 15.7797 78.0151ZM14.2169 77.1755H15.2859L14.7461 75.8456ZM16.3301 78.0822Q16.2948 78.0822 16.2754 78.061Q16.256 78.0398 16.256 78.0081V75.6868Q16.256 75.6551 16.2772 75.6339Q16.2983 75.6127 16.3301 75.6127Q16.3618 75.6127 16.383 75.6339Q16.4042 75.6551 16.4042 75.6868V78.0081Q16.4006 78.0398 16.3795 78.061Q16.3583 78.0822 16.3301 78.0822ZM18.9618 75.6798V78.0046Q18.9618 78.0434 18.9406 78.0628Q18.9195 78.0822 18.8877 78.0822Q18.8524 78.0822 18.8313 78.0539L17.2438 75.8844V78.0222Q17.2438 78.0469 17.2244 78.0645Q17.205 78.0822 17.1767 78.0822Q17.145 78.0822 17.1274 78.0645Q17.1097 78.0469 17.1097 78.0222V75.6833Q17.1097 75.648 17.1291 75.6304Q17.1485 75.6127 17.1732 75.6127Q17.205 75.6127 17.2261 75.6374L18.8277 77.8211V75.6798Q18.8277 75.6515 18.8472 75.6321Q18.8666 75.6127 18.8948 75.6127Q18.9265 75.6127 18.9442 75.6321Q18.9618 75.6515 18.9618 75.6798Z" style="stroke:#000000;stroke-width:0.25;stroke-linecap:round;stroke-linejoin:bevel" />
        <path d="M 6.24,83.33 L 24.24,83.33 z " style="stroke:#000000;stroke-width:0.1;stroke-linecap:round;stroke-linejoin:bevel;stroke-dasharray:none" />
    </g>
</svg>
