<?xml version="1.0" encoding="utf-8"?>
<svg xmlns="http://www.w3.org/2000/svg" width="20.32mm" height="128.50mm" viewBox="0 0 20.32 128.50">
    <g id="PanelLayer">
        <defs>
            <linearGradient id="gradient_a" x1="0" y1="12.5" x2="0" y2="28" gradientUnits="userSpaceOnUse">
                <stop style="stop-color:#a06de4;stop-opacity:1;" offset="0" />
                <stop style="stop-color:#4f8df2;stop-opacity:1;" offset="1" />
            </linearGradient>
            <linearGradient id="gradient_b" x1="0" y1="44" x2="0" y2="63" gradientUnits="userSpaceOnUse">
                <stop style="stop-color:#3068ff;stop-opacity:1;" offset="0" />
                <stop style="stop-color:#4f8df2;stop-opacity:1;" offset="1" />
            </linearGradient>
            <linearGradient id="gradient_c" x1="0" y1="76" x2="0" y2="113.6" gradientUnits="userSpaceOnUse">
                <stop style="stop-color:#29aab4;stop-opacity:1;" offset="0" />
                <stop style="stop-color:#4f8df2;stop-opacity:1;" offset="1" />
            </linearGradient>
        </defs>
        <rect id="border_rect" width="20.32" height="128.5" x="0" y="0" style="display:inline;fill:#4f8df2;fill-opacity:1;stroke:none;" />
        <path id="model_name" d="M5.77497 6.21098Q5.77497 6.76978 5.53826 7.22381Q5.30154 7.67783 4.89021 7.93783Q4.47887 8.19782 3.97439 8.19782Q3.50873 8.19782 3.12067 7.96499Q2.73262 7.73216 2.48426 7.3053V9.54826Q2.48426 9.61035 2.44158 9.65691Q2.39889 9.70348 2.32904 9.70348Q2.26695 9.70348 2.22038 9.65691Q2.17382 9.61035 2.17382 9.54826V4.38712Q2.17382 4.32503 2.2165 4.27846Q2.25919 4.2319 2.32904 4.2319Q2.39889 4.2319 2.44158 4.27846Q2.48426 4.32503 2.48426 4.38712V5.10114Q2.71709 4.65876 3.10515 4.44533Q3.49321 4.2319 3.97439 4.2319Q4.48663 4.2319 4.89797 4.48801Q5.30931 4.74413 5.54214 5.19428Q5.77497 5.64442 5.77497 6.21098ZM5.46453 6.21098Q5.46453 5.72979 5.26662 5.34562Q5.06871 4.96144 4.72722 4.74413Q4.38573 4.52682 3.95887 4.52682Q3.52425 4.52682 3.17888 4.74025Q2.83351 4.95368 2.64336 5.33786Q2.45322 5.72203 2.45322 6.21098Q2.45322 6.69993 2.64336 7.08411Q2.83351 7.46828 3.17888 7.68559Q3.52425 7.9029 3.95887 7.9029Q4.38573 7.9029 4.72722 7.68559Q5.06871 7.46828 5.26662 7.08022Q5.46453 6.69217 5.46453 6.21098ZM6.9469 8.15126Q6.87705 8.15126 6.83436 8.10469Q6.79168 8.05812 6.79168 7.99604V4.30951Q6.79168 4.24742 6.83824 4.20085Q6.88481 4.15429 6.9469 4.15429Q7.01675 4.15429 7.05944 4.20085Q7.10212 4.24742 7.10212 4.30951V7.99604Q7.10212 8.05812 7.05556 8.10469Q7.00899 8.15126 6.9469 8.15126ZM6.67526 3.37818V3.31609Q6.67526 3.20743 6.75287 3.13758Q6.83048 3.06773 6.95466 3.06773Q7.06332 3.06773 7.13705 3.13758Q7.21078 3.20743 7.21078 3.31609V3.37818Q7.21078 3.48683 7.13705 3.55668Q7.06332 3.62653 6.9469 3.62653Q6.82272 3.62653 6.74899 3.55668Q6.67526 3.48683 6.67526 3.37818ZM11.4716 4.26294Q11.4716 4.30951 11.4483 4.35608L9.90388 8.05036Q9.88836 8.09693 9.84568 8.12409Q9.80299 8.15126 9.75642 8.15126Q9.70986 8.15126 9.66717 8.12409Q9.62448 8.09693 9.60896 8.05036L8.05674 4.36384Q8.04122 4.31727 8.04122 4.29399Q8.04122 4.2319 8.0839 4.18533Q8.12659 4.13876 8.2042 4.13876Q8.24301 4.13876 8.28569 4.16593Q8.32838 4.19309 8.3439 4.23966L9.74866 7.61574L11.1612 4.23966Q11.2 4.13876 11.3242 4.13876Q11.3707 4.13876 11.4212 4.17369Q11.4716 4.20861 11.4716 4.26294ZM14.0561 8.22887Q13.5206 8.22887 13.0821 7.96111Q12.6436 7.69335 12.3913 7.22769Q12.1391 6.76202 12.1391 6.19546Q12.1391 5.62114 12.3913 5.15547Q12.6436 4.6898 13.0782 4.42204Q13.5128 4.15429 14.0561 4.15429Q14.5916 4.15429 15.0301 4.42204Q15.4686 4.6898 15.717 5.15547Q15.9653 5.62114 15.9653 6.19546Q15.9653 6.76978 15.717 7.23157Q15.4686 7.69335 15.0301 7.96111Q14.5916 8.22887 14.0561 8.22887ZM14.0561 4.44921Q13.6059 4.44921 13.2373 4.67816Q12.8686 4.90711 12.6591 5.30293Q12.4495 5.69875 12.4495 6.19546Q12.4495 6.68441 12.6591 7.08022Q12.8686 7.47604 13.2373 7.70499Q13.6059 7.93395 14.0561 7.93395Q14.514 7.93395 14.8788 7.70887Q15.2435 7.4838 15.4492 7.08411Q15.6549 6.68441 15.6549 6.19546Q15.6549 5.69875 15.4492 5.30293Q15.2435 4.90711 14.8788 4.67816Q14.514 4.44921 14.0561 4.44921ZM18.573 4.39488Q18.573 4.45697 18.5304 4.49966Q18.4877 4.54234 18.4256 4.54234H17.5719V7.3053Q17.5719 7.64679 17.6922 7.75932Q17.8125 7.87186 17.9987 7.87186Q18.0298 7.87186 18.088 7.85634Q18.1462 7.84081 18.185 7.84081Q18.2393 7.84081 18.2781 7.8835Q18.3169 7.92619 18.3169 7.98051Q18.3169 8.05036 18.2238 8.10081Q18.1307 8.15126 18.0065 8.15126Q17.8125 8.15126 17.6805 8.12409Q17.5486 8.09693 17.405 7.91454Q17.2614 7.73216 17.2614 7.32082V4.54234H16.625Q16.5707 4.54234 16.5241 4.49578Q16.4775 4.44921 16.4775 4.39488Q16.4775 4.33279 16.5202 4.29011Q16.5629 4.24742 16.625 4.24742H17.2614V3.26176Q17.2614 3.19967 17.308 3.1531Q17.3545 3.10654 17.4166 3.10654Q17.4865 3.10654 17.5292 3.1531Q17.5719 3.19967 17.5719 3.26176V4.24742H18.4256Q18.4799 4.24742 18.5265 4.29399Q18.573 4.34055 18.573 4.39488Z" style="display:inline;stroke:#000000;stroke-width:0.35;stroke-linecap:round;stroke-linejoin:bevel" />
        <path id="sapphire_gemstone" d="m 12.875,122.900 q 0,0.34175 -0.242534,0.63114 -0.0441,0.0524 -0.20395,0.21497 -0.187413,0.19017 -0.785481,0.81304 l -1.444183,1.51309 q -0.01929,0.003 -0.0441,0.003 -0.02756,0 -0.04134,-0.003 -0.08268,-0.0827 -0.647678,-0.67524 -0.468532,-0.47404 -0.934309,-0.94809 -0.556727,-0.56775 -0.89848,-0.98116 -0.132292,-0.15985 -0.168121,-0.29766 -0.02756,-0.10197 -0.02756,-0.34175 0,-0.11024 0.07166,-0.28939 0.06614,-0.16536 0.140559,-0.26458 0.118512,-0.1571 0.42168,-0.42444 0.283875,-0.2508 0.474044,-0.37482 0.272852,-0.17915 0.818555,-0.36656 0.09646,-0.0331 0.110243,-0.0331 h 1.3615 q 0.01102,0 0.104731,0.0331 0.567751,0.20119 0.824066,0.36656 0.165365,0.10473 0.474045,0.37758 0.322461,0.28388 0.421679,0.42168 0.214974,0.2949 0.214974,0.62563 z m -0.16812,-0.27285 q -0.03307,-0.10749 -0.135048,-0.30868 -0.07166,-0.0937 -0.209462,-0.19844 -0.118511,-0.0854 -0.234266,-0.17088 0.245291,0.3638 0.578776,0.678 z m -0.573264,-0.52366 -0.358289,-0.44648 v 0.41065 z m 0.636653,0.75792 q 0,-0.0524 -0.341753,-0.39412 l 0.228754,0.7028 h 0.04961 q 0.06339,-0.21773 0.06339,-0.30868 z m -0.23151,0.27285 -0.316948,-0.90399 -0.410655,-0.0634 -0.159853,0.61461 z m 0.0028,0.15434 -0.771701,-0.3197 h -0.03032 l 0.344509,0.60634 q 0.07993,-0.003 0.234266,-0.0469 0.02481,-0.0138 0.223242,-0.23978 z m -0.857139,-1.05006 -0.719335,0.28388 0.60358,0.22599 z m 0,-0.16261 v -0.51538 l -0.917773,-0.38034 h -1.223697 l -0.917772,0.38034 v 0.51538 l 0.89848,0.4079 h 1.254014 z m 0.573264,1.53789 q -0.0689,0.011 -0.198438,0.0524 -0.08544,0.0551 -0.259071,0.16261 0.01929,0 0.06339,0.003 0.04134,0 0.06339,0 0.118511,0 0.190169,-0.0689 0.07166,-0.0717 0.14056,-0.14883 z m -0.289388,0.003 -0.347266,-0.63114 -0.363801,0.87918 q 0.0248,-0.0165 0.06615,-0.0165 0.03032,0 0.08544,0.011 0.05788,0.008 0.08819,0.008 0.04961,0 0.228754,-0.10749 0.228754,-0.1378 0.242535,-0.14331 z m -0.440972,-0.74139 -0.683507,-0.2756 -0.592556,0.54845 0.903993,0.65595 z m -0.854383,-0.28387 h -1.036284 l 0.523654,0.47404 z m 0.749652,1.36701 q -0.228754,-0.0303 -0.228754,-0.0303 -0.03583,0 -0.272851,0.0937 l 0.190169,0.0193 q 0.01102,0 0.311436,-0.0827 z m -0.388606,-0.0882 -0.843359,-0.61185 v 0.67524 l 0.471289,0.0827 z m 0.854383,0.0496 q -0.09922,0.006 -0.2949,0.0386 -0.01102,0.003 -0.377583,0.17639 -0.129535,0.34726 -0.380338,1.0418 z m -2.543857,-1.39733 -0.719335,-0.28388 0.124023,0.51814 z m -0.802018,-0.45476 v -0.41065 l -0.366557,0.44648 z m 1.515841,1.07212 -0.592556,-0.54019 -0.683506,0.2756 0.380338,0.9288 z m 0.369314,0.94257 q -0.03307,-0.003 -0.135047,-0.0248 -0.08544,-0.0165 -0.137804,-0.0165 -0.05237,0 -0.137804,0.0165 -0.101975,0.0221 -0.135047,0.0248 0.264583,0.0469 0.272851,0.0469 0.0083,0 0.272851,-0.0469 z m -0.30868,-0.1378 v -0.68626 l -0.843359,0.61185 0.37207,0.14607 z m 0.950846,0.20671 -0.396875,-0.0551 -0.479557,0.14056 v 1.27607 z m -2.888366,-2.20211 q -0.118512,0.0854 -0.234267,0.17364 -0.146072,0.10748 -0.209461,0.19568 -0.0441,0.10473 -0.135048,0.31419 0.369314,-0.3638 0.578776,-0.68351 z m 0.476801,0.83234 -0.159853,-0.61461 -0.410655,0.0634 -0.316948,0.90399 z m 0.394118,1.08313 -0.363802,-0.87918 -0.355533,0.63114 q 0.43546,0.2508 0.451996,0.2508 0.09095,0 0.267339,-0.003 z m 1.821765,0.82958 q -0.132291,0.21222 -0.405143,0.6339 -0.07717,0.10749 -0.220486,0.32797 -0.05788,0.10473 -0.05512,0.226 0.159852,-0.15158 0.432704,-0.49609 0.07717,-0.12954 0.140559,-0.339 0.05512,-0.17639 0.107486,-0.35278 z m -1.493792,-0.66146 -0.270095,-0.0882 -0.0083,-0.011 q -0.02481,0 -0.107487,0.011 -0.06615,0.006 -0.107487,0.006 0.272851,0.091 0.311436,0.091 0.02481,0 0.181901,-0.008 z m -0.810286,-1.06384 h -0.03032 l -0.7717,0.3197 q 0.06615,0.0965 0.223242,0.23978 0.07717,0.0138 0.234266,0.0469 z m -0.689018,-0.50161 q -0.341754,0.34727 -0.341754,0.39412 0,0.0799 0.06339,0.30868 h 0.04961 z m 2.235176,3.04547 v -1.27607 l -0.479557,-0.14056 -0.396875,0.0551 z m -1.606791,-1.6757 q -0.256315,-0.1819 -0.457509,-0.22324 0.06615,0.0772 0.20395,0.22324 z m 1.609547,2.04501 v -0.1378 l -0.683507,-1.05007 q 0.05237,0.17639 0.107487,0.35278 0.06339,0.20946 0.14056,0.339 0.0689,0.11851 0.20395,0.25907 0.115755,0.11851 0.23151,0.23702 z m -0.644921,-0.70555 q -0.115756,-0.32798 -0.380339,-1.0418 -0.135047,-0.0662 -0.272851,-0.12954 -0.159852,-0.0716 -0.289388,-0.0716 -0.05237,0 -0.110243,-0.0138 z" style="stroke-width:0;fill:#0000ff;stroke:#2e2114;stroke-linecap:square;stroke-opacity:1" />
        <path id="a_art" d="M 0.38,28.00 L 0.38,16.50 A 4 4 0 0 1 4.38 12.5 L 15.94,12.50 A 4 4 0 0 1 19.94 16.5 L 19.94,12.50 L 19.94,28.00 z" style="fill:url(#gradient_a);fill-opacity:1;stroke-width:0;" />
        <path id="b_art" d="M 0.38,63.00 L 0.38,48.00 A 4 4 0 0 1 4.38 44 L 15.94,44.00 A 4 4 0 0 1 19.94 48 L 19.94,44.00 L 19.94,63.00 z" style="fill:url(#gradient_b);fill-opacity:1;stroke-width:0;" />
        <path id="c_art" d="M 0.38,113.60 L 0.38,80.00 A 4 4 0 0 1 4.38 76 L 15.94,76.00 A 4 4 0 0 1 19.94 80 L 19.94,76.00 L 19.94,113.60 z" style="fill:url(#gradient_c);fill-opacity:1;stroke-width:0;" />
        <path d="M8.88118 17.2488Q8.8459 17.2488 8.8265 17.2277Q8.8071 17.2065 8.8071 17.1747V14.8535Q8.8071 14.8217 8.82826 14.8006Q8.84943 14.7794 8.88118 14.7794Q8.91293 14.7794 8.9341 14.8006Q8.95526 14.8217 8.95526 14.8535V17.1747Q8.95174 17.2065 8.93057 17.2277Q8.9094 17.2488 8.88118 17.2488ZM11.5129 14.8464V17.1712Q11.5129 17.21 11.4917 17.2294Q11.4706 17.2488 11.4388 17.2488Q11.4035 17.2488 11.3824 17.2206L9.79487 15.051V17.1889Q9.79487 17.2136 9.77547 17.2312Q9.75607 17.2488 9.72785 17.2488Q9.6961 17.2488 9.67846 17.2312Q9.66082 17.2136 9.66082 17.1889V14.8499Q9.66082 14.8147 9.68022 14.797Q9.69962 14.7794 9.72432 14.7794Q9.75607 14.7794 9.77724 14.8041L11.3788 16.9878V14.8464Q11.3788 14.8182 11.3982 14.7988Q11.4177 14.7794 11.4459 14.7794Q11.4776 14.7794 11.4953 14.7988Q11.5129 14.8182 11.5129 14.8464Z" style="stroke:#000000;stroke-width:0.25;stroke-linecap:round;stroke-linejoin:bevel" />
        <path d="M7.84754 80.7841Q7.50535 80.7841 7.23724 80.6236Q6.96913 80.4631 6.81919 80.1738Q6.66926 79.8845 6.66926 79.5141Q6.66926 79.1437 6.81919 78.8544Q6.96913 78.5651 7.23724 78.4046Q7.50535 78.2441 7.84754 78.2441Q8.18974 78.2441 8.45785 78.4046Q8.72596 78.5651 8.87589 78.8544Q9.02582 79.1437 9.02582 79.5141Q9.02582 79.8845 8.87589 80.1738Q8.72596 80.4631 8.45785 80.6236Q8.18974 80.7841 7.84754 80.7841ZM7.84754 78.3852Q7.54768 78.3852 7.31308 78.5263Q7.07849 78.6674 6.94796 78.925Q6.81743 79.1825 6.81743 79.5141Q6.81743 79.8457 6.94796 80.1033Q7.07849 80.3608 7.31308 80.5019Q7.54768 80.643 7.84754 80.643Q8.1474 80.643 8.382 80.5019Q8.6166 80.3608 8.74713 80.1033Q8.87765 79.8457 8.87765 79.5141Q8.87765 79.1825 8.74713 78.925Q8.6166 78.6674 8.382 78.5263Q8.1474 78.3852 7.84754 78.3852ZM11.3718 78.3499V79.8739Q11.3718 80.1209 11.2483 80.329Q11.1248 80.5372 10.9167 80.6606Q10.7086 80.7841 10.4652 80.7841Q10.2182 80.7841 10.0101 80.6606Q9.80193 80.5372 9.67846 80.329Q9.55499 80.1209 9.55499 79.8739V78.3499Q9.55499 78.3182 9.57615 78.2988Q9.59732 78.2794 9.62907 78.2794Q9.66082 78.2794 9.68199 78.3006Q9.70315 78.3217 9.70315 78.3499V79.8739Q9.70315 80.0821 9.80546 80.2585Q9.90776 80.4349 10.0824 80.5389Q10.257 80.643 10.4652 80.643Q10.6733 80.643 10.8479 80.5389Q11.0225 80.4349 11.1266 80.2585Q11.2307 80.0821 11.2307 79.8739V78.3499Q11.2307 78.3217 11.2501 78.3006Q11.2695 78.2794 11.3012 78.2794Q11.333 78.2794 11.3524 78.3006Q11.3718 78.3217 11.3718 78.3499ZM13.7037 78.3464Q13.7037 78.3782 13.6843 78.3958Q13.6648 78.4134 13.6331 78.4134H12.8464V80.6783Q12.8464 80.7065 12.8252 80.7277Q12.8041 80.7488 12.7758 80.7488Q12.7441 80.7488 12.7247 80.7277Q12.7053 80.7065 12.7053 80.6783V78.4134H11.9186Q11.8904 78.4134 11.8692 78.394Q11.848 78.3746 11.848 78.3464Q11.848 78.3182 11.8692 78.2988Q11.8904 78.2794 11.9186 78.2794H13.6331Q13.6613 78.2794 13.6825 78.2988Q13.7037 78.3182 13.7037 78.3464Z" style="stroke:#000000;stroke-width:0.25;stroke-linecap:round;stroke-linejoin:bevel" />
        <path d="M6.63908 46.6118Q6.63908 46.6435 6.61968 46.6612Q6.60028 46.6788 6.56853 46.6788H5.78183V48.9437Q5.78183 48.9719 5.76067 48.993Q5.7395 49.0142 5.71128 49.0142Q5.67953 49.0142 5.66013 48.993Q5.64072 48.9719 5.64072 48.9437V46.6788H4.85403Q4.82581 46.6788 4.80464 46.6594Q4.78347 46.64 4.78347 46.6118Q4.78347 46.5836 4.80464 46.5642Q4.82581 46.5448 4.85403 46.5448H6.56853Q6.59675 46.5448 6.61792 46.5642Q6.63908 46.5836 6.63908 46.6118ZM10.0751 46.6047 10.0681 46.64 9.26022 48.9683Q9.25317 48.9895 9.23376 49.0019Q9.21436 49.0142 9.19672 49.0142Q9.14028 49.0142 9.12617 48.9719L8.48058 47.342L7.835 48.9719Q7.81736 49.0142 7.76092 49.0142Q7.73975 49.0142 7.72211 49.0019Q7.70447 48.9895 7.70094 48.9683L6.89308 46.64L6.88603 46.6083Q6.88603 46.5765 6.91072 46.5571Q6.93542 46.5377 6.96364 46.5377Q6.98481 46.5377 7.00421 46.5501Q7.02361 46.5624 7.03067 46.5836L7.77856 48.7426L8.41356 47.1374Q8.43119 47.0916 8.48058 47.0916Q8.50175 47.0916 8.52115 47.1039Q8.54056 47.1163 8.54761 47.1374L9.18614 48.7461L9.9305 46.5836Q9.94814 46.5377 10.0011 46.5377Q10.0328 46.5377 10.054 46.5553Q10.0751 46.573 10.0751 46.6047ZM10.6255 49.0142Q10.5902 49.0142 10.5708 48.993Q10.5514 48.9719 10.5514 48.9401V46.6188Q10.5514 46.5871 10.5726 46.5659Q10.5937 46.5448 10.6255 46.5448Q10.6572 46.5448 10.6784 46.5659Q10.6996 46.5871 10.6996 46.6188V48.9401Q10.696 48.9719 10.6749 48.993Q10.6537 49.0142 10.6255 49.0142ZM11.197 48.6791Q11.1758 48.6579 11.1758 48.6262Q11.1758 48.5979 11.2005 48.5715Q11.2252 48.545 11.2534 48.545Q11.2852 48.545 11.3134 48.5768Q11.451 48.739 11.6397 48.8237Q11.8284 48.9084 12.0366 48.9084Q12.3082 48.9084 12.4846 48.7778Q12.661 48.6473 12.661 48.4321Q12.6575 48.2628 12.5693 48.1534Q12.4811 48.0441 12.3523 47.9788Q12.2236 47.9135 12.0013 47.8324Q11.7579 47.7407 11.6221 47.6701Q11.4863 47.5996 11.3892 47.469Q11.2922 47.3385 11.2922 47.1268Q11.2922 46.954 11.3875 46.8129Q11.4827 46.6718 11.6591 46.5906Q11.8355 46.5095 12.0683 46.5095Q12.2765 46.5095 12.4634 46.5853Q12.6504 46.6612 12.7598 46.7988Q12.7951 46.8482 12.7951 46.8728Q12.7951 46.9011 12.7686 46.924Q12.7421 46.9469 12.7104 46.9469Q12.6822 46.9469 12.6645 46.9258Q12.5657 46.7988 12.4105 46.7247Q12.2553 46.6506 12.0683 46.6506Q11.8002 46.6506 11.6221 46.7776Q11.4439 46.9046 11.4439 47.1233Q11.4439 47.275 11.5303 47.3808Q11.6168 47.4867 11.7473 47.5519Q11.8778 47.6172 12.0719 47.6878Q12.3188 47.776 12.4634 47.85Q12.6081 47.9241 12.7104 48.0652Q12.8127 48.2063 12.8127 48.4392Q12.8127 48.6015 12.7174 48.7426Q12.6222 48.8837 12.444 48.9666Q12.2659 49.0495 12.0366 49.0495Q11.7755 49.0495 11.5815 48.9595Q11.3875 48.8696 11.197 48.6791ZM14.9717 46.6118Q14.9717 46.6435 14.9523 46.6612Q14.9329 46.6788 14.9011 46.6788H14.1144V48.9437Q14.1144 48.9719 14.0933 48.993Q14.0721 49.0142 14.0439 49.0142Q14.0121 49.0142 13.9927 48.993Q13.9733 48.9719 13.9733 48.9437V46.6788H13.1866Q13.1584 46.6788 13.1373 46.6594Q13.1161 46.64 13.1161 46.6118Q13.1161 46.5836 13.1373 46.5642Q13.1584 46.5448 13.1866 46.5448H14.9011Q14.9294 46.5448 14.9505 46.5642Q14.9717 46.5836 14.9717 46.6118Z" style="stroke:#000000;stroke-width:0.25;stroke-linecap:round;stroke-linejoin:bevel" />
        <path d="M 10.16,57.00 L 5.16,68.00 z L 15.16,68.00 z " style="stroke:#000000;stroke-width:0.25;stroke-linecap:round;stroke-linejoin:bevel;stroke-dasharray:none" />
        <path d="M4.82546 89.1465Q4.8431 89.1712 4.8431 89.1889Q4.8431 89.2206 4.82193 89.24Q4.80076 89.2594 4.76901 89.2594Q4.73021 89.2594 4.71257 89.2312L3.90471 88.1305L3.10038 89.2312Q3.08274 89.2594 3.04746 89.2594Q3.01571 89.2594 2.99807 89.24Q2.98043 89.2206 2.98043 89.1994Q2.98043 89.1818 2.99807 89.1536L3.8271 88.0212L2.99101 86.8817Q2.9769 86.8641 2.9769 86.8394Q2.9769 86.8076 2.99807 86.7882Q3.01924 86.7688 3.04746 86.7688Q3.08979 86.7688 3.10743 86.797L3.91529 87.9012L4.71963 86.7935Q4.74079 86.7653 4.77254 86.7653Q4.80429 86.7653 4.82369 86.7812Q4.8431 86.797 4.8431 86.8217Q4.8431 86.8464 4.82546 86.8711L3.99643 88.0141Z" style="stroke:#000000;stroke-width:0.25;stroke-linecap:round;stroke-linejoin:bevel" />
        <path d="M4.79018 95.8782 3.98585 96.9718V98.1783Q3.98585 98.2065 3.96468 98.2277Q3.94351 98.2488 3.91176 98.2488Q3.88001 98.2488 3.85885 98.2277Q3.83768 98.2065 3.83768 98.1783V96.9859L3.02982 95.8782Q3.01571 95.8605 3.01571 95.8323Q3.01571 95.8076 3.03864 95.7864Q3.06157 95.7653 3.08979 95.7653Q3.1286 95.7653 3.14976 95.797L3.91176 96.8377L4.67376 95.797Q4.69493 95.7653 4.73374 95.7653Q4.76549 95.7653 4.78489 95.7882Q4.80429 95.8111 4.80429 95.8323Q4.80429 95.8499 4.79018 95.8782Z" style="stroke:#000000;stroke-width:0.25;stroke-linecap:round;stroke-linejoin:bevel" />
        <path d="M4.86426 107.182Q4.86426 107.21 4.8431 107.229Q4.82193 107.249 4.79371 107.249H3.05804Q3.02629 107.249 3.00689 107.226Q2.98749 107.203 2.98749 107.175Q2.98749 107.15 3.0016 107.132L4.66671 104.913H3.1286Q3.10038 104.913 3.07921 104.894Q3.05804 104.875 3.05804 104.846Q3.05804 104.818 3.07921 104.799Q3.10038 104.779 3.1286 104.779H4.78665Q4.82899 104.779 4.84839 104.801Q4.86779 104.822 4.86779 104.85Q4.86779 104.875 4.85368 104.892L3.1921 107.115H4.79371Q4.82193 107.115 4.8431 107.136Q4.86426 107.157 4.86426 107.182Z" style="stroke:#000000;stroke-width:0.25;stroke-linecap:round;stroke-linejoin:bevel" />
        <path d="M4.799 114.453Q4.799 114.651 4.7161 114.811Q4.63319 114.972 4.4815 115.062Q4.32981 115.152 4.13225 115.152H3.36319V116.178Q3.36319 116.207 3.34026 116.228Q3.31733 116.249 3.28911 116.249Q3.25736 116.249 3.23619 116.228Q3.21503 116.207 3.21503 116.178V113.85Q3.21503 113.822 3.23619 113.801Q3.25736 113.779 3.28558 113.779H4.13225Q4.43211 113.779 4.61556 113.966Q4.799 114.153 4.799 114.453ZM4.65083 114.453Q4.65083 114.21 4.51149 114.065Q4.37214 113.921 4.13225 113.921H3.36319V115.011H4.13225Q4.36861 115.011 4.50972 114.854Q4.65083 114.697 4.65083 114.453Z" style="stroke:#000000;stroke-width:0.25;stroke-linecap:round;stroke-linejoin:bevel" />
        <path d="M 14.71,117.62 L 10.16,120.25 L 5.61,117.62 L 5.61,112.38 L 10.16,109.75 L 14.71,112.38 z " style="stroke:#000000;fill:#2455a6;stroke-width:0.15;stroke-linecap:round;stroke-linejoin:round;stroke-dasharray:none" />
    </g>
</svg>
