<?xml version="1.0" encoding="utf-8"?>
<svg xmlns="http://www.w3.org/2000/svg" width="20.32mm" height="128.50mm" viewBox="0 0 20.32 128.50">
    <g id="PanelLayer">
        <defs>
            <linearGradient id="gradient_a" x1="0" y1="12.5" x2="0" y2="28" gradientUnits="userSpaceOnUse">
                <stop style="stop-color:#a06de4;stop-opacity:1;" offset="0" />
                <stop style="stop-color:#4f8df2;stop-opacity:1;" offset="1" />
            </linearGradient>
            <linearGradient id="gradient_b" x1="0" y1="27.1667" x2="0" y2="42.6667" gradientUnits="userSpaceOnUse">
                <stop style="stop-color:#3068ff;stop-opacity:1;" offset="0" />
                <stop style="stop-color:#4f8df2;stop-opacity:1;" offset="1" />
            </linearGradient>
            <linearGradient id="gradient_c" x1="0" y1="76" x2="0" y2="113.6" gradientUnits="userSpaceOnUse">
                <stop style="stop-color:#29aab4;stop-opacity:1;" offset="0" />
                <stop style="stop-color:#4f8df2;stop-opacity:1;" offset="1" />
            </linearGradient>
        </defs>
        <rect id="border_rect" width="20.32" height="128.5" x="0" y="0" style="display:inline;fill:#4f8df2;fill-opacity:1;fill-rule:nonzero;stroke:#5021d4;stroke-width:0.7;stroke-linecap:round;stroke-linejoin:round;stroke-dasharray:none;stroke-opacity:1;image-rendering:auto" />
        <path id="model_name" d="M5.77497 6.21098Q5.77497 6.76978 5.53826 7.22381Q5.30154 7.67783 4.89021 7.93783Q4.47887 8.19782 3.97439 8.19782Q3.50873 8.19782 3.12067 7.96499Q2.73262 7.73216 2.48426 7.3053V9.54826Q2.48426 9.61035 2.44158 9.65691Q2.39889 9.70348 2.32904 9.70348Q2.26695 9.70348 2.22038 9.65691Q2.17382 9.61035 2.17382 9.54826V4.38712Q2.17382 4.32503 2.2165 4.27846Q2.25919 4.2319 2.32904 4.2319Q2.39889 4.2319 2.44158 4.27846Q2.48426 4.32503 2.48426 4.38712V5.10114Q2.71709 4.65876 3.10515 4.44533Q3.49321 4.2319 3.97439 4.2319Q4.48663 4.2319 4.89797 4.48801Q5.30931 4.74413 5.54214 5.19428Q5.77497 5.64442 5.77497 6.21098ZM5.46453 6.21098Q5.46453 5.72979 5.26662 5.34562Q5.06871 4.96144 4.72722 4.74413Q4.38573 4.52682 3.95887 4.52682Q3.52425 4.52682 3.17888 4.74025Q2.83351 4.95368 2.64336 5.33786Q2.45322 5.72203 2.45322 6.21098Q2.45322 6.69993 2.64336 7.08411Q2.83351 7.46828 3.17888 7.68559Q3.52425 7.9029 3.95887 7.9029Q4.38573 7.9029 4.72722 7.68559Q5.06871 7.46828 5.26662 7.08022Q5.46453 6.69217 5.46453 6.21098ZM6.9469 8.15126Q6.87705 8.15126 6.83436 8.10469Q6.79168 8.05812 6.79168 7.99604V4.30951Q6.79168 4.24742 6.83824 4.20085Q6.88481 4.15429 6.9469 4.15429Q7.01675 4.15429 7.05944 4.20085Q7.10212 4.24742 7.10212 4.30951V7.99604Q7.10212 8.05812 7.05556 8.10469Q7.00899 8.15126 6.9469 8.15126ZM6.67526 3.37818V3.31609Q6.67526 3.20743 6.75287 3.13758Q6.83048 3.06773 6.95466 3.06773Q7.06332 3.06773 7.13705 3.13758Q7.21078 3.20743 7.21078 3.31609V3.37818Q7.21078 3.48683 7.13705 3.55668Q7.06332 3.62653 6.9469 3.62653Q6.82272 3.62653 6.74899 3.55668Q6.67526 3.48683 6.67526 3.37818ZM11.4716 4.26294Q11.4716 4.30951 11.4483 4.35608L9.90388 8.05036Q9.88836 8.09693 9.84568 8.12409Q9.80299 8.15126 9.75642 8.15126Q9.70986 8.15126 9.66717 8.12409Q9.62448 8.09693 9.60896 8.05036L8.05674 4.36384Q8.04122 4.31727 8.04122 4.29399Q8.04122 4.2319 8.0839 4.18533Q8.12659 4.13876 8.2042 4.13876Q8.24301 4.13876 8.28569 4.16593Q8.32838 4.19309 8.3439 4.23966L9.74866 7.61574L11.1612 4.23966Q11.2 4.13876 11.3242 4.13876Q11.3707 4.13876 11.4212 4.17369Q11.4716 4.20861 11.4716 4.26294ZM14.0561 8.22887Q13.5206 8.22887 13.0821 7.96111Q12.6436 7.69335 12.3913 7.22769Q12.1391 6.76202 12.1391 6.19546Q12.1391 5.62114 12.3913 5.15547Q12.6436 4.6898 13.0782 4.42204Q13.5128 4.15429 14.0561 4.15429Q14.5916 4.15429 15.0301 4.42204Q15.4686 4.6898 15.717 5.15547Q15.9653 5.62114 15.9653 6.19546Q15.9653 6.76978 15.717 7.23157Q15.4686 7.69335 15.0301 7.96111Q14.5916 8.22887 14.0561 8.22887ZM14.0561 4.44921Q13.6059 4.44921 13.2373 4.67816Q12.8686 4.90711 12.6591 5.30293Q12.4495 5.69875 12.4495 6.19546Q12.4495 6.68441 12.6591 7.08022Q12.8686 7.47604 13.2373 7.70499Q13.6059 7.93395 14.0561 7.93395Q14.514 7.93395 14.8788 7.70887Q15.2435 7.4838 15.4492 7.08411Q15.6549 6.68441 15.6549 6.19546Q15.6549 5.69875 15.4492 5.30293Q15.2435 4.90711 14.8788 4.67816Q14.514 4.44921 14.0561 4.44921ZM18.573 4.39488Q18.573 4.45697 18.5304 4.49966Q18.4877 4.54234 18.4256 4.54234H17.5719V7.3053Q17.5719 7.64679 17.6922 7.75932Q17.8125 7.87186 17.9987 7.87186Q18.0298 7.87186 18.088 7.85634Q18.1462 7.84081 18.185 7.84081Q18.2393 7.84081 18.2781 7.8835Q18.3169 7.92619 18.3169 7.98051Q18.3169 8.05036 18.2238 8.10081Q18.1307 8.15126 18.0065 8.15126Q17.8125 8.15126 17.6805 8.12409Q17.5486 8.09693 17.405 7.91454Q17.2614 7.73216 17.2614 7.32082V4.54234H16.625Q16.5707 4.54234 16.5241 4.49578Q16.4775 4.44921 16.4775 4.39488Q16.4775 4.33279 16.5202 4.29011Q16.5629 4.24742 16.625 4.24742H17.2614V3.26176Q17.2614 3.19967 17.308 3.1531Q17.3545 3.10654 17.4166 3.10654Q17.4865 3.10654 17.5292 3.1531Q17.5719 3.19967 17.5719 3.26176V4.24742H18.4256Q18.4799 4.24742 18.5265 4.29399Q18.573 4.34055 18.573 4.39488Z" style="display:inline;stroke:#000000;stroke-width:0.35;stroke-linecap:round;stroke-linejoin:bevel" />
        <path id="sapphire_gemstone" d="m 12.875,122.900 q 0,0.34175 -0.242534,0.63114 -0.0441,0.0524 -0.20395,0.21497 -0.187413,0.19017 -0.785481,0.81304 l -1.444183,1.51309 q -0.01929,0.003 -0.0441,0.003 -0.02756,0 -0.04134,-0.003 -0.08268,-0.0827 -0.647678,-0.67524 -0.468532,-0.47404 -0.934309,-0.94809 -0.556727,-0.56775 -0.89848,-0.98116 -0.132292,-0.15985 -0.168121,-0.29766 -0.02756,-0.10197 -0.02756,-0.34175 0,-0.11024 0.07166,-0.28939 0.06614,-0.16536 0.140559,-0.26458 0.118512,-0.1571 0.42168,-0.42444 0.283875,-0.2508 0.474044,-0.37482 0.272852,-0.17915 0.818555,-0.36656 0.09646,-0.0331 0.110243,-0.0331 h 1.3615 q 0.01102,0 0.104731,0.0331 0.567751,0.20119 0.824066,0.36656 0.165365,0.10473 0.474045,0.37758 0.322461,0.28388 0.421679,0.42168 0.214974,0.2949 0.214974,0.62563 z m -0.16812,-0.27285 q -0.03307,-0.10749 -0.135048,-0.30868 -0.07166,-0.0937 -0.209462,-0.19844 -0.118511,-0.0854 -0.234266,-0.17088 0.245291,0.3638 0.578776,0.678 z m -0.573264,-0.52366 -0.358289,-0.44648 v 0.41065 z m 0.636653,0.75792 q 0,-0.0524 -0.341753,-0.39412 l 0.228754,0.7028 h 0.04961 q 0.06339,-0.21773 0.06339,-0.30868 z m -0.23151,0.27285 -0.316948,-0.90399 -0.410655,-0.0634 -0.159853,0.61461 z m 0.0028,0.15434 -0.771701,-0.3197 h -0.03032 l 0.344509,0.60634 q 0.07993,-0.003 0.234266,-0.0469 0.02481,-0.0138 0.223242,-0.23978 z m -0.857139,-1.05006 -0.719335,0.28388 0.60358,0.22599 z m 0,-0.16261 v -0.51538 l -0.917773,-0.38034 h -1.223697 l -0.917772,0.38034 v 0.51538 l 0.89848,0.4079 h 1.254014 z m 0.573264,1.53789 q -0.0689,0.011 -0.198438,0.0524 -0.08544,0.0551 -0.259071,0.16261 0.01929,0 0.06339,0.003 0.04134,0 0.06339,0 0.118511,0 0.190169,-0.0689 0.07166,-0.0717 0.14056,-0.14883 z m -0.289388,0.003 -0.347266,-0.63114 -0.363801,0.87918 q 0.0248,-0.0165 0.06615,-0.0165 0.03032,0 0.08544,0.011 0.05788,0.008 0.08819,0.008 0.04961,0 0.228754,-0.10749 0.228754,-0.1378 0.242535,-0.14331 z m -0.440972,-0.74139 -0.683507,-0.2756 -0.592556,0.54845 0.903993,0.65595 z m -0.854383,-0.28387 h -1.036284 l 0.523654,0.47404 z m 0.749652,1.36701 q -0.228754,-0.0303 -0.228754,-0.0303 -0.03583,0 -0.272851,0.0937 l 0.190169,0.0193 q 0.01102,0 0.311436,-0.0827 z m -0.388606,-0.0882 -0.843359,-0.61185 v 0.67524 l 0.471289,0.0827 z m 0.854383,0.0496 q -0.09922,0.006 -0.2949,0.0386 -0.01102,0.003 -0.377583,0.17639 -0.129535,0.34726 -0.380338,1.0418 z m -2.543857,-1.39733 -0.719335,-0.28388 0.124023,0.51814 z m -0.802018,-0.45476 v -0.41065 l -0.366557,0.44648 z m 1.515841,1.07212 -0.592556,-0.54019 -0.683506,0.2756 0.380338,0.9288 z m 0.369314,0.94257 q -0.03307,-0.003 -0.135047,-0.0248 -0.08544,-0.0165 -0.137804,-0.0165 -0.05237,0 -0.137804,0.0165 -0.101975,0.0221 -0.135047,0.0248 0.264583,0.0469 0.272851,0.0469 0.0083,0 0.272851,-0.0469 z m -0.30868,-0.1378 v -0.68626 l -0.843359,0.61185 0.37207,0.14607 z m 0.950846,0.20671 -0.396875,-0.0551 -0.479557,0.14056 v 1.27607 z m -2.888366,-2.20211 q -0.118512,0.0854 -0.234267,0.17364 -0.146072,0.10748 -0.209461,0.19568 -0.0441,0.10473 -0.135048,0.31419 0.369314,-0.3638 0.578776,-0.68351 z m 0.476801,0.83234 -0.159853,-0.61461 -0.410655,0.0634 -0.316948,0.90399 z m 0.394118,1.08313 -0.363802,-0.87918 -0.355533,0.63114 q 0.43546,0.2508 0.451996,0.2508 0.09095,0 0.267339,-0.003 z m 1.821765,0.82958 q -0.132291,0.21222 -0.405143,0.6339 -0.07717,0.10749 -0.220486,0.32797 -0.05788,0.10473 -0.05512,0.226 0.159852,-0.15158 0.432704,-0.49609 0.07717,-0.12954 0.140559,-0.339 0.05512,-0.17639 0.107486,-0.35278 z m -1.493792,-0.66146 -0.270095,-0.0882 -0.0083,-0.011 q -0.02481,0 -0.107487,0.011 -0.06615,0.006 -0.107487,0.006 0.272851,0.091 0.311436,0.091 0.02481,0 0.181901,-0.008 z m -0.810286,-1.06384 h -0.03032 l -0.7717,0.3197 q 0.06615,0.0965 0.223242,0.23978 0.07717,0.0138 0.234266,0.0469 z m -0.689018,-0.50161 q -0.341754,0.34727 -0.341754,0.39412 0,0.0799 0.06339,0.30868 h 0.04961 z m 2.235176,3.04547 v -1.27607 l -0.479557,-0.14056 -0.396875,0.0551 z m -1.606791,-1.6757 q -0.256315,-0.1819 -0.457509,-0.22324 0.06615,0.0772 0.20395,0.22324 z m 1.609547,2.04501 v -0.1378 l -0.683507,-1.05007 q 0.05237,0.17639 0.107487,0.35278 0.06339,0.20946 0.14056,0.339 0.0689,0.11851 0.20395,0.25907 0.115755,0.11851 0.23151,0.23702 z m -0.644921,-0.70555 q -0.115756,-0.32798 -0.380339,-1.0418 -0.135047,-0.0662 -0.272851,-0.12954 -0.159852,-0.0716 -0.289388,-0.0716 -0.05237,0 -0.110243,-0.0138 z" style="stroke-width:0;fill:#0000ff;stroke:#2e2114;stroke-linecap:square;stroke-opacity:1" />
        <path id="a_art" d="M 0.38,28.00 L 0.38,16.50 A 4 4 0 0 1 4.38 12.5 L 15.94,12.50 A 4 4 0 0 1 19.94 16.5 L 19.94,12.50 L 19.94,28.00 z" style="fill:url(#gradient_a);fill-opacity:1;stroke-width:0;" />
        <path id="b_art" d="M 0.38,42.67 L 0.38,31.17 A 4 4 0 0 1 4.38 27.1667 L 15.94,27.17 A 4 4 0 0 1 19.94 31.1667 L 19.94,27.17 L 19.94,42.67 z" style="fill:url(#gradient_b);fill-opacity:1;stroke-width:0;" />
        <path id="c_art" d="M 0.38,113.60 L 0.38,80.00 A 4 4 0 0 1 4.38 76 L 15.94,76.00 A 4 4 0 0 1 19.94 80 L 19.94,76.00 L 19.94,113.60 z" style="fill:url(#gradient_c);fill-opacity:1;stroke-width:0;" />
        <path d="M11.1813 17.1818Q11.1813 17.2136 11.1601 17.2312Q11.139 17.2488 11.1072 17.2488Q11.0825 17.2488 11.0631 17.2365Q11.0437 17.2241 11.0367 17.203L10.7403 16.4763L10.7438 16.4833H9.56204L9.27629 17.203Q9.25865 17.2488 9.21279 17.2488Q9.18104 17.2488 9.16164 17.2312Q9.14224 17.2136 9.13871 17.1889Q9.13518 17.1747 9.14224 17.1536L10.0912 14.8182Q10.1018 14.79 10.1177 14.7812Q10.1335 14.7723 10.1582 14.7723Q10.2112 14.7723 10.2288 14.8182L11.1778 17.1536Q11.1813 17.1642 11.1813 17.1818ZM9.61849 16.3422H10.6874L10.1477 15.0122Z" style="stroke:#000000;stroke-width:0.25;stroke-linecap:round;stroke-linejoin:bevel" />
        <path d="M7.84754 80.7841Q7.50535 80.7841 7.23724 80.6236Q6.96913 80.4631 6.81919 80.1738Q6.66926 79.8845 6.66926 79.5141Q6.66926 79.1437 6.81919 78.8544Q6.96913 78.5651 7.23724 78.4046Q7.50535 78.2441 7.84754 78.2441Q8.18974 78.2441 8.45785 78.4046Q8.72596 78.5651 8.87589 78.8544Q9.02582 79.1437 9.02582 79.5141Q9.02582 79.8845 8.87589 80.1738Q8.72596 80.4631 8.45785 80.6236Q8.18974 80.7841 7.84754 80.7841ZM7.84754 78.3852Q7.54768 78.3852 7.31308 78.5263Q7.07849 78.6674 6.94796 78.925Q6.81743 79.1825 6.81743 79.5141Q6.81743 79.8457 6.94796 80.1033Q7.07849 80.3608 7.31308 80.5019Q7.54768 80.643 7.84754 80.643Q8.1474 80.643 8.382 80.5019Q8.6166 80.3608 8.74713 80.1033Q8.87765 79.8457 8.87765 79.5141Q8.87765 79.1825 8.74713 78.925Q8.6166 78.6674 8.382 78.5263Q8.1474 78.3852 7.84754 78.3852ZM11.3718 78.3499V79.8739Q11.3718 80.1209 11.2483 80.329Q11.1248 80.5372 10.9167 80.6606Q10.7086 80.7841 10.4652 80.7841Q10.2182 80.7841 10.0101 80.6606Q9.80193 80.5372 9.67846 80.329Q9.55499 80.1209 9.55499 79.8739V78.3499Q9.55499 78.3182 9.57615 78.2988Q9.59732 78.2794 9.62907 78.2794Q9.66082 78.2794 9.68199 78.3006Q9.70315 78.3217 9.70315 78.3499V79.8739Q9.70315 80.0821 9.80546 80.2585Q9.90776 80.4349 10.0824 80.5389Q10.257 80.643 10.4652 80.643Q10.6733 80.643 10.8479 80.5389Q11.0225 80.4349 11.1266 80.2585Q11.2307 80.0821 11.2307 79.8739V78.3499Q11.2307 78.3217 11.2501 78.3006Q11.2695 78.2794 11.3012 78.2794Q11.333 78.2794 11.3524 78.3006Q11.3718 78.3217 11.3718 78.3499ZM13.7037 78.3464Q13.7037 78.3782 13.6843 78.3958Q13.6648 78.4134 13.6331 78.4134H12.8464V80.6783Q12.8464 80.7065 12.8252 80.7277Q12.8041 80.7488 12.7758 80.7488Q12.7441 80.7488 12.7247 80.7277Q12.7053 80.7065 12.7053 80.6783V78.4134H11.9186Q11.8904 78.4134 11.8692 78.394Q11.848 78.3746 11.848 78.3464Q11.848 78.3182 11.8692 78.2988Q11.8904 78.2794 11.9186 78.2794H13.6331Q13.6613 78.2794 13.6825 78.2988Q13.7037 78.3182 13.7037 78.3464Z" style="stroke:#000000;stroke-width:0.25;stroke-linecap:round;stroke-linejoin:bevel" />
        <path d="M6.82606 31.9472Q6.82606 31.9789 6.80489 31.9966Q6.78372 32.0142 6.75197 32.0142Q6.72728 32.0142 6.70787 32.0019Q6.68847 31.9895 6.68142 31.9683L6.38508 31.2416L6.38861 31.2487H5.20681L4.92106 31.9683Q4.90342 32.0142 4.85756 32.0142Q4.82581 32.0142 4.8064 31.9966Q4.787 31.9789 4.78347 31.9542Q4.77994 31.9401 4.787 31.919L5.73597 29.5836Q5.74656 29.5553 5.76243 29.5465Q5.77831 29.5377 5.803 29.5377Q5.85592 29.5377 5.87356 29.5836L6.82253 31.919Q6.82606 31.9295 6.82606 31.9472ZM5.26325 31.1076H6.33217L5.79242 29.7776ZM9.15439 29.6118V31.9366Q9.15439 31.9754 9.13322 31.9948Q9.11206 32.0142 9.08031 32.0142Q9.04503 32.0142 9.02386 31.986L7.43636 29.8164V31.9542Q7.43636 31.9789 7.41696 31.9966Q7.39756 32.0142 7.36933 32.0142Q7.33758 32.0142 7.31994 31.9966Q7.30231 31.9789 7.30231 31.9542V29.6153Q7.30231 29.58 7.32171 29.5624Q7.34111 29.5448 7.36581 29.5448Q7.39756 29.5448 7.41872 29.5695L9.02033 31.7532V29.6118Q9.02033 29.5836 9.03974 29.5642Q9.05914 29.5448 9.08736 29.5448Q9.11911 29.5448 9.13675 29.5642Q9.15439 29.5836 9.15439 29.6118ZM11.7261 30.8677V31.7532Q11.7261 31.7955 11.6944 31.8167Q11.5321 31.926 11.3398 31.9877Q11.1476 32.0495 10.95 32.0495Q10.5867 32.0495 10.2992 31.8854Q10.0116 31.7214 9.8476 31.4321Q9.68356 31.1428 9.68356 30.7795Q9.68356 30.4161 9.8476 30.1268Q10.0116 29.8376 10.2992 29.6735Q10.5867 29.5095 10.95 29.5095Q11.1476 29.5095 11.3257 29.5571Q11.5039 29.6047 11.645 29.7Q11.6768 29.7212 11.6768 29.76Q11.6768 29.7917 11.6538 29.8111Q11.6309 29.8305 11.6097 29.8305Q11.5921 29.8305 11.5639 29.8164Q11.2675 29.6506 10.95 29.6506Q10.6255 29.6506 10.3715 29.7952Q10.1175 29.9399 9.9746 30.1974Q9.83172 30.4549 9.83172 30.7795Q9.83172 31.104 9.9746 31.3616Q10.1175 31.6191 10.3715 31.7637Q10.6255 31.9084 10.95 31.9084Q11.1123 31.9084 11.2799 31.8572Q11.4474 31.8061 11.585 31.7214V30.9382H10.95Q10.9218 30.9382 10.9006 30.9171Q10.8795 30.8959 10.8795 30.8677Q10.8795 30.8359 10.9006 30.8165Q10.9218 30.7971 10.95 30.7971H11.6556Q11.6873 30.7971 11.7067 30.8183Q11.7261 30.8395 11.7261 30.8677ZM13.744 31.9437Q13.744 31.9754 13.7229 31.9948Q13.7017 32.0142 13.6735 32.0142H12.3788Q12.347 32.0142 12.3276 31.993Q12.3082 31.9719 12.3082 31.9437V29.6153Q12.3082 29.5871 12.3294 29.5659Q12.3506 29.5448 12.3823 29.5448Q12.4141 29.5448 12.4352 29.5659Q12.4564 29.5871 12.4564 29.6153V31.8731H13.6735Q13.7017 31.8731 13.7229 31.8943Q13.744 31.9154 13.744 31.9437ZM15.6208 31.9437Q15.6208 31.9754 15.5996 31.9948Q15.5785 32.0142 15.5502 32.0142H14.2203Q14.1921 32.0142 14.1709 31.993Q14.1497 31.9719 14.1497 31.9437V29.6153Q14.1497 29.5871 14.1709 29.5659Q14.1921 29.5448 14.2203 29.5448H15.5502Q15.5785 29.5448 15.5996 29.5659Q15.6208 29.5871 15.6208 29.6153Q15.6208 29.6471 15.5996 29.6665Q15.5785 29.6859 15.5502 29.6859H14.2979V30.6701H15.3915Q15.4197 30.6701 15.4409 30.6913Q15.4621 30.7125 15.4621 30.7407Q15.4621 30.7724 15.4409 30.7918Q15.4197 30.8112 15.3915 30.8112H14.2979V31.8731H15.5502Q15.5785 31.8731 15.5996 31.8943Q15.6208 31.9154 15.6208 31.9437Z" style="stroke:#000000;stroke-width:0.25;stroke-linecap:round;stroke-linejoin:bevel" />
        <path d="M 10.16,40.00 L 5.16,51.00 z L 15.16,51.00 z " style="stroke:#000000;stroke-width:0.1;stroke-linecap:round;stroke-linejoin:bevel;stroke-dasharray:none" />
        <path d="M4.82546 89.1465Q4.8431 89.1712 4.8431 89.1889Q4.8431 89.2206 4.82193 89.24Q4.80076 89.2594 4.76901 89.2594Q4.73021 89.2594 4.71257 89.2312L3.90471 88.1305L3.10038 89.2312Q3.08274 89.2594 3.04746 89.2594Q3.01571 89.2594 2.99807 89.24Q2.98043 89.2206 2.98043 89.1994Q2.98043 89.1818 2.99807 89.1536L3.8271 88.0212L2.99101 86.8817Q2.9769 86.8641 2.9769 86.8394Q2.9769 86.8076 2.99807 86.7882Q3.01924 86.7688 3.04746 86.7688Q3.08979 86.7688 3.10743 86.797L3.91529 87.9012L4.71963 86.7935Q4.74079 86.7653 4.77254 86.7653Q4.80429 86.7653 4.82369 86.7812Q4.8431 86.797 4.8431 86.8217Q4.8431 86.8464 4.82546 86.8711L3.99643 88.0141Z" style="stroke:#000000;stroke-width:0.25;stroke-linecap:round;stroke-linejoin:bevel" />
        <path d="M4.79018 95.8782 3.98585 96.9718V98.1783Q3.98585 98.2065 3.96468 98.2277Q3.94351 98.2488 3.91176 98.2488Q3.88001 98.2488 3.85885 98.2277Q3.83768 98.2065 3.83768 98.1783V96.9859L3.02982 95.8782Q3.01571 95.8605 3.01571 95.8323Q3.01571 95.8076 3.03864 95.7864Q3.06157 95.7653 3.08979 95.7653Q3.1286 95.7653 3.14976 95.797L3.91176 96.8377L4.67376 95.797Q4.69493 95.7653 4.73374 95.7653Q4.76549 95.7653 4.78489 95.7882Q4.80429 95.8111 4.80429 95.8323Q4.80429 95.8499 4.79018 95.8782Z" style="stroke:#000000;stroke-width:0.25;stroke-linecap:round;stroke-linejoin:bevel" />
        <path d="M4.86426 107.182Q4.86426 107.21 4.8431 107.229Q4.82193 107.249 4.79371 107.249H3.05804Q3.02629 107.249 3.00689 107.226Q2.98749 107.203 2.98749 107.175Q2.98749 107.15 3.0016 107.132L4.66671 104.913H3.1286Q3.10038 104.913 3.07921 104.894Q3.05804 104.875 3.05804 104.846Q3.05804 104.818 3.07921 104.799Q3.10038 104.779 3.1286 104.779H4.78665Q4.82899 104.779 4.84839 104.801Q4.86779 104.822 4.86779 104.85Q4.86779 104.875 4.85368 104.892L3.1921 107.115H4.79371Q4.82193 107.115 4.8431 107.136Q4.86426 107.157 4.86426 107.182Z" style="stroke:#000000;stroke-width:0.25;stroke-linecap:round;stroke-linejoin:bevel" />
        <path d="M4.799 114.453Q4.799 114.651 4.7161 114.811Q4.63319 114.972 4.4815 115.062Q4.32981 115.152 4.13225 115.152H3.36319V116.178Q3.36319 116.207 3.34026 116.228Q3.31733 116.249 3.28911 116.249Q3.25736 116.249 3.23619 116.228Q3.21503 116.207 3.21503 116.178V113.85Q3.21503 113.822 3.23619 113.801Q3.25736 113.779 3.28558 113.779H4.13225Q4.43211 113.779 4.61556 113.966Q4.799 114.153 4.799 114.453ZM4.65083 114.453Q4.65083 114.21 4.51149 114.065Q4.37214 113.921 4.13225 113.921H3.36319V115.011H4.13225Q4.36861 115.011 4.50972 114.854Q4.65083 114.697 4.65083 114.453Z" style="stroke:#000000;stroke-width:0.25;stroke-linecap:round;stroke-linejoin:bevel" />
        <g id="ControlLayer" style="display:none;">
            <circle id="a_input" cx="10.16" cy="22" r="1" />
            <circle id="x_output" cx="10.16" cy="88" r="1" />
            <circle id="y_output" cx="10.16" cy="97" r="1" />
            <circle id="z_output" cx="10.16" cy="106" r="1" />
            <circle id="c_output" cx="10.16" cy="115" r="1" />
            <circle id="angle_knob" cx="10.16" cy="40" r="1" />
            <circle id="angle_atten" cx="5.16" cy="51" r="1" />
            <circle id="angle_cv" cx="15.16" cy="51" r="1" />
        </g>
    </g>
</svg>
