<?xml version="1.0" encoding="utf-8"?>
<svg xmlns="http://www.w3.org/2000/svg" width="81.28mm" height="128.50mm" viewBox="0 0 81.28 128.50">
    <g id="labels" style="stroke:#000000;stroke-width:0.25;stroke-linecap:round;stroke-linejoin:bevel">
        <path d="M34.5528 75.5404Q34.5528 75.5687 34.5387 75.5863Q34.5175 75.6145 34.4858 75.6145Q34.4717 75.6145 34.4435 75.6004Q34.1154 75.3782 33.7485 75.3782Q33.4522 75.3782 33.2034 75.5246Q32.9547 75.671 32.8101 75.9303Q32.6655 76.1896 32.6655 76.5141Q32.6655 76.8387 32.8101 77.098Q32.9547 77.3573 33.2034 77.5037Q33.4522 77.6501 33.7485 77.6501Q34.1189 77.6501 34.4399 77.4313Q34.4576 77.4172 34.4823 77.4172Q34.5175 77.4172 34.5387 77.4454Q34.5528 77.4631 34.5528 77.4878Q34.5528 77.5231 34.5246 77.5442Q34.387 77.643 34.1701 77.7136Q33.9531 77.7841 33.7485 77.7841Q33.4133 77.7841 33.1311 77.6183Q32.8489 77.4525 32.6831 77.1615Q32.5173 76.8704 32.5173 76.5141Q32.5173 76.1578 32.6831 75.8668Q32.8489 75.5757 33.1311 75.4099Q33.4133 75.2441 33.7485 75.2441Q33.9602 75.2441 34.1595 75.3076Q34.3588 75.3711 34.5211 75.484Q34.5528 75.5087 34.5528 75.5404ZM36.031 77.7841Q35.6888 77.7841 35.4207 77.6236Q35.1525 77.4631 35.0026 77.1738Q34.8527 76.8845 34.8527 76.5141Q34.8527 76.1437 35.0026 75.8544Q35.1525 75.5651 35.4207 75.4046Q35.6888 75.2441 36.031 75.2441Q36.3732 75.2441 36.6413 75.4046Q36.9094 75.5651 37.0593 75.8544Q37.2092 76.1437 37.2092 76.5141Q37.2092 76.8845 37.0593 77.1738Q36.9094 77.4631 36.6413 77.6236Q36.3732 77.7841 36.031 77.7841ZM36.031 75.3852Q35.7311 75.3852 35.4965 75.5263Q35.2619 75.6674 35.1314 75.925Q35.0008 76.1825 35.0008 76.5141Q35.0008 76.8457 35.1314 77.1033Q35.2619 77.3608 35.4965 77.5019Q35.7311 77.643 36.031 77.643Q36.3308 77.643 36.5654 77.5019Q36.8 77.3608 36.9305 77.1033Q37.0611 76.8457 37.0611 76.5141Q37.0611 76.1825 36.9305 75.925Q36.8 75.6674 36.5654 75.5263Q36.3308 75.3852 36.031 75.3852ZM39.5905 75.3464V77.6712Q39.5905 77.71 39.5693 77.7294Q39.5482 77.7488 39.5164 77.7488Q39.4811 77.7488 39.46 77.7206L37.8725 75.551V77.6889Q37.8725 77.7136 37.8531 77.7312Q37.8337 77.7488 37.8054 77.7488Q37.7737 77.7488 37.756 77.7312Q37.7384 77.7136 37.7384 77.6889V75.3499Q37.7384 75.3147 37.7578 75.297Q37.7772 75.2794 37.8019 75.2794Q37.8337 75.2794 37.8548 75.3041L39.4564 77.4878V75.3464Q39.4564 75.3182 39.4758 75.2988Q39.4952 75.2794 39.5235 75.2794Q39.5552 75.2794 39.5728 75.2988Q39.5905 75.3182 39.5905 75.3464ZM41.9223 75.3464Q41.9223 75.3782 41.9029 75.3958Q41.8835 75.4134 41.8518 75.4134H41.0651V77.6783Q41.0651 77.7065 41.0439 77.7277Q41.0228 77.7488 40.9945 77.7488Q40.9628 77.7488 40.9434 77.7277Q40.924 77.7065 40.924 77.6783V75.4134H40.1373Q40.1091 75.4134 40.0879 75.394Q40.0667 75.3746 40.0667 75.3464Q40.0667 75.3182 40.0879 75.2988Q40.1091 75.2794 40.1373 75.2794H41.8518Q41.88 75.2794 41.9012 75.2988Q41.9223 75.3182 41.9223 75.3464ZM44.1942 77.6748Q44.1942 77.7065 44.1748 77.7259Q44.1554 77.7453 44.1272 77.7453Q44.106 77.7453 44.0955 77.7383Q44.0002 77.6853 43.9438 77.5601Q43.8873 77.4349 43.8873 77.1491Q43.8873 76.8598 43.7321 76.7522Q43.5769 76.6446 43.3723 76.6446H42.5468V77.6783Q42.5468 77.7065 42.5256 77.7277Q42.5044 77.7488 42.4727 77.7488Q42.4409 77.7488 42.4198 77.7277Q42.3986 77.7065 42.3986 77.6783V75.3499Q42.3986 75.3217 42.4198 75.3006Q42.4409 75.2794 42.4692 75.2794H43.4005Q43.6051 75.2794 43.7638 75.3623Q43.9226 75.4452 44.0108 75.5898Q44.099 75.7345 44.099 75.9179Q44.099 76.1543 43.9737 76.3236Q43.8485 76.4929 43.6474 76.5529Q43.8168 76.6058 43.9261 76.7628Q44.0355 76.9198 44.0355 77.1491Q44.0355 77.3855 44.0655 77.479Q44.0955 77.5724 44.1554 77.6112Q44.1942 77.6359 44.1942 77.6748ZM43.4181 76.5035Q43.6404 76.4824 43.7956 76.3271Q43.9508 76.1719 43.9508 75.9214Q43.9508 75.7027 43.7956 75.5616Q43.6404 75.4205 43.3828 75.4205H42.5468V76.5035ZM45.7429 77.7841Q45.4007 77.7841 45.1326 77.6236Q44.8645 77.4631 44.7146 77.1738Q44.5647 76.8845 44.5647 76.5141Q44.5647 76.1437 44.7146 75.8544Q44.8645 75.5651 45.1326 75.4046Q45.4007 75.2441 45.7429 75.2441Q46.0851 75.2441 46.3532 75.4046Q46.6213 75.5651 46.7713 75.8544Q46.9212 76.1437 46.9212 76.5141Q46.9212 76.8845 46.7713 77.1738Q46.6213 77.4631 46.3532 77.6236Q46.0851 77.7841 45.7429 77.7841ZM45.7429 75.3852Q45.4431 75.3852 45.2085 75.5263Q44.9739 75.6674 44.8433 75.925Q44.7128 76.1825 44.7128 76.5141Q44.7128 76.8457 44.8433 77.1033Q44.9739 77.3608 45.2085 77.5019Q45.4431 77.643 45.7429 77.643Q46.0428 77.643 46.2774 77.5019Q46.512 77.3608 46.6425 77.1033Q46.773 76.8457 46.773 76.5141Q46.773 76.1825 46.6425 75.925Q46.512 75.6674 46.2774 75.5263Q46.0428 75.3852 45.7429 75.3852ZM48.8862 77.6783Q48.8862 77.71 48.865 77.7294Q48.8438 77.7488 48.8156 77.7488H47.5209Q47.4892 77.7488 47.4698 77.7277Q47.4504 77.7065 47.4504 77.6783V75.3499Q47.4504 75.3217 47.4715 75.3006Q47.4927 75.2794 47.5245 75.2794Q47.5562 75.2794 47.5774 75.3006Q47.5985 75.3217 47.5985 75.3499V77.6077H48.8156Q48.8438 77.6077 48.865 77.6289Q48.8862 77.6501 48.8862 77.6783Z" />
    </g>
</svg>
