<?xml version="1.0" encoding="utf-8"?>
<svg xmlns="http://www.w3.org/2000/svg" width="81.28mm" height="128.50mm" viewBox="0 0 81.28 128.50">
    <g id="labels" style="stroke:#000000;stroke-width:0.25;stroke-linecap:round;stroke-linejoin:bevel">
        <path d="M37.3486 77.6818Q37.3486 77.7136 37.3274 77.7312Q37.3062 77.7488 37.2745 77.7488Q37.2498 77.7488 37.2304 77.7365Q37.211 77.7241 37.2039 77.703L36.9076 76.9763L36.9111 76.9833H35.7293L35.4436 77.703Q35.4259 77.7488 35.3801 77.7488Q35.3483 77.7488 35.3289 77.7312Q35.3095 77.7136 35.306 77.6889Q35.3025 77.6748 35.3095 77.6536L36.2585 75.3182Q36.2691 75.29 36.285 75.2812Q36.3008 75.2723 36.3255 75.2723Q36.3784 75.2723 36.3961 75.3182L37.3451 77.6536Q37.3486 77.6642 37.3486 77.6818ZM35.7858 76.8422H36.8547L36.3149 75.5122ZM39.6416 75.3499V76.8739Q39.6416 77.1209 39.5182 77.329Q39.3947 77.5372 39.1866 77.6606Q38.9784 77.7841 38.735 77.7841Q38.4881 77.7841 38.2799 77.6606Q38.0718 77.5372 37.9483 77.329Q37.8248 77.1209 37.8248 76.8739V75.3499Q37.8248 75.3182 37.846 75.2988Q37.8672 75.2794 37.8989 75.2794Q37.9307 75.2794 37.9518 75.3006Q37.973 75.3217 37.973 75.3499V76.8739Q37.973 77.0821 38.0753 77.2585Q38.1776 77.4349 38.3522 77.5389Q38.5269 77.643 38.735 77.643Q38.9431 77.643 39.1178 77.5389Q39.2924 77.4349 39.3965 77.2585Q39.5005 77.0821 39.5005 76.8739V75.3499Q39.5005 75.3217 39.5199 75.3006Q39.5393 75.2794 39.5711 75.2794Q39.6028 75.2794 39.6222 75.3006Q39.6416 75.3217 39.6416 75.3499ZM42.358 76.5141Q42.358 76.8634 42.2469 77.1421Q42.1358 77.4207 41.9065 77.5848Q41.6772 77.7488 41.335 77.7488H40.4177Q40.3895 77.7488 40.3684 77.7277Q40.3472 77.7065 40.3472 77.6783V75.3499Q40.3472 75.3217 40.3684 75.3006Q40.3895 75.2794 40.4177 75.2794H41.335Q41.6736 75.2794 41.9047 75.4487Q42.1358 75.6181 42.2469 75.8985Q42.358 76.179 42.358 76.5141ZM42.2099 76.5141Q42.2099 76.2143 42.1128 75.9655Q42.0158 75.7168 41.813 75.5687Q41.6101 75.4205 41.2997 75.4205H40.4954V77.6077H41.2997Q41.7583 77.6077 41.9841 77.3061Q42.2099 77.0045 42.2099 76.5141ZM42.9613 77.7488Q42.926 77.7488 42.9066 77.7277Q42.8872 77.7065 42.8872 77.6748V75.3535Q42.8872 75.3217 42.9084 75.3006Q42.9295 75.2794 42.9613 75.2794Q42.993 75.2794 43.0142 75.3006Q43.0354 75.3217 43.0354 75.3535V77.6748Q43.0318 77.7065 43.0107 77.7277Q42.9895 77.7488 42.9613 77.7488ZM44.7428 77.7841Q44.4006 77.7841 44.1325 77.6236Q43.8644 77.4631 43.7145 77.1738Q43.5645 76.8845 43.5645 76.5141Q43.5645 76.1437 43.7145 75.8544Q43.8644 75.5651 44.1325 75.4046Q44.4006 75.2441 44.7428 75.2441Q45.085 75.2441 45.3531 75.4046Q45.6212 75.5651 45.7712 75.8544Q45.9211 76.1437 45.9211 76.5141Q45.9211 76.8845 45.7712 77.1738Q45.6212 77.4631 45.3531 77.6236Q45.085 77.7841 44.7428 77.7841ZM44.7428 75.3852Q44.4429 75.3852 44.2083 75.5263Q43.9738 75.6674 43.8432 75.925Q43.7127 76.1825 43.7127 76.5141Q43.7127 76.8457 43.8432 77.1033Q43.9738 77.3608 44.2083 77.5019Q44.4429 77.643 44.7428 77.643Q45.0427 77.643 45.2773 77.5019Q45.5119 77.3608 45.6424 77.1033Q45.7729 76.8457 45.7729 76.5141Q45.7729 76.1825 45.6424 75.925Q45.5119 75.6674 45.2773 75.5263Q45.0427 75.3852 44.7428 75.3852Z" />
    </g>
</svg>
