<?xml version="1.0" encoding="utf-8"?>
<svg xmlns="http://www.w3.org/2000/svg" width="81.28mm" height="128.50mm" viewBox="0 0 81.28 128.50">
    <g id="labels" style="stroke:#000000;stroke-width:0.25;stroke-linecap:round;stroke-linejoin:bevel">
        <path d="M9.55282 58.5404Q9.55282 58.5687 9.53871 58.5863Q9.51754 58.6145 9.48579 58.6145Q9.47168 58.6145 9.44346 58.6004Q9.11538 58.3782 8.74849 58.3782Q8.45215 58.3782 8.20344 58.5246Q7.95474 58.671 7.8101 58.9303Q7.66546 59.1896 7.66546 59.5141Q7.66546 59.8387 7.8101 60.098Q7.95474 60.3572 8.20344 60.5037Q8.45215 60.6501 8.74849 60.6501Q9.1189 60.6501 9.43993 60.4313Q9.45757 60.4172 9.48226 60.4172Q9.51754 60.4172 9.53871 60.4454Q9.55282 60.4631 9.55282 60.4878Q9.55282 60.5231 9.5246 60.5442Q9.38701 60.643 9.17006 60.7136Q8.9531 60.7841 8.74849 60.7841Q8.41335 60.7841 8.13113 60.6183Q7.8489 60.4525 7.6831 60.1615Q7.51729 59.8704 7.51729 59.5141Q7.51729 59.1578 7.6831 58.8668Q7.8489 58.5757 8.13113 58.4099Q8.41335 58.2441 8.74849 58.2441Q8.96015 58.2441 9.15947 58.3076Q9.35879 58.3711 9.52107 58.484Q9.55282 58.5087 9.55282 58.5404ZM11.031 60.7841Q10.6888 60.7841 10.4207 60.6236Q10.1525 60.4631 10.0026 60.1738Q9.85268 59.8845 9.85268 59.5141Q9.85268 59.1437 10.0026 58.8544Q10.1525 58.5651 10.4207 58.4046Q10.6888 58.2441 11.031 58.2441Q11.3732 58.2441 11.6413 58.4046Q11.9094 58.5651 12.0593 58.8544Q12.2092 59.1437 12.2092 59.5141Q12.2092 59.8845 12.0593 60.1738Q11.9094 60.4631 11.6413 60.6236Q11.3732 60.7841 11.031 60.7841ZM11.031 58.3852Q10.7311 58.3852 10.4965 58.5263Q10.2619 58.6674 10.1314 58.925Q10.0008 59.1825 10.0008 59.5141Q10.0008 59.8457 10.1314 60.1033Q10.2619 60.3608 10.4965 60.5019Q10.7311 60.643 11.031 60.643Q11.3308 60.643 11.5654 60.5019Q11.8 60.3608 11.9305 60.1033Q12.0611 59.8457 12.0611 59.5141Q12.0611 59.1825 11.9305 58.925Q11.8 58.6674 11.5654 58.5263Q11.3308 58.3852 11.031 58.3852ZM14.5905 58.3464V60.6712Q14.5905 60.71 14.5693 60.7294Q14.5482 60.7488 14.5164 60.7488Q14.4811 60.7488 14.46 60.7206L12.8725 58.551V60.6889Q12.8725 60.7136 12.8531 60.7312Q12.8337 60.7488 12.8054 60.7488Q12.7737 60.7488 12.756 60.7312Q12.7384 60.7136 12.7384 60.6889V58.3499Q12.7384 58.3147 12.7578 58.297Q12.7772 58.2794 12.8019 58.2794Q12.8337 58.2794 12.8548 58.3041L14.4564 60.4878V58.3464Q14.4564 58.3182 14.4758 58.2988Q14.4952 58.2794 14.5235 58.2794Q14.5552 58.2794 14.5728 58.2988Q14.5905 58.3182 14.5905 58.3464ZM16.9223 58.3464Q16.9223 58.3782 16.9029 58.3958Q16.8835 58.4134 16.8518 58.4134H16.0651V60.6783Q16.0651 60.7065 16.0439 60.7277Q16.0228 60.7488 15.9945 60.7488Q15.9628 60.7488 15.9434 60.7277Q15.924 60.7065 15.924 60.6783V58.4134H15.1373Q15.1091 58.4134 15.0879 58.394Q15.0667 58.3746 15.0667 58.3464Q15.0667 58.3182 15.0879 58.2988Q15.1091 58.2794 15.1373 58.2794H16.8518Q16.88 58.2794 16.9012 58.2988Q16.9223 58.3182 16.9223 58.3464ZM19.1942 60.6747Q19.1942 60.7065 19.1748 60.7259Q19.1554 60.7453 19.1272 60.7453Q19.106 60.7453 19.0955 60.7382Q19.0002 60.6853 18.9438 60.5601Q18.8873 60.4349 18.8873 60.1491Q18.8873 59.8598 18.7321 59.7522Q18.5769 59.6446 18.3723 59.6446H17.5468V60.6783Q17.5468 60.7065 17.5256 60.7277Q17.5044 60.7488 17.4727 60.7488Q17.4409 60.7488 17.4198 60.7277Q17.3986 60.7065 17.3986 60.6783V58.3499Q17.3986 58.3217 17.4198 58.3006Q17.4409 58.2794 17.4692 58.2794H18.4005Q18.6051 58.2794 18.7638 58.3623Q18.9226 58.4452 19.0108 58.5898Q19.099 58.7345 19.099 58.9179Q19.099 59.1543 18.9737 59.3236Q18.8485 59.4929 18.6474 59.5529Q18.8168 59.6058 18.9261 59.7628Q19.0355 59.9198 19.0355 60.1491Q19.0355 60.3855 19.0655 60.479Q19.0955 60.5724 19.1554 60.6112Q19.1942 60.6359 19.1942 60.6747ZM18.4181 59.5035Q18.6404 59.4824 18.7956 59.3271Q18.9508 59.1719 18.9508 58.9214Q18.9508 58.7027 18.7956 58.5616Q18.6404 58.4205 18.3828 58.4205H17.5468V59.5035ZM20.7429 60.7841Q20.4007 60.7841 20.1326 60.6236Q19.8645 60.4631 19.7146 60.1738Q19.5647 59.8845 19.5647 59.5141Q19.5647 59.1437 19.7146 58.8544Q19.8645 58.5651 20.1326 58.4046Q20.4007 58.2441 20.7429 58.2441Q21.0851 58.2441 21.3532 58.4046Q21.6213 58.5651 21.7713 58.8544Q21.9212 59.1437 21.9212 59.5141Q21.9212 59.8845 21.7713 60.1738Q21.6213 60.4631 21.3532 60.6236Q21.0851 60.7841 20.7429 60.7841ZM20.7429 58.3852Q20.4431 58.3852 20.2085 58.5263Q19.9739 58.6674 19.8433 58.925Q19.7128 59.1825 19.7128 59.5141Q19.7128 59.8457 19.8433 60.1033Q19.9739 60.3608 20.2085 60.5019Q20.4431 60.643 20.7429 60.643Q21.0428 60.643 21.2774 60.5019Q21.512 60.3608 21.6425 60.1033Q21.773 59.8457 21.773 59.5141Q21.773 59.1825 21.6425 58.925Q21.512 58.6674 21.2774 58.5263Q21.0428 58.3852 20.7429 58.3852ZM23.8862 60.6783Q23.8862 60.71 23.865 60.7294Q23.8438 60.7488 23.8156 60.7488H22.5209Q22.4892 60.7488 22.4698 60.7277Q22.4504 60.7065 22.4504 60.6783V58.3499Q22.4504 58.3217 22.4715 58.3006Q22.4927 58.2794 22.5245 58.2794Q22.5562 58.2794 22.5774 58.3006Q22.5985 58.3217 22.5985 58.3499V60.6077H23.8156Q23.8438 60.6077 23.865 60.6289Q23.8862 60.6501 23.8862 60.6783Z" />
    </g>
</svg>
