<?xml version="1.0" encoding="utf-8"?>
<svg xmlns="http://www.w3.org/2000/svg" width="81.28mm" height="128.50mm" viewBox="0 0 81.28 128.50">
    <g id="labels" style="stroke:#000000;stroke-width:0.25;stroke-linecap:round;stroke-linejoin:bevel">
        <path d="M12.3486 60.6818Q12.3486 60.7136 12.3274 60.7312Q12.3063 60.7488 12.2745 60.7488Q12.2498 60.7488 12.2304 60.7365Q12.211 60.7241 12.2039 60.703L11.9076 59.9763L11.9111 59.9833H10.7293L10.4436 60.703Q10.4259 60.7488 10.3801 60.7488Q10.3483 60.7488 10.3289 60.7312Q10.3095 60.7136 10.306 60.6889Q10.3025 60.6747 10.3095 60.6536L11.2585 58.3182Q11.2691 58.29 11.285 58.2812Q11.3008 58.2723 11.3255 58.2723Q11.3784 58.2723 11.3961 58.3182L12.3451 60.6536Q12.3486 60.6642 12.3486 60.6818ZM10.7858 59.8422H11.8547L11.3149 58.5122ZM14.6416 58.3499V59.8739Q14.6416 60.1209 14.5182 60.329Q14.3947 60.5372 14.1866 60.6606Q13.9784 60.7841 13.735 60.7841Q13.4881 60.7841 13.2799 60.6606Q13.0718 60.5372 12.9483 60.329Q12.8248 60.1209 12.8248 59.8739V58.3499Q12.8248 58.3182 12.846 58.2988Q12.8672 58.2794 12.8989 58.2794Q12.9307 58.2794 12.9518 58.3006Q12.973 58.3217 12.973 58.3499V59.8739Q12.973 60.0821 13.0753 60.2585Q13.1776 60.4349 13.3522 60.5389Q13.5269 60.643 13.735 60.643Q13.9431 60.643 14.1178 60.5389Q14.2924 60.4349 14.3965 60.2585Q14.5005 60.0821 14.5005 59.8739V58.3499Q14.5005 58.3217 14.5199 58.3006Q14.5393 58.2794 14.5711 58.2794Q14.6028 58.2794 14.6222 58.3006Q14.6416 58.3217 14.6416 58.3499ZM17.358 59.5141Q17.358 59.8634 17.2469 60.1421Q17.1358 60.4207 16.9065 60.5848Q16.6772 60.7488 16.335 60.7488H15.4178Q15.3895 60.7488 15.3684 60.7277Q15.3472 60.7065 15.3472 60.6783V58.3499Q15.3472 58.3217 15.3684 58.3006Q15.3895 58.2794 15.4178 58.2794H16.335Q16.6736 58.2794 16.9047 58.4487Q17.1358 58.6181 17.2469 58.8985Q17.358 59.179 17.358 59.5141ZM17.2099 59.5141Q17.2099 59.2142 17.1128 58.9655Q17.0158 58.7168 16.813 58.5687Q16.6101 58.4205 16.2997 58.4205H15.4954V60.6077H16.2997Q16.7583 60.6077 16.9841 60.3061Q17.2099 60.0045 17.2099 59.5141ZM17.9613 60.7488Q17.926 60.7488 17.9066 60.7277Q17.8872 60.7065 17.8872 60.6747V58.3535Q17.8872 58.3217 17.9084 58.3006Q17.9295 58.2794 17.9613 58.2794Q17.993 58.2794 18.0142 58.3006Q18.0354 58.3217 18.0354 58.3535V60.6747Q18.0318 60.7065 18.0107 60.7277Q17.9895 60.7488 17.9613 60.7488ZM19.7428 60.7841Q19.4006 60.7841 19.1325 60.6236Q18.8644 60.4631 18.7145 60.1738Q18.5645 59.8845 18.5645 59.5141Q18.5645 59.1437 18.7145 58.8544Q18.8644 58.5651 19.1325 58.4046Q19.4006 58.2441 19.7428 58.2441Q20.085 58.2441 20.3531 58.4046Q20.6212 58.5651 20.7712 58.8544Q20.9211 59.1437 20.9211 59.5141Q20.9211 59.8845 20.7712 60.1738Q20.6212 60.4631 20.3531 60.6236Q20.085 60.7841 19.7428 60.7841ZM19.7428 58.3852Q19.4429 58.3852 19.2083 58.5263Q18.9737 58.6674 18.8432 58.925Q18.7127 59.1825 18.7127 59.5141Q18.7127 59.8457 18.8432 60.1033Q18.9737 60.3608 19.2083 60.5019Q19.4429 60.643 19.7428 60.643Q20.0427 60.643 20.2773 60.5019Q20.5119 60.3608 20.6424 60.1033Q20.7729 59.8457 20.7729 59.5141Q20.7729 59.1825 20.6424 58.925Q20.5119 58.6674 20.2773 58.5263Q20.0427 58.3852 19.7428 58.3852Z" />
    </g>
</svg>
