<?xml version="1.0" encoding="utf-8"?>
<svg xmlns="http://www.w3.org/2000/svg" width="81.28mm" height="128.50mm" viewBox="0 0 81.28 128.50">
    <defs>
        <linearGradient id="gradient_controls" x1="10" y1="0" x2="67.2" y2="0" gradientUnits="userSpaceOnUse">
            <stop offset="0" style="stop-color:#4f8df2;stop-opacity:1;" />
            <stop offset="1" style="stop-color:#b242bd;stop-opacity:1;" />
        </linearGradient>
        <linearGradient id="gradient_input" x1="10" y1="0" x2="67.2" y2="0" gradientUnits="userSpaceOnUse">
            <stop offset="0" style="stop-color:#3068ff;stop-opacity:1;" />
            <stop offset="1" style="stop-color:#4f8df2;stop-opacity:1;" />
        </linearGradient>
        <linearGradient id="gradient_output" x1="10" y1="0" x2="67.2" y2="0" gradientUnits="userSpaceOnUse">
            <stop offset="0" style="stop-color:#4f8df2;stop-opacity:1;" />
            <stop offset="1" style="stop-color:#b9818b;stop-opacity:1;" />
        </linearGradient>
    </defs>
    <g id="PanelLayer">
        <rect id="border_rect" width="81.28" height="128.5" x="0" y="0" style="display:inline;fill:#4f8df2;fill-opacity:1;fill-rule:nonzero;stroke:#5021d4;stroke-width:0.7;stroke-linecap:round;stroke-linejoin:round;stroke-dasharray:none;stroke-opacity:1;image-rendering:auto" />
        <path id="model_name" d="M23.9226 6.21098Q23.9226 6.76978 23.6859 7.22381Q23.4491 7.67783 23.0378 7.93783Q22.6265 8.19782 22.122 8.19782Q21.6563 8.19782 21.2683 7.96499Q20.8802 7.73216 20.6319 7.3053V9.54826Q20.6319 9.61035 20.5892 9.65691Q20.5465 9.70348 20.4766 9.70348Q20.4145 9.70348 20.368 9.65691Q20.3214 9.61035 20.3214 9.54826V4.38712Q20.3214 4.32503 20.3641 4.27846Q20.4068 4.2319 20.4766 4.2319Q20.5465 4.2319 20.5892 4.27846Q20.6319 4.32503 20.6319 4.38712V5.10114Q20.8647 4.65876 21.2527 4.44533Q21.6408 4.2319 22.122 4.2319Q22.6342 4.2319 23.0456 4.48801Q23.4569 4.74413 23.6897 5.19428Q23.9226 5.64442 23.9226 6.21098ZM23.6121 6.21098Q23.6121 5.72979 23.4142 5.34562Q23.2163 4.96144 22.8748 4.74413Q22.5333 4.52682 22.1065 4.52682Q21.6718 4.52682 21.3265 4.74025Q20.9811 4.95368 20.791 5.33786Q20.6008 5.72203 20.6008 6.21098Q20.6008 6.69993 20.791 7.08411Q20.9811 7.46828 21.3265 7.68559Q21.6718 7.9029 22.1065 7.9029Q22.5333 7.9029 22.8748 7.68559Q23.2163 7.46828 23.4142 7.08022Q23.6121 6.69217 23.6121 6.21098ZM26.5846 8.22887Q26.0491 8.22887 25.6106 7.96111Q25.1721 7.69335 24.9199 7.22769Q24.6676 6.76202 24.6676 6.19546Q24.6676 5.62114 24.9199 5.15547Q25.1721 4.6898 25.6067 4.42204Q26.0414 4.15429 26.5846 4.15429Q27.1201 4.15429 27.5586 4.42204Q27.9972 4.6898 28.2455 5.15547Q28.4939 5.62114 28.4939 6.19546Q28.4939 6.76978 28.2455 7.23157Q27.9972 7.69335 27.5586 7.96111Q27.1201 8.22887 26.5846 8.22887ZM26.5846 4.44921Q26.1345 4.44921 25.7658 4.67816Q25.3972 4.90711 25.1876 5.30293Q24.9781 5.69875 24.9781 6.19546Q24.9781 6.68441 25.1876 7.08022Q25.3972 7.47604 25.7658 7.70499Q26.1345 7.93395 26.5846 7.93395Q27.0425 7.93395 27.4073 7.70887Q27.7721 7.4838 27.9777 7.08411Q28.1834 6.68441 28.1834 6.19546Q28.1834 5.69875 27.9777 5.30293Q27.7721 4.90711 27.4073 4.67816Q27.0425 4.44921 26.5846 4.44921ZM29.7046 8.15126Q29.6347 8.15126 29.5921 8.10469Q29.5494 8.05812 29.5494 7.99604V2.56326Q29.5494 2.50117 29.5959 2.4546Q29.6425 2.40804 29.7046 2.40804Q29.7744 2.40804 29.8171 2.4546Q29.8598 2.50117 29.8598 2.56326V7.99604Q29.8598 8.05812 29.8133 8.10469Q29.7667 8.15126 29.7046 8.15126ZM34.2604 4.30951V7.77096Q34.2604 8.35305 34.0237 8.79155Q33.7869 9.23005 33.3717 9.46677Q32.9565 9.70348 32.4287 9.70348Q32.0873 9.70348 31.804 9.62199Q31.5207 9.5405 31.3267 9.40856Q31.187 9.31542 31.2413 9.19901Q31.2956 9.10587 31.3732 9.10587Q31.412 9.10587 31.4431 9.12916Q31.6294 9.24557 31.8893 9.33483Q32.1493 9.42408 32.4443 9.42408Q32.8867 9.42408 33.2281 9.21453Q33.5696 9.00498 33.7598 8.62857Q33.9499 8.25215 33.9499 7.77096V7.42171Q33.7714 7.77096 33.3795 7.99992Q32.9875 8.22887 32.5684 8.22887Q31.8699 8.22887 31.5285 7.82917Q31.187 7.42948 31.187 6.73097V4.30951Q31.187 4.24742 31.2297 4.20085Q31.2723 4.15429 31.3422 4.15429Q31.412 4.15429 31.4547 4.20085Q31.4974 4.24742 31.4974 4.30951V6.73097Q31.4974 7.93395 32.5684 7.93395Q32.9022 7.93395 33.2243 7.75932Q33.5463 7.5847 33.7481 7.3053Q33.9499 7.0259 33.9499 6.73097V4.30951Q33.9499 4.24742 33.9926 4.20085Q34.0353 4.15429 34.1051 4.15429Q34.175 4.15429 34.2177 4.20085Q34.2604 4.24742 34.2604 4.30951ZM38.6997 5.62114V7.99604Q38.6997 8.05812 38.6532 8.10469Q38.6066 8.15126 38.5445 8.15126Q38.4747 8.15126 38.432 8.10469Q38.3893 8.05812 38.3893 7.99604V5.65218Q38.3893 5.12443 38.1138 4.78682Q37.8382 4.44921 37.2794 4.44921Q36.938 4.44921 36.6081 4.61219Q36.2783 4.77517 36.0687 5.05457Q35.8592 5.33397 35.8592 5.65218V7.99604Q35.8592 8.05812 35.8126 8.10469Q35.766 8.15126 35.7039 8.15126Q35.6341 8.15126 35.5914 8.10469Q35.5487 8.05812 35.5487 7.99604V4.43369Q35.5487 4.3716 35.5953 4.32503Q35.6418 4.27846 35.7039 4.27846Q35.7738 4.27846 35.8165 4.32503Q35.8592 4.3716 35.8592 4.43369V4.95368Q36.0842 4.60443 36.4917 4.37936Q36.8991 4.15429 37.3105 4.15429Q38.0012 4.15429 38.3505 4.56174Q38.6997 4.9692 38.6997 5.62114ZM43.0692 4.43369V6.69217Q43.0692 7.42948 42.654 7.81365Q42.2388 8.19782 41.5248 8.19782Q40.8107 8.19782 40.3994 7.81365Q39.9881 7.42948 39.9881 6.69217V4.43369Q39.9881 4.3716 40.0346 4.32503Q40.0812 4.27846 40.1433 4.27846Q40.2131 4.27846 40.2558 4.32503Q40.2985 4.3716 40.2985 4.43369V6.69217Q40.2985 7.27425 40.6245 7.58858Q40.9504 7.9029 41.5248 7.9029Q42.1069 7.9029 42.4328 7.58858Q42.7588 7.27425 42.7588 6.69217V4.43369Q42.7588 4.3716 42.8015 4.32503Q42.8442 4.27846 42.914 4.27846Q42.9839 4.27846 43.0265 4.32503Q43.0692 4.3716 43.0692 4.43369ZM47.3844 4.70533Q47.3844 4.76741 47.3417 4.81398Q47.299 4.86055 47.2369 4.86055Q47.1671 4.86055 47.1322 4.83726Q47.0972 4.81398 47.0352 4.75189Q46.9343 4.63547 46.8256 4.58115Q46.5462 4.44921 46.034 4.44921Q45.5916 4.44921 45.2152 4.68204Q44.8388 4.91488 44.6176 5.31457Q44.3964 5.71427 44.3964 6.1877Q44.3964 6.68441 44.602 7.08411Q44.8077 7.4838 45.1841 7.70887Q45.5605 7.93395 46.034 7.93395Q46.3444 7.93395 46.5229 7.87962Q46.7014 7.82529 46.8799 7.7244Q47.0041 7.64679 47.0972 7.55365Q47.1361 7.51485 47.1749 7.48768Q47.2137 7.46052 47.2525 7.46052Q47.3146 7.46052 47.3495 7.49932Q47.3844 7.53813 47.3844 7.60022Q47.3844 7.70887 47.2059 7.86022Q47.0274 8.01156 46.7131 8.12021Q46.3987 8.22887 46.0107 8.22887Q45.4519 8.22887 45.0134 7.96499Q44.5749 7.70111 44.3304 7.23545Q44.0859 6.76978 44.0859 6.1877Q44.0859 5.64442 44.3304 5.17875Q44.5749 4.71309 45.0211 4.43369Q45.4674 4.15429 46.0417 4.15429Q46.3755 4.15429 46.6898 4.2319Q47.0041 4.30951 47.1943 4.43757Q47.3844 4.56562 47.3844 4.70533ZM48.5331 8.15126Q48.4632 8.15126 48.4205 8.10469Q48.3778 8.05812 48.3778 7.99604V2.56326Q48.3778 2.50117 48.4244 2.4546Q48.471 2.40804 48.5331 2.40804Q48.6029 2.40804 48.6456 2.4546Q48.6883 2.50117 48.6883 2.56326V7.99604Q48.6883 8.05812 48.6417 8.10469Q48.5951 8.15126 48.5331 8.15126ZM53.213 7.35962Q53.213 7.41395 53.182 7.45276Q52.9258 7.79425 52.5455 8.01156Q52.1653 8.22887 51.7306 8.22887Q51.1485 8.22887 50.6984 7.98051Q50.2483 7.73216 49.996 7.27425Q49.7438 6.81635 49.7438 6.21098Q49.7438 5.59009 49.9883 5.12054Q50.2327 4.651 50.6363 4.40264Q51.0399 4.15429 51.4978 4.15429Q51.9557 4.15429 52.3476 4.35219Q52.7396 4.5501 52.9879 4.94592Q53.2363 5.34174 53.2518 5.92382Q53.2518 5.98591 53.2052 6.03636Q53.1587 6.0868 53.0966 6.0868H50.0465V6.1877Q50.0465 6.66889 50.2405 7.06858Q50.4345 7.46828 50.8148 7.70111Q51.1951 7.93395 51.7306 7.93395Q52.1032 7.93395 52.433 7.75156Q52.7629 7.56917 52.9491 7.28977Q53.0035 7.21992 53.0811 7.21992Q53.1354 7.21992 53.1742 7.26261Q53.213 7.3053 53.213 7.35962ZM50.0775 5.79188H52.9336V5.72203Q52.8948 5.32621 52.6814 5.04293Q52.4679 4.75965 52.1536 4.61219Q51.8393 4.46473 51.4978 4.46473Q51.2106 4.46473 50.9118 4.61607Q50.613 4.76741 50.3841 5.06622Q50.1551 5.36502 50.0775 5.79188ZM57.3497 4.43369V6.69217Q57.3497 7.42948 56.9345 7.81365Q56.5192 8.19782 55.8052 8.19782Q55.0912 8.19782 54.6799 7.81365Q54.2685 7.42948 54.2685 6.69217V4.43369Q54.2685 4.3716 54.3151 4.32503Q54.3616 4.27846 54.4237 4.27846Q54.4936 4.27846 54.5363 4.32503Q54.579 4.3716 54.579 4.43369V6.69217Q54.579 7.27425 54.9049 7.58858Q55.2309 7.9029 55.8052 7.9029Q56.3873 7.9029 56.7133 7.58858Q57.0392 7.27425 57.0392 6.69217V4.43369Q57.0392 4.3716 57.0819 4.32503Q57.1246 4.27846 57.1945 4.27846Q57.2643 4.27846 57.307 4.32503Q57.3497 4.3716 57.3497 4.43369ZM58.3664 7.38291Q58.3664 7.32858 58.4285 7.28201Q58.4673 7.24321 58.5216 7.24321Q58.5992 7.24321 58.6458 7.3053Q59.0959 7.94947 59.9031 7.94947Q60.3144 7.94947 60.6249 7.7438Q60.9353 7.53813 60.9353 7.18888Q60.9353 6.83187 60.6637 6.65336Q60.392 6.47486 59.9186 6.35844Q59.29 6.20322 58.9291 5.94322Q58.5682 5.68323 58.5682 5.2098Q58.5682 4.75189 58.9329 4.45309Q59.2977 4.15429 59.872 4.15429Q60.1902 4.15429 60.5046 4.27846Q60.8189 4.40264 61.075 4.67428Q61.1293 4.72085 61.1293 4.78294Q61.1293 4.85279 61.075 4.90711Q61.0129 4.93816 60.9741 4.93816Q60.9198 4.93816 60.881 4.89159Q60.4774 4.44921 59.841 4.44921Q59.4297 4.44921 59.1464 4.651Q58.8631 4.85279 58.8631 5.2098Q58.8864 5.54352 59.1697 5.72591Q59.4529 5.9083 60.004 6.048Q60.3998 6.14889 60.6598 6.26919Q60.9198 6.38949 61.075 6.6068Q61.2302 6.82411 61.2302 7.17336Q61.2302 7.66231 60.8538 7.94559Q60.4774 8.22887 59.872 8.22887Q58.9873 8.22887 58.4207 7.53037Q58.3664 7.445 58.3664 7.38291Z" style="display:inline;stroke:#000000;stroke-width:0.35;stroke-linecap:round;stroke-linejoin:bevel" />
        <g id="sapphire_insignia">
            <path id="brand_name" d="M25.7464 124.775Q25.7464 124.721 25.8085 124.674Q25.8473 124.636 25.9017 124.636Q25.9793 124.636 26.0258 124.698Q26.476 125.342 27.2831 125.342Q27.6945 125.342 28.0049 125.136Q28.3154 124.93 28.3154 124.581Q28.3154 124.224 28.0437 124.046Q27.7721 123.867 27.2987 123.751Q26.67 123.596 26.3091 123.336Q25.9482 123.076 25.9482 122.602Q25.9482 122.144 26.313 121.845Q26.6778 121.547 27.2521 121.547Q27.5703 121.547 27.8846 121.671Q28.1989 121.795 28.4551 122.067Q28.5094 122.113 28.5094 122.175Q28.5094 122.245 28.4551 122.299Q28.393 122.331 28.3542 122.331Q28.2998 122.331 28.261 122.284Q27.8575 121.842 27.221 121.842Q26.8097 121.842 26.5264 122.043Q26.2431 122.245 26.2431 122.602Q26.2664 122.936 26.5497 123.118Q26.833 123.301 27.384 123.44Q27.7798 123.541 28.0398 123.662Q28.2998 123.782 28.4551 123.999Q28.6103 124.216 28.6103 124.566Q28.6103 125.055 28.2339 125.338Q27.8575 125.621 27.2521 125.621Q26.3673 125.621 25.8008 124.923Q25.7464 124.837 25.7464 124.775ZM32.9565 121.826V125.388Q32.9565 125.45 32.9099 125.497Q32.8634 125.544 32.8013 125.544Q32.7314 125.544 32.6887 125.497Q32.6461 125.45 32.6461 125.388V124.69Q32.452 125.086 32.0485 125.353Q31.6449 125.621 31.1559 125.621Q30.6437 125.621 30.2324 125.353Q29.821 125.086 29.5882 124.616Q29.3553 124.147 29.3553 123.565Q29.3553 122.99 29.5921 122.528Q29.8288 122.067 30.2401 121.807Q30.6515 121.547 31.1559 121.547Q31.6604 121.547 32.064 121.811Q32.4676 122.074 32.6461 122.517V121.826Q32.6461 121.764 32.6887 121.717Q32.7314 121.671 32.8013 121.671Q32.8711 121.671 32.9138 121.717Q32.9565 121.764 32.9565 121.826ZM32.6771 123.565Q32.6771 123.091 32.4831 122.695Q32.289 122.299 31.9437 122.071Q31.5983 121.842 31.1714 121.842Q30.7446 121.842 30.3992 122.063Q30.0538 122.284 29.8598 122.676Q29.6658 123.068 29.6658 123.565Q29.6658 124.061 29.8598 124.465Q30.0538 124.868 30.3953 125.097Q30.7368 125.326 31.1714 125.326Q31.5983 125.326 31.9437 125.097Q32.289 124.868 32.4831 124.465Q32.6771 124.061 32.6771 123.565ZM37.846 123.603Q37.846 124.162 37.6093 124.616Q37.3726 125.07 36.9612 125.33Q36.5499 125.59 36.0454 125.59Q35.5798 125.59 35.1917 125.357Q34.8036 125.125 34.5553 124.698V126.941Q34.5553 127.003 34.5126 127.049Q34.4699 127.096 34.4001 127.096Q34.338 127.096 34.2914 127.049Q34.2448 127.003 34.2448 126.941V121.779Q34.2448 121.717 34.2875 121.671Q34.3302 121.624 34.4001 121.624Q34.4699 121.624 34.5126 121.671Q34.5553 121.717 34.5553 121.779V122.493Q34.7881 122.051 35.1762 121.838Q35.5642 121.624 36.0454 121.624Q36.5577 121.624 36.969 121.88Q37.3803 122.136 37.6132 122.587Q37.846 123.037 37.846 123.603ZM37.5356 123.603Q37.5356 123.122 37.3376 122.738Q37.1397 122.354 36.7982 122.136Q36.4568 121.919 36.0299 121.919Q35.5953 121.919 35.2499 122.133Q34.9045 122.346 34.7144 122.73Q34.5242 123.114 34.5242 123.603Q34.5242 124.092 34.7144 124.476Q34.9045 124.861 35.2499 125.078Q35.5953 125.295 36.0299 125.295Q36.4568 125.295 36.7982 125.078Q37.1397 124.861 37.3376 124.473Q37.5356 124.085 37.5356 123.603ZM42.4639 123.603Q42.4639 124.162 42.2271 124.616Q41.9904 125.07 41.5791 125.33Q41.1678 125.59 40.6633 125.59Q40.1976 125.59 39.8096 125.357Q39.4215 125.125 39.1731 124.698V126.941Q39.1731 127.003 39.1305 127.049Q39.0878 127.096 39.0179 127.096Q38.9558 127.096 38.9093 127.049Q38.8627 127.003 38.8627 126.941V121.779Q38.8627 121.717 38.9054 121.671Q38.9481 121.624 39.0179 121.624Q39.0878 121.624 39.1305 121.671Q39.1731 121.717 39.1731 121.779V122.493Q39.406 122.051 39.794 121.838Q40.1821 121.624 40.6633 121.624Q41.1755 121.624 41.5869 121.88Q41.9982 122.136 42.231 122.587Q42.4639 123.037 42.4639 123.603ZM42.1534 123.603Q42.1534 123.122 41.9555 122.738Q41.7576 122.354 41.4161 122.136Q41.0746 121.919 40.6478 121.919Q40.2131 121.919 39.8678 122.133Q39.5224 122.346 39.3323 122.73Q39.1421 123.114 39.1421 123.603Q39.1421 124.092 39.3323 124.476Q39.5224 124.861 39.8678 125.078Q40.2131 125.295 40.6478 125.295Q41.0746 125.295 41.4161 125.078Q41.7576 124.861 41.9555 124.473Q42.1534 124.085 42.1534 123.603ZM46.554 123.122V125.388Q46.554 125.45 46.5074 125.497Q46.4608 125.544 46.3987 125.544Q46.3289 125.544 46.2862 125.497Q46.2435 125.45 46.2435 125.388V123.122Q46.2435 122.587 45.9796 122.253Q45.7158 121.919 45.1725 121.919Q44.8388 121.919 44.5167 122.082Q44.1946 122.245 43.9928 122.525Q43.791 122.804 43.791 123.122V125.388Q43.791 125.45 43.7444 125.497Q43.6979 125.544 43.6358 125.544Q43.5659 125.544 43.5233 125.497Q43.4806 125.45 43.4806 125.388V119.956Q43.4806 119.894 43.5271 119.847Q43.5737 119.8 43.6358 119.8Q43.7056 119.8 43.7483 119.847Q43.791 119.894 43.791 119.956V122.408Q44.0083 122.067 44.3925 121.845Q44.7767 121.624 45.1725 121.624Q45.8399 121.624 46.197 122.047Q46.554 122.47 46.554 123.122ZM47.9975 125.544Q47.9277 125.544 47.885 125.497Q47.8423 125.45 47.8423 125.388V121.702Q47.8423 121.64 47.8889 121.593Q47.9354 121.547 47.9975 121.547Q48.0674 121.547 48.1101 121.593Q48.1528 121.64 48.1528 121.702V125.388Q48.1528 125.45 48.1062 125.497Q48.0596 125.544 47.9975 125.544ZM47.7259 120.771V120.708Q47.7259 120.6 47.8035 120.53Q47.8811 120.46 48.0053 120.46Q48.114 120.46 48.1877 120.53Q48.2614 120.6 48.2614 120.708V120.771Q48.2614 120.879 48.1877 120.949Q48.114 121.019 47.9975 121.019Q47.8734 121.019 47.7996 120.949Q47.7259 120.879 47.7259 120.771ZM51.5521 121.725Q51.5521 121.795 51.5133 121.842Q51.4745 121.888 51.4124 121.888Q51.3891 121.888 51.2999 121.853Q51.2106 121.818 51.1097 121.818Q50.7915 121.818 50.4733 122.071Q50.1551 122.323 49.9533 122.707Q49.7515 123.091 49.7515 123.448V125.388Q49.7515 125.45 49.705 125.497Q49.6584 125.544 49.5963 125.544Q49.5265 125.544 49.4838 125.497Q49.4411 125.45 49.4411 125.388V121.826Q49.4411 121.764 49.4877 121.717Q49.5342 121.671 49.5963 121.671Q49.6662 121.671 49.7089 121.717Q49.7515 121.764 49.7515 121.826V122.649Q49.9301 122.175 50.3065 121.865Q50.6829 121.554 51.1951 121.547Q51.5521 121.547 51.5521 121.725ZM55.4948 124.752Q55.4948 124.806 55.4637 124.845Q55.2076 125.187 54.8273 125.404Q54.447 125.621 54.0124 125.621Q53.4303 125.621 52.9802 125.373Q52.53 125.125 52.2778 124.667Q52.0256 124.209 52.0256 123.603Q52.0256 122.982 52.27 122.513Q52.5145 122.043 52.9181 121.795Q53.3217 121.547 53.7796 121.547Q54.2375 121.547 54.6294 121.745Q55.0213 121.942 55.2697 122.338Q55.5181 122.734 55.5336 123.316Q55.5336 123.378 55.487 123.429Q55.4404 123.479 55.3784 123.479H52.3282V123.58Q52.3282 124.061 52.5223 124.461Q52.7163 124.861 53.0966 125.093Q53.4769 125.326 54.0124 125.326Q54.3849 125.326 54.7148 125.144Q55.0446 124.962 55.2309 124.682Q55.2852 124.612 55.3628 124.612Q55.4172 124.612 55.456 124.655Q55.4948 124.698 55.4948 124.752ZM52.3593 123.184H55.2154V123.114Q55.1766 122.719 54.9631 122.435Q54.7497 122.152 54.4354 122.005Q54.1211 121.857 53.7796 121.857Q53.4924 121.857 53.1936 122.008Q52.8948 122.16 52.6658 122.459Q52.4369 122.757 52.3593 123.184Z" style="fill:#000000;stroke:#000000;stroke-width:0.265;stroke-linecap:square" />
            <g id="gemstones" style="stroke-width:0;fill:#0000ff;stroke:#2e2114;stroke-linecap:square;stroke-opacity:1">
                <path d="m 23.090,122.900 q 0,0.34175 -0.242534,0.63114 -0.0441,0.0524 -0.20395,0.21497 -0.187413,0.19017 -0.785481,0.81304 l -1.444183,1.51309 q -0.01929,0.003 -0.0441,0.003 -0.02756,0 -0.04134,-0.003 -0.08268,-0.0827 -0.647678,-0.67524 -0.468532,-0.47404 -0.934309,-0.94809 -0.556727,-0.56775 -0.89848,-0.98116 -0.132292,-0.15985 -0.168121,-0.29766 -0.02756,-0.10197 -0.02756,-0.34175 0,-0.11024 0.07166,-0.28939 0.06614,-0.16536 0.140559,-0.26458 0.118512,-0.1571 0.42168,-0.42444 0.283875,-0.2508 0.474044,-0.37482 0.272852,-0.17915 0.818555,-0.36656 0.09646,-0.0331 0.110243,-0.0331 h 1.3615 q 0.01102,0 0.104731,0.0331 0.567751,0.20119 0.824066,0.36656 0.165365,0.10473 0.474045,0.37758 0.322461,0.28388 0.421679,0.42168 0.214974,0.2949 0.214974,0.62563 z m -0.16812,-0.27285 q -0.03307,-0.10749 -0.135048,-0.30868 -0.07166,-0.0937 -0.209462,-0.19844 -0.118511,-0.0854 -0.234266,-0.17088 0.245291,0.3638 0.578776,0.678 z m -0.573264,-0.52366 -0.358289,-0.44648 v 0.41065 z m 0.636653,0.75792 q 0,-0.0524 -0.341753,-0.39412 l 0.228754,0.7028 h 0.04961 q 0.06339,-0.21773 0.06339,-0.30868 z m -0.23151,0.27285 -0.316948,-0.90399 -0.410655,-0.0634 -0.159853,0.61461 z m 0.0028,0.15434 -0.771701,-0.3197 h -0.03032 l 0.344509,0.60634 q 0.07993,-0.003 0.234266,-0.0469 0.02481,-0.0138 0.223242,-0.23978 z m -0.857139,-1.05006 -0.719335,0.28388 0.60358,0.22599 z m 0,-0.16261 v -0.51538 l -0.917773,-0.38034 h -1.223697 l -0.917772,0.38034 v 0.51538 l 0.89848,0.4079 h 1.254014 z m 0.573264,1.53789 q -0.0689,0.011 -0.198438,0.0524 -0.08544,0.0551 -0.259071,0.16261 0.01929,0 0.06339,0.003 0.04134,0 0.06339,0 0.118511,0 0.190169,-0.0689 0.07166,-0.0717 0.14056,-0.14883 z m -0.289388,0.003 -0.347266,-0.63114 -0.363801,0.87918 q 0.0248,-0.0165 0.06615,-0.0165 0.03032,0 0.08544,0.011 0.05788,0.008 0.08819,0.008 0.04961,0 0.228754,-0.10749 0.228754,-0.1378 0.242535,-0.14331 z m -0.440972,-0.74139 -0.683507,-0.2756 -0.592556,0.54845 0.903993,0.65595 z m -0.854383,-0.28387 h -1.036284 l 0.523654,0.47404 z m 0.749652,1.36701 q -0.228754,-0.0303 -0.228754,-0.0303 -0.03583,0 -0.272851,0.0937 l 0.190169,0.0193 q 0.01102,0 0.311436,-0.0827 z m -0.388606,-0.0882 -0.843359,-0.61185 v 0.67524 l 0.471289,0.0827 z m 0.854383,0.0496 q -0.09922,0.006 -0.2949,0.0386 -0.01102,0.003 -0.377583,0.17639 -0.129535,0.34726 -0.380338,1.0418 z m -2.543857,-1.39733 -0.719335,-0.28388 0.124023,0.51814 z m -0.802018,-0.45476 v -0.41065 l -0.366557,0.44648 z m 1.515841,1.07212 -0.592556,-0.54019 -0.683506,0.2756 0.380338,0.9288 z m 0.369314,0.94257 q -0.03307,-0.003 -0.135047,-0.0248 -0.08544,-0.0165 -0.137804,-0.0165 -0.05237,0 -0.137804,0.0165 -0.101975,0.0221 -0.135047,0.0248 0.264583,0.0469 0.272851,0.0469 0.0083,0 0.272851,-0.0469 z m -0.30868,-0.1378 v -0.68626 l -0.843359,0.61185 0.37207,0.14607 z m 0.950846,0.20671 -0.396875,-0.0551 -0.479557,0.14056 v 1.27607 z m -2.888366,-2.20211 q -0.118512,0.0854 -0.234267,0.17364 -0.146072,0.10748 -0.209461,0.19568 -0.0441,0.10473 -0.135048,0.31419 0.369314,-0.3638 0.578776,-0.68351 z m 0.476801,0.83234 -0.159853,-0.61461 -0.410655,0.0634 -0.316948,0.90399 z m 0.394118,1.08313 -0.363802,-0.87918 -0.355533,0.63114 q 0.43546,0.2508 0.451996,0.2508 0.09095,0 0.267339,-0.003 z m 1.821765,0.82958 q -0.132291,0.21222 -0.405143,0.6339 -0.07717,0.10749 -0.220486,0.32797 -0.05788,0.10473 -0.05512,0.226 0.159852,-0.15158 0.432704,-0.49609 0.07717,-0.12954 0.140559,-0.339 0.05512,-0.17639 0.107486,-0.35278 z m -1.493792,-0.66146 -0.270095,-0.0882 -0.0083,-0.011 q -0.02481,0 -0.107487,0.011 -0.06615,0.006 -0.107487,0.006 0.272851,0.091 0.311436,0.091 0.02481,0 0.181901,-0.008 z m -0.810286,-1.06384 h -0.03032 l -0.7717,0.3197 q 0.06615,0.0965 0.223242,0.23978 0.07717,0.0138 0.234266,0.0469 z m -0.689018,-0.50161 q -0.341754,0.34727 -0.341754,0.39412 0,0.0799 0.06339,0.30868 h 0.04961 z m 2.235176,3.04547 v -1.27607 l -0.479557,-0.14056 -0.396875,0.0551 z m -1.606791,-1.6757 q -0.256315,-0.1819 -0.457509,-0.22324 0.06615,0.0772 0.20395,0.22324 z m 1.609547,2.04501 v -0.1378 l -0.683507,-1.05007 q 0.05237,0.17639 0.107487,0.35278 0.06339,0.20946 0.14056,0.339 0.0689,0.11851 0.20395,0.25907 0.115755,0.11851 0.23151,0.23702 z m -0.644921,-0.70555 q -0.115756,-0.32798 -0.380339,-1.0418 -0.135047,-0.0662 -0.272851,-0.12954 -0.159852,-0.0716 -0.289388,-0.0716 -0.05237,0 -0.110243,-0.0138 z" />
                <path d="m 63.620,122.900 q 0,0.34175 -0.242534,0.63114 -0.0441,0.0524 -0.20395,0.21497 -0.187413,0.19017 -0.785481,0.81304 l -1.444183,1.51309 q -0.01929,0.003 -0.0441,0.003 -0.02756,0 -0.04134,-0.003 -0.08268,-0.0827 -0.647678,-0.67524 -0.468532,-0.47404 -0.934309,-0.94809 -0.556727,-0.56775 -0.89848,-0.98116 -0.132292,-0.15985 -0.168121,-0.29766 -0.02756,-0.10197 -0.02756,-0.34175 0,-0.11024 0.07166,-0.28939 0.06614,-0.16536 0.140559,-0.26458 0.118512,-0.1571 0.42168,-0.42444 0.283875,-0.2508 0.474044,-0.37482 0.272852,-0.17915 0.818555,-0.36656 0.09646,-0.0331 0.110243,-0.0331 h 1.3615 q 0.01102,0 0.104731,0.0331 0.567751,0.20119 0.824066,0.36656 0.165365,0.10473 0.474045,0.37758 0.322461,0.28388 0.421679,0.42168 0.214974,0.2949 0.214974,0.62563 z m -0.16812,-0.27285 q -0.03307,-0.10749 -0.135048,-0.30868 -0.07166,-0.0937 -0.209462,-0.19844 -0.118511,-0.0854 -0.234266,-0.17088 0.245291,0.3638 0.578776,0.678 z m -0.573264,-0.52366 -0.358289,-0.44648 v 0.41065 z m 0.636653,0.75792 q 0,-0.0524 -0.341753,-0.39412 l 0.228754,0.7028 h 0.04961 q 0.06339,-0.21773 0.06339,-0.30868 z m -0.23151,0.27285 -0.316948,-0.90399 -0.410655,-0.0634 -0.159853,0.61461 z m 0.0028,0.15434 -0.771701,-0.3197 h -0.03032 l 0.344509,0.60634 q 0.07993,-0.003 0.234266,-0.0469 0.02481,-0.0138 0.223242,-0.23978 z m -0.857139,-1.05006 -0.719335,0.28388 0.60358,0.22599 z m 0,-0.16261 v -0.51538 l -0.917773,-0.38034 h -1.223697 l -0.917772,0.38034 v 0.51538 l 0.89848,0.4079 h 1.254014 z m 0.573264,1.53789 q -0.0689,0.011 -0.198438,0.0524 -0.08544,0.0551 -0.259071,0.16261 0.01929,0 0.06339,0.003 0.04134,0 0.06339,0 0.118511,0 0.190169,-0.0689 0.07166,-0.0717 0.14056,-0.14883 z m -0.289388,0.003 -0.347266,-0.63114 -0.363801,0.87918 q 0.0248,-0.0165 0.06615,-0.0165 0.03032,0 0.08544,0.011 0.05788,0.008 0.08819,0.008 0.04961,0 0.228754,-0.10749 0.228754,-0.1378 0.242535,-0.14331 z m -0.440972,-0.74139 -0.683507,-0.2756 -0.592556,0.54845 0.903993,0.65595 z m -0.854383,-0.28387 h -1.036284 l 0.523654,0.47404 z m 0.749652,1.36701 q -0.228754,-0.0303 -0.228754,-0.0303 -0.03583,0 -0.272851,0.0937 l 0.190169,0.0193 q 0.01102,0 0.311436,-0.0827 z m -0.388606,-0.0882 -0.843359,-0.61185 v 0.67524 l 0.471289,0.0827 z m 0.854383,0.0496 q -0.09922,0.006 -0.2949,0.0386 -0.01102,0.003 -0.377583,0.17639 -0.129535,0.34726 -0.380338,1.0418 z m -2.543857,-1.39733 -0.719335,-0.28388 0.124023,0.51814 z m -0.802018,-0.45476 v -0.41065 l -0.366557,0.44648 z m 1.515841,1.07212 -0.592556,-0.54019 -0.683506,0.2756 0.380338,0.9288 z m 0.369314,0.94257 q -0.03307,-0.003 -0.135047,-0.0248 -0.08544,-0.0165 -0.137804,-0.0165 -0.05237,0 -0.137804,0.0165 -0.101975,0.0221 -0.135047,0.0248 0.264583,0.0469 0.272851,0.0469 0.0083,0 0.272851,-0.0469 z m -0.30868,-0.1378 v -0.68626 l -0.843359,0.61185 0.37207,0.14607 z m 0.950846,0.20671 -0.396875,-0.0551 -0.479557,0.14056 v 1.27607 z m -2.888366,-2.20211 q -0.118512,0.0854 -0.234267,0.17364 -0.146072,0.10748 -0.209461,0.19568 -0.0441,0.10473 -0.135048,0.31419 0.369314,-0.3638 0.578776,-0.68351 z m 0.476801,0.83234 -0.159853,-0.61461 -0.410655,0.0634 -0.316948,0.90399 z m 0.394118,1.08313 -0.363802,-0.87918 -0.355533,0.63114 q 0.43546,0.2508 0.451996,0.2508 0.09095,0 0.267339,-0.003 z m 1.821765,0.82958 q -0.132291,0.21222 -0.405143,0.6339 -0.07717,0.10749 -0.220486,0.32797 -0.05788,0.10473 -0.05512,0.226 0.159852,-0.15158 0.432704,-0.49609 0.07717,-0.12954 0.140559,-0.339 0.05512,-0.17639 0.107486,-0.35278 z m -1.493792,-0.66146 -0.270095,-0.0882 -0.0083,-0.011 q -0.02481,0 -0.107487,0.011 -0.06615,0.006 -0.107487,0.006 0.272851,0.091 0.311436,0.091 0.02481,0 0.181901,-0.008 z m -0.810286,-1.06384 h -0.03032 l -0.7717,0.3197 q 0.06615,0.0965 0.223242,0.23978 0.07717,0.0138 0.234266,0.0469 z m -0.689018,-0.50161 q -0.341754,0.34727 -0.341754,0.39412 0,0.0799 0.06339,0.30868 h 0.04961 z m 2.235176,3.04547 v -1.27607 l -0.479557,-0.14056 -0.396875,0.0551 z m -1.606791,-1.6757 q -0.256315,-0.1819 -0.457509,-0.22324 0.06615,0.0772 0.20395,0.22324 z m 1.609547,2.04501 v -0.1378 l -0.683507,-1.05007 q 0.05237,0.17639 0.107487,0.35278 0.06339,0.20946 0.14056,0.339 0.0689,0.11851 0.20395,0.25907 0.115755,0.11851 0.23151,0.23702 z m -0.644921,-0.70555 q -0.115756,-0.32798 -0.380339,-1.0418 -0.135047,-0.0662 -0.272851,-0.12954 -0.159852,-0.0716 -0.289388,-0.0716 -0.05237,0 -0.110243,-0.0138 z" />
            </g>
        </g>
        <path id="controls_bubble" d="M 4.00,18.00 A 6 6 0 0 1 10 12 L 71.20,12.00 A 6 6 0 0 1 77.2 18 L 77.20,37.00 A 6 6 0 0 1 71.2 43 L 10.00,43.00 A 6 6 0 0 1 4 37 z " style="fill:url(#gradient_controls);opacity:0.7;stroke:none" />
        <path id="input_bubble" d="M 4.00,49.00 A 6 6 0 0 1 10 43 L 71.20,43.00 A 6 6 0 0 1 77.2 49 L 77.20,67.00 A 6 6 0 0 1 71.2 73 L 10.00,73.00 A 6 6 0 0 1 4 67 z " style="fill:url(#gradient_input);opacity:1;stroke:none" />
        <path id="output_bubble" d="M 4.00,79.00 A 6 6 0 0 1 10 73 L 71.20,73.00 A 6 6 0 0 1 77.2 79 L 77.20,112.00 A 6 6 0 0 1 71.2 118 L 10.00,118.00 A 6 6 0 0 1 4 112 z " style="fill:url(#gradient_output);opacity:0.8;stroke:none" />
        <g id="ControlLayer" style="display:none;">
            <circle id="a_input" cx="28.64" cy="58" r="1" />
            <circle id="b_output" cx="40.64" cy="86" r="1" />
            <circle id="c_output" cx="40.64" cy="94.6667" r="1" />
            <circle id="d_output" cx="40.64" cy="103.333" r="1" />
            <circle id="e_output" cx="40.64" cy="112" r="1" />
            <circle id="speed_knob" cx="15.64" cy="25" r="1" />
            <circle id="speed_atten" cx="10.64" cy="36" r="1" />
            <circle id="speed_cv" cx="20.64" cy="36" r="1" />
            <circle id="decay_knob" cx="40.64" cy="25" r="1" />
            <circle id="decay_atten" cx="35.64" cy="36" r="1" />
            <circle id="decay_cv" cx="45.64" cy="36" r="1" />
            <circle id="magnet_knob" cx="65.64" cy="25" r="1" />
            <circle id="magnet_atten" cx="60.64" cy="36" r="1" />
            <circle id="magnet_cv" cx="70.64" cy="36" r="1" />
            <circle id="in_drive_knob" cx="65.64" cy="55.5" r="1" />
            <circle id="in_drive_atten" cx="60.64" cy="66.5" r="1" />
            <circle id="in_drive_cv" cx="70.64" cy="66.5" r="1" />
            <circle id="out_level_knob" cx="15.64" cy="103" r="1" />
            <circle id="out_level_atten" cx="10.64" cy="114" r="1" />
            <circle id="out_level_cv" cx="20.64" cy="114" r="1" />
            <circle id="audio_mode_button" cx="15.64" cy="83.5" r="1" />
        </g>
        <path d="M22.3061 59.0472Q22.3061 59.0789 22.2849 59.0966Q22.2637 59.1142 22.232 59.1142Q22.2073 59.1142 22.1879 59.1019Q22.1685 59.0895 22.1614 59.0683L21.8651 58.3416L21.8686 58.3487H20.6868L20.4011 59.0683Q20.3834 59.1142 20.3376 59.1142Q20.3058 59.1142 20.2864 59.0966Q20.267 59.0789 20.2635 59.0542Q20.2599 59.0401 20.267 59.019L21.216 56.6836Q21.2266 56.6553 21.2424 56.6465Q21.2583 56.6377 21.283 56.6377Q21.3359 56.6377 21.3536 56.6836L22.3025 59.019Q22.3061 59.0295 22.3061 59.0472ZM20.7432 58.2076H21.8122L21.2724 56.8776Z" style="stroke:#000000;stroke-width:0.25;stroke-linecap:round;stroke-linejoin:bevel" />
        <path d="M33.7567 86.4475Q33.7567 86.7685 33.5538 86.9413Q33.351 87.1142 33.037 87.1142H32.0633Q32.0351 87.1142 32.0139 87.093Q31.9928 87.0719 31.9928 87.0437V84.7153Q31.9928 84.6871 32.0139 84.6659Q32.0351 84.6448 32.0633 84.6448H33.0123Q33.2945 84.6448 33.4639 84.807Q33.6332 84.9693 33.6332 85.2445Q33.6332 85.442 33.5344 85.6026Q33.4356 85.7631 33.2593 85.823Q33.485 85.8654 33.6208 86.0277Q33.7567 86.1899 33.7567 86.4475ZM32.9947 84.7859H32.1409V85.7772H32.9947Q33.2134 85.7737 33.3492 85.6343Q33.485 85.495 33.485 85.241Q33.485 85.0328 33.3563 84.9093Q33.2275 84.7859 32.9947 84.7859ZM33.6085 86.4475Q33.6085 86.1864 33.4462 86.0541Q33.2839 85.9218 33.0194 85.9218H32.1409V86.9731H33.0194Q33.2839 86.9731 33.4462 86.8408Q33.6085 86.7085 33.6085 86.4475Z" style="stroke:#000000;stroke-width:0.25;stroke-linecap:round;stroke-linejoin:bevel" />
        <path d="M33.8519 93.5725Q33.8519 93.6007 33.8378 93.6183Q33.8166 93.6466 33.7849 93.6466Q33.7708 93.6466 33.7426 93.6325Q33.4145 93.4102 33.0476 93.4102Q32.7512 93.4102 32.5025 93.5566Q32.2538 93.703 32.1092 93.9623Q31.9646 94.2216 31.9646 94.5462Q31.9646 94.8707 32.1092 95.13Q32.2538 95.3893 32.5025 95.5357Q32.7512 95.6821 33.0476 95.6821Q33.418 95.6821 33.739 95.4634Q33.7567 95.4493 33.7814 95.4493Q33.8166 95.4493 33.8378 95.4775Q33.8519 95.4951 33.8519 95.5198Q33.8519 95.5551 33.8237 95.5763Q33.6861 95.675 33.4692 95.7456Q33.2522 95.8162 33.0476 95.8162Q32.7124 95.8162 32.4302 95.6503Q32.148 95.4845 31.9822 95.1935Q31.8164 94.9025 31.8164 94.5462Q31.8164 94.1898 31.9822 93.8988Q32.148 93.6078 32.4302 93.442Q32.7124 93.2762 33.0476 93.2762Q33.2593 93.2762 33.4586 93.3397Q33.6579 93.4032 33.8202 93.516Q33.8519 93.5407 33.8519 93.5725Z" style="stroke:#000000;stroke-width:0.25;stroke-linecap:round;stroke-linejoin:bevel" />
        <path d="M34.0036 103.213Q34.0036 103.562 33.8925 103.841Q33.7814 104.119 33.5521 104.284Q33.3227 104.448 32.9806 104.448H32.0633Q32.0351 104.448 32.0139 104.426Q31.9928 104.405 31.9928 104.377V102.049Q31.9928 102.02 32.0139 101.999Q32.0351 101.978 32.0633 101.978H32.9806Q33.3192 101.978 33.5503 102.147Q33.7814 102.317 33.8925 102.597Q34.0036 102.878 34.0036 103.213ZM33.8554 103.213Q33.8554 102.913 33.7584 102.664Q33.6614 102.416 33.4586 102.267Q33.2557 102.119 32.9453 102.119H32.1409V104.306H32.9453Q33.4039 104.306 33.6297 104.005Q33.8554 103.703 33.8554 103.213Z" style="stroke:#000000;stroke-width:0.25;stroke-linecap:round;stroke-linejoin:bevel" />
        <path d="M33.4639 113.044Q33.4639 113.075 33.4427 113.095Q33.4215 113.114 33.3933 113.114H32.0633Q32.0351 113.114 32.0139 113.093Q31.9928 113.072 31.9928 113.044V110.715Q31.9928 110.687 32.0139 110.666Q32.0351 110.645 32.0633 110.645H33.3933Q33.4215 110.645 33.4427 110.666Q33.4639 110.687 33.4639 110.715Q33.4639 110.747 33.4427 110.766Q33.4215 110.786 33.3933 110.786H32.1409V111.77H33.2346Q33.2628 111.77 33.2839 111.791Q33.3051 111.812 33.3051 111.841Q33.3051 111.872 33.2839 111.892Q33.2628 111.911 33.2346 111.911H32.1409V112.973H33.3933Q33.4215 112.973 33.4427 112.994Q33.4639 113.015 33.4639 113.044Z" style="stroke:#000000;stroke-width:0.25;stroke-linecap:round;stroke-linejoin:bevel" />
        <path d="M10.2846 16.6791Q10.2635 16.6579 10.2635 16.6262Q10.2635 16.5979 10.2882 16.5715Q10.3129 16.545 10.3411 16.545Q10.3728 16.545 10.4011 16.5768Q10.5386 16.739 10.7274 16.8237Q10.9161 16.9084 11.1242 16.9084Q11.3959 16.9084 11.5723 16.7778Q11.7487 16.6473 11.7487 16.4321Q11.7451 16.2628 11.6569 16.1534Q11.5688 16.0441 11.44 15.9788Q11.3112 15.9135 11.089 15.8324Q10.8456 15.7407 10.7097 15.6701Q10.5739 15.5996 10.4769 15.469Q10.3799 15.3385 10.3799 15.1268Q10.3799 14.954 10.4751 14.8129Q10.5704 14.6718 10.7468 14.5906Q10.9232 14.5095 11.156 14.5095Q11.3641 14.5095 11.5511 14.5853Q11.7381 14.6612 11.8474 14.7988Q11.8827 14.8482 11.8827 14.8728Q11.8827 14.9011 11.8563 14.924Q11.8298 14.9469 11.7981 14.9469Q11.7698 14.9469 11.7522 14.9258Q11.6534 14.7988 11.4982 14.7247Q11.343 14.6506 11.156 14.6506Q10.8879 14.6506 10.7097 14.7776Q10.5316 14.9046 10.5316 15.1233Q10.5316 15.275 10.618 15.3808Q10.7044 15.4867 10.835 15.5519Q10.9655 15.6172 11.1595 15.6878Q11.4065 15.776 11.5511 15.85Q11.6958 15.9241 11.7981 16.0652Q11.9004 16.2063 11.9004 16.4392Q11.9004 16.6015 11.8051 16.7426Q11.7099 16.8837 11.5317 16.9666Q11.3536 17.0495 11.1242 17.0495Q10.8632 17.0495 10.6692 16.9595Q10.4751 16.8696 10.2846 16.6791ZM14.017 15.2186Q14.017 15.4161 13.9341 15.5766Q13.8512 15.7372 13.6995 15.8271Q13.5478 15.9171 13.3503 15.9171H12.5812V16.9437Q12.5812 16.9719 12.5583 16.993Q12.5354 17.0142 12.5071 17.0142Q12.4754 17.0142 12.4542 16.993Q12.4331 16.9719 12.4331 16.9437V14.6153Q12.4331 14.5871 12.4542 14.5659Q12.4754 14.5448 12.5036 14.5448H13.3503Q13.6501 14.5448 13.8336 14.7317Q14.017 14.9187 14.017 15.2186ZM13.8689 15.2186Q13.8689 14.9752 13.7295 14.8305Q13.5902 14.6859 13.3503 14.6859H12.5812V15.776H13.3503Q13.5866 15.776 13.7278 15.619Q13.8689 15.462 13.8689 15.2186ZM15.9996 16.9437Q15.9996 16.9754 15.9785 16.9948Q15.9573 17.0142 15.9291 17.0142H14.5991Q14.5709 17.0142 14.5497 16.993Q14.5286 16.9719 14.5286 16.9437V14.6153Q14.5286 14.5871 14.5497 14.5659Q14.5709 14.5448 14.5991 14.5448H15.9291Q15.9573 14.5448 15.9785 14.5659Q15.9996 14.5871 15.9996 14.6153Q15.9996 14.6471 15.9785 14.6665Q15.9573 14.6859 15.9291 14.6859H14.6767V15.6701H15.7703Q15.7986 15.6701 15.8197 15.6913Q15.8409 15.7125 15.8409 15.7407Q15.8409 15.7724 15.8197 15.7918Q15.7986 15.8112 15.7703 15.8112H14.6767V16.8731H15.9291Q15.9573 16.8731 15.9785 16.8943Q15.9996 16.9154 15.9996 16.9437ZM17.9999 16.9437Q17.9999 16.9754 17.9787 16.9948Q17.9576 17.0142 17.9293 17.0142H16.5994Q16.5711 17.0142 16.55 16.993Q16.5288 16.9719 16.5288 16.9437V14.6153Q16.5288 14.5871 16.55 14.5659Q16.5711 14.5448 16.5994 14.5448H17.9293Q17.9576 14.5448 17.9787 14.5659Q17.9999 14.5871 17.9999 14.6153Q17.9999 14.6471 17.9787 14.6665Q17.9576 14.6859 17.9293 14.6859H16.677V15.6701H17.7706Q17.7988 15.6701 17.82 15.6913Q17.8411 15.7125 17.8411 15.7407Q17.8411 15.7724 17.82 15.7918Q17.7988 15.8112 17.7706 15.8112H16.677V16.8731H17.9293Q17.9576 16.8731 17.9787 16.8943Q17.9999 16.9154 17.9999 16.9437ZM20.5399 15.7795Q20.5399 16.1287 20.4288 16.4074Q20.3176 16.6861 20.0883 16.8502Q19.859 17.0142 19.5168 17.0142H18.5996Q18.5714 17.0142 18.5502 16.993Q18.5291 16.9719 18.5291 16.9437V14.6153Q18.5291 14.5871 18.5502 14.5659Q18.5714 14.5448 18.5996 14.5448H19.5168Q19.8555 14.5448 20.0866 14.7141Q20.3176 14.8834 20.4288 15.1639Q20.5399 15.4443 20.5399 15.7795ZM20.3917 15.7795Q20.3917 15.4796 20.2947 15.2309Q20.1977 14.9822 19.9948 14.834Q19.792 14.6859 19.4816 14.6859H18.6772V16.8731H19.4816Q19.9402 16.8731 20.1659 16.5715Q20.3917 16.2698 20.3917 15.7795Z" style="stroke:#000000;stroke-width:0.25;stroke-linecap:round;stroke-linejoin:bevel" />
        <path d="M 15.64,25.00 L 10.64,36.00 z L 20.64,36.00 z " style="stroke:#000000;stroke-width:0.1;stroke-linecap:round;stroke-linejoin:bevel;stroke-dasharray:none" />
        <path d="M37.5036 15.7795Q37.5036 16.1287 37.3925 16.4074Q37.2814 16.6861 37.0521 16.8502Q36.8227 17.0142 36.4806 17.0142H35.5633Q35.5351 17.0142 35.5139 16.993Q35.4928 16.9719 35.4928 16.9437V14.6153Q35.4928 14.5871 35.5139 14.5659Q35.5351 14.5448 35.5633 14.5448H36.4806Q36.8192 14.5448 37.0503 14.7141Q37.2814 14.8834 37.3925 15.1639Q37.5036 15.4443 37.5036 15.7795ZM37.3554 15.7795Q37.3554 15.4796 37.2584 15.2309Q37.1614 14.9822 36.9586 14.834Q36.7557 14.6859 36.4453 14.6859H35.6409V16.8731H36.4453Q36.9039 16.8731 37.1297 16.5715Q37.3554 16.2698 37.3554 15.7795ZM39.5039 16.9437Q39.5039 16.9754 39.4827 16.9948Q39.4615 17.0142 39.4333 17.0142H38.1033Q38.0751 17.0142 38.0539 16.993Q38.0328 16.9719 38.0328 16.9437V14.6153Q38.0328 14.5871 38.0539 14.5659Q38.0751 14.5448 38.1033 14.5448H39.4333Q39.4615 14.5448 39.4827 14.5659Q39.5039 14.5871 39.5039 14.6153Q39.5039 14.6471 39.4827 14.6665Q39.4615 14.6859 39.4333 14.6859H38.1809V15.6701H39.2746Q39.3028 15.6701 39.3239 15.6913Q39.3451 15.7125 39.3451 15.7407Q39.3451 15.7724 39.3239 15.7918Q39.3028 15.8112 39.2746 15.8112H38.1809V16.8731H39.4333Q39.4615 16.8731 39.4827 16.8943Q39.5039 16.9154 39.5039 16.9437ZM41.8922 14.8058Q41.8922 14.834 41.8781 14.8517Q41.8569 14.8799 41.8251 14.8799Q41.811 14.8799 41.7828 14.8658Q41.4547 14.6435 41.0878 14.6435Q40.7915 14.6435 40.5428 14.7899Q40.2941 14.9363 40.1494 15.1956Q40.0048 15.4549 40.0048 15.7795Q40.0048 16.104 40.1494 16.3633Q40.2941 16.6226 40.5428 16.769Q40.7915 16.9154 41.0878 16.9154Q41.4582 16.9154 41.7793 16.6967Q41.7969 16.6826 41.8216 16.6826Q41.8569 16.6826 41.8781 16.7108Q41.8922 16.7285 41.8922 16.7532Q41.8922 16.7884 41.8639 16.8096Q41.7264 16.9084 41.5094 16.9789Q41.2924 17.0495 41.0878 17.0495Q40.7527 17.0495 40.4705 16.8837Q40.1883 16.7179 40.0224 16.4268Q39.8566 16.1358 39.8566 15.7795Q39.8566 15.4232 40.0224 15.1321Q40.1883 14.8411 40.4705 14.6753Q40.7527 14.5095 41.0878 14.5095Q41.2995 14.5095 41.4988 14.573Q41.6981 14.6365 41.8604 14.7494Q41.8922 14.7741 41.8922 14.8058ZM44.1817 16.9472Q44.1817 16.9789 44.1605 16.9966Q44.1394 17.0142 44.1076 17.0142Q44.0829 17.0142 44.0635 17.0019Q44.0441 16.9895 44.0371 16.9683L43.7407 16.2416L43.7443 16.2487H42.5624L42.2767 16.9683Q42.2591 17.0142 42.2132 17.0142Q42.1814 17.0142 42.162 16.9966Q42.1426 16.9789 42.1391 16.9542Q42.1356 16.9401 42.1426 16.919L43.0916 14.5836Q43.1022 14.5553 43.1181 14.5465Q43.1339 14.5377 43.1586 14.5377Q43.2116 14.5377 43.2292 14.5836L44.1782 16.919Q44.1817 16.9295 44.1817 16.9472ZM42.6189 16.1076H43.6878L43.1481 14.7776ZM46.1502 14.6435 45.3459 15.7372V16.9437Q45.3459 16.9719 45.3247 16.993Q45.3035 17.0142 45.2718 17.0142Q45.24 17.0142 45.2189 16.993Q45.1977 16.9719 45.1977 16.9437V15.7513L44.3898 14.6435Q44.3757 14.6259 44.3757 14.5977Q44.3757 14.573 44.3987 14.5518Q44.4216 14.5307 44.4498 14.5307Q44.4886 14.5307 44.5098 14.5624L45.2718 15.6031L46.0338 14.5624Q46.0549 14.5307 46.0938 14.5307Q46.1255 14.5307 46.1449 14.5536Q46.1643 14.5765 46.1643 14.5977Q46.1643 14.6153 46.1502 14.6435Z" style="stroke:#000000;stroke-width:0.25;stroke-linecap:round;stroke-linejoin:bevel" />
        <path d="M 40.64,25.00 L 35.64,36.00 z L 45.64,36.00 z " style="stroke:#000000;stroke-width:0.1;stroke-linecap:round;stroke-linejoin:bevel;stroke-dasharray:none" />
        <path d="M61.2118 14.6153V16.9437Q61.2118 16.9719 61.1888 16.993Q61.1659 17.0142 61.1377 17.0142Q61.1059 17.0142 61.0847 16.993Q61.0636 16.9719 61.0636 16.9437V14.834L60.1534 16.2099Q60.1358 16.2381 60.104 16.2381Q60.0652 16.2381 60.0476 16.2099L59.1339 14.8305V16.9437Q59.1339 16.9719 59.1127 16.993Q59.0916 17.0142 59.0633 17.0142Q59.0316 17.0142 59.0122 16.993Q58.9928 16.9719 58.9928 16.9437V14.6153Q58.9928 14.5906 59.0122 14.5677Q59.0316 14.5448 59.0598 14.5448Q59.1057 14.5448 59.1268 14.5765L60.104 16.03L61.0812 14.5765Q61.1094 14.5377 61.1482 14.5448Q61.1765 14.5483 61.1941 14.5677Q61.2118 14.5871 61.2118 14.6153ZM63.7306 16.9472Q63.7306 16.9789 63.7094 16.9966Q63.6882 17.0142 63.6565 17.0142Q63.6318 17.0142 63.6124 17.0019Q63.593 16.9895 63.5859 16.9683L63.2896 16.2416L63.2931 16.2487H62.1113L61.8256 16.9683Q61.8079 17.0142 61.7621 17.0142Q61.7303 17.0142 61.7109 16.9966Q61.6915 16.9789 61.688 16.9542Q61.6845 16.9401 61.6915 16.919L62.6405 14.5836Q62.6511 14.5553 62.667 14.5465Q62.6828 14.5377 62.7075 14.5377Q62.7604 14.5377 62.7781 14.5836L63.7271 16.919Q63.7306 16.9295 63.7306 16.9472ZM62.1678 16.1076H63.2367L62.6969 14.7776ZM66.073 15.8677V16.7532Q66.073 16.7955 66.0413 16.8167Q65.879 16.926 65.6867 16.9877Q65.4945 17.0495 65.2969 17.0495Q64.9336 17.0495 64.646 16.8854Q64.3585 16.7214 64.1945 16.4321Q64.0304 16.1428 64.0304 15.7795Q64.0304 15.4161 64.1945 15.1268Q64.3585 14.8376 64.646 14.6735Q64.9336 14.5095 65.2969 14.5095Q65.4945 14.5095 65.6726 14.5571Q65.8508 14.6047 65.9919 14.7Q66.0236 14.7212 66.0236 14.76Q66.0236 14.7917 66.0007 14.8111Q65.9778 14.8305 65.9566 14.8305Q65.939 14.8305 65.9107 14.8164Q65.6144 14.6506 65.2969 14.6506Q64.9724 14.6506 64.7184 14.7952Q64.4644 14.9399 64.3215 15.1974Q64.1786 15.4549 64.1786 15.7795Q64.1786 16.104 64.3215 16.3616Q64.4644 16.6191 64.7184 16.7637Q64.9724 16.9084 65.2969 16.9084Q65.4592 16.9084 65.6268 16.8572Q65.7943 16.8061 65.9319 16.7214V15.9382H65.2969Q65.2687 15.9382 65.2475 15.9171Q65.2264 15.8959 65.2264 15.8677Q65.2264 15.8359 65.2475 15.8165Q65.2687 15.7971 65.2969 15.7971H66.0025Q66.0342 15.7971 66.0536 15.8183Q66.073 15.8395 66.073 15.8677ZM68.5072 14.6118V16.9366Q68.5072 16.9754 68.486 16.9948Q68.4649 17.0142 68.4331 17.0142Q68.3978 17.0142 68.3767 16.986L66.7892 14.8164V16.9542Q66.7892 16.9789 66.7698 16.9966Q66.7504 17.0142 66.7221 17.0142Q66.6904 17.0142 66.6728 16.9966Q66.6551 16.9789 66.6551 16.9542V14.6153Q66.6551 14.58 66.6745 14.5624Q66.6939 14.5448 66.7186 14.5448Q66.7504 14.5448 66.7715 14.5695L68.3731 16.7532V14.6118Q68.3731 14.5836 68.3925 14.5642Q68.4119 14.5448 68.4402 14.5448Q68.4719 14.5448 68.4896 14.5642Q68.5072 14.5836 68.5072 14.6118ZM70.6838 16.9437Q70.6838 16.9754 70.6627 16.9948Q70.6415 17.0142 70.6133 17.0142H69.2833Q69.2551 17.0142 69.2339 16.993Q69.2127 16.9719 69.2127 16.9437V14.6153Q69.2127 14.5871 69.2339 14.5659Q69.2551 14.5448 69.2833 14.5448H70.6133Q70.6415 14.5448 70.6627 14.5659Q70.6838 14.5871 70.6838 14.6153Q70.6838 14.6471 70.6627 14.6665Q70.6415 14.6859 70.6133 14.6859H69.3609V15.6701H70.4545Q70.4828 15.6701 70.5039 15.6913Q70.5251 15.7125 70.5251 15.7407Q70.5251 15.7724 70.5039 15.7918Q70.4828 15.8112 70.4545 15.8112H69.3609V16.8731H70.6133Q70.6415 16.8731 70.6627 16.8943Q70.6838 16.9154 70.6838 16.9437ZM72.8393 14.6118Q72.8393 14.6435 72.8199 14.6612Q72.8005 14.6788 72.7687 14.6788H71.9821V16.9437Q71.9821 16.9719 71.9609 16.993Q71.9397 17.0142 71.9115 17.0142Q71.8798 17.0142 71.8603 16.993Q71.8409 16.9719 71.8409 16.9437V14.6788H71.0542Q71.026 14.6788 71.0049 14.6594Q70.9837 14.64 70.9837 14.6118Q70.9837 14.5836 71.0049 14.5642Q71.026 14.5448 71.0542 14.5448H72.7687Q72.797 14.5448 72.8181 14.5642Q72.8393 14.5836 72.8393 14.6118Z" style="stroke:#000000;stroke-width:0.25;stroke-linecap:round;stroke-linejoin:bevel" />
        <path d="M 65.64,25.00 L 60.64,36.00 z L 70.64,36.00 z " style="stroke:#000000;stroke-width:0.1;stroke-linecap:round;stroke-linejoin:bevel;stroke-dasharray:none" />
        <path d="M64.5669 47.5142Q64.5316 47.5142 64.5122 47.493Q64.4928 47.4719 64.4928 47.4401V45.1188Q64.4928 45.0871 64.5139 45.0659Q64.5351 45.0448 64.5669 45.0448Q64.5986 45.0448 64.6198 45.0659Q64.6409 45.0871 64.6409 45.1188V47.4401Q64.6374 47.4719 64.6163 47.493Q64.5951 47.5142 64.5669 47.5142ZM67.1986 45.1118V47.4366Q67.1986 47.4754 67.1774 47.4948Q67.1562 47.5142 67.1245 47.5142Q67.0892 47.5142 67.0681 47.486L65.4806 45.3164V47.4542Q65.4806 47.4789 65.4612 47.4966Q65.4417 47.5142 65.4135 47.5142Q65.3818 47.5142 65.3641 47.4966Q65.3465 47.4789 65.3465 47.4542V45.1153Q65.3465 45.08 65.3659 45.0624Q65.3853 45.0448 65.41 45.0448Q65.4417 45.0448 65.4629 45.0695L67.0645 47.2532V45.1118Q67.0645 45.0836 67.0839 45.0642Q67.1033 45.0448 67.1316 45.0448Q67.1633 45.0448 67.1809 45.0642Q67.1986 45.0836 67.1986 45.1118Z" style="stroke:#000000;stroke-width:0.25;stroke-linecap:round;stroke-linejoin:bevel" />
        <path d="M 65.64,55.50 L 60.64,66.50 z L 70.64,66.50 z " style="stroke:#000000;stroke-width:0.1;stroke-linecap:round;stroke-linejoin:bevel;stroke-dasharray:none" />
        <path d="M13.4947 95.0495Q13.1525 95.0495 12.8844 94.889Q12.6163 94.7285 12.4663 94.4392Q12.3164 94.1499 12.3164 93.7795Q12.3164 93.4091 12.4663 93.1198Q12.6163 92.8305 12.8844 92.67Q13.1525 92.5095 13.4947 92.5095Q13.8369 92.5095 14.105 92.67Q14.3731 92.8305 14.523 93.1198Q14.6729 93.4091 14.6729 93.7795Q14.6729 94.1499 14.523 94.4392Q14.3731 94.7285 14.105 94.889Q13.8369 95.0495 13.4947 95.0495ZM13.4947 92.6506Q13.1948 92.6506 12.9602 92.7917Q12.7256 92.9328 12.5951 93.1903Q12.4646 93.4479 12.4646 93.7795Q12.4646 94.1111 12.5951 94.3686Q12.7256 94.6262 12.9602 94.7673Q13.1948 94.9084 13.4947 94.9084Q13.7945 94.9084 14.0291 94.7673Q14.2637 94.6262 14.3942 94.3686Q14.5248 94.1111 14.5248 93.7795Q14.5248 93.4479 14.3942 93.1903Q14.2637 92.9328 14.0291 92.7917Q13.7945 92.6506 13.4947 92.6506ZM17.0189 92.6153V94.1393Q17.0189 94.3863 16.8954 94.5944Q16.772 94.8025 16.5638 94.926Q16.3557 95.0495 16.1123 95.0495Q15.8653 95.0495 15.6572 94.926Q15.4491 94.8025 15.3256 94.5944Q15.2021 94.3863 15.2021 94.1393V92.6153Q15.2021 92.5836 15.2233 92.5642Q15.2444 92.5448 15.2762 92.5448Q15.3079 92.5448 15.3291 92.5659Q15.3503 92.5871 15.3503 92.6153V94.1393Q15.3503 94.3475 15.4526 94.5238Q15.5549 94.7002 15.7295 94.8043Q15.9041 94.9084 16.1123 94.9084Q16.3204 94.9084 16.495 94.8043Q16.6697 94.7002 16.7737 94.5238Q16.8778 94.3475 16.8778 94.1393V92.6153Q16.8778 92.5871 16.8972 92.5659Q16.9166 92.5448 16.9484 92.5448Q16.9801 92.5448 16.9995 92.5659Q17.0189 92.5871 17.0189 92.6153ZM19.3508 92.6118Q19.3508 92.6435 19.3314 92.6612Q19.312 92.6788 19.2802 92.6788H18.4935V94.9437Q18.4935 94.9719 18.4724 94.993Q18.4512 95.0142 18.423 95.0142Q18.3912 95.0142 18.3718 94.993Q18.3524 94.9719 18.3524 94.9437V92.6788H17.5657Q17.5375 92.6788 17.5163 92.6594Q17.4952 92.64 17.4952 92.6118Q17.4952 92.5836 17.5163 92.5642Q17.5375 92.5448 17.5657 92.5448H19.2802Q19.3084 92.5448 19.3296 92.5642Q19.3508 92.5836 19.3508 92.6118Z" style="stroke:#000000;stroke-width:0.25;stroke-linecap:round;stroke-linejoin:bevel" />
        <path d="M 15.64,103.00 L 10.64,114.00 z L 20.64,114.00 z " style="stroke:#000000;stroke-width:0.1;stroke-linecap:round;stroke-linejoin:bevel;stroke-dasharray:none" />
    </g>
</svg>
