<?xml version="1.0" encoding="utf-8"?>
<svg xmlns="http://www.w3.org/2000/svg" width="20.32mm" height="128.50mm" viewBox="0 0 20.32 128.50">
    <g id="PanelLayer">
        <defs />
        <g id="ControlLayer" style="display:none;" />
        <rect id="border_rect" width="20.32" height="128.5" x="0" y="0" style="display:inline;fill:#4f8df2;fill-opacity:1;fill-rule:nonzero;stroke:#5021d4;stroke-width:0.7;stroke-linecap:round;stroke-linejoin:round;stroke-dasharray:none;stroke-opacity:1;image-rendering:auto" />
        <path id="sapphire_gemstone" d="m 12.875,122.900 q 0,0.34175 -0.242534,0.63114 -0.0441,0.0524 -0.20395,0.21497 -0.187413,0.19017 -0.785481,0.81304 l -1.444183,1.51309 q -0.01929,0.003 -0.0441,0.003 -0.02756,0 -0.04134,-0.003 -0.08268,-0.0827 -0.647678,-0.67524 -0.468532,-0.47404 -0.934309,-0.94809 -0.556727,-0.56775 -0.89848,-0.98116 -0.132292,-0.15985 -0.168121,-0.29766 -0.02756,-0.10197 -0.02756,-0.34175 0,-0.11024 0.07166,-0.28939 0.06614,-0.16536 0.140559,-0.26458 0.118512,-0.1571 0.42168,-0.42444 0.283875,-0.2508 0.474044,-0.37482 0.272852,-0.17915 0.818555,-0.36656 0.09646,-0.0331 0.110243,-0.0331 h 1.3615 q 0.01102,0 0.104731,0.0331 0.567751,0.20119 0.824066,0.36656 0.165365,0.10473 0.474045,0.37758 0.322461,0.28388 0.421679,0.42168 0.214974,0.2949 0.214974,0.62563 z m -0.16812,-0.27285 q -0.03307,-0.10749 -0.135048,-0.30868 -0.07166,-0.0937 -0.209462,-0.19844 -0.118511,-0.0854 -0.234266,-0.17088 0.245291,0.3638 0.578776,0.678 z m -0.573264,-0.52366 -0.358289,-0.44648 v 0.41065 z m 0.636653,0.75792 q 0,-0.0524 -0.341753,-0.39412 l 0.228754,0.7028 h 0.04961 q 0.06339,-0.21773 0.06339,-0.30868 z m -0.23151,0.27285 -0.316948,-0.90399 -0.410655,-0.0634 -0.159853,0.61461 z m 0.0028,0.15434 -0.771701,-0.3197 h -0.03032 l 0.344509,0.60634 q 0.07993,-0.003 0.234266,-0.0469 0.02481,-0.0138 0.223242,-0.23978 z m -0.857139,-1.05006 -0.719335,0.28388 0.60358,0.22599 z m 0,-0.16261 v -0.51538 l -0.917773,-0.38034 h -1.223697 l -0.917772,0.38034 v 0.51538 l 0.89848,0.4079 h 1.254014 z m 0.573264,1.53789 q -0.0689,0.011 -0.198438,0.0524 -0.08544,0.0551 -0.259071,0.16261 0.01929,0 0.06339,0.003 0.04134,0 0.06339,0 0.118511,0 0.190169,-0.0689 0.07166,-0.0717 0.14056,-0.14883 z m -0.289388,0.003 -0.347266,-0.63114 -0.363801,0.87918 q 0.0248,-0.0165 0.06615,-0.0165 0.03032,0 0.08544,0.011 0.05788,0.008 0.08819,0.008 0.04961,0 0.228754,-0.10749 0.228754,-0.1378 0.242535,-0.14331 z m -0.440972,-0.74139 -0.683507,-0.2756 -0.592556,0.54845 0.903993,0.65595 z m -0.854383,-0.28387 h -1.036284 l 0.523654,0.47404 z m 0.749652,1.36701 q -0.228754,-0.0303 -0.228754,-0.0303 -0.03583,0 -0.272851,0.0937 l 0.190169,0.0193 q 0.01102,0 0.311436,-0.0827 z m -0.388606,-0.0882 -0.843359,-0.61185 v 0.67524 l 0.471289,0.0827 z m 0.854383,0.0496 q -0.09922,0.006 -0.2949,0.0386 -0.01102,0.003 -0.377583,0.17639 -0.129535,0.34726 -0.380338,1.0418 z m -2.543857,-1.39733 -0.719335,-0.28388 0.124023,0.51814 z m -0.802018,-0.45476 v -0.41065 l -0.366557,0.44648 z m 1.515841,1.07212 -0.592556,-0.54019 -0.683506,0.2756 0.380338,0.9288 z m 0.369314,0.94257 q -0.03307,-0.003 -0.135047,-0.0248 -0.08544,-0.0165 -0.137804,-0.0165 -0.05237,0 -0.137804,0.0165 -0.101975,0.0221 -0.135047,0.0248 0.264583,0.0469 0.272851,0.0469 0.0083,0 0.272851,-0.0469 z m -0.30868,-0.1378 v -0.68626 l -0.843359,0.61185 0.37207,0.14607 z m 0.950846,0.20671 -0.396875,-0.0551 -0.479557,0.14056 v 1.27607 z m -2.888366,-2.20211 q -0.118512,0.0854 -0.234267,0.17364 -0.146072,0.10748 -0.209461,0.19568 -0.0441,0.10473 -0.135048,0.31419 0.369314,-0.3638 0.578776,-0.68351 z m 0.476801,0.83234 -0.159853,-0.61461 -0.410655,0.0634 -0.316948,0.90399 z m 0.394118,1.08313 -0.363802,-0.87918 -0.355533,0.63114 q 0.43546,0.2508 0.451996,0.2508 0.09095,0 0.267339,-0.003 z m 1.821765,0.82958 q -0.132291,0.21222 -0.405143,0.6339 -0.07717,0.10749 -0.220486,0.32797 -0.05788,0.10473 -0.05512,0.226 0.159852,-0.15158 0.432704,-0.49609 0.07717,-0.12954 0.140559,-0.339 0.05512,-0.17639 0.107486,-0.35278 z m -1.493792,-0.66146 -0.270095,-0.0882 -0.0083,-0.011 q -0.02481,0 -0.107487,0.011 -0.06615,0.006 -0.107487,0.006 0.272851,0.091 0.311436,0.091 0.02481,0 0.181901,-0.008 z m -0.810286,-1.06384 h -0.03032 l -0.7717,0.3197 q 0.06615,0.0965 0.223242,0.23978 0.07717,0.0138 0.234266,0.0469 z m -0.689018,-0.50161 q -0.341754,0.34727 -0.341754,0.39412 0,0.0799 0.06339,0.30868 h 0.04961 z m 2.235176,3.04547 v -1.27607 l -0.479557,-0.14056 -0.396875,0.0551 z m -1.606791,-1.6757 q -0.256315,-0.1819 -0.457509,-0.22324 0.06615,0.0772 0.20395,0.22324 z m 1.609547,2.04501 v -0.1378 l -0.683507,-1.05007 q 0.05237,0.17639 0.107487,0.35278 0.06339,0.20946 0.14056,0.339 0.0689,0.11851 0.20395,0.25907 0.115755,0.11851 0.23151,0.23702 z m -0.644921,-0.70555 q -0.115756,-0.32798 -0.380339,-1.0418 -0.135047,-0.0662 -0.272851,-0.12954 -0.159852,-0.0716 -0.289388,-0.0716 -0.05237,0 -0.110243,-0.0138 z" style="stroke-width:0;fill:#0000ff;stroke:#2e2114;stroke-linecap:square;stroke-opacity:1" />
        <path id="model_name" d="M7.50182 6.21098Q7.50182 6.76978 7.26511 7.22381Q7.02839 7.67783 6.61705 7.93783Q6.20571 8.19782 5.70124 8.19782Q5.23558 8.19782 4.84752 7.96499Q4.45946 7.73216 4.21111 7.3053V9.54826Q4.21111 9.61035 4.16842 9.65691Q4.12574 9.70348 4.05589 9.70348Q3.9938 9.70348 3.94723 9.65691Q3.90066 9.61035 3.90066 9.54826V4.38712Q3.90066 4.32503 3.94335 4.27846Q3.98604 4.2319 4.05589 4.2319Q4.12574 4.2319 4.16842 4.27846Q4.21111 4.32503 4.21111 4.38712V5.10114Q4.44394 4.65876 4.832 4.44533Q5.22005 4.2319 5.70124 4.2319Q6.21348 4.2319 6.62481 4.48801Q7.03615 4.74413 7.26899 5.19428Q7.50182 5.64442 7.50182 6.21098ZM7.19137 6.21098Q7.19137 5.72979 6.99347 5.34562Q6.79556 4.96144 6.45407 4.74413Q6.11258 4.52682 5.68572 4.52682Q5.2511 4.52682 4.90573 4.74025Q4.56036 4.95368 4.37021 5.33786Q4.18006 5.72203 4.18006 6.21098Q4.18006 6.69993 4.37021 7.08411Q4.56036 7.46828 4.90573 7.68559Q5.2511 7.9029 5.68572 7.9029Q6.11258 7.9029 6.45407 7.68559Q6.79556 7.46828 6.99347 7.08022Q7.19137 6.69217 7.19137 6.21098ZM10.1639 8.22887Q9.62836 8.22887 9.18986 7.96111Q8.75136 7.69335 8.49912 7.22769Q8.24689 6.76202 8.24689 6.19546Q8.24689 5.62114 8.49912 5.15547Q8.75136 4.6898 9.18598 4.42204Q9.6206 4.15429 10.1639 4.15429Q10.6994 4.15429 11.1379 4.42204Q11.5764 4.6898 11.8248 5.15547Q12.0731 5.62114 12.0731 6.19546Q12.0731 6.76978 11.8248 7.23157Q11.5764 7.69335 11.1379 7.96111Q10.6994 8.22887 10.1639 8.22887ZM10.1639 4.44921Q9.71374 4.44921 9.34508 4.67816Q8.97643 4.90711 8.76688 5.30293Q8.55733 5.69875 8.55733 6.19546Q8.55733 6.68441 8.76688 7.08022Q8.97643 7.47604 9.34508 7.70499Q9.71374 7.93395 10.1639 7.93395Q10.6218 7.93395 10.9866 7.70887Q11.3513 7.4838 11.557 7.08411Q11.7627 6.68441 11.7627 6.19546Q11.7627 5.69875 11.557 5.30293Q11.3513 4.90711 10.9866 4.67816Q10.6218 4.44921 10.1639 4.44921ZM16.691 6.21098Q16.691 6.76978 16.4543 7.22381Q16.2175 7.67783 15.8062 7.93783Q15.3949 8.19782 14.8904 8.19782Q14.4247 8.19782 14.0367 7.96499Q13.6486 7.73216 13.4003 7.3053V9.54826Q13.4003 9.61035 13.3576 9.65691Q13.3149 9.70348 13.245 9.70348Q13.183 9.70348 13.1364 9.65691Q13.0898 9.61035 13.0898 9.54826V4.38712Q13.0898 4.32503 13.1325 4.27846Q13.1752 4.2319 13.245 4.2319Q13.3149 4.2319 13.3576 4.27846Q13.4003 4.32503 13.4003 4.38712V5.10114Q13.6331 4.65876 14.0212 4.44533Q14.4092 4.2319 14.8904 4.2319Q15.4026 4.2319 15.814 4.48801Q16.2253 4.74413 16.4581 5.19428Q16.691 5.64442 16.691 6.21098ZM16.3805 6.21098Q16.3805 5.72979 16.1826 5.34562Q15.9847 4.96144 15.6432 4.74413Q15.3017 4.52682 14.8749 4.52682Q14.4403 4.52682 14.0949 4.74025Q13.7495 4.95368 13.5594 5.33786Q13.3692 5.72203 13.3692 6.21098Q13.3692 6.69993 13.5594 7.08411Q13.7495 7.46828 14.0949 7.68559Q14.4403 7.9029 14.8749 7.9029Q15.3017 7.9029 15.6432 7.68559Q15.9847 7.46828 16.1826 7.08022Q16.3805 6.69217 16.3805 6.21098Z" style="display:inline;stroke:#000000;stroke-width:0.35;stroke-linecap:round;stroke-linejoin:bevel" />
    </g>
</svg>
