<?xml version="1.0" encoding="utf-8"?>
<svg xmlns="http://www.w3.org/2000/svg" width="20.32mm" height="128.50mm" viewBox="0 0 20.32 128.50">
    <g id="PanelLayer">
        <defs>
            <linearGradient id="gradient_blue" x1="0" y1="13" x2="0" y2="51" gradientUnits="userSpaceOnUse">
                <stop style="stop-color:#3068ff;stop-opacity:1;" offset="0" />
                <stop style="stop-color:#4f8df2;stop-opacity:1;" offset="1" />
            </linearGradient>
            <linearGradient id="gradient_purple" x1="0" y1="44" x2="0" y2="82" gradientUnits="userSpaceOnUse">
                <stop style="stop-color:#a06de4;stop-opacity:1;" offset="0" />
                <stop style="stop-color:#4f8df2;stop-opacity:1;" offset="1" />
            </linearGradient>
            <linearGradient id="gradient_out" x1="0" y1="103.5" x2="0" y2="113.6" gradientUnits="userSpaceOnUse">
                <stop style="stop-color:#29aab4;stop-opacity:1;" offset="0" />
                <stop style="stop-color:#4f8df2;stop-opacity:1;" offset="1" />
            </linearGradient>
        </defs>
        <g id="ControlLayer" style="display:none;">
            <circle id="speed_knob" cx="10.16" cy="26" r="1" />
            <circle id="speed_atten" cx="5.16" cy="37" r="1" />
            <circle id="speed_cv" cx="15.16" cy="37" r="1" />
            <circle id="chaos_knob" cx="10.16" cy="57" r="1" />
            <circle id="chaos_atten" cx="5.16" cy="68" r="1" />
            <circle id="chaos_cv" cx="15.16" cy="68" r="1" />
            <circle id="trigger_output" cx="10.16" cy="115" r="1" />
        </g>
        <rect id="border_rect" width="20.32" height="128.5" x="0" y="0" style="display:inline;fill:#4f8df2;fill-opacity:1;fill-rule:nonzero;stroke:#5021d4;stroke-width:0.7;stroke-linecap:round;stroke-linejoin:round;stroke-dasharray:none;stroke-opacity:1;image-rendering:auto" />
        <path id="sapphire_gemstone" d="m 12.875,122.900 q 0,0.34175 -0.242534,0.63114 -0.0441,0.0524 -0.20395,0.21497 -0.187413,0.19017 -0.785481,0.81304 l -1.444183,1.51309 q -0.01929,0.003 -0.0441,0.003 -0.02756,0 -0.04134,-0.003 -0.08268,-0.0827 -0.647678,-0.67524 -0.468532,-0.47404 -0.934309,-0.94809 -0.556727,-0.56775 -0.89848,-0.98116 -0.132292,-0.15985 -0.168121,-0.29766 -0.02756,-0.10197 -0.02756,-0.34175 0,-0.11024 0.07166,-0.28939 0.06614,-0.16536 0.140559,-0.26458 0.118512,-0.1571 0.42168,-0.42444 0.283875,-0.2508 0.474044,-0.37482 0.272852,-0.17915 0.818555,-0.36656 0.09646,-0.0331 0.110243,-0.0331 h 1.3615 q 0.01102,0 0.104731,0.0331 0.567751,0.20119 0.824066,0.36656 0.165365,0.10473 0.474045,0.37758 0.322461,0.28388 0.421679,0.42168 0.214974,0.2949 0.214974,0.62563 z m -0.16812,-0.27285 q -0.03307,-0.10749 -0.135048,-0.30868 -0.07166,-0.0937 -0.209462,-0.19844 -0.118511,-0.0854 -0.234266,-0.17088 0.245291,0.3638 0.578776,0.678 z m -0.573264,-0.52366 -0.358289,-0.44648 v 0.41065 z m 0.636653,0.75792 q 0,-0.0524 -0.341753,-0.39412 l 0.228754,0.7028 h 0.04961 q 0.06339,-0.21773 0.06339,-0.30868 z m -0.23151,0.27285 -0.316948,-0.90399 -0.410655,-0.0634 -0.159853,0.61461 z m 0.0028,0.15434 -0.771701,-0.3197 h -0.03032 l 0.344509,0.60634 q 0.07993,-0.003 0.234266,-0.0469 0.02481,-0.0138 0.223242,-0.23978 z m -0.857139,-1.05006 -0.719335,0.28388 0.60358,0.22599 z m 0,-0.16261 v -0.51538 l -0.917773,-0.38034 h -1.223697 l -0.917772,0.38034 v 0.51538 l 0.89848,0.4079 h 1.254014 z m 0.573264,1.53789 q -0.0689,0.011 -0.198438,0.0524 -0.08544,0.0551 -0.259071,0.16261 0.01929,0 0.06339,0.003 0.04134,0 0.06339,0 0.118511,0 0.190169,-0.0689 0.07166,-0.0717 0.14056,-0.14883 z m -0.289388,0.003 -0.347266,-0.63114 -0.363801,0.87918 q 0.0248,-0.0165 0.06615,-0.0165 0.03032,0 0.08544,0.011 0.05788,0.008 0.08819,0.008 0.04961,0 0.228754,-0.10749 0.228754,-0.1378 0.242535,-0.14331 z m -0.440972,-0.74139 -0.683507,-0.2756 -0.592556,0.54845 0.903993,0.65595 z m -0.854383,-0.28387 h -1.036284 l 0.523654,0.47404 z m 0.749652,1.36701 q -0.228754,-0.0303 -0.228754,-0.0303 -0.03583,0 -0.272851,0.0937 l 0.190169,0.0193 q 0.01102,0 0.311436,-0.0827 z m -0.388606,-0.0882 -0.843359,-0.61185 v 0.67524 l 0.471289,0.0827 z m 0.854383,0.0496 q -0.09922,0.006 -0.2949,0.0386 -0.01102,0.003 -0.377583,0.17639 -0.129535,0.34726 -0.380338,1.0418 z m -2.543857,-1.39733 -0.719335,-0.28388 0.124023,0.51814 z m -0.802018,-0.45476 v -0.41065 l -0.366557,0.44648 z m 1.515841,1.07212 -0.592556,-0.54019 -0.683506,0.2756 0.380338,0.9288 z m 0.369314,0.94257 q -0.03307,-0.003 -0.135047,-0.0248 -0.08544,-0.0165 -0.137804,-0.0165 -0.05237,0 -0.137804,0.0165 -0.101975,0.0221 -0.135047,0.0248 0.264583,0.0469 0.272851,0.0469 0.0083,0 0.272851,-0.0469 z m -0.30868,-0.1378 v -0.68626 l -0.843359,0.61185 0.37207,0.14607 z m 0.950846,0.20671 -0.396875,-0.0551 -0.479557,0.14056 v 1.27607 z m -2.888366,-2.20211 q -0.118512,0.0854 -0.234267,0.17364 -0.146072,0.10748 -0.209461,0.19568 -0.0441,0.10473 -0.135048,0.31419 0.369314,-0.3638 0.578776,-0.68351 z m 0.476801,0.83234 -0.159853,-0.61461 -0.410655,0.0634 -0.316948,0.90399 z m 0.394118,1.08313 -0.363802,-0.87918 -0.355533,0.63114 q 0.43546,0.2508 0.451996,0.2508 0.09095,0 0.267339,-0.003 z m 1.821765,0.82958 q -0.132291,0.21222 -0.405143,0.6339 -0.07717,0.10749 -0.220486,0.32797 -0.05788,0.10473 -0.05512,0.226 0.159852,-0.15158 0.432704,-0.49609 0.07717,-0.12954 0.140559,-0.339 0.05512,-0.17639 0.107486,-0.35278 z m -1.493792,-0.66146 -0.270095,-0.0882 -0.0083,-0.011 q -0.02481,0 -0.107487,0.011 -0.06615,0.006 -0.107487,0.006 0.272851,0.091 0.311436,0.091 0.02481,0 0.181901,-0.008 z m -0.810286,-1.06384 h -0.03032 l -0.7717,0.3197 q 0.06615,0.0965 0.223242,0.23978 0.07717,0.0138 0.234266,0.0469 z m -0.689018,-0.50161 q -0.341754,0.34727 -0.341754,0.39412 0,0.0799 0.06339,0.30868 h 0.04961 z m 2.235176,3.04547 v -1.27607 l -0.479557,-0.14056 -0.396875,0.0551 z m -1.606791,-1.6757 q -0.256315,-0.1819 -0.457509,-0.22324 0.06615,0.0772 0.20395,0.22324 z m 1.609547,2.04501 v -0.1378 l -0.683507,-1.05007 q 0.05237,0.17639 0.107487,0.35278 0.06339,0.20946 0.14056,0.339 0.0689,0.11851 0.20395,0.25907 0.115755,0.11851 0.23151,0.23702 z m -0.644921,-0.70555 q -0.115756,-0.32798 -0.380339,-1.0418 -0.135047,-0.0662 -0.272851,-0.12954 -0.159852,-0.0716 -0.289388,-0.0716 -0.05237,0 -0.110243,-0.0138 z" style="stroke-width:0;fill:#0000ff;stroke:#2e2114;stroke-linecap:square;stroke-opacity:1" />
        <path id="model_name" d="M7.50182 6.21098Q7.50182 6.76978 7.26511 7.22381Q7.02839 7.67783 6.61705 7.93783Q6.20571 8.19782 5.70124 8.19782Q5.23558 8.19782 4.84752 7.96499Q4.45946 7.73216 4.21111 7.3053V9.54826Q4.21111 9.61035 4.16842 9.65691Q4.12574 9.70348 4.05589 9.70348Q3.9938 9.70348 3.94723 9.65691Q3.90066 9.61035 3.90066 9.54826V4.38712Q3.90066 4.32503 3.94335 4.27846Q3.98604 4.2319 4.05589 4.2319Q4.12574 4.2319 4.16842 4.27846Q4.21111 4.32503 4.21111 4.38712V5.10114Q4.44394 4.65876 4.832 4.44533Q5.22005 4.2319 5.70124 4.2319Q6.21348 4.2319 6.62481 4.48801Q7.03615 4.74413 7.26899 5.19428Q7.50182 5.64442 7.50182 6.21098ZM7.19137 6.21098Q7.19137 5.72979 6.99347 5.34562Q6.79556 4.96144 6.45407 4.74413Q6.11258 4.52682 5.68572 4.52682Q5.2511 4.52682 4.90573 4.74025Q4.56036 4.95368 4.37021 5.33786Q4.18006 5.72203 4.18006 6.21098Q4.18006 6.69993 4.37021 7.08411Q4.56036 7.46828 4.90573 7.68559Q5.2511 7.9029 5.68572 7.9029Q6.11258 7.9029 6.45407 7.68559Q6.79556 7.46828 6.99347 7.08022Q7.19137 6.69217 7.19137 6.21098ZM10.1639 8.22887Q9.62836 8.22887 9.18986 7.96111Q8.75136 7.69335 8.49912 7.22769Q8.24689 6.76202 8.24689 6.19546Q8.24689 5.62114 8.49912 5.15547Q8.75136 4.6898 9.18598 4.42204Q9.6206 4.15429 10.1639 4.15429Q10.6994 4.15429 11.1379 4.42204Q11.5764 4.6898 11.8248 5.15547Q12.0731 5.62114 12.0731 6.19546Q12.0731 6.76978 11.8248 7.23157Q11.5764 7.69335 11.1379 7.96111Q10.6994 8.22887 10.1639 8.22887ZM10.1639 4.44921Q9.71374 4.44921 9.34508 4.67816Q8.97643 4.90711 8.76688 5.30293Q8.55733 5.69875 8.55733 6.19546Q8.55733 6.68441 8.76688 7.08022Q8.97643 7.47604 9.34508 7.70499Q9.71374 7.93395 10.1639 7.93395Q10.6218 7.93395 10.9866 7.70887Q11.3513 7.4838 11.557 7.08411Q11.7627 6.68441 11.7627 6.19546Q11.7627 5.69875 11.557 5.30293Q11.3513 4.90711 10.9866 4.67816Q10.6218 4.44921 10.1639 4.44921ZM16.691 6.21098Q16.691 6.76978 16.4543 7.22381Q16.2175 7.67783 15.8062 7.93783Q15.3949 8.19782 14.8904 8.19782Q14.4247 8.19782 14.0367 7.96499Q13.6486 7.73216 13.4003 7.3053V9.54826Q13.4003 9.61035 13.3576 9.65691Q13.3149 9.70348 13.245 9.70348Q13.183 9.70348 13.1364 9.65691Q13.0898 9.61035 13.0898 9.54826V4.38712Q13.0898 4.32503 13.1325 4.27846Q13.1752 4.2319 13.245 4.2319Q13.3149 4.2319 13.3576 4.27846Q13.4003 4.32503 13.4003 4.38712V5.10114Q13.6331 4.65876 14.0212 4.44533Q14.4092 4.2319 14.8904 4.2319Q15.4026 4.2319 15.814 4.48801Q16.2253 4.74413 16.4581 5.19428Q16.691 5.64442 16.691 6.21098ZM16.3805 6.21098Q16.3805 5.72979 16.1826 5.34562Q15.9847 4.96144 15.6432 4.74413Q15.3017 4.52682 14.8749 4.52682Q14.4403 4.52682 14.0949 4.74025Q13.7495 4.95368 13.5594 5.33786Q13.3692 5.72203 13.3692 6.21098Q13.3692 6.69993 13.5594 7.08411Q13.7495 7.46828 14.0949 7.68559Q14.4403 7.9029 14.8749 7.9029Q15.3017 7.9029 15.6432 7.68559Q15.9847 7.46828 16.1826 7.08022Q16.3805 6.69217 16.3805 6.21098Z" style="display:inline;stroke:#000000;stroke-width:0.35;stroke-linecap:round;stroke-linejoin:bevel" />
        <path id="speed_art" d="M 0.38,51.00 L 0.38,17.00 A 4 4 0 0 1 4.38 13 L 15.94,13.00 A 4 4 0 0 1 19.94 17 L 19.94,13.00 L 19.94,51.00 z" style="fill:url(#gradient_blue);fill-opacity:1;stroke-width:0;" />
        <path id="chaos_art" d="M 0.38,82.00 L 0.38,48.00 A 4 4 0 0 1 4.38 44 L 15.94,44.00 A 4 4 0 0 1 19.94 48 L 19.94,44.00 L 19.94,82.00 z" style="fill:url(#gradient_purple);fill-opacity:1;stroke-width:0;" />
        <path id="out_art" d="M 0.38,113.60 L 0.38,107.50 A 4 4 0 0 1 4.38 103.5 L 15.94,103.50 A 4 4 0 0 1 19.94 107.5 L 19.94,103.50 L 19.94,113.60 z" style="fill:url(#gradient_out);fill-opacity:1;stroke-width:0;" />
        <g id="connector_lines" style="fill:none;stroke:#000000;stroke-width:0.25;stroke-linecap:round;stroke-linejoin:bevel;stroke-dasharray:none">
            <line x1="10.16" y1="26.00" x2="5.16" y2="37.00" />
            <line x1="10.16" y1="26.00" x2="15.16" y2="37.00" />
            <line x1="10.16" y1="57.00" x2="5.16" y2="68.00" />
            <line x1="10.16" y1="57.00" x2="15.16" y2="68.00" />
        </g>
        <path d="M4.80464 17.6791Q4.78347 17.6579 4.78347 17.6262Q4.78347 17.5979 4.80817 17.5715Q4.83286 17.545 4.86108 17.545Q4.89283 17.545 4.92106 17.5768Q5.05864 17.739 5.24737 17.8237Q5.43611 17.9084 5.64425 17.9084Q5.91589 17.9084 6.09228 17.7778Q6.26867 17.6473 6.26867 17.4321Q6.26514 17.2628 6.17694 17.1534Q6.08875 17.0441 5.95999 16.9788Q5.83122 16.9135 5.60897 16.8324Q5.36556 16.7407 5.22974 16.6701Q5.09392 16.5996 4.9969 16.469Q4.89989 16.3385 4.89989 16.1268Q4.89989 15.954 4.99514 15.8129Q5.09039 15.6718 5.26678 15.5906Q5.44317 15.5095 5.676 15.5095Q5.88414 15.5095 6.07111 15.5853Q6.25808 15.6612 6.36744 15.7988Q6.40272 15.8482 6.40272 15.8728Q6.40272 15.9011 6.37626 15.924Q6.34981 15.9469 6.31806 15.9469Q6.28983 15.9469 6.27219 15.9258Q6.17342 15.7988 6.01819 15.7247Q5.86297 15.6506 5.676 15.6506Q5.40789 15.6506 5.22974 15.7776Q5.05158 15.9046 5.05158 16.1233Q5.05158 16.275 5.13801 16.3808Q5.22444 16.4867 5.35497 16.5519Q5.4855 16.6172 5.67953 16.6878Q5.92647 16.776 6.07111 16.85Q6.21575 16.9241 6.31806 17.0652Q6.42036 17.2063 6.42036 17.4392Q6.42036 17.6015 6.32511 17.7426Q6.22986 17.8837 6.05171 17.9666Q5.87356 18.0495 5.64425 18.0495Q5.38319 18.0495 5.18917 17.9595Q4.99514 17.8696 4.80464 17.6791ZM8.53703 16.2186Q8.53703 16.4161 8.45413 16.5766Q8.37122 16.7372 8.21953 16.8271Q8.06783 16.9171 7.87028 16.9171H7.10122V17.9437Q7.10122 17.9719 7.07829 17.993Q7.05536 18.0142 7.02714 18.0142Q6.99539 18.0142 6.97422 17.993Q6.95306 17.9719 6.95306 17.9437V15.6153Q6.95306 15.5871 6.97422 15.5659Q6.99539 15.5448 7.02361 15.5448H7.87028Q8.17014 15.5448 8.35358 15.7317Q8.53703 15.9187 8.53703 16.2186ZM8.38886 16.2186Q8.38886 15.9752 8.24951 15.8305Q8.11017 15.6859 7.87028 15.6859H7.10122V16.776H7.87028Q8.10664 16.776 8.24775 16.619Q8.38886 16.462 8.38886 16.2186ZM10.5196 17.9437Q10.5196 17.9754 10.4985 17.9948Q10.4773 18.0142 10.4491 18.0142H9.11911Q9.09089 18.0142 9.06972 17.993Q9.04856 17.9719 9.04856 17.9437V15.6153Q9.04856 15.5871 9.06972 15.5659Q9.09089 15.5448 9.11911 15.5448H10.4491Q10.4773 15.5448 10.4985 15.5659Q10.5196 15.5871 10.5196 15.6153Q10.5196 15.6471 10.4985 15.6665Q10.4773 15.6859 10.4491 15.6859H9.19672V16.6701H10.2903Q10.3186 16.6701 10.3397 16.6913Q10.3609 16.7125 10.3609 16.7407Q10.3609 16.7724 10.3397 16.7918Q10.3186 16.8112 10.2903 16.8112H9.19672V17.8731H10.4491Q10.4773 17.8731 10.4985 17.8943Q10.5196 17.9154 10.5196 17.9437ZM12.5199 17.9437Q12.5199 17.9754 12.4987 17.9948Q12.4776 18.0142 12.4493 18.0142H11.1194Q11.0911 18.0142 11.07 17.993Q11.0488 17.9719 11.0488 17.9437V15.6153Q11.0488 15.5871 11.07 15.5659Q11.0911 15.5448 11.1194 15.5448H12.4493Q12.4776 15.5448 12.4987 15.5659Q12.5199 15.5871 12.5199 15.6153Q12.5199 15.6471 12.4987 15.6665Q12.4776 15.6859 12.4493 15.6859H11.197V16.6701H12.2906Q12.3188 16.6701 12.34 16.6913Q12.3611 16.7125 12.3611 16.7407Q12.3611 16.7724 12.34 16.7918Q12.3188 16.8112 12.2906 16.8112H11.197V17.8731H12.4493Q12.4776 17.8731 12.4987 17.8943Q12.5199 17.9154 12.5199 17.9437ZM15.0599 16.7795Q15.0599 17.1287 14.9488 17.4074Q14.8376 17.6861 14.6083 17.8502Q14.379 18.0142 14.0368 18.0142H13.1196Q13.0914 18.0142 13.0702 17.993Q13.0491 17.9719 13.0491 17.9437V15.6153Q13.0491 15.5871 13.0702 15.5659Q13.0914 15.5448 13.1196 15.5448H14.0368Q14.3755 15.5448 14.6066 15.7141Q14.8376 15.8834 14.9488 16.1639Q15.0599 16.4443 15.0599 16.7795ZM14.9117 16.7795Q14.9117 16.4796 14.8147 16.2309Q14.7177 15.9822 14.5148 15.834Q14.312 15.6859 14.0016 15.6859H13.1972V17.8731H14.0016Q14.4602 17.8731 14.6859 17.5715Q14.9117 17.2698 14.9117 16.7795Z" style="stroke:#000000;stroke-width:0.25;stroke-linecap:round;stroke-linejoin:bevel" />
        <path d="M6.37192 46.8058Q6.37192 46.834 6.35781 46.8517Q6.33664 46.8799 6.30489 46.8799Q6.29078 46.8799 6.26256 46.8658Q5.93447 46.6435 5.56758 46.6435Q5.27125 46.6435 5.02254 46.7899Q4.77383 46.9363 4.62919 47.1956Q4.48456 47.4549 4.48456 47.7795Q4.48456 48.104 4.62919 48.3633Q4.77383 48.6226 5.02254 48.769Q5.27125 48.9154 5.56758 48.9154Q5.938 48.9154 6.25903 48.6967Q6.27667 48.6826 6.30136 48.6826Q6.33664 48.6826 6.35781 48.7108Q6.37192 48.7285 6.37192 48.7532Q6.37192 48.7884 6.34369 48.8096Q6.20611 48.9084 5.98915 48.9789Q5.77219 49.0495 5.56758 49.0495Q5.23244 49.0495 4.95022 48.8837Q4.668 48.7179 4.50219 48.4268Q4.33639 48.1358 4.33639 47.7795Q4.33639 47.4232 4.50219 47.1321Q4.668 46.8411 4.95022 46.6753Q5.23244 46.5095 5.56758 46.5095Q5.77925 46.5095 5.97857 46.573Q6.17789 46.6365 6.34017 46.7494Q6.37192 46.7741 6.37192 46.8058ZM8.68261 46.6188V48.9401Q8.67908 48.9719 8.65792 48.993Q8.63675 49.0142 8.60853 49.0142Q8.57325 49.0142 8.55385 48.993Q8.53444 48.9719 8.53444 48.9401V47.8148H6.99633V48.9401Q6.99281 48.9719 6.97164 48.993Q6.95047 49.0142 6.92225 49.0142Q6.88697 49.0142 6.86757 48.993Q6.84817 48.9719 6.84817 48.9401V46.6188Q6.84817 46.5871 6.86933 46.5659Q6.8905 46.5448 6.92225 46.5448Q6.954 46.5448 6.97517 46.5659Q6.99633 46.5871 6.99633 46.6188V47.6737H8.53444V46.6188Q8.53444 46.5871 8.55561 46.5659Q8.57678 46.5448 8.60853 46.5448Q8.64028 46.5448 8.66144 46.5659Q8.68261 46.5871 8.68261 46.6188ZM11.2014 48.9472Q11.2014 48.9789 11.1803 48.9966Q11.1591 49.0142 11.1274 49.0142Q11.1027 49.0142 11.0833 49.0019Q11.0639 48.9895 11.0568 48.9683L10.7605 48.2416L10.764 48.2487H9.58219L9.29644 48.9683Q9.27881 49.0142 9.23294 49.0142Q9.20119 49.0142 9.18179 48.9966Q9.16239 48.9789 9.15886 48.9542Q9.15533 48.9401 9.16239 48.919L10.1114 46.5836Q10.1219 46.5553 10.1378 46.5465Q10.1537 46.5377 10.1784 46.5377Q10.2313 46.5377 10.2489 46.5836L11.1979 48.919Q11.2014 48.9295 11.2014 48.9472ZM9.63864 48.1076H10.7076L10.1678 46.7776ZM12.6796 49.0495Q12.3374 49.0495 12.0693 48.889Q11.8012 48.7285 11.6512 48.4392Q11.5013 48.1499 11.5013 47.7795Q11.5013 47.4091 11.6512 47.1198Q11.8012 46.8305 12.0693 46.67Q12.3374 46.5095 12.6796 46.5095Q13.0218 46.5095 13.2899 46.67Q13.558 46.8305 13.7079 47.1198Q13.8579 47.4091 13.8579 47.7795Q13.8579 48.1499 13.7079 48.4392Q13.558 48.7285 13.2899 48.889Q13.0218 49.0495 12.6796 49.0495ZM12.6796 46.6506Q12.3797 46.6506 12.1451 46.7917Q11.9105 46.9328 11.78 47.1903Q11.6495 47.4479 11.6495 47.7795Q11.6495 48.1111 11.78 48.3686Q11.9105 48.6262 12.1451 48.7673Q12.3797 48.9084 12.6796 48.9084Q12.9794 48.9084 13.214 48.7673Q13.4486 48.6262 13.5792 48.3686Q13.7097 48.1111 13.7097 47.7795Q13.7097 47.4479 13.5792 47.1903Q13.4486 46.9328 13.214 46.7917Q12.9794 46.6506 12.6796 46.6506ZM14.1789 48.6791Q14.1577 48.6579 14.1577 48.6262Q14.1577 48.5979 14.1824 48.5715Q14.2071 48.545 14.2353 48.545Q14.2671 48.545 14.2953 48.5768Q14.4329 48.739 14.6216 48.8237Q14.8104 48.9084 15.0185 48.9084Q15.2901 48.9084 15.4665 48.7778Q15.6429 48.6473 15.6429 48.4321Q15.6394 48.2628 15.5512 48.1534Q15.463 48.0441 15.3342 47.9788Q15.2055 47.9135 14.9832 47.8324Q14.7398 47.7407 14.604 47.6701Q14.4682 47.5996 14.3712 47.469Q14.2741 47.3385 14.2741 47.1268Q14.2741 46.954 14.3694 46.8129Q14.4646 46.6718 14.641 46.5906Q14.8174 46.5095 15.0503 46.5095Q15.2584 46.5095 15.4454 46.5853Q15.6323 46.6612 15.7417 46.7988Q15.777 46.8482 15.777 46.8728Q15.777 46.9011 15.7505 46.924Q15.7241 46.9469 15.6923 46.9469Q15.6641 46.9469 15.6464 46.9258Q15.5477 46.7988 15.3924 46.7247Q15.2372 46.6506 15.0503 46.6506Q14.7821 46.6506 14.604 46.7776Q14.4258 46.9046 14.4258 47.1233Q14.4258 47.275 14.5123 47.3808Q14.5987 47.4867 14.7292 47.5519Q14.8598 47.6172 15.0538 47.6878Q15.3007 47.776 15.4454 47.85Q15.59 47.9241 15.6923 48.0652Q15.7946 48.2063 15.7946 48.4392Q15.7946 48.6015 15.6994 48.7426Q15.6041 48.8837 15.426 48.9666Q15.2478 49.0495 15.0185 49.0495Q14.7574 49.0495 14.5634 48.9595Q14.3694 48.8696 14.1789 48.6791Z" style="stroke:#000000;stroke-width:0.25;stroke-linecap:round;stroke-linejoin:bevel" />
        <path id="trigger_label" d="M4.8701 105.846Q4.8701 105.878 4.85069 105.896Q4.83129 105.913 4.79954 105.913H4.01285V108.178Q4.01285 108.207 3.99168 108.228Q3.97051 108.249 3.94229 108.249Q3.91054 108.249 3.89114 108.228Q3.87174 108.207 3.87174 108.178V105.913H3.08504Q3.05682 105.913 3.03565 105.894Q3.01449 105.875 3.01449 105.846Q3.01449 105.818 3.03565 105.799Q3.05682 105.779 3.08504 105.779H4.79954Q4.82776 105.779 4.84893 105.799Q4.8701 105.818 4.8701 105.846ZM7.14199 108.175Q7.14199 108.207 7.12258 108.226Q7.10318 108.245 7.07496 108.245Q7.05379 108.245 7.04321 108.238Q6.94796 108.185 6.89151 108.06Q6.83507 107.935 6.83507 107.649Q6.83507 107.36 6.67985 107.252Q6.52463 107.145 6.32001 107.145H5.49451V108.178Q5.49451 108.207 5.47335 108.228Q5.45218 108.249 5.42043 108.249Q5.38868 108.249 5.36751 108.228Q5.34635 108.207 5.34635 108.178V105.85Q5.34635 105.822 5.36751 105.801Q5.38868 105.779 5.4169 105.779H6.34824Q6.55285 105.779 6.7116 105.862Q6.87035 105.945 6.95854 106.09Q7.04674 106.234 7.04674 106.418Q7.04674 106.654 6.9215 106.824Q6.79626 106.993 6.59518 107.053Q6.76451 107.106 6.87387 107.263Q6.98324 107.42 6.98324 107.649Q6.98324 107.885 7.01322 107.979Q7.04321 108.072 7.10318 108.111Q7.14199 108.136 7.14199 108.175ZM6.36587 107.004Q6.58812 106.982 6.74335 106.827Q6.89857 106.672 6.89857 106.421Q6.89857 106.203 6.74335 106.062Q6.58812 105.921 6.3306 105.921H5.49451V107.004ZM7.76288 108.249Q7.7276 108.249 7.70819 108.228Q7.68879 108.207 7.68879 108.175V105.853Q7.68879 105.822 7.70996 105.801Q7.73113 105.779 7.76288 105.779Q7.79462 105.779 7.81579 105.801Q7.83696 105.822 7.83696 105.853V108.175Q7.83343 108.207 7.81226 108.228Q7.7911 108.249 7.76288 108.249ZM10.4087 107.102V107.988Q10.4087 108.03 10.377 108.051Q10.2147 108.161 10.0224 108.222Q9.83015 108.284 9.6326 108.284Q9.26924 108.284 8.98172 108.12Q8.69421 107.956 8.53017 107.667Q8.36613 107.377 8.36613 107.014Q8.36613 106.651 8.53017 106.361Q8.69421 106.072 8.98172 105.908Q9.26924 105.744 9.6326 105.744Q9.83015 105.744 10.0083 105.792Q10.1865 105.839 10.3276 105.935Q10.3593 105.956 10.3593 105.995Q10.3593 106.026 10.3364 106.046Q10.3135 106.065 10.2923 106.065Q10.2747 106.065 10.2464 106.051Q9.9501 105.885 9.6326 105.885Q9.30804 105.885 9.05404 106.03Q8.80004 106.175 8.65717 106.432Q8.51429 106.69 8.51429 107.014Q8.51429 107.339 8.65717 107.596Q8.80004 107.854 9.05404 107.998Q9.30804 108.143 9.6326 108.143Q9.79488 108.143 9.96244 108.092Q10.13 108.041 10.2676 107.956V107.173H9.6326Q9.60438 107.173 9.58321 107.152Q9.56204 107.131 9.56204 107.102Q9.56204 107.071 9.58321 107.051Q9.60438 107.032 9.6326 107.032H10.3382Q10.3699 107.032 10.3893 107.053Q10.4087 107.074 10.4087 107.102ZM12.857 107.102V107.988Q12.857 108.03 12.8252 108.051Q12.663 108.161 12.4707 108.222Q12.2784 108.284 12.0809 108.284Q11.7175 108.284 11.43 108.12Q11.1425 107.956 10.9784 107.667Q10.8144 107.377 10.8144 107.014Q10.8144 106.651 10.9784 106.361Q11.1425 106.072 11.43 105.908Q11.7175 105.744 12.0809 105.744Q12.2784 105.744 12.4566 105.792Q12.6347 105.839 12.7758 105.935Q12.8076 105.956 12.8076 105.995Q12.8076 106.026 12.7847 106.046Q12.7617 106.065 12.7406 106.065Q12.7229 106.065 12.6947 106.051Q12.3984 105.885 12.0809 105.885Q11.7563 105.885 11.5023 106.03Q11.2483 106.175 11.1054 106.432Q10.9626 106.69 10.9626 107.014Q10.9626 107.339 11.1054 107.596Q11.2483 107.854 11.5023 107.998Q11.7563 108.143 12.0809 108.143Q12.2432 108.143 12.4107 108.092Q12.5783 108.041 12.7159 107.956V107.173H12.0809Q12.0527 107.173 12.0315 107.152Q12.0103 107.131 12.0103 107.102Q12.0103 107.071 12.0315 107.051Q12.0527 107.032 12.0809 107.032H12.7864Q12.8182 107.032 12.8376 107.053Q12.857 107.074 12.857 107.102ZM14.9102 108.178Q14.9102 108.21 14.889 108.229Q14.8678 108.249 14.8396 108.249H13.5096Q13.4814 108.249 13.4602 108.228Q13.4391 108.207 13.4391 108.178V105.85Q13.4391 105.822 13.4602 105.801Q13.4814 105.779 13.5096 105.779H14.8396Q14.8678 105.779 14.889 105.801Q14.9102 105.822 14.9102 105.85Q14.9102 105.882 14.889 105.901Q14.8678 105.921 14.8396 105.921H13.5872V106.905H14.6808Q14.7091 106.905 14.7302 106.926Q14.7514 106.947 14.7514 106.975Q14.7514 107.007 14.7302 107.026Q14.7091 107.046 14.6808 107.046H13.5872V108.108H14.8396Q14.8678 108.108 14.889 108.129Q14.9102 108.15 14.9102 108.178ZM17.235 108.175Q17.235 108.207 17.2156 108.226Q17.1962 108.245 17.1679 108.245Q17.1468 108.245 17.1362 108.238Q17.0409 108.185 16.9845 108.06Q16.928 107.935 16.928 107.649Q16.928 107.36 16.7728 107.252Q16.6176 107.145 16.413 107.145H15.5875V108.178Q15.5875 108.207 15.5663 108.228Q15.5452 108.249 15.5134 108.249Q15.4817 108.249 15.4605 108.228Q15.4393 108.207 15.4393 108.178V105.85Q15.4393 105.822 15.4605 105.801Q15.4817 105.779 15.5099 105.779H16.4412Q16.6458 105.779 16.8046 105.862Q16.9633 105.945 17.0515 106.09Q17.1397 106.234 17.1397 106.418Q17.1397 106.654 17.0145 106.824Q16.8892 106.993 16.6882 107.053Q16.8575 107.106 16.9668 107.263Q17.0762 107.42 17.0762 107.649Q17.0762 107.885 17.1062 107.979Q17.1362 108.072 17.1962 108.111Q17.235 108.136 17.235 108.175ZM16.4588 107.004Q16.6811 106.982 16.8363 106.827Q16.9915 106.672 16.9915 106.421Q16.9915 106.203 16.8363 106.062Q16.6811 105.921 16.4236 105.921H15.5875V107.004Z" style="stroke:#000000;stroke-width:0.25;stroke-linecap:round;stroke-linejoin:bevel" />
    </g>
</svg>
