<?xml version="1.0" encoding="utf-8"?>
<svg xmlns="http://www.w3.org/2000/svg" width="4.00mm" height="4.00mm" viewBox="0 0 4.00 4.00">
    <path d="M2.83185 3.38007Q2.84878 3.40123 2.84878 3.43087Q2.84878 3.46473 2.8255 3.49013Q2.80222 3.51553 2.76835 3.51553Q2.73025 3.51553 2.69638 3.47743L2.00212 2.5715L1.30362 3.48167Q1.27822 3.51553 1.23588 3.51553Q1.20202 3.51553 1.17873 3.49437Q1.15545 3.4732 1.15545 3.4351Q1.15545 3.40547 1.17238 3.3843L1.90052 2.44027L1.16392 1.4793Q1.14698 1.45813 1.14698 1.4285Q1.14698 1.3904 1.1745 1.365Q1.20202 1.3396 1.23588 1.3396Q1.27822 1.3396 1.30362 1.3777L2.00635 2.29633L2.69638 1.3777Q2.73025 1.3396 2.76835 1.3396Q2.80645 1.3396 2.82762 1.36077Q2.84878 1.38193 2.84878 1.41157Q2.84878 1.43697 2.82762 1.4666L2.10795 2.4318Z" style="stroke:#000000;stroke-width:0.25;stroke-linecap:round;stroke-linejoin:bevel" />
</svg>
