<?xml version="1.0" encoding="utf-8"?>
<svg xmlns="http://www.w3.org/2000/svg" width="20.32mm" height="128.50mm" viewBox="0 0 20.32 128.50">
    <g id="PanelLayer">
        <defs>
            <linearGradient id="gradient_a" x1="0" y1="12.5" x2="0" y2="28" gradientUnits="userSpaceOnUse">
                <stop style="stop-color:#a06de4;stop-opacity:1;" offset="0" />
                <stop style="stop-color:#4f8df2;stop-opacity:1;" offset="1" />
            </linearGradient>
            <linearGradient id="gradient_b" x1="0" y1="27.1667" x2="0" y2="42.6667" gradientUnits="userSpaceOnUse">
                <stop style="stop-color:#3068ff;stop-opacity:1;" offset="0" />
                <stop style="stop-color:#4f8df2;stop-opacity:1;" offset="1" />
            </linearGradient>
            <linearGradient id="gradient_c" x1="0" y1="68" x2="0" y2="116" gradientUnits="userSpaceOnUse">
                <stop style="stop-color:#29aab4;stop-opacity:1;" offset="0" />
                <stop style="stop-color:#4f8df2;stop-opacity:1;" offset="1" />
            </linearGradient>
        </defs>
        <rect id="border_rect" width="20.32" height="128.5" x="0" y="0" style="display:inline;fill:#4f8df2;fill-opacity:1;fill-rule:nonzero;stroke:#5021d4;stroke-width:0.7;stroke-linecap:round;stroke-linejoin:round;stroke-dasharray:none;stroke-opacity:1;image-rendering:auto" />
        <path id="model_name" d="M4.15678 4.33279Q4.15678 4.40264 4.11797 4.44921Q4.07917 4.49578 4.01708 4.49578Q3.9938 4.49578 3.90454 4.46085Q3.81529 4.42592 3.7144 4.42592Q3.39619 4.42592 3.07799 4.67816Q2.75978 4.9304 2.55799 5.31457Q2.3562 5.69875 2.3562 6.05576V7.99604Q2.3562 8.05812 2.30964 8.10469Q2.26307 8.15126 2.20098 8.15126Q2.13113 8.15126 2.08844 8.10469Q2.04576 8.05812 2.04576 7.99604V4.43369Q2.04576 4.3716 2.09233 4.32503Q2.13889 4.27846 2.20098 4.27846Q2.27083 4.27846 2.31352 4.32503Q2.3562 4.3716 2.3562 4.43369V5.25636Q2.53471 4.78294 2.91112 4.47249Q3.28754 4.16205 3.79977 4.15429Q4.15678 4.15429 4.15678 4.33279ZM6.5472 8.22887Q6.01169 8.22887 5.57318 7.96111Q5.13468 7.69335 4.88244 7.22769Q4.63021 6.76202 4.63021 6.19546Q4.63021 5.62114 4.88244 5.15547Q5.13468 4.6898 5.5693 4.42204Q6.00392 4.15429 6.5472 4.15429Q7.08272 4.15429 7.52122 4.42204Q7.95972 4.6898 8.20808 5.15547Q8.45644 5.62114 8.45644 6.19546Q8.45644 6.76978 8.20808 7.23157Q7.95972 7.69335 7.52122 7.96111Q7.08272 8.22887 6.5472 8.22887ZM6.5472 4.44921Q6.09706 4.44921 5.72841 4.67816Q5.35975 4.90711 5.1502 5.30293Q4.94065 5.69875 4.94065 6.19546Q4.94065 6.68441 5.1502 7.08022Q5.35975 7.47604 5.72841 7.70499Q6.09706 7.93395 6.5472 7.93395Q7.00511 7.93395 7.36988 7.70887Q7.73465 7.4838 7.94032 7.08411Q8.14599 6.68441 8.14599 6.19546Q8.14599 5.69875 7.94032 5.30293Q7.73465 4.90711 7.36988 4.67816Q7.00511 4.44921 6.5472 4.44921ZM11.0642 4.39488Q11.0642 4.45697 11.0215 4.49966Q10.9788 4.54234 10.9167 4.54234H10.063V7.3053Q10.063 7.64679 10.1833 7.75932Q10.3036 7.87186 10.4898 7.87186Q10.5209 7.87186 10.5791 7.85634Q10.6373 7.84081 10.6761 7.84081Q10.7304 7.84081 10.7692 7.8835Q10.8081 7.92619 10.8081 7.98051Q10.8081 8.05036 10.7149 8.10081Q10.6218 8.15126 10.4976 8.15126Q10.3036 8.15126 10.1716 8.12409Q10.0397 8.09693 9.89612 7.91454Q9.75254 7.73216 9.75254 7.32082V4.54234H9.11613Q9.0618 4.54234 9.01524 4.49578Q8.96867 4.44921 8.96867 4.39488Q8.96867 4.33279 9.01136 4.29011Q9.05404 4.24742 9.11613 4.24742H9.75254V3.26176Q9.75254 3.19967 9.79911 3.1531Q9.84567 3.10654 9.90776 3.10654Q9.97761 3.10654 10.0203 3.1531Q10.063 3.19967 10.063 3.26176V4.24742H10.9167Q10.971 4.24742 11.0176 4.29399Q11.0642 4.34055 11.0642 4.39488ZM12.0809 8.15126Q12.011 8.15126 11.9683 8.10469Q11.9257 8.05812 11.9257 7.99604V4.30951Q11.9257 4.24742 11.9722 4.20085Q12.0188 4.15429 12.0809 4.15429Q12.1507 4.15429 12.1934 4.20085Q12.2361 4.24742 12.2361 4.30951V7.99604Q12.2361 8.05812 12.1895 8.10469Q12.143 8.15126 12.0809 8.15126ZM11.8092 3.37818V3.31609Q11.8092 3.20743 11.8868 3.13758Q11.9645 3.06773 12.0886 3.06773Q12.1973 3.06773 12.271 3.13758Q12.3448 3.20743 12.3448 3.31609V3.37818Q12.3448 3.48683 12.271 3.55668Q12.1973 3.62653 12.0809 3.62653Q11.9567 3.62653 11.883 3.55668Q11.8092 3.48683 11.8092 3.37818ZM16.6755 5.62114V7.99604Q16.6755 8.05812 16.6289 8.10469Q16.5823 8.15126 16.5202 8.15126Q16.4504 8.15126 16.4077 8.10469Q16.365 8.05812 16.365 7.99604V5.65218Q16.365 5.12443 16.0895 4.78682Q15.814 4.44921 15.2552 4.44921Q14.9137 4.44921 14.5838 4.61219Q14.254 4.77517 14.0444 5.05457Q13.8349 5.33397 13.8349 5.65218V7.99604Q13.8349 8.05812 13.7883 8.10469Q13.7418 8.15126 13.6797 8.15126Q13.6098 8.15126 13.5671 8.10469Q13.5244 8.05812 13.5244 7.99604V4.43369Q13.5244 4.3716 13.571 4.32503Q13.6176 4.27846 13.6797 4.27846Q13.7495 4.27846 13.7922 4.32503Q13.8349 4.3716 13.8349 4.43369V4.95368Q14.06 4.60443 14.4674 4.37936Q14.8749 4.15429 15.2862 4.15429Q15.977 4.15429 16.3262 4.56174Q16.6755 4.9692 16.6755 5.62114ZM18.119 8.15126Q18.0492 8.15126 18.0065 8.10469Q17.9638 8.05812 17.9638 7.99604V4.30951Q17.9638 4.24742 18.0104 4.20085Q18.0569 4.15429 18.119 4.15429Q18.1889 4.15429 18.2316 4.20085Q18.2742 4.24742 18.2742 4.30951V7.99604Q18.2742 8.05812 18.2277 8.10469Q18.1811 8.15126 18.119 8.15126ZM17.8474 3.37818V3.31609Q17.8474 3.20743 17.925 3.13758Q18.0026 3.06773 18.1268 3.06773Q18.2354 3.06773 18.3092 3.13758Q18.3829 3.20743 18.3829 3.31609V3.37818Q18.3829 3.48683 18.3092 3.55668Q18.2354 3.62653 18.119 3.62653Q17.9948 3.62653 17.9211 3.55668Q17.8474 3.48683 17.8474 3.37818Z" style="display:inline;stroke:#000000;stroke-width:0.35;stroke-linecap:round;stroke-linejoin:bevel" />
        <path id="sapphire_gemstone" d="m 12.875,122.900 q 0,0.34175 -0.242534,0.63114 -0.0441,0.0524 -0.20395,0.21497 -0.187413,0.19017 -0.785481,0.81304 l -1.444183,1.51309 q -0.01929,0.003 -0.0441,0.003 -0.02756,0 -0.04134,-0.003 -0.08268,-0.0827 -0.647678,-0.67524 -0.468532,-0.47404 -0.934309,-0.94809 -0.556727,-0.56775 -0.89848,-0.98116 -0.132292,-0.15985 -0.168121,-0.29766 -0.02756,-0.10197 -0.02756,-0.34175 0,-0.11024 0.07166,-0.28939 0.06614,-0.16536 0.140559,-0.26458 0.118512,-0.1571 0.42168,-0.42444 0.283875,-0.2508 0.474044,-0.37482 0.272852,-0.17915 0.818555,-0.36656 0.09646,-0.0331 0.110243,-0.0331 h 1.3615 q 0.01102,0 0.104731,0.0331 0.567751,0.20119 0.824066,0.36656 0.165365,0.10473 0.474045,0.37758 0.322461,0.28388 0.421679,0.42168 0.214974,0.2949 0.214974,0.62563 z m -0.16812,-0.27285 q -0.03307,-0.10749 -0.135048,-0.30868 -0.07166,-0.0937 -0.209462,-0.19844 -0.118511,-0.0854 -0.234266,-0.17088 0.245291,0.3638 0.578776,0.678 z m -0.573264,-0.52366 -0.358289,-0.44648 v 0.41065 z m 0.636653,0.75792 q 0,-0.0524 -0.341753,-0.39412 l 0.228754,0.7028 h 0.04961 q 0.06339,-0.21773 0.06339,-0.30868 z m -0.23151,0.27285 -0.316948,-0.90399 -0.410655,-0.0634 -0.159853,0.61461 z m 0.0028,0.15434 -0.771701,-0.3197 h -0.03032 l 0.344509,0.60634 q 0.07993,-0.003 0.234266,-0.0469 0.02481,-0.0138 0.223242,-0.23978 z m -0.857139,-1.05006 -0.719335,0.28388 0.60358,0.22599 z m 0,-0.16261 v -0.51538 l -0.917773,-0.38034 h -1.223697 l -0.917772,0.38034 v 0.51538 l 0.89848,0.4079 h 1.254014 z m 0.573264,1.53789 q -0.0689,0.011 -0.198438,0.0524 -0.08544,0.0551 -0.259071,0.16261 0.01929,0 0.06339,0.003 0.04134,0 0.06339,0 0.118511,0 0.190169,-0.0689 0.07166,-0.0717 0.14056,-0.14883 z m -0.289388,0.003 -0.347266,-0.63114 -0.363801,0.87918 q 0.0248,-0.0165 0.06615,-0.0165 0.03032,0 0.08544,0.011 0.05788,0.008 0.08819,0.008 0.04961,0 0.228754,-0.10749 0.228754,-0.1378 0.242535,-0.14331 z m -0.440972,-0.74139 -0.683507,-0.2756 -0.592556,0.54845 0.903993,0.65595 z m -0.854383,-0.28387 h -1.036284 l 0.523654,0.47404 z m 0.749652,1.36701 q -0.228754,-0.0303 -0.228754,-0.0303 -0.03583,0 -0.272851,0.0937 l 0.190169,0.0193 q 0.01102,0 0.311436,-0.0827 z m -0.388606,-0.0882 -0.843359,-0.61185 v 0.67524 l 0.471289,0.0827 z m 0.854383,0.0496 q -0.09922,0.006 -0.2949,0.0386 -0.01102,0.003 -0.377583,0.17639 -0.129535,0.34726 -0.380338,1.0418 z m -2.543857,-1.39733 -0.719335,-0.28388 0.124023,0.51814 z m -0.802018,-0.45476 v -0.41065 l -0.366557,0.44648 z m 1.515841,1.07212 -0.592556,-0.54019 -0.683506,0.2756 0.380338,0.9288 z m 0.369314,0.94257 q -0.03307,-0.003 -0.135047,-0.0248 -0.08544,-0.0165 -0.137804,-0.0165 -0.05237,0 -0.137804,0.0165 -0.101975,0.0221 -0.135047,0.0248 0.264583,0.0469 0.272851,0.0469 0.0083,0 0.272851,-0.0469 z m -0.30868,-0.1378 v -0.68626 l -0.843359,0.61185 0.37207,0.14607 z m 0.950846,0.20671 -0.396875,-0.0551 -0.479557,0.14056 v 1.27607 z m -2.888366,-2.20211 q -0.118512,0.0854 -0.234267,0.17364 -0.146072,0.10748 -0.209461,0.19568 -0.0441,0.10473 -0.135048,0.31419 0.369314,-0.3638 0.578776,-0.68351 z m 0.476801,0.83234 -0.159853,-0.61461 -0.410655,0.0634 -0.316948,0.90399 z m 0.394118,1.08313 -0.363802,-0.87918 -0.355533,0.63114 q 0.43546,0.2508 0.451996,0.2508 0.09095,0 0.267339,-0.003 z m 1.821765,0.82958 q -0.132291,0.21222 -0.405143,0.6339 -0.07717,0.10749 -0.220486,0.32797 -0.05788,0.10473 -0.05512,0.226 0.159852,-0.15158 0.432704,-0.49609 0.07717,-0.12954 0.140559,-0.339 0.05512,-0.17639 0.107486,-0.35278 z m -1.493792,-0.66146 -0.270095,-0.0882 -0.0083,-0.011 q -0.02481,0 -0.107487,0.011 -0.06615,0.006 -0.107487,0.006 0.272851,0.091 0.311436,0.091 0.02481,0 0.181901,-0.008 z m -0.810286,-1.06384 h -0.03032 l -0.7717,0.3197 q 0.06615,0.0965 0.223242,0.23978 0.07717,0.0138 0.234266,0.0469 z m -0.689018,-0.50161 q -0.341754,0.34727 -0.341754,0.39412 0,0.0799 0.06339,0.30868 h 0.04961 z m 2.235176,3.04547 v -1.27607 l -0.479557,-0.14056 -0.396875,0.0551 z m -1.606791,-1.6757 q -0.256315,-0.1819 -0.457509,-0.22324 0.06615,0.0772 0.20395,0.22324 z m 1.609547,2.04501 v -0.1378 l -0.683507,-1.05007 q 0.05237,0.17639 0.107487,0.35278 0.06339,0.20946 0.14056,0.339 0.0689,0.11851 0.20395,0.25907 0.115755,0.11851 0.23151,0.23702 z m -0.644921,-0.70555 q -0.115756,-0.32798 -0.380339,-1.0418 -0.135047,-0.0662 -0.272851,-0.12954 -0.159852,-0.0716 -0.289388,-0.0716 -0.05237,0 -0.110243,-0.0138 z" style="stroke-width:0;fill:#0000ff;stroke:#2e2114;stroke-linecap:square;stroke-opacity:1" />
        <path id="a_art" d="M 0.38,28.00 L 0.38,16.50 A 4 4 0 0 1 4.38 12.5 L 15.94,12.50 A 4 4 0 0 1 19.94 16.5 L 19.94,12.50 L 19.94,28.00 z" style="fill:url(#gradient_a);fill-opacity:1;stroke-width:0;" />
        <path id="b_art" d="M 0.38,42.67 L 0.38,31.17 A 4 4 0 0 1 4.38 27.1667 L 15.94,27.17 A 4 4 0 0 1 19.94 31.1667 L 19.94,27.17 L 19.94,42.67 z" style="fill:url(#gradient_b);fill-opacity:1;stroke-width:0;" />
        <path id="c_art" d="M 0.38,116.00 L 0.38,72.00 A 4 4 0 0 1 4.38 68 L 15.94,68.00 A 4 4 0 0 1 19.94 72 L 19.94,68.00 L 19.94,116.00 z" style="fill:url(#gradient_c);fill-opacity:1;stroke-width:0;" />
        <path d="M11.1813 17.1818Q11.1813 17.2136 11.1601 17.2312Q11.139 17.2488 11.1072 17.2488Q11.0825 17.2488 11.0631 17.2365Q11.0437 17.2241 11.0367 17.203L10.7403 16.4763L10.7438 16.4833H9.56204L9.27629 17.203Q9.25865 17.2488 9.21279 17.2488Q9.18104 17.2488 9.16164 17.2312Q9.14224 17.2136 9.13871 17.1889Q9.13518 17.1747 9.14224 17.1536L10.0912 14.8182Q10.1018 14.79 10.1177 14.7812Q10.1335 14.7723 10.1582 14.7723Q10.2112 14.7723 10.2288 14.8182L11.1778 17.1536Q11.1813 17.1642 11.1813 17.1818ZM9.61849 16.3422H10.6874L10.1477 15.0122Z" style="stroke:#000000;stroke-width:0.25;stroke-linecap:round;stroke-linejoin:bevel" />
        <path d="M11.1301 31.2487Q11.1301 31.5698 10.9273 31.7426Q10.7244 31.9155 10.4105 31.9155H9.43681Q9.40858 31.9155 9.38742 31.8943Q9.36625 31.8732 9.36625 31.8449V29.5166Q9.36625 29.4884 9.38742 29.4672Q9.40858 29.4461 9.43681 29.4461H10.3858Q10.668 29.4461 10.8373 29.6083Q11.0067 29.7706 11.0067 30.0458Q11.0067 30.2433 10.9079 30.4038Q10.8091 30.5644 10.6327 30.6243Q10.8585 30.6667 10.9943 30.8289Q11.1301 30.9912 11.1301 31.2487ZM10.3681 29.5872H9.51442V30.5785H10.3681Q10.5869 30.5749 10.7227 30.4356Q10.8585 30.2962 10.8585 30.0422Q10.8585 29.8341 10.7297 29.7106Q10.601 29.5872 10.3681 29.5872ZM10.982 31.2487Q10.982 30.9877 10.8197 30.8554Q10.6574 30.7231 10.3928 30.7231H9.51442V31.7744H10.3928Q10.6574 31.7744 10.8197 31.6421Q10.982 31.5098 10.982 31.2487Z" style="stroke:#000000;stroke-width:0.25;stroke-linecap:round;stroke-linejoin:bevel" />
        <path d="M8.00688 72.6818Q8.00688 72.7136 7.98571 72.7312Q7.96455 72.7488 7.9328 72.7488Q7.9081 72.7488 7.8887 72.7365Q7.8693 72.7241 7.86224 72.703L7.56591 71.9763L7.56944 71.9833H6.38763L6.10188 72.703Q6.08424 72.7488 6.03838 72.7488Q6.00663 72.7488 5.98723 72.7312Q5.96782 72.7136 5.9643 72.6889Q5.96077 72.6748 5.96782 72.6536L6.9168 70.3182Q6.92738 70.29 6.94325 70.2812Q6.95913 70.2723 6.98382 70.2723Q7.03674 70.2723 7.05438 70.3182L8.00335 72.6536Q8.00688 72.6642 8.00688 72.6818ZM6.44407 71.8422H7.51299L6.97324 70.5122ZM10.628 72.6501Q10.6421 72.6677 10.6421 72.6924Q10.6421 72.7206 10.6227 72.7418Q10.6033 72.7629 10.5751 72.7629Q10.5434 72.7629 10.5151 72.7312L9.93657 71.9763L9.35449 72.7347Q9.33332 72.7629 9.29805 72.7629Q9.26982 72.7629 9.25042 72.7453Q9.23102 72.7277 9.23102 72.6959Q9.23102 72.6712 9.24513 72.6536L9.85191 71.8669L9.23807 71.0661Q9.22396 71.0484 9.22396 71.0238Q9.22396 70.992 9.24689 70.9708Q9.26982 70.9497 9.29805 70.9497Q9.33332 70.9497 9.35449 70.9814L9.9401 71.7469L10.5151 70.9814Q10.5434 70.9497 10.5751 70.9497Q10.6069 70.9497 10.6245 70.9673Q10.6421 70.9849 10.6421 71.0096Q10.6421 71.0308 10.6245 71.0555L10.0248 71.8598ZM13.8559 72.0821Q13.8559 72.4031 13.6531 72.576Q13.4502 72.7488 13.1363 72.7488H12.1626Q12.1344 72.7488 12.1132 72.7277Q12.092 72.7065 12.092 72.6783V70.3499Q12.092 70.3217 12.1132 70.3006Q12.1344 70.2794 12.1626 70.2794H13.1116Q13.3938 70.2794 13.5631 70.4417Q13.7325 70.6039 13.7325 70.8791Q13.7325 71.0767 13.6337 71.2372Q13.5349 71.3977 13.3585 71.4577Q13.5843 71.5 13.7201 71.6623Q13.8559 71.8246 13.8559 72.0821ZM13.0939 70.4205H12.2402V71.4118H13.0939Q13.3127 71.4083 13.4485 71.2689Q13.5843 71.1296 13.5843 70.8756Q13.5843 70.6674 13.4555 70.544Q13.3268 70.4205 13.0939 70.4205ZM13.7078 72.0821Q13.7078 71.821 13.5455 71.6887Q13.3832 71.5564 13.1186 71.5564H12.2402V72.6077H13.1186Q13.3832 72.6077 13.5455 72.4754Q13.7078 72.3431 13.7078 72.0821Z" style="stroke:#000000;stroke-width:0.25;stroke-linecap:round;stroke-linejoin:bevel" />
        <path d="M4.82546 81.8132Q4.8431 81.8379 4.8431 81.8555Q4.8431 81.8873 4.82193 81.9067Q4.80076 81.9261 4.76901 81.9261Q4.73021 81.9261 4.71257 81.8979L3.90471 80.7972L3.10038 81.8979Q3.08274 81.9261 3.04746 81.9261Q3.01571 81.9261 2.99807 81.9067Q2.98043 81.8873 2.98043 81.8661Q2.98043 81.8485 2.99807 81.8203L3.8271 80.6878L2.99101 79.5484Q2.9769 79.5307 2.9769 79.506Q2.9769 79.4743 2.99807 79.4549Q3.01924 79.4355 3.04746 79.4355Q3.08979 79.4355 3.10743 79.4637L3.91529 80.5679L4.71963 79.4602Q4.74079 79.4319 4.77254 79.4319Q4.80429 79.4319 4.82369 79.4478Q4.8431 79.4637 4.8431 79.4884Q4.8431 79.5131 4.82546 79.5378L3.99643 80.6808Z" style="stroke:#000000;stroke-width:0.25;stroke-linecap:round;stroke-linejoin:bevel" />
        <path d="M4.79018 88.5448 3.98585 89.6384V90.8449Q3.98585 90.8732 3.96468 90.8943Q3.94351 90.9155 3.91176 90.9155Q3.88001 90.9155 3.85885 90.8943Q3.83768 90.8732 3.83768 90.8449V89.6526L3.02982 88.5448Q3.01571 88.5272 3.01571 88.499Q3.01571 88.4743 3.03864 88.4531Q3.06157 88.4319 3.08979 88.4319Q3.1286 88.4319 3.14976 88.4637L3.91176 89.5044L4.67376 88.4637Q4.69493 88.4319 4.73374 88.4319Q4.76549 88.4319 4.78489 88.4549Q4.80429 88.4778 4.80429 88.499Q4.80429 88.5166 4.79018 88.5448Z" style="stroke:#000000;stroke-width:0.25;stroke-linecap:round;stroke-linejoin:bevel" />
        <path d="M4.86426 99.8485Q4.86426 99.8767 4.8431 99.8961Q4.82193 99.9155 4.79371 99.9155H3.05804Q3.02629 99.9155 3.00689 99.8926Q2.98749 99.8696 2.98749 99.8414Q2.98749 99.8167 3.0016 99.7991L4.66671 97.5801H3.1286Q3.10038 97.5801 3.07921 97.5607Q3.05804 97.5413 3.05804 97.5131Q3.05804 97.4849 3.07921 97.4655Q3.10038 97.4461 3.1286 97.4461H4.78665Q4.82899 97.4461 4.84839 97.4672Q4.86779 97.4884 4.86779 97.5166Q4.86779 97.5413 4.85368 97.5589L3.1921 99.7814H4.79371Q4.82193 99.7814 4.8431 99.8026Q4.86426 99.8238 4.86426 99.8485Z" style="stroke:#000000;stroke-width:0.25;stroke-linecap:round;stroke-linejoin:bevel" />
        <path d="M4.799 107.12Q4.799 107.317 4.7161 107.478Q4.63319 107.638 4.4815 107.728Q4.32981 107.818 4.13225 107.818H3.36319V108.845Q3.36319 108.873 3.34026 108.894Q3.31733 108.915 3.28911 108.915Q3.25736 108.915 3.23619 108.894Q3.21503 108.873 3.21503 108.845V106.517Q3.21503 106.488 3.23619 106.467Q3.25736 106.446 3.28558 106.446H4.13225Q4.43211 106.446 4.61556 106.633Q4.799 106.82 4.799 107.12ZM4.65083 107.12Q4.65083 106.876 4.51149 106.732Q4.37214 106.587 4.13225 106.587H3.36319V107.677H4.13225Q4.36861 107.677 4.50972 107.52Q4.65083 107.363 4.65083 107.12Z" style="stroke:#000000;stroke-width:0.25;stroke-linecap:round;stroke-linejoin:bevel" />
        <g id="ControlLayer" style="display:none;">
            <circle id="a_input" cx="10.16" cy="22" r="1" />
            <circle id="b_input" cx="10.16" cy="36.6667" r="1" />
            <circle id="x_output" cx="10.16" cy="80.6667" r="1" />
            <circle id="y_output" cx="10.16" cy="89.6667" r="1" />
            <circle id="z_output" cx="10.16" cy="98.6667" r="1" />
            <circle id="c_output" cx="10.16" cy="107.667" r="1" />
        </g>
    </g>
</svg>
