<?xml version="1.0" encoding="utf-8"?>
<svg xmlns="http://www.w3.org/2000/svg" width="20.32mm" height="128.50mm" viewBox="0 0 20.32 128.50">
    <g id="PanelLayer">
        <defs />
        <rect id="border_rect" width="20.32" height="128.5" x="0" y="0" style="display:inline;fill:#4f8df2;fill-opacity:1;fill-rule:nonzero;stroke:#5021d4;stroke-width:0.7;stroke-linecap:round;stroke-linejoin:round;stroke-dasharray:none;stroke-opacity:1;image-rendering:auto" />
        <path id="model_name" d="M4.15678 4.33279Q4.15678 4.40264 4.11797 4.44921Q4.07917 4.49578 4.01708 4.49578Q3.9938 4.49578 3.90454 4.46085Q3.81529 4.42592 3.7144 4.42592Q3.39619 4.42592 3.07799 4.67816Q2.75978 4.9304 2.55799 5.31457Q2.3562 5.69875 2.3562 6.05576V7.99604Q2.3562 8.05812 2.30964 8.10469Q2.26307 8.15126 2.20098 8.15126Q2.13113 8.15126 2.08844 8.10469Q2.04576 8.05812 2.04576 7.99604V4.43369Q2.04576 4.3716 2.09233 4.32503Q2.13889 4.27846 2.20098 4.27846Q2.27083 4.27846 2.31352 4.32503Q2.3562 4.3716 2.3562 4.43369V5.25636Q2.53471 4.78294 2.91112 4.47249Q3.28754 4.16205 3.79977 4.15429Q4.15678 4.15429 4.15678 4.33279ZM6.5472 8.22887Q6.01169 8.22887 5.57318 7.96111Q5.13468 7.69335 4.88244 7.22769Q4.63021 6.76202 4.63021 6.19546Q4.63021 5.62114 4.88244 5.15547Q5.13468 4.6898 5.5693 4.42204Q6.00392 4.15429 6.5472 4.15429Q7.08272 4.15429 7.52122 4.42204Q7.95972 4.6898 8.20808 5.15547Q8.45644 5.62114 8.45644 6.19546Q8.45644 6.76978 8.20808 7.23157Q7.95972 7.69335 7.52122 7.96111Q7.08272 8.22887 6.5472 8.22887ZM6.5472 4.44921Q6.09706 4.44921 5.72841 4.67816Q5.35975 4.90711 5.1502 5.30293Q4.94065 5.69875 4.94065 6.19546Q4.94065 6.68441 5.1502 7.08022Q5.35975 7.47604 5.72841 7.70499Q6.09706 7.93395 6.5472 7.93395Q7.00511 7.93395 7.36988 7.70887Q7.73465 7.4838 7.94032 7.08411Q8.14599 6.68441 8.14599 6.19546Q8.14599 5.69875 7.94032 5.30293Q7.73465 4.90711 7.36988 4.67816Q7.00511 4.44921 6.5472 4.44921ZM11.0642 4.39488Q11.0642 4.45697 11.0215 4.49966Q10.9788 4.54234 10.9167 4.54234H10.063V7.3053Q10.063 7.64679 10.1833 7.75932Q10.3036 7.87186 10.4898 7.87186Q10.5209 7.87186 10.5791 7.85634Q10.6373 7.84081 10.6761 7.84081Q10.7304 7.84081 10.7692 7.8835Q10.8081 7.92619 10.8081 7.98051Q10.8081 8.05036 10.7149 8.10081Q10.6218 8.15126 10.4976 8.15126Q10.3036 8.15126 10.1716 8.12409Q10.0397 8.09693 9.89612 7.91454Q9.75254 7.73216 9.75254 7.32082V4.54234H9.11613Q9.0618 4.54234 9.01524 4.49578Q8.96867 4.44921 8.96867 4.39488Q8.96867 4.33279 9.01136 4.29011Q9.05404 4.24742 9.11613 4.24742H9.75254V3.26176Q9.75254 3.19967 9.79911 3.1531Q9.84567 3.10654 9.90776 3.10654Q9.97761 3.10654 10.0203 3.1531Q10.063 3.19967 10.063 3.26176V4.24742H10.9167Q10.971 4.24742 11.0176 4.29399Q11.0642 4.34055 11.0642 4.39488ZM12.0809 8.15126Q12.011 8.15126 11.9683 8.10469Q11.9257 8.05812 11.9257 7.99604V4.30951Q11.9257 4.24742 11.9722 4.20085Q12.0188 4.15429 12.0809 4.15429Q12.1507 4.15429 12.1934 4.20085Q12.2361 4.24742 12.2361 4.30951V7.99604Q12.2361 8.05812 12.1895 8.10469Q12.143 8.15126 12.0809 8.15126ZM11.8092 3.37818V3.31609Q11.8092 3.20743 11.8868 3.13758Q11.9645 3.06773 12.0886 3.06773Q12.1973 3.06773 12.271 3.13758Q12.3448 3.20743 12.3448 3.31609V3.37818Q12.3448 3.48683 12.271 3.55668Q12.1973 3.62653 12.0809 3.62653Q11.9567 3.62653 11.883 3.55668Q11.8092 3.48683 11.8092 3.37818ZM16.6755 5.62114V7.99604Q16.6755 8.05812 16.6289 8.10469Q16.5823 8.15126 16.5202 8.15126Q16.4504 8.15126 16.4077 8.10469Q16.365 8.05812 16.365 7.99604V5.65218Q16.365 5.12443 16.0895 4.78682Q15.814 4.44921 15.2552 4.44921Q14.9137 4.44921 14.5838 4.61219Q14.254 4.77517 14.0444 5.05457Q13.8349 5.33397 13.8349 5.65218V7.99604Q13.8349 8.05812 13.7883 8.10469Q13.7418 8.15126 13.6797 8.15126Q13.6098 8.15126 13.5671 8.10469Q13.5244 8.05812 13.5244 7.99604V4.43369Q13.5244 4.3716 13.571 4.32503Q13.6176 4.27846 13.6797 4.27846Q13.7495 4.27846 13.7922 4.32503Q13.8349 4.3716 13.8349 4.43369V4.95368Q14.06 4.60443 14.4674 4.37936Q14.8749 4.15429 15.2862 4.15429Q15.977 4.15429 16.3262 4.56174Q16.6755 4.9692 16.6755 5.62114ZM18.119 8.15126Q18.0492 8.15126 18.0065 8.10469Q17.9638 8.05812 17.9638 7.99604V4.30951Q17.9638 4.24742 18.0104 4.20085Q18.0569 4.15429 18.119 4.15429Q18.1889 4.15429 18.2316 4.20085Q18.2742 4.24742 18.2742 4.30951V7.99604Q18.2742 8.05812 18.2277 8.10469Q18.1811 8.15126 18.119 8.15126ZM17.8474 3.37818V3.31609Q17.8474 3.20743 17.925 3.13758Q18.0026 3.06773 18.1268 3.06773Q18.2354 3.06773 18.3092 3.13758Q18.3829 3.20743 18.3829 3.31609V3.37818Q18.3829 3.48683 18.3092 3.55668Q18.2354 3.62653 18.119 3.62653Q17.9948 3.62653 17.9211 3.55668Q17.8474 3.48683 17.8474 3.37818Z" style="display:inline;stroke:#000000;stroke-width:0.35;stroke-linecap:round;stroke-linejoin:bevel" />
        <path id="sapphire_gemstone" d="m 12.875,122.900 q 0,0.34175 -0.242534,0.63114 -0.0441,0.0524 -0.20395,0.21497 -0.187413,0.19017 -0.785481,0.81304 l -1.444183,1.51309 q -0.01929,0.003 -0.0441,0.003 -0.02756,0 -0.04134,-0.003 -0.08268,-0.0827 -0.647678,-0.67524 -0.468532,-0.47404 -0.934309,-0.94809 -0.556727,-0.56775 -0.89848,-0.98116 -0.132292,-0.15985 -0.168121,-0.29766 -0.02756,-0.10197 -0.02756,-0.34175 0,-0.11024 0.07166,-0.28939 0.06614,-0.16536 0.140559,-0.26458 0.118512,-0.1571 0.42168,-0.42444 0.283875,-0.2508 0.474044,-0.37482 0.272852,-0.17915 0.818555,-0.36656 0.09646,-0.0331 0.110243,-0.0331 h 1.3615 q 0.01102,0 0.104731,0.0331 0.567751,0.20119 0.824066,0.36656 0.165365,0.10473 0.474045,0.37758 0.322461,0.28388 0.421679,0.42168 0.214974,0.2949 0.214974,0.62563 z m -0.16812,-0.27285 q -0.03307,-0.10749 -0.135048,-0.30868 -0.07166,-0.0937 -0.209462,-0.19844 -0.118511,-0.0854 -0.234266,-0.17088 0.245291,0.3638 0.578776,0.678 z m -0.573264,-0.52366 -0.358289,-0.44648 v 0.41065 z m 0.636653,0.75792 q 0,-0.0524 -0.341753,-0.39412 l 0.228754,0.7028 h 0.04961 q 0.06339,-0.21773 0.06339,-0.30868 z m -0.23151,0.27285 -0.316948,-0.90399 -0.410655,-0.0634 -0.159853,0.61461 z m 0.0028,0.15434 -0.771701,-0.3197 h -0.03032 l 0.344509,0.60634 q 0.07993,-0.003 0.234266,-0.0469 0.02481,-0.0138 0.223242,-0.23978 z m -0.857139,-1.05006 -0.719335,0.28388 0.60358,0.22599 z m 0,-0.16261 v -0.51538 l -0.917773,-0.38034 h -1.223697 l -0.917772,0.38034 v 0.51538 l 0.89848,0.4079 h 1.254014 z m 0.573264,1.53789 q -0.0689,0.011 -0.198438,0.0524 -0.08544,0.0551 -0.259071,0.16261 0.01929,0 0.06339,0.003 0.04134,0 0.06339,0 0.118511,0 0.190169,-0.0689 0.07166,-0.0717 0.14056,-0.14883 z m -0.289388,0.003 -0.347266,-0.63114 -0.363801,0.87918 q 0.0248,-0.0165 0.06615,-0.0165 0.03032,0 0.08544,0.011 0.05788,0.008 0.08819,0.008 0.04961,0 0.228754,-0.10749 0.228754,-0.1378 0.242535,-0.14331 z m -0.440972,-0.74139 -0.683507,-0.2756 -0.592556,0.54845 0.903993,0.65595 z m -0.854383,-0.28387 h -1.036284 l 0.523654,0.47404 z m 0.749652,1.36701 q -0.228754,-0.0303 -0.228754,-0.0303 -0.03583,0 -0.272851,0.0937 l 0.190169,0.0193 q 0.01102,0 0.311436,-0.0827 z m -0.388606,-0.0882 -0.843359,-0.61185 v 0.67524 l 0.471289,0.0827 z m 0.854383,0.0496 q -0.09922,0.006 -0.2949,0.0386 -0.01102,0.003 -0.377583,0.17639 -0.129535,0.34726 -0.380338,1.0418 z m -2.543857,-1.39733 -0.719335,-0.28388 0.124023,0.51814 z m -0.802018,-0.45476 v -0.41065 l -0.366557,0.44648 z m 1.515841,1.07212 -0.592556,-0.54019 -0.683506,0.2756 0.380338,0.9288 z m 0.369314,0.94257 q -0.03307,-0.003 -0.135047,-0.0248 -0.08544,-0.0165 -0.137804,-0.0165 -0.05237,0 -0.137804,0.0165 -0.101975,0.0221 -0.135047,0.0248 0.264583,0.0469 0.272851,0.0469 0.0083,0 0.272851,-0.0469 z m -0.30868,-0.1378 v -0.68626 l -0.843359,0.61185 0.37207,0.14607 z m 0.950846,0.20671 -0.396875,-0.0551 -0.479557,0.14056 v 1.27607 z m -2.888366,-2.20211 q -0.118512,0.0854 -0.234267,0.17364 -0.146072,0.10748 -0.209461,0.19568 -0.0441,0.10473 -0.135048,0.31419 0.369314,-0.3638 0.578776,-0.68351 z m 0.476801,0.83234 -0.159853,-0.61461 -0.410655,0.0634 -0.316948,0.90399 z m 0.394118,1.08313 -0.363802,-0.87918 -0.355533,0.63114 q 0.43546,0.2508 0.451996,0.2508 0.09095,0 0.267339,-0.003 z m 1.821765,0.82958 q -0.132291,0.21222 -0.405143,0.6339 -0.07717,0.10749 -0.220486,0.32797 -0.05788,0.10473 -0.05512,0.226 0.159852,-0.15158 0.432704,-0.49609 0.07717,-0.12954 0.140559,-0.339 0.05512,-0.17639 0.107486,-0.35278 z m -1.493792,-0.66146 -0.270095,-0.0882 -0.0083,-0.011 q -0.02481,0 -0.107487,0.011 -0.06615,0.006 -0.107487,0.006 0.272851,0.091 0.311436,0.091 0.02481,0 0.181901,-0.008 z m -0.810286,-1.06384 h -0.03032 l -0.7717,0.3197 q 0.06615,0.0965 0.223242,0.23978 0.07717,0.0138 0.234266,0.0469 z m -0.689018,-0.50161 q -0.341754,0.34727 -0.341754,0.39412 0,0.0799 0.06339,0.30868 h 0.04961 z m 2.235176,3.04547 v -1.27607 l -0.479557,-0.14056 -0.396875,0.0551 z m -1.606791,-1.6757 q -0.256315,-0.1819 -0.457509,-0.22324 0.06615,0.0772 0.20395,0.22324 z m 1.609547,2.04501 v -0.1378 l -0.683507,-1.05007 q 0.05237,0.17639 0.107487,0.35278 0.06339,0.20946 0.14056,0.339 0.0689,0.11851 0.20395,0.25907 0.115755,0.11851 0.23151,0.23702 z m -0.644921,-0.70555 q -0.115756,-0.32798 -0.380339,-1.0418 -0.135047,-0.0662 -0.272851,-0.12954 -0.159852,-0.0716 -0.289388,-0.0716 -0.05237,0 -0.110243,-0.0138 z" style="stroke-width:0;fill:#0000ff;stroke:#2e2114;stroke-linecap:square;stroke-opacity:1" />
        <path d="M11.1813 16.6818Q11.1813 16.7136 11.1601 16.7312Q11.139 16.7488 11.1072 16.7488Q11.0825 16.7488 11.0631 16.7365Q11.0437 16.7241 11.0367 16.703L10.7403 15.9763L10.7438 15.9833H9.56204L9.27629 16.703Q9.25865 16.7488 9.21279 16.7488Q9.18104 16.7488 9.16164 16.7312Q9.14224 16.7136 9.13871 16.6889Q9.13518 16.6747 9.14224 16.6536L10.0912 14.3182Q10.1018 14.29 10.1177 14.2812Q10.1335 14.2723 10.1582 14.2723Q10.2112 14.2723 10.2288 14.3182L11.1778 16.6536Q11.1813 16.6642 11.1813 16.6818ZM9.61849 15.8422H10.6874L10.1477 14.5122Z" style="stroke:#000000;stroke-width:0.25;stroke-linecap:round;stroke-linejoin:bevel" />
        <path d="M11.1301 33.6821Q11.1301 34.0031 10.9273 34.176Q10.7244 34.3488 10.4105 34.3488H9.43681Q9.40858 34.3488 9.38742 34.3277Q9.36625 34.3065 9.36625 34.2783V31.9499Q9.36625 31.9217 9.38742 31.9006Q9.40858 31.8794 9.43681 31.8794H10.3858Q10.668 31.8794 10.8373 32.0417Q11.0067 32.2039 11.0067 32.4791Q11.0067 32.6767 10.9079 32.8372Q10.8091 32.9977 10.6327 33.0577Q10.8585 33.1 10.9943 33.2623Q11.1301 33.4246 11.1301 33.6821ZM10.3681 32.0205H9.51442V33.0118H10.3681Q10.5869 33.0083 10.7227 32.8689Q10.8585 32.7296 10.8585 32.4756Q10.8585 32.2674 10.7297 32.144Q10.601 32.0205 10.3681 32.0205ZM10.982 33.6821Q10.982 33.421 10.8197 33.2887Q10.6574 33.1564 10.3928 33.1564H9.51442V34.2077H10.3928Q10.6574 34.2077 10.8197 34.0754Q10.982 33.9431 10.982 33.6821Z" style="stroke:#000000;stroke-width:0.25;stroke-linecap:round;stroke-linejoin:bevel" />
        <path d="M8.00688 104.682Q8.00688 104.714 7.98571 104.731Q7.96455 104.749 7.9328 104.749Q7.9081 104.749 7.8887 104.736Q7.8693 104.724 7.86224 104.703L7.56591 103.976L7.56944 103.983H6.38763L6.10188 104.703Q6.08424 104.749 6.03838 104.749Q6.00663 104.749 5.98723 104.731Q5.96782 104.714 5.9643 104.689Q5.96077 104.675 5.96782 104.654L6.9168 102.318Q6.92738 102.29 6.94325 102.281Q6.95913 102.272 6.98382 102.272Q7.03674 102.272 7.05438 102.318L8.00335 104.654Q8.00688 104.664 8.00688 104.682ZM6.44407 103.842H7.51299L6.97324 102.512ZM10.628 104.65Q10.6421 104.668 10.6421 104.692Q10.6421 104.721 10.6227 104.742Q10.6033 104.763 10.5751 104.763Q10.5434 104.763 10.5151 104.731L9.93657 103.976L9.35449 104.735Q9.33332 104.763 9.29805 104.763Q9.26982 104.763 9.25042 104.745Q9.23102 104.728 9.23102 104.696Q9.23102 104.671 9.24513 104.654L9.85191 103.867L9.23807 103.066Q9.22396 103.048 9.22396 103.024Q9.22396 102.992 9.24689 102.971Q9.26982 102.95 9.29805 102.95Q9.33332 102.95 9.35449 102.981L9.9401 103.747L10.5151 102.981Q10.5434 102.95 10.5751 102.95Q10.6069 102.95 10.6245 102.967Q10.6421 102.985 10.6421 103.01Q10.6421 103.031 10.6245 103.056L10.0248 103.86ZM13.8559 104.082Q13.8559 104.403 13.6531 104.576Q13.4502 104.749 13.1363 104.749H12.1626Q12.1344 104.749 12.1132 104.728Q12.092 104.707 12.092 104.678V102.35Q12.092 102.322 12.1132 102.301Q12.1344 102.279 12.1626 102.279H13.1116Q13.3938 102.279 13.5631 102.442Q13.7325 102.604 13.7325 102.879Q13.7325 103.077 13.6337 103.237Q13.5349 103.398 13.3585 103.458Q13.5843 103.5 13.7201 103.662Q13.8559 103.825 13.8559 104.082ZM13.0939 102.421H12.2402V103.412H13.0939Q13.3127 103.408 13.4485 103.269Q13.5843 103.13 13.5843 102.876Q13.5843 102.667 13.4555 102.544Q13.3268 102.421 13.0939 102.421ZM13.7078 104.082Q13.7078 103.821 13.5455 103.689Q13.3832 103.556 13.1186 103.556H12.2402V104.608H13.1186Q13.3832 104.608 13.5455 104.475Q13.7078 104.343 13.7078 104.082Z" style="stroke:#000000;stroke-width:0.25;stroke-linecap:round;stroke-linejoin:bevel" />
        <g id="ControlLayer" style="display:none;">
            <circle id="a_input" cx="10.16" cy="22" r="1" />
            <circle id="b_input" cx="10.16" cy="39.6" r="1" />
            <circle id="c_output" cx="10.16" cy="110" r="1" />
        </g>
    </g>
</svg>
