<?xml version="1.0" encoding="utf-8"?>
<svg xmlns="http://www.w3.org/2000/svg" width="10.16mm" height="128.50mm" viewBox="0 0 10.16 128.50">
    <g id="PanelLayer">
        <defs />
        <rect id="border_rect" width="10.16" height="128.5" x="0" y="0" style="display:inline;fill:#4f8df2;fill-opacity:1;fill-rule:nonzero;stroke:#5021d4;stroke-width:0.7;stroke-linecap:round;stroke-linejoin:round;stroke-dasharray:none;stroke-opacity:1;image-rendering:auto" />
        <path id="model_name" d="M3.64808 7.38291Q3.64808 7.32858 3.71016 7.28201Q3.74897 7.24321 3.8033 7.24321Q3.88091 7.24321 3.92748 7.3053Q4.37762 7.94947 5.18478 7.94947Q5.59611 7.94947 5.90656 7.7438Q6.217 7.53813 6.217 7.18888Q6.217 6.83187 5.94536 6.65336Q5.67373 6.47486 5.2003 6.35844Q4.57165 6.20322 4.21076 5.94322Q3.84986 5.68323 3.84986 5.2098Q3.84986 4.75189 4.21464 4.45309Q4.57941 4.15429 5.15373 4.15429Q5.47194 4.15429 5.78626 4.27846Q6.10059 4.40264 6.3567 4.67428Q6.41103 4.72085 6.41103 4.78294Q6.41103 4.85279 6.3567 4.90711Q6.29461 4.93816 6.25581 4.93816Q6.20148 4.93816 6.16268 4.89159Q5.7591 4.44921 5.12269 4.44921Q4.71135 4.44921 4.42807 4.651Q4.14479 4.85279 4.14479 5.2098Q4.16807 5.54352 4.45135 5.72591Q4.73463 5.9083 5.28567 6.048Q5.68149 6.14889 5.94148 6.26919Q6.20148 6.38949 6.3567 6.6068Q6.51192 6.82411 6.51192 7.17336Q6.51192 7.66231 6.13551 7.94559Q5.7591 8.22887 5.15373 8.22887Q4.26896 8.22887 3.7024 7.53037Q3.64808 7.445 3.64808 7.38291Z" style="display:inline;stroke:#000000;stroke-width:0.35;stroke-linecap:round;stroke-linejoin:bevel" />
        <path id="sapphire_gemstone" d="m 7.795,122.900 q 0,0.34175 -0.242534,0.63114 -0.0441,0.0524 -0.20395,0.21497 -0.187413,0.19017 -0.785481,0.81304 l -1.444183,1.51309 q -0.01929,0.003 -0.0441,0.003 -0.02756,0 -0.04134,-0.003 -0.08268,-0.0827 -0.647678,-0.67524 -0.468532,-0.47404 -0.934309,-0.94809 -0.556727,-0.56775 -0.89848,-0.98116 -0.132292,-0.15985 -0.168121,-0.29766 -0.02756,-0.10197 -0.02756,-0.34175 0,-0.11024 0.07166,-0.28939 0.06614,-0.16536 0.140559,-0.26458 0.118512,-0.1571 0.42168,-0.42444 0.283875,-0.2508 0.474044,-0.37482 0.272852,-0.17915 0.818555,-0.36656 0.09646,-0.0331 0.110243,-0.0331 h 1.3615 q 0.01102,0 0.104731,0.0331 0.567751,0.20119 0.824066,0.36656 0.165365,0.10473 0.474045,0.37758 0.322461,0.28388 0.421679,0.42168 0.214974,0.2949 0.214974,0.62563 z m -0.16812,-0.27285 q -0.03307,-0.10749 -0.135048,-0.30868 -0.07166,-0.0937 -0.209462,-0.19844 -0.118511,-0.0854 -0.234266,-0.17088 0.245291,0.3638 0.578776,0.678 z m -0.573264,-0.52366 -0.358289,-0.44648 v 0.41065 z m 0.636653,0.75792 q 0,-0.0524 -0.341753,-0.39412 l 0.228754,0.7028 h 0.04961 q 0.06339,-0.21773 0.06339,-0.30868 z m -0.23151,0.27285 -0.316948,-0.90399 -0.410655,-0.0634 -0.159853,0.61461 z m 0.0028,0.15434 -0.771701,-0.3197 h -0.03032 l 0.344509,0.60634 q 0.07993,-0.003 0.234266,-0.0469 0.02481,-0.0138 0.223242,-0.23978 z m -0.857139,-1.05006 -0.719335,0.28388 0.60358,0.22599 z m 0,-0.16261 v -0.51538 l -0.917773,-0.38034 h -1.223697 l -0.917772,0.38034 v 0.51538 l 0.89848,0.4079 h 1.254014 z m 0.573264,1.53789 q -0.0689,0.011 -0.198438,0.0524 -0.08544,0.0551 -0.259071,0.16261 0.01929,0 0.06339,0.003 0.04134,0 0.06339,0 0.118511,0 0.190169,-0.0689 0.07166,-0.0717 0.14056,-0.14883 z m -0.289388,0.003 -0.347266,-0.63114 -0.363801,0.87918 q 0.0248,-0.0165 0.06615,-0.0165 0.03032,0 0.08544,0.011 0.05788,0.008 0.08819,0.008 0.04961,0 0.228754,-0.10749 0.228754,-0.1378 0.242535,-0.14331 z m -0.440972,-0.74139 -0.683507,-0.2756 -0.592556,0.54845 0.903993,0.65595 z m -0.854383,-0.28387 h -1.036284 l 0.523654,0.47404 z m 0.749652,1.36701 q -0.228754,-0.0303 -0.228754,-0.0303 -0.03583,0 -0.272851,0.0937 l 0.190169,0.0193 q 0.01102,0 0.311436,-0.0827 z m -0.388606,-0.0882 -0.843359,-0.61185 v 0.67524 l 0.471289,0.0827 z m 0.854383,0.0496 q -0.09922,0.006 -0.2949,0.0386 -0.01102,0.003 -0.377583,0.17639 -0.129535,0.34726 -0.380338,1.0418 z m -2.543857,-1.39733 -0.719335,-0.28388 0.124023,0.51814 z m -0.802018,-0.45476 v -0.41065 l -0.366557,0.44648 z m 1.515841,1.07212 -0.592556,-0.54019 -0.683506,0.2756 0.380338,0.9288 z m 0.369314,0.94257 q -0.03307,-0.003 -0.135047,-0.0248 -0.08544,-0.0165 -0.137804,-0.0165 -0.05237,0 -0.137804,0.0165 -0.101975,0.0221 -0.135047,0.0248 0.264583,0.0469 0.272851,0.0469 0.0083,0 0.272851,-0.0469 z m -0.30868,-0.1378 v -0.68626 l -0.843359,0.61185 0.37207,0.14607 z m 0.950846,0.20671 -0.396875,-0.0551 -0.479557,0.14056 v 1.27607 z m -2.888366,-2.20211 q -0.118512,0.0854 -0.234267,0.17364 -0.146072,0.10748 -0.209461,0.19568 -0.0441,0.10473 -0.135048,0.31419 0.369314,-0.3638 0.578776,-0.68351 z m 0.476801,0.83234 -0.159853,-0.61461 -0.410655,0.0634 -0.316948,0.90399 z m 0.394118,1.08313 -0.363802,-0.87918 -0.355533,0.63114 q 0.43546,0.2508 0.451996,0.2508 0.09095,0 0.267339,-0.003 z m 1.821765,0.82958 q -0.132291,0.21222 -0.405143,0.6339 -0.07717,0.10749 -0.220486,0.32797 -0.05788,0.10473 -0.05512,0.226 0.159852,-0.15158 0.432704,-0.49609 0.07717,-0.12954 0.140559,-0.339 0.05512,-0.17639 0.107486,-0.35278 z m -1.493792,-0.66146 -0.270095,-0.0882 -0.0083,-0.011 q -0.02481,0 -0.107487,0.011 -0.06615,0.006 -0.107487,0.006 0.272851,0.091 0.311436,0.091 0.02481,0 0.181901,-0.008 z m -0.810286,-1.06384 h -0.03032 l -0.7717,0.3197 q 0.06615,0.0965 0.223242,0.23978 0.07717,0.0138 0.234266,0.0469 z m -0.689018,-0.50161 q -0.341754,0.34727 -0.341754,0.39412 0,0.0799 0.06339,0.30868 h 0.04961 z m 2.235176,3.04547 v -1.27607 l -0.479557,-0.14056 -0.396875,0.0551 z m -1.606791,-1.6757 q -0.256315,-0.1819 -0.457509,-0.22324 0.06615,0.0772 0.20395,0.22324 z m 1.609547,2.04501 v -0.1378 l -0.683507,-1.05007 q 0.05237,0.17639 0.107487,0.35278 0.06339,0.20946 0.14056,0.339 0.0689,0.11851 0.20395,0.25907 0.115755,0.11851 0.23151,0.23702 z m -0.644921,-0.70555 q -0.115756,-0.32798 -0.380339,-1.0418 -0.135047,-0.0662 -0.272851,-0.12954 -0.159852,-0.0716 -0.289388,-0.0716 -0.05237,0 -0.110243,-0.0138 z" style="stroke-width:0;fill:#0000ff;stroke:#2e2114;stroke-linecap:square;stroke-opacity:1" />
        <path d="M 9.63,54.62 L 5.08,57.25 L 0.53,54.62 L 0.53,49.38 L 5.08,46.75 L 9.63,49.38 z " style="stroke:#000000;fill:#2455a6;stroke-width:0.15;stroke-linecap:round;stroke-linejoin:round;stroke-dasharray:none" />
        <path d="M 5.08,62.00 L 5.08,78.00 z M 5.08,78.00 L 7.83,73.00 z M 5.08,78.00 L 2.33,73.00 z " style="stroke:#000000;stroke-width:0.35;stroke-linecap:round;stroke-linejoin:round;stroke-dasharray:none" />
        <path d="M 9.63,117.62 L 5.08,120.25 L 0.53,117.62 L 0.53,112.38 L 5.08,109.75 L 9.63,112.38 z " style="stroke:#000000;fill:#2455a6;stroke-width:0.15;stroke-linecap:round;stroke-linejoin:round;stroke-dasharray:none" />
        <g id="ControlLayer" style="display:none;">
            <circle id="x_input" cx="5.08" cy="25" r="1" />
            <circle id="y_input" cx="5.08" cy="34" r="1" />
            <circle id="z_input" cx="5.08" cy="43" r="1" />
            <circle id="p_input" cx="5.08" cy="52" r="1" />
            <circle id="x_output" cx="5.08" cy="88" r="1" />
            <circle id="y_output" cx="5.08" cy="97" r="1" />
            <circle id="z_output" cx="5.08" cy="106" r="1" />
            <circle id="p_output" cx="5.08" cy="115" r="1" />
        </g>
    </g>
</svg>
