<?xml version="1.0" encoding="utf-8"?>
<svg xmlns="http://www.w3.org/2000/svg" width="10.16mm" height="128.50mm" viewBox="0 0 10.16 128.50">
    <g id="PanelLayer">
        <defs />
        <rect id="border_rect" width="10.16" height="128.5" x="0" y="0" style="display:inline;fill:#4f8df2;fill-opacity:1;fill-rule:nonzero;stroke:#5021d4;stroke-width:0.7;stroke-linecap:round;stroke-linejoin:round;stroke-dasharray:none;stroke-opacity:1;image-rendering:auto" />
        <g>
            <path d="M3.9243 67.2176Q3.89467 67.188 3.89467 67.1436Q3.89467 67.1041 3.92924 67.067Q3.96381 67.03 4.00332 67.03Q4.04777 67.03 4.08728 67.0744Q4.2799 67.3016 4.54413 67.4201Q4.80836 67.5387 5.09976 67.5387Q5.48005 67.5387 5.72699 67.3559Q5.97394 67.1732 5.97394 66.8719Q5.969 66.6349 5.84553 66.4818Q5.72206 66.3286 5.54179 66.2373Q5.36152 66.1459 5.05037 66.0323Q4.70958 65.9039 4.51944 65.8051Q4.32929 65.7063 4.19347 65.5236Q4.05765 65.3409 4.05765 65.0445Q4.05765 64.8025 4.191 64.605Q4.32435 64.4074 4.57129 64.2938Q4.81824 64.1802 5.14421 64.1802Q5.4356 64.1802 5.69736 64.2864Q5.95912 64.3926 6.11223 64.5852Q6.16162 64.6544 6.16162 64.6889Q6.16162 64.7284 6.12458 64.7605Q6.08753 64.7927 6.04308 64.7927Q6.00357 64.7927 5.97888 64.763Q5.84059 64.5852 5.62328 64.4815Q5.40597 64.3778 5.14421 64.3778Q4.76885 64.3778 4.51944 64.5556Q4.27002 64.7334 4.27002 65.0396Q4.27002 65.252 4.39103 65.4001Q4.51203 65.5483 4.69477 65.6397Q4.87751 65.731 5.14914 65.8298Q5.49487 65.9533 5.69736 66.057Q5.89986 66.1607 6.04308 66.3583Q6.18631 66.5558 6.18631 66.8818Q6.18631 67.109 6.05296 67.3065Q5.91961 67.5041 5.6702 67.6202Q5.42078 67.7362 5.09976 67.7362Q4.73428 67.7362 4.46264 67.6103Q4.191 67.4843 3.9243 67.2176Z" style="stroke:#000000;stroke-width:0.45;stroke-linecap:round;stroke-linejoin:bevel" />
            <path d="M6.50981 73.093Q6.50981 73.1375 6.48017 73.1621Q6.45054 73.1868 6.40609 73.1868Q6.37152 73.1868 6.34436 73.1696Q6.31719 73.1523 6.30731 73.1226L5.89245 72.1052L5.89739 72.1151H4.24286L3.84281 73.1226Q3.81811 73.1868 3.75391 73.1868Q3.70946 73.1868 3.68229 73.1621Q3.65513 73.1375 3.65019 73.1029Q3.64525 73.0831 3.65513 73.0535L4.98369 69.7839Q4.99851 69.7444 5.02073 69.7321Q5.04296 69.7197 5.07753 69.7197Q5.15161 69.7197 5.17631 69.7839L6.50487 73.0535Q6.50981 73.0683 6.50981 73.093ZM4.32188 71.9175H5.81836L5.06271 70.0556Z" style="stroke:#000000;stroke-width:0.45;stroke-linecap:round;stroke-linejoin:bevel" />
            <path d="M6.63328 75.3284V78.5881Q6.63328 78.6276 6.60118 78.6572Q6.56907 78.6868 6.52956 78.6868Q6.48511 78.6868 6.45548 78.6572Q6.42585 78.6276 6.42585 78.5881V75.6346L5.15161 77.5608Q5.12692 77.6003 5.08247 77.6003Q5.02814 77.6003 5.00345 77.5608L3.72428 75.6297V78.5881Q3.72428 78.6276 3.69464 78.6572Q3.66501 78.6868 3.6255 78.6868Q3.58105 78.6868 3.55388 78.6572Q3.52672 78.6276 3.52672 78.5881V75.3284Q3.52672 75.2938 3.55388 75.2617Q3.58105 75.2296 3.62056 75.2296Q3.68476 75.2296 3.7144 75.2741L5.08247 77.3089L6.45054 75.2741Q6.49005 75.2197 6.54438 75.2296Q6.58389 75.2346 6.60859 75.2617Q6.63328 75.2889 6.63328 75.3284Z" style="stroke:#000000;stroke-width:0.45;stroke-linecap:round;stroke-linejoin:bevel" />
        </g>
        <path id="sapphire_gemstone" d="m 7.795,122.900 q 0,0.34175 -0.242534,0.63114 -0.0441,0.0524 -0.20395,0.21497 -0.187413,0.19017 -0.785481,0.81304 l -1.444183,1.51309 q -0.01929,0.003 -0.0441,0.003 -0.02756,0 -0.04134,-0.003 -0.08268,-0.0827 -0.647678,-0.67524 -0.468532,-0.47404 -0.934309,-0.94809 -0.556727,-0.56775 -0.89848,-0.98116 -0.132292,-0.15985 -0.168121,-0.29766 -0.02756,-0.10197 -0.02756,-0.34175 0,-0.11024 0.07166,-0.28939 0.06614,-0.16536 0.140559,-0.26458 0.118512,-0.1571 0.42168,-0.42444 0.283875,-0.2508 0.474044,-0.37482 0.272852,-0.17915 0.818555,-0.36656 0.09646,-0.0331 0.110243,-0.0331 h 1.3615 q 0.01102,0 0.104731,0.0331 0.567751,0.20119 0.824066,0.36656 0.165365,0.10473 0.474045,0.37758 0.322461,0.28388 0.421679,0.42168 0.214974,0.2949 0.214974,0.62563 z m -0.16812,-0.27285 q -0.03307,-0.10749 -0.135048,-0.30868 -0.07166,-0.0937 -0.209462,-0.19844 -0.118511,-0.0854 -0.234266,-0.17088 0.245291,0.3638 0.578776,0.678 z m -0.573264,-0.52366 -0.358289,-0.44648 v 0.41065 z m 0.636653,0.75792 q 0,-0.0524 -0.341753,-0.39412 l 0.228754,0.7028 h 0.04961 q 0.06339,-0.21773 0.06339,-0.30868 z m -0.23151,0.27285 -0.316948,-0.90399 -0.410655,-0.0634 -0.159853,0.61461 z m 0.0028,0.15434 -0.771701,-0.3197 h -0.03032 l 0.344509,0.60634 q 0.07993,-0.003 0.234266,-0.0469 0.02481,-0.0138 0.223242,-0.23978 z m -0.857139,-1.05006 -0.719335,0.28388 0.60358,0.22599 z m 0,-0.16261 v -0.51538 l -0.917773,-0.38034 h -1.223697 l -0.917772,0.38034 v 0.51538 l 0.89848,0.4079 h 1.254014 z m 0.573264,1.53789 q -0.0689,0.011 -0.198438,0.0524 -0.08544,0.0551 -0.259071,0.16261 0.01929,0 0.06339,0.003 0.04134,0 0.06339,0 0.118511,0 0.190169,-0.0689 0.07166,-0.0717 0.14056,-0.14883 z m -0.289388,0.003 -0.347266,-0.63114 -0.363801,0.87918 q 0.0248,-0.0165 0.06615,-0.0165 0.03032,0 0.08544,0.011 0.05788,0.008 0.08819,0.008 0.04961,0 0.228754,-0.10749 0.228754,-0.1378 0.242535,-0.14331 z m -0.440972,-0.74139 -0.683507,-0.2756 -0.592556,0.54845 0.903993,0.65595 z m -0.854383,-0.28387 h -1.036284 l 0.523654,0.47404 z m 0.749652,1.36701 q -0.228754,-0.0303 -0.228754,-0.0303 -0.03583,0 -0.272851,0.0937 l 0.190169,0.0193 q 0.01102,0 0.311436,-0.0827 z m -0.388606,-0.0882 -0.843359,-0.61185 v 0.67524 l 0.471289,0.0827 z m 0.854383,0.0496 q -0.09922,0.006 -0.2949,0.0386 -0.01102,0.003 -0.377583,0.17639 -0.129535,0.34726 -0.380338,1.0418 z m -2.543857,-1.39733 -0.719335,-0.28388 0.124023,0.51814 z m -0.802018,-0.45476 v -0.41065 l -0.366557,0.44648 z m 1.515841,1.07212 -0.592556,-0.54019 -0.683506,0.2756 0.380338,0.9288 z m 0.369314,0.94257 q -0.03307,-0.003 -0.135047,-0.0248 -0.08544,-0.0165 -0.137804,-0.0165 -0.05237,0 -0.137804,0.0165 -0.101975,0.0221 -0.135047,0.0248 0.264583,0.0469 0.272851,0.0469 0.0083,0 0.272851,-0.0469 z m -0.30868,-0.1378 v -0.68626 l -0.843359,0.61185 0.37207,0.14607 z m 0.950846,0.20671 -0.396875,-0.0551 -0.479557,0.14056 v 1.27607 z m -2.888366,-2.20211 q -0.118512,0.0854 -0.234267,0.17364 -0.146072,0.10748 -0.209461,0.19568 -0.0441,0.10473 -0.135048,0.31419 0.369314,-0.3638 0.578776,-0.68351 z m 0.476801,0.83234 -0.159853,-0.61461 -0.410655,0.0634 -0.316948,0.90399 z m 0.394118,1.08313 -0.363802,-0.87918 -0.355533,0.63114 q 0.43546,0.2508 0.451996,0.2508 0.09095,0 0.267339,-0.003 z m 1.821765,0.82958 q -0.132291,0.21222 -0.405143,0.6339 -0.07717,0.10749 -0.220486,0.32797 -0.05788,0.10473 -0.05512,0.226 0.159852,-0.15158 0.432704,-0.49609 0.07717,-0.12954 0.140559,-0.339 0.05512,-0.17639 0.107486,-0.35278 z m -1.493792,-0.66146 -0.270095,-0.0882 -0.0083,-0.011 q -0.02481,0 -0.107487,0.011 -0.06615,0.006 -0.107487,0.006 0.272851,0.091 0.311436,0.091 0.02481,0 0.181901,-0.008 z m -0.810286,-1.06384 h -0.03032 l -0.7717,0.3197 q 0.06615,0.0965 0.223242,0.23978 0.07717,0.0138 0.234266,0.0469 z m -0.689018,-0.50161 q -0.341754,0.34727 -0.341754,0.39412 0,0.0799 0.06339,0.30868 h 0.04961 z m 2.235176,3.04547 v -1.27607 l -0.479557,-0.14056 -0.396875,0.0551 z m -1.606791,-1.6757 q -0.256315,-0.1819 -0.457509,-0.22324 0.06615,0.0772 0.20395,0.22324 z m 1.609547,2.04501 v -0.1378 l -0.683507,-1.05007 q 0.05237,0.17639 0.107487,0.35278 0.06339,0.20946 0.14056,0.339 0.0689,0.11851 0.20395,0.25907 0.115755,0.11851 0.23151,0.23702 z m -0.644921,-0.70555 q -0.115756,-0.32798 -0.380339,-1.0418 -0.135047,-0.0662 -0.272851,-0.12954 -0.159852,-0.0716 -0.289388,-0.0716 -0.05237,0 -0.110243,-0.0138 z" style="stroke-width:0;fill:#0000ff;stroke:#2e2114;stroke-linecap:square;stroke-opacity:1" />
        <g id="ControlLayer" style="display:none;">
            <circle id="x_input" cx="5.08" cy="25" r="1" />
            <circle id="y_input" cx="5.08" cy="35" r="1" />
            <circle id="z_input" cx="5.08" cy="45" r="1" />
            <circle id="p_input" cx="5.08" cy="55" r="1" />
            <circle id="x_output" cx="5.08" cy="88" r="1" />
            <circle id="y_output" cx="5.08" cy="97" r="1" />
            <circle id="z_output" cx="5.08" cy="106" r="1" />
            <circle id="p_output" cx="5.08" cy="115" r="1" />
        </g>
    </g>
</svg>
