<?xml version="1.0" encoding="utf-8"?>
<svg xmlns="http://www.w3.org/2000/svg" width="30.48mm" height="128.50mm" viewBox="0 0 30.48 128.50">
    <g id="PanelLayer">
        <defs>
            <linearGradient id="gradient_in" x1="0" y1="12.5" x2="0" y2="28" gradientUnits="userSpaceOnUse">
                <stop style="stop-color:#a06de4;stop-opacity:1;" offset="0" />
                <stop style="stop-color:#4f8df2;stop-opacity:1;" offset="1" />
            </linearGradient>
            <linearGradient id="gradient_controls" x1="0" y1="27.8333" x2="0" y2="104.667" gradientUnits="userSpaceOnUse">
                <stop style="stop-color:#3068ff;stop-opacity:1;" offset="0" />
                <stop style="stop-color:#4f8df2;stop-opacity:1;" offset="1" />
            </linearGradient>
            <linearGradient id="gradient_out" x1="0" y1="88.6667" x2="0" y2="118.667" gradientUnits="userSpaceOnUse">
                <stop style="stop-color:#ba60d1;stop-opacity:1;" offset="0" />
                <stop style="stop-color:#4f8df2;stop-opacity:1;" offset="1" />
            </linearGradient>
        </defs>
        <rect id="border_rect" width="30.48" height="128.5" x="0" y="0" style="display:inline;fill:#4f8df2;fill-opacity:1;stroke:none;" />
        <path id="model_name" d="M5.19712 7.38291Q5.19712 7.32858 5.25921 7.28201Q5.29802 7.24321 5.35234 7.24321Q5.42996 7.24321 5.47652 7.3053Q5.92667 7.94947 6.73382 7.94947Q7.14516 7.94947 7.45561 7.7438Q7.76605 7.53813 7.76605 7.18888Q7.76605 6.83187 7.49441 6.65336Q7.22277 6.47486 6.74934 6.35844Q6.12069 6.20322 5.7598 5.94322Q5.39891 5.68323 5.39891 5.2098Q5.39891 4.75189 5.76368 4.45309Q6.12846 4.15429 6.70278 4.15429Q7.02098 4.15429 7.33531 4.27846Q7.64963 4.40264 7.90575 4.67428Q7.96008 4.72085 7.96008 4.78294Q7.96008 4.85279 7.90575 4.90711Q7.84366 4.93816 7.80486 4.93816Q7.75053 4.93816 7.71172 4.89159Q7.30814 4.44921 6.67173 4.44921Q6.26039 4.44921 5.97711 4.651Q5.69383 4.85279 5.69383 5.2098Q5.71712 5.54352 6.0004 5.72591Q6.28368 5.9083 6.83472 6.048Q7.23053 6.14889 7.49053 6.26919Q7.75053 6.38949 7.90575 6.6068Q8.06097 6.82411 8.06097 7.17336Q8.06097 7.66231 7.68456 7.94559Q7.30814 8.22887 6.70278 8.22887Q5.81801 8.22887 5.25145 7.53037Q5.19712 7.445 5.19712 7.38291ZM12.4072 4.43369V7.99604Q12.4072 8.05812 12.3606 8.10469Q12.3141 8.15126 12.252 8.15126Q12.1821 8.15126 12.1394 8.10469Q12.0968 8.05812 12.0968 7.99604V7.29754Q11.9027 7.69335 11.4991 7.96111Q11.0956 8.22887 10.6066 8.22887Q10.0944 8.22887 9.68304 7.96111Q9.27171 7.69335 9.03887 7.22381Q8.80604 6.75426 8.80604 6.17217Q8.80604 5.59785 9.04275 5.13607Q9.27947 4.67428 9.69081 4.41428Q10.1021 4.15429 10.6066 4.15429Q11.1111 4.15429 11.5147 4.41816Q11.9182 4.68204 12.0968 5.12443V4.43369Q12.0968 4.3716 12.1394 4.32503Q12.1821 4.27846 12.252 4.27846Q12.3218 4.27846 12.3645 4.32503Q12.4072 4.3716 12.4072 4.43369ZM12.1278 6.17217Q12.1278 5.69875 11.9338 5.30293Q11.7397 4.90711 11.3944 4.67816Q11.049 4.44921 10.6221 4.44921Q10.1953 4.44921 9.84991 4.6704Q9.50454 4.89159 9.31051 5.28353Q9.11648 5.67546 9.11648 6.17217Q9.11648 6.66889 9.31051 7.07246Q9.50454 7.47604 9.84603 7.70499Q10.1875 7.93395 10.6221 7.93395Q11.049 7.93395 11.3944 7.70499Q11.7397 7.47604 11.9338 7.07246Q12.1278 6.66889 12.1278 6.17217ZM16.7767 4.43369V6.69217Q16.7767 7.42948 16.3615 7.81365Q15.9463 8.19782 15.2322 8.19782Q14.5182 8.19782 14.1069 7.81365Q13.6955 7.42948 13.6955 6.69217V4.43369Q13.6955 4.3716 13.7421 4.32503Q13.7887 4.27846 13.8508 4.27846Q13.9206 4.27846 13.9633 4.32503Q14.006 4.3716 14.006 4.43369V6.69217Q14.006 7.27425 14.3319 7.58858Q14.6579 7.9029 15.2322 7.9029Q15.8143 7.9029 16.1403 7.58858Q16.4663 7.27425 16.4663 6.69217V4.43369Q16.4663 4.3716 16.5089 4.32503Q16.5516 4.27846 16.6215 4.27846Q16.6913 4.27846 16.734 4.32503Q16.7767 4.3716 16.7767 4.43369ZM21.0919 4.70533Q21.0919 4.76741 21.0492 4.81398Q21.0065 4.86055 20.9444 4.86055Q20.8746 4.86055 20.8396 4.83726Q20.8047 4.81398 20.7426 4.75189Q20.6417 4.63547 20.5331 4.58115Q20.2537 4.44921 19.7414 4.44921Q19.2991 4.44921 18.9226 4.68204Q18.5462 4.91488 18.325 5.31457Q18.1039 5.71427 18.1039 6.1877Q18.1039 6.68441 18.3095 7.08411Q18.5152 7.4838 18.8916 7.70887Q19.268 7.93395 19.7414 7.93395Q20.0519 7.93395 20.2304 7.87962Q20.4089 7.82529 20.5874 7.7244Q20.7116 7.64679 20.8047 7.55365Q20.8435 7.51485 20.8823 7.48768Q20.9211 7.46052 20.9599 7.46052Q21.022 7.46052 21.057 7.49932Q21.0919 7.53813 21.0919 7.60022Q21.0919 7.70887 20.9134 7.86022Q20.7349 8.01156 20.4205 8.12021Q20.1062 8.22887 19.7182 8.22887Q19.1594 8.22887 18.7209 7.96499Q18.2824 7.70111 18.0379 7.23545Q17.7934 6.76978 17.7934 6.1877Q17.7934 5.64442 18.0379 5.17875Q18.2824 4.71309 18.7286 4.43369Q19.1749 4.15429 19.7492 4.15429Q20.0829 4.15429 20.3973 4.2319Q20.7116 4.30951 20.9017 4.43757Q21.0919 4.56562 21.0919 4.70533ZM25.2441 7.35962Q25.2441 7.41395 25.213 7.45276Q24.9569 7.79425 24.5766 8.01156Q24.1963 8.22887 23.7617 8.22887Q23.1796 8.22887 22.7295 7.98051Q22.2793 7.73216 22.0271 7.27425Q21.7749 6.81635 21.7749 6.21098Q21.7749 5.59009 22.0193 5.12054Q22.2638 4.651 22.6674 4.40264Q23.071 4.15429 23.5289 4.15429Q23.9868 4.15429 24.3787 4.35219Q24.7706 4.5501 25.019 4.94592Q25.2674 5.34174 25.2829 5.92382Q25.2829 5.98591 25.2363 6.03636Q25.1897 6.0868 25.1277 6.0868H22.0775V6.1877Q22.0775 6.66889 22.2716 7.06858Q22.4656 7.46828 22.8459 7.70111Q23.2262 7.93395 23.7617 7.93395Q24.1342 7.93395 24.4641 7.75156Q24.7939 7.56917 24.9802 7.28977Q25.0345 7.21992 25.1121 7.21992Q25.1665 7.21992 25.2053 7.26261Q25.2441 7.3053 25.2441 7.35962ZM22.1086 5.79188H24.9647V5.72203Q24.9259 5.32621 24.7124 5.04293Q24.499 4.75965 24.1847 4.61219Q23.8704 4.46473 23.5289 4.46473Q23.2417 4.46473 22.9429 4.61607Q22.6441 4.76741 22.4151 5.06622Q22.1862 5.36502 22.1086 5.79188Z" style="display:inline;stroke:#000000;stroke-width:0.35;stroke-linecap:round;stroke-linejoin:bevel" />
        <path id="sapphire_gemstone" d="m 17.955,122.900 q 0,0.34175 -0.242534,0.63114 -0.0441,0.0524 -0.20395,0.21497 -0.187413,0.19017 -0.785481,0.81304 l -1.444183,1.51309 q -0.01929,0.003 -0.0441,0.003 -0.02756,0 -0.04134,-0.003 -0.08268,-0.0827 -0.647678,-0.67524 -0.468532,-0.47404 -0.934309,-0.94809 -0.556727,-0.56775 -0.89848,-0.98116 -0.132292,-0.15985 -0.168121,-0.29766 -0.02756,-0.10197 -0.02756,-0.34175 0,-0.11024 0.07166,-0.28939 0.06614,-0.16536 0.140559,-0.26458 0.118512,-0.1571 0.42168,-0.42444 0.283875,-0.2508 0.474044,-0.37482 0.272852,-0.17915 0.818555,-0.36656 0.09646,-0.0331 0.110243,-0.0331 h 1.3615 q 0.01102,0 0.104731,0.0331 0.567751,0.20119 0.824066,0.36656 0.165365,0.10473 0.474045,0.37758 0.322461,0.28388 0.421679,0.42168 0.214974,0.2949 0.214974,0.62563 z m -0.16812,-0.27285 q -0.03307,-0.10749 -0.135048,-0.30868 -0.07166,-0.0937 -0.209462,-0.19844 -0.118511,-0.0854 -0.234266,-0.17088 0.245291,0.3638 0.578776,0.678 z m -0.573264,-0.52366 -0.358289,-0.44648 v 0.41065 z m 0.636653,0.75792 q 0,-0.0524 -0.341753,-0.39412 l 0.228754,0.7028 h 0.04961 q 0.06339,-0.21773 0.06339,-0.30868 z m -0.23151,0.27285 -0.316948,-0.90399 -0.410655,-0.0634 -0.159853,0.61461 z m 0.0028,0.15434 -0.771701,-0.3197 h -0.03032 l 0.344509,0.60634 q 0.07993,-0.003 0.234266,-0.0469 0.02481,-0.0138 0.223242,-0.23978 z m -0.857139,-1.05006 -0.719335,0.28388 0.60358,0.22599 z m 0,-0.16261 v -0.51538 l -0.917773,-0.38034 h -1.223697 l -0.917772,0.38034 v 0.51538 l 0.89848,0.4079 h 1.254014 z m 0.573264,1.53789 q -0.0689,0.011 -0.198438,0.0524 -0.08544,0.0551 -0.259071,0.16261 0.01929,0 0.06339,0.003 0.04134,0 0.06339,0 0.118511,0 0.190169,-0.0689 0.07166,-0.0717 0.14056,-0.14883 z m -0.289388,0.003 -0.347266,-0.63114 -0.363801,0.87918 q 0.0248,-0.0165 0.06615,-0.0165 0.03032,0 0.08544,0.011 0.05788,0.008 0.08819,0.008 0.04961,0 0.228754,-0.10749 0.228754,-0.1378 0.242535,-0.14331 z m -0.440972,-0.74139 -0.683507,-0.2756 -0.592556,0.54845 0.903993,0.65595 z m -0.854383,-0.28387 h -1.036284 l 0.523654,0.47404 z m 0.749652,1.36701 q -0.228754,-0.0303 -0.228754,-0.0303 -0.03583,0 -0.272851,0.0937 l 0.190169,0.0193 q 0.01102,0 0.311436,-0.0827 z m -0.388606,-0.0882 -0.843359,-0.61185 v 0.67524 l 0.471289,0.0827 z m 0.854383,0.0496 q -0.09922,0.006 -0.2949,0.0386 -0.01102,0.003 -0.377583,0.17639 -0.129535,0.34726 -0.380338,1.0418 z m -2.543857,-1.39733 -0.719335,-0.28388 0.124023,0.51814 z m -0.802018,-0.45476 v -0.41065 l -0.366557,0.44648 z m 1.515841,1.07212 -0.592556,-0.54019 -0.683506,0.2756 0.380338,0.9288 z m 0.369314,0.94257 q -0.03307,-0.003 -0.135047,-0.0248 -0.08544,-0.0165 -0.137804,-0.0165 -0.05237,0 -0.137804,0.0165 -0.101975,0.0221 -0.135047,0.0248 0.264583,0.0469 0.272851,0.0469 0.0083,0 0.272851,-0.0469 z m -0.30868,-0.1378 v -0.68626 l -0.843359,0.61185 0.37207,0.14607 z m 0.950846,0.20671 -0.396875,-0.0551 -0.479557,0.14056 v 1.27607 z m -2.888366,-2.20211 q -0.118512,0.0854 -0.234267,0.17364 -0.146072,0.10748 -0.209461,0.19568 -0.0441,0.10473 -0.135048,0.31419 0.369314,-0.3638 0.578776,-0.68351 z m 0.476801,0.83234 -0.159853,-0.61461 -0.410655,0.0634 -0.316948,0.90399 z m 0.394118,1.08313 -0.363802,-0.87918 -0.355533,0.63114 q 0.43546,0.2508 0.451996,0.2508 0.09095,0 0.267339,-0.003 z m 1.821765,0.82958 q -0.132291,0.21222 -0.405143,0.6339 -0.07717,0.10749 -0.220486,0.32797 -0.05788,0.10473 -0.05512,0.226 0.159852,-0.15158 0.432704,-0.49609 0.07717,-0.12954 0.140559,-0.339 0.05512,-0.17639 0.107486,-0.35278 z m -1.493792,-0.66146 -0.270095,-0.0882 -0.0083,-0.011 q -0.02481,0 -0.107487,0.011 -0.06615,0.006 -0.107487,0.006 0.272851,0.091 0.311436,0.091 0.02481,0 0.181901,-0.008 z m -0.810286,-1.06384 h -0.03032 l -0.7717,0.3197 q 0.06615,0.0965 0.223242,0.23978 0.07717,0.0138 0.234266,0.0469 z m -0.689018,-0.50161 q -0.341754,0.34727 -0.341754,0.39412 0,0.0799 0.06339,0.30868 h 0.04961 z m 2.235176,3.04547 v -1.27607 l -0.479557,-0.14056 -0.396875,0.0551 z m -1.606791,-1.6757 q -0.256315,-0.1819 -0.457509,-0.22324 0.06615,0.0772 0.20395,0.22324 z m 1.609547,2.04501 v -0.1378 l -0.683507,-1.05007 q 0.05237,0.17639 0.107487,0.35278 0.06339,0.20946 0.14056,0.339 0.0689,0.11851 0.20395,0.25907 0.115755,0.11851 0.23151,0.23702 z m -0.644921,-0.70555 q -0.115756,-0.32798 -0.380339,-1.0418 -0.135047,-0.0662 -0.272851,-0.12954 -0.159852,-0.0716 -0.289388,-0.0716 -0.05237,0 -0.110243,-0.0138 z" style="stroke-width:0;fill:#0000ff;stroke:#2e2114;stroke-linecap:square;stroke-opacity:1" />
        <path id="in_art" d="M 0.38,28.00 L 0.38,16.50 A 4 4 0 0 1 4.38 12.5 L 26.10,12.50 A 4 4 0 0 1 30.1 16.5 L 30.10,12.50 L 30.10,28.00 z" style="fill:url(#gradient_in);fill-opacity:1;stroke-width:0;" />
        <path id="controls_art" d="M 0.38,104.67 L 0.38,31.83 A 4 4 0 0 1 4.38 27.8333 L 26.10,27.83 A 4 4 0 0 1 30.1 31.8333 L 30.10,27.83 L 30.10,104.67 z" style="fill:url(#gradient_controls);fill-opacity:1;stroke-width:0;" />
        <path id="out_art" d="M 0.38,118.67 L 0.38,92.67 A 4 4 0 0 1 4.38 88.6667 L 26.10,88.67 A 4 4 0 0 1 30.1 92.6667 L 30.10,88.67 L 30.10,118.67 z" style="fill:url(#gradient_out);fill-opacity:1;stroke-width:0;" />
        <path d="M7.96118 16.7488Q7.9259 16.7488 7.9065 16.7277Q7.8871 16.7065 7.8871 16.6747V14.3535Q7.8871 14.3217 7.90826 14.3006Q7.92943 14.2794 7.96118 14.2794Q7.99293 14.2794 8.0141 14.3006Q8.03526 14.3217 8.03526 14.3535V16.6747Q8.03174 16.7065 8.01057 16.7277Q7.9894 16.7488 7.96118 16.7488ZM10.5929 14.3464V16.6712Q10.5929 16.71 10.5717 16.7294Q10.5506 16.7488 10.5188 16.7488Q10.4835 16.7488 10.4624 16.7206L8.87487 14.551V16.6889Q8.87487 16.7136 8.85547 16.7312Q8.83607 16.7488 8.80785 16.7488Q8.7761 16.7488 8.75846 16.7312Q8.74082 16.7136 8.74082 16.6889V14.3499Q8.74082 14.3147 8.76022 14.297Q8.77962 14.2794 8.80432 14.2794Q8.83607 14.2794 8.85724 14.3041L10.4588 16.4878V14.3464Q10.4588 14.3182 10.4782 14.2988Q10.4977 14.2794 10.5259 14.2794Q10.5576 14.2794 10.5753 14.2988Q10.5929 14.3182 10.5929 14.3464Z" style="stroke:#000000;stroke-width:0.25;stroke-linecap:round;stroke-linejoin:bevel" />
        <path d="M19.0016 14.5404Q19.0016 14.5687 18.9875 14.5863Q18.9663 14.6145 18.9346 14.6145Q18.9205 14.6145 18.8923 14.6004Q18.5642 14.3782 18.1973 14.3782Q17.901 14.3782 17.6523 14.5246Q17.4035 14.671 17.2589 14.9303Q17.1143 15.1896 17.1143 15.5141Q17.1143 15.8387 17.2589 16.098Q17.4035 16.3573 17.6523 16.5037Q17.901 16.6501 18.1973 16.6501Q18.5677 16.6501 18.8887 16.4313Q18.9064 16.4172 18.9311 16.4172Q18.9663 16.4172 18.9875 16.4454Q19.0016 16.4631 19.0016 16.4878Q19.0016 16.5231 18.9734 16.5442Q18.8358 16.643 18.6189 16.7136Q18.4019 16.7841 18.1973 16.7841Q17.8622 16.7841 17.5799 16.6183Q17.2977 16.4525 17.1319 16.1615Q16.9661 15.8704 16.9661 15.5141Q16.9661 15.1578 17.1319 14.8668Q17.2977 14.5757 17.5799 14.4099Q17.8622 14.2441 18.1973 14.2441Q18.409 14.2441 18.6083 14.3076Q18.8076 14.3711 18.9699 14.484Q19.0016 14.5087 19.0016 14.5404ZM21.2912 16.6818Q21.2912 16.7136 21.27 16.7312Q21.2488 16.7488 21.2171 16.7488Q21.1924 16.7488 21.173 16.7365Q21.1536 16.7241 21.1465 16.703L20.8502 15.9763L20.8537 15.9833H19.6719L19.3862 16.703Q19.3685 16.7488 19.3227 16.7488Q19.2909 16.7488 19.2715 16.7312Q19.2521 16.7136 19.2486 16.6889Q19.245 16.6747 19.2521 16.6536L20.2011 14.3182Q20.2117 14.29 20.2275 14.2812Q20.2434 14.2723 20.2681 14.2723Q20.321 14.2723 20.3387 14.3182L21.2876 16.6536Q21.2912 16.6642 21.2912 16.6818ZM19.7283 15.8422H20.7973L20.2575 14.5122ZM21.5593 16.4137Q21.5381 16.3925 21.5381 16.3608Q21.5381 16.3326 21.5628 16.3061Q21.5875 16.2796 21.6157 16.2796Q21.6475 16.2796 21.6757 16.3114Q21.8133 16.4737 22.002 16.5583Q22.1907 16.643 22.3989 16.643Q22.6705 16.643 22.8469 16.5125Q23.0233 16.3819 23.0233 16.1668Q23.0198 15.9974 22.9316 15.8881Q22.8434 15.7787 22.7146 15.7134Q22.5858 15.6482 22.3636 15.567Q22.1202 15.4753 21.9844 15.4047Q21.8485 15.3342 21.7515 15.2037Q21.6545 15.0731 21.6545 14.8615Q21.6545 14.6886 21.7498 14.5475Q21.845 14.4064 22.0214 14.3253Q22.1978 14.2441 22.4306 14.2441Q22.6388 14.2441 22.8257 14.32Q23.0127 14.3958 23.1221 14.5334Q23.1573 14.5828 23.1573 14.6075Q23.1573 14.6357 23.1309 14.6586Q23.1044 14.6816 23.0727 14.6816Q23.0445 14.6816 23.0268 14.6604Q22.928 14.5334 22.7728 14.4593Q22.6176 14.3852 22.4306 14.3852Q22.1625 14.3852 21.9844 14.5122Q21.8062 14.6392 21.8062 14.8579Q21.8062 15.0096 21.8926 15.1155Q21.9791 15.2213 22.1096 15.2866Q22.2401 15.3518 22.4342 15.4224Q22.6811 15.5106 22.8257 15.5847Q22.9704 15.6588 23.0727 15.7999Q23.175 15.941 23.175 16.1738Q23.175 16.3361 23.0797 16.4772Q22.9845 16.6183 22.8063 16.7012Q22.6282 16.7841 22.3989 16.7841Q22.1378 16.7841 21.9438 16.6942Q21.7498 16.6042 21.5593 16.4137ZM25.5668 14.5404Q25.5668 14.5687 25.5527 14.5863Q25.5315 14.6145 25.4998 14.6145Q25.4857 14.6145 25.4575 14.6004Q25.1294 14.3782 24.7625 14.3782Q24.4662 14.3782 24.2174 14.5246Q23.9687 14.671 23.8241 14.9303Q23.6795 15.1896 23.6795 15.5141Q23.6795 15.8387 23.8241 16.098Q23.9687 16.3573 24.2174 16.5037Q24.4662 16.6501 24.7625 16.6501Q25.1329 16.6501 25.4539 16.4313Q25.4716 16.4172 25.4963 16.4172Q25.5315 16.4172 25.5527 16.4454Q25.5668 16.4631 25.5668 16.4878Q25.5668 16.5231 25.5386 16.5442Q25.401 16.643 25.1841 16.7136Q24.9671 16.7841 24.7625 16.7841Q24.4273 16.7841 24.1451 16.6183Q23.8629 16.4525 23.6971 16.1615Q23.5313 15.8704 23.5313 15.5141Q23.5313 15.1578 23.6971 14.8668Q23.8629 14.5757 24.1451 14.4099Q24.4273 14.2441 24.7625 14.2441Q24.9742 14.2441 25.1735 14.3076Q25.3728 14.3711 25.5351 14.484Q25.5668 14.5087 25.5668 14.5404Z" style="stroke:#000000;stroke-width:0.25;stroke-linecap:round;stroke-linejoin:bevel" />
        <path d="M9.06008 93.3449Q9.06008 93.3767 9.03892 93.3961Q9.01775 93.4155 8.98953 93.4155H7.69483Q7.66308 93.4155 7.64368 93.3943Q7.62428 93.3732 7.62428 93.3449V91.0166Q7.62428 90.9884 7.64544 90.9672Q7.66661 90.9461 7.69836 90.9461Q7.73011 90.9461 7.75128 90.9672Q7.77244 90.9884 7.77244 91.0166V93.2744H8.98953Q9.01775 93.2744 9.03892 93.2956Q9.06008 93.3167 9.06008 93.3449ZM11.0497 91.6199Q11.0497 91.8174 10.9668 91.9779Q10.8839 92.1384 10.7323 92.2284Q10.5806 92.3184 10.383 92.3184H9.61394V93.3449Q9.61394 93.3732 9.59101 93.3943Q9.56808 93.4155 9.53986 93.4155Q9.50811 93.4155 9.48694 93.3943Q9.46578 93.3732 9.46578 93.3449V91.0166Q9.46578 90.9884 9.48694 90.9672Q9.50811 90.9461 9.53633 90.9461H10.383Q10.6829 90.9461 10.8663 91.133Q11.0497 91.32 11.0497 91.6199ZM10.9016 91.6199Q10.9016 91.3764 10.7622 91.2318Q10.6229 91.0872 10.383 91.0872H9.61394V92.1773H10.383Q10.6194 92.1773 10.7605 92.0203Q10.9016 91.8633 10.9016 91.6199Z" style="stroke:#000000;stroke-width:0.25;stroke-linecap:round;stroke-linejoin:bevel" />
        <path d="M21.1624 92.7488Q21.1624 93.0698 20.9595 93.2426Q20.7567 93.4155 20.4427 93.4155H19.4691Q19.4408 93.4155 19.4197 93.3943Q19.3985 93.3732 19.3985 93.3449V91.0166Q19.3985 90.9884 19.4197 90.9672Q19.4408 90.9461 19.4691 90.9461H20.418Q20.7003 90.9461 20.8696 91.1083Q21.0389 91.2706 21.0389 91.5458Q21.0389 91.7433 20.9401 91.9038Q20.8414 92.0644 20.665 92.1243Q20.8908 92.1667 21.0266 92.3289Q21.1624 92.4912 21.1624 92.7488ZM20.4004 91.0872H19.5467V92.0785H20.4004Q20.6191 92.0749 20.7549 91.9356Q20.8908 91.7963 20.8908 91.5423Q20.8908 91.3341 20.762 91.2106Q20.6332 91.0872 20.4004 91.0872ZM21.0142 92.7488Q21.0142 92.4877 20.8519 92.3554Q20.6897 92.2231 20.4251 92.2231H19.5467V93.2744H20.4251Q20.6897 93.2744 20.8519 93.1421Q21.0142 93.0098 21.0142 92.7488ZM23.2755 91.6199Q23.2755 91.8174 23.1926 91.9779Q23.1097 92.1384 22.958 92.2284Q22.8063 92.3184 22.6088 92.3184H21.8397V93.3449Q21.8397 93.3732 21.8168 93.3943Q21.7939 93.4155 21.7656 93.4155Q21.7339 93.4155 21.7127 93.3943Q21.6916 93.3732 21.6916 93.3449V91.0166Q21.6916 90.9884 21.7127 90.9672Q21.7339 90.9461 21.7621 90.9461H22.6088Q22.9086 90.9461 23.0921 91.133Q23.2755 91.32 23.2755 91.6199ZM23.1274 91.6199Q23.1274 91.3764 22.988 91.2318Q22.8487 91.0872 22.6088 91.0872H21.8397V92.1773H22.6088Q22.8451 92.1773 22.9862 92.0203Q23.1274 91.8633 23.1274 91.6199Z" style="stroke:#000000;stroke-width:0.25;stroke-linecap:round;stroke-linejoin:bevel" />
        <path d="M9.10947 105.02V107.341Q9.10594 107.373 9.08478 107.394Q9.06361 107.416 9.03539 107.416Q9.00011 107.416 8.98071 107.394Q8.96131 107.373 8.96131 107.341V106.216H7.42319V107.341Q7.41967 107.373 7.3985 107.394Q7.37733 107.416 7.34911 107.416Q7.31383 107.416 7.29443 107.394Q7.27503 107.373 7.27503 107.341V105.02Q7.27503 104.988 7.29619 104.967Q7.31736 104.946 7.34911 104.946Q7.38086 104.946 7.40203 104.967Q7.42319 104.988 7.42319 105.02V106.075H8.96131V105.02Q8.96131 104.988 8.98247 104.967Q9.00364 104.946 9.03539 104.946Q9.06714 104.946 9.08831 104.967Q9.10947 104.988 9.10947 105.02ZM11.399 105.62Q11.399 105.817 11.3161 105.978Q11.2332 106.138 11.0815 106.228Q10.9298 106.318 10.7323 106.318H9.96319V107.345Q9.96319 107.373 9.94026 107.394Q9.91733 107.416 9.88911 107.416Q9.85736 107.416 9.83619 107.394Q9.81503 107.373 9.81503 107.345V105.017Q9.81503 104.988 9.83619 104.967Q9.85736 104.946 9.88558 104.946H10.7323Q11.0321 104.946 11.2156 105.133Q11.399 105.32 11.399 105.62ZM11.2508 105.62Q11.2508 105.376 11.1115 105.232Q10.9721 105.087 10.7323 105.087H9.96319V106.177H10.7323Q10.9686 106.177 11.1097 106.02Q11.2508 105.863 11.2508 105.62Z" style="stroke:#000000;stroke-width:0.25;stroke-linecap:round;stroke-linejoin:bevel" />
        <path d="M22.166 105.013V107.338Q22.166 107.377 22.1449 107.396Q22.1237 107.416 22.092 107.416Q22.0567 107.416 22.0355 107.387L20.448 105.218V107.356Q20.448 107.38 20.4286 107.398Q20.4092 107.416 20.381 107.416Q20.3492 107.416 20.3316 107.398Q20.314 107.38 20.314 107.356V105.017Q20.314 104.981 20.3334 104.964Q20.3528 104.946 20.3775 104.946Q20.4092 104.946 20.4304 104.971L22.032 107.154V105.013Q22.032 104.985 22.0514 104.965Q22.0708 104.946 22.099 104.946Q22.1308 104.946 22.1484 104.965Q22.166 104.985 22.166 105.013Z" style="stroke:#000000;stroke-width:0.25;stroke-linecap:round;stroke-linejoin:bevel" />
        <path d="M12.513 29.6833Q12.513 29.715 12.4919 29.7344Q12.4707 29.7538 12.4425 29.7538H11.1831V30.7275H12.2837Q12.3119 30.7275 12.3331 30.7487Q12.3543 30.7698 12.3543 30.7981Q12.3543 30.8298 12.3331 30.8492Q12.3119 30.8686 12.2837 30.8686H11.1831V32.0116Q11.1831 32.0398 11.1637 32.061Q11.1443 32.0822 11.1125 32.0822Q11.0808 32.0822 11.0613 32.061Q11.0419 32.0398 11.0419 32.0116V29.6833Q11.0419 29.6551 11.0631 29.6339Q11.0843 29.6127 11.1125 29.6127H12.4425Q12.4707 29.6127 12.4919 29.6339Q12.513 29.6551 12.513 29.6833ZM14.8378 32.0081Q14.8378 32.0398 14.8184 32.0592Q14.799 32.0786 14.7708 32.0786Q14.7496 32.0786 14.7391 32.0716Q14.6438 32.0187 14.5874 31.8934Q14.5309 31.7682 14.5309 31.4824Q14.5309 31.1932 14.3757 31.0856Q14.2205 30.978 14.0159 30.978H13.1904V32.0116Q13.1904 32.0398 13.1692 32.061Q13.148 32.0822 13.1163 32.0822Q13.0845 32.0822 13.0634 32.061Q13.0422 32.0398 13.0422 32.0116V29.6833Q13.0422 29.6551 13.0634 29.6339Q13.0845 29.6127 13.1128 29.6127H14.0441Q14.2487 29.6127 14.4074 29.6956Q14.5662 29.7785 14.6544 29.9232Q14.7426 30.0678 14.7426 30.2512Q14.7426 30.4876 14.6173 30.6569Q14.4921 30.8263 14.291 30.8863Q14.4604 30.9392 14.5697 31.0962Q14.6791 31.2531 14.6791 31.4824Q14.6791 31.7188 14.7091 31.8123Q14.7391 31.9058 14.799 31.9446Q14.8378 31.9693 14.8378 32.0081ZM14.0617 30.8369Q14.284 30.8157 14.4392 30.6605Q14.5944 30.5053 14.5944 30.2548Q14.5944 30.0361 14.4392 29.8949Q14.284 29.7538 14.0264 29.7538H13.1904V30.8369ZM16.8557 32.0116Q16.8557 32.0434 16.8346 32.0628Q16.8134 32.0822 16.7852 32.0822H15.4552Q15.427 32.0822 15.4058 32.061Q15.3846 32.0398 15.3846 32.0116V29.6833Q15.3846 29.6551 15.4058 29.6339Q15.427 29.6127 15.4552 29.6127H16.7852Q16.8134 29.6127 16.8346 29.6339Q16.8557 29.6551 16.8557 29.6833Q16.8557 29.715 16.8346 29.7344Q16.8134 29.7538 16.7852 29.7538H15.5328V30.7381H16.6264Q16.6546 30.7381 16.6758 30.7593Q16.697 30.7804 16.697 30.8086Q16.697 30.8404 16.6758 30.8598Q16.6546 30.8792 16.6264 30.8792H15.5328V31.9411H16.7852Q16.8134 31.9411 16.8346 31.9622Q16.8557 31.9834 16.8557 32.0116ZM19.8438 32.3714Q19.8438 32.4385 19.745 32.5073Q19.6462 32.5761 19.4998 32.6202Q19.3534 32.6642 19.2229 32.6642Q19.0288 32.6642 18.8948 32.6219Q18.7607 32.5796 18.5879 32.4949Q18.4432 32.4208 18.3374 32.3856Q18.2316 32.3503 18.094 32.3503Q18.0446 32.3503 18.004 32.3626Q17.9634 32.375 17.907 32.3997Q17.8435 32.4279 17.8223 32.4279Q17.7941 32.4279 17.7729 32.4067Q17.7518 32.3856 17.7518 32.3538Q17.7518 32.3115 17.7906 32.2938L18.3056 32.1139Q17.9846 32.0963 17.7359 31.9305Q17.4872 31.7647 17.3478 31.4842Q17.2085 31.2037 17.2085 30.8474Q17.2085 30.477 17.3584 30.1878Q17.5084 29.8985 17.7765 29.738Q18.0446 29.5774 18.3868 29.5774Q18.729 29.5774 18.9971 29.738Q19.2652 29.8985 19.4151 30.1878Q19.5651 30.477 19.5651 30.8474Q19.5651 31.1649 19.4539 31.4225Q19.3428 31.68 19.14 31.8529Q18.9371 32.0257 18.6725 32.0857L18.2386 32.2268Q18.348 32.2374 18.4415 32.2727Q18.5349 32.3079 18.6655 32.3714Q18.8348 32.4526 18.9512 32.4914Q19.0676 32.5302 19.2229 32.5302Q19.3534 32.5302 19.4469 32.4967Q19.5404 32.4632 19.6286 32.4138Q19.6568 32.3997 19.6956 32.3609Q19.7168 32.3397 19.7397 32.3256Q19.7626 32.3115 19.7838 32.3115Q19.812 32.3115 19.8279 32.3273Q19.8438 32.3432 19.8438 32.3714ZM18.3868 31.9763Q18.6866 31.9763 18.9212 31.8352Q19.1558 31.6941 19.2864 31.4366Q19.4169 31.1791 19.4169 30.8474Q19.4169 30.5158 19.2864 30.2583Q19.1558 30.0008 18.9212 29.8597Q18.6866 29.7186 18.3868 29.7186Q18.0869 29.7186 17.8523 29.8597Q17.6177 30.0008 17.4872 30.2583Q17.3567 30.5158 17.3567 30.8474Q17.3567 31.1791 17.4872 31.4366Q17.6177 31.6941 17.8523 31.8352Q18.0869 31.9763 18.3868 31.9763Z" style="stroke:#000000;stroke-width:0.25;stroke-linecap:round;stroke-linejoin:bevel" />
        <path d="M 6.24,37.33 L 24.24,37.33 z " style="stroke:#000000;stroke-width:0.25;stroke-linecap:round;stroke-linejoin:bevel;stroke-dasharray:none" />
        <path d="M14.2469 47.3414Q14.2469 47.3732 14.2275 47.3926Q14.2081 47.412 14.1799 47.412Q14.1587 47.412 14.1482 47.4049Q14.0529 47.352 13.9965 47.2268Q13.94 47.1015 13.94 46.8158Q13.94 46.5265 13.7848 46.4189Q13.6296 46.3113 13.425 46.3113H12.5995V47.3449Q12.5995 47.3732 12.5783 47.3943Q12.5571 47.4155 12.5254 47.4155Q12.4936 47.4155 12.4725 47.3943Q12.4513 47.3732 12.4513 47.3449V45.0166Q12.4513 44.9884 12.4725 44.9672Q12.4936 44.9461 12.5218 44.9461H13.4532Q13.6578 44.9461 13.8165 45.029Q13.9753 45.1119 14.0635 45.2565Q14.1517 45.4011 14.1517 45.5846Q14.1517 45.8209 14.0264 45.9903Q13.9012 46.1596 13.7001 46.2196Q13.8695 46.2725 13.9788 46.4295Q14.0882 46.5865 14.0882 46.8158Q14.0882 47.0521 14.1182 47.1456Q14.1482 47.2391 14.2081 47.2779Q14.2469 47.3026 14.2469 47.3414ZM13.4708 46.1702Q13.6931 46.149 13.8483 45.9938Q14.0035 45.8386 14.0035 45.5881Q14.0035 45.3694 13.8483 45.2283Q13.6931 45.0872 13.4355 45.0872H12.5995V46.1702ZM16.2648 47.3449Q16.2648 47.3767 16.2437 47.3961Q16.2225 47.4155 16.1943 47.4155H14.8643Q14.8361 47.4155 14.8149 47.3943Q14.7937 47.3732 14.7937 47.3449V45.0166Q14.7937 44.9884 14.8149 44.9672Q14.8361 44.9461 14.8643 44.9461H16.1943Q16.2225 44.9461 16.2437 44.9672Q16.2648 44.9884 16.2648 45.0166Q16.2648 45.0484 16.2437 45.0678Q16.2225 45.0872 16.1943 45.0872H14.9419V46.0714H16.0355Q16.0637 46.0714 16.0849 46.0926Q16.1061 46.1138 16.1061 46.142Q16.1061 46.1737 16.0849 46.1931Q16.0637 46.2125 16.0355 46.2125H14.9419V47.2744H16.1943Q16.2225 47.2744 16.2437 47.2956Q16.2648 47.3167 16.2648 47.3449ZM16.5858 47.0804Q16.5647 47.0592 16.5647 47.0274Q16.5647 46.9992 16.5894 46.9728Q16.6141 46.9463 16.6423 46.9463Q16.674 46.9463 16.7023 46.9781Q16.8398 47.1403 17.0286 47.225Q17.2173 47.3097 17.4255 47.3097Q17.6971 47.3097 17.8735 47.1791Q18.0499 47.0486 18.0499 46.8334Q18.0463 46.6641 17.9582 46.5547Q17.87 46.4454 17.7412 46.3801Q17.6124 46.3148 17.3902 46.2337Q17.1468 46.142 17.0109 46.0714Q16.8751 46.0009 16.7781 45.8703Q16.6811 45.7398 16.6811 45.5281Q16.6811 45.3553 16.7763 45.2142Q16.8716 45.0731 17.048 44.9919Q17.2244 44.9108 17.4572 44.9108Q17.6653 44.9108 17.8523 44.9866Q18.0393 45.0625 18.1487 45.2001Q18.1839 45.2494 18.1839 45.2741Q18.1839 45.3024 18.1575 45.3253Q18.131 45.3482 18.0993 45.3482Q18.071 45.3482 18.0534 45.3271Q17.9546 45.2001 17.7994 45.126Q17.6442 45.0519 17.4572 45.0519Q17.1891 45.0519 17.0109 45.1789Q16.8328 45.3059 16.8328 45.5246Q16.8328 45.6763 16.9192 45.7821Q17.0057 45.888 17.1362 45.9532Q17.2667 46.0185 17.4607 46.0891Q17.7077 46.1773 17.8523 46.2513Q17.997 46.3254 18.0993 46.4665Q18.2016 46.6076 18.2016 46.8405Q18.2016 47.0027 18.1063 47.1439Q18.0111 47.285 17.8329 47.3679Q17.6548 47.4508 17.4255 47.4508Q17.1644 47.4508 16.9704 47.3608Q16.7763 47.2709 16.5858 47.0804Z" style="stroke:#000000;stroke-width:0.25;stroke-linecap:round;stroke-linejoin:bevel" />
        <path d="M 6.24,52.67 L 24.24,52.67 z " style="stroke:#000000;stroke-width:0.25;stroke-linecap:round;stroke-linejoin:bevel;stroke-dasharray:none" />
        <path d="M14.8837 60.3499V62.6783Q14.8837 62.7065 14.8608 62.7277Q14.8378 62.7488 14.8096 62.7488Q14.7779 62.7488 14.7567 62.7277Q14.7355 62.7065 14.7355 62.6783V60.5687L13.8254 61.9445Q13.8077 61.9727 13.776 61.9727Q13.7372 61.9727 13.7195 61.9445L12.8058 60.5651V62.6783Q12.8058 62.7065 12.7847 62.7277Q12.7635 62.7488 12.7353 62.7488Q12.7035 62.7488 12.6841 62.7277Q12.6647 62.7065 12.6647 62.6783V60.3499Q12.6647 60.3252 12.6841 60.3023Q12.7035 60.2794 12.7317 60.2794Q12.7776 60.2794 12.7988 60.3111L13.776 61.7646L14.7532 60.3111Q14.7814 60.2723 14.8202 60.2794Q14.8484 60.2829 14.8661 60.3023Q14.8837 60.3217 14.8837 60.3499ZM15.6633 62.7488Q15.6281 62.7488 15.6087 62.7277Q15.5892 62.7065 15.5892 62.6747V60.3535Q15.5892 60.3217 15.6104 60.3006Q15.6316 60.2794 15.6633 60.2794Q15.6951 60.2794 15.7162 60.3006Q15.7374 60.3217 15.7374 60.3535V62.6747Q15.7339 62.7065 15.7127 62.7277Q15.6916 62.7488 15.6633 62.7488ZM18.0446 62.6465Q18.0622 62.6712 18.0622 62.6889Q18.0622 62.7206 18.0411 62.74Q18.0199 62.7594 17.9881 62.7594Q17.9493 62.7594 17.9317 62.7312L17.1238 61.6305L16.3195 62.7312Q16.3019 62.7594 16.2666 62.7594Q16.2348 62.7594 16.2172 62.74Q16.1996 62.7206 16.1996 62.6994Q16.1996 62.6818 16.2172 62.6536L17.0462 61.5212L16.2101 60.3817Q16.196 60.3641 16.196 60.3394Q16.196 60.3076 16.2172 60.2882Q16.2384 60.2688 16.2666 60.2688Q16.3089 60.2688 16.3266 60.297L17.1344 61.4012L17.9387 60.2935Q17.9599 60.2653 17.9917 60.2653Q18.0234 60.2653 18.0428 60.2812Q18.0622 60.297 18.0622 60.3217Q18.0622 60.3464 18.0446 60.3711L17.2156 61.5141Z" style="stroke:#000000;stroke-width:0.25;stroke-linecap:round;stroke-linejoin:bevel" />
        <path d="M 6.24,68.00 L 24.24,68.00 z " style="stroke:#000000;stroke-width:0.25;stroke-linecap:round;stroke-linejoin:bevel;stroke-dasharray:none" />
        <path d="M13.3844 76.9356V77.8211Q13.3844 77.8634 13.3526 77.8846Q13.1904 77.994 12.9981 78.0557Q12.8058 78.1174 12.6083 78.1174Q12.2449 78.1174 11.9574 77.9534Q11.6699 77.7894 11.5058 77.5001Q11.3418 77.2108 11.3418 76.8474Q11.3418 76.4841 11.5058 76.1948Q11.6699 75.9055 11.9574 75.7415Q12.2449 75.5774 12.6083 75.5774Q12.8058 75.5774 12.984 75.6251Q13.1621 75.6727 13.3033 75.7679Q13.335 75.7891 13.335 75.8279Q13.335 75.8597 13.3121 75.8791Q13.2891 75.8985 13.268 75.8985Q13.2503 75.8985 13.2221 75.8844Q12.9258 75.7186 12.6083 75.7186Q12.2837 75.7186 12.0297 75.8632Q11.7757 76.0078 11.6328 76.2654Q11.49 76.5229 11.49 76.8474Q11.49 77.172 11.6328 77.4295Q11.7757 77.6871 12.0297 77.8317Q12.2837 77.9763 12.6083 77.9763Q12.7706 77.9763 12.9381 77.9252Q13.1057 77.874 13.2433 77.7894V77.0062H12.6083Q12.5801 77.0062 12.5589 76.985Q12.5377 76.9639 12.5377 76.9356Q12.5377 76.9039 12.5589 76.8845Q12.5801 76.8651 12.6083 76.8651H13.3138Q13.3456 76.8651 13.365 76.8863Q13.3844 76.9074 13.3844 76.9356ZM15.7797 78.0151Q15.7797 78.0469 15.7586 78.0645Q15.7374 78.0822 15.7057 78.0822Q15.681 78.0822 15.6616 78.0698Q15.6422 78.0575 15.6351 78.0363L15.3388 77.3096L15.3423 77.3166H14.1605L13.8748 78.0363Q13.8571 78.0822 13.8112 78.0822Q13.7795 78.0822 13.7601 78.0645Q13.7407 78.0469 13.7372 78.0222Q13.7336 78.0081 13.7407 77.9869L14.6897 75.6515Q14.7003 75.6233 14.7161 75.6145Q14.732 75.6057 14.7567 75.6057Q14.8096 75.6057 14.8272 75.6515L15.7762 77.9869Q15.7797 77.9975 15.7797 78.0151ZM14.2169 77.1755H15.2859L14.7461 75.8456ZM16.3301 78.0822Q16.2948 78.0822 16.2754 78.061Q16.256 78.0398 16.256 78.0081V75.6868Q16.256 75.6551 16.2772 75.6339Q16.2983 75.6127 16.3301 75.6127Q16.3618 75.6127 16.383 75.6339Q16.4042 75.6551 16.4042 75.6868V78.0081Q16.4006 78.0398 16.3795 78.061Q16.3583 78.0822 16.3301 78.0822ZM18.9618 75.6798V78.0046Q18.9618 78.0434 18.9406 78.0628Q18.9195 78.0822 18.8877 78.0822Q18.8524 78.0822 18.8313 78.0539L17.2438 75.8844V78.0222Q17.2438 78.0469 17.2244 78.0645Q17.205 78.0822 17.1767 78.0822Q17.145 78.0822 17.1274 78.0645Q17.1097 78.0469 17.1097 78.0222V75.6833Q17.1097 75.648 17.1291 75.6304Q17.1485 75.6127 17.1732 75.6127Q17.205 75.6127 17.2261 75.6374L18.8277 77.8211V75.6798Q18.8277 75.6515 18.8472 75.6321Q18.8666 75.6127 18.8948 75.6127Q18.9265 75.6127 18.9442 75.6321Q18.9618 75.6515 18.9618 75.6798Z" style="stroke:#000000;stroke-width:0.25;stroke-linecap:round;stroke-linejoin:bevel" />
        <path d="M 6.24,83.33 L 24.24,83.33 z " style="stroke:#000000;stroke-width:0.25;stroke-linecap:round;stroke-linejoin:bevel;stroke-dasharray:none" />
    </g>
</svg>
