<?xml version="1.0" encoding="utf-8"?>
<svg xmlns="http://www.w3.org/2000/svg" width="20.32mm" height="128.50mm" viewBox="0 0 20.32 128.50">
    <g id="PanelLayer">
        <defs />
        <g id="ControlLayer" style="display:none;">
            <circle id="speed_knob" cx="10.16" cy="26" r="1" />
            <circle id="speed_atten" cx="5.16" cy="37" r="1" />
            <circle id="speed_cv" cx="15.16" cy="37" r="1" />
            <circle id="viscosity_knob" cx="10.16" cy="57" r="1" />
            <circle id="viscosity_atten" cx="5.16" cy="68" r="1" />
            <circle id="viscosity_cv" cx="15.16" cy="68" r="1" />
            <circle id="target_input" cx="10.16" cy="96" r="1" />
            <circle id="slew_output" cx="10.16" cy="112" r="1" />
        </g>
        <rect id="border_rect" width="20.32" height="128.5" x="0" y="0" style="display:inline;fill:#4f8df2;fill-opacity:1;fill-rule:nonzero;stroke:#5021d4;stroke-width:0.7;stroke-linecap:round;stroke-linejoin:round;stroke-dasharray:none;stroke-opacity:1;image-rendering:auto" />
        <path id="sapphire_gemstone" d="m 12.875,122.900 q 0,0.34175 -0.242534,0.63114 -0.0441,0.0524 -0.20395,0.21497 -0.187413,0.19017 -0.785481,0.81304 l -1.444183,1.51309 q -0.01929,0.003 -0.0441,0.003 -0.02756,0 -0.04134,-0.003 -0.08268,-0.0827 -0.647678,-0.67524 -0.468532,-0.47404 -0.934309,-0.94809 -0.556727,-0.56775 -0.89848,-0.98116 -0.132292,-0.15985 -0.168121,-0.29766 -0.02756,-0.10197 -0.02756,-0.34175 0,-0.11024 0.07166,-0.28939 0.06614,-0.16536 0.140559,-0.26458 0.118512,-0.1571 0.42168,-0.42444 0.283875,-0.2508 0.474044,-0.37482 0.272852,-0.17915 0.818555,-0.36656 0.09646,-0.0331 0.110243,-0.0331 h 1.3615 q 0.01102,0 0.104731,0.0331 0.567751,0.20119 0.824066,0.36656 0.165365,0.10473 0.474045,0.37758 0.322461,0.28388 0.421679,0.42168 0.214974,0.2949 0.214974,0.62563 z m -0.16812,-0.27285 q -0.03307,-0.10749 -0.135048,-0.30868 -0.07166,-0.0937 -0.209462,-0.19844 -0.118511,-0.0854 -0.234266,-0.17088 0.245291,0.3638 0.578776,0.678 z m -0.573264,-0.52366 -0.358289,-0.44648 v 0.41065 z m 0.636653,0.75792 q 0,-0.0524 -0.341753,-0.39412 l 0.228754,0.7028 h 0.04961 q 0.06339,-0.21773 0.06339,-0.30868 z m -0.23151,0.27285 -0.316948,-0.90399 -0.410655,-0.0634 -0.159853,0.61461 z m 0.0028,0.15434 -0.771701,-0.3197 h -0.03032 l 0.344509,0.60634 q 0.07993,-0.003 0.234266,-0.0469 0.02481,-0.0138 0.223242,-0.23978 z m -0.857139,-1.05006 -0.719335,0.28388 0.60358,0.22599 z m 0,-0.16261 v -0.51538 l -0.917773,-0.38034 h -1.223697 l -0.917772,0.38034 v 0.51538 l 0.89848,0.4079 h 1.254014 z m 0.573264,1.53789 q -0.0689,0.011 -0.198438,0.0524 -0.08544,0.0551 -0.259071,0.16261 0.01929,0 0.06339,0.003 0.04134,0 0.06339,0 0.118511,0 0.190169,-0.0689 0.07166,-0.0717 0.14056,-0.14883 z m -0.289388,0.003 -0.347266,-0.63114 -0.363801,0.87918 q 0.0248,-0.0165 0.06615,-0.0165 0.03032,0 0.08544,0.011 0.05788,0.008 0.08819,0.008 0.04961,0 0.228754,-0.10749 0.228754,-0.1378 0.242535,-0.14331 z m -0.440972,-0.74139 -0.683507,-0.2756 -0.592556,0.54845 0.903993,0.65595 z m -0.854383,-0.28387 h -1.036284 l 0.523654,0.47404 z m 0.749652,1.36701 q -0.228754,-0.0303 -0.228754,-0.0303 -0.03583,0 -0.272851,0.0937 l 0.190169,0.0193 q 0.01102,0 0.311436,-0.0827 z m -0.388606,-0.0882 -0.843359,-0.61185 v 0.67524 l 0.471289,0.0827 z m 0.854383,0.0496 q -0.09922,0.006 -0.2949,0.0386 -0.01102,0.003 -0.377583,0.17639 -0.129535,0.34726 -0.380338,1.0418 z m -2.543857,-1.39733 -0.719335,-0.28388 0.124023,0.51814 z m -0.802018,-0.45476 v -0.41065 l -0.366557,0.44648 z m 1.515841,1.07212 -0.592556,-0.54019 -0.683506,0.2756 0.380338,0.9288 z m 0.369314,0.94257 q -0.03307,-0.003 -0.135047,-0.0248 -0.08544,-0.0165 -0.137804,-0.0165 -0.05237,0 -0.137804,0.0165 -0.101975,0.0221 -0.135047,0.0248 0.264583,0.0469 0.272851,0.0469 0.0083,0 0.272851,-0.0469 z m -0.30868,-0.1378 v -0.68626 l -0.843359,0.61185 0.37207,0.14607 z m 0.950846,0.20671 -0.396875,-0.0551 -0.479557,0.14056 v 1.27607 z m -2.888366,-2.20211 q -0.118512,0.0854 -0.234267,0.17364 -0.146072,0.10748 -0.209461,0.19568 -0.0441,0.10473 -0.135048,0.31419 0.369314,-0.3638 0.578776,-0.68351 z m 0.476801,0.83234 -0.159853,-0.61461 -0.410655,0.0634 -0.316948,0.90399 z m 0.394118,1.08313 -0.363802,-0.87918 -0.355533,0.63114 q 0.43546,0.2508 0.451996,0.2508 0.09095,0 0.267339,-0.003 z m 1.821765,0.82958 q -0.132291,0.21222 -0.405143,0.6339 -0.07717,0.10749 -0.220486,0.32797 -0.05788,0.10473 -0.05512,0.226 0.159852,-0.15158 0.432704,-0.49609 0.07717,-0.12954 0.140559,-0.339 0.05512,-0.17639 0.107486,-0.35278 z m -1.493792,-0.66146 -0.270095,-0.0882 -0.0083,-0.011 q -0.02481,0 -0.107487,0.011 -0.06615,0.006 -0.107487,0.006 0.272851,0.091 0.311436,0.091 0.02481,0 0.181901,-0.008 z m -0.810286,-1.06384 h -0.03032 l -0.7717,0.3197 q 0.06615,0.0965 0.223242,0.23978 0.07717,0.0138 0.234266,0.0469 z m -0.689018,-0.50161 q -0.341754,0.34727 -0.341754,0.39412 0,0.0799 0.06339,0.30868 h 0.04961 z m 2.235176,3.04547 v -1.27607 l -0.479557,-0.14056 -0.396875,0.0551 z m -1.606791,-1.6757 q -0.256315,-0.1819 -0.457509,-0.22324 0.06615,0.0772 0.20395,0.22324 z m 1.609547,2.04501 v -0.1378 l -0.683507,-1.05007 q 0.05237,0.17639 0.107487,0.35278 0.06339,0.20946 0.14056,0.339 0.0689,0.11851 0.20395,0.25907 0.115755,0.11851 0.23151,0.23702 z m -0.644921,-0.70555 q -0.115756,-0.32798 -0.380339,-1.0418 -0.135047,-0.0662 -0.272851,-0.12954 -0.159852,-0.0716 -0.289388,-0.0716 -0.05237,0 -0.110243,-0.0138 z" style="stroke-width:0;fill:#0000ff;stroke:#2e2114;stroke-linecap:square;stroke-opacity:1" />
        <path id="model_name" d="M2.86844 7.38291Q2.86844 7.32858 2.93053 7.28201Q2.96933 7.24321 3.02366 7.24321Q3.10127 7.24321 3.14784 7.3053Q3.59798 7.94947 4.40514 7.94947Q4.81648 7.94947 5.12692 7.7438Q5.43736 7.53813 5.43736 7.18888Q5.43736 6.83187 5.16573 6.65336Q4.89409 6.47486 4.42066 6.35844Q3.79201 6.20322 3.43112 5.94322Q3.07023 5.68323 3.07023 5.2098Q3.07023 4.75189 3.435 4.45309Q3.79977 4.15429 4.37409 4.15429Q4.6923 4.15429 5.00662 4.27846Q5.32095 4.40264 5.57706 4.67428Q5.63139 4.72085 5.63139 4.78294Q5.63139 4.85279 5.57706 4.90711Q5.51498 4.93816 5.47617 4.93816Q5.42184 4.93816 5.38304 4.89159Q4.97946 4.44921 4.34305 4.44921Q3.93171 4.44921 3.64843 4.651Q3.36515 4.85279 3.36515 5.2098Q3.38843 5.54352 3.67171 5.72591Q3.95499 5.9083 4.50603 6.048Q4.90185 6.14889 5.16184 6.26919Q5.42184 6.38949 5.57706 6.6068Q5.73229 6.82411 5.73229 7.17336Q5.73229 7.66231 5.35587 7.94559Q4.97946 8.22887 4.37409 8.22887Q3.48933 8.22887 2.92276 7.53037Q2.86844 7.445 2.86844 7.38291ZM6.94302 8.15126Q6.87317 8.15126 6.83048 8.10469Q6.7878 8.05812 6.7878 7.99604V2.56326Q6.7878 2.50117 6.83436 2.4546Q6.88093 2.40804 6.94302 2.40804Q7.01287 2.40804 7.05556 2.4546Q7.09824 2.50117 7.09824 2.56326V7.99604Q7.09824 8.05812 7.05167 8.10469Q7.00511 8.15126 6.94302 8.15126ZM11.623 7.35962Q11.623 7.41395 11.5919 7.45276Q11.3358 7.79425 10.9555 8.01156Q10.5752 8.22887 10.1406 8.22887Q9.55851 8.22887 9.10837 7.98051Q8.65822 7.73216 8.40599 7.27425Q8.15375 6.81635 8.15375 6.21098Q8.15375 5.59009 8.39823 5.12054Q8.6427 4.651 9.04628 4.40264Q9.44986 4.15429 9.90776 4.15429Q10.3657 4.15429 10.7576 4.35219Q11.1495 4.5501 11.3979 4.94592Q11.6463 5.34174 11.6618 5.92382Q11.6618 5.98591 11.6152 6.03636Q11.5686 6.0868 11.5066 6.0868H8.45644V6.1877Q8.45644 6.66889 8.65046 7.06858Q8.84449 7.46828 9.22479 7.70111Q9.60508 7.93395 10.1406 7.93395Q10.5131 7.93395 10.843 7.75156Q11.1728 7.56917 11.3591 7.28977Q11.4134 7.21992 11.491 7.21992Q11.5454 7.21992 11.5842 7.26261Q11.623 7.3053 11.623 7.35962ZM8.48748 5.79188H11.3436V5.72203Q11.3048 5.32621 11.0913 5.04293Q10.8779 4.75965 10.5636 4.61219Q10.2493 4.46473 9.90776 4.46473Q9.6206 4.46473 9.3218 4.61607Q9.023 4.76741 8.79404 5.06622Q8.56509 5.36502 8.48748 5.79188ZM17.5292 4.28622 17.5137 4.36384 16.3107 8.05036Q16.2641 8.15126 16.1632 8.15126Q16.0701 8.15126 16.0158 8.05036L14.8904 5.51248L13.8815 8.05036Q13.8659 8.09693 13.8232 8.12409Q13.7806 8.15126 13.734 8.15126Q13.6874 8.15126 13.6447 8.12409Q13.6021 8.09693 13.5865 8.05036L12.3448 4.36384L12.3292 4.28622Q12.3292 4.21638 12.3758 4.17757Q12.4224 4.13876 12.4922 4.13876Q12.5931 4.13876 12.6319 4.23966L13.7262 7.6235L14.7585 5.0701Q14.774 5.02353 14.8167 4.99637Q14.8594 4.9692 14.9059 4.9692Q14.9525 4.9692 14.9952 4.99637Q15.0379 5.02353 15.0534 5.0701L16.1477 7.60022L17.2265 4.23966Q17.2653 4.13876 17.3662 4.13876Q17.436 4.13876 17.4826 4.17757Q17.5292 4.21638 17.5292 4.28622Z" style="display:inline;stroke:#000000;stroke-width:0.35;stroke-linecap:round;stroke-linejoin:bevel" />
        <path d="M5.0165 17.7137Q4.99533 17.6925 4.99533 17.6608Q4.99533 17.6326 5.02003 17.6061Q5.04472 17.5796 5.07294 17.5796Q5.10469 17.5796 5.13292 17.6114Q5.2705 17.7737 5.45924 17.8583Q5.64797 17.943 5.85611 17.943Q6.12775 17.943 6.30414 17.8125Q6.48053 17.6819 6.48053 17.4668Q6.477 17.2974 6.38881 17.1881Q6.30061 17.0787 6.17185 17.0134Q6.04308 16.9482 5.82083 16.867Q5.57742 16.7753 5.4416 16.7048Q5.30578 16.6342 5.20876 16.5037Q5.11175 16.3731 5.11175 16.1615Q5.11175 15.9886 5.207 15.8475Q5.30225 15.7064 5.47864 15.6253Q5.65503 15.5441 5.88786 15.5441Q6.096 15.5441 6.28297 15.62Q6.46994 15.6958 6.57931 15.8334Q6.61458 15.8828 6.61458 15.9075Q6.61458 15.9357 6.58813 15.9586Q6.56167 15.9816 6.52992 15.9816Q6.50169 15.9816 6.48406 15.9604Q6.38528 15.8334 6.23006 15.7593Q6.07483 15.6852 5.88786 15.6852Q5.61975 15.6852 5.4416 15.8122Q5.26344 15.9392 5.26344 16.1579Q5.26344 16.3096 5.34988 16.4155Q5.43631 16.5213 5.56683 16.5866Q5.69736 16.6518 5.89139 16.7224Q6.13833 16.8106 6.28297 16.8847Q6.42761 16.9588 6.52992 17.0999Q6.63222 17.241 6.63222 17.4738Q6.63222 17.6361 6.53697 17.7772Q6.44172 17.9183 6.26357 18.0012Q6.08542 18.0841 5.85611 18.0841Q5.59506 18.0841 5.40103 17.9942Q5.207 17.9042 5.0165 17.7137ZM8.74889 16.2532Q8.74889 16.4507 8.66599 16.6113Q8.58308 16.7718 8.43139 16.8617Q8.27969 16.9517 8.08214 16.9517H7.31308V17.9783Q7.31308 18.0065 7.29015 18.0277Q7.26722 18.0488 7.239 18.0488Q7.20725 18.0488 7.18608 18.0277Q7.16492 18.0065 7.16492 17.9783V15.6499Q7.16492 15.6217 7.18608 15.6006Q7.20725 15.5794 7.23547 15.5794H8.08214Q8.382 15.5794 8.56544 15.7664Q8.74889 15.9533 8.74889 16.2532ZM8.60072 16.2532Q8.60072 16.0098 8.46138 15.8651Q8.32203 15.7205 8.08214 15.7205H7.31308V16.8106H8.08214Q8.3185 16.8106 8.45961 16.6536Q8.60072 16.4966 8.60072 16.2532ZM10.7315 17.9783Q10.7315 18.01 10.7103 18.0294Q10.6892 18.0488 10.6609 18.0488H9.33097Q9.30275 18.0488 9.28158 18.0277Q9.26042 18.0065 9.26042 17.9783V15.6499Q9.26042 15.6217 9.28158 15.6006Q9.30275 15.5794 9.33097 15.5794H10.6609Q10.6892 15.5794 10.7103 15.6006Q10.7315 15.6217 10.7315 15.6499Q10.7315 15.6817 10.7103 15.7011Q10.6892 15.7205 10.6609 15.7205H9.40858V16.7048H10.5022Q10.5304 16.7048 10.5516 16.7259Q10.5728 16.7471 10.5728 16.7753Q10.5728 16.8071 10.5516 16.8265Q10.5304 16.8459 10.5022 16.8459H9.40858V17.9077H10.6609Q10.6892 17.9077 10.7103 17.9289Q10.7315 17.9501 10.7315 17.9783ZM12.7317 17.9783Q12.7317 18.01 12.7106 18.0294Q12.6894 18.0488 12.6612 18.0488H11.3312Q11.303 18.0488 11.2818 18.0277Q11.2607 18.0065 11.2607 17.9783V15.6499Q11.2607 15.6217 11.2818 15.6006Q11.303 15.5794 11.3312 15.5794H12.6612Q12.6894 15.5794 12.7106 15.6006Q12.7317 15.6217 12.7317 15.6499Q12.7317 15.6817 12.7106 15.7011Q12.6894 15.7205 12.6612 15.7205H11.4088V16.7048H12.5024Q12.5307 16.7048 12.5518 16.7259Q12.573 16.7471 12.573 16.7753Q12.573 16.8071 12.5518 16.8265Q12.5307 16.8459 12.5024 16.8459H11.4088V17.9077H12.6612Q12.6894 17.9077 12.7106 17.9289Q12.7317 17.9501 12.7317 17.9783ZM15.2718 16.8141Q15.2718 17.1634 15.1606 17.4421Q15.0495 17.7208 14.8202 17.8848Q14.5909 18.0488 14.2487 18.0488H13.3315Q13.3033 18.0488 13.2821 18.0277Q13.2609 18.0065 13.2609 17.9783V15.6499Q13.2609 15.6217 13.2821 15.6006Q13.3033 15.5794 13.3315 15.5794H14.2487Q14.5874 15.5794 14.8184 15.7487Q15.0495 15.9181 15.1606 16.1985Q15.2718 16.479 15.2718 16.8141ZM15.1236 16.8141Q15.1236 16.5143 15.0266 16.2655Q14.9296 16.0168 14.7267 15.8687Q14.5239 15.7205 14.2134 15.7205H13.4091V17.9077H14.2134Q14.672 17.9077 14.8978 17.6061Q15.1236 17.3045 15.1236 16.8141Z" style="stroke:#000000;stroke-width:0.25;stroke-linecap:round;stroke-linejoin:bevel" />
        <path d="M 10.16,26.00 L 5.16,37.00 z L 15.16,37.00 z " style="stroke:#000000;stroke-width:0.1;stroke-linecap:round;stroke-linejoin:bevel;stroke-dasharray:none" />
        <path d="M8.636 46.6429Q8.636 46.657 8.62894 46.6782L7.66233 49.003Q7.64117 49.0488 7.59531 49.0488Q7.57414 49.0488 7.55474 49.0365Q7.53533 49.0241 7.52828 49.003L6.56872 46.6887Q6.55814 46.6676 6.55814 46.6464Q6.55814 46.6182 6.57754 46.5988Q6.59694 46.5794 6.62517 46.5794Q6.67808 46.5794 6.70278 46.6358L7.59883 48.7913L8.49842 46.6252Q8.52311 46.5794 8.56544 46.5794Q8.59719 46.5794 8.6166 46.597Q8.636 46.6147 8.636 46.6429ZM9.18633 49.0488Q9.15106 49.0488 9.13165 49.0277Q9.11225 49.0065 9.11225 48.9747V46.6535Q9.11225 46.6217 9.13342 46.6006Q9.15458 46.5794 9.18633 46.5794Q9.21808 46.5794 9.23925 46.6006Q9.26042 46.6217 9.26042 46.6535V48.9747Q9.25689 49.0065 9.23572 49.0277Q9.21456 49.0488 9.18633 49.0488ZM9.75783 48.7137Q9.73667 48.6925 9.73667 48.6608Q9.73667 48.6326 9.76136 48.6061Q9.78606 48.5796 9.81428 48.5796Q9.84603 48.5796 9.87425 48.6114Q10.0118 48.7737 10.2006 48.8583Q10.3893 48.943 10.5974 48.943Q10.8691 48.943 11.0455 48.8125Q11.2219 48.6819 11.2219 48.4667Q11.2183 48.2974 11.1301 48.1881Q11.0419 48.0787 10.9132 48.0134Q10.7844 47.9482 10.5622 47.867Q10.3187 47.7753 10.1829 47.7047Q10.0471 47.6342 9.9501 47.5037Q9.85308 47.3731 9.85308 47.1615Q9.85308 46.9886 9.94833 46.8475Q10.0436 46.7064 10.22 46.6252Q10.3964 46.5441 10.6292 46.5441Q10.8373 46.5441 11.0243 46.62Q11.2113 46.6958 11.3206 46.8334Q11.3559 46.8828 11.3559 46.9075Q11.3559 46.9357 11.3295 46.9586Q11.303 46.9816 11.2713 46.9816Q11.243 46.9816 11.2254 46.9604Q11.1266 46.8334 10.9714 46.7593Q10.8162 46.6852 10.6292 46.6852Q10.3611 46.6852 10.1829 46.8122Q10.0048 46.9392 10.0048 47.1579Q10.0048 47.3096 10.0912 47.4155Q10.1776 47.5213 10.3082 47.5866Q10.4387 47.6518 10.6327 47.7224Q10.8797 47.8106 11.0243 47.8847Q11.1689 47.9587 11.2712 48.0999Q11.3736 48.241 11.3736 48.4738Q11.3736 48.6361 11.2783 48.7772Q11.1831 48.9183 11.0049 49.0012Q10.8267 49.0841 10.5974 49.0841Q10.3364 49.0841 10.1424 48.9942Q9.94833 48.9042 9.75783 48.7137ZM13.7654 46.8404Q13.7654 46.8687 13.7513 46.8863Q13.7301 46.9145 13.6984 46.9145Q13.6843 46.9145 13.656 46.9004Q13.3279 46.6782 12.9611 46.6782Q12.6647 46.6782 12.416 46.8246Q12.1673 46.971 12.0227 47.2303Q11.878 47.4896 11.878 47.8141Q11.878 48.1387 12.0227 48.398Q12.1673 48.6572 12.416 48.8037Q12.6647 48.9501 12.9611 48.9501Q13.3315 48.9501 13.6525 48.7313Q13.6701 48.7172 13.6948 48.7172Q13.7301 48.7172 13.7513 48.7454Q13.7654 48.7631 13.7654 48.7878Q13.7654 48.8231 13.7372 48.8442Q13.5996 48.943 13.3826 49.0136Q13.1657 49.0841 12.9611 49.0841Q12.6259 49.0841 12.3437 48.9183Q12.0615 48.7525 11.8957 48.4615Q11.7299 48.1704 11.7299 47.8141Q11.7299 47.4578 11.8957 47.1668Q12.0615 46.8757 12.3437 46.7099Q12.6259 46.5441 12.9611 46.5441Q13.1727 46.5441 13.372 46.6076Q13.5714 46.6711 13.7336 46.784Q13.7654 46.8087 13.7654 46.8404Z" style="stroke:#000000;stroke-width:0.25;stroke-linecap:round;stroke-linejoin:bevel" />
        <path d="M 10.16,57.00 L 5.16,68.00 z L 15.16,68.00 z " style="stroke:#000000;stroke-width:0.1;stroke-linecap:round;stroke-linejoin:bevel;stroke-dasharray:none" />
        <path d="M8.88118 90.7488Q8.8459 90.7488 8.8265 90.7277Q8.8071 90.7065 8.8071 90.6748V88.3535Q8.8071 88.3217 8.82826 88.3006Q8.84943 88.2794 8.88118 88.2794Q8.91293 88.2794 8.9341 88.3006Q8.95526 88.3217 8.95526 88.3535V90.6748Q8.95174 90.7065 8.93057 90.7277Q8.9094 90.7488 8.88118 90.7488ZM11.5129 88.3464V90.6712Q11.5129 90.71 11.4917 90.7294Q11.4706 90.7488 11.4388 90.7488Q11.4035 90.7488 11.3824 90.7206L9.79487 88.551V90.6889Q9.79487 90.7136 9.77547 90.7312Q9.75607 90.7488 9.72785 90.7488Q9.6961 90.7488 9.67846 90.7312Q9.66082 90.7136 9.66082 90.6889V88.3499Q9.66082 88.3147 9.68022 88.297Q9.69962 88.2794 9.72432 88.2794Q9.75607 88.2794 9.77724 88.3041L11.3788 90.4878V88.3464Q11.3788 88.3182 11.3982 88.2988Q11.4177 88.2794 11.4459 88.2794Q11.4776 88.2794 11.4953 88.2988Q11.5129 88.3182 11.5129 88.3464Z" style="stroke:#000000;stroke-width:0.25;stroke-linecap:round;stroke-linejoin:bevel" />
        <path d="M7.84754 106.784Q7.50535 106.784 7.23724 106.624Q6.96913 106.463 6.81919 106.174Q6.66926 105.885 6.66926 105.514Q6.66926 105.144 6.81919 104.854Q6.96913 104.565 7.23724 104.405Q7.50535 104.244 7.84754 104.244Q8.18974 104.244 8.45785 104.405Q8.72596 104.565 8.87589 104.854Q9.02582 105.144 9.02582 105.514Q9.02582 105.885 8.87589 106.174Q8.72596 106.463 8.45785 106.624Q8.18974 106.784 7.84754 106.784ZM7.84754 104.385Q7.54768 104.385 7.31308 104.526Q7.07849 104.667 6.94796 104.925Q6.81743 105.183 6.81743 105.514Q6.81743 105.846 6.94796 106.103Q7.07849 106.361 7.31308 106.502Q7.54768 106.643 7.84754 106.643Q8.1474 106.643 8.382 106.502Q8.6166 106.361 8.74713 106.103Q8.87765 105.846 8.87765 105.514Q8.87765 105.183 8.74713 104.925Q8.6166 104.667 8.382 104.526Q8.1474 104.385 7.84754 104.385ZM11.3718 104.35V105.874Q11.3718 106.121 11.2483 106.329Q11.1248 106.537 10.9167 106.661Q10.7086 106.784 10.4652 106.784Q10.2182 106.784 10.0101 106.661Q9.80193 106.537 9.67846 106.329Q9.55499 106.121 9.55499 105.874V104.35Q9.55499 104.318 9.57615 104.299Q9.59732 104.279 9.62907 104.279Q9.66082 104.279 9.68199 104.301Q9.70315 104.322 9.70315 104.35V105.874Q9.70315 106.082 9.80546 106.258Q9.90776 106.435 10.0824 106.539Q10.257 106.643 10.4652 106.643Q10.6733 106.643 10.8479 106.539Q11.0225 106.435 11.1266 106.258Q11.2307 106.082 11.2307 105.874V104.35Q11.2307 104.322 11.2501 104.301Q11.2695 104.279 11.3012 104.279Q11.333 104.279 11.3524 104.301Q11.3718 104.322 11.3718 104.35ZM13.7037 104.346Q13.7037 104.378 13.6843 104.396Q13.6648 104.413 13.6331 104.413H12.8464V106.678Q12.8464 106.707 12.8252 106.728Q12.8041 106.749 12.7758 106.749Q12.7441 106.749 12.7247 106.728Q12.7053 106.707 12.7053 106.678V104.413H11.9186Q11.8904 104.413 11.8692 104.394Q11.848 104.375 11.848 104.346Q11.848 104.318 11.8692 104.299Q11.8904 104.279 11.9186 104.279H13.6331Q13.6613 104.279 13.6825 104.299Q13.7037 104.318 13.7037 104.346Z" style="stroke:#000000;stroke-width:0.25;stroke-linecap:round;stroke-linejoin:bevel" />
    </g>
</svg>
