<?xml version="1.0" encoding="utf-8"?>
<svg xmlns="http://www.w3.org/2000/svg" width="101.60mm" height="128.50mm" viewBox="0 0 101.60 128.50">
    <g id="PanelLayer">
        <g id="ControlLayer" style="display:none;">
            <circle id="level_0_knob" cx="10.2" cy="23" r="1" />
            <circle id="level_0_atten" cx="5.2" cy="34" r="1" />
            <circle id="level_0_cv" cx="15.2" cy="34" r="1" />
            <circle id="level_1_knob" cx="10.2" cy="50" r="1" />
            <circle id="level_1_atten" cx="5.2" cy="61" r="1" />
            <circle id="level_1_cv" cx="15.2" cy="61" r="1" />
            <circle id="level_2_knob" cx="10.2" cy="77" r="1" />
            <circle id="level_2_atten" cx="5.2" cy="88" r="1" />
            <circle id="level_2_cv" cx="15.2" cy="88" r="1" />
            <circle id="level_3_knob" cx="10.2" cy="104" r="1" />
            <circle id="level_3_atten" cx="5.2" cy="115" r="1" />
            <circle id="level_3_cv" cx="15.2" cy="115" r="1" />
            <circle id="level_4_knob" cx="10.2" cy="131" r="1" />
            <circle id="level_4_atten" cx="5.2" cy="142" r="1" />
            <circle id="level_4_cv" cx="15.2" cy="142" r="1" />
            <circle id="dispersion_0_knob" cx="30.5" cy="23" r="1" />
            <circle id="dispersion_0_atten" cx="25.5" cy="34" r="1" />
            <circle id="dispersion_0_cv" cx="35.5" cy="34" r="1" />
            <circle id="dispersion_1_knob" cx="30.5" cy="50" r="1" />
            <circle id="dispersion_1_atten" cx="25.5" cy="61" r="1" />
            <circle id="dispersion_1_cv" cx="35.5" cy="61" r="1" />
            <circle id="dispersion_2_knob" cx="30.5" cy="77" r="1" />
            <circle id="dispersion_2_atten" cx="25.5" cy="88" r="1" />
            <circle id="dispersion_2_cv" cx="35.5" cy="88" r="1" />
            <circle id="dispersion_3_knob" cx="30.5" cy="104" r="1" />
            <circle id="dispersion_3_atten" cx="25.5" cy="115" r="1" />
            <circle id="dispersion_3_cv" cx="35.5" cy="115" r="1" />
            <circle id="dispersion_4_knob" cx="30.5" cy="131" r="1" />
            <circle id="dispersion_4_atten" cx="25.5" cy="142" r="1" />
            <circle id="dispersion_4_cv" cx="35.5" cy="142" r="1" />
            <circle id="bandwidth_0_knob" cx="50.8" cy="23" r="1" />
            <circle id="bandwidth_0_atten" cx="45.8" cy="34" r="1" />
            <circle id="bandwidth_0_cv" cx="55.8" cy="34" r="1" />
            <circle id="bandwidth_1_knob" cx="50.8" cy="50" r="1" />
            <circle id="bandwidth_1_atten" cx="45.8" cy="61" r="1" />
            <circle id="bandwidth_1_cv" cx="55.8" cy="61" r="1" />
            <circle id="bandwidth_2_knob" cx="50.8" cy="77" r="1" />
            <circle id="bandwidth_2_atten" cx="45.8" cy="88" r="1" />
            <circle id="bandwidth_2_cv" cx="55.8" cy="88" r="1" />
            <circle id="bandwidth_3_knob" cx="50.8" cy="104" r="1" />
            <circle id="bandwidth_3_atten" cx="45.8" cy="115" r="1" />
            <circle id="bandwidth_3_cv" cx="55.8" cy="115" r="1" />
            <circle id="bandwidth_4_knob" cx="50.8" cy="131" r="1" />
            <circle id="bandwidth_4_atten" cx="45.8" cy="142" r="1" />
            <circle id="bandwidth_4_cv" cx="55.8" cy="142" r="1" />
            <circle id="audio_input" cx="10.16" cy="120" r="1" />
            <circle id="audio_output" cx="91.44" cy="120" r="1" />
        </g>
        <rect id="border_rect" width="101.6" height="128.5" x="0" y="0" style="display:inline;fill:#4f8df2;fill-opacity:1;fill-rule:nonzero;stroke:#5021d4;stroke-width:0.7;stroke-linecap:round;stroke-linejoin:round;stroke-dasharray:none;stroke-opacity:1;image-rendering:auto" />
        <path id="model_name" d="M38.1921 7.38291Q38.1921 7.32858 38.2542 7.28201Q38.293 7.24321 38.3473 7.24321Q38.4249 7.24321 38.4715 7.3053Q38.9216 7.94947 39.7288 7.94947Q40.1401 7.94947 40.4506 7.7438Q40.761 7.53813 40.761 7.18888Q40.761 6.83187 40.4894 6.65336Q40.2177 6.47486 39.7443 6.35844Q39.1156 6.20322 38.7548 5.94322Q38.3939 5.68323 38.3939 5.2098Q38.3939 4.75189 38.7586 4.45309Q39.1234 4.15429 39.6977 4.15429Q40.0159 4.15429 40.3303 4.27846Q40.6446 4.40264 40.9007 4.67428Q40.955 4.72085 40.955 4.78294Q40.955 4.85279 40.9007 4.90711Q40.8386 4.93816 40.7998 4.93816Q40.7455 4.93816 40.7067 4.89159Q40.3031 4.44921 39.6667 4.44921Q39.2553 4.44921 38.9721 4.651Q38.6888 4.85279 38.6888 5.2098Q38.7121 5.54352 38.9954 5.72591Q39.2786 5.9083 39.8297 6.048Q40.2255 6.14889 40.4855 6.26919Q40.7455 6.38949 40.9007 6.6068Q41.0559 6.82411 41.0559 7.17336Q41.0559 7.66231 40.6795 7.94559Q40.3031 8.22887 39.6977 8.22887Q38.813 8.22887 38.2464 7.53037Q38.1921 7.445 38.1921 7.38291ZM45.6738 6.21098Q45.6738 6.76978 45.4371 7.22381Q45.2004 7.67783 44.789 7.93783Q44.3777 8.19782 43.8732 8.19782Q43.4075 8.19782 43.0195 7.96499Q42.6314 7.73216 42.3831 7.3053V9.54826Q42.3831 9.61035 42.3404 9.65691Q42.2977 9.70348 42.2279 9.70348Q42.1658 9.70348 42.1192 9.65691Q42.0726 9.61035 42.0726 9.54826V4.38712Q42.0726 4.32503 42.1153 4.27846Q42.158 4.2319 42.2279 4.2319Q42.2977 4.2319 42.3404 4.27846Q42.3831 4.32503 42.3831 4.38712V5.10114Q42.6159 4.65876 43.004 4.44533Q43.392 4.2319 43.8732 4.2319Q44.3854 4.2319 44.7968 4.48801Q45.2081 4.74413 45.441 5.19428Q45.6738 5.64442 45.6738 6.21098ZM45.3633 6.21098Q45.3633 5.72979 45.1654 5.34562Q44.9675 4.96144 44.626 4.74413Q44.2845 4.52682 43.8577 4.52682Q43.4231 4.52682 43.0777 4.74025Q42.7323 4.95368 42.5422 5.33786Q42.352 5.72203 42.352 6.21098Q42.352 6.69993 42.5422 7.08411Q42.7323 7.46828 43.0777 7.68559Q43.4231 7.9029 43.8577 7.9029Q44.2845 7.9029 44.626 7.68559Q44.9675 7.46828 45.1654 7.08022Q45.3633 6.69217 45.3633 6.21098ZM50.02 4.43369V7.99604Q50.02 8.05812 49.9734 8.10469Q49.9269 8.15126 49.8648 8.15126Q49.7949 8.15126 49.7522 8.10469Q49.7096 8.05812 49.7096 7.99604V7.29754Q49.5155 7.69335 49.112 7.96111Q48.7084 8.22887 48.2194 8.22887Q47.7072 8.22887 47.2959 7.96111Q46.8845 7.69335 46.6517 7.22381Q46.4189 6.75426 46.4189 6.17217Q46.4189 5.59785 46.6556 5.13607Q46.8923 4.67428 47.3036 4.41428Q47.715 4.15429 48.2194 4.15429Q48.7239 4.15429 49.1275 4.41816Q49.5311 4.68204 49.7096 5.12443V4.43369Q49.7096 4.3716 49.7522 4.32503Q49.7949 4.27846 49.8648 4.27846Q49.9346 4.27846 49.9773 4.32503Q50.02 4.3716 50.02 4.43369ZM49.7406 6.17217Q49.7406 5.69875 49.5466 5.30293Q49.3526 4.90711 49.0072 4.67816Q48.6618 4.44921 48.235 4.44921Q47.8081 4.44921 47.4627 4.6704Q47.1174 4.89159 46.9233 5.28353Q46.7293 5.67546 46.7293 6.17217Q46.7293 6.66889 46.9233 7.07246Q47.1174 7.47604 47.4588 7.70499Q47.8003 7.93395 48.235 7.93395Q48.6618 7.93395 49.0072 7.70499Q49.3526 7.47604 49.5466 7.07246Q49.7406 6.66889 49.7406 6.17217ZM52.8994 4.39488Q52.8994 4.45697 52.8567 4.49966Q52.814 4.54234 52.7519 4.54234H51.8982V7.3053Q51.8982 7.64679 52.0185 7.75932Q52.1388 7.87186 52.3251 7.87186Q52.3561 7.87186 52.4143 7.85634Q52.4725 7.84081 52.5113 7.84081Q52.5657 7.84081 52.6045 7.8835Q52.6433 7.92619 52.6433 7.98051Q52.6433 8.05036 52.5501 8.10081Q52.457 8.15126 52.3328 8.15126Q52.1388 8.15126 52.0069 8.12409Q51.8749 8.09693 51.7313 7.91454Q51.5878 7.73216 51.5878 7.32082V4.54234H50.9513Q50.897 4.54234 50.8504 4.49578Q50.8039 4.44921 50.8039 4.39488Q50.8039 4.33279 50.8466 4.29011Q50.8893 4.24742 50.9513 4.24742H51.5878V3.26176Q51.5878 3.19967 51.6343 3.1531Q51.6809 3.10654 51.743 3.10654Q51.8128 3.10654 51.8555 3.1531Q51.8982 3.19967 51.8982 3.26176V4.24742H52.7519Q52.8062 4.24742 52.8528 4.29399Q52.8994 4.34055 52.8994 4.39488ZM56.842 4.43369V6.69217Q56.842 7.42948 56.4268 7.81365Q56.0116 8.19782 55.2976 8.19782Q54.5835 8.19782 54.1722 7.81365Q53.7609 7.42948 53.7609 6.69217V4.43369Q53.7609 4.3716 53.8074 4.32503Q53.854 4.27846 53.9161 4.27846Q53.9859 4.27846 54.0286 4.32503Q54.0713 4.3716 54.0713 4.43369V6.69217Q54.0713 7.27425 54.3973 7.58858Q54.7232 7.9029 55.2976 7.9029Q55.8796 7.9029 56.2056 7.58858Q56.5316 7.27425 56.5316 6.69217V4.43369Q56.5316 4.3716 56.5743 4.32503Q56.617 4.27846 56.6868 4.27846Q56.7567 4.27846 56.7993 4.32503Q56.842 4.3716 56.842 4.43369ZM58.3244 8.15126Q58.2545 8.15126 58.2119 8.10469Q58.1692 8.05812 58.1692 7.99604V2.56326Q58.1692 2.50117 58.2157 2.4546Q58.2623 2.40804 58.3244 2.40804Q58.3942 2.40804 58.4369 2.4546Q58.4796 2.50117 58.4796 2.56326V7.99604Q58.4796 8.05812 58.4331 8.10469Q58.3865 8.15126 58.3244 8.15126ZM63.1363 4.43369V7.99604Q63.1363 8.05812 63.0897 8.10469Q63.0432 8.15126 62.9811 8.15126Q62.9112 8.15126 62.8685 8.10469Q62.8258 8.05812 62.8258 7.99604V7.29754Q62.6318 7.69335 62.2282 7.96111Q61.8247 8.22887 61.3357 8.22887Q60.8235 8.22887 60.4121 7.96111Q60.0008 7.69335 59.768 7.22381Q59.5351 6.75426 59.5351 6.17217Q59.5351 5.59785 59.7718 5.13607Q60.0086 4.67428 60.4199 4.41428Q60.8312 4.15429 61.3357 4.15429Q61.8402 4.15429 62.2438 4.41816Q62.6473 4.68204 62.8258 5.12443V4.43369Q62.8258 4.3716 62.8685 4.32503Q62.9112 4.27846 62.9811 4.27846Q63.0509 4.27846 63.0936 4.32503Q63.1363 4.3716 63.1363 4.43369ZM62.8569 6.17217Q62.8569 5.69875 62.6629 5.30293Q62.4688 4.90711 62.1235 4.67816Q61.7781 4.44921 61.3512 4.44921Q60.9244 4.44921 60.579 4.6704Q60.2336 4.89159 60.0396 5.28353Q59.8456 5.67546 59.8456 6.17217Q59.8456 6.66889 60.0396 7.07246Q60.2336 7.47604 60.5751 7.70499Q60.9166 7.93395 61.3512 7.93395Q61.7781 7.93395 62.1235 7.70499Q62.4688 7.47604 62.6629 7.07246Q62.8569 6.66889 62.8569 6.17217Z" style="display:inline;stroke:#000000;stroke-width:0.35;stroke-linecap:round;stroke-linejoin:bevel" />
        <g id="sapphire_insignia">
            <path id="brand_name" d="M35.9064 124.775Q35.9064 124.721 35.9685 124.674Q36.0073 124.636 36.0617 124.636Q36.1393 124.636 36.1858 124.698Q36.636 125.342 37.4431 125.342Q37.8545 125.342 38.1649 125.136Q38.4754 124.93 38.4754 124.581Q38.4754 124.224 38.2037 124.046Q37.9321 123.867 37.4586 123.751Q36.83 123.596 36.4691 123.336Q36.1082 123.076 36.1082 122.602Q36.1082 122.144 36.473 121.845Q36.8378 121.547 37.4121 121.547Q37.7303 121.547 38.0446 121.671Q38.3589 121.795 38.6151 122.067Q38.6694 122.113 38.6694 122.175Q38.6694 122.245 38.6151 122.299Q38.553 122.331 38.5142 122.331Q38.4598 122.331 38.421 122.284Q38.0174 121.842 37.381 121.842Q36.9697 121.842 36.6864 122.043Q36.4031 122.245 36.4031 122.602Q36.4264 122.936 36.7097 123.118Q36.993 123.301 37.544 123.44Q37.9398 123.541 38.1998 123.662Q38.4598 123.782 38.6151 123.999Q38.7703 124.216 38.7703 124.566Q38.7703 125.055 38.3939 125.338Q38.0174 125.621 37.4121 125.621Q36.5273 125.621 35.9608 124.923Q35.9064 124.837 35.9064 124.775ZM43.1165 121.826V125.388Q43.1165 125.45 43.0699 125.497Q43.0234 125.544 42.9613 125.544Q42.8914 125.544 42.8487 125.497Q42.8061 125.45 42.8061 125.388V124.69Q42.612 125.086 42.2084 125.353Q41.8049 125.621 41.3159 125.621Q40.8037 125.621 40.3923 125.353Q39.981 125.086 39.7482 124.616Q39.5153 124.147 39.5153 123.565Q39.5153 122.99 39.7521 122.528Q39.9888 122.067 40.4001 121.807Q40.8114 121.547 41.3159 121.547Q41.8204 121.547 42.224 121.811Q42.6275 122.074 42.8061 122.517V121.826Q42.8061 121.764 42.8487 121.717Q42.8914 121.671 42.9613 121.671Q43.0311 121.671 43.0738 121.717Q43.1165 121.764 43.1165 121.826ZM42.8371 123.565Q42.8371 123.091 42.6431 122.695Q42.449 122.299 42.1037 122.071Q41.7583 121.842 41.3314 121.842Q40.9046 121.842 40.5592 122.063Q40.2138 122.284 40.0198 122.676Q39.8258 123.068 39.8258 123.565Q39.8258 124.061 40.0198 124.465Q40.2138 124.868 40.5553 125.097Q40.8968 125.326 41.3314 125.326Q41.7583 125.326 42.1037 125.097Q42.449 124.868 42.6431 124.465Q42.8371 124.061 42.8371 123.565ZM48.006 123.603Q48.006 124.162 47.7693 124.616Q47.5326 125.07 47.1212 125.33Q46.7099 125.59 46.2054 125.59Q45.7398 125.59 45.3517 125.357Q44.9636 125.125 44.7153 124.698V126.941Q44.7153 127.003 44.6726 127.049Q44.6299 127.096 44.5601 127.096Q44.498 127.096 44.4514 127.049Q44.4048 127.003 44.4048 126.941V121.779Q44.4048 121.717 44.4475 121.671Q44.4902 121.624 44.5601 121.624Q44.6299 121.624 44.6726 121.671Q44.7153 121.717 44.7153 121.779V122.493Q44.9481 122.051 45.3362 121.838Q45.7242 121.624 46.2054 121.624Q46.7177 121.624 47.129 121.88Q47.5403 122.136 47.7732 122.587Q48.006 123.037 48.006 123.603ZM47.6956 123.603Q47.6956 123.122 47.4976 122.738Q47.2997 122.354 46.9582 122.136Q46.6168 121.919 46.1899 121.919Q45.7553 121.919 45.4099 122.133Q45.0645 122.346 44.8744 122.73Q44.6842 123.114 44.6842 123.603Q44.6842 124.092 44.8744 124.476Q45.0645 124.861 45.4099 125.078Q45.7553 125.295 46.1899 125.295Q46.6168 125.295 46.9582 125.078Q47.2997 124.861 47.4976 124.473Q47.6956 124.085 47.6956 123.603ZM52.6239 123.603Q52.6239 124.162 52.3871 124.616Q52.1504 125.07 51.7391 125.33Q51.3278 125.59 50.8233 125.59Q50.3576 125.59 49.9696 125.357Q49.5815 125.125 49.3331 124.698V126.941Q49.3331 127.003 49.2905 127.049Q49.2478 127.096 49.1779 127.096Q49.1158 127.096 49.0693 127.049Q49.0227 127.003 49.0227 126.941V121.779Q49.0227 121.717 49.0654 121.671Q49.1081 121.624 49.1779 121.624Q49.2478 121.624 49.2905 121.671Q49.3331 121.717 49.3331 121.779V122.493Q49.566 122.051 49.954 121.838Q50.3421 121.624 50.8233 121.624Q51.3355 121.624 51.7469 121.88Q52.1582 122.136 52.391 122.587Q52.6239 123.037 52.6239 123.603ZM52.3134 123.603Q52.3134 123.122 52.1155 122.738Q51.9176 122.354 51.5761 122.136Q51.2346 121.919 50.8078 121.919Q50.3731 121.919 50.0278 122.133Q49.6824 122.346 49.4923 122.73Q49.3021 123.114 49.3021 123.603Q49.3021 124.092 49.4923 124.476Q49.6824 124.861 50.0278 125.078Q50.3731 125.295 50.8078 125.295Q51.2346 125.295 51.5761 125.078Q51.9176 124.861 52.1155 124.473Q52.3134 124.085 52.3134 123.603ZM56.714 123.122V125.388Q56.714 125.45 56.6674 125.497Q56.6208 125.544 56.5587 125.544Q56.4889 125.544 56.4462 125.497Q56.4035 125.45 56.4035 125.388V123.122Q56.4035 122.587 56.1396 122.253Q55.8758 121.919 55.3325 121.919Q54.9988 121.919 54.6767 122.082Q54.3546 122.245 54.1528 122.525Q53.951 122.804 53.951 123.122V125.388Q53.951 125.45 53.9044 125.497Q53.8579 125.544 53.7958 125.544Q53.7259 125.544 53.6833 125.497Q53.6406 125.45 53.6406 125.388V119.956Q53.6406 119.894 53.6871 119.847Q53.7337 119.8 53.7958 119.8Q53.8656 119.8 53.9083 119.847Q53.951 119.894 53.951 119.956V122.408Q54.1683 122.067 54.5525 121.845Q54.9367 121.624 55.3325 121.624Q55.9999 121.624 56.357 122.047Q56.714 122.47 56.714 123.122ZM58.1575 125.544Q58.0877 125.544 58.045 125.497Q58.0023 125.45 58.0023 125.388V121.702Q58.0023 121.64 58.0489 121.593Q58.0954 121.547 58.1575 121.547Q58.2274 121.547 58.2701 121.593Q58.3128 121.64 58.3128 121.702V125.388Q58.3128 125.45 58.2662 125.497Q58.2196 125.544 58.1575 125.544ZM57.8859 120.771V120.708Q57.8859 120.6 57.9635 120.53Q58.0411 120.46 58.1653 120.46Q58.2739 120.46 58.3477 120.53Q58.4214 120.6 58.4214 120.708V120.771Q58.4214 120.879 58.3477 120.949Q58.2739 121.019 58.1575 121.019Q58.0334 121.019 57.9596 120.949Q57.8859 120.879 57.8859 120.771ZM61.7121 121.725Q61.7121 121.795 61.6733 121.842Q61.6345 121.888 61.5724 121.888Q61.5491 121.888 61.4599 121.853Q61.3706 121.818 61.2697 121.818Q60.9515 121.818 60.6333 122.071Q60.3151 122.323 60.1133 122.707Q59.9115 123.091 59.9115 123.448V125.388Q59.9115 125.45 59.865 125.497Q59.8184 125.544 59.7563 125.544Q59.6865 125.544 59.6438 125.497Q59.6011 125.45 59.6011 125.388V121.826Q59.6011 121.764 59.6477 121.717Q59.6942 121.671 59.7563 121.671Q59.8262 121.671 59.8689 121.717Q59.9115 121.764 59.9115 121.826V122.649Q60.09 122.175 60.4665 121.865Q60.8429 121.554 61.3551 121.547Q61.7121 121.547 61.7121 121.725ZM65.6548 124.752Q65.6548 124.806 65.6237 124.845Q65.3676 125.187 64.9873 125.404Q64.607 125.621 64.1724 125.621Q63.5903 125.621 63.1402 125.373Q62.69 125.125 62.4378 124.667Q62.1856 124.209 62.1856 123.603Q62.1856 122.982 62.43 122.513Q62.6745 122.043 63.0781 121.795Q63.4817 121.547 63.9396 121.547Q64.3975 121.547 64.7894 121.745Q65.1813 121.942 65.4297 122.338Q65.678 122.734 65.6936 123.316Q65.6936 123.378 65.647 123.429Q65.6004 123.479 65.5384 123.479H62.4882V123.58Q62.4882 124.061 62.6823 124.461Q62.8763 124.861 63.2566 125.093Q63.6369 125.326 64.1724 125.326Q64.5449 125.326 64.8748 125.144Q65.2046 124.962 65.3909 124.682Q65.4452 124.612 65.5228 124.612Q65.5772 124.612 65.616 124.655Q65.6548 124.698 65.6548 124.752ZM62.5193 123.184H65.3754V123.114Q65.3366 122.719 65.1231 122.435Q64.9097 122.152 64.5954 122.005Q64.2811 121.857 63.9396 121.857Q63.6524 121.857 63.3536 122.008Q63.0548 122.16 62.8258 122.459Q62.5969 122.757 62.5193 123.184Z" style="fill:#000000;stroke:#000000;stroke-width:0.265;stroke-linecap:square" />
            <g id="gemstones" style="stroke-width:0;fill:#0000ff;stroke:#2e2114;stroke-linecap:square;stroke-opacity:1">
                <path d="m 33.250,122.900 q 0,0.34175 -0.242534,0.63114 -0.0441,0.0524 -0.20395,0.21497 -0.187413,0.19017 -0.785481,0.81304 l -1.444183,1.51309 q -0.01929,0.003 -0.0441,0.003 -0.02756,0 -0.04134,-0.003 -0.08268,-0.0827 -0.647678,-0.67524 -0.468532,-0.47404 -0.934309,-0.94809 -0.556727,-0.56775 -0.89848,-0.98116 -0.132292,-0.15985 -0.168121,-0.29766 -0.02756,-0.10197 -0.02756,-0.34175 0,-0.11024 0.07166,-0.28939 0.06614,-0.16536 0.140559,-0.26458 0.118512,-0.1571 0.42168,-0.42444 0.283875,-0.2508 0.474044,-0.37482 0.272852,-0.17915 0.818555,-0.36656 0.09646,-0.0331 0.110243,-0.0331 h 1.3615 q 0.01102,0 0.104731,0.0331 0.567751,0.20119 0.824066,0.36656 0.165365,0.10473 0.474045,0.37758 0.322461,0.28388 0.421679,0.42168 0.214974,0.2949 0.214974,0.62563 z m -0.16812,-0.27285 q -0.03307,-0.10749 -0.135048,-0.30868 -0.07166,-0.0937 -0.209462,-0.19844 -0.118511,-0.0854 -0.234266,-0.17088 0.245291,0.3638 0.578776,0.678 z m -0.573264,-0.52366 -0.358289,-0.44648 v 0.41065 z m 0.636653,0.75792 q 0,-0.0524 -0.341753,-0.39412 l 0.228754,0.7028 h 0.04961 q 0.06339,-0.21773 0.06339,-0.30868 z m -0.23151,0.27285 -0.316948,-0.90399 -0.410655,-0.0634 -0.159853,0.61461 z m 0.0028,0.15434 -0.771701,-0.3197 h -0.03032 l 0.344509,0.60634 q 0.07993,-0.003 0.234266,-0.0469 0.02481,-0.0138 0.223242,-0.23978 z m -0.857139,-1.05006 -0.719335,0.28388 0.60358,0.22599 z m 0,-0.16261 v -0.51538 l -0.917773,-0.38034 h -1.223697 l -0.917772,0.38034 v 0.51538 l 0.89848,0.4079 h 1.254014 z m 0.573264,1.53789 q -0.0689,0.011 -0.198438,0.0524 -0.08544,0.0551 -0.259071,0.16261 0.01929,0 0.06339,0.003 0.04134,0 0.06339,0 0.118511,0 0.190169,-0.0689 0.07166,-0.0717 0.14056,-0.14883 z m -0.289388,0.003 -0.347266,-0.63114 -0.363801,0.87918 q 0.0248,-0.0165 0.06615,-0.0165 0.03032,0 0.08544,0.011 0.05788,0.008 0.08819,0.008 0.04961,0 0.228754,-0.10749 0.228754,-0.1378 0.242535,-0.14331 z m -0.440972,-0.74139 -0.683507,-0.2756 -0.592556,0.54845 0.903993,0.65595 z m -0.854383,-0.28387 h -1.036284 l 0.523654,0.47404 z m 0.749652,1.36701 q -0.228754,-0.0303 -0.228754,-0.0303 -0.03583,0 -0.272851,0.0937 l 0.190169,0.0193 q 0.01102,0 0.311436,-0.0827 z m -0.388606,-0.0882 -0.843359,-0.61185 v 0.67524 l 0.471289,0.0827 z m 0.854383,0.0496 q -0.09922,0.006 -0.2949,0.0386 -0.01102,0.003 -0.377583,0.17639 -0.129535,0.34726 -0.380338,1.0418 z m -2.543857,-1.39733 -0.719335,-0.28388 0.124023,0.51814 z m -0.802018,-0.45476 v -0.41065 l -0.366557,0.44648 z m 1.515841,1.07212 -0.592556,-0.54019 -0.683506,0.2756 0.380338,0.9288 z m 0.369314,0.94257 q -0.03307,-0.003 -0.135047,-0.0248 -0.08544,-0.0165 -0.137804,-0.0165 -0.05237,0 -0.137804,0.0165 -0.101975,0.0221 -0.135047,0.0248 0.264583,0.0469 0.272851,0.0469 0.0083,0 0.272851,-0.0469 z m -0.30868,-0.1378 v -0.68626 l -0.843359,0.61185 0.37207,0.14607 z m 0.950846,0.20671 -0.396875,-0.0551 -0.479557,0.14056 v 1.27607 z m -2.888366,-2.20211 q -0.118512,0.0854 -0.234267,0.17364 -0.146072,0.10748 -0.209461,0.19568 -0.0441,0.10473 -0.135048,0.31419 0.369314,-0.3638 0.578776,-0.68351 z m 0.476801,0.83234 -0.159853,-0.61461 -0.410655,0.0634 -0.316948,0.90399 z m 0.394118,1.08313 -0.363802,-0.87918 -0.355533,0.63114 q 0.43546,0.2508 0.451996,0.2508 0.09095,0 0.267339,-0.003 z m 1.821765,0.82958 q -0.132291,0.21222 -0.405143,0.6339 -0.07717,0.10749 -0.220486,0.32797 -0.05788,0.10473 -0.05512,0.226 0.159852,-0.15158 0.432704,-0.49609 0.07717,-0.12954 0.140559,-0.339 0.05512,-0.17639 0.107486,-0.35278 z m -1.493792,-0.66146 -0.270095,-0.0882 -0.0083,-0.011 q -0.02481,0 -0.107487,0.011 -0.06615,0.006 -0.107487,0.006 0.272851,0.091 0.311436,0.091 0.02481,0 0.181901,-0.008 z m -0.810286,-1.06384 h -0.03032 l -0.7717,0.3197 q 0.06615,0.0965 0.223242,0.23978 0.07717,0.0138 0.234266,0.0469 z m -0.689018,-0.50161 q -0.341754,0.34727 -0.341754,0.39412 0,0.0799 0.06339,0.30868 h 0.04961 z m 2.235176,3.04547 v -1.27607 l -0.479557,-0.14056 -0.396875,0.0551 z m -1.606791,-1.6757 q -0.256315,-0.1819 -0.457509,-0.22324 0.06615,0.0772 0.20395,0.22324 z m 1.609547,2.04501 v -0.1378 l -0.683507,-1.05007 q 0.05237,0.17639 0.107487,0.35278 0.06339,0.20946 0.14056,0.339 0.0689,0.11851 0.20395,0.25907 0.115755,0.11851 0.23151,0.23702 z m -0.644921,-0.70555 q -0.115756,-0.32798 -0.380339,-1.0418 -0.135047,-0.0662 -0.272851,-0.12954 -0.159852,-0.0716 -0.289388,-0.0716 -0.05237,0 -0.110243,-0.0138 z" />
                <path d="m 73.780,122.900 q 0,0.34175 -0.242534,0.63114 -0.0441,0.0524 -0.20395,0.21497 -0.187413,0.19017 -0.785481,0.81304 l -1.444183,1.51309 q -0.01929,0.003 -0.0441,0.003 -0.02756,0 -0.04134,-0.003 -0.08268,-0.0827 -0.647678,-0.67524 -0.468532,-0.47404 -0.934309,-0.94809 -0.556727,-0.56775 -0.89848,-0.98116 -0.132292,-0.15985 -0.168121,-0.29766 -0.02756,-0.10197 -0.02756,-0.34175 0,-0.11024 0.07166,-0.28939 0.06614,-0.16536 0.140559,-0.26458 0.118512,-0.1571 0.42168,-0.42444 0.283875,-0.2508 0.474044,-0.37482 0.272852,-0.17915 0.818555,-0.36656 0.09646,-0.0331 0.110243,-0.0331 h 1.3615 q 0.01102,0 0.104731,0.0331 0.567751,0.20119 0.824066,0.36656 0.165365,0.10473 0.474045,0.37758 0.322461,0.28388 0.421679,0.42168 0.214974,0.2949 0.214974,0.62563 z m -0.16812,-0.27285 q -0.03307,-0.10749 -0.135048,-0.30868 -0.07166,-0.0937 -0.209462,-0.19844 -0.118511,-0.0854 -0.234266,-0.17088 0.245291,0.3638 0.578776,0.678 z m -0.573264,-0.52366 -0.358289,-0.44648 v 0.41065 z m 0.636653,0.75792 q 0,-0.0524 -0.341753,-0.39412 l 0.228754,0.7028 h 0.04961 q 0.06339,-0.21773 0.06339,-0.30868 z m -0.23151,0.27285 -0.316948,-0.90399 -0.410655,-0.0634 -0.159853,0.61461 z m 0.0028,0.15434 -0.771701,-0.3197 h -0.03032 l 0.344509,0.60634 q 0.07993,-0.003 0.234266,-0.0469 0.02481,-0.0138 0.223242,-0.23978 z m -0.857139,-1.05006 -0.719335,0.28388 0.60358,0.22599 z m 0,-0.16261 v -0.51538 l -0.917773,-0.38034 h -1.223697 l -0.917772,0.38034 v 0.51538 l 0.89848,0.4079 h 1.254014 z m 0.573264,1.53789 q -0.0689,0.011 -0.198438,0.0524 -0.08544,0.0551 -0.259071,0.16261 0.01929,0 0.06339,0.003 0.04134,0 0.06339,0 0.118511,0 0.190169,-0.0689 0.07166,-0.0717 0.14056,-0.14883 z m -0.289388,0.003 -0.347266,-0.63114 -0.363801,0.87918 q 0.0248,-0.0165 0.06615,-0.0165 0.03032,0 0.08544,0.011 0.05788,0.008 0.08819,0.008 0.04961,0 0.228754,-0.10749 0.228754,-0.1378 0.242535,-0.14331 z m -0.440972,-0.74139 -0.683507,-0.2756 -0.592556,0.54845 0.903993,0.65595 z m -0.854383,-0.28387 h -1.036284 l 0.523654,0.47404 z m 0.749652,1.36701 q -0.228754,-0.0303 -0.228754,-0.0303 -0.03583,0 -0.272851,0.0937 l 0.190169,0.0193 q 0.01102,0 0.311436,-0.0827 z m -0.388606,-0.0882 -0.843359,-0.61185 v 0.67524 l 0.471289,0.0827 z m 0.854383,0.0496 q -0.09922,0.006 -0.2949,0.0386 -0.01102,0.003 -0.377583,0.17639 -0.129535,0.34726 -0.380338,1.0418 z m -2.543857,-1.39733 -0.719335,-0.28388 0.124023,0.51814 z m -0.802018,-0.45476 v -0.41065 l -0.366557,0.44648 z m 1.515841,1.07212 -0.592556,-0.54019 -0.683506,0.2756 0.380338,0.9288 z m 0.369314,0.94257 q -0.03307,-0.003 -0.135047,-0.0248 -0.08544,-0.0165 -0.137804,-0.0165 -0.05237,0 -0.137804,0.0165 -0.101975,0.0221 -0.135047,0.0248 0.264583,0.0469 0.272851,0.0469 0.0083,0 0.272851,-0.0469 z m -0.30868,-0.1378 v -0.68626 l -0.843359,0.61185 0.37207,0.14607 z m 0.950846,0.20671 -0.396875,-0.0551 -0.479557,0.14056 v 1.27607 z m -2.888366,-2.20211 q -0.118512,0.0854 -0.234267,0.17364 -0.146072,0.10748 -0.209461,0.19568 -0.0441,0.10473 -0.135048,0.31419 0.369314,-0.3638 0.578776,-0.68351 z m 0.476801,0.83234 -0.159853,-0.61461 -0.410655,0.0634 -0.316948,0.90399 z m 0.394118,1.08313 -0.363802,-0.87918 -0.355533,0.63114 q 0.43546,0.2508 0.451996,0.2508 0.09095,0 0.267339,-0.003 z m 1.821765,0.82958 q -0.132291,0.21222 -0.405143,0.6339 -0.07717,0.10749 -0.220486,0.32797 -0.05788,0.10473 -0.05512,0.226 0.159852,-0.15158 0.432704,-0.49609 0.07717,-0.12954 0.140559,-0.339 0.05512,-0.17639 0.107486,-0.35278 z m -1.493792,-0.66146 -0.270095,-0.0882 -0.0083,-0.011 q -0.02481,0 -0.107487,0.011 -0.06615,0.006 -0.107487,0.006 0.272851,0.091 0.311436,0.091 0.02481,0 0.181901,-0.008 z m -0.810286,-1.06384 h -0.03032 l -0.7717,0.3197 q 0.06615,0.0965 0.223242,0.23978 0.07717,0.0138 0.234266,0.0469 z m -0.689018,-0.50161 q -0.341754,0.34727 -0.341754,0.39412 0,0.0799 0.06339,0.30868 h 0.04961 z m 2.235176,3.04547 v -1.27607 l -0.479557,-0.14056 -0.396875,0.0551 z m -1.606791,-1.6757 q -0.256315,-0.1819 -0.457509,-0.22324 0.06615,0.0772 0.20395,0.22324 z m 1.609547,2.04501 v -0.1378 l -0.683507,-1.05007 q 0.05237,0.17639 0.107487,0.35278 0.06339,0.20946 0.14056,0.339 0.0689,0.11851 0.20395,0.25907 0.115755,0.11851 0.23151,0.23702 z m -0.644921,-0.70555 q -0.115756,-0.32798 -0.380339,-1.0418 -0.135047,-0.0662 -0.272851,-0.12954 -0.159852,-0.0716 -0.289388,-0.0716 -0.05237,0 -0.110243,-0.0138 z" />
            </g>
        </g>
        <g id="control_grid" />
        <path d="M 10.20,23.00 L 5.20,34.00 z L 15.20,34.00 z " style="stroke:#000000;stroke-width:0.1;stroke-linecap:round;stroke-linejoin:bevel;stroke-dasharray:none" />
        <path d="M 10.20,50.00 L 5.20,61.00 z L 15.20,61.00 z " style="stroke:#000000;stroke-width:0.1;stroke-linecap:round;stroke-linejoin:bevel;stroke-dasharray:none" />
        <path d="M 10.20,77.00 L 5.20,88.00 z L 15.20,88.00 z " style="stroke:#000000;stroke-width:0.1;stroke-linecap:round;stroke-linejoin:bevel;stroke-dasharray:none" />
        <path d="M 10.20,104.00 L 5.20,115.00 z L 15.20,115.00 z " style="stroke:#000000;stroke-width:0.1;stroke-linecap:round;stroke-linejoin:bevel;stroke-dasharray:none" />
        <path d="M 10.20,131.00 L 5.20,142.00 z L 15.20,142.00 z " style="stroke:#000000;stroke-width:0.1;stroke-linecap:round;stroke-linejoin:bevel;stroke-dasharray:none" />
        <path d="M 30.50,23.00 L 25.50,34.00 z L 35.50,34.00 z " style="stroke:#000000;stroke-width:0.1;stroke-linecap:round;stroke-linejoin:bevel;stroke-dasharray:none" />
        <path d="M 30.50,50.00 L 25.50,61.00 z L 35.50,61.00 z " style="stroke:#000000;stroke-width:0.1;stroke-linecap:round;stroke-linejoin:bevel;stroke-dasharray:none" />
        <path d="M 30.50,77.00 L 25.50,88.00 z L 35.50,88.00 z " style="stroke:#000000;stroke-width:0.1;stroke-linecap:round;stroke-linejoin:bevel;stroke-dasharray:none" />
        <path d="M 30.50,104.00 L 25.50,115.00 z L 35.50,115.00 z " style="stroke:#000000;stroke-width:0.1;stroke-linecap:round;stroke-linejoin:bevel;stroke-dasharray:none" />
        <path d="M 30.50,131.00 L 25.50,142.00 z L 35.50,142.00 z " style="stroke:#000000;stroke-width:0.1;stroke-linecap:round;stroke-linejoin:bevel;stroke-dasharray:none" />
        <path d="M 50.80,23.00 L 45.80,34.00 z L 55.80,34.00 z " style="stroke:#000000;stroke-width:0.1;stroke-linecap:round;stroke-linejoin:bevel;stroke-dasharray:none" />
        <path d="M 50.80,50.00 L 45.80,61.00 z L 55.80,61.00 z " style="stroke:#000000;stroke-width:0.1;stroke-linecap:round;stroke-linejoin:bevel;stroke-dasharray:none" />
        <path d="M 50.80,77.00 L 45.80,88.00 z L 55.80,88.00 z " style="stroke:#000000;stroke-width:0.1;stroke-linecap:round;stroke-linejoin:bevel;stroke-dasharray:none" />
        <path d="M 50.80,104.00 L 45.80,115.00 z L 55.80,115.00 z " style="stroke:#000000;stroke-width:0.1;stroke-linecap:round;stroke-linejoin:bevel;stroke-dasharray:none" />
        <path d="M 50.80,131.00 L 45.80,142.00 z L 55.80,142.00 z " style="stroke:#000000;stroke-width:0.1;stroke-linecap:round;stroke-linejoin:bevel;stroke-dasharray:none" />
    </g>
</svg>
