<?xml version="1.0" encoding="utf-8"?>
<svg xmlns="http://www.w3.org/2000/svg" width="101.60mm" height="128.50mm" viewBox="0 0 101.60 128.50">
    <g id="PanelLayer">
        <g id="ControlLayer" style="display:none;">
            <circle id="level_0_knob" cx="10.16" cy="30" r="1" />
            <circle id="level_0_atten" cx="5.16" cy="41" r="1" />
            <circle id="level_0_cv" cx="15.16" cy="41" r="1" />
            <circle id="level_1_knob" cx="30.48" cy="30" r="1" />
            <circle id="level_1_atten" cx="25.48" cy="41" r="1" />
            <circle id="level_1_cv" cx="35.48" cy="41" r="1" />
            <circle id="level_2_knob" cx="50.8" cy="30" r="1" />
            <circle id="level_2_atten" cx="45.8" cy="41" r="1" />
            <circle id="level_2_cv" cx="55.8" cy="41" r="1" />
            <circle id="level_3_knob" cx="71.12" cy="30" r="1" />
            <circle id="level_3_atten" cx="66.12" cy="41" r="1" />
            <circle id="level_3_cv" cx="76.12" cy="41" r="1" />
            <circle id="level_4_knob" cx="91.44" cy="30" r="1" />
            <circle id="level_4_atten" cx="86.44" cy="41" r="1" />
            <circle id="level_4_cv" cx="96.44" cy="41" r="1" />
        </g>
        <rect id="border_rect" width="101.6" height="128.5" x="0" y="0" style="display:inline;fill:#4f8df2;fill-opacity:1;fill-rule:nonzero;stroke:#5021d4;stroke-width:0.7;stroke-linecap:round;stroke-linejoin:round;stroke-dasharray:none;stroke-opacity:1;image-rendering:auto" />
        <path id="model_name" d="M38.1921 7.38291Q38.1921 7.32858 38.2542 7.28201Q38.293 7.24321 38.3473 7.24321Q38.4249 7.24321 38.4715 7.3053Q38.9216 7.94947 39.7288 7.94947Q40.1401 7.94947 40.4506 7.7438Q40.761 7.53813 40.761 7.18888Q40.761 6.83187 40.4894 6.65336Q40.2177 6.47486 39.7443 6.35844Q39.1156 6.20322 38.7548 5.94322Q38.3939 5.68323 38.3939 5.2098Q38.3939 4.75189 38.7586 4.45309Q39.1234 4.15429 39.6977 4.15429Q40.0159 4.15429 40.3303 4.27846Q40.6446 4.40264 40.9007 4.67428Q40.955 4.72085 40.955 4.78294Q40.955 4.85279 40.9007 4.90711Q40.8386 4.93816 40.7998 4.93816Q40.7455 4.93816 40.7067 4.89159Q40.3031 4.44921 39.6667 4.44921Q39.2553 4.44921 38.9721 4.651Q38.6888 4.85279 38.6888 5.2098Q38.7121 5.54352 38.9954 5.72591Q39.2786 5.9083 39.8297 6.048Q40.2255 6.14889 40.4855 6.26919Q40.7455 6.38949 40.9007 6.6068Q41.0559 6.82411 41.0559 7.17336Q41.0559 7.66231 40.6795 7.94559Q40.3031 8.22887 39.6977 8.22887Q38.813 8.22887 38.2464 7.53037Q38.1921 7.445 38.1921 7.38291ZM45.6738 6.21098Q45.6738 6.76978 45.4371 7.22381Q45.2004 7.67783 44.789 7.93783Q44.3777 8.19782 43.8732 8.19782Q43.4075 8.19782 43.0195 7.96499Q42.6314 7.73216 42.3831 7.3053V9.54826Q42.3831 9.61035 42.3404 9.65691Q42.2977 9.70348 42.2279 9.70348Q42.1658 9.70348 42.1192 9.65691Q42.0726 9.61035 42.0726 9.54826V4.38712Q42.0726 4.32503 42.1153 4.27846Q42.158 4.2319 42.2279 4.2319Q42.2977 4.2319 42.3404 4.27846Q42.3831 4.32503 42.3831 4.38712V5.10114Q42.6159 4.65876 43.004 4.44533Q43.392 4.2319 43.8732 4.2319Q44.3854 4.2319 44.7968 4.48801Q45.2081 4.74413 45.441 5.19428Q45.6738 5.64442 45.6738 6.21098ZM45.3633 6.21098Q45.3633 5.72979 45.1654 5.34562Q44.9675 4.96144 44.626 4.74413Q44.2845 4.52682 43.8577 4.52682Q43.4231 4.52682 43.0777 4.74025Q42.7323 4.95368 42.5422 5.33786Q42.352 5.72203 42.352 6.21098Q42.352 6.69993 42.5422 7.08411Q42.7323 7.46828 43.0777 7.68559Q43.4231 7.9029 43.8577 7.9029Q44.2845 7.9029 44.626 7.68559Q44.9675 7.46828 45.1654 7.08022Q45.3633 6.69217 45.3633 6.21098ZM50.02 4.43369V7.99604Q50.02 8.05812 49.9734 8.10469Q49.9269 8.15126 49.8648 8.15126Q49.7949 8.15126 49.7522 8.10469Q49.7096 8.05812 49.7096 7.99604V7.29754Q49.5155 7.69335 49.112 7.96111Q48.7084 8.22887 48.2194 8.22887Q47.7072 8.22887 47.2959 7.96111Q46.8845 7.69335 46.6517 7.22381Q46.4189 6.75426 46.4189 6.17217Q46.4189 5.59785 46.6556 5.13607Q46.8923 4.67428 47.3036 4.41428Q47.715 4.15429 48.2194 4.15429Q48.7239 4.15429 49.1275 4.41816Q49.5311 4.68204 49.7096 5.12443V4.43369Q49.7096 4.3716 49.7522 4.32503Q49.7949 4.27846 49.8648 4.27846Q49.9346 4.27846 49.9773 4.32503Q50.02 4.3716 50.02 4.43369ZM49.7406 6.17217Q49.7406 5.69875 49.5466 5.30293Q49.3526 4.90711 49.0072 4.67816Q48.6618 4.44921 48.235 4.44921Q47.8081 4.44921 47.4627 4.6704Q47.1174 4.89159 46.9233 5.28353Q46.7293 5.67546 46.7293 6.17217Q46.7293 6.66889 46.9233 7.07246Q47.1174 7.47604 47.4588 7.70499Q47.8003 7.93395 48.235 7.93395Q48.6618 7.93395 49.0072 7.70499Q49.3526 7.47604 49.5466 7.07246Q49.7406 6.66889 49.7406 6.17217ZM52.8994 4.39488Q52.8994 4.45697 52.8567 4.49966Q52.814 4.54234 52.7519 4.54234H51.8982V7.3053Q51.8982 7.64679 52.0185 7.75932Q52.1388 7.87186 52.3251 7.87186Q52.3561 7.87186 52.4143 7.85634Q52.4725 7.84081 52.5113 7.84081Q52.5657 7.84081 52.6045 7.8835Q52.6433 7.92619 52.6433 7.98051Q52.6433 8.05036 52.5501 8.10081Q52.457 8.15126 52.3328 8.15126Q52.1388 8.15126 52.0069 8.12409Q51.8749 8.09693 51.7313 7.91454Q51.5878 7.73216 51.5878 7.32082V4.54234H50.9513Q50.897 4.54234 50.8504 4.49578Q50.8039 4.44921 50.8039 4.39488Q50.8039 4.33279 50.8466 4.29011Q50.8893 4.24742 50.9513 4.24742H51.5878V3.26176Q51.5878 3.19967 51.6343 3.1531Q51.6809 3.10654 51.743 3.10654Q51.8128 3.10654 51.8555 3.1531Q51.8982 3.19967 51.8982 3.26176V4.24742H52.7519Q52.8062 4.24742 52.8528 4.29399Q52.8994 4.34055 52.8994 4.39488ZM56.842 4.43369V6.69217Q56.842 7.42948 56.4268 7.81365Q56.0116 8.19782 55.2976 8.19782Q54.5835 8.19782 54.1722 7.81365Q53.7609 7.42948 53.7609 6.69217V4.43369Q53.7609 4.3716 53.8074 4.32503Q53.854 4.27846 53.9161 4.27846Q53.9859 4.27846 54.0286 4.32503Q54.0713 4.3716 54.0713 4.43369V6.69217Q54.0713 7.27425 54.3973 7.58858Q54.7232 7.9029 55.2976 7.9029Q55.8796 7.9029 56.2056 7.58858Q56.5316 7.27425 56.5316 6.69217V4.43369Q56.5316 4.3716 56.5743 4.32503Q56.617 4.27846 56.6868 4.27846Q56.7567 4.27846 56.7993 4.32503Q56.842 4.3716 56.842 4.43369ZM58.3244 8.15126Q58.2545 8.15126 58.2119 8.10469Q58.1692 8.05812 58.1692 7.99604V2.56326Q58.1692 2.50117 58.2157 2.4546Q58.2623 2.40804 58.3244 2.40804Q58.3942 2.40804 58.4369 2.4546Q58.4796 2.50117 58.4796 2.56326V7.99604Q58.4796 8.05812 58.4331 8.10469Q58.3865 8.15126 58.3244 8.15126ZM63.1363 4.43369V7.99604Q63.1363 8.05812 63.0897 8.10469Q63.0432 8.15126 62.9811 8.15126Q62.9112 8.15126 62.8685 8.10469Q62.8258 8.05812 62.8258 7.99604V7.29754Q62.6318 7.69335 62.2282 7.96111Q61.8247 8.22887 61.3357 8.22887Q60.8235 8.22887 60.4121 7.96111Q60.0008 7.69335 59.768 7.22381Q59.5351 6.75426 59.5351 6.17217Q59.5351 5.59785 59.7718 5.13607Q60.0086 4.67428 60.4199 4.41428Q60.8312 4.15429 61.3357 4.15429Q61.8402 4.15429 62.2438 4.41816Q62.6473 4.68204 62.8258 5.12443V4.43369Q62.8258 4.3716 62.8685 4.32503Q62.9112 4.27846 62.9811 4.27846Q63.0509 4.27846 63.0936 4.32503Q63.1363 4.3716 63.1363 4.43369ZM62.8569 6.17217Q62.8569 5.69875 62.6629 5.30293Q62.4688 4.90711 62.1235 4.67816Q61.7781 4.44921 61.3512 4.44921Q60.9244 4.44921 60.579 4.6704Q60.2336 4.89159 60.0396 5.28353Q59.8456 5.67546 59.8456 6.17217Q59.8456 6.66889 60.0396 7.07246Q60.2336 7.47604 60.5751 7.70499Q60.9166 7.93395 61.3512 7.93395Q61.7781 7.93395 62.1235 7.70499Q62.4688 7.47604 62.6629 7.07246Q62.8569 6.66889 62.8569 6.17217Z" style="display:inline;stroke:#000000;stroke-width:0.35;stroke-linecap:round;stroke-linejoin:bevel" />
        <g id="sapphire_insignia">
            <path id="brand_name" d="M35.9064 124.775Q35.9064 124.721 35.9685 124.674Q36.0073 124.636 36.0617 124.636Q36.1393 124.636 36.1858 124.698Q36.636 125.342 37.4431 125.342Q37.8545 125.342 38.1649 125.136Q38.4754 124.93 38.4754 124.581Q38.4754 124.224 38.2037 124.046Q37.9321 123.867 37.4586 123.751Q36.83 123.596 36.4691 123.336Q36.1082 123.076 36.1082 122.602Q36.1082 122.144 36.473 121.845Q36.8378 121.547 37.4121 121.547Q37.7303 121.547 38.0446 121.671Q38.3589 121.795 38.6151 122.067Q38.6694 122.113 38.6694 122.175Q38.6694 122.245 38.6151 122.299Q38.553 122.331 38.5142 122.331Q38.4598 122.331 38.421 122.284Q38.0174 121.842 37.381 121.842Q36.9697 121.842 36.6864 122.043Q36.4031 122.245 36.4031 122.602Q36.4264 122.936 36.7097 123.118Q36.993 123.301 37.544 123.44Q37.9398 123.541 38.1998 123.662Q38.4598 123.782 38.6151 123.999Q38.7703 124.216 38.7703 124.566Q38.7703 125.055 38.3939 125.338Q38.0174 125.621 37.4121 125.621Q36.5273 125.621 35.9608 124.923Q35.9064 124.837 35.9064 124.775ZM43.1165 121.826V125.388Q43.1165 125.45 43.0699 125.497Q43.0234 125.544 42.9613 125.544Q42.8914 125.544 42.8487 125.497Q42.8061 125.45 42.8061 125.388V124.69Q42.612 125.086 42.2084 125.353Q41.8049 125.621 41.3159 125.621Q40.8037 125.621 40.3923 125.353Q39.981 125.086 39.7482 124.616Q39.5153 124.147 39.5153 123.565Q39.5153 122.99 39.7521 122.528Q39.9888 122.067 40.4001 121.807Q40.8114 121.547 41.3159 121.547Q41.8204 121.547 42.224 121.811Q42.6275 122.074 42.8061 122.517V121.826Q42.8061 121.764 42.8487 121.717Q42.8914 121.671 42.9613 121.671Q43.0311 121.671 43.0738 121.717Q43.1165 121.764 43.1165 121.826ZM42.8371 123.565Q42.8371 123.091 42.6431 122.695Q42.449 122.299 42.1037 122.071Q41.7583 121.842 41.3314 121.842Q40.9046 121.842 40.5592 122.063Q40.2138 122.284 40.0198 122.676Q39.8258 123.068 39.8258 123.565Q39.8258 124.061 40.0198 124.465Q40.2138 124.868 40.5553 125.097Q40.8968 125.326 41.3314 125.326Q41.7583 125.326 42.1037 125.097Q42.449 124.868 42.6431 124.465Q42.8371 124.061 42.8371 123.565ZM48.006 123.603Q48.006 124.162 47.7693 124.616Q47.5326 125.07 47.1212 125.33Q46.7099 125.59 46.2054 125.59Q45.7398 125.59 45.3517 125.357Q44.9636 125.125 44.7153 124.698V126.941Q44.7153 127.003 44.6726 127.049Q44.6299 127.096 44.5601 127.096Q44.498 127.096 44.4514 127.049Q44.4048 127.003 44.4048 126.941V121.779Q44.4048 121.717 44.4475 121.671Q44.4902 121.624 44.5601 121.624Q44.6299 121.624 44.6726 121.671Q44.7153 121.717 44.7153 121.779V122.493Q44.9481 122.051 45.3362 121.838Q45.7242 121.624 46.2054 121.624Q46.7177 121.624 47.129 121.88Q47.5403 122.136 47.7732 122.587Q48.006 123.037 48.006 123.603ZM47.6956 123.603Q47.6956 123.122 47.4976 122.738Q47.2997 122.354 46.9582 122.136Q46.6168 121.919 46.1899 121.919Q45.7553 121.919 45.4099 122.133Q45.0645 122.346 44.8744 122.73Q44.6842 123.114 44.6842 123.603Q44.6842 124.092 44.8744 124.476Q45.0645 124.861 45.4099 125.078Q45.7553 125.295 46.1899 125.295Q46.6168 125.295 46.9582 125.078Q47.2997 124.861 47.4976 124.473Q47.6956 124.085 47.6956 123.603ZM52.6239 123.603Q52.6239 124.162 52.3871 124.616Q52.1504 125.07 51.7391 125.33Q51.3278 125.59 50.8233 125.59Q50.3576 125.59 49.9696 125.357Q49.5815 125.125 49.3331 124.698V126.941Q49.3331 127.003 49.2905 127.049Q49.2478 127.096 49.1779 127.096Q49.1158 127.096 49.0693 127.049Q49.0227 127.003 49.0227 126.941V121.779Q49.0227 121.717 49.0654 121.671Q49.1081 121.624 49.1779 121.624Q49.2478 121.624 49.2905 121.671Q49.3331 121.717 49.3331 121.779V122.493Q49.566 122.051 49.954 121.838Q50.3421 121.624 50.8233 121.624Q51.3355 121.624 51.7469 121.88Q52.1582 122.136 52.391 122.587Q52.6239 123.037 52.6239 123.603ZM52.3134 123.603Q52.3134 123.122 52.1155 122.738Q51.9176 122.354 51.5761 122.136Q51.2346 121.919 50.8078 121.919Q50.3731 121.919 50.0278 122.133Q49.6824 122.346 49.4923 122.73Q49.3021 123.114 49.3021 123.603Q49.3021 124.092 49.4923 124.476Q49.6824 124.861 50.0278 125.078Q50.3731 125.295 50.8078 125.295Q51.2346 125.295 51.5761 125.078Q51.9176 124.861 52.1155 124.473Q52.3134 124.085 52.3134 123.603ZM56.714 123.122V125.388Q56.714 125.45 56.6674 125.497Q56.6208 125.544 56.5587 125.544Q56.4889 125.544 56.4462 125.497Q56.4035 125.45 56.4035 125.388V123.122Q56.4035 122.587 56.1396 122.253Q55.8758 121.919 55.3325 121.919Q54.9988 121.919 54.6767 122.082Q54.3546 122.245 54.1528 122.525Q53.951 122.804 53.951 123.122V125.388Q53.951 125.45 53.9044 125.497Q53.8579 125.544 53.7958 125.544Q53.7259 125.544 53.6833 125.497Q53.6406 125.45 53.6406 125.388V119.956Q53.6406 119.894 53.6871 119.847Q53.7337 119.8 53.7958 119.8Q53.8656 119.8 53.9083 119.847Q53.951 119.894 53.951 119.956V122.408Q54.1683 122.067 54.5525 121.845Q54.9367 121.624 55.3325 121.624Q55.9999 121.624 56.357 122.047Q56.714 122.47 56.714 123.122ZM58.1575 125.544Q58.0877 125.544 58.045 125.497Q58.0023 125.45 58.0023 125.388V121.702Q58.0023 121.64 58.0489 121.593Q58.0954 121.547 58.1575 121.547Q58.2274 121.547 58.2701 121.593Q58.3128 121.64 58.3128 121.702V125.388Q58.3128 125.45 58.2662 125.497Q58.2196 125.544 58.1575 125.544ZM57.8859 120.771V120.708Q57.8859 120.6 57.9635 120.53Q58.0411 120.46 58.1653 120.46Q58.2739 120.46 58.3477 120.53Q58.4214 120.6 58.4214 120.708V120.771Q58.4214 120.879 58.3477 120.949Q58.2739 121.019 58.1575 121.019Q58.0334 121.019 57.9596 120.949Q57.8859 120.879 57.8859 120.771ZM61.7121 121.725Q61.7121 121.795 61.6733 121.842Q61.6345 121.888 61.5724 121.888Q61.5491 121.888 61.4599 121.853Q61.3706 121.818 61.2697 121.818Q60.9515 121.818 60.6333 122.071Q60.3151 122.323 60.1133 122.707Q59.9115 123.091 59.9115 123.448V125.388Q59.9115 125.45 59.865 125.497Q59.8184 125.544 59.7563 125.544Q59.6865 125.544 59.6438 125.497Q59.6011 125.45 59.6011 125.388V121.826Q59.6011 121.764 59.6477 121.717Q59.6942 121.671 59.7563 121.671Q59.8262 121.671 59.8689 121.717Q59.9115 121.764 59.9115 121.826V122.649Q60.09 122.175 60.4665 121.865Q60.8429 121.554 61.3551 121.547Q61.7121 121.547 61.7121 121.725ZM65.6548 124.752Q65.6548 124.806 65.6237 124.845Q65.3676 125.187 64.9873 125.404Q64.607 125.621 64.1724 125.621Q63.5903 125.621 63.1402 125.373Q62.69 125.125 62.4378 124.667Q62.1856 124.209 62.1856 123.603Q62.1856 122.982 62.43 122.513Q62.6745 122.043 63.0781 121.795Q63.4817 121.547 63.9396 121.547Q64.3975 121.547 64.7894 121.745Q65.1813 121.942 65.4297 122.338Q65.678 122.734 65.6936 123.316Q65.6936 123.378 65.647 123.429Q65.6004 123.479 65.5384 123.479H62.4882V123.58Q62.4882 124.061 62.6823 124.461Q62.8763 124.861 63.2566 125.093Q63.6369 125.326 64.1724 125.326Q64.5449 125.326 64.8748 125.144Q65.2046 124.962 65.3909 124.682Q65.4452 124.612 65.5228 124.612Q65.5772 124.612 65.616 124.655Q65.6548 124.698 65.6548 124.752ZM62.5193 123.184H65.3754V123.114Q65.3366 122.719 65.1231 122.435Q64.9097 122.152 64.5954 122.005Q64.2811 121.857 63.9396 121.857Q63.6524 121.857 63.3536 122.008Q63.0548 122.16 62.8258 122.459Q62.5969 122.757 62.5193 123.184Z" style="fill:#000000;stroke:#000000;stroke-width:0.265;stroke-linecap:square" />
            <g id="gemstones" style="stroke-width:0;fill:#0000ff;stroke:#2e2114;stroke-linecap:square;stroke-opacity:1">
                <path d="m 33.250,122.900 q 0,0.34175 -0.242534,0.63114 -0.0441,0.0524 -0.20395,0.21497 -0.187413,0.19017 -0.785481,0.81304 l -1.444183,1.51309 q -0.01929,0.003 -0.0441,0.003 -0.02756,0 -0.04134,-0.003 -0.08268,-0.0827 -0.647678,-0.67524 -0.468532,-0.47404 -0.934309,-0.94809 -0.556727,-0.56775 -0.89848,-0.98116 -0.132292,-0.15985 -0.168121,-0.29766 -0.02756,-0.10197 -0.02756,-0.34175 0,-0.11024 0.07166,-0.28939 0.06614,-0.16536 0.140559,-0.26458 0.118512,-0.1571 0.42168,-0.42444 0.283875,-0.2508 0.474044,-0.37482 0.272852,-0.17915 0.818555,-0.36656 0.09646,-0.0331 0.110243,-0.0331 h 1.3615 q 0.01102,0 0.104731,0.0331 0.567751,0.20119 0.824066,0.36656 0.165365,0.10473 0.474045,0.37758 0.322461,0.28388 0.421679,0.42168 0.214974,0.2949 0.214974,0.62563 z m -0.16812,-0.27285 q -0.03307,-0.10749 -0.135048,-0.30868 -0.07166,-0.0937 -0.209462,-0.19844 -0.118511,-0.0854 -0.234266,-0.17088 0.245291,0.3638 0.578776,0.678 z m -0.573264,-0.52366 -0.358289,-0.44648 v 0.41065 z m 0.636653,0.75792 q 0,-0.0524 -0.341753,-0.39412 l 0.228754,0.7028 h 0.04961 q 0.06339,-0.21773 0.06339,-0.30868 z m -0.23151,0.27285 -0.316948,-0.90399 -0.410655,-0.0634 -0.159853,0.61461 z m 0.0028,0.15434 -0.771701,-0.3197 h -0.03032 l 0.344509,0.60634 q 0.07993,-0.003 0.234266,-0.0469 0.02481,-0.0138 0.223242,-0.23978 z m -0.857139,-1.05006 -0.719335,0.28388 0.60358,0.22599 z m 0,-0.16261 v -0.51538 l -0.917773,-0.38034 h -1.223697 l -0.917772,0.38034 v 0.51538 l 0.89848,0.4079 h 1.254014 z m 0.573264,1.53789 q -0.0689,0.011 -0.198438,0.0524 -0.08544,0.0551 -0.259071,0.16261 0.01929,0 0.06339,0.003 0.04134,0 0.06339,0 0.118511,0 0.190169,-0.0689 0.07166,-0.0717 0.14056,-0.14883 z m -0.289388,0.003 -0.347266,-0.63114 -0.363801,0.87918 q 0.0248,-0.0165 0.06615,-0.0165 0.03032,0 0.08544,0.011 0.05788,0.008 0.08819,0.008 0.04961,0 0.228754,-0.10749 0.228754,-0.1378 0.242535,-0.14331 z m -0.440972,-0.74139 -0.683507,-0.2756 -0.592556,0.54845 0.903993,0.65595 z m -0.854383,-0.28387 h -1.036284 l 0.523654,0.47404 z m 0.749652,1.36701 q -0.228754,-0.0303 -0.228754,-0.0303 -0.03583,0 -0.272851,0.0937 l 0.190169,0.0193 q 0.01102,0 0.311436,-0.0827 z m -0.388606,-0.0882 -0.843359,-0.61185 v 0.67524 l 0.471289,0.0827 z m 0.854383,0.0496 q -0.09922,0.006 -0.2949,0.0386 -0.01102,0.003 -0.377583,0.17639 -0.129535,0.34726 -0.380338,1.0418 z m -2.543857,-1.39733 -0.719335,-0.28388 0.124023,0.51814 z m -0.802018,-0.45476 v -0.41065 l -0.366557,0.44648 z m 1.515841,1.07212 -0.592556,-0.54019 -0.683506,0.2756 0.380338,0.9288 z m 0.369314,0.94257 q -0.03307,-0.003 -0.135047,-0.0248 -0.08544,-0.0165 -0.137804,-0.0165 -0.05237,0 -0.137804,0.0165 -0.101975,0.0221 -0.135047,0.0248 0.264583,0.0469 0.272851,0.0469 0.0083,0 0.272851,-0.0469 z m -0.30868,-0.1378 v -0.68626 l -0.843359,0.61185 0.37207,0.14607 z m 0.950846,0.20671 -0.396875,-0.0551 -0.479557,0.14056 v 1.27607 z m -2.888366,-2.20211 q -0.118512,0.0854 -0.234267,0.17364 -0.146072,0.10748 -0.209461,0.19568 -0.0441,0.10473 -0.135048,0.31419 0.369314,-0.3638 0.578776,-0.68351 z m 0.476801,0.83234 -0.159853,-0.61461 -0.410655,0.0634 -0.316948,0.90399 z m 0.394118,1.08313 -0.363802,-0.87918 -0.355533,0.63114 q 0.43546,0.2508 0.451996,0.2508 0.09095,0 0.267339,-0.003 z m 1.821765,0.82958 q -0.132291,0.21222 -0.405143,0.6339 -0.07717,0.10749 -0.220486,0.32797 -0.05788,0.10473 -0.05512,0.226 0.159852,-0.15158 0.432704,-0.49609 0.07717,-0.12954 0.140559,-0.339 0.05512,-0.17639 0.107486,-0.35278 z m -1.493792,-0.66146 -0.270095,-0.0882 -0.0083,-0.011 q -0.02481,0 -0.107487,0.011 -0.06615,0.006 -0.107487,0.006 0.272851,0.091 0.311436,0.091 0.02481,0 0.181901,-0.008 z m -0.810286,-1.06384 h -0.03032 l -0.7717,0.3197 q 0.06615,0.0965 0.223242,0.23978 0.07717,0.0138 0.234266,0.0469 z m -0.689018,-0.50161 q -0.341754,0.34727 -0.341754,0.39412 0,0.0799 0.06339,0.30868 h 0.04961 z m 2.235176,3.04547 v -1.27607 l -0.479557,-0.14056 -0.396875,0.0551 z m -1.606791,-1.6757 q -0.256315,-0.1819 -0.457509,-0.22324 0.06615,0.0772 0.20395,0.22324 z m 1.609547,2.04501 v -0.1378 l -0.683507,-1.05007 q 0.05237,0.17639 0.107487,0.35278 0.06339,0.20946 0.14056,0.339 0.0689,0.11851 0.20395,0.25907 0.115755,0.11851 0.23151,0.23702 z m -0.644921,-0.70555 q -0.115756,-0.32798 -0.380339,-1.0418 -0.135047,-0.0662 -0.272851,-0.12954 -0.159852,-0.0716 -0.289388,-0.0716 -0.05237,0 -0.110243,-0.0138 z" />
                <path d="m 73.780,122.900 q 0,0.34175 -0.242534,0.63114 -0.0441,0.0524 -0.20395,0.21497 -0.187413,0.19017 -0.785481,0.81304 l -1.444183,1.51309 q -0.01929,0.003 -0.0441,0.003 -0.02756,0 -0.04134,-0.003 -0.08268,-0.0827 -0.647678,-0.67524 -0.468532,-0.47404 -0.934309,-0.94809 -0.556727,-0.56775 -0.89848,-0.98116 -0.132292,-0.15985 -0.168121,-0.29766 -0.02756,-0.10197 -0.02756,-0.34175 0,-0.11024 0.07166,-0.28939 0.06614,-0.16536 0.140559,-0.26458 0.118512,-0.1571 0.42168,-0.42444 0.283875,-0.2508 0.474044,-0.37482 0.272852,-0.17915 0.818555,-0.36656 0.09646,-0.0331 0.110243,-0.0331 h 1.3615 q 0.01102,0 0.104731,0.0331 0.567751,0.20119 0.824066,0.36656 0.165365,0.10473 0.474045,0.37758 0.322461,0.28388 0.421679,0.42168 0.214974,0.2949 0.214974,0.62563 z m -0.16812,-0.27285 q -0.03307,-0.10749 -0.135048,-0.30868 -0.07166,-0.0937 -0.209462,-0.19844 -0.118511,-0.0854 -0.234266,-0.17088 0.245291,0.3638 0.578776,0.678 z m -0.573264,-0.52366 -0.358289,-0.44648 v 0.41065 z m 0.636653,0.75792 q 0,-0.0524 -0.341753,-0.39412 l 0.228754,0.7028 h 0.04961 q 0.06339,-0.21773 0.06339,-0.30868 z m -0.23151,0.27285 -0.316948,-0.90399 -0.410655,-0.0634 -0.159853,0.61461 z m 0.0028,0.15434 -0.771701,-0.3197 h -0.03032 l 0.344509,0.60634 q 0.07993,-0.003 0.234266,-0.0469 0.02481,-0.0138 0.223242,-0.23978 z m -0.857139,-1.05006 -0.719335,0.28388 0.60358,0.22599 z m 0,-0.16261 v -0.51538 l -0.917773,-0.38034 h -1.223697 l -0.917772,0.38034 v 0.51538 l 0.89848,0.4079 h 1.254014 z m 0.573264,1.53789 q -0.0689,0.011 -0.198438,0.0524 -0.08544,0.0551 -0.259071,0.16261 0.01929,0 0.06339,0.003 0.04134,0 0.06339,0 0.118511,0 0.190169,-0.0689 0.07166,-0.0717 0.14056,-0.14883 z m -0.289388,0.003 -0.347266,-0.63114 -0.363801,0.87918 q 0.0248,-0.0165 0.06615,-0.0165 0.03032,0 0.08544,0.011 0.05788,0.008 0.08819,0.008 0.04961,0 0.228754,-0.10749 0.228754,-0.1378 0.242535,-0.14331 z m -0.440972,-0.74139 -0.683507,-0.2756 -0.592556,0.54845 0.903993,0.65595 z m -0.854383,-0.28387 h -1.036284 l 0.523654,0.47404 z m 0.749652,1.36701 q -0.228754,-0.0303 -0.228754,-0.0303 -0.03583,0 -0.272851,0.0937 l 0.190169,0.0193 q 0.01102,0 0.311436,-0.0827 z m -0.388606,-0.0882 -0.843359,-0.61185 v 0.67524 l 0.471289,0.0827 z m 0.854383,0.0496 q -0.09922,0.006 -0.2949,0.0386 -0.01102,0.003 -0.377583,0.17639 -0.129535,0.34726 -0.380338,1.0418 z m -2.543857,-1.39733 -0.719335,-0.28388 0.124023,0.51814 z m -0.802018,-0.45476 v -0.41065 l -0.366557,0.44648 z m 1.515841,1.07212 -0.592556,-0.54019 -0.683506,0.2756 0.380338,0.9288 z m 0.369314,0.94257 q -0.03307,-0.003 -0.135047,-0.0248 -0.08544,-0.0165 -0.137804,-0.0165 -0.05237,0 -0.137804,0.0165 -0.101975,0.0221 -0.135047,0.0248 0.264583,0.0469 0.272851,0.0469 0.0083,0 0.272851,-0.0469 z m -0.30868,-0.1378 v -0.68626 l -0.843359,0.61185 0.37207,0.14607 z m 0.950846,0.20671 -0.396875,-0.0551 -0.479557,0.14056 v 1.27607 z m -2.888366,-2.20211 q -0.118512,0.0854 -0.234267,0.17364 -0.146072,0.10748 -0.209461,0.19568 -0.0441,0.10473 -0.135048,0.31419 0.369314,-0.3638 0.578776,-0.68351 z m 0.476801,0.83234 -0.159853,-0.61461 -0.410655,0.0634 -0.316948,0.90399 z m 0.394118,1.08313 -0.363802,-0.87918 -0.355533,0.63114 q 0.43546,0.2508 0.451996,0.2508 0.09095,0 0.267339,-0.003 z m 1.821765,0.82958 q -0.132291,0.21222 -0.405143,0.6339 -0.07717,0.10749 -0.220486,0.32797 -0.05788,0.10473 -0.05512,0.226 0.159852,-0.15158 0.432704,-0.49609 0.07717,-0.12954 0.140559,-0.339 0.05512,-0.17639 0.107486,-0.35278 z m -1.493792,-0.66146 -0.270095,-0.0882 -0.0083,-0.011 q -0.02481,0 -0.107487,0.011 -0.06615,0.006 -0.107487,0.006 0.272851,0.091 0.311436,0.091 0.02481,0 0.181901,-0.008 z m -0.810286,-1.06384 h -0.03032 l -0.7717,0.3197 q 0.06615,0.0965 0.223242,0.23978 0.07717,0.0138 0.234266,0.0469 z m -0.689018,-0.50161 q -0.341754,0.34727 -0.341754,0.39412 0,0.0799 0.06339,0.30868 h 0.04961 z m 2.235176,3.04547 v -1.27607 l -0.479557,-0.14056 -0.396875,0.0551 z m -1.606791,-1.6757 q -0.256315,-0.1819 -0.457509,-0.22324 0.06615,0.0772 0.20395,0.22324 z m 1.609547,2.04501 v -0.1378 l -0.683507,-1.05007 q 0.05237,0.17639 0.107487,0.35278 0.06339,0.20946 0.14056,0.339 0.0689,0.11851 0.20395,0.25907 0.115755,0.11851 0.23151,0.23702 z m -0.644921,-0.70555 q -0.115756,-0.32798 -0.380339,-1.0418 -0.135047,-0.0662 -0.272851,-0.12954 -0.159852,-0.0716 -0.289388,-0.0716 -0.05237,0 -0.110243,-0.0138 z" />
            </g>
        </g>
        <path d="M5.94669 19.6153V21.9437Q5.94669 21.9719 5.92553 21.993Q5.90436 22.0142 5.87261 22.0142Q5.84086 22.0142 5.81969 21.993Q5.79853 21.9719 5.79853 21.9437V19.7494L5.28347 20.0563Q5.27289 20.0633 5.25525 20.0633Q5.2235 20.0633 5.20057 20.0369Q5.17764 20.0104 5.17764 19.9857Q5.17764 19.954 5.21644 19.9258L5.83381 19.5553Q5.85144 19.5412 5.87614 19.5412Q5.90789 19.5412 5.92729 19.5624Q5.94669 19.5836 5.94669 19.6153ZM6.51114 20.7795Q6.51114 20.4197 6.60286 20.1321Q6.69458 19.8446 6.87979 19.6771Q7.065 19.5095 7.33664 19.5095Q7.60828 19.5095 7.79349 19.6771Q7.97869 19.8446 8.07042 20.1321Q8.16214 20.4197 8.16214 20.7795Q8.16214 21.1393 8.07042 21.4268Q7.97869 21.7143 7.79349 21.8819Q7.60828 22.0495 7.33664 22.0495Q7.065 22.0495 6.87979 21.8819Q6.69458 21.7143 6.60286 21.4268Q6.51114 21.1393 6.51114 20.7795ZM8.01397 20.7795Q8.01397 20.2715 7.83935 19.9646Q7.66472 19.6577 7.33664 19.6577Q7.00856 19.6577 6.83393 19.9646Q6.65931 20.2715 6.65931 20.7795Q6.65931 21.2875 6.83393 21.5944Q7.00856 21.9013 7.33664 21.9013Q7.66472 21.9013 7.83935 21.5944Q8.01397 21.2875 8.01397 20.7795ZM8.58547 20.7795Q8.58547 20.4197 8.67719 20.1321Q8.76892 19.8446 8.95413 19.6771Q9.13933 19.5095 9.41097 19.5095Q9.68261 19.5095 9.86782 19.6771Q10.053 19.8446 10.1448 20.1321Q10.2365 20.4197 10.2365 20.7795Q10.2365 21.1393 10.1448 21.4268Q10.053 21.7143 9.86782 21.8819Q9.68261 22.0495 9.41097 22.0495Q9.13933 22.0495 8.95413 21.8819Q8.76892 21.7143 8.67719 21.4268Q8.58547 21.1393 8.58547 20.7795ZM10.0883 20.7795Q10.0883 20.2715 9.91368 19.9646Q9.73906 19.6577 9.41097 19.6577Q9.08289 19.6577 8.90826 19.9646Q8.73364 20.2715 8.73364 20.7795Q8.73364 21.2875 8.90826 21.5944Q9.08289 21.9013 9.41097 21.9013Q9.73906 21.9013 9.91368 21.5944Q10.0883 21.2875 10.0883 20.7795ZM13.5879 19.6188V21.9401Q13.5843 21.9719 13.5632 21.993Q13.542 22.0142 13.5138 22.0142Q13.4785 22.0142 13.4591 21.993Q13.4397 21.9719 13.4397 21.9401V20.8148H11.9016V21.9401Q11.8981 21.9719 11.8769 21.993Q11.8557 22.0142 11.8275 22.0142Q11.7922 22.0142 11.7728 21.993Q11.7534 21.9719 11.7534 21.9401V19.6188Q11.7534 19.5871 11.7746 19.5659Q11.7958 19.5448 11.8275 19.5448Q11.8593 19.5448 11.8804 19.5659Q11.9016 19.5871 11.9016 19.6188V20.6737H13.4397V19.6188Q13.4397 19.5871 13.4609 19.5659Q13.482 19.5448 13.5138 19.5448Q13.5455 19.5448 13.5667 19.5659Q13.5879 19.5871 13.5879 19.6188ZM15.4294 20.3173 14.3146 21.8802H15.3412Q15.3694 21.8802 15.3906 21.9013Q15.4117 21.9225 15.4117 21.9472Q15.4117 21.9754 15.3906 21.9948Q15.3694 22.0142 15.3412 22.0142H14.1911Q14.1594 22.0142 14.1382 21.9895Q14.117 21.9648 14.117 21.9437Q14.117 21.9225 14.1347 21.8978L15.2494 20.3315H14.2969Q14.2687 20.3315 14.2476 20.3121Q14.2264 20.2927 14.2264 20.2644Q14.2264 20.2362 14.2476 20.2168Q14.2687 20.1974 14.2969 20.1974H15.3764Q15.4047 20.1974 15.4241 20.2186Q15.4435 20.2397 15.447 20.268Q15.447 20.2927 15.4294 20.3173Z" style="stroke:#000000;stroke-width:0.25;stroke-linecap:round;stroke-linejoin:bevel" />
        <path d="M 10.16,30.00 L 5.16,41.00 z L 15.16,41.00 z " style="stroke:#000000;stroke-width:0.1;stroke-linecap:round;stroke-linejoin:bevel;stroke-dasharray:none" />
        <path d="M27.1063 21.2346Q27.1063 21.4709 26.9917 21.6561Q26.877 21.8413 26.683 21.9454Q26.4889 22.0495 26.2632 22.0495Q26.1044 22.0495 25.9615 21.993Q25.8187 21.9366 25.7128 21.8237Q25.6917 21.8025 25.6917 21.7743Q25.6917 21.7461 25.7128 21.7214Q25.734 21.6967 25.7657 21.6967Q25.7975 21.6967 25.8292 21.732Q25.9845 21.9013 26.2632 21.9013Q26.4572 21.9013 26.6159 21.8167Q26.7747 21.732 26.8664 21.5785Q26.9581 21.4251 26.9581 21.2346Q26.9581 21.0194 26.8611 20.8765Q26.7641 20.7336 26.6089 20.6666Q26.4537 20.5996 26.2808 20.5996Q26.2455 20.5996 26.1944 20.6049Q26.1432 20.6102 26.1362 20.6102Q26.1044 20.6102 26.085 20.589Q26.0656 20.5678 26.0656 20.5325Q26.0656 20.5008 26.0832 20.4832L26.7959 19.6859H25.7269Q25.6987 19.6859 25.6776 19.6647Q25.6564 19.6435 25.6564 19.6153Q25.6564 19.5836 25.6776 19.5642Q25.6987 19.5448 25.7269 19.5448H26.9476Q26.9864 19.5448 27.004 19.5712Q27.0216 19.5977 27.0216 19.6188Q27.0216 19.6471 27.0005 19.6682L26.2984 20.4585Q26.3126 20.4549 26.3337 20.4549Q26.5313 20.4549 26.7077 20.5431Q26.8841 20.6313 26.9952 20.8077Q27.1063 20.9841 27.1063 21.2346ZM29.1701 21.9437Q29.1701 21.9754 29.1489 21.9948Q29.1277 22.0142 29.0995 22.0142H27.7378Q27.7025 22.0142 27.676 21.9966Q27.6496 21.9789 27.6496 21.9401Q27.6496 21.919 27.6672 21.8943L28.4962 20.97Q28.7185 20.7336 28.8208 20.5555Q28.9231 20.3773 28.9231 20.2045Q28.9231 19.9399 28.7661 19.7952Q28.6091 19.6506 28.3163 19.6506Q28.1223 19.6506 27.9759 19.737Q27.8295 19.8235 27.766 20.0104Q27.7589 20.0316 27.7431 20.0492Q27.7272 20.0669 27.699 20.0669Q27.6743 20.0669 27.6478 20.0492Q27.6214 20.0316 27.6214 20.0104Q27.6214 19.9928 27.639 19.9469Q27.7201 19.7353 27.9053 19.6224Q28.0906 19.5095 28.3269 19.5095Q28.6832 19.5095 28.8808 19.6965Q29.0783 19.8834 29.0783 20.1903Q29.0783 20.3773 28.976 20.5749Q28.8737 20.7724 28.6127 21.0547L27.893 21.8731H29.0995Q29.1277 21.8731 29.1489 21.8943Q29.1701 21.9154 29.1701 21.9437ZM29.5581 20.7795Q29.5581 20.4197 29.6498 20.1321Q29.7416 19.8446 29.9268 19.6771Q30.112 19.5095 30.3836 19.5095Q30.6552 19.5095 30.8405 19.6771Q31.0257 19.8446 31.1174 20.1321Q31.2091 20.4197 31.2091 20.7795Q31.2091 21.1393 31.1174 21.4268Q31.0257 21.7143 30.8405 21.8819Q30.6552 22.0495 30.3836 22.0495Q30.112 22.0495 29.9268 21.8819Q29.7416 21.7143 29.6498 21.4268Q29.5581 21.1393 29.5581 20.7795ZM31.0609 20.7795Q31.0609 20.2715 30.8863 19.9646Q30.7117 19.6577 30.3836 19.6577Q30.0555 19.6577 29.8809 19.9646Q29.7063 20.2715 29.7063 20.7795Q29.7063 21.2875 29.8809 21.5944Q30.0555 21.9013 30.3836 21.9013Q30.7117 21.9013 30.8863 21.5944Q31.0609 21.2875 31.0609 20.7795ZM34.5605 19.6188V21.9401Q34.557 21.9719 34.5358 21.993Q34.5146 22.0142 34.4864 22.0142Q34.4511 22.0142 34.4317 21.993Q34.4123 21.9719 34.4123 21.9401V20.8148H32.8742V21.9401Q32.8707 21.9719 32.8495 21.993Q32.8284 22.0142 32.8001 22.0142Q32.7649 22.0142 32.7455 21.993Q32.7261 21.9719 32.7261 21.9401V19.6188Q32.7261 19.5871 32.7472 19.5659Q32.7684 19.5448 32.8001 19.5448Q32.8319 19.5448 32.8531 19.5659Q32.8742 19.5871 32.8742 19.6188V20.6737H34.4123V19.6188Q34.4123 19.5871 34.4335 19.5659Q34.4547 19.5448 34.4864 19.5448Q34.5182 19.5448 34.5393 19.5659Q34.5605 19.5871 34.5605 19.6188ZM36.402 20.3173 35.2872 21.8802H36.3138Q36.342 21.8802 36.3632 21.9013Q36.3844 21.9225 36.3844 21.9472Q36.3844 21.9754 36.3632 21.9948Q36.342 22.0142 36.3138 22.0142H35.1637Q35.132 22.0142 35.1108 21.9895Q35.0897 21.9648 35.0897 21.9437Q35.0897 21.9225 35.1073 21.8978L36.2221 20.3315H35.2696Q35.2414 20.3315 35.2202 20.3121Q35.199 20.2927 35.199 20.2644Q35.199 20.2362 35.2202 20.2168Q35.2414 20.1974 35.2696 20.1974H36.3491Q36.3773 20.1974 36.3967 20.2186Q36.4161 20.2397 36.4196 20.268Q36.4196 20.2927 36.402 20.3173Z" style="stroke:#000000;stroke-width:0.25;stroke-linecap:round;stroke-linejoin:bevel" />
        <path d="M 30.48,30.00 L 25.48,41.00 z L 35.48,41.00 z " style="stroke:#000000;stroke-width:0.1;stroke-linecap:round;stroke-linejoin:bevel;stroke-dasharray:none" />
        <path d="M46.5867 19.6153V21.9437Q46.5867 21.9719 46.5655 21.993Q46.5444 22.0142 46.5126 22.0142Q46.4809 22.0142 46.4597 21.993Q46.4385 21.9719 46.4385 21.9437V19.7494L45.9235 20.0563Q45.9129 20.0633 45.8952 20.0633Q45.8635 20.0633 45.8406 20.0369Q45.8176 20.0104 45.8176 19.9857Q45.8176 19.954 45.8564 19.9258L46.4738 19.5553Q46.4914 19.5412 46.5161 19.5412Q46.5479 19.5412 46.5673 19.5624Q46.5867 19.5836 46.5867 19.6153ZM49.5888 21.9437Q49.5888 21.9754 49.5624 21.9948Q49.5359 22.0142 49.5183 22.0142Q49.4901 22.0142 49.4654 21.9895L48.6399 21.1111L48.3435 21.358V21.9437Q48.3435 21.9719 48.3241 21.993Q48.3047 22.0142 48.273 22.0142Q48.2412 22.0142 48.2218 21.993Q48.2024 21.9719 48.2024 21.9437V19.4742Q48.2024 19.446 48.2218 19.4248Q48.2412 19.4037 48.273 19.4037Q48.3047 19.4037 48.3241 19.4248Q48.3435 19.446 48.3435 19.4742V21.1817L49.4513 20.2538Q49.4724 20.2327 49.4971 20.2327Q49.5253 20.2327 49.5465 20.2538Q49.5677 20.275 49.5677 20.3068Q49.5677 20.3385 49.543 20.3597L48.7492 21.0194L49.5677 21.8907Q49.5888 21.9119 49.5888 21.9437ZM51.9278 19.6188V21.9401Q51.9242 21.9719 51.9031 21.993Q51.8819 22.0142 51.8537 22.0142Q51.8184 22.0142 51.799 21.993Q51.7796 21.9719 51.7796 21.9401V20.8148H50.2415V21.9401Q50.2379 21.9719 50.2168 21.993Q50.1956 22.0142 50.1674 22.0142Q50.1321 22.0142 50.1127 21.993Q50.0933 21.9719 50.0933 21.9401V19.6188Q50.0933 19.5871 50.1145 19.5659Q50.1356 19.5448 50.1674 19.5448Q50.1991 19.5448 50.2203 19.5659Q50.2415 19.5871 50.2415 19.6188V20.6737H51.7796V19.6188Q51.7796 19.5871 51.8008 19.5659Q51.8219 19.5448 51.8537 19.5448Q51.8854 19.5448 51.9066 19.5659Q51.9278 19.5871 51.9278 19.6188ZM53.7692 20.3173 52.6545 21.8802H53.6811Q53.7093 21.8802 53.7304 21.9013Q53.7516 21.9225 53.7516 21.9472Q53.7516 21.9754 53.7304 21.9948Q53.7093 22.0142 53.6811 22.0142H52.531Q52.4992 22.0142 52.4781 21.9895Q52.4569 21.9648 52.4569 21.9437Q52.4569 21.9225 52.4746 21.8978L53.5893 20.3315H52.6368Q52.6086 20.3315 52.5874 20.3121Q52.5663 20.2927 52.5663 20.2644Q52.5663 20.2362 52.5874 20.2168Q52.6086 20.1974 52.6368 20.1974H53.7163Q53.7446 20.1974 53.764 20.2186Q53.7834 20.2397 53.7869 20.268Q53.7869 20.2927 53.7692 20.3173Z" style="stroke:#000000;stroke-width:0.25;stroke-linecap:round;stroke-linejoin:bevel" />
        <path d="M 50.80,30.00 L 45.80,41.00 z L 55.80,41.00 z " style="stroke:#000000;stroke-width:0.1;stroke-linecap:round;stroke-linejoin:bevel;stroke-dasharray:none" />
        <path d="M67.7463 21.2346Q67.7463 21.4709 67.6317 21.6561Q67.517 21.8413 67.323 21.9454Q67.1289 22.0495 66.9032 22.0495Q66.7444 22.0495 66.6015 21.993Q66.4587 21.9366 66.3528 21.8237Q66.3317 21.8025 66.3317 21.7743Q66.3317 21.7461 66.3528 21.7214Q66.374 21.6967 66.4057 21.6967Q66.4375 21.6967 66.4692 21.732Q66.6245 21.9013 66.9032 21.9013Q67.0972 21.9013 67.2559 21.8167Q67.4147 21.732 67.5064 21.5785Q67.5981 21.4251 67.5981 21.2346Q67.5981 21.0194 67.5011 20.8765Q67.4041 20.7336 67.2489 20.6666Q67.0937 20.5996 66.9208 20.5996Q66.8855 20.5996 66.8344 20.6049Q66.7832 20.6102 66.7762 20.6102Q66.7444 20.6102 66.725 20.589Q66.7056 20.5678 66.7056 20.5325Q66.7056 20.5008 66.7232 20.4832L67.4359 19.6859H66.3669Q66.3387 19.6859 66.3176 19.6647Q66.2964 19.6435 66.2964 19.6153Q66.2964 19.5836 66.3176 19.5642Q66.3387 19.5448 66.3669 19.5448H67.5876Q67.6264 19.5448 67.644 19.5712Q67.6616 19.5977 67.6616 19.6188Q67.6616 19.6471 67.6405 19.6682L66.9384 20.4585Q66.9526 20.4549 66.9737 20.4549Q67.1713 20.4549 67.3477 20.5431Q67.5241 20.6313 67.6352 20.8077Q67.7463 20.9841 67.7463 21.2346ZM68.1273 21.9048V21.8237Q68.1273 21.7743 68.152 21.7443Q68.1767 21.7143 68.2226 21.7143H68.2367Q68.2825 21.7143 68.3072 21.7443Q68.3319 21.7743 68.3319 21.8237V21.9048Q68.3319 21.9542 68.3072 21.9842Q68.2825 22.0142 68.2367 22.0142H68.2226Q68.1767 22.0142 68.152 21.9842Q68.1273 21.9542 68.1273 21.9048ZM70.3674 21.9437Q70.3674 21.9754 70.3463 21.9948Q70.3251 22.0142 70.2969 22.0142H68.9352Q68.8999 22.0142 68.8734 21.9966Q68.847 21.9789 68.847 21.9401Q68.847 21.919 68.8646 21.8943L69.6936 20.97Q69.9159 20.7336 70.0182 20.5555Q70.1205 20.3773 70.1205 20.2045Q70.1205 19.9399 69.9635 19.7952Q69.8065 19.6506 69.5137 19.6506Q69.3197 19.6506 69.1733 19.737Q69.0269 19.8235 68.9634 20.0104Q68.9563 20.0316 68.9405 20.0492Q68.9246 20.0669 68.8964 20.0669Q68.8717 20.0669 68.8452 20.0492Q68.8187 20.0316 68.8187 20.0104Q68.8187 19.9928 68.8364 19.9469Q68.9175 19.7353 69.1027 19.6224Q69.2879 19.5095 69.5243 19.5095Q69.8806 19.5095 70.0782 19.6965Q70.2757 19.8834 70.2757 20.1903Q70.2757 20.3773 70.1734 20.5749Q70.0711 20.7724 69.8101 21.0547L69.0904 21.8731H70.2969Q70.3251 21.8731 70.3463 21.8943Q70.3674 21.9154 70.3674 21.9437ZM73.1932 21.9437Q73.1932 21.9754 73.1667 21.9948Q73.1403 22.0142 73.1226 22.0142Q73.0944 22.0142 73.0697 21.9895L72.2442 21.1111L71.9479 21.358V21.9437Q71.9479 21.9719 71.9285 21.993Q71.9091 22.0142 71.8773 22.0142Q71.8456 22.0142 71.8262 21.993Q71.8068 21.9719 71.8068 21.9437V19.4742Q71.8068 19.446 71.8262 19.4248Q71.8456 19.4037 71.8773 19.4037Q71.9091 19.4037 71.9285 19.4248Q71.9479 19.446 71.9479 19.4742V21.1817L73.0556 20.2538Q73.0768 20.2327 73.1015 20.2327Q73.1297 20.2327 73.1509 20.2538Q73.172 20.275 73.172 20.3068Q73.172 20.3385 73.1473 20.3597L72.3536 21.0194L73.172 21.8907Q73.1932 21.9119 73.1932 21.9437ZM75.5321 19.6188V21.9401Q75.5286 21.9719 75.5074 21.993Q75.4862 22.0142 75.458 22.0142Q75.4227 22.0142 75.4033 21.993Q75.3839 21.9719 75.3839 21.9401V20.8148H73.8458V21.9401Q73.8423 21.9719 73.8211 21.993Q73.8 22.0142 73.7717 22.0142Q73.7365 22.0142 73.7171 21.993Q73.6977 21.9719 73.6977 21.9401V19.6188Q73.6977 19.5871 73.7188 19.5659Q73.74 19.5448 73.7717 19.5448Q73.8035 19.5448 73.8247 19.5659Q73.8458 19.5871 73.8458 19.6188V20.6737H75.3839V19.6188Q75.3839 19.5871 75.4051 19.5659Q75.4263 19.5448 75.458 19.5448Q75.4898 19.5448 75.5109 19.5659Q75.5321 19.5871 75.5321 19.6188ZM77.3736 20.3173 76.2588 21.8802H77.2854Q77.3136 21.8802 77.3348 21.9013Q77.356 21.9225 77.356 21.9472Q77.356 21.9754 77.3348 21.9948Q77.3136 22.0142 77.2854 22.0142H76.1354Q76.1036 22.0142 76.0824 21.9895Q76.0613 21.9648 76.0613 21.9437Q76.0613 21.9225 76.0789 21.8978L77.1937 20.3315H76.2412Q76.213 20.3315 76.1918 20.3121Q76.1706 20.2927 76.1706 20.2644Q76.1706 20.2362 76.1918 20.2168Q76.213 20.1974 76.2412 20.1974H77.3207Q77.3489 20.1974 77.3683 20.2186Q77.3877 20.2397 77.3912 20.268Q77.3912 20.2927 77.3736 20.3173Z" style="stroke:#000000;stroke-width:0.25;stroke-linecap:round;stroke-linejoin:bevel" />
        <path d="M 71.12,30.00 L 66.12,41.00 z L 76.12,41.00 z " style="stroke:#000000;stroke-width:0.1;stroke-linecap:round;stroke-linejoin:bevel;stroke-dasharray:none" />
        <path d="M87.2267 19.6153V21.9437Q87.2267 21.9719 87.2055 21.993Q87.1844 22.0142 87.1526 22.0142Q87.1209 22.0142 87.0997 21.993Q87.0785 21.9719 87.0785 21.9437V19.7494L86.5635 20.0563Q86.5529 20.0633 86.5352 20.0633Q86.5035 20.0633 86.4806 20.0369Q86.4576 20.0104 86.4576 19.9857Q86.4576 19.954 86.4964 19.9258L87.1138 19.5553Q87.1314 19.5412 87.1561 19.5412Q87.1879 19.5412 87.2073 19.5624Q87.2267 19.5836 87.2267 19.6153ZM87.7911 20.7795Q87.7911 20.4197 87.8829 20.1321Q87.9746 19.8446 88.1598 19.6771Q88.345 19.5095 88.6166 19.5095Q88.8883 19.5095 89.0735 19.6771Q89.2587 19.8446 89.3504 20.1321Q89.4421 20.4197 89.4421 20.7795Q89.4421 21.1393 89.3504 21.4268Q89.2587 21.7143 89.0735 21.8819Q88.8883 22.0495 88.6166 22.0495Q88.345 22.0495 88.1598 21.8819Q87.9746 21.7143 87.8829 21.4268Q87.7911 21.1393 87.7911 20.7795ZM89.294 20.7795Q89.294 20.2715 89.1193 19.9646Q88.9447 19.6577 88.6166 19.6577Q88.2886 19.6577 88.1139 19.9646Q87.9393 20.2715 87.9393 20.7795Q87.9393 21.2875 88.1139 21.5944Q88.2886 21.9013 88.6166 21.9013Q88.9447 21.9013 89.1193 21.5944Q89.294 21.2875 89.294 20.7795ZM92.3032 21.9437Q92.3032 21.9754 92.2767 21.9948Q92.2502 22.0142 92.2326 22.0142Q92.2044 22.0142 92.1797 21.9895L91.3542 21.1111L91.0579 21.358V21.9437Q91.0579 21.9719 91.0385 21.993Q91.0191 22.0142 90.9873 22.0142Q90.9556 22.0142 90.9362 21.993Q90.9167 21.9719 90.9167 21.9437V19.4742Q90.9167 19.446 90.9362 19.4248Q90.9556 19.4037 90.9873 19.4037Q91.0191 19.4037 91.0385 19.4248Q91.0579 19.446 91.0579 19.4742V21.1817L92.1656 20.2538Q92.1867 20.2327 92.2114 20.2327Q92.2397 20.2327 92.2608 20.2538Q92.282 20.275 92.282 20.3068Q92.282 20.3385 92.2573 20.3597L91.4636 21.0194L92.282 21.8907Q92.3032 21.9119 92.3032 21.9437ZM94.6421 19.6188V21.9401Q94.6386 21.9719 94.6174 21.993Q94.5962 22.0142 94.568 22.0142Q94.5327 22.0142 94.5133 21.993Q94.4939 21.9719 94.4939 21.9401V20.8148H92.9558V21.9401Q92.9523 21.9719 92.9311 21.993Q92.9099 22.0142 92.8817 22.0142Q92.8464 22.0142 92.827 21.993Q92.8076 21.9719 92.8076 21.9401V19.6188Q92.8076 19.5871 92.8288 19.5659Q92.85 19.5448 92.8817 19.5448Q92.9135 19.5448 92.9346 19.5659Q92.9558 19.5871 92.9558 19.6188V20.6737H94.4939V19.6188Q94.4939 19.5871 94.5151 19.5659Q94.5362 19.5448 94.568 19.5448Q94.5997 19.5448 94.6209 19.5659Q94.6421 19.5871 94.6421 19.6188ZM96.4836 20.3173 95.3688 21.8802H96.3954Q96.4236 21.8802 96.4448 21.9013Q96.4659 21.9225 96.4659 21.9472Q96.4659 21.9754 96.4448 21.9948Q96.4236 22.0142 96.3954 22.0142H95.2453Q95.2136 22.0142 95.1924 21.9895Q95.1713 21.9648 95.1713 21.9437Q95.1713 21.9225 95.1889 21.8978L96.3037 20.3315H95.3512Q95.3229 20.3315 95.3018 20.3121Q95.2806 20.2927 95.2806 20.2644Q95.2806 20.2362 95.3018 20.2168Q95.3229 20.1974 95.3512 20.1974H96.4307Q96.4589 20.1974 96.4783 20.2186Q96.4977 20.2397 96.5012 20.268Q96.5012 20.2927 96.4836 20.3173Z" style="stroke:#000000;stroke-width:0.25;stroke-linecap:round;stroke-linejoin:bevel" />
        <path d="M 91.44,30.00 L 86.44,41.00 z L 96.44,41.00 z " style="stroke:#000000;stroke-width:0.1;stroke-linecap:round;stroke-linejoin:bevel;stroke-dasharray:none" />
    </g>
</svg>
