<?xml version="1.0" encoding="utf-8"?>
<svg xmlns="http://www.w3.org/2000/svg" width="127.00mm" height="128.50mm" viewBox="0 0 127.00 128.50">
    <g id="PanelLayer">
        <g id="ControlLayer" style="display:none;">
            <circle id="center_4_cv" cx="10" cy="23" r="1" />
            <circle id="center_4_atten" cx="18" cy="23" r="1" />
            <circle id="center_4_knob" cx="26" cy="23" r="1" />
            <circle id="center_3_cv" cx="10" cy="37" r="1" />
            <circle id="center_3_atten" cx="18" cy="37" r="1" />
            <circle id="center_3_knob" cx="26" cy="37" r="1" />
            <circle id="center_2_cv" cx="10" cy="51" r="1" />
            <circle id="center_2_atten" cx="18" cy="51" r="1" />
            <circle id="center_2_knob" cx="26" cy="51" r="1" />
            <circle id="center_1_cv" cx="10" cy="65" r="1" />
            <circle id="center_1_atten" cx="18" cy="65" r="1" />
            <circle id="center_1_knob" cx="26" cy="65" r="1" />
            <circle id="center_0_cv" cx="10" cy="79" r="1" />
            <circle id="center_0_atten" cx="18" cy="79" r="1" />
            <circle id="center_0_knob" cx="26" cy="79" r="1" />
            <circle id="level_4_cv" cx="40.3333" cy="23" r="1" />
            <circle id="level_4_atten" cx="48.3333" cy="23" r="1" />
            <circle id="level_4_knob" cx="56.3333" cy="23" r="1" />
            <circle id="level_3_cv" cx="40.3333" cy="37" r="1" />
            <circle id="level_3_atten" cx="48.3333" cy="37" r="1" />
            <circle id="level_3_knob" cx="56.3333" cy="37" r="1" />
            <circle id="level_2_cv" cx="40.3333" cy="51" r="1" />
            <circle id="level_2_atten" cx="48.3333" cy="51" r="1" />
            <circle id="level_2_knob" cx="56.3333" cy="51" r="1" />
            <circle id="level_1_cv" cx="40.3333" cy="65" r="1" />
            <circle id="level_1_atten" cx="48.3333" cy="65" r="1" />
            <circle id="level_1_knob" cx="56.3333" cy="65" r="1" />
            <circle id="level_0_cv" cx="40.3333" cy="79" r="1" />
            <circle id="level_0_atten" cx="48.3333" cy="79" r="1" />
            <circle id="level_0_knob" cx="56.3333" cy="79" r="1" />
            <circle id="dispersion_4_cv" cx="70.6667" cy="23" r="1" />
            <circle id="dispersion_4_atten" cx="78.6667" cy="23" r="1" />
            <circle id="dispersion_4_knob" cx="86.6667" cy="23" r="1" />
            <circle id="dispersion_3_cv" cx="70.6667" cy="37" r="1" />
            <circle id="dispersion_3_atten" cx="78.6667" cy="37" r="1" />
            <circle id="dispersion_3_knob" cx="86.6667" cy="37" r="1" />
            <circle id="dispersion_2_cv" cx="70.6667" cy="51" r="1" />
            <circle id="dispersion_2_atten" cx="78.6667" cy="51" r="1" />
            <circle id="dispersion_2_knob" cx="86.6667" cy="51" r="1" />
            <circle id="dispersion_1_cv" cx="70.6667" cy="65" r="1" />
            <circle id="dispersion_1_atten" cx="78.6667" cy="65" r="1" />
            <circle id="dispersion_1_knob" cx="86.6667" cy="65" r="1" />
            <circle id="dispersion_0_cv" cx="70.6667" cy="79" r="1" />
            <circle id="dispersion_0_atten" cx="78.6667" cy="79" r="1" />
            <circle id="dispersion_0_knob" cx="86.6667" cy="79" r="1" />
            <circle id="bandwidth_4_cv" cx="101" cy="23" r="1" />
            <circle id="bandwidth_4_atten" cx="109" cy="23" r="1" />
            <circle id="bandwidth_4_knob" cx="117" cy="23" r="1" />
            <circle id="bandwidth_3_cv" cx="101" cy="37" r="1" />
            <circle id="bandwidth_3_atten" cx="109" cy="37" r="1" />
            <circle id="bandwidth_3_knob" cx="117" cy="37" r="1" />
            <circle id="bandwidth_2_cv" cx="101" cy="51" r="1" />
            <circle id="bandwidth_2_atten" cx="109" cy="51" r="1" />
            <circle id="bandwidth_2_knob" cx="117" cy="51" r="1" />
            <circle id="bandwidth_1_cv" cx="101" cy="65" r="1" />
            <circle id="bandwidth_1_atten" cx="109" cy="65" r="1" />
            <circle id="bandwidth_1_knob" cx="117" cy="65" r="1" />
            <circle id="bandwidth_0_cv" cx="101" cy="79" r="1" />
            <circle id="bandwidth_0_atten" cx="109" cy="79" r="1" />
            <circle id="bandwidth_0_knob" cx="117" cy="79" r="1" />
            <circle id="audio_input" cx="18" cy="107" r="1" />
            <circle id="audio_output" cx="109" cy="107" r="1" />
        </g>
        <rect id="border_rect" width="127" height="128.5" x="0" y="0" style="display:inline;fill:#4f8df2;fill-opacity:1;fill-rule:nonzero;stroke:#5021d4;stroke-width:0.7;stroke-linecap:round;stroke-linejoin:round;stroke-dasharray:none;stroke-opacity:1;image-rendering:auto" />
        <path id="model_name" d="M50.8921 7.38291Q50.8921 7.32858 50.9542 7.28201Q50.993 7.24321 51.0473 7.24321Q51.1249 7.24321 51.1715 7.3053Q51.6216 7.94947 52.4288 7.94947Q52.8401 7.94947 53.1506 7.7438Q53.461 7.53813 53.461 7.18888Q53.461 6.83187 53.1894 6.65336Q52.9177 6.47486 52.4443 6.35844Q51.8156 6.20322 51.4548 5.94322Q51.0939 5.68323 51.0939 5.2098Q51.0939 4.75189 51.4586 4.45309Q51.8234 4.15429 52.3977 4.15429Q52.7159 4.15429 53.0303 4.27846Q53.3446 4.40264 53.6007 4.67428Q53.655 4.72085 53.655 4.78294Q53.655 4.85279 53.6007 4.90711Q53.5386 4.93816 53.4998 4.93816Q53.4455 4.93816 53.4067 4.89159Q53.0031 4.44921 52.3667 4.44921Q51.9553 4.44921 51.6721 4.651Q51.3888 4.85279 51.3888 5.2098Q51.4121 5.54352 51.6954 5.72591Q51.9786 5.9083 52.5297 6.048Q52.9255 6.14889 53.1855 6.26919Q53.4455 6.38949 53.6007 6.6068Q53.7559 6.82411 53.7559 7.17336Q53.7559 7.66231 53.3795 7.94559Q53.0031 8.22887 52.3977 8.22887Q51.513 8.22887 50.9464 7.53037Q50.8921 7.445 50.8921 7.38291ZM58.3738 6.21098Q58.3738 6.76978 58.1371 7.22381Q57.9004 7.67783 57.489 7.93783Q57.0777 8.19782 56.5732 8.19782Q56.1075 8.19782 55.7195 7.96499Q55.3314 7.73216 55.0831 7.3053V9.54826Q55.0831 9.61035 55.0404 9.65691Q54.9977 9.70348 54.9279 9.70348Q54.8658 9.70348 54.8192 9.65691Q54.7726 9.61035 54.7726 9.54826V4.38712Q54.7726 4.32503 54.8153 4.27846Q54.858 4.2319 54.9279 4.2319Q54.9977 4.2319 55.0404 4.27846Q55.0831 4.32503 55.0831 4.38712V5.10114Q55.3159 4.65876 55.704 4.44533Q56.092 4.2319 56.5732 4.2319Q57.0854 4.2319 57.4968 4.48801Q57.9081 4.74413 58.141 5.19428Q58.3738 5.64442 58.3738 6.21098ZM58.0633 6.21098Q58.0633 5.72979 57.8654 5.34562Q57.6675 4.96144 57.326 4.74413Q56.9845 4.52682 56.5577 4.52682Q56.1231 4.52682 55.7777 4.74025Q55.4323 4.95368 55.2422 5.33786Q55.052 5.72203 55.052 6.21098Q55.052 6.69993 55.2422 7.08411Q55.4323 7.46828 55.7777 7.68559Q56.1231 7.9029 56.5577 7.9029Q56.9845 7.9029 57.326 7.68559Q57.6675 7.46828 57.8654 7.08022Q58.0633 6.69217 58.0633 6.21098ZM62.72 4.43369V7.99604Q62.72 8.05812 62.6734 8.10469Q62.6269 8.15126 62.5648 8.15126Q62.4949 8.15126 62.4522 8.10469Q62.4096 8.05812 62.4096 7.99604V7.29754Q62.2155 7.69335 61.812 7.96111Q61.4084 8.22887 60.9194 8.22887Q60.4072 8.22887 59.9959 7.96111Q59.5845 7.69335 59.3517 7.22381Q59.1189 6.75426 59.1189 6.17217Q59.1189 5.59785 59.3556 5.13607Q59.5923 4.67428 60.0036 4.41428Q60.415 4.15429 60.9194 4.15429Q61.4239 4.15429 61.8275 4.41816Q62.2311 4.68204 62.4096 5.12443V4.43369Q62.4096 4.3716 62.4522 4.32503Q62.4949 4.27846 62.5648 4.27846Q62.6346 4.27846 62.6773 4.32503Q62.72 4.3716 62.72 4.43369ZM62.4406 6.17217Q62.4406 5.69875 62.2466 5.30293Q62.0526 4.90711 61.7072 4.67816Q61.3618 4.44921 60.935 4.44921Q60.5081 4.44921 60.1627 4.6704Q59.8174 4.89159 59.6233 5.28353Q59.4293 5.67546 59.4293 6.17217Q59.4293 6.66889 59.6233 7.07246Q59.8174 7.47604 60.1588 7.70499Q60.5003 7.93395 60.935 7.93395Q61.3618 7.93395 61.7072 7.70499Q62.0526 7.47604 62.2466 7.07246Q62.4406 6.66889 62.4406 6.17217ZM65.5994 4.39488Q65.5994 4.45697 65.5567 4.49966Q65.514 4.54234 65.4519 4.54234H64.5982V7.3053Q64.5982 7.64679 64.7185 7.75932Q64.8388 7.87186 65.0251 7.87186Q65.0561 7.87186 65.1143 7.85634Q65.1725 7.84081 65.2113 7.84081Q65.2657 7.84081 65.3045 7.8835Q65.3433 7.92619 65.3433 7.98051Q65.3433 8.05036 65.2501 8.10081Q65.157 8.15126 65.0328 8.15126Q64.8388 8.15126 64.7069 8.12409Q64.5749 8.09693 64.4313 7.91454Q64.2878 7.73216 64.2878 7.32082V4.54234H63.6513Q63.597 4.54234 63.5504 4.49578Q63.5039 4.44921 63.5039 4.39488Q63.5039 4.33279 63.5466 4.29011Q63.5893 4.24742 63.6513 4.24742H64.2878V3.26176Q64.2878 3.19967 64.3343 3.1531Q64.3809 3.10654 64.443 3.10654Q64.5128 3.10654 64.5555 3.1531Q64.5982 3.19967 64.5982 3.26176V4.24742H65.4519Q65.5062 4.24742 65.5528 4.29399Q65.5994 4.34055 65.5994 4.39488ZM69.542 4.43369V6.69217Q69.542 7.42948 69.1268 7.81365Q68.7116 8.19782 67.9976 8.19782Q67.2835 8.19782 66.8722 7.81365Q66.4609 7.42948 66.4609 6.69217V4.43369Q66.4609 4.3716 66.5074 4.32503Q66.554 4.27846 66.6161 4.27846Q66.6859 4.27846 66.7286 4.32503Q66.7713 4.3716 66.7713 4.43369V6.69217Q66.7713 7.27425 67.0973 7.58858Q67.4232 7.9029 67.9976 7.9029Q68.5796 7.9029 68.9056 7.58858Q69.2316 7.27425 69.2316 6.69217V4.43369Q69.2316 4.3716 69.2743 4.32503Q69.317 4.27846 69.3868 4.27846Q69.4567 4.27846 69.4993 4.32503Q69.542 4.3716 69.542 4.43369ZM71.0244 8.15126Q70.9545 8.15126 70.9119 8.10469Q70.8692 8.05812 70.8692 7.99604V2.56326Q70.8692 2.50117 70.9157 2.4546Q70.9623 2.40804 71.0244 2.40804Q71.0942 2.40804 71.1369 2.4546Q71.1796 2.50117 71.1796 2.56326V7.99604Q71.1796 8.05812 71.1331 8.10469Q71.0865 8.15126 71.0244 8.15126ZM75.8363 4.43369V7.99604Q75.8363 8.05812 75.7897 8.10469Q75.7432 8.15126 75.6811 8.15126Q75.6112 8.15126 75.5685 8.10469Q75.5258 8.05812 75.5258 7.99604V7.29754Q75.3318 7.69335 74.9282 7.96111Q74.5247 8.22887 74.0357 8.22887Q73.5235 8.22887 73.1121 7.96111Q72.7008 7.69335 72.468 7.22381Q72.2351 6.75426 72.2351 6.17217Q72.2351 5.59785 72.4718 5.13607Q72.7086 4.67428 73.1199 4.41428Q73.5312 4.15429 74.0357 4.15429Q74.5402 4.15429 74.9438 4.41816Q75.3473 4.68204 75.5258 5.12443V4.43369Q75.5258 4.3716 75.5685 4.32503Q75.6112 4.27846 75.6811 4.27846Q75.7509 4.27846 75.7936 4.32503Q75.8363 4.3716 75.8363 4.43369ZM75.5569 6.17217Q75.5569 5.69875 75.3629 5.30293Q75.1688 4.90711 74.8235 4.67816Q74.4781 4.44921 74.0512 4.44921Q73.6244 4.44921 73.279 4.6704Q72.9336 4.89159 72.7396 5.28353Q72.5456 5.67546 72.5456 6.17217Q72.5456 6.66889 72.7396 7.07246Q72.9336 7.47604 73.2751 7.70499Q73.6166 7.93395 74.0512 7.93395Q74.4781 7.93395 74.8235 7.70499Q75.1688 7.47604 75.3629 7.07246Q75.5569 6.66889 75.5569 6.17217Z" style="display:inline;stroke:#000000;stroke-width:0.35;stroke-linecap:round;stroke-linejoin:bevel" />
        <g id="sapphire_insignia">
            <path id="brand_name" d="M48.6064 124.775Q48.6064 124.721 48.6685 124.674Q48.7073 124.636 48.7617 124.636Q48.8393 124.636 48.8858 124.698Q49.336 125.342 50.1431 125.342Q50.5545 125.342 50.8649 125.136Q51.1754 124.93 51.1754 124.581Q51.1754 124.224 50.9037 124.046Q50.6321 123.867 50.1587 123.751Q49.53 123.596 49.1691 123.336Q48.8082 123.076 48.8082 122.602Q48.8082 122.144 49.173 121.845Q49.5378 121.547 50.1121 121.547Q50.4303 121.547 50.7446 121.671Q51.0589 121.795 51.3151 122.067Q51.3694 122.113 51.3694 122.175Q51.3694 122.245 51.3151 122.299Q51.253 122.331 51.2142 122.331Q51.1598 122.331 51.121 122.284Q50.7174 121.842 50.081 121.842Q49.6697 121.842 49.3864 122.043Q49.1031 122.245 49.1031 122.602Q49.1264 122.936 49.4097 123.118Q49.693 123.301 50.244 123.44Q50.6398 123.541 50.8998 123.662Q51.1598 123.782 51.3151 123.999Q51.4703 124.216 51.4703 124.566Q51.4703 125.055 51.0939 125.338Q50.7174 125.621 50.1121 125.621Q49.2273 125.621 48.6608 124.923Q48.6064 124.837 48.6064 124.775ZM55.8165 121.826V125.388Q55.8165 125.45 55.7699 125.497Q55.7234 125.544 55.6613 125.544Q55.5914 125.544 55.5487 125.497Q55.5061 125.45 55.5061 125.388V124.69Q55.312 125.086 54.9085 125.353Q54.5049 125.621 54.0159 125.621Q53.5037 125.621 53.0923 125.353Q52.681 125.086 52.4482 124.616Q52.2153 124.147 52.2153 123.565Q52.2153 122.99 52.4521 122.528Q52.6888 122.067 53.1001 121.807Q53.5114 121.547 54.0159 121.547Q54.5204 121.547 54.924 121.811Q55.3276 122.074 55.5061 122.517V121.826Q55.5061 121.764 55.5487 121.717Q55.5914 121.671 55.6613 121.671Q55.7311 121.671 55.7738 121.717Q55.8165 121.764 55.8165 121.826ZM55.5371 123.565Q55.5371 123.091 55.3431 122.695Q55.149 122.299 54.8037 122.071Q54.4583 121.842 54.0314 121.842Q53.6046 121.842 53.2592 122.063Q52.9138 122.284 52.7198 122.676Q52.5258 123.068 52.5258 123.565Q52.5258 124.061 52.7198 124.465Q52.9138 124.868 53.2553 125.097Q53.5968 125.326 54.0314 125.326Q54.4583 125.326 54.8037 125.097Q55.149 124.868 55.3431 124.465Q55.5371 124.061 55.5371 123.565ZM60.706 123.603Q60.706 124.162 60.4693 124.616Q60.2326 125.07 59.8212 125.33Q59.4099 125.59 58.9054 125.59Q58.4398 125.59 58.0517 125.357Q57.6636 125.125 57.4153 124.698V126.941Q57.4153 127.003 57.3726 127.049Q57.3299 127.096 57.2601 127.096Q57.198 127.096 57.1514 127.049Q57.1048 127.003 57.1048 126.941V121.779Q57.1048 121.717 57.1475 121.671Q57.1902 121.624 57.2601 121.624Q57.3299 121.624 57.3726 121.671Q57.4153 121.717 57.4153 121.779V122.493Q57.6481 122.051 58.0362 121.838Q58.4242 121.624 58.9054 121.624Q59.4177 121.624 59.829 121.88Q60.2403 122.136 60.4732 122.587Q60.706 123.037 60.706 123.603ZM60.3956 123.603Q60.3956 123.122 60.1976 122.738Q59.9997 122.354 59.6582 122.136Q59.3168 121.919 58.8899 121.919Q58.4553 121.919 58.1099 122.133Q57.7645 122.346 57.5744 122.73Q57.3842 123.114 57.3842 123.603Q57.3842 124.092 57.5744 124.476Q57.7645 124.861 58.1099 125.078Q58.4553 125.295 58.8899 125.295Q59.3168 125.295 59.6582 125.078Q59.9997 124.861 60.1976 124.473Q60.3956 124.085 60.3956 123.603ZM65.3239 123.603Q65.3239 124.162 65.0871 124.616Q64.8504 125.07 64.4391 125.33Q64.0278 125.59 63.5233 125.59Q63.0576 125.59 62.6696 125.357Q62.2815 125.125 62.0331 124.698V126.941Q62.0331 127.003 61.9905 127.049Q61.9478 127.096 61.8779 127.096Q61.8158 127.096 61.7693 127.049Q61.7227 127.003 61.7227 126.941V121.779Q61.7227 121.717 61.7654 121.671Q61.8081 121.624 61.8779 121.624Q61.9478 121.624 61.9905 121.671Q62.0331 121.717 62.0331 121.779V122.493Q62.266 122.051 62.654 121.838Q63.0421 121.624 63.5233 121.624Q64.0355 121.624 64.4469 121.88Q64.8582 122.136 65.091 122.587Q65.3239 123.037 65.3239 123.603ZM65.0134 123.603Q65.0134 123.122 64.8155 122.738Q64.6176 122.354 64.2761 122.136Q63.9346 121.919 63.5078 121.919Q63.0731 121.919 62.7278 122.133Q62.3824 122.346 62.1923 122.73Q62.0021 123.114 62.0021 123.603Q62.0021 124.092 62.1923 124.476Q62.3824 124.861 62.7278 125.078Q63.0731 125.295 63.5078 125.295Q63.9346 125.295 64.2761 125.078Q64.6176 124.861 64.8155 124.473Q65.0134 124.085 65.0134 123.603ZM69.414 123.122V125.388Q69.414 125.45 69.3674 125.497Q69.3208 125.544 69.2587 125.544Q69.1889 125.544 69.1462 125.497Q69.1035 125.45 69.1035 125.388V123.122Q69.1035 122.587 68.8396 122.253Q68.5758 121.919 68.0325 121.919Q67.6988 121.919 67.3767 122.082Q67.0546 122.245 66.8528 122.525Q66.651 122.804 66.651 123.122V125.388Q66.651 125.45 66.6044 125.497Q66.5579 125.544 66.4958 125.544Q66.4259 125.544 66.3833 125.497Q66.3406 125.45 66.3406 125.388V119.956Q66.3406 119.894 66.3871 119.847Q66.4337 119.8 66.4958 119.8Q66.5656 119.8 66.6083 119.847Q66.651 119.894 66.651 119.956V122.408Q66.8683 122.067 67.2525 121.845Q67.6367 121.624 68.0325 121.624Q68.6999 121.624 69.057 122.047Q69.414 122.47 69.414 123.122ZM70.8575 125.544Q70.7877 125.544 70.745 125.497Q70.7023 125.45 70.7023 125.388V121.702Q70.7023 121.64 70.7489 121.593Q70.7954 121.547 70.8575 121.547Q70.9274 121.547 70.9701 121.593Q71.0128 121.64 71.0128 121.702V125.388Q71.0128 125.45 70.9662 125.497Q70.9196 125.544 70.8575 125.544ZM70.5859 120.771V120.708Q70.5859 120.6 70.6635 120.53Q70.7411 120.46 70.8653 120.46Q70.9739 120.46 71.0477 120.53Q71.1214 120.6 71.1214 120.708V120.771Q71.1214 120.879 71.0477 120.949Q70.9739 121.019 70.8575 121.019Q70.7334 121.019 70.6596 120.949Q70.5859 120.879 70.5859 120.771ZM74.4121 121.725Q74.4121 121.795 74.3733 121.842Q74.3345 121.888 74.2724 121.888Q74.2491 121.888 74.1599 121.853Q74.0706 121.818 73.9697 121.818Q73.6515 121.818 73.3333 122.071Q73.0151 122.323 72.8133 122.707Q72.6115 123.091 72.6115 123.448V125.388Q72.6115 125.45 72.565 125.497Q72.5184 125.544 72.4563 125.544Q72.3865 125.544 72.3438 125.497Q72.3011 125.45 72.3011 125.388V121.826Q72.3011 121.764 72.3477 121.717Q72.3942 121.671 72.4563 121.671Q72.5262 121.671 72.5689 121.717Q72.6115 121.764 72.6115 121.826V122.649Q72.79 122.175 73.1665 121.865Q73.5429 121.554 74.0551 121.547Q74.4121 121.547 74.4121 121.725ZM78.3548 124.752Q78.3548 124.806 78.3237 124.845Q78.0676 125.187 77.6873 125.404Q77.307 125.621 76.8724 125.621Q76.2903 125.621 75.8402 125.373Q75.39 125.125 75.1378 124.667Q74.8855 124.209 74.8855 123.603Q74.8855 122.982 75.13 122.513Q75.3745 122.043 75.7781 121.795Q76.1817 121.547 76.6396 121.547Q77.0975 121.547 77.4894 121.745Q77.8813 121.942 78.1297 122.338Q78.378 122.734 78.3936 123.316Q78.3936 123.378 78.347 123.429Q78.3004 123.479 78.2383 123.479H75.1882V123.58Q75.1882 124.061 75.3823 124.461Q75.5763 124.861 75.9566 125.093Q76.3369 125.326 76.8724 125.326Q77.2449 125.326 77.5748 125.144Q77.9046 124.962 78.0909 124.682Q78.1452 124.612 78.2228 124.612Q78.2772 124.612 78.316 124.655Q78.3548 124.698 78.3548 124.752ZM75.2193 123.184H78.0754V123.114Q78.0366 122.719 77.8231 122.435Q77.6097 122.152 77.2954 122.005Q76.981 121.857 76.6396 121.857Q76.3524 121.857 76.0536 122.008Q75.7548 122.16 75.5258 122.459Q75.2969 122.757 75.2193 123.184Z" style="fill:#000000;stroke:#000000;stroke-width:0.265;stroke-linecap:square" />
            <g id="gemstones" style="stroke-width:0;fill:#0000ff;stroke:#2e2114;stroke-linecap:square;stroke-opacity:1">
                <path d="m 45.950,122.900 q 0,0.34175 -0.242534,0.63114 -0.0441,0.0524 -0.20395,0.21497 -0.187413,0.19017 -0.785481,0.81304 l -1.444183,1.51309 q -0.01929,0.003 -0.0441,0.003 -0.02756,0 -0.04134,-0.003 -0.08268,-0.0827 -0.647678,-0.67524 -0.468532,-0.47404 -0.934309,-0.94809 -0.556727,-0.56775 -0.89848,-0.98116 -0.132292,-0.15985 -0.168121,-0.29766 -0.02756,-0.10197 -0.02756,-0.34175 0,-0.11024 0.07166,-0.28939 0.06614,-0.16536 0.140559,-0.26458 0.118512,-0.1571 0.42168,-0.42444 0.283875,-0.2508 0.474044,-0.37482 0.272852,-0.17915 0.818555,-0.36656 0.09646,-0.0331 0.110243,-0.0331 h 1.3615 q 0.01102,0 0.104731,0.0331 0.567751,0.20119 0.824066,0.36656 0.165365,0.10473 0.474045,0.37758 0.322461,0.28388 0.421679,0.42168 0.214974,0.2949 0.214974,0.62563 z m -0.16812,-0.27285 q -0.03307,-0.10749 -0.135048,-0.30868 -0.07166,-0.0937 -0.209462,-0.19844 -0.118511,-0.0854 -0.234266,-0.17088 0.245291,0.3638 0.578776,0.678 z m -0.573264,-0.52366 -0.358289,-0.44648 v 0.41065 z m 0.636653,0.75792 q 0,-0.0524 -0.341753,-0.39412 l 0.228754,0.7028 h 0.04961 q 0.06339,-0.21773 0.06339,-0.30868 z m -0.23151,0.27285 -0.316948,-0.90399 -0.410655,-0.0634 -0.159853,0.61461 z m 0.0028,0.15434 -0.771701,-0.3197 h -0.03032 l 0.344509,0.60634 q 0.07993,-0.003 0.234266,-0.0469 0.02481,-0.0138 0.223242,-0.23978 z m -0.857139,-1.05006 -0.719335,0.28388 0.60358,0.22599 z m 0,-0.16261 v -0.51538 l -0.917773,-0.38034 h -1.223697 l -0.917772,0.38034 v 0.51538 l 0.89848,0.4079 h 1.254014 z m 0.573264,1.53789 q -0.0689,0.011 -0.198438,0.0524 -0.08544,0.0551 -0.259071,0.16261 0.01929,0 0.06339,0.003 0.04134,0 0.06339,0 0.118511,0 0.190169,-0.0689 0.07166,-0.0717 0.14056,-0.14883 z m -0.289388,0.003 -0.347266,-0.63114 -0.363801,0.87918 q 0.0248,-0.0165 0.06615,-0.0165 0.03032,0 0.08544,0.011 0.05788,0.008 0.08819,0.008 0.04961,0 0.228754,-0.10749 0.228754,-0.1378 0.242535,-0.14331 z m -0.440972,-0.74139 -0.683507,-0.2756 -0.592556,0.54845 0.903993,0.65595 z m -0.854383,-0.28387 h -1.036284 l 0.523654,0.47404 z m 0.749652,1.36701 q -0.228754,-0.0303 -0.228754,-0.0303 -0.03583,0 -0.272851,0.0937 l 0.190169,0.0193 q 0.01102,0 0.311436,-0.0827 z m -0.388606,-0.0882 -0.843359,-0.61185 v 0.67524 l 0.471289,0.0827 z m 0.854383,0.0496 q -0.09922,0.006 -0.2949,0.0386 -0.01102,0.003 -0.377583,0.17639 -0.129535,0.34726 -0.380338,1.0418 z m -2.543857,-1.39733 -0.719335,-0.28388 0.124023,0.51814 z m -0.802018,-0.45476 v -0.41065 l -0.366557,0.44648 z m 1.515841,1.07212 -0.592556,-0.54019 -0.683506,0.2756 0.380338,0.9288 z m 0.369314,0.94257 q -0.03307,-0.003 -0.135047,-0.0248 -0.08544,-0.0165 -0.137804,-0.0165 -0.05237,0 -0.137804,0.0165 -0.101975,0.0221 -0.135047,0.0248 0.264583,0.0469 0.272851,0.0469 0.0083,0 0.272851,-0.0469 z m -0.30868,-0.1378 v -0.68626 l -0.843359,0.61185 0.37207,0.14607 z m 0.950846,0.20671 -0.396875,-0.0551 -0.479557,0.14056 v 1.27607 z m -2.888366,-2.20211 q -0.118512,0.0854 -0.234267,0.17364 -0.146072,0.10748 -0.209461,0.19568 -0.0441,0.10473 -0.135048,0.31419 0.369314,-0.3638 0.578776,-0.68351 z m 0.476801,0.83234 -0.159853,-0.61461 -0.410655,0.0634 -0.316948,0.90399 z m 0.394118,1.08313 -0.363802,-0.87918 -0.355533,0.63114 q 0.43546,0.2508 0.451996,0.2508 0.09095,0 0.267339,-0.003 z m 1.821765,0.82958 q -0.132291,0.21222 -0.405143,0.6339 -0.07717,0.10749 -0.220486,0.32797 -0.05788,0.10473 -0.05512,0.226 0.159852,-0.15158 0.432704,-0.49609 0.07717,-0.12954 0.140559,-0.339 0.05512,-0.17639 0.107486,-0.35278 z m -1.493792,-0.66146 -0.270095,-0.0882 -0.0083,-0.011 q -0.02481,0 -0.107487,0.011 -0.06615,0.006 -0.107487,0.006 0.272851,0.091 0.311436,0.091 0.02481,0 0.181901,-0.008 z m -0.810286,-1.06384 h -0.03032 l -0.7717,0.3197 q 0.06615,0.0965 0.223242,0.23978 0.07717,0.0138 0.234266,0.0469 z m -0.689018,-0.50161 q -0.341754,0.34727 -0.341754,0.39412 0,0.0799 0.06339,0.30868 h 0.04961 z m 2.235176,3.04547 v -1.27607 l -0.479557,-0.14056 -0.396875,0.0551 z m -1.606791,-1.6757 q -0.256315,-0.1819 -0.457509,-0.22324 0.06615,0.0772 0.20395,0.22324 z m 1.609547,2.04501 v -0.1378 l -0.683507,-1.05007 q 0.05237,0.17639 0.107487,0.35278 0.06339,0.20946 0.14056,0.339 0.0689,0.11851 0.20395,0.25907 0.115755,0.11851 0.23151,0.23702 z m -0.644921,-0.70555 q -0.115756,-0.32798 -0.380339,-1.0418 -0.135047,-0.0662 -0.272851,-0.12954 -0.159852,-0.0716 -0.289388,-0.0716 -0.05237,0 -0.110243,-0.0138 z" />
                <path d="m 86.480,122.900 q 0,0.34175 -0.242534,0.63114 -0.0441,0.0524 -0.20395,0.21497 -0.187413,0.19017 -0.785481,0.81304 l -1.444183,1.51309 q -0.01929,0.003 -0.0441,0.003 -0.02756,0 -0.04134,-0.003 -0.08268,-0.0827 -0.647678,-0.67524 -0.468532,-0.47404 -0.934309,-0.94809 -0.556727,-0.56775 -0.89848,-0.98116 -0.132292,-0.15985 -0.168121,-0.29766 -0.02756,-0.10197 -0.02756,-0.34175 0,-0.11024 0.07166,-0.28939 0.06614,-0.16536 0.140559,-0.26458 0.118512,-0.1571 0.42168,-0.42444 0.283875,-0.2508 0.474044,-0.37482 0.272852,-0.17915 0.818555,-0.36656 0.09646,-0.0331 0.110243,-0.0331 h 1.3615 q 0.01102,0 0.104731,0.0331 0.567751,0.20119 0.824066,0.36656 0.165365,0.10473 0.474045,0.37758 0.322461,0.28388 0.421679,0.42168 0.214974,0.2949 0.214974,0.62563 z m -0.16812,-0.27285 q -0.03307,-0.10749 -0.135048,-0.30868 -0.07166,-0.0937 -0.209462,-0.19844 -0.118511,-0.0854 -0.234266,-0.17088 0.245291,0.3638 0.578776,0.678 z m -0.573264,-0.52366 -0.358289,-0.44648 v 0.41065 z m 0.636653,0.75792 q 0,-0.0524 -0.341753,-0.39412 l 0.228754,0.7028 h 0.04961 q 0.06339,-0.21773 0.06339,-0.30868 z m -0.23151,0.27285 -0.316948,-0.90399 -0.410655,-0.0634 -0.159853,0.61461 z m 0.0028,0.15434 -0.771701,-0.3197 h -0.03032 l 0.344509,0.60634 q 0.07993,-0.003 0.234266,-0.0469 0.02481,-0.0138 0.223242,-0.23978 z m -0.857139,-1.05006 -0.719335,0.28388 0.60358,0.22599 z m 0,-0.16261 v -0.51538 l -0.917773,-0.38034 h -1.223697 l -0.917772,0.38034 v 0.51538 l 0.89848,0.4079 h 1.254014 z m 0.573264,1.53789 q -0.0689,0.011 -0.198438,0.0524 -0.08544,0.0551 -0.259071,0.16261 0.01929,0 0.06339,0.003 0.04134,0 0.06339,0 0.118511,0 0.190169,-0.0689 0.07166,-0.0717 0.14056,-0.14883 z m -0.289388,0.003 -0.347266,-0.63114 -0.363801,0.87918 q 0.0248,-0.0165 0.06615,-0.0165 0.03032,0 0.08544,0.011 0.05788,0.008 0.08819,0.008 0.04961,0 0.228754,-0.10749 0.228754,-0.1378 0.242535,-0.14331 z m -0.440972,-0.74139 -0.683507,-0.2756 -0.592556,0.54845 0.903993,0.65595 z m -0.854383,-0.28387 h -1.036284 l 0.523654,0.47404 z m 0.749652,1.36701 q -0.228754,-0.0303 -0.228754,-0.0303 -0.03583,0 -0.272851,0.0937 l 0.190169,0.0193 q 0.01102,0 0.311436,-0.0827 z m -0.388606,-0.0882 -0.843359,-0.61185 v 0.67524 l 0.471289,0.0827 z m 0.854383,0.0496 q -0.09922,0.006 -0.2949,0.0386 -0.01102,0.003 -0.377583,0.17639 -0.129535,0.34726 -0.380338,1.0418 z m -2.543857,-1.39733 -0.719335,-0.28388 0.124023,0.51814 z m -0.802018,-0.45476 v -0.41065 l -0.366557,0.44648 z m 1.515841,1.07212 -0.592556,-0.54019 -0.683506,0.2756 0.380338,0.9288 z m 0.369314,0.94257 q -0.03307,-0.003 -0.135047,-0.0248 -0.08544,-0.0165 -0.137804,-0.0165 -0.05237,0 -0.137804,0.0165 -0.101975,0.0221 -0.135047,0.0248 0.264583,0.0469 0.272851,0.0469 0.0083,0 0.272851,-0.0469 z m -0.30868,-0.1378 v -0.68626 l -0.843359,0.61185 0.37207,0.14607 z m 0.950846,0.20671 -0.396875,-0.0551 -0.479557,0.14056 v 1.27607 z m -2.888366,-2.20211 q -0.118512,0.0854 -0.234267,0.17364 -0.146072,0.10748 -0.209461,0.19568 -0.0441,0.10473 -0.135048,0.31419 0.369314,-0.3638 0.578776,-0.68351 z m 0.476801,0.83234 -0.159853,-0.61461 -0.410655,0.0634 -0.316948,0.90399 z m 0.394118,1.08313 -0.363802,-0.87918 -0.355533,0.63114 q 0.43546,0.2508 0.451996,0.2508 0.09095,0 0.267339,-0.003 z m 1.821765,0.82958 q -0.132291,0.21222 -0.405143,0.6339 -0.07717,0.10749 -0.220486,0.32797 -0.05788,0.10473 -0.05512,0.226 0.159852,-0.15158 0.432704,-0.49609 0.07717,-0.12954 0.140559,-0.339 0.05512,-0.17639 0.107486,-0.35278 z m -1.493792,-0.66146 -0.270095,-0.0882 -0.0083,-0.011 q -0.02481,0 -0.107487,0.011 -0.06615,0.006 -0.107487,0.006 0.272851,0.091 0.311436,0.091 0.02481,0 0.181901,-0.008 z m -0.810286,-1.06384 h -0.03032 l -0.7717,0.3197 q 0.06615,0.0965 0.223242,0.23978 0.07717,0.0138 0.234266,0.0469 z m -0.689018,-0.50161 q -0.341754,0.34727 -0.341754,0.39412 0,0.0799 0.06339,0.30868 h 0.04961 z m 2.235176,3.04547 v -1.27607 l -0.479557,-0.14056 -0.396875,0.0551 z m -1.606791,-1.6757 q -0.256315,-0.1819 -0.457509,-0.22324 0.06615,0.0772 0.20395,0.22324 z m 1.609547,2.04501 v -0.1378 l -0.683507,-1.05007 q 0.05237,0.17639 0.107487,0.35278 0.06339,0.20946 0.14056,0.339 0.0689,0.11851 0.20395,0.25907 0.115755,0.11851 0.23151,0.23702 z m -0.644921,-0.70555 q -0.115756,-0.32798 -0.380339,-1.0418 -0.135047,-0.0662 -0.272851,-0.12954 -0.159852,-0.0716 -0.289388,-0.0716 -0.05237,0 -0.110243,-0.0138 z" />
            </g>
        </g>
        <g id="control_grid" />
    </g>
</svg>
