<?xml version="1.0" encoding="utf-8"?>
<svg xmlns="http://www.w3.org/2000/svg" width="101.60mm" height="128.50mm" viewBox="0 0 101.60 128.50">
    <g id="PanelLayer">
        <g id="ControlLayer" style="display:none;">
            <circle id="dispersion_0_knob" cx="10.16" cy="23" r="1" />
            <circle id="dispersion_0_atten" cx="5.16" cy="34" r="1" />
            <circle id="dispersion_0_cv" cx="15.16" cy="34" r="1" />
            <circle id="dispersion_1_knob" cx="30.48" cy="23" r="1" />
            <circle id="dispersion_1_atten" cx="25.48" cy="34" r="1" />
            <circle id="dispersion_1_cv" cx="35.48" cy="34" r="1" />
            <circle id="dispersion_2_knob" cx="50.8" cy="23" r="1" />
            <circle id="dispersion_2_atten" cx="45.8" cy="34" r="1" />
            <circle id="dispersion_2_cv" cx="55.8" cy="34" r="1" />
            <circle id="dispersion_3_knob" cx="71.12" cy="23" r="1" />
            <circle id="dispersion_3_atten" cx="66.12" cy="34" r="1" />
            <circle id="dispersion_3_cv" cx="76.12" cy="34" r="1" />
            <circle id="dispersion_4_knob" cx="91.44" cy="23" r="1" />
            <circle id="dispersion_4_atten" cx="86.44" cy="34" r="1" />
            <circle id="dispersion_4_cv" cx="96.44" cy="34" r="1" />
            <circle id="level_0_knob" cx="10.16" cy="50" r="1" />
            <circle id="level_0_atten" cx="5.16" cy="61" r="1" />
            <circle id="level_0_cv" cx="15.16" cy="61" r="1" />
            <circle id="level_1_knob" cx="30.48" cy="50" r="1" />
            <circle id="level_1_atten" cx="25.48" cy="61" r="1" />
            <circle id="level_1_cv" cx="35.48" cy="61" r="1" />
            <circle id="level_2_knob" cx="50.8" cy="50" r="1" />
            <circle id="level_2_atten" cx="45.8" cy="61" r="1" />
            <circle id="level_2_cv" cx="55.8" cy="61" r="1" />
            <circle id="level_3_knob" cx="71.12" cy="50" r="1" />
            <circle id="level_3_atten" cx="66.12" cy="61" r="1" />
            <circle id="level_3_cv" cx="76.12" cy="61" r="1" />
            <circle id="level_4_knob" cx="91.44" cy="50" r="1" />
            <circle id="level_4_atten" cx="86.44" cy="61" r="1" />
            <circle id="level_4_cv" cx="96.44" cy="61" r="1" />
            <circle id="bandwidth_0_knob" cx="10.16" cy="77" r="1" />
            <circle id="bandwidth_0_atten" cx="5.16" cy="88" r="1" />
            <circle id="bandwidth_0_cv" cx="15.16" cy="88" r="1" />
            <circle id="bandwidth_1_knob" cx="30.48" cy="77" r="1" />
            <circle id="bandwidth_1_atten" cx="25.48" cy="88" r="1" />
            <circle id="bandwidth_1_cv" cx="35.48" cy="88" r="1" />
            <circle id="bandwidth_2_knob" cx="50.8" cy="77" r="1" />
            <circle id="bandwidth_2_atten" cx="45.8" cy="88" r="1" />
            <circle id="bandwidth_2_cv" cx="55.8" cy="88" r="1" />
            <circle id="bandwidth_3_knob" cx="71.12" cy="77" r="1" />
            <circle id="bandwidth_3_atten" cx="66.12" cy="88" r="1" />
            <circle id="bandwidth_3_cv" cx="76.12" cy="88" r="1" />
            <circle id="bandwidth_4_knob" cx="91.44" cy="77" r="1" />
            <circle id="bandwidth_4_atten" cx="86.44" cy="88" r="1" />
            <circle id="bandwidth_4_cv" cx="96.44" cy="88" r="1" />
            <circle id="audio_input" cx="10.16" cy="120" r="1" />
            <circle id="audio_output" cx="91.44" cy="120" r="1" />
        </g>
        <rect id="border_rect" width="101.6" height="128.5" x="0" y="0" style="display:inline;fill:#4f8df2;fill-opacity:1;fill-rule:nonzero;stroke:#5021d4;stroke-width:0.7;stroke-linecap:round;stroke-linejoin:round;stroke-dasharray:none;stroke-opacity:1;image-rendering:auto" />
        <path id="model_name" d="M38.1921 7.38291Q38.1921 7.32858 38.2542 7.28201Q38.293 7.24321 38.3473 7.24321Q38.4249 7.24321 38.4715 7.3053Q38.9216 7.94947 39.7288 7.94947Q40.1401 7.94947 40.4506 7.7438Q40.761 7.53813 40.761 7.18888Q40.761 6.83187 40.4894 6.65336Q40.2177 6.47486 39.7443 6.35844Q39.1156 6.20322 38.7548 5.94322Q38.3939 5.68323 38.3939 5.2098Q38.3939 4.75189 38.7586 4.45309Q39.1234 4.15429 39.6977 4.15429Q40.0159 4.15429 40.3303 4.27846Q40.6446 4.40264 40.9007 4.67428Q40.955 4.72085 40.955 4.78294Q40.955 4.85279 40.9007 4.90711Q40.8386 4.93816 40.7998 4.93816Q40.7455 4.93816 40.7067 4.89159Q40.3031 4.44921 39.6667 4.44921Q39.2553 4.44921 38.9721 4.651Q38.6888 4.85279 38.6888 5.2098Q38.7121 5.54352 38.9954 5.72591Q39.2786 5.9083 39.8297 6.048Q40.2255 6.14889 40.4855 6.26919Q40.7455 6.38949 40.9007 6.6068Q41.0559 6.82411 41.0559 7.17336Q41.0559 7.66231 40.6795 7.94559Q40.3031 8.22887 39.6977 8.22887Q38.813 8.22887 38.2464 7.53037Q38.1921 7.445 38.1921 7.38291ZM45.6738 6.21098Q45.6738 6.76978 45.4371 7.22381Q45.2004 7.67783 44.789 7.93783Q44.3777 8.19782 43.8732 8.19782Q43.4075 8.19782 43.0195 7.96499Q42.6314 7.73216 42.3831 7.3053V9.54826Q42.3831 9.61035 42.3404 9.65691Q42.2977 9.70348 42.2279 9.70348Q42.1658 9.70348 42.1192 9.65691Q42.0726 9.61035 42.0726 9.54826V4.38712Q42.0726 4.32503 42.1153 4.27846Q42.158 4.2319 42.2279 4.2319Q42.2977 4.2319 42.3404 4.27846Q42.3831 4.32503 42.3831 4.38712V5.10114Q42.6159 4.65876 43.004 4.44533Q43.392 4.2319 43.8732 4.2319Q44.3854 4.2319 44.7968 4.48801Q45.2081 4.74413 45.441 5.19428Q45.6738 5.64442 45.6738 6.21098ZM45.3633 6.21098Q45.3633 5.72979 45.1654 5.34562Q44.9675 4.96144 44.626 4.74413Q44.2845 4.52682 43.8577 4.52682Q43.4231 4.52682 43.0777 4.74025Q42.7323 4.95368 42.5422 5.33786Q42.352 5.72203 42.352 6.21098Q42.352 6.69993 42.5422 7.08411Q42.7323 7.46828 43.0777 7.68559Q43.4231 7.9029 43.8577 7.9029Q44.2845 7.9029 44.626 7.68559Q44.9675 7.46828 45.1654 7.08022Q45.3633 6.69217 45.3633 6.21098ZM50.02 4.43369V7.99604Q50.02 8.05812 49.9734 8.10469Q49.9269 8.15126 49.8648 8.15126Q49.7949 8.15126 49.7522 8.10469Q49.7096 8.05812 49.7096 7.99604V7.29754Q49.5155 7.69335 49.112 7.96111Q48.7084 8.22887 48.2194 8.22887Q47.7072 8.22887 47.2959 7.96111Q46.8845 7.69335 46.6517 7.22381Q46.4189 6.75426 46.4189 6.17217Q46.4189 5.59785 46.6556 5.13607Q46.8923 4.67428 47.3036 4.41428Q47.715 4.15429 48.2194 4.15429Q48.7239 4.15429 49.1275 4.41816Q49.5311 4.68204 49.7096 5.12443V4.43369Q49.7096 4.3716 49.7522 4.32503Q49.7949 4.27846 49.8648 4.27846Q49.9346 4.27846 49.9773 4.32503Q50.02 4.3716 50.02 4.43369ZM49.7406 6.17217Q49.7406 5.69875 49.5466 5.30293Q49.3526 4.90711 49.0072 4.67816Q48.6618 4.44921 48.235 4.44921Q47.8081 4.44921 47.4627 4.6704Q47.1174 4.89159 46.9233 5.28353Q46.7293 5.67546 46.7293 6.17217Q46.7293 6.66889 46.9233 7.07246Q47.1174 7.47604 47.4588 7.70499Q47.8003 7.93395 48.235 7.93395Q48.6618 7.93395 49.0072 7.70499Q49.3526 7.47604 49.5466 7.07246Q49.7406 6.66889 49.7406 6.17217ZM52.8994 4.39488Q52.8994 4.45697 52.8567 4.49966Q52.814 4.54234 52.7519 4.54234H51.8982V7.3053Q51.8982 7.64679 52.0185 7.75932Q52.1388 7.87186 52.3251 7.87186Q52.3561 7.87186 52.4143 7.85634Q52.4725 7.84081 52.5113 7.84081Q52.5657 7.84081 52.6045 7.8835Q52.6433 7.92619 52.6433 7.98051Q52.6433 8.05036 52.5501 8.10081Q52.457 8.15126 52.3328 8.15126Q52.1388 8.15126 52.0069 8.12409Q51.8749 8.09693 51.7313 7.91454Q51.5878 7.73216 51.5878 7.32082V4.54234H50.9513Q50.897 4.54234 50.8504 4.49578Q50.8039 4.44921 50.8039 4.39488Q50.8039 4.33279 50.8466 4.29011Q50.8893 4.24742 50.9513 4.24742H51.5878V3.26176Q51.5878 3.19967 51.6343 3.1531Q51.6809 3.10654 51.743 3.10654Q51.8128 3.10654 51.8555 3.1531Q51.8982 3.19967 51.8982 3.26176V4.24742H52.7519Q52.8062 4.24742 52.8528 4.29399Q52.8994 4.34055 52.8994 4.39488ZM56.842 4.43369V6.69217Q56.842 7.42948 56.4268 7.81365Q56.0116 8.19782 55.2976 8.19782Q54.5835 8.19782 54.1722 7.81365Q53.7609 7.42948 53.7609 6.69217V4.43369Q53.7609 4.3716 53.8074 4.32503Q53.854 4.27846 53.9161 4.27846Q53.9859 4.27846 54.0286 4.32503Q54.0713 4.3716 54.0713 4.43369V6.69217Q54.0713 7.27425 54.3973 7.58858Q54.7232 7.9029 55.2976 7.9029Q55.8796 7.9029 56.2056 7.58858Q56.5316 7.27425 56.5316 6.69217V4.43369Q56.5316 4.3716 56.5743 4.32503Q56.617 4.27846 56.6868 4.27846Q56.7567 4.27846 56.7993 4.32503Q56.842 4.3716 56.842 4.43369ZM58.3244 8.15126Q58.2545 8.15126 58.2119 8.10469Q58.1692 8.05812 58.1692 7.99604V2.56326Q58.1692 2.50117 58.2157 2.4546Q58.2623 2.40804 58.3244 2.40804Q58.3942 2.40804 58.4369 2.4546Q58.4796 2.50117 58.4796 2.56326V7.99604Q58.4796 8.05812 58.4331 8.10469Q58.3865 8.15126 58.3244 8.15126ZM63.1363 4.43369V7.99604Q63.1363 8.05812 63.0897 8.10469Q63.0432 8.15126 62.9811 8.15126Q62.9112 8.15126 62.8685 8.10469Q62.8258 8.05812 62.8258 7.99604V7.29754Q62.6318 7.69335 62.2282 7.96111Q61.8247 8.22887 61.3357 8.22887Q60.8235 8.22887 60.4121 7.96111Q60.0008 7.69335 59.768 7.22381Q59.5351 6.75426 59.5351 6.17217Q59.5351 5.59785 59.7718 5.13607Q60.0086 4.67428 60.4199 4.41428Q60.8312 4.15429 61.3357 4.15429Q61.8402 4.15429 62.2438 4.41816Q62.6473 4.68204 62.8258 5.12443V4.43369Q62.8258 4.3716 62.8685 4.32503Q62.9112 4.27846 62.9811 4.27846Q63.0509 4.27846 63.0936 4.32503Q63.1363 4.3716 63.1363 4.43369ZM62.8569 6.17217Q62.8569 5.69875 62.6629 5.30293Q62.4688 4.90711 62.1235 4.67816Q61.7781 4.44921 61.3512 4.44921Q60.9244 4.44921 60.579 4.6704Q60.2336 4.89159 60.0396 5.28353Q59.8456 5.67546 59.8456 6.17217Q59.8456 6.66889 60.0396 7.07246Q60.2336 7.47604 60.5751 7.70499Q60.9166 7.93395 61.3512 7.93395Q61.7781 7.93395 62.1235 7.70499Q62.4688 7.47604 62.6629 7.07246Q62.8569 6.66889 62.8569 6.17217Z" style="display:inline;stroke:#000000;stroke-width:0.35;stroke-linecap:round;stroke-linejoin:bevel" />
        <g id="sapphire_insignia">
            <path id="brand_name" d="M35.9064 124.775Q35.9064 124.721 35.9685 124.674Q36.0073 124.636 36.0617 124.636Q36.1393 124.636 36.1858 124.698Q36.636 125.342 37.4431 125.342Q37.8545 125.342 38.1649 125.136Q38.4754 124.93 38.4754 124.581Q38.4754 124.224 38.2037 124.046Q37.9321 123.867 37.4586 123.751Q36.83 123.596 36.4691 123.336Q36.1082 123.076 36.1082 122.602Q36.1082 122.144 36.473 121.845Q36.8378 121.547 37.4121 121.547Q37.7303 121.547 38.0446 121.671Q38.3589 121.795 38.6151 122.067Q38.6694 122.113 38.6694 122.175Q38.6694 122.245 38.6151 122.299Q38.553 122.331 38.5142 122.331Q38.4598 122.331 38.421 122.284Q38.0174 121.842 37.381 121.842Q36.9697 121.842 36.6864 122.043Q36.4031 122.245 36.4031 122.602Q36.4264 122.936 36.7097 123.118Q36.993 123.301 37.544 123.44Q37.9398 123.541 38.1998 123.662Q38.4598 123.782 38.6151 123.999Q38.7703 124.216 38.7703 124.566Q38.7703 125.055 38.3939 125.338Q38.0174 125.621 37.4121 125.621Q36.5273 125.621 35.9608 124.923Q35.9064 124.837 35.9064 124.775ZM43.1165 121.826V125.388Q43.1165 125.45 43.0699 125.497Q43.0234 125.544 42.9613 125.544Q42.8914 125.544 42.8487 125.497Q42.8061 125.45 42.8061 125.388V124.69Q42.612 125.086 42.2084 125.353Q41.8049 125.621 41.3159 125.621Q40.8037 125.621 40.3923 125.353Q39.981 125.086 39.7482 124.616Q39.5153 124.147 39.5153 123.565Q39.5153 122.99 39.7521 122.528Q39.9888 122.067 40.4001 121.807Q40.8114 121.547 41.3159 121.547Q41.8204 121.547 42.224 121.811Q42.6275 122.074 42.8061 122.517V121.826Q42.8061 121.764 42.8487 121.717Q42.8914 121.671 42.9613 121.671Q43.0311 121.671 43.0738 121.717Q43.1165 121.764 43.1165 121.826ZM42.8371 123.565Q42.8371 123.091 42.6431 122.695Q42.449 122.299 42.1037 122.071Q41.7583 121.842 41.3314 121.842Q40.9046 121.842 40.5592 122.063Q40.2138 122.284 40.0198 122.676Q39.8258 123.068 39.8258 123.565Q39.8258 124.061 40.0198 124.465Q40.2138 124.868 40.5553 125.097Q40.8968 125.326 41.3314 125.326Q41.7583 125.326 42.1037 125.097Q42.449 124.868 42.6431 124.465Q42.8371 124.061 42.8371 123.565ZM48.006 123.603Q48.006 124.162 47.7693 124.616Q47.5326 125.07 47.1212 125.33Q46.7099 125.59 46.2054 125.59Q45.7398 125.59 45.3517 125.357Q44.9636 125.125 44.7153 124.698V126.941Q44.7153 127.003 44.6726 127.049Q44.6299 127.096 44.5601 127.096Q44.498 127.096 44.4514 127.049Q44.4048 127.003 44.4048 126.941V121.779Q44.4048 121.717 44.4475 121.671Q44.4902 121.624 44.5601 121.624Q44.6299 121.624 44.6726 121.671Q44.7153 121.717 44.7153 121.779V122.493Q44.9481 122.051 45.3362 121.838Q45.7242 121.624 46.2054 121.624Q46.7177 121.624 47.129 121.88Q47.5403 122.136 47.7732 122.587Q48.006 123.037 48.006 123.603ZM47.6956 123.603Q47.6956 123.122 47.4976 122.738Q47.2997 122.354 46.9582 122.136Q46.6168 121.919 46.1899 121.919Q45.7553 121.919 45.4099 122.133Q45.0645 122.346 44.8744 122.73Q44.6842 123.114 44.6842 123.603Q44.6842 124.092 44.8744 124.476Q45.0645 124.861 45.4099 125.078Q45.7553 125.295 46.1899 125.295Q46.6168 125.295 46.9582 125.078Q47.2997 124.861 47.4976 124.473Q47.6956 124.085 47.6956 123.603ZM52.6239 123.603Q52.6239 124.162 52.3871 124.616Q52.1504 125.07 51.7391 125.33Q51.3278 125.59 50.8233 125.59Q50.3576 125.59 49.9696 125.357Q49.5815 125.125 49.3331 124.698V126.941Q49.3331 127.003 49.2905 127.049Q49.2478 127.096 49.1779 127.096Q49.1158 127.096 49.0693 127.049Q49.0227 127.003 49.0227 126.941V121.779Q49.0227 121.717 49.0654 121.671Q49.1081 121.624 49.1779 121.624Q49.2478 121.624 49.2905 121.671Q49.3331 121.717 49.3331 121.779V122.493Q49.566 122.051 49.954 121.838Q50.3421 121.624 50.8233 121.624Q51.3355 121.624 51.7469 121.88Q52.1582 122.136 52.391 122.587Q52.6239 123.037 52.6239 123.603ZM52.3134 123.603Q52.3134 123.122 52.1155 122.738Q51.9176 122.354 51.5761 122.136Q51.2346 121.919 50.8078 121.919Q50.3731 121.919 50.0278 122.133Q49.6824 122.346 49.4923 122.73Q49.3021 123.114 49.3021 123.603Q49.3021 124.092 49.4923 124.476Q49.6824 124.861 50.0278 125.078Q50.3731 125.295 50.8078 125.295Q51.2346 125.295 51.5761 125.078Q51.9176 124.861 52.1155 124.473Q52.3134 124.085 52.3134 123.603ZM56.714 123.122V125.388Q56.714 125.45 56.6674 125.497Q56.6208 125.544 56.5587 125.544Q56.4889 125.544 56.4462 125.497Q56.4035 125.45 56.4035 125.388V123.122Q56.4035 122.587 56.1396 122.253Q55.8758 121.919 55.3325 121.919Q54.9988 121.919 54.6767 122.082Q54.3546 122.245 54.1528 122.525Q53.951 122.804 53.951 123.122V125.388Q53.951 125.45 53.9044 125.497Q53.8579 125.544 53.7958 125.544Q53.7259 125.544 53.6833 125.497Q53.6406 125.45 53.6406 125.388V119.956Q53.6406 119.894 53.6871 119.847Q53.7337 119.8 53.7958 119.8Q53.8656 119.8 53.9083 119.847Q53.951 119.894 53.951 119.956V122.408Q54.1683 122.067 54.5525 121.845Q54.9367 121.624 55.3325 121.624Q55.9999 121.624 56.357 122.047Q56.714 122.47 56.714 123.122ZM58.1575 125.544Q58.0877 125.544 58.045 125.497Q58.0023 125.45 58.0023 125.388V121.702Q58.0023 121.64 58.0489 121.593Q58.0954 121.547 58.1575 121.547Q58.2274 121.547 58.2701 121.593Q58.3128 121.64 58.3128 121.702V125.388Q58.3128 125.45 58.2662 125.497Q58.2196 125.544 58.1575 125.544ZM57.8859 120.771V120.708Q57.8859 120.6 57.9635 120.53Q58.0411 120.46 58.1653 120.46Q58.2739 120.46 58.3477 120.53Q58.4214 120.6 58.4214 120.708V120.771Q58.4214 120.879 58.3477 120.949Q58.2739 121.019 58.1575 121.019Q58.0334 121.019 57.9596 120.949Q57.8859 120.879 57.8859 120.771ZM61.7121 121.725Q61.7121 121.795 61.6733 121.842Q61.6345 121.888 61.5724 121.888Q61.5491 121.888 61.4599 121.853Q61.3706 121.818 61.2697 121.818Q60.9515 121.818 60.6333 122.071Q60.3151 122.323 60.1133 122.707Q59.9115 123.091 59.9115 123.448V125.388Q59.9115 125.45 59.865 125.497Q59.8184 125.544 59.7563 125.544Q59.6865 125.544 59.6438 125.497Q59.6011 125.45 59.6011 125.388V121.826Q59.6011 121.764 59.6477 121.717Q59.6942 121.671 59.7563 121.671Q59.8262 121.671 59.8689 121.717Q59.9115 121.764 59.9115 121.826V122.649Q60.09 122.175 60.4665 121.865Q60.8429 121.554 61.3551 121.547Q61.7121 121.547 61.7121 121.725ZM65.6548 124.752Q65.6548 124.806 65.6237 124.845Q65.3676 125.187 64.9873 125.404Q64.607 125.621 64.1724 125.621Q63.5903 125.621 63.1402 125.373Q62.69 125.125 62.4378 124.667Q62.1856 124.209 62.1856 123.603Q62.1856 122.982 62.43 122.513Q62.6745 122.043 63.0781 121.795Q63.4817 121.547 63.9396 121.547Q64.3975 121.547 64.7894 121.745Q65.1813 121.942 65.4297 122.338Q65.678 122.734 65.6936 123.316Q65.6936 123.378 65.647 123.429Q65.6004 123.479 65.5384 123.479H62.4882V123.58Q62.4882 124.061 62.6823 124.461Q62.8763 124.861 63.2566 125.093Q63.6369 125.326 64.1724 125.326Q64.5449 125.326 64.8748 125.144Q65.2046 124.962 65.3909 124.682Q65.4452 124.612 65.5228 124.612Q65.5772 124.612 65.616 124.655Q65.6548 124.698 65.6548 124.752ZM62.5193 123.184H65.3754V123.114Q65.3366 122.719 65.1231 122.435Q64.9097 122.152 64.5954 122.005Q64.2811 121.857 63.9396 121.857Q63.6524 121.857 63.3536 122.008Q63.0548 122.16 62.8258 122.459Q62.5969 122.757 62.5193 123.184Z" style="fill:#000000;stroke:#000000;stroke-width:0.265;stroke-linecap:square" />
            <g id="gemstones" style="stroke-width:0;fill:#0000ff;stroke:#2e2114;stroke-linecap:square;stroke-opacity:1">
                <path d="m 33.250,122.900 q 0,0.34175 -0.242534,0.63114 -0.0441,0.0524 -0.20395,0.21497 -0.187413,0.19017 -0.785481,0.81304 l -1.444183,1.51309 q -0.01929,0.003 -0.0441,0.003 -0.02756,0 -0.04134,-0.003 -0.08268,-0.0827 -0.647678,-0.67524 -0.468532,-0.47404 -0.934309,-0.94809 -0.556727,-0.56775 -0.89848,-0.98116 -0.132292,-0.15985 -0.168121,-0.29766 -0.02756,-0.10197 -0.02756,-0.34175 0,-0.11024 0.07166,-0.28939 0.06614,-0.16536 0.140559,-0.26458 0.118512,-0.1571 0.42168,-0.42444 0.283875,-0.2508 0.474044,-0.37482 0.272852,-0.17915 0.818555,-0.36656 0.09646,-0.0331 0.110243,-0.0331 h 1.3615 q 0.01102,0 0.104731,0.0331 0.567751,0.20119 0.824066,0.36656 0.165365,0.10473 0.474045,0.37758 0.322461,0.28388 0.421679,0.42168 0.214974,0.2949 0.214974,0.62563 z m -0.16812,-0.27285 q -0.03307,-0.10749 -0.135048,-0.30868 -0.07166,-0.0937 -0.209462,-0.19844 -0.118511,-0.0854 -0.234266,-0.17088 0.245291,0.3638 0.578776,0.678 z m -0.573264,-0.52366 -0.358289,-0.44648 v 0.41065 z m 0.636653,0.75792 q 0,-0.0524 -0.341753,-0.39412 l 0.228754,0.7028 h 0.04961 q 0.06339,-0.21773 0.06339,-0.30868 z m -0.23151,0.27285 -0.316948,-0.90399 -0.410655,-0.0634 -0.159853,0.61461 z m 0.0028,0.15434 -0.771701,-0.3197 h -0.03032 l 0.344509,0.60634 q 0.07993,-0.003 0.234266,-0.0469 0.02481,-0.0138 0.223242,-0.23978 z m -0.857139,-1.05006 -0.719335,0.28388 0.60358,0.22599 z m 0,-0.16261 v -0.51538 l -0.917773,-0.38034 h -1.223697 l -0.917772,0.38034 v 0.51538 l 0.89848,0.4079 h 1.254014 z m 0.573264,1.53789 q -0.0689,0.011 -0.198438,0.0524 -0.08544,0.0551 -0.259071,0.16261 0.01929,0 0.06339,0.003 0.04134,0 0.06339,0 0.118511,0 0.190169,-0.0689 0.07166,-0.0717 0.14056,-0.14883 z m -0.289388,0.003 -0.347266,-0.63114 -0.363801,0.87918 q 0.0248,-0.0165 0.06615,-0.0165 0.03032,0 0.08544,0.011 0.05788,0.008 0.08819,0.008 0.04961,0 0.228754,-0.10749 0.228754,-0.1378 0.242535,-0.14331 z m -0.440972,-0.74139 -0.683507,-0.2756 -0.592556,0.54845 0.903993,0.65595 z m -0.854383,-0.28387 h -1.036284 l 0.523654,0.47404 z m 0.749652,1.36701 q -0.228754,-0.0303 -0.228754,-0.0303 -0.03583,0 -0.272851,0.0937 l 0.190169,0.0193 q 0.01102,0 0.311436,-0.0827 z m -0.388606,-0.0882 -0.843359,-0.61185 v 0.67524 l 0.471289,0.0827 z m 0.854383,0.0496 q -0.09922,0.006 -0.2949,0.0386 -0.01102,0.003 -0.377583,0.17639 -0.129535,0.34726 -0.380338,1.0418 z m -2.543857,-1.39733 -0.719335,-0.28388 0.124023,0.51814 z m -0.802018,-0.45476 v -0.41065 l -0.366557,0.44648 z m 1.515841,1.07212 -0.592556,-0.54019 -0.683506,0.2756 0.380338,0.9288 z m 0.369314,0.94257 q -0.03307,-0.003 -0.135047,-0.0248 -0.08544,-0.0165 -0.137804,-0.0165 -0.05237,0 -0.137804,0.0165 -0.101975,0.0221 -0.135047,0.0248 0.264583,0.0469 0.272851,0.0469 0.0083,0 0.272851,-0.0469 z m -0.30868,-0.1378 v -0.68626 l -0.843359,0.61185 0.37207,0.14607 z m 0.950846,0.20671 -0.396875,-0.0551 -0.479557,0.14056 v 1.27607 z m -2.888366,-2.20211 q -0.118512,0.0854 -0.234267,0.17364 -0.146072,0.10748 -0.209461,0.19568 -0.0441,0.10473 -0.135048,0.31419 0.369314,-0.3638 0.578776,-0.68351 z m 0.476801,0.83234 -0.159853,-0.61461 -0.410655,0.0634 -0.316948,0.90399 z m 0.394118,1.08313 -0.363802,-0.87918 -0.355533,0.63114 q 0.43546,0.2508 0.451996,0.2508 0.09095,0 0.267339,-0.003 z m 1.821765,0.82958 q -0.132291,0.21222 -0.405143,0.6339 -0.07717,0.10749 -0.220486,0.32797 -0.05788,0.10473 -0.05512,0.226 0.159852,-0.15158 0.432704,-0.49609 0.07717,-0.12954 0.140559,-0.339 0.05512,-0.17639 0.107486,-0.35278 z m -1.493792,-0.66146 -0.270095,-0.0882 -0.0083,-0.011 q -0.02481,0 -0.107487,0.011 -0.06615,0.006 -0.107487,0.006 0.272851,0.091 0.311436,0.091 0.02481,0 0.181901,-0.008 z m -0.810286,-1.06384 h -0.03032 l -0.7717,0.3197 q 0.06615,0.0965 0.223242,0.23978 0.07717,0.0138 0.234266,0.0469 z m -0.689018,-0.50161 q -0.341754,0.34727 -0.341754,0.39412 0,0.0799 0.06339,0.30868 h 0.04961 z m 2.235176,3.04547 v -1.27607 l -0.479557,-0.14056 -0.396875,0.0551 z m -1.606791,-1.6757 q -0.256315,-0.1819 -0.457509,-0.22324 0.06615,0.0772 0.20395,0.22324 z m 1.609547,2.04501 v -0.1378 l -0.683507,-1.05007 q 0.05237,0.17639 0.107487,0.35278 0.06339,0.20946 0.14056,0.339 0.0689,0.11851 0.20395,0.25907 0.115755,0.11851 0.23151,0.23702 z m -0.644921,-0.70555 q -0.115756,-0.32798 -0.380339,-1.0418 -0.135047,-0.0662 -0.272851,-0.12954 -0.159852,-0.0716 -0.289388,-0.0716 -0.05237,0 -0.110243,-0.0138 z" />
                <path d="m 73.780,122.900 q 0,0.34175 -0.242534,0.63114 -0.0441,0.0524 -0.20395,0.21497 -0.187413,0.19017 -0.785481,0.81304 l -1.444183,1.51309 q -0.01929,0.003 -0.0441,0.003 -0.02756,0 -0.04134,-0.003 -0.08268,-0.0827 -0.647678,-0.67524 -0.468532,-0.47404 -0.934309,-0.94809 -0.556727,-0.56775 -0.89848,-0.98116 -0.132292,-0.15985 -0.168121,-0.29766 -0.02756,-0.10197 -0.02756,-0.34175 0,-0.11024 0.07166,-0.28939 0.06614,-0.16536 0.140559,-0.26458 0.118512,-0.1571 0.42168,-0.42444 0.283875,-0.2508 0.474044,-0.37482 0.272852,-0.17915 0.818555,-0.36656 0.09646,-0.0331 0.110243,-0.0331 h 1.3615 q 0.01102,0 0.104731,0.0331 0.567751,0.20119 0.824066,0.36656 0.165365,0.10473 0.474045,0.37758 0.322461,0.28388 0.421679,0.42168 0.214974,0.2949 0.214974,0.62563 z m -0.16812,-0.27285 q -0.03307,-0.10749 -0.135048,-0.30868 -0.07166,-0.0937 -0.209462,-0.19844 -0.118511,-0.0854 -0.234266,-0.17088 0.245291,0.3638 0.578776,0.678 z m -0.573264,-0.52366 -0.358289,-0.44648 v 0.41065 z m 0.636653,0.75792 q 0,-0.0524 -0.341753,-0.39412 l 0.228754,0.7028 h 0.04961 q 0.06339,-0.21773 0.06339,-0.30868 z m -0.23151,0.27285 -0.316948,-0.90399 -0.410655,-0.0634 -0.159853,0.61461 z m 0.0028,0.15434 -0.771701,-0.3197 h -0.03032 l 0.344509,0.60634 q 0.07993,-0.003 0.234266,-0.0469 0.02481,-0.0138 0.223242,-0.23978 z m -0.857139,-1.05006 -0.719335,0.28388 0.60358,0.22599 z m 0,-0.16261 v -0.51538 l -0.917773,-0.38034 h -1.223697 l -0.917772,0.38034 v 0.51538 l 0.89848,0.4079 h 1.254014 z m 0.573264,1.53789 q -0.0689,0.011 -0.198438,0.0524 -0.08544,0.0551 -0.259071,0.16261 0.01929,0 0.06339,0.003 0.04134,0 0.06339,0 0.118511,0 0.190169,-0.0689 0.07166,-0.0717 0.14056,-0.14883 z m -0.289388,0.003 -0.347266,-0.63114 -0.363801,0.87918 q 0.0248,-0.0165 0.06615,-0.0165 0.03032,0 0.08544,0.011 0.05788,0.008 0.08819,0.008 0.04961,0 0.228754,-0.10749 0.228754,-0.1378 0.242535,-0.14331 z m -0.440972,-0.74139 -0.683507,-0.2756 -0.592556,0.54845 0.903993,0.65595 z m -0.854383,-0.28387 h -1.036284 l 0.523654,0.47404 z m 0.749652,1.36701 q -0.228754,-0.0303 -0.228754,-0.0303 -0.03583,0 -0.272851,0.0937 l 0.190169,0.0193 q 0.01102,0 0.311436,-0.0827 z m -0.388606,-0.0882 -0.843359,-0.61185 v 0.67524 l 0.471289,0.0827 z m 0.854383,0.0496 q -0.09922,0.006 -0.2949,0.0386 -0.01102,0.003 -0.377583,0.17639 -0.129535,0.34726 -0.380338,1.0418 z m -2.543857,-1.39733 -0.719335,-0.28388 0.124023,0.51814 z m -0.802018,-0.45476 v -0.41065 l -0.366557,0.44648 z m 1.515841,1.07212 -0.592556,-0.54019 -0.683506,0.2756 0.380338,0.9288 z m 0.369314,0.94257 q -0.03307,-0.003 -0.135047,-0.0248 -0.08544,-0.0165 -0.137804,-0.0165 -0.05237,0 -0.137804,0.0165 -0.101975,0.0221 -0.135047,0.0248 0.264583,0.0469 0.272851,0.0469 0.0083,0 0.272851,-0.0469 z m -0.30868,-0.1378 v -0.68626 l -0.843359,0.61185 0.37207,0.14607 z m 0.950846,0.20671 -0.396875,-0.0551 -0.479557,0.14056 v 1.27607 z m -2.888366,-2.20211 q -0.118512,0.0854 -0.234267,0.17364 -0.146072,0.10748 -0.209461,0.19568 -0.0441,0.10473 -0.135048,0.31419 0.369314,-0.3638 0.578776,-0.68351 z m 0.476801,0.83234 -0.159853,-0.61461 -0.410655,0.0634 -0.316948,0.90399 z m 0.394118,1.08313 -0.363802,-0.87918 -0.355533,0.63114 q 0.43546,0.2508 0.451996,0.2508 0.09095,0 0.267339,-0.003 z m 1.821765,0.82958 q -0.132291,0.21222 -0.405143,0.6339 -0.07717,0.10749 -0.220486,0.32797 -0.05788,0.10473 -0.05512,0.226 0.159852,-0.15158 0.432704,-0.49609 0.07717,-0.12954 0.140559,-0.339 0.05512,-0.17639 0.107486,-0.35278 z m -1.493792,-0.66146 -0.270095,-0.0882 -0.0083,-0.011 q -0.02481,0 -0.107487,0.011 -0.06615,0.006 -0.107487,0.006 0.272851,0.091 0.311436,0.091 0.02481,0 0.181901,-0.008 z m -0.810286,-1.06384 h -0.03032 l -0.7717,0.3197 q 0.06615,0.0965 0.223242,0.23978 0.07717,0.0138 0.234266,0.0469 z m -0.689018,-0.50161 q -0.341754,0.34727 -0.341754,0.39412 0,0.0799 0.06339,0.30868 h 0.04961 z m 2.235176,3.04547 v -1.27607 l -0.479557,-0.14056 -0.396875,0.0551 z m -1.606791,-1.6757 q -0.256315,-0.1819 -0.457509,-0.22324 0.06615,0.0772 0.20395,0.22324 z m 1.609547,2.04501 v -0.1378 l -0.683507,-1.05007 q 0.05237,0.17639 0.107487,0.35278 0.06339,0.20946 0.14056,0.339 0.0689,0.11851 0.20395,0.25907 0.115755,0.11851 0.23151,0.23702 z m -0.644921,-0.70555 q -0.115756,-0.32798 -0.380339,-1.0418 -0.135047,-0.0662 -0.272851,-0.12954 -0.159852,-0.0716 -0.289388,-0.0716 -0.05237,0 -0.110243,-0.0138 z" />
            </g>
        </g>
        <path d="M6.48347 12.6499V14.9783Q6.48347 15.0065 6.4623 15.0277Q6.44113 15.0488 6.40938 15.0488Q6.37763 15.0488 6.35647 15.0277Q6.3353 15.0065 6.3353 14.9783V12.784L5.82025 13.0909Q5.80966 13.098 5.79202 13.098Q5.76027 13.098 5.73734 13.0715Q5.71441 13.0451 5.71441 13.0204Q5.71441 12.9886 5.75322 12.9604L6.37058 12.59Q6.38822 12.5759 6.41291 12.5759Q6.44466 12.5759 6.46406 12.597Q6.48347 12.6182 6.48347 12.6499ZM7.04791 13.8141Q7.04791 13.4543 7.13963 13.1668Q7.23136 12.8793 7.41656 12.7117Q7.60177 12.5441 7.87341 12.5441Q8.14505 12.5441 8.33026 12.7117Q8.51547 12.8793 8.60719 13.1668Q8.69891 13.4543 8.69891 13.8141Q8.69891 14.1739 8.60719 14.4615Q8.51547 14.749 8.33026 14.9165Q8.14505 15.0841 7.87341 15.0841Q7.60177 15.0841 7.41656 14.9165Q7.23136 14.749 7.13963 14.4615Q7.04791 14.1739 7.04791 13.8141ZM8.55075 13.8141Q8.55075 13.3061 8.37612 12.9992Q8.2015 12.6923 7.87341 12.6923Q7.54533 12.6923 7.3707 12.9992Q7.19608 13.3061 7.19608 13.8141Q7.19608 14.3221 7.3707 14.629Q7.54533 14.9359 7.87341 14.9359Q8.2015 14.9359 8.37612 14.629Q8.55075 14.3221 8.55075 13.8141ZM9.12225 13.8141Q9.12225 13.4543 9.21397 13.1668Q9.30569 12.8793 9.4909 12.7117Q9.67611 12.5441 9.94775 12.5441Q10.2194 12.5441 10.4046 12.7117Q10.5898 12.8793 10.6815 13.1668Q10.7732 13.4543 10.7732 13.8141Q10.7732 14.1739 10.6815 14.4615Q10.5898 14.749 10.4046 14.9165Q10.2194 15.0841 9.94775 15.0841Q9.67611 15.0841 9.4909 14.9165Q9.30569 14.749 9.21397 14.4615Q9.12225 14.1739 9.12225 13.8141ZM10.6251 13.8141Q10.6251 13.3061 10.4505 12.9992Q10.2758 12.6923 9.94775 12.6923Q9.61966 12.6923 9.44504 12.9992Q9.27041 13.3061 9.27041 13.8141Q9.27041 14.3221 9.44504 14.629Q9.61966 14.9359 9.94775 14.9359Q10.2758 14.9359 10.4505 14.629Q10.6251 14.3221 10.6251 13.8141ZM14.1246 12.6535V14.9748Q14.1211 15.0065 14.0999 15.0277Q14.0788 15.0488 14.0506 15.0488Q14.0153 15.0488 13.9959 15.0277Q13.9765 15.0065 13.9765 14.9748V13.8494H12.4384V14.9748Q12.4348 15.0065 12.4137 15.0277Q12.3925 15.0488 12.3643 15.0488Q12.329 15.0488 12.3096 15.0277Q12.2902 15.0065 12.2902 14.9748V12.6535Q12.2902 12.6217 12.3114 12.6006Q12.3325 12.5794 12.3643 12.5794Q12.396 12.5794 12.4172 12.6006Q12.4384 12.6217 12.4384 12.6535V13.7083H13.9765V12.6535Q13.9765 12.6217 13.9976 12.6006Q14.0188 12.5794 14.0506 12.5794Q14.0823 12.5794 14.1035 12.6006Q14.1246 12.6217 14.1246 12.6535ZM15.9661 13.352 14.8514 14.9148H15.8779Q15.9062 14.9148 15.9273 14.9359Q15.9485 14.9571 15.9485 14.9818Q15.9485 15.01 15.9273 15.0294Q15.9062 15.0488 15.8779 15.0488H14.7279Q14.6961 15.0488 14.675 15.0241Q14.6538 14.9994 14.6538 14.9783Q14.6538 14.9571 14.6714 14.9324L15.7862 13.3661H14.8337Q14.8055 13.3661 14.7843 13.3467Q14.7632 13.3273 14.7632 13.2991Q14.7632 13.2708 14.7843 13.2514Q14.8055 13.232 14.8337 13.232H15.9132Q15.9414 13.232 15.9608 13.2532Q15.9802 13.2744 15.9838 13.3026Q15.9838 13.3273 15.9661 13.352Z" style="stroke:#000000;stroke-width:0.25;stroke-linecap:round;stroke-linejoin:bevel" />
        <path d="M 10.16,23.00 L 5.16,34.00 z L 15.16,34.00 z " style="stroke:#000000;stroke-width:0.1;stroke-linecap:round;stroke-linejoin:bevel;stroke-dasharray:none" />
        <path d="M27.6431 14.2692Q27.6431 14.5056 27.5284 14.6908Q27.4138 14.876 27.2197 14.98Q27.0257 15.0841 26.7999 15.0841Q26.6412 15.0841 26.4983 15.0277Q26.3554 14.9712 26.2496 14.8583Q26.2284 14.8372 26.2284 14.8089Q26.2284 14.7807 26.2496 14.756Q26.2708 14.7313 26.3025 14.7313Q26.3343 14.7313 26.366 14.7666Q26.5212 14.9359 26.7999 14.9359Q26.994 14.9359 27.1527 14.8513Q27.3115 14.7666 27.4032 14.6132Q27.4949 14.4597 27.4949 14.2692Q27.4949 14.054 27.3979 13.9111Q27.3009 13.7683 27.1457 13.7012Q26.9904 13.6342 26.8176 13.6342Q26.7823 13.6342 26.7311 13.6395Q26.68 13.6448 26.6729 13.6448Q26.6412 13.6448 26.6218 13.6236Q26.6024 13.6024 26.6024 13.5672Q26.6024 13.5354 26.62 13.5178L27.3326 12.7205H26.2637Q26.2355 12.7205 26.2143 12.6993Q26.1932 12.6782 26.1932 12.6499Q26.1932 12.6182 26.2143 12.5988Q26.2355 12.5794 26.2637 12.5794H27.4843Q27.5231 12.5794 27.5408 12.6058Q27.5584 12.6323 27.5584 12.6535Q27.5584 12.6817 27.5372 12.7029L26.8352 13.4931Q26.8493 13.4896 26.8705 13.4896Q27.0681 13.4896 27.2444 13.5778Q27.4208 13.6659 27.532 13.8423Q27.6431 14.0187 27.6431 14.2692ZM29.7068 14.9783Q29.7068 15.01 29.6857 15.0294Q29.6645 15.0488 29.6363 15.0488H28.2746Q28.2393 15.0488 28.2128 15.0312Q28.1864 15.0136 28.1864 14.9748Q28.1864 14.9536 28.204 14.9289L29.033 14.0046Q29.2553 13.7683 29.3576 13.5901Q29.4599 13.4119 29.4599 13.2391Q29.4599 12.9745 29.3029 12.8299Q29.1459 12.6852 28.8531 12.6852Q28.6591 12.6852 28.5127 12.7717Q28.3663 12.8581 28.3028 13.0451Q28.2957 13.0662 28.2798 13.0839Q28.264 13.1015 28.2357 13.1015Q28.2111 13.1015 28.1846 13.0839Q28.1581 13.0662 28.1581 13.0451Q28.1581 13.0274 28.1758 12.9816Q28.2569 12.7699 28.4421 12.657Q28.6273 12.5441 28.8637 12.5441Q29.22 12.5441 29.4176 12.7311Q29.6151 12.9181 29.6151 13.225Q29.6151 13.4119 29.5128 13.6095Q29.4105 13.8071 29.1494 14.0893L28.4298 14.9077H29.6363Q29.6645 14.9077 29.6857 14.9289Q29.7068 14.9501 29.7068 14.9783ZM30.0949 13.8141Q30.0949 13.4543 30.1866 13.1668Q30.2783 12.8793 30.4635 12.7117Q30.6487 12.5441 30.9204 12.5441Q31.192 12.5441 31.3772 12.7117Q31.5624 12.8793 31.6542 13.1668Q31.7459 13.4543 31.7459 13.8141Q31.7459 14.1739 31.6542 14.4615Q31.5624 14.749 31.3772 14.9165Q31.192 15.0841 30.9204 15.0841Q30.6487 15.0841 30.4635 14.9165Q30.2783 14.749 30.1866 14.4615Q30.0949 14.1739 30.0949 13.8141ZM31.5977 13.8141Q31.5977 13.3061 31.4231 12.9992Q31.2485 12.6923 30.9204 12.6923Q30.5923 12.6923 30.4177 12.9992Q30.2431 13.3061 30.2431 13.8141Q30.2431 14.3221 30.4177 14.629Q30.5923 14.9359 30.9204 14.9359Q31.2485 14.9359 31.4231 14.629Q31.5977 14.3221 31.5977 13.8141ZM35.0973 12.6535V14.9748Q35.0937 15.0065 35.0726 15.0277Q35.0514 15.0488 35.0232 15.0488Q34.9879 15.0488 34.9685 15.0277Q34.9491 15.0065 34.9491 14.9748V13.8494H33.411V14.9748Q33.4075 15.0065 33.3863 15.0277Q33.3651 15.0488 33.3369 15.0488Q33.3016 15.0488 33.2822 15.0277Q33.2628 15.0065 33.2628 14.9748V12.6535Q33.2628 12.6217 33.284 12.6006Q33.3052 12.5794 33.3369 12.5794Q33.3687 12.5794 33.3898 12.6006Q33.411 12.6217 33.411 12.6535V13.7083H34.9491V12.6535Q34.9491 12.6217 34.9703 12.6006Q34.9914 12.5794 35.0232 12.5794Q35.0549 12.5794 35.0761 12.6006Q35.0973 12.6217 35.0973 12.6535ZM36.9388 13.352 35.824 14.9148H36.8506Q36.8788 14.9148 36.9 14.9359Q36.9211 14.9571 36.9211 14.9818Q36.9211 15.01 36.9 15.0294Q36.8788 15.0488 36.8506 15.0488H35.7005Q35.6688 15.0488 35.6476 15.0241Q35.6264 14.9994 35.6264 14.9783Q35.6264 14.9571 35.6441 14.9324L36.7589 13.3661H35.8064Q35.7781 13.3661 35.757 13.3467Q35.7358 13.3273 35.7358 13.2991Q35.7358 13.2708 35.757 13.2514Q35.7781 13.232 35.8064 13.232H36.8859Q36.9141 13.232 36.9335 13.2532Q36.9529 13.2744 36.9564 13.3026Q36.9564 13.3273 36.9388 13.352Z" style="stroke:#000000;stroke-width:0.25;stroke-linecap:round;stroke-linejoin:bevel" />
        <path d="M 30.48,23.00 L 25.48,34.00 z L 35.48,34.00 z " style="stroke:#000000;stroke-width:0.1;stroke-linecap:round;stroke-linejoin:bevel;stroke-dasharray:none" />
        <path d="M47.3751 12.6499V14.9783Q47.3751 15.0065 47.3539 15.0277Q47.3328 15.0488 47.301 15.0488Q47.2693 15.0488 47.2481 15.0277Q47.2269 15.0065 47.2269 14.9783V12.784L46.7119 13.0909Q46.7013 13.098 46.6837 13.098Q46.6519 13.098 46.629 13.0715Q46.6061 13.0451 46.6061 13.0204Q46.6061 12.9886 46.6449 12.9604L47.2622 12.59Q47.2799 12.5759 47.3046 12.5759Q47.3363 12.5759 47.3557 12.597Q47.3751 12.6182 47.3751 12.6499ZM50.3773 14.9783Q50.3773 15.01 50.3508 15.0294Q50.3243 15.0488 50.3067 15.0488Q50.2785 15.0488 50.2538 15.0241L49.4283 14.1457L49.1319 14.3927V14.9783Q49.1319 15.0065 49.1125 15.0277Q49.0931 15.0488 49.0614 15.0488Q49.0296 15.0488 49.0102 15.0277Q48.9908 15.0065 48.9908 14.9783V12.5088Q48.9908 12.4806 49.0102 12.4594Q49.0296 12.4383 49.0614 12.4383Q49.0931 12.4383 49.1125 12.4594Q49.1319 12.4806 49.1319 12.5088V14.2163L50.2397 13.2885Q50.2608 13.2673 50.2855 13.2673Q50.3138 13.2673 50.3349 13.2885Q50.3561 13.3096 50.3561 13.3414Q50.3561 13.3731 50.3314 13.3943L49.5376 14.054L50.3561 14.9254Q50.3773 14.9465 50.3773 14.9783ZM52.7162 12.6535V14.9748Q52.7126 15.0065 52.6915 15.0277Q52.6703 15.0488 52.6421 15.0488Q52.6068 15.0488 52.5874 15.0277Q52.568 15.0065 52.568 14.9748V13.8494H51.0299V14.9748Q51.0264 15.0065 51.0052 15.0277Q50.984 15.0488 50.9558 15.0488Q50.9205 15.0488 50.9011 15.0277Q50.8817 15.0065 50.8817 14.9748V12.6535Q50.8817 12.6217 50.9029 12.6006Q50.9241 12.5794 50.9558 12.5794Q50.9876 12.5794 51.0087 12.6006Q51.0299 12.6217 51.0299 12.6535V13.7083H52.568V12.6535Q52.568 12.6217 52.5892 12.6006Q52.6103 12.5794 52.6421 12.5794Q52.6738 12.5794 52.695 12.6006Q52.7162 12.6217 52.7162 12.6535ZM54.5577 13.352 53.4429 14.9148H54.4695Q54.4977 14.9148 54.5189 14.9359Q54.54 14.9571 54.54 14.9818Q54.54 15.01 54.5189 15.0294Q54.4977 15.0488 54.4695 15.0488H53.3194Q53.2877 15.0488 53.2665 15.0241Q53.2453 14.9994 53.2453 14.9783Q53.2453 14.9571 53.263 14.9324L54.3778 13.3661H53.4253Q53.397 13.3661 53.3759 13.3467Q53.3547 13.3273 53.3547 13.2991Q53.3547 13.2708 53.3759 13.2514Q53.397 13.232 53.4253 13.232H54.5048Q54.533 13.232 54.5524 13.2532Q54.5718 13.2744 54.5753 13.3026Q54.5753 13.3273 54.5577 13.352Z" style="stroke:#000000;stroke-width:0.25;stroke-linecap:round;stroke-linejoin:bevel" />
        <path d="M 50.80,23.00 L 45.80,34.00 z L 55.80,34.00 z " style="stroke:#000000;stroke-width:0.1;stroke-linecap:round;stroke-linejoin:bevel;stroke-dasharray:none" />
        <path d="M67.3588 14.2692Q67.3588 14.5056 67.2441 14.6908Q67.1295 14.876 66.9355 14.98Q66.7414 15.0841 66.5157 15.0841Q66.3569 15.0841 66.214 15.0277Q66.0712 14.9712 65.9653 14.8583Q65.9442 14.8372 65.9442 14.8089Q65.9442 14.7807 65.9653 14.756Q65.9865 14.7313 66.0182 14.7313Q66.05 14.7313 66.0817 14.7666Q66.237 14.9359 66.5157 14.9359Q66.7097 14.9359 66.8684 14.8513Q67.0272 14.7666 67.1189 14.6132Q67.2106 14.4597 67.2106 14.2692Q67.2106 14.054 67.1136 13.9111Q67.0166 13.7683 66.8614 13.7012Q66.7062 13.6342 66.5333 13.6342Q66.498 13.6342 66.4469 13.6395Q66.3957 13.6448 66.3887 13.6448Q66.3569 13.6448 66.3375 13.6236Q66.3181 13.6024 66.3181 13.5672Q66.3181 13.5354 66.3357 13.5178L67.0484 12.7205H65.9794Q65.9512 12.7205 65.9301 12.6993Q65.9089 12.6782 65.9089 12.6499Q65.9089 12.6182 65.9301 12.5988Q65.9512 12.5794 65.9794 12.5794H67.2001Q67.2389 12.5794 67.2565 12.6058Q67.2741 12.6323 67.2741 12.6535Q67.2741 12.6817 67.253 12.7029L66.5509 13.4931Q66.5651 13.4896 66.5862 13.4896Q66.7838 13.4896 66.9602 13.5778Q67.1366 13.6659 67.2477 13.8423Q67.3588 14.0187 67.3588 14.2692ZM67.7398 14.9395V14.8583Q67.7398 14.8089 67.7645 14.779Q67.7892 14.749 67.8351 14.749H67.8492Q67.895 14.749 67.9197 14.779Q67.9444 14.8089 67.9444 14.8583V14.9395Q67.9444 14.9889 67.9197 15.0188Q67.895 15.0488 67.8492 15.0488H67.8351Q67.7892 15.0488 67.7645 15.0188Q67.7398 14.9889 67.7398 14.9395ZM69.9799 14.9783Q69.9799 15.01 69.9588 15.0294Q69.9376 15.0488 69.9094 15.0488H68.5477Q68.5124 15.0488 68.4859 15.0312Q68.4595 15.0136 68.4595 14.9748Q68.4595 14.9536 68.4771 14.9289L69.3061 14.0046Q69.5284 13.7683 69.6307 13.5901Q69.733 13.4119 69.733 13.2391Q69.733 12.9745 69.576 12.8299Q69.419 12.6852 69.1262 12.6852Q68.9322 12.6852 68.7858 12.7717Q68.6394 12.8581 68.5759 13.0451Q68.5688 13.0662 68.553 13.0839Q68.5371 13.1015 68.5089 13.1015Q68.4842 13.1015 68.4577 13.0839Q68.4312 13.0662 68.4312 13.0451Q68.4312 13.0274 68.4489 12.9816Q68.53 12.7699 68.7152 12.657Q68.9004 12.5441 69.1368 12.5441Q69.4931 12.5441 69.6907 12.7311Q69.8882 12.9181 69.8882 13.225Q69.8882 13.4119 69.7859 13.6095Q69.6836 13.8071 69.4226 14.0893L68.7029 14.9077H69.9094Q69.9376 14.9077 69.9588 14.9289Q69.9799 14.9501 69.9799 14.9783ZM72.8057 14.9783Q72.8057 15.01 72.7792 15.0294Q72.7528 15.0488 72.7351 15.0488Q72.7069 15.0488 72.6822 15.0241L71.8567 14.1457L71.5604 14.3927V14.9783Q71.5604 15.0065 71.541 15.0277Q71.5216 15.0488 71.4898 15.0488Q71.4581 15.0488 71.4387 15.0277Q71.4193 15.0065 71.4193 14.9783V12.5088Q71.4193 12.4806 71.4387 12.4594Q71.4581 12.4383 71.4898 12.4383Q71.5216 12.4383 71.541 12.4594Q71.5604 12.4806 71.5604 12.5088V14.2163L72.6681 13.2885Q72.6893 13.2673 72.714 13.2673Q72.7422 13.2673 72.7634 13.2885Q72.7845 13.3096 72.7845 13.3414Q72.7845 13.3731 72.7598 13.3943L71.9661 14.054L72.7845 14.9254Q72.8057 14.9465 72.8057 14.9783ZM75.1446 12.6535V14.9748Q75.1411 15.0065 75.1199 15.0277Q75.0987 15.0488 75.0705 15.0488Q75.0352 15.0488 75.0158 15.0277Q74.9964 15.0065 74.9964 14.9748V13.8494H73.4583V14.9748Q73.4548 15.0065 73.4336 15.0277Q73.4125 15.0488 73.3842 15.0488Q73.349 15.0488 73.3296 15.0277Q73.3102 15.0065 73.3102 14.9748V12.6535Q73.3102 12.6217 73.3313 12.6006Q73.3525 12.5794 73.3842 12.5794Q73.416 12.5794 73.4372 12.6006Q73.4583 12.6217 73.4583 12.6535V13.7083H74.9964V12.6535Q74.9964 12.6217 75.0176 12.6006Q75.0388 12.5794 75.0705 12.5794Q75.1023 12.5794 75.1234 12.6006Q75.1446 12.6217 75.1446 12.6535ZM76.9861 13.352 75.8713 14.9148H76.8979Q76.9261 14.9148 76.9473 14.9359Q76.9685 14.9571 76.9685 14.9818Q76.9685 15.01 76.9473 15.0294Q76.9261 15.0488 76.8979 15.0488H75.7479Q75.7161 15.0488 75.6949 15.0241Q75.6738 14.9994 75.6738 14.9783Q75.6738 14.9571 75.6914 14.9324L76.8062 13.3661H75.8537Q75.8255 13.3661 75.8043 13.3467Q75.7831 13.3273 75.7831 13.2991Q75.7831 13.2708 75.8043 13.2514Q75.8255 13.232 75.8537 13.232H76.9332Q76.9614 13.232 76.9808 13.2532Q77.0002 13.2744 77.0037 13.3026Q77.0037 13.3273 76.9861 13.352Z" style="stroke:#000000;stroke-width:0.25;stroke-linecap:round;stroke-linejoin:bevel" />
        <path d="M 71.12,23.00 L 66.12,34.00 z L 76.12,34.00 z " style="stroke:#000000;stroke-width:0.1;stroke-linecap:round;stroke-linejoin:bevel;stroke-dasharray:none" />
        <path d="M87.4272 12.6499V14.9783Q87.4272 15.0065 87.406 15.0277Q87.3848 15.0488 87.3531 15.0488Q87.3213 15.0488 87.3002 15.0277Q87.279 15.0065 87.279 14.9783V12.784L86.7639 13.0909Q86.7533 13.098 86.7357 13.098Q86.704 13.098 86.681 13.0715Q86.6581 13.0451 86.6581 13.0204Q86.6581 12.9886 86.6969 12.9604L87.3143 12.59Q87.3319 12.5759 87.3566 12.5759Q87.3883 12.5759 87.4077 12.597Q87.4272 12.6182 87.4272 12.6499ZM87.9916 13.8141Q87.9916 13.4543 88.0833 13.1668Q88.175 12.8793 88.3602 12.7117Q88.5455 12.5441 88.8171 12.5441Q89.0887 12.5441 89.2739 12.7117Q89.4592 12.8793 89.5509 13.1668Q89.6426 13.4543 89.6426 13.8141Q89.6426 14.1739 89.5509 14.4615Q89.4592 14.749 89.2739 14.9165Q89.0887 15.0841 88.8171 15.0841Q88.5455 15.0841 88.3602 14.9165Q88.175 14.749 88.0833 14.4615Q87.9916 14.1739 87.9916 13.8141ZM89.4944 13.8141Q89.4944 13.3061 89.3198 12.9992Q89.1452 12.6923 88.8171 12.6923Q88.489 12.6923 88.3144 12.9992Q88.1398 13.3061 88.1398 13.8141Q88.1398 14.3221 88.3144 14.629Q88.489 14.9359 88.8171 14.9359Q89.1452 14.9359 89.3198 14.629Q89.4944 14.3221 89.4944 13.8141ZM92.5036 14.9783Q92.5036 15.01 92.4772 15.0294Q92.4507 15.0488 92.4331 15.0488Q92.4048 15.0488 92.3802 15.0241L91.5547 14.1457L91.2583 14.3927V14.9783Q91.2583 15.0065 91.2389 15.0277Q91.2195 15.0488 91.1878 15.0488Q91.156 15.0488 91.1366 15.0277Q91.1172 15.0065 91.1172 14.9783V12.5088Q91.1172 12.4806 91.1366 12.4594Q91.156 12.4383 91.1878 12.4383Q91.2195 12.4383 91.2389 12.4594Q91.2583 12.4806 91.2583 12.5088V14.2163L92.366 13.2885Q92.3872 13.2673 92.4119 13.2673Q92.4401 13.2673 92.4613 13.2885Q92.4825 13.3096 92.4825 13.3414Q92.4825 13.3731 92.4578 13.3943L91.664 14.054L92.4825 14.9254Q92.5036 14.9465 92.5036 14.9783ZM94.8425 12.6535V14.9748Q94.839 15.0065 94.8178 15.0277Q94.7967 15.0488 94.7685 15.0488Q94.7332 15.0488 94.7138 15.0277Q94.6944 15.0065 94.6944 14.9748V13.8494H93.1563V14.9748Q93.1527 15.0065 93.1316 15.0277Q93.1104 15.0488 93.0822 15.0488Q93.0469 15.0488 93.0275 15.0277Q93.0081 15.0065 93.0081 14.9748V12.6535Q93.0081 12.6217 93.0293 12.6006Q93.0504 12.5794 93.0822 12.5794Q93.1139 12.5794 93.1351 12.6006Q93.1563 12.6217 93.1563 12.6535V13.7083H94.6944V12.6535Q94.6944 12.6217 94.7155 12.6006Q94.7367 12.5794 94.7685 12.5794Q94.8002 12.5794 94.8214 12.6006Q94.8425 12.6217 94.8425 12.6535ZM96.684 13.352 95.5693 14.9148H96.5958Q96.6241 14.9148 96.6452 14.9359Q96.6664 14.9571 96.6664 14.9818Q96.6664 15.01 96.6452 15.0294Q96.6241 15.0488 96.5958 15.0488H95.4458Q95.414 15.0488 95.3929 15.0241Q95.3717 14.9994 95.3717 14.9783Q95.3717 14.9571 95.3893 14.9324L96.5041 13.3661H95.5516Q95.5234 13.3661 95.5022 13.3467Q95.4811 13.3273 95.4811 13.2991Q95.4811 13.2708 95.5022 13.2514Q95.5234 13.232 95.5516 13.232H96.6311Q96.6593 13.232 96.6787 13.2532Q96.6982 13.2744 96.7017 13.3026Q96.7017 13.3273 96.684 13.352Z" style="stroke:#000000;stroke-width:0.25;stroke-linecap:round;stroke-linejoin:bevel" />
        <path d="M 91.44,23.00 L 86.44,34.00 z L 96.44,34.00 z " style="stroke:#000000;stroke-width:0.1;stroke-linecap:round;stroke-linejoin:bevel;stroke-dasharray:none" />
        <path d="M6.93208 42.0488Q6.90033 42.0488 6.88093 42.0277Q6.86153 42.0065 6.86153 41.9783V39.5088Q6.86153 39.4806 6.88269 39.4594Q6.90386 39.4383 6.93208 39.4383Q6.96383 39.4383 6.98324 39.4594Q7.00264 39.4806 7.00264 39.5088V41.9783Q7.00264 42.0065 6.98147 42.0277Q6.96031 42.0488 6.93208 42.0488ZM9.05933 41.689Q9.05933 41.7137 9.04522 41.7313Q8.92881 41.8866 8.75594 41.9853Q8.58308 42.0841 8.38553 42.0841Q8.12094 42.0841 7.91633 41.9712Q7.71172 41.8583 7.59707 41.6502Q7.48242 41.4421 7.48242 41.1669Q7.48242 40.8847 7.59354 40.6712Q7.70467 40.4578 7.88811 40.3449Q8.07156 40.232 8.27969 40.232Q8.48783 40.232 8.66599 40.322Q8.84414 40.4119 8.95703 40.5919Q9.06992 40.7718 9.07697 41.0364Q9.07697 41.0646 9.05581 41.0875Q9.03464 41.1104 9.00642 41.1104H7.62V41.1563Q7.62 41.375 7.70819 41.5567Q7.79639 41.7384 7.96925 41.8442Q8.14211 41.9501 8.38553 41.9501Q8.55486 41.9501 8.70479 41.8672Q8.85472 41.7842 8.93939 41.6572Q8.96408 41.6255 8.99936 41.6255Q9.02406 41.6255 9.04169 41.6449Q9.05933 41.6643 9.05933 41.689ZM7.63411 40.9764H8.93233V40.9446Q8.91469 40.7647 8.81768 40.636Q8.72067 40.5072 8.57779 40.4402Q8.43492 40.3731 8.27969 40.3731Q8.14917 40.3731 8.01335 40.4419Q7.87753 40.5107 7.77346 40.6465Q7.66939 40.7824 7.63411 40.9764ZM10.9396 40.2814Q10.9396 40.3026 10.9291 40.3237L10.227 42.003Q10.22 42.0241 10.2006 42.0365Q10.1812 42.0488 10.16 42.0488Q10.1388 42.0488 10.1194 42.0365Q10.1 42.0241 10.093 42.003L9.38742 40.3273Q9.38036 40.3061 9.38036 40.2955Q9.38036 40.2673 9.39976 40.2461Q9.41917 40.225 9.45444 40.225Q9.47208 40.225 9.49149 40.2373Q9.51089 40.2497 9.51794 40.2708L10.1565 41.8054L10.7985 40.2708Q10.8162 40.225 10.8726 40.225Q10.8938 40.225 10.9167 40.2408Q10.9396 40.2567 10.9396 40.2814ZM12.8199 41.689Q12.8199 41.7137 12.8058 41.7313Q12.6894 41.8866 12.5166 41.9853Q12.3437 42.0841 12.1461 42.0841Q11.8816 42.0841 11.6769 41.9712Q11.4723 41.8583 11.3577 41.6502Q11.243 41.4421 11.243 41.1669Q11.243 40.8847 11.3542 40.6712Q11.4653 40.4578 11.6487 40.3449Q11.8322 40.232 12.0403 40.232Q12.2484 40.232 12.4266 40.322Q12.6047 40.4119 12.7176 40.5919Q12.8305 40.7718 12.8376 41.0364Q12.8376 41.0646 12.8164 41.0875Q12.7952 41.1104 12.767 41.1104H11.3806V41.1563Q11.3806 41.375 11.4688 41.5567Q11.557 41.7384 11.7299 41.8442Q11.9027 41.9501 12.1461 41.9501Q12.3155 41.9501 12.4654 41.8672Q12.6153 41.7842 12.7 41.6572Q12.7247 41.6255 12.76 41.6255Q12.7847 41.6255 12.8023 41.6449Q12.8199 41.6643 12.8199 41.689ZM11.3947 40.9764H12.6929V40.9446Q12.6753 40.7647 12.5783 40.636Q12.4813 40.5072 12.3384 40.4402Q12.1955 40.3731 12.0403 40.3731Q11.9098 40.3731 11.774 40.4419Q11.6381 40.5107 11.5341 40.6465Q11.43 40.7824 11.3947 40.9764ZM13.3879 42.0488Q13.3562 42.0488 13.3368 42.0277Q13.3174 42.0065 13.3174 41.9783V39.5088Q13.3174 39.4806 13.3385 39.4594Q13.3597 39.4383 13.3879 39.4383Q13.4197 39.4383 13.4391 39.4594Q13.4585 39.4806 13.4585 39.5088V41.9783Q13.4585 42.0065 13.4373 42.0277Q13.4161 42.0488 13.3879 42.0488Z" style="stroke:#000000;stroke-width:0.25;stroke-linecap:round;stroke-linejoin:bevel" />
        <path d="M 10.16,50.00 L 5.16,61.00 z L 15.16,61.00 z " style="stroke:#000000;stroke-width:0.1;stroke-linecap:round;stroke-linejoin:bevel;stroke-dasharray:none" />
        <path d="M27.2521 42.0488Q27.2203 42.0488 27.2009 42.0277Q27.1815 42.0065 27.1815 41.9783V39.5088Q27.1815 39.4806 27.2027 39.4594Q27.2239 39.4383 27.2521 39.4383Q27.2838 39.4383 27.3032 39.4594Q27.3226 39.4806 27.3226 39.5088V41.9783Q27.3226 42.0065 27.3015 42.0277Q27.2803 42.0488 27.2521 42.0488ZM29.3793 41.689Q29.3793 41.7137 29.3652 41.7313Q29.2488 41.8866 29.0759 41.9853Q28.9031 42.0841 28.7055 42.0841Q28.4409 42.0841 28.2363 41.9712Q28.0317 41.8583 27.9171 41.6502Q27.8024 41.4421 27.8024 41.1669Q27.8024 40.8847 27.9135 40.6712Q28.0247 40.4578 28.2081 40.3449Q28.3916 40.232 28.5997 40.232Q28.8078 40.232 28.986 40.322Q29.1641 40.4119 29.277 40.5919Q29.3899 40.7718 29.397 41.0364Q29.397 41.0646 29.3758 41.0875Q29.3546 41.1104 29.3264 41.1104H27.94V41.1563Q27.94 41.375 28.0282 41.5567Q28.1164 41.7384 28.2892 41.8442Q28.4621 41.9501 28.7055 41.9501Q28.8749 41.9501 29.0248 41.8672Q29.1747 41.7842 29.2594 41.6572Q29.2841 41.6255 29.3194 41.6255Q29.3441 41.6255 29.3617 41.6449Q29.3793 41.6643 29.3793 41.689ZM27.9541 40.9764H29.2523V40.9446Q29.2347 40.7647 29.1377 40.636Q29.0407 40.5072 28.8978 40.4402Q28.7549 40.3731 28.5997 40.3731Q28.4692 40.3731 28.3333 40.4419Q28.1975 40.5107 28.0935 40.6465Q27.9894 40.7824 27.9541 40.9764ZM31.2596 40.2814Q31.2596 40.3026 31.2491 40.3237L30.547 42.003Q30.54 42.0241 30.5206 42.0365Q30.5012 42.0488 30.48 42.0488Q30.4588 42.0488 30.4394 42.0365Q30.42 42.0241 30.413 42.003L29.7074 40.3273Q29.7004 40.3061 29.7004 40.2955Q29.7004 40.2673 29.7198 40.2461Q29.7392 40.225 29.7744 40.225Q29.7921 40.225 29.8115 40.2373Q29.8309 40.2497 29.8379 40.2708L30.4765 41.8054L31.1185 40.2708Q31.1362 40.225 31.1926 40.225Q31.2138 40.225 31.2367 40.2408Q31.2596 40.2567 31.2596 40.2814ZM33.1399 41.689Q33.1399 41.7137 33.1258 41.7313Q33.0094 41.8866 32.8366 41.9853Q32.6637 42.0841 32.4661 42.0841Q32.2016 42.0841 31.9969 41.9712Q31.7923 41.8583 31.6777 41.6502Q31.563 41.4421 31.563 41.1669Q31.563 40.8847 31.6742 40.6712Q31.7853 40.4578 31.9687 40.3449Q32.1522 40.232 32.3603 40.232Q32.5684 40.232 32.7466 40.322Q32.9247 40.4119 33.0376 40.5919Q33.1505 40.7718 33.1576 41.0364Q33.1576 41.0646 33.1364 41.0875Q33.1152 41.1104 33.087 41.1104H31.7006V41.1563Q31.7006 41.375 31.7888 41.5567Q31.877 41.7384 32.0499 41.8442Q32.2227 41.9501 32.4661 41.9501Q32.6355 41.9501 32.7854 41.8672Q32.9353 41.7842 33.02 41.6572Q33.0447 41.6255 33.08 41.6255Q33.1047 41.6255 33.1223 41.6449Q33.1399 41.6643 33.1399 41.689ZM31.7147 40.9764H33.0129V40.9446Q32.9953 40.7647 32.8983 40.636Q32.8013 40.5072 32.6584 40.4402Q32.5155 40.3731 32.3603 40.3731Q32.2298 40.3731 32.094 40.4419Q31.9581 40.5107 31.8541 40.6465Q31.75 40.7824 31.7147 40.9764ZM33.7079 42.0488Q33.6762 42.0488 33.6568 42.0277Q33.6374 42.0065 33.6374 41.9783V39.5088Q33.6374 39.4806 33.6585 39.4594Q33.6797 39.4383 33.7079 39.4383Q33.7397 39.4383 33.7591 39.4594Q33.7785 39.4806 33.7785 39.5088V41.9783Q33.7785 42.0065 33.7573 42.0277Q33.7361 42.0488 33.7079 42.0488Z" style="stroke:#000000;stroke-width:0.25;stroke-linecap:round;stroke-linejoin:bevel" />
        <path d="M 30.48,50.00 L 25.48,61.00 z L 35.48,61.00 z " style="stroke:#000000;stroke-width:0.1;stroke-linecap:round;stroke-linejoin:bevel;stroke-dasharray:none" />
        <path d="M47.5721 42.0488Q47.5403 42.0488 47.5209 42.0277Q47.5015 42.0065 47.5015 41.9783V39.5088Q47.5015 39.4806 47.5227 39.4594Q47.5439 39.4383 47.5721 39.4383Q47.6038 39.4383 47.6232 39.4594Q47.6426 39.4806 47.6426 39.5088V41.9783Q47.6426 42.0065 47.6215 42.0277Q47.6003 42.0488 47.5721 42.0488ZM49.6993 41.689Q49.6993 41.7137 49.6852 41.7313Q49.5688 41.8866 49.3959 41.9853Q49.2231 42.0841 49.0255 42.0841Q48.7609 42.0841 48.5563 41.9712Q48.3517 41.8583 48.2371 41.6502Q48.1224 41.4421 48.1224 41.1669Q48.1224 40.8847 48.2335 40.6712Q48.3447 40.4578 48.5281 40.3449Q48.7116 40.232 48.9197 40.232Q49.1278 40.232 49.306 40.322Q49.4841 40.4119 49.597 40.5919Q49.7099 40.7718 49.717 41.0364Q49.717 41.0646 49.6958 41.0875Q49.6746 41.1104 49.6464 41.1104H48.26V41.1563Q48.26 41.375 48.3482 41.5567Q48.4364 41.7384 48.6092 41.8442Q48.7821 41.9501 49.0255 41.9501Q49.1949 41.9501 49.3448 41.8672Q49.4947 41.7842 49.5794 41.6572Q49.6041 41.6255 49.6394 41.6255Q49.6641 41.6255 49.6817 41.6449Q49.6993 41.6643 49.6993 41.689ZM48.2741 40.9764H49.5723V40.9446Q49.5547 40.7647 49.4577 40.636Q49.3607 40.5072 49.2178 40.4402Q49.0749 40.3731 48.9197 40.3731Q48.7892 40.3731 48.6533 40.4419Q48.5175 40.5107 48.4135 40.6465Q48.3094 40.7824 48.2741 40.9764ZM51.5796 40.2814Q51.5796 40.3026 51.5691 40.3237L50.867 42.003Q50.86 42.0241 50.8406 42.0365Q50.8212 42.0488 50.8 42.0488Q50.7788 42.0488 50.7594 42.0365Q50.74 42.0241 50.733 42.003L50.0274 40.3273Q50.0204 40.3061 50.0204 40.2955Q50.0204 40.2673 50.0398 40.2461Q50.0592 40.225 50.0944 40.225Q50.1121 40.225 50.1315 40.2373Q50.1509 40.2497 50.1579 40.2708L50.7965 41.8054L51.4385 40.2708Q51.4562 40.225 51.5126 40.225Q51.5338 40.225 51.5567 40.2408Q51.5796 40.2567 51.5796 40.2814ZM53.4599 41.689Q53.4599 41.7137 53.4458 41.7313Q53.3294 41.8866 53.1566 41.9853Q52.9837 42.0841 52.7861 42.0841Q52.5216 42.0841 52.3169 41.9712Q52.1123 41.8583 51.9977 41.6502Q51.883 41.4421 51.883 41.1669Q51.883 40.8847 51.9942 40.6712Q52.1053 40.4578 52.2887 40.3449Q52.4722 40.232 52.6803 40.232Q52.8884 40.232 53.0666 40.322Q53.2447 40.4119 53.3576 40.5919Q53.4705 40.7718 53.4776 41.0364Q53.4776 41.0646 53.4564 41.0875Q53.4352 41.1104 53.407 41.1104H52.0206V41.1563Q52.0206 41.375 52.1088 41.5567Q52.197 41.7384 52.3699 41.8442Q52.5427 41.9501 52.7861 41.9501Q52.9555 41.9501 53.1054 41.8672Q53.2553 41.7842 53.34 41.6572Q53.3647 41.6255 53.4 41.6255Q53.4247 41.6255 53.4423 41.6449Q53.4599 41.6643 53.4599 41.689ZM52.0347 40.9764H53.3329V40.9446Q53.3153 40.7647 53.2183 40.636Q53.1213 40.5072 52.9784 40.4402Q52.8355 40.3731 52.6803 40.3731Q52.5498 40.3731 52.414 40.4419Q52.2781 40.5107 52.1741 40.6465Q52.07 40.7824 52.0347 40.9764ZM54.0279 42.0488Q53.9962 42.0488 53.9768 42.0277Q53.9574 42.0065 53.9574 41.9783V39.5088Q53.9574 39.4806 53.9785 39.4594Q53.9997 39.4383 54.0279 39.4383Q54.0597 39.4383 54.0791 39.4594Q54.0985 39.4806 54.0985 39.5088V41.9783Q54.0985 42.0065 54.0773 42.0277Q54.0561 42.0488 54.0279 42.0488Z" style="stroke:#000000;stroke-width:0.25;stroke-linecap:round;stroke-linejoin:bevel" />
        <path d="M 50.80,50.00 L 45.80,61.00 z L 55.80,61.00 z " style="stroke:#000000;stroke-width:0.1;stroke-linecap:round;stroke-linejoin:bevel;stroke-dasharray:none" />
        <path d="M67.8921 42.0488Q67.8603 42.0488 67.8409 42.0277Q67.8215 42.0065 67.8215 41.9783V39.5088Q67.8215 39.4806 67.8427 39.4594Q67.8639 39.4383 67.8921 39.4383Q67.9238 39.4383 67.9432 39.4594Q67.9626 39.4806 67.9626 39.5088V41.9783Q67.9626 42.0065 67.9415 42.0277Q67.9203 42.0488 67.8921 42.0488ZM70.0193 41.689Q70.0193 41.7137 70.0052 41.7313Q69.8888 41.8866 69.7159 41.9853Q69.5431 42.0841 69.3455 42.0841Q69.0809 42.0841 68.8763 41.9712Q68.6717 41.8583 68.5571 41.6502Q68.4424 41.4421 68.4424 41.1669Q68.4424 40.8847 68.5535 40.6712Q68.6647 40.4578 68.8481 40.3449Q69.0316 40.232 69.2397 40.232Q69.4478 40.232 69.626 40.322Q69.8041 40.4119 69.917 40.5919Q70.0299 40.7718 70.037 41.0364Q70.037 41.0646 70.0158 41.0875Q69.9946 41.1104 69.9664 41.1104H68.58V41.1563Q68.58 41.375 68.6682 41.5567Q68.7564 41.7384 68.9292 41.8442Q69.1021 41.9501 69.3455 41.9501Q69.5149 41.9501 69.6648 41.8672Q69.8147 41.7842 69.8994 41.6572Q69.9241 41.6255 69.9594 41.6255Q69.9841 41.6255 70.0017 41.6449Q70.0193 41.6643 70.0193 41.689ZM68.5941 40.9764H69.8923V40.9446Q69.8747 40.7647 69.7777 40.636Q69.6807 40.5072 69.5378 40.4402Q69.3949 40.3731 69.2397 40.3731Q69.1092 40.3731 68.9733 40.4419Q68.8375 40.5107 68.7335 40.6465Q68.6294 40.7824 68.5941 40.9764ZM71.8996 40.2814Q71.8996 40.3026 71.8891 40.3237L71.187 42.003Q71.18 42.0241 71.1606 42.0365Q71.1412 42.0488 71.12 42.0488Q71.0988 42.0488 71.0794 42.0365Q71.06 42.0241 71.053 42.003L70.3474 40.3273Q70.3404 40.3061 70.3404 40.2955Q70.3404 40.2673 70.3598 40.2461Q70.3792 40.225 70.4144 40.225Q70.4321 40.225 70.4515 40.2373Q70.4709 40.2497 70.4779 40.2708L71.1165 41.8054L71.7585 40.2708Q71.7762 40.225 71.8326 40.225Q71.8538 40.225 71.8767 40.2408Q71.8996 40.2567 71.8996 40.2814ZM73.7799 41.689Q73.7799 41.7137 73.7658 41.7313Q73.6494 41.8866 73.4766 41.9853Q73.3037 42.0841 73.1061 42.0841Q72.8416 42.0841 72.6369 41.9712Q72.4323 41.8583 72.3177 41.6502Q72.203 41.4421 72.203 41.1669Q72.203 40.8847 72.3142 40.6712Q72.4253 40.4578 72.6087 40.3449Q72.7922 40.232 73.0003 40.232Q73.2084 40.232 73.3866 40.322Q73.5647 40.4119 73.6776 40.5919Q73.7905 40.7718 73.7976 41.0364Q73.7976 41.0646 73.7764 41.0875Q73.7552 41.1104 73.727 41.1104H72.3406V41.1563Q72.3406 41.375 72.4288 41.5567Q72.517 41.7384 72.6899 41.8442Q72.8627 41.9501 73.1061 41.9501Q73.2755 41.9501 73.4254 41.8672Q73.5753 41.7842 73.66 41.6572Q73.6847 41.6255 73.72 41.6255Q73.7447 41.6255 73.7623 41.6449Q73.7799 41.6643 73.7799 41.689ZM72.3547 40.9764H73.6529V40.9446Q73.6353 40.7647 73.5383 40.636Q73.4413 40.5072 73.2984 40.4402Q73.1555 40.3731 73.0003 40.3731Q72.8698 40.3731 72.734 40.4419Q72.5981 40.5107 72.4941 40.6465Q72.39 40.7824 72.3547 40.9764ZM74.3479 42.0488Q74.3162 42.0488 74.2968 42.0277Q74.2774 42.0065 74.2774 41.9783V39.5088Q74.2774 39.4806 74.2985 39.4594Q74.3197 39.4383 74.3479 39.4383Q74.3797 39.4383 74.3991 39.4594Q74.4185 39.4806 74.4185 39.5088V41.9783Q74.4185 42.0065 74.3973 42.0277Q74.3761 42.0488 74.3479 42.0488Z" style="stroke:#000000;stroke-width:0.25;stroke-linecap:round;stroke-linejoin:bevel" />
        <path d="M 71.12,50.00 L 66.12,61.00 z L 76.12,61.00 z " style="stroke:#000000;stroke-width:0.1;stroke-linecap:round;stroke-linejoin:bevel;stroke-dasharray:none" />
        <path d="M88.2121 42.0488Q88.1803 42.0488 88.1609 42.0277Q88.1415 42.0065 88.1415 41.9783V39.5088Q88.1415 39.4806 88.1627 39.4594Q88.1839 39.4383 88.2121 39.4383Q88.2438 39.4383 88.2632 39.4594Q88.2826 39.4806 88.2826 39.5088V41.9783Q88.2826 42.0065 88.2615 42.0277Q88.2403 42.0488 88.2121 42.0488ZM90.3393 41.689Q90.3393 41.7137 90.3252 41.7313Q90.2088 41.8866 90.0359 41.9853Q89.8631 42.0841 89.6655 42.0841Q89.4009 42.0841 89.1963 41.9712Q88.9917 41.8583 88.8771 41.6502Q88.7624 41.4421 88.7624 41.1669Q88.7624 40.8847 88.8735 40.6712Q88.9847 40.4578 89.1681 40.3449Q89.3516 40.232 89.5597 40.232Q89.7678 40.232 89.946 40.322Q90.1241 40.4119 90.237 40.5919Q90.3499 40.7718 90.357 41.0364Q90.357 41.0646 90.3358 41.0875Q90.3146 41.1104 90.2864 41.1104H88.9V41.1563Q88.9 41.375 88.9882 41.5567Q89.0764 41.7384 89.2492 41.8442Q89.4221 41.9501 89.6655 41.9501Q89.8349 41.9501 89.9848 41.8672Q90.1347 41.7842 90.2194 41.6572Q90.2441 41.6255 90.2794 41.6255Q90.3041 41.6255 90.3217 41.6449Q90.3393 41.6643 90.3393 41.689ZM88.9141 40.9764H90.2123V40.9446Q90.1947 40.7647 90.0977 40.636Q90.0007 40.5072 89.8578 40.4402Q89.7149 40.3731 89.5597 40.3731Q89.4292 40.3731 89.2933 40.4419Q89.1575 40.5107 89.0535 40.6465Q88.9494 40.7824 88.9141 40.9764ZM92.2196 40.2814Q92.2196 40.3026 92.2091 40.3237L91.507 42.003Q91.5 42.0241 91.4806 42.0365Q91.4612 42.0488 91.44 42.0488Q91.4188 42.0488 91.3994 42.0365Q91.38 42.0241 91.373 42.003L90.6674 40.3273Q90.6604 40.3061 90.6604 40.2955Q90.6604 40.2673 90.6798 40.2461Q90.6992 40.225 90.7344 40.225Q90.7521 40.225 90.7715 40.2373Q90.7909 40.2497 90.7979 40.2708L91.4365 41.8054L92.0785 40.2708Q92.0962 40.225 92.1526 40.225Q92.1738 40.225 92.1967 40.2408Q92.2196 40.2567 92.2196 40.2814ZM94.0999 41.689Q94.0999 41.7137 94.0858 41.7313Q93.9694 41.8866 93.7966 41.9853Q93.6237 42.0841 93.4261 42.0841Q93.1616 42.0841 92.9569 41.9712Q92.7523 41.8583 92.6377 41.6502Q92.523 41.4421 92.523 41.1669Q92.523 40.8847 92.6342 40.6712Q92.7453 40.4578 92.9287 40.3449Q93.1122 40.232 93.3203 40.232Q93.5284 40.232 93.7066 40.322Q93.8847 40.4119 93.9976 40.5919Q94.1105 40.7718 94.1176 41.0364Q94.1176 41.0646 94.0964 41.0875Q94.0752 41.1104 94.047 41.1104H92.6606V41.1563Q92.6606 41.375 92.7488 41.5567Q92.837 41.7384 93.0099 41.8442Q93.1827 41.9501 93.4261 41.9501Q93.5955 41.9501 93.7454 41.8672Q93.8953 41.7842 93.98 41.6572Q94.0047 41.6255 94.04 41.6255Q94.0647 41.6255 94.0823 41.6449Q94.0999 41.6643 94.0999 41.689ZM92.6747 40.9764H93.9729V40.9446Q93.9553 40.7647 93.8583 40.636Q93.7613 40.5072 93.6184 40.4402Q93.4755 40.3731 93.3203 40.3731Q93.1898 40.3731 93.054 40.4419Q92.9181 40.5107 92.8141 40.6465Q92.71 40.7824 92.6747 40.9764ZM94.6679 42.0488Q94.6362 42.0488 94.6168 42.0277Q94.5974 42.0065 94.5974 41.9783V39.5088Q94.5974 39.4806 94.6185 39.4594Q94.6397 39.4383 94.6679 39.4383Q94.6997 39.4383 94.7191 39.4594Q94.7385 39.4806 94.7385 39.5088V41.9783Q94.7385 42.0065 94.7173 42.0277Q94.6961 42.0488 94.6679 42.0488Z" style="stroke:#000000;stroke-width:0.25;stroke-linecap:round;stroke-linejoin:bevel" />
        <path d="M 91.44,50.00 L 86.44,61.00 z L 96.44,61.00 z " style="stroke:#000000;stroke-width:0.1;stroke-linecap:round;stroke-linejoin:bevel;stroke-dasharray:none" />
        <path d="M3.65478 68.1493Q3.65478 68.4103 3.54718 68.6237Q3.43958 68.8372 3.25261 68.9606Q3.06564 69.0841 2.83633 69.0841Q2.62819 69.0841 2.45181 68.973Q2.27542 68.8619 2.159 68.6643V68.9783Q2.159 69.0065 2.1396 69.0277Q2.12019 69.0488 2.08844 69.0488Q2.06022 69.0488 2.03906 69.0277Q2.01789 69.0065 2.01789 68.9783V66.5124Q2.01789 66.4841 2.03729 66.463Q2.05669 66.4418 2.08844 66.4418Q2.12019 66.4418 2.1396 66.463Q2.159 66.4841 2.159 66.5124V67.6624Q2.26483 67.4543 2.44299 67.3432Q2.62114 67.232 2.83633 67.232Q3.06917 67.232 3.25614 67.3502Q3.44311 67.4684 3.54894 67.6783Q3.65478 67.8882 3.65478 68.1493ZM3.51367 68.1493Q3.51367 67.9235 3.42371 67.7453Q3.33375 67.5672 3.17853 67.4666Q3.02331 67.3661 2.82928 67.3661Q2.63172 67.3661 2.47474 67.4666Q2.31775 67.5672 2.23132 67.7453Q2.14489 67.9235 2.14489 68.1493Q2.14489 68.375 2.23308 68.5585Q2.32128 68.7419 2.4765 68.846Q2.63172 68.9501 2.82928 68.9501Q3.02331 68.9501 3.17853 68.8442Q3.33375 68.7384 3.42371 68.5567Q3.51367 68.375 3.51367 68.1493ZM5.63033 67.359V68.9783Q5.63033 69.0065 5.60917 69.0277Q5.588 69.0488 5.55978 69.0488Q5.52803 69.0488 5.50863 69.0277Q5.48922 69.0065 5.48922 68.9783V68.6608Q5.40103 68.8407 5.21758 68.9624Q5.03414 69.0841 4.81189 69.0841Q4.57906 69.0841 4.39208 68.9624Q4.20511 68.8407 4.09928 68.6273Q3.99344 68.4138 3.99344 68.1493Q3.99344 67.8882 4.10104 67.6783Q4.20864 67.4684 4.39561 67.3502Q4.58258 67.232 4.81189 67.232Q5.04119 67.232 5.22464 67.352Q5.40808 67.4719 5.48922 67.673V67.359Q5.48922 67.3308 5.50863 67.3096Q5.52803 67.2885 5.55978 67.2885Q5.59153 67.2885 5.61093 67.3096Q5.63033 67.3308 5.63033 67.359ZM5.50333 68.1493Q5.50333 67.9341 5.41514 67.7541Q5.32694 67.5742 5.16996 67.4702Q5.01297 67.3661 4.81894 67.3661Q4.62492 67.3661 4.46793 67.4666Q4.31094 67.5672 4.22275 67.7453Q4.13456 67.9235 4.13456 68.1493Q4.13456 68.375 4.22275 68.5585Q4.31094 68.7419 4.46617 68.846Q4.62139 68.9501 4.81894 68.9501Q5.01297 68.9501 5.16996 68.846Q5.32694 68.7419 5.41514 68.5585Q5.50333 68.375 5.50333 68.1493ZM7.64822 67.8988V68.9783Q7.64822 69.0065 7.62706 69.0277Q7.60589 69.0488 7.57767 69.0488Q7.54592 69.0488 7.52651 69.0277Q7.50711 69.0065 7.50711 68.9783V67.9129Q7.50711 67.673 7.38188 67.5195Q7.25664 67.3661 7.00264 67.3661Q6.84742 67.3661 6.69749 67.4402Q6.54756 67.5143 6.45231 67.6413Q6.35706 67.7683 6.35706 67.9129V68.9783Q6.35706 69.0065 6.33589 69.0277Q6.31472 69.0488 6.2865 69.0488Q6.25475 69.0488 6.23535 69.0277Q6.21594 69.0065 6.21594 68.9783V67.359Q6.21594 67.3308 6.23711 67.3096Q6.25828 67.2885 6.2865 67.2885Q6.31825 67.2885 6.33765 67.3096Q6.35706 67.3308 6.35706 67.359V67.5954Q6.45936 67.4366 6.64457 67.3343Q6.82978 67.232 7.01675 67.232Q7.33072 67.232 7.48947 67.4172Q7.64822 67.6024 7.64822 67.8988ZM9.74725 66.5088V68.9783Q9.74725 69.0065 9.72608 69.0277Q9.70492 69.0488 9.67669 69.0488Q9.64494 69.0488 9.62554 69.0277Q9.60614 69.0065 9.60614 68.9783V68.6431Q9.52147 68.8301 9.33803 68.9571Q9.15458 69.0841 8.92881 69.0841Q8.6995 69.0841 8.51253 68.9624Q8.32556 68.8407 8.21796 68.629Q8.11036 68.4174 8.11036 68.1563Q8.11036 67.8953 8.21796 67.6836Q8.32556 67.4719 8.51253 67.352Q8.6995 67.232 8.92881 67.232Q9.14753 67.232 9.3345 67.3555Q9.52147 67.479 9.60614 67.6765V66.5088Q9.60614 66.4806 9.62554 66.4594Q9.64494 66.4383 9.67669 66.4383Q9.70844 66.4383 9.72785 66.4594Q9.74725 66.4806 9.74725 66.5088ZM9.62025 68.1563Q9.62025 67.9305 9.53206 67.7506Q9.44386 67.5707 9.28688 67.4684Q9.12989 67.3661 8.93586 67.3661Q8.74536 67.3661 8.58838 67.4684Q8.43139 67.5707 8.34143 67.7524Q8.25147 67.9341 8.25147 68.1563Q8.25147 68.3821 8.34143 68.562Q8.43139 68.7419 8.58661 68.846Q8.74183 68.9501 8.93586 68.9501Q9.13342 68.9501 9.28864 68.8478Q9.44386 68.7454 9.53206 68.5638Q9.62025 68.3821 9.62025 68.1563ZM12.5377 67.292 12.5307 67.3273 11.9839 69.003Q11.9627 69.0488 11.9168 69.0488Q11.8745 69.0488 11.8498 69.003L11.3383 67.8494L10.8797 69.003Q10.8726 69.0241 10.8532 69.0365Q10.8338 69.0488 10.8126 69.0488Q10.7915 69.0488 10.7721 69.0365Q10.7527 69.0241 10.7456 69.003L10.1812 67.3273L10.1741 67.292Q10.1741 67.2603 10.1953 67.2426Q10.2164 67.225 10.2482 67.225Q10.2941 67.225 10.3117 67.2708L10.8091 68.8089L11.2783 67.6483Q11.2854 67.6271 11.3048 67.6148Q11.3242 67.6024 11.3453 67.6024Q11.3665 67.6024 11.3859 67.6148Q11.4053 67.6271 11.4124 67.6483L11.9098 68.7984L12.4001 67.2708Q12.4178 67.225 12.4636 67.225Q12.4954 67.225 12.5166 67.2426Q12.5377 67.2603 12.5377 67.292ZM13.0351 69.0488Q13.0034 69.0488 12.984 69.0277Q12.9646 69.0065 12.9646 68.9783V67.3026Q12.9646 67.2744 12.9857 67.2532Q13.0069 67.232 13.0351 67.232Q13.0669 67.232 13.0863 67.2532Q13.1057 67.2744 13.1057 67.3026V68.9783Q13.1057 69.0065 13.0845 69.0277Q13.0634 69.0488 13.0351 69.0488ZM12.9117 66.8793V66.851Q12.9117 66.8016 12.9469 66.7699Q12.9822 66.7381 13.0387 66.7381Q13.0881 66.7381 13.1216 66.7699Q13.1551 66.8016 13.1551 66.851V66.8793Q13.1551 66.9286 13.1216 66.9604Q13.0881 66.9921 13.0351 66.9921Q12.9787 66.9921 12.9452 66.9604Q12.9117 66.9286 12.9117 66.8793ZM15.2047 66.5088V68.9783Q15.2047 69.0065 15.1836 69.0277Q15.1624 69.0488 15.1342 69.0488Q15.1024 69.0488 15.083 69.0277Q15.0636 69.0065 15.0636 68.9783V68.6431Q14.9789 68.8301 14.7955 68.9571Q14.6121 69.0841 14.3863 69.0841Q14.157 69.0841 13.97 68.9624Q13.783 68.8407 13.6754 68.629Q13.5678 68.4174 13.5678 68.1563Q13.5678 67.8953 13.6754 67.6836Q13.783 67.4719 13.97 67.352Q14.157 67.232 14.3863 67.232Q14.605 67.232 14.792 67.3555Q14.9789 67.479 15.0636 67.6765V66.5088Q15.0636 66.4806 15.083 66.4594Q15.1024 66.4383 15.1342 66.4383Q15.1659 66.4383 15.1853 66.4594Q15.2047 66.4806 15.2047 66.5088ZM15.0777 68.1563Q15.0777 67.9305 14.9895 67.7506Q14.9013 67.5707 14.7443 67.4684Q14.5874 67.3661 14.3933 67.3661Q14.2028 67.3661 14.0458 67.4684Q13.8889 67.5707 13.7989 67.7524Q13.7089 67.9341 13.7089 68.1563Q13.7089 68.3821 13.7989 68.562Q13.8889 68.7419 14.0441 68.846Q14.1993 68.9501 14.3933 68.9501Q14.5909 68.9501 14.7461 68.8478Q14.9013 68.7454 14.9895 68.5638Q15.0777 68.3821 15.0777 68.1563ZM16.5135 67.3414Q16.5135 67.3696 16.4941 67.389Q16.4747 67.4084 16.4465 67.4084H16.0584V68.6643Q16.0584 68.8195 16.1131 68.8707Q16.1678 68.9218 16.2525 68.9218Q16.2666 68.9218 16.293 68.9148Q16.3195 68.9077 16.3371 68.9077Q16.3618 68.9077 16.3795 68.9271Q16.3971 68.9465 16.3971 68.9712Q16.3971 69.003 16.3548 69.0259Q16.3124 69.0488 16.256 69.0488Q16.1678 69.0488 16.1078 69.0365Q16.0479 69.0241 15.9826 68.9412Q15.9173 68.8583 15.9173 68.6714V67.4084H15.6281Q15.6034 67.4084 15.5822 67.3873Q15.561 67.3661 15.561 67.3414Q15.561 67.3132 15.5804 67.2938Q15.5998 67.2744 15.6281 67.2744H15.9173V66.8263Q15.9173 66.7981 15.9385 66.7769Q15.9597 66.7558 15.9879 66.7558Q16.0196 66.7558 16.039 66.7769Q16.0584 66.7981 16.0584 66.8263V67.2744H16.4465Q16.4712 67.2744 16.4924 67.2955Q16.5135 67.3167 16.5135 67.3414ZM18.3021 67.9482V68.9783Q18.3021 69.0065 18.2809 69.0277Q18.2598 69.0488 18.2316 69.0488Q18.1998 69.0488 18.1804 69.0277Q18.161 69.0065 18.161 68.9783V67.9482Q18.161 67.7048 18.0411 67.5531Q17.9211 67.4014 17.6742 67.4014Q17.5225 67.4014 17.3761 67.4754Q17.2297 67.5495 17.1379 67.6765Q17.0462 67.8035 17.0462 67.9482V68.9783Q17.0462 69.0065 17.0251 69.0277Q17.0039 69.0488 16.9757 69.0488Q16.9439 69.0488 16.9245 69.0277Q16.9051 69.0065 16.9051 68.9783V66.5088Q16.9051 66.4806 16.9263 66.4594Q16.9474 66.4383 16.9757 66.4383Q17.0074 66.4383 17.0268 66.4594Q17.0462 66.4806 17.0462 66.5088V67.6236Q17.145 67.4684 17.3196 67.3678Q17.4942 67.2673 17.6742 67.2673Q17.9776 67.2673 18.1398 67.4596Q18.3021 67.6518 18.3021 67.9482Z" style="stroke:#000000;stroke-width:0.25;stroke-linecap:round;stroke-linejoin:bevel" />
        <path d="M 10.16,77.00 L 5.16,88.00 z L 15.16,88.00 z " style="stroke:#000000;stroke-width:0.1;stroke-linecap:round;stroke-linejoin:bevel;stroke-dasharray:none" />
        <path d="M23.9748 68.1493Q23.9748 68.4103 23.8672 68.6237Q23.7596 68.8372 23.5726 68.9606Q23.3856 69.0841 23.1563 69.0841Q22.9482 69.0841 22.7718 68.973Q22.5954 68.8619 22.479 68.6643V68.9783Q22.479 69.0065 22.4596 69.0277Q22.4402 69.0488 22.4084 69.0488Q22.3802 69.0488 22.3591 69.0277Q22.3379 69.0065 22.3379 68.9783V66.5124Q22.3379 66.4841 22.3573 66.463Q22.3767 66.4418 22.4084 66.4418Q22.4402 66.4418 22.4596 66.463Q22.479 66.4841 22.479 66.5124V67.6624Q22.5848 67.4543 22.763 67.3432Q22.9411 67.232 23.1563 67.232Q23.3892 67.232 23.5761 67.3502Q23.7631 67.4684 23.8689 67.6783Q23.9748 67.8882 23.9748 68.1493ZM23.8337 68.1493Q23.8337 67.9235 23.7437 67.7453Q23.6537 67.5672 23.4985 67.4666Q23.3433 67.3661 23.1493 67.3661Q22.9517 67.3661 22.7947 67.4666Q22.6377 67.5672 22.5513 67.7453Q22.4649 67.9235 22.4649 68.1493Q22.4649 68.375 22.5531 68.5585Q22.6413 68.7419 22.7965 68.846Q22.9517 68.9501 23.1493 68.9501Q23.3433 68.9501 23.4985 68.8442Q23.6537 68.7384 23.7437 68.5567Q23.8337 68.375 23.8337 68.1493ZM25.9503 67.359V68.9783Q25.9503 69.0065 25.9292 69.0277Q25.908 69.0488 25.8798 69.0488Q25.848 69.0488 25.8286 69.0277Q25.8092 69.0065 25.8092 68.9783V68.6608Q25.721 68.8407 25.5376 68.9624Q25.3541 69.0841 25.1319 69.0841Q24.8991 69.0841 24.7121 68.9624Q24.5251 68.8407 24.4193 68.6273Q24.3134 68.4138 24.3134 68.1493Q24.3134 67.8882 24.421 67.6783Q24.5286 67.4684 24.7156 67.3502Q24.9026 67.232 25.1319 67.232Q25.3612 67.232 25.5446 67.352Q25.7281 67.4719 25.8092 67.673V67.359Q25.8092 67.3308 25.8286 67.3096Q25.848 67.2885 25.8798 67.2885Q25.9115 67.2885 25.9309 67.3096Q25.9503 67.3308 25.9503 67.359ZM25.8233 68.1493Q25.8233 67.9341 25.7351 67.7541Q25.6469 67.5742 25.49 67.4702Q25.333 67.3661 25.1389 67.3661Q24.9449 67.3661 24.7879 67.4666Q24.6309 67.5672 24.5427 67.7453Q24.4546 67.9235 24.4546 68.1493Q24.4546 68.375 24.5427 68.5585Q24.6309 68.7419 24.7862 68.846Q24.9414 68.9501 25.1389 68.9501Q25.333 68.9501 25.49 68.846Q25.6469 68.7419 25.7351 68.5585Q25.8233 68.375 25.8233 68.1493ZM27.9682 67.8988V68.9783Q27.9682 69.0065 27.9471 69.0277Q27.9259 69.0488 27.8977 69.0488Q27.8659 69.0488 27.8465 69.0277Q27.8271 69.0065 27.8271 68.9783V67.9129Q27.8271 67.673 27.7019 67.5195Q27.5766 67.3661 27.3226 67.3661Q27.1674 67.3661 27.0175 67.4402Q26.8676 67.5143 26.7723 67.6413Q26.6771 67.7683 26.6771 67.9129V68.9783Q26.6771 69.0065 26.6559 69.0277Q26.6347 69.0488 26.6065 69.0488Q26.5747 69.0488 26.5553 69.0277Q26.5359 69.0065 26.5359 68.9783V67.359Q26.5359 67.3308 26.5571 67.3096Q26.5783 67.2885 26.6065 67.2885Q26.6382 67.2885 26.6577 67.3096Q26.6771 67.3308 26.6771 67.359V67.5954Q26.7794 67.4366 26.9646 67.3343Q27.1498 67.232 27.3367 67.232Q27.6507 67.232 27.8095 67.4172Q27.9682 67.6024 27.9682 67.8988ZM30.0672 66.5088V68.9783Q30.0672 69.0065 30.0461 69.0277Q30.0249 69.0488 29.9967 69.0488Q29.9649 69.0488 29.9455 69.0277Q29.9261 69.0065 29.9261 68.9783V68.6431Q29.8415 68.8301 29.658 68.9571Q29.4746 69.0841 29.2488 69.0841Q29.0195 69.0841 28.8325 68.9624Q28.6456 68.8407 28.538 68.629Q28.4304 68.4174 28.4304 68.1563Q28.4304 67.8953 28.538 67.6836Q28.6456 67.4719 28.8325 67.352Q29.0195 67.232 29.2488 67.232Q29.4675 67.232 29.6545 67.3555Q29.8415 67.479 29.9261 67.6765V66.5088Q29.9261 66.4806 29.9455 66.4594Q29.9649 66.4383 29.9967 66.4383Q30.0284 66.4383 30.0478 66.4594Q30.0672 66.4806 30.0672 66.5088ZM29.9402 68.1563Q29.9402 67.9305 29.8521 67.7506Q29.7639 67.5707 29.6069 67.4684Q29.4499 67.3661 29.2559 67.3661Q29.0654 67.3661 28.9084 67.4684Q28.7514 67.5707 28.6614 67.7524Q28.5715 67.9341 28.5715 68.1563Q28.5715 68.3821 28.6614 68.562Q28.7514 68.7419 28.9066 68.846Q29.0618 68.9501 29.2559 68.9501Q29.4534 68.9501 29.6086 68.8478Q29.7639 68.7454 29.8521 68.5638Q29.9402 68.3821 29.9402 68.1563ZM32.8577 67.292 32.8507 67.3273 32.3039 69.003Q32.2827 69.0488 32.2368 69.0488Q32.1945 69.0488 32.1698 69.003L31.6583 67.8494L31.1997 69.003Q31.1926 69.0241 31.1732 69.0365Q31.1538 69.0488 31.1326 69.0488Q31.1115 69.0488 31.0921 69.0365Q31.0727 69.0241 31.0656 69.003L30.5012 67.3273L30.4941 67.292Q30.4941 67.2603 30.5153 67.2426Q30.5364 67.225 30.5682 67.225Q30.6141 67.225 30.6317 67.2708L31.1291 68.8089L31.5983 67.6483Q31.6054 67.6271 31.6248 67.6148Q31.6442 67.6024 31.6653 67.6024Q31.6865 67.6024 31.7059 67.6148Q31.7253 67.6271 31.7324 67.6483L32.2298 68.7984L32.7201 67.2708Q32.7378 67.225 32.7836 67.225Q32.8154 67.225 32.8366 67.2426Q32.8577 67.2603 32.8577 67.292ZM33.3551 69.0488Q33.3234 69.0488 33.304 69.0277Q33.2846 69.0065 33.2846 68.9783V67.3026Q33.2846 67.2744 33.3058 67.2532Q33.3269 67.232 33.3551 67.232Q33.3869 67.232 33.4063 67.2532Q33.4257 67.2744 33.4257 67.3026V68.9783Q33.4257 69.0065 33.4045 69.0277Q33.3834 69.0488 33.3551 69.0488ZM33.2317 66.8793V66.851Q33.2317 66.8016 33.2669 66.7699Q33.3022 66.7381 33.3587 66.7381Q33.4081 66.7381 33.4416 66.7699Q33.4751 66.8016 33.4751 66.851V66.8793Q33.4751 66.9286 33.4416 66.9604Q33.4081 66.9921 33.3551 66.9921Q33.2987 66.9921 33.2652 66.9604Q33.2317 66.9286 33.2317 66.8793ZM35.5247 66.5088V68.9783Q35.5247 69.0065 35.5036 69.0277Q35.4824 69.0488 35.4542 69.0488Q35.4224 69.0488 35.403 69.0277Q35.3836 69.0065 35.3836 68.9783V68.6431Q35.2989 68.8301 35.1155 68.9571Q34.9321 69.0841 34.7063 69.0841Q34.477 69.0841 34.29 68.9624Q34.103 68.8407 33.9954 68.629Q33.8878 68.4174 33.8878 68.1563Q33.8878 67.8953 33.9954 67.6836Q34.103 67.4719 34.29 67.352Q34.477 67.232 34.7063 67.232Q34.925 67.232 35.112 67.3555Q35.2989 67.479 35.3836 67.6765V66.5088Q35.3836 66.4806 35.403 66.4594Q35.4224 66.4383 35.4542 66.4383Q35.4859 66.4383 35.5053 66.4594Q35.5247 66.4806 35.5247 66.5088ZM35.3977 68.1563Q35.3977 67.9305 35.3095 67.7506Q35.2213 67.5707 35.0643 67.4684Q34.9074 67.3661 34.7133 67.3661Q34.5228 67.3661 34.3658 67.4684Q34.2089 67.5707 34.1189 67.7524Q34.0289 67.9341 34.0289 68.1563Q34.0289 68.3821 34.1189 68.562Q34.2089 68.7419 34.3641 68.846Q34.5193 68.9501 34.7133 68.9501Q34.9109 68.9501 35.0661 68.8478Q35.2213 68.7454 35.3095 68.5638Q35.3977 68.3821 35.3977 68.1563ZM36.8335 67.3414Q36.8335 67.3696 36.8141 67.389Q36.7947 67.4084 36.7665 67.4084H36.3784V68.6643Q36.3784 68.8195 36.4331 68.8707Q36.4878 68.9218 36.5725 68.9218Q36.5866 68.9218 36.613 68.9148Q36.6395 68.9077 36.6571 68.9077Q36.6818 68.9077 36.6995 68.9271Q36.7171 68.9465 36.7171 68.9712Q36.7171 69.003 36.6748 69.0259Q36.6324 69.0488 36.576 69.0488Q36.4878 69.0488 36.4278 69.0365Q36.3679 69.0241 36.3026 68.9412Q36.2373 68.8583 36.2373 68.6714V67.4084H35.9481Q35.9234 67.4084 35.9022 67.3873Q35.881 67.3661 35.881 67.3414Q35.881 67.3132 35.9004 67.2938Q35.9198 67.2744 35.9481 67.2744H36.2373V66.8263Q36.2373 66.7981 36.2585 66.7769Q36.2797 66.7558 36.3079 66.7558Q36.3396 66.7558 36.359 66.7769Q36.3784 66.7981 36.3784 66.8263V67.2744H36.7665Q36.7912 67.2744 36.8124 67.2955Q36.8335 67.3167 36.8335 67.3414ZM38.6221 67.9482V68.9783Q38.6221 69.0065 38.6009 69.0277Q38.5798 69.0488 38.5516 69.0488Q38.5198 69.0488 38.5004 69.0277Q38.481 69.0065 38.481 68.9783V67.9482Q38.481 67.7048 38.3611 67.5531Q38.2411 67.4014 37.9942 67.4014Q37.8425 67.4014 37.6961 67.4754Q37.5497 67.5495 37.4579 67.6765Q37.3662 67.8035 37.3662 67.9482V68.9783Q37.3662 69.0065 37.3451 69.0277Q37.3239 69.0488 37.2957 69.0488Q37.2639 69.0488 37.2445 69.0277Q37.2251 69.0065 37.2251 68.9783V66.5088Q37.2251 66.4806 37.2463 66.4594Q37.2674 66.4383 37.2957 66.4383Q37.3274 66.4383 37.3468 66.4594Q37.3662 66.4806 37.3662 66.5088V67.6236Q37.465 67.4684 37.6396 67.3678Q37.8142 67.2673 37.9942 67.2673Q38.2976 67.2673 38.4598 67.4596Q38.6221 67.6518 38.6221 67.9482Z" style="stroke:#000000;stroke-width:0.25;stroke-linecap:round;stroke-linejoin:bevel" />
        <path d="M 30.48,77.00 L 25.48,88.00 z L 35.48,88.00 z " style="stroke:#000000;stroke-width:0.1;stroke-linecap:round;stroke-linejoin:bevel;stroke-dasharray:none" />
        <path d="M44.2948 68.1493Q44.2948 68.4103 44.1872 68.6237Q44.0796 68.8372 43.8926 68.9606Q43.7056 69.0841 43.4763 69.0841Q43.2682 69.0841 43.0918 68.973Q42.9154 68.8619 42.799 68.6643V68.9783Q42.799 69.0065 42.7796 69.0277Q42.7602 69.0488 42.7284 69.0488Q42.7002 69.0488 42.6791 69.0277Q42.6579 69.0065 42.6579 68.9783V66.5124Q42.6579 66.4841 42.6773 66.463Q42.6967 66.4418 42.7284 66.4418Q42.7602 66.4418 42.7796 66.463Q42.799 66.4841 42.799 66.5124V67.6624Q42.9048 67.4543 43.083 67.3432Q43.2611 67.232 43.4763 67.232Q43.7092 67.232 43.8961 67.3502Q44.0831 67.4684 44.1889 67.6783Q44.2948 67.8882 44.2948 68.1493ZM44.1537 68.1493Q44.1537 67.9235 44.0637 67.7453Q43.9737 67.5672 43.8185 67.4666Q43.6633 67.3661 43.4693 67.3661Q43.2717 67.3661 43.1147 67.4666Q42.9577 67.5672 42.8713 67.7453Q42.7849 67.9235 42.7849 68.1493Q42.7849 68.375 42.8731 68.5585Q42.9613 68.7419 43.1165 68.846Q43.2717 68.9501 43.4693 68.9501Q43.6633 68.9501 43.8185 68.8442Q43.9737 68.7384 44.0637 68.5567Q44.1537 68.375 44.1537 68.1493ZM46.2703 67.359V68.9783Q46.2703 69.0065 46.2492 69.0277Q46.228 69.0488 46.1998 69.0488Q46.168 69.0488 46.1486 69.0277Q46.1292 69.0065 46.1292 68.9783V68.6608Q46.041 68.8407 45.8576 68.9624Q45.6741 69.0841 45.4519 69.0841Q45.2191 69.0841 45.0321 68.9624Q44.8451 68.8407 44.7393 68.6273Q44.6334 68.4138 44.6334 68.1493Q44.6334 67.8882 44.741 67.6783Q44.8486 67.4684 45.0356 67.3502Q45.2226 67.232 45.4519 67.232Q45.6812 67.232 45.8646 67.352Q46.0481 67.4719 46.1292 67.673V67.359Q46.1292 67.3308 46.1486 67.3096Q46.168 67.2885 46.1998 67.2885Q46.2315 67.2885 46.2509 67.3096Q46.2703 67.3308 46.2703 67.359ZM46.1433 68.1493Q46.1433 67.9341 46.0551 67.7541Q45.9669 67.5742 45.81 67.4702Q45.653 67.3661 45.4589 67.3661Q45.2649 67.3661 45.1079 67.4666Q44.9509 67.5672 44.8627 67.7453Q44.7746 67.9235 44.7746 68.1493Q44.7746 68.375 44.8627 68.5585Q44.9509 68.7419 45.1062 68.846Q45.2614 68.9501 45.4589 68.9501Q45.653 68.9501 45.81 68.846Q45.9669 68.7419 46.0551 68.5585Q46.1433 68.375 46.1433 68.1493ZM48.2882 67.8988V68.9783Q48.2882 69.0065 48.2671 69.0277Q48.2459 69.0488 48.2177 69.0488Q48.1859 69.0488 48.1665 69.0277Q48.1471 69.0065 48.1471 68.9783V67.9129Q48.1471 67.673 48.0219 67.5195Q47.8966 67.3661 47.6426 67.3661Q47.4874 67.3661 47.3375 67.4402Q47.1876 67.5143 47.0923 67.6413Q46.9971 67.7683 46.9971 67.9129V68.9783Q46.9971 69.0065 46.9759 69.0277Q46.9547 69.0488 46.9265 69.0488Q46.8947 69.0488 46.8753 69.0277Q46.8559 69.0065 46.8559 68.9783V67.359Q46.8559 67.3308 46.8771 67.3096Q46.8983 67.2885 46.9265 67.2885Q46.9582 67.2885 46.9777 67.3096Q46.9971 67.3308 46.9971 67.359V67.5954Q47.0994 67.4366 47.2846 67.3343Q47.4698 67.232 47.6567 67.232Q47.9707 67.232 48.1295 67.4172Q48.2882 67.6024 48.2882 67.8988ZM50.3873 66.5088V68.9783Q50.3873 69.0065 50.3661 69.0277Q50.3449 69.0488 50.3167 69.0488Q50.2849 69.0488 50.2655 69.0277Q50.2461 69.0065 50.2461 68.9783V68.6431Q50.1615 68.8301 49.978 68.9571Q49.7946 69.0841 49.5688 69.0841Q49.3395 69.0841 49.1525 68.9624Q48.9656 68.8407 48.858 68.629Q48.7504 68.4174 48.7504 68.1563Q48.7504 67.8953 48.858 67.6836Q48.9656 67.4719 49.1525 67.352Q49.3395 67.232 49.5688 67.232Q49.7875 67.232 49.9745 67.3555Q50.1615 67.479 50.2461 67.6765V66.5088Q50.2461 66.4806 50.2655 66.4594Q50.2849 66.4383 50.3167 66.4383Q50.3484 66.4383 50.3678 66.4594Q50.3873 66.4806 50.3873 66.5088ZM50.2602 68.1563Q50.2602 67.9305 50.1721 67.7506Q50.0839 67.5707 49.9269 67.4684Q49.7699 67.3661 49.5759 67.3661Q49.3854 67.3661 49.2284 67.4684Q49.0714 67.5707 48.9814 67.7524Q48.8915 67.9341 48.8915 68.1563Q48.8915 68.3821 48.9814 68.562Q49.0714 68.7419 49.2266 68.846Q49.3818 68.9501 49.5759 68.9501Q49.7734 68.9501 49.9286 68.8478Q50.0839 68.7454 50.1721 68.5638Q50.2602 68.3821 50.2602 68.1563ZM53.1777 67.292 53.1707 67.3273 52.6239 69.003Q52.6027 69.0488 52.5568 69.0488Q52.5145 69.0488 52.4898 69.003L51.9783 67.8494L51.5197 69.003Q51.5126 69.0241 51.4932 69.0365Q51.4738 69.0488 51.4526 69.0488Q51.4315 69.0488 51.4121 69.0365Q51.3927 69.0241 51.3856 69.003L50.8212 67.3273L50.8141 67.292Q50.8141 67.2603 50.8353 67.2426Q50.8564 67.225 50.8882 67.225Q50.9341 67.225 50.9517 67.2708L51.4491 68.8089L51.9183 67.6483Q51.9254 67.6271 51.9448 67.6148Q51.9642 67.6024 51.9853 67.6024Q52.0065 67.6024 52.0259 67.6148Q52.0453 67.6271 52.0524 67.6483L52.5498 68.7984L53.0401 67.2708Q53.0578 67.225 53.1036 67.225Q53.1354 67.225 53.1566 67.2426Q53.1777 67.2603 53.1777 67.292ZM53.6751 69.0488Q53.6434 69.0488 53.624 69.0277Q53.6046 69.0065 53.6046 68.9783V67.3026Q53.6046 67.2744 53.6257 67.2532Q53.6469 67.232 53.6751 67.232Q53.7069 67.232 53.7263 67.2532Q53.7457 67.2744 53.7457 67.3026V68.9783Q53.7457 69.0065 53.7245 69.0277Q53.7034 69.0488 53.6751 69.0488ZM53.5517 66.8793V66.851Q53.5517 66.8016 53.5869 66.7699Q53.6222 66.7381 53.6787 66.7381Q53.7281 66.7381 53.7616 66.7699Q53.7951 66.8016 53.7951 66.851V66.8793Q53.7951 66.9286 53.7616 66.9604Q53.7281 66.9921 53.6751 66.9921Q53.6187 66.9921 53.5852 66.9604Q53.5517 66.9286 53.5517 66.8793ZM55.8447 66.5088V68.9783Q55.8447 69.0065 55.8236 69.0277Q55.8024 69.0488 55.7742 69.0488Q55.7424 69.0488 55.723 69.0277Q55.7036 69.0065 55.7036 68.9783V68.6431Q55.6189 68.8301 55.4355 68.9571Q55.2521 69.0841 55.0263 69.0841Q54.797 69.0841 54.61 68.9624Q54.423 68.8407 54.3154 68.629Q54.2078 68.4174 54.2078 68.1563Q54.2078 67.8953 54.3154 67.6836Q54.423 67.4719 54.61 67.352Q54.797 67.232 55.0263 67.232Q55.245 67.232 55.432 67.3555Q55.6189 67.479 55.7036 67.6765V66.5088Q55.7036 66.4806 55.723 66.4594Q55.7424 66.4383 55.7742 66.4383Q55.8059 66.4383 55.8253 66.4594Q55.8447 66.4806 55.8447 66.5088ZM55.7177 68.1563Q55.7177 67.9305 55.6295 67.7506Q55.5413 67.5707 55.3843 67.4684Q55.2274 67.3661 55.0333 67.3661Q54.8428 67.3661 54.6858 67.4684Q54.5289 67.5707 54.4389 67.7524Q54.3489 67.9341 54.3489 68.1563Q54.3489 68.3821 54.4389 68.562Q54.5289 68.7419 54.6841 68.846Q54.8393 68.9501 55.0333 68.9501Q55.2309 68.9501 55.3861 68.8478Q55.5413 68.7454 55.6295 68.5638Q55.7177 68.3821 55.7177 68.1563ZM57.1535 67.3414Q57.1535 67.3696 57.1341 67.389Q57.1147 67.4084 57.0865 67.4084H56.6984V68.6643Q56.6984 68.8195 56.7531 68.8707Q56.8078 68.9218 56.8925 68.9218Q56.9066 68.9218 56.933 68.9148Q56.9595 68.9077 56.9771 68.9077Q57.0018 68.9077 57.0195 68.9271Q57.0371 68.9465 57.0371 68.9712Q57.0371 69.003 56.9948 69.0259Q56.9524 69.0488 56.896 69.0488Q56.8078 69.0488 56.7478 69.0365Q56.6879 69.0241 56.6226 68.9412Q56.5573 68.8583 56.5573 68.6714V67.4084H56.2681Q56.2434 67.4084 56.2222 67.3873Q56.201 67.3661 56.201 67.3414Q56.201 67.3132 56.2204 67.2938Q56.2398 67.2744 56.2681 67.2744H56.5573V66.8263Q56.5573 66.7981 56.5785 66.7769Q56.5997 66.7558 56.6279 66.7558Q56.6596 66.7558 56.679 66.7769Q56.6984 66.7981 56.6984 66.8263V67.2744H57.0865Q57.1112 67.2744 57.1324 67.2955Q57.1535 67.3167 57.1535 67.3414ZM58.9421 67.9482V68.9783Q58.9421 69.0065 58.9209 69.0277Q58.8998 69.0488 58.8716 69.0488Q58.8398 69.0488 58.8204 69.0277Q58.801 69.0065 58.801 68.9783V67.9482Q58.801 67.7048 58.6811 67.5531Q58.5611 67.4014 58.3142 67.4014Q58.1625 67.4014 58.0161 67.4754Q57.8697 67.5495 57.7779 67.6765Q57.6862 67.8035 57.6862 67.9482V68.9783Q57.6862 69.0065 57.6651 69.0277Q57.6439 69.0488 57.6157 69.0488Q57.5839 69.0488 57.5645 69.0277Q57.5451 69.0065 57.5451 68.9783V66.5088Q57.5451 66.4806 57.5663 66.4594Q57.5874 66.4383 57.6157 66.4383Q57.6474 66.4383 57.6668 66.4594Q57.6862 66.4806 57.6862 66.5088V67.6236Q57.785 67.4684 57.9596 67.3678Q58.1342 67.2673 58.3142 67.2673Q58.6176 67.2673 58.7798 67.4596Q58.9421 67.6518 58.9421 67.9482Z" style="stroke:#000000;stroke-width:0.25;stroke-linecap:round;stroke-linejoin:bevel" />
        <path d="M 50.80,77.00 L 45.80,88.00 z L 55.80,88.00 z " style="stroke:#000000;stroke-width:0.1;stroke-linecap:round;stroke-linejoin:bevel;stroke-dasharray:none" />
        <path d="M64.6148 68.1493Q64.6148 68.4103 64.5072 68.6237Q64.3996 68.8372 64.2126 68.9606Q64.0256 69.0841 63.7963 69.0841Q63.5882 69.0841 63.4118 68.973Q63.2354 68.8619 63.119 68.6643V68.9783Q63.119 69.0065 63.0996 69.0277Q63.0802 69.0488 63.0484 69.0488Q63.0202 69.0488 62.9991 69.0277Q62.9779 69.0065 62.9779 68.9783V66.5124Q62.9779 66.4841 62.9973 66.463Q63.0167 66.4418 63.0484 66.4418Q63.0802 66.4418 63.0996 66.463Q63.119 66.4841 63.119 66.5124V67.6624Q63.2248 67.4543 63.403 67.3432Q63.5811 67.232 63.7963 67.232Q64.0292 67.232 64.2161 67.3502Q64.4031 67.4684 64.5089 67.6783Q64.6148 67.8882 64.6148 68.1493ZM64.4737 68.1493Q64.4737 67.9235 64.3837 67.7453Q64.2937 67.5672 64.1385 67.4666Q63.9833 67.3661 63.7893 67.3661Q63.5917 67.3661 63.4347 67.4666Q63.2777 67.5672 63.1913 67.7453Q63.1049 67.9235 63.1049 68.1493Q63.1049 68.375 63.1931 68.5585Q63.2813 68.7419 63.4365 68.846Q63.5917 68.9501 63.7893 68.9501Q63.9833 68.9501 64.1385 68.8442Q64.2937 68.7384 64.3837 68.5567Q64.4737 68.375 64.4737 68.1493ZM66.5903 67.359V68.9783Q66.5903 69.0065 66.5692 69.0277Q66.548 69.0488 66.5198 69.0488Q66.488 69.0488 66.4686 69.0277Q66.4492 69.0065 66.4492 68.9783V68.6608Q66.361 68.8407 66.1776 68.9624Q65.9941 69.0841 65.7719 69.0841Q65.5391 69.0841 65.3521 68.9624Q65.1651 68.8407 65.0593 68.6273Q64.9534 68.4138 64.9534 68.1493Q64.9534 67.8882 65.061 67.6783Q65.1686 67.4684 65.3556 67.3502Q65.5426 67.232 65.7719 67.232Q66.0012 67.232 66.1846 67.352Q66.3681 67.4719 66.4492 67.673V67.359Q66.4492 67.3308 66.4686 67.3096Q66.488 67.2885 66.5198 67.2885Q66.5515 67.2885 66.5709 67.3096Q66.5903 67.3308 66.5903 67.359ZM66.4633 68.1493Q66.4633 67.9341 66.3751 67.7541Q66.2869 67.5742 66.13 67.4702Q65.973 67.3661 65.7789 67.3661Q65.5849 67.3661 65.4279 67.4666Q65.2709 67.5672 65.1827 67.7453Q65.0946 67.9235 65.0946 68.1493Q65.0946 68.375 65.1827 68.5585Q65.2709 68.7419 65.4262 68.846Q65.5814 68.9501 65.7789 68.9501Q65.973 68.9501 66.13 68.846Q66.2869 68.7419 66.3751 68.5585Q66.4633 68.375 66.4633 68.1493ZM68.6082 67.8988V68.9783Q68.6082 69.0065 68.5871 69.0277Q68.5659 69.0488 68.5377 69.0488Q68.5059 69.0488 68.4865 69.0277Q68.4671 69.0065 68.4671 68.9783V67.9129Q68.4671 67.673 68.3419 67.5195Q68.2166 67.3661 67.9626 67.3661Q67.8074 67.3661 67.6575 67.4402Q67.5076 67.5143 67.4123 67.6413Q67.3171 67.7683 67.3171 67.9129V68.9783Q67.3171 69.0065 67.2959 69.0277Q67.2747 69.0488 67.2465 69.0488Q67.2147 69.0488 67.1953 69.0277Q67.1759 69.0065 67.1759 68.9783V67.359Q67.1759 67.3308 67.1971 67.3096Q67.2183 67.2885 67.2465 67.2885Q67.2782 67.2885 67.2977 67.3096Q67.3171 67.3308 67.3171 67.359V67.5954Q67.4194 67.4366 67.6046 67.3343Q67.7898 67.232 67.9767 67.232Q68.2907 67.232 68.4495 67.4172Q68.6082 67.6024 68.6082 67.8988ZM70.7072 66.5088V68.9783Q70.7072 69.0065 70.6861 69.0277Q70.6649 69.0488 70.6367 69.0488Q70.6049 69.0488 70.5855 69.0277Q70.5661 69.0065 70.5661 68.9783V68.6431Q70.4815 68.8301 70.298 68.9571Q70.1146 69.0841 69.8888 69.0841Q69.6595 69.0841 69.4725 68.9624Q69.2856 68.8407 69.178 68.629Q69.0704 68.4174 69.0704 68.1563Q69.0704 67.8953 69.178 67.6836Q69.2856 67.4719 69.4725 67.352Q69.6595 67.232 69.8888 67.232Q70.1075 67.232 70.2945 67.3555Q70.4815 67.479 70.5661 67.6765V66.5088Q70.5661 66.4806 70.5855 66.4594Q70.6049 66.4383 70.6367 66.4383Q70.6684 66.4383 70.6878 66.4594Q70.7072 66.4806 70.7072 66.5088ZM70.5802 68.1563Q70.5802 67.9305 70.4921 67.7506Q70.4039 67.5707 70.2469 67.4684Q70.0899 67.3661 69.8959 67.3661Q69.7054 67.3661 69.5484 67.4684Q69.3914 67.5707 69.3014 67.7524Q69.2115 67.9341 69.2115 68.1563Q69.2115 68.3821 69.3014 68.562Q69.3914 68.7419 69.5466 68.846Q69.7018 68.9501 69.8959 68.9501Q70.0934 68.9501 70.2486 68.8478Q70.4039 68.7454 70.4921 68.5638Q70.5802 68.3821 70.5802 68.1563ZM73.4977 67.292 73.4907 67.3273 72.9439 69.003Q72.9227 69.0488 72.8768 69.0488Q72.8345 69.0488 72.8098 69.003L72.2983 67.8494L71.8397 69.003Q71.8326 69.0241 71.8132 69.0365Q71.7938 69.0488 71.7726 69.0488Q71.7515 69.0488 71.7321 69.0365Q71.7127 69.0241 71.7056 69.003L71.1412 67.3273L71.1341 67.292Q71.1341 67.2603 71.1553 67.2426Q71.1764 67.225 71.2082 67.225Q71.2541 67.225 71.2717 67.2708L71.7691 68.8089L72.2383 67.6483Q72.2454 67.6271 72.2648 67.6148Q72.2842 67.6024 72.3053 67.6024Q72.3265 67.6024 72.3459 67.6148Q72.3653 67.6271 72.3724 67.6483L72.8698 68.7984L73.3601 67.2708Q73.3778 67.225 73.4236 67.225Q73.4554 67.225 73.4766 67.2426Q73.4977 67.2603 73.4977 67.292ZM73.9951 69.0488Q73.9634 69.0488 73.944 69.0277Q73.9246 69.0065 73.9246 68.9783V67.3026Q73.9246 67.2744 73.9458 67.2532Q73.9669 67.232 73.9951 67.232Q74.0269 67.232 74.0463 67.2532Q74.0657 67.2744 74.0657 67.3026V68.9783Q74.0657 69.0065 74.0445 69.0277Q74.0234 69.0488 73.9951 69.0488ZM73.8717 66.8793V66.851Q73.8717 66.8016 73.9069 66.7699Q73.9422 66.7381 73.9987 66.7381Q74.0481 66.7381 74.0816 66.7699Q74.1151 66.8016 74.1151 66.851V66.8793Q74.1151 66.9286 74.0816 66.9604Q74.0481 66.9921 73.9951 66.9921Q73.9387 66.9921 73.9052 66.9604Q73.8717 66.9286 73.8717 66.8793ZM76.1647 66.5088V68.9783Q76.1647 69.0065 76.1436 69.0277Q76.1224 69.0488 76.0942 69.0488Q76.0624 69.0488 76.043 69.0277Q76.0236 69.0065 76.0236 68.9783V68.6431Q75.9389 68.8301 75.7555 68.9571Q75.5721 69.0841 75.3463 69.0841Q75.117 69.0841 74.93 68.9624Q74.743 68.8407 74.6354 68.629Q74.5278 68.4174 74.5278 68.1563Q74.5278 67.8953 74.6354 67.6836Q74.743 67.4719 74.93 67.352Q75.117 67.232 75.3463 67.232Q75.565 67.232 75.752 67.3555Q75.9389 67.479 76.0236 67.6765V66.5088Q76.0236 66.4806 76.043 66.4594Q76.0624 66.4383 76.0942 66.4383Q76.1259 66.4383 76.1453 66.4594Q76.1647 66.4806 76.1647 66.5088ZM76.0377 68.1563Q76.0377 67.9305 75.9495 67.7506Q75.8613 67.5707 75.7043 67.4684Q75.5474 67.3661 75.3533 67.3661Q75.1628 67.3661 75.0058 67.4684Q74.8489 67.5707 74.7589 67.7524Q74.6689 67.9341 74.6689 68.1563Q74.6689 68.3821 74.7589 68.562Q74.8489 68.7419 75.0041 68.846Q75.1593 68.9501 75.3533 68.9501Q75.5509 68.9501 75.7061 68.8478Q75.8613 68.7454 75.9495 68.5638Q76.0377 68.3821 76.0377 68.1563ZM77.4735 67.3414Q77.4735 67.3696 77.4541 67.389Q77.4347 67.4084 77.4065 67.4084H77.0184V68.6643Q77.0184 68.8195 77.0731 68.8707Q77.1278 68.9218 77.2125 68.9218Q77.2266 68.9218 77.253 68.9148Q77.2795 68.9077 77.2971 68.9077Q77.3218 68.9077 77.3395 68.9271Q77.3571 68.9465 77.3571 68.9712Q77.3571 69.003 77.3148 69.0259Q77.2724 69.0488 77.216 69.0488Q77.1278 69.0488 77.0678 69.0365Q77.0079 69.0241 76.9426 68.9412Q76.8773 68.8583 76.8773 68.6714V67.4084H76.5881Q76.5634 67.4084 76.5422 67.3873Q76.521 67.3661 76.521 67.3414Q76.521 67.3132 76.5404 67.2938Q76.5598 67.2744 76.5881 67.2744H76.8773V66.8263Q76.8773 66.7981 76.8985 66.7769Q76.9197 66.7558 76.9479 66.7558Q76.9796 66.7558 76.999 66.7769Q77.0184 66.7981 77.0184 66.8263V67.2744H77.4065Q77.4312 67.2744 77.4524 67.2955Q77.4735 67.3167 77.4735 67.3414ZM79.2621 67.9482V68.9783Q79.2621 69.0065 79.2409 69.0277Q79.2198 69.0488 79.1916 69.0488Q79.1598 69.0488 79.1404 69.0277Q79.121 69.0065 79.121 68.9783V67.9482Q79.121 67.7048 79.0011 67.5531Q78.8811 67.4014 78.6342 67.4014Q78.4825 67.4014 78.3361 67.4754Q78.1897 67.5495 78.0979 67.6765Q78.0062 67.8035 78.0062 67.9482V68.9783Q78.0062 69.0065 77.9851 69.0277Q77.9639 69.0488 77.9357 69.0488Q77.9039 69.0488 77.8845 69.0277Q77.8651 69.0065 77.8651 68.9783V66.5088Q77.8651 66.4806 77.8863 66.4594Q77.9074 66.4383 77.9357 66.4383Q77.9674 66.4383 77.9868 66.4594Q78.0062 66.4806 78.0062 66.5088V67.6236Q78.105 67.4684 78.2796 67.3678Q78.4542 67.2673 78.6342 67.2673Q78.9376 67.2673 79.0998 67.4596Q79.2621 67.6518 79.2621 67.9482Z" style="stroke:#000000;stroke-width:0.25;stroke-linecap:round;stroke-linejoin:bevel" />
        <path d="M 71.12,77.00 L 66.12,88.00 z L 76.12,88.00 z " style="stroke:#000000;stroke-width:0.1;stroke-linecap:round;stroke-linejoin:bevel;stroke-dasharray:none" />
        <path d="M84.9348 68.1493Q84.9348 68.4103 84.8272 68.6237Q84.7196 68.8372 84.5326 68.9606Q84.3456 69.0841 84.1163 69.0841Q83.9082 69.0841 83.7318 68.973Q83.5554 68.8619 83.439 68.6643V68.9783Q83.439 69.0065 83.4196 69.0277Q83.4002 69.0488 83.3684 69.0488Q83.3402 69.0488 83.3191 69.0277Q83.2979 69.0065 83.2979 68.9783V66.5124Q83.2979 66.4841 83.3173 66.463Q83.3367 66.4418 83.3684 66.4418Q83.4002 66.4418 83.4196 66.463Q83.439 66.4841 83.439 66.5124V67.6624Q83.5448 67.4543 83.723 67.3432Q83.9011 67.232 84.1163 67.232Q84.3492 67.232 84.5361 67.3502Q84.7231 67.4684 84.8289 67.6783Q84.9348 67.8882 84.9348 68.1493ZM84.7937 68.1493Q84.7937 67.9235 84.7037 67.7453Q84.6137 67.5672 84.4585 67.4666Q84.3033 67.3661 84.1093 67.3661Q83.9117 67.3661 83.7547 67.4666Q83.5978 67.5672 83.5113 67.7453Q83.4249 67.9235 83.4249 68.1493Q83.4249 68.375 83.5131 68.5585Q83.6013 68.7419 83.7565 68.846Q83.9117 68.9501 84.1093 68.9501Q84.3033 68.9501 84.4585 68.8442Q84.6137 68.7384 84.7037 68.5567Q84.7937 68.375 84.7937 68.1493ZM86.9103 67.359V68.9783Q86.9103 69.0065 86.8892 69.0277Q86.868 69.0488 86.8398 69.0488Q86.808 69.0488 86.7886 69.0277Q86.7692 69.0065 86.7692 68.9783V68.6608Q86.681 68.8407 86.4976 68.9624Q86.3141 69.0841 86.0919 69.0841Q85.8591 69.0841 85.6721 68.9624Q85.4851 68.8407 85.3793 68.6273Q85.2734 68.4138 85.2734 68.1493Q85.2734 67.8882 85.381 67.6783Q85.4886 67.4684 85.6756 67.3502Q85.8626 67.232 86.0919 67.232Q86.3212 67.232 86.5046 67.352Q86.6881 67.4719 86.7692 67.673V67.359Q86.7692 67.3308 86.7886 67.3096Q86.808 67.2885 86.8398 67.2885Q86.8715 67.2885 86.8909 67.3096Q86.9103 67.3308 86.9103 67.359ZM86.7833 68.1493Q86.7833 67.9341 86.6951 67.7541Q86.6069 67.5742 86.45 67.4702Q86.293 67.3661 86.0989 67.3661Q85.9049 67.3661 85.7479 67.4666Q85.5909 67.5672 85.5027 67.7453Q85.4146 67.9235 85.4146 68.1493Q85.4146 68.375 85.5027 68.5585Q85.5909 68.7419 85.7462 68.846Q85.9014 68.9501 86.0989 68.9501Q86.293 68.9501 86.45 68.846Q86.6069 68.7419 86.6951 68.5585Q86.7833 68.375 86.7833 68.1493ZM88.9282 67.8988V68.9783Q88.9282 69.0065 88.9071 69.0277Q88.8859 69.0488 88.8577 69.0488Q88.8259 69.0488 88.8065 69.0277Q88.7871 69.0065 88.7871 68.9783V67.9129Q88.7871 67.673 88.6619 67.5195Q88.5366 67.3661 88.2826 67.3661Q88.1274 67.3661 87.9775 67.4402Q87.8276 67.5143 87.7323 67.6413Q87.6371 67.7683 87.6371 67.9129V68.9783Q87.6371 69.0065 87.6159 69.0277Q87.5947 69.0488 87.5665 69.0488Q87.5348 69.0488 87.5153 69.0277Q87.4959 69.0065 87.4959 68.9783V67.359Q87.4959 67.3308 87.5171 67.3096Q87.5383 67.2885 87.5665 67.2885Q87.5982 67.2885 87.6177 67.3096Q87.6371 67.3308 87.6371 67.359V67.5954Q87.7394 67.4366 87.9246 67.3343Q88.1098 67.232 88.2968 67.232Q88.6107 67.232 88.7695 67.4172Q88.9282 67.6024 88.9282 67.8988ZM91.0272 66.5088V68.9783Q91.0272 69.0065 91.0061 69.0277Q90.9849 69.0488 90.9567 69.0488Q90.9249 69.0488 90.9055 69.0277Q90.8861 69.0065 90.8861 68.9783V68.6431Q90.8015 68.8301 90.618 68.9571Q90.4346 69.0841 90.2088 69.0841Q89.9795 69.0841 89.7925 68.9624Q89.6056 68.8407 89.498 68.629Q89.3904 68.4174 89.3904 68.1563Q89.3904 67.8953 89.498 67.6836Q89.6056 67.4719 89.7925 67.352Q89.9795 67.232 90.2088 67.232Q90.4275 67.232 90.6145 67.3555Q90.8015 67.479 90.8861 67.6765V66.5088Q90.8861 66.4806 90.9055 66.4594Q90.9249 66.4383 90.9567 66.4383Q90.9884 66.4383 91.0078 66.4594Q91.0272 66.4806 91.0272 66.5088ZM90.9002 68.1563Q90.9002 67.9305 90.8121 67.7506Q90.7239 67.5707 90.5669 67.4684Q90.4099 67.3661 90.2159 67.3661Q90.0254 67.3661 89.8684 67.4684Q89.7114 67.5707 89.6214 67.7524Q89.5315 67.9341 89.5315 68.1563Q89.5315 68.3821 89.6214 68.562Q89.7114 68.7419 89.8666 68.846Q90.0218 68.9501 90.2159 68.9501Q90.4134 68.9501 90.5686 68.8478Q90.7239 68.7454 90.8121 68.5638Q90.9002 68.3821 90.9002 68.1563ZM93.8177 67.292 93.8107 67.3273 93.2639 69.003Q93.2427 69.0488 93.1968 69.0488Q93.1545 69.0488 93.1298 69.003L92.6183 67.8494L92.1597 69.003Q92.1526 69.0241 92.1332 69.0365Q92.1138 69.0488 92.0926 69.0488Q92.0715 69.0488 92.0521 69.0365Q92.0327 69.0241 92.0256 69.003L91.4612 67.3273L91.4541 67.292Q91.4541 67.2603 91.4753 67.2426Q91.4964 67.225 91.5282 67.225Q91.5741 67.225 91.5917 67.2708L92.0891 68.8089L92.5583 67.6483Q92.5654 67.6271 92.5848 67.6148Q92.6042 67.6024 92.6253 67.6024Q92.6465 67.6024 92.6659 67.6148Q92.6853 67.6271 92.6924 67.6483L93.1898 68.7984L93.6801 67.2708Q93.6978 67.225 93.7436 67.225Q93.7754 67.225 93.7966 67.2426Q93.8177 67.2603 93.8177 67.292ZM94.3151 69.0488Q94.2834 69.0488 94.264 69.0277Q94.2446 69.0065 94.2446 68.9783V67.3026Q94.2446 67.2744 94.2657 67.2532Q94.2869 67.232 94.3151 67.232Q94.3469 67.232 94.3663 67.2532Q94.3857 67.2744 94.3857 67.3026V68.9783Q94.3857 69.0065 94.3645 69.0277Q94.3434 69.0488 94.3151 69.0488ZM94.1917 66.8793V66.851Q94.1917 66.8016 94.2269 66.7699Q94.2622 66.7381 94.3187 66.7381Q94.3681 66.7381 94.4016 66.7699Q94.4351 66.8016 94.4351 66.851V66.8793Q94.4351 66.9286 94.4016 66.9604Q94.3681 66.9921 94.3151 66.9921Q94.2587 66.9921 94.2252 66.9604Q94.1917 66.9286 94.1917 66.8793ZM96.4847 66.5088V68.9783Q96.4847 69.0065 96.4636 69.0277Q96.4424 69.0488 96.4142 69.0488Q96.3824 69.0488 96.363 69.0277Q96.3436 69.0065 96.3436 68.9783V68.6431Q96.2589 68.8301 96.0755 68.9571Q95.8921 69.0841 95.6663 69.0841Q95.437 69.0841 95.25 68.9624Q95.063 68.8407 94.9554 68.629Q94.8478 68.4174 94.8478 68.1563Q94.8478 67.8953 94.9554 67.6836Q95.063 67.4719 95.25 67.352Q95.437 67.232 95.6663 67.232Q95.885 67.232 96.072 67.3555Q96.2589 67.479 96.3436 67.6765V66.5088Q96.3436 66.4806 96.363 66.4594Q96.3824 66.4383 96.4142 66.4383Q96.4459 66.4383 96.4653 66.4594Q96.4847 66.4806 96.4847 66.5088ZM96.3577 68.1563Q96.3577 67.9305 96.2695 67.7506Q96.1813 67.5707 96.0243 67.4684Q95.8674 67.3661 95.6733 67.3661Q95.4828 67.3661 95.3258 67.4684Q95.1689 67.5707 95.0789 67.7524Q94.9889 67.9341 94.9889 68.1563Q94.9889 68.3821 95.0789 68.562Q95.1689 68.7419 95.3241 68.846Q95.4793 68.9501 95.6733 68.9501Q95.8709 68.9501 96.0261 68.8478Q96.1813 68.7454 96.2695 68.5638Q96.3577 68.3821 96.3577 68.1563ZM97.7935 67.3414Q97.7935 67.3696 97.7741 67.389Q97.7547 67.4084 97.7265 67.4084H97.3384V68.6643Q97.3384 68.8195 97.3931 68.8707Q97.4478 68.9218 97.5325 68.9218Q97.5466 68.9218 97.573 68.9148Q97.5995 68.9077 97.6171 68.9077Q97.6418 68.9077 97.6595 68.9271Q97.6771 68.9465 97.6771 68.9712Q97.6771 69.003 97.6348 69.0259Q97.5924 69.0488 97.536 69.0488Q97.4478 69.0488 97.3878 69.0365Q97.3279 69.0241 97.2626 68.9412Q97.1973 68.8583 97.1973 68.6714V67.4084H96.9081Q96.8834 67.4084 96.8622 67.3873Q96.841 67.3661 96.841 67.3414Q96.841 67.3132 96.8604 67.2938Q96.8798 67.2744 96.9081 67.2744H97.1973V66.8263Q97.1973 66.7981 97.2185 66.7769Q97.2397 66.7558 97.2679 66.7558Q97.2996 66.7558 97.319 66.7769Q97.3384 66.7981 97.3384 66.8263V67.2744H97.7265Q97.7512 67.2744 97.7724 67.2955Q97.7935 67.3167 97.7935 67.3414ZM99.5821 67.9482V68.9783Q99.5821 69.0065 99.5609 69.0277Q99.5398 69.0488 99.5116 69.0488Q99.4798 69.0488 99.4604 69.0277Q99.441 69.0065 99.441 68.9783V67.9482Q99.441 67.7048 99.3211 67.5531Q99.2011 67.4014 98.9542 67.4014Q98.8025 67.4014 98.6561 67.4754Q98.5097 67.5495 98.4179 67.6765Q98.3262 67.8035 98.3262 67.9482V68.9783Q98.3262 69.0065 98.3051 69.0277Q98.2839 69.0488 98.2557 69.0488Q98.2239 69.0488 98.2045 69.0277Q98.1851 69.0065 98.1851 68.9783V66.5088Q98.1851 66.4806 98.2063 66.4594Q98.2274 66.4383 98.2557 66.4383Q98.2874 66.4383 98.3068 66.4594Q98.3262 66.4806 98.3262 66.5088V67.6236Q98.425 67.4684 98.5996 67.3678Q98.7742 67.2673 98.9542 67.2673Q99.2576 67.2673 99.4198 67.4596Q99.5821 67.6518 99.5821 67.9482Z" style="stroke:#000000;stroke-width:0.25;stroke-linecap:round;stroke-linejoin:bevel" />
        <path d="M 91.44,77.00 L 86.44,88.00 z L 96.44,88.00 z " style="stroke:#000000;stroke-width:0.1;stroke-linecap:round;stroke-linejoin:bevel;stroke-dasharray:none" />
    </g>
</svg>
