<?xml version="1.0" encoding="utf-8"?>
<svg xmlns="http://www.w3.org/2000/svg" width="101.60mm" height="128.50mm" viewBox="0 0 101.60 128.50">
    <g id="PanelLayer">
        <g id="ControlLayer" style="display:none;">
            <circle id="dispersion_0_knob" cx="10.16" cy="30" r="1" />
            <circle id="dispersion_0_atten" cx="5.16" cy="41" r="1" />
            <circle id="dispersion_0_cv" cx="15.16" cy="41" r="1" />
            <circle id="dispersion_1_knob" cx="30.48" cy="30" r="1" />
            <circle id="dispersion_1_atten" cx="25.48" cy="41" r="1" />
            <circle id="dispersion_1_cv" cx="35.48" cy="41" r="1" />
            <circle id="dispersion_2_knob" cx="50.8" cy="30" r="1" />
            <circle id="dispersion_2_atten" cx="45.8" cy="41" r="1" />
            <circle id="dispersion_2_cv" cx="55.8" cy="41" r="1" />
            <circle id="dispersion_3_knob" cx="71.12" cy="30" r="1" />
            <circle id="dispersion_3_atten" cx="66.12" cy="41" r="1" />
            <circle id="dispersion_3_cv" cx="76.12" cy="41" r="1" />
            <circle id="dispersion_4_knob" cx="91.44" cy="30" r="1" />
            <circle id="dispersion_4_atten" cx="86.44" cy="41" r="1" />
            <circle id="dispersion_4_cv" cx="96.44" cy="41" r="1" />
            <circle id="level_0_knob" cx="10.16" cy="60" r="1" />
            <circle id="level_0_atten" cx="5.16" cy="71" r="1" />
            <circle id="level_0_cv" cx="15.16" cy="71" r="1" />
            <circle id="level_1_knob" cx="30.48" cy="60" r="1" />
            <circle id="level_1_atten" cx="25.48" cy="71" r="1" />
            <circle id="level_1_cv" cx="35.48" cy="71" r="1" />
            <circle id="level_2_knob" cx="50.8" cy="60" r="1" />
            <circle id="level_2_atten" cx="45.8" cy="71" r="1" />
            <circle id="level_2_cv" cx="55.8" cy="71" r="1" />
            <circle id="level_3_knob" cx="71.12" cy="60" r="1" />
            <circle id="level_3_atten" cx="66.12" cy="71" r="1" />
            <circle id="level_3_cv" cx="76.12" cy="71" r="1" />
            <circle id="level_4_knob" cx="91.44" cy="60" r="1" />
            <circle id="level_4_atten" cx="86.44" cy="71" r="1" />
            <circle id="level_4_cv" cx="96.44" cy="71" r="1" />
            <circle id="audio_input" cx="20" cy="80" r="1" />
            <circle id="audio_output" cx="80" cy="80" r="1" />
        </g>
        <rect id="border_rect" width="101.6" height="128.5" x="0" y="0" style="display:inline;fill:#4f8df2;fill-opacity:1;fill-rule:nonzero;stroke:#5021d4;stroke-width:0.7;stroke-linecap:round;stroke-linejoin:round;stroke-dasharray:none;stroke-opacity:1;image-rendering:auto" />
        <path id="model_name" d="M38.1921 7.38291Q38.1921 7.32858 38.2542 7.28201Q38.293 7.24321 38.3473 7.24321Q38.4249 7.24321 38.4715 7.3053Q38.9216 7.94947 39.7288 7.94947Q40.1401 7.94947 40.4506 7.7438Q40.761 7.53813 40.761 7.18888Q40.761 6.83187 40.4894 6.65336Q40.2177 6.47486 39.7443 6.35844Q39.1156 6.20322 38.7548 5.94322Q38.3939 5.68323 38.3939 5.2098Q38.3939 4.75189 38.7586 4.45309Q39.1234 4.15429 39.6977 4.15429Q40.0159 4.15429 40.3303 4.27846Q40.6446 4.40264 40.9007 4.67428Q40.955 4.72085 40.955 4.78294Q40.955 4.85279 40.9007 4.90711Q40.8386 4.93816 40.7998 4.93816Q40.7455 4.93816 40.7067 4.89159Q40.3031 4.44921 39.6667 4.44921Q39.2553 4.44921 38.9721 4.651Q38.6888 4.85279 38.6888 5.2098Q38.7121 5.54352 38.9954 5.72591Q39.2786 5.9083 39.8297 6.048Q40.2255 6.14889 40.4855 6.26919Q40.7455 6.38949 40.9007 6.6068Q41.0559 6.82411 41.0559 7.17336Q41.0559 7.66231 40.6795 7.94559Q40.3031 8.22887 39.6977 8.22887Q38.813 8.22887 38.2464 7.53037Q38.1921 7.445 38.1921 7.38291ZM45.6738 6.21098Q45.6738 6.76978 45.4371 7.22381Q45.2004 7.67783 44.789 7.93783Q44.3777 8.19782 43.8732 8.19782Q43.4075 8.19782 43.0195 7.96499Q42.6314 7.73216 42.3831 7.3053V9.54826Q42.3831 9.61035 42.3404 9.65691Q42.2977 9.70348 42.2279 9.70348Q42.1658 9.70348 42.1192 9.65691Q42.0726 9.61035 42.0726 9.54826V4.38712Q42.0726 4.32503 42.1153 4.27846Q42.158 4.2319 42.2279 4.2319Q42.2977 4.2319 42.3404 4.27846Q42.3831 4.32503 42.3831 4.38712V5.10114Q42.6159 4.65876 43.004 4.44533Q43.392 4.2319 43.8732 4.2319Q44.3854 4.2319 44.7968 4.48801Q45.2081 4.74413 45.441 5.19428Q45.6738 5.64442 45.6738 6.21098ZM45.3633 6.21098Q45.3633 5.72979 45.1654 5.34562Q44.9675 4.96144 44.626 4.74413Q44.2845 4.52682 43.8577 4.52682Q43.4231 4.52682 43.0777 4.74025Q42.7323 4.95368 42.5422 5.33786Q42.352 5.72203 42.352 6.21098Q42.352 6.69993 42.5422 7.08411Q42.7323 7.46828 43.0777 7.68559Q43.4231 7.9029 43.8577 7.9029Q44.2845 7.9029 44.626 7.68559Q44.9675 7.46828 45.1654 7.08022Q45.3633 6.69217 45.3633 6.21098ZM50.02 4.43369V7.99604Q50.02 8.05812 49.9734 8.10469Q49.9269 8.15126 49.8648 8.15126Q49.7949 8.15126 49.7522 8.10469Q49.7096 8.05812 49.7096 7.99604V7.29754Q49.5155 7.69335 49.112 7.96111Q48.7084 8.22887 48.2194 8.22887Q47.7072 8.22887 47.2959 7.96111Q46.8845 7.69335 46.6517 7.22381Q46.4189 6.75426 46.4189 6.17217Q46.4189 5.59785 46.6556 5.13607Q46.8923 4.67428 47.3036 4.41428Q47.715 4.15429 48.2194 4.15429Q48.7239 4.15429 49.1275 4.41816Q49.5311 4.68204 49.7096 5.12443V4.43369Q49.7096 4.3716 49.7522 4.32503Q49.7949 4.27846 49.8648 4.27846Q49.9346 4.27846 49.9773 4.32503Q50.02 4.3716 50.02 4.43369ZM49.7406 6.17217Q49.7406 5.69875 49.5466 5.30293Q49.3526 4.90711 49.0072 4.67816Q48.6618 4.44921 48.235 4.44921Q47.8081 4.44921 47.4627 4.6704Q47.1174 4.89159 46.9233 5.28353Q46.7293 5.67546 46.7293 6.17217Q46.7293 6.66889 46.9233 7.07246Q47.1174 7.47604 47.4588 7.70499Q47.8003 7.93395 48.235 7.93395Q48.6618 7.93395 49.0072 7.70499Q49.3526 7.47604 49.5466 7.07246Q49.7406 6.66889 49.7406 6.17217ZM52.8994 4.39488Q52.8994 4.45697 52.8567 4.49966Q52.814 4.54234 52.7519 4.54234H51.8982V7.3053Q51.8982 7.64679 52.0185 7.75932Q52.1388 7.87186 52.3251 7.87186Q52.3561 7.87186 52.4143 7.85634Q52.4725 7.84081 52.5113 7.84081Q52.5657 7.84081 52.6045 7.8835Q52.6433 7.92619 52.6433 7.98051Q52.6433 8.05036 52.5501 8.10081Q52.457 8.15126 52.3328 8.15126Q52.1388 8.15126 52.0069 8.12409Q51.8749 8.09693 51.7313 7.91454Q51.5878 7.73216 51.5878 7.32082V4.54234H50.9513Q50.897 4.54234 50.8504 4.49578Q50.8039 4.44921 50.8039 4.39488Q50.8039 4.33279 50.8466 4.29011Q50.8893 4.24742 50.9513 4.24742H51.5878V3.26176Q51.5878 3.19967 51.6343 3.1531Q51.6809 3.10654 51.743 3.10654Q51.8128 3.10654 51.8555 3.1531Q51.8982 3.19967 51.8982 3.26176V4.24742H52.7519Q52.8062 4.24742 52.8528 4.29399Q52.8994 4.34055 52.8994 4.39488ZM56.842 4.43369V6.69217Q56.842 7.42948 56.4268 7.81365Q56.0116 8.19782 55.2976 8.19782Q54.5835 8.19782 54.1722 7.81365Q53.7609 7.42948 53.7609 6.69217V4.43369Q53.7609 4.3716 53.8074 4.32503Q53.854 4.27846 53.9161 4.27846Q53.9859 4.27846 54.0286 4.32503Q54.0713 4.3716 54.0713 4.43369V6.69217Q54.0713 7.27425 54.3973 7.58858Q54.7232 7.9029 55.2976 7.9029Q55.8796 7.9029 56.2056 7.58858Q56.5316 7.27425 56.5316 6.69217V4.43369Q56.5316 4.3716 56.5743 4.32503Q56.617 4.27846 56.6868 4.27846Q56.7567 4.27846 56.7993 4.32503Q56.842 4.3716 56.842 4.43369ZM58.3244 8.15126Q58.2545 8.15126 58.2119 8.10469Q58.1692 8.05812 58.1692 7.99604V2.56326Q58.1692 2.50117 58.2157 2.4546Q58.2623 2.40804 58.3244 2.40804Q58.3942 2.40804 58.4369 2.4546Q58.4796 2.50117 58.4796 2.56326V7.99604Q58.4796 8.05812 58.4331 8.10469Q58.3865 8.15126 58.3244 8.15126ZM63.1363 4.43369V7.99604Q63.1363 8.05812 63.0897 8.10469Q63.0432 8.15126 62.9811 8.15126Q62.9112 8.15126 62.8685 8.10469Q62.8258 8.05812 62.8258 7.99604V7.29754Q62.6318 7.69335 62.2282 7.96111Q61.8247 8.22887 61.3357 8.22887Q60.8235 8.22887 60.4121 7.96111Q60.0008 7.69335 59.768 7.22381Q59.5351 6.75426 59.5351 6.17217Q59.5351 5.59785 59.7718 5.13607Q60.0086 4.67428 60.4199 4.41428Q60.8312 4.15429 61.3357 4.15429Q61.8402 4.15429 62.2438 4.41816Q62.6473 4.68204 62.8258 5.12443V4.43369Q62.8258 4.3716 62.8685 4.32503Q62.9112 4.27846 62.9811 4.27846Q63.0509 4.27846 63.0936 4.32503Q63.1363 4.3716 63.1363 4.43369ZM62.8569 6.17217Q62.8569 5.69875 62.6629 5.30293Q62.4688 4.90711 62.1235 4.67816Q61.7781 4.44921 61.3512 4.44921Q60.9244 4.44921 60.579 4.6704Q60.2336 4.89159 60.0396 5.28353Q59.8456 5.67546 59.8456 6.17217Q59.8456 6.66889 60.0396 7.07246Q60.2336 7.47604 60.5751 7.70499Q60.9166 7.93395 61.3512 7.93395Q61.7781 7.93395 62.1235 7.70499Q62.4688 7.47604 62.6629 7.07246Q62.8569 6.66889 62.8569 6.17217Z" style="display:inline;stroke:#000000;stroke-width:0.35;stroke-linecap:round;stroke-linejoin:bevel" />
        <g id="sapphire_insignia">
            <path id="brand_name" d="M35.9064 124.775Q35.9064 124.721 35.9685 124.674Q36.0073 124.636 36.0617 124.636Q36.1393 124.636 36.1858 124.698Q36.636 125.342 37.4431 125.342Q37.8545 125.342 38.1649 125.136Q38.4754 124.93 38.4754 124.581Q38.4754 124.224 38.2037 124.046Q37.9321 123.867 37.4586 123.751Q36.83 123.596 36.4691 123.336Q36.1082 123.076 36.1082 122.602Q36.1082 122.144 36.473 121.845Q36.8378 121.547 37.4121 121.547Q37.7303 121.547 38.0446 121.671Q38.3589 121.795 38.6151 122.067Q38.6694 122.113 38.6694 122.175Q38.6694 122.245 38.6151 122.299Q38.553 122.331 38.5142 122.331Q38.4598 122.331 38.421 122.284Q38.0174 121.842 37.381 121.842Q36.9697 121.842 36.6864 122.043Q36.4031 122.245 36.4031 122.602Q36.4264 122.936 36.7097 123.118Q36.993 123.301 37.544 123.44Q37.9398 123.541 38.1998 123.662Q38.4598 123.782 38.6151 123.999Q38.7703 124.216 38.7703 124.566Q38.7703 125.055 38.3939 125.338Q38.0174 125.621 37.4121 125.621Q36.5273 125.621 35.9608 124.923Q35.9064 124.837 35.9064 124.775ZM43.1165 121.826V125.388Q43.1165 125.45 43.0699 125.497Q43.0234 125.544 42.9613 125.544Q42.8914 125.544 42.8487 125.497Q42.8061 125.45 42.8061 125.388V124.69Q42.612 125.086 42.2084 125.353Q41.8049 125.621 41.3159 125.621Q40.8037 125.621 40.3923 125.353Q39.981 125.086 39.7482 124.616Q39.5153 124.147 39.5153 123.565Q39.5153 122.99 39.7521 122.528Q39.9888 122.067 40.4001 121.807Q40.8114 121.547 41.3159 121.547Q41.8204 121.547 42.224 121.811Q42.6275 122.074 42.8061 122.517V121.826Q42.8061 121.764 42.8487 121.717Q42.8914 121.671 42.9613 121.671Q43.0311 121.671 43.0738 121.717Q43.1165 121.764 43.1165 121.826ZM42.8371 123.565Q42.8371 123.091 42.6431 122.695Q42.449 122.299 42.1037 122.071Q41.7583 121.842 41.3314 121.842Q40.9046 121.842 40.5592 122.063Q40.2138 122.284 40.0198 122.676Q39.8258 123.068 39.8258 123.565Q39.8258 124.061 40.0198 124.465Q40.2138 124.868 40.5553 125.097Q40.8968 125.326 41.3314 125.326Q41.7583 125.326 42.1037 125.097Q42.449 124.868 42.6431 124.465Q42.8371 124.061 42.8371 123.565ZM48.006 123.603Q48.006 124.162 47.7693 124.616Q47.5326 125.07 47.1212 125.33Q46.7099 125.59 46.2054 125.59Q45.7398 125.59 45.3517 125.357Q44.9636 125.125 44.7153 124.698V126.941Q44.7153 127.003 44.6726 127.049Q44.6299 127.096 44.5601 127.096Q44.498 127.096 44.4514 127.049Q44.4048 127.003 44.4048 126.941V121.779Q44.4048 121.717 44.4475 121.671Q44.4902 121.624 44.5601 121.624Q44.6299 121.624 44.6726 121.671Q44.7153 121.717 44.7153 121.779V122.493Q44.9481 122.051 45.3362 121.838Q45.7242 121.624 46.2054 121.624Q46.7177 121.624 47.129 121.88Q47.5403 122.136 47.7732 122.587Q48.006 123.037 48.006 123.603ZM47.6956 123.603Q47.6956 123.122 47.4976 122.738Q47.2997 122.354 46.9582 122.136Q46.6168 121.919 46.1899 121.919Q45.7553 121.919 45.4099 122.133Q45.0645 122.346 44.8744 122.73Q44.6842 123.114 44.6842 123.603Q44.6842 124.092 44.8744 124.476Q45.0645 124.861 45.4099 125.078Q45.7553 125.295 46.1899 125.295Q46.6168 125.295 46.9582 125.078Q47.2997 124.861 47.4976 124.473Q47.6956 124.085 47.6956 123.603ZM52.6239 123.603Q52.6239 124.162 52.3871 124.616Q52.1504 125.07 51.7391 125.33Q51.3278 125.59 50.8233 125.59Q50.3576 125.59 49.9696 125.357Q49.5815 125.125 49.3331 124.698V126.941Q49.3331 127.003 49.2905 127.049Q49.2478 127.096 49.1779 127.096Q49.1158 127.096 49.0693 127.049Q49.0227 127.003 49.0227 126.941V121.779Q49.0227 121.717 49.0654 121.671Q49.1081 121.624 49.1779 121.624Q49.2478 121.624 49.2905 121.671Q49.3331 121.717 49.3331 121.779V122.493Q49.566 122.051 49.954 121.838Q50.3421 121.624 50.8233 121.624Q51.3355 121.624 51.7469 121.88Q52.1582 122.136 52.391 122.587Q52.6239 123.037 52.6239 123.603ZM52.3134 123.603Q52.3134 123.122 52.1155 122.738Q51.9176 122.354 51.5761 122.136Q51.2346 121.919 50.8078 121.919Q50.3731 121.919 50.0278 122.133Q49.6824 122.346 49.4923 122.73Q49.3021 123.114 49.3021 123.603Q49.3021 124.092 49.4923 124.476Q49.6824 124.861 50.0278 125.078Q50.3731 125.295 50.8078 125.295Q51.2346 125.295 51.5761 125.078Q51.9176 124.861 52.1155 124.473Q52.3134 124.085 52.3134 123.603ZM56.714 123.122V125.388Q56.714 125.45 56.6674 125.497Q56.6208 125.544 56.5587 125.544Q56.4889 125.544 56.4462 125.497Q56.4035 125.45 56.4035 125.388V123.122Q56.4035 122.587 56.1396 122.253Q55.8758 121.919 55.3325 121.919Q54.9988 121.919 54.6767 122.082Q54.3546 122.245 54.1528 122.525Q53.951 122.804 53.951 123.122V125.388Q53.951 125.45 53.9044 125.497Q53.8579 125.544 53.7958 125.544Q53.7259 125.544 53.6833 125.497Q53.6406 125.45 53.6406 125.388V119.956Q53.6406 119.894 53.6871 119.847Q53.7337 119.8 53.7958 119.8Q53.8656 119.8 53.9083 119.847Q53.951 119.894 53.951 119.956V122.408Q54.1683 122.067 54.5525 121.845Q54.9367 121.624 55.3325 121.624Q55.9999 121.624 56.357 122.047Q56.714 122.47 56.714 123.122ZM58.1575 125.544Q58.0877 125.544 58.045 125.497Q58.0023 125.45 58.0023 125.388V121.702Q58.0023 121.64 58.0489 121.593Q58.0954 121.547 58.1575 121.547Q58.2274 121.547 58.2701 121.593Q58.3128 121.64 58.3128 121.702V125.388Q58.3128 125.45 58.2662 125.497Q58.2196 125.544 58.1575 125.544ZM57.8859 120.771V120.708Q57.8859 120.6 57.9635 120.53Q58.0411 120.46 58.1653 120.46Q58.2739 120.46 58.3477 120.53Q58.4214 120.6 58.4214 120.708V120.771Q58.4214 120.879 58.3477 120.949Q58.2739 121.019 58.1575 121.019Q58.0334 121.019 57.9596 120.949Q57.8859 120.879 57.8859 120.771ZM61.7121 121.725Q61.7121 121.795 61.6733 121.842Q61.6345 121.888 61.5724 121.888Q61.5491 121.888 61.4599 121.853Q61.3706 121.818 61.2697 121.818Q60.9515 121.818 60.6333 122.071Q60.3151 122.323 60.1133 122.707Q59.9115 123.091 59.9115 123.448V125.388Q59.9115 125.45 59.865 125.497Q59.8184 125.544 59.7563 125.544Q59.6865 125.544 59.6438 125.497Q59.6011 125.45 59.6011 125.388V121.826Q59.6011 121.764 59.6477 121.717Q59.6942 121.671 59.7563 121.671Q59.8262 121.671 59.8689 121.717Q59.9115 121.764 59.9115 121.826V122.649Q60.09 122.175 60.4665 121.865Q60.8429 121.554 61.3551 121.547Q61.7121 121.547 61.7121 121.725ZM65.6548 124.752Q65.6548 124.806 65.6237 124.845Q65.3676 125.187 64.9873 125.404Q64.607 125.621 64.1724 125.621Q63.5903 125.621 63.1402 125.373Q62.69 125.125 62.4378 124.667Q62.1856 124.209 62.1856 123.603Q62.1856 122.982 62.43 122.513Q62.6745 122.043 63.0781 121.795Q63.4817 121.547 63.9396 121.547Q64.3975 121.547 64.7894 121.745Q65.1813 121.942 65.4297 122.338Q65.678 122.734 65.6936 123.316Q65.6936 123.378 65.647 123.429Q65.6004 123.479 65.5384 123.479H62.4882V123.58Q62.4882 124.061 62.6823 124.461Q62.8763 124.861 63.2566 125.093Q63.6369 125.326 64.1724 125.326Q64.5449 125.326 64.8748 125.144Q65.2046 124.962 65.3909 124.682Q65.4452 124.612 65.5228 124.612Q65.5772 124.612 65.616 124.655Q65.6548 124.698 65.6548 124.752ZM62.5193 123.184H65.3754V123.114Q65.3366 122.719 65.1231 122.435Q64.9097 122.152 64.5954 122.005Q64.2811 121.857 63.9396 121.857Q63.6524 121.857 63.3536 122.008Q63.0548 122.16 62.8258 122.459Q62.5969 122.757 62.5193 123.184Z" style="fill:#000000;stroke:#000000;stroke-width:0.265;stroke-linecap:square" />
            <g id="gemstones" style="stroke-width:0;fill:#0000ff;stroke:#2e2114;stroke-linecap:square;stroke-opacity:1">
                <path d="m 33.250,122.900 q 0,0.34175 -0.242534,0.63114 -0.0441,0.0524 -0.20395,0.21497 -0.187413,0.19017 -0.785481,0.81304 l -1.444183,1.51309 q -0.01929,0.003 -0.0441,0.003 -0.02756,0 -0.04134,-0.003 -0.08268,-0.0827 -0.647678,-0.67524 -0.468532,-0.47404 -0.934309,-0.94809 -0.556727,-0.56775 -0.89848,-0.98116 -0.132292,-0.15985 -0.168121,-0.29766 -0.02756,-0.10197 -0.02756,-0.34175 0,-0.11024 0.07166,-0.28939 0.06614,-0.16536 0.140559,-0.26458 0.118512,-0.1571 0.42168,-0.42444 0.283875,-0.2508 0.474044,-0.37482 0.272852,-0.17915 0.818555,-0.36656 0.09646,-0.0331 0.110243,-0.0331 h 1.3615 q 0.01102,0 0.104731,0.0331 0.567751,0.20119 0.824066,0.36656 0.165365,0.10473 0.474045,0.37758 0.322461,0.28388 0.421679,0.42168 0.214974,0.2949 0.214974,0.62563 z m -0.16812,-0.27285 q -0.03307,-0.10749 -0.135048,-0.30868 -0.07166,-0.0937 -0.209462,-0.19844 -0.118511,-0.0854 -0.234266,-0.17088 0.245291,0.3638 0.578776,0.678 z m -0.573264,-0.52366 -0.358289,-0.44648 v 0.41065 z m 0.636653,0.75792 q 0,-0.0524 -0.341753,-0.39412 l 0.228754,0.7028 h 0.04961 q 0.06339,-0.21773 0.06339,-0.30868 z m -0.23151,0.27285 -0.316948,-0.90399 -0.410655,-0.0634 -0.159853,0.61461 z m 0.0028,0.15434 -0.771701,-0.3197 h -0.03032 l 0.344509,0.60634 q 0.07993,-0.003 0.234266,-0.0469 0.02481,-0.0138 0.223242,-0.23978 z m -0.857139,-1.05006 -0.719335,0.28388 0.60358,0.22599 z m 0,-0.16261 v -0.51538 l -0.917773,-0.38034 h -1.223697 l -0.917772,0.38034 v 0.51538 l 0.89848,0.4079 h 1.254014 z m 0.573264,1.53789 q -0.0689,0.011 -0.198438,0.0524 -0.08544,0.0551 -0.259071,0.16261 0.01929,0 0.06339,0.003 0.04134,0 0.06339,0 0.118511,0 0.190169,-0.0689 0.07166,-0.0717 0.14056,-0.14883 z m -0.289388,0.003 -0.347266,-0.63114 -0.363801,0.87918 q 0.0248,-0.0165 0.06615,-0.0165 0.03032,0 0.08544,0.011 0.05788,0.008 0.08819,0.008 0.04961,0 0.228754,-0.10749 0.228754,-0.1378 0.242535,-0.14331 z m -0.440972,-0.74139 -0.683507,-0.2756 -0.592556,0.54845 0.903993,0.65595 z m -0.854383,-0.28387 h -1.036284 l 0.523654,0.47404 z m 0.749652,1.36701 q -0.228754,-0.0303 -0.228754,-0.0303 -0.03583,0 -0.272851,0.0937 l 0.190169,0.0193 q 0.01102,0 0.311436,-0.0827 z m -0.388606,-0.0882 -0.843359,-0.61185 v 0.67524 l 0.471289,0.0827 z m 0.854383,0.0496 q -0.09922,0.006 -0.2949,0.0386 -0.01102,0.003 -0.377583,0.17639 -0.129535,0.34726 -0.380338,1.0418 z m -2.543857,-1.39733 -0.719335,-0.28388 0.124023,0.51814 z m -0.802018,-0.45476 v -0.41065 l -0.366557,0.44648 z m 1.515841,1.07212 -0.592556,-0.54019 -0.683506,0.2756 0.380338,0.9288 z m 0.369314,0.94257 q -0.03307,-0.003 -0.135047,-0.0248 -0.08544,-0.0165 -0.137804,-0.0165 -0.05237,0 -0.137804,0.0165 -0.101975,0.0221 -0.135047,0.0248 0.264583,0.0469 0.272851,0.0469 0.0083,0 0.272851,-0.0469 z m -0.30868,-0.1378 v -0.68626 l -0.843359,0.61185 0.37207,0.14607 z m 0.950846,0.20671 -0.396875,-0.0551 -0.479557,0.14056 v 1.27607 z m -2.888366,-2.20211 q -0.118512,0.0854 -0.234267,0.17364 -0.146072,0.10748 -0.209461,0.19568 -0.0441,0.10473 -0.135048,0.31419 0.369314,-0.3638 0.578776,-0.68351 z m 0.476801,0.83234 -0.159853,-0.61461 -0.410655,0.0634 -0.316948,0.90399 z m 0.394118,1.08313 -0.363802,-0.87918 -0.355533,0.63114 q 0.43546,0.2508 0.451996,0.2508 0.09095,0 0.267339,-0.003 z m 1.821765,0.82958 q -0.132291,0.21222 -0.405143,0.6339 -0.07717,0.10749 -0.220486,0.32797 -0.05788,0.10473 -0.05512,0.226 0.159852,-0.15158 0.432704,-0.49609 0.07717,-0.12954 0.140559,-0.339 0.05512,-0.17639 0.107486,-0.35278 z m -1.493792,-0.66146 -0.270095,-0.0882 -0.0083,-0.011 q -0.02481,0 -0.107487,0.011 -0.06615,0.006 -0.107487,0.006 0.272851,0.091 0.311436,0.091 0.02481,0 0.181901,-0.008 z m -0.810286,-1.06384 h -0.03032 l -0.7717,0.3197 q 0.06615,0.0965 0.223242,0.23978 0.07717,0.0138 0.234266,0.0469 z m -0.689018,-0.50161 q -0.341754,0.34727 -0.341754,0.39412 0,0.0799 0.06339,0.30868 h 0.04961 z m 2.235176,3.04547 v -1.27607 l -0.479557,-0.14056 -0.396875,0.0551 z m -1.606791,-1.6757 q -0.256315,-0.1819 -0.457509,-0.22324 0.06615,0.0772 0.20395,0.22324 z m 1.609547,2.04501 v -0.1378 l -0.683507,-1.05007 q 0.05237,0.17639 0.107487,0.35278 0.06339,0.20946 0.14056,0.339 0.0689,0.11851 0.20395,0.25907 0.115755,0.11851 0.23151,0.23702 z m -0.644921,-0.70555 q -0.115756,-0.32798 -0.380339,-1.0418 -0.135047,-0.0662 -0.272851,-0.12954 -0.159852,-0.0716 -0.289388,-0.0716 -0.05237,0 -0.110243,-0.0138 z" />
                <path d="m 73.780,122.900 q 0,0.34175 -0.242534,0.63114 -0.0441,0.0524 -0.20395,0.21497 -0.187413,0.19017 -0.785481,0.81304 l -1.444183,1.51309 q -0.01929,0.003 -0.0441,0.003 -0.02756,0 -0.04134,-0.003 -0.08268,-0.0827 -0.647678,-0.67524 -0.468532,-0.47404 -0.934309,-0.94809 -0.556727,-0.56775 -0.89848,-0.98116 -0.132292,-0.15985 -0.168121,-0.29766 -0.02756,-0.10197 -0.02756,-0.34175 0,-0.11024 0.07166,-0.28939 0.06614,-0.16536 0.140559,-0.26458 0.118512,-0.1571 0.42168,-0.42444 0.283875,-0.2508 0.474044,-0.37482 0.272852,-0.17915 0.818555,-0.36656 0.09646,-0.0331 0.110243,-0.0331 h 1.3615 q 0.01102,0 0.104731,0.0331 0.567751,0.20119 0.824066,0.36656 0.165365,0.10473 0.474045,0.37758 0.322461,0.28388 0.421679,0.42168 0.214974,0.2949 0.214974,0.62563 z m -0.16812,-0.27285 q -0.03307,-0.10749 -0.135048,-0.30868 -0.07166,-0.0937 -0.209462,-0.19844 -0.118511,-0.0854 -0.234266,-0.17088 0.245291,0.3638 0.578776,0.678 z m -0.573264,-0.52366 -0.358289,-0.44648 v 0.41065 z m 0.636653,0.75792 q 0,-0.0524 -0.341753,-0.39412 l 0.228754,0.7028 h 0.04961 q 0.06339,-0.21773 0.06339,-0.30868 z m -0.23151,0.27285 -0.316948,-0.90399 -0.410655,-0.0634 -0.159853,0.61461 z m 0.0028,0.15434 -0.771701,-0.3197 h -0.03032 l 0.344509,0.60634 q 0.07993,-0.003 0.234266,-0.0469 0.02481,-0.0138 0.223242,-0.23978 z m -0.857139,-1.05006 -0.719335,0.28388 0.60358,0.22599 z m 0,-0.16261 v -0.51538 l -0.917773,-0.38034 h -1.223697 l -0.917772,0.38034 v 0.51538 l 0.89848,0.4079 h 1.254014 z m 0.573264,1.53789 q -0.0689,0.011 -0.198438,0.0524 -0.08544,0.0551 -0.259071,0.16261 0.01929,0 0.06339,0.003 0.04134,0 0.06339,0 0.118511,0 0.190169,-0.0689 0.07166,-0.0717 0.14056,-0.14883 z m -0.289388,0.003 -0.347266,-0.63114 -0.363801,0.87918 q 0.0248,-0.0165 0.06615,-0.0165 0.03032,0 0.08544,0.011 0.05788,0.008 0.08819,0.008 0.04961,0 0.228754,-0.10749 0.228754,-0.1378 0.242535,-0.14331 z m -0.440972,-0.74139 -0.683507,-0.2756 -0.592556,0.54845 0.903993,0.65595 z m -0.854383,-0.28387 h -1.036284 l 0.523654,0.47404 z m 0.749652,1.36701 q -0.228754,-0.0303 -0.228754,-0.0303 -0.03583,0 -0.272851,0.0937 l 0.190169,0.0193 q 0.01102,0 0.311436,-0.0827 z m -0.388606,-0.0882 -0.843359,-0.61185 v 0.67524 l 0.471289,0.0827 z m 0.854383,0.0496 q -0.09922,0.006 -0.2949,0.0386 -0.01102,0.003 -0.377583,0.17639 -0.129535,0.34726 -0.380338,1.0418 z m -2.543857,-1.39733 -0.719335,-0.28388 0.124023,0.51814 z m -0.802018,-0.45476 v -0.41065 l -0.366557,0.44648 z m 1.515841,1.07212 -0.592556,-0.54019 -0.683506,0.2756 0.380338,0.9288 z m 0.369314,0.94257 q -0.03307,-0.003 -0.135047,-0.0248 -0.08544,-0.0165 -0.137804,-0.0165 -0.05237,0 -0.137804,0.0165 -0.101975,0.0221 -0.135047,0.0248 0.264583,0.0469 0.272851,0.0469 0.0083,0 0.272851,-0.0469 z m -0.30868,-0.1378 v -0.68626 l -0.843359,0.61185 0.37207,0.14607 z m 0.950846,0.20671 -0.396875,-0.0551 -0.479557,0.14056 v 1.27607 z m -2.888366,-2.20211 q -0.118512,0.0854 -0.234267,0.17364 -0.146072,0.10748 -0.209461,0.19568 -0.0441,0.10473 -0.135048,0.31419 0.369314,-0.3638 0.578776,-0.68351 z m 0.476801,0.83234 -0.159853,-0.61461 -0.410655,0.0634 -0.316948,0.90399 z m 0.394118,1.08313 -0.363802,-0.87918 -0.355533,0.63114 q 0.43546,0.2508 0.451996,0.2508 0.09095,0 0.267339,-0.003 z m 1.821765,0.82958 q -0.132291,0.21222 -0.405143,0.6339 -0.07717,0.10749 -0.220486,0.32797 -0.05788,0.10473 -0.05512,0.226 0.159852,-0.15158 0.432704,-0.49609 0.07717,-0.12954 0.140559,-0.339 0.05512,-0.17639 0.107486,-0.35278 z m -1.493792,-0.66146 -0.270095,-0.0882 -0.0083,-0.011 q -0.02481,0 -0.107487,0.011 -0.06615,0.006 -0.107487,0.006 0.272851,0.091 0.311436,0.091 0.02481,0 0.181901,-0.008 z m -0.810286,-1.06384 h -0.03032 l -0.7717,0.3197 q 0.06615,0.0965 0.223242,0.23978 0.07717,0.0138 0.234266,0.0469 z m -0.689018,-0.50161 q -0.341754,0.34727 -0.341754,0.39412 0,0.0799 0.06339,0.30868 h 0.04961 z m 2.235176,3.04547 v -1.27607 l -0.479557,-0.14056 -0.396875,0.0551 z m -1.606791,-1.6757 q -0.256315,-0.1819 -0.457509,-0.22324 0.06615,0.0772 0.20395,0.22324 z m 1.609547,2.04501 v -0.1378 l -0.683507,-1.05007 q 0.05237,0.17639 0.107487,0.35278 0.06339,0.20946 0.14056,0.339 0.0689,0.11851 0.20395,0.25907 0.115755,0.11851 0.23151,0.23702 z m -0.644921,-0.70555 q -0.115756,-0.32798 -0.380339,-1.0418 -0.135047,-0.0662 -0.272851,-0.12954 -0.159852,-0.0716 -0.289388,-0.0716 -0.05237,0 -0.110243,-0.0138 z" />
            </g>
        </g>
        <path d="M6.48347 19.6499V21.9783Q6.48347 22.0065 6.4623 22.0277Q6.44113 22.0488 6.40938 22.0488Q6.37763 22.0488 6.35647 22.0277Q6.3353 22.0065 6.3353 21.9783V19.784L5.82025 20.0909Q5.80966 20.098 5.79202 20.098Q5.76027 20.098 5.73734 20.0715Q5.71441 20.0451 5.71441 20.0204Q5.71441 19.9886 5.75322 19.9604L6.37058 19.59Q6.38822 19.5759 6.41291 19.5759Q6.44466 19.5759 6.46406 19.597Q6.48347 19.6182 6.48347 19.6499ZM7.04791 20.8141Q7.04791 20.4543 7.13963 20.1668Q7.23136 19.8792 7.41656 19.7117Q7.60177 19.5441 7.87341 19.5441Q8.14505 19.5441 8.33026 19.7117Q8.51547 19.8792 8.60719 20.1668Q8.69891 20.4543 8.69891 20.8141Q8.69891 21.1739 8.60719 21.4615Q8.51547 21.749 8.33026 21.9165Q8.14505 22.0841 7.87341 22.0841Q7.60177 22.0841 7.41656 21.9165Q7.23136 21.749 7.13963 21.4615Q7.04791 21.1739 7.04791 20.8141ZM8.55075 20.8141Q8.55075 20.3061 8.37612 19.9992Q8.2015 19.6923 7.87341 19.6923Q7.54533 19.6923 7.3707 19.9992Q7.19608 20.3061 7.19608 20.8141Q7.19608 21.3221 7.3707 21.629Q7.54533 21.9359 7.87341 21.9359Q8.2015 21.9359 8.37612 21.629Q8.55075 21.3221 8.55075 20.8141ZM9.12225 20.8141Q9.12225 20.4543 9.21397 20.1668Q9.30569 19.8792 9.4909 19.7117Q9.67611 19.5441 9.94775 19.5441Q10.2194 19.5441 10.4046 19.7117Q10.5898 19.8792 10.6815 20.1668Q10.7732 20.4543 10.7732 20.8141Q10.7732 21.1739 10.6815 21.4615Q10.5898 21.749 10.4046 21.9165Q10.2194 22.0841 9.94775 22.0841Q9.67611 22.0841 9.4909 21.9165Q9.30569 21.749 9.21397 21.4615Q9.12225 21.1739 9.12225 20.8141ZM10.6251 20.8141Q10.6251 20.3061 10.4505 19.9992Q10.2758 19.6923 9.94775 19.6923Q9.61966 19.6923 9.44504 19.9992Q9.27041 20.3061 9.27041 20.8141Q9.27041 21.3221 9.44504 21.629Q9.61966 21.9359 9.94775 21.9359Q10.2758 21.9359 10.4505 21.629Q10.6251 21.3221 10.6251 20.8141ZM14.1246 19.6535V21.9747Q14.1211 22.0065 14.0999 22.0277Q14.0788 22.0488 14.0506 22.0488Q14.0153 22.0488 13.9959 22.0277Q13.9765 22.0065 13.9765 21.9747V20.8494H12.4384V21.9747Q12.4348 22.0065 12.4137 22.0277Q12.3925 22.0488 12.3643 22.0488Q12.329 22.0488 12.3096 22.0277Q12.2902 22.0065 12.2902 21.9747V19.6535Q12.2902 19.6217 12.3114 19.6006Q12.3325 19.5794 12.3643 19.5794Q12.396 19.5794 12.4172 19.6006Q12.4384 19.6217 12.4384 19.6535V20.7083H13.9765V19.6535Q13.9765 19.6217 13.9976 19.6006Q14.0188 19.5794 14.0506 19.5794Q14.0823 19.5794 14.1035 19.6006Q14.1246 19.6217 14.1246 19.6535ZM15.9661 20.352 14.8514 21.9148H15.8779Q15.9062 21.9148 15.9273 21.9359Q15.9485 21.9571 15.9485 21.9818Q15.9485 22.01 15.9273 22.0294Q15.9062 22.0488 15.8779 22.0488H14.7279Q14.6961 22.0488 14.675 22.0241Q14.6538 21.9994 14.6538 21.9783Q14.6538 21.9571 14.6714 21.9324L15.7862 20.3661H14.8337Q14.8055 20.3661 14.7843 20.3467Q14.7632 20.3273 14.7632 20.2991Q14.7632 20.2708 14.7843 20.2514Q14.8055 20.232 14.8337 20.232H15.9132Q15.9414 20.232 15.9608 20.2532Q15.9802 20.2744 15.9838 20.3026Q15.9838 20.3273 15.9661 20.352Z" style="stroke:#000000;stroke-width:0.25;stroke-linecap:round;stroke-linejoin:bevel" />
        <path d="M 10.16,30.00 L 5.16,41.00 z L 15.16,41.00 z " style="stroke:#000000;stroke-width:0.1;stroke-linecap:round;stroke-linejoin:bevel;stroke-dasharray:none" />
        <path d="M27.6431 21.2692Q27.6431 21.5056 27.5284 21.6908Q27.4138 21.876 27.2197 21.98Q27.0257 22.0841 26.7999 22.0841Q26.6412 22.0841 26.4983 22.0277Q26.3554 21.9712 26.2496 21.8583Q26.2284 21.8372 26.2284 21.8089Q26.2284 21.7807 26.2496 21.756Q26.2708 21.7313 26.3025 21.7313Q26.3343 21.7313 26.366 21.7666Q26.5212 21.9359 26.7999 21.9359Q26.994 21.9359 27.1527 21.8513Q27.3115 21.7666 27.4032 21.6132Q27.4949 21.4597 27.4949 21.2692Q27.4949 21.054 27.3979 20.9111Q27.3009 20.7682 27.1457 20.7012Q26.9904 20.6342 26.8176 20.6342Q26.7823 20.6342 26.7311 20.6395Q26.68 20.6448 26.6729 20.6448Q26.6412 20.6448 26.6218 20.6236Q26.6024 20.6024 26.6024 20.5672Q26.6024 20.5354 26.62 20.5178L27.3326 19.7205H26.2637Q26.2355 19.7205 26.2143 19.6993Q26.1932 19.6782 26.1932 19.6499Q26.1932 19.6182 26.2143 19.5988Q26.2355 19.5794 26.2637 19.5794H27.4843Q27.5231 19.5794 27.5408 19.6058Q27.5584 19.6323 27.5584 19.6535Q27.5584 19.6817 27.5372 19.7029L26.8352 20.4931Q26.8493 20.4896 26.8705 20.4896Q27.0681 20.4896 27.2444 20.5777Q27.4208 20.6659 27.532 20.8423Q27.6431 21.0187 27.6431 21.2692ZM29.7068 21.9783Q29.7068 22.01 29.6857 22.0294Q29.6645 22.0488 29.6363 22.0488H28.2746Q28.2393 22.0488 28.2128 22.0312Q28.1864 22.0136 28.1864 21.9747Q28.1864 21.9536 28.204 21.9289L29.033 21.0046Q29.2553 20.7682 29.3576 20.5901Q29.4599 20.4119 29.4599 20.2391Q29.4599 19.9745 29.3029 19.8299Q29.1459 19.6852 28.8531 19.6852Q28.6591 19.6852 28.5127 19.7717Q28.3663 19.8581 28.3028 20.0451Q28.2957 20.0662 28.2798 20.0839Q28.264 20.1015 28.2357 20.1015Q28.2111 20.1015 28.1846 20.0839Q28.1581 20.0662 28.1581 20.0451Q28.1581 20.0274 28.1758 19.9816Q28.2569 19.7699 28.4421 19.657Q28.6273 19.5441 28.8637 19.5441Q29.22 19.5441 29.4176 19.7311Q29.6151 19.9181 29.6151 20.225Q29.6151 20.4119 29.5128 20.6095Q29.4105 20.8071 29.1494 21.0893L28.4298 21.9077H29.6363Q29.6645 21.9077 29.6857 21.9289Q29.7068 21.9501 29.7068 21.9783ZM30.0949 20.8141Q30.0949 20.4543 30.1866 20.1668Q30.2783 19.8792 30.4635 19.7117Q30.6487 19.5441 30.9204 19.5441Q31.192 19.5441 31.3772 19.7117Q31.5624 19.8792 31.6542 20.1668Q31.7459 20.4543 31.7459 20.8141Q31.7459 21.1739 31.6542 21.4615Q31.5624 21.749 31.3772 21.9165Q31.192 22.0841 30.9204 22.0841Q30.6487 22.0841 30.4635 21.9165Q30.2783 21.749 30.1866 21.4615Q30.0949 21.1739 30.0949 20.8141ZM31.5977 20.8141Q31.5977 20.3061 31.4231 19.9992Q31.2485 19.6923 30.9204 19.6923Q30.5923 19.6923 30.4177 19.9992Q30.2431 20.3061 30.2431 20.8141Q30.2431 21.3221 30.4177 21.629Q30.5923 21.9359 30.9204 21.9359Q31.2485 21.9359 31.4231 21.629Q31.5977 21.3221 31.5977 20.8141ZM35.0973 19.6535V21.9747Q35.0937 22.0065 35.0726 22.0277Q35.0514 22.0488 35.0232 22.0488Q34.9879 22.0488 34.9685 22.0277Q34.9491 22.0065 34.9491 21.9747V20.8494H33.411V21.9747Q33.4075 22.0065 33.3863 22.0277Q33.3651 22.0488 33.3369 22.0488Q33.3016 22.0488 33.2822 22.0277Q33.2628 22.0065 33.2628 21.9747V19.6535Q33.2628 19.6217 33.284 19.6006Q33.3052 19.5794 33.3369 19.5794Q33.3687 19.5794 33.3898 19.6006Q33.411 19.6217 33.411 19.6535V20.7083H34.9491V19.6535Q34.9491 19.6217 34.9703 19.6006Q34.9914 19.5794 35.0232 19.5794Q35.0549 19.5794 35.0761 19.6006Q35.0973 19.6217 35.0973 19.6535ZM36.9388 20.352 35.824 21.9148H36.8506Q36.8788 21.9148 36.9 21.9359Q36.9211 21.9571 36.9211 21.9818Q36.9211 22.01 36.9 22.0294Q36.8788 22.0488 36.8506 22.0488H35.7005Q35.6688 22.0488 35.6476 22.0241Q35.6264 21.9994 35.6264 21.9783Q35.6264 21.9571 35.6441 21.9324L36.7589 20.3661H35.8064Q35.7781 20.3661 35.757 20.3467Q35.7358 20.3273 35.7358 20.2991Q35.7358 20.2708 35.757 20.2514Q35.7781 20.232 35.8064 20.232H36.8859Q36.9141 20.232 36.9335 20.2532Q36.9529 20.2744 36.9564 20.3026Q36.9564 20.3273 36.9388 20.352Z" style="stroke:#000000;stroke-width:0.25;stroke-linecap:round;stroke-linejoin:bevel" />
        <path d="M 30.48,30.00 L 25.48,41.00 z L 35.48,41.00 z " style="stroke:#000000;stroke-width:0.1;stroke-linecap:round;stroke-linejoin:bevel;stroke-dasharray:none" />
        <path d="M47.3751 19.6499V21.9783Q47.3751 22.0065 47.3539 22.0277Q47.3328 22.0488 47.301 22.0488Q47.2693 22.0488 47.2481 22.0277Q47.2269 22.0065 47.2269 21.9783V19.784L46.7119 20.0909Q46.7013 20.098 46.6837 20.098Q46.6519 20.098 46.629 20.0715Q46.6061 20.0451 46.6061 20.0204Q46.6061 19.9886 46.6449 19.9604L47.2622 19.59Q47.2799 19.5759 47.3046 19.5759Q47.3363 19.5759 47.3557 19.597Q47.3751 19.6182 47.3751 19.6499ZM50.3773 21.9783Q50.3773 22.01 50.3508 22.0294Q50.3243 22.0488 50.3067 22.0488Q50.2785 22.0488 50.2538 22.0241L49.4283 21.1457L49.1319 21.3927V21.9783Q49.1319 22.0065 49.1125 22.0277Q49.0931 22.0488 49.0614 22.0488Q49.0296 22.0488 49.0102 22.0277Q48.9908 22.0065 48.9908 21.9783V19.5088Q48.9908 19.4806 49.0102 19.4594Q49.0296 19.4383 49.0614 19.4383Q49.0931 19.4383 49.1125 19.4594Q49.1319 19.4806 49.1319 19.5088V21.2163L50.2397 20.2885Q50.2608 20.2673 50.2855 20.2673Q50.3138 20.2673 50.3349 20.2885Q50.3561 20.3096 50.3561 20.3414Q50.3561 20.3731 50.3314 20.3943L49.5376 21.054L50.3561 21.9254Q50.3773 21.9465 50.3773 21.9783ZM52.7162 19.6535V21.9747Q52.7126 22.0065 52.6915 22.0277Q52.6703 22.0488 52.6421 22.0488Q52.6068 22.0488 52.5874 22.0277Q52.568 22.0065 52.568 21.9747V20.8494H51.0299V21.9747Q51.0264 22.0065 51.0052 22.0277Q50.984 22.0488 50.9558 22.0488Q50.9205 22.0488 50.9011 22.0277Q50.8817 22.0065 50.8817 21.9747V19.6535Q50.8817 19.6217 50.9029 19.6006Q50.9241 19.5794 50.9558 19.5794Q50.9876 19.5794 51.0087 19.6006Q51.0299 19.6217 51.0299 19.6535V20.7083H52.568V19.6535Q52.568 19.6217 52.5892 19.6006Q52.6103 19.5794 52.6421 19.5794Q52.6738 19.5794 52.695 19.6006Q52.7162 19.6217 52.7162 19.6535ZM54.5577 20.352 53.4429 21.9148H54.4695Q54.4977 21.9148 54.5189 21.9359Q54.54 21.9571 54.54 21.9818Q54.54 22.01 54.5189 22.0294Q54.4977 22.0488 54.4695 22.0488H53.3194Q53.2877 22.0488 53.2665 22.0241Q53.2453 21.9994 53.2453 21.9783Q53.2453 21.9571 53.263 21.9324L54.3778 20.3661H53.4253Q53.397 20.3661 53.3759 20.3467Q53.3547 20.3273 53.3547 20.2991Q53.3547 20.2708 53.3759 20.2514Q53.397 20.232 53.4253 20.232H54.5048Q54.533 20.232 54.5524 20.2532Q54.5718 20.2744 54.5753 20.3026Q54.5753 20.3273 54.5577 20.352Z" style="stroke:#000000;stroke-width:0.25;stroke-linecap:round;stroke-linejoin:bevel" />
        <path d="M 50.80,30.00 L 45.80,41.00 z L 55.80,41.00 z " style="stroke:#000000;stroke-width:0.1;stroke-linecap:round;stroke-linejoin:bevel;stroke-dasharray:none" />
        <path d="M67.3588 21.2692Q67.3588 21.5056 67.2441 21.6908Q67.1295 21.876 66.9355 21.98Q66.7414 22.0841 66.5157 22.0841Q66.3569 22.0841 66.214 22.0277Q66.0712 21.9712 65.9653 21.8583Q65.9442 21.8372 65.9442 21.8089Q65.9442 21.7807 65.9653 21.756Q65.9865 21.7313 66.0182 21.7313Q66.05 21.7313 66.0817 21.7666Q66.237 21.9359 66.5157 21.9359Q66.7097 21.9359 66.8684 21.8513Q67.0272 21.7666 67.1189 21.6132Q67.2106 21.4597 67.2106 21.2692Q67.2106 21.054 67.1136 20.9111Q67.0166 20.7682 66.8614 20.7012Q66.7062 20.6342 66.5333 20.6342Q66.498 20.6342 66.4469 20.6395Q66.3957 20.6448 66.3887 20.6448Q66.3569 20.6448 66.3375 20.6236Q66.3181 20.6024 66.3181 20.5672Q66.3181 20.5354 66.3357 20.5178L67.0484 19.7205H65.9794Q65.9512 19.7205 65.9301 19.6993Q65.9089 19.6782 65.9089 19.6499Q65.9089 19.6182 65.9301 19.5988Q65.9512 19.5794 65.9794 19.5794H67.2001Q67.2389 19.5794 67.2565 19.6058Q67.2741 19.6323 67.2741 19.6535Q67.2741 19.6817 67.253 19.7029L66.5509 20.4931Q66.5651 20.4896 66.5862 20.4896Q66.7838 20.4896 66.9602 20.5777Q67.1366 20.6659 67.2477 20.8423Q67.3588 21.0187 67.3588 21.2692ZM67.7398 21.9395V21.8583Q67.7398 21.8089 67.7645 21.779Q67.7892 21.749 67.8351 21.749H67.8492Q67.895 21.749 67.9197 21.779Q67.9444 21.8089 67.9444 21.8583V21.9395Q67.9444 21.9889 67.9197 22.0188Q67.895 22.0488 67.8492 22.0488H67.8351Q67.7892 22.0488 67.7645 22.0188Q67.7398 21.9889 67.7398 21.9395ZM69.9799 21.9783Q69.9799 22.01 69.9588 22.0294Q69.9376 22.0488 69.9094 22.0488H68.5477Q68.5124 22.0488 68.4859 22.0312Q68.4595 22.0136 68.4595 21.9747Q68.4595 21.9536 68.4771 21.9289L69.3061 21.0046Q69.5284 20.7682 69.6307 20.5901Q69.733 20.4119 69.733 20.2391Q69.733 19.9745 69.576 19.8299Q69.419 19.6852 69.1262 19.6852Q68.9322 19.6852 68.7858 19.7717Q68.6394 19.8581 68.5759 20.0451Q68.5688 20.0662 68.553 20.0839Q68.5371 20.1015 68.5089 20.1015Q68.4842 20.1015 68.4577 20.0839Q68.4312 20.0662 68.4312 20.0451Q68.4312 20.0274 68.4489 19.9816Q68.53 19.7699 68.7152 19.657Q68.9004 19.5441 69.1368 19.5441Q69.4931 19.5441 69.6907 19.7311Q69.8882 19.9181 69.8882 20.225Q69.8882 20.4119 69.7859 20.6095Q69.6836 20.8071 69.4226 21.0893L68.7029 21.9077H69.9094Q69.9376 21.9077 69.9588 21.9289Q69.9799 21.9501 69.9799 21.9783ZM72.8057 21.9783Q72.8057 22.01 72.7792 22.0294Q72.7528 22.0488 72.7351 22.0488Q72.7069 22.0488 72.6822 22.0241L71.8567 21.1457L71.5604 21.3927V21.9783Q71.5604 22.0065 71.541 22.0277Q71.5216 22.0488 71.4898 22.0488Q71.4581 22.0488 71.4387 22.0277Q71.4193 22.0065 71.4193 21.9783V19.5088Q71.4193 19.4806 71.4387 19.4594Q71.4581 19.4383 71.4898 19.4383Q71.5216 19.4383 71.541 19.4594Q71.5604 19.4806 71.5604 19.5088V21.2163L72.6681 20.2885Q72.6893 20.2673 72.714 20.2673Q72.7422 20.2673 72.7634 20.2885Q72.7845 20.3096 72.7845 20.3414Q72.7845 20.3731 72.7598 20.3943L71.9661 21.054L72.7845 21.9254Q72.8057 21.9465 72.8057 21.9783ZM75.1446 19.6535V21.9747Q75.1411 22.0065 75.1199 22.0277Q75.0987 22.0488 75.0705 22.0488Q75.0352 22.0488 75.0158 22.0277Q74.9964 22.0065 74.9964 21.9747V20.8494H73.4583V21.9747Q73.4548 22.0065 73.4336 22.0277Q73.4125 22.0488 73.3842 22.0488Q73.349 22.0488 73.3296 22.0277Q73.3102 22.0065 73.3102 21.9747V19.6535Q73.3102 19.6217 73.3313 19.6006Q73.3525 19.5794 73.3842 19.5794Q73.416 19.5794 73.4372 19.6006Q73.4583 19.6217 73.4583 19.6535V20.7083H74.9964V19.6535Q74.9964 19.6217 75.0176 19.6006Q75.0388 19.5794 75.0705 19.5794Q75.1023 19.5794 75.1234 19.6006Q75.1446 19.6217 75.1446 19.6535ZM76.9861 20.352 75.8713 21.9148H76.8979Q76.9261 21.9148 76.9473 21.9359Q76.9685 21.9571 76.9685 21.9818Q76.9685 22.01 76.9473 22.0294Q76.9261 22.0488 76.8979 22.0488H75.7479Q75.7161 22.0488 75.6949 22.0241Q75.6738 21.9994 75.6738 21.9783Q75.6738 21.9571 75.6914 21.9324L76.8062 20.3661H75.8537Q75.8255 20.3661 75.8043 20.3467Q75.7831 20.3273 75.7831 20.2991Q75.7831 20.2708 75.8043 20.2514Q75.8255 20.232 75.8537 20.232H76.9332Q76.9614 20.232 76.9808 20.2532Q77.0002 20.2744 77.0037 20.3026Q77.0037 20.3273 76.9861 20.352Z" style="stroke:#000000;stroke-width:0.25;stroke-linecap:round;stroke-linejoin:bevel" />
        <path d="M 71.12,30.00 L 66.12,41.00 z L 76.12,41.00 z " style="stroke:#000000;stroke-width:0.1;stroke-linecap:round;stroke-linejoin:bevel;stroke-dasharray:none" />
        <path d="M87.4272 19.6499V21.9783Q87.4272 22.0065 87.406 22.0277Q87.3848 22.0488 87.3531 22.0488Q87.3213 22.0488 87.3002 22.0277Q87.279 22.0065 87.279 21.9783V19.784L86.7639 20.0909Q86.7533 20.098 86.7357 20.098Q86.704 20.098 86.681 20.0715Q86.6581 20.0451 86.6581 20.0204Q86.6581 19.9886 86.6969 19.9604L87.3143 19.59Q87.3319 19.5759 87.3566 19.5759Q87.3883 19.5759 87.4077 19.597Q87.4272 19.6182 87.4272 19.6499ZM87.9916 20.8141Q87.9916 20.4543 88.0833 20.1668Q88.175 19.8792 88.3602 19.7117Q88.5455 19.5441 88.8171 19.5441Q89.0887 19.5441 89.2739 19.7117Q89.4592 19.8792 89.5509 20.1668Q89.6426 20.4543 89.6426 20.8141Q89.6426 21.1739 89.5509 21.4615Q89.4592 21.749 89.2739 21.9165Q89.0887 22.0841 88.8171 22.0841Q88.5455 22.0841 88.3602 21.9165Q88.175 21.749 88.0833 21.4615Q87.9916 21.1739 87.9916 20.8141ZM89.4944 20.8141Q89.4944 20.3061 89.3198 19.9992Q89.1452 19.6923 88.8171 19.6923Q88.489 19.6923 88.3144 19.9992Q88.1398 20.3061 88.1398 20.8141Q88.1398 21.3221 88.3144 21.629Q88.489 21.9359 88.8171 21.9359Q89.1452 21.9359 89.3198 21.629Q89.4944 21.3221 89.4944 20.8141ZM92.5036 21.9783Q92.5036 22.01 92.4772 22.0294Q92.4507 22.0488 92.4331 22.0488Q92.4048 22.0488 92.3802 22.0241L91.5547 21.1457L91.2583 21.3927V21.9783Q91.2583 22.0065 91.2389 22.0277Q91.2195 22.0488 91.1878 22.0488Q91.156 22.0488 91.1366 22.0277Q91.1172 22.0065 91.1172 21.9783V19.5088Q91.1172 19.4806 91.1366 19.4594Q91.156 19.4383 91.1878 19.4383Q91.2195 19.4383 91.2389 19.4594Q91.2583 19.4806 91.2583 19.5088V21.2163L92.366 20.2885Q92.3872 20.2673 92.4119 20.2673Q92.4401 20.2673 92.4613 20.2885Q92.4825 20.3096 92.4825 20.3414Q92.4825 20.3731 92.4578 20.3943L91.664 21.054L92.4825 21.9254Q92.5036 21.9465 92.5036 21.9783ZM94.8425 19.6535V21.9747Q94.839 22.0065 94.8178 22.0277Q94.7967 22.0488 94.7685 22.0488Q94.7332 22.0488 94.7138 22.0277Q94.6944 22.0065 94.6944 21.9747V20.8494H93.1563V21.9747Q93.1527 22.0065 93.1316 22.0277Q93.1104 22.0488 93.0822 22.0488Q93.0469 22.0488 93.0275 22.0277Q93.0081 22.0065 93.0081 21.9747V19.6535Q93.0081 19.6217 93.0293 19.6006Q93.0504 19.5794 93.0822 19.5794Q93.1139 19.5794 93.1351 19.6006Q93.1563 19.6217 93.1563 19.6535V20.7083H94.6944V19.6535Q94.6944 19.6217 94.7155 19.6006Q94.7367 19.5794 94.7685 19.5794Q94.8002 19.5794 94.8214 19.6006Q94.8425 19.6217 94.8425 19.6535ZM96.684 20.352 95.5693 21.9148H96.5958Q96.6241 21.9148 96.6452 21.9359Q96.6664 21.9571 96.6664 21.9818Q96.6664 22.01 96.6452 22.0294Q96.6241 22.0488 96.5958 22.0488H95.4458Q95.414 22.0488 95.3929 22.0241Q95.3717 21.9994 95.3717 21.9783Q95.3717 21.9571 95.3893 21.9324L96.5041 20.3661H95.5516Q95.5234 20.3661 95.5022 20.3467Q95.4811 20.3273 95.4811 20.2991Q95.4811 20.2708 95.5022 20.2514Q95.5234 20.232 95.5516 20.232H96.6311Q96.6593 20.232 96.6787 20.2532Q96.6982 20.2744 96.7017 20.3026Q96.7017 20.3273 96.684 20.352Z" style="stroke:#000000;stroke-width:0.25;stroke-linecap:round;stroke-linejoin:bevel" />
        <path d="M 91.44,30.00 L 86.44,41.00 z L 96.44,41.00 z " style="stroke:#000000;stroke-width:0.1;stroke-linecap:round;stroke-linejoin:bevel;stroke-dasharray:none" />
        <path d="M6.93208 52.0488Q6.90033 52.0488 6.88093 52.0277Q6.86153 52.0065 6.86153 51.9783V49.5088Q6.86153 49.4806 6.88269 49.4594Q6.90386 49.4383 6.93208 49.4383Q6.96383 49.4383 6.98324 49.4594Q7.00264 49.4806 7.00264 49.5088V51.9783Q7.00264 52.0065 6.98147 52.0277Q6.96031 52.0488 6.93208 52.0488ZM9.05933 51.689Q9.05933 51.7137 9.04522 51.7313Q8.92881 51.8866 8.75594 51.9853Q8.58308 52.0841 8.38553 52.0841Q8.12094 52.0841 7.91633 51.9712Q7.71172 51.8583 7.59707 51.6502Q7.48242 51.4421 7.48242 51.1669Q7.48242 50.8847 7.59354 50.6712Q7.70467 50.4578 7.88811 50.3449Q8.07156 50.232 8.27969 50.232Q8.48783 50.232 8.66599 50.322Q8.84414 50.4119 8.95703 50.5919Q9.06992 50.7718 9.07697 51.0364Q9.07697 51.0646 9.05581 51.0875Q9.03464 51.1104 9.00642 51.1104H7.62V51.1563Q7.62 51.375 7.70819 51.5567Q7.79639 51.7384 7.96925 51.8442Q8.14211 51.9501 8.38553 51.9501Q8.55486 51.9501 8.70479 51.8672Q8.85472 51.7842 8.93939 51.6572Q8.96408 51.6255 8.99936 51.6255Q9.02406 51.6255 9.04169 51.6449Q9.05933 51.6643 9.05933 51.689ZM7.63411 50.9764H8.93233V50.9446Q8.91469 50.7647 8.81768 50.636Q8.72067 50.5072 8.57779 50.4402Q8.43492 50.3731 8.27969 50.3731Q8.14917 50.3731 8.01335 50.4419Q7.87753 50.5107 7.77346 50.6465Q7.66939 50.7824 7.63411 50.9764ZM10.9396 50.2814Q10.9396 50.3026 10.9291 50.3237L10.227 52.003Q10.22 52.0241 10.2006 52.0365Q10.1812 52.0488 10.16 52.0488Q10.1388 52.0488 10.1194 52.0365Q10.1 52.0241 10.093 52.003L9.38742 50.3273Q9.38036 50.3061 9.38036 50.2955Q9.38036 50.2673 9.39976 50.2461Q9.41917 50.225 9.45444 50.225Q9.47208 50.225 9.49149 50.2373Q9.51089 50.2497 9.51794 50.2708L10.1565 51.8054L10.7985 50.2708Q10.8162 50.225 10.8726 50.225Q10.8938 50.225 10.9167 50.2408Q10.9396 50.2567 10.9396 50.2814ZM12.8199 51.689Q12.8199 51.7137 12.8058 51.7313Q12.6894 51.8866 12.5166 51.9853Q12.3437 52.0841 12.1461 52.0841Q11.8816 52.0841 11.6769 51.9712Q11.4723 51.8583 11.3577 51.6502Q11.243 51.4421 11.243 51.1669Q11.243 50.8847 11.3542 50.6712Q11.4653 50.4578 11.6487 50.3449Q11.8322 50.232 12.0403 50.232Q12.2484 50.232 12.4266 50.322Q12.6047 50.4119 12.7176 50.5919Q12.8305 50.7718 12.8376 51.0364Q12.8376 51.0646 12.8164 51.0875Q12.7952 51.1104 12.767 51.1104H11.3806V51.1563Q11.3806 51.375 11.4688 51.5567Q11.557 51.7384 11.7299 51.8442Q11.9027 51.9501 12.1461 51.9501Q12.3155 51.9501 12.4654 51.8672Q12.6153 51.7842 12.7 51.6572Q12.7247 51.6255 12.76 51.6255Q12.7847 51.6255 12.8023 51.6449Q12.8199 51.6643 12.8199 51.689ZM11.3947 50.9764H12.6929V50.9446Q12.6753 50.7647 12.5783 50.636Q12.4813 50.5072 12.3384 50.4402Q12.1955 50.3731 12.0403 50.3731Q11.9098 50.3731 11.774 50.4419Q11.6381 50.5107 11.5341 50.6465Q11.43 50.7824 11.3947 50.9764ZM13.3879 52.0488Q13.3562 52.0488 13.3368 52.0277Q13.3174 52.0065 13.3174 51.9783V49.5088Q13.3174 49.4806 13.3385 49.4594Q13.3597 49.4383 13.3879 49.4383Q13.4197 49.4383 13.4391 49.4594Q13.4585 49.4806 13.4585 49.5088V51.9783Q13.4585 52.0065 13.4373 52.0277Q13.4161 52.0488 13.3879 52.0488Z" style="stroke:#000000;stroke-width:0.25;stroke-linecap:round;stroke-linejoin:bevel" />
        <path d="M 10.16,60.00 L 5.16,71.00 z L 15.16,71.00 z " style="stroke:#000000;stroke-width:0.1;stroke-linecap:round;stroke-linejoin:bevel;stroke-dasharray:none" />
        <path d="M27.2521 52.0488Q27.2203 52.0488 27.2009 52.0277Q27.1815 52.0065 27.1815 51.9783V49.5088Q27.1815 49.4806 27.2027 49.4594Q27.2239 49.4383 27.2521 49.4383Q27.2838 49.4383 27.3032 49.4594Q27.3226 49.4806 27.3226 49.5088V51.9783Q27.3226 52.0065 27.3015 52.0277Q27.2803 52.0488 27.2521 52.0488ZM29.3793 51.689Q29.3793 51.7137 29.3652 51.7313Q29.2488 51.8866 29.0759 51.9853Q28.9031 52.0841 28.7055 52.0841Q28.4409 52.0841 28.2363 51.9712Q28.0317 51.8583 27.9171 51.6502Q27.8024 51.4421 27.8024 51.1669Q27.8024 50.8847 27.9135 50.6712Q28.0247 50.4578 28.2081 50.3449Q28.3916 50.232 28.5997 50.232Q28.8078 50.232 28.986 50.322Q29.1641 50.4119 29.277 50.5919Q29.3899 50.7718 29.397 51.0364Q29.397 51.0646 29.3758 51.0875Q29.3546 51.1104 29.3264 51.1104H27.94V51.1563Q27.94 51.375 28.0282 51.5567Q28.1164 51.7384 28.2892 51.8442Q28.4621 51.9501 28.7055 51.9501Q28.8749 51.9501 29.0248 51.8672Q29.1747 51.7842 29.2594 51.6572Q29.2841 51.6255 29.3194 51.6255Q29.3441 51.6255 29.3617 51.6449Q29.3793 51.6643 29.3793 51.689ZM27.9541 50.9764H29.2523V50.9446Q29.2347 50.7647 29.1377 50.636Q29.0407 50.5072 28.8978 50.4402Q28.7549 50.3731 28.5997 50.3731Q28.4692 50.3731 28.3333 50.4419Q28.1975 50.5107 28.0935 50.6465Q27.9894 50.7824 27.9541 50.9764ZM31.2596 50.2814Q31.2596 50.3026 31.2491 50.3237L30.547 52.003Q30.54 52.0241 30.5206 52.0365Q30.5012 52.0488 30.48 52.0488Q30.4588 52.0488 30.4394 52.0365Q30.42 52.0241 30.413 52.003L29.7074 50.3273Q29.7004 50.3061 29.7004 50.2955Q29.7004 50.2673 29.7198 50.2461Q29.7392 50.225 29.7744 50.225Q29.7921 50.225 29.8115 50.2373Q29.8309 50.2497 29.8379 50.2708L30.4765 51.8054L31.1185 50.2708Q31.1362 50.225 31.1926 50.225Q31.2138 50.225 31.2367 50.2408Q31.2596 50.2567 31.2596 50.2814ZM33.1399 51.689Q33.1399 51.7137 33.1258 51.7313Q33.0094 51.8866 32.8366 51.9853Q32.6637 52.0841 32.4661 52.0841Q32.2016 52.0841 31.9969 51.9712Q31.7923 51.8583 31.6777 51.6502Q31.563 51.4421 31.563 51.1669Q31.563 50.8847 31.6742 50.6712Q31.7853 50.4578 31.9687 50.3449Q32.1522 50.232 32.3603 50.232Q32.5684 50.232 32.7466 50.322Q32.9247 50.4119 33.0376 50.5919Q33.1505 50.7718 33.1576 51.0364Q33.1576 51.0646 33.1364 51.0875Q33.1152 51.1104 33.087 51.1104H31.7006V51.1563Q31.7006 51.375 31.7888 51.5567Q31.877 51.7384 32.0499 51.8442Q32.2227 51.9501 32.4661 51.9501Q32.6355 51.9501 32.7854 51.8672Q32.9353 51.7842 33.02 51.6572Q33.0447 51.6255 33.08 51.6255Q33.1047 51.6255 33.1223 51.6449Q33.1399 51.6643 33.1399 51.689ZM31.7147 50.9764H33.0129V50.9446Q32.9953 50.7647 32.8983 50.636Q32.8013 50.5072 32.6584 50.4402Q32.5155 50.3731 32.3603 50.3731Q32.2298 50.3731 32.094 50.4419Q31.9581 50.5107 31.8541 50.6465Q31.75 50.7824 31.7147 50.9764ZM33.7079 52.0488Q33.6762 52.0488 33.6568 52.0277Q33.6374 52.0065 33.6374 51.9783V49.5088Q33.6374 49.4806 33.6585 49.4594Q33.6797 49.4383 33.7079 49.4383Q33.7397 49.4383 33.7591 49.4594Q33.7785 49.4806 33.7785 49.5088V51.9783Q33.7785 52.0065 33.7573 52.0277Q33.7361 52.0488 33.7079 52.0488Z" style="stroke:#000000;stroke-width:0.25;stroke-linecap:round;stroke-linejoin:bevel" />
        <path d="M 30.48,60.00 L 25.48,71.00 z L 35.48,71.00 z " style="stroke:#000000;stroke-width:0.1;stroke-linecap:round;stroke-linejoin:bevel;stroke-dasharray:none" />
        <path d="M47.5721 52.0488Q47.5403 52.0488 47.5209 52.0277Q47.5015 52.0065 47.5015 51.9783V49.5088Q47.5015 49.4806 47.5227 49.4594Q47.5439 49.4383 47.5721 49.4383Q47.6038 49.4383 47.6232 49.4594Q47.6426 49.4806 47.6426 49.5088V51.9783Q47.6426 52.0065 47.6215 52.0277Q47.6003 52.0488 47.5721 52.0488ZM49.6993 51.689Q49.6993 51.7137 49.6852 51.7313Q49.5688 51.8866 49.3959 51.9853Q49.2231 52.0841 49.0255 52.0841Q48.7609 52.0841 48.5563 51.9712Q48.3517 51.8583 48.2371 51.6502Q48.1224 51.4421 48.1224 51.1669Q48.1224 50.8847 48.2335 50.6712Q48.3447 50.4578 48.5281 50.3449Q48.7116 50.232 48.9197 50.232Q49.1278 50.232 49.306 50.322Q49.4841 50.4119 49.597 50.5919Q49.7099 50.7718 49.717 51.0364Q49.717 51.0646 49.6958 51.0875Q49.6746 51.1104 49.6464 51.1104H48.26V51.1563Q48.26 51.375 48.3482 51.5567Q48.4364 51.7384 48.6092 51.8442Q48.7821 51.9501 49.0255 51.9501Q49.1949 51.9501 49.3448 51.8672Q49.4947 51.7842 49.5794 51.6572Q49.6041 51.6255 49.6394 51.6255Q49.6641 51.6255 49.6817 51.6449Q49.6993 51.6643 49.6993 51.689ZM48.2741 50.9764H49.5723V50.9446Q49.5547 50.7647 49.4577 50.636Q49.3607 50.5072 49.2178 50.4402Q49.0749 50.3731 48.9197 50.3731Q48.7892 50.3731 48.6533 50.4419Q48.5175 50.5107 48.4135 50.6465Q48.3094 50.7824 48.2741 50.9764ZM51.5796 50.2814Q51.5796 50.3026 51.5691 50.3237L50.867 52.003Q50.86 52.0241 50.8406 52.0365Q50.8212 52.0488 50.8 52.0488Q50.7788 52.0488 50.7594 52.0365Q50.74 52.0241 50.733 52.003L50.0274 50.3273Q50.0204 50.3061 50.0204 50.2955Q50.0204 50.2673 50.0398 50.2461Q50.0592 50.225 50.0944 50.225Q50.1121 50.225 50.1315 50.2373Q50.1509 50.2497 50.1579 50.2708L50.7965 51.8054L51.4385 50.2708Q51.4562 50.225 51.5126 50.225Q51.5338 50.225 51.5567 50.2408Q51.5796 50.2567 51.5796 50.2814ZM53.4599 51.689Q53.4599 51.7137 53.4458 51.7313Q53.3294 51.8866 53.1566 51.9853Q52.9837 52.0841 52.7861 52.0841Q52.5216 52.0841 52.3169 51.9712Q52.1123 51.8583 51.9977 51.6502Q51.883 51.4421 51.883 51.1669Q51.883 50.8847 51.9942 50.6712Q52.1053 50.4578 52.2887 50.3449Q52.4722 50.232 52.6803 50.232Q52.8884 50.232 53.0666 50.322Q53.2447 50.4119 53.3576 50.5919Q53.4705 50.7718 53.4776 51.0364Q53.4776 51.0646 53.4564 51.0875Q53.4352 51.1104 53.407 51.1104H52.0206V51.1563Q52.0206 51.375 52.1088 51.5567Q52.197 51.7384 52.3699 51.8442Q52.5427 51.9501 52.7861 51.9501Q52.9555 51.9501 53.1054 51.8672Q53.2553 51.7842 53.34 51.6572Q53.3647 51.6255 53.4 51.6255Q53.4247 51.6255 53.4423 51.6449Q53.4599 51.6643 53.4599 51.689ZM52.0347 50.9764H53.3329V50.9446Q53.3153 50.7647 53.2183 50.636Q53.1213 50.5072 52.9784 50.4402Q52.8355 50.3731 52.6803 50.3731Q52.5498 50.3731 52.414 50.4419Q52.2781 50.5107 52.1741 50.6465Q52.07 50.7824 52.0347 50.9764ZM54.0279 52.0488Q53.9962 52.0488 53.9768 52.0277Q53.9574 52.0065 53.9574 51.9783V49.5088Q53.9574 49.4806 53.9785 49.4594Q53.9997 49.4383 54.0279 49.4383Q54.0597 49.4383 54.0791 49.4594Q54.0985 49.4806 54.0985 49.5088V51.9783Q54.0985 52.0065 54.0773 52.0277Q54.0561 52.0488 54.0279 52.0488Z" style="stroke:#000000;stroke-width:0.25;stroke-linecap:round;stroke-linejoin:bevel" />
        <path d="M 50.80,60.00 L 45.80,71.00 z L 55.80,71.00 z " style="stroke:#000000;stroke-width:0.1;stroke-linecap:round;stroke-linejoin:bevel;stroke-dasharray:none" />
        <path d="M67.8921 52.0488Q67.8603 52.0488 67.8409 52.0277Q67.8215 52.0065 67.8215 51.9783V49.5088Q67.8215 49.4806 67.8427 49.4594Q67.8639 49.4383 67.8921 49.4383Q67.9238 49.4383 67.9432 49.4594Q67.9626 49.4806 67.9626 49.5088V51.9783Q67.9626 52.0065 67.9415 52.0277Q67.9203 52.0488 67.8921 52.0488ZM70.0193 51.689Q70.0193 51.7137 70.0052 51.7313Q69.8888 51.8866 69.7159 51.9853Q69.5431 52.0841 69.3455 52.0841Q69.0809 52.0841 68.8763 51.9712Q68.6717 51.8583 68.5571 51.6502Q68.4424 51.4421 68.4424 51.1669Q68.4424 50.8847 68.5535 50.6712Q68.6647 50.4578 68.8481 50.3449Q69.0316 50.232 69.2397 50.232Q69.4478 50.232 69.626 50.322Q69.8041 50.4119 69.917 50.5919Q70.0299 50.7718 70.037 51.0364Q70.037 51.0646 70.0158 51.0875Q69.9946 51.1104 69.9664 51.1104H68.58V51.1563Q68.58 51.375 68.6682 51.5567Q68.7564 51.7384 68.9292 51.8442Q69.1021 51.9501 69.3455 51.9501Q69.5149 51.9501 69.6648 51.8672Q69.8147 51.7842 69.8994 51.6572Q69.9241 51.6255 69.9594 51.6255Q69.9841 51.6255 70.0017 51.6449Q70.0193 51.6643 70.0193 51.689ZM68.5941 50.9764H69.8923V50.9446Q69.8747 50.7647 69.7777 50.636Q69.6807 50.5072 69.5378 50.4402Q69.3949 50.3731 69.2397 50.3731Q69.1092 50.3731 68.9733 50.4419Q68.8375 50.5107 68.7335 50.6465Q68.6294 50.7824 68.5941 50.9764ZM71.8996 50.2814Q71.8996 50.3026 71.8891 50.3237L71.187 52.003Q71.18 52.0241 71.1606 52.0365Q71.1412 52.0488 71.12 52.0488Q71.0988 52.0488 71.0794 52.0365Q71.06 52.0241 71.053 52.003L70.3474 50.3273Q70.3404 50.3061 70.3404 50.2955Q70.3404 50.2673 70.3598 50.2461Q70.3792 50.225 70.4144 50.225Q70.4321 50.225 70.4515 50.2373Q70.4709 50.2497 70.4779 50.2708L71.1165 51.8054L71.7585 50.2708Q71.7762 50.225 71.8326 50.225Q71.8538 50.225 71.8767 50.2408Q71.8996 50.2567 71.8996 50.2814ZM73.7799 51.689Q73.7799 51.7137 73.7658 51.7313Q73.6494 51.8866 73.4766 51.9853Q73.3037 52.0841 73.1061 52.0841Q72.8416 52.0841 72.6369 51.9712Q72.4323 51.8583 72.3177 51.6502Q72.203 51.4421 72.203 51.1669Q72.203 50.8847 72.3142 50.6712Q72.4253 50.4578 72.6087 50.3449Q72.7922 50.232 73.0003 50.232Q73.2084 50.232 73.3866 50.322Q73.5647 50.4119 73.6776 50.5919Q73.7905 50.7718 73.7976 51.0364Q73.7976 51.0646 73.7764 51.0875Q73.7552 51.1104 73.727 51.1104H72.3406V51.1563Q72.3406 51.375 72.4288 51.5567Q72.517 51.7384 72.6899 51.8442Q72.8627 51.9501 73.1061 51.9501Q73.2755 51.9501 73.4254 51.8672Q73.5753 51.7842 73.66 51.6572Q73.6847 51.6255 73.72 51.6255Q73.7447 51.6255 73.7623 51.6449Q73.7799 51.6643 73.7799 51.689ZM72.3547 50.9764H73.6529V50.9446Q73.6353 50.7647 73.5383 50.636Q73.4413 50.5072 73.2984 50.4402Q73.1555 50.3731 73.0003 50.3731Q72.8698 50.3731 72.734 50.4419Q72.5981 50.5107 72.4941 50.6465Q72.39 50.7824 72.3547 50.9764ZM74.3479 52.0488Q74.3162 52.0488 74.2968 52.0277Q74.2774 52.0065 74.2774 51.9783V49.5088Q74.2774 49.4806 74.2985 49.4594Q74.3197 49.4383 74.3479 49.4383Q74.3797 49.4383 74.3991 49.4594Q74.4185 49.4806 74.4185 49.5088V51.9783Q74.4185 52.0065 74.3973 52.0277Q74.3761 52.0488 74.3479 52.0488Z" style="stroke:#000000;stroke-width:0.25;stroke-linecap:round;stroke-linejoin:bevel" />
        <path d="M 71.12,60.00 L 66.12,71.00 z L 76.12,71.00 z " style="stroke:#000000;stroke-width:0.1;stroke-linecap:round;stroke-linejoin:bevel;stroke-dasharray:none" />
        <path d="M88.2121 52.0488Q88.1803 52.0488 88.1609 52.0277Q88.1415 52.0065 88.1415 51.9783V49.5088Q88.1415 49.4806 88.1627 49.4594Q88.1839 49.4383 88.2121 49.4383Q88.2438 49.4383 88.2632 49.4594Q88.2826 49.4806 88.2826 49.5088V51.9783Q88.2826 52.0065 88.2615 52.0277Q88.2403 52.0488 88.2121 52.0488ZM90.3393 51.689Q90.3393 51.7137 90.3252 51.7313Q90.2088 51.8866 90.0359 51.9853Q89.8631 52.0841 89.6655 52.0841Q89.4009 52.0841 89.1963 51.9712Q88.9917 51.8583 88.8771 51.6502Q88.7624 51.4421 88.7624 51.1669Q88.7624 50.8847 88.8735 50.6712Q88.9847 50.4578 89.1681 50.3449Q89.3516 50.232 89.5597 50.232Q89.7678 50.232 89.946 50.322Q90.1241 50.4119 90.237 50.5919Q90.3499 50.7718 90.357 51.0364Q90.357 51.0646 90.3358 51.0875Q90.3146 51.1104 90.2864 51.1104H88.9V51.1563Q88.9 51.375 88.9882 51.5567Q89.0764 51.7384 89.2492 51.8442Q89.4221 51.9501 89.6655 51.9501Q89.8349 51.9501 89.9848 51.8672Q90.1347 51.7842 90.2194 51.6572Q90.2441 51.6255 90.2794 51.6255Q90.3041 51.6255 90.3217 51.6449Q90.3393 51.6643 90.3393 51.689ZM88.9141 50.9764H90.2123V50.9446Q90.1947 50.7647 90.0977 50.636Q90.0007 50.5072 89.8578 50.4402Q89.7149 50.3731 89.5597 50.3731Q89.4292 50.3731 89.2933 50.4419Q89.1575 50.5107 89.0535 50.6465Q88.9494 50.7824 88.9141 50.9764ZM92.2196 50.2814Q92.2196 50.3026 92.2091 50.3237L91.507 52.003Q91.5 52.0241 91.4806 52.0365Q91.4612 52.0488 91.44 52.0488Q91.4188 52.0488 91.3994 52.0365Q91.38 52.0241 91.373 52.003L90.6674 50.3273Q90.6604 50.3061 90.6604 50.2955Q90.6604 50.2673 90.6798 50.2461Q90.6992 50.225 90.7344 50.225Q90.7521 50.225 90.7715 50.2373Q90.7909 50.2497 90.7979 50.2708L91.4365 51.8054L92.0785 50.2708Q92.0962 50.225 92.1526 50.225Q92.1738 50.225 92.1967 50.2408Q92.2196 50.2567 92.2196 50.2814ZM94.0999 51.689Q94.0999 51.7137 94.0858 51.7313Q93.9694 51.8866 93.7966 51.9853Q93.6237 52.0841 93.4261 52.0841Q93.1616 52.0841 92.9569 51.9712Q92.7523 51.8583 92.6377 51.6502Q92.523 51.4421 92.523 51.1669Q92.523 50.8847 92.6342 50.6712Q92.7453 50.4578 92.9287 50.3449Q93.1122 50.232 93.3203 50.232Q93.5284 50.232 93.7066 50.322Q93.8847 50.4119 93.9976 50.5919Q94.1105 50.7718 94.1176 51.0364Q94.1176 51.0646 94.0964 51.0875Q94.0752 51.1104 94.047 51.1104H92.6606V51.1563Q92.6606 51.375 92.7488 51.5567Q92.837 51.7384 93.0099 51.8442Q93.1827 51.9501 93.4261 51.9501Q93.5955 51.9501 93.7454 51.8672Q93.8953 51.7842 93.98 51.6572Q94.0047 51.6255 94.04 51.6255Q94.0647 51.6255 94.0823 51.6449Q94.0999 51.6643 94.0999 51.689ZM92.6747 50.9764H93.9729V50.9446Q93.9553 50.7647 93.8583 50.636Q93.7613 50.5072 93.6184 50.4402Q93.4755 50.3731 93.3203 50.3731Q93.1898 50.3731 93.054 50.4419Q92.9181 50.5107 92.8141 50.6465Q92.71 50.7824 92.6747 50.9764ZM94.6679 52.0488Q94.6362 52.0488 94.6168 52.0277Q94.5974 52.0065 94.5974 51.9783V49.5088Q94.5974 49.4806 94.6185 49.4594Q94.6397 49.4383 94.6679 49.4383Q94.6997 49.4383 94.7191 49.4594Q94.7385 49.4806 94.7385 49.5088V51.9783Q94.7385 52.0065 94.7173 52.0277Q94.6961 52.0488 94.6679 52.0488Z" style="stroke:#000000;stroke-width:0.25;stroke-linecap:round;stroke-linejoin:bevel" />
        <path d="M 91.44,60.00 L 86.44,71.00 z L 96.44,71.00 z " style="stroke:#000000;stroke-width:0.1;stroke-linecap:round;stroke-linejoin:bevel;stroke-dasharray:none" />
    </g>
</svg>
