<?xml version="1.0" encoding="utf-8"?>
<svg xmlns="http://www.w3.org/2000/svg" width="193.04mm" height="128.50mm" viewBox="0 0 193.04 128.50">
    <g id="PanelLayer">
        <g id="ControlLayer" style="display:none;">
            <circle id="center_4_cv" cx="10" cy="23" r="1" />
            <circle id="center_4_atten" cx="18" cy="23" r="1" />
            <circle id="center_4_knob" cx="26" cy="23" r="1" />
            <circle id="center_3_cv" cx="10" cy="37" r="1" />
            <circle id="center_3_atten" cx="18" cy="37" r="1" />
            <circle id="center_3_knob" cx="26" cy="37" r="1" />
            <circle id="center_2_cv" cx="10" cy="51" r="1" />
            <circle id="center_2_atten" cx="18" cy="51" r="1" />
            <circle id="center_2_knob" cx="26" cy="51" r="1" />
            <circle id="center_1_cv" cx="10" cy="65" r="1" />
            <circle id="center_1_atten" cx="18" cy="65" r="1" />
            <circle id="center_1_knob" cx="26" cy="65" r="1" />
            <circle id="center_0_cv" cx="10" cy="79" r="1" />
            <circle id="center_0_atten" cx="18" cy="79" r="1" />
            <circle id="center_0_knob" cx="26" cy="79" r="1" />
            <circle id="level_4_cv" cx="41.408" cy="23" r="1" />
            <circle id="level_4_atten" cx="49.408" cy="23" r="1" />
            <circle id="level_4_knob" cx="57.408" cy="23" r="1" />
            <circle id="level_3_cv" cx="41.408" cy="37" r="1" />
            <circle id="level_3_atten" cx="49.408" cy="37" r="1" />
            <circle id="level_3_knob" cx="57.408" cy="37" r="1" />
            <circle id="level_2_cv" cx="41.408" cy="51" r="1" />
            <circle id="level_2_atten" cx="49.408" cy="51" r="1" />
            <circle id="level_2_knob" cx="57.408" cy="51" r="1" />
            <circle id="level_1_cv" cx="41.408" cy="65" r="1" />
            <circle id="level_1_atten" cx="49.408" cy="65" r="1" />
            <circle id="level_1_knob" cx="57.408" cy="65" r="1" />
            <circle id="level_0_cv" cx="41.408" cy="79" r="1" />
            <circle id="level_0_atten" cx="49.408" cy="79" r="1" />
            <circle id="level_0_knob" cx="57.408" cy="79" r="1" />
            <circle id="dispersion_4_cv" cx="72.816" cy="23" r="1" />
            <circle id="dispersion_4_atten" cx="80.816" cy="23" r="1" />
            <circle id="dispersion_4_knob" cx="88.816" cy="23" r="1" />
            <circle id="dispersion_3_cv" cx="72.816" cy="37" r="1" />
            <circle id="dispersion_3_atten" cx="80.816" cy="37" r="1" />
            <circle id="dispersion_3_knob" cx="88.816" cy="37" r="1" />
            <circle id="dispersion_2_cv" cx="72.816" cy="51" r="1" />
            <circle id="dispersion_2_atten" cx="80.816" cy="51" r="1" />
            <circle id="dispersion_2_knob" cx="88.816" cy="51" r="1" />
            <circle id="dispersion_1_cv" cx="72.816" cy="65" r="1" />
            <circle id="dispersion_1_atten" cx="80.816" cy="65" r="1" />
            <circle id="dispersion_1_knob" cx="88.816" cy="65" r="1" />
            <circle id="dispersion_0_cv" cx="72.816" cy="79" r="1" />
            <circle id="dispersion_0_atten" cx="80.816" cy="79" r="1" />
            <circle id="dispersion_0_knob" cx="88.816" cy="79" r="1" />
            <circle id="bandwidth_4_cv" cx="104.224" cy="23" r="1" />
            <circle id="bandwidth_4_atten" cx="112.224" cy="23" r="1" />
            <circle id="bandwidth_4_knob" cx="120.224" cy="23" r="1" />
            <circle id="bandwidth_3_cv" cx="104.224" cy="37" r="1" />
            <circle id="bandwidth_3_atten" cx="112.224" cy="37" r="1" />
            <circle id="bandwidth_3_knob" cx="120.224" cy="37" r="1" />
            <circle id="bandwidth_2_cv" cx="104.224" cy="51" r="1" />
            <circle id="bandwidth_2_atten" cx="112.224" cy="51" r="1" />
            <circle id="bandwidth_2_knob" cx="120.224" cy="51" r="1" />
            <circle id="bandwidth_1_cv" cx="104.224" cy="65" r="1" />
            <circle id="bandwidth_1_atten" cx="112.224" cy="65" r="1" />
            <circle id="bandwidth_1_knob" cx="120.224" cy="65" r="1" />
            <circle id="bandwidth_0_cv" cx="104.224" cy="79" r="1" />
            <circle id="bandwidth_0_atten" cx="112.224" cy="79" r="1" />
            <circle id="bandwidth_0_knob" cx="120.224" cy="79" r="1" />
            <circle id="delay_4_cv" cx="135.632" cy="23" r="1" />
            <circle id="delay_4_atten" cx="143.632" cy="23" r="1" />
            <circle id="delay_4_knob" cx="151.632" cy="23" r="1" />
            <circle id="delay_3_cv" cx="135.632" cy="37" r="1" />
            <circle id="delay_3_atten" cx="143.632" cy="37" r="1" />
            <circle id="delay_3_knob" cx="151.632" cy="37" r="1" />
            <circle id="delay_2_cv" cx="135.632" cy="51" r="1" />
            <circle id="delay_2_atten" cx="143.632" cy="51" r="1" />
            <circle id="delay_2_knob" cx="151.632" cy="51" r="1" />
            <circle id="delay_1_cv" cx="135.632" cy="65" r="1" />
            <circle id="delay_1_atten" cx="143.632" cy="65" r="1" />
            <circle id="delay_1_knob" cx="151.632" cy="65" r="1" />
            <circle id="delay_0_cv" cx="135.632" cy="79" r="1" />
            <circle id="delay_0_atten" cx="143.632" cy="79" r="1" />
            <circle id="delay_0_knob" cx="151.632" cy="79" r="1" />
            <circle id="feedback_4_cv" cx="167.04" cy="23" r="1" />
            <circle id="feedback_4_atten" cx="175.04" cy="23" r="1" />
            <circle id="feedback_4_knob" cx="183.04" cy="23" r="1" />
            <circle id="feedback_3_cv" cx="167.04" cy="37" r="1" />
            <circle id="feedback_3_atten" cx="175.04" cy="37" r="1" />
            <circle id="feedback_3_knob" cx="183.04" cy="37" r="1" />
            <circle id="feedback_2_cv" cx="167.04" cy="51" r="1" />
            <circle id="feedback_2_atten" cx="175.04" cy="51" r="1" />
            <circle id="feedback_2_knob" cx="183.04" cy="51" r="1" />
            <circle id="feedback_1_cv" cx="167.04" cy="65" r="1" />
            <circle id="feedback_1_atten" cx="175.04" cy="65" r="1" />
            <circle id="feedback_1_knob" cx="183.04" cy="65" r="1" />
            <circle id="feedback_0_cv" cx="167.04" cy="79" r="1" />
            <circle id="feedback_0_atten" cx="175.04" cy="79" r="1" />
            <circle id="feedback_0_knob" cx="183.04" cy="79" r="1" />
            <circle id="audio_input" cx="18" cy="107" r="1" />
            <circle id="audio_output" cx="175.04" cy="107" r="1" />
        </g>
        <rect id="border_rect" width="193.04" height="128.5" x="0" y="0" style="display:inline;fill:#4f8df2;fill-opacity:1;fill-rule:nonzero;stroke:#5021d4;stroke-width:0.7;stroke-linecap:round;stroke-linejoin:round;stroke-dasharray:none;stroke-opacity:1;image-rendering:auto" />
        <path id="model_name" d="M83.9121 7.38291Q83.9121 7.32858 83.9742 7.28201Q84.013 7.24321 84.0673 7.24321Q84.1449 7.24321 84.1915 7.3053Q84.6416 7.94947 85.4488 7.94947Q85.8601 7.94947 86.1706 7.7438Q86.481 7.53813 86.481 7.18888Q86.481 6.83187 86.2094 6.65336Q85.9377 6.47486 85.4643 6.35844Q84.8356 6.20322 84.4748 5.94322Q84.1139 5.68323 84.1139 5.2098Q84.1139 4.75189 84.4786 4.45309Q84.8434 4.15429 85.4177 4.15429Q85.7359 4.15429 86.0503 4.27846Q86.3646 4.40264 86.6207 4.67428Q86.675 4.72085 86.675 4.78294Q86.675 4.85279 86.6207 4.90711Q86.5586 4.93816 86.5198 4.93816Q86.4655 4.93816 86.4267 4.89159Q86.0231 4.44921 85.3867 4.44921Q84.9753 4.44921 84.6921 4.651Q84.4088 4.85279 84.4088 5.2098Q84.4321 5.54352 84.7154 5.72591Q84.9986 5.9083 85.5497 6.048Q85.9455 6.14889 86.2055 6.26919Q86.4655 6.38949 86.6207 6.6068Q86.7759 6.82411 86.7759 7.17336Q86.7759 7.66231 86.3995 7.94559Q86.0231 8.22887 85.4177 8.22887Q84.533 8.22887 83.9664 7.53037Q83.9121 7.445 83.9121 7.38291ZM91.3938 6.21098Q91.3938 6.76978 91.1571 7.22381Q90.9204 7.67783 90.509 7.93783Q90.0977 8.19782 89.5932 8.19782Q89.1275 8.19782 88.7395 7.96499Q88.3514 7.73216 88.1031 7.3053V9.54826Q88.1031 9.61035 88.0604 9.65691Q88.0177 9.70348 87.9479 9.70348Q87.8858 9.70348 87.8392 9.65691Q87.7926 9.61035 87.7926 9.54826V4.38712Q87.7926 4.32503 87.8353 4.27846Q87.878 4.2319 87.9479 4.2319Q88.0177 4.2319 88.0604 4.27846Q88.1031 4.32503 88.1031 4.38712V5.10114Q88.3359 4.65876 88.724 4.44533Q89.112 4.2319 89.5932 4.2319Q90.1054 4.2319 90.5168 4.48801Q90.9281 4.74413 91.161 5.19428Q91.3938 5.64442 91.3938 6.21098ZM91.0833 6.21098Q91.0833 5.72979 90.8854 5.34562Q90.6875 4.96144 90.346 4.74413Q90.0045 4.52682 89.5777 4.52682Q89.1431 4.52682 88.7977 4.74025Q88.4523 4.95368 88.2622 5.33786Q88.072 5.72203 88.072 6.21098Q88.072 6.69993 88.2622 7.08411Q88.4523 7.46828 88.7977 7.68559Q89.1431 7.9029 89.5777 7.9029Q90.0045 7.9029 90.346 7.68559Q90.6875 7.46828 90.8854 7.08022Q91.0833 6.69217 91.0833 6.21098ZM95.74 4.43369V7.99604Q95.74 8.05812 95.6934 8.10469Q95.6469 8.15126 95.5848 8.15126Q95.5149 8.15126 95.4723 8.10469Q95.4296 8.05812 95.4296 7.99604V7.29754Q95.2355 7.69335 94.832 7.96111Q94.4284 8.22887 93.9394 8.22887Q93.4272 8.22887 93.0159 7.96111Q92.6045 7.69335 92.3717 7.22381Q92.1389 6.75426 92.1389 6.17217Q92.1389 5.59785 92.3756 5.13607Q92.6123 4.67428 93.0236 4.41428Q93.435 4.15429 93.9394 4.15429Q94.4439 4.15429 94.8475 4.41816Q95.2511 4.68204 95.4296 5.12443V4.43369Q95.4296 4.3716 95.4723 4.32503Q95.5149 4.27846 95.5848 4.27846Q95.6546 4.27846 95.6973 4.32503Q95.74 4.3716 95.74 4.43369ZM95.4606 6.17217Q95.4606 5.69875 95.2666 5.30293Q95.0726 4.90711 94.7272 4.67816Q94.3818 4.44921 93.955 4.44921Q93.5281 4.44921 93.1827 4.6704Q92.8374 4.89159 92.6433 5.28353Q92.4493 5.67546 92.4493 6.17217Q92.4493 6.66889 92.6433 7.07246Q92.8374 7.47604 93.1788 7.70499Q93.5203 7.93395 93.955 7.93395Q94.3818 7.93395 94.7272 7.70499Q95.0726 7.47604 95.2666 7.07246Q95.4606 6.66889 95.4606 6.17217ZM98.6194 4.39488Q98.6194 4.45697 98.5767 4.49966Q98.534 4.54234 98.4719 4.54234H97.6182V7.3053Q97.6182 7.64679 97.7385 7.75932Q97.8588 7.87186 98.0451 7.87186Q98.0761 7.87186 98.1343 7.85634Q98.1925 7.84081 98.2313 7.84081Q98.2857 7.84081 98.3245 7.8835Q98.3633 7.92619 98.3633 7.98051Q98.3633 8.05036 98.2701 8.10081Q98.177 8.15126 98.0528 8.15126Q97.8588 8.15126 97.7269 8.12409Q97.5949 8.09693 97.4513 7.91454Q97.3078 7.73216 97.3078 7.32082V4.54234H96.6713Q96.617 4.54234 96.5704 4.49578Q96.5239 4.44921 96.5239 4.39488Q96.5239 4.33279 96.5666 4.29011Q96.6093 4.24742 96.6713 4.24742H97.3078V3.26176Q97.3078 3.19967 97.3543 3.1531Q97.4009 3.10654 97.463 3.10654Q97.5328 3.10654 97.5755 3.1531Q97.6182 3.19967 97.6182 3.26176V4.24742H98.4719Q98.5262 4.24742 98.5728 4.29399Q98.6194 4.34055 98.6194 4.39488ZM102.562 4.43369V6.69217Q102.562 7.42948 102.147 7.81365Q101.732 8.19782 101.018 8.19782Q100.304 8.19782 99.8922 7.81365Q99.4809 7.42948 99.4809 6.69217V4.43369Q99.4809 4.3716 99.5274 4.32503Q99.574 4.27846 99.6361 4.27846Q99.7059 4.27846 99.7486 4.32503Q99.7913 4.3716 99.7913 4.43369V6.69217Q99.7913 7.27425 100.117 7.58858Q100.443 7.9029 101.018 7.9029Q101.6 7.9029 101.926 7.58858Q102.252 7.27425 102.252 6.69217V4.43369Q102.252 4.3716 102.294 4.32503Q102.337 4.27846 102.407 4.27846Q102.477 4.27846 102.519 4.32503Q102.562 4.3716 102.562 4.43369ZM104.044 8.15126Q103.975 8.15126 103.932 8.10469Q103.889 8.05812 103.889 7.99604V2.56326Q103.889 2.50117 103.936 2.4546Q103.982 2.40804 104.044 2.40804Q104.114 2.40804 104.157 2.4546Q104.2 2.50117 104.2 2.56326V7.99604Q104.2 8.05812 104.153 8.10469Q104.106 8.15126 104.044 8.15126ZM108.856 4.43369V7.99604Q108.856 8.05812 108.81 8.10469Q108.763 8.15126 108.701 8.15126Q108.631 8.15126 108.589 8.10469Q108.546 8.05812 108.546 7.99604V7.29754Q108.352 7.69335 107.948 7.96111Q107.545 8.22887 107.056 8.22887Q106.543 8.22887 106.132 7.96111Q105.721 7.69335 105.488 7.22381Q105.255 6.75426 105.255 6.17217Q105.255 5.59785 105.492 5.13607Q105.729 4.67428 106.14 4.41428Q106.551 4.15429 107.056 4.15429Q107.56 4.15429 107.964 4.41816Q108.367 4.68204 108.546 5.12443V4.43369Q108.546 4.3716 108.589 4.32503Q108.631 4.27846 108.701 4.27846Q108.771 4.27846 108.814 4.32503Q108.856 4.3716 108.856 4.43369ZM108.577 6.17217Q108.577 5.69875 108.383 5.30293Q108.189 4.90711 107.843 4.67816Q107.498 4.44921 107.071 4.44921Q106.644 4.44921 106.299 4.6704Q105.954 4.89159 105.76 5.28353Q105.566 5.67546 105.566 6.17217Q105.566 6.66889 105.76 7.07246Q105.954 7.47604 106.295 7.70499Q106.637 7.93395 107.071 7.93395Q107.498 7.93395 107.843 7.70499Q108.189 7.47604 108.383 7.07246Q108.577 6.66889 108.577 6.17217Z" style="display:inline;stroke:#000000;stroke-width:0.35;stroke-linecap:round;stroke-linejoin:bevel" />
        <g id="sapphire_insignia">
            <path id="brand_name" d="M81.6264 124.775Q81.6264 124.721 81.6885 124.674Q81.7273 124.636 81.7816 124.636Q81.8593 124.636 81.9058 124.698Q82.356 125.342 83.1631 125.342Q83.5745 125.342 83.8849 125.136Q84.1954 124.93 84.1954 124.581Q84.1954 124.224 83.9237 124.046Q83.6521 123.867 83.1786 123.751Q82.55 123.596 82.1891 123.336Q81.8282 123.076 81.8282 122.602Q81.8282 122.144 82.193 121.845Q82.5578 121.547 83.1321 121.547Q83.4503 121.547 83.7646 121.671Q84.0789 121.795 84.3351 122.067Q84.3894 122.113 84.3894 122.175Q84.3894 122.245 84.3351 122.299Q84.273 122.331 84.2342 122.331Q84.1798 122.331 84.141 122.284Q83.7374 121.842 83.101 121.842Q82.6897 121.842 82.4064 122.043Q82.1231 122.245 82.1231 122.602Q82.1464 122.936 82.4297 123.118Q82.713 123.301 83.264 123.44Q83.6598 123.541 83.9198 123.662Q84.1798 123.782 84.3351 123.999Q84.4903 124.216 84.4903 124.566Q84.4903 125.055 84.1139 125.338Q83.7374 125.621 83.1321 125.621Q82.2473 125.621 81.6808 124.923Q81.6264 124.837 81.6264 124.775ZM88.8365 121.826V125.388Q88.8365 125.45 88.7899 125.497Q88.7434 125.544 88.6813 125.544Q88.6114 125.544 88.5687 125.497Q88.5261 125.45 88.5261 125.388V124.69Q88.332 125.086 87.9284 125.353Q87.5249 125.621 87.0359 125.621Q86.5237 125.621 86.1124 125.353Q85.701 125.086 85.4682 124.616Q85.2353 124.147 85.2353 123.565Q85.2353 122.99 85.4721 122.528Q85.7088 122.067 86.1201 121.807Q86.5315 121.547 87.0359 121.547Q87.5404 121.547 87.944 121.811Q88.3475 122.074 88.5261 122.517V121.826Q88.5261 121.764 88.5687 121.717Q88.6114 121.671 88.6813 121.671Q88.7511 121.671 88.7938 121.717Q88.8365 121.764 88.8365 121.826ZM88.5571 123.565Q88.5571 123.091 88.3631 122.695Q88.169 122.299 87.8237 122.071Q87.4783 121.842 87.0514 121.842Q86.6246 121.842 86.2792 122.063Q85.9338 122.284 85.7398 122.676Q85.5458 123.068 85.5458 123.565Q85.5458 124.061 85.7398 124.465Q85.9338 124.868 86.2753 125.097Q86.6168 125.326 87.0514 125.326Q87.4783 125.326 87.8237 125.097Q88.169 124.868 88.3631 124.465Q88.5571 124.061 88.5571 123.565ZM93.726 123.603Q93.726 124.162 93.4893 124.616Q93.2526 125.07 92.8412 125.33Q92.4299 125.59 91.9254 125.59Q91.4598 125.59 91.0717 125.357Q90.6836 125.125 90.4353 124.698V126.941Q90.4353 127.003 90.3926 127.049Q90.3499 127.096 90.2801 127.096Q90.218 127.096 90.1714 127.049Q90.1248 127.003 90.1248 126.941V121.779Q90.1248 121.717 90.1675 121.671Q90.2102 121.624 90.2801 121.624Q90.3499 121.624 90.3926 121.671Q90.4353 121.717 90.4353 121.779V122.493Q90.6681 122.051 91.0562 121.838Q91.4442 121.624 91.9254 121.624Q92.4377 121.624 92.849 121.88Q93.2603 122.136 93.4932 122.587Q93.726 123.037 93.726 123.603ZM93.4156 123.603Q93.4156 123.122 93.2176 122.738Q93.0197 122.354 92.6783 122.136Q92.3368 121.919 91.9099 121.919Q91.4753 121.919 91.1299 122.133Q90.7845 122.346 90.5944 122.73Q90.4042 123.114 90.4042 123.603Q90.4042 124.092 90.5944 124.476Q90.7845 124.861 91.1299 125.078Q91.4753 125.295 91.9099 125.295Q92.3368 125.295 92.6783 125.078Q93.0197 124.861 93.2176 124.473Q93.4156 124.085 93.4156 123.603ZM98.3439 123.603Q98.3439 124.162 98.1071 124.616Q97.8704 125.07 97.4591 125.33Q97.0478 125.59 96.5433 125.59Q96.0776 125.59 95.6896 125.357Q95.3015 125.125 95.0532 124.698V126.941Q95.0532 127.003 95.0105 127.049Q94.9678 127.096 94.8979 127.096Q94.8358 127.096 94.7893 127.049Q94.7427 127.003 94.7427 126.941V121.779Q94.7427 121.717 94.7854 121.671Q94.8281 121.624 94.8979 121.624Q94.9678 121.624 95.0105 121.671Q95.0532 121.717 95.0532 121.779V122.493Q95.286 122.051 95.674 121.838Q96.0621 121.624 96.5433 121.624Q97.0555 121.624 97.4669 121.88Q97.8782 122.136 98.111 122.587Q98.3439 123.037 98.3439 123.603ZM98.0334 123.603Q98.0334 123.122 97.8355 122.738Q97.6376 122.354 97.2961 122.136Q96.9546 121.919 96.5278 121.919Q96.0931 121.919 95.7478 122.133Q95.4024 122.346 95.2123 122.73Q95.0221 123.114 95.0221 123.603Q95.0221 124.092 95.2123 124.476Q95.4024 124.861 95.7478 125.078Q96.0931 125.295 96.5278 125.295Q96.9546 125.295 97.2961 125.078Q97.6376 124.861 97.8355 124.473Q98.0334 124.085 98.0334 123.603ZM102.434 123.122V125.388Q102.434 125.45 102.387 125.497Q102.341 125.544 102.279 125.544Q102.209 125.544 102.166 125.497Q102.124 125.45 102.124 125.388V123.122Q102.124 122.587 101.86 122.253Q101.596 121.919 101.052 121.919Q100.719 121.919 100.397 122.082Q100.075 122.245 99.8728 122.525Q99.671 122.804 99.671 123.122V125.388Q99.671 125.45 99.6244 125.497Q99.5779 125.544 99.5158 125.544Q99.4459 125.544 99.4033 125.497Q99.3606 125.45 99.3606 125.388V119.956Q99.3606 119.894 99.4071 119.847Q99.4537 119.8 99.5158 119.8Q99.5856 119.8 99.6283 119.847Q99.671 119.894 99.671 119.956V122.408Q99.8883 122.067 100.272 121.845Q100.657 121.624 101.052 121.624Q101.72 121.624 102.077 122.047Q102.434 122.47 102.434 123.122ZM103.878 125.544Q103.808 125.544 103.765 125.497Q103.722 125.45 103.722 125.388V121.702Q103.722 121.64 103.769 121.593Q103.815 121.547 103.878 121.547Q103.947 121.547 103.99 121.593Q104.033 121.64 104.033 121.702V125.388Q104.033 125.45 103.986 125.497Q103.94 125.544 103.878 125.544ZM103.606 120.771V120.708Q103.606 120.6 103.684 120.53Q103.761 120.46 103.885 120.46Q103.994 120.46 104.068 120.53Q104.141 120.6 104.141 120.708V120.771Q104.141 120.879 104.068 120.949Q103.994 121.019 103.878 121.019Q103.753 121.019 103.68 120.949Q103.606 120.879 103.606 120.771ZM107.432 121.725Q107.432 121.795 107.393 121.842Q107.355 121.888 107.292 121.888Q107.269 121.888 107.18 121.853Q107.091 121.818 106.99 121.818Q106.672 121.818 106.353 122.071Q106.035 122.323 105.833 122.707Q105.632 123.091 105.632 123.448V125.388Q105.632 125.45 105.585 125.497Q105.538 125.544 105.476 125.544Q105.406 125.544 105.364 125.497Q105.321 125.45 105.321 125.388V121.826Q105.321 121.764 105.368 121.717Q105.414 121.671 105.476 121.671Q105.546 121.671 105.589 121.717Q105.632 121.764 105.632 121.826V122.649Q105.81 122.175 106.186 121.865Q106.563 121.554 107.075 121.547Q107.432 121.547 107.432 121.725ZM111.375 124.752Q111.375 124.806 111.344 124.845Q111.088 125.187 110.707 125.404Q110.327 125.621 109.892 125.621Q109.31 125.621 108.86 125.373Q108.41 125.125 108.158 124.667Q107.906 124.209 107.906 123.603Q107.906 122.982 108.15 122.513Q108.395 122.043 108.798 121.795Q109.202 121.547 109.66 121.547Q110.117 121.547 110.509 121.745Q110.901 121.942 111.15 122.338Q111.398 122.734 111.414 123.316Q111.414 123.378 111.367 123.429Q111.32 123.479 111.258 123.479H108.208V123.58Q108.208 124.061 108.402 124.461Q108.596 124.861 108.977 125.093Q109.357 125.326 109.892 125.326Q110.265 125.326 110.595 125.144Q110.925 124.962 111.111 124.682Q111.165 124.612 111.243 124.612Q111.297 124.612 111.336 124.655Q111.375 124.698 111.375 124.752ZM108.239 123.184H111.095V123.114Q111.057 122.719 110.843 122.435Q110.63 122.152 110.315 122.005Q110.001 121.857 109.66 121.857Q109.372 121.857 109.074 122.008Q108.775 122.16 108.546 122.459Q108.317 122.757 108.239 123.184Z" style="fill:#000000;stroke:#000000;stroke-width:0.265;stroke-linecap:square" />
            <g id="gemstones" style="stroke-width:0;fill:#0000ff;stroke:#2e2114;stroke-linecap:square;stroke-opacity:1">
                <path d="m 78.970,122.900 q 0,0.34175 -0.242534,0.63114 -0.0441,0.0524 -0.20395,0.21497 -0.187413,0.19017 -0.785481,0.81304 l -1.444183,1.51309 q -0.01929,0.003 -0.0441,0.003 -0.02756,0 -0.04134,-0.003 -0.08268,-0.0827 -0.647678,-0.67524 -0.468532,-0.47404 -0.934309,-0.94809 -0.556727,-0.56775 -0.89848,-0.98116 -0.132292,-0.15985 -0.168121,-0.29766 -0.02756,-0.10197 -0.02756,-0.34175 0,-0.11024 0.07166,-0.28939 0.06614,-0.16536 0.140559,-0.26458 0.118512,-0.1571 0.42168,-0.42444 0.283875,-0.2508 0.474044,-0.37482 0.272852,-0.17915 0.818555,-0.36656 0.09646,-0.0331 0.110243,-0.0331 h 1.3615 q 0.01102,0 0.104731,0.0331 0.567751,0.20119 0.824066,0.36656 0.165365,0.10473 0.474045,0.37758 0.322461,0.28388 0.421679,0.42168 0.214974,0.2949 0.214974,0.62563 z m -0.16812,-0.27285 q -0.03307,-0.10749 -0.135048,-0.30868 -0.07166,-0.0937 -0.209462,-0.19844 -0.118511,-0.0854 -0.234266,-0.17088 0.245291,0.3638 0.578776,0.678 z m -0.573264,-0.52366 -0.358289,-0.44648 v 0.41065 z m 0.636653,0.75792 q 0,-0.0524 -0.341753,-0.39412 l 0.228754,0.7028 h 0.04961 q 0.06339,-0.21773 0.06339,-0.30868 z m -0.23151,0.27285 -0.316948,-0.90399 -0.410655,-0.0634 -0.159853,0.61461 z m 0.0028,0.15434 -0.771701,-0.3197 h -0.03032 l 0.344509,0.60634 q 0.07993,-0.003 0.234266,-0.0469 0.02481,-0.0138 0.223242,-0.23978 z m -0.857139,-1.05006 -0.719335,0.28388 0.60358,0.22599 z m 0,-0.16261 v -0.51538 l -0.917773,-0.38034 h -1.223697 l -0.917772,0.38034 v 0.51538 l 0.89848,0.4079 h 1.254014 z m 0.573264,1.53789 q -0.0689,0.011 -0.198438,0.0524 -0.08544,0.0551 -0.259071,0.16261 0.01929,0 0.06339,0.003 0.04134,0 0.06339,0 0.118511,0 0.190169,-0.0689 0.07166,-0.0717 0.14056,-0.14883 z m -0.289388,0.003 -0.347266,-0.63114 -0.363801,0.87918 q 0.0248,-0.0165 0.06615,-0.0165 0.03032,0 0.08544,0.011 0.05788,0.008 0.08819,0.008 0.04961,0 0.228754,-0.10749 0.228754,-0.1378 0.242535,-0.14331 z m -0.440972,-0.74139 -0.683507,-0.2756 -0.592556,0.54845 0.903993,0.65595 z m -0.854383,-0.28387 h -1.036284 l 0.523654,0.47404 z m 0.749652,1.36701 q -0.228754,-0.0303 -0.228754,-0.0303 -0.03583,0 -0.272851,0.0937 l 0.190169,0.0193 q 0.01102,0 0.311436,-0.0827 z m -0.388606,-0.0882 -0.843359,-0.61185 v 0.67524 l 0.471289,0.0827 z m 0.854383,0.0496 q -0.09922,0.006 -0.2949,0.0386 -0.01102,0.003 -0.377583,0.17639 -0.129535,0.34726 -0.380338,1.0418 z m -2.543857,-1.39733 -0.719335,-0.28388 0.124023,0.51814 z m -0.802018,-0.45476 v -0.41065 l -0.366557,0.44648 z m 1.515841,1.07212 -0.592556,-0.54019 -0.683506,0.2756 0.380338,0.9288 z m 0.369314,0.94257 q -0.03307,-0.003 -0.135047,-0.0248 -0.08544,-0.0165 -0.137804,-0.0165 -0.05237,0 -0.137804,0.0165 -0.101975,0.0221 -0.135047,0.0248 0.264583,0.0469 0.272851,0.0469 0.0083,0 0.272851,-0.0469 z m -0.30868,-0.1378 v -0.68626 l -0.843359,0.61185 0.37207,0.14607 z m 0.950846,0.20671 -0.396875,-0.0551 -0.479557,0.14056 v 1.27607 z m -2.888366,-2.20211 q -0.118512,0.0854 -0.234267,0.17364 -0.146072,0.10748 -0.209461,0.19568 -0.0441,0.10473 -0.135048,0.31419 0.369314,-0.3638 0.578776,-0.68351 z m 0.476801,0.83234 -0.159853,-0.61461 -0.410655,0.0634 -0.316948,0.90399 z m 0.394118,1.08313 -0.363802,-0.87918 -0.355533,0.63114 q 0.43546,0.2508 0.451996,0.2508 0.09095,0 0.267339,-0.003 z m 1.821765,0.82958 q -0.132291,0.21222 -0.405143,0.6339 -0.07717,0.10749 -0.220486,0.32797 -0.05788,0.10473 -0.05512,0.226 0.159852,-0.15158 0.432704,-0.49609 0.07717,-0.12954 0.140559,-0.339 0.05512,-0.17639 0.107486,-0.35278 z m -1.493792,-0.66146 -0.270095,-0.0882 -0.0083,-0.011 q -0.02481,0 -0.107487,0.011 -0.06615,0.006 -0.107487,0.006 0.272851,0.091 0.311436,0.091 0.02481,0 0.181901,-0.008 z m -0.810286,-1.06384 h -0.03032 l -0.7717,0.3197 q 0.06615,0.0965 0.223242,0.23978 0.07717,0.0138 0.234266,0.0469 z m -0.689018,-0.50161 q -0.341754,0.34727 -0.341754,0.39412 0,0.0799 0.06339,0.30868 h 0.04961 z m 2.235176,3.04547 v -1.27607 l -0.479557,-0.14056 -0.396875,0.0551 z m -1.606791,-1.6757 q -0.256315,-0.1819 -0.457509,-0.22324 0.06615,0.0772 0.20395,0.22324 z m 1.609547,2.04501 v -0.1378 l -0.683507,-1.05007 q 0.05237,0.17639 0.107487,0.35278 0.06339,0.20946 0.14056,0.339 0.0689,0.11851 0.20395,0.25907 0.115755,0.11851 0.23151,0.23702 z m -0.644921,-0.70555 q -0.115756,-0.32798 -0.380339,-1.0418 -0.135047,-0.0662 -0.272851,-0.12954 -0.159852,-0.0716 -0.289388,-0.0716 -0.05237,0 -0.110243,-0.0138 z" />
                <path d="m 119.500,122.900 q 0,0.34175 -0.242534,0.63114 -0.0441,0.0524 -0.20395,0.21497 -0.187413,0.19017 -0.785481,0.81304 l -1.444183,1.51309 q -0.01929,0.003 -0.0441,0.003 -0.02756,0 -0.04134,-0.003 -0.08268,-0.0827 -0.647678,-0.67524 -0.468532,-0.47404 -0.934309,-0.94809 -0.556727,-0.56775 -0.89848,-0.98116 -0.132292,-0.15985 -0.168121,-0.29766 -0.02756,-0.10197 -0.02756,-0.34175 0,-0.11024 0.07166,-0.28939 0.06614,-0.16536 0.140559,-0.26458 0.118512,-0.1571 0.42168,-0.42444 0.283875,-0.2508 0.474044,-0.37482 0.272852,-0.17915 0.818555,-0.36656 0.09646,-0.0331 0.110243,-0.0331 h 1.3615 q 0.01102,0 0.104731,0.0331 0.567751,0.20119 0.824066,0.36656 0.165365,0.10473 0.474045,0.37758 0.322461,0.28388 0.421679,0.42168 0.214974,0.2949 0.214974,0.62563 z m -0.16812,-0.27285 q -0.03307,-0.10749 -0.135048,-0.30868 -0.07166,-0.0937 -0.209462,-0.19844 -0.118511,-0.0854 -0.234266,-0.17088 0.245291,0.3638 0.578776,0.678 z m -0.573264,-0.52366 -0.358289,-0.44648 v 0.41065 z m 0.636653,0.75792 q 0,-0.0524 -0.341753,-0.39412 l 0.228754,0.7028 h 0.04961 q 0.06339,-0.21773 0.06339,-0.30868 z m -0.23151,0.27285 -0.316948,-0.90399 -0.410655,-0.0634 -0.159853,0.61461 z m 0.0028,0.15434 -0.771701,-0.3197 h -0.03032 l 0.344509,0.60634 q 0.07993,-0.003 0.234266,-0.0469 0.02481,-0.0138 0.223242,-0.23978 z m -0.857139,-1.05006 -0.719335,0.28388 0.60358,0.22599 z m 0,-0.16261 v -0.51538 l -0.917773,-0.38034 h -1.223697 l -0.917772,0.38034 v 0.51538 l 0.89848,0.4079 h 1.254014 z m 0.573264,1.53789 q -0.0689,0.011 -0.198438,0.0524 -0.08544,0.0551 -0.259071,0.16261 0.01929,0 0.06339,0.003 0.04134,0 0.06339,0 0.118511,0 0.190169,-0.0689 0.07166,-0.0717 0.14056,-0.14883 z m -0.289388,0.003 -0.347266,-0.63114 -0.363801,0.87918 q 0.0248,-0.0165 0.06615,-0.0165 0.03032,0 0.08544,0.011 0.05788,0.008 0.08819,0.008 0.04961,0 0.228754,-0.10749 0.228754,-0.1378 0.242535,-0.14331 z m -0.440972,-0.74139 -0.683507,-0.2756 -0.592556,0.54845 0.903993,0.65595 z m -0.854383,-0.28387 h -1.036284 l 0.523654,0.47404 z m 0.749652,1.36701 q -0.228754,-0.0303 -0.228754,-0.0303 -0.03583,0 -0.272851,0.0937 l 0.190169,0.0193 q 0.01102,0 0.311436,-0.0827 z m -0.388606,-0.0882 -0.843359,-0.61185 v 0.67524 l 0.471289,0.0827 z m 0.854383,0.0496 q -0.09922,0.006 -0.2949,0.0386 -0.01102,0.003 -0.377583,0.17639 -0.129535,0.34726 -0.380338,1.0418 z m -2.543857,-1.39733 -0.719335,-0.28388 0.124023,0.51814 z m -0.802018,-0.45476 v -0.41065 l -0.366557,0.44648 z m 1.515841,1.07212 -0.592556,-0.54019 -0.683506,0.2756 0.380338,0.9288 z m 0.369314,0.94257 q -0.03307,-0.003 -0.135047,-0.0248 -0.08544,-0.0165 -0.137804,-0.0165 -0.05237,0 -0.137804,0.0165 -0.101975,0.0221 -0.135047,0.0248 0.264583,0.0469 0.272851,0.0469 0.0083,0 0.272851,-0.0469 z m -0.30868,-0.1378 v -0.68626 l -0.843359,0.61185 0.37207,0.14607 z m 0.950846,0.20671 -0.396875,-0.0551 -0.479557,0.14056 v 1.27607 z m -2.888366,-2.20211 q -0.118512,0.0854 -0.234267,0.17364 -0.146072,0.10748 -0.209461,0.19568 -0.0441,0.10473 -0.135048,0.31419 0.369314,-0.3638 0.578776,-0.68351 z m 0.476801,0.83234 -0.159853,-0.61461 -0.410655,0.0634 -0.316948,0.90399 z m 0.394118,1.08313 -0.363802,-0.87918 -0.355533,0.63114 q 0.43546,0.2508 0.451996,0.2508 0.09095,0 0.267339,-0.003 z m 1.821765,0.82958 q -0.132291,0.21222 -0.405143,0.6339 -0.07717,0.10749 -0.220486,0.32797 -0.05788,0.10473 -0.05512,0.226 0.159852,-0.15158 0.432704,-0.49609 0.07717,-0.12954 0.140559,-0.339 0.05512,-0.17639 0.107486,-0.35278 z m -1.493792,-0.66146 -0.270095,-0.0882 -0.0083,-0.011 q -0.02481,0 -0.107487,0.011 -0.06615,0.006 -0.107487,0.006 0.272851,0.091 0.311436,0.091 0.02481,0 0.181901,-0.008 z m -0.810286,-1.06384 h -0.03032 l -0.7717,0.3197 q 0.06615,0.0965 0.223242,0.23978 0.07717,0.0138 0.234266,0.0469 z m -0.689018,-0.50161 q -0.341754,0.34727 -0.341754,0.39412 0,0.0799 0.06339,0.30868 h 0.04961 z m 2.235176,3.04547 v -1.27607 l -0.479557,-0.14056 -0.396875,0.0551 z m -1.606791,-1.6757 q -0.256315,-0.1819 -0.457509,-0.22324 0.06615,0.0772 0.20395,0.22324 z m 1.609547,2.04501 v -0.1378 l -0.683507,-1.05007 q 0.05237,0.17639 0.107487,0.35278 0.06339,0.20946 0.14056,0.339 0.0689,0.11851 0.20395,0.25907 0.115755,0.11851 0.23151,0.23702 z m -0.644921,-0.70555 q -0.115756,-0.32798 -0.380339,-1.0418 -0.135047,-0.0662 -0.272851,-0.12954 -0.159852,-0.0716 -0.289388,-0.0716 -0.05237,0 -0.110243,-0.0138 z" />
            </g>
        </g>
        <g id="control_grid" />
    </g>
</svg>
