<?xml version="1.0" encoding="utf-8"?>
<svg xmlns="http://www.w3.org/2000/svg" width="40.64mm" height="128.50mm" viewBox="0 0 40.64 128.50">
    <g id="PanelLayer">
        <rect id="border_rect" width="40.64" height="128.5" x="0" y="0" style="display:inline;fill:#4f8df2;fill-opacity:1;fill-rule:nonzero;stroke:#5021d4;stroke-width:0.7;stroke-linecap:round;stroke-linejoin:round;stroke-dasharray:none;stroke-opacity:1;image-rendering:auto" />
        <g id="sapphire_insignia">
            <path id="brand_name" d="M5.42643 124.775Q5.42643 124.721 5.48852 124.674Q5.52732 124.636 5.58165 124.636Q5.65926 124.636 5.70583 124.698Q6.15597 125.342 6.96313 125.342Q7.37447 125.342 7.68491 125.136Q7.99536 124.93 7.99536 124.581Q7.99536 124.224 7.72372 124.046Q7.45208 123.867 6.97865 123.751Q6.35 123.596 5.98911 123.336Q5.62822 123.076 5.62822 122.602Q5.62822 122.144 5.99299 121.845Q6.35776 121.547 6.93208 121.547Q7.25029 121.547 7.56461 121.671Q7.87894 121.795 8.13506 122.067Q8.18938 122.113 8.18938 122.175Q8.18938 122.245 8.13506 122.299Q8.07297 122.331 8.03416 122.331Q7.97983 122.331 7.94103 122.284Q7.53745 121.842 6.90104 121.842Q6.4897 121.842 6.20642 122.043Q5.92314 122.245 5.92314 122.602Q5.94642 122.936 6.2297 123.118Q6.51298 123.301 7.06402 123.44Q7.45984 123.541 7.71984 123.662Q7.97983 123.782 8.13506 123.999Q8.29028 124.216 8.29028 124.566Q8.29028 125.055 7.91386 125.338Q7.53745 125.621 6.93208 125.621Q6.04732 125.621 5.48076 124.923Q5.42643 124.837 5.42643 124.775ZM12.6365 121.826V125.388Q12.6365 125.45 12.5899 125.497Q12.5434 125.544 12.4813 125.544Q12.4114 125.544 12.3687 125.497Q12.3261 125.45 12.3261 125.388V124.69Q12.132 125.086 11.7285 125.353Q11.3249 125.621 10.8359 125.621Q10.3237 125.621 9.91235 125.353Q9.50101 125.086 9.26818 124.616Q9.03534 124.147 9.03534 123.565Q9.03534 122.99 9.27206 122.528Q9.50877 122.067 9.92011 121.807Q10.3315 121.547 10.8359 121.547Q11.3404 121.547 11.744 121.811Q12.1476 122.074 12.3261 122.517V121.826Q12.3261 121.764 12.3687 121.717Q12.4114 121.671 12.4813 121.671Q12.5511 121.671 12.5938 121.717Q12.6365 121.764 12.6365 121.826ZM12.3571 123.565Q12.3571 123.091 12.1631 122.695Q11.969 122.299 11.6237 122.071Q11.2783 121.842 10.8514 121.842Q10.4246 121.842 10.0792 122.063Q9.73384 122.284 9.53982 122.676Q9.34579 123.068 9.34579 123.565Q9.34579 124.061 9.53982 124.465Q9.73384 124.868 10.0753 125.097Q10.4168 125.326 10.8514 125.326Q11.2783 125.326 11.6237 125.097Q11.969 124.868 12.1631 124.465Q12.3571 124.061 12.3571 123.565ZM17.526 123.603Q17.526 124.162 17.2893 124.616Q17.0526 125.07 16.6412 125.33Q16.2299 125.59 15.7254 125.59Q15.2598 125.59 14.8717 125.357Q14.4836 125.125 14.2353 124.698V126.941Q14.2353 127.003 14.1926 127.049Q14.1499 127.096 14.0801 127.096Q14.018 127.096 13.9714 127.049Q13.9248 127.003 13.9248 126.941V121.779Q13.9248 121.717 13.9675 121.671Q14.0102 121.624 14.0801 121.624Q14.1499 121.624 14.1926 121.671Q14.2353 121.717 14.2353 121.779V122.493Q14.4681 122.051 14.8562 121.838Q15.2442 121.624 15.7254 121.624Q16.2377 121.624 16.649 121.88Q17.0603 122.136 17.2932 122.587Q17.526 123.037 17.526 123.603ZM17.2156 123.603Q17.2156 123.122 17.0176 122.738Q16.8197 122.354 16.4782 122.136Q16.1368 121.919 15.7099 121.919Q15.2753 121.919 14.9299 122.133Q14.5845 122.346 14.3944 122.73Q14.2042 123.114 14.2042 123.603Q14.2042 124.092 14.3944 124.476Q14.5845 124.861 14.9299 125.078Q15.2753 125.295 15.7099 125.295Q16.1368 125.295 16.4782 125.078Q16.8197 124.861 17.0176 124.473Q17.2156 124.085 17.2156 123.603ZM22.1439 123.603Q22.1439 124.162 21.9071 124.616Q21.6704 125.07 21.2591 125.33Q20.8478 125.59 20.3433 125.59Q19.8776 125.59 19.4896 125.357Q19.1015 125.125 18.8531 124.698V126.941Q18.8531 127.003 18.8105 127.049Q18.7678 127.096 18.6979 127.096Q18.6358 127.096 18.5893 127.049Q18.5427 127.003 18.5427 126.941V121.779Q18.5427 121.717 18.5854 121.671Q18.6281 121.624 18.6979 121.624Q18.7678 121.624 18.8105 121.671Q18.8531 121.717 18.8531 121.779V122.493Q19.086 122.051 19.474 121.838Q19.8621 121.624 20.3433 121.624Q20.8555 121.624 21.2669 121.88Q21.6782 122.136 21.911 122.587Q22.1439 123.037 22.1439 123.603ZM21.8334 123.603Q21.8334 123.122 21.6355 122.738Q21.4376 122.354 21.0961 122.136Q20.7546 121.919 20.3278 121.919Q19.8931 121.919 19.5478 122.133Q19.2024 122.346 19.0123 122.73Q18.8221 123.114 18.8221 123.603Q18.8221 124.092 19.0123 124.476Q19.2024 124.861 19.5478 125.078Q19.8931 125.295 20.3278 125.295Q20.7546 125.295 21.0961 125.078Q21.4376 124.861 21.6355 124.473Q21.8334 124.085 21.8334 123.603ZM26.234 123.122V125.388Q26.234 125.45 26.1874 125.497Q26.1408 125.544 26.0787 125.544Q26.0089 125.544 25.9662 125.497Q25.9235 125.45 25.9235 125.388V123.122Q25.9235 122.587 25.6596 122.253Q25.3958 121.919 24.8525 121.919Q24.5188 121.919 24.1967 122.082Q23.8746 122.245 23.6728 122.525Q23.471 122.804 23.471 123.122V125.388Q23.471 125.45 23.4244 125.497Q23.3779 125.544 23.3158 125.544Q23.2459 125.544 23.2033 125.497Q23.1606 125.45 23.1606 125.388V119.956Q23.1606 119.894 23.2071 119.847Q23.2537 119.8 23.3158 119.8Q23.3856 119.8 23.4283 119.847Q23.471 119.894 23.471 119.956V122.408Q23.6883 122.067 24.0725 121.845Q24.4567 121.624 24.8525 121.624Q25.5199 121.624 25.877 122.047Q26.234 122.47 26.234 123.122ZM27.6775 125.544Q27.6077 125.544 27.565 125.497Q27.5223 125.45 27.5223 125.388V121.702Q27.5223 121.64 27.5689 121.593Q27.6154 121.547 27.6775 121.547Q27.7474 121.547 27.7901 121.593Q27.8328 121.64 27.8328 121.702V125.388Q27.8328 125.45 27.7862 125.497Q27.7396 125.544 27.6775 125.544ZM27.4059 120.771V120.708Q27.4059 120.6 27.4835 120.53Q27.5611 120.46 27.6853 120.46Q27.7939 120.46 27.8677 120.53Q27.9414 120.6 27.9414 120.708V120.771Q27.9414 120.879 27.8677 120.949Q27.7939 121.019 27.6775 121.019Q27.5534 121.019 27.4796 120.949Q27.4059 120.879 27.4059 120.771ZM31.2321 121.725Q31.2321 121.795 31.1933 121.842Q31.1545 121.888 31.0924 121.888Q31.0691 121.888 30.9799 121.853Q30.8906 121.818 30.7897 121.818Q30.4715 121.818 30.1533 122.071Q29.8351 122.323 29.6333 122.707Q29.4315 123.091 29.4315 123.448V125.388Q29.4315 125.45 29.385 125.497Q29.3384 125.544 29.2763 125.544Q29.2065 125.544 29.1638 125.497Q29.1211 125.45 29.1211 125.388V121.826Q29.1211 121.764 29.1677 121.717Q29.2142 121.671 29.2763 121.671Q29.3462 121.671 29.3889 121.717Q29.4315 121.764 29.4315 121.826V122.649Q29.61 122.175 29.9865 121.865Q30.3629 121.554 30.8751 121.547Q31.2321 121.547 31.2321 121.725ZM35.1748 124.752Q35.1748 124.806 35.1437 124.845Q34.8876 125.187 34.5073 125.404Q34.127 125.621 33.6924 125.621Q33.1103 125.621 32.6602 125.373Q32.21 125.125 31.9578 124.667Q31.7055 124.209 31.7055 123.603Q31.7055 122.982 31.95 122.513Q32.1945 122.043 32.5981 121.795Q33.0017 121.547 33.4596 121.547Q33.9175 121.547 34.3094 121.745Q34.7013 121.942 34.9497 122.338Q35.198 122.734 35.2136 123.316Q35.2136 123.378 35.167 123.429Q35.1204 123.479 35.0583 123.479H32.0082V123.58Q32.0082 124.061 32.2023 124.461Q32.3963 124.861 32.7766 125.093Q33.1569 125.326 33.6924 125.326Q34.0649 125.326 34.3948 125.144Q34.7246 124.962 34.9109 124.682Q34.9652 124.612 35.0428 124.612Q35.0972 124.612 35.136 124.655Q35.1748 124.698 35.1748 124.752ZM32.0393 123.184H34.8954V123.114Q34.8566 122.719 34.6431 122.435Q34.4297 122.152 34.1154 122.005Q33.801 121.857 33.4596 121.857Q33.1724 121.857 32.8736 122.008Q32.5748 122.16 32.3458 122.459Q32.1169 122.757 32.0393 123.184Z" style="fill:#000000;stroke:#000000;stroke-width:0.265;stroke-linecap:square" />
            <g id="gemstones" style="stroke-width:0;fill:#0000ff;stroke:#2e2114;stroke-linecap:square;stroke-opacity:1">
                <path d="m 2.770,122.900 q 0,0.34175 -0.242534,0.63114 -0.0441,0.0524 -0.20395,0.21497 -0.187413,0.19017 -0.785481,0.81304 l -1.444183,1.51309 q -0.01929,0.003 -0.0441,0.003 -0.02756,0 -0.04134,-0.003 -0.08268,-0.0827 -0.647678,-0.67524 -0.468532,-0.47404 -0.934309,-0.94809 -0.556727,-0.56775 -0.89848,-0.98116 -0.132292,-0.15985 -0.168121,-0.29766 -0.02756,-0.10197 -0.02756,-0.34175 0,-0.11024 0.07166,-0.28939 0.06614,-0.16536 0.140559,-0.26458 0.118512,-0.1571 0.42168,-0.42444 0.283875,-0.2508 0.474044,-0.37482 0.272852,-0.17915 0.818555,-0.36656 0.09646,-0.0331 0.110243,-0.0331 h 1.3615 q 0.01102,0 0.104731,0.0331 0.567751,0.20119 0.824066,0.36656 0.165365,0.10473 0.474045,0.37758 0.322461,0.28388 0.421679,0.42168 0.214974,0.2949 0.214974,0.62563 z m -0.16812,-0.27285 q -0.03307,-0.10749 -0.135048,-0.30868 -0.07166,-0.0937 -0.209462,-0.19844 -0.118511,-0.0854 -0.234266,-0.17088 0.245291,0.3638 0.578776,0.678 z m -0.573264,-0.52366 -0.358289,-0.44648 v 0.41065 z m 0.636653,0.75792 q 0,-0.0524 -0.341753,-0.39412 l 0.228754,0.7028 h 0.04961 q 0.06339,-0.21773 0.06339,-0.30868 z m -0.23151,0.27285 -0.316948,-0.90399 -0.410655,-0.0634 -0.159853,0.61461 z m 0.0028,0.15434 -0.771701,-0.3197 h -0.03032 l 0.344509,0.60634 q 0.07993,-0.003 0.234266,-0.0469 0.02481,-0.0138 0.223242,-0.23978 z m -0.857139,-1.05006 -0.719335,0.28388 0.60358,0.22599 z m 0,-0.16261 v -0.51538 l -0.917773,-0.38034 h -1.223697 l -0.917772,0.38034 v 0.51538 l 0.89848,0.4079 h 1.254014 z m 0.573264,1.53789 q -0.0689,0.011 -0.198438,0.0524 -0.08544,0.0551 -0.259071,0.16261 0.01929,0 0.06339,0.003 0.04134,0 0.06339,0 0.118511,0 0.190169,-0.0689 0.07166,-0.0717 0.14056,-0.14883 z m -0.289388,0.003 -0.347266,-0.63114 -0.363801,0.87918 q 0.0248,-0.0165 0.06615,-0.0165 0.03032,0 0.08544,0.011 0.05788,0.008 0.08819,0.008 0.04961,0 0.228754,-0.10749 0.228754,-0.1378 0.242535,-0.14331 z m -0.440972,-0.74139 -0.683507,-0.2756 -0.592556,0.54845 0.903993,0.65595 z m -0.854383,-0.28387 h -1.036284 l 0.523654,0.47404 z m 0.749652,1.36701 q -0.228754,-0.0303 -0.228754,-0.0303 -0.03583,0 -0.272851,0.0937 l 0.190169,0.0193 q 0.01102,0 0.311436,-0.0827 z m -0.388606,-0.0882 -0.843359,-0.61185 v 0.67524 l 0.471289,0.0827 z m 0.854383,0.0496 q -0.09922,0.006 -0.2949,0.0386 -0.01102,0.003 -0.377583,0.17639 -0.129535,0.34726 -0.380338,1.0418 z m -2.543857,-1.39733 -0.719335,-0.28388 0.124023,0.51814 z m -0.802018,-0.45476 v -0.41065 l -0.366557,0.44648 z m 1.515841,1.07212 -0.592556,-0.54019 -0.683506,0.2756 0.380338,0.9288 z m 0.369314,0.94257 q -0.03307,-0.003 -0.135047,-0.0248 -0.08544,-0.0165 -0.137804,-0.0165 -0.05237,0 -0.137804,0.0165 -0.101975,0.0221 -0.135047,0.0248 0.264583,0.0469 0.272851,0.0469 0.0083,0 0.272851,-0.0469 z m -0.30868,-0.1378 v -0.68626 l -0.843359,0.61185 0.37207,0.14607 z m 0.950846,0.20671 -0.396875,-0.0551 -0.479557,0.14056 v 1.27607 z m -2.888366,-2.20211 q -0.118512,0.0854 -0.234267,0.17364 -0.146072,0.10748 -0.209461,0.19568 -0.0441,0.10473 -0.135048,0.31419 0.369314,-0.3638 0.578776,-0.68351 z m 0.476801,0.83234 -0.159853,-0.61461 -0.410655,0.0634 -0.316948,0.90399 z m 0.394118,1.08313 -0.363802,-0.87918 -0.355533,0.63114 q 0.43546,0.2508 0.451996,0.2508 0.09095,0 0.267339,-0.003 z m 1.821765,0.82958 q -0.132291,0.21222 -0.405143,0.6339 -0.07717,0.10749 -0.220486,0.32797 -0.05788,0.10473 -0.05512,0.226 0.159852,-0.15158 0.432704,-0.49609 0.07717,-0.12954 0.140559,-0.339 0.05512,-0.17639 0.107486,-0.35278 z m -1.493792,-0.66146 -0.270095,-0.0882 -0.0083,-0.011 q -0.02481,0 -0.107487,0.011 -0.06615,0.006 -0.107487,0.006 0.272851,0.091 0.311436,0.091 0.02481,0 0.181901,-0.008 z m -0.810286,-1.06384 h -0.03032 l -0.7717,0.3197 q 0.06615,0.0965 0.223242,0.23978 0.07717,0.0138 0.234266,0.0469 z m -0.689018,-0.50161 q -0.341754,0.34727 -0.341754,0.39412 0,0.0799 0.06339,0.30868 h 0.04961 z m 2.235176,3.04547 v -1.27607 l -0.479557,-0.14056 -0.396875,0.0551 z m -1.606791,-1.6757 q -0.256315,-0.1819 -0.457509,-0.22324 0.06615,0.0772 0.20395,0.22324 z m 1.609547,2.04501 v -0.1378 l -0.683507,-1.05007 q 0.05237,0.17639 0.107487,0.35278 0.06339,0.20946 0.14056,0.339 0.0689,0.11851 0.20395,0.25907 0.115755,0.11851 0.23151,0.23702 z m -0.644921,-0.70555 q -0.115756,-0.32798 -0.380339,-1.0418 -0.135047,-0.0662 -0.272851,-0.12954 -0.159852,-0.0716 -0.289388,-0.0716 -0.05237,0 -0.110243,-0.0138 z" />
                <path d="m 43.300,122.900 q 0,0.34175 -0.242534,0.63114 -0.0441,0.0524 -0.20395,0.21497 -0.187413,0.19017 -0.785481,0.81304 l -1.444183,1.51309 q -0.01929,0.003 -0.0441,0.003 -0.02756,0 -0.04134,-0.003 -0.08268,-0.0827 -0.647678,-0.67524 -0.468532,-0.47404 -0.934309,-0.94809 -0.556727,-0.56775 -0.89848,-0.98116 -0.132292,-0.15985 -0.168121,-0.29766 -0.02756,-0.10197 -0.02756,-0.34175 0,-0.11024 0.07166,-0.28939 0.06614,-0.16536 0.140559,-0.26458 0.118512,-0.1571 0.42168,-0.42444 0.283875,-0.2508 0.474044,-0.37482 0.272852,-0.17915 0.818555,-0.36656 0.09646,-0.0331 0.110243,-0.0331 h 1.3615 q 0.01102,0 0.104731,0.0331 0.567751,0.20119 0.824066,0.36656 0.165365,0.10473 0.474045,0.37758 0.322461,0.28388 0.421679,0.42168 0.214974,0.2949 0.214974,0.62563 z m -0.16812,-0.27285 q -0.03307,-0.10749 -0.135048,-0.30868 -0.07166,-0.0937 -0.209462,-0.19844 -0.118511,-0.0854 -0.234266,-0.17088 0.245291,0.3638 0.578776,0.678 z m -0.573264,-0.52366 -0.358289,-0.44648 v 0.41065 z m 0.636653,0.75792 q 0,-0.0524 -0.341753,-0.39412 l 0.228754,0.7028 h 0.04961 q 0.06339,-0.21773 0.06339,-0.30868 z m -0.23151,0.27285 -0.316948,-0.90399 -0.410655,-0.0634 -0.159853,0.61461 z m 0.0028,0.15434 -0.771701,-0.3197 h -0.03032 l 0.344509,0.60634 q 0.07993,-0.003 0.234266,-0.0469 0.02481,-0.0138 0.223242,-0.23978 z m -0.857139,-1.05006 -0.719335,0.28388 0.60358,0.22599 z m 0,-0.16261 v -0.51538 l -0.917773,-0.38034 h -1.223697 l -0.917772,0.38034 v 0.51538 l 0.89848,0.4079 h 1.254014 z m 0.573264,1.53789 q -0.0689,0.011 -0.198438,0.0524 -0.08544,0.0551 -0.259071,0.16261 0.01929,0 0.06339,0.003 0.04134,0 0.06339,0 0.118511,0 0.190169,-0.0689 0.07166,-0.0717 0.14056,-0.14883 z m -0.289388,0.003 -0.347266,-0.63114 -0.363801,0.87918 q 0.0248,-0.0165 0.06615,-0.0165 0.03032,0 0.08544,0.011 0.05788,0.008 0.08819,0.008 0.04961,0 0.228754,-0.10749 0.228754,-0.1378 0.242535,-0.14331 z m -0.440972,-0.74139 -0.683507,-0.2756 -0.592556,0.54845 0.903993,0.65595 z m -0.854383,-0.28387 h -1.036284 l 0.523654,0.47404 z m 0.749652,1.36701 q -0.228754,-0.0303 -0.228754,-0.0303 -0.03583,0 -0.272851,0.0937 l 0.190169,0.0193 q 0.01102,0 0.311436,-0.0827 z m -0.388606,-0.0882 -0.843359,-0.61185 v 0.67524 l 0.471289,0.0827 z m 0.854383,0.0496 q -0.09922,0.006 -0.2949,0.0386 -0.01102,0.003 -0.377583,0.17639 -0.129535,0.34726 -0.380338,1.0418 z m -2.543857,-1.39733 -0.719335,-0.28388 0.124023,0.51814 z m -0.802018,-0.45476 v -0.41065 l -0.366557,0.44648 z m 1.515841,1.07212 -0.592556,-0.54019 -0.683506,0.2756 0.380338,0.9288 z m 0.369314,0.94257 q -0.03307,-0.003 -0.135047,-0.0248 -0.08544,-0.0165 -0.137804,-0.0165 -0.05237,0 -0.137804,0.0165 -0.101975,0.0221 -0.135047,0.0248 0.264583,0.0469 0.272851,0.0469 0.0083,0 0.272851,-0.0469 z m -0.30868,-0.1378 v -0.68626 l -0.843359,0.61185 0.37207,0.14607 z m 0.950846,0.20671 -0.396875,-0.0551 -0.479557,0.14056 v 1.27607 z m -2.888366,-2.20211 q -0.118512,0.0854 -0.234267,0.17364 -0.146072,0.10748 -0.209461,0.19568 -0.0441,0.10473 -0.135048,0.31419 0.369314,-0.3638 0.578776,-0.68351 z m 0.476801,0.83234 -0.159853,-0.61461 -0.410655,0.0634 -0.316948,0.90399 z m 0.394118,1.08313 -0.363802,-0.87918 -0.355533,0.63114 q 0.43546,0.2508 0.451996,0.2508 0.09095,0 0.267339,-0.003 z m 1.821765,0.82958 q -0.132291,0.21222 -0.405143,0.6339 -0.07717,0.10749 -0.220486,0.32797 -0.05788,0.10473 -0.05512,0.226 0.159852,-0.15158 0.432704,-0.49609 0.07717,-0.12954 0.140559,-0.339 0.05512,-0.17639 0.107486,-0.35278 z m -1.493792,-0.66146 -0.270095,-0.0882 -0.0083,-0.011 q -0.02481,0 -0.107487,0.011 -0.06615,0.006 -0.107487,0.006 0.272851,0.091 0.311436,0.091 0.02481,0 0.181901,-0.008 z m -0.810286,-1.06384 h -0.03032 l -0.7717,0.3197 q 0.06615,0.0965 0.223242,0.23978 0.07717,0.0138 0.234266,0.0469 z m -0.689018,-0.50161 q -0.341754,0.34727 -0.341754,0.39412 0,0.0799 0.06339,0.30868 h 0.04961 z m 2.235176,3.04547 v -1.27607 l -0.479557,-0.14056 -0.396875,0.0551 z m -1.606791,-1.6757 q -0.256315,-0.1819 -0.457509,-0.22324 0.06615,0.0772 0.20395,0.22324 z m 1.609547,2.04501 v -0.1378 l -0.683507,-1.05007 q 0.05237,0.17639 0.107487,0.35278 0.06339,0.20946 0.14056,0.339 0.0689,0.11851 0.20395,0.25907 0.115755,0.11851 0.23151,0.23702 z m -0.644921,-0.70555 q -0.115756,-0.32798 -0.380339,-1.0418 -0.135047,-0.0662 -0.272851,-0.12954 -0.159852,-0.0716 -0.289388,-0.0716 -0.05237,0 -0.110243,-0.0138 z" />
            </g>
        </g>
        <path id="model_name" d="M4.0954 7.38291Q4.0954 7.32858 4.15749 7.28201Q4.19629 7.24321 4.25062 7.24321Q4.32823 7.24321 4.3748 7.3053Q4.82494 7.94947 5.6321 7.94947Q6.04344 7.94947 6.35388 7.7438Q6.66433 7.53813 6.66433 7.18888Q6.66433 6.83187 6.39269 6.65336Q6.12105 6.47486 5.64762 6.35844Q5.01897 6.20322 4.65808 5.94322Q4.29719 5.68323 4.29719 5.2098Q4.29719 4.75189 4.66196 4.45309Q5.02673 4.15429 5.60105 4.15429Q5.91926 4.15429 6.23358 4.27846Q6.54791 4.40264 6.80403 4.67428Q6.85835 4.72085 6.85835 4.78294Q6.85835 4.85279 6.80403 4.90711Q6.74194 4.93816 6.70313 4.93816Q6.6488 4.93816 6.61 4.89159Q6.20642 4.44921 5.57001 4.44921Q5.15867 4.44921 4.87539 4.651Q4.59211 4.85279 4.59211 5.2098Q4.61539 5.54352 4.89867 5.72591Q5.18195 5.9083 5.73299 6.048Q6.12881 6.14889 6.38881 6.26919Q6.6488 6.38949 6.80403 6.6068Q6.95925 6.82411 6.95925 7.17336Q6.95925 7.66231 6.58283 7.94559Q6.20642 8.22887 5.60105 8.22887Q4.71629 8.22887 4.14973 7.53037Q4.0954 7.445 4.0954 7.38291ZM11.5771 6.21098Q11.5771 6.76978 11.3404 7.22381Q11.1037 7.67783 10.6923 7.93783Q10.281 8.19782 9.77653 8.19782Q9.31086 8.19782 8.92281 7.96499Q8.53475 7.73216 8.2864 7.3053V9.54826Q8.2864 9.61035 8.24371 9.65691Q8.20103 9.70348 8.13118 9.70348Q8.06909 9.70348 8.02252 9.65691Q7.97595 9.61035 7.97595 9.54826V4.38712Q7.97595 4.32503 8.01864 4.27846Q8.06133 4.2319 8.13118 4.2319Q8.20103 4.2319 8.24371 4.27846Q8.2864 4.32503 8.2864 4.38712V5.10114Q8.51923 4.65876 8.90729 4.44533Q9.29534 4.2319 9.77653 4.2319Q10.2888 4.2319 10.7001 4.48801Q11.1114 4.74413 11.3443 5.19428Q11.5771 5.64442 11.5771 6.21098ZM11.2667 6.21098Q11.2667 5.72979 11.0688 5.34562Q10.8708 4.96144 10.5294 4.74413Q10.1879 4.52682 9.76101 4.52682Q9.32639 4.52682 8.98102 4.74025Q8.63565 4.95368 8.4455 5.33786Q8.25535 5.72203 8.25535 6.21098Q8.25535 6.69993 8.4455 7.08411Q8.63565 7.46828 8.98102 7.68559Q9.32639 7.9029 9.76101 7.9029Q10.1879 7.9029 10.5294 7.68559Q10.8708 7.46828 11.0688 7.08022Q11.2667 6.69217 11.2667 6.21098ZM15.7914 7.35962Q15.7914 7.41395 15.7603 7.45276Q15.5042 7.79425 15.1239 8.01156Q14.7436 8.22887 14.309 8.22887Q13.7269 8.22887 13.2768 7.98051Q12.8266 7.73216 12.5744 7.27425Q12.3222 6.81635 12.3222 6.21098Q12.3222 5.59009 12.5667 5.12054Q12.8111 4.651 13.2147 4.40264Q13.6183 4.15429 14.0762 4.15429Q14.5341 4.15429 14.926 4.35219Q15.318 4.5501 15.5663 4.94592Q15.8147 5.34174 15.8302 5.92382Q15.8302 5.98591 15.7836 6.03636Q15.7371 6.0868 15.675 6.0868H12.6249V6.1877Q12.6249 6.66889 12.8189 7.06858Q13.0129 7.46828 13.3932 7.70111Q13.7735 7.93395 14.309 7.93395Q14.6816 7.93395 15.0114 7.75156Q15.3412 7.56917 15.5275 7.28977Q15.5818 7.21992 15.6595 7.21992Q15.7138 7.21992 15.7526 7.26261Q15.7914 7.3053 15.7914 7.35962ZM12.6559 5.79188H15.512V5.72203Q15.4732 5.32621 15.2598 5.04293Q15.0463 4.75965 14.732 4.61219Q14.4177 4.46473 14.0762 4.46473Q13.789 4.46473 13.4902 4.61607Q13.1914 4.76741 12.9625 5.06622Q12.7335 5.36502 12.6559 5.79188ZM19.8737 4.70533Q19.8737 4.76741 19.8311 4.81398Q19.7884 4.86055 19.7263 4.86055Q19.6564 4.86055 19.6215 4.83726Q19.5866 4.81398 19.5245 4.75189Q19.4236 4.63547 19.3149 4.58115Q19.0355 4.44921 18.5233 4.44921Q18.0809 4.44921 17.7045 4.68204Q17.3281 4.91488 17.1069 5.31457Q16.8857 5.71427 16.8857 6.1877Q16.8857 6.68441 17.0914 7.08411Q17.297 7.4838 17.6735 7.70887Q18.0499 7.93395 18.5233 7.93395Q18.8337 7.93395 19.0123 7.87962Q19.1908 7.82529 19.3693 7.7244Q19.4934 7.64679 19.5866 7.55365Q19.6254 7.51485 19.6642 7.48768Q19.703 7.46052 19.7418 7.46052Q19.8039 7.46052 19.8388 7.49932Q19.8737 7.53813 19.8737 7.60022Q19.8737 7.70887 19.6952 7.86022Q19.5167 8.01156 19.2024 8.12021Q18.8881 8.22887 18.5 8.22887Q17.9412 8.22887 17.5027 7.96499Q17.0642 7.70111 16.8197 7.23545Q16.5753 6.76978 16.5753 6.1877Q16.5753 5.64442 16.8197 5.17875Q17.0642 4.71309 17.5105 4.43369Q17.9567 4.15429 18.5311 4.15429Q18.8648 4.15429 19.1791 4.2319Q19.4934 4.30951 19.6836 4.43757Q19.8737 4.56562 19.8737 4.70533ZM22.4194 4.39488Q22.4194 4.45697 22.3767 4.49966Q22.334 4.54234 22.2719 4.54234H21.4182V7.3053Q21.4182 7.64679 21.5385 7.75932Q21.6588 7.87186 21.8451 7.87186Q21.8761 7.87186 21.9343 7.85634Q21.9925 7.84081 22.0313 7.84081Q22.0857 7.84081 22.1245 7.8835Q22.1633 7.92619 22.1633 7.98051Q22.1633 8.05036 22.0701 8.10081Q21.977 8.15126 21.8528 8.15126Q21.6588 8.15126 21.5269 8.12409Q21.3949 8.09693 21.2513 7.91454Q21.1078 7.73216 21.1078 7.32082V4.54234H20.4713Q20.417 4.54234 20.3704 4.49578Q20.3239 4.44921 20.3239 4.39488Q20.3239 4.33279 20.3666 4.29011Q20.4093 4.24742 20.4713 4.24742H21.1078V3.26176Q21.1078 3.19967 21.1543 3.1531Q21.2009 3.10654 21.263 3.10654Q21.3328 3.10654 21.3755 3.1531Q21.4182 3.19967 21.4182 3.26176V4.24742H22.2719Q22.3262 4.24742 22.3728 4.29399Q22.4194 4.34055 22.4194 4.39488ZM25.3919 4.33279Q25.3919 4.40264 25.3531 4.44921Q25.3143 4.49578 25.2522 4.49578Q25.2289 4.49578 25.1397 4.46085Q25.0504 4.42592 24.9495 4.42592Q24.6313 4.42592 24.3131 4.67816Q23.9949 4.9304 23.7931 5.31457Q23.5913 5.69875 23.5913 6.05576V7.99604Q23.5913 8.05812 23.5447 8.10469Q23.4982 8.15126 23.4361 8.15126Q23.3662 8.15126 23.3235 8.10469Q23.2809 8.05812 23.2809 7.99604V4.43369Q23.2809 4.3716 23.3274 4.32503Q23.374 4.27846 23.4361 4.27846Q23.5059 4.27846 23.5486 4.32503Q23.5913 4.3716 23.5913 4.43369V5.25636Q23.7698 4.78294 24.1462 4.47249Q24.5226 4.16205 25.0349 4.15429Q25.3919 4.15429 25.3919 4.33279ZM29.2181 4.43369V6.69217Q29.2181 7.42948 28.8029 7.81365Q28.3877 8.19782 27.6737 8.19782Q26.9596 8.19782 26.5483 7.81365Q26.137 7.42948 26.137 6.69217V4.43369Q26.137 4.3716 26.1835 4.32503Q26.2301 4.27846 26.2922 4.27846Q26.362 4.27846 26.4047 4.32503Q26.4474 4.3716 26.4474 4.43369V6.69217Q26.4474 7.27425 26.7734 7.58858Q27.0993 7.9029 27.6737 7.9029Q28.2557 7.9029 28.5817 7.58858Q28.9077 7.27425 28.9077 6.69217V4.43369Q28.9077 4.3716 28.9504 4.32503Q28.993 4.27846 29.0629 4.27846Q29.1327 4.27846 29.1754 4.32503Q29.2181 4.3716 29.2181 4.43369ZM36.273 5.73755V7.99604Q36.273 8.05812 36.2303 8.10469Q36.1876 8.15126 36.1177 8.15126Q36.0479 8.15126 36.0052 8.10469Q35.9625 8.05812 35.9625 7.99604V5.7686Q35.9625 5.21756 35.6948 4.87219Q35.427 4.52682 34.8837 4.52682Q34.55 4.52682 34.2279 4.69756Q33.9058 4.86831 33.704 5.15159Q33.5022 5.43487 33.5022 5.7686V7.99604Q33.5022 8.05812 33.4596 8.10469Q33.4169 8.15126 33.347 8.15126Q33.2772 8.15126 33.2345 8.10469Q33.1918 8.05812 33.1918 7.99604V5.72979Q33.1918 5.19427 32.9357 4.86055Q32.6796 4.52682 32.1596 4.52682Q31.8336 4.52682 31.5232 4.6898Q31.2127 4.85279 31.0148 5.13219Q30.8169 5.41159 30.8169 5.72979V7.99604Q30.8169 8.05812 30.7703 8.10469Q30.7238 8.15126 30.6617 8.15126Q30.5918 8.15126 30.5491 8.10469Q30.5065 8.05812 30.5065 7.99604V4.43369Q30.5065 4.3716 30.553 4.32503Q30.5996 4.27846 30.6617 4.27846Q30.7315 4.27846 30.7742 4.32503Q30.8169 4.3716 30.8169 4.43369V4.97696Q31.042 4.651 31.4029 4.44145Q31.7638 4.2319 32.1596 4.2319Q32.5864 4.2319 32.9202 4.44921Q33.2539 4.66652 33.4091 5.08562Q33.5721 4.72861 34.0261 4.48025Q34.4801 4.2319 34.9148 4.2319Q35.5822 4.2319 35.9276 4.651Q36.273 5.0701 36.273 5.73755Z" style="display:inline;stroke:#000000;stroke-width:0.35;stroke-linecap:round;stroke-linejoin:bevel" />
        <path d="M10.4269 28.6142Q10.3916 28.6142 10.3722 28.593Q10.3528 28.5719 10.3528 28.5401V26.2188Q10.3528 26.1871 10.3739 26.1659Q10.3951 26.1448 10.4269 26.1448Q10.4586 26.1448 10.4798 26.1659Q10.5009 26.1871 10.5009 26.2188V28.5401Q10.4974 28.5719 10.4763 28.593Q10.4551 28.6142 10.4269 28.6142ZM13.0586 26.2118V28.5366Q13.0586 28.5754 13.0374 28.5948Q13.0162 28.6142 12.9845 28.6142Q12.9492 28.6142 12.9281 28.586L11.3406 26.4164V28.5542Q11.3406 28.5789 11.3212 28.5966Q11.3018 28.6142 11.2735 28.6142Q11.2418 28.6142 11.2241 28.5966Q11.2065 28.5789 11.2065 28.5542V26.2153Q11.2065 26.18 11.2259 26.1624Q11.2453 26.1448 11.27 26.1448Q11.3018 26.1448 11.3229 26.1695L12.9245 28.3532V26.2118Q12.9245 26.1836 12.9439 26.1642Q12.9633 26.1448 12.9916 26.1448Q13.0233 26.1448 13.0409 26.1642Q13.0586 26.1836 13.0586 26.2118Z" style="stroke:#000000;stroke-width:0.25;stroke-linecap:round;stroke-linejoin:bevel" />
        <path d="M11.3547 58.6495Q11.0125 58.6495 10.7444 58.489Q10.4763 58.3285 10.3263 58.0392Q10.1764 57.7499 10.1764 57.3795Q10.1764 57.0091 10.3263 56.7198Q10.4763 56.4305 10.7444 56.27Q11.0125 56.1095 11.3547 56.1095Q11.6969 56.1095 11.965 56.27Q12.2331 56.4305 12.383 56.7198Q12.5329 57.0091 12.5329 57.3795Q12.5329 57.7499 12.383 58.0392Q12.2331 58.3285 11.965 58.489Q11.6969 58.6495 11.3547 58.6495ZM11.3547 56.2506Q11.0548 56.2506 10.8202 56.3917Q10.5856 56.5328 10.4551 56.7903Q10.3246 57.0479 10.3246 57.3795Q10.3246 57.7111 10.4551 57.9686Q10.5856 58.2262 10.8202 58.3673Q11.0548 58.5084 11.3547 58.5084Q11.6545 58.5084 11.8891 58.3673Q12.1237 58.2262 12.2542 57.9686Q12.3848 57.7111 12.3848 57.3795Q12.3848 57.0479 12.2542 56.7903Q12.1237 56.5328 11.8891 56.3917Q11.6545 56.2506 11.3547 56.2506ZM14.8789 56.2153V57.7393Q14.8789 57.9863 14.7554 58.1944Q14.632 58.4025 14.4238 58.526Q14.2157 58.6495 13.9723 58.6495Q13.7253 58.6495 13.5172 58.526Q13.3091 58.4025 13.1856 58.1944Q13.0621 57.9863 13.0621 57.7393V56.2153Q13.0621 56.1836 13.0833 56.1642Q13.1044 56.1448 13.1362 56.1448Q13.1679 56.1448 13.1891 56.1659Q13.2103 56.1871 13.2103 56.2153V57.7393Q13.2103 57.9475 13.3126 58.1238Q13.4149 58.3002 13.5895 58.4043Q13.7641 58.5084 13.9723 58.5084Q14.1804 58.5084 14.355 58.4043Q14.5297 58.3002 14.6337 58.1238Q14.7378 57.9475 14.7378 57.7393V56.2153Q14.7378 56.1871 14.7572 56.1659Q14.7766 56.1448 14.8084 56.1448Q14.8401 56.1448 14.8595 56.1659Q14.8789 56.1871 14.8789 56.2153ZM17.2108 56.2118Q17.2108 56.2435 17.1914 56.2612Q17.172 56.2788 17.1402 56.2788H16.3535V58.5437Q16.3535 58.5719 16.3324 58.593Q16.3112 58.6142 16.283 58.6142Q16.2512 58.6142 16.2318 58.593Q16.2124 58.5719 16.2124 58.5437V56.2788H15.4257Q15.3975 56.2788 15.3763 56.2594Q15.3552 56.24 15.3552 56.2118Q15.3552 56.1836 15.3763 56.1642Q15.3975 56.1448 15.4257 56.1448H17.1402Q17.1684 56.1448 17.1896 56.1642Q17.2108 56.1836 17.2108 56.2118Z" style="stroke:#000000;stroke-width:0.25;stroke-linecap:round;stroke-linejoin:bevel" />
        <circle id="audio_input" cx="10" cy="20" r="1" />
        <circle id="audio_bands_output" cx="10" cy="50" r="1" />
    </g>
</svg>
