<?xml version="1.0" encoding="utf-8"?>
<svg xmlns="http://www.w3.org/2000/svg" width="30.48mm" height="128.50mm" viewBox="0 0 30.48 128.50">
    <g id="PanelLayer">
        <path d="M4.21118 115.178Q4.21118 115.21 4.19001 115.229Q4.16884 115.249 4.14062 115.249H2.7789Q2.74362 115.249 2.71716 115.231Q2.6907 115.214 2.6907 115.175Q2.6907 115.154 2.70834 115.129L3.53737 114.205Q3.75962 113.968 3.86193 113.79Q3.96423 113.612 3.96423 113.439Q3.96423 113.175 3.80725 113.03Q3.65026 112.885 3.35745 112.885Q3.16343 112.885 3.01702 112.972Q2.87062 113.058 2.80712 113.245Q2.80006 113.266 2.78419 113.284Q2.76831 113.302 2.74009 113.302Q2.7154 113.302 2.68894 113.284Q2.66248 113.266 2.66248 113.245Q2.66248 113.227 2.68012 113.182Q2.76126 112.97 2.94647 112.857Q3.13168 112.744 3.36804 112.744Q3.72434 112.744 3.9219 112.931Q4.11945 113.118 4.11945 113.425Q4.11945 113.612 4.01715 113.809Q3.91484 114.007 3.65379 114.289L2.93412 115.108H4.14062Q4.16884 115.108 4.19001 115.129Q4.21118 115.15 4.21118 115.178Z" style="stroke:#000000;stroke-width:0.25;stroke-linecap:round;stroke-linejoin:bevel" />
    </g>
</svg>
