<?xml version="1.0" encoding="utf-8"?>
<svg xmlns="http://www.w3.org/2000/svg" width="30.48mm" height="128.50mm" viewBox="0 0 30.48 128.50">
    <g id="PanelLayer">
        <path d="M3.80783 23.1783Q3.80783 23.21 3.78667 23.2294Q3.7655 23.2488 3.73728 23.2488H2.44258Q2.41083 23.2488 2.39143 23.2277Q2.37203 23.2065 2.37203 23.1783V20.8499Q2.37203 20.8217 2.39319 20.8006Q2.41436 20.7794 2.44611 20.7794Q2.47786 20.7794 2.49903 20.8006Q2.52019 20.8217 2.52019 20.8499V23.1077H3.73728Q3.7655 23.1077 3.78667 23.1289Q3.80783 23.1501 3.80783 23.1783Z" style="stroke:#000000;stroke-width:0.25;stroke-linecap:round;stroke-linejoin:bevel" />
        <path d="M28.5172 23.1747Q28.5172 23.2065 28.4978 23.2259Q28.4784 23.2453 28.4502 23.2453Q28.429 23.2453 28.4184 23.2383Q28.3232 23.1853 28.2667 23.0601Q28.2103 22.9349 28.2103 22.6491Q28.2103 22.3598 28.0551 22.2522Q27.8998 22.1446 27.6952 22.1446H26.8697V23.1783Q26.8697 23.2065 26.8486 23.2277Q26.8274 23.2488 26.7956 23.2488Q26.7639 23.2488 26.7427 23.2277Q26.7216 23.2065 26.7216 23.1783V20.8499Q26.7216 20.8217 26.7427 20.8006Q26.7639 20.7794 26.7921 20.7794H27.7234Q27.9281 20.7794 28.0868 20.8623Q28.2456 20.9452 28.3337 21.0898Q28.4219 21.2345 28.4219 21.4179Q28.4219 21.6543 28.2967 21.8236Q28.1715 21.9929 27.9704 22.0529Q28.1397 22.1058 28.2491 22.2628Q28.3584 22.4198 28.3584 22.6491Q28.3584 22.8855 28.3884 22.979Q28.4184 23.0724 28.4784 23.1113Q28.5172 23.1359 28.5172 23.1747ZM27.7411 22.0035Q27.9633 21.9824 28.1186 21.8271Q28.2738 21.6719 28.2738 21.4214Q28.2738 21.2027 28.1186 21.0616Q27.9633 20.9205 27.7058 20.9205H26.8697V22.0035Z" style="stroke:#000000;stroke-width:0.25;stroke-linecap:round;stroke-linejoin:bevel" />
    </g>
</svg>
