<?xml version="1.0" encoding="utf-8"?>
<svg xmlns="http://www.w3.org/2000/svg" width="30.48mm" height="128.50mm" viewBox="0 0 30.48 128.50">
    <g id="PanelLayer">
        <path d="M28.8112 23.1783Q28.8112 23.21 28.79 23.2294Q28.7688 23.2488 28.7406 23.2488H27.3789Q27.3436 23.2488 27.3172 23.2312Q27.2907 23.2136 27.2907 23.1747Q27.2907 23.1536 27.3083 23.1289L28.1374 22.2046Q28.3596 21.9683 28.4619 21.7901Q28.5642 21.6119 28.5642 21.4391Q28.5642 21.1745 28.4072 21.0299Q28.2503 20.8852 27.9575 20.8852Q27.7634 20.8852 27.617 20.9717Q27.4706 21.0581 27.4071 21.2451Q27.4001 21.2662 27.3842 21.2839Q27.3683 21.3015 27.3401 21.3015Q27.3154 21.3015 27.2889 21.2839Q27.2625 21.2662 27.2625 21.2451Q27.2625 21.2274 27.2801 21.1816Q27.3613 20.9699 27.5465 20.857Q27.7317 20.7441 27.968 20.7441Q28.3243 20.7441 28.5219 20.9311Q28.7195 21.1181 28.7195 21.425Q28.7195 21.6119 28.6171 21.8095Q28.5148 22.0071 28.2538 22.2893L27.5341 23.1077H28.7406Q28.7688 23.1077 28.79 23.1289Q28.8112 23.1501 28.8112 23.1783Z" style="stroke:#000000;stroke-width:0.25;stroke-linecap:round;stroke-linejoin:bevel" />
    </g>
</svg>
