<?xml version="1.0" encoding="utf-8"?>
<svg xmlns="http://www.w3.org/2000/svg" width="30.48mm" height="128.50mm" viewBox="0 0 30.48 128.50">
    <g id="PanelLayer">
        <path d="M4.21118 23.1783Q4.21118 23.21 4.19001 23.2294Q4.16884 23.2488 4.14062 23.2488H2.7789Q2.74362 23.2488 2.71716 23.2312Q2.6907 23.2136 2.6907 23.1747Q2.6907 23.1536 2.70834 23.1289L3.53737 22.2046Q3.75962 21.9683 3.86193 21.7901Q3.96423 21.6119 3.96423 21.4391Q3.96423 21.1745 3.80725 21.0299Q3.65026 20.8852 3.35745 20.8852Q3.16343 20.8852 3.01702 20.9717Q2.87062 21.0581 2.80712 21.2451Q2.80006 21.2662 2.78419 21.2839Q2.76831 21.3015 2.74009 21.3015Q2.7154 21.3015 2.68894 21.2839Q2.66248 21.2662 2.66248 21.2451Q2.66248 21.2274 2.68012 21.1816Q2.76126 20.9699 2.94647 20.857Q3.13168 20.7441 3.36804 20.7441Q3.72434 20.7441 3.9219 20.9311Q4.11945 21.1181 4.11945 21.425Q4.11945 21.6119 4.01715 21.8095Q3.91484 22.0071 3.65379 22.2893L2.93412 23.1077H4.14062Q4.16884 23.1077 4.19001 23.1289Q4.21118 23.1501 4.21118 23.1783Z" style="stroke:#000000;stroke-width:0.25;stroke-linecap:round;stroke-linejoin:bevel" />
    </g>
</svg>
