<?xml version="1.0" encoding="utf-8"?>
<svg xmlns="http://www.w3.org/2000/svg" width="30.48mm" height="128.50mm" viewBox="0 0 30.48 128.50">
    <g id="PanelLayer">
        <path d="M3.80783 115.178Q3.80783 115.21 3.78667 115.229Q3.7655 115.249 3.73728 115.249H2.44258Q2.41083 115.249 2.39143 115.228Q2.37203 115.207 2.37203 115.178V112.85Q2.37203 112.822 2.39319 112.801Q2.41436 112.779 2.44611 112.779Q2.47786 112.779 2.49903 112.801Q2.52019 112.822 2.52019 112.85V115.108H3.73728Q3.7655 115.108 3.78667 115.129Q3.80783 115.15 3.80783 115.178Z" style="stroke:#000000;stroke-width:0.25;stroke-linecap:round;stroke-linejoin:bevel" />
        <path d="M28.5172 115.175Q28.5172 115.207 28.4978 115.226Q28.4784 115.245 28.4502 115.245Q28.429 115.245 28.4184 115.238Q28.3232 115.185 28.2667 115.06Q28.2103 114.935 28.2103 114.649Q28.2103 114.36 28.0551 114.252Q27.8998 114.145 27.6952 114.145H26.8697V115.178Q26.8697 115.207 26.8486 115.228Q26.8274 115.249 26.7956 115.249Q26.7639 115.249 26.7427 115.228Q26.7216 115.207 26.7216 115.178V112.85Q26.7216 112.822 26.7427 112.801Q26.7639 112.779 26.7921 112.779H27.7234Q27.9281 112.779 28.0868 112.862Q28.2456 112.945 28.3337 113.09Q28.4219 113.234 28.4219 113.418Q28.4219 113.654 28.2967 113.824Q28.1715 113.993 27.9704 114.053Q28.1397 114.106 28.2491 114.263Q28.3584 114.42 28.3584 114.649Q28.3584 114.885 28.3884 114.979Q28.4184 115.072 28.4784 115.111Q28.5172 115.136 28.5172 115.175ZM27.7411 114.004Q27.9633 113.982 28.1186 113.827Q28.2738 113.672 28.2738 113.421Q28.2738 113.203 28.1186 113.062Q27.9633 112.921 27.7058 112.921H26.8697V114.004Z" style="stroke:#000000;stroke-width:0.25;stroke-linecap:round;stroke-linejoin:bevel" />
    </g>
</svg>
