<?xml version="1.0" encoding="utf-8"?>
<svg xmlns="http://www.w3.org/2000/svg" width="15.24mm" height="128.50mm" viewBox="0 0 15.24 128.50">
    <g id="PanelLayer">
        <rect id="border_rect" width="15.24" height="128.5" x="0" y="0" style="display:inline;fill:#4f8df2;fill-opacity:1;fill-rule:nonzero;stroke:#5021d4;stroke-width:0.7;stroke-linecap:round;stroke-linejoin:round;stroke-dasharray:none;stroke-opacity:1;image-rendering:auto" />
        <path id="model_name" d="M5.60987 4.39488Q5.60987 4.45697 5.56719 4.49966Q5.5245 4.54234 5.46241 4.54234H4.60869V7.3053Q4.60869 7.64679 4.72899 7.75932Q4.84928 7.87186 5.03555 7.87186Q5.06659 7.87186 5.1248 7.85634Q5.18301 7.84081 5.22182 7.84081Q5.27614 7.84081 5.31495 7.8835Q5.35376 7.92619 5.35376 7.98051Q5.35376 8.05036 5.26062 8.10081Q5.16749 8.15126 5.04331 8.15126Q4.84928 8.15126 4.71734 8.12409Q4.58541 8.09693 4.44182 7.91454Q4.29824 7.73216 4.29824 7.32082V4.54234H3.66183Q3.60751 4.54234 3.56094 4.49578Q3.51437 4.44921 3.51437 4.39488Q3.51437 4.33279 3.55706 4.29011Q3.59974 4.24742 3.66183 4.24742H4.29824V3.26176Q4.29824 3.19967 4.34481 3.1531Q4.39138 3.10654 4.45347 3.10654Q4.52332 3.10654 4.566 3.1531Q4.60869 3.19967 4.60869 3.26176V4.24742H5.46241Q5.51674 4.24742 5.56331 4.29399Q5.60987 4.34055 5.60987 4.39488ZM6.62658 8.15126Q6.55673 8.15126 6.51404 8.10469Q6.47136 8.05812 6.47136 7.99604V4.30951Q6.47136 4.24742 6.51792 4.20085Q6.56449 4.15429 6.62658 4.15429Q6.69643 4.15429 6.73911 4.20085Q6.7818 4.24742 6.7818 4.30951V7.99604Q6.7818 8.05812 6.73523 8.10469Q6.68867 8.15126 6.62658 8.15126ZM6.35494 3.37818V3.31609Q6.35494 3.20743 6.43255 3.13758Q6.51016 3.06773 6.63434 3.06773Q6.74299 3.06773 6.81672 3.13758Q6.89046 3.20743 6.89046 3.31609V3.37818Q6.89046 3.48683 6.81672 3.55668Q6.74299 3.62653 6.62658 3.62653Q6.5024 3.62653 6.42867 3.55668Q6.35494 3.48683 6.35494 3.37818ZM11.2212 5.62114V7.99604Q11.2212 8.05812 11.1746 8.10469Q11.128 8.15126 11.0659 8.15126Q10.9961 8.15126 10.9534 8.10469Q10.9107 8.05812 10.9107 7.99604V5.65218Q10.9107 5.12443 10.6352 4.78682Q10.3597 4.44921 9.80087 4.44921Q9.45938 4.44921 9.12954 4.61219Q8.79969 4.77517 8.59014 5.05457Q8.38059 5.33397 8.38059 5.65218V7.99604Q8.38059 8.05812 8.33402 8.10469Q8.28746 8.15126 8.22537 8.15126Q8.15552 8.15126 8.11283 8.10469Q8.07014 8.05812 8.07014 7.99604V4.43369Q8.07014 4.3716 8.11671 4.32503Q8.16328 4.27846 8.22537 4.27846Q8.29522 4.27846 8.3379 4.32503Q8.38059 4.3716 8.38059 4.43369V4.95368Q8.60566 4.60443 9.01312 4.37936Q9.42058 4.15429 9.83192 4.15429Q10.5227 4.15429 10.8719 4.56174Q11.2212 4.9692 11.2212 5.62114Z" style="display:inline;stroke:#000000;stroke-width:0.35;stroke-linecap:round;stroke-linejoin:bevel" />
        <path id="sapphire_gemstone" d="m 10.335,122.900 q 0,0.34175 -0.242534,0.63114 -0.0441,0.0524 -0.20395,0.21497 -0.187413,0.19017 -0.785481,0.81304 l -1.444183,1.51309 q -0.01929,0.003 -0.0441,0.003 -0.02756,0 -0.04134,-0.003 -0.08268,-0.0827 -0.647678,-0.67524 -0.468532,-0.47404 -0.934309,-0.94809 -0.556727,-0.56775 -0.89848,-0.98116 -0.132292,-0.15985 -0.168121,-0.29766 -0.02756,-0.10197 -0.02756,-0.34175 0,-0.11024 0.07166,-0.28939 0.06614,-0.16536 0.140559,-0.26458 0.118512,-0.1571 0.42168,-0.42444 0.283875,-0.2508 0.474044,-0.37482 0.272852,-0.17915 0.818555,-0.36656 0.09646,-0.0331 0.110243,-0.0331 h 1.3615 q 0.01102,0 0.104731,0.0331 0.567751,0.20119 0.824066,0.36656 0.165365,0.10473 0.474045,0.37758 0.322461,0.28388 0.421679,0.42168 0.214974,0.2949 0.214974,0.62563 z m -0.16812,-0.27285 q -0.03307,-0.10749 -0.135048,-0.30868 -0.07166,-0.0937 -0.209462,-0.19844 -0.118511,-0.0854 -0.234266,-0.17088 0.245291,0.3638 0.578776,0.678 z m -0.573264,-0.52366 -0.358289,-0.44648 v 0.41065 z m 0.636653,0.75792 q 0,-0.0524 -0.341753,-0.39412 l 0.228754,0.7028 h 0.04961 q 0.06339,-0.21773 0.06339,-0.30868 z m -0.23151,0.27285 -0.316948,-0.90399 -0.410655,-0.0634 -0.159853,0.61461 z m 0.0028,0.15434 -0.771701,-0.3197 h -0.03032 l 0.344509,0.60634 q 0.07993,-0.003 0.234266,-0.0469 0.02481,-0.0138 0.223242,-0.23978 z m -0.857139,-1.05006 -0.719335,0.28388 0.60358,0.22599 z m 0,-0.16261 v -0.51538 l -0.917773,-0.38034 h -1.223697 l -0.917772,0.38034 v 0.51538 l 0.89848,0.4079 h 1.254014 z m 0.573264,1.53789 q -0.0689,0.011 -0.198438,0.0524 -0.08544,0.0551 -0.259071,0.16261 0.01929,0 0.06339,0.003 0.04134,0 0.06339,0 0.118511,0 0.190169,-0.0689 0.07166,-0.0717 0.14056,-0.14883 z m -0.289388,0.003 -0.347266,-0.63114 -0.363801,0.87918 q 0.0248,-0.0165 0.06615,-0.0165 0.03032,0 0.08544,0.011 0.05788,0.008 0.08819,0.008 0.04961,0 0.228754,-0.10749 0.228754,-0.1378 0.242535,-0.14331 z m -0.440972,-0.74139 -0.683507,-0.2756 -0.592556,0.54845 0.903993,0.65595 z m -0.854383,-0.28387 h -1.036284 l 0.523654,0.47404 z m 0.749652,1.36701 q -0.228754,-0.0303 -0.228754,-0.0303 -0.03583,0 -0.272851,0.0937 l 0.190169,0.0193 q 0.01102,0 0.311436,-0.0827 z m -0.388606,-0.0882 -0.843359,-0.61185 v 0.67524 l 0.471289,0.0827 z m 0.854383,0.0496 q -0.09922,0.006 -0.2949,0.0386 -0.01102,0.003 -0.377583,0.17639 -0.129535,0.34726 -0.380338,1.0418 z m -2.543857,-1.39733 -0.719335,-0.28388 0.124023,0.51814 z m -0.802018,-0.45476 v -0.41065 l -0.366557,0.44648 z m 1.515841,1.07212 -0.592556,-0.54019 -0.683506,0.2756 0.380338,0.9288 z m 0.369314,0.94257 q -0.03307,-0.003 -0.135047,-0.0248 -0.08544,-0.0165 -0.137804,-0.0165 -0.05237,0 -0.137804,0.0165 -0.101975,0.0221 -0.135047,0.0248 0.264583,0.0469 0.272851,0.0469 0.0083,0 0.272851,-0.0469 z m -0.30868,-0.1378 v -0.68626 l -0.843359,0.61185 0.37207,0.14607 z m 0.950846,0.20671 -0.396875,-0.0551 -0.479557,0.14056 v 1.27607 z m -2.888366,-2.20211 q -0.118512,0.0854 -0.234267,0.17364 -0.146072,0.10748 -0.209461,0.19568 -0.0441,0.10473 -0.135048,0.31419 0.369314,-0.3638 0.578776,-0.68351 z m 0.476801,0.83234 -0.159853,-0.61461 -0.410655,0.0634 -0.316948,0.90399 z m 0.394118,1.08313 -0.363802,-0.87918 -0.355533,0.63114 q 0.43546,0.2508 0.451996,0.2508 0.09095,0 0.267339,-0.003 z m 1.821765,0.82958 q -0.132291,0.21222 -0.405143,0.6339 -0.07717,0.10749 -0.220486,0.32797 -0.05788,0.10473 -0.05512,0.226 0.159852,-0.15158 0.432704,-0.49609 0.07717,-0.12954 0.140559,-0.339 0.05512,-0.17639 0.107486,-0.35278 z m -1.493792,-0.66146 -0.270095,-0.0882 -0.0083,-0.011 q -0.02481,0 -0.107487,0.011 -0.06615,0.006 -0.107487,0.006 0.272851,0.091 0.311436,0.091 0.02481,0 0.181901,-0.008 z m -0.810286,-1.06384 h -0.03032 l -0.7717,0.3197 q 0.06615,0.0965 0.223242,0.23978 0.07717,0.0138 0.234266,0.0469 z m -0.689018,-0.50161 q -0.341754,0.34727 -0.341754,0.39412 0,0.0799 0.06339,0.30868 h 0.04961 z m 2.235176,3.04547 v -1.27607 l -0.479557,-0.14056 -0.396875,0.0551 z m -1.606791,-1.6757 q -0.256315,-0.1819 -0.457509,-0.22324 0.06615,0.0772 0.20395,0.22324 z m 1.609547,2.04501 v -0.1378 l -0.683507,-1.05007 q 0.05237,0.17639 0.107487,0.35278 0.06339,0.20946 0.14056,0.339 0.0689,0.11851 0.20395,0.25907 0.115755,0.11851 0.23151,0.23702 z m -0.644921,-0.70555 q -0.115756,-0.32798 -0.380339,-1.0418 -0.135047,-0.0662 -0.272851,-0.12954 -0.159852,-0.0716 -0.289388,-0.0716 -0.05237,0 -0.110243,-0.0138 z" style="stroke-width:0;fill:#0000ff;stroke:#2e2114;stroke-linecap:square;stroke-opacity:1" />
        <path id="port_label_x" d="M3.57439 31.1119Q3.59203 31.1366 3.59203 31.1542Q3.59203 31.186 3.57086 31.2054Q3.54969 31.2248 3.51794 31.2248Q3.47914 31.2248 3.4615 31.1966L2.65364 30.0959L1.84931 31.1966Q1.83167 31.2248 1.79639 31.2248Q1.76464 31.2248 1.747 31.2054Q1.72936 31.186 1.72936 31.1648Q1.72936 31.1472 1.747 31.119L2.57603 29.9865L1.73994 28.8471Q1.72583 28.8294 1.72583 28.8047Q1.72583 28.773 1.747 28.7536Q1.76817 28.7342 1.79639 28.7342Q1.83872 28.7342 1.85636 28.7624L2.66422 29.8666L3.46856 28.7589Q3.48972 28.7307 3.52147 28.7307Q3.55322 28.7307 3.57263 28.7465Q3.59203 28.7624 3.59203 28.7871Q3.59203 28.8118 3.57439 28.8365L2.74536 29.9795Z" style="stroke:#000000;stroke-width:0.25;stroke-linecap:round;stroke-linejoin:bevel" />
        <path id="port_label_y" d="M3.46503 38.8435 2.66069 39.9372V41.1437Q2.66069 41.1719 2.63953 41.193Q2.61836 41.2142 2.58661 41.2142Q2.55486 41.2142 2.53369 41.193Q2.51253 41.1719 2.51253 41.1437V39.9513L1.70467 38.8435Q1.69056 38.8259 1.69056 38.7977Q1.69056 38.773 1.71349 38.7518Q1.73642 38.7307 1.76464 38.7307Q1.80344 38.7307 1.82461 38.7624L2.58661 39.8031L3.34861 38.7624Q3.36978 38.7307 3.40858 38.7307Q3.44033 38.7307 3.45974 38.7536Q3.47914 38.7765 3.47914 38.7977Q3.47914 38.8153 3.46503 38.8435Z" style="stroke:#000000;stroke-width:0.25;stroke-linecap:round;stroke-linejoin:bevel" />
        <path id="port_label_z" d="M3.70844 51.1472Q3.70844 51.1754 3.68728 51.1948Q3.66611 51.2142 3.63789 51.2142H1.90222Q1.87047 51.2142 1.85107 51.1913Q1.83167 51.1683 1.83167 51.1401Q1.83167 51.1154 1.84578 51.0978L3.51089 48.8788H1.97278Q1.94456 48.8788 1.92339 48.8594Q1.90222 48.84 1.90222 48.8118Q1.90222 48.7836 1.92339 48.7642Q1.94456 48.7448 1.97278 48.7448H3.63083Q3.67317 48.7448 3.69257 48.7659Q3.71197 48.7871 3.71197 48.8153Q3.71197 48.84 3.69786 48.8577L2.03628 51.0802H3.63789Q3.66611 51.0802 3.68728 51.1013Q3.70844 51.1225 3.70844 51.1472Z" style="stroke:#000000;stroke-width:0.25;stroke-linecap:round;stroke-linejoin:bevel" />
        <g id="ControlLayer" style="display:none;">
            <circle id="x_input" cx="7.62" cy="30" r="1" />
            <circle id="y_input" cx="7.62" cy="40" r="1" />
            <circle id="z_input" cx="7.62" cy="50" r="1" />
        </g>
    </g>
</svg>
