<?xml version="1.0" encoding="utf-8"?>
<svg xmlns="http://www.w3.org/2000/svg" width="20.32mm" height="128.50mm" viewBox="0 0 20.32 128.50">
    <g id="PanelLayer">
        <defs>
            <linearGradient id="gradient_in" x1="0" y1="13" x2="0" y2="52.6" gradientUnits="userSpaceOnUse">
                <stop style="stop-color:#a06de4;stop-opacity:1;" offset="0" />
                <stop style="stop-color:#4f8df2;stop-opacity:1;" offset="1" />
            </linearGradient>
            <linearGradient id="gradient_trigger" x1="0" y1="98.5" x2="0" y2="108.5" gradientUnits="userSpaceOnUse">
                <stop style="stop-color:#3068ff;stop-opacity:1;" offset="0" />
                <stop style="stop-color:#4f8df2;stop-opacity:1;" offset="1" />
            </linearGradient>
        </defs>
        <rect id="border_rect" width="20.32" height="128.5" x="0" y="0" style="display:inline;fill:#4f8df2;fill-opacity:1;fill-rule:nonzero;stroke:#5021d4;stroke-width:0.7;stroke-linecap:round;stroke-linejoin:round;stroke-dasharray:none;stroke-opacity:1;image-rendering:auto" />
        <path id="model_name" d="M8.14987 4.39488Q8.14987 4.45697 8.10719 4.49966Q8.0645 4.54234 8.00241 4.54234H7.14869V7.3053Q7.14869 7.64679 7.26899 7.75932Q7.38928 7.87186 7.57555 7.87186Q7.60659 7.87186 7.6648 7.85634Q7.72301 7.84081 7.76182 7.84081Q7.81614 7.84081 7.85495 7.8835Q7.89376 7.92619 7.89376 7.98051Q7.89376 8.05036 7.80062 8.10081Q7.70749 8.15126 7.58331 8.15126Q7.38928 8.15126 7.25734 8.12409Q7.12541 8.09693 6.98183 7.91454Q6.83824 7.73216 6.83824 7.32082V4.54234H6.20183Q6.14751 4.54234 6.10094 4.49578Q6.05437 4.44921 6.05437 4.39488Q6.05437 4.33279 6.09706 4.29011Q6.13974 4.24742 6.20183 4.24742H6.83824V3.26176Q6.83824 3.19967 6.88481 3.1531Q6.93138 3.10654 6.99347 3.10654Q7.06332 3.10654 7.106 3.1531Q7.14869 3.19967 7.14869 3.26176V4.24742H8.00241Q8.05674 4.24742 8.10331 4.29399Q8.14987 4.34055 8.14987 4.39488ZM9.16658 8.15126Q9.09673 8.15126 9.05404 8.10469Q9.01136 8.05812 9.01136 7.99604V4.30951Q9.01136 4.24742 9.05792 4.20085Q9.10449 4.15429 9.16658 4.15429Q9.23643 4.15429 9.27911 4.20085Q9.3218 4.24742 9.3218 4.30951V7.99604Q9.3218 8.05812 9.27523 8.10469Q9.22867 8.15126 9.16658 8.15126ZM8.89494 3.37818V3.31609Q8.89494 3.20743 8.97255 3.13758Q9.05016 3.06773 9.17434 3.06773Q9.28299 3.06773 9.35673 3.13758Q9.43046 3.20743 9.43046 3.31609V3.37818Q9.43046 3.48683 9.35673 3.55668Q9.28299 3.62653 9.16658 3.62653Q9.0424 3.62653 8.96867 3.55668Q8.89494 3.48683 8.89494 3.37818ZM13.7612 5.62114V7.99604Q13.7612 8.05812 13.7146 8.10469Q13.668 8.15126 13.6059 8.15126Q13.5361 8.15126 13.4934 8.10469Q13.4507 8.05812 13.4507 7.99604V5.65218Q13.4507 5.12443 13.1752 4.78682Q12.8997 4.44921 12.3409 4.44921Q11.9994 4.44921 11.6695 4.61219Q11.3397 4.77517 11.1301 5.05457Q10.9206 5.33397 10.9206 5.65218V7.99604Q10.9206 8.05812 10.874 8.10469Q10.8275 8.15126 10.7654 8.15126Q10.6955 8.15126 10.6528 8.10469Q10.6101 8.05812 10.6101 7.99604V4.43369Q10.6101 4.3716 10.6567 4.32503Q10.7033 4.27846 10.7654 4.27846Q10.8352 4.27846 10.8779 4.32503Q10.9206 4.3716 10.9206 4.43369V4.95368Q11.1457 4.60443 11.5531 4.37936Q11.9606 4.15429 12.3719 4.15429Q13.0627 4.15429 13.4119 4.56174Q13.7612 4.9692 13.7612 5.62114Z" style="display:inline;stroke:#000000;stroke-width:0.35;stroke-linecap:round;stroke-linejoin:bevel" />
        <path id="sapphire_gemstone" d="m 12.875,122.900 q 0,0.34175 -0.242534,0.63114 -0.0441,0.0524 -0.20395,0.21497 -0.187413,0.19017 -0.785481,0.81304 l -1.444183,1.51309 q -0.01929,0.003 -0.0441,0.003 -0.02756,0 -0.04134,-0.003 -0.08268,-0.0827 -0.647678,-0.67524 -0.468532,-0.47404 -0.934309,-0.94809 -0.556727,-0.56775 -0.89848,-0.98116 -0.132292,-0.15985 -0.168121,-0.29766 -0.02756,-0.10197 -0.02756,-0.34175 0,-0.11024 0.07166,-0.28939 0.06614,-0.16536 0.140559,-0.26458 0.118512,-0.1571 0.42168,-0.42444 0.283875,-0.2508 0.474044,-0.37482 0.272852,-0.17915 0.818555,-0.36656 0.09646,-0.0331 0.110243,-0.0331 h 1.3615 q 0.01102,0 0.104731,0.0331 0.567751,0.20119 0.824066,0.36656 0.165365,0.10473 0.474045,0.37758 0.322461,0.28388 0.421679,0.42168 0.214974,0.2949 0.214974,0.62563 z m -0.16812,-0.27285 q -0.03307,-0.10749 -0.135048,-0.30868 -0.07166,-0.0937 -0.209462,-0.19844 -0.118511,-0.0854 -0.234266,-0.17088 0.245291,0.3638 0.578776,0.678 z m -0.573264,-0.52366 -0.358289,-0.44648 v 0.41065 z m 0.636653,0.75792 q 0,-0.0524 -0.341753,-0.39412 l 0.228754,0.7028 h 0.04961 q 0.06339,-0.21773 0.06339,-0.30868 z m -0.23151,0.27285 -0.316948,-0.90399 -0.410655,-0.0634 -0.159853,0.61461 z m 0.0028,0.15434 -0.771701,-0.3197 h -0.03032 l 0.344509,0.60634 q 0.07993,-0.003 0.234266,-0.0469 0.02481,-0.0138 0.223242,-0.23978 z m -0.857139,-1.05006 -0.719335,0.28388 0.60358,0.22599 z m 0,-0.16261 v -0.51538 l -0.917773,-0.38034 h -1.223697 l -0.917772,0.38034 v 0.51538 l 0.89848,0.4079 h 1.254014 z m 0.573264,1.53789 q -0.0689,0.011 -0.198438,0.0524 -0.08544,0.0551 -0.259071,0.16261 0.01929,0 0.06339,0.003 0.04134,0 0.06339,0 0.118511,0 0.190169,-0.0689 0.07166,-0.0717 0.14056,-0.14883 z m -0.289388,0.003 -0.347266,-0.63114 -0.363801,0.87918 q 0.0248,-0.0165 0.06615,-0.0165 0.03032,0 0.08544,0.011 0.05788,0.008 0.08819,0.008 0.04961,0 0.228754,-0.10749 0.228754,-0.1378 0.242535,-0.14331 z m -0.440972,-0.74139 -0.683507,-0.2756 -0.592556,0.54845 0.903993,0.65595 z m -0.854383,-0.28387 h -1.036284 l 0.523654,0.47404 z m 0.749652,1.36701 q -0.228754,-0.0303 -0.228754,-0.0303 -0.03583,0 -0.272851,0.0937 l 0.190169,0.0193 q 0.01102,0 0.311436,-0.0827 z m -0.388606,-0.0882 -0.843359,-0.61185 v 0.67524 l 0.471289,0.0827 z m 0.854383,0.0496 q -0.09922,0.006 -0.2949,0.0386 -0.01102,0.003 -0.377583,0.17639 -0.129535,0.34726 -0.380338,1.0418 z m -2.543857,-1.39733 -0.719335,-0.28388 0.124023,0.51814 z m -0.802018,-0.45476 v -0.41065 l -0.366557,0.44648 z m 1.515841,1.07212 -0.592556,-0.54019 -0.683506,0.2756 0.380338,0.9288 z m 0.369314,0.94257 q -0.03307,-0.003 -0.135047,-0.0248 -0.08544,-0.0165 -0.137804,-0.0165 -0.05237,0 -0.137804,0.0165 -0.101975,0.0221 -0.135047,0.0248 0.264583,0.0469 0.272851,0.0469 0.0083,0 0.272851,-0.0469 z m -0.30868,-0.1378 v -0.68626 l -0.843359,0.61185 0.37207,0.14607 z m 0.950846,0.20671 -0.396875,-0.0551 -0.479557,0.14056 v 1.27607 z m -2.888366,-2.20211 q -0.118512,0.0854 -0.234267,0.17364 -0.146072,0.10748 -0.209461,0.19568 -0.0441,0.10473 -0.135048,0.31419 0.369314,-0.3638 0.578776,-0.68351 z m 0.476801,0.83234 -0.159853,-0.61461 -0.410655,0.0634 -0.316948,0.90399 z m 0.394118,1.08313 -0.363802,-0.87918 -0.355533,0.63114 q 0.43546,0.2508 0.451996,0.2508 0.09095,0 0.267339,-0.003 z m 1.821765,0.82958 q -0.132291,0.21222 -0.405143,0.6339 -0.07717,0.10749 -0.220486,0.32797 -0.05788,0.10473 -0.05512,0.226 0.159852,-0.15158 0.432704,-0.49609 0.07717,-0.12954 0.140559,-0.339 0.05512,-0.17639 0.107486,-0.35278 z m -1.493792,-0.66146 -0.270095,-0.0882 -0.0083,-0.011 q -0.02481,0 -0.107487,0.011 -0.06615,0.006 -0.107487,0.006 0.272851,0.091 0.311436,0.091 0.02481,0 0.181901,-0.008 z m -0.810286,-1.06384 h -0.03032 l -0.7717,0.3197 q 0.06615,0.0965 0.223242,0.23978 0.07717,0.0138 0.234266,0.0469 z m -0.689018,-0.50161 q -0.341754,0.34727 -0.341754,0.39412 0,0.0799 0.06339,0.30868 h 0.04961 z m 2.235176,3.04547 v -1.27607 l -0.479557,-0.14056 -0.396875,0.0551 z m -1.606791,-1.6757 q -0.256315,-0.1819 -0.457509,-0.22324 0.06615,0.0772 0.20395,0.22324 z m 1.609547,2.04501 v -0.1378 l -0.683507,-1.05007 q 0.05237,0.17639 0.107487,0.35278 0.06339,0.20946 0.14056,0.339 0.0689,0.11851 0.20395,0.25907 0.115755,0.11851 0.23151,0.23702 z m -0.644921,-0.70555 q -0.115756,-0.32798 -0.380339,-1.0418 -0.135047,-0.0662 -0.272851,-0.12954 -0.159852,-0.0716 -0.289388,-0.0716 -0.05237,0 -0.110243,-0.0138 z" style="stroke-width:0;fill:#0000ff;stroke:#2e2114;stroke-linecap:square;stroke-opacity:1" />
        <path id="in_art" d="M 0.38,52.60 L 0.38,17.00 A 4 4 0 0 1 4.38 13 L 15.94,13.00 A 4 4 0 0 1 19.94 17 L 19.94,13.00 L 19.94,52.60 z" style="fill:url(#gradient_in);fill-opacity:1;stroke-width:0;" />
        <path id="trig_art" d="M 0.38,108.50 L 0.38,102.50 A 4 4 0 0 1 4.38 98.5 L 15.94,98.50 A 4 4 0 0 1 19.94 102.5 L 19.94,98.50 L 19.94,108.50 z" style="fill:url(#gradient_trigger);fill-opacity:1;stroke-width:0;" />
        <path id="port_label_x" d="M17.3144 26.1119Q17.332 26.1366 17.332 26.1542Q17.332 26.186 17.3109 26.2054Q17.2897 26.2248 17.2579 26.2248Q17.2191 26.2248 17.2015 26.1966L16.3936 25.0959L15.5893 26.1966Q15.5717 26.2248 15.5364 26.2248Q15.5046 26.2248 15.487 26.2054Q15.4694 26.186 15.4694 26.1648Q15.4694 26.1472 15.487 26.119L16.316 24.9865L15.4799 23.8471Q15.4658 23.8294 15.4658 23.8047Q15.4658 23.773 15.487 23.7536Q15.5082 23.7342 15.5364 23.7342Q15.5787 23.7342 15.5964 23.7624L16.4042 24.8666L17.2086 23.7589Q17.2297 23.7307 17.2615 23.7307Q17.2932 23.7307 17.3126 23.7465Q17.332 23.7624 17.332 23.7871Q17.332 23.8118 17.3144 23.8365L16.4854 24.9795Z" style="stroke:#000000;stroke-width:0.25;stroke-linecap:round;stroke-linejoin:bevel" />
        <path id="port_label_y" d="M17.205 33.8435 16.4007 34.9372V36.1437Q16.4007 36.1719 16.3795 36.193Q16.3584 36.2142 16.3266 36.2142Q16.2949 36.2142 16.2737 36.193Q16.2525 36.1719 16.2525 36.1437V34.9513L15.4447 33.8435Q15.4306 33.8259 15.4306 33.7977Q15.4306 33.773 15.4535 33.7518Q15.4764 33.7307 15.5046 33.7307Q15.5434 33.7307 15.5646 33.7624L16.3266 34.8031L17.0886 33.7624Q17.1098 33.7307 17.1486 33.7307Q17.1803 33.7307 17.1997 33.7536Q17.2191 33.7765 17.2191 33.7977Q17.2191 33.8153 17.205 33.8435Z" style="stroke:#000000;stroke-width:0.25;stroke-linecap:round;stroke-linejoin:bevel" />
        <path id="port_label_z" d="M17.4484 46.1472Q17.4484 46.1754 17.4273 46.1948Q17.4061 46.2142 17.3779 46.2142H15.6422Q15.6105 46.2142 15.5911 46.1913Q15.5717 46.1683 15.5717 46.1401Q15.5717 46.1154 15.5858 46.0978L17.2509 43.8788H15.7128Q15.6846 43.8788 15.6634 43.8594Q15.6422 43.84 15.6422 43.8118Q15.6422 43.7836 15.6634 43.7642Q15.6846 43.7448 15.7128 43.7448H17.3708Q17.4132 43.7448 17.4326 43.7659Q17.452 43.7871 17.452 43.8153Q17.452 43.84 17.4379 43.8577L15.7763 46.0802H17.3779Q17.4061 46.0802 17.4273 46.1013Q17.4484 46.1225 17.4484 46.1472Z" style="stroke:#000000;stroke-width:0.25;stroke-linecap:round;stroke-linejoin:bevel" />
        <path id="port_label_p" d="M17.2967 54.4186Q17.2967 54.6161 17.2138 54.7766Q17.1309 54.9372 16.9793 55.0271Q16.8276 55.1171 16.63 55.1171H15.8609V56.1437Q15.8609 56.1719 15.838 56.193Q15.8151 56.2142 15.7869 56.2142Q15.7551 56.2142 15.7339 56.193Q15.7128 56.1719 15.7128 56.1437V53.8153Q15.7128 53.7871 15.7339 53.7659Q15.7551 53.7448 15.7833 53.7448H16.63Q16.9299 53.7448 17.1133 53.9317Q17.2967 54.1187 17.2967 54.4186ZM17.1486 54.4186Q17.1486 54.1752 17.0092 54.0305Q16.8699 53.8859 16.63 53.8859H15.8609V54.976H16.63Q16.8664 54.976 17.0075 54.819Q17.1486 54.662 17.1486 54.4186Z" style="stroke:#000000;stroke-width:0.25;stroke-linecap:round;stroke-linejoin:bevel" />
        <path d="M6.44858 66.9437Q6.44858 66.9754 6.42742 66.9948Q6.40625 67.0142 6.37803 67.0142H5.08333Q5.05158 67.0142 5.03218 66.993Q5.01278 66.9719 5.01278 66.9437V64.6153Q5.01278 64.5871 5.03394 64.5659Q5.05511 64.5448 5.08686 64.5448Q5.11861 64.5448 5.13978 64.5659Q5.16094 64.5871 5.16094 64.6153V66.8731H6.37803Q6.40625 66.8731 6.42742 66.8943Q6.44858 66.9154 6.44858 66.9437ZM8.32536 66.9437Q8.32536 66.9754 8.30419 66.9948Q8.28303 67.0142 8.25481 67.0142H6.92483Q6.89661 67.0142 6.87544 66.993Q6.85428 66.9719 6.85428 66.9437V64.6153Q6.85428 64.5871 6.87544 64.5659Q6.89661 64.5448 6.92483 64.5448H8.25481Q8.28303 64.5448 8.30419 64.5659Q8.32536 64.5871 8.32536 64.6153Q8.32536 64.6471 8.30419 64.6665Q8.28303 64.6859 8.25481 64.6859H7.00244V65.6701H8.09606Q8.12428 65.6701 8.14544 65.6913Q8.16661 65.7125 8.16661 65.7407Q8.16661 65.7724 8.14544 65.7918Q8.12428 65.8112 8.09606 65.8112H7.00244V66.8731H8.25481Q8.28303 66.8731 8.30419 66.8943Q8.32536 66.9154 8.32536 66.9437ZM10.7066 64.6083Q10.7066 64.6224 10.6996 64.6435L9.73294 66.9683Q9.71178 67.0142 9.66592 67.0142Q9.64475 67.0142 9.62535 67.0019Q9.60594 66.9895 9.59889 66.9683L8.63933 64.6541Q8.62875 64.633 8.62875 64.6118Q8.62875 64.5836 8.64815 64.5642Q8.66756 64.5448 8.69578 64.5448Q8.74869 64.5448 8.77339 64.6012L9.66944 66.7567L10.569 64.5906Q10.5937 64.5448 10.6361 64.5448Q10.6678 64.5448 10.6872 64.5624Q10.7066 64.58 10.7066 64.6083ZM12.6539 66.9437Q12.6539 66.9754 12.6328 66.9948Q12.6116 67.0142 12.5834 67.0142H11.2534Q11.2252 67.0142 11.204 66.993Q11.1829 66.9719 11.1829 66.9437V64.6153Q11.1829 64.5871 11.204 64.5659Q11.2252 64.5448 11.2534 64.5448H12.5834Q12.6116 64.5448 12.6328 64.5659Q12.6539 64.5871 12.6539 64.6153Q12.6539 64.6471 12.6328 64.6665Q12.6116 64.6859 12.5834 64.6859H11.331V65.6701H12.4246Q12.4529 65.6701 12.474 65.6913Q12.4952 65.7125 12.4952 65.7407Q12.4952 65.7724 12.474 65.7918Q12.4529 65.8112 12.4246 65.8112H11.331V66.8731H12.5834Q12.6116 66.8731 12.6328 66.8943Q12.6539 66.9154 12.6539 66.9437ZM14.6189 66.9437Q14.6189 66.9754 14.5977 66.9948Q14.5766 67.0142 14.5484 67.0142H13.2537Q13.2219 67.0142 13.2025 66.993Q13.1831 66.9719 13.1831 66.9437V64.6153Q13.1831 64.5871 13.2043 64.5659Q13.2254 64.5448 13.2572 64.5448Q13.2889 64.5448 13.3101 64.5659Q13.3313 64.5871 13.3313 64.6153V66.8731H14.5484Q14.5766 66.8731 14.5977 66.8943Q14.6189 66.9154 14.6189 66.9437Z" style="stroke:#000000;stroke-width:0.25;stroke-linecap:round;stroke-linejoin:bevel" />
        <path d="M 10.16,75.00 L 5.16,86.00 z L 15.16,86.00 z " style="stroke:#000000;stroke-width:0.1;stroke-linecap:round;stroke-linejoin:bevel;stroke-dasharray:none" />
        <path id="inout_label" d="M8.88118 18.2488Q8.8459 18.2488 8.8265 18.2277Q8.8071 18.2065 8.8071 18.1747V15.8535Q8.8071 15.8217 8.82826 15.8006Q8.84943 15.7794 8.88118 15.7794Q8.91293 15.7794 8.9341 15.8006Q8.95526 15.8217 8.95526 15.8535V18.1747Q8.95174 18.2065 8.93057 18.2277Q8.9094 18.2488 8.88118 18.2488ZM11.5129 15.8464V18.1712Q11.5129 18.21 11.4917 18.2294Q11.4706 18.2488 11.4388 18.2488Q11.4035 18.2488 11.3824 18.2206L9.79487 16.051V18.1889Q9.79487 18.2136 9.77547 18.2312Q9.75607 18.2488 9.72785 18.2488Q9.6961 18.2488 9.67846 18.2312Q9.66082 18.2136 9.66082 18.1889V15.8499Q9.66082 15.8147 9.68022 15.797Q9.69962 15.7794 9.72432 15.7794Q9.75607 15.7794 9.77724 15.8041L11.3788 17.9878V15.8464Q11.3788 15.8182 11.3982 15.7988Q11.4177 15.7794 11.4459 15.7794Q11.4776 15.7794 11.4953 15.7988Q11.5129 15.8182 11.5129 15.8464Z" style="stroke:#000000;stroke-width:0.25;stroke-linecap:round;stroke-linejoin:bevel" />
        <path id="trigger_label" d="M7.07192 101.406Q7.07192 101.434 7.05781 101.452Q7.03664 101.48 7.00489 101.48Q6.99078 101.48 6.96256 101.466Q6.63447 101.244 6.26758 101.244Q5.97125 101.244 5.72254 101.39Q5.47383 101.536 5.32919 101.796Q5.18456 102.055 5.18456 102.379Q5.18456 102.704 5.32919 102.963Q5.47383 103.223 5.72254 103.369Q5.97125 103.515 6.26758 103.515Q6.638 103.515 6.95903 103.297Q6.97667 103.283 7.00136 103.283Q7.03664 103.283 7.05781 103.311Q7.07192 103.328 7.07192 103.353Q7.07192 103.388 7.04369 103.41Q6.90611 103.508 6.68915 103.579Q6.47219 103.649 6.26758 103.649Q5.93244 103.649 5.65022 103.484Q5.368 103.318 5.20219 103.027Q5.03639 102.736 5.03639 102.379Q5.03639 102.023 5.20219 101.732Q5.368 101.441 5.65022 101.275Q5.93244 101.109 6.26758 101.109Q6.47925 101.109 6.67857 101.173Q6.87789 101.236 7.04017 101.349Q7.07192 101.374 7.07192 101.406ZM8.98397 103.544Q8.98397 103.575 8.96281 103.595Q8.94164 103.614 8.91342 103.614H7.61872Q7.58697 103.614 7.56757 103.593Q7.54817 103.572 7.54817 103.544V101.215Q7.54817 101.187 7.56933 101.166Q7.5905 101.145 7.62225 101.145Q7.654 101.145 7.67517 101.166Q7.69633 101.187 7.69633 101.215V103.473H8.91342Q8.94164 103.473 8.96281 103.494Q8.98397 103.515 8.98397 103.544ZM10.8607 103.544Q10.8607 103.575 10.8396 103.595Q10.8184 103.614 10.7902 103.614H9.46022Q9.432 103.614 9.41083 103.593Q9.38967 103.572 9.38967 103.544V101.215Q9.38967 101.187 9.41083 101.166Q9.432 101.145 9.46022 101.145H10.7902Q10.8184 101.145 10.8396 101.166Q10.8607 101.187 10.8607 101.215Q10.8607 101.247 10.8396 101.266Q10.8184 101.286 10.7902 101.286H9.53783V102.27H10.6314Q10.6597 102.27 10.6808 102.291Q10.702 102.312 10.702 102.341Q10.702 102.372 10.6808 102.392Q10.6597 102.411 10.6314 102.411H9.53783V103.473H10.7902Q10.8184 103.473 10.8396 103.494Q10.8607 103.515 10.8607 103.544ZM13.2032 103.547Q13.2032 103.579 13.182 103.597Q13.1609 103.614 13.1291 103.614Q13.1044 103.614 13.085 103.602Q13.0656 103.59 13.0586 103.568L12.7622 102.842L12.7657 102.849H11.5839L11.2982 103.568Q11.2806 103.614 11.2347 103.614Q11.2029 103.614 11.1835 103.597Q11.1641 103.579 11.1606 103.554Q11.1571 103.54 11.1641 103.519L12.1131 101.184Q12.1237 101.155 12.1396 101.147Q12.1554 101.138 12.1801 101.138Q12.2331 101.138 12.2507 101.184L13.1997 103.519Q13.2032 103.53 13.2032 103.547ZM11.6404 102.708H12.7093L12.1696 101.378ZM15.4751 103.54Q15.4751 103.572 15.4557 103.591Q15.4363 103.611 15.4081 103.611Q15.3869 103.611 15.3763 103.604Q15.2811 103.551 15.2246 103.425Q15.1682 103.3 15.1682 103.014Q15.1682 102.725 15.0129 102.618Q14.8577 102.51 14.6531 102.51H13.8276V103.544Q13.8276 103.572 13.8064 103.593Q13.7853 103.614 13.7535 103.614Q13.7218 103.614 13.7006 103.593Q13.6794 103.572 13.6794 103.544V101.215Q13.6794 101.187 13.7006 101.166Q13.7218 101.145 13.75 101.145H14.6813Q14.8859 101.145 15.0447 101.228Q15.2034 101.311 15.2916 101.455Q15.3798 101.6 15.3798 101.783Q15.3798 102.02 15.2546 102.189Q15.1294 102.358 14.9283 102.418Q15.0976 102.471 15.207 102.628Q15.3163 102.785 15.3163 103.014Q15.3163 103.251 15.3463 103.344Q15.3763 103.438 15.4363 103.477Q15.4751 103.501 15.4751 103.54ZM14.699 102.369Q14.9212 102.348 15.0764 102.193Q15.2317 102.037 15.2317 101.787Q15.2317 101.568 15.0764 101.427Q14.9212 101.286 14.6637 101.286H13.8276V102.369Z" style="stroke:#000000;stroke-width:0.25;stroke-linecap:round;stroke-linejoin:bevel" />
        <g id="ControlLayer" style="display:none;">
            <circle id="x_input" cx="10.16" cy="25" r="1" />
            <circle id="y_input" cx="10.16" cy="35" r="1" />
            <circle id="z_input" cx="10.16" cy="45" r="1" />
            <circle id="p_input" cx="10.16" cy="55" r="1" />
            <circle id="clear_trigger_input" cx="10.16" cy="110" r="1" />
            <circle id="level_knob" cx="10.16" cy="75" r="1" />
            <circle id="level_atten" cx="5.16" cy="86" r="1" />
            <circle id="level_cv" cx="15.16" cy="86" r="1" />
        </g>
    </g>
</svg>
