<?xml version="1.0" encoding="utf-8"?>
<svg xmlns="http://www.w3.org/2000/svg" width="20.32mm" height="128.50mm" viewBox="0 0 20.32 128.50">
    <g id="PanelLayer">
        <rect id="border_rect" width="20.32" height="128.5" x="0" y="0" style="display:inline;fill:#4f8df2;fill-opacity:1;fill-rule:nonzero;stroke:#5021d4;stroke-width:0.7;stroke-linecap:round;stroke-linejoin:round;stroke-dasharray:none;stroke-opacity:1;image-rendering:auto" />
        <path id="model_name" d="M8.14987 4.39488Q8.14987 4.45697 8.10719 4.49966Q8.0645 4.54234 8.00241 4.54234H7.14869V7.3053Q7.14869 7.64679 7.26899 7.75932Q7.38928 7.87186 7.57555 7.87186Q7.60659 7.87186 7.6648 7.85634Q7.72301 7.84081 7.76182 7.84081Q7.81614 7.84081 7.85495 7.8835Q7.89376 7.92619 7.89376 7.98051Q7.89376 8.05036 7.80062 8.10081Q7.70749 8.15126 7.58331 8.15126Q7.38928 8.15126 7.25734 8.12409Q7.12541 8.09693 6.98183 7.91454Q6.83824 7.73216 6.83824 7.32082V4.54234H6.20183Q6.14751 4.54234 6.10094 4.49578Q6.05437 4.44921 6.05437 4.39488Q6.05437 4.33279 6.09706 4.29011Q6.13974 4.24742 6.20183 4.24742H6.83824V3.26176Q6.83824 3.19967 6.88481 3.1531Q6.93138 3.10654 6.99347 3.10654Q7.06332 3.10654 7.106 3.1531Q7.14869 3.19967 7.14869 3.26176V4.24742H8.00241Q8.05674 4.24742 8.10331 4.29399Q8.14987 4.34055 8.14987 4.39488ZM9.16658 8.15126Q9.09673 8.15126 9.05404 8.10469Q9.01136 8.05812 9.01136 7.99604V4.30951Q9.01136 4.24742 9.05792 4.20085Q9.10449 4.15429 9.16658 4.15429Q9.23643 4.15429 9.27911 4.20085Q9.3218 4.24742 9.3218 4.30951V7.99604Q9.3218 8.05812 9.27523 8.10469Q9.22867 8.15126 9.16658 8.15126ZM8.89494 3.37818V3.31609Q8.89494 3.20743 8.97255 3.13758Q9.05016 3.06773 9.17434 3.06773Q9.28299 3.06773 9.35673 3.13758Q9.43046 3.20743 9.43046 3.31609V3.37818Q9.43046 3.48683 9.35673 3.55668Q9.28299 3.62653 9.16658 3.62653Q9.0424 3.62653 8.96867 3.55668Q8.89494 3.48683 8.89494 3.37818ZM13.7612 5.62114V7.99604Q13.7612 8.05812 13.7146 8.10469Q13.668 8.15126 13.6059 8.15126Q13.5361 8.15126 13.4934 8.10469Q13.4507 8.05812 13.4507 7.99604V5.65218Q13.4507 5.12443 13.1752 4.78682Q12.8997 4.44921 12.3409 4.44921Q11.9994 4.44921 11.6695 4.61219Q11.3397 4.77517 11.1301 5.05457Q10.9206 5.33397 10.9206 5.65218V7.99604Q10.9206 8.05812 10.874 8.10469Q10.8275 8.15126 10.7654 8.15126Q10.6955 8.15126 10.6528 8.10469Q10.6101 8.05812 10.6101 7.99604V4.43369Q10.6101 4.3716 10.6567 4.32503Q10.7033 4.27846 10.7654 4.27846Q10.8352 4.27846 10.8779 4.32503Q10.9206 4.3716 10.9206 4.43369V4.95368Q11.1457 4.60443 11.5531 4.37936Q11.9606 4.15429 12.3719 4.15429Q13.0627 4.15429 13.4119 4.56174Q13.7612 4.9692 13.7612 5.62114Z" style="display:inline;stroke:#000000;stroke-width:0.35;stroke-linecap:round;stroke-linejoin:bevel" />
        <path id="sapphire_gemstone" d="m 12.875,122.900 q 0,0.34175 -0.242534,0.63114 -0.0441,0.0524 -0.20395,0.21497 -0.187413,0.19017 -0.785481,0.81304 l -1.444183,1.51309 q -0.01929,0.003 -0.0441,0.003 -0.02756,0 -0.04134,-0.003 -0.08268,-0.0827 -0.647678,-0.67524 -0.468532,-0.47404 -0.934309,-0.94809 -0.556727,-0.56775 -0.89848,-0.98116 -0.132292,-0.15985 -0.168121,-0.29766 -0.02756,-0.10197 -0.02756,-0.34175 0,-0.11024 0.07166,-0.28939 0.06614,-0.16536 0.140559,-0.26458 0.118512,-0.1571 0.42168,-0.42444 0.283875,-0.2508 0.474044,-0.37482 0.272852,-0.17915 0.818555,-0.36656 0.09646,-0.0331 0.110243,-0.0331 h 1.3615 q 0.01102,0 0.104731,0.0331 0.567751,0.20119 0.824066,0.36656 0.165365,0.10473 0.474045,0.37758 0.322461,0.28388 0.421679,0.42168 0.214974,0.2949 0.214974,0.62563 z m -0.16812,-0.27285 q -0.03307,-0.10749 -0.135048,-0.30868 -0.07166,-0.0937 -0.209462,-0.19844 -0.118511,-0.0854 -0.234266,-0.17088 0.245291,0.3638 0.578776,0.678 z m -0.573264,-0.52366 -0.358289,-0.44648 v 0.41065 z m 0.636653,0.75792 q 0,-0.0524 -0.341753,-0.39412 l 0.228754,0.7028 h 0.04961 q 0.06339,-0.21773 0.06339,-0.30868 z m -0.23151,0.27285 -0.316948,-0.90399 -0.410655,-0.0634 -0.159853,0.61461 z m 0.0028,0.15434 -0.771701,-0.3197 h -0.03032 l 0.344509,0.60634 q 0.07993,-0.003 0.234266,-0.0469 0.02481,-0.0138 0.223242,-0.23978 z m -0.857139,-1.05006 -0.719335,0.28388 0.60358,0.22599 z m 0,-0.16261 v -0.51538 l -0.917773,-0.38034 h -1.223697 l -0.917772,0.38034 v 0.51538 l 0.89848,0.4079 h 1.254014 z m 0.573264,1.53789 q -0.0689,0.011 -0.198438,0.0524 -0.08544,0.0551 -0.259071,0.16261 0.01929,0 0.06339,0.003 0.04134,0 0.06339,0 0.118511,0 0.190169,-0.0689 0.07166,-0.0717 0.14056,-0.14883 z m -0.289388,0.003 -0.347266,-0.63114 -0.363801,0.87918 q 0.0248,-0.0165 0.06615,-0.0165 0.03032,0 0.08544,0.011 0.05788,0.008 0.08819,0.008 0.04961,0 0.228754,-0.10749 0.228754,-0.1378 0.242535,-0.14331 z m -0.440972,-0.74139 -0.683507,-0.2756 -0.592556,0.54845 0.903993,0.65595 z m -0.854383,-0.28387 h -1.036284 l 0.523654,0.47404 z m 0.749652,1.36701 q -0.228754,-0.0303 -0.228754,-0.0303 -0.03583,0 -0.272851,0.0937 l 0.190169,0.0193 q 0.01102,0 0.311436,-0.0827 z m -0.388606,-0.0882 -0.843359,-0.61185 v 0.67524 l 0.471289,0.0827 z m 0.854383,0.0496 q -0.09922,0.006 -0.2949,0.0386 -0.01102,0.003 -0.377583,0.17639 -0.129535,0.34726 -0.380338,1.0418 z m -2.543857,-1.39733 -0.719335,-0.28388 0.124023,0.51814 z m -0.802018,-0.45476 v -0.41065 l -0.366557,0.44648 z m 1.515841,1.07212 -0.592556,-0.54019 -0.683506,0.2756 0.380338,0.9288 z m 0.369314,0.94257 q -0.03307,-0.003 -0.135047,-0.0248 -0.08544,-0.0165 -0.137804,-0.0165 -0.05237,0 -0.137804,0.0165 -0.101975,0.0221 -0.135047,0.0248 0.264583,0.0469 0.272851,0.0469 0.0083,0 0.272851,-0.0469 z m -0.30868,-0.1378 v -0.68626 l -0.843359,0.61185 0.37207,0.14607 z m 0.950846,0.20671 -0.396875,-0.0551 -0.479557,0.14056 v 1.27607 z m -2.888366,-2.20211 q -0.118512,0.0854 -0.234267,0.17364 -0.146072,0.10748 -0.209461,0.19568 -0.0441,0.10473 -0.135048,0.31419 0.369314,-0.3638 0.578776,-0.68351 z m 0.476801,0.83234 -0.159853,-0.61461 -0.410655,0.0634 -0.316948,0.90399 z m 0.394118,1.08313 -0.363802,-0.87918 -0.355533,0.63114 q 0.43546,0.2508 0.451996,0.2508 0.09095,0 0.267339,-0.003 z m 1.821765,0.82958 q -0.132291,0.21222 -0.405143,0.6339 -0.07717,0.10749 -0.220486,0.32797 -0.05788,0.10473 -0.05512,0.226 0.159852,-0.15158 0.432704,-0.49609 0.07717,-0.12954 0.140559,-0.339 0.05512,-0.17639 0.107486,-0.35278 z m -1.493792,-0.66146 -0.270095,-0.0882 -0.0083,-0.011 q -0.02481,0 -0.107487,0.011 -0.06615,0.006 -0.107487,0.006 0.272851,0.091 0.311436,0.091 0.02481,0 0.181901,-0.008 z m -0.810286,-1.06384 h -0.03032 l -0.7717,0.3197 q 0.06615,0.0965 0.223242,0.23978 0.07717,0.0138 0.234266,0.0469 z m -0.689018,-0.50161 q -0.341754,0.34727 -0.341754,0.39412 0,0.0799 0.06339,0.30868 h 0.04961 z m 2.235176,3.04547 v -1.27607 l -0.479557,-0.14056 -0.396875,0.0551 z m -1.606791,-1.6757 q -0.256315,-0.1819 -0.457509,-0.22324 0.06615,0.0772 0.20395,0.22324 z m 1.609547,2.04501 v -0.1378 l -0.683507,-1.05007 q 0.05237,0.17639 0.107487,0.35278 0.06339,0.20946 0.14056,0.339 0.0689,0.11851 0.20395,0.25907 0.115755,0.11851 0.23151,0.23702 z m -0.644921,-0.70555 q -0.115756,-0.32798 -0.380339,-1.0418 -0.135047,-0.0662 -0.272851,-0.12954 -0.159852,-0.0716 -0.289388,-0.0716 -0.05237,0 -0.110243,-0.0138 z" style="stroke-width:0;fill:#0000ff;stroke:#2e2114;stroke-linecap:square;stroke-opacity:1" />
        <path id="port_label_x" d="M4.61439 31.1119Q4.63203 31.1366 4.63203 31.1542Q4.63203 31.186 4.61086 31.2054Q4.58969 31.2248 4.55794 31.2248Q4.51914 31.2248 4.5015 31.1966L3.69364 30.0959L2.88931 31.1966Q2.87167 31.2248 2.83639 31.2248Q2.80464 31.2248 2.787 31.2054Q2.76936 31.186 2.76936 31.1648Q2.76936 31.1472 2.787 31.119L3.61603 29.9865L2.77994 28.8471Q2.76583 28.8294 2.76583 28.8047Q2.76583 28.773 2.787 28.7536Q2.80817 28.7342 2.83639 28.7342Q2.87872 28.7342 2.89636 28.7624L3.70422 29.8666L4.50856 28.7589Q4.52972 28.7307 4.56147 28.7307Q4.59322 28.7307 4.61262 28.7465Q4.63203 28.7624 4.63203 28.7871Q4.63203 28.8118 4.61439 28.8365L3.78536 29.9795Z" style="stroke:#000000;stroke-width:0.25;stroke-linecap:round;stroke-linejoin:bevel" />
        <path id="port_label_y" d="M4.50503 38.8435 3.70069 39.9372V41.1437Q3.70069 41.1719 3.67953 41.193Q3.65836 41.2142 3.62661 41.2142Q3.59486 41.2142 3.57369 41.193Q3.55253 41.1719 3.55253 41.1437V39.9513L2.74467 38.8435Q2.73056 38.8259 2.73056 38.7977Q2.73056 38.773 2.75349 38.7518Q2.77642 38.7307 2.80464 38.7307Q2.84344 38.7307 2.86461 38.7624L3.62661 39.8031L4.38861 38.7624Q4.40978 38.7307 4.44858 38.7307Q4.48033 38.7307 4.49974 38.7536Q4.51914 38.7765 4.51914 38.7977Q4.51914 38.8153 4.50503 38.8435Z" style="stroke:#000000;stroke-width:0.25;stroke-linecap:round;stroke-linejoin:bevel" />
        <path id="port_label_z" d="M4.74844 51.1472Q4.74844 51.1754 4.72728 51.1948Q4.70611 51.2142 4.67789 51.2142H2.94222Q2.91047 51.2142 2.89107 51.1913Q2.87167 51.1683 2.87167 51.1401Q2.87167 51.1154 2.88578 51.0978L4.55089 48.8788H3.01278Q2.98456 48.8788 2.96339 48.8594Q2.94222 48.84 2.94222 48.8118Q2.94222 48.7836 2.96339 48.7642Q2.98456 48.7448 3.01278 48.7448H4.67083Q4.71317 48.7448 4.73257 48.7659Q4.75197 48.7871 4.75197 48.8153Q4.75197 48.84 4.73786 48.8577L3.07628 51.0802H4.67789Q4.70611 51.0802 4.72728 51.1013Q4.74844 51.1225 4.74844 51.1472Z" style="stroke:#000000;stroke-width:0.25;stroke-linecap:round;stroke-linejoin:bevel" />
        <g id="ControlLayer" style="display:none;">
            <circle id="x_input" cx="10.16" cy="30" r="1" />
            <circle id="y_input" cx="10.16" cy="40" r="1" />
            <circle id="z_input" cx="10.16" cy="50" r="1" />
        </g>
    </g>
</svg>
