<?xml version="1.0" encoding="utf-8"?>
<svg xmlns="http://www.w3.org/2000/svg" width="20.32mm" height="128.50mm" viewBox="0 0 20.32 128.50">
    <g id="PanelLayer">
        <defs>
            <linearGradient id="gradient_in" x1="0" y1="18" x2="0" y2="57.6" gradientUnits="userSpaceOnUse">
                <stop style="stop-color:#a06de4;stop-opacity:1;" offset="0" />
                <stop style="stop-color:#4f8df2;stop-opacity:1;" offset="1" />
            </linearGradient>
        </defs>
        <rect id="border_rect" width="20.32" height="128.5" x="0" y="0" style="display:inline;fill:#4f8df2;fill-opacity:1;fill-rule:nonzero;stroke:#5021d4;stroke-width:0.7;stroke-linecap:round;stroke-linejoin:round;stroke-dasharray:none;stroke-opacity:1;image-rendering:auto" />
        <path id="model_name" d="M8.14987 4.39488Q8.14987 4.45697 8.10719 4.49966Q8.0645 4.54234 8.00241 4.54234H7.14869V7.3053Q7.14869 7.64679 7.26899 7.75932Q7.38928 7.87186 7.57555 7.87186Q7.60659 7.87186 7.6648 7.85634Q7.72301 7.84081 7.76182 7.84081Q7.81614 7.84081 7.85495 7.8835Q7.89376 7.92619 7.89376 7.98051Q7.89376 8.05036 7.80062 8.10081Q7.70749 8.15126 7.58331 8.15126Q7.38928 8.15126 7.25734 8.12409Q7.12541 8.09693 6.98183 7.91454Q6.83824 7.73216 6.83824 7.32082V4.54234H6.20183Q6.14751 4.54234 6.10094 4.49578Q6.05437 4.44921 6.05437 4.39488Q6.05437 4.33279 6.09706 4.29011Q6.13974 4.24742 6.20183 4.24742H6.83824V3.26176Q6.83824 3.19967 6.88481 3.1531Q6.93138 3.10654 6.99347 3.10654Q7.06332 3.10654 7.106 3.1531Q7.14869 3.19967 7.14869 3.26176V4.24742H8.00241Q8.05674 4.24742 8.10331 4.29399Q8.14987 4.34055 8.14987 4.39488ZM9.16658 8.15126Q9.09673 8.15126 9.05404 8.10469Q9.01136 8.05812 9.01136 7.99604V4.30951Q9.01136 4.24742 9.05792 4.20085Q9.10449 4.15429 9.16658 4.15429Q9.23643 4.15429 9.27911 4.20085Q9.3218 4.24742 9.3218 4.30951V7.99604Q9.3218 8.05812 9.27523 8.10469Q9.22867 8.15126 9.16658 8.15126ZM8.89494 3.37818V3.31609Q8.89494 3.20743 8.97255 3.13758Q9.05016 3.06773 9.17434 3.06773Q9.28299 3.06773 9.35673 3.13758Q9.43046 3.20743 9.43046 3.31609V3.37818Q9.43046 3.48683 9.35673 3.55668Q9.28299 3.62653 9.16658 3.62653Q9.0424 3.62653 8.96867 3.55668Q8.89494 3.48683 8.89494 3.37818ZM13.7612 5.62114V7.99604Q13.7612 8.05812 13.7146 8.10469Q13.668 8.15126 13.6059 8.15126Q13.5361 8.15126 13.4934 8.10469Q13.4507 8.05812 13.4507 7.99604V5.65218Q13.4507 5.12443 13.1752 4.78682Q12.8997 4.44921 12.3409 4.44921Q11.9994 4.44921 11.6695 4.61219Q11.3397 4.77517 11.1301 5.05457Q10.9206 5.33397 10.9206 5.65218V7.99604Q10.9206 8.05812 10.874 8.10469Q10.8275 8.15126 10.7654 8.15126Q10.6955 8.15126 10.6528 8.10469Q10.6101 8.05812 10.6101 7.99604V4.43369Q10.6101 4.3716 10.6567 4.32503Q10.7033 4.27846 10.7654 4.27846Q10.8352 4.27846 10.8779 4.32503Q10.9206 4.3716 10.9206 4.43369V4.95368Q11.1457 4.60443 11.5531 4.37936Q11.9606 4.15429 12.3719 4.15429Q13.0627 4.15429 13.4119 4.56174Q13.7612 4.9692 13.7612 5.62114Z" style="display:inline;stroke:#000000;stroke-width:0.35;stroke-linecap:round;stroke-linejoin:bevel" />
        <path id="sapphire_gemstone" d="m 12.875,122.900 q 0,0.34175 -0.242534,0.63114 -0.0441,0.0524 -0.20395,0.21497 -0.187413,0.19017 -0.785481,0.81304 l -1.444183,1.51309 q -0.01929,0.003 -0.0441,0.003 -0.02756,0 -0.04134,-0.003 -0.08268,-0.0827 -0.647678,-0.67524 -0.468532,-0.47404 -0.934309,-0.94809 -0.556727,-0.56775 -0.89848,-0.98116 -0.132292,-0.15985 -0.168121,-0.29766 -0.02756,-0.10197 -0.02756,-0.34175 0,-0.11024 0.07166,-0.28939 0.06614,-0.16536 0.140559,-0.26458 0.118512,-0.1571 0.42168,-0.42444 0.283875,-0.2508 0.474044,-0.37482 0.272852,-0.17915 0.818555,-0.36656 0.09646,-0.0331 0.110243,-0.0331 h 1.3615 q 0.01102,0 0.104731,0.0331 0.567751,0.20119 0.824066,0.36656 0.165365,0.10473 0.474045,0.37758 0.322461,0.28388 0.421679,0.42168 0.214974,0.2949 0.214974,0.62563 z m -0.16812,-0.27285 q -0.03307,-0.10749 -0.135048,-0.30868 -0.07166,-0.0937 -0.209462,-0.19844 -0.118511,-0.0854 -0.234266,-0.17088 0.245291,0.3638 0.578776,0.678 z m -0.573264,-0.52366 -0.358289,-0.44648 v 0.41065 z m 0.636653,0.75792 q 0,-0.0524 -0.341753,-0.39412 l 0.228754,0.7028 h 0.04961 q 0.06339,-0.21773 0.06339,-0.30868 z m -0.23151,0.27285 -0.316948,-0.90399 -0.410655,-0.0634 -0.159853,0.61461 z m 0.0028,0.15434 -0.771701,-0.3197 h -0.03032 l 0.344509,0.60634 q 0.07993,-0.003 0.234266,-0.0469 0.02481,-0.0138 0.223242,-0.23978 z m -0.857139,-1.05006 -0.719335,0.28388 0.60358,0.22599 z m 0,-0.16261 v -0.51538 l -0.917773,-0.38034 h -1.223697 l -0.917772,0.38034 v 0.51538 l 0.89848,0.4079 h 1.254014 z m 0.573264,1.53789 q -0.0689,0.011 -0.198438,0.0524 -0.08544,0.0551 -0.259071,0.16261 0.01929,0 0.06339,0.003 0.04134,0 0.06339,0 0.118511,0 0.190169,-0.0689 0.07166,-0.0717 0.14056,-0.14883 z m -0.289388,0.003 -0.347266,-0.63114 -0.363801,0.87918 q 0.0248,-0.0165 0.06615,-0.0165 0.03032,0 0.08544,0.011 0.05788,0.008 0.08819,0.008 0.04961,0 0.228754,-0.10749 0.228754,-0.1378 0.242535,-0.14331 z m -0.440972,-0.74139 -0.683507,-0.2756 -0.592556,0.54845 0.903993,0.65595 z m -0.854383,-0.28387 h -1.036284 l 0.523654,0.47404 z m 0.749652,1.36701 q -0.228754,-0.0303 -0.228754,-0.0303 -0.03583,0 -0.272851,0.0937 l 0.190169,0.0193 q 0.01102,0 0.311436,-0.0827 z m -0.388606,-0.0882 -0.843359,-0.61185 v 0.67524 l 0.471289,0.0827 z m 0.854383,0.0496 q -0.09922,0.006 -0.2949,0.0386 -0.01102,0.003 -0.377583,0.17639 -0.129535,0.34726 -0.380338,1.0418 z m -2.543857,-1.39733 -0.719335,-0.28388 0.124023,0.51814 z m -0.802018,-0.45476 v -0.41065 l -0.366557,0.44648 z m 1.515841,1.07212 -0.592556,-0.54019 -0.683506,0.2756 0.380338,0.9288 z m 0.369314,0.94257 q -0.03307,-0.003 -0.135047,-0.0248 -0.08544,-0.0165 -0.137804,-0.0165 -0.05237,0 -0.137804,0.0165 -0.101975,0.0221 -0.135047,0.0248 0.264583,0.0469 0.272851,0.0469 0.0083,0 0.272851,-0.0469 z m -0.30868,-0.1378 v -0.68626 l -0.843359,0.61185 0.37207,0.14607 z m 0.950846,0.20671 -0.396875,-0.0551 -0.479557,0.14056 v 1.27607 z m -2.888366,-2.20211 q -0.118512,0.0854 -0.234267,0.17364 -0.146072,0.10748 -0.209461,0.19568 -0.0441,0.10473 -0.135048,0.31419 0.369314,-0.3638 0.578776,-0.68351 z m 0.476801,0.83234 -0.159853,-0.61461 -0.410655,0.0634 -0.316948,0.90399 z m 0.394118,1.08313 -0.363802,-0.87918 -0.355533,0.63114 q 0.43546,0.2508 0.451996,0.2508 0.09095,0 0.267339,-0.003 z m 1.821765,0.82958 q -0.132291,0.21222 -0.405143,0.6339 -0.07717,0.10749 -0.220486,0.32797 -0.05788,0.10473 -0.05512,0.226 0.159852,-0.15158 0.432704,-0.49609 0.07717,-0.12954 0.140559,-0.339 0.05512,-0.17639 0.107486,-0.35278 z m -1.493792,-0.66146 -0.270095,-0.0882 -0.0083,-0.011 q -0.02481,0 -0.107487,0.011 -0.06615,0.006 -0.107487,0.006 0.272851,0.091 0.311436,0.091 0.02481,0 0.181901,-0.008 z m -0.810286,-1.06384 h -0.03032 l -0.7717,0.3197 q 0.06615,0.0965 0.223242,0.23978 0.07717,0.0138 0.234266,0.0469 z m -0.689018,-0.50161 q -0.341754,0.34727 -0.341754,0.39412 0,0.0799 0.06339,0.30868 h 0.04961 z m 2.235176,3.04547 v -1.27607 l -0.479557,-0.14056 -0.396875,0.0551 z m -1.606791,-1.6757 q -0.256315,-0.1819 -0.457509,-0.22324 0.06615,0.0772 0.20395,0.22324 z m 1.609547,2.04501 v -0.1378 l -0.683507,-1.05007 q 0.05237,0.17639 0.107487,0.35278 0.06339,0.20946 0.14056,0.339 0.0689,0.11851 0.20395,0.25907 0.115755,0.11851 0.23151,0.23702 z m -0.644921,-0.70555 q -0.115756,-0.32798 -0.380339,-1.0418 -0.135047,-0.0662 -0.272851,-0.12954 -0.159852,-0.0716 -0.289388,-0.0716 -0.05237,0 -0.110243,-0.0138 z" style="stroke-width:0;fill:#0000ff;stroke:#2e2114;stroke-linecap:square;stroke-opacity:1" />
        <path id="in_art" d="M 0.38,57.60 L 0.38,22.00 A 4 4 0 0 1 4.38 18 L 15.94,18.00 A 4 4 0 0 1 19.94 22 L 19.94,18.00 L 19.94,57.60 z" style="fill:url(#gradient_in);fill-opacity:1;stroke-width:0;" />
        <path id="port_label_x" d="M17.3144 31.1119Q17.332 31.1366 17.332 31.1542Q17.332 31.186 17.3109 31.2054Q17.2897 31.2248 17.2579 31.2248Q17.2191 31.2248 17.2015 31.1966L16.3936 30.0959L15.5893 31.1966Q15.5717 31.2248 15.5364 31.2248Q15.5046 31.2248 15.487 31.2054Q15.4694 31.186 15.4694 31.1648Q15.4694 31.1472 15.487 31.119L16.316 29.9865L15.4799 28.8471Q15.4658 28.8294 15.4658 28.8047Q15.4658 28.773 15.487 28.7536Q15.5082 28.7342 15.5364 28.7342Q15.5787 28.7342 15.5964 28.7624L16.4042 29.8666L17.2086 28.7589Q17.2297 28.7307 17.2615 28.7307Q17.2932 28.7307 17.3126 28.7465Q17.332 28.7624 17.332 28.7871Q17.332 28.8118 17.3144 28.8365L16.4854 29.9795Z" style="stroke:#000000;stroke-width:0.25;stroke-linecap:round;stroke-linejoin:bevel" />
        <path id="port_label_y" d="M17.205 38.8435 16.4007 39.9372V41.1437Q16.4007 41.1719 16.3795 41.193Q16.3584 41.2142 16.3266 41.2142Q16.2949 41.2142 16.2737 41.193Q16.2525 41.1719 16.2525 41.1437V39.9513L15.4447 38.8435Q15.4306 38.8259 15.4306 38.7977Q15.4306 38.773 15.4535 38.7518Q15.4764 38.7307 15.5046 38.7307Q15.5434 38.7307 15.5646 38.7624L16.3266 39.8031L17.0886 38.7624Q17.1098 38.7307 17.1486 38.7307Q17.1803 38.7307 17.1997 38.7536Q17.2191 38.7765 17.2191 38.7977Q17.2191 38.8153 17.205 38.8435Z" style="stroke:#000000;stroke-width:0.25;stroke-linecap:round;stroke-linejoin:bevel" />
        <path id="port_label_z" d="M17.4484 51.1472Q17.4484 51.1754 17.4273 51.1948Q17.4061 51.2142 17.3779 51.2142H15.6422Q15.6105 51.2142 15.5911 51.1913Q15.5717 51.1683 15.5717 51.1401Q15.5717 51.1154 15.5858 51.0978L17.2509 48.8788H15.7128Q15.6846 48.8788 15.6634 48.8594Q15.6422 48.84 15.6422 48.8118Q15.6422 48.7836 15.6634 48.7642Q15.6846 48.7448 15.7128 48.7448H17.3708Q17.4132 48.7448 17.4326 48.7659Q17.452 48.7871 17.452 48.8153Q17.452 48.84 17.4379 48.8577L15.7763 51.0802H17.3779Q17.4061 51.0802 17.4273 51.1013Q17.4484 51.1225 17.4484 51.1472Z" style="stroke:#000000;stroke-width:0.25;stroke-linecap:round;stroke-linejoin:bevel" />
        <path id="in_label" d="M8.68686 23.1142Q8.65158 23.1142 8.63218 23.093Q8.61278 23.0719 8.61278 23.0401V20.7188Q8.61278 20.6871 8.63394 20.6659Q8.65511 20.6448 8.68686 20.6448Q8.71861 20.6448 8.73978 20.6659Q8.76094 20.6871 8.76094 20.7188V23.0401Q8.75742 23.0719 8.73625 23.093Q8.71508 23.1142 8.68686 23.1142ZM11.3186 20.7118V23.0366Q11.3186 23.0754 11.2974 23.0948Q11.2762 23.1142 11.2445 23.1142Q11.2092 23.1142 11.1881 23.086L9.60056 20.9164V23.0542Q9.60056 23.0789 9.58115 23.0966Q9.56175 23.1142 9.53353 23.1142Q9.50178 23.1142 9.48414 23.0966Q9.4665 23.0789 9.4665 23.0542V20.7153Q9.4665 20.68 9.4859 20.6624Q9.50531 20.6448 9.53 20.6448Q9.56175 20.6448 9.58292 20.6695L11.1845 22.8532V20.7118Q11.1845 20.6836 11.2039 20.6642Q11.2233 20.6448 11.2516 20.6448Q11.2833 20.6448 11.3009 20.6642Q11.3186 20.6836 11.3186 20.7118Z" style="stroke:#000000;stroke-width:0.25;stroke-linecap:round;stroke-linejoin:bevel" />
        <g id="ControlLayer" style="display:none;">
            <circle id="x_input" cx="10.16" cy="30" r="1" />
            <circle id="y_input" cx="10.16" cy="40" r="1" />
            <circle id="z_input" cx="10.16" cy="50" r="1" />
        </g>
    </g>
</svg>
