<?xml version="1.0" encoding="utf-8"?>
<svg xmlns="http://www.w3.org/2000/svg" width="20.32mm" height="128.50mm" viewBox="0 0 20.32 128.50">
    <g id="PanelLayer">
        <defs>
            <linearGradient id="gradient_in" x1="0" y1="18" x2="0" y2="57.6" gradientUnits="userSpaceOnUse">
                <stop style="stop-color:#a06de4;stop-opacity:1;" offset="0" />
                <stop style="stop-color:#4f8df2;stop-opacity:1;" offset="1" />
            </linearGradient>
            <linearGradient id="gradient_trigger" x1="0" y1="98.5" x2="0" y2="108.5" gradientUnits="userSpaceOnUse">
                <stop style="stop-color:#3068ff;stop-opacity:1;" offset="0" />
                <stop style="stop-color:#4f8df2;stop-opacity:1;" offset="1" />
            </linearGradient>
        </defs>
        <rect id="border_rect" width="20.32" height="128.5" x="0" y="0" style="display:inline;fill:#4f8df2;fill-opacity:1;fill-rule:nonzero;stroke:#5021d4;stroke-width:0.7;stroke-linecap:round;stroke-linejoin:round;stroke-dasharray:none;stroke-opacity:1;image-rendering:auto" />
        <path id="model_name" d="M5.47229 4.39488Q5.47229 4.45697 5.4296 4.49966Q5.38692 4.54234 5.32483 4.54234H4.47111V7.3053Q4.47111 7.64679 4.5914 7.75932Q4.7117 7.87186 4.89797 7.87186Q4.92901 7.87186 4.98722 7.85634Q5.04543 7.84081 5.08423 7.84081Q5.13856 7.84081 5.17737 7.8835Q5.21617 7.92619 5.21617 7.98051Q5.21617 8.05036 5.12304 8.10081Q5.02991 8.15126 4.90573 8.15126Q4.7117 8.15126 4.57976 8.12409Q4.44782 8.09693 4.30424 7.91454Q4.16066 7.73216 4.16066 7.32082V4.54234H3.52425Q3.46992 4.54234 3.42336 4.49578Q3.37679 4.44921 3.37679 4.39488Q3.37679 4.33279 3.41948 4.29011Q3.46216 4.24742 3.52425 4.24742H4.16066V3.26176Q4.16066 3.19967 4.20723 3.1531Q4.25379 3.10654 4.31588 3.10654Q4.38573 3.10654 4.42842 3.1531Q4.47111 3.19967 4.47111 3.26176V4.24742H5.32483Q5.37916 4.24742 5.42572 4.29399Q5.47229 4.34055 5.47229 4.39488ZM7.97913 8.22887Q7.44361 8.22887 7.00511 7.96111Q6.56661 7.69335 6.31437 7.22769Q6.06213 6.76202 6.06213 6.19546Q6.06213 5.62114 6.31437 5.15547Q6.56661 4.6898 7.00123 4.42204Q7.43585 4.15429 7.97913 4.15429Q8.51464 4.15429 8.95315 4.42204Q9.39165 4.6898 9.64001 5.15547Q9.88836 5.62114 9.88836 6.19546Q9.88836 6.76978 9.64001 7.23157Q9.39165 7.69335 8.95315 7.96111Q8.51464 8.22887 7.97913 8.22887ZM7.97913 4.44921Q7.52898 4.44921 7.16033 4.67816Q6.79168 4.90711 6.58213 5.30293Q6.37258 5.69875 6.37258 6.19546Q6.37258 6.68441 6.58213 7.08022Q6.79168 7.47604 7.16033 7.70499Q7.52898 7.93395 7.97913 7.93395Q8.43703 7.93395 8.80181 7.70887Q9.16658 7.4838 9.37225 7.08411Q9.57792 6.68441 9.57792 6.19546Q9.57792 5.69875 9.37225 5.30293Q9.16658 4.90711 8.80181 4.67816Q8.43703 4.44921 7.97913 4.44921ZM13.9862 4.43369V6.69217Q13.9862 7.42948 13.571 7.81365Q13.1558 8.19782 12.4418 8.19782Q11.7277 8.19782 11.3164 7.81365Q10.9051 7.42948 10.9051 6.69217V4.43369Q10.9051 4.3716 10.9516 4.32503Q10.9982 4.27846 11.0603 4.27846Q11.1301 4.27846 11.1728 4.32503Q11.2155 4.3716 11.2155 4.43369V6.69217Q11.2155 7.27425 11.5415 7.58858Q11.8674 7.9029 12.4418 7.9029Q13.0238 7.9029 13.3498 7.58858Q13.6758 7.27425 13.6758 6.69217V4.43369Q13.6758 4.3716 13.7185 4.32503Q13.7612 4.27846 13.831 4.27846Q13.9009 4.27846 13.9435 4.32503Q13.9862 4.3716 13.9862 4.43369ZM16.8656 4.39488Q16.8656 4.45697 16.8229 4.49966Q16.7802 4.54234 16.7181 4.54234H15.8644V7.3053Q15.8644 7.64679 15.9847 7.75932Q16.105 7.87186 16.2913 7.87186Q16.3223 7.87186 16.3805 7.85634Q16.4387 7.84081 16.4775 7.84081Q16.5319 7.84081 16.5707 7.8835Q16.6095 7.92619 16.6095 7.98051Q16.6095 8.05036 16.5163 8.10081Q16.4232 8.15126 16.299 8.15126Q16.105 8.15126 15.9731 8.12409Q15.8411 8.09693 15.6976 7.91454Q15.554 7.73216 15.554 7.32082V4.54234H14.9176Q14.8632 4.54234 14.8167 4.49578Q14.7701 4.44921 14.7701 4.39488Q14.7701 4.33279 14.8128 4.29011Q14.8555 4.24742 14.9176 4.24742H15.554V3.26176Q15.554 3.19967 15.6005 3.1531Q15.6471 3.10654 15.7092 3.10654Q15.779 3.10654 15.8217 3.1531Q15.8644 3.19967 15.8644 3.26176V4.24742H16.7181Q16.7725 4.24742 16.819 4.29399Q16.8656 4.34055 16.8656 4.39488Z" style="display:inline;stroke:#000000;stroke-width:0.35;stroke-linecap:round;stroke-linejoin:bevel" />
        <path id="sapphire_gemstone" d="m 12.875,122.900 q 0,0.34175 -0.242534,0.63114 -0.0441,0.0524 -0.20395,0.21497 -0.187413,0.19017 -0.785481,0.81304 l -1.444183,1.51309 q -0.01929,0.003 -0.0441,0.003 -0.02756,0 -0.04134,-0.003 -0.08268,-0.0827 -0.647678,-0.67524 -0.468532,-0.47404 -0.934309,-0.94809 -0.556727,-0.56775 -0.89848,-0.98116 -0.132292,-0.15985 -0.168121,-0.29766 -0.02756,-0.10197 -0.02756,-0.34175 0,-0.11024 0.07166,-0.28939 0.06614,-0.16536 0.140559,-0.26458 0.118512,-0.1571 0.42168,-0.42444 0.283875,-0.2508 0.474044,-0.37482 0.272852,-0.17915 0.818555,-0.36656 0.09646,-0.0331 0.110243,-0.0331 h 1.3615 q 0.01102,0 0.104731,0.0331 0.567751,0.20119 0.824066,0.36656 0.165365,0.10473 0.474045,0.37758 0.322461,0.28388 0.421679,0.42168 0.214974,0.2949 0.214974,0.62563 z m -0.16812,-0.27285 q -0.03307,-0.10749 -0.135048,-0.30868 -0.07166,-0.0937 -0.209462,-0.19844 -0.118511,-0.0854 -0.234266,-0.17088 0.245291,0.3638 0.578776,0.678 z m -0.573264,-0.52366 -0.358289,-0.44648 v 0.41065 z m 0.636653,0.75792 q 0,-0.0524 -0.341753,-0.39412 l 0.228754,0.7028 h 0.04961 q 0.06339,-0.21773 0.06339,-0.30868 z m -0.23151,0.27285 -0.316948,-0.90399 -0.410655,-0.0634 -0.159853,0.61461 z m 0.0028,0.15434 -0.771701,-0.3197 h -0.03032 l 0.344509,0.60634 q 0.07993,-0.003 0.234266,-0.0469 0.02481,-0.0138 0.223242,-0.23978 z m -0.857139,-1.05006 -0.719335,0.28388 0.60358,0.22599 z m 0,-0.16261 v -0.51538 l -0.917773,-0.38034 h -1.223697 l -0.917772,0.38034 v 0.51538 l 0.89848,0.4079 h 1.254014 z m 0.573264,1.53789 q -0.0689,0.011 -0.198438,0.0524 -0.08544,0.0551 -0.259071,0.16261 0.01929,0 0.06339,0.003 0.04134,0 0.06339,0 0.118511,0 0.190169,-0.0689 0.07166,-0.0717 0.14056,-0.14883 z m -0.289388,0.003 -0.347266,-0.63114 -0.363801,0.87918 q 0.0248,-0.0165 0.06615,-0.0165 0.03032,0 0.08544,0.011 0.05788,0.008 0.08819,0.008 0.04961,0 0.228754,-0.10749 0.228754,-0.1378 0.242535,-0.14331 z m -0.440972,-0.74139 -0.683507,-0.2756 -0.592556,0.54845 0.903993,0.65595 z m -0.854383,-0.28387 h -1.036284 l 0.523654,0.47404 z m 0.749652,1.36701 q -0.228754,-0.0303 -0.228754,-0.0303 -0.03583,0 -0.272851,0.0937 l 0.190169,0.0193 q 0.01102,0 0.311436,-0.0827 z m -0.388606,-0.0882 -0.843359,-0.61185 v 0.67524 l 0.471289,0.0827 z m 0.854383,0.0496 q -0.09922,0.006 -0.2949,0.0386 -0.01102,0.003 -0.377583,0.17639 -0.129535,0.34726 -0.380338,1.0418 z m -2.543857,-1.39733 -0.719335,-0.28388 0.124023,0.51814 z m -0.802018,-0.45476 v -0.41065 l -0.366557,0.44648 z m 1.515841,1.07212 -0.592556,-0.54019 -0.683506,0.2756 0.380338,0.9288 z m 0.369314,0.94257 q -0.03307,-0.003 -0.135047,-0.0248 -0.08544,-0.0165 -0.137804,-0.0165 -0.05237,0 -0.137804,0.0165 -0.101975,0.0221 -0.135047,0.0248 0.264583,0.0469 0.272851,0.0469 0.0083,0 0.272851,-0.0469 z m -0.30868,-0.1378 v -0.68626 l -0.843359,0.61185 0.37207,0.14607 z m 0.950846,0.20671 -0.396875,-0.0551 -0.479557,0.14056 v 1.27607 z m -2.888366,-2.20211 q -0.118512,0.0854 -0.234267,0.17364 -0.146072,0.10748 -0.209461,0.19568 -0.0441,0.10473 -0.135048,0.31419 0.369314,-0.3638 0.578776,-0.68351 z m 0.476801,0.83234 -0.159853,-0.61461 -0.410655,0.0634 -0.316948,0.90399 z m 0.394118,1.08313 -0.363802,-0.87918 -0.355533,0.63114 q 0.43546,0.2508 0.451996,0.2508 0.09095,0 0.267339,-0.003 z m 1.821765,0.82958 q -0.132291,0.21222 -0.405143,0.6339 -0.07717,0.10749 -0.220486,0.32797 -0.05788,0.10473 -0.05512,0.226 0.159852,-0.15158 0.432704,-0.49609 0.07717,-0.12954 0.140559,-0.339 0.05512,-0.17639 0.107486,-0.35278 z m -1.493792,-0.66146 -0.270095,-0.0882 -0.0083,-0.011 q -0.02481,0 -0.107487,0.011 -0.06615,0.006 -0.107487,0.006 0.272851,0.091 0.311436,0.091 0.02481,0 0.181901,-0.008 z m -0.810286,-1.06384 h -0.03032 l -0.7717,0.3197 q 0.06615,0.0965 0.223242,0.23978 0.07717,0.0138 0.234266,0.0469 z m -0.689018,-0.50161 q -0.341754,0.34727 -0.341754,0.39412 0,0.0799 0.06339,0.30868 h 0.04961 z m 2.235176,3.04547 v -1.27607 l -0.479557,-0.14056 -0.396875,0.0551 z m -1.606791,-1.6757 q -0.256315,-0.1819 -0.457509,-0.22324 0.06615,0.0772 0.20395,0.22324 z m 1.609547,2.04501 v -0.1378 l -0.683507,-1.05007 q 0.05237,0.17639 0.107487,0.35278 0.06339,0.20946 0.14056,0.339 0.0689,0.11851 0.20395,0.25907 0.115755,0.11851 0.23151,0.23702 z m -0.644921,-0.70555 q -0.115756,-0.32798 -0.380339,-1.0418 -0.135047,-0.0662 -0.272851,-0.12954 -0.159852,-0.0716 -0.289388,-0.0716 -0.05237,0 -0.110243,-0.0138 z" style="stroke-width:0;fill:#0000ff;stroke:#2e2114;stroke-linecap:square;stroke-opacity:1" />
        <path id="in_art" d="M 0.38,57.60 L 0.38,22.00 A 4 4 0 0 1 4.38 18 L 15.94,18.00 A 4 4 0 0 1 19.94 22 L 19.94,18.00 L 19.94,57.60 z" style="fill:url(#gradient_in);fill-opacity:1;stroke-width:0;" />
        <path id="trig_art" d="M 0.38,108.50 L 0.38,102.50 A 4 4 0 0 1 4.38 98.5 L 15.94,98.50 A 4 4 0 0 1 19.94 102.5 L 19.94,98.50 L 19.94,108.50 z" style="fill:url(#gradient_trigger);fill-opacity:1;stroke-width:0;" />
        <path id="port_label_x" d="M5.01439 31.1119Q5.03203 31.1366 5.03203 31.1542Q5.03203 31.186 5.01086 31.2054Q4.98969 31.2248 4.95794 31.2248Q4.91914 31.2248 4.9015 31.1966L4.09364 30.0959L3.28931 31.1966Q3.27167 31.2248 3.23639 31.2248Q3.20464 31.2248 3.187 31.2054Q3.16936 31.186 3.16936 31.1648Q3.16936 31.1472 3.187 31.119L4.01603 29.9865L3.17994 28.8471Q3.16583 28.8294 3.16583 28.8047Q3.16583 28.773 3.187 28.7536Q3.20817 28.7342 3.23639 28.7342Q3.27872 28.7342 3.29636 28.7624L4.10422 29.8666L4.90856 28.7589Q4.92972 28.7307 4.96147 28.7307Q4.99322 28.7307 5.01262 28.7465Q5.03203 28.7624 5.03203 28.7871Q5.03203 28.8118 5.01439 28.8365L4.18536 29.9795Z" style="stroke:#000000;stroke-width:0.25;stroke-linecap:round;stroke-linejoin:bevel" />
        <path id="port_label_y" d="M4.90503 38.8435 4.10069 39.9372V41.1437Q4.10069 41.1719 4.07953 41.193Q4.05836 41.2142 4.02661 41.2142Q3.99486 41.2142 3.97369 41.193Q3.95253 41.1719 3.95253 41.1437V39.9513L3.14467 38.8435Q3.13056 38.8259 3.13056 38.7977Q3.13056 38.773 3.15349 38.7518Q3.17642 38.7307 3.20464 38.7307Q3.24344 38.7307 3.26461 38.7624L4.02661 39.8031L4.78861 38.7624Q4.80978 38.7307 4.84858 38.7307Q4.88033 38.7307 4.89974 38.7536Q4.91914 38.7765 4.91914 38.7977Q4.91914 38.8153 4.90503 38.8435Z" style="stroke:#000000;stroke-width:0.25;stroke-linecap:round;stroke-linejoin:bevel" />
        <path id="port_label_z" d="M5.14844 51.1472Q5.14844 51.1754 5.12728 51.1948Q5.10611 51.2142 5.07789 51.2142H3.34222Q3.31047 51.2142 3.29107 51.1913Q3.27167 51.1683 3.27167 51.1401Q3.27167 51.1154 3.28578 51.0978L4.95089 48.8788H3.41278Q3.38456 48.8788 3.36339 48.8594Q3.34222 48.84 3.34222 48.8118Q3.34222 48.7836 3.36339 48.7642Q3.38456 48.7448 3.41278 48.7448H5.07083Q5.11317 48.7448 5.13257 48.7659Q5.15197 48.7871 5.15197 48.8153Q5.15197 48.84 5.13786 48.8577L3.47628 51.0802H5.07789Q5.10611 51.0802 5.12728 51.1013Q5.14844 51.1225 5.14844 51.1472Z" style="stroke:#000000;stroke-width:0.25;stroke-linecap:round;stroke-linejoin:bevel" />
        <path id="port_label_p" d="M4.99675 59.4186Q4.99675 59.6161 4.91385 59.7766Q4.83094 59.9372 4.67925 60.0271Q4.52756 60.1171 4.33 60.1171H3.56094V61.1437Q3.56094 61.1719 3.53801 61.193Q3.51508 61.2142 3.48686 61.2142Q3.45511 61.2142 3.43394 61.193Q3.41278 61.1719 3.41278 61.1437V58.8153Q3.41278 58.7871 3.43394 58.7659Q3.45511 58.7448 3.48333 58.7448H4.33Q4.62986 58.7448 4.81331 58.9317Q4.99675 59.1187 4.99675 59.4186ZM4.84858 59.4186Q4.84858 59.1752 4.70924 59.0305Q4.56989 58.8859 4.33 58.8859H3.56094V59.976H4.33Q4.56636 59.976 4.70747 59.819Q4.84858 59.662 4.84858 59.4186Z" style="stroke:#000000;stroke-width:0.25;stroke-linecap:round;stroke-linejoin:bevel" />
        <path id="inout_label" d="M7.84754 23.2841Q7.50535 23.2841 7.23724 23.1236Q6.96913 22.9631 6.81919 22.6738Q6.66926 22.3845 6.66926 22.0141Q6.66926 21.6437 6.81919 21.3544Q6.96913 21.0651 7.23724 20.9046Q7.50535 20.7441 7.84754 20.7441Q8.18974 20.7441 8.45785 20.9046Q8.72596 21.0651 8.87589 21.3544Q9.02582 21.6437 9.02582 22.0141Q9.02582 22.3845 8.87589 22.6738Q8.72596 22.9631 8.45785 23.1236Q8.18974 23.2841 7.84754 23.2841ZM7.84754 20.8852Q7.54768 20.8852 7.31308 21.0263Q7.07849 21.1674 6.94796 21.425Q6.81743 21.6825 6.81743 22.0141Q6.81743 22.3457 6.94796 22.6032Q7.07849 22.8608 7.31308 23.0019Q7.54768 23.143 7.84754 23.143Q8.1474 23.143 8.382 23.0019Q8.6166 22.8608 8.74713 22.6032Q8.87765 22.3457 8.87765 22.0141Q8.87765 21.6825 8.74713 21.425Q8.6166 21.1674 8.382 21.0263Q8.1474 20.8852 7.84754 20.8852ZM11.3718 20.8499V22.3739Q11.3718 22.6209 11.2483 22.829Q11.1248 23.0372 10.9167 23.1606Q10.7086 23.2841 10.4652 23.2841Q10.2182 23.2841 10.0101 23.1606Q9.80193 23.0372 9.67846 22.829Q9.55499 22.6209 9.55499 22.3739V20.8499Q9.55499 20.8182 9.57615 20.7988Q9.59732 20.7794 9.62907 20.7794Q9.66082 20.7794 9.68199 20.8006Q9.70315 20.8217 9.70315 20.8499V22.3739Q9.70315 22.5821 9.80546 22.7585Q9.90776 22.9349 10.0824 23.0389Q10.257 23.143 10.4652 23.143Q10.6733 23.143 10.8479 23.0389Q11.0225 22.9349 11.1266 22.7585Q11.2307 22.5821 11.2307 22.3739V20.8499Q11.2307 20.8217 11.2501 20.8006Q11.2695 20.7794 11.3012 20.7794Q11.333 20.7794 11.3524 20.8006Q11.3718 20.8217 11.3718 20.8499ZM13.7037 20.8464Q13.7037 20.8782 13.6843 20.8958Q13.6648 20.9134 13.6331 20.9134H12.8464V23.1783Q12.8464 23.2065 12.8252 23.2277Q12.8041 23.2488 12.7758 23.2488Q12.7441 23.2488 12.7247 23.2277Q12.7053 23.2065 12.7053 23.1783V20.9134H11.9186Q11.8904 20.9134 11.8692 20.894Q11.848 20.8746 11.848 20.8464Q11.848 20.8182 11.8692 20.7988Q11.8904 20.7794 11.9186 20.7794H13.6331Q13.6613 20.7794 13.6825 20.7988Q13.7037 20.8182 13.7037 20.8464Z" style="stroke:#000000;stroke-width:0.25;stroke-linecap:round;stroke-linejoin:bevel" />
        <path id="trigger_label" d="M7.07192 101.406Q7.07192 101.434 7.05781 101.452Q7.03664 101.48 7.00489 101.48Q6.99078 101.48 6.96256 101.466Q6.63447 101.244 6.26758 101.244Q5.97125 101.244 5.72254 101.39Q5.47383 101.536 5.32919 101.796Q5.18456 102.055 5.18456 102.379Q5.18456 102.704 5.32919 102.963Q5.47383 103.223 5.72254 103.369Q5.97125 103.515 6.26758 103.515Q6.638 103.515 6.95903 103.297Q6.97667 103.283 7.00136 103.283Q7.03664 103.283 7.05781 103.311Q7.07192 103.328 7.07192 103.353Q7.07192 103.388 7.04369 103.41Q6.90611 103.508 6.68915 103.579Q6.47219 103.649 6.26758 103.649Q5.93244 103.649 5.65022 103.484Q5.368 103.318 5.20219 103.027Q5.03639 102.736 5.03639 102.379Q5.03639 102.023 5.20219 101.732Q5.368 101.441 5.65022 101.275Q5.93244 101.109 6.26758 101.109Q6.47925 101.109 6.67857 101.173Q6.87789 101.236 7.04017 101.349Q7.07192 101.374 7.07192 101.406ZM8.98397 103.544Q8.98397 103.575 8.96281 103.595Q8.94164 103.614 8.91342 103.614H7.61872Q7.58697 103.614 7.56757 103.593Q7.54817 103.572 7.54817 103.544V101.215Q7.54817 101.187 7.56933 101.166Q7.5905 101.145 7.62225 101.145Q7.654 101.145 7.67517 101.166Q7.69633 101.187 7.69633 101.215V103.473H8.91342Q8.94164 103.473 8.96281 103.494Q8.98397 103.515 8.98397 103.544ZM10.8607 103.544Q10.8607 103.575 10.8396 103.595Q10.8184 103.614 10.7902 103.614H9.46022Q9.432 103.614 9.41083 103.593Q9.38967 103.572 9.38967 103.544V101.215Q9.38967 101.187 9.41083 101.166Q9.432 101.145 9.46022 101.145H10.7902Q10.8184 101.145 10.8396 101.166Q10.8607 101.187 10.8607 101.215Q10.8607 101.247 10.8396 101.266Q10.8184 101.286 10.7902 101.286H9.53783V102.27H10.6314Q10.6597 102.27 10.6808 102.291Q10.702 102.312 10.702 102.341Q10.702 102.372 10.6808 102.392Q10.6597 102.411 10.6314 102.411H9.53783V103.473H10.7902Q10.8184 103.473 10.8396 103.494Q10.8607 103.515 10.8607 103.544ZM13.2032 103.547Q13.2032 103.579 13.182 103.597Q13.1609 103.614 13.1291 103.614Q13.1044 103.614 13.085 103.602Q13.0656 103.59 13.0586 103.568L12.7622 102.842L12.7657 102.849H11.5839L11.2982 103.568Q11.2806 103.614 11.2347 103.614Q11.2029 103.614 11.1835 103.597Q11.1641 103.579 11.1606 103.554Q11.1571 103.54 11.1641 103.519L12.1131 101.184Q12.1237 101.155 12.1396 101.147Q12.1554 101.138 12.1801 101.138Q12.2331 101.138 12.2507 101.184L13.1997 103.519Q13.2032 103.53 13.2032 103.547ZM11.6404 102.708H12.7093L12.1696 101.378ZM15.4751 103.54Q15.4751 103.572 15.4557 103.591Q15.4363 103.611 15.4081 103.611Q15.3869 103.611 15.3763 103.604Q15.2811 103.551 15.2246 103.425Q15.1682 103.3 15.1682 103.014Q15.1682 102.725 15.0129 102.618Q14.8577 102.51 14.6531 102.51H13.8276V103.544Q13.8276 103.572 13.8064 103.593Q13.7853 103.614 13.7535 103.614Q13.7218 103.614 13.7006 103.593Q13.6794 103.572 13.6794 103.544V101.215Q13.6794 101.187 13.7006 101.166Q13.7218 101.145 13.75 101.145H14.6813Q14.8859 101.145 15.0447 101.228Q15.2034 101.311 15.2916 101.455Q15.3798 101.6 15.3798 101.783Q15.3798 102.02 15.2546 102.189Q15.1294 102.358 14.9283 102.418Q15.0976 102.471 15.207 102.628Q15.3163 102.785 15.3163 103.014Q15.3163 103.251 15.3463 103.344Q15.3763 103.438 15.4363 103.477Q15.4751 103.501 15.4751 103.54ZM14.699 102.369Q14.9212 102.348 15.0764 102.193Q15.2317 102.037 15.2317 101.787Q15.2317 101.568 15.0764 101.427Q14.9212 101.286 14.6637 101.286H13.8276V102.369Z" style="stroke:#000000;stroke-width:0.25;stroke-linecap:round;stroke-linejoin:bevel" />
        <g id="ControlLayer" style="display:none;">
            <circle id="x_output" cx="10.16" cy="30" r="1" />
            <circle id="y_output" cx="10.16" cy="40" r="1" />
            <circle id="z_output" cx="10.16" cy="50" r="1" />
            <circle id="p_output" cx="10.16" cy="60" r="1" />
            <circle id="clear_trigger_output" cx="10.16" cy="110" r="1" />
        </g>
    </g>
</svg>
