<?xml version="1.0" encoding="utf-8"?>
<svg xmlns="http://www.w3.org/2000/svg" width="127.00mm" height="128.50mm" viewBox="0 0 127.00 128.50">
    <g id="PanelLayer">
        <rect id="border_rect" width="127" height="128.5" x="0" y="0" style="display:inline;fill:#4f8df2;fill-opacity:1;stroke:none;" />
        <g id="sapphire_insignia">
            <path d="m 24.497,5.400 q 0,0.34175 -0.242534,0.63114 -0.0441,0.0524 -0.20395,0.21497 -0.187413,0.19017 -0.785481,0.81304 l -1.444183,1.51309 q -0.01929,0.003 -0.0441,0.003 -0.02756,0 -0.04134,-0.003 -0.08268,-0.0827 -0.647678,-0.67524 -0.468532,-0.47404 -0.934309,-0.94809 -0.556727,-0.56775 -0.89848,-0.98116 -0.132292,-0.15985 -0.168121,-0.29766 -0.02756,-0.10197 -0.02756,-0.34175 0,-0.11024 0.07166,-0.28939 0.06614,-0.16536 0.140559,-0.26458 0.118512,-0.1571 0.42168,-0.42444 0.283875,-0.2508 0.474044,-0.37482 0.272852,-0.17915 0.818555,-0.36656 0.09646,-0.0331 0.110243,-0.0331 h 1.3615 q 0.01102,0 0.104731,0.0331 0.567751,0.20119 0.824066,0.36656 0.165365,0.10473 0.474045,0.37758 0.322461,0.28388 0.421679,0.42168 0.214974,0.2949 0.214974,0.62563 z m -0.16812,-0.27285 q -0.03307,-0.10749 -0.135048,-0.30868 -0.07166,-0.0937 -0.209462,-0.19844 -0.118511,-0.0854 -0.234266,-0.17088 0.245291,0.3638 0.578776,0.678 z m -0.573264,-0.52366 -0.358289,-0.44648 v 0.41065 z m 0.636653,0.75792 q 0,-0.0524 -0.341753,-0.39412 l 0.228754,0.7028 h 0.04961 q 0.06339,-0.21773 0.06339,-0.30868 z m -0.23151,0.27285 -0.316948,-0.90399 -0.410655,-0.0634 -0.159853,0.61461 z m 0.0028,0.15434 -0.771701,-0.3197 h -0.03032 l 0.344509,0.60634 q 0.07993,-0.003 0.234266,-0.0469 0.02481,-0.0138 0.223242,-0.23978 z m -0.857139,-1.05006 -0.719335,0.28388 0.60358,0.22599 z m 0,-0.16261 v -0.51538 l -0.917773,-0.38034 h -1.223697 l -0.917772,0.38034 v 0.51538 l 0.89848,0.4079 h 1.254014 z m 0.573264,1.53789 q -0.0689,0.011 -0.198438,0.0524 -0.08544,0.0551 -0.259071,0.16261 0.01929,0 0.06339,0.003 0.04134,0 0.06339,0 0.118511,0 0.190169,-0.0689 0.07166,-0.0717 0.14056,-0.14883 z m -0.289388,0.003 -0.347266,-0.63114 -0.363801,0.87918 q 0.0248,-0.0165 0.06615,-0.0165 0.03032,0 0.08544,0.011 0.05788,0.008 0.08819,0.008 0.04961,0 0.228754,-0.10749 0.228754,-0.1378 0.242535,-0.14331 z m -0.440972,-0.74139 -0.683507,-0.2756 -0.592556,0.54845 0.903993,0.65595 z m -0.854383,-0.28387 h -1.036284 l 0.523654,0.47404 z m 0.749652,1.36701 q -0.228754,-0.0303 -0.228754,-0.0303 -0.03583,0 -0.272851,0.0937 l 0.190169,0.0193 q 0.01102,0 0.311436,-0.0827 z m -0.388606,-0.0882 -0.843359,-0.61185 v 0.67524 l 0.471289,0.0827 z m 0.854383,0.0496 q -0.09922,0.006 -0.2949,0.0386 -0.01102,0.003 -0.377583,0.17639 -0.129535,0.34726 -0.380338,1.0418 z m -2.543857,-1.39733 -0.719335,-0.28388 0.124023,0.51814 z m -0.802018,-0.45476 v -0.41065 l -0.366557,0.44648 z m 1.515841,1.07212 -0.592556,-0.54019 -0.683506,0.2756 0.380338,0.9288 z m 0.369314,0.94257 q -0.03307,-0.003 -0.135047,-0.0248 -0.08544,-0.0165 -0.137804,-0.0165 -0.05237,0 -0.137804,0.0165 -0.101975,0.0221 -0.135047,0.0248 0.264583,0.0469 0.272851,0.0469 0.0083,0 0.272851,-0.0469 z m -0.30868,-0.1378 v -0.68626 l -0.843359,0.61185 0.37207,0.14607 z m 0.950846,0.20671 -0.396875,-0.0551 -0.479557,0.14056 v 1.27607 z m -2.888366,-2.20211 q -0.118512,0.0854 -0.234267,0.17364 -0.146072,0.10748 -0.209461,0.19568 -0.0441,0.10473 -0.135048,0.31419 0.369314,-0.3638 0.578776,-0.68351 z m 0.476801,0.83234 -0.159853,-0.61461 -0.410655,0.0634 -0.316948,0.90399 z m 0.394118,1.08313 -0.363802,-0.87918 -0.355533,0.63114 q 0.43546,0.2508 0.451996,0.2508 0.09095,0 0.267339,-0.003 z m 1.821765,0.82958 q -0.132291,0.21222 -0.405143,0.6339 -0.07717,0.10749 -0.220486,0.32797 -0.05788,0.10473 -0.05512,0.226 0.159852,-0.15158 0.432704,-0.49609 0.07717,-0.12954 0.140559,-0.339 0.05512,-0.17639 0.107486,-0.35278 z m -1.493792,-0.66146 -0.270095,-0.0882 -0.0083,-0.011 q -0.02481,0 -0.107487,0.011 -0.06615,0.006 -0.107487,0.006 0.272851,0.091 0.311436,0.091 0.02481,0 0.181901,-0.008 z m -0.810286,-1.06384 h -0.03032 l -0.7717,0.3197 q 0.06615,0.0965 0.223242,0.23978 0.07717,0.0138 0.234266,0.0469 z m -0.689018,-0.50161 q -0.341754,0.34727 -0.341754,0.39412 0,0.0799 0.06339,0.30868 h 0.04961 z m 2.235176,3.04547 v -1.27607 l -0.479557,-0.14056 -0.396875,0.0551 z m -1.606791,-1.6757 q -0.256315,-0.1819 -0.457509,-0.22324 0.06615,0.0772 0.20395,0.22324 z m 1.609547,2.04501 v -0.1378 l -0.683507,-1.05007 q 0.05237,0.17639 0.107487,0.35278 0.06339,0.20946 0.14056,0.339 0.0689,0.11851 0.20395,0.25907 0.115755,0.11851 0.23151,0.23702 z m -0.644921,-0.70555 q -0.115756,-0.32798 -0.380339,-1.0418 -0.135047,-0.0662 -0.272851,-0.12954 -0.159852,-0.0716 -0.289388,-0.0716 -0.05237,0 -0.110243,-0.0138 z" style="stroke-width:0;fill:#0000ff;stroke:#2e2114;stroke-linecap:square;stroke-opacity:1" />
            <path d="M27.8698 7.38291Q27.8698 7.32858 27.9319 7.28201Q27.9707 7.24321 28.025 7.24321Q28.1026 7.24321 28.1492 7.3053Q28.5993 7.94947 29.4065 7.94947Q29.8178 7.94947 30.1283 7.7438Q30.4387 7.53813 30.4387 7.18888Q30.4387 6.83187 30.1671 6.65336Q29.8954 6.47486 29.422 6.35844Q28.7934 6.20322 28.4325 5.94322Q28.0716 5.68323 28.0716 5.2098Q28.0716 4.75189 28.4364 4.45309Q28.8011 4.15429 29.3755 4.15429Q29.6937 4.15429 30.008 4.27846Q30.3223 4.40264 30.5784 4.67428Q30.6328 4.72085 30.6328 4.78294Q30.6328 4.85279 30.5784 4.90711Q30.5163 4.93816 30.4775 4.93816Q30.4232 4.93816 30.3844 4.89159Q29.9808 4.44921 29.3444 4.44921Q28.9331 4.44921 28.6498 4.651Q28.3665 4.85279 28.3665 5.2098Q28.3898 5.54352 28.6731 5.72591Q28.9564 5.9083 29.5074 6.048Q29.9032 6.14889 30.1632 6.26919Q30.4232 6.38949 30.5784 6.6068Q30.7336 6.82411 30.7336 7.17336Q30.7336 7.66231 30.3572 7.94559Q29.9808 8.22887 29.3755 8.22887Q28.4907 8.22887 27.9241 7.53037Q27.8698 7.445 27.8698 7.38291ZM35.0799 4.43369V7.99604Q35.0799 8.05812 35.0333 8.10469Q34.9867 8.15126 34.9246 8.15126Q34.8548 8.15126 34.8121 8.10469Q34.7694 8.05812 34.7694 7.99604V7.29754Q34.5754 7.69335 34.1718 7.96111Q33.7682 8.22887 33.2793 8.22887Q32.7671 8.22887 32.3557 7.96111Q31.9444 7.69335 31.7115 7.22381Q31.4787 6.75426 31.4787 6.17217Q31.4787 5.59785 31.7154 5.13607Q31.9521 4.67428 32.3635 4.41428Q32.7748 4.15429 33.2793 4.15429Q33.7838 4.15429 34.1873 4.41816Q34.5909 4.68204 34.7694 5.12443V4.43369Q34.7694 4.3716 34.8121 4.32503Q34.8548 4.27846 34.9246 4.27846Q34.9945 4.27846 35.0372 4.32503Q35.0799 4.3716 35.0799 4.43369ZM34.8005 6.17217Q34.8005 5.69875 34.6064 5.30293Q34.4124 4.90711 34.067 4.67816Q33.7217 4.44921 33.2948 4.44921Q32.868 4.44921 32.5226 4.6704Q32.1772 4.89159 31.9832 5.28353Q31.7892 5.67546 31.7892 6.17217Q31.7892 6.66889 31.9832 7.07246Q32.1772 7.47604 32.5187 7.70499Q32.8602 7.93395 33.2948 7.93395Q33.7217 7.93395 34.067 7.70499Q34.4124 7.47604 34.6064 7.07246Q34.8005 6.66889 34.8005 6.17217ZM39.9694 6.21098Q39.9694 6.76978 39.7327 7.22381Q39.4959 7.67783 39.0846 7.93783Q38.6733 8.19782 38.1688 8.19782Q37.7031 8.19782 37.3151 7.96499Q36.927 7.73216 36.6787 7.3053V9.54826Q36.6787 9.61035 36.636 9.65691Q36.5933 9.70348 36.5234 9.70348Q36.4613 9.70348 36.4148 9.65691Q36.3682 9.61035 36.3682 9.54826V4.38712Q36.3682 4.32503 36.4109 4.27846Q36.4536 4.2319 36.5234 4.2319Q36.5933 4.2319 36.636 4.27846Q36.6787 4.32503 36.6787 4.38712V5.10114Q36.9115 4.65876 37.2995 4.44533Q37.6876 4.2319 38.1688 4.2319Q38.681 4.2319 39.0924 4.48801Q39.5037 4.74413 39.7365 5.19428Q39.9694 5.64442 39.9694 6.21098ZM39.6589 6.21098Q39.6589 5.72979 39.461 5.34562Q39.2631 4.96144 38.9216 4.74413Q38.5801 4.52682 38.1533 4.52682Q37.7186 4.52682 37.3733 4.74025Q37.0279 4.95368 36.8378 5.33786Q36.6476 5.72203 36.6476 6.21098Q36.6476 6.69993 36.8378 7.08411Q37.0279 7.46828 37.3733 7.68559Q37.7186 7.9029 38.1533 7.9029Q38.5801 7.9029 38.9216 7.68559Q39.2631 7.46828 39.461 7.08022Q39.6589 6.69217 39.6589 6.21098ZM44.5872 6.21098Q44.5872 6.76978 44.3505 7.22381Q44.1138 7.67783 43.7025 7.93783Q43.2911 8.19782 42.7867 8.19782Q42.321 8.19782 41.9329 7.96499Q41.5449 7.73216 41.2965 7.3053V9.54826Q41.2965 9.61035 41.2538 9.65691Q41.2111 9.70348 41.1413 9.70348Q41.0792 9.70348 41.0326 9.65691Q40.9861 9.61035 40.9861 9.54826V4.38712Q40.9861 4.32503 41.0288 4.27846Q41.0714 4.2319 41.1413 4.2319Q41.2111 4.2319 41.2538 4.27846Q41.2965 4.32503 41.2965 4.38712V5.10114Q41.5294 4.65876 41.9174 4.44533Q42.3055 4.2319 42.7867 4.2319Q43.2989 4.2319 43.7102 4.48801Q44.1216 4.74413 44.3544 5.19428Q44.5872 5.64442 44.5872 6.21098ZM44.2768 6.21098Q44.2768 5.72979 44.0789 5.34562Q43.881 4.96144 43.5395 4.74413Q43.198 4.52682 42.7711 4.52682Q42.3365 4.52682 41.9911 4.74025Q41.6458 4.95368 41.4556 5.33786Q41.2655 5.72203 41.2655 6.21098Q41.2655 6.69993 41.4556 7.08411Q41.6458 7.46828 41.9911 7.68559Q42.3365 7.9029 42.7711 7.9029Q43.198 7.9029 43.5395 7.68559Q43.881 7.46828 44.0789 7.08022Q44.2768 6.69217 44.2768 6.21098ZM48.6773 5.72979V7.99604Q48.6773 8.05812 48.6308 8.10469Q48.5842 8.15126 48.5221 8.15126Q48.4523 8.15126 48.4096 8.10469Q48.3669 8.05812 48.3669 7.99604V5.72979Q48.3669 5.19427 48.103 4.86055Q47.8391 4.52682 47.2959 4.52682Q46.9621 4.52682 46.64 4.6898Q46.318 4.85279 46.1162 5.13219Q45.9144 5.41159 45.9144 5.72979V7.99604Q45.9144 8.05812 45.8678 8.10469Q45.8212 8.15126 45.7592 8.15126Q45.6893 8.15126 45.6466 8.10469Q45.6039 8.05812 45.6039 7.99604V2.56326Q45.6039 2.50117 45.6505 2.4546Q45.6971 2.40804 45.7592 2.40804Q45.829 2.40804 45.8717 2.4546Q45.9144 2.50117 45.9144 2.56326V5.01577Q46.1317 4.67428 46.5159 4.45309Q46.9 4.2319 47.2959 4.2319Q47.9633 4.2319 48.3203 4.65488Q48.6773 5.07786 48.6773 5.72979ZM50.1209 8.15126Q50.0511 8.15126 50.0084 8.10469Q49.9657 8.05812 49.9657 7.99604V4.30951Q49.9657 4.24742 50.0122 4.20085Q50.0588 4.15429 50.1209 4.15429Q50.1908 4.15429 50.2334 4.20085Q50.2761 4.24742 50.2761 4.30951V7.99604Q50.2761 8.05812 50.2296 8.10469Q50.183 8.15126 50.1209 8.15126ZM49.8493 3.37818V3.31609Q49.8493 3.20743 49.9269 3.13758Q50.0045 3.06773 50.1287 3.06773Q50.2373 3.06773 50.311 3.13758Q50.3848 3.20743 50.3848 3.31609V3.37818Q50.3848 3.48683 50.311 3.55668Q50.2373 3.62653 50.1209 3.62653Q49.9967 3.62653 49.923 3.55668Q49.8493 3.48683 49.8493 3.37818ZM53.6755 4.33279Q53.6755 4.40264 53.6367 4.44921Q53.5979 4.49578 53.5358 4.49578Q53.5125 4.49578 53.4233 4.46085Q53.334 4.42592 53.2331 4.42592Q52.9149 4.42592 52.5967 4.67816Q52.2785 4.9304 52.0767 5.31457Q51.8749 5.69875 51.8749 6.05576V7.99604Q51.8749 8.05812 51.8283 8.10469Q51.7818 8.15126 51.7197 8.15126Q51.6498 8.15126 51.6072 8.10469Q51.5645 8.05812 51.5645 7.99604V4.43369Q51.5645 4.3716 51.611 4.32503Q51.6576 4.27846 51.7197 4.27846Q51.7895 4.27846 51.8322 4.32503Q51.8749 4.3716 51.8749 4.43369V5.25636Q52.0534 4.78294 52.4298 4.47249Q52.8062 4.16205 53.3185 4.15429Q53.6755 4.15429 53.6755 4.33279ZM57.6181 7.35962Q57.6181 7.41395 57.5871 7.45276Q57.331 7.79425 56.9507 8.01156Q56.5704 8.22887 56.1358 8.22887Q55.5537 8.22887 55.1035 7.98051Q54.6534 7.73216 54.4012 7.27425Q54.1489 6.81635 54.1489 6.21098Q54.1489 5.59009 54.3934 5.12054Q54.6379 4.651 55.0414 4.40264Q55.445 4.15429 55.9029 4.15429Q56.3608 4.15429 56.7528 4.35219Q57.1447 4.5501 57.3931 4.94592Q57.6414 5.34174 57.6569 5.92382Q57.6569 5.98591 57.6104 6.03636Q57.5638 6.0868 57.5017 6.0868H54.4516V6.1877Q54.4516 6.66889 54.6456 7.06858Q54.8397 7.46828 55.22 7.70111Q55.6002 7.93395 56.1358 7.93395Q56.5083 7.93395 56.8381 7.75156Q57.168 7.56917 57.3543 7.28977Q57.4086 7.21992 57.4862 7.21992Q57.5405 7.21992 57.5793 7.26261Q57.6181 7.3053 57.6181 7.35962ZM54.4826 5.79188H57.3387V5.72203Q57.2999 5.32621 57.0865 5.04293Q56.8731 4.75965 56.5587 4.61219Q56.2444 4.46473 55.9029 4.46473Q55.6158 4.46473 55.317 4.61607Q55.0182 4.76741 54.7892 5.06622Q54.5603 5.36502 54.4826 5.79188Z" style="fill:#000000;stroke:#000000;stroke-width:0.265;stroke-linecap:square" />
            <path d="m 66.459,5.400 q 0,0.34175 -0.242534,0.63114 -0.0441,0.0524 -0.20395,0.21497 -0.187413,0.19017 -0.785481,0.81304 l -1.444183,1.51309 q -0.01929,0.003 -0.0441,0.003 -0.02756,0 -0.04134,-0.003 -0.08268,-0.0827 -0.647678,-0.67524 -0.468532,-0.47404 -0.934309,-0.94809 -0.556727,-0.56775 -0.89848,-0.98116 -0.132292,-0.15985 -0.168121,-0.29766 -0.02756,-0.10197 -0.02756,-0.34175 0,-0.11024 0.07166,-0.28939 0.06614,-0.16536 0.140559,-0.26458 0.118512,-0.1571 0.42168,-0.42444 0.283875,-0.2508 0.474044,-0.37482 0.272852,-0.17915 0.818555,-0.36656 0.09646,-0.0331 0.110243,-0.0331 h 1.3615 q 0.01102,0 0.104731,0.0331 0.567751,0.20119 0.824066,0.36656 0.165365,0.10473 0.474045,0.37758 0.322461,0.28388 0.421679,0.42168 0.214974,0.2949 0.214974,0.62563 z m -0.16812,-0.27285 q -0.03307,-0.10749 -0.135048,-0.30868 -0.07166,-0.0937 -0.209462,-0.19844 -0.118511,-0.0854 -0.234266,-0.17088 0.245291,0.3638 0.578776,0.678 z m -0.573264,-0.52366 -0.358289,-0.44648 v 0.41065 z m 0.636653,0.75792 q 0,-0.0524 -0.341753,-0.39412 l 0.228754,0.7028 h 0.04961 q 0.06339,-0.21773 0.06339,-0.30868 z m -0.23151,0.27285 -0.316948,-0.90399 -0.410655,-0.0634 -0.159853,0.61461 z m 0.0028,0.15434 -0.771701,-0.3197 h -0.03032 l 0.344509,0.60634 q 0.07993,-0.003 0.234266,-0.0469 0.02481,-0.0138 0.223242,-0.23978 z m -0.857139,-1.05006 -0.719335,0.28388 0.60358,0.22599 z m 0,-0.16261 v -0.51538 l -0.917773,-0.38034 h -1.223697 l -0.917772,0.38034 v 0.51538 l 0.89848,0.4079 h 1.254014 z m 0.573264,1.53789 q -0.0689,0.011 -0.198438,0.0524 -0.08544,0.0551 -0.259071,0.16261 0.01929,0 0.06339,0.003 0.04134,0 0.06339,0 0.118511,0 0.190169,-0.0689 0.07166,-0.0717 0.14056,-0.14883 z m -0.289388,0.003 -0.347266,-0.63114 -0.363801,0.87918 q 0.0248,-0.0165 0.06615,-0.0165 0.03032,0 0.08544,0.011 0.05788,0.008 0.08819,0.008 0.04961,0 0.228754,-0.10749 0.228754,-0.1378 0.242535,-0.14331 z m -0.440972,-0.74139 -0.683507,-0.2756 -0.592556,0.54845 0.903993,0.65595 z m -0.854383,-0.28387 h -1.036284 l 0.523654,0.47404 z m 0.749652,1.36701 q -0.228754,-0.0303 -0.228754,-0.0303 -0.03583,0 -0.272851,0.0937 l 0.190169,0.0193 q 0.01102,0 0.311436,-0.0827 z m -0.388606,-0.0882 -0.843359,-0.61185 v 0.67524 l 0.471289,0.0827 z m 0.854383,0.0496 q -0.09922,0.006 -0.2949,0.0386 -0.01102,0.003 -0.377583,0.17639 -0.129535,0.34726 -0.380338,1.0418 z m -2.543857,-1.39733 -0.719335,-0.28388 0.124023,0.51814 z m -0.802018,-0.45476 v -0.41065 l -0.366557,0.44648 z m 1.515841,1.07212 -0.592556,-0.54019 -0.683506,0.2756 0.380338,0.9288 z m 0.369314,0.94257 q -0.03307,-0.003 -0.135047,-0.0248 -0.08544,-0.0165 -0.137804,-0.0165 -0.05237,0 -0.137804,0.0165 -0.101975,0.0221 -0.135047,0.0248 0.264583,0.0469 0.272851,0.0469 0.0083,0 0.272851,-0.0469 z m -0.30868,-0.1378 v -0.68626 l -0.843359,0.61185 0.37207,0.14607 z m 0.950846,0.20671 -0.396875,-0.0551 -0.479557,0.14056 v 1.27607 z m -2.888366,-2.20211 q -0.118512,0.0854 -0.234267,0.17364 -0.146072,0.10748 -0.209461,0.19568 -0.0441,0.10473 -0.135048,0.31419 0.369314,-0.3638 0.578776,-0.68351 z m 0.476801,0.83234 -0.159853,-0.61461 -0.410655,0.0634 -0.316948,0.90399 z m 0.394118,1.08313 -0.363802,-0.87918 -0.355533,0.63114 q 0.43546,0.2508 0.451996,0.2508 0.09095,0 0.267339,-0.003 z m 1.821765,0.82958 q -0.132291,0.21222 -0.405143,0.6339 -0.07717,0.10749 -0.220486,0.32797 -0.05788,0.10473 -0.05512,0.226 0.159852,-0.15158 0.432704,-0.49609 0.07717,-0.12954 0.140559,-0.339 0.05512,-0.17639 0.107486,-0.35278 z m -1.493792,-0.66146 -0.270095,-0.0882 -0.0083,-0.011 q -0.02481,0 -0.107487,0.011 -0.06615,0.006 -0.107487,0.006 0.272851,0.091 0.311436,0.091 0.02481,0 0.181901,-0.008 z m -0.810286,-1.06384 h -0.03032 l -0.7717,0.3197 q 0.06615,0.0965 0.223242,0.23978 0.07717,0.0138 0.234266,0.0469 z m -0.689018,-0.50161 q -0.341754,0.34727 -0.341754,0.39412 0,0.0799 0.06339,0.30868 h 0.04961 z m 2.235176,3.04547 v -1.27607 l -0.479557,-0.14056 -0.396875,0.0551 z m -1.606791,-1.6757 q -0.256315,-0.1819 -0.457509,-0.22324 0.06615,0.0772 0.20395,0.22324 z m 1.609547,2.04501 v -0.1378 l -0.683507,-1.05007 q 0.05237,0.17639 0.107487,0.35278 0.06339,0.20946 0.14056,0.339 0.0689,0.11851 0.20395,0.25907 0.115755,0.11851 0.23151,0.23702 z m -0.644921,-0.70555 q -0.115756,-0.32798 -0.380339,-1.0418 -0.135047,-0.0662 -0.272851,-0.12954 -0.159852,-0.0716 -0.289388,-0.0716 -0.05237,0 -0.110243,-0.0138 z" style="stroke-width:0;fill:#0000ff;stroke:#2e2114;stroke-linecap:square;stroke-opacity:1" />
            <path d="M71.6947 4.39488Q71.6947 4.45697 71.652 4.49966Q71.6093 4.54234 71.5472 4.54234H70.6935V7.3053Q70.6935 7.64679 70.8138 7.75932Q70.9341 7.87186 71.1204 7.87186Q71.1514 7.87186 71.2096 7.85634Q71.2678 7.84081 71.3066 7.84081Q71.3609 7.84081 71.3998 7.8835Q71.4386 7.92619 71.4386 7.98051Q71.4386 8.05036 71.3454 8.10081Q71.2523 8.15126 71.1281 8.15126Q70.9341 8.15126 70.8021 8.12409Q70.6702 8.09693 70.5266 7.91454Q70.383 7.73216 70.383 7.32082V4.54234H69.7466Q69.6923 4.54234 69.6457 4.49578Q69.5992 4.44921 69.5992 4.39488Q69.5992 4.33279 69.6419 4.29011Q69.6845 4.24742 69.7466 4.24742H70.383V3.26176Q70.383 3.19967 70.4296 3.1531Q70.4762 3.10654 70.5383 3.10654Q70.6081 3.10654 70.6508 3.1531Q70.6935 3.19967 70.6935 3.26176V4.24742H71.5472Q71.6015 4.24742 71.6481 4.29399Q71.6947 4.34055 71.6947 4.39488ZM74.6672 4.33279Q74.6672 4.40264 74.6284 4.44921Q74.5896 4.49578 74.5275 4.49578Q74.5042 4.49578 74.4149 4.46085Q74.3257 4.42592 74.2248 4.42592Q73.9066 4.42592 73.5884 4.67816Q73.2702 4.9304 73.0684 5.31457Q72.8666 5.69875 72.8666 6.05576V7.99604Q72.8666 8.05812 72.82 8.10469Q72.7735 8.15126 72.7114 8.15126Q72.6415 8.15126 72.5988 8.10469Q72.5562 8.05812 72.5562 7.99604V4.43369Q72.5562 4.3716 72.6027 4.32503Q72.6493 4.27846 72.7114 4.27846Q72.7812 4.27846 72.8239 4.32503Q72.8666 4.3716 72.8666 4.43369V5.25636Q73.0451 4.78294 73.4215 4.47249Q73.7979 4.16205 74.3102 4.15429Q74.6672 4.15429 74.6672 4.33279ZM75.5675 8.15126Q75.4976 8.15126 75.4549 8.10469Q75.4122 8.05812 75.4122 7.99604V4.30951Q75.4122 4.24742 75.4588 4.20085Q75.5054 4.15429 75.5675 4.15429Q75.6373 4.15429 75.68 4.20085Q75.7227 4.24742 75.7227 4.30951V7.99604Q75.7227 8.05812 75.6761 8.10469Q75.6296 8.15126 75.5675 8.15126ZM75.2958 3.37818V3.31609Q75.2958 3.20743 75.3734 3.13758Q75.4511 3.06773 75.5752 3.06773Q75.6839 3.06773 75.7576 3.13758Q75.8313 3.20743 75.8313 3.31609V3.37818Q75.8313 3.48683 75.7576 3.55668Q75.6839 3.62653 75.5675 3.62653Q75.4433 3.62653 75.3696 3.55668Q75.2958 3.48683 75.2958 3.37818ZM80.0379 4.70533Q80.0379 4.76741 79.9952 4.81398Q79.9525 4.86055 79.8904 4.86055Q79.8206 4.86055 79.7856 4.83726Q79.7507 4.81398 79.6886 4.75189Q79.5877 4.63547 79.4791 4.58115Q79.1997 4.44921 78.6874 4.44921Q78.2451 4.44921 77.8686 4.68204Q77.4922 4.91488 77.271 5.31457Q77.0498 5.71427 77.0498 6.1877Q77.0498 6.68441 77.2555 7.08411Q77.4612 7.4838 77.8376 7.70887Q78.214 7.93395 78.6874 7.93395Q78.9979 7.93395 79.1764 7.87962Q79.3549 7.82529 79.5334 7.7244Q79.6576 7.64679 79.7507 7.55365Q79.7895 7.51485 79.8283 7.48768Q79.8671 7.46052 79.9059 7.46052Q79.968 7.46052 80.0029 7.49932Q80.0379 7.53813 80.0379 7.60022Q80.0379 7.70887 79.8594 7.86022Q79.6809 8.01156 79.3665 8.12021Q79.0522 8.22887 78.6642 8.22887Q78.1054 8.22887 77.6669 7.96499Q77.2283 7.70111 76.9839 7.23545Q76.7394 6.76978 76.7394 6.1877Q76.7394 5.64442 76.9839 5.17875Q77.2283 4.71309 77.6746 4.43369Q78.1209 4.15429 78.6952 4.15429Q79.0289 4.15429 79.3432 4.2319Q79.6576 4.30951 79.8477 4.43757Q80.0379 4.56562 80.0379 4.70533ZM82.6378 8.22887Q82.1023 8.22887 81.6638 7.96111Q81.2253 7.69335 80.9731 7.22769Q80.7208 6.76202 80.7208 6.19546Q80.7208 5.62114 80.9731 5.15547Q81.2253 4.6898 81.6599 4.42204Q82.0946 4.15429 82.6378 4.15429Q83.1734 4.15429 83.6119 4.42204Q84.0504 4.6898 84.2987 5.15547Q84.5471 5.62114 84.5471 6.19546Q84.5471 6.76978 84.2987 7.23157Q84.0504 7.69335 83.6119 7.96111Q83.1734 8.22887 82.6378 8.22887ZM82.6378 4.44921Q82.1877 4.44921 81.819 4.67816Q81.4504 4.90711 81.2408 5.30293Q81.0313 5.69875 81.0313 6.19546Q81.0313 6.68441 81.2408 7.08022Q81.4504 7.47604 81.819 7.70499Q82.1877 7.93395 82.6378 7.93395Q83.0957 7.93395 83.4605 7.70887Q83.8253 7.4838 84.031 7.08411Q84.2366 6.68441 84.2366 6.19546Q84.2366 5.69875 84.031 5.30293Q83.8253 4.90711 83.4605 4.67816Q83.0957 4.44921 82.6378 4.44921ZM87.6748 4.33279Q87.6748 4.40264 87.636 4.44921Q87.5972 4.49578 87.5351 4.49578Q87.5118 4.49578 87.4226 4.46085Q87.3333 4.42592 87.2324 4.42592Q86.9142 4.42592 86.596 4.67816Q86.2778 4.9304 86.076 5.31457Q85.8742 5.69875 85.8742 6.05576V7.99604Q85.8742 8.05812 85.8277 8.10469Q85.7811 8.15126 85.719 8.15126Q85.6492 8.15126 85.6065 8.10469Q85.5638 8.05812 85.5638 7.99604V4.43369Q85.5638 4.3716 85.6103 4.32503Q85.6569 4.27846 85.719 4.27846Q85.7889 4.27846 85.8315 4.32503Q85.8742 4.3716 85.8742 4.43369V5.25636Q86.0527 4.78294 86.4291 4.47249Q86.8056 4.16205 87.3178 4.15429Q87.6748 4.15429 87.6748 4.33279ZM91.7494 2.56326V7.99604Q91.7494 8.05812 91.7028 8.10469Q91.6563 8.15126 91.5942 8.15126Q91.5243 8.15126 91.4816 8.10469Q91.4389 8.05812 91.4389 7.99604V7.25873Q91.2527 7.67007 90.8491 7.94947Q90.4455 8.22887 89.9488 8.22887Q89.4443 8.22887 89.033 7.96111Q88.6217 7.69335 88.3849 7.22769Q88.1482 6.76202 88.1482 6.1877Q88.1482 5.61337 88.3849 5.14771Q88.6217 4.68204 89.033 4.41816Q89.4443 4.15429 89.9488 4.15429Q90.43 4.15429 90.8413 4.42592Q91.2527 4.69756 91.4389 5.13219V2.56326Q91.4389 2.50117 91.4816 2.4546Q91.5243 2.40804 91.5942 2.40804Q91.664 2.40804 91.7067 2.4546Q91.7494 2.50117 91.7494 2.56326ZM91.47 6.1877Q91.47 5.69099 91.276 5.29517Q91.0819 4.89935 90.7366 4.67428Q90.3912 4.44921 89.9643 4.44921Q89.5452 4.44921 89.1999 4.67428Q88.8545 4.89935 88.6566 5.29905Q88.4587 5.69875 88.4587 6.1877Q88.4587 6.68441 88.6566 7.08022Q88.8545 7.47604 89.196 7.70499Q89.5375 7.93395 89.9643 7.93395Q90.399 7.93395 90.7404 7.70887Q91.0819 7.4838 91.276 7.08411Q91.47 6.68441 91.47 6.1877ZM96.2353 7.35962Q96.2353 7.41395 96.2043 7.45276Q95.9481 7.79425 95.5679 8.01156Q95.1876 8.22887 94.7529 8.22887Q94.1709 8.22887 93.7207 7.98051Q93.2706 7.73216 93.0183 7.27425Q92.7661 6.81635 92.7661 6.21098Q92.7661 5.59009 93.0106 5.12054Q93.255 4.651 93.6586 4.40264Q94.0622 4.15429 94.5201 4.15429Q94.978 4.15429 95.3699 4.35219Q95.7619 4.5501 96.0102 4.94592Q96.2586 5.34174 96.2741 5.92382Q96.2741 5.98591 96.2275 6.03636Q96.181 6.0868 96.1189 6.0868H93.0688V6.1877Q93.0688 6.66889 93.2628 7.06858Q93.4568 7.46828 93.8371 7.70111Q94.2174 7.93395 94.7529 7.93395Q95.1255 7.93395 95.4553 7.75156Q95.7852 7.56917 95.9714 7.28977Q96.0258 7.21992 96.1034 7.21992Q96.1577 7.21992 96.1965 7.26261Q96.2353 7.3053 96.2353 7.35962ZM93.0998 5.79188H95.9559V5.72203Q95.9171 5.32621 95.7037 5.04293Q95.4902 4.75965 95.1759 4.61219Q94.8616 4.46473 94.5201 4.46473Q94.2329 4.46473 93.9341 4.61607Q93.6353 4.76741 93.4064 5.06622Q93.1774 5.36502 93.0998 5.79188ZM99.4018 4.33279Q99.4018 4.40264 99.363 4.44921Q99.3242 4.49578 99.2621 4.49578Q99.2389 4.49578 99.1496 4.46085Q99.0604 4.42592 98.9595 4.42592Q98.6413 4.42592 98.323 4.67816Q98.0048 4.9304 97.8031 5.31457Q97.6013 5.69875 97.6013 6.05576V7.99604Q97.6013 8.05812 97.5547 8.10469Q97.5081 8.15126 97.446 8.15126Q97.3762 8.15126 97.3335 8.10469Q97.2908 8.05812 97.2908 7.99604V4.43369Q97.2908 4.3716 97.3374 4.32503Q97.384 4.27846 97.446 4.27846Q97.5159 4.27846 97.5586 4.32503Q97.6013 4.3716 97.6013 4.43369V5.25636Q97.7798 4.78294 98.1562 4.47249Q98.5326 4.16205 99.0448 4.15429Q99.4018 4.15429 99.4018 4.33279Z" style="display:inline;stroke:#000000;stroke-width:0.35;stroke-linecap:round;stroke-linejoin:bevel" />
            <path d="m 107.933,5.400 q 0,0.34175 -0.242534,0.63114 -0.0441,0.0524 -0.20395,0.21497 -0.187413,0.19017 -0.785481,0.81304 l -1.444183,1.51309 q -0.01929,0.003 -0.0441,0.003 -0.02756,0 -0.04134,-0.003 -0.08268,-0.0827 -0.647678,-0.67524 -0.468532,-0.47404 -0.934309,-0.94809 -0.556727,-0.56775 -0.89848,-0.98116 -0.132292,-0.15985 -0.168121,-0.29766 -0.02756,-0.10197 -0.02756,-0.34175 0,-0.11024 0.07166,-0.28939 0.06614,-0.16536 0.140559,-0.26458 0.118512,-0.1571 0.42168,-0.42444 0.283875,-0.2508 0.474044,-0.37482 0.272852,-0.17915 0.818555,-0.36656 0.09646,-0.0331 0.110243,-0.0331 h 1.3615 q 0.01102,0 0.104731,0.0331 0.567751,0.20119 0.824066,0.36656 0.165365,0.10473 0.474045,0.37758 0.322461,0.28388 0.421679,0.42168 0.214974,0.2949 0.214974,0.62563 z m -0.16812,-0.27285 q -0.03307,-0.10749 -0.135048,-0.30868 -0.07166,-0.0937 -0.209462,-0.19844 -0.118511,-0.0854 -0.234266,-0.17088 0.245291,0.3638 0.578776,0.678 z m -0.573264,-0.52366 -0.358289,-0.44648 v 0.41065 z m 0.636653,0.75792 q 0,-0.0524 -0.341753,-0.39412 l 0.228754,0.7028 h 0.04961 q 0.06339,-0.21773 0.06339,-0.30868 z m -0.23151,0.27285 -0.316948,-0.90399 -0.410655,-0.0634 -0.159853,0.61461 z m 0.0028,0.15434 -0.771701,-0.3197 h -0.03032 l 0.344509,0.60634 q 0.07993,-0.003 0.234266,-0.0469 0.02481,-0.0138 0.223242,-0.23978 z m -0.857139,-1.05006 -0.719335,0.28388 0.60358,0.22599 z m 0,-0.16261 v -0.51538 l -0.917773,-0.38034 h -1.223697 l -0.917772,0.38034 v 0.51538 l 0.89848,0.4079 h 1.254014 z m 0.573264,1.53789 q -0.0689,0.011 -0.198438,0.0524 -0.08544,0.0551 -0.259071,0.16261 0.01929,0 0.06339,0.003 0.04134,0 0.06339,0 0.118511,0 0.190169,-0.0689 0.07166,-0.0717 0.14056,-0.14883 z m -0.289388,0.003 -0.347266,-0.63114 -0.363801,0.87918 q 0.0248,-0.0165 0.06615,-0.0165 0.03032,0 0.08544,0.011 0.05788,0.008 0.08819,0.008 0.04961,0 0.228754,-0.10749 0.228754,-0.1378 0.242535,-0.14331 z m -0.440972,-0.74139 -0.683507,-0.2756 -0.592556,0.54845 0.903993,0.65595 z m -0.854383,-0.28387 h -1.036284 l 0.523654,0.47404 z m 0.749652,1.36701 q -0.228754,-0.0303 -0.228754,-0.0303 -0.03583,0 -0.272851,0.0937 l 0.190169,0.0193 q 0.01102,0 0.311436,-0.0827 z m -0.388606,-0.0882 -0.843359,-0.61185 v 0.67524 l 0.471289,0.0827 z m 0.854383,0.0496 q -0.09922,0.006 -0.2949,0.0386 -0.01102,0.003 -0.377583,0.17639 -0.129535,0.34726 -0.380338,1.0418 z m -2.543857,-1.39733 -0.719335,-0.28388 0.124023,0.51814 z m -0.802018,-0.45476 v -0.41065 l -0.366557,0.44648 z m 1.515841,1.07212 -0.592556,-0.54019 -0.683506,0.2756 0.380338,0.9288 z m 0.369314,0.94257 q -0.03307,-0.003 -0.135047,-0.0248 -0.08544,-0.0165 -0.137804,-0.0165 -0.05237,0 -0.137804,0.0165 -0.101975,0.0221 -0.135047,0.0248 0.264583,0.0469 0.272851,0.0469 0.0083,0 0.272851,-0.0469 z m -0.30868,-0.1378 v -0.68626 l -0.843359,0.61185 0.37207,0.14607 z m 0.950846,0.20671 -0.396875,-0.0551 -0.479557,0.14056 v 1.27607 z m -2.888366,-2.20211 q -0.118512,0.0854 -0.234267,0.17364 -0.146072,0.10748 -0.209461,0.19568 -0.0441,0.10473 -0.135048,0.31419 0.369314,-0.3638 0.578776,-0.68351 z m 0.476801,0.83234 -0.159853,-0.61461 -0.410655,0.0634 -0.316948,0.90399 z m 0.394118,1.08313 -0.363802,-0.87918 -0.355533,0.63114 q 0.43546,0.2508 0.451996,0.2508 0.09095,0 0.267339,-0.003 z m 1.821765,0.82958 q -0.132291,0.21222 -0.405143,0.6339 -0.07717,0.10749 -0.220486,0.32797 -0.05788,0.10473 -0.05512,0.226 0.159852,-0.15158 0.432704,-0.49609 0.07717,-0.12954 0.140559,-0.339 0.05512,-0.17639 0.107486,-0.35278 z m -1.493792,-0.66146 -0.270095,-0.0882 -0.0083,-0.011 q -0.02481,0 -0.107487,0.011 -0.06615,0.006 -0.107487,0.006 0.272851,0.091 0.311436,0.091 0.02481,0 0.181901,-0.008 z m -0.810286,-1.06384 h -0.03032 l -0.7717,0.3197 q 0.06615,0.0965 0.223242,0.23978 0.07717,0.0138 0.234266,0.0469 z m -0.689018,-0.50161 q -0.341754,0.34727 -0.341754,0.39412 0,0.0799 0.06339,0.30868 h 0.04961 z m 2.235176,3.04547 v -1.27607 l -0.479557,-0.14056 -0.396875,0.0551 z m -1.606791,-1.6757 q -0.256315,-0.1819 -0.457509,-0.22324 0.06615,0.0772 0.20395,0.22324 z m 1.609547,2.04501 v -0.1378 l -0.683507,-1.05007 q 0.05237,0.17639 0.107487,0.35278 0.06339,0.20946 0.14056,0.339 0.0689,0.11851 0.20395,0.25907 0.115755,0.11851 0.23151,0.23702 z m -0.644921,-0.70555 q -0.115756,-0.32798 -0.380339,-1.0418 -0.135047,-0.0662 -0.272851,-0.12954 -0.159852,-0.0716 -0.289388,-0.0716 -0.05237,0 -0.110243,-0.0138 z" style="stroke-width:0;fill:#0000ff;stroke:#2e2114;stroke-linecap:square;stroke-opacity:1" />
        </g>
    </g>
</svg>
