<?xml version="1.0" encoding="utf-8"?>
<svg xmlns="http://www.w3.org/2000/svg" width="127.00mm" height="128.50mm" viewBox="0 0 127.00 128.50">
    <g id="PanelLayer">
        <rect id="border_rect" width="127" height="128.5" x="0" y="0" style="display:inline;fill:#4f8df2;fill-opacity:1;fill-rule:nonzero;stroke:#5021d4;stroke-width:0.7;stroke-linecap:round;stroke-linejoin:round;stroke-dasharray:none;stroke-opacity:1;image-rendering:auto" />
        <g id="sapphire_insignia">
            <path id="brand_name" d="M48.6064 124.775Q48.6064 124.721 48.6685 124.674Q48.7073 124.636 48.7617 124.636Q48.8393 124.636 48.8858 124.698Q49.336 125.342 50.1431 125.342Q50.5545 125.342 50.8649 125.136Q51.1754 124.93 51.1754 124.581Q51.1754 124.224 50.9037 124.046Q50.6321 123.867 50.1587 123.751Q49.53 123.596 49.1691 123.336Q48.8082 123.076 48.8082 122.602Q48.8082 122.144 49.173 121.845Q49.5378 121.547 50.1121 121.547Q50.4303 121.547 50.7446 121.671Q51.0589 121.795 51.3151 122.067Q51.3694 122.113 51.3694 122.175Q51.3694 122.245 51.3151 122.299Q51.253 122.331 51.2142 122.331Q51.1598 122.331 51.121 122.284Q50.7174 121.842 50.081 121.842Q49.6697 121.842 49.3864 122.043Q49.1031 122.245 49.1031 122.602Q49.1264 122.936 49.4097 123.118Q49.693 123.301 50.244 123.44Q50.6398 123.541 50.8998 123.662Q51.1598 123.782 51.3151 123.999Q51.4703 124.216 51.4703 124.566Q51.4703 125.055 51.0939 125.338Q50.7174 125.621 50.1121 125.621Q49.2273 125.621 48.6608 124.923Q48.6064 124.837 48.6064 124.775ZM55.8165 121.826V125.388Q55.8165 125.45 55.7699 125.497Q55.7234 125.544 55.6613 125.544Q55.5914 125.544 55.5487 125.497Q55.5061 125.45 55.5061 125.388V124.69Q55.312 125.086 54.9085 125.353Q54.5049 125.621 54.0159 125.621Q53.5037 125.621 53.0923 125.353Q52.681 125.086 52.4482 124.616Q52.2153 124.147 52.2153 123.565Q52.2153 122.99 52.4521 122.528Q52.6888 122.067 53.1001 121.807Q53.5114 121.547 54.0159 121.547Q54.5204 121.547 54.924 121.811Q55.3276 122.074 55.5061 122.517V121.826Q55.5061 121.764 55.5487 121.717Q55.5914 121.671 55.6613 121.671Q55.7311 121.671 55.7738 121.717Q55.8165 121.764 55.8165 121.826ZM55.5371 123.565Q55.5371 123.091 55.3431 122.695Q55.149 122.299 54.8037 122.071Q54.4583 121.842 54.0314 121.842Q53.6046 121.842 53.2592 122.063Q52.9138 122.284 52.7198 122.676Q52.5258 123.068 52.5258 123.565Q52.5258 124.061 52.7198 124.465Q52.9138 124.868 53.2553 125.097Q53.5968 125.326 54.0314 125.326Q54.4583 125.326 54.8037 125.097Q55.149 124.868 55.3431 124.465Q55.5371 124.061 55.5371 123.565ZM60.706 123.603Q60.706 124.162 60.4693 124.616Q60.2326 125.07 59.8212 125.33Q59.4099 125.59 58.9054 125.59Q58.4398 125.59 58.0517 125.357Q57.6636 125.125 57.4153 124.698V126.941Q57.4153 127.003 57.3726 127.049Q57.3299 127.096 57.2601 127.096Q57.198 127.096 57.1514 127.049Q57.1048 127.003 57.1048 126.941V121.779Q57.1048 121.717 57.1475 121.671Q57.1902 121.624 57.2601 121.624Q57.3299 121.624 57.3726 121.671Q57.4153 121.717 57.4153 121.779V122.493Q57.6481 122.051 58.0362 121.838Q58.4242 121.624 58.9054 121.624Q59.4177 121.624 59.829 121.88Q60.2403 122.136 60.4732 122.587Q60.706 123.037 60.706 123.603ZM60.3956 123.603Q60.3956 123.122 60.1976 122.738Q59.9997 122.354 59.6582 122.136Q59.3168 121.919 58.8899 121.919Q58.4553 121.919 58.1099 122.133Q57.7645 122.346 57.5744 122.73Q57.3842 123.114 57.3842 123.603Q57.3842 124.092 57.5744 124.476Q57.7645 124.861 58.1099 125.078Q58.4553 125.295 58.8899 125.295Q59.3168 125.295 59.6582 125.078Q59.9997 124.861 60.1976 124.473Q60.3956 124.085 60.3956 123.603ZM65.3239 123.603Q65.3239 124.162 65.0871 124.616Q64.8504 125.07 64.4391 125.33Q64.0278 125.59 63.5233 125.59Q63.0576 125.59 62.6696 125.357Q62.2815 125.125 62.0331 124.698V126.941Q62.0331 127.003 61.9905 127.049Q61.9478 127.096 61.8779 127.096Q61.8158 127.096 61.7693 127.049Q61.7227 127.003 61.7227 126.941V121.779Q61.7227 121.717 61.7654 121.671Q61.8081 121.624 61.8779 121.624Q61.9478 121.624 61.9905 121.671Q62.0331 121.717 62.0331 121.779V122.493Q62.266 122.051 62.654 121.838Q63.0421 121.624 63.5233 121.624Q64.0355 121.624 64.4469 121.88Q64.8582 122.136 65.091 122.587Q65.3239 123.037 65.3239 123.603ZM65.0134 123.603Q65.0134 123.122 64.8155 122.738Q64.6176 122.354 64.2761 122.136Q63.9346 121.919 63.5078 121.919Q63.0731 121.919 62.7278 122.133Q62.3824 122.346 62.1923 122.73Q62.0021 123.114 62.0021 123.603Q62.0021 124.092 62.1923 124.476Q62.3824 124.861 62.7278 125.078Q63.0731 125.295 63.5078 125.295Q63.9346 125.295 64.2761 125.078Q64.6176 124.861 64.8155 124.473Q65.0134 124.085 65.0134 123.603ZM69.414 123.122V125.388Q69.414 125.45 69.3674 125.497Q69.3208 125.544 69.2587 125.544Q69.1889 125.544 69.1462 125.497Q69.1035 125.45 69.1035 125.388V123.122Q69.1035 122.587 68.8396 122.253Q68.5758 121.919 68.0325 121.919Q67.6988 121.919 67.3767 122.082Q67.0546 122.245 66.8528 122.525Q66.651 122.804 66.651 123.122V125.388Q66.651 125.45 66.6044 125.497Q66.5579 125.544 66.4958 125.544Q66.4259 125.544 66.3833 125.497Q66.3406 125.45 66.3406 125.388V119.956Q66.3406 119.894 66.3871 119.847Q66.4337 119.8 66.4958 119.8Q66.5656 119.8 66.6083 119.847Q66.651 119.894 66.651 119.956V122.408Q66.8683 122.067 67.2525 121.845Q67.6367 121.624 68.0325 121.624Q68.6999 121.624 69.057 122.047Q69.414 122.47 69.414 123.122ZM70.8575 125.544Q70.7877 125.544 70.745 125.497Q70.7023 125.45 70.7023 125.388V121.702Q70.7023 121.64 70.7489 121.593Q70.7954 121.547 70.8575 121.547Q70.9274 121.547 70.9701 121.593Q71.0128 121.64 71.0128 121.702V125.388Q71.0128 125.45 70.9662 125.497Q70.9196 125.544 70.8575 125.544ZM70.5859 120.771V120.708Q70.5859 120.6 70.6635 120.53Q70.7411 120.46 70.8653 120.46Q70.9739 120.46 71.0477 120.53Q71.1214 120.6 71.1214 120.708V120.771Q71.1214 120.879 71.0477 120.949Q70.9739 121.019 70.8575 121.019Q70.7334 121.019 70.6596 120.949Q70.5859 120.879 70.5859 120.771ZM74.4121 121.725Q74.4121 121.795 74.3733 121.842Q74.3345 121.888 74.2724 121.888Q74.2491 121.888 74.1599 121.853Q74.0706 121.818 73.9697 121.818Q73.6515 121.818 73.3333 122.071Q73.0151 122.323 72.8133 122.707Q72.6115 123.091 72.6115 123.448V125.388Q72.6115 125.45 72.565 125.497Q72.5184 125.544 72.4563 125.544Q72.3865 125.544 72.3438 125.497Q72.3011 125.45 72.3011 125.388V121.826Q72.3011 121.764 72.3477 121.717Q72.3942 121.671 72.4563 121.671Q72.5262 121.671 72.5689 121.717Q72.6115 121.764 72.6115 121.826V122.649Q72.79 122.175 73.1665 121.865Q73.5429 121.554 74.0551 121.547Q74.4121 121.547 74.4121 121.725ZM78.3548 124.752Q78.3548 124.806 78.3237 124.845Q78.0676 125.187 77.6873 125.404Q77.307 125.621 76.8724 125.621Q76.2903 125.621 75.8402 125.373Q75.39 125.125 75.1378 124.667Q74.8855 124.209 74.8855 123.603Q74.8855 122.982 75.13 122.513Q75.3745 122.043 75.7781 121.795Q76.1817 121.547 76.6396 121.547Q77.0975 121.547 77.4894 121.745Q77.8813 121.942 78.1297 122.338Q78.378 122.734 78.3936 123.316Q78.3936 123.378 78.347 123.429Q78.3004 123.479 78.2383 123.479H75.1882V123.58Q75.1882 124.061 75.3823 124.461Q75.5763 124.861 75.9566 125.093Q76.3369 125.326 76.8724 125.326Q77.2449 125.326 77.5748 125.144Q77.9046 124.962 78.0909 124.682Q78.1452 124.612 78.2228 124.612Q78.2772 124.612 78.316 124.655Q78.3548 124.698 78.3548 124.752ZM75.2193 123.184H78.0754V123.114Q78.0366 122.719 77.8231 122.435Q77.6097 122.152 77.2954 122.005Q76.981 121.857 76.6396 121.857Q76.3524 121.857 76.0536 122.008Q75.7548 122.16 75.5258 122.459Q75.2969 122.757 75.2193 123.184Z" style="fill:#000000;stroke:#000000;stroke-width:0.265;stroke-linecap:square" />
            <g id="gemstones" style="stroke-width:0;fill:#0000ff;stroke:#2e2114;stroke-linecap:square;stroke-opacity:1">
                <path d="m 45.950,122.900 q 0,0.34175 -0.242534,0.63114 -0.0441,0.0524 -0.20395,0.21497 -0.187413,0.19017 -0.785481,0.81304 l -1.444183,1.51309 q -0.01929,0.003 -0.0441,0.003 -0.02756,0 -0.04134,-0.003 -0.08268,-0.0827 -0.647678,-0.67524 -0.468532,-0.47404 -0.934309,-0.94809 -0.556727,-0.56775 -0.89848,-0.98116 -0.132292,-0.15985 -0.168121,-0.29766 -0.02756,-0.10197 -0.02756,-0.34175 0,-0.11024 0.07166,-0.28939 0.06614,-0.16536 0.140559,-0.26458 0.118512,-0.1571 0.42168,-0.42444 0.283875,-0.2508 0.474044,-0.37482 0.272852,-0.17915 0.818555,-0.36656 0.09646,-0.0331 0.110243,-0.0331 h 1.3615 q 0.01102,0 0.104731,0.0331 0.567751,0.20119 0.824066,0.36656 0.165365,0.10473 0.474045,0.37758 0.322461,0.28388 0.421679,0.42168 0.214974,0.2949 0.214974,0.62563 z m -0.16812,-0.27285 q -0.03307,-0.10749 -0.135048,-0.30868 -0.07166,-0.0937 -0.209462,-0.19844 -0.118511,-0.0854 -0.234266,-0.17088 0.245291,0.3638 0.578776,0.678 z m -0.573264,-0.52366 -0.358289,-0.44648 v 0.41065 z m 0.636653,0.75792 q 0,-0.0524 -0.341753,-0.39412 l 0.228754,0.7028 h 0.04961 q 0.06339,-0.21773 0.06339,-0.30868 z m -0.23151,0.27285 -0.316948,-0.90399 -0.410655,-0.0634 -0.159853,0.61461 z m 0.0028,0.15434 -0.771701,-0.3197 h -0.03032 l 0.344509,0.60634 q 0.07993,-0.003 0.234266,-0.0469 0.02481,-0.0138 0.223242,-0.23978 z m -0.857139,-1.05006 -0.719335,0.28388 0.60358,0.22599 z m 0,-0.16261 v -0.51538 l -0.917773,-0.38034 h -1.223697 l -0.917772,0.38034 v 0.51538 l 0.89848,0.4079 h 1.254014 z m 0.573264,1.53789 q -0.0689,0.011 -0.198438,0.0524 -0.08544,0.0551 -0.259071,0.16261 0.01929,0 0.06339,0.003 0.04134,0 0.06339,0 0.118511,0 0.190169,-0.0689 0.07166,-0.0717 0.14056,-0.14883 z m -0.289388,0.003 -0.347266,-0.63114 -0.363801,0.87918 q 0.0248,-0.0165 0.06615,-0.0165 0.03032,0 0.08544,0.011 0.05788,0.008 0.08819,0.008 0.04961,0 0.228754,-0.10749 0.228754,-0.1378 0.242535,-0.14331 z m -0.440972,-0.74139 -0.683507,-0.2756 -0.592556,0.54845 0.903993,0.65595 z m -0.854383,-0.28387 h -1.036284 l 0.523654,0.47404 z m 0.749652,1.36701 q -0.228754,-0.0303 -0.228754,-0.0303 -0.03583,0 -0.272851,0.0937 l 0.190169,0.0193 q 0.01102,0 0.311436,-0.0827 z m -0.388606,-0.0882 -0.843359,-0.61185 v 0.67524 l 0.471289,0.0827 z m 0.854383,0.0496 q -0.09922,0.006 -0.2949,0.0386 -0.01102,0.003 -0.377583,0.17639 -0.129535,0.34726 -0.380338,1.0418 z m -2.543857,-1.39733 -0.719335,-0.28388 0.124023,0.51814 z m -0.802018,-0.45476 v -0.41065 l -0.366557,0.44648 z m 1.515841,1.07212 -0.592556,-0.54019 -0.683506,0.2756 0.380338,0.9288 z m 0.369314,0.94257 q -0.03307,-0.003 -0.135047,-0.0248 -0.08544,-0.0165 -0.137804,-0.0165 -0.05237,0 -0.137804,0.0165 -0.101975,0.0221 -0.135047,0.0248 0.264583,0.0469 0.272851,0.0469 0.0083,0 0.272851,-0.0469 z m -0.30868,-0.1378 v -0.68626 l -0.843359,0.61185 0.37207,0.14607 z m 0.950846,0.20671 -0.396875,-0.0551 -0.479557,0.14056 v 1.27607 z m -2.888366,-2.20211 q -0.118512,0.0854 -0.234267,0.17364 -0.146072,0.10748 -0.209461,0.19568 -0.0441,0.10473 -0.135048,0.31419 0.369314,-0.3638 0.578776,-0.68351 z m 0.476801,0.83234 -0.159853,-0.61461 -0.410655,0.0634 -0.316948,0.90399 z m 0.394118,1.08313 -0.363802,-0.87918 -0.355533,0.63114 q 0.43546,0.2508 0.451996,0.2508 0.09095,0 0.267339,-0.003 z m 1.821765,0.82958 q -0.132291,0.21222 -0.405143,0.6339 -0.07717,0.10749 -0.220486,0.32797 -0.05788,0.10473 -0.05512,0.226 0.159852,-0.15158 0.432704,-0.49609 0.07717,-0.12954 0.140559,-0.339 0.05512,-0.17639 0.107486,-0.35278 z m -1.493792,-0.66146 -0.270095,-0.0882 -0.0083,-0.011 q -0.02481,0 -0.107487,0.011 -0.06615,0.006 -0.107487,0.006 0.272851,0.091 0.311436,0.091 0.02481,0 0.181901,-0.008 z m -0.810286,-1.06384 h -0.03032 l -0.7717,0.3197 q 0.06615,0.0965 0.223242,0.23978 0.07717,0.0138 0.234266,0.0469 z m -0.689018,-0.50161 q -0.341754,0.34727 -0.341754,0.39412 0,0.0799 0.06339,0.30868 h 0.04961 z m 2.235176,3.04547 v -1.27607 l -0.479557,-0.14056 -0.396875,0.0551 z m -1.606791,-1.6757 q -0.256315,-0.1819 -0.457509,-0.22324 0.06615,0.0772 0.20395,0.22324 z m 1.609547,2.04501 v -0.1378 l -0.683507,-1.05007 q 0.05237,0.17639 0.107487,0.35278 0.06339,0.20946 0.14056,0.339 0.0689,0.11851 0.20395,0.25907 0.115755,0.11851 0.23151,0.23702 z m -0.644921,-0.70555 q -0.115756,-0.32798 -0.380339,-1.0418 -0.135047,-0.0662 -0.272851,-0.12954 -0.159852,-0.0716 -0.289388,-0.0716 -0.05237,0 -0.110243,-0.0138 z" />
                <path d="m 86.480,122.900 q 0,0.34175 -0.242534,0.63114 -0.0441,0.0524 -0.20395,0.21497 -0.187413,0.19017 -0.785481,0.81304 l -1.444183,1.51309 q -0.01929,0.003 -0.0441,0.003 -0.02756,0 -0.04134,-0.003 -0.08268,-0.0827 -0.647678,-0.67524 -0.468532,-0.47404 -0.934309,-0.94809 -0.556727,-0.56775 -0.89848,-0.98116 -0.132292,-0.15985 -0.168121,-0.29766 -0.02756,-0.10197 -0.02756,-0.34175 0,-0.11024 0.07166,-0.28939 0.06614,-0.16536 0.140559,-0.26458 0.118512,-0.1571 0.42168,-0.42444 0.283875,-0.2508 0.474044,-0.37482 0.272852,-0.17915 0.818555,-0.36656 0.09646,-0.0331 0.110243,-0.0331 h 1.3615 q 0.01102,0 0.104731,0.0331 0.567751,0.20119 0.824066,0.36656 0.165365,0.10473 0.474045,0.37758 0.322461,0.28388 0.421679,0.42168 0.214974,0.2949 0.214974,0.62563 z m -0.16812,-0.27285 q -0.03307,-0.10749 -0.135048,-0.30868 -0.07166,-0.0937 -0.209462,-0.19844 -0.118511,-0.0854 -0.234266,-0.17088 0.245291,0.3638 0.578776,0.678 z m -0.573264,-0.52366 -0.358289,-0.44648 v 0.41065 z m 0.636653,0.75792 q 0,-0.0524 -0.341753,-0.39412 l 0.228754,0.7028 h 0.04961 q 0.06339,-0.21773 0.06339,-0.30868 z m -0.23151,0.27285 -0.316948,-0.90399 -0.410655,-0.0634 -0.159853,0.61461 z m 0.0028,0.15434 -0.771701,-0.3197 h -0.03032 l 0.344509,0.60634 q 0.07993,-0.003 0.234266,-0.0469 0.02481,-0.0138 0.223242,-0.23978 z m -0.857139,-1.05006 -0.719335,0.28388 0.60358,0.22599 z m 0,-0.16261 v -0.51538 l -0.917773,-0.38034 h -1.223697 l -0.917772,0.38034 v 0.51538 l 0.89848,0.4079 h 1.254014 z m 0.573264,1.53789 q -0.0689,0.011 -0.198438,0.0524 -0.08544,0.0551 -0.259071,0.16261 0.01929,0 0.06339,0.003 0.04134,0 0.06339,0 0.118511,0 0.190169,-0.0689 0.07166,-0.0717 0.14056,-0.14883 z m -0.289388,0.003 -0.347266,-0.63114 -0.363801,0.87918 q 0.0248,-0.0165 0.06615,-0.0165 0.03032,0 0.08544,0.011 0.05788,0.008 0.08819,0.008 0.04961,0 0.228754,-0.10749 0.228754,-0.1378 0.242535,-0.14331 z m -0.440972,-0.74139 -0.683507,-0.2756 -0.592556,0.54845 0.903993,0.65595 z m -0.854383,-0.28387 h -1.036284 l 0.523654,0.47404 z m 0.749652,1.36701 q -0.228754,-0.0303 -0.228754,-0.0303 -0.03583,0 -0.272851,0.0937 l 0.190169,0.0193 q 0.01102,0 0.311436,-0.0827 z m -0.388606,-0.0882 -0.843359,-0.61185 v 0.67524 l 0.471289,0.0827 z m 0.854383,0.0496 q -0.09922,0.006 -0.2949,0.0386 -0.01102,0.003 -0.377583,0.17639 -0.129535,0.34726 -0.380338,1.0418 z m -2.543857,-1.39733 -0.719335,-0.28388 0.124023,0.51814 z m -0.802018,-0.45476 v -0.41065 l -0.366557,0.44648 z m 1.515841,1.07212 -0.592556,-0.54019 -0.683506,0.2756 0.380338,0.9288 z m 0.369314,0.94257 q -0.03307,-0.003 -0.135047,-0.0248 -0.08544,-0.0165 -0.137804,-0.0165 -0.05237,0 -0.137804,0.0165 -0.101975,0.0221 -0.135047,0.0248 0.264583,0.0469 0.272851,0.0469 0.0083,0 0.272851,-0.0469 z m -0.30868,-0.1378 v -0.68626 l -0.843359,0.61185 0.37207,0.14607 z m 0.950846,0.20671 -0.396875,-0.0551 -0.479557,0.14056 v 1.27607 z m -2.888366,-2.20211 q -0.118512,0.0854 -0.234267,0.17364 -0.146072,0.10748 -0.209461,0.19568 -0.0441,0.10473 -0.135048,0.31419 0.369314,-0.3638 0.578776,-0.68351 z m 0.476801,0.83234 -0.159853,-0.61461 -0.410655,0.0634 -0.316948,0.90399 z m 0.394118,1.08313 -0.363802,-0.87918 -0.355533,0.63114 q 0.43546,0.2508 0.451996,0.2508 0.09095,0 0.267339,-0.003 z m 1.821765,0.82958 q -0.132291,0.21222 -0.405143,0.6339 -0.07717,0.10749 -0.220486,0.32797 -0.05788,0.10473 -0.05512,0.226 0.159852,-0.15158 0.432704,-0.49609 0.07717,-0.12954 0.140559,-0.339 0.05512,-0.17639 0.107486,-0.35278 z m -1.493792,-0.66146 -0.270095,-0.0882 -0.0083,-0.011 q -0.02481,0 -0.107487,0.011 -0.06615,0.006 -0.107487,0.006 0.272851,0.091 0.311436,0.091 0.02481,0 0.181901,-0.008 z m -0.810286,-1.06384 h -0.03032 l -0.7717,0.3197 q 0.06615,0.0965 0.223242,0.23978 0.07717,0.0138 0.234266,0.0469 z m -0.689018,-0.50161 q -0.341754,0.34727 -0.341754,0.39412 0,0.0799 0.06339,0.30868 h 0.04961 z m 2.235176,3.04547 v -1.27607 l -0.479557,-0.14056 -0.396875,0.0551 z m -1.606791,-1.6757 q -0.256315,-0.1819 -0.457509,-0.22324 0.06615,0.0772 0.20395,0.22324 z m 1.609547,2.04501 v -0.1378 l -0.683507,-1.05007 q 0.05237,0.17639 0.107487,0.35278 0.06339,0.20946 0.14056,0.339 0.0689,0.11851 0.20395,0.25907 0.115755,0.11851 0.23151,0.23702 z m -0.644921,-0.70555 q -0.115756,-0.32798 -0.380339,-1.0418 -0.135047,-0.0662 -0.272851,-0.12954 -0.159852,-0.0716 -0.289388,-0.0716 -0.05237,0 -0.110243,-0.0138 z" />
            </g>
        </g>
        <path id="model_name" d="M50.7136 4.39488Q50.7136 4.45697 50.6709 4.49966Q50.6282 4.54234 50.5661 4.54234H49.7124V7.3053Q49.7124 7.64679 49.8327 7.75932Q49.953 7.87186 50.1392 7.87186Q50.1703 7.87186 50.2285 7.85634Q50.2867 7.84081 50.3255 7.84081Q50.3798 7.84081 50.4186 7.8835Q50.4575 7.92619 50.4575 7.98051Q50.4575 8.05036 50.3643 8.10081Q50.2712 8.15126 50.147 8.15126Q49.953 8.15126 49.821 8.12409Q49.6891 8.09693 49.5455 7.91454Q49.4019 7.73216 49.4019 7.32082V4.54234H48.7655Q48.7112 4.54234 48.6646 4.49578Q48.6181 4.44921 48.6181 4.39488Q48.6181 4.33279 48.6608 4.29011Q48.7034 4.24742 48.7655 4.24742H49.4019V3.26176Q49.4019 3.19967 49.4485 3.1531Q49.4951 3.10654 49.5572 3.10654Q49.627 3.10654 49.6697 3.1531Q49.7124 3.19967 49.7124 3.26176V4.24742H50.5661Q50.6204 4.24742 50.667 4.29399Q50.7136 4.34055 50.7136 4.39488ZM53.6861 4.33279Q53.6861 4.40264 53.6473 4.44921Q53.6085 4.49578 53.5464 4.49578Q53.5231 4.49578 53.4338 4.46085Q53.3446 4.42592 53.2437 4.42592Q52.9255 4.42592 52.6073 4.67816Q52.2891 4.9304 52.0873 5.31457Q51.8855 5.69875 51.8855 6.05576V7.99604Q51.8855 8.05812 51.8389 8.10469Q51.7924 8.15126 51.7303 8.15126Q51.6604 8.15126 51.6177 8.10469Q51.5751 8.05812 51.5751 7.99604V4.43369Q51.5751 4.3716 51.6216 4.32503Q51.6682 4.27846 51.7303 4.27846Q51.8001 4.27846 51.8428 4.32503Q51.8855 4.3716 51.8855 4.43369V5.25636Q52.064 4.78294 52.4404 4.47249Q52.8168 4.16205 53.3291 4.15429Q53.6861 4.15429 53.6861 4.33279ZM54.5864 8.15126Q54.5165 8.15126 54.4738 8.10469Q54.4311 8.05812 54.4311 7.99604V4.30951Q54.4311 4.24742 54.4777 4.20085Q54.5243 4.15429 54.5864 4.15429Q54.6562 4.15429 54.6989 4.20085Q54.7416 4.24742 54.7416 4.30951V7.99604Q54.7416 8.05812 54.695 8.10469Q54.6485 8.15126 54.5864 8.15126ZM54.3147 3.37818V3.31609Q54.3147 3.20743 54.3923 3.13758Q54.4699 3.06773 54.5941 3.06773Q54.7028 3.06773 54.7765 3.13758Q54.8502 3.20743 54.8502 3.31609V3.37818Q54.8502 3.48683 54.7765 3.55668Q54.7028 3.62653 54.5864 3.62653Q54.4622 3.62653 54.3885 3.55668Q54.3147 3.48683 54.3147 3.37818ZM59.0568 4.70533Q59.0568 4.76741 59.0141 4.81398Q58.9714 4.86055 58.9093 4.86055Q58.8395 4.86055 58.8045 4.83726Q58.7696 4.81398 58.7075 4.75189Q58.6066 4.63547 58.498 4.58115Q58.2186 4.44921 57.7063 4.44921Q57.2639 4.44921 56.8875 4.68204Q56.5111 4.91488 56.2899 5.31457Q56.0687 5.71427 56.0687 6.1877Q56.0687 6.68441 56.2744 7.08411Q56.4801 7.4838 56.8565 7.70887Q57.2329 7.93395 57.7063 7.93395Q58.0168 7.93395 58.1953 7.87962Q58.3738 7.82529 58.5523 7.7244Q58.6765 7.64679 58.7696 7.55365Q58.8084 7.51485 58.8472 7.48768Q58.886 7.46052 58.9248 7.46052Q58.9869 7.46052 59.0218 7.49932Q59.0568 7.53813 59.0568 7.60022Q59.0568 7.70887 58.8783 7.86022Q58.6998 8.01156 58.3854 8.12021Q58.0711 8.22887 57.683 8.22887Q57.1242 8.22887 56.6857 7.96499Q56.2472 7.70111 56.0028 7.23545Q55.7583 6.76978 55.7583 6.1877Q55.7583 5.64442 56.0028 5.17875Q56.2472 4.71309 56.6935 4.43369Q57.1398 4.15429 57.7141 4.15429Q58.0478 4.15429 58.3621 4.2319Q58.6765 4.30951 58.8666 4.43757Q59.0568 4.56562 59.0568 4.70533ZM61.6567 8.22887Q61.1212 8.22887 60.6827 7.96111Q60.2442 7.69335 59.992 7.22769Q59.7397 6.76202 59.7397 6.19546Q59.7397 5.62114 59.992 5.15547Q60.2442 4.6898 60.6788 4.42204Q61.1135 4.15429 61.6567 4.15429Q62.1923 4.15429 62.6308 4.42204Q63.0693 4.6898 63.3176 5.15547Q63.566 5.62114 63.566 6.19546Q63.566 6.76978 63.3176 7.23157Q63.0693 7.69335 62.6308 7.96111Q62.1923 8.22887 61.6567 8.22887ZM61.6567 4.44921Q61.2066 4.44921 60.8379 4.67816Q60.4693 4.90711 60.2597 5.30293Q60.0502 5.69875 60.0502 6.19546Q60.0502 6.68441 60.2597 7.08022Q60.4693 7.47604 60.8379 7.70499Q61.2066 7.93395 61.6567 7.93395Q62.1146 7.93395 62.4794 7.70887Q62.8442 7.4838 63.0499 7.08411Q63.2555 6.68441 63.2555 6.19546Q63.2555 5.69875 63.0499 5.30293Q62.8442 4.90711 62.4794 4.67816Q62.1146 4.44921 61.6567 4.44921ZM66.6937 4.33279Q66.6937 4.40264 66.6549 4.44921Q66.6161 4.49578 66.554 4.49578Q66.5307 4.49578 66.4415 4.46085Q66.3522 4.42592 66.2513 4.42592Q65.9331 4.42592 65.6149 4.67816Q65.2967 4.9304 65.0949 5.31457Q64.8931 5.69875 64.8931 6.05576V7.99604Q64.8931 8.05812 64.8466 8.10469Q64.8 8.15126 64.7379 8.15126Q64.668 8.15126 64.6254 8.10469Q64.5827 8.05812 64.5827 7.99604V4.43369Q64.5827 4.3716 64.6292 4.32503Q64.6758 4.27846 64.7379 4.27846Q64.8077 4.27846 64.8504 4.32503Q64.8931 4.3716 64.8931 4.43369V5.25636Q65.0716 4.78294 65.448 4.47249Q65.8245 4.16205 66.3367 4.15429Q66.6937 4.15429 66.6937 4.33279ZM70.7683 2.56326V7.99604Q70.7683 8.05812 70.7217 8.10469Q70.6751 8.15126 70.6131 8.15126Q70.5432 8.15126 70.5005 8.10469Q70.4578 8.05812 70.4578 7.99604V7.25873Q70.2716 7.67007 69.868 7.94947Q69.4644 8.22887 68.9677 8.22887Q68.4632 8.22887 68.0519 7.96111Q67.6406 7.69335 67.4038 7.22769Q67.1671 6.76202 67.1671 6.1877Q67.1671 5.61337 67.4038 5.14771Q67.6406 4.68204 68.0519 4.41816Q68.4632 4.15429 68.9677 4.15429Q69.4489 4.15429 69.8602 4.42592Q70.2716 4.69756 70.4578 5.13219V2.56326Q70.4578 2.50117 70.5005 2.4546Q70.5432 2.40804 70.6131 2.40804Q70.6829 2.40804 70.7256 2.4546Q70.7683 2.50117 70.7683 2.56326ZM70.4889 6.1877Q70.4889 5.69099 70.2949 5.29517Q70.1008 4.89935 69.7555 4.67428Q69.4101 4.44921 68.9832 4.44921Q68.5641 4.44921 68.2188 4.67428Q67.8734 4.89935 67.6755 5.29905Q67.4776 5.69875 67.4776 6.1877Q67.4776 6.68441 67.6755 7.08022Q67.8734 7.47604 68.2149 7.70499Q68.5564 7.93395 68.9832 7.93395Q69.4178 7.93395 69.7593 7.70887Q70.1008 7.4838 70.2949 7.08411Q70.4889 6.68441 70.4889 6.1877ZM75.2542 7.35962Q75.2542 7.41395 75.2232 7.45276Q74.967 7.79425 74.5867 8.01156Q74.2065 8.22887 73.7718 8.22887Q73.1897 8.22887 72.7396 7.98051Q72.2895 7.73216 72.0372 7.27425Q71.785 6.81635 71.785 6.21098Q71.785 5.59009 72.0295 5.12054Q72.2739 4.651 72.6775 4.40264Q73.0811 4.15429 73.539 4.15429Q73.9969 4.15429 74.3888 4.35219Q74.7808 4.5501 75.0291 4.94592Q75.2775 5.34174 75.293 5.92382Q75.293 5.98591 75.2464 6.03636Q75.1999 6.0868 75.1378 6.0868H72.0877V6.1877Q72.0877 6.66889 72.2817 7.06858Q72.4757 7.46828 72.856 7.70111Q73.2363 7.93395 73.7718 7.93395Q74.1444 7.93395 74.4742 7.75156Q74.8041 7.56917 74.9903 7.28977Q75.0447 7.21992 75.1223 7.21992Q75.1766 7.21992 75.2154 7.26261Q75.2542 7.3053 75.2542 7.35962ZM72.1187 5.79188H74.9748V5.72203Q74.936 5.32621 74.7226 5.04293Q74.5091 4.75965 74.1948 4.61219Q73.8805 4.46473 73.539 4.46473Q73.2518 4.46473 72.953 4.61607Q72.6542 4.76741 72.4253 5.06622Q72.1963 5.36502 72.1187 5.79188ZM78.4207 4.33279Q78.4207 4.40264 78.3819 4.44921Q78.3431 4.49578 78.281 4.49578Q78.2578 4.49578 78.1685 4.46085Q78.0792 4.42592 77.9784 4.42592Q77.6601 4.42592 77.3419 4.67816Q77.0237 4.9304 76.8219 5.31457Q76.6202 5.69875 76.6202 6.05576V7.99604Q76.6202 8.05812 76.5736 8.10469Q76.527 8.15126 76.4649 8.15126Q76.3951 8.15126 76.3524 8.10469Q76.3097 8.05812 76.3097 7.99604V4.43369Q76.3097 4.3716 76.3563 4.32503Q76.4028 4.27846 76.4649 4.27846Q76.5348 4.27846 76.5775 4.32503Q76.6202 4.3716 76.6202 4.43369V5.25636Q76.7987 4.78294 77.1751 4.47249Q77.5515 4.16205 78.0637 4.15429Q78.4207 4.15429 78.4207 4.33279Z" style="display:inline;stroke:#000000;stroke-width:0.35;stroke-linecap:round;stroke-linejoin:bevel" />
    </g>
</svg>
