<?xml version='1.0' encoding='utf-8'?>
<svg xmlns="http://www.w3.org/2000/svg" width="10mm" height="4mm" viewBox="0 0 10 4">
  
  <title>SEAL</title>
  <g id="PanelLayer">
    <g style="stroke:#000000;stroke-width:0.25;stroke-linecap:round;stroke-linejoin:bevel">
      <path d="m 1.780170,3.243323 q -0.261055,0 -0.4550823,-0.08819 Q 1.131060,3.063406 0.940560,2.872907 0.919394,2.851740 0.919394,2.819990 q 0,-0.028222 0.024694,-0.052916 0.024694,-0.028222 0.052916,-0.028222 0.03175,0 0.059972,0.03175 0.1375831,0.1622775 0.3245549,0.2469439 0.1904996,0.084667 0.398638,0.084667 0.2716383,0 0.4480268,-0.1305278 Q 2.404585,2.841157 2.404585,2.625963 2.401057,2.456630 2.312863,2.347269 2.224669,2.237908 2.094141,2.174408 1.967141,2.107381 1.744892,2.026242 1.501476,1.934520 1.363893,1.863964 1.229838,1.793409 1.131060,1.662882 1.035810,1.532354 1.035810,1.320688 q 0,-0.1728607 0.09525,-0.3139715 0.09525,-0.1411108 0.2716383,-0.2222495 0.1763885,-0.081139 0.4092213,-0.081139 0.2081385,0 0.3951103,0.077611 0.1869718,0.074083 0.2963327,0.2116662 0.035278,0.049389 0.035278,0.074083 0,0.028222 -0.028222,0.052917 -0.024694,0.021167 -0.056444,0.021167 -0.028222,0 -0.045861,-0.021167 Q 2.309335,0.992605 2.154113,0.918522 1.998891,0.844439 1.811920,0.844439 q -0.2681105,0 -0.4480268,0.1269997 -0.1763885,0.1269997 -0.1763885,0.3457215 0,0.1516941 0.084666,0.2575272 0.088194,0.1058331 0.2187217,0.1728607 0.1305275,0.0635 0.3245549,0.1340553 0.2469439,0.088194 0.3915825,0.1622774 0.1446385,0.074083 0.2469439,0.215194 0.1023053,0.1411108 0.1023053,0.3739436 0,0.1622774 -0.09525,0.3033882 -0.09525,0.1411105 -0.2751661,0.2257775 -0.1763885,0.08114 -0.4056935,0.08114 z" />
      <path d="m 4.489494,3.066934 q 0.028222,0 0.049389,0.02117 0.021167,0.02117 0.021167,0.04939 0,0.03175 -0.021167,0.05292 -0.021167,0.01764 -0.049389,0.01764 H 3.159525 q -0.028222,0 -0.049389,-0.02117 -0.021167,-0.02117 -0.021167,-0.04939 V 0.809161 q 0,-0.028222 0.021167,-0.049389 0.021167,-0.021167 0.049389,-0.021167 h 1.3299693 q 0.028222,0 0.049389,0.021167 0.021167,0.021167 0.021167,0.049389 0,0.03175 -0.021167,0.052916 -0.021167,0.017639 -0.049389,0.017639 H 3.237136 V 1.863964 h 1.0936087 q 0.028222,0 0.049389,0.021167 0.021167,0.021167 0.021167,0.049389 0,0.03175 -0.021167,0.052917 -0.021167,0.017639 -0.049389,0.017639 H 3.237136 v 1.061859 z" />
      <path d="m 6.898959,3.112795 q 0.00353,0.01058 0.00353,0.02822 0,0.03175 -0.021167,0.04939 -0.021167,0.01764 -0.052917,0.01764 -0.024694,0 -0.045861,-0.01058 -0.017639,-0.01411 -0.024694,-0.03528 L 6.461516,2.435463 l 0.00353,0.00706 H 5.283241 L 4.997491,3.162184 q -0.017639,0.04586 -0.0635,0.04586 -0.03175,0 -0.052916,-0.01764 -0.017639,-0.01764 -0.021167,-0.04233 -0.00353,-0.01411 0.00353,-0.03528 L 5.812406,0.777411 q 0.010583,-0.028222 0.024694,-0.035278 0.017639,-0.010583 0.042333,-0.010583 0.052917,0 0.070555,0.045861 z M 5.339685,2.301408 H 6.408599 L 5.868851,0.971439 Z" />
      <path d="m 8.743977,3.066934 q 0.02822,0 0.04939,0.02117 0.02117,0.02117 0.02117,0.04939 0,0.03175 -0.02117,0.05292 -0.02117,0.01764 -0.04939,0.01764 H 7.449285 q -0.03175,0 -0.052917,-0.02117 -0.017639,-0.02117 -0.017639,-0.04939 V 0.809161 q 0,-0.028222 0.021167,-0.049389 0.021167,-0.021167 0.052917,-0.021167 0.03175,0 0.052917,0.021167 0.021167,0.021167 0.021167,0.049389 v 2.2577728 z" />
    </g>
  </g>
</svg>