<?xml version="1.0" encoding="utf-8"?>
<svg xmlns="http://www.w3.org/2000/svg" width="60.96mm" height="128.50mm" viewBox="0 0 60.96 128.50">
<g id="control_labels" style="stroke:#000000;stroke-width:0.25;stroke-linecap:round;stroke-linejoin:bevel">
<path id="airflow_label" d="M12.193222222222223 26.112555555555556Q12.193222222222223 26.144305555555555 12.172055555555556 26.161944444444444Q12.15088888888889 26.179583333333333 12.119138888888891 26.179583333333333Q12.094444444444445 26.179583333333333 12.075041666666667 26.16723611111111Q12.05563888888889 26.154888888888888 12.048583333333335 26.13372222222222L11.752250000000002 25.407L11.755777777777778 25.414055555555557H10.573972222222224L10.288222222222224 26.13372222222222Q10.270583333333335 26.179583333333333 10.224722222222223 26.179583333333333Q10.192972222222224 26.179583333333333 10.173569444444446 26.161944444444444Q10.154166666666669 26.144305555555555 10.15063888888889 26.119611111111112Q10.147111111111112 26.1055 10.154166666666669 26.084333333333333L11.10313888888889 23.748944444444444Q11.113722222222224 23.72072222222222 11.129597222222223 23.711902777777777Q11.145472222222223 23.703083333333332 11.170166666666669 23.703083333333332Q11.223083333333335 23.703083333333332 11.240722222222223 23.748944444444444L12.189694444444445 26.084333333333333Q12.193222222222223 26.094916666666666 12.193222222222223 26.112555555555556ZM10.630416666666667 25.272944444444445H11.699333333333335L11.159583333333334 23.942972222222224ZM12.743555555555556 26.179583333333333Q12.708277777777779 26.179583333333333 12.688875000000001 26.158416666666668Q12.669472222222224 26.13725 12.669472222222224 26.1055V23.784222222222223Q12.669472222222224 23.752472222222224 12.690638888888891 23.731305555555558Q12.711805555555557 23.71013888888889 12.743555555555556 23.71013888888889Q12.775305555555557 23.71013888888889 12.796472222222224 23.731305555555558Q12.81763888888889 23.752472222222224 12.81763888888889 23.784222222222223V26.1055Q12.814111111111112 26.13725 12.792944444444444 26.158416666666668Q12.771777777777778 26.179583333333333 12.743555555555556 26.179583333333333ZM15.318833333333334 26.1055Q15.318833333333334 26.13725 15.299430555555556 26.15665277777778Q15.280027777777779 26.176055555555557 15.251805555555556 26.176055555555557Q15.23063888888889 26.176055555555557 15.220055555555557 26.169Q15.124805555555557 26.116083333333332 15.068361111111113 25.99084722222222Q15.011916666666668 25.86561111111111 15.011916666666668 25.57986111111111Q15.011916666666668 25.290583333333334 14.856694444444447 25.182986111111113Q14.701472222222224 25.075388888888888 14.496861111111112 25.075388888888888H13.671361111111112V26.10902777777778Q13.671361111111112 26.13725 13.650194444444445 26.158416666666668Q13.629027777777779 26.179583333333333 13.597277777777778 26.179583333333333Q13.56552777777778 26.179583333333333 13.544361111111112 26.158416666666668Q13.523194444444446 26.13725 13.523194444444446 26.10902777777778V23.780694444444446Q13.523194444444446 23.752472222222224 13.544361111111112 23.731305555555558Q13.56552777777778 23.71013888888889 13.593750000000002 23.71013888888889H14.525083333333335Q14.729694444444446 23.71013888888889 14.888444444444445 23.793041666666667Q15.047194444444445 23.875944444444443 15.13538888888889 24.020583333333335Q15.223583333333334 24.165222222222223 15.223583333333334 24.348666666666666Q15.223583333333334 24.58502777777778 15.098347222222223 24.75436111111111Q14.973111111111113 24.923694444444443 14.77202777777778 24.983666666666668Q14.941361111111112 25.036583333333333 15.050722222222223 25.193569444444442Q15.160083333333334 25.350555555555555 15.160083333333334 25.57986111111111Q15.160083333333334 25.816222222222223 15.190069444444447 25.909708333333334Q15.220055555555557 26.003194444444446 15.280027777777779 26.042Q15.318833333333334 26.066694444444444 15.318833333333334 26.1055ZM14.542722222222224 24.93427777777778Q14.764972222222223 24.91311111111111 14.920194444444444 24.75788888888889Q15.075416666666667 24.602666666666668 15.075416666666667 24.352194444444443Q15.075416666666667 24.133472222222224 14.920194444444444 23.992361111111112Q14.764972222222223 23.85125 14.507444444444445 23.85125H13.671361111111112V24.93427777777778ZM17.336722222222225 23.780694444444446Q17.336722222222225 23.812444444444445 17.315555555555555 23.831847222222223Q17.29438888888889 23.85125 17.266166666666667 23.85125H16.00675V24.824916666666667H17.10741666666667Q17.13563888888889 24.824916666666667 17.156805555555557 24.846083333333333Q17.177972222222223 24.86725 17.177972222222223 24.89547222222222Q17.177972222222223 24.927222222222223 17.156805555555557 24.946625Q17.13563888888889 24.96602777777778 17.10741666666667 24.96602777777778H16.00675V26.10902777777778Q16.00675 26.13725 15.987347222222223 26.158416666666668Q15.967944444444445 26.179583333333333 15.936194444444446 26.179583333333333Q15.904444444444445 26.179583333333333 15.885041666666668 26.158416666666668Q15.86563888888889 26.13725 15.86563888888889 26.10902777777778V23.780694444444446Q15.86563888888889 23.752472222222224 15.886805555555558 23.731305555555558Q15.907972222222224 23.71013888888889 15.936194444444446 23.71013888888889H17.266166666666667Q17.29438888888889 23.71013888888889 17.315555555555555 23.731305555555558Q17.336722222222225 23.752472222222224 17.336722222222225 23.780694444444446ZM19.301694444444443 26.10902777777778Q19.301694444444443 26.140777777777778 19.280527777777777 26.160180555555556Q19.25936111111111 26.179583333333333 19.23113888888889 26.179583333333333H17.936444444444444Q17.904694444444445 26.179583333333333 17.885291666666667 26.158416666666668Q17.86588888888889 26.13725 17.86588888888889 26.10902777777778V23.780694444444446Q17.86588888888889 23.752472222222224 17.887055555555555 23.731305555555558Q17.90822222222222 23.71013888888889 17.939972222222224 23.71013888888889Q17.971722222222223 23.71013888888889 17.992888888888892 23.731305555555558Q18.014055555555558 23.752472222222224 18.014055555555558 23.780694444444446V26.03847222222222H19.23113888888889Q19.25936111111111 26.03847222222222 19.280527777777777 26.05963888888889Q19.301694444444443 26.080805555555557 19.301694444444443 26.10902777777778ZM20.70927777777778 26.214861111111112Q20.367083333333333 26.214861111111112 20.098972222222223 26.054347222222223Q19.830861111111112 25.893833333333333 19.680930555555555 25.604555555555557Q19.531 25.315277777777776 19.531 24.944861111111113Q19.531 24.574444444444445 19.680930555555555 24.28516666666667Q19.830861111111112 23.99588888888889 20.098972222222223 23.835375Q20.367083333333333 23.674861111111113 20.70927777777778 23.674861111111113Q21.051472222222223 23.674861111111113 21.319583333333334 23.835375Q21.587694444444445 23.99588888888889 21.737625 24.28516666666667Q21.887555555555558 24.574444444444445 21.887555555555558 24.944861111111113Q21.887555555555558 25.315277777777776 21.737625 25.604555555555557Q21.587694444444445 25.893833333333333 21.319583333333334 26.054347222222223Q21.051472222222223 26.214861111111112 20.70927777777778 26.214861111111112ZM20.70927777777778 23.81597222222222Q20.40941666666667 23.81597222222222 20.174819444444445 23.957083333333333Q19.94022222222222 24.098194444444445 19.809694444444446 24.355722222222223Q19.679166666666667 24.61325 19.679166666666667 24.944861111111113Q19.679166666666667 25.27647222222222 19.809694444444446 25.534Q19.94022222222222 25.791527777777777 20.174819444444445 25.93263888888889Q20.40941666666667 26.07375 20.70927777777778 26.07375Q21.009138888888888 26.07375 21.24373611111111 25.93263888888889Q21.478333333333335 25.791527777777777 21.60886111111111 25.534Q21.73938888888889 25.27647222222222 21.73938888888889 24.944861111111113Q21.73938888888889 24.61325 21.60886111111111 24.355722222222223Q21.478333333333335 24.098194444444445 21.24373611111111 23.957083333333333Q21.009138888888888 23.81597222222222 20.70927777777778 23.81597222222222ZM25.376527777777778 23.770111111111113 25.36947222222222 23.80538888888889 24.561611111111112 26.13372222222222Q24.554555555555556 26.154888888888888 24.53515277777778 26.16723611111111Q24.51575 26.179583333333333 24.49811111111111 26.179583333333333Q24.441666666666666 26.179583333333333 24.427555555555557 26.13725L23.781972222222223 24.507416666666668L23.136388888888888 26.13725Q23.118750000000002 26.179583333333333 23.062305555555557 26.179583333333333Q23.041138888888888 26.179583333333333 23.0235 26.16723611111111Q23.005861111111113 26.154888888888888 23.002333333333333 26.13372222222222L22.194472222222224 23.80538888888889L22.187416666666667 23.77363888888889Q22.187416666666667 23.741888888888887 22.212111111111113 23.72248611111111Q22.236805555555556 23.703083333333332 22.265027777777778 23.703083333333332Q22.286194444444444 23.703083333333332 22.30559722222222 23.715430555555557Q22.325 23.727777777777778 22.332055555555556 23.748944444444444L23.079944444444443 25.907944444444446L23.714944444444445 24.302805555555555Q23.732583333333334 24.256944444444443 23.781972222222223 24.256944444444443Q23.80313888888889 24.256944444444443 23.822541666666666 24.269291666666668Q23.841944444444444 24.28163888888889 23.849 24.302805555555555L24.48752777777778 25.911472222222223L25.23188888888889 23.748944444444444Q25.24952777777778 23.703083333333332 25.302444444444443 23.703083333333332Q25.334194444444446 23.703083333333332 25.35536111111111 23.72072222222222Q25.376527777777778 23.73836111111111 25.376527777777778 23.770111111111113Z"/>
<path id="width_label" d="M17.34025 44.77011111111111 17.333194444444445 44.80538888888889 16.525333333333336 47.133722222222225Q16.51827777777778 47.15488888888889 16.498875 47.16723611111111Q16.479472222222224 47.17958333333333 16.461833333333335 47.17958333333333Q16.40538888888889 47.17958333333333 16.39127777777778 47.13725L15.745694444444446 45.507416666666664L15.100111111111113 47.13725Q15.082472222222224 47.17958333333333 15.026027777777779 47.17958333333333Q15.004861111111113 47.17958333333333 14.987222222222224 47.16723611111111Q14.969583333333334 47.15488888888889 14.966055555555558 47.133722222222225L14.158194444444446 44.80538888888889L14.151138888888891 44.77363888888889Q14.151138888888891 44.74188888888889 14.175833333333335 44.72248611111111Q14.20052777777778 44.70308333333333 14.228750000000002 44.70308333333333Q14.24991666666667 44.70308333333333 14.269319444444447 44.71543055555556Q14.288722222222225 44.727777777777774 14.29577777777778 44.74894444444445L15.043666666666669 46.907944444444446L15.678666666666668 45.30280555555556Q15.696305555555558 45.25694444444444 15.745694444444446 45.25694444444444Q15.766861111111114 45.25694444444444 15.786263888888891 45.26929166666667Q15.805666666666669 45.28163888888889 15.812722222222224 45.30280555555556L16.45125 46.91147222222222L17.195611111111113 44.74894444444445Q17.213250000000002 44.70308333333333 17.266166666666667 44.70308333333333Q17.29791666666667 44.70308333333333 17.319083333333335 44.72072222222222Q17.34025 44.73836111111111 17.34025 44.77011111111111ZM17.890583333333336 47.17958333333333Q17.855305555555557 47.17958333333333 17.83590277777778 47.15841666666667Q17.8165 47.13725 17.8165 47.1055V44.784222222222226Q17.8165 44.752472222222224 17.837666666666667 44.73130555555556Q17.858833333333333 44.71013888888889 17.890583333333336 44.71013888888889Q17.922333333333334 44.71013888888889 17.9435 44.73130555555556Q17.964666666666666 44.752472222222224 17.964666666666666 44.784222222222226V47.1055Q17.96113888888889 47.13725 17.939972222222224 47.15841666666667Q17.918805555555558 47.17958333333333 17.890583333333336 47.17958333333333ZM20.681055555555556 45.94486111111111Q20.681055555555556 46.294111111111114 20.56993055555556 46.57280555555556Q20.458805555555557 46.8515 20.2295 47.015541666666664Q20.000194444444443 47.17958333333333 19.658 47.17958333333333H18.740777777777776Q18.712555555555554 47.17958333333333 18.691388888888888 47.15841666666667Q18.670222222222222 47.13725 18.670222222222222 47.109027777777776V44.78069444444444Q18.670222222222222 44.752472222222224 18.691388888888888 44.73130555555556Q18.712555555555554 44.71013888888889 18.740777777777776 44.71013888888889H19.658Q19.996666666666666 44.71013888888889 20.227736111111113 44.87947222222222Q20.458805555555557 45.04880555555555 20.56993055555556 45.32926388888889Q20.681055555555556 45.609722222222224 20.681055555555556 45.94486111111111ZM20.532888888888888 45.94486111111111Q20.532888888888888 45.645 20.435875 45.39629166666667Q20.33886111111111 45.14758333333333 20.13601388888889 44.99941666666666Q19.933166666666665 44.85125 19.622722222222222 44.85125H18.81838888888889V47.038472222222225H19.622722222222222Q20.081333333333333 47.038472222222225 20.307111111111112 46.736847222222224Q20.532888888888888 46.43522222222222 20.532888888888888 45.94486111111111ZM22.836527777777775 44.777166666666666Q22.836527777777775 44.80891666666667 22.817124999999997 44.82655555555556Q22.79772222222222 44.84419444444445 22.76597222222222 44.84419444444445H21.979277777777778V47.109027777777776Q21.979277777777778 47.13725 21.95811111111111 47.15841666666667Q21.936944444444443 47.17958333333333 21.90872222222222 47.17958333333333Q21.87697222222222 47.17958333333333 21.857569444444444 47.15841666666667Q21.838166666666666 47.13725 21.838166666666666 47.109027777777776V44.84419444444445H21.05147222222222Q21.023249999999997 44.84419444444445 21.00208333333333 44.82479166666667Q20.980916666666666 44.80538888888889 20.980916666666666 44.777166666666666Q20.980916666666666 44.74894444444445 21.00208333333333 44.72954166666667Q21.023249999999997 44.71013888888889 21.05147222222222 44.71013888888889H22.76597222222222Q22.794194444444443 44.71013888888889 22.81536111111111 44.72954166666667Q22.836527777777775 44.74894444444445 22.836527777777775 44.777166666666666ZM25.14722222222222 44.784222222222226V47.1055Q25.143694444444442 47.13725 25.122527777777776 47.15841666666667Q25.10136111111111 47.17958333333333 25.073138888888884 47.17958333333333Q25.03786111111111 47.17958333333333 25.01845833333333 47.15841666666667Q24.999055555555554 47.13725 24.999055555555554 47.1055V45.98013888888889H23.460944444444443V47.1055Q23.457416666666663 47.13725 23.436249999999998 47.15841666666667Q23.41508333333333 47.17958333333333 23.38686111111111 47.17958333333333Q23.35158333333333 47.17958333333333 23.332180555555553 47.15841666666667Q23.312777777777775 47.13725 23.312777777777775 47.1055V44.784222222222226Q23.312777777777775 44.752472222222224 23.33394444444444 44.73130555555556Q23.355111111111107 44.71013888888889 23.38686111111111 44.71013888888889Q23.418611111111108 44.71013888888889 23.439777777777778 44.73130555555556Q23.460944444444443 44.752472222222224 23.460944444444443 44.784222222222226V45.83902777777778H24.999055555555554V44.784222222222226Q24.999055555555554 44.752472222222224 25.02022222222222 44.73130555555556Q25.041388888888886 44.71013888888889 25.073138888888884 44.71013888888889Q25.104888888888887 44.71013888888889 25.126055555555553 44.73130555555556Q25.14722222222222 44.752472222222224 25.14722222222222 44.784222222222226Z"/>
<path id="decay_label" d="M16.76875 66.94486111111112Q16.76875 67.29411111111112 16.657625000000003 67.57280555555556Q16.5465 67.8515 16.317194444444446 68.01554166666668Q16.087888888888887 68.17958333333334 15.745694444444444 68.17958333333334H14.828472222222222Q14.80025 68.17958333333334 14.779083333333332 68.15841666666668Q14.757916666666667 68.13725000000001 14.757916666666667 68.10902777777778V65.78069444444445Q14.757916666666667 65.75247222222222 14.779083333333332 65.73130555555556Q14.80025 65.71013888888889 14.828472222222222 65.71013888888889H15.745694444444444Q16.08436111111111 65.71013888888889 16.315430555555558 65.87947222222223Q16.5465 66.04880555555556 16.657625000000003 66.3292638888889Q16.76875 66.60972222222223 16.76875 66.94486111111112ZM16.620583333333332 66.94486111111112Q16.620583333333332 66.64500000000001 16.523569444444444 66.39629166666668Q16.426555555555556 66.14758333333334 16.223708333333335 65.99941666666668Q16.02086111111111 65.85125000000001 15.710416666666667 65.85125000000001H14.906083333333333V68.03847222222223H15.710416666666667Q16.169027777777778 68.03847222222223 16.394805555555557 67.73684722222222Q16.620583333333332 67.43522222222222 16.620583333333332 66.94486111111112ZM18.769 68.10902777777778Q18.769 68.14077777777779 18.747833333333332 68.16018055555557Q18.726666666666667 68.17958333333334 18.698444444444444 68.17958333333334H17.36847222222222Q17.340249999999997 68.17958333333334 17.31908333333333 68.15841666666668Q17.297916666666666 68.13725000000001 17.297916666666666 68.10902777777778V65.78069444444445Q17.297916666666666 65.75247222222222 17.31908333333333 65.73130555555556Q17.340249999999997 65.71013888888889 17.36847222222222 65.71013888888889H18.698444444444444Q18.726666666666667 65.71013888888889 18.747833333333332 65.73130555555556Q18.769 65.75247222222222 18.769 65.78069444444445Q18.769 65.81244444444445 18.747833333333332 65.83184722222222Q18.726666666666667 65.85125000000001 18.698444444444444 65.85125000000001H17.446083333333334V66.83550000000001H18.539694444444443Q18.567916666666665 66.83550000000001 18.589083333333335 66.85666666666668Q18.61025 66.87783333333334 18.61025 66.90605555555557Q18.61025 66.93780555555556 18.589083333333335 66.95720833333334Q18.567916666666665 66.97661111111111 18.539694444444443 66.97661111111111H17.446083333333334V68.03847222222223H18.698444444444444Q18.726666666666667 68.03847222222223 18.747833333333332 68.05963888888888Q18.769 68.08080555555556 18.769 68.10902777777778ZM21.157305555555556 65.97119444444445Q21.157305555555556 65.99941666666668 21.143194444444443 66.01705555555556Q21.122027777777777 66.04527777777778 21.09027777777778 66.04527777777778Q21.076166666666666 66.04527777777778 21.047944444444443 66.03116666666668Q20.71986111111111 65.80891666666668 20.35297222222222 65.80891666666668Q20.05663888888889 65.80891666666668 19.807930555555558 65.95531944444446Q19.55922222222222 66.10172222222224 19.414583333333333 66.36101388888889Q19.269944444444445 66.62030555555556 19.269944444444445 66.94486111111112Q19.269944444444445 67.26941666666667 19.414583333333333 67.52870833333334Q19.55922222222222 67.78800000000001 19.807930555555558 67.93440277777779Q20.05663888888889 68.08080555555556 20.35297222222222 68.08080555555556Q20.723388888888888 68.08080555555556 21.044416666666667 67.86208333333335Q21.062055555555556 67.84797222222223 21.086750000000002 67.84797222222223Q21.122027777777777 67.84797222222223 21.143194444444443 67.87619444444445Q21.157305555555556 67.89383333333335 21.157305555555556 67.91852777777778Q21.157305555555556 67.95380555555556 21.129083333333334 67.97497222222223Q20.991500000000002 68.07375 20.774541666666668 68.14430555555556Q20.557583333333334 68.21486111111112 20.35297222222222 68.21486111111112Q20.017833333333332 68.21486111111112 19.735611111111112 68.04905555555555Q19.453388888888888 67.88325 19.28758333333333 67.59220833333333Q19.121777777777776 67.30116666666667 19.121777777777776 66.94486111111112Q19.121777777777776 66.58855555555556 19.28758333333333 66.29751388888889Q19.453388888888888 66.00647222222223 19.735611111111112 65.84066666666666Q20.017833333333332 65.67486111111111 20.35297222222222 65.67486111111111Q20.56463888888889 65.67486111111111 20.763958333333335 65.73836111111112Q20.963277777777776 65.80186111111112 21.125555555555557 65.91475000000001Q21.157305555555556 65.93944444444445 21.157305555555556 65.97119444444445ZM23.446833333333334 68.11255555555556Q23.446833333333334 68.14430555555556 23.425666666666668 68.16194444444446Q23.404500000000002 68.17958333333334 23.37275 68.17958333333334Q23.348055555555558 68.17958333333334 23.32865277777778 68.16723611111112Q23.309250000000002 68.15488888888889 23.302194444444446 68.13372222222223L23.005861111111113 67.40700000000001L23.00938888888889 67.41405555555556H21.827583333333333L21.541833333333333 68.13372222222223Q21.524194444444447 68.17958333333334 21.478333333333335 68.17958333333334Q21.446583333333333 68.17958333333334 21.427180555555555 68.16194444444446Q21.407777777777778 68.14430555555556 21.40425 68.11961111111111Q21.400722222222225 68.1055 21.407777777777778 68.08433333333335L22.35675 65.74894444444445Q22.367333333333335 65.72072222222224 22.383208333333336 65.7119027777778Q22.399083333333333 65.70308333333334 22.42377777777778 65.70308333333334Q22.476694444444444 65.70308333333334 22.494333333333334 65.74894444444445L23.443305555555558 68.08433333333335Q23.446833333333334 68.09491666666668 23.446833333333334 68.11255555555556ZM21.884027777777778 67.27294444444445H22.952944444444444L22.413194444444446 65.94297222222222ZM25.415333333333333 65.80891666666668 24.611 66.90252777777779V68.10902777777778Q24.611 68.13725000000001 24.589833333333335 68.15841666666668Q24.56866666666667 68.17958333333334 24.536916666666666 68.17958333333334Q24.505166666666668 68.17958333333334 24.484 68.15841666666668Q24.462833333333336 68.13725000000001 24.462833333333336 68.10902777777778V66.9166388888889L23.654972222222224 65.80891666666668Q23.64086111111111 65.79127777777778 23.64086111111111 65.76305555555557Q23.64086111111111 65.73836111111112 23.66379166666667 65.71719444444446Q23.686722222222222 65.69602777777779 23.714944444444445 65.69602777777779Q23.75375 65.69602777777779 23.774916666666666 65.72777777777779L24.536916666666666 66.76847222222223L25.298916666666667 65.72777777777779Q25.320083333333333 65.69602777777779 25.358888888888888 65.69602777777779Q25.39063888888889 65.69602777777779 25.410041666666668 65.71895833333335Q25.429444444444446 65.7418888888889 25.429444444444446 65.76305555555557Q25.429444444444446 65.78069444444445 25.415333333333333 65.80891666666668Z"/>
<path id="root_label" d="M17.78475 89.1055Q17.78475 89.13725000000001 17.76534722222222 89.1566527777778Q17.745944444444444 89.17605555555556 17.71772222222222 89.17605555555556Q17.696555555555555 89.17605555555556 17.685972222222222 89.16900000000001Q17.590722222222222 89.11608333333334 17.534277777777778 88.99084722222223Q17.477833333333333 88.86561111111112 17.477833333333333 88.57986111111111Q17.477833333333333 88.29058333333334 17.322611111111108 88.18298611111112Q17.167388888888887 88.0753888888889 16.962777777777777 88.0753888888889H16.137277777777776V89.10902777777778Q16.137277777777776 89.13725000000001 16.11611111111111 89.15841666666668Q16.094944444444444 89.17958333333334 16.063194444444445 89.17958333333334Q16.031444444444443 89.17958333333334 16.010277777777777 89.15841666666668Q15.98911111111111 89.13725000000001 15.98911111111111 89.10902777777778V86.78069444444445Q15.98911111111111 86.75247222222222 16.010277777777777 86.73130555555556Q16.031444444444443 86.71013888888889 16.059666666666665 86.71013888888889H16.991Q17.19561111111111 86.71013888888889 17.35436111111111 86.79304166666668Q17.51311111111111 86.87594444444446 17.601305555555555 87.02058333333335Q17.6895 87.16522222222223 17.6895 87.34866666666667Q17.6895 87.58502777777778 17.56426388888889 87.75436111111111Q17.439027777777778 87.92369444444445 17.237944444444445 87.98366666666668Q17.40727777777778 88.03658333333334 17.51663888888889 88.19356944444445Q17.626 88.35055555555556 17.626 88.57986111111111Q17.626 88.81622222222222 17.655986111111112 88.90970833333333Q17.685972222222222 89.00319444444445 17.745944444444444 89.042Q17.78475 89.06669444444445 17.78475 89.1055ZM17.00863888888889 87.93427777777778Q17.230888888888888 87.91311111111112 17.386111111111113 87.7578888888889Q17.541333333333334 87.60266666666668 17.541333333333334 87.35219444444445Q17.541333333333334 87.13347222222222 17.386111111111113 86.99236111111111Q17.230888888888888 86.85125000000001 16.97336111111111 86.85125000000001H16.137277777777776V87.93427777777778ZM19.333444444444446 89.21486111111112Q18.99125 89.21486111111112 18.72313888888889 89.05434722222223Q18.45502777777778 88.89383333333335 18.305097222222223 88.60455555555556Q18.155166666666666 88.31527777777778 18.155166666666666 87.94486111111112Q18.155166666666666 87.57444444444445 18.305097222222223 87.28516666666667Q18.45502777777778 86.9958888888889 18.72313888888889 86.835375Q18.99125 86.67486111111111 19.333444444444446 86.67486111111111Q19.67563888888889 86.67486111111111 19.94375 86.835375Q20.211861111111112 86.9958888888889 20.36179166666667 87.28516666666667Q20.511722222222225 87.57444444444445 20.511722222222225 87.94486111111112Q20.511722222222225 88.31527777777778 20.36179166666667 88.60455555555556Q20.211861111111112 88.89383333333335 19.94375 89.05434722222223Q19.67563888888889 89.21486111111112 19.333444444444446 89.21486111111112ZM19.333444444444446 86.81597222222223Q19.033583333333336 86.81597222222223 18.798986111111113 86.95708333333334Q18.56438888888889 87.09819444444445 18.433861111111113 87.35572222222223Q18.303333333333335 87.61325000000001 18.303333333333335 87.94486111111112Q18.303333333333335 88.27647222222222 18.433861111111113 88.534Q18.56438888888889 88.79152777777779 18.798986111111113 88.9326388888889Q19.033583333333336 89.07375 19.333444444444446 89.07375Q19.633305555555555 89.07375 19.86790277777778 88.9326388888889Q20.102500000000003 88.79152777777779 20.233027777777778 88.534Q20.363555555555557 88.27647222222222 20.363555555555557 87.94486111111112Q20.363555555555557 87.61325000000001 20.233027777777778 87.35572222222223Q20.102500000000003 87.09819444444445 19.86790277777778 86.95708333333334Q19.633305555555555 86.81597222222223 19.333444444444446 86.81597222222223ZM22.04277777777778 89.21486111111112Q21.700583333333334 89.21486111111112 21.432472222222223 89.05434722222223Q21.164361111111113 88.89383333333335 21.014430555555556 88.60455555555556Q20.8645 88.31527777777778 20.8645 87.94486111111112Q20.8645 87.57444444444445 21.014430555555556 87.28516666666667Q21.164361111111113 86.9958888888889 21.432472222222223 86.835375Q21.700583333333334 86.67486111111111 22.04277777777778 86.67486111111111Q22.384972222222224 86.67486111111111 22.653083333333335 86.835375Q22.921194444444446 86.9958888888889 23.071125000000002 87.28516666666667Q23.22105555555556 87.57444444444445 23.22105555555556 87.94486111111112Q23.22105555555556 88.31527777777778 23.071125000000002 88.60455555555556Q22.921194444444446 88.89383333333335 22.653083333333335 89.05434722222223Q22.384972222222224 89.21486111111112 22.04277777777778 89.21486111111112ZM22.04277777777778 86.81597222222223Q21.74291666666667 86.81597222222223 21.508319444444446 86.95708333333334Q21.273722222222222 87.09819444444445 21.143194444444447 87.35572222222223Q21.012666666666668 87.61325000000001 21.012666666666668 87.94486111111112Q21.012666666666668 88.27647222222222 21.143194444444447 88.534Q21.273722222222222 88.79152777777779 21.508319444444446 88.9326388888889Q21.74291666666667 89.07375 22.04277777777778 89.07375Q22.34263888888889 89.07375 22.577236111111112 88.9326388888889Q22.811833333333336 88.79152777777779 22.94236111111111 88.534Q23.07288888888889 88.27647222222222 23.07288888888889 87.94486111111112Q23.07288888888889 87.61325000000001 22.94236111111111 87.35572222222223Q22.811833333333336 87.09819444444445 22.577236111111112 86.95708333333334Q22.34263888888889 86.81597222222223 22.04277777777778 86.81597222222223ZM25.376527777777778 86.77716666666667Q25.376527777777778 86.80891666666668 25.357125 86.82655555555556Q25.337722222222222 86.84419444444445 25.305972222222223 86.84419444444445H24.51927777777778V89.10902777777778Q24.51927777777778 89.13725000000001 24.498111111111115 89.15841666666668Q24.476944444444445 89.17958333333334 24.448722222222223 89.17958333333334Q24.416972222222224 89.17958333333334 24.397569444444446 89.15841666666668Q24.37816666666667 89.13725000000001 24.37816666666667 89.10902777777778V86.84419444444445H23.591472222222222Q23.56325 86.84419444444445 23.542083333333334 86.82479166666667Q23.52091666666667 86.8053888888889 23.52091666666667 86.77716666666667Q23.52091666666667 86.74894444444445 23.542083333333334 86.72954166666668Q23.56325 86.71013888888889 23.591472222222222 86.71013888888889H25.305972222222223Q25.334194444444446 86.71013888888889 25.35536111111111 86.72954166666668Q25.376527777777778 86.74894444444445 25.376527777777778 86.77716666666667Z"/>
<path id="vortex_label" d="M37.704861111111114 13.27363888888889Q37.704861111111114 13.287749999999999 37.697805555555554 13.308916666666667L36.73119444444445 15.633722222222222Q36.710027777777775 15.679583333333333 36.66416666666667 15.679583333333333Q36.643 15.679583333333333 36.62359722222222 15.667236111111112Q36.604194444444445 15.65488888888889 36.59713888888889 15.633722222222222L35.63758333333333 13.3195Q35.627 13.298333333333334 35.627 13.277166666666666Q35.627 13.248944444444444 35.64640277777778 13.229541666666666Q35.66580555555556 13.210138888888888 35.69402777777778 13.210138888888888Q35.746944444444445 13.210138888888888 35.77163888888889 13.266583333333333L36.66769444444444 15.422055555555556L37.567277777777775 13.256Q37.591972222222225 13.210138888888888 37.63430555555556 13.210138888888888Q37.66605555555556 13.210138888888888 37.68545833333334 13.227777777777778Q37.704861111111114 13.245416666666667 37.704861111111114 13.27363888888889ZM39.183 15.71486111111111Q38.840805555555555 15.71486111111111 38.572694444444444 15.554347222222223Q38.30458333333333 15.393833333333333 38.15465277777778 15.104555555555557Q38.00472222222222 14.815277777777778 38.00472222222222 14.444861111111111Q38.00472222222222 14.074444444444445 38.15465277777778 13.785166666666667Q38.30458333333333 13.495888888888889 38.572694444444444 13.335374999999999Q38.840805555555555 13.174861111111111 39.183 13.174861111111111Q39.525194444444445 13.174861111111111 39.793305555555555 13.335374999999999Q40.061416666666666 13.495888888888889 40.21134722222222 13.785166666666667Q40.36127777777778 14.074444444444445 40.36127777777778 14.444861111111111Q40.36127777777778 14.815277777777778 40.21134722222222 15.104555555555557Q40.061416666666666 15.393833333333333 39.793305555555555 15.554347222222223Q39.525194444444445 15.71486111111111 39.183 15.71486111111111ZM39.183 13.315972222222221Q38.88313888888889 13.315972222222221 38.64854166666667 13.457083333333333Q38.413944444444446 13.598194444444445 38.28341666666667 13.855722222222223Q38.15288888888889 14.11325 38.15288888888889 14.444861111111111Q38.15288888888889 14.776472222222223 38.28341666666667 15.034Q38.413944444444446 15.291527777777778 38.64854166666667 15.432638888888889Q38.88313888888889 15.57375 39.183 15.57375Q39.48286111111111 15.57375 39.71745833333333 15.432638888888889Q39.95205555555555 15.291527777777778 40.08258333333333 15.034Q40.21311111111111 14.776472222222223 40.21311111111111 14.444861111111111Q40.21311111111111 14.11325 40.08258333333333 13.855722222222223Q39.95205555555555 13.598194444444445 39.71745833333333 13.457083333333333Q39.48286111111111 13.315972222222221 39.183 13.315972222222221ZM42.686083333333336 15.6055Q42.686083333333336 15.63725 42.66668055555556 15.656652777777778Q42.64727777777778 15.676055555555555 42.619055555555555 15.676055555555555Q42.59788888888889 15.676055555555555 42.58730555555555 15.669Q42.49205555555555 15.616083333333334 42.43561111111111 15.490847222222222Q42.37916666666666 15.36561111111111 42.37916666666666 15.07986111111111Q42.37916666666666 14.790583333333334 42.22394444444444 14.682986111111111Q42.06872222222222 14.575388888888888 41.864111111111114 14.575388888888888H41.03861111111111V15.609027777777778Q41.03861111111111 15.63725 41.01744444444444 15.658416666666668Q40.99627777777778 15.679583333333333 40.964527777777775 15.679583333333333Q40.93277777777778 15.679583333333333 40.911611111111114 15.658416666666668Q40.89044444444444 15.63725 40.89044444444444 15.609027777777778V13.280694444444444Q40.89044444444444 13.252472222222222 40.911611111111114 13.231305555555554Q40.93277777777778 13.210138888888888 40.961 13.210138888888888H41.89233333333333Q42.096944444444446 13.210138888888888 42.255694444444444 13.293041666666667Q42.41444444444444 13.375944444444444 42.50263888888889 13.520583333333335Q42.590833333333336 13.665222222222223 42.590833333333336 13.848666666666666Q42.590833333333336 14.085027777777778 42.46559722222222 14.254361111111113Q42.34036111111111 14.423694444444445 42.13927777777778 14.483666666666666Q42.30861111111111 14.536583333333333 42.41797222222222 14.693569444444444Q42.52733333333333 14.850555555555555 42.52733333333333 15.07986111111111Q42.52733333333333 15.316222222222223 42.557319444444445 15.409708333333334Q42.58730555555555 15.503194444444444 42.64727777777778 15.542Q42.686083333333336 15.566694444444444 42.686083333333336 15.6055ZM41.90997222222222 14.434277777777778Q42.132222222222225 14.41311111111111 42.287444444444446 14.257888888888889Q42.44266666666667 14.102666666666668 42.44266666666667 13.852194444444445Q42.44266666666667 13.633472222222222 42.287444444444446 13.492361111111112Q42.132222222222225 13.35125 41.874694444444444 13.35125H41.03861111111111V14.434277777777778ZM44.85919444444445 13.277166666666666Q44.85919444444445 13.308916666666667 44.83979166666667 13.326555555555554Q44.82038888888889 13.344194444444444 44.78863888888889 13.344194444444444H44.00194444444445V15.609027777777778Q44.00194444444445 15.63725 43.98077777777778 15.658416666666668Q43.959611111111116 15.679583333333333 43.93138888888889 15.679583333333333Q43.89963888888889 15.679583333333333 43.88023611111111 15.658416666666668Q43.86083333333333 15.63725 43.86083333333333 15.609027777777778V13.344194444444444H43.07413888888889Q43.04591666666667 13.344194444444444 43.02475 13.324791666666666Q43.00358333333333 13.305388888888888 43.00358333333333 13.277166666666666Q43.00358333333333 13.248944444444444 43.02475 13.229541666666666Q43.04591666666667 13.210138888888888 43.07413888888889 13.210138888888888H44.78863888888889Q44.81686111111111 13.210138888888888 44.83802777777778 13.229541666666666Q44.85919444444445 13.248944444444444 44.85919444444445 13.277166666666666ZM46.80652777777778 15.609027777777778Q46.80652777777778 15.640777777777778 46.785361111111115 15.660180555555556Q46.76419444444444 15.679583333333333 46.73597222222222 15.679583333333333H45.406Q45.37777777777778 15.679583333333333 45.35661111111111 15.658416666666668Q45.33544444444444 15.63725 45.33544444444444 15.609027777777778V13.280694444444444Q45.33544444444444 13.252472222222222 45.35661111111111 13.231305555555554Q45.37777777777778 13.210138888888888 45.406 13.210138888888888H46.73597222222222Q46.76419444444444 13.210138888888888 46.785361111111115 13.231305555555554Q46.80652777777778 13.252472222222222 46.80652777777778 13.280694444444444Q46.80652777777778 13.312444444444445 46.785361111111115 13.331847222222223Q46.76419444444444 13.35125 46.73597222222222 13.35125H45.48361111111111V14.3355H46.577222222222225Q46.605444444444444 14.3355 46.62661111111111 14.356666666666666Q46.647777777777776 14.377833333333333 46.647777777777776 14.406055555555556Q46.647777777777776 14.437805555555556 46.62661111111111 14.457208333333334Q46.605444444444444 14.476611111111112 46.577222222222225 14.476611111111112H45.48361111111111V15.538472222222222H46.73597222222222Q46.76419444444444 15.538472222222222 46.785361111111115 15.559638888888887Q46.80652777777778 15.580805555555555 46.80652777777778 15.609027777777778ZM48.937305555555554 15.577277777777779Q48.95494444444444 15.601972222222223 48.95494444444444 15.61961111111111Q48.95494444444444 15.651361111111111 48.93377777777778 15.670763888888889Q48.91261111111111 15.690166666666666 48.88086111111111 15.690166666666666Q48.842055555555554 15.690166666666666 48.824416666666664 15.661944444444444L48.016555555555556 14.561277777777779L47.21222222222222 15.661944444444444Q47.194583333333334 15.690166666666666 47.159305555555555 15.690166666666666Q47.12755555555556 15.690166666666666 47.10991666666667 15.670763888888889Q47.09227777777778 15.651361111111111 47.09227777777778 15.630194444444445Q47.09227777777778 15.612555555555556 47.10991666666667 15.584333333333333L47.938944444444445 14.451916666666667L47.10286111111111 13.312444444444445Q47.088750000000005 13.294805555555556 47.088750000000005 13.270111111111111Q47.088750000000005 13.23836111111111 47.10991666666667 13.218958333333333Q47.131083333333336 13.199555555555555 47.159305555555555 13.199555555555555Q47.20163888888889 13.199555555555555 47.219277777777776 13.227777777777778L48.02713888888889 14.331972222222223L48.831472222222224 13.22425Q48.85263888888889 13.196027777777779 48.88438888888889 13.196027777777779Q48.91613888888889 13.196027777777779 48.935541666666666 13.211902777777778Q48.95494444444444 13.227777777777778 48.95494444444444 13.252472222222222Q48.95494444444444 13.277166666666666 48.937305555555554 13.301861111111112L48.10827777777778 14.444861111111111Z"/>
<path id="center_label" d="M37.71191666666667 34.47119444444444Q37.71191666666667 34.49941666666667 37.697805555555554 34.51705555555556Q37.67663888888889 34.54527777777778 37.644888888888886 34.54527777777778Q37.63077777777778 34.54527777777778 37.602555555555554 34.531166666666664Q37.27447222222222 34.30891666666667 36.907583333333335 34.30891666666667Q36.61125 34.30891666666667 36.362541666666665 34.45531944444444Q36.11383333333333 34.60172222222222 35.96919444444444 34.86101388888889Q35.824555555555555 35.120305555555554 35.824555555555555 35.44486111111111Q35.824555555555555 35.769416666666665 35.96919444444444 36.02870833333333Q36.11383333333333 36.288 36.362541666666665 36.43440277777778Q36.61125 36.58080555555556 36.907583333333335 36.58080555555556Q37.278 36.58080555555556 37.59902777777778 36.36208333333333Q37.61666666666667 36.347972222222225 37.64136111111111 36.347972222222225Q37.67663888888889 36.347972222222225 37.697805555555554 36.376194444444444Q37.71191666666667 36.39383333333333 37.71191666666667 36.418527777777776Q37.71191666666667 36.453805555555554 37.68369444444444 36.47497222222222Q37.54611111111111 36.57375 37.32915277777778 36.644305555555555Q37.11219444444444 36.71486111111111 36.907583333333335 36.71486111111111Q36.57244444444444 36.71486111111111 36.290222222222226 36.549055555555555Q36.008 36.38325 35.842194444444445 36.09220833333333Q35.67638888888889 35.80116666666667 35.67638888888889 35.44486111111111Q35.67638888888889 35.08855555555556 35.842194444444445 34.797513888888886Q36.008 34.50647222222222 36.290222222222226 34.340666666666664Q36.57244444444444 34.17486111111111 36.907583333333335 34.17486111111111Q37.11925 34.17486111111111 37.31856944444445 34.23836111111111Q37.51788888888889 34.30186111111111 37.680166666666665 34.41475Q37.71191666666667 34.43944444444445 37.71191666666667 34.47119444444444ZM39.65925 36.609027777777776Q39.65925 36.64077777777778 39.63808333333333 36.660180555555556Q39.61691666666666 36.67958333333333 39.58869444444444 36.67958333333333H38.25872222222222Q38.2305 36.67958333333333 38.20933333333333 36.65841666666667Q38.18816666666666 36.63725 38.18816666666666 36.609027777777776V34.28069444444444Q38.18816666666666 34.252472222222224 38.20933333333333 34.23130555555556Q38.2305 34.21013888888889 38.25872222222222 34.21013888888889H39.58869444444444Q39.61691666666666 34.21013888888889 39.63808333333333 34.23130555555556Q39.65925 34.252472222222224 39.65925 34.28069444444444Q39.65925 34.312444444444445 39.63808333333333 34.33184722222222Q39.61691666666666 34.35125 39.58869444444444 34.35125H38.33633333333333V35.3355H39.429944444444445Q39.45816666666666 35.3355 39.47933333333333 35.35666666666667Q39.500499999999995 35.377833333333335 39.500499999999995 35.406055555555554Q39.500499999999995 35.437805555555556 39.47933333333333 35.457208333333334Q39.45816666666666 35.47661111111111 39.429944444444445 35.47661111111111H38.33633333333333V36.538472222222225H39.58869444444444Q39.61691666666666 36.538472222222225 39.63808333333333 36.55963888888889Q39.65925 36.58080555555556 39.65925 36.609027777777776ZM42.0405 34.277166666666666V36.60197222222222Q42.0405 36.64077777777778 42.019333333333336 36.660180555555556Q41.99816666666666 36.67958333333333 41.96641666666667 36.67958333333333Q41.93113888888889 36.67958333333333 41.90997222222222 36.651361111111115L40.322472222222224 34.48177777777778V36.61961111111111Q40.322472222222224 36.644305555555555 40.303069444444446 36.661944444444444Q40.28366666666666 36.67958333333333 40.25544444444444 36.67958333333333Q40.22369444444444 36.67958333333333 40.20605555555555 36.661944444444444Q40.18841666666666 36.644305555555555 40.18841666666666 36.61961111111111V34.28069444444444Q40.18841666666666 34.245416666666664 40.20781944444444 34.227777777777774Q40.227222222222224 34.21013888888889 40.251916666666666 34.21013888888889Q40.28366666666666 34.21013888888889 40.304833333333335 34.234833333333334L41.906444444444446 36.418527777777776V34.277166666666666Q41.906444444444446 34.24894444444445 41.925847222222224 34.22954166666667Q41.94525 34.21013888888889 41.97347222222222 34.21013888888889Q42.00522222222222 34.21013888888889 42.02286111111111 34.22954166666667Q42.0405 34.24894444444445 42.0405 34.277166666666666ZM44.37236111111111 34.277166666666666Q44.37236111111111 34.30891666666667 44.35295833333333 34.32655555555556Q44.333555555555556 34.34419444444445 44.30180555555555 34.34419444444445H43.51511111111111V36.609027777777776Q43.51511111111111 36.63725 43.493944444444445 36.65841666666667Q43.47277777777778 36.67958333333333 43.44455555555555 36.67958333333333Q43.41280555555555 36.67958333333333 43.39340277777777 36.65841666666667Q43.373999999999995 36.63725 43.373999999999995 36.609027777777776V34.34419444444445H42.58730555555555Q42.559083333333334 34.34419444444445 42.53791666666666 34.32479166666667Q42.516749999999995 34.30538888888889 42.516749999999995 34.277166666666666Q42.516749999999995 34.24894444444445 42.53791666666666 34.22954166666667Q42.559083333333334 34.21013888888889 42.58730555555555 34.21013888888889H44.30180555555555Q44.33002777777777 34.21013888888889 44.351194444444445 34.22954166666667Q44.37236111111111 34.24894444444445 44.37236111111111 34.277166666666666ZM46.319694444444444 36.609027777777776Q46.319694444444444 36.64077777777778 46.29852777777778 36.660180555555556Q46.277361111111105 36.67958333333333 46.249138888888886 36.67958333333333H44.91916666666666Q44.89094444444444 36.67958333333333 44.86977777777777 36.65841666666667Q44.848611111111104 36.63725 44.848611111111104 36.609027777777776V34.28069444444444Q44.848611111111104 34.252472222222224 44.86977777777777 34.23130555555556Q44.89094444444444 34.21013888888889 44.91916666666666 34.21013888888889H46.249138888888886Q46.277361111111105 34.21013888888889 46.29852777777778 34.23130555555556Q46.319694444444444 34.252472222222224 46.319694444444444 34.28069444444444Q46.319694444444444 34.312444444444445 46.29852777777778 34.33184722222222Q46.277361111111105 34.35125 46.249138888888886 34.35125H44.99677777777777V35.3355H46.09038888888889Q46.11861111111111 35.3355 46.13977777777777 35.35666666666667Q46.16094444444444 35.377833333333335 46.16094444444444 35.406055555555554Q46.16094444444444 35.437805555555556 46.13977777777777 35.457208333333334Q46.11861111111111 35.47661111111111 46.09038888888889 35.47661111111111H44.99677777777777V36.538472222222225H46.249138888888886Q46.277361111111105 36.538472222222225 46.29852777777778 36.55963888888889Q46.319694444444444 36.58080555555556 46.319694444444444 36.609027777777776ZM48.6445 36.6055Q48.6445 36.63725 48.62509722222222 36.65665277777778Q48.605694444444445 36.67605555555556 48.57747222222222 36.67605555555556Q48.556305555555554 36.67605555555556 48.54572222222222 36.669Q48.45047222222222 36.616083333333336 48.39402777777777 36.49084722222223Q48.33758333333333 36.365611111111114 48.33758333333333 36.079861111111114Q48.33758333333333 35.79058333333333 48.182361111111106 35.682986111111106Q48.027138888888885 35.57538888888889 47.82252777777778 35.57538888888889H46.997027777777774V36.609027777777776Q46.997027777777774 36.63725 46.97586111111111 36.65841666666667Q46.95469444444444 36.67958333333333 46.92294444444444 36.67958333333333Q46.891194444444444 36.67958333333333 46.87002777777778 36.65841666666667Q46.848861111111106 36.63725 46.848861111111106 36.609027777777776V34.28069444444444Q46.848861111111106 34.252472222222224 46.87002777777778 34.23130555555556Q46.891194444444444 34.21013888888889 46.91941666666666 34.21013888888889H47.85075Q48.05536111111111 34.21013888888889 48.21411111111111 34.29304166666667Q48.372861111111106 34.37594444444444 48.461055555555554 34.520583333333335Q48.54925 34.66522222222222 48.54925 34.84866666666667Q48.54925 35.085027777777775 48.42401388888889 35.25436111111111Q48.29877777777777 35.42369444444444 48.09769444444444 35.483666666666664Q48.26702777777778 35.53658333333333 48.37638888888888 35.69356944444445Q48.485749999999996 35.85055555555556 48.485749999999996 36.079861111111114Q48.485749999999996 36.31622222222222 48.51573611111111 36.409708333333334Q48.54572222222222 36.503194444444446 48.605694444444445 36.542Q48.6445 36.566694444444444 48.6445 36.6055ZM47.86838888888889 35.43427777777778Q48.09063888888889 35.413111111111114 48.24586111111111 35.257888888888886Q48.40108333333333 35.102666666666664 48.40108333333333 34.85219444444444Q48.40108333333333 34.633472222222224 48.24586111111111 34.49236111111111Q48.09063888888889 34.35125 47.83311111111111 34.35125H46.997027777777774V35.43427777777778Z"/>
<path id="angle_label" d="M37.66605555555556 57.61255555555555Q37.66605555555556 57.644305555555555 37.644888888888886 57.661944444444444Q37.62372222222222 57.67958333333333 37.591972222222225 57.67958333333333Q37.567277777777775 57.67958333333333 37.547875 57.66723611111111Q37.52847222222222 57.65488888888889 37.52141666666667 57.633722222222225L37.22508333333333 56.907000000000004L37.228611111111114 56.91405555555556H36.04680555555556L35.76105555555556 57.633722222222225Q35.74341666666667 57.67958333333333 35.69755555555555 57.67958333333333Q35.66580555555556 57.67958333333333 35.64640277777778 57.661944444444444Q35.627 57.644305555555555 35.62347222222222 57.61961111111111Q35.61994444444444 57.6055 35.627 57.58433333333333L36.57597222222222 55.24894444444445Q36.586555555555556 55.22072222222222 36.60243055555556 55.21190277777778Q36.61830555555556 55.20308333333333 36.643 55.20308333333333Q36.69591666666667 55.20308333333333 36.71355555555556 55.24894444444445L37.662527777777775 57.58433333333333Q37.66605555555556 57.59491666666667 37.66605555555556 57.61255555555555ZM36.10325 56.77294444444444H37.17216666666667L36.632416666666664 55.442972222222224ZM39.99438888888889 55.277166666666666V57.60197222222222Q39.99438888888889 57.64077777777778 39.97322222222222 57.660180555555556Q39.95205555555555 57.67958333333333 39.92030555555556 57.67958333333333Q39.88502777777778 57.67958333333333 39.86386111111111 57.651361111111115L38.276361111111115 55.48177777777778V57.61961111111111Q38.276361111111115 57.644305555555555 38.25695833333333 57.661944444444444Q38.23755555555555 57.67958333333333 38.20933333333333 57.67958333333333Q38.17758333333333 57.67958333333333 38.15994444444444 57.661944444444444Q38.14230555555555 57.644305555555555 38.14230555555555 57.61961111111111V55.28069444444444Q38.14230555555555 55.245416666666664 38.16170833333334 55.227777777777774Q38.181111111111115 55.21013888888889 38.20580555555556 55.21013888888889Q38.23755555555555 55.21013888888889 38.258722222222225 55.234833333333334L39.86033333333333 57.418527777777776V55.277166666666666Q39.86033333333333 55.24894444444445 39.879736111111114 55.22954166666667Q39.89913888888889 55.21013888888889 39.92736111111111 55.21013888888889Q39.95911111111111 55.21013888888889 39.97675 55.22954166666667Q39.99438888888889 55.24894444444445 39.99438888888889 55.277166666666666ZM42.56613888888889 56.533055555555556V57.418527777777776Q42.56613888888889 57.460861111111114 42.53438888888889 57.48202777777778Q42.37211111111111 57.591388888888886 42.17984722222222 57.653125Q41.98758333333333 57.71486111111111 41.79002777777778 57.71486111111111Q41.42666666666667 57.71486111111111 41.13915277777778 57.55081944444444Q40.851638888888886 57.38677777777778 40.68759722222222 57.0975Q40.523555555555554 56.80822222222222 40.523555555555554 56.44486111111111Q40.523555555555554 56.0815 40.68759722222222 55.79222222222222Q40.851638888888886 55.502944444444445 41.13915277777778 55.338902777777776Q41.42666666666667 55.17486111111111 41.79002777777778 55.17486111111111Q41.98758333333333 55.17486111111111 42.165736111111116 55.22248611111111Q42.34388888888889 55.27011111111111 42.485 55.36536111111111Q42.51675 55.38652777777778 42.51675 55.425333333333334Q42.51675 55.45708333333333 42.49381944444444 55.476486111111114Q42.47088888888889 55.49588888888889 42.44972222222222 55.49588888888889Q42.43208333333333 55.49588888888889 42.40386111111111 55.48177777777778Q42.107527777777776 55.31597222222222 41.79002777777778 55.31597222222222Q41.465472222222225 55.31597222222222 41.21147222222223 55.460611111111106Q40.95747222222222 55.60525 40.81459722222222 55.86277777777778Q40.67172222222222 56.120305555555554 40.67172222222222 56.44486111111111Q40.67172222222222 56.769416666666665 40.81459722222222 57.02694444444444Q40.95747222222222 57.28447222222222 41.21147222222223 57.42911111111111Q41.465472222222225 57.57375 41.79002777777778 57.57375Q41.952305555555554 57.57375 42.119875 57.52259722222222Q42.287444444444446 57.471444444444444 42.42502777777778 57.38677777777778V56.603611111111114H41.79002777777778Q41.761805555555554 56.603611111111114 41.74063888888889 56.58244444444445Q41.71947222222222 56.561277777777775 41.71947222222222 56.533055555555556Q41.71947222222222 56.501305555555554 41.74063888888889 56.481902777777776Q41.761805555555554 56.4625 41.79002777777778 56.4625H42.495583333333336Q42.52733333333333 56.4625 42.54673611111111 56.483666666666664Q42.56613888888889 56.50483333333333 42.56613888888889 56.533055555555556ZM44.58402777777778 57.609027777777776Q44.58402777777778 57.64077777777778 44.56286111111111 57.660180555555556Q44.541694444444445 57.67958333333333 44.51347222222222 57.67958333333333H43.218777777777774Q43.18702777777778 57.67958333333333 43.167625 57.65841666666667Q43.148222222222216 57.63725 43.148222222222216 57.609027777777776V55.28069444444444Q43.148222222222216 55.252472222222224 43.16938888888889 55.23130555555556Q43.190555555555555 55.21013888888889 43.22230555555555 55.21013888888889Q43.25405555555555 55.21013888888889 43.27522222222222 55.23130555555556Q43.296388888888885 55.252472222222224 43.296388888888885 55.28069444444444V57.538472222222225H44.51347222222222Q44.541694444444445 57.538472222222225 44.56286111111111 57.55963888888889Q44.58402777777778 57.58080555555556 44.58402777777778 57.609027777777776ZM46.46080555555555 57.609027777777776Q46.46080555555555 57.64077777777778 46.43963888888888 57.660180555555556Q46.41847222222221 57.67958333333333 46.390249999999995 57.67958333333333H45.06027777777777Q45.03205555555555 57.67958333333333 45.010888888888886 57.65841666666667Q44.98972222222221 57.63725 44.98972222222221 57.609027777777776V55.28069444444444Q44.98972222222221 55.252472222222224 45.010888888888886 55.23130555555556Q45.03205555555555 55.21013888888889 45.06027777777777 55.21013888888889H46.390249999999995Q46.41847222222221 55.21013888888889 46.43963888888888 55.23130555555556Q46.46080555555555 55.252472222222224 46.46080555555555 55.28069444444444Q46.46080555555555 55.312444444444445 46.43963888888888 55.33184722222222Q46.41847222222221 55.35125 46.390249999999995 55.35125H45.13788888888888V56.3355H46.2315Q46.259722222222216 56.3355 46.28088888888888 56.35666666666667Q46.30205555555555 56.377833333333335 46.30205555555555 56.406055555555554Q46.30205555555555 56.437805555555556 46.28088888888888 56.457208333333334Q46.259722222222216 56.47661111111111 46.2315 56.47661111111111H45.13788888888888V57.538472222222225H46.390249999999995Q46.41847222222221 57.538472222222225 46.43963888888888 57.55963888888889Q46.46080555555555 57.58080555555556 46.46080555555555 57.609027777777776Z"/>
<path id="spring_label" d="M35.64463888888889 78.34444444444445Q35.62347222222222 78.32327777777779 35.62347222222222 78.29152777777779Q35.62347222222222 78.26330555555556 35.64816666666667 78.23684722222222Q35.67286111111111 78.2103888888889 35.70108333333334 78.2103888888889Q35.73283333333333 78.2103888888889 35.76105555555556 78.2421388888889Q35.89863888888889 78.40441666666668 36.087375 78.48908333333334Q36.27611111111111 78.57375 36.48425 78.57375Q36.75588888888889 78.57375 36.93227777777778 78.44322222222223Q37.108666666666664 78.31269444444445 37.108666666666664 78.09750000000001Q37.10513888888889 77.92816666666667 37.01694444444445 77.81880555555557Q36.92875 77.70944444444446 36.79998611111111 77.64418055555556Q36.67122222222222 77.57891666666667 36.448972222222224 77.49777777777778Q36.205555555555556 77.40605555555557 36.06973611111111 77.33550000000001Q35.93391666666667 77.26494444444445 35.83690277777778 77.13441666666668Q35.73988888888889 77.0038888888889 35.73988888888889 76.79222222222224Q35.73988888888889 76.61936111111112 35.83513888888889 76.47825Q35.93038888888889 76.3371388888889 36.10677777777778 76.256Q36.283166666666666 76.17486111111111 36.516 76.17486111111111Q36.72413888888889 76.17486111111111 36.91111111111111 76.25070833333334Q37.098083333333335 76.32655555555556 37.20744444444444 76.4641388888889Q37.24272222222222 76.51352777777778 37.24272222222222 76.53822222222223Q37.24272222222222 76.56644444444446 37.21626388888889 76.58937500000002Q37.18980555555556 76.61230555555557 37.158055555555556 76.61230555555557Q37.12983333333333 76.61230555555557 37.11219444444444 76.59113888888889Q37.013416666666664 76.4641388888889 36.85819444444444 76.39005555555556Q36.70297222222222 76.31597222222223 36.516 76.31597222222223Q36.24788888888889 76.31597222222223 36.06973611111111 76.44297222222224Q35.89158333333334 76.56997222222223 35.89158333333334 76.78869444444445Q35.89158333333334 76.94038888888889 35.978013888888896 77.04622222222223Q36.06444444444445 77.15205555555556 36.19497222222222 77.21731944444446Q36.3255 77.28258333333333 36.519527777777775 77.35313888888889Q36.76647222222222 77.44133333333335 36.91111111111111 77.51541666666668Q37.05575 77.5895 37.158055555555556 77.73061111111112Q37.26036111111111 77.87172222222223 37.26036111111111 78.10455555555556Q37.26036111111111 78.26683333333334 37.16511111111111 78.40794444444445Q37.06986111111111 78.54905555555557 36.891708333333334 78.63195833333334Q36.71355555555556 78.71486111111112 36.48425 78.71486111111112Q36.223194444444445 78.71486111111112 36.02916666666667 78.62490277777778Q35.83513888888889 78.53494444444445 35.64463888888889 78.34444444444445ZM39.37702777777778 76.88394444444445Q39.37702777777778 77.0815 39.29412500000001 77.24201388888889Q39.211222222222226 77.40252777777779 39.05952777777778 77.49248611111112Q38.907833333333336 77.58244444444445 38.71027777777778 77.58244444444445H37.94122222222222V78.60902777777778Q37.94122222222222 78.63725000000001 37.91829166666667 78.65841666666668Q37.895361111111114 78.67958333333334 37.86713888888889 78.67958333333334Q37.83538888888889 78.67958333333334 37.81422222222223 78.65841666666668Q37.793055555555554 78.63725000000001 37.793055555555554 78.60902777777778V76.28069444444445Q37.793055555555554 76.25247222222222 37.81422222222223 76.23130555555556Q37.83538888888889 76.21013888888889 37.86361111111111 76.21013888888889H38.71027777777778Q39.01013888888889 76.21013888888889 39.193583333333336 76.39711111111112Q39.37702777777778 76.58408333333334 39.37702777777778 76.88394444444445ZM39.228861111111115 76.88394444444445Q39.228861111111115 76.64052777777779 39.08951388888889 76.4958888888889Q38.95016666666667 76.35125000000001 38.71027777777778 76.35125000000001H37.94122222222222V77.44133333333335H38.71027777777778Q38.94663888888889 77.44133333333335 39.08775 77.28434722222224Q39.228861111111115 77.12736111111111 39.228861111111115 76.88394444444445ZM41.68419444444445 78.6055Q41.68419444444445 78.63725000000001 41.66479166666667 78.6566527777778Q41.645388888888895 78.67605555555556 41.61716666666667 78.67605555555556Q41.596000000000004 78.67605555555556 41.58541666666667 78.66900000000001Q41.49016666666667 78.61608333333334 41.43372222222222 78.49084722222223Q41.37727777777778 78.36561111111112 41.37727777777778 78.07986111111111Q41.37727777777778 77.79058333333334 41.222055555555556 77.68298611111112Q41.066833333333335 77.5753888888889 40.86222222222223 77.5753888888889H40.036722222222224V78.60902777777778Q40.036722222222224 78.63725000000001 40.01555555555556 78.65841666666668Q39.99438888888889 78.67958333333334 39.96263888888889 78.67958333333334Q39.930888888888894 78.67958333333334 39.90972222222223 78.65841666666668Q39.888555555555556 78.63725000000001 39.888555555555556 78.60902777777778V76.28069444444445Q39.888555555555556 76.25247222222222 39.90972222222223 76.23130555555556Q39.930888888888894 76.21013888888889 39.95911111111111 76.21013888888889H40.89044444444445Q41.09505555555556 76.21013888888889 41.25380555555556 76.29304166666668Q41.41255555555556 76.37594444444446 41.500750000000004 76.52058333333335Q41.58894444444445 76.66522222222223 41.58894444444445 76.84866666666667Q41.58894444444445 77.08502777777778 41.46370833333334 77.25436111111111Q41.33847222222222 77.42369444444445 41.13738888888889 77.48366666666668Q41.30672222222223 77.53658333333334 41.41608333333333 77.69356944444445Q41.525444444444446 77.85055555555556 41.525444444444446 78.07986111111111Q41.525444444444446 78.31622222222222 41.55543055555556 78.40970833333333Q41.58541666666667 78.50319444444445 41.645388888888895 78.542Q41.68419444444445 78.56669444444445 41.68419444444445 78.6055ZM40.90808333333334 77.43427777777778Q41.13033333333334 77.41311111111112 41.28555555555556 77.2578888888889Q41.44077777777778 77.10266666666668 41.44077777777778 76.85219444444445Q41.44077777777778 76.63347222222222 41.28555555555556 76.49236111111111Q41.13033333333334 76.35125000000001 40.87280555555556 76.35125000000001H40.036722222222224V77.43427777777778ZM42.305083333333336 78.67958333333334Q42.269805555555564 78.67958333333334 42.25040277777778 78.65841666666668Q42.231 78.63725000000001 42.231 78.6055V76.28422222222223Q42.231 76.25247222222222 42.25216666666667 76.23130555555556Q42.27333333333334 76.21013888888889 42.305083333333336 76.21013888888889Q42.33683333333334 76.21013888888889 42.358000000000004 76.23130555555556Q42.37916666666667 76.25247222222222 42.37916666666667 76.28422222222223V78.6055Q42.37563888888889 78.63725000000001 42.35447222222223 78.65841666666668Q42.33330555555556 78.67958333333334 42.305083333333336 78.67958333333334ZM44.936805555555566 76.27716666666667V78.60197222222223Q44.936805555555566 78.64077777777779 44.91563888888889 78.66018055555557Q44.89447222222223 78.67958333333334 44.86272222222223 78.67958333333334Q44.82744444444445 78.67958333333334 44.80627777777779 78.65136111111111L43.21877777777779 76.48177777777778V78.61961111111111Q43.21877777777779 78.64430555555556 43.199375 78.66194444444446Q43.179972222222226 78.67958333333334 43.15175000000001 78.67958333333334Q43.120000000000005 78.67958333333334 43.102361111111115 78.66194444444446Q43.084722222222226 78.64430555555556 43.084722222222226 78.61961111111111V76.28069444444445Q43.084722222222226 76.24541666666667 43.10412500000001 76.22777777777779Q43.12352777777779 76.21013888888889 43.14822222222223 76.21013888888889Q43.179972222222226 76.21013888888889 43.2011388888889 76.23483333333334L44.80275 78.41852777777778V76.27716666666667Q44.80275 76.24894444444445 44.82215277777779 76.22954166666668Q44.841555555555566 76.21013888888889 44.869777777777784 76.21013888888889Q44.90152777777779 76.21013888888889 44.919166666666676 76.22954166666668Q44.936805555555566 76.24894444444445 44.936805555555566 76.27716666666667ZM47.50855555555556 77.53305555555556V78.41852777777778Q47.50855555555556 78.46086111111111 47.476805555555565 78.48202777777779Q47.31452777777778 78.5913888888889 47.122263888888895 78.65312500000002Q46.93000000000001 78.71486111111112 46.732444444444454 78.71486111111112Q46.36908333333334 78.71486111111112 46.081569444444455 78.55081944444444Q45.79405555555556 78.38677777777778 45.6300138888889 78.0975Q45.46597222222223 77.80822222222223 45.46597222222223 77.44486111111112Q45.46597222222223 77.0815 45.6300138888889 76.79222222222222Q45.79405555555556 76.50294444444445 46.081569444444455 76.33890277777778Q46.36908333333334 76.17486111111111 46.732444444444454 76.17486111111111Q46.93000000000001 76.17486111111111 47.10815277777779 76.22248611111112Q47.286305555555565 76.27011111111112 47.42741666666667 76.36536111111111Q47.459166666666675 76.38652777777779 47.459166666666675 76.42533333333334Q47.459166666666675 76.45708333333334 47.436236111111114 76.47648611111111Q47.41330555555556 76.4958888888889 47.392138888888894 76.4958888888889Q47.374500000000005 76.4958888888889 47.346277777777786 76.48177777777778Q47.04994444444445 76.31597222222223 46.732444444444454 76.31597222222223Q46.4078888888889 76.31597222222223 46.1538888888889 76.46061111111112Q45.899888888888896 76.60525000000001 45.75701388888889 76.86277777777778Q45.614138888888895 77.12030555555556 45.614138888888895 77.44486111111112Q45.614138888888895 77.76941666666667 45.75701388888889 78.02694444444445Q45.899888888888896 78.28447222222223 46.1538888888889 78.42911111111113Q46.4078888888889 78.57375 46.732444444444454 78.57375Q46.89472222222223 78.57375 47.062291666666674 78.52259722222223Q47.22986111111112 78.47144444444446 47.36744444444445 78.38677777777778V77.60361111111112H46.732444444444454Q46.70422222222223 77.60361111111112 46.68305555555556 77.58244444444446Q46.661888888888896 77.56127777777779 46.661888888888896 77.53305555555556Q46.661888888888896 77.50130555555556 46.68305555555556 77.48190277777778Q46.70422222222223 77.4625 46.732444444444454 77.4625H47.43800000000001Q47.469750000000005 77.4625 47.48915277777778 77.48366666666666Q47.50855555555556 77.50483333333334 47.50855555555556 77.53305555555556Z"/>
</g>
</svg>
