<?xml version="1.0" encoding="UTF-8" standalone="no"?>
<!-- Created with Inkscape (http://www.inkscape.org/) -->

<svg
   width="60.96mm"
   height="128.5mm"
   viewBox="0 0 60.96 128.5"
   version="1.1"
   id="svg5"
   inkscape:version="1.2 (dc2aeda, 2022-05-15)"
   sodipodi:docname="tubeunit.svg"
   xmlns:inkscape="http://www.inkscape.org/namespaces/inkscape"
   xmlns:sodipodi="http://sodipodi.sourceforge.net/DTD/sodipodi-0.dtd"
   xmlns="http://www.w3.org/2000/svg"
   xmlns:svg="http://www.w3.org/2000/svg"
   xmlns:rdf="http://www.w3.org/1999/02/22-rdf-syntax-ns#"
   xmlns:cc="http://creativecommons.org/ns#"
   xmlns:dc="http://purl.org/dc/elements/1.1/">
  <title
     id="title3611">Tube Unit</title>
  <sodipodi:namedview
     id="namedview7"
     pagecolor="#ffffff"
     bordercolor="#000000"
     borderopacity="0.25"
     inkscape:showpageshadow="2"
     inkscape:pageopacity="0.0"
     inkscape:pagecheckerboard="false"
     inkscape:deskcolor="#d1d1d1"
     inkscape:document-units="mm"
     showgrid="false"
     inkscape:zoom="1.6801556"
     inkscape:cx="78.266562"
     inkscape:cy="247.59612"
     inkscape:window-width="1920"
     inkscape:window-height="1029"
     inkscape:window-x="0"
     inkscape:window-y="27"
     inkscape:window-maximized="1"
     inkscape:current-layer="PanelLayer"
     inkscape:lockguides="false" />
  <defs
     id="defs2">
    <rect
       x="41.294988"
       y="19.560286"
       width="121.22002"
       height="36.588078"
       id="rect489" />
    <rect
       x="49.147749"
       y="14.405727"
       width="142.40133"
       height="31.788567"
       id="rect479" />
  </defs>
  <g
     inkscape:label="panel"
     inkscape:groupmode="layer"
     id="PanelLayer">
    <rect
       style="display:inline;fill:#4f8df2;fill-opacity:1;fill-rule:nonzero;stroke:#5021d4;stroke-width:0.401661;stroke-linecap:round;stroke-linejoin:round;stroke-dasharray:none;stroke-opacity:1;image-rendering:auto"
       id="rect13067"
       width="60.5"
       height="128.10001"
       x="0.2"
       y="0.2"
       inkscape:label="border_rect"
       sodipodi:insensitive="true" />
    <g
       aria-label="sapphire"
       id="brand_text"
       style="fill:#0b0607;stroke:#000000;stroke-width:0.264999;stroke-linecap:square"
       transform="translate(4.4701496,-0.55982513)">
      <path
         d="m 10.804944,125.41509 q -0.05482,-0.0862 -0.05482,-0.1488 0,-0.0548 0.06265,-0.10181 0.03916,-0.0392 0.09398,-0.0392 0.07831,0 0.125304,0.0627 0.454228,0.65001 1.268705,0.65001 0.41507,0 0.72833,-0.20362 0.313261,-0.21145 0.313261,-0.56387 0,-0.36025 -0.274103,-0.54037 -0.274103,-0.18013 -0.751825,-0.2976 -0.634353,-0.15663 -1.002433,-0.41507 -0.36025,-0.26627 -0.36025,-0.74399 0,-0.46206 0.368081,-0.75966 0.368081,-0.30543 0.947613,-0.30543 0.321092,0 0.634352,0.12531 0.321092,0.1253 0.579532,0.3994 0.05482,0.047 0.05482,0.10965 0,0.0705 -0.05482,0.1253 -0.06265,0.0313 -0.10181,0.0313 -0.05482,0 -0.09398,-0.047 -0.407238,-0.4464 -1.049422,-0.4464 -0.41507,0 -0.704836,0.20362 -0.281935,0.20362 -0.281935,0.56387 0.02349,0.33675 0.305429,0.52471 0.289766,0.18012 0.845803,0.32109 0.399407,0.10181 0.657847,0.22712 0.266272,0.11747 0.422902,0.33675 0.15663,0.21928 0.15663,0.5717 0,0.49339 -0.383744,0.78315 -0.375912,0.28194 -0.98677,0.28194 -0.892792,0 -1.464493,-0.70484 z"
         style="stroke-width:0.265"
         id="path2060" />
      <path
         d="m 17.9316,122.13369 q 0.07048,0 0.109641,0.047 0.04699,0.047 0.04699,0.10964 v 3.59466 q 0,0.0627 -0.04699,0.10964 -0.04699,0.047 -0.109641,0.047 -0.07048,0 -0.117473,-0.047 -0.03916,-0.047 -0.03916,-0.10964 v -0.70484 q -0.195788,0.39941 -0.603026,0.67351 -0.407239,0.26628 -0.900624,0.26628 -0.51688,0 -0.93195,-0.26628 -0.41507,-0.2741 -0.650015,-0.74399 -0.234945,-0.47772 -0.234945,-1.06508 0,-0.57954 0.234945,-1.0416 0.242777,-0.46989 0.657847,-0.72833 0.41507,-0.26627 0.924118,-0.26627 0.509048,0 0.916287,0.26627 0.407238,0.26628 0.587363,0.71267 v -0.697 q 0,-0.0626 0.03916,-0.10964 0.04699,-0.047 0.117473,-0.047 z m -1.644617,3.68864 q 0.430733,0 0.77532,-0.22712 0.352417,-0.23494 0.548205,-0.64218 0.195788,-0.40724 0.195788,-0.90845 0,-0.47773 -0.195788,-0.87713 -0.195788,-0.39941 -0.548205,-0.62652 -0.344587,-0.23495 -0.77532,-0.23495 -0.430733,0 -0.783151,0.22711 -0.344586,0.21929 -0.540374,0.61869 -0.195788,0.39158 -0.195788,0.8928 0,0.50121 0.195788,0.90845 0.195788,0.40724 0.540374,0.64218 0.344586,0.22712 0.783151,0.22712 z"
         style="stroke-width:0.265"
         id="path2062" />
      <path
         d="m 21.205166,122.0867 q 0.51688,0 0.93195,0.25844 0.41507,0.25844 0.650015,0.71267 0.234945,0.45422 0.234945,1.02592 0,0.56387 -0.242777,1.02593 -0.234945,0.45423 -0.650015,0.7205 -0.41507,0.25844 -0.924118,0.25844 -0.469891,0 -0.861466,-0.23495 -0.391576,-0.23494 -0.642184,-0.66567 v 2.2633 q 0,0.0627 -0.04699,0.10964 -0.03916,0.047 -0.109641,0.047 -0.06265,0 -0.109641,-0.047 -0.04699,-0.047 -0.04699,-0.10964 v -5.20795 q 0,-0.0627 0.03916,-0.10964 0.04699,-0.047 0.117473,-0.047 0.07048,0 0.109641,0.047 0.04699,0.047 0.04699,0.10964 v 0.7205 q 0.234945,-0.4464 0.626521,-0.65785 0.391575,-0.21928 0.877129,-0.21928 z m -0.01566,3.7043 q 0.430733,0 0.775319,-0.21928 0.344587,-0.21928 0.540375,-0.61086 0.203619,-0.39157 0.203619,-0.87713 0,-0.48555 -0.203619,-0.86929 -0.195788,-0.39158 -0.540375,-0.61086 -0.344586,-0.21928 -0.775319,-0.21928 -0.438565,0 -0.790983,0.21928 -0.344586,0.21145 -0.540374,0.60302 -0.187956,0.38375 -0.187956,0.87713 0,0.49339 0.187956,0.88496 0.195788,0.38375 0.540374,0.60303 0.352418,0.21928 0.790983,0.21928 z"
         style="stroke-width:0.265"
         id="path2064" />
      <path
         d="m 25.864909,122.0867 q 0.51688,0 0.93195,0.25844 0.41507,0.25844 0.650015,0.71267 0.234946,0.45422 0.234946,1.02592 0,0.56387 -0.242777,1.02593 -0.234946,0.45423 -0.650016,0.7205 -0.41507,0.25844 -0.924118,0.25844 -0.46989,0 -0.861466,-0.23495 -0.391575,-0.23494 -0.642184,-0.66567 v 2.2633 q 0,0.0627 -0.04699,0.10964 -0.03916,0.047 -0.109641,0.047 -0.06265,0 -0.109641,-0.047 -0.04699,-0.047 -0.04699,-0.10964 v -5.20795 q 0,-0.0627 0.03916,-0.10964 0.04699,-0.047 0.117473,-0.047 0.07048,0 0.109641,0.047 0.04699,0.047 0.04699,0.10964 v 0.7205 q 0.234946,-0.4464 0.626521,-0.65785 0.391576,-0.21928 0.877129,-0.21928 z m -0.01566,3.7043 q 0.430733,0 0.77532,-0.21928 0.344586,-0.21928 0.540374,-0.61086 0.203619,-0.39157 0.203619,-0.87713 0,-0.48555 -0.203619,-0.86929 -0.195788,-0.39158 -0.540374,-0.61086 -0.344587,-0.21928 -0.77532,-0.21928 -0.438564,0 -0.790982,0.21928 -0.344587,0.21145 -0.540375,0.60302 -0.187956,0.38375 -0.187956,0.87713 0,0.49339 0.187956,0.88496 0.195788,0.38375 0.540375,0.60303 0.352418,0.21928 0.790982,0.21928 z"
         style="stroke-width:0.265"
         id="path2066" />
      <path
         d="m 30.415011,122.0867 q 0.67351,0 1.03376,0.43073 0.360249,0.4229 0.360249,1.08075 v 2.2868 q 0,0.0627 -0.04699,0.10964 -0.04699,0.047 -0.109641,0.047 -0.07048,0 -0.117473,-0.047 -0.03916,-0.047 -0.03916,-0.10964 v -2.2868 q 0,-0.54037 -0.266272,-0.87713 -0.266271,-0.33675 -0.814477,-0.33675 -0.336755,0 -0.665678,0.16446 -0.321092,0.16446 -0.524711,0.44639 -0.203619,0.28194 -0.203619,0.60303 v 2.2868 q 0,0.0627 -0.04699,0.10964 -0.04699,0.047 -0.109642,0.047 -0.07048,0 -0.117472,-0.047 -0.03916,-0.047 -0.03916,-0.10964 v -5.48206 q 0,-0.0626 0.04699,-0.10964 0.04699,-0.047 0.109641,-0.047 0.07048,0 0.109642,0.047 0.04699,0.047 0.04699,0.10964 v 2.47476 q 0.219282,-0.34459 0.603026,-0.56387 0.391575,-0.22711 0.790982,-0.22711 z"
         style="stroke-width:0.265"
         id="path2068" />
      <path
         d="m 33.422299,125.88498 q 0,0.0627 -0.04699,0.10964 -0.04699,0.047 -0.109641,0.047 -0.07048,0 -0.117473,-0.047 -0.03916,-0.047 -0.03916,-0.10964 v -3.71997 q 0,-0.0626 0.04699,-0.10964 0.04699,-0.047 0.109641,-0.047 0.07048,0 0.109641,0.047 0.04699,0.047 0.04699,0.10964 z m -0.15663,-4.40914 q -0.125304,0 -0.203619,-0.0705 -0.07048,-0.0705 -0.07048,-0.18013 v -0.0626 q 0,-0.10964 0.07832,-0.18012 0.07831,-0.0705 0.20362,-0.0705 0.109641,0 0.180124,0.0705 0.07831,0.0705 0.07831,0.18012 v 0.0626 q 0,0.10964 -0.07831,0.18013 -0.07048,0.0705 -0.187956,0.0705 z"
         style="stroke-width:0.265"
         id="path2070" />
      <path
         d="m 36.492245,122.00838 q 0.36025,0 0.36025,0.18013 0,0.0705 -0.03916,0.11747 -0.03916,0.047 -0.10181,0.047 -0.02349,0 -0.117472,-0.0313 -0.08615,-0.0392 -0.187956,-0.0392 -0.321092,0 -0.642184,0.25844 -0.321092,0.2506 -0.524711,0.64218 -0.20362,0.38374 -0.20362,0.74399 v 1.95788 q 0,0.0627 -0.04699,0.10964 -0.04699,0.047 -0.109641,0.047 -0.07048,0 -0.117473,-0.047 -0.03916,-0.047 -0.03916,-0.10964 v -3.59466 q 0,-0.0626 0.04699,-0.10964 0.04699,-0.047 0.109641,-0.047 0.07048,0 0.109641,0.047 0.04699,0.047 0.04699,0.10964 v 0.83014 q 0.180125,-0.47772 0.556037,-0.79099 0.383744,-0.31326 0.900624,-0.32109 z"
         style="stroke-width:0.265"
         id="path2072" />
      <path
         d="m 40.525449,125.10183 q 0.05482,0 0.09398,0.047 0.03916,0.0392 0.03916,0.094 0,0.0548 -0.03133,0.094 -0.25844,0.34459 -0.642184,0.56387 -0.383744,0.21929 -0.822309,0.21929 -0.587363,0 -1.041591,-0.25061 -0.454227,-0.25061 -0.712667,-0.71267 -0.250608,-0.46206 -0.250608,-1.07292 0,-0.62652 0.242776,-1.09641 0.250609,-0.47772 0.657847,-0.72833 0.407239,-0.25061 0.869298,-0.25061 0.462059,0 0.853635,0.20362 0.399407,0.19579 0.650015,0.5952 0.250608,0.3994 0.266271,0.98677 0,0.0627 -0.04699,0.11747 -0.04699,0.047 -0.109641,0.047 h -3.077783 v 0.10181 q 0,0.48555 0.195787,0.89279 0.195788,0.39941 0.579532,0.63435 0.383744,0.23495 0.924118,0.23495 0.375913,0 0.704836,-0.18013 0.336755,-0.18795 0.524711,-0.46989 0.05482,-0.0705 0.133136,-0.0705 z m -1.597628,-2.78019 q -0.289766,0 -0.595195,0.15663 -0.297597,0.1488 -0.532543,0.45423 -0.227113,0.2976 -0.305428,0.72833 h 2.881995 v -0.0705 q -0.03916,-0.39941 -0.25844,-0.68134 -0.21145,-0.28977 -0.532542,-0.43857 -0.313261,-0.1488 -0.657847,-0.1488 z"
         style="stroke-width:0.265"
         id="path2074" />
    </g>
    <g
       aria-label="gemstone1"
       id="gem1"
       style="fill:#0000ff;stroke:#2e2114;stroke-width:0;stroke-linecap:square;stroke-opacity:1"
       transform="translate(4.7625002,-0.52916667)">
      <path
         d="m 7.7984528,123.2582 q 0,0.34175 -0.2425346,0.63114 -0.044097,0.0524 -0.2039495,0.21497 -0.187413,0.19017 -0.7854811,0.81304 l -1.444183,1.51309 q -0.019292,0.003 -0.044097,0.003 -0.027561,0 -0.041341,-0.003 -0.082682,-0.0827 -0.6476774,-0.67524 -0.4685327,-0.47405 -0.9343092,-0.94809 -0.556727,-0.56775 -0.8984802,-0.98116 -0.1322916,-0.15985 -0.1681206,-0.29766 -0.027561,-0.10197 -0.027561,-0.34175 0,-0.11024 0.071658,-0.28939 0.066146,-0.16536 0.1405598,-0.26458 0.1185112,-0.1571 0.4216794,-0.42444 0.2838756,-0.2508 0.4740448,-0.37482 0.2728513,-0.17915 0.818554,-0.36656 0.096463,-0.0331 0.110243,-0.0331 h 1.3615007 q 0.011024,0 0.1047308,0.0331 0.5677513,0.20119 0.8240662,0.36656 0.1653645,0.10473 0.4740448,0.37758 0.3224607,0.28387 0.4216794,0.42168 0.2149738,0.2949 0.2149737,0.62563 z m -0.1681206,-0.27286 q -0.033073,-0.10748 -0.1350476,-0.30868 -0.071658,-0.0937 -0.2094616,-0.19843 -0.1185112,-0.0854 -0.2342664,-0.17088 0.2452907,0.3638 0.5787756,0.67799 z m -0.5732634,-0.52365 -0.3582897,-0.44648 v 0.41065 z m 0.6366532,0.75792 q 0,-0.0524 -0.3417533,-0.39412 l 0.2287542,0.7028 h 0.049609 q 0.06339,-0.21773 0.06339,-0.30868 z m -0.2315103,0.27285 -0.3169485,-0.90399 -0.4106551,-0.0634 -0.1598523,0.6146 z m 0.00276,0.15434 -0.7717008,-0.3197 h -0.030317 l 0.3445093,0.60633 q 0.079926,-0.003 0.2342663,-0.0469 0.024805,-0.0138 0.223242,-0.23978 z m -0.8571391,-1.05006 -0.7193354,0.28387 0.6035803,0.226 z m 0,-0.16261 v -0.51539 l -0.9177728,-0.38033 h -1.223697 l -0.9177727,0.38033 v 0.51539 l 0.8984802,0.4079 h 1.2540138 z m 0.5732634,1.53789 q -0.068902,0.011 -0.1984373,0.0524 -0.085438,0.0551 -0.259071,0.16261 0.019292,0 0.06339,0.003 0.041341,0 0.06339,0 0.1185112,0 0.1901691,-0.0689 0.071658,-0.0717 0.1405598,-0.14883 z m -0.2893878,0.003 -0.3472653,-0.63115 -0.3638018,0.87919 q 0.024805,-0.0165 0.066146,-0.0165 0.030317,0 0.085438,0.011 0.057878,0.008 0.088194,0.008 0.049609,0 0.2287542,-0.10749 0.2287542,-0.1378 0.2425345,-0.14331 z m -0.4409719,-0.74139 -0.6835064,-0.27561 -0.592556,0.54846 0.9039924,0.65595 z m -0.854383,-0.28387 H 4.5600655 l 0.5236541,0.47404 z m 0.7496522,1.36701 q -0.2287541,-0.0303 -0.2287541,-0.0303 -0.035829,0 -0.2728514,0.0937 l 0.1901691,0.0193 q 0.011024,0 0.3114364,-0.0827 z m -0.3886065,-0.0882 -0.8433587,-0.61184 v 0.67523 l 0.4712887,0.0827 z m 0.8543831,0.0496 q -0.099219,0.006 -0.2949,0.0386 -0.011024,0.003 -0.3775821,0.17639 -0.1295355,0.34726 -0.3803383,1.04179 z m -2.5438566,-1.39733 -0.7193354,-0.28387 0.1240233,0.51814 z M 3.465904,122.42586 v -0.41065 l -0.3665579,0.44648 z m 1.5158408,1.07211 -0.5925559,-0.54019 -0.6835065,0.27561 0.3803383,0.9288 z m 0.369314,0.94258 q -0.033073,-0.003 -0.1350476,-0.0248 -0.085438,-0.0165 -0.1378038,-0.0165 -0.052365,0 -0.1378037,0.0165 -0.1019747,0.022 -0.1350476,0.0248 0.2645831,0.0469 0.2728513,0.0469 0.00827,0 0.2728514,-0.0469 z m -0.3086803,-0.1378 v -0.68626 l -0.8433588,0.61184 0.3720701,0.14608 z m 0.9508456,0.2067 -0.3968747,-0.0551 -0.4795569,0.14056 v 1.27606 z m -2.8883659,-2.2021 q -0.1185112,0.0854 -0.2342663,0.17363 -0.1460719,0.10749 -0.2094616,0.19568 -0.044097,0.10474 -0.1350477,0.3142 0.369314,-0.3638 0.5787756,-0.68351 z m 0.4768009,0.83233 -0.1598523,-0.6146 -0.4106551,0.0634 -0.3169485,0.90399 z m 0.3941186,1.08314 -0.3638018,-0.87919 -0.3555336,0.63115 q 0.4354598,0.2508 0.4519962,0.2508 0.09095,0 0.2673392,-0.003 z m 1.8217651,0.82958 q -0.1322915,0.21222 -0.4051429,0.6339 -0.07717,0.10748 -0.2204859,0.32797 -0.057878,0.10473 -0.055122,0.226 0.1598523,-0.15159 0.4327036,-0.49609 0.07717,-0.12954 0.1405598,-0.339 0.055122,-0.17639 0.1074874,-0.35278 z m -1.4937922,-0.66146 -0.2700953,-0.0882 -0.00827,-0.011 q -0.024805,0 -0.1074869,0.011 -0.066146,0.006 -0.1074869,0.006 0.2728513,0.0909 0.3114364,0.0909 0.024805,0 0.1819009,-0.008 z M 3.4934647,123.3271 h -0.030317 l -0.7717008,0.3197 q 0.066146,0.0965 0.223242,0.23978 0.07717,0.0138 0.2342663,0.0469 z m -0.6890186,-0.50161 q -0.3417532,0.34727 -0.3417532,0.39412 0,0.0799 0.06339,0.30868 h 0.049609 z m 2.2351763,3.04546 v -1.27606 l -0.4795569,-0.14056 -0.3968747,0.0551 z m -1.6067913,-1.67569 q -0.2563149,-0.1819 -0.4575084,-0.22324 0.066146,0.0772 0.2039495,0.22324 z m 1.6095474,2.04501 v -0.13781 L 4.3588721,125.0524 q 0.052365,0.17639 0.1074868,0.35278 0.06339,0.20946 0.1405598,0.339 0.068902,0.11851 0.2039495,0.25907 0.1157552,0.11851 0.2315103,0.23702 z m -0.6449214,-0.70556 q -0.1157551,-0.32797 -0.3803383,-1.04179 -0.1350476,-0.0661 -0.2728513,-0.12954 -0.1598523,-0.0717 -0.2893878,-0.0717 -0.052365,0 -0.110243,-0.0138 z"
         style="font-size:5.64444px;fill:#0000ff;stroke:#2e2114;stroke-opacity:1"
         id="path1186" />
    </g>
    <g
       aria-label="gemstone2"
       id="gem2"
       style="fill:#0000ff;stroke:#000000;stroke-width:0;stroke-linecap:square"
       transform="translate(5.5321767,-0.85493785)">
      <path
         d="m 47.771429,123.55357 q 0,0.34175 -0.242534,0.63114 -0.0441,0.0524 -0.20395,0.21497 -0.187413,0.19017 -0.785481,0.81304 l -1.444183,1.51309 q -0.01929,0.003 -0.0441,0.003 -0.02756,0 -0.04134,-0.003 -0.08268,-0.0827 -0.647678,-0.67524 -0.468532,-0.47404 -0.934309,-0.94809 -0.556727,-0.56775 -0.89848,-0.98116 -0.132292,-0.15985 -0.168121,-0.29766 -0.02756,-0.10197 -0.02756,-0.34175 0,-0.11024 0.07166,-0.28939 0.06614,-0.16536 0.140559,-0.26458 0.118512,-0.1571 0.42168,-0.42444 0.283875,-0.2508 0.474044,-0.37482 0.272852,-0.17915 0.818555,-0.36656 0.09646,-0.0331 0.110243,-0.0331 h 1.3615 q 0.01102,0 0.104731,0.0331 0.567751,0.20119 0.824066,0.36656 0.165365,0.10473 0.474045,0.37758 0.322461,0.28388 0.421679,0.42168 0.214974,0.2949 0.214974,0.62563 z m -0.16812,-0.27285 q -0.03307,-0.10749 -0.135048,-0.30868 -0.07166,-0.0937 -0.209462,-0.19844 -0.118511,-0.0854 -0.234266,-0.17088 0.245291,0.3638 0.578776,0.678 z m -0.573264,-0.52366 -0.358289,-0.44648 v 0.41065 z m 0.636653,0.75792 q 0,-0.0524 -0.341753,-0.39412 l 0.228754,0.7028 h 0.04961 q 0.06339,-0.21773 0.06339,-0.30868 z m -0.23151,0.27285 -0.316948,-0.90399 -0.410655,-0.0634 -0.159853,0.61461 z m 0.0028,0.15434 -0.771701,-0.3197 h -0.03032 l 0.344509,0.60634 q 0.07993,-0.003 0.234266,-0.0469 0.02481,-0.0138 0.223242,-0.23978 z m -0.857139,-1.05006 -0.719335,0.28388 0.60358,0.22599 z m 0,-0.16261 v -0.51538 l -0.917773,-0.38034 h -1.223697 l -0.917772,0.38034 v 0.51538 l 0.89848,0.4079 h 1.254014 z m 0.573264,1.53789 q -0.0689,0.011 -0.198438,0.0524 -0.08544,0.0551 -0.259071,0.16261 0.01929,0 0.06339,0.003 0.04134,0 0.06339,0 0.118511,0 0.190169,-0.0689 0.07166,-0.0717 0.14056,-0.14883 z m -0.289388,0.003 -0.347266,-0.63114 -0.363801,0.87918 q 0.0248,-0.0165 0.06615,-0.0165 0.03032,0 0.08544,0.011 0.05788,0.008 0.08819,0.008 0.04961,0 0.228754,-0.10749 0.228754,-0.1378 0.242535,-0.14331 z m -0.440972,-0.74139 -0.683507,-0.2756 -0.592556,0.54845 0.903993,0.65595 z m -0.854383,-0.28387 h -1.036284 l 0.523654,0.47404 z m 0.749652,1.36701 q -0.228754,-0.0303 -0.228754,-0.0303 -0.03583,0 -0.272851,0.0937 l 0.190169,0.0193 q 0.01102,0 0.311436,-0.0827 z m -0.388606,-0.0882 -0.843359,-0.61185 v 0.67524 l 0.471289,0.0827 z m 0.854383,0.0496 q -0.09922,0.006 -0.2949,0.0386 -0.01102,0.003 -0.377583,0.17639 -0.129535,0.34726 -0.380338,1.0418 z m -2.543857,-1.39733 -0.719335,-0.28388 0.124023,0.51814 z m -0.802018,-0.45476 v -0.41065 l -0.366557,0.44648 z m 1.515841,1.07212 -0.592556,-0.54019 -0.683506,0.2756 0.380338,0.9288 z m 0.369314,0.94257 q -0.03307,-0.003 -0.135047,-0.0248 -0.08544,-0.0165 -0.137804,-0.0165 -0.05237,0 -0.137804,0.0165 -0.101975,0.0221 -0.135047,0.0248 0.264583,0.0469 0.272851,0.0469 0.0083,0 0.272851,-0.0469 z m -0.30868,-0.1378 v -0.68626 l -0.843359,0.61185 0.37207,0.14607 z m 0.950846,0.20671 -0.396875,-0.0551 -0.479557,0.14056 v 1.27607 z m -2.888366,-2.20211 q -0.118512,0.0854 -0.234267,0.17364 -0.146072,0.10748 -0.209461,0.19568 -0.0441,0.10473 -0.135048,0.31419 0.369314,-0.3638 0.578776,-0.68351 z m 0.476801,0.83234 -0.159853,-0.61461 -0.410655,0.0634 -0.316948,0.90399 z m 0.394118,1.08313 -0.363802,-0.87918 -0.355533,0.63114 q 0.43546,0.2508 0.451996,0.2508 0.09095,0 0.267339,-0.003 z m 1.821765,0.82958 q -0.132291,0.21222 -0.405143,0.6339 -0.07717,0.10749 -0.220486,0.32797 -0.05788,0.10473 -0.05512,0.226 0.159852,-0.15158 0.432704,-0.49609 0.07717,-0.12954 0.140559,-0.339 0.05512,-0.17639 0.107486,-0.35278 z m -1.493792,-0.66146 -0.270095,-0.0882 -0.0083,-0.011 q -0.02481,0 -0.107487,0.011 -0.06615,0.006 -0.107487,0.006 0.272851,0.091 0.311436,0.091 0.02481,0 0.181901,-0.008 z m -0.810286,-1.06384 h -0.03032 l -0.7717,0.3197 q 0.06615,0.0965 0.223242,0.23978 0.07717,0.0138 0.234266,0.0469 z m -0.689018,-0.50161 q -0.341754,0.34727 -0.341754,0.39412 0,0.0799 0.06339,0.30868 h 0.04961 z m 2.235176,3.04547 v -1.27607 l -0.479557,-0.14056 -0.396875,0.0551 z m -1.606791,-1.6757 q -0.256315,-0.1819 -0.457509,-0.22324 0.06615,0.0772 0.20395,0.22324 z m 1.609547,2.04501 v -0.1378 l -0.683507,-1.05007 q 0.05237,0.17639 0.107487,0.35278 0.06339,0.20946 0.14056,0.339 0.0689,0.11851 0.20395,0.25907 0.115755,0.11851 0.23151,0.23702 z m -0.644921,-0.70555 q -0.115756,-0.32798 -0.380339,-1.0418 -0.135047,-0.0662 -0.272851,-0.12954 -0.159852,-0.0716 -0.289388,-0.0716 -0.05237,0 -0.110243,-0.0138 z"
         style="font-size:5.64444px;fill:#0000ff;stroke:#cdf812"
         id="path1183" />
    </g>
    <text
       xml:space="preserve"
       transform="scale(0.26458333)"
       id="text477"
       style="font-weight:300;font-size:13.3333px;font-family:'Quicksand Light';-inkscape-font-specification:'Quicksand Light, Light';white-space:pre;shape-inside:url(#rect479);display:inline;fill:#141789;fill-opacity:0.202966;stroke:#000000;stroke-width:0.189;stroke-linecap:round;stroke-linejoin:bevel" />
    <text
       xml:space="preserve"
       style="font-weight:300;font-size:3.52777px;font-family:'Quicksand Light';-inkscape-font-specification:'Quicksand Light, Light';fill:#141789;fill-opacity:0.202966;stroke:#000000;stroke-width:0.0500062;stroke-linecap:round;stroke-linejoin:bevel"
       x="22.761015"
       y="6.9424133"
       id="text485"><tspan
         sodipodi:role="line"
         id="tspan483"
         style="stroke-width:0.0500062"
         x="22.761015"
         y="6.9424133" /></text>
    <g
       aria-label="tube unit"
       transform="matrix(0.26458333,0,0,0.26458333,4.2685861,-4.2333335)"
       id="text487"
       style="font-size:26.6667px;font-family:'Quicksand Light';-inkscape-font-specification:'Quicksand Light, Normal';white-space:pre;shape-inside:url(#rect489);display:inline;stroke:#000000;stroke-width:1.32283;stroke-linecap:round;stroke-linejoin:bevel">
      <path
         d="m 49.185579,31.939199 q 0.205334,0 0.381333,0.176 0.176,0.176 0.176,0.381333 0,0.234666 -0.176,0.410666 -0.146666,0.146667 -0.381333,0.146667 h -3.226662 v 10.442654 q 0,1.290666 0.439999,1.730665 0.469333,0.410666 1.173332,0.410666 0.117333,0 0.322666,-0.05867 0.234667,-0.05867 0.381333,-0.05867 0.205333,0 0.352,0.176 0.146666,0.146666 0.146666,0.351999 0,0.264 -0.351999,0.469333 -0.352,0.176 -0.821333,0.176 -0.733332,0 -1.231998,-0.088 -0.498666,-0.117333 -1.055999,-0.791999 -0.527999,-0.703999 -0.527999,-2.258664 V 33.053865 h -2.405331 q -0.205333,0 -0.381333,-0.176 -0.176,-0.176 -0.176,-0.381333 0,-0.234666 0.146667,-0.381333 0.176,-0.176 0.410666,-0.176 h 2.405331 V 28.21387 q 0,-0.234666 0.175999,-0.410666 0.176,-0.176 0.410667,-0.176 0.263999,0 0.410666,0.176 0.176,0.176 0.176,0.410666 v 3.725329 z"
         style="font-size:29.3333px"
         id="path5314" />
      <path
         d="m 64.057562,32.056533 q 0.264,0 0.410666,0.175999 0.176,0.176 0.176,0.410667 v 8.53599 q 0,2.786663 -1.583998,4.253328 -1.554665,1.437332 -4.253329,1.437332 -2.698663,0 -4.253328,-1.437332 -1.554665,-1.466665 -1.554665,-4.253328 v -8.53599 q 0,-0.234667 0.176,-0.410667 0.176,-0.175999 0.410666,-0.175999 0.264,0 0.410666,0.175999 0.176,0.176 0.176,0.410667 v 8.53599 q 0,2.199997 1.231999,3.402662 1.231998,1.173332 3.402662,1.173332 2.199998,0 3.431997,-1.173332 1.231998,-1.202665 1.231998,-3.402662 v -8.53599 q 0,-0.234667 0.146667,-0.410667 0.175999,-0.175999 0.439999,-0.175999 z"
         style="font-size:29.3333px"
         id="path5316" />
      <path
         d="m 76.318874,31.5872 q 1.935997,0 3.490662,0.997332 1.554665,0.967999 2.434664,2.727997 0.879999,1.730664 0.879999,3.901329 0,2.170664 -0.909332,3.959995 -0.879999,1.759998 -2.434664,2.786664 -1.554665,1.026665 -3.461329,1.026665 -1.730665,0 -3.19733,-0.909332 -1.466665,-0.938666 -2.434664,-2.581331 v 2.610664 q 0,0.234666 -0.176,0.410666 -0.146666,0.176 -0.410666,0.176 -0.234666,0 -0.410666,-0.176 -0.176,-0.176 -0.176,-0.410666 V 25.603207 q 0,-0.234667 0.146666,-0.410667 0.176,-0.175999 0.44,-0.175999 0.264,0 0.410666,0.175999 0.176,0.176 0.176,0.410667 v 9.562655 q 0.879999,-1.730664 2.346664,-2.639997 1.495998,-0.938665 3.28533,-0.938665 z m -0.05867,14.285317 q 1.613331,0 2.903997,-0.879999 1.290665,-0.879999 2.023997,-2.375998 0.762666,-1.525331 0.762666,-3.402662 0,-1.877332 -0.762666,-3.343997 -0.733332,-1.495998 -2.023997,-2.31733 -1.290666,-0.850666 -2.903997,-0.850666 -1.642665,0 -2.962663,0.850666 -1.290666,0.821332 -2.023998,2.31733 -0.703999,1.466665 -0.703999,3.343997 0,1.877331 0.733332,3.402662 0.733333,1.525332 2.023998,2.405331 1.290665,0.850666 2.93333,0.850666 z"
         style="font-size:29.3333px"
         id="path5318" />
      <path
         d="m 98.553494,43.173853 q 0.205333,0 0.352,0.176 0.146666,0.146666 0.146666,0.351999 0,0.205334 -0.117333,0.352 -0.967999,1.290665 -2.40533,2.111998 -1.437332,0.821332 -3.079997,0.821332 -2.199997,0 -3.901329,-0.938666 -1.701331,-0.938665 -2.66933,-2.66933 -0.938666,-1.730664 -0.938666,-4.018662 0,-2.346664 0.909333,-4.106662 0.938665,-1.789331 2.463997,-2.727997 1.525331,-0.938665 3.255996,-0.938665 1.730665,0 3.19733,0.762666 1.495998,0.733332 2.434664,2.22933 0.938665,1.495999 0.997332,3.695996 0,0.234666 -0.176,0.44 -0.176,0.175999 -0.410666,0.175999 H 87.084174 v 0.381333 q 0,1.818665 0.733333,3.343996 0.733332,1.495999 2.170664,2.375998 1.437331,0.879999 3.461329,0.879999 1.407998,0 2.639997,-0.674666 1.261332,-0.703999 1.965331,-1.759998 0.205333,-0.264 0.498666,-0.264 z M 92.569501,32.760532 q -1.085332,0 -2.229331,0.586666 -1.114665,0.557332 -1.994664,1.701331 -0.850666,1.114665 -1.143999,2.727997 h 10.794655 v -0.264 q -0.146667,-1.495998 -0.967999,-2.551997 -0.791999,-1.085332 -1.994665,-1.642665 -1.173332,-0.557332 -2.463997,-0.557332 z"
         style="font-size:29.3333px"
         id="path5320" />
      <path
         d="m 122.02004,32.056533 q 0.264,0 0.41067,0.175999 0.176,0.176 0.176,0.410667 v 8.53599 q 0,2.786663 -1.584,4.253328 -1.55466,1.437332 -4.25333,1.437332 -2.69866,0 -4.25333,-1.437332 -1.55466,-1.466665 -1.55466,-4.253328 v -8.53599 q 0,-0.234667 0.176,-0.410667 0.176,-0.175999 0.41067,-0.175999 0.264,0 0.41066,0.175999 0.176,0.176 0.176,0.410667 v 8.53599 q 0,2.199997 1.232,3.402662 1.232,1.173332 3.40266,1.173332 2.2,0 3.432,-1.173332 1.232,-1.202665 1.232,-3.402662 v -8.53599 q 0,-0.234667 0.14666,-0.410667 0.176,-0.175999 0.44,-0.175999 z"
         style="font-size:29.3333px"
         id="path5322" />
      <path
         d="m 134.13469,31.5872 q 2.61066,0 3.93066,1.554665 1.32,1.525331 1.32,3.989328 v 8.97599 q 0,0.234666 -0.176,0.410666 -0.176,0.176 -0.41067,0.176 -0.264,0 -0.44,-0.176 -0.14666,-0.176 -0.14666,-0.410666 v -8.858656 q 0,-1.994665 -1.056,-3.255997 -1.02667,-1.290665 -3.13866,-1.290665 -1.29067,0 -2.552,0.615999 -1.232,0.616 -2.024,1.671998 -0.792,1.055999 -0.792,2.258665 v 8.858656 q 0,0.234666 -0.176,0.410666 -0.176,0.176 -0.41066,0.176 -0.264,0 -0.44,-0.176 -0.14667,-0.176 -0.14667,-0.410666 V 32.643199 q 0,-0.234667 0.176,-0.410667 0.176,-0.175999 0.41067,-0.175999 0.264,0 0.41066,0.175999 0.176,0.176 0.176,0.410667 v 1.965331 q 0.85067,-1.319999 2.376,-2.170665 1.55466,-0.850665 3.10933,-0.850665 z"
         style="font-size:29.3333px"
         id="path5324" />
      <path
         d="m 145.42797,46.107183 q 0,0.234666 -0.176,0.410666 -0.176,0.176 -0.41067,0.176 -0.264,0 -0.44,-0.176 -0.14667,-0.176 -0.14667,-0.410666 V 32.173866 q 0,-0.234667 0.176,-0.410666 0.176,-0.176 0.41067,-0.176 0.264,0 0.41067,0.176 0.176,0.175999 0.176,0.410666 z M 144.8413,29.592535 q -0.46933,0 -0.76267,-0.263999 -0.264,-0.264 -0.264,-0.674666 v -0.234667 q 0,-0.410666 0.29334,-0.674666 0.29333,-0.263999 0.76266,-0.263999 0.41067,0 0.67467,0.263999 0.29333,0.264 0.29333,0.674666 v 0.234667 q 0,0.410666 -0.29333,0.674666 -0.264,0.263999 -0.704,0.263999 z"
         style="font-size:29.3333px"
         id="path5326" />
      <path
         d="m 155.75327,31.939199 q 0.20533,0 0.38133,0.176 0.176,0.176 0.176,0.381333 0,0.234666 -0.176,0.410666 -0.14667,0.146667 -0.38133,0.146667 h -3.22667 v 10.442654 q 0,1.290666 0.44,1.730665 0.46934,0.410666 1.17334,0.410666 0.11733,0 0.32266,-0.05867 0.23467,-0.05867 0.38134,-0.05867 0.20533,0 0.35199,0.176 0.14667,0.146666 0.14667,0.351999 0,0.264 -0.352,0.469333 -0.352,0.176 -0.82133,0.176 -0.73333,0 -1.232,-0.088 -0.49867,-0.117333 -1.056,-0.791999 -0.528,-0.703999 -0.528,-2.258664 V 33.053865 h -2.40533 q -0.20533,0 -0.38133,-0.176 -0.176,-0.176 -0.176,-0.381333 0,-0.234666 0.14667,-0.381333 0.176,-0.176 0.41066,-0.176 h 2.40533 V 28.21387 q 0,-0.234666 0.176,-0.410666 0.176,-0.176 0.41067,-0.176 0.264,0 0.41066,0.176 0.176,0.176 0.176,0.410666 v 3.725329 z"
         style="font-size:29.3333px"
         id="path5328" />
    </g>
  </g>
  <metadata
     id="metadata3609">
    <rdf:RDF>
      <cc:Work
         rdf:about="">
        <dc:creator>
          <cc:Agent>
            <dc:title>Don Cross &lt;cosinekitty@gmail.com&gt;</dc:title>
          </cc:Agent>
        </dc:creator>
        <dc:title>Sapphire Tube Unit</dc:title>
      </cc:Work>
    </rdf:RDF>
  </metadata>
</svg>
