<?xml version="1.0" encoding="utf-8"?>
<svg xmlns="http://www.w3.org/2000/svg" width="60.96mm" height="128.50mm" viewBox="0 0 60.96 128.50">
    <defs>
        <linearGradient id="gradient_0" x1="50" y1="0" x2="0" y2="0" gradientUnits="userSpaceOnUse">
            <stop offset="0" style="stop-color:#906be8;stop-opacity:1;" />
            <stop offset="1" style="stop-color:#b242bd;stop-opacity:1;" />
        </linearGradient>
        <linearGradient id="gradient_1" x1="60" y1="0" x2="0" y2="0" gradientUnits="userSpaceOnUse">
            <stop offset="0" style="stop-color:#6d96d6;stop-opacity:1;" />
            <stop offset="1" style="stop-color:#3372d4;stop-opacity:1;" />
        </linearGradient>
        <linearGradient id="gradient_2" x1="0" y1="0" x2="60" y2="0" gradientUnits="userSpaceOnUse">
            <stop offset="0" style="stop-color:#986de4;stop-opacity:1;" />
            <stop offset="1" style="stop-color:#4373e6;stop-opacity:1;" />
        </linearGradient>
        <linearGradient id="gradient_3" x1="60" y1="0" x2="0" y2="0" gradientUnits="userSpaceOnUse">
            <stop offset="0" style="stop-color:#3d81a0;stop-opacity:1;" />
            <stop offset="1" style="stop-color:#26abbf;stop-opacity:1;" />
        </linearGradient>
    </defs>
    <g id="PanelLayer">
        <rect id="border_rect" width="60.96" height="128.5" x="0" y="0" style="display:inline;fill:#4f8df2;fill-opacity:1;stroke:none;" />
        <path style="fill:url(#gradient_0);fill-opacity:1;stroke:#000000;stroke-width:0.1;stroke-linecap:round;stroke-linejoin:bevel;stroke-dasharray:none" d="M 4.50,22.50 L 26.50,22.50 L 34.50,33.00 L 26.50,43.50 L 4.50,43.50 z M 56.50,12.00 L 34.50,12.00 L 26.50,22.50 L 34.50,33.00 L 56.50,33.00 z " />
        <path style="fill:url(#gradient_1);fill-opacity:1;stroke:#000000;stroke-width:0.1;stroke-linecap:round;stroke-linejoin:bevel;stroke-dasharray:none" d="M 4.50,43.50 L 26.50,43.50 L 34.50,54.00 L 26.50,64.50 L 4.50,64.50 z M 56.50,33.00 L 34.50,33.00 L 26.50,43.50 L 34.50,54.00 L 56.50,54.00 z " />
        <path style="fill:url(#gradient_2);fill-opacity:1;stroke:#000000;stroke-width:0.1;stroke-linecap:round;stroke-linejoin:bevel;stroke-dasharray:none" d="M 4.50,64.50 L 26.50,64.50 L 34.50,75.00 L 26.50,85.50 L 4.50,85.50 z M 56.50,54.00 L 34.50,54.00 L 26.50,64.50 L 34.50,75.00 L 56.50,75.00 z " />
        <path style="fill:url(#gradient_3);fill-opacity:1;stroke:#000000;stroke-width:0.1;stroke-linecap:round;stroke-linejoin:bevel;stroke-dasharray:none" d="M 4.50,85.50 L 26.50,85.50 L 34.50,96.00 L 26.50,106.50 L 4.50,106.50 z M 56.50,75.00 L 34.50,75.00 L 26.50,85.50 L 34.50,96.00 L 56.50,96.00 z " />
        <g id="sapphire_insignia">
            <path id="brand_name" d="M15.5864 124.775Q15.5864 124.721 15.6485 124.674Q15.6873 124.636 15.7417 124.636Q15.8193 124.636 15.8658 124.698Q16.316 125.342 17.1231 125.342Q17.5345 125.342 17.8449 125.136Q18.1554 124.93 18.1554 124.581Q18.1554 124.224 17.8837 124.046Q17.6121 123.867 17.1387 123.751Q16.51 123.596 16.1491 123.336Q15.7882 123.076 15.7882 122.602Q15.7882 122.144 16.153 121.845Q16.5178 121.547 17.0921 121.547Q17.4103 121.547 17.7246 121.671Q18.0389 121.795 18.2951 122.067Q18.3494 122.113 18.3494 122.175Q18.3494 122.245 18.2951 122.299Q18.233 122.331 18.1942 122.331Q18.1398 122.331 18.101 122.284Q17.6975 121.842 17.061 121.842Q16.6497 121.842 16.3664 122.043Q16.0831 122.245 16.0831 122.602Q16.1064 122.936 16.3897 123.118Q16.673 123.301 17.224 123.44Q17.6198 123.541 17.8798 123.662Q18.1398 123.782 18.2951 123.999Q18.4503 124.216 18.4503 124.566Q18.4503 125.055 18.0739 125.338Q17.6975 125.621 17.0921 125.621Q16.2073 125.621 15.6408 124.923Q15.5864 124.837 15.5864 124.775ZM22.7965 121.826V125.388Q22.7965 125.45 22.7499 125.497Q22.7034 125.544 22.6413 125.544Q22.5714 125.544 22.5287 125.497Q22.4861 125.45 22.4861 125.388V124.69Q22.292 125.086 21.8885 125.353Q21.4849 125.621 20.9959 125.621Q20.4837 125.621 20.0724 125.353Q19.661 125.086 19.4282 124.616Q19.1953 124.147 19.1953 123.565Q19.1953 122.99 19.4321 122.528Q19.6688 122.067 20.0801 121.807Q20.4915 121.547 20.9959 121.547Q21.5004 121.547 21.904 121.811Q22.3076 122.074 22.4861 122.517V121.826Q22.4861 121.764 22.5287 121.717Q22.5714 121.671 22.6413 121.671Q22.7111 121.671 22.7538 121.717Q22.7965 121.764 22.7965 121.826ZM22.5171 123.565Q22.5171 123.091 22.3231 122.695Q22.129 122.299 21.7837 122.071Q21.4383 121.842 21.0114 121.842Q20.5846 121.842 20.2392 122.063Q19.8938 122.284 19.6998 122.676Q19.5058 123.068 19.5058 123.565Q19.5058 124.061 19.6998 124.465Q19.8938 124.868 20.2353 125.097Q20.5768 125.326 21.0114 125.326Q21.4383 125.326 21.7837 125.097Q22.129 124.868 22.3231 124.465Q22.5171 124.061 22.5171 123.565ZM27.686 123.603Q27.686 124.162 27.4493 124.616Q27.2126 125.07 26.8012 125.33Q26.3899 125.59 25.8854 125.59Q25.4198 125.59 25.0317 125.357Q24.6436 125.125 24.3953 124.698V126.941Q24.3953 127.003 24.3526 127.049Q24.3099 127.096 24.2401 127.096Q24.178 127.096 24.1314 127.049Q24.0848 127.003 24.0848 126.941V121.779Q24.0848 121.717 24.1275 121.671Q24.1702 121.624 24.2401 121.624Q24.3099 121.624 24.3526 121.671Q24.3953 121.717 24.3953 121.779V122.493Q24.6281 122.051 25.0162 121.838Q25.4042 121.624 25.8854 121.624Q26.3977 121.624 26.809 121.88Q27.2203 122.136 27.4532 122.587Q27.686 123.037 27.686 123.603ZM27.3756 123.603Q27.3756 123.122 27.1776 122.738Q26.9797 122.354 26.6383 122.136Q26.2968 121.919 25.8699 121.919Q25.4353 121.919 25.0899 122.133Q24.7445 122.346 24.5544 122.73Q24.3642 123.114 24.3642 123.603Q24.3642 124.092 24.5544 124.476Q24.7445 124.861 25.0899 125.078Q25.4353 125.295 25.8699 125.295Q26.2968 125.295 26.6383 125.078Q26.9797 124.861 27.1776 124.473Q27.3756 124.085 27.3756 123.603ZM32.3039 123.603Q32.3039 124.162 32.0671 124.616Q31.8304 125.07 31.4191 125.33Q31.0078 125.59 30.5033 125.59Q30.0376 125.59 29.6496 125.357Q29.2615 125.125 29.0132 124.698V126.941Q29.0132 127.003 28.9705 127.049Q28.9278 127.096 28.8579 127.096Q28.7958 127.096 28.7493 127.049Q28.7027 127.003 28.7027 126.941V121.779Q28.7027 121.717 28.7454 121.671Q28.7881 121.624 28.8579 121.624Q28.9278 121.624 28.9705 121.671Q29.0132 121.717 29.0132 121.779V122.493Q29.246 122.051 29.634 121.838Q30.0221 121.624 30.5033 121.624Q31.0155 121.624 31.4269 121.88Q31.8382 122.136 32.071 122.587Q32.3039 123.037 32.3039 123.603ZM31.9934 123.603Q31.9934 123.122 31.7955 122.738Q31.5976 122.354 31.2561 122.136Q30.9146 121.919 30.4878 121.919Q30.0531 121.919 29.7078 122.133Q29.3624 122.346 29.1723 122.73Q28.9821 123.114 28.9821 123.603Q28.9821 124.092 29.1723 124.476Q29.3624 124.861 29.7078 125.078Q30.0531 125.295 30.4878 125.295Q30.9146 125.295 31.2561 125.078Q31.5976 124.861 31.7955 124.473Q31.9934 124.085 31.9934 123.603ZM36.394 123.122V125.388Q36.394 125.45 36.3474 125.497Q36.3008 125.544 36.2387 125.544Q36.1689 125.544 36.1262 125.497Q36.0835 125.45 36.0835 125.388V123.122Q36.0835 122.587 35.8196 122.253Q35.5558 121.919 35.0125 121.919Q34.6788 121.919 34.3567 122.082Q34.0346 122.245 33.8328 122.525Q33.631 122.804 33.631 123.122V125.388Q33.631 125.45 33.5844 125.497Q33.5379 125.544 33.4758 125.544Q33.4059 125.544 33.3633 125.497Q33.3206 125.45 33.3206 125.388V119.956Q33.3206 119.894 33.3671 119.847Q33.4137 119.8 33.4758 119.8Q33.5456 119.8 33.5883 119.847Q33.631 119.894 33.631 119.956V122.408Q33.8483 122.067 34.2325 121.845Q34.6167 121.624 35.0125 121.624Q35.6799 121.624 36.037 122.047Q36.394 122.47 36.394 123.122ZM37.8375 125.544Q37.7677 125.544 37.725 125.497Q37.6823 125.45 37.6823 125.388V121.702Q37.6823 121.64 37.7289 121.593Q37.7754 121.547 37.8375 121.547Q37.9074 121.547 37.9501 121.593Q37.9928 121.64 37.9928 121.702V125.388Q37.9928 125.45 37.9462 125.497Q37.8996 125.544 37.8375 125.544ZM37.5659 120.771V120.708Q37.5659 120.6 37.6435 120.53Q37.7211 120.46 37.8453 120.46Q37.954 120.46 38.0277 120.53Q38.1014 120.6 38.1014 120.708V120.771Q38.1014 120.879 38.0277 120.949Q37.954 121.019 37.8375 121.019Q37.7134 121.019 37.6396 120.949Q37.5659 120.879 37.5659 120.771ZM41.3921 121.725Q41.3921 121.795 41.3533 121.842Q41.3145 121.888 41.2524 121.888Q41.2291 121.888 41.1399 121.853Q41.0506 121.818 40.9497 121.818Q40.6315 121.818 40.3133 122.071Q39.9951 122.323 39.7933 122.707Q39.5915 123.091 39.5915 123.448V125.388Q39.5915 125.45 39.545 125.497Q39.4984 125.544 39.4363 125.544Q39.3665 125.544 39.3238 125.497Q39.2811 125.45 39.2811 125.388V121.826Q39.2811 121.764 39.3277 121.717Q39.3742 121.671 39.4363 121.671Q39.5062 121.671 39.5489 121.717Q39.5915 121.764 39.5915 121.826V122.649Q39.7701 122.175 40.1465 121.865Q40.5229 121.554 41.0351 121.547Q41.3921 121.547 41.3921 121.725ZM45.3348 124.752Q45.3348 124.806 45.3037 124.845Q45.0476 125.187 44.6673 125.404Q44.287 125.621 43.8524 125.621Q43.2703 125.621 42.8202 125.373Q42.37 125.125 42.1178 124.667Q41.8656 124.209 41.8656 123.603Q41.8656 122.982 42.11 122.513Q42.3545 122.043 42.7581 121.795Q43.1617 121.547 43.6196 121.547Q44.0775 121.547 44.4694 121.745Q44.8613 121.942 45.1097 122.338Q45.3581 122.734 45.3736 123.316Q45.3736 123.378 45.327 123.429Q45.2804 123.479 45.2184 123.479H42.1682V123.58Q42.1682 124.061 42.3623 124.461Q42.5563 124.861 42.9366 125.093Q43.3169 125.326 43.8524 125.326Q44.2249 125.326 44.5548 125.144Q44.8846 124.962 45.0709 124.682Q45.1252 124.612 45.2028 124.612Q45.2572 124.612 45.296 124.655Q45.3348 124.698 45.3348 124.752ZM42.1993 123.184H45.0554V123.114Q45.0166 122.719 44.8031 122.435Q44.5897 122.152 44.2754 122.005Q43.9611 121.857 43.6196 121.857Q43.3324 121.857 43.0336 122.008Q42.7348 122.16 42.5058 122.459Q42.2769 122.757 42.1993 123.184Z" style="fill:#000000;stroke:#000000;stroke-width:0.265;stroke-linecap:square" />
            <g id="gemstones" style="stroke-width:0;fill:#0000ff;stroke:#2e2114;stroke-linecap:square;stroke-opacity:1">
                <path d="m 12.930,122.900 q 0,0.34175 -0.242534,0.63114 -0.0441,0.0524 -0.20395,0.21497 -0.187413,0.19017 -0.785481,0.81304 l -1.444183,1.51309 q -0.01929,0.003 -0.0441,0.003 -0.02756,0 -0.04134,-0.003 -0.08268,-0.0827 -0.647678,-0.67524 -0.468532,-0.47404 -0.934309,-0.94809 -0.556727,-0.56775 -0.89848,-0.98116 -0.132292,-0.15985 -0.168121,-0.29766 -0.02756,-0.10197 -0.02756,-0.34175 0,-0.11024 0.07166,-0.28939 0.06614,-0.16536 0.140559,-0.26458 0.118512,-0.1571 0.42168,-0.42444 0.283875,-0.2508 0.474044,-0.37482 0.272852,-0.17915 0.818555,-0.36656 0.09646,-0.0331 0.110243,-0.0331 h 1.3615 q 0.01102,0 0.104731,0.0331 0.567751,0.20119 0.824066,0.36656 0.165365,0.10473 0.474045,0.37758 0.322461,0.28388 0.421679,0.42168 0.214974,0.2949 0.214974,0.62563 z m -0.16812,-0.27285 q -0.03307,-0.10749 -0.135048,-0.30868 -0.07166,-0.0937 -0.209462,-0.19844 -0.118511,-0.0854 -0.234266,-0.17088 0.245291,0.3638 0.578776,0.678 z m -0.573264,-0.52366 -0.358289,-0.44648 v 0.41065 z m 0.636653,0.75792 q 0,-0.0524 -0.341753,-0.39412 l 0.228754,0.7028 h 0.04961 q 0.06339,-0.21773 0.06339,-0.30868 z m -0.23151,0.27285 -0.316948,-0.90399 -0.410655,-0.0634 -0.159853,0.61461 z m 0.0028,0.15434 -0.771701,-0.3197 h -0.03032 l 0.344509,0.60634 q 0.07993,-0.003 0.234266,-0.0469 0.02481,-0.0138 0.223242,-0.23978 z m -0.857139,-1.05006 -0.719335,0.28388 0.60358,0.22599 z m 0,-0.16261 v -0.51538 l -0.917773,-0.38034 h -1.223697 l -0.917772,0.38034 v 0.51538 l 0.89848,0.4079 h 1.254014 z m 0.573264,1.53789 q -0.0689,0.011 -0.198438,0.0524 -0.08544,0.0551 -0.259071,0.16261 0.01929,0 0.06339,0.003 0.04134,0 0.06339,0 0.118511,0 0.190169,-0.0689 0.07166,-0.0717 0.14056,-0.14883 z m -0.289388,0.003 -0.347266,-0.63114 -0.363801,0.87918 q 0.0248,-0.0165 0.06615,-0.0165 0.03032,0 0.08544,0.011 0.05788,0.008 0.08819,0.008 0.04961,0 0.228754,-0.10749 0.228754,-0.1378 0.242535,-0.14331 z m -0.440972,-0.74139 -0.683507,-0.2756 -0.592556,0.54845 0.903993,0.65595 z m -0.854383,-0.28387 h -1.036284 l 0.523654,0.47404 z m 0.749652,1.36701 q -0.228754,-0.0303 -0.228754,-0.0303 -0.03583,0 -0.272851,0.0937 l 0.190169,0.0193 q 0.01102,0 0.311436,-0.0827 z m -0.388606,-0.0882 -0.843359,-0.61185 v 0.67524 l 0.471289,0.0827 z m 0.854383,0.0496 q -0.09922,0.006 -0.2949,0.0386 -0.01102,0.003 -0.377583,0.17639 -0.129535,0.34726 -0.380338,1.0418 z m -2.543857,-1.39733 -0.719335,-0.28388 0.124023,0.51814 z m -0.802018,-0.45476 v -0.41065 l -0.366557,0.44648 z m 1.515841,1.07212 -0.592556,-0.54019 -0.683506,0.2756 0.380338,0.9288 z m 0.369314,0.94257 q -0.03307,-0.003 -0.135047,-0.0248 -0.08544,-0.0165 -0.137804,-0.0165 -0.05237,0 -0.137804,0.0165 -0.101975,0.0221 -0.135047,0.0248 0.264583,0.0469 0.272851,0.0469 0.0083,0 0.272851,-0.0469 z m -0.30868,-0.1378 v -0.68626 l -0.843359,0.61185 0.37207,0.14607 z m 0.950846,0.20671 -0.396875,-0.0551 -0.479557,0.14056 v 1.27607 z m -2.888366,-2.20211 q -0.118512,0.0854 -0.234267,0.17364 -0.146072,0.10748 -0.209461,0.19568 -0.0441,0.10473 -0.135048,0.31419 0.369314,-0.3638 0.578776,-0.68351 z m 0.476801,0.83234 -0.159853,-0.61461 -0.410655,0.0634 -0.316948,0.90399 z m 0.394118,1.08313 -0.363802,-0.87918 -0.355533,0.63114 q 0.43546,0.2508 0.451996,0.2508 0.09095,0 0.267339,-0.003 z m 1.821765,0.82958 q -0.132291,0.21222 -0.405143,0.6339 -0.07717,0.10749 -0.220486,0.32797 -0.05788,0.10473 -0.05512,0.226 0.159852,-0.15158 0.432704,-0.49609 0.07717,-0.12954 0.140559,-0.339 0.05512,-0.17639 0.107486,-0.35278 z m -1.493792,-0.66146 -0.270095,-0.0882 -0.0083,-0.011 q -0.02481,0 -0.107487,0.011 -0.06615,0.006 -0.107487,0.006 0.272851,0.091 0.311436,0.091 0.02481,0 0.181901,-0.008 z m -0.810286,-1.06384 h -0.03032 l -0.7717,0.3197 q 0.06615,0.0965 0.223242,0.23978 0.07717,0.0138 0.234266,0.0469 z m -0.689018,-0.50161 q -0.341754,0.34727 -0.341754,0.39412 0,0.0799 0.06339,0.30868 h 0.04961 z m 2.235176,3.04547 v -1.27607 l -0.479557,-0.14056 -0.396875,0.0551 z m -1.606791,-1.6757 q -0.256315,-0.1819 -0.457509,-0.22324 0.06615,0.0772 0.20395,0.22324 z m 1.609547,2.04501 v -0.1378 l -0.683507,-1.05007 q 0.05237,0.17639 0.107487,0.35278 0.06339,0.20946 0.14056,0.339 0.0689,0.11851 0.20395,0.25907 0.115755,0.11851 0.23151,0.23702 z m -0.644921,-0.70555 q -0.115756,-0.32798 -0.380339,-1.0418 -0.135047,-0.0662 -0.272851,-0.12954 -0.159852,-0.0716 -0.289388,-0.0716 -0.05237,0 -0.110243,-0.0138 z" />
                <path d="m 53.460,122.900 q 0,0.34175 -0.242534,0.63114 -0.0441,0.0524 -0.20395,0.21497 -0.187413,0.19017 -0.785481,0.81304 l -1.444183,1.51309 q -0.01929,0.003 -0.0441,0.003 -0.02756,0 -0.04134,-0.003 -0.08268,-0.0827 -0.647678,-0.67524 -0.468532,-0.47404 -0.934309,-0.94809 -0.556727,-0.56775 -0.89848,-0.98116 -0.132292,-0.15985 -0.168121,-0.29766 -0.02756,-0.10197 -0.02756,-0.34175 0,-0.11024 0.07166,-0.28939 0.06614,-0.16536 0.140559,-0.26458 0.118512,-0.1571 0.42168,-0.42444 0.283875,-0.2508 0.474044,-0.37482 0.272852,-0.17915 0.818555,-0.36656 0.09646,-0.0331 0.110243,-0.0331 h 1.3615 q 0.01102,0 0.104731,0.0331 0.567751,0.20119 0.824066,0.36656 0.165365,0.10473 0.474045,0.37758 0.322461,0.28388 0.421679,0.42168 0.214974,0.2949 0.214974,0.62563 z m -0.16812,-0.27285 q -0.03307,-0.10749 -0.135048,-0.30868 -0.07166,-0.0937 -0.209462,-0.19844 -0.118511,-0.0854 -0.234266,-0.17088 0.245291,0.3638 0.578776,0.678 z m -0.573264,-0.52366 -0.358289,-0.44648 v 0.41065 z m 0.636653,0.75792 q 0,-0.0524 -0.341753,-0.39412 l 0.228754,0.7028 h 0.04961 q 0.06339,-0.21773 0.06339,-0.30868 z m -0.23151,0.27285 -0.316948,-0.90399 -0.410655,-0.0634 -0.159853,0.61461 z m 0.0028,0.15434 -0.771701,-0.3197 h -0.03032 l 0.344509,0.60634 q 0.07993,-0.003 0.234266,-0.0469 0.02481,-0.0138 0.223242,-0.23978 z m -0.857139,-1.05006 -0.719335,0.28388 0.60358,0.22599 z m 0,-0.16261 v -0.51538 l -0.917773,-0.38034 h -1.223697 l -0.917772,0.38034 v 0.51538 l 0.89848,0.4079 h 1.254014 z m 0.573264,1.53789 q -0.0689,0.011 -0.198438,0.0524 -0.08544,0.0551 -0.259071,0.16261 0.01929,0 0.06339,0.003 0.04134,0 0.06339,0 0.118511,0 0.190169,-0.0689 0.07166,-0.0717 0.14056,-0.14883 z m -0.289388,0.003 -0.347266,-0.63114 -0.363801,0.87918 q 0.0248,-0.0165 0.06615,-0.0165 0.03032,0 0.08544,0.011 0.05788,0.008 0.08819,0.008 0.04961,0 0.228754,-0.10749 0.228754,-0.1378 0.242535,-0.14331 z m -0.440972,-0.74139 -0.683507,-0.2756 -0.592556,0.54845 0.903993,0.65595 z m -0.854383,-0.28387 h -1.036284 l 0.523654,0.47404 z m 0.749652,1.36701 q -0.228754,-0.0303 -0.228754,-0.0303 -0.03583,0 -0.272851,0.0937 l 0.190169,0.0193 q 0.01102,0 0.311436,-0.0827 z m -0.388606,-0.0882 -0.843359,-0.61185 v 0.67524 l 0.471289,0.0827 z m 0.854383,0.0496 q -0.09922,0.006 -0.2949,0.0386 -0.01102,0.003 -0.377583,0.17639 -0.129535,0.34726 -0.380338,1.0418 z m -2.543857,-1.39733 -0.719335,-0.28388 0.124023,0.51814 z m -0.802018,-0.45476 v -0.41065 l -0.366557,0.44648 z m 1.515841,1.07212 -0.592556,-0.54019 -0.683506,0.2756 0.380338,0.9288 z m 0.369314,0.94257 q -0.03307,-0.003 -0.135047,-0.0248 -0.08544,-0.0165 -0.137804,-0.0165 -0.05237,0 -0.137804,0.0165 -0.101975,0.0221 -0.135047,0.0248 0.264583,0.0469 0.272851,0.0469 0.0083,0 0.272851,-0.0469 z m -0.30868,-0.1378 v -0.68626 l -0.843359,0.61185 0.37207,0.14607 z m 0.950846,0.20671 -0.396875,-0.0551 -0.479557,0.14056 v 1.27607 z m -2.888366,-2.20211 q -0.118512,0.0854 -0.234267,0.17364 -0.146072,0.10748 -0.209461,0.19568 -0.0441,0.10473 -0.135048,0.31419 0.369314,-0.3638 0.578776,-0.68351 z m 0.476801,0.83234 -0.159853,-0.61461 -0.410655,0.0634 -0.316948,0.90399 z m 0.394118,1.08313 -0.363802,-0.87918 -0.355533,0.63114 q 0.43546,0.2508 0.451996,0.2508 0.09095,0 0.267339,-0.003 z m 1.821765,0.82958 q -0.132291,0.21222 -0.405143,0.6339 -0.07717,0.10749 -0.220486,0.32797 -0.05788,0.10473 -0.05512,0.226 0.159852,-0.15158 0.432704,-0.49609 0.07717,-0.12954 0.140559,-0.339 0.05512,-0.17639 0.107486,-0.35278 z m -1.493792,-0.66146 -0.270095,-0.0882 -0.0083,-0.011 q -0.02481,0 -0.107487,0.011 -0.06615,0.006 -0.107487,0.006 0.272851,0.091 0.311436,0.091 0.02481,0 0.181901,-0.008 z m -0.810286,-1.06384 h -0.03032 l -0.7717,0.3197 q 0.06615,0.0965 0.223242,0.23978 0.07717,0.0138 0.234266,0.0469 z m -0.689018,-0.50161 q -0.341754,0.34727 -0.341754,0.39412 0,0.0799 0.06339,0.30868 h 0.04961 z m 2.235176,3.04547 v -1.27607 l -0.479557,-0.14056 -0.396875,0.0551 z m -1.606791,-1.6757 q -0.256315,-0.1819 -0.457509,-0.22324 0.06615,0.0772 0.20395,0.22324 z m 1.609547,2.04501 v -0.1378 l -0.683507,-1.05007 q 0.05237,0.17639 0.107487,0.35278 0.06339,0.20946 0.14056,0.339 0.0689,0.11851 0.20395,0.25907 0.115755,0.11851 0.23151,0.23702 z m -0.644921,-0.70555 q -0.115756,-0.32798 -0.380339,-1.0418 -0.135047,-0.0662 -0.272851,-0.12954 -0.159852,-0.0716 -0.289388,-0.0716 -0.05237,0 -0.110243,-0.0138 z" />
            </g>
        </g>
        <path id="model_name" d="M8.95715 4.39488Q8.95715 4.45697 8.91446 4.49966Q8.87177 4.54234 8.80968 4.54234H7.95596V7.3053Q7.95596 7.64679 8.07626 7.75932Q8.19656 7.87186 8.38282 7.87186Q8.41387 7.87186 8.47208 7.85634Q8.53028 7.84081 8.56909 7.84081Q8.62342 7.84081 8.66222 7.8835Q8.70103 7.92619 8.70103 7.98051Q8.70103 8.05036 8.6079 8.10081Q8.51476 8.15126 8.39058 8.15126Q8.19656 8.15126 8.06462 8.12409Q7.93268 8.09693 7.7891 7.91454Q7.64552 7.73216 7.64552 7.32082V4.54234H7.00911Q6.95478 4.54234 6.90821 4.49578Q6.86165 4.44921 6.86165 4.39488Q6.86165 4.33279 6.90433 4.29011Q6.94702 4.24742 7.00911 4.24742H7.64552V3.26176Q7.64552 3.19967 7.69208 3.1531Q7.73865 3.10654 7.80074 3.10654Q7.87059 3.10654 7.91328 3.1531Q7.95596 3.19967 7.95596 3.26176V4.24742H8.80968Q8.86401 4.24742 8.91058 4.29399Q8.95715 4.34055 8.95715 4.39488ZM12.8998 4.43369V6.69217Q12.8998 7.42948 12.4846 7.81365Q12.0694 8.19782 11.3553 8.19782Q10.6413 8.19782 10.23 7.81365Q9.81863 7.42948 9.81863 6.69217V4.43369Q9.81863 4.3716 9.8652 4.32503Q9.91176 4.27846 9.97385 4.27846Q10.0437 4.27846 10.0864 4.32503Q10.1291 4.3716 10.1291 4.43369V6.69217Q10.1291 7.27425 10.455 7.58858Q10.781 7.9029 11.3553 7.9029Q11.9374 7.9029 12.2634 7.58858Q12.5893 7.27425 12.5893 6.69217V4.43369Q12.5893 4.3716 12.632 4.32503Q12.6747 4.27846 12.7446 4.27846Q12.8144 4.27846 12.8571 4.32503Q12.8998 4.3716 12.8998 4.43369ZM17.7893 6.17217Q17.7893 6.7465 17.5526 7.21604Q17.3159 7.68559 16.9045 7.95723Q16.4932 8.22887 15.9887 8.22887Q15.5308 8.22887 15.1428 7.98439Q14.7547 7.73992 14.4986 7.3053V7.99604Q14.4986 8.05812 14.4559 8.10469Q14.4132 8.15126 14.3434 8.15126Q14.2813 8.15126 14.2347 8.10469Q14.1881 8.05812 14.1881 7.99604V2.57102Q14.1881 2.50893 14.2308 2.46236Q14.2735 2.4158 14.3434 2.4158Q14.4132 2.4158 14.4559 2.46236Q14.4986 2.50893 14.4986 2.57102V5.10114Q14.7314 4.64324 15.1233 4.39876Q15.5153 4.15429 15.9887 4.15429Q16.5009 4.15429 16.9123 4.41428Q17.3236 4.67428 17.5565 5.13607Q17.7893 5.59785 17.7893 6.17217ZM17.4788 6.17217Q17.4788 5.67546 17.2809 5.28353Q17.083 4.89159 16.7415 4.6704Q16.4001 4.44921 15.9732 4.44921Q15.5386 4.44921 15.1932 4.6704Q14.8478 4.89159 14.6577 5.28353Q14.4675 5.67546 14.4675 6.17217Q14.4675 6.66889 14.6616 7.07246Q14.8556 7.47604 15.1971 7.70499Q15.5386 7.93395 15.9732 7.93395Q16.4001 7.93395 16.7415 7.70111Q17.083 7.46828 17.2809 7.06858Q17.4788 6.66889 17.4788 6.17217ZM22.0036 7.35962Q22.0036 7.41395 21.9725 7.45276Q21.7164 7.79425 21.3361 8.01156Q20.9558 8.22887 20.5212 8.22887Q19.9391 8.22887 19.489 7.98051Q19.0388 7.73216 18.7866 7.27425Q18.5344 6.81635 18.5344 6.21098Q18.5344 5.59009 18.7788 5.12054Q19.0233 4.651 19.4269 4.40264Q19.8305 4.15429 20.2884 4.15429Q20.7463 4.15429 21.1382 4.35219Q21.5301 4.5501 21.7785 4.94592Q22.0269 5.34174 22.0424 5.92382Q22.0424 5.98591 21.9958 6.03636Q21.9492 6.0868 21.8872 6.0868H18.837V6.1877Q18.837 6.66889 19.0311 7.06858Q19.2251 7.46828 19.6054 7.70111Q19.9857 7.93395 20.5212 7.93395Q20.8937 7.93395 21.2236 7.75156Q21.5534 7.56917 21.7397 7.28977Q21.794 7.21992 21.8716 7.21992Q21.926 7.21992 21.9648 7.26261Q22.0036 7.3053 22.0036 7.35962ZM18.8681 5.79188H21.7242V5.72203Q21.6854 5.32621 21.4719 5.04293Q21.2585 4.75965 20.9442 4.61219Q20.6299 4.46473 20.2884 4.46473Q20.0012 4.46473 19.7024 4.61607Q19.4036 4.76741 19.1746 5.06622Q18.9457 5.36502 18.8681 5.79188ZM30.9211 5.73755V7.99604Q30.9211 8.05812 30.8784 8.10469Q30.8357 8.15126 30.7659 8.15126Q30.696 8.15126 30.6533 8.10469Q30.6106 8.05812 30.6106 7.99604V5.7686Q30.6106 5.21756 30.3429 4.87219Q30.0751 4.52682 29.5319 4.52682Q29.1981 4.52682 28.876 4.69756Q28.554 4.86831 28.3522 5.15159Q28.1504 5.43487 28.1504 5.7686V7.99604Q28.1504 8.05812 28.1077 8.10469Q28.065 8.15126 27.9952 8.15126Q27.9253 8.15126 27.8826 8.10469Q27.8399 8.05812 27.8399 7.99604V5.72979Q27.8399 5.19427 27.5838 4.86055Q27.3277 4.52682 26.8077 4.52682Q26.4817 4.52682 26.1713 4.6898Q25.8608 4.85279 25.6629 5.13219Q25.465 5.41159 25.465 5.72979V7.99604Q25.465 8.05812 25.4185 8.10469Q25.3719 8.15126 25.3098 8.15126Q25.24 8.15126 25.1973 8.10469Q25.1546 8.05812 25.1546 7.99604V4.43369Q25.1546 4.3716 25.2012 4.32503Q25.2477 4.27846 25.3098 4.27846Q25.3797 4.27846 25.4223 4.32503Q25.465 4.3716 25.465 4.43369V4.97696Q25.6901 4.651 26.051 4.44145Q26.4119 4.2319 26.8077 4.2319Q27.2346 4.2319 27.5683 4.44921Q27.902 4.66652 28.0572 5.08562Q28.2202 4.72861 28.6742 4.48025Q29.1283 4.2319 29.5629 4.2319Q30.2304 4.2319 30.5757 4.651Q30.9211 5.0701 30.9211 5.73755ZM33.8548 8.22887Q33.3193 8.22887 32.8808 7.96111Q32.4423 7.69335 32.19 7.22769Q31.9378 6.76202 31.9378 6.19546Q31.9378 5.62114 32.19 5.15547Q32.4423 4.6898 32.8769 4.42204Q33.3115 4.15429 33.8548 4.15429Q34.3903 4.15429 34.8288 4.42204Q35.2673 4.6898 35.5157 5.15547Q35.764 5.62114 35.764 6.19546Q35.764 6.76978 35.5157 7.23157Q35.2673 7.69335 34.8288 7.96111Q34.3903 8.22887 33.8548 8.22887ZM33.8548 4.44921Q33.4046 4.44921 33.036 4.67816Q32.6673 4.90711 32.4578 5.30293Q32.2482 5.69875 32.2482 6.19546Q32.2482 6.68441 32.4578 7.08022Q32.6673 7.47604 33.036 7.70499Q33.4046 7.93395 33.8548 7.93395Q34.3127 7.93395 34.6775 7.70887Q35.0422 7.4838 35.2479 7.08411Q35.4536 6.68441 35.4536 6.19546Q35.4536 5.69875 35.2479 5.30293Q35.0422 4.90711 34.6775 4.67816Q34.3127 4.44921 33.8548 4.44921ZM39.9317 5.62114V7.99604Q39.9317 8.05812 39.8852 8.10469Q39.8386 8.15126 39.7765 8.15126Q39.7067 8.15126 39.664 8.10469Q39.6213 8.05812 39.6213 7.99604V5.65218Q39.6213 5.12443 39.3458 4.78682Q39.0703 4.44921 38.5115 4.44921Q38.17 4.44921 37.8401 4.61219Q37.5103 4.77517 37.3007 5.05457Q37.0912 5.33397 37.0912 5.65218V7.99604Q37.0912 8.05812 37.0446 8.10469Q36.998 8.15126 36.936 8.15126Q36.8661 8.15126 36.8234 8.10469Q36.7807 8.05812 36.7807 7.99604V4.43369Q36.7807 4.3716 36.8273 4.32503Q36.8739 4.27846 36.936 4.27846Q37.0058 4.27846 37.0485 4.32503Q37.0912 4.3716 37.0912 4.43369V4.95368Q37.3162 4.60443 37.7237 4.37936Q38.1312 4.15429 38.5425 4.15429Q39.2332 4.15429 39.5825 4.56174Q39.9317 4.9692 39.9317 5.62114ZM40.9484 7.38291Q40.9484 7.32858 41.0105 7.28201Q41.0493 7.24321 41.1037 7.24321Q41.1813 7.24321 41.2278 7.3053Q41.678 7.94947 42.4851 7.94947Q42.8965 7.94947 43.2069 7.7438Q43.5174 7.53813 43.5174 7.18888Q43.5174 6.83187 43.2457 6.65336Q42.9741 6.47486 42.5007 6.35844Q41.872 6.20322 41.5111 5.94322Q41.1502 5.68323 41.1502 5.2098Q41.1502 4.75189 41.515 4.45309Q41.8798 4.15429 42.4541 4.15429Q42.7723 4.15429 43.0866 4.27846Q43.401 4.40264 43.6571 4.67428Q43.7114 4.72085 43.7114 4.78294Q43.7114 4.85279 43.6571 4.90711Q43.595 4.93816 43.5562 4.93816Q43.5019 4.93816 43.463 4.89159Q43.0595 4.44921 42.4231 4.44921Q42.0117 4.44921 41.7284 4.651Q41.4452 4.85279 41.4452 5.2098Q41.4684 5.54352 41.7517 5.72591Q42.035 5.9083 42.586 6.048Q42.9819 6.14889 43.2419 6.26919Q43.5019 6.38949 43.6571 6.6068Q43.8123 6.82411 43.8123 7.17336Q43.8123 7.66231 43.4359 7.94559Q43.0595 8.22887 42.4541 8.22887Q41.5693 8.22887 41.0028 7.53037Q40.9484 7.445 40.9484 7.38291ZM46.42 4.39488Q46.42 4.45697 46.3773 4.49966Q46.3347 4.54234 46.2726 4.54234H45.4188V7.3053Q45.4188 7.64679 45.5391 7.75932Q45.6594 7.87186 45.8457 7.87186Q45.8768 7.87186 45.935 7.85634Q45.9932 7.84081 46.032 7.84081Q46.0863 7.84081 46.1251 7.8835Q46.1639 7.92619 46.1639 7.98051Q46.1639 8.05036 46.0708 8.10081Q45.9776 8.15126 45.8535 8.15126Q45.6594 8.15126 45.5275 8.12409Q45.3956 8.09693 45.252 7.91454Q45.1084 7.73216 45.1084 7.32082V4.54234H44.472Q44.4177 4.54234 44.3711 4.49578Q44.3245 4.44921 44.3245 4.39488Q44.3245 4.33279 44.3672 4.29011Q44.4099 4.24742 44.472 4.24742H45.1084V3.26176Q45.1084 3.19967 45.155 3.1531Q45.2015 3.10654 45.2636 3.10654Q45.3335 3.10654 45.3762 3.1531Q45.4188 3.19967 45.4188 3.26176V4.24742H46.2726Q46.3269 4.24742 46.3735 4.29399Q46.42 4.34055 46.42 4.39488ZM50.4791 7.35962Q50.4791 7.41395 50.448 7.45276Q50.1919 7.79425 49.8116 8.01156Q49.4313 8.22887 48.9967 8.22887Q48.4146 8.22887 47.9645 7.98051Q47.5143 7.73216 47.2621 7.27425Q47.0099 6.81635 47.0099 6.21098Q47.0099 5.59009 47.2543 5.12054Q47.4988 4.651 47.9024 4.40264Q48.306 4.15429 48.7639 4.15429Q49.2218 4.15429 49.6137 4.35219Q50.0057 4.5501 50.254 4.94592Q50.5024 5.34174 50.5179 5.92382Q50.5179 5.98591 50.4713 6.03636Q50.4248 6.0868 50.3627 6.0868H47.3126V6.1877Q47.3126 6.66889 47.5066 7.06858Q47.7006 7.46828 48.0809 7.70111Q48.4612 7.93395 48.9967 7.93395Q49.3693 7.93395 49.6991 7.75156Q50.0289 7.56917 50.2152 7.28977Q50.2695 7.21992 50.3472 7.21992Q50.4015 7.21992 50.4403 7.26261Q50.4791 7.3053 50.4791 7.35962ZM47.3436 5.79188H50.1997V5.72203Q50.1609 5.32621 49.9475 5.04293Q49.734 4.75965 49.4197 4.61219Q49.1054 4.46473 48.7639 4.46473Q48.4767 4.46473 48.1779 4.61607Q47.8791 4.76741 47.6502 5.06622Q47.4212 5.36502 47.3436 5.79188ZM53.6456 4.33279Q53.6456 4.40264 53.6068 4.44921Q53.568 4.49578 53.5059 4.49578Q53.4826 4.49578 53.3934 4.46085Q53.3041 4.42592 53.2032 4.42592Q52.885 4.42592 52.5668 4.67816Q52.2486 4.9304 52.0468 5.31457Q51.845 5.69875 51.845 6.05576V7.99604Q51.845 8.05812 51.7985 8.10469Q51.7519 8.15126 51.6898 8.15126Q51.62 8.15126 51.5773 8.10469Q51.5346 8.05812 51.5346 7.99604V4.43369Q51.5346 4.3716 51.5812 4.32503Q51.6277 4.27846 51.6898 4.27846Q51.7597 4.27846 51.8024 4.32503Q51.845 4.3716 51.845 4.43369V5.25636Q52.0236 4.78294 52.4 4.47249Q52.7764 4.16205 53.2886 4.15429Q53.6456 4.15429 53.6456 4.33279Z" style="display:inline;stroke:#000000;stroke-width:0.35;stroke-linecap:round;stroke-linejoin:bevel" />
        <g id="port_artwork">
            <path id="input_connector_path" style="stroke:#000000;stroke-width:0.25;stroke-linecap:round;stroke-linejoin:bevel;stroke-dasharray:none" d="M 9,114.5 L 23,114.5 z" />
            <path id="drive_connector_path" style="stroke:#000000;stroke-width:0.25;stroke-linecap:round;stroke-linejoin:bevel;stroke-dasharray:none" d="M 40.50,107.50 L 52.50,102.50 M 40.50,107.50 L 52.50,112.50 " />
            <path d="M14.7269 113.014Q14.6916 113.014 14.6722 112.993Q14.6528 112.972 14.6528 112.94V110.619Q14.6528 110.587 14.6739 110.566Q14.6951 110.545 14.7269 110.545Q14.7586 110.545 14.7798 110.566Q14.8009 110.587 14.8009 110.619V112.94Q14.7974 112.972 14.7763 112.993Q14.7551 113.014 14.7269 113.014ZM17.3586 110.612V112.937Q17.3586 112.975 17.3374 112.995Q17.3163 113.014 17.2845 113.014Q17.2492 113.014 17.2281 112.986L15.6406 110.816V112.954Q15.6406 112.979 15.6212 112.997Q15.6018 113.014 15.5735 113.014Q15.5418 113.014 15.5241 112.997Q15.5065 112.979 15.5065 112.954V110.615Q15.5065 110.58 15.5259 110.562Q15.5453 110.545 15.57 110.545Q15.6018 110.545 15.6229 110.569L17.2245 112.753V110.612Q17.2245 110.584 17.2439 110.564Q17.2633 110.545 17.2916 110.545Q17.3233 110.545 17.3409 110.564Q17.3586 110.584 17.3586 110.612Z" style="stroke:#000000;stroke-width:0.25;stroke-linecap:round;stroke-linejoin:bevel" />
            <path d="M9.88858 110.044Q9.88858 110.075 9.86742 110.095Q9.84625 110.114 9.81803 110.114H8.52333Q8.49158 110.114 8.47218 110.093Q8.45278 110.072 8.45278 110.044V107.715Q8.45278 107.687 8.47394 107.666Q8.49511 107.645 8.52686 107.645Q8.55861 107.645 8.57978 107.666Q8.60094 107.687 8.60094 107.715V109.973H9.81803Q9.84625 109.973 9.86742 109.994Q9.88858 110.015 9.88858 110.044Z" style="stroke:#000000;stroke-width:0.25;stroke-linecap:round;stroke-linejoin:bevel" />
            <path d="M23.9484 110.04Q23.9484 110.072 23.929 110.091Q23.9096 110.111 23.8814 110.111Q23.8602 110.111 23.8496 110.104Q23.7544 110.051 23.6979 109.925Q23.6415 109.8 23.6415 109.514Q23.6415 109.225 23.4863 109.118Q23.3311 109.01 23.1264 109.01H22.3009V110.044Q22.3009 110.072 22.2798 110.093Q22.2586 110.114 22.2269 110.114Q22.1951 110.114 22.1739 110.093Q22.1528 110.072 22.1528 110.044V107.715Q22.1528 107.687 22.1739 107.666Q22.1951 107.645 22.2233 107.645H23.1547Q23.3593 107.645 23.518 107.728Q23.6768 107.811 23.765 107.955Q23.8532 108.1 23.8532 108.283Q23.8532 108.52 23.7279 108.689Q23.6027 108.858 23.4016 108.918Q23.5709 108.971 23.6803 109.128Q23.7897 109.285 23.7897 109.514Q23.7897 109.751 23.8197 109.844Q23.8496 109.938 23.9096 109.977Q23.9484 110.001 23.9484 110.04ZM23.1723 108.869Q23.3946 108.848 23.5498 108.693Q23.705 108.537 23.705 108.287Q23.705 108.068 23.5498 107.927Q23.3946 107.786 23.137 107.786H22.3009V108.869Z" style="stroke:#000000;stroke-width:0.25;stroke-linecap:round;stroke-linejoin:bevel" />
            <path d="M58.7886 103.544Q58.7886 103.575 58.7674 103.595Q58.7463 103.614 58.718 103.614H57.4233Q57.3916 103.614 57.3722 103.593Q57.3528 103.572 57.3528 103.544V101.215Q57.3528 101.187 57.3739 101.166Q57.3951 101.145 57.4269 101.145Q57.4586 101.145 57.4798 101.166Q57.5009 101.187 57.5009 101.215V103.473H58.718Q58.7463 103.473 58.7674 103.494Q58.7886 103.515 58.7886 103.544Z" style="stroke:#000000;stroke-width:0.25;stroke-linecap:round;stroke-linejoin:bevel" />
            <path d="M59.1484 113.54Q59.1484 113.572 59.129 113.591Q59.1096 113.611 59.0814 113.611Q59.0602 113.611 59.0496 113.604Q58.9544 113.551 58.8979 113.425Q58.8415 113.3 58.8415 113.014Q58.8415 112.725 58.6863 112.618Q58.5311 112.51 58.3264 112.51H57.5009V113.544Q57.5009 113.572 57.4798 113.593Q57.4586 113.614 57.4269 113.614Q57.3951 113.614 57.3739 113.593Q57.3528 113.572 57.3528 113.544V111.215Q57.3528 111.187 57.3739 111.166Q57.3951 111.145 57.4233 111.145H58.3547Q58.5593 111.145 58.718 111.228Q58.8768 111.311 58.965 111.455Q59.0532 111.6 59.0532 111.783Q59.0532 112.02 58.9279 112.189Q58.8027 112.358 58.6016 112.418Q58.7709 112.471 58.8803 112.628Q58.9897 112.785 58.9897 113.014Q58.9897 113.251 59.0197 113.344Q59.0496 113.438 59.1096 113.477Q59.1484 113.501 59.1484 113.54ZM58.3723 112.369Q58.5946 112.348 58.7498 112.193Q58.905 112.037 58.905 111.787Q58.905 111.568 58.7498 111.427Q58.5946 111.286 58.337 111.286H57.5009V112.369Z" style="stroke:#000000;stroke-width:0.25;stroke-linecap:round;stroke-linejoin:bevel" />
        </g>
    </g>
</svg>
