<?xml version="1.0" encoding="UTF-8" standalone="no"?>
<svg xmlns="http://www.w3.org/2000/svg" width="10mm" height="4mm" viewBox="0 0 10 4">
  <!-- https://github.com/cosinekitty/sapphire -->
  <title>VENT</title>
  <g id="PanelLayer">
    <g style="stroke:#000000;stroke-width:0.25;stroke-linecap:round;stroke-linejoin:bevel">
      <path d="m 2.517332,0.762974 q 0.03175,0 0.04939,0.01764 0.02117,0.01764 0.02117,0.04586 0,0.01411 -0.0071,0.03528 l -0.966611,2.324807 q -0.02117,0.04586 -0.06703,0.04586 -0.02117,0 -0.04233,-0.01058 -0.01764,-0.01411 -0.02469,-0.03528 l -0.959556,-2.314223 q -0.01058,-0.02117 -0.01058,-0.04233 0,-0.02822 0.01764,-0.04586 0.02117,-0.02117 0.04939,-0.02117 0.05292,0 0.07761,0.05644 l 0.896057,2.155474 0.899583,-2.166057 q 0.0247,-0.04586 0.06703,-0.04586 z"/>
      <path d="m 4.464666,3.091308 q 0.02822,0 0.04939,0.02117 0.02117,0.02117 0.02117,0.04939 0,0.03175 -0.02117,0.05292 -0.02117,0.01764 -0.04939,0.01764 h -1.329973 q -0.02822,0 -0.04939,-0.02117 -0.02117,-0.02117 -0.02117,-0.04939 v -2.328335 q 0,-0.02822 0.02117,-0.04939 0.02117,-0.02117 0.04939,-0.02117 h 1.329973 q 0.02822,0 0.04939,0.02117 0.02117,0.02117 0.02117,0.04939 0,0.03175 -0.02117,0.05292 -0.02117,0.01764 -0.04939,0.01764 h -1.252362 v 0.98425 h 1.093612 q 0.02822,0 0.04939,0.02117 0.02117,0.02117 0.02117,0.04939 0,0.03175 -0.02117,0.05292 -0.02117,0.01764 -0.04939,0.01764 h -1.093612 v 1.061861 z"/>
      <path d="m 6.849444,0.762974 q 0.03175,0 0.04939,0.02117 0.01764,0.01764 0.01764,0.04586 v 2.324807 q 0,0.03881 -0.02117,0.05997 -0.02117,0.01764 -0.05292,0.01764 -0.03528,0 -0.05644,-0.02822 l -1.587501,-2.169584 v 2.137834 q 0,0.0247 -0.02117,0.04233 -0.01764,0.01764 -0.04586,0.01764 -0.03175,0 -0.04939,-0.01764 -0.01764,-0.01764 -0.01764,-0.04233 v -2.338918 q 0,-0.03528 0.01764,-0.05292 0.02117,-0.01764 0.04586,-0.01764 0.03175,0 0.05292,0.02469 l 1.601612,2.183696 v -2.141363 q 0,-0.02822 0.01764,-0.04586 0.02117,-0.02117 0.04939,-0.02117 z"/>
      <path d="m 9.177773,0.762974 q 0.02822,0 0.04939,0.02117 0.02117,0.01764 0.02117,0.04586 0,0.03175 -0.02117,0.04939 -0.01764,0.01764 -0.04939,0.01764 h -0.786695 v 2.264835 q 0,0.02822 -0.02117,0.04939 -0.02117,0.02117 -0.04939,0.02117 -0.03175,0 -0.05292,-0.02117 -0.01764,-0.02117 -0.01764,-0.04939 v -2.264835 h -0.786695 q -0.02822,0 -0.04939,-0.01764 -0.02117,-0.02117 -0.02117,-0.04939 0,-0.02822 0.02117,-0.04586 0.02117,-0.02117 0.04939,-0.02117 z"/>
    </g>
  </g>
</svg>
