<?xml version='1.0' encoding='utf-8'?>
<svg xmlns="http://www.w3.org/2000/svg" width="60.96mm" height="128.5mm" viewBox="0 0 60.96 128.5">
  <title>SEAL</title>
  <g style="stroke:#000000;stroke-width:0.25;stroke-linecap:round;stroke-linejoin:bevel">
    <path d="m 17.020170,17.293323 q -0.261055,0 -0.4550823,-0.08819 Q 16.371060,17.113406 16.180560,16.922907 16.159394,16.901740 16.159394,16.869990 q 0,-0.028222 0.024694,-0.052916 0.024694,-0.028222 0.052916,-0.028222 0.03175,0 0.059972,0.03175 0.1375831,0.1622775 0.3245549,0.2469439 0.1904996,0.084667 0.398638,0.084667 0.2716383,0 0.4480268,-0.1305278 Q 17.644585,16.891157 17.644585,16.675963 17.641057,16.506630 17.552863,16.397269 17.464669,16.287908 17.334141,16.224408 17.207141,16.157381 16.984892,16.076242 16.741476,15.984520 16.603893,15.913964 16.469838,15.843409 16.371060,15.712882 16.275810,15.582354 16.275810,15.370688 q 0,-0.1728607 0.09525,-0.3139715 0.09525,-0.1411108 0.2716383,-0.2222495 0.1763885,-0.081139 0.4092213,-0.081139 0.2081385,0 0.3951103,0.077611 0.1869718,0.074083 0.2963327,0.2116662 0.035278,0.049389 0.035278,0.074083 0,0.028222 -0.028222,0.052917 -0.024694,0.021167 -0.056444,0.021167 -0.028222,0 -0.045861,-0.021167 Q 17.549335,15.042605 17.394113,14.968522 17.238891,14.894439 17.051920,14.894439 q -0.2681105,0 -0.4480268,0.1269997 -0.1763885,0.1269997 -0.1763885,0.3457215 0,0.1516941 0.084666,0.2575272 0.088194,0.1058331 0.2187217,0.1728607 0.1305275,0.0635 0.3245549,0.1340553 0.2469439,0.088194 0.3915825,0.1622774 0.1446385,0.074083 0.2469439,0.215194 0.1023053,0.1411108 0.1023053,0.3739436 0,0.1622774 -0.09525,0.3033882 -0.09525,0.1411105 -0.2751661,0.2257775 -0.1763885,0.08114 -0.4056935,0.08114 z" />
    <path d="m 19.729494,17.116934 q 0.028222,0 0.049389,0.02117 0.021167,0.02117 0.021167,0.04939 0,0.03175 -0.021167,0.05292 -0.021167,0.01764 -0.049389,0.01764 H 18.399525 q -0.028222,0 -0.049389,-0.02117 -0.021167,-0.02117 -0.021167,-0.04939 V 14.859161 q 0,-0.028222 0.021167,-0.049389 0.021167,-0.021167 0.049389,-0.021167 h 1.3299693 q 0.028222,0 0.049389,0.021167 0.021167,0.021167 0.021167,0.049389 0,0.03175 -0.021167,0.052916 -0.021167,0.017639 -0.049389,0.017639 H 18.477136 V 15.913964 h 1.0936087 q 0.028222,0 0.049389,0.021167 0.021167,0.021167 0.021167,0.049389 0,0.03175 -0.021167,0.052917 -0.021167,0.017639 -0.049389,0.017639 H 18.477136 v 1.061859 z" />
    <path d="m 22.138959,17.162795 q 0.00353,0.01058 0.00353,0.02822 0,0.03175 -0.021167,0.04939 -0.021167,0.01764 -0.052917,0.01764 -0.024694,0 -0.045861,-0.01058 -0.017639,-0.01411 -0.024694,-0.03528 L 21.701516,16.485463 l 0.00353,0.00706 H 20.523241 L 20.237491,17.212184 q -0.017639,0.04586 -0.0635,0.04586 -0.03175,0 -0.052916,-0.01764 -0.017639,-0.01764 -0.021167,-0.04233 -0.00353,-0.01411 0.00353,-0.03528 L 21.052406,14.827411 q 0.010583,-0.028222 0.024694,-0.035278 0.017639,-0.010583 0.042333,-0.010583 0.052917,0 0.070555,0.045861 z M 20.579685,16.351408 H 21.648599 L 21.108851,15.021439 Z" />
    <path d="m 23.983977,17.116934 q 0.02822,0 0.04939,0.02117 0.02117,0.02117 0.02117,0.04939 0,0.03175 -0.02117,0.05292 -0.02117,0.01764 -0.04939,0.01764 H 22.689285 q -0.03175,0 -0.052917,-0.02117 -0.017639,-0.02117 -0.017639,-0.04939 V 14.859161 q 0,-0.028222 0.021167,-0.049389 0.021167,-0.021167 0.052917,-0.021167 0.03175,0 0.052917,0.021167 0.021167,0.021167 0.021167,0.049389 v 2.2577728 z" />
  </g>
</svg>