<?xml version="1.0" encoding="UTF-8" standalone="no"?>
<svg xmlns="http://www.w3.org/2000/svg" width="10mm" height="4mm" viewBox="0 0 10 4">
  <!-- https://github.com/cosinekitty/sapphire -->
  <title>SEAL</title>
  <g id="PanelLayer">
    <g
       id="seal_label"
       style="stroke:#000000;stroke-width:0.25;stroke-linecap:round;stroke-linejoin:bevel"
       transform="translate(-2.2,-6.95)">
      <path d="m 3.9801697,10.193323 q -0.261055,0 -0.4550823,-0.08819 Q 3.33106,10.013406 3.1405604,9.8229067 3.1193938,9.80174 3.1193938,9.7699901 q 0,-0.028222 0.024694,-0.052916 0.024694,-0.028222 0.052916,-0.028222 0.03175,0 0.059972,0.03175 0.1375831,0.1622775 0.3245549,0.2469439 0.1904996,0.084667 0.398638,0.084667 0.2716383,0 0.4480268,-0.1305278 Q 4.604585,9.7911567 4.604585,9.5759628 4.6010572,9.4066298 4.512863,9.2972689 4.4246687,9.1879081 4.2941412,9.1244082 4.1671415,9.0573806 3.944892,8.9762419 3.7014759,8.8845198 3.5638928,8.8139644 3.4298376,8.743409 3.33106,8.6128815 3.2358102,8.482354 3.2358102,8.2706878 q 0,-0.1728607 0.09525,-0.3139715 0.09525,-0.1411108 0.2716383,-0.2222495 0.1763885,-0.081139 0.4092213,-0.081139 0.2081385,0 0.3951103,0.077611 0.1869718,0.074083 0.2963327,0.2116662 0.035278,0.049389 0.035278,0.074083 0,0.028222 -0.028222,0.052917 -0.024694,0.021167 -0.056444,0.021167 -0.028222,0 -0.045861,-0.021167 Q 4.5093352,7.9426052 4.3541133,7.8685221 4.1988914,7.7944389 4.0119196,7.7944389 q -0.2681105,0 -0.4480268,0.1269997 -0.1763885,0.1269997 -0.1763885,0.3457215 0,0.1516941 0.084666,0.2575272 0.088194,0.1058331 0.2187217,0.1728607 0.1305275,0.0635 0.3245549,0.1340553 0.2469439,0.088194 0.3915825,0.1622774 0.1446385,0.074083 0.2469439,0.215194 0.1023053,0.1411108 0.1023053,0.3739436 0,0.1622774 -0.09525,0.3033882 -0.09525,0.1411105 -0.2751661,0.2257775 -0.1763885,0.08114 -0.4056935,0.08114 z"/>
      <path d="m 6.6894943,10.016934 q 0.028222,0 0.049389,0.02117 0.021167,0.02117 0.021167,0.04939 0,0.03175 -0.021167,0.05292 -0.021167,0.01764 -0.049389,0.01764 H 5.359525 q -0.028222,0 -0.049389,-0.02117 -0.021167,-0.02117 -0.021167,-0.04939 V 7.7591612 q 0,-0.028222 0.021167,-0.049389 0.021167,-0.021167 0.049389,-0.021167 h 1.3299693 q 0.028222,0 0.049389,0.021167 0.021167,0.021167 0.021167,0.049389 0,0.03175 -0.021167,0.052916 -0.021167,0.017639 -0.049389,0.017639 H 5.437136 V 8.813964 h 1.0936087 q 0.028222,0 0.049389,0.021167 0.021167,0.021167 0.021167,0.049389 0,0.03175 -0.021167,0.052917 -0.021167,0.017639 -0.049389,0.017639 H 5.437136 v 1.061859 z"/>
      <path d="m 9.0989595,10.062795 q 0.00353,0.01058 0.00353,0.02822 0,0.03175 -0.021167,0.04939 -0.021167,0.01764 -0.052917,0.01764 -0.024694,0 -0.045861,-0.01058 -0.017639,-0.01411 -0.024694,-0.03528 L 8.661516,9.3854632 l 0.00353,0.00706 H 7.4832408 L 7.1974914,10.112184 q -0.017639,0.04586 -0.0635,0.04586 -0.03175,0 -0.052916,-0.01764 -0.017639,-0.01764 -0.021167,-0.04233 -0.00353,-0.01411 0.00353,-0.03528 L 8.0124063,7.7274113 q 0.010583,-0.028222 0.024694,-0.035278 0.017639,-0.010583 0.042333,-0.010583 0.052917,0 0.070555,0.045861 z M 7.5396851,9.2514079 H 8.6085994 L 8.0688506,7.9214386 Z"/>
      <path d="m 10.943977,10.016934 q 0.02822,0 0.04939,0.02117 0.02117,0.02117 0.02117,0.04939 0,0.03175 -0.02117,0.05292 -0.02117,0.01764 -0.04939,0.01764 H 9.6492853 q -0.03175,0 -0.052917,-0.02117 -0.017639,-0.02117 -0.017639,-0.04939 V 7.7591612 q 0,-0.028222 0.021167,-0.049389 0.021167,-0.021167 0.052917,-0.021167 0.03175,0 0.052917,0.021167 0.021167,0.021167 0.021167,0.049389 v 2.2577728 z"/>
    </g>
  </g>
</svg>
