<?xml version="1.0" encoding="utf-8"?>
<svg xmlns="http://www.w3.org/2000/svg" width="60.96mm" height="128.50mm" viewBox="0 0 60.96 128.50">
    <g id="control_labels" style="stroke:#000000;stroke-width:0.25;stroke-linecap:round;stroke-linejoin:bevel">
        <path id="airflow_label" d="M12.1932 26.1126Q12.1932 26.1443 12.1721 26.1619Q12.1509 26.1796 12.1191 26.1796Q12.0944 26.1796 12.075 26.1672Q12.0556 26.1549 12.0486 26.1337L11.7523 25.407L11.7558 25.4141H10.574L10.2882 26.1337Q10.2706 26.1796 10.2247 26.1796Q10.193 26.1796 10.1736 26.1619Q10.1542 26.1443 10.1506 26.1196Q10.1471 26.1055 10.1542 26.0843L11.1031 23.7489Q11.1137 23.7207 11.1296 23.7119Q11.1455 23.7031 11.1702 23.7031Q11.2231 23.7031 11.2407 23.7489L12.1897 26.0843Q12.1932 26.0949 12.1932 26.1126ZM10.6304 25.2729H11.6993L11.1596 23.943ZM12.7436 26.1796Q12.7083 26.1796 12.6889 26.1584Q12.6695 26.1373 12.6695 26.1055V23.7842Q12.6695 23.7525 12.6906 23.7313Q12.7118 23.7101 12.7436 23.7101Q12.7753 23.7101 12.7965 23.7313Q12.8176 23.7525 12.8176 23.7842V26.1055Q12.8141 26.1373 12.7929 26.1584Q12.7718 26.1796 12.7436 26.1796ZM15.3188 26.1055Q15.3188 26.1373 15.2994 26.1567Q15.28 26.1761 15.2518 26.1761Q15.2306 26.1761 15.2201 26.169Q15.1248 26.1161 15.0684 25.9908Q15.0119 25.8656 15.0119 25.5799Q15.0119 25.2906 14.8567 25.183Q14.7015 25.0754 14.4969 25.0754H13.6714V26.109Q13.6714 26.1373 13.6502 26.1584Q13.629 26.1796 13.5973 26.1796Q13.5655 26.1796 13.5444 26.1584Q13.5232 26.1373 13.5232 26.109V23.7807Q13.5232 23.7525 13.5444 23.7313Q13.5655 23.7101 13.5938 23.7101H14.5251Q14.7297 23.7101 14.8884 23.793Q15.0472 23.8759 15.1354 24.0206Q15.2236 24.1652 15.2236 24.3487Q15.2236 24.585 15.0983 24.7544Q14.9731 24.9237 14.772 24.9837Q14.9414 25.0366 15.0507 25.1936Q15.1601 25.3506 15.1601 25.5799Q15.1601 25.8162 15.1901 25.9097Q15.2201 26.0032 15.28 26.042Q15.3188 26.0667 15.3188 26.1055ZM14.5427 24.9343Q14.765 24.9131 14.9202 24.7579Q15.0754 24.6027 15.0754 24.3522Q15.0754 24.1335 14.9202 23.9924Q14.765 23.8513 14.5074 23.8513H13.6714V24.9343ZM17.3367 23.7807Q17.3367 23.8124 17.3156 23.8318Q17.2944 23.8513 17.2662 23.8513H16.0068V24.8249H17.1074Q17.1356 24.8249 17.1568 24.8461Q17.178 24.8672 17.178 24.8955Q17.178 24.9272 17.1568 24.9466Q17.1356 24.966 17.1074 24.966H16.0068V26.109Q16.0068 26.1373 15.9873 26.1584Q15.9679 26.1796 15.9362 26.1796Q15.9044 26.1796 15.885 26.1584Q15.8656 26.1373 15.8656 26.109V23.7807Q15.8656 23.7525 15.8868 23.7313Q15.908 23.7101 15.9362 23.7101H17.2662Q17.2944 23.7101 17.3156 23.7313Q17.3367 23.7525 17.3367 23.7807ZM19.3017 26.109Q19.3017 26.1408 19.2805 26.1602Q19.2594 26.1796 19.2311 26.1796H17.9364Q17.9047 26.1796 17.8853 26.1584Q17.8659 26.1373 17.8659 26.109V23.7807Q17.8659 23.7525 17.8871 23.7313Q17.9082 23.7101 17.94 23.7101Q17.9717 23.7101 17.9929 23.7313Q18.0141 23.7525 18.0141 23.7807V26.0385H19.2311Q19.2594 26.0385 19.2805 26.0596Q19.3017 26.0808 19.3017 26.109ZM20.7093 26.2149Q20.3671 26.2149 20.099 26.0543Q19.8309 25.8938 19.6809 25.6046Q19.531 25.3153 19.531 24.9449Q19.531 24.5744 19.6809 24.2852Q19.8309 23.9959 20.099 23.8354Q20.3671 23.6749 20.7093 23.6749Q21.0515 23.6749 21.3196 23.8354Q21.5877 23.9959 21.7376 24.2852Q21.8876 24.5744 21.8876 24.9449Q21.8876 25.3153 21.7376 25.6046Q21.5877 25.8938 21.3196 26.0543Q21.0515 26.2149 20.7093 26.2149ZM20.7093 23.816Q20.4094 23.816 20.1748 23.9571Q19.9402 24.0982 19.8097 24.3557Q19.6792 24.6133 19.6792 24.9449Q19.6792 25.2765 19.8097 25.534Q19.9402 25.7915 20.1748 25.9326Q20.4094 26.0738 20.7093 26.0738Q21.0091 26.0738 21.2437 25.9326Q21.4783 25.7915 21.6089 25.534Q21.7394 25.2765 21.7394 24.9449Q21.7394 24.6133 21.6089 24.3557Q21.4783 24.0982 21.2437 23.9571Q21.0091 23.816 20.7093 23.816ZM25.3765 23.7701 25.3695 23.8054 24.5616 26.1337Q24.5546 26.1549 24.5352 26.1672Q24.5158 26.1796 24.4981 26.1796Q24.4417 26.1796 24.4276 26.1373L23.782 24.5074L23.1364 26.1373Q23.1188 26.1796 23.0623 26.1796Q23.0411 26.1796 23.0235 26.1672Q23.0059 26.1549 23.0023 26.1337L22.1945 23.8054L22.1874 23.7736Q22.1874 23.7419 22.2121 23.7225Q22.2368 23.7031 22.265 23.7031Q22.2862 23.7031 22.3056 23.7154Q22.325 23.7278 22.3321 23.7489L23.0799 25.9079L23.7149 24.3028Q23.7326 24.2569 23.782 24.2569Q23.8031 24.2569 23.8225 24.2693Q23.8419 24.2816 23.849 24.3028L24.4875 25.9115L25.2319 23.7489Q25.2495 23.7031 25.3024 23.7031Q25.3342 23.7031 25.3554 23.7207Q25.3765 23.7384 25.3765 23.7701Z"/>
        <path id="width_label" d="M17.3403 44.7701 17.3332 44.8054 16.5253 47.1337Q16.5183 47.1549 16.4989 47.1672Q16.4795 47.1796 16.4618 47.1796Q16.4054 47.1796 16.3913 47.1373L15.7457 45.5074L15.1001 47.1373Q15.0825 47.1796 15.026 47.1796Q15.0049 47.1796 14.9872 47.1672Q14.9696 47.1549 14.9661 47.1337L14.1582 44.8054L14.1511 44.7736Q14.1511 44.7419 14.1758 44.7225Q14.2005 44.7031 14.2288 44.7031Q14.2499 44.7031 14.2693 44.7154Q14.2887 44.7278 14.2958 44.7489L15.0437 46.9079L15.6787 45.3028Q15.6963 45.2569 15.7457 45.2569Q15.7669 45.2569 15.7863 45.2693Q15.8057 45.2816 15.8127 45.3028L16.4513 46.9115L17.1956 44.7489Q17.2133 44.7031 17.2662 44.7031Q17.2979 44.7031 17.3191 44.7207Q17.3403 44.7384 17.3403 44.7701ZM17.8906 47.1796Q17.8553 47.1796 17.8359 47.1584Q17.8165 47.1373 17.8165 47.1055V44.7842Q17.8165 44.7525 17.8377 44.7313Q17.8588 44.7101 17.8906 44.7101Q17.9223 44.7101 17.9435 44.7313Q17.9647 44.7525 17.9647 44.7842V47.1055Q17.9611 47.1373 17.94 47.1584Q17.9188 47.1796 17.8906 47.1796ZM20.6811 45.9449Q20.6811 46.2941 20.5699 46.5728Q20.4588 46.8515 20.2295 47.0155Q20.0002 47.1796 19.658 47.1796H18.7408Q18.7126 47.1796 18.6914 47.1584Q18.6702 47.1373 18.6702 47.109V44.7807Q18.6702 44.7525 18.6914 44.7313Q18.7126 44.7101 18.7408 44.7101H19.658Q19.9967 44.7101 20.2277 44.8795Q20.4588 45.0488 20.5699 45.3293Q20.6811 45.6097 20.6811 45.9449ZM20.5329 45.9449Q20.5329 45.645 20.4359 45.3963Q20.3389 45.1476 20.136 44.9994Q19.9332 44.8513 19.6227 44.8513H18.8184V47.0385H19.6227Q20.0813 47.0385 20.3071 46.7368Q20.5329 46.4352 20.5329 45.9449ZM22.8365 44.7772Q22.8365 44.8089 22.8171 44.8266Q22.7977 44.8442 22.766 44.8442H21.9793V47.109Q21.9793 47.1373 21.9581 47.1584Q21.9369 47.1796 21.9087 47.1796Q21.877 47.1796 21.8576 47.1584Q21.8382 47.1373 21.8382 47.109V44.8442H21.0515Q21.0232 44.8442 21.0021 44.8248Q20.9809 44.8054 20.9809 44.7772Q20.9809 44.7489 21.0021 44.7295Q21.0232 44.7101 21.0515 44.7101H22.766Q22.7942 44.7101 22.8154 44.7295Q22.8365 44.7489 22.8365 44.7772ZM25.1472 44.7842V47.1055Q25.1437 47.1373 25.1225 47.1584Q25.1014 47.1796 25.0731 47.1796Q25.0379 47.1796 25.0185 47.1584Q24.9991 47.1373 24.9991 47.1055V45.9801H23.4609V47.1055Q23.4574 47.1373 23.4362 47.1584Q23.4151 47.1796 23.3869 47.1796Q23.3516 47.1796 23.3322 47.1584Q23.3128 47.1373 23.3128 47.1055V44.7842Q23.3128 44.7525 23.3339 44.7313Q23.3551 44.7101 23.3869 44.7101Q23.4186 44.7101 23.4398 44.7313Q23.4609 44.7525 23.4609 44.7842V45.839H24.9991V44.7842Q24.9991 44.7525 25.0202 44.7313Q25.0414 44.7101 25.0731 44.7101Q25.1049 44.7101 25.1261 44.7313Q25.1472 44.7525 25.1472 44.7842Z"/>
        <path id="decay_label" d="M16.7688 66.9449Q16.7688 67.2941 16.6576 67.5728Q16.5465 67.8515 16.3172 68.0155Q16.0879 68.1796 15.7457 68.1796H14.8285Q14.8003 68.1796 14.7791 68.1584Q14.7579 68.1373 14.7579 68.109V65.7807Q14.7579 65.7525 14.7791 65.7313Q14.8003 65.7101 14.8285 65.7101H15.7457Q16.0844 65.7101 16.3154 65.8795Q16.5465 66.0488 16.6576 66.3293Q16.7688 66.6097 16.7688 66.9449ZM16.6206 66.9449Q16.6206 66.645 16.5236 66.3963Q16.4266 66.1476 16.2237 65.9994Q16.0209 65.8513 15.7104 65.8513H14.9061V68.0385H15.7104Q16.169 68.0385 16.3948 67.7368Q16.6206 67.4352 16.6206 66.9449ZM18.769 68.109Q18.769 68.1408 18.7478 68.1602Q18.7267 68.1796 18.6984 68.1796H17.3685Q17.3402 68.1796 17.3191 68.1584Q17.2979 68.1373 17.2979 68.109V65.7807Q17.2979 65.7525 17.3191 65.7313Q17.3402 65.7101 17.3685 65.7101H18.6984Q18.7267 65.7101 18.7478 65.7313Q18.769 65.7525 18.769 65.7807Q18.769 65.8124 18.7478 65.8318Q18.7267 65.8513 18.6984 65.8513H17.4461V66.8355H18.5397Q18.5679 66.8355 18.5891 66.8567Q18.6103 66.8778 18.6103 66.9061Q18.6103 66.9378 18.5891 66.9572Q18.5679 66.9766 18.5397 66.9766H17.4461V68.0385H18.6984Q18.7267 68.0385 18.7478 68.0596Q18.769 68.0808 18.769 68.109ZM21.1573 65.9712Q21.1573 65.9994 21.1432 66.0171Q21.122 66.0453 21.0903 66.0453Q21.0762 66.0453 21.0479 66.0312Q20.7199 65.8089 20.353 65.8089Q20.0566 65.8089 19.8079 65.9553Q19.5592 66.1017 19.4146 66.361Q19.2699 66.6203 19.2699 66.9449Q19.2699 67.2694 19.4146 67.5287Q19.5592 67.788 19.8079 67.9344Q20.0566 68.0808 20.353 68.0808Q20.7234 68.0808 21.0444 67.8621Q21.0621 67.848 21.0868 67.848Q21.122 67.848 21.1432 67.8762Q21.1573 67.8938 21.1573 67.9185Q21.1573 67.9538 21.1291 67.975Q20.9915 68.0738 20.7745 68.1443Q20.5576 68.2149 20.353 68.2149Q20.0178 68.2149 19.7356 68.0491Q19.4534 67.8833 19.2876 67.5922Q19.1218 67.3012 19.1218 66.9449Q19.1218 66.5886 19.2876 66.2975Q19.4534 66.0065 19.7356 65.8407Q20.0178 65.6749 20.353 65.6749Q20.5646 65.6749 20.764 65.7384Q20.9633 65.8019 21.1256 65.9148Q21.1573 65.9394 21.1573 65.9712ZM23.4468 68.1126Q23.4468 68.1443 23.4257 68.1619Q23.4045 68.1796 23.3727 68.1796Q23.3481 68.1796 23.3287 68.1672Q23.3093 68.1549 23.3022 68.1337L23.0059 67.407L23.0094 67.4141H21.8276L21.5418 68.1337Q21.5242 68.1796 21.4783 68.1796Q21.4466 68.1796 21.4272 68.1619Q21.4078 68.1443 21.4043 68.1196Q21.4007 68.1055 21.4078 68.0843L22.3568 65.7489Q22.3673 65.7207 22.3832 65.7119Q22.3991 65.7031 22.4238 65.7031Q22.4767 65.7031 22.4943 65.7489L23.4433 68.0843Q23.4468 68.0949 23.4468 68.1126ZM21.884 67.2729H22.9529L22.4132 65.943ZM25.4153 65.8089 24.611 66.9025V68.109Q24.611 68.1373 24.5898 68.1584Q24.5687 68.1796 24.5369 68.1796Q24.5052 68.1796 24.484 68.1584Q24.4628 68.1373 24.4628 68.109V66.9166L23.655 65.8089Q23.6409 65.7913 23.6409 65.7631Q23.6409 65.7384 23.6638 65.7172Q23.6867 65.696 23.7149 65.696Q23.7538 65.696 23.7749 65.7278L24.5369 66.7685L25.2989 65.7278Q25.3201 65.696 25.3589 65.696Q25.3906 65.696 25.41 65.719Q25.4294 65.7419 25.4294 65.7631Q25.4294 65.7807 25.4153 65.8089Z"/>
        <path id="root_label" d="M17.7847 89.1055Q17.7847 89.1373 17.7653 89.1567Q17.7459 89.1761 17.7177 89.1761Q17.6966 89.1761 17.686 89.169Q17.5907 89.1161 17.5343 88.9908Q17.4778 88.8656 17.4778 88.5799Q17.4778 88.2906 17.3226 88.183Q17.1674 88.0754 16.9628 88.0754H16.1373V89.109Q16.1373 89.1373 16.1161 89.1584Q16.0949 89.1796 16.0632 89.1796Q16.0314 89.1796 16.0103 89.1584Q15.9891 89.1373 15.9891 89.109V86.7807Q15.9891 86.7525 16.0103 86.7313Q16.0314 86.7101 16.0597 86.7101H16.991Q17.1956 86.7101 17.3544 86.793Q17.5131 86.8759 17.6013 87.0206Q17.6895 87.1652 17.6895 87.3487Q17.6895 87.585 17.5643 87.7544Q17.439 87.9237 17.2379 87.9837Q17.4073 88.0366 17.5166 88.1936Q17.626 88.3506 17.626 88.5799Q17.626 88.8162 17.656 88.9097Q17.686 89.0032 17.7459 89.042Q17.7847 89.0667 17.7847 89.1055ZM17.0086 87.9343Q17.2309 87.9131 17.3861 87.7579Q17.5413 87.6027 17.5413 87.3522Q17.5413 87.1335 17.3861 86.9924Q17.2309 86.8513 16.9734 86.8513H16.1373V87.9343ZM19.3334 89.2149Q18.9913 89.2149 18.7231 89.0543Q18.455 88.8938 18.3051 88.6046Q18.1552 88.3153 18.1552 87.9449Q18.1552 87.5744 18.3051 87.2852Q18.455 86.9959 18.7231 86.8354Q18.9913 86.6749 19.3334 86.6749Q19.6756 86.6749 19.9438 86.8354Q20.2119 86.9959 20.3618 87.2852Q20.5117 87.5744 20.5117 87.9449Q20.5117 88.3153 20.3618 88.6046Q20.2119 88.8938 19.9438 89.0543Q19.6756 89.2149 19.3334 89.2149ZM19.3334 86.816Q19.0336 86.816 18.799 86.9571Q18.5644 87.0982 18.4339 87.3557Q18.3033 87.6133 18.3033 87.9449Q18.3033 88.2765 18.4339 88.534Q18.5644 88.7915 18.799 88.9326Q19.0336 89.0738 19.3334 89.0738Q19.6333 89.0738 19.8679 88.9326Q20.1025 88.7915 20.233 88.534Q20.3636 88.2765 20.3636 87.9449Q20.3636 87.6133 20.233 87.3557Q20.1025 87.0982 19.8679 86.9571Q19.6333 86.816 19.3334 86.816ZM22.0428 89.2149Q21.7006 89.2149 21.4325 89.0543Q21.1644 88.8938 21.0144 88.6046Q20.8645 88.3153 20.8645 87.9449Q20.8645 87.5744 21.0144 87.2852Q21.1644 86.9959 21.4325 86.8354Q21.7006 86.6749 22.0428 86.6749Q22.385 86.6749 22.6531 86.8354Q22.9212 86.9959 23.0711 87.2852Q23.2211 87.5744 23.2211 87.9449Q23.2211 88.3153 23.0711 88.6046Q22.9212 88.8938 22.6531 89.0543Q22.385 89.2149 22.0428 89.2149ZM22.0428 86.816Q21.7429 86.816 21.5083 86.9571Q21.2737 87.0982 21.1432 87.3557Q21.0127 87.6133 21.0127 87.9449Q21.0127 88.2765 21.1432 88.534Q21.2737 88.7915 21.5083 88.9326Q21.7429 89.0738 22.0428 89.0738Q22.3426 89.0738 22.5772 88.9326Q22.8118 88.7915 22.9424 88.534Q23.0729 88.2765 23.0729 87.9449Q23.0729 87.6133 22.9424 87.3557Q22.8118 87.0982 22.5772 86.9571Q22.3426 86.816 22.0428 86.816ZM25.3765 86.7772Q25.3765 86.8089 25.3571 86.8266Q25.3377 86.8442 25.306 86.8442H24.5193V89.109Q24.5193 89.1373 24.4981 89.1584Q24.4769 89.1796 24.4487 89.1796Q24.417 89.1796 24.3976 89.1584Q24.3782 89.1373 24.3782 89.109V86.8442H23.5915Q23.5633 86.8442 23.5421 86.8248Q23.5209 86.8054 23.5209 86.7772Q23.5209 86.7489 23.5421 86.7295Q23.5633 86.7101 23.5915 86.7101H25.306Q25.3342 86.7101 25.3554 86.7295Q25.3765 86.7489 25.3765 86.7772Z"/>
        <path id="vortex_label" d="M37.7049 13.2736Q37.7049 13.2877 37.6978 13.3089L36.7312 15.6337Q36.71 15.6796 36.6642 15.6796Q36.643 15.6796 36.6236 15.6672Q36.6042 15.6549 36.5971 15.6337L35.6376 13.3195Q35.627 13.2983 35.627 13.2772Q35.627 13.2489 35.6464 13.2295Q35.6658 13.2101 35.694 13.2101Q35.7469 13.2101 35.7716 13.2666L36.6677 15.4221L37.5673 13.256Q37.592 13.2101 37.6343 13.2101Q37.6661 13.2101 37.6855 13.2278Q37.7049 13.2454 37.7049 13.2736ZM39.183 15.7149Q38.8408 15.7149 38.5727 15.5543Q38.3046 15.3938 38.1547 15.1046Q38.0047 14.8153 38.0047 14.4449Q38.0047 14.0744 38.1547 13.7852Q38.3046 13.4959 38.5727 13.3354Q38.8408 13.1749 39.183 13.1749Q39.5252 13.1749 39.7933 13.3354Q40.0614 13.4959 40.2113 13.7852Q40.3613 14.0744 40.3613 14.4449Q40.3613 14.8153 40.2113 15.1046Q40.0614 15.3938 39.7933 15.5543Q39.5252 15.7149 39.183 15.7149ZM39.183 13.316Q38.8831 13.316 38.6485 13.4571Q38.4139 13.5982 38.2834 13.8557Q38.1529 14.1133 38.1529 14.4449Q38.1529 14.7765 38.2834 15.034Q38.4139 15.2915 38.6485 15.4326Q38.8831 15.5738 39.183 15.5738Q39.4829 15.5738 39.7175 15.4326Q39.9521 15.2915 40.0826 15.034Q40.2131 14.7765 40.2131 14.4449Q40.2131 14.1133 40.0826 13.8557Q39.9521 13.5982 39.7175 13.4571Q39.4829 13.316 39.183 13.316ZM42.6861 15.6055Q42.6861 15.6372 42.6667 15.6567Q42.6473 15.6761 42.6191 15.6761Q42.5979 15.6761 42.5873 15.669Q42.4921 15.6161 42.4356 15.4908Q42.3792 15.3656 42.3792 15.0799Q42.3792 14.7906 42.2239 14.683Q42.0687 14.5754 41.8641 14.5754H41.0386V15.609Q41.0386 15.6372 41.0174 15.6584Q40.9963 15.6796 40.9645 15.6796Q40.9328 15.6796 40.9116 15.6584Q40.8904 15.6372 40.8904 15.609V13.2807Q40.8904 13.2525 40.9116 13.2313Q40.9328 13.2101 40.961 13.2101H41.8923Q42.0969 13.2101 42.2557 13.293Q42.4144 13.3759 42.5026 13.5206Q42.5908 13.6652 42.5908 13.8487Q42.5908 14.085 42.4656 14.2544Q42.3404 14.4237 42.1393 14.4837Q42.3086 14.5366 42.418 14.6936Q42.5273 14.8506 42.5273 15.0799Q42.5273 15.3162 42.5573 15.4097Q42.5873 15.5032 42.6473 15.542Q42.6861 15.5667 42.6861 15.6055ZM41.91 14.4343Q42.1322 14.4131 42.2874 14.2579Q42.4427 14.1027 42.4427 13.8522Q42.4427 13.6335 42.2874 13.4924Q42.1322 13.3513 41.8747 13.3513H41.0386V14.4343ZM44.8592 13.2772Q44.8592 13.3089 44.8398 13.3266Q44.8204 13.3442 44.7886 13.3442H44.0019V15.609Q44.0019 15.6372 43.9808 15.6584Q43.9596 15.6796 43.9314 15.6796Q43.8996 15.6796 43.8802 15.6584Q43.8608 15.6372 43.8608 15.609V13.3442H43.0741Q43.0459 13.3442 43.0247 13.3248Q43.0036 13.3054 43.0036 13.2772Q43.0036 13.2489 43.0247 13.2295Q43.0459 13.2101 43.0741 13.2101H44.7886Q44.8169 13.2101 44.838 13.2295Q44.8592 13.2489 44.8592 13.2772ZM46.8065 15.609Q46.8065 15.6408 46.7854 15.6602Q46.7642 15.6796 46.736 15.6796H45.406Q45.3778 15.6796 45.3566 15.6584Q45.3354 15.6372 45.3354 15.609V13.2807Q45.3354 13.2525 45.3566 13.2313Q45.3778 13.2101 45.406 13.2101H46.736Q46.7642 13.2101 46.7854 13.2313Q46.8065 13.2525 46.8065 13.2807Q46.8065 13.3124 46.7854 13.3318Q46.7642 13.3513 46.736 13.3513H45.4836V14.3355H46.5772Q46.6054 14.3355 46.6266 14.3567Q46.6478 14.3778 46.6478 14.4061Q46.6478 14.4378 46.6266 14.4572Q46.6054 14.4766 46.5772 14.4766H45.4836V15.5385H46.736Q46.7642 15.5385 46.7854 15.5596Q46.8065 15.5808 46.8065 15.609ZM48.9373 15.5773Q48.9549 15.602 48.9549 15.6196Q48.9549 15.6514 48.9338 15.6708Q48.9126 15.6902 48.8809 15.6902Q48.8421 15.6902 48.8244 15.6619L48.0166 14.5613L47.2122 15.6619Q47.1946 15.6902 47.1593 15.6902Q47.1276 15.6902 47.1099 15.6708Q47.0923 15.6514 47.0923 15.6302Q47.0923 15.6126 47.1099 15.5843L47.9389 14.4519L47.1029 13.3124Q47.0888 13.2948 47.0888 13.2701Q47.0888 13.2384 47.1099 13.219Q47.1311 13.1996 47.1593 13.1996Q47.2016 13.1996 47.2193 13.2278L48.0271 14.332L48.8315 13.2242Q48.8526 13.196 48.8844 13.196Q48.9161 13.196 48.9355 13.2119Q48.9549 13.2278 48.9549 13.2525Q48.9549 13.2772 48.9373 13.3019L48.1083 14.4449Z"/>
        <path id="center_label" d="M37.7119 34.4712Q37.7119 34.4994 37.6978 34.5171Q37.6766 34.5453 37.6449 34.5453Q37.6308 34.5453 37.6026 34.5312Q37.2745 34.3089 36.9076 34.3089Q36.6112 34.3089 36.3625 34.4553Q36.1138 34.6017 35.9692 34.861Q35.8246 35.1203 35.8246 35.4449Q35.8246 35.7694 35.9692 36.0287Q36.1138 36.288 36.3625 36.4344Q36.6112 36.5808 36.9076 36.5808Q37.278 36.5808 37.599 36.3621Q37.6167 36.348 37.6414 36.348Q37.6766 36.348 37.6978 36.3762Q37.7119 36.3938 37.7119 36.4185Q37.7119 36.4538 37.6837 36.475Q37.5461 36.5737 37.3292 36.6443Q37.1122 36.7149 36.9076 36.7149Q36.5724 36.7149 36.2902 36.5491Q36.008 36.3832 35.8422 36.0922Q35.6764 35.8012 35.6764 35.4449Q35.6764 35.0886 35.8422 34.7975Q36.008 34.5065 36.2902 34.3407Q36.5724 34.1749 36.9076 34.1749Q37.1193 34.1749 37.3186 34.2384Q37.5179 34.3019 37.6802 34.4147Q37.7119 34.4394 37.7119 34.4712ZM39.6593 36.609Q39.6593 36.6408 39.6381 36.6602Q39.6169 36.6796 39.5887 36.6796H38.2587Q38.2305 36.6796 38.2093 36.6584Q38.1882 36.6373 38.1882 36.609V34.2807Q38.1882 34.2525 38.2093 34.2313Q38.2305 34.2101 38.2587 34.2101H39.5887Q39.6169 34.2101 39.6381 34.2313Q39.6593 34.2525 39.6593 34.2807Q39.6593 34.3124 39.6381 34.3318Q39.6169 34.3513 39.5887 34.3513H38.3363V35.3355H39.4299Q39.4582 35.3355 39.4793 35.3567Q39.5005 35.3778 39.5005 35.4061Q39.5005 35.4378 39.4793 35.4572Q39.4582 35.4766 39.4299 35.4766H38.3363V36.5385H39.5887Q39.6169 36.5385 39.6381 36.5596Q39.6593 36.5808 39.6593 36.609ZM42.0405 34.2772V36.602Q42.0405 36.6408 42.0193 36.6602Q41.9982 36.6796 41.9664 36.6796Q41.9311 36.6796 41.91 36.6514L40.3225 34.4818V36.6196Q40.3225 36.6443 40.3031 36.6619Q40.2837 36.6796 40.2554 36.6796Q40.2237 36.6796 40.2061 36.6619Q40.1884 36.6443 40.1884 36.6196V34.2807Q40.1884 34.2454 40.2078 34.2278Q40.2272 34.2101 40.2519 34.2101Q40.2837 34.2101 40.3048 34.2348L41.9064 36.4185V34.2772Q41.9064 34.2489 41.9258 34.2295Q41.9453 34.2101 41.9735 34.2101Q42.0052 34.2101 42.0229 34.2295Q42.0405 34.2489 42.0405 34.2772ZM44.3724 34.2772Q44.3724 34.3089 44.353 34.3266Q44.3336 34.3442 44.3018 34.3442H43.5151V36.609Q43.5151 36.6373 43.4939 36.6584Q43.4728 36.6796 43.4446 36.6796Q43.4128 36.6796 43.3934 36.6584Q43.374 36.6373 43.374 36.609V34.3442H42.5873Q42.5591 34.3442 42.5379 34.3248Q42.5167 34.3054 42.5167 34.2772Q42.5167 34.2489 42.5379 34.2295Q42.5591 34.2101 42.5873 34.2101H44.3018Q44.33 34.2101 44.3512 34.2295Q44.3724 34.2489 44.3724 34.2772ZM46.3197 36.609Q46.3197 36.6408 46.2985 36.6602Q46.2774 36.6796 46.2491 36.6796H44.9192Q44.8909 36.6796 44.8698 36.6584Q44.8486 36.6373 44.8486 36.609V34.2807Q44.8486 34.2525 44.8698 34.2313Q44.8909 34.2101 44.9192 34.2101H46.2491Q46.2774 34.2101 46.2985 34.2313Q46.3197 34.2525 46.3197 34.2807Q46.3197 34.3124 46.2985 34.3318Q46.2774 34.3513 46.2491 34.3513H44.9968V35.3355H46.0904Q46.1186 35.3355 46.1398 35.3567Q46.1609 35.3778 46.1609 35.4061Q46.1609 35.4378 46.1398 35.4572Q46.1186 35.4766 46.0904 35.4766H44.9968V36.5385H46.2491Q46.2774 36.5385 46.2985 36.5596Q46.3197 36.5808 46.3197 36.609ZM48.6445 36.6055Q48.6445 36.6373 48.6251 36.6567Q48.6057 36.6761 48.5775 36.6761Q48.5563 36.6761 48.5457 36.669Q48.4505 36.6161 48.394 36.4908Q48.3376 36.3656 48.3376 36.0799Q48.3376 35.7906 48.1824 35.683Q48.0271 35.5754 47.8225 35.5754H46.997V36.609Q46.997 36.6373 46.9759 36.6584Q46.9547 36.6796 46.9229 36.6796Q46.8912 36.6796 46.87 36.6584Q46.8489 36.6373 46.8489 36.609V34.2807Q46.8489 34.2525 46.87 34.2313Q46.8912 34.2101 46.9194 34.2101H47.8507Q48.0554 34.2101 48.2141 34.293Q48.3729 34.3759 48.4611 34.5206Q48.5493 34.6652 48.5493 34.8487Q48.5493 35.085 48.424 35.2544Q48.2988 35.4237 48.0977 35.4837Q48.267 35.5366 48.3764 35.6936Q48.4857 35.8506 48.4857 36.0799Q48.4857 36.3162 48.5157 36.4097Q48.5457 36.5032 48.6057 36.542Q48.6445 36.5667 48.6445 36.6055ZM47.8684 35.4343Q48.0906 35.4131 48.2459 35.2579Q48.4011 35.1027 48.4011 34.8522Q48.4011 34.6335 48.2459 34.4924Q48.0906 34.3513 47.8331 34.3513H46.997V35.4343Z"/>
        <path id="angle_label" d="M37.6661 57.6126Q37.6661 57.6443 37.6449 57.6619Q37.6237 57.6796 37.592 57.6796Q37.5673 57.6796 37.5479 57.6672Q37.5285 57.6549 37.5214 57.6337L37.2251 56.907L37.2286 56.9141H36.0468L35.7611 57.6337Q35.7434 57.6796 35.6976 57.6796Q35.6658 57.6796 35.6464 57.6619Q35.627 57.6443 35.6235 57.6196Q35.6199 57.6055 35.627 57.5843L36.576 55.2489Q36.5866 55.2207 36.6024 55.2119Q36.6183 55.2031 36.643 55.2031Q36.6959 55.2031 36.7136 55.2489L37.6625 57.5843Q37.6661 57.5949 37.6661 57.6126ZM36.1033 56.7729H37.1722L36.6324 55.443ZM39.9944 55.2772V57.602Q39.9944 57.6408 39.9732 57.6602Q39.9521 57.6796 39.9203 57.6796Q39.885 57.6796 39.8639 57.6514L38.2764 55.4818V57.6196Q38.2764 57.6443 38.257 57.6619Q38.2376 57.6796 38.2093 57.6796Q38.1776 57.6796 38.1599 57.6619Q38.1423 57.6443 38.1423 57.6196V55.2807Q38.1423 55.2454 38.1617 55.2278Q38.1811 55.2101 38.2058 55.2101Q38.2376 55.2101 38.2587 55.2348L39.8603 57.4185V55.2772Q39.8603 55.2489 39.8797 55.2295Q39.8991 55.2101 39.9274 55.2101Q39.9591 55.2101 39.9768 55.2295Q39.9944 55.2489 39.9944 55.2772ZM42.5661 56.5331V57.4185Q42.5661 57.4609 42.5344 57.482Q42.3721 57.5914 42.1798 57.6531Q41.9876 57.7149 41.79 57.7149Q41.4267 57.7149 41.1392 57.5508Q40.8516 57.3868 40.6876 57.0975Q40.5236 56.8082 40.5236 56.4449Q40.5236 56.0815 40.6876 55.7922Q40.8516 55.5029 41.1392 55.3389Q41.4267 55.1749 41.79 55.1749Q41.9876 55.1749 42.1657 55.2225Q42.3439 55.2701 42.485 55.3654Q42.5168 55.3865 42.5168 55.4253Q42.5168 55.4571 42.4938 55.4765Q42.4709 55.4959 42.4497 55.4959Q42.4321 55.4959 42.4039 55.4818Q42.1075 55.316 41.79 55.316Q41.4655 55.316 41.2115 55.4606Q40.9575 55.6052 40.8146 55.8628Q40.6717 56.1203 40.6717 56.4449Q40.6717 56.7694 40.8146 57.0269Q40.9575 57.2845 41.2115 57.4291Q41.4655 57.5737 41.79 57.5737Q41.9523 57.5737 42.1199 57.5226Q42.2874 57.4714 42.425 57.3868V56.6036H41.79Q41.7618 56.6036 41.7406 56.5824Q41.7195 56.5613 41.7195 56.5331Q41.7195 56.5013 41.7406 56.4819Q41.7618 56.4625 41.79 56.4625H42.4956Q42.5273 56.4625 42.5467 56.4837Q42.5661 56.5048 42.5661 56.5331ZM44.584 57.609Q44.584 57.6408 44.5629 57.6602Q44.5417 57.6796 44.5135 57.6796H43.2188Q43.187 57.6796 43.1676 57.6584Q43.1482 57.6373 43.1482 57.609V55.2807Q43.1482 55.2525 43.1694 55.2313Q43.1906 55.2101 43.2223 55.2101Q43.2541 55.2101 43.2752 55.2313Q43.2964 55.2525 43.2964 55.2807V57.5385H44.5135Q44.5417 57.5385 44.5629 57.5596Q44.584 57.5808 44.584 57.609ZM46.4608 57.609Q46.4608 57.6408 46.4396 57.6602Q46.4185 57.6796 46.3902 57.6796H45.0603Q45.0321 57.6796 45.0109 57.6584Q44.9897 57.6373 44.9897 57.609V55.2807Q44.9897 55.2525 45.0109 55.2313Q45.0321 55.2101 45.0603 55.2101H46.3902Q46.4185 55.2101 46.4396 55.2313Q46.4608 55.2525 46.4608 55.2807Q46.4608 55.3124 46.4396 55.3318Q46.4185 55.3513 46.3902 55.3513H45.1379V56.3355H46.2315Q46.2597 56.3355 46.2809 56.3567Q46.3021 56.3778 46.3021 56.4061Q46.3021 56.4378 46.2809 56.4572Q46.2597 56.4766 46.2315 56.4766H45.1379V57.5385H46.3902Q46.4185 57.5385 46.4396 57.5596Q46.4608 57.5808 46.4608 57.609Z"/>
        <path id="spring_label" d="M35.6446 78.3444Q35.6235 78.3233 35.6235 78.2915Q35.6235 78.2633 35.6482 78.2368Q35.6729 78.2104 35.7011 78.2104Q35.7328 78.2104 35.7611 78.2421Q35.8986 78.4044 36.0874 78.4891Q36.2761 78.5738 36.4843 78.5738Q36.7559 78.5738 36.9323 78.4432Q37.1087 78.3127 37.1087 78.0975Q37.1051 77.9282 37.0169 77.8188Q36.9288 77.7094 36.8 77.6442Q36.6712 77.5789 36.449 77.4978Q36.2056 77.4061 36.0697 77.3355Q35.9339 77.2649 35.8369 77.1344Q35.7399 77.0039 35.7399 76.7922Q35.7399 76.6194 35.8351 76.4783Q35.9304 76.3371 36.1068 76.256Q36.2832 76.1749 36.516 76.1749Q36.7241 76.1749 36.9111 76.2507Q37.0981 76.3266 37.2074 76.4641Q37.2427 76.5135 37.2427 76.5382Q37.2427 76.5664 37.2163 76.5894Q37.1898 76.6123 37.1581 76.6123Q37.1298 76.6123 37.1122 76.5911Q37.0134 76.4641 36.8582 76.3901Q36.703 76.316 36.516 76.316Q36.2479 76.316 36.0697 76.443Q35.8916 76.57 35.8916 76.7887Q35.8916 76.9404 35.978 77.0462Q36.0644 77.1521 36.195 77.2173Q36.3255 77.2826 36.5195 77.3531Q36.7665 77.4413 36.9111 77.5154Q37.0558 77.5895 37.1581 77.7306Q37.2604 77.8717 37.2604 78.1046Q37.2604 78.2668 37.1651 78.4079Q37.0699 78.5491 36.8917 78.632Q36.7136 78.7149 36.4843 78.7149Q36.2232 78.7149 36.0292 78.6249Q35.8351 78.5349 35.6446 78.3444ZM39.377 76.8839Q39.377 77.0815 39.2941 77.242Q39.2112 77.4025 39.0595 77.4925Q38.9078 77.5824 38.7103 77.5824H37.9412V78.609Q37.9412 78.6373 37.9183 78.6584Q37.8954 78.6796 37.8671 78.6796Q37.8354 78.6796 37.8142 78.6584Q37.7931 78.6373 37.7931 78.609V76.2807Q37.7931 76.2525 37.8142 76.2313Q37.8354 76.2101 37.8636 76.2101H38.7103Q39.0101 76.2101 39.1936 76.3971Q39.377 76.5841 39.377 76.8839ZM39.2289 76.8839Q39.2289 76.6405 39.0895 76.4959Q38.9502 76.3513 38.7103 76.3513H37.9412V77.4413H38.7103Q38.9466 77.4413 39.0877 77.2843Q39.2289 77.1274 39.2289 76.8839ZM41.6842 78.6055Q41.6842 78.6373 41.6648 78.6567Q41.6454 78.6761 41.6172 78.6761Q41.596 78.6761 41.5854 78.669Q41.4902 78.6161 41.4337 78.4908Q41.3773 78.3656 41.3773 78.0799Q41.3773 77.7906 41.2221 77.683Q41.0668 77.5754 40.8622 77.5754H40.0367V78.609Q40.0367 78.6373 40.0156 78.6584Q39.9944 78.6796 39.9626 78.6796Q39.9309 78.6796 39.9097 78.6584Q39.8886 78.6373 39.8886 78.609V76.2807Q39.8886 76.2525 39.9097 76.2313Q39.9309 76.2101 39.9591 76.2101H40.8904Q41.0951 76.2101 41.2538 76.293Q41.4126 76.3759 41.5008 76.5206Q41.5889 76.6652 41.5889 76.8487Q41.5889 77.085 41.4637 77.2544Q41.3385 77.4237 41.1374 77.4837Q41.3067 77.5366 41.4161 77.6936Q41.5254 77.8506 41.5254 78.0799Q41.5254 78.3162 41.5554 78.4097Q41.5854 78.5032 41.6454 78.542Q41.6842 78.5667 41.6842 78.6055ZM40.9081 77.4343Q41.1303 77.4131 41.2856 77.2579Q41.4408 77.1027 41.4408 76.8522Q41.4408 76.6335 41.2856 76.4924Q41.1303 76.3513 40.8728 76.3513H40.0367V77.4343ZM42.3051 78.6796Q42.2698 78.6796 42.2504 78.6584Q42.231 78.6373 42.231 78.6055V76.2842Q42.231 76.2525 42.2522 76.2313Q42.2733 76.2101 42.3051 76.2101Q42.3368 76.2101 42.358 76.2313Q42.3792 76.2525 42.3792 76.2842V78.6055Q42.3756 78.6373 42.3545 78.6584Q42.3333 78.6796 42.3051 78.6796ZM44.9368 76.2772V78.602Q44.9368 78.6408 44.9156 78.6602Q44.8945 78.6796 44.8627 78.6796Q44.8274 78.6796 44.8063 78.6514L43.2188 76.4818V78.6196Q43.2188 78.6443 43.1994 78.6619Q43.18 78.6796 43.1518 78.6796Q43.12 78.6796 43.1024 78.6619Q43.0847 78.6443 43.0847 78.6196V76.2807Q43.0847 76.2454 43.1041 76.2278Q43.1235 76.2101 43.1482 76.2101Q43.18 76.2101 43.2011 76.2348L44.8028 78.4185V76.2772Q44.8028 76.2489 44.8222 76.2295Q44.8416 76.2101 44.8698 76.2101Q44.9015 76.2101 44.9192 76.2295Q44.9368 76.2489 44.9368 76.2772ZM47.5086 77.5331V78.4185Q47.5086 78.4609 47.4768 78.482Q47.3145 78.5914 47.1223 78.6531Q46.93 78.7149 46.7324 78.7149Q46.3691 78.7149 46.0816 78.5508Q45.7941 78.3868 45.63 78.0975Q45.466 77.8082 45.466 77.4449Q45.466 77.0815 45.63 76.7922Q45.7941 76.5029 46.0816 76.3389Q46.3691 76.1749 46.7324 76.1749Q46.93 76.1749 47.1082 76.2225Q47.2863 76.2701 47.4274 76.3654Q47.4592 76.3865 47.4592 76.4253Q47.4592 76.4571 47.4362 76.4765Q47.4133 76.4959 47.3921 76.4959Q47.3745 76.4959 47.3463 76.4818Q47.0499 76.316 46.7324 76.316Q46.4079 76.316 46.1539 76.4606Q45.8999 76.6053 45.757 76.8628Q45.6141 77.1203 45.6141 77.4449Q45.6141 77.7694 45.757 78.0269Q45.8999 78.2845 46.1539 78.4291Q46.4079 78.5738 46.7324 78.5738Q46.8947 78.5738 47.0623 78.5226Q47.2299 78.4714 47.3674 78.3868V77.6036H46.7324Q46.7042 77.6036 46.6831 77.5824Q46.6619 77.5613 46.6619 77.5331Q46.6619 77.5013 46.6831 77.4819Q46.7042 77.4625 46.7324 77.4625H47.438Q47.4698 77.4625 47.4892 77.4837Q47.5086 77.5048 47.5086 77.5331Z"/>
    </g>
</svg>
