<?xml version='1.0' encoding='utf-8'?>
<svg xmlns="http://www.w3.org/2000/svg" width="60.96mm" height="128.5mm" viewBox="0 0 60.96 128.5">
    <g id="airflow_label" style="stroke:#000000;stroke-width:0.25;stroke-linecap:round;stroke-linejoin:bevel">
      <path d="m 12.533686,26.246228 q 0.0035,0.01058 0.0035,0.02822 0,0.03175 -0.02117,0.04939 -0.02117,0.01764 -0.05292,0.01764 -0.02469,0 -0.04586,-0.01058 -0.01764,-0.01411 -0.02469,-0.03528 l -0.296334,-0.726722 0.0035,0.0071 H 10.917963 l -0.2857502,0.719667 q -0.017639,0.04586 -0.0635,0.04586 -0.03175,0 -0.052917,-0.01764 -0.017639,-0.01764 -0.021167,-0.04233 -0.00353,-0.01411 0.00353,-0.03528 l 0.9489732,-2.33539 q 0.01058,-0.02822 0.02469,-0.03528 0.01764,-0.01058 0.04233,-0.01058 0.05292,0 0.07056,0.04586 z M 10.974407,25.434839 h 1.0689169 l -0.53975,-1.329973 z" />
      <path d="m 13.161625,26.267395 q -0.0035,0.03175 -0.0247,0.05292 -0.02117,0.02117 -0.04939,0.02117 -0.03528,0 -0.05644,-0.02117 -0.01764,-0.02117 -0.01764,-0.05292 v -2.321279 q 0,-0.03175 0.02117,-0.05292 0.02117,-0.02117 0.05292,-0.02117 0.03175,0 0.05292,0.02117 0.02117,0.02117 0.02117,0.05292 z" />
      <path d="m 15.624010,26.203895 q 0.03881,0.02469 0.03881,0.0635 0,0.03175 -0.02117,0.05292 -0.01764,0.01764 -0.04586,0.01764 -0.02117,0 -0.03175,-0.0071 -0.09525,-0.05292 -0.151694,-0.176389 -0.05644,-0.127 -0.05644,-0.41275 0,-0.289278 -0.155222,-0.395112 -0.155223,-0.109361 -0.359834,-0.109361 h -0.8255 v 1.03364 q 0,0.02822 -0.02117,0.04939 -0.02117,0.02117 -0.05292,0.02117 -0.03175,0 -0.05292,-0.02117 -0.02117,-0.02117 -0.02117,-0.04939 v -2.328335 q 0,-0.02822 0.02117,-0.04939 0.02117,-0.02117 0.04939,-0.02117 h 0.931334 q 0.204612,0 0.363362,0.08467 0.15875,0.08114 0.246944,0.225778 0.08819,0.144639 0.08819,0.328083 0,0.236362 -0.127,0.405695 -0.123473,0.169334 -0.324556,0.229306 0.169333,0.05292 0.278695,0.211667 0.109361,0.155222 0.109361,0.384528 0,0.236361 0.02822,0.331611 0.03175,0.09172 0.09172,0.130528 z m -0.737306,-1.107723 q 0.22225,-0.02117 0.377473,-0.176389 0.155222,-0.155222 0.155222,-0.405695 0,-0.218722 -0.155222,-0.359833 -0.155223,-0.141111 -0.41275,-0.141111 h -0.836084 v 1.083028 z" />
      <path d="m 17.610149,23.872032 q 0.02822,0 0.04939,0.02117 0.02117,0.02117 0.02117,0.04939 0,0.03175 -0.02117,0.05292 -0.02117,0.01764 -0.04939,0.01764 h -1.259417 v 0.973667 h 1.100667 q 0.02822,0 0.04939,0.02117 0.02117,0.02117 0.02117,0.04939 0,0.03175 -0.02117,0.05292 -0.02117,0.01764 -0.04939,0.01764 h -1.100667 v 1.143001 q 0,0.02822 -0.02117,0.04939 -0.01764,0.02117 -0.04939,0.02117 -0.03175,0 -0.05292,-0.02117 -0.01764,-0.02117 -0.01764,-0.04939 v -2.328335 q 0,-0.02822 0.02117,-0.04939 0.02117,-0.02117 0.04939,-0.02117 z" />
      <path d="m 19.575121,26.200367 q 0.02822,0 0.04939,0.02117 0.02117,0.02117 0.02117,0.04939 0,0.03175 -0.02117,0.05292 -0.02117,0.01764 -0.04939,0.01764 h -1.294695 q -0.03175,0 -0.05292,-0.02117 -0.01764,-0.02117 -0.01764,-0.04939 v -2.328335 q 0,-0.02822 0.02117,-0.04939 0.02117,-0.02117 0.05292,-0.02117 0.03175,0 0.05292,0.02117 0.02117,0.02117 0.02117,0.04939 v 2.257779 z" />
      <path d="m 22.196258,25.106755 q 0,0.370417 -0.151695,0.659695 -0.148166,0.289278 -0.416278,0.451556 -0.268111,0.15875 -0.610306,0.15875 -0.342194,0 -0.610305,-0.15875 -0.268112,-0.162278 -0.419806,-0.451556 -0.148167,-0.289278 -0.148167,-0.659695 0,-0.370417 0.148167,-0.659695 0.151694,-0.289278 0.419806,-0.448028 0.268111,-0.162277 0.610305,-0.162277 0.342195,0 0.610306,0.162277 0.268112,0.15875 0.416278,0.448028 0.151695,0.289278 0.151695,0.659695 z m -0.148167,0 q 0,-0.331611 -0.130528,-0.589139 -0.130527,-0.257528 -0.366889,-0.398639 -0.232833,-0.141111 -0.532695,-0.141111 -0.299861,0 -0.536222,0.141111 -0.232834,0.141111 -0.363361,0.398639 -0.130528,0.257528 -0.130528,0.589139 0,0.331612 0.130528,0.58914 0.130527,0.257528 0.363361,0.398639 0.236361,0.141111 0.536222,0.141111 0.299862,0 0.532695,-0.141111 0.236362,-0.141111 0.366889,-0.398639 0.130528,-0.257528 0.130528,-0.58914 z" />
      <path d="m 25.593505,23.864977 q 0.03175,0 0.05292,0.01764 0.02117,0.01764 0.02117,0.04939 l -0.0071,0.03528 -0.807861,2.328335 q -0.0071,0.02117 -0.02822,0.03528 -0.01764,0.01058 -0.03528,0.01058 -0.05645,0 -0.07056,-0.04233 l -0.645584,-1.629834 -0.645584,1.629834 q -0.01764,0.04233 -0.07408,0.04233 -0.02117,0 -0.0388,-0.01058 -0.01764,-0.01411 -0.02117,-0.03528 l -0.807862,-2.328335 -0.0071,-0.03175 q 0,-0.03175 0.02469,-0.04939 0.02469,-0.02117 0.05292,-0.02117 0.02117,0 0.0388,0.01411 0.02117,0.01058 0.02822,0.03175 l 0.747889,2.159001 0.635,-1.60514 q 0.01764,-0.04586 0.06703,-0.04586 0.02117,0 0.03881,0.01411 0.02117,0.01058 0.02822,0.03175 l 0.638528,1.608668 0.744362,-2.162529 q 0.01764,-0.04586 0.07055,-0.04586 z" />
    </g>
    <g id="width_label" style="stroke:#000000;stroke-width:0.25;stroke-linecap:round;stroke-linejoin:bevel">
      <path d="m 17.709193,44.917862 q 0.03175,0 0.05292,0.01764 0.02117,0.01764 0.02117,0.04939 l -0.0071,0.03528 -0.807861,2.328335 q -0.0071,0.02117 -0.02822,0.03528 -0.01764,0.01058 -0.03528,0.01058 -0.05645,0 -0.07056,-0.04233 L 16.188720,45.722196 15.543136,47.352030 q -0.017639,0.04233 -0.074083,0.04233 -0.021167,0 -0.038806,-0.01058 -0.017639,-0.01411 -0.021167,-0.03528 l -0.8078616,-2.328335 -0.00706,-0.03175 q 0,-0.03175 0.024694,-0.04939 0.024694,-0.02117 0.052917,-0.02117 0.021167,0 0.038806,0.01411 0.021167,0.01058 0.028222,0.03175 l 0.7478894,2.159001 0.635,-1.60514 q 0.01764,-0.04586 0.06703,-0.04586 0.02117,0 0.03881,0.01411 0.02117,0.01058 0.02822,0.03175 l 0.638528,1.608668 0.744362,-2.162529 q 0.01764,-0.04586 0.07055,-0.04586 z" />
      <path d="m 18.407690,47.320280 q -0.0035,0.03175 -0.02469,0.05292 -0.02117,0.02117 -0.04939,0.02117 -0.03528,0 -0.05645,-0.02117 -0.01764,-0.02117 -0.01764,-0.05292 v -2.321279 q 0,-0.03175 0.02117,-0.05292 0.02117,-0.02117 0.05292,-0.02117 0.03175,0 0.05292,0.02117 0.02117,0.02117 0.02117,0.05292 z" />
      <path d="m 20.101020,44.924917 q 0.338667,0 0.567973,0.169334 0.232833,0.169333 0.342194,0.451556 0.112889,0.278694 0.112889,0.613833 0,0.349251 -0.112889,0.627945 -0.109361,0.278695 -0.338666,0.444501 -0.229306,0.162277 -0.571501,0.162277 h -0.917223 q -0.02822,0 -0.04939,-0.02117 -0.02117,-0.02117 -0.02117,-0.04939 v -2.328335 q 0,-0.02822 0.02117,-0.04939 0.02117,-0.02117 0.04939,-0.02117 z m -0.03528,2.328335 q 0.458612,0 0.68439,-0.299861 0.225778,-0.303389 0.225778,-0.793751 0,-0.299861 -0.09878,-0.546806 -0.09525,-0.250472 -0.299861,-0.398639 -0.201084,-0.148166 -0.511529,-0.148166 h -0.804333 v 2.187223 z" />
      <path d="m 23.138435,44.924917 q 0.02822,0 0.04939,0.02117 0.02117,0.01764 0.02117,0.04586 0,0.03175 -0.02117,0.04939 -0.01764,0.01764 -0.04939,0.01764 H 22.351740 v 2.264835 q 0,0.02822 -0.02117,0.04939 -0.02117,0.02117 -0.04939,0.02117 -0.03175,0 -0.05292,-0.02117 -0.01764,-0.02117 -0.01764,-0.04939 v -2.264835 h -0.786695 q -0.02822,0 -0.04939,-0.01764 -0.02117,-0.02117 -0.02117,-0.04939 0,-0.02822 0.02117,-0.04586 0.02117,-0.02117 0.04939,-0.02117 z" />
      <path d="m 25.445598,44.924917 q 0.03175,0 0.05292,0.02117 0.02117,0.02117 0.02117,0.05292 v 2.321279 q -0.0035,0.03175 -0.0247,0.05292 -0.02117,0.02117 -0.04939,0.02117 -0.03528,0 -0.05644,-0.02117 -0.01764,-0.02117 -0.01764,-0.05292 v -1.125362 h -1.538112 v 1.125362 q -0.0035,0.03175 -0.02469,0.05292 -0.02117,0.02117 -0.04939,0.02117 -0.03528,0 -0.05645,-0.02117 -0.01764,-0.02117 -0.01764,-0.05292 v -2.321279 q 0,-0.03175 0.02117,-0.05292 0.02117,-0.02117 0.05292,-0.02117 0.03175,0 0.05292,0.02117 0.02117,0.02117 0.02117,0.05292 v 1.054806 h 1.538112 v -1.054806 q 0,-0.03175 0.02117,-0.05292 0.02117,-0.02117 0.05292,-0.02117 z" />
    </g>
    <g id="decay_label" style="stroke:#000000;stroke-width:0.25;stroke-linecap:round;stroke-linejoin:bevel">
      <path d="m 16.037841,65.853636 q 0.338667,0 0.567973,0.169333 0.232833,0.169334 0.342194,0.451556 0.112889,0.278695 0.112889,0.613834 0,0.34925 -0.112889,0.627945 -0.109361,0.278694 -0.338667,0.4445 -0.229305,0.162278 -0.5715,0.162278 h -0.917223 q -0.02822,0 -0.04939,-0.02117 -0.02117,-0.02117 -0.02117,-0.04939 v -2.328334 q 0,-0.02822 0.02117,-0.04939 0.02117,-0.02117 0.04939,-0.02117 z m -0.03528,2.328335 q 0.458612,0 0.68439,-0.299862 0.225778,-0.303389 0.225778,-0.79375 0,-0.299861 -0.09878,-0.546806 -0.09525,-0.250472 -0.299862,-0.398639 -0.201083,-0.148167 -0.511528,-0.148167 h -0.804334 v 2.187224 z" />
      <path d="m 18.990591,68.181971 q 0.02822,0 0.04939,0.02117 0.02117,0.02117 0.02117,0.04939 0,0.03175 -0.02117,0.05292 -0.02117,0.01764 -0.04939,0.01764 h -1.329973 q -0.02822,0 -0.04939,-0.02117 -0.02117,-0.02117 -0.02117,-0.04939 v -2.328334 q 0,-0.02822 0.02117,-0.04939 0.02117,-0.02117 0.04939,-0.02117 h 1.329973 q 0.02822,0 0.04939,0.02117 0.02117,0.02117 0.02117,0.04939 0,0.03175 -0.02117,0.05292 -0.02117,0.01764 -0.04939,0.01764 h -1.252362 v 0.984251 h 1.093612 q 0.02822,0 0.04939,0.02117 0.02117,0.02117 0.02117,0.04939 0,0.03175 -0.02117,0.05292 -0.02117,0.01764 -0.04939,0.01764 h -1.093612 v 1.061862 z" />
      <path d="m 21.417702,66.058247 q 0.03175,0.0247 0.03175,0.05644 0,0.02822 -0.01411,0.04586 -0.02117,0.02822 -0.05292,0.02822 -0.01411,0 -0.04233,-0.01411 -0.328083,-0.22225 -0.694972,-0.22225 -0.296334,0 -0.546806,0.148167 -0.246945,0.144639 -0.391584,0.405694 -0.144639,0.257528 -0.144639,0.582084 0,0.324556 0.144639,0.585611 0.144639,0.257528 0.391584,0.405695 0.250472,0.144639 0.546806,0.144639 0.370417,0 0.691445,-0.218722 0.01764,-0.01411 0.04233,-0.01411 0.03528,0 0.05645,0.02822 0.01411,0.01764 0.01411,0.04233 0,0.03528 -0.02822,0.05644 -0.137583,0.09878 -0.356305,0.169333 -0.215195,0.07056 -0.419806,0.07056 -0.335139,0 -0.617362,-0.165806 -0.282222,-0.165806 -0.448028,-0.455084 -0.165805,-0.292805 -0.165805,-0.649111 0,-0.356306 0.165805,-0.645584 0.165806,-0.292806 0.448028,-0.458611 0.282223,-0.165806 0.617362,-0.165806 0.211667,0 0.409222,0.0635 0.201084,0.0635 0.363362,0.176389 z" />
      <path d="m 23.735449,68.227832 q 0.0035,0.01058 0.0035,0.02822 0,0.03175 -0.02117,0.04939 -0.02117,0.01764 -0.05292,0.01764 -0.02469,0 -0.04586,-0.01058 -0.01764,-0.01411 -0.0247,-0.03528 l -0.296333,-0.726723 0.0035,0.0071 h -1.181807 l -0.28575,0.719667 q -0.01764,0.04586 -0.0635,0.04586 -0.03175,0 -0.05292,-0.01764 -0.01764,-0.01764 -0.02117,-0.04233 -0.0035,-0.01411 0.0035,-0.03528 l 0.948973,-2.33539 q 0.01058,-0.02822 0.0247,-0.03528 0.01764,-0.01058 0.04233,-0.01058 0.05292,0 0.07056,0.04586 z m -1.559279,-0.81139 h 1.068917 l -0.53975,-1.329973 z" />
      <path d="m 25.569884,65.906553 q 0,0.01764 -0.01411,0.04586 l -0.804334,1.093612 v 1.2065 q 0,0.02822 -0.02117,0.04939 -0.02117,0.02117 -0.05292,0.02117 -0.03175,0 -0.05292,-0.02117 -0.02117,-0.02117 -0.02117,-0.04939 v -1.192389 l -0.807861,-1.107723 q -0.01411,-0.01764 -0.01411,-0.04586 0,-0.0247 0.02117,-0.04586 0.0247,-0.02117 0.05292,-0.02117 0.0388,0 0.05997,0.03175 l 0.762001,1.040695 0.762,-1.040695 q 0.02117,-0.03175 0.05997,-0.03175 0.03175,0 0.04939,0.02469 0.02117,0.02117 0.02117,0.04233 z" />
    </g>
    <g id="root_label" style="stroke:#000000;stroke-width:0.25;stroke-linecap:round;stroke-linejoin:bevel">
      <path d="m 17.782822,89.181623 q 0.0388,0.02469 0.0388,0.0635 0,0.03175 -0.02117,0.05292 -0.01764,0.01764 -0.04586,0.01764 -0.02117,0 -0.03175,-0.0071 -0.09525,-0.05292 -0.151694,-0.176389 -0.05645,-0.127 -0.05645,-0.41275 0,-0.289278 -0.155222,-0.395112 -0.155222,-0.109361 -0.359834,-0.109361 h -0.8255 v 1.03364 q 0,0.02822 -0.02117,0.04939 -0.02117,0.02117 -0.05292,0.02117 -0.03175,0 -0.05292,-0.02117 -0.02117,-0.02117 -0.02117,-0.04939 v -2.328335 q 0,-0.02822 0.02117,-0.04939 0.02117,-0.02117 0.04939,-0.02117 h 0.931334 q 0.204611,0 0.363361,0.08467 0.15875,0.08114 0.246945,0.225778 0.08819,0.144639 0.08819,0.328083 0,0.236362 -0.127,0.405695 -0.123472,0.169334 -0.324556,0.229306 0.169334,0.05292 0.278695,0.211667 0.109361,0.155222 0.109361,0.384528 0,0.236361 0.02822,0.331611 0.03175,0.09172 0.09172,0.130528 z M 17.045516,88.073900 q 0.22225,-0.02117 0.377472,-0.176389 0.155222,-0.155222 0.155222,-0.405695 0,-0.218722 -0.155222,-0.359833 -0.155222,-0.141112 -0.41275,-0.141112 H 16.174154 V 88.073900 Z" />
      <path d="m 20.513321,88.084483 q 0,0.370417 -0.151694,0.659695 -0.148167,0.289278 -0.416278,0.451556 -0.268112,0.15875 -0.610306,0.15875 -0.342195,0 -0.610306,-0.15875 -0.268112,-0.162278 -0.419806,-0.451556 -0.148167,-0.289278 -0.148167,-0.659695 0,-0.370417 0.148167,-0.659695 0.151694,-0.289278 0.419806,-0.448028 0.268111,-0.162278 0.610306,-0.162278 0.342194,0 0.610306,0.162278 0.268111,0.15875 0.416278,0.448028 0.151694,0.289278 0.151694,0.659695 z m -0.148167,0 q 0,-0.331611 -0.130527,-0.589139 -0.130528,-0.257528 -0.36689,-0.398639 -0.232833,-0.141111 -0.532694,-0.141111 -0.299862,0 -0.536223,0.141111 -0.232833,0.141111 -0.363361,0.398639 -0.130528,0.257528 -0.130528,0.589139 0,0.331612 0.130528,0.589139 0.130528,0.257528 0.363361,0.39864 0.236361,0.141111 0.536223,0.141111 0.299861,0 0.532694,-0.141111 0.236362,-0.141112 0.36689,-0.39864 0.130527,-0.257527 0.130527,-0.589139 z" />
      <path d="m 23.222655,88.084483 q 0,0.370417 -0.151695,0.659695 -0.148167,0.289278 -0.416278,0.451556 -0.268111,0.15875 -0.610306,0.15875 -0.342194,0 -0.610306,-0.15875 -0.268111,-0.162278 -0.419806,-0.451556 -0.148166,-0.289278 -0.148166,-0.659695 0,-0.370417 0.148166,-0.659695 0.151695,-0.289278 0.419806,-0.448028 0.268112,-0.162278 0.610306,-0.162278 0.342195,0 0.610306,0.162278 0.268111,0.15875 0.416278,0.448028 0.151695,0.289278 0.151695,0.659695 z m -0.148167,0 q 0,-0.331611 -0.130528,-0.589139 -0.130528,-0.257528 -0.366889,-0.398639 -0.232833,-0.141111 -0.532695,-0.141111 -0.299861,0 -0.536222,0.141111 -0.232834,0.141111 -0.363362,0.398639 -0.130528,0.257528 -0.130528,0.589139 0,0.331612 0.130528,0.589139 0.130528,0.257528 0.363362,0.39864 0.236361,0.141111 0.536222,0.141111 0.299862,0 0.532695,-0.141111 0.236361,-0.141112 0.366889,-0.39864 0.130528,-0.257527 0.130528,-0.589139 z" />
      <path d="m 25.237014,86.849760 q 0.02822,0 0.04939,0.02117 0.02117,0.01764 0.02117,0.04586 0,0.03175 -0.02117,0.04939 -0.01764,0.01764 -0.04939,0.01764 H 24.450320 v 2.264835 q 0,0.02822 -0.02117,0.04939 -0.02117,0.02117 -0.04939,0.02117 -0.03175,0 -0.05292,-0.02117 -0.01764,-0.02117 -0.01764,-0.04939 v -2.264835 h -0.786695 q -0.02822,0 -0.04939,-0.01764 -0.02117,-0.02117 -0.02117,-0.04939 0,-0.02822 0.02117,-0.04586 0.02117,-0.02117 0.04939,-0.02117 z" />
    </g>
    <g id="vortex_label" style="stroke:#000000;stroke-width:0.25;stroke-linecap:round;stroke-linejoin:bevel">
      <path d="m 37.542274,13.447664 q 0.03175,0 0.04939,0.01764 0.02117,0.01764 0.02117,0.04586 0,0.01411 -0.0071,0.03528 l -0.966612,2.324808 q -0.02117,0.04586 -0.06703,0.04586 -0.02117,0 -0.04233,-0.01058 -0.01764,-0.01411 -0.0247,-0.03528 L 35.545550,13.557025 q -0.01058,-0.02117 -0.01058,-0.04233 0,-0.02822 0.01764,-0.04586 0.02117,-0.02117 0.04939,-0.02117 0.05292,0 0.07761,0.05644 l 0.896056,2.155474 0.899584,-2.166057 q 0.02469,-0.04586 0.06703,-0.04586 z" />
      <path d="m 40.230436,14.682387 q 0,0.370417 -0.151695,0.659695 -0.148166,0.289277 -0.416278,0.451555 -0.268111,0.15875 -0.610306,0.15875 -0.342194,0 -0.610306,-0.15875 -0.268111,-0.162278 -0.419805,-0.451555 -0.148167,-0.289278 -0.148167,-0.659695 0,-0.370417 0.148167,-0.659695 0.151694,-0.289278 0.419805,-0.448028 0.268112,-0.162278 0.610306,-0.162278 0.342195,0 0.610306,0.162278 0.268112,0.15875 0.416278,0.448028 0.151695,0.289278 0.151695,0.659695 z m -0.148167,0 q 0,-0.331612 -0.130528,-0.58914 -0.130528,-0.257528 -0.366889,-0.398639 -0.232833,-0.141111 -0.532695,-0.141111 -0.299861,0 -0.536222,0.141111 -0.232834,0.141111 -0.363362,0.398639 -0.130527,0.257528 -0.130527,0.58914 0,0.331611 0.130527,0.589139 0.130528,0.257528 0.363362,0.398639 0.236361,0.141111 0.536222,0.141111 0.299862,0 0.532695,-0.141111 0.236361,-0.141111 0.366889,-0.398639 0.130528,-0.257528 0.130528,-0.589139 z" />
      <path d="m 42.516436,15.779526 q 0.03881,0.02469 0.03881,0.0635 0,0.03175 -0.02117,0.05292 -0.01764,0.01764 -0.04586,0.01764 -0.02117,0 -0.03175,-0.0071 -0.09525,-0.05292 -0.151695,-0.176389 -0.05644,-0.127 -0.05644,-0.41275 0,-0.289278 -0.155222,-0.395111 -0.155223,-0.109361 -0.359834,-0.109361 h -0.825501 v 1.033639 q 0,0.02822 -0.02117,0.04939 -0.02117,0.02117 -0.05292,0.02117 -0.03175,0 -0.05292,-0.02117 -0.02117,-0.02117 -0.02117,-0.04939 v -2.328335 q 0,-0.02822 0.02117,-0.04939 0.02117,-0.02117 0.04939,-0.02117 h 0.931334 q 0.204611,0 0.363362,0.08467 0.15875,0.08114 0.246944,0.225778 0.08819,0.144639 0.08819,0.328084 0,0.236361 -0.127,0.405695 -0.123473,0.169333 -0.324556,0.229305 0.169333,0.05292 0.278694,0.211667 0.109362,0.155222 0.109362,0.384528 0,0.236361 0.02822,0.331611 0.03175,0.09172 0.09172,0.130528 z M 41.779130,14.671803 q 0.22225,-0.02117 0.377473,-0.176389 0.155222,-0.155222 0.155222,-0.405694 0,-0.218723 -0.155222,-0.359834 -0.155223,-0.141111 -0.412751,-0.141111 h -0.836084 v 1.083028 z" />
      <path d="m 44.604876,13.447664 q 0.02822,0 0.04939,0.02117 0.02117,0.01764 0.02117,0.04586 0,0.03175 -0.02117,0.04939 -0.01764,0.01764 -0.04939,0.01764 h -0.786695 v 2.264835 q 0,0.02822 -0.02117,0.04939 -0.02117,0.02117 -0.04939,0.02117 -0.03175,0 -0.05292,-0.02117 -0.01764,-0.02117 -0.01764,-0.04939 v -2.264835 h -0.786695 q -0.02822,0 -0.04939,-0.01764 -0.02117,-0.02117 -0.02117,-0.04939 0,-0.02822 0.02117,-0.04586 0.02117,-0.02117 0.04939,-0.02117 z" />
      <path d="m 46.552206,15.775998 q 0.02822,0 0.04939,0.02117 0.02117,0.02117 0.02117,0.04939 0,0.03175 -0.02117,0.05292 -0.02117,0.01764 -0.04939,0.01764 h -1.329973 q -0.02822,0 -0.04939,-0.02117 -0.02117,-0.02117 -0.02117,-0.04939 v -2.328335 q 0,-0.02822 0.02117,-0.04939 0.02117,-0.02117 0.04939,-0.02117 h 1.329973 q 0.02822,0 0.04939,0.02117 0.02117,0.02117 0.02117,0.04939 0,0.03175 -0.02117,0.05292 -0.02117,0.01764 -0.04939,0.01764 h -1.252362 v 0.98425 h 1.093612 q 0.02822,0 0.04939,0.02117 0.02117,0.02117 0.02117,0.04939 0,0.03175 -0.02117,0.05292 -0.02117,0.01764 -0.04939,0.01764 h -1.093612 v 1.061861 z" />
      <path d="m 48.753539,15.814804 q 0.01764,0.0247 0.01764,0.04233 0,0.03175 -0.02117,0.05292 -0.02117,0.01764 -0.05292,0.01764 -0.0388,0 -0.05644,-0.02822 l -0.807862,-1.100668 -0.804334,1.100668 q -0.01764,0.02822 -0.05292,0.02822 -0.03175,0 -0.04939,-0.01764 -0.01764,-0.02117 -0.01764,-0.04233 0,-0.01764 0.01764,-0.04586 l 0.829028,-1.132418 -0.836084,-1.139473 q -0.01411,-0.01764 -0.01411,-0.04233 0,-0.03175 0.02117,-0.04939 0.02117,-0.02117 0.04939,-0.02117 0.04233,0 0.05997,0.02822 l 0.807861,1.104195 0.804334,-1.107723 q 0.02117,-0.02822 0.05292,-0.02822 0.03175,0 0.04939,0.01764 0.02117,0.01411 0.02117,0.03881 0,0.02469 -0.01764,0.04939 l -0.829029,1.143001 z" />
    </g>
    <g id="center_label" style="stroke:#000000;stroke-width:0.25;stroke-linecap:round;stroke-linejoin:bevel">
      <path d="m 37.293728,34.537975 q 0.03175,0.02469 0.03175,0.05644 0,0.02822 -0.01411,0.04586 -0.02117,0.02822 -0.05292,0.02822 -0.01411,0 -0.04233,-0.01411 -0.328083,-0.222249 -0.694971,-0.222249 -0.296333,0 -0.546805,0.148166 -0.246943,0.144638 -0.391582,0.405693 -0.144639,0.257528 -0.144639,0.582083 0,0.324554 0.144639,0.585609 0.144639,0.257528 0.391582,0.405694 0.250472,0.144638 0.546805,0.144638 0.370416,0 0.691443,-0.218721 0.01764,-0.01411 0.04233,-0.01411 0.03528,0 0.05644,0.02822 0.01411,0.01764 0.01411,0.04233 0,0.03528 -0.02822,0.05644 -0.137583,0.09878 -0.356305,0.169333 -0.215194,0.07056 -0.419804,0.07056 -0.335138,0 -0.61736,-0.165805 -0.282222,-0.165806 -0.448027,-0.455083 -0.165805,-0.292805 -0.165805,-0.649109 0,-0.356305 0.165805,-0.645582 0.165805,-0.292805 0.448027,-0.45861 0.282222,-0.165806 0.61736,-0.165806 0.211666,0 0.409221,0.0635 0.201083,0.0635 0.36336,0.176389 z" />
      <path d="m 39.202248,36.661692 q 0.02822,0 0.04939,0.02117 0.02117,0.02117 0.02117,0.04939 0,0.03175 -0.02117,0.05292 -0.02117,0.01764 -0.04939,0.01764 h -1.32997 q -0.02822,0 -0.04939,-0.02117 -0.02117,-0.02117 -0.02117,-0.04939 v -2.328329 q 0,-0.02822 0.02117,-0.04939 0.02117,-0.02117 0.04939,-0.02117 h 1.32997 q 0.02822,0 0.04939,0.02117 0.02117,0.02117 0.02117,0.04939 0,0.03175 -0.02117,0.05292 -0.02117,0.01764 -0.04939,0.01764 h -1.252359 v 0.984248 h 1.093609 q 0.02822,0 0.04939,0.02117 0.02117,0.02117 0.02117,0.04939 0,0.03175 -0.02117,0.05292 -0.02117,0.01764 -0.04939,0.01764 h -1.093609 v 1.061859 z" />
      <path d="m 41.587018,34.333364 q 0.03175,0 0.04939,0.02117 0.01764,0.01764 0.01764,0.04586 v 2.3248 q 0,0.03881 -0.02117,0.05997 -0.02117,0.01764 -0.05292,0.01764 -0.03528,0 -0.05644,-0.02822 l -1.587496,-2.169579 v 2.137829 q 0,0.02469 -0.02117,0.04233 -0.01764,0.01764 -0.04586,0.01764 -0.03175,0 -0.04939,-0.01764 -0.01764,-0.01764 -0.01764,-0.04233 v -2.338912 q 0,-0.03528 0.01764,-0.05292 0.02117,-0.01764 0.04586,-0.01764 0.03175,0 0.05292,0.02469 l 1.601607,2.18369 v -2.141356 q 0,-0.02822 0.01764,-0.04586 0.02117,-0.02117 0.04939,-0.02117 z" />
      <path d="m 43.915341,34.333364 q 0.02822,0 0.04939,0.02117 0.02117,0.01764 0.02117,0.04586 0,0.03175 -0.02117,0.04939 -0.01764,0.01764 -0.04939,0.01764 h -0.786693 v 2.264829 q 0,0.02822 -0.02117,0.04939 -0.02117,0.02117 -0.04939,0.02117 -0.03175,0 -0.05292,-0.02117 -0.01764,-0.02117 -0.01764,-0.04939 v -2.264829 h -0.786693 q -0.02822,0 -0.04939,-0.01764 -0.02117,-0.02117 -0.02117,-0.04939 0,-0.02822 0.02117,-0.04586 0.02117,-0.02117 0.04939,-0.02117 z" />
      <path d="m 45.862666,36.661692 q 0.02822,0 0.04939,0.02117 0.02117,0.02117 0.02117,0.04939 0,0.03175 -0.02117,0.05292 -0.02117,0.01764 -0.04939,0.01764 h -1.329969 q -0.02822,0 -0.04939,-0.02117 -0.02117,-0.02117 -0.02117,-0.04939 v -2.328329 q 0,-0.02822 0.02117,-0.04939 0.02117,-0.02117 0.04939,-0.02117 h 1.329969 q 0.02822,0 0.04939,0.02117 0.02117,0.02117 0.02117,0.04939 0,0.03175 -0.02117,0.05292 -0.02117,0.01764 -0.04939,0.01764 h -1.252358 v 0.984248 h 1.093609 q 0.02822,0 0.04939,0.02117 0.02117,0.02117 0.02117,0.04939 0,0.03175 -0.02117,0.05292 -0.02117,0.01764 -0.04939,0.01764 h -1.093609 v 1.061859 z" />
      <path d="m 48.219214,36.665220 q 0.03881,0.02469 0.03881,0.0635 0,0.03175 -0.02117,0.05292 -0.01764,0.01764 -0.04586,0.01764 -0.02117,0 -0.03175,-0.0071 -0.09525,-0.05292 -0.151694,-0.176389 -0.05644,-0.126999 -0.05644,-0.412749 0,-0.289277 -0.155222,-0.39511 -0.155222,-0.109361 -0.359833,-0.109361 h -0.825498 v 1.033637 q 0,0.02822 -0.02117,0.04939 -0.02117,0.02117 -0.05292,0.02117 -0.03175,0 -0.05292,-0.02117 -0.02117,-0.02117 -0.02117,-0.04939 v -2.328329 q 0,-0.02822 0.02117,-0.04939 0.02117,-0.02117 0.04939,-0.02117 h 0.931332 q 0.20461,0 0.36336,0.08467 0.15875,0.08114 0.246944,0.225778 0.08819,0.144638 0.08819,0.328082 0,0.236361 -0.127,0.405694 -0.123472,0.169333 -0.324555,0.229305 0.169333,0.05292 0.278694,0.211666 0.109361,0.155222 0.109361,0.384527 0,0.236361 0.02822,0.331611 0.03175,0.09172 0.09172,0.130527 z M 47.481910,35.557500 q 0.22225,-0.02117 0.377472,-0.176388 0.155222,-0.155222 0.155222,-0.405694 0,-0.218722 -0.155222,-0.359832 -0.155222,-0.141111 -0.412749,-0.141111 H 46.610551 V 35.557500 Z" />
    </g>
    <g id="angle_label" style="stroke:#000000;stroke-width:0.25;stroke-linecap:round;stroke-linejoin:bevel">
      <path d="m 36.871533,57.882121 q 0.0035,0.01058 0.0035,0.02822 0,0.03175 -0.02117,0.04939 -0.02117,0.01764 -0.05292,0.01764 -0.02469,0 -0.04586,-0.01058 -0.01764,-0.01411 -0.0247,-0.03528 l -0.296333,-0.726723 0.0035,0.0071 h -1.181807 l -0.28575,0.719667 q -0.01764,0.04586 -0.0635,0.04586 -0.03175,0 -0.05292,-0.01764 -0.01764,-0.01764 -0.02117,-0.04233 -0.0035,-0.01411 0.0035,-0.03528 l 0.948972,-2.33539 q 0.01058,-0.02822 0.0247,-0.03528 0.01764,-0.01058 0.04233,-0.01058 0.05292,0 0.07056,0.04586 z m -1.559279,-0.811389 h 1.068917 l -0.53975,-1.329973 z" />
      <path d="m 39.136361,55.507925 q 0.03175,0 0.04939,0.02117 0.01764,0.01764 0.01764,0.04586 v 2.324807 q 0,0.03881 -0.02117,0.05997 -0.02117,0.01764 -0.05292,0.01764 -0.03528,0 -0.05644,-0.02822 L 37.485360,55.779564 v 2.137835 q 0,0.02469 -0.02117,0.04233 -0.01764,0.01764 -0.04586,0.01764 -0.03175,0 -0.04939,-0.01764 -0.01764,-0.01764 -0.01764,-0.04233 v -2.338918 q 0,-0.03528 0.01764,-0.05292 0.02117,-0.01764 0.04586,-0.01764 0.03175,0 0.05292,0.0247 l 1.601612,2.183695 v -2.141362 q 0,-0.02822 0.01764,-0.04586 0.02117,-0.02117 0.04939,-0.02117 z" />
      <path d="m 41.704580,56.760287 q 0.03175,0 0.04939,0.02117 0.02117,0.02117 0.02117,0.04939 v 0.885472 q 0,0.04233 -0.03175,0.0635 -0.162278,0.109361 -0.356306,0.172861 -0.1905,0.05997 -0.388056,0.05997 -0.363361,0 -0.652639,-0.162278 -0.285751,-0.165806 -0.451556,-0.455083 -0.162278,-0.289278 -0.162278,-0.65264 0,-0.363361 0.162278,-0.652639 0.165805,-0.289278 0.451556,-0.451556 0.289278,-0.165806 0.652639,-0.165806 0.197556,0 0.373945,0.04939 0.179916,0.04586 0.321028,0.141111 0.03175,0.02117 0.03175,0.05997 0,0.03175 -0.0247,0.05292 -0.02117,0.01764 -0.04233,0.01764 -0.01764,0 -0.04586,-0.01411 -0.296334,-0.165805 -0.613834,-0.165805 -0.324556,0 -0.578556,0.144639 -0.254,0.144639 -0.398639,0.402166 -0.141111,0.257528 -0.141111,0.582084 0,0.324556 0.141111,0.582084 0.144639,0.257528 0.398639,0.402167 0.254,0.144639 0.578556,0.144639 0.162278,0 0.328083,-0.04939 0.169334,-0.05292 0.306917,-0.137584 v -0.783167 h -0.635 q -0.02822,0 -0.04939,-0.02117 -0.02117,-0.02117 -0.02117,-0.04939 0,-0.03175 0.02117,-0.04939 0.02117,-0.02117 0.04939,-0.02117 z" />
      <path d="m 43.722464,57.836260 q 0.02822,0 0.04939,0.02117 0.02117,0.02117 0.02117,0.04939 0,0.03175 -0.02117,0.05292 -0.02117,0.01764 -0.04939,0.01764 h -1.294695 q -0.03175,0 -0.05292,-0.02117 -0.01764,-0.02117 -0.01764,-0.04939 v -2.328335 q 0,-0.02822 0.02117,-0.04939 0.02117,-0.02117 0.05292,-0.02117 0.03175,0 0.05292,0.02117 0.02117,0.02117 0.02117,0.04939 v 2.257779 z" />
      <path d="m 45.599241,57.836260 q 0.02822,0 0.04939,0.02117 0.02117,0.02117 0.02117,0.04939 0,0.03175 -0.02117,0.05292 -0.02117,0.01764 -0.04939,0.01764 h -1.329973 q -0.02822,0 -0.04939,-0.02117 -0.02117,-0.02117 -0.02117,-0.04939 v -2.328335 q 0,-0.02822 0.02117,-0.04939 0.02117,-0.02117 0.04939,-0.02117 h 1.329973 q 0.02822,0 0.04939,0.02117 0.02117,0.02117 0.02117,0.04939 0,0.03175 -0.02117,0.05292 -0.02117,0.01764 -0.04939,0.01764 h -1.252362 v 0.984251 h 1.093611 q 0.02822,0 0.04939,0.02117 0.02117,0.02117 0.02117,0.04939 0,0.03175 -0.02117,0.05292 -0.02117,0.01764 -0.04939,0.01764 h -1.093611 v 1.061862 z" />
    </g>
    <g id="stiffness_label" style="stroke:#000000;stroke-width:0.25;stroke-linecap:round;stroke-linejoin:bevel">
      <path d="m 36.008272,79.027969 q -0.261056,0 -0.455084,-0.08819 -0.194028,-0.09172 -0.384528,-0.282222 -0.02117,-0.02117 -0.02117,-0.05292 0,-0.02822 0.0247,-0.05292 0.02469,-0.02822 0.05292,-0.02822 0.03175,0 0.05997,0.03175 0.137583,0.162278 0.324556,0.246945 0.1905,0.08467 0.398639,0.08467 0.271639,0 0.448028,-0.130528 0.176389,-0.130528 0.176389,-0.345723 -0.0035,-0.169333 -0.09172,-0.278694 -0.08819,-0.109361 -0.218723,-0.172862 -0.127,-0.06703 -0.34925,-0.148166 -0.243417,-0.09172 -0.381,-0.162278 -0.134056,-0.07056 -0.232834,-0.201084 -0.09525,-0.130527 -0.09525,-0.342194 0,-0.172862 0.09525,-0.313973 0.09525,-0.141111 0.271639,-0.22225 0.176389,-0.08114 0.409223,-0.08114 0.208139,0 0.395111,0.07761 0.186973,0.07408 0.296334,0.211667 0.03528,0.04939 0.03528,0.07408 0,0.02822 -0.02822,0.05292 -0.02469,0.02117 -0.05644,0.02117 -0.02822,0 -0.04586,-0.02117 -0.09878,-0.127 -0.254001,-0.201083 -0.155222,-0.07408 -0.342194,-0.07408 -0.268111,0 -0.448028,0.127 -0.176389,0.127001 -0.176389,0.345723 0,0.151694 0.08467,0.257528 0.08819,0.105833 0.218723,0.172861 0.130528,0.0635 0.324556,0.134056 0.246944,0.08819 0.391583,0.162278 0.144639,0.07408 0.246945,0.215194 0.102305,0.141111 0.102305,0.373945 0,0.162278 -0.09525,0.303389 -0.09525,0.141111 -0.275167,0.225778 -0.176389,0.08114 -0.405694,0.08114 z" />
      <path d="m 38.234298,76.523245 q 0.299862,0 0.483306,0.186972 0.183445,0.186973 0.183445,0.486834 0,0.197556 -0.08467,0.359834 -0.08114,0.15875 -0.232833,0.250472 -0.151695,0.08819 -0.349251,0.08819 h -0.769056 v 1.026584 q 0,0.02822 -0.02469,0.04939 -0.02117,0.02117 -0.04939,0.02117 -0.03175,0 -0.05292,-0.02117 -0.02117,-0.02117 -0.02117,-0.04939 v -2.328334 q 0,-0.02822 0.02117,-0.04939 0.02117,-0.02117 0.04939,-0.02117 z m 0,1.231195 q 0.236362,0 0.377473,-0.155222 0.141111,-0.15875 0.141111,-0.402167 0,-0.243417 -0.141111,-0.388056 -0.137584,-0.144639 -0.377473,-0.144639 h -0.769056 v 1.090084 z" />
      <path d="m 41.169411,78.855108 q 0.03881,0.02469 0.03881,0.0635 0,0.03175 -0.02117,0.05292 -0.01764,0.01764 -0.04586,0.01764 -0.02117,0 -0.03175,-0.0071 -0.09525,-0.05292 -0.151694,-0.176389 -0.05644,-0.127 -0.05644,-0.412751 0,-0.289278 -0.155222,-0.395111 -0.155222,-0.109361 -0.359833,-0.109361 h -0.825501 v 1.033639 q 0,0.02822 -0.02117,0.04939 -0.02117,0.02117 -0.05292,0.02117 -0.03175,0 -0.05292,-0.02117 -0.02117,-0.02117 -0.02117,-0.04939 v -2.328334 q 0,-0.02822 0.02117,-0.04939 0.02117,-0.02117 0.04939,-0.02117 h 0.931334 q 0.204611,0 0.363361,0.08467 0.15875,0.08114 0.246945,0.225778 0.08819,0.144639 0.08819,0.328083 0,0.236361 -0.127,0.405695 -0.123472,0.169333 -0.324556,0.229306 0.169334,0.05292 0.278695,0.211666 0.109361,0.155223 0.109361,0.384528 0,0.236362 0.02822,0.331612 0.03175,0.09172 0.09172,0.130528 z m -0.737306,-1.107723 q 0.22225,-0.02117 0.377472,-0.176389 0.155222,-0.155223 0.155222,-0.405695 0,-0.218722 -0.155222,-0.359834 -0.155222,-0.141111 -0.41275,-0.141111 h -0.836084 v 1.083029 z" />
      <path d="m 41.903187,78.918608 q -0.0035,0.03175 -0.02469,0.05292 -0.02117,0.02117 -0.04939,0.02117 -0.03528,0 -0.05644,-0.02117 -0.01764,-0.02117 -0.01764,-0.05292 v -2.32128 q 0,-0.03175 0.02117,-0.05292 0.02117,-0.02117 0.05292,-0.02117 0.03175,0 0.05292,0.02117 0.02117,0.02117 0.02117,0.05292 z" />
      <path d="m 44.393796,76.523245 q 0.03175,0 0.04939,0.02117 0.01764,0.01764 0.01764,0.04586 v 2.324807 q 0,0.0388 -0.02117,0.05997 -0.02117,0.01764 -0.05292,0.01764 -0.03528,0 -0.05644,-0.02822 l -1.587501,-2.169585 v 2.137835 q 0,0.02469 -0.02117,0.04233 -0.01764,0.01764 -0.04586,0.01764 -0.03175,0 -0.04939,-0.01764 -0.01764,-0.01764 -0.01764,-0.04233 v -2.338918 q 0,-0.03528 0.01764,-0.05292 0.02117,-0.01764 0.04586,-0.01764 0.03175,0 0.05292,0.02469 l 1.601612,2.183696 v -2.141362 q 0,-0.02822 0.01764,-0.04586 0.02117,-0.02117 0.04939,-0.02117 z" />
      <path d="m 46.962014,77.775607 q 0.03175,0 0.04939,0.02117 0.02117,0.02117 0.02117,0.04939 v 0.885472 q 0,0.04233 -0.03175,0.0635 -0.162277,0.109362 -0.356305,0.172862 -0.190501,0.05997 -0.388056,0.05997 -0.363362,0 -0.652639,-0.162278 -0.285751,-0.165806 -0.451556,-0.455084 -0.162278,-0.289278 -0.162278,-0.652639 0,-0.363361 0.162278,-0.652639 0.165805,-0.289278 0.451556,-0.451556 0.289277,-0.165806 0.652639,-0.165806 0.197555,0 0.373945,0.04939 0.179916,0.04586 0.321027,0.141111 0.03175,0.02117 0.03175,0.05997 0,0.03175 -0.0247,0.05292 -0.02117,0.01764 -0.04233,0.01764 -0.01764,0 -0.04586,-0.01411 -0.296334,-0.165806 -0.613834,-0.165806 -0.324556,0 -0.578556,0.144639 -0.254,0.144639 -0.398639,0.402167 -0.141111,0.257528 -0.141111,0.582084 0,0.324556 0.141111,0.582084 0.144639,0.257528 0.398639,0.402167 0.254,0.144639 0.578556,0.144639 0.162278,0 0.328083,-0.04939 0.169334,-0.05292 0.306917,-0.137584 v -0.783167 h -0.635 q -0.02822,0 -0.04939,-0.02117 -0.02117,-0.02117 -0.02117,-0.04939 0,-0.03175 0.02117,-0.04939 0.02117,-0.02117 0.04939,-0.02117 z" />
    </g>
</svg>