<?xml version="1.0" encoding="utf-8"?>
<svg xmlns="http://www.w3.org/2000/svg" width="60.96mm" height="128.50mm" viewBox="0 0 60.96 128.50">
<g id="control_labels" style="stroke:#000000;stroke-width:0.25;stroke-linecap:round;stroke-linejoin:bevel">
<path id="airflow_label" d="M12.566055555555556 26.232972222222223Q12.566055555555556 26.264722222222222 12.544888888888888 26.28236111111111Q12.523722222222222 26.3 12.491972222222223 26.3Q12.467277777777777 26.3 12.447875 26.28765277777778Q12.428472222222222 26.275305555555555 12.421416666666667 26.25413888888889L12.125083333333334 25.527416666666667L12.12861111111111 25.534472222222224H10.946805555555557L10.661055555555556 26.25413888888889Q10.643416666666667 26.3 10.597555555555555 26.3Q10.565805555555556 26.3 10.546402777777779 26.28236111111111Q10.527000000000001 26.264722222222222 10.523472222222223 26.24002777777778Q10.519944444444445 26.225916666666667 10.527000000000001 26.20475L11.475972222222222 23.86936111111111Q11.486555555555556 23.84113888888889 11.502430555555556 23.832319444444444Q11.518305555555555 23.8235 11.543000000000001 23.8235Q11.595916666666668 23.8235 11.613555555555555 23.86936111111111L12.562527777777778 26.20475Q12.566055555555556 26.215333333333334 12.566055555555556 26.232972222222223ZM11.00325 25.393361111111112H12.072166666666668L11.532416666666666 24.06338888888889ZM13.116388888888888 26.3Q13.081111111111111 26.3 13.061708333333334 26.278833333333335Q13.042305555555556 26.25766666666667 13.042305555555556 26.225916666666667V23.90463888888889Q13.042305555555556 23.87288888888889 13.063472222222224 23.85172222222222Q13.08463888888889 23.830555555555556 13.116388888888888 23.830555555555556Q13.148138888888889 23.830555555555556 13.169305555555557 23.85172222222222Q13.190472222222223 23.87288888888889 13.190472222222223 23.90463888888889V26.225916666666667Q13.186944444444444 26.25766666666667 13.165777777777777 26.278833333333335Q13.14461111111111 26.3 13.116388888888888 26.3ZM15.691666666666666 26.225916666666667Q15.691666666666666 26.25766666666667 15.672263888888889 26.277069444444447Q15.652861111111111 26.296472222222224 15.624638888888889 26.296472222222224Q15.603472222222223 26.296472222222224 15.59288888888889 26.289416666666668Q15.49763888888889 26.2365 15.441194444444445 26.11126388888889Q15.38475 25.986027777777778 15.38475 25.700277777777778Q15.38475 25.411 15.229527777777779 25.303402777777777Q15.074305555555556 25.195805555555555 14.869694444444445 25.195805555555555H14.044194444444445V26.229444444444447Q14.044194444444445 26.25766666666667 14.023027777777777 26.278833333333335Q14.001861111111111 26.3 13.97011111111111 26.3Q13.938361111111112 26.3 13.917194444444444 26.278833333333335Q13.896027777777778 26.25766666666667 13.896027777777778 26.229444444444447V23.901111111111113Q13.896027777777778 23.87288888888889 13.917194444444444 23.85172222222222Q13.938361111111112 23.830555555555556 13.966583333333334 23.830555555555556H14.897916666666667Q15.102527777777778 23.830555555555556 15.261277777777778 23.913458333333335Q15.420027777777777 23.996361111111113 15.508222222222223 24.141000000000002Q15.596416666666666 24.28563888888889 15.596416666666666 24.469083333333334Q15.596416666666666 24.705444444444446 15.471180555555556 24.87477777777778Q15.345944444444445 25.04411111111111 15.144861111111112 25.104083333333335Q15.314194444444444 25.157 15.423555555555556 25.313986111111113Q15.532916666666667 25.470972222222223 15.532916666666667 25.700277777777778Q15.532916666666667 25.93663888888889 15.56290277777778 26.030125Q15.59288888888889 26.123611111111114 15.652861111111111 26.16241666666667Q15.691666666666666 26.18711111111111 15.691666666666666 26.225916666666667ZM14.915555555555557 25.054694444444443Q15.137805555555556 25.033527777777778 15.293027777777777 24.878305555555556Q15.44825 24.723083333333335 15.44825 24.472611111111114Q15.44825 24.253888888888888 15.293027777777777 24.11277777777778Q15.137805555555556 23.971666666666668 14.880277777777778 23.971666666666668H14.044194444444445V25.054694444444443ZM17.709555555555557 23.901111111111113Q17.709555555555557 23.932861111111112 17.688388888888888 23.95226388888889Q17.66722222222222 23.971666666666668 17.639 23.971666666666668H16.379583333333333V24.945333333333334H17.48025Q17.508472222222224 24.945333333333334 17.52963888888889 24.9665Q17.550805555555556 24.987666666666666 17.550805555555556 25.015888888888888Q17.550805555555556 25.04763888888889 17.52963888888889 25.067041666666668Q17.508472222222224 25.086444444444446 17.48025 25.086444444444446H16.379583333333333V26.229444444444447Q16.379583333333333 26.25766666666667 16.360180555555555 26.278833333333335Q16.340777777777777 26.3 16.30902777777778 26.3Q16.27727777777778 26.3 16.257875 26.278833333333335Q16.23847222222222 26.25766666666667 16.23847222222222 26.229444444444447V23.901111111111113Q16.23847222222222 23.87288888888889 16.259638888888887 23.85172222222222Q16.280805555555556 23.830555555555556 16.30902777777778 23.830555555555556H17.639Q17.66722222222222 23.830555555555556 17.688388888888888 23.85172222222222Q17.709555555555557 23.87288888888889 17.709555555555557 23.901111111111113ZM19.674527777777776 26.229444444444447Q19.674527777777776 26.261194444444445 19.65336111111111 26.280597222222223Q19.632194444444444 26.3 19.60397222222222 26.3H18.309277777777776Q18.277527777777777 26.3 18.258125 26.278833333333335Q18.238722222222222 26.25766666666667 18.238722222222222 26.229444444444447V23.901111111111113Q18.238722222222222 23.87288888888889 18.259888888888888 23.85172222222222Q18.281055555555554 23.830555555555556 18.312805555555556 23.830555555555556Q18.344555555555555 23.830555555555556 18.365722222222225 23.85172222222222Q18.38688888888889 23.87288888888889 18.38688888888889 23.901111111111113V26.15888888888889H19.60397222222222Q19.632194444444444 26.15888888888889 19.65336111111111 26.180055555555555Q19.674527777777776 26.201222222222224 19.674527777777776 26.229444444444447ZM21.08211111111111 26.33527777777778Q20.739916666666666 26.33527777777778 20.471805555555555 26.17476388888889Q20.203694444444444 26.01425 20.053763888888888 25.72497222222222Q19.90383333333333 25.435694444444444 19.90383333333333 25.06527777777778Q19.90383333333333 24.694861111111113 20.053763888888888 24.405583333333333Q20.203694444444444 24.116305555555556 20.471805555555555 23.955791666666666Q20.739916666666666 23.795277777777777 21.08211111111111 23.795277777777777Q21.424305555555556 23.795277777777777 21.692416666666666 23.955791666666666Q21.960527777777777 24.116305555555556 22.110458333333334 24.405583333333333Q22.26038888888889 24.694861111111113 22.26038888888889 25.06527777777778Q22.26038888888889 25.435694444444444 22.110458333333334 25.72497222222222Q21.960527777777777 26.01425 21.692416666666666 26.17476388888889Q21.424305555555556 26.33527777777778 21.08211111111111 26.33527777777778ZM21.08211111111111 23.93638888888889Q20.78225 23.93638888888889 20.547652777777778 24.0775Q20.313055555555554 24.218611111111112 20.18252777777778 24.47613888888889Q20.052 24.733666666666668 20.052 25.06527777777778Q20.052 25.39688888888889 20.18252777777778 25.654416666666666Q20.313055555555554 25.911944444444444 20.547652777777778 26.053055555555556Q20.78225 26.194166666666668 21.08211111111111 26.194166666666668Q21.38197222222222 26.194166666666668 21.616569444444444 26.053055555555556Q21.851166666666668 25.911944444444444 21.981694444444443 25.654416666666666Q22.112222222222222 25.39688888888889 22.112222222222222 25.06527777777778Q22.112222222222222 24.733666666666668 21.981694444444443 24.47613888888889Q21.851166666666668 24.218611111111112 21.616569444444444 24.0775Q21.38197222222222 23.93638888888889 21.08211111111111 23.93638888888889ZM25.74936111111111 23.890527777777777 25.742305555555554 23.925805555555556 24.934444444444445 26.25413888888889Q24.92738888888889 26.275305555555555 24.90798611111111 26.28765277777778Q24.888583333333333 26.3 24.870944444444444 26.3Q24.8145 26.3 24.80038888888889 26.25766666666667L24.154805555555555 24.627833333333335L23.50922222222222 26.25766666666667Q23.491583333333335 26.3 23.43513888888889 26.3Q23.41397222222222 26.3 23.39633333333333 26.28765277777778Q23.378694444444445 26.275305555555555 23.375166666666665 26.25413888888889L22.567305555555556 23.925805555555556L22.56025 23.894055555555557Q22.56025 23.862305555555558 22.584944444444446 23.84290277777778Q22.609638888888888 23.8235 22.63786111111111 23.8235Q22.659027777777776 23.8235 22.678430555555554 23.83584722222222Q22.69783333333333 23.848194444444445 22.70488888888889 23.86936111111111L23.452777777777776 26.028361111111114L24.087777777777777 24.423222222222222Q24.105416666666667 24.377361111111114 24.154805555555555 24.377361111111114Q24.17597222222222 24.377361111111114 24.195375 24.389708333333335Q24.214777777777776 24.402055555555556 24.221833333333333 24.423222222222222L24.86036111111111 26.03188888888889L25.60472222222222 23.86936111111111Q25.62236111111111 23.8235 25.675277777777776 23.8235Q25.70702777777778 23.8235 25.728194444444444 23.84113888888889Q25.74936111111111 23.858777777777778 25.74936111111111 23.890527777777777Z"/>
<path id="width_label" d="M17.712583333333335 44.89052777777778 17.705527777777778 44.925805555555556 16.897666666666666 47.25413888888889Q16.890611111111113 47.275305555555555 16.871208333333335 47.28765277777778Q16.851805555555558 47.3 16.83416666666667 47.3Q16.777722222222224 47.3 16.76361111111111 47.257666666666665L16.11802777777778 45.62783333333333L15.472444444444445 47.257666666666665Q15.454805555555556 47.3 15.398361111111111 47.3Q15.377194444444445 47.3 15.359555555555556 47.28765277777778Q15.341916666666666 47.275305555555555 15.33838888888889 47.25413888888889L14.530527777777777 44.925805555555556L14.523472222222223 44.89405555555555Q14.523472222222223 44.86230555555555 14.548166666666667 44.84290277777777Q14.572861111111111 44.823499999999996 14.601083333333333 44.823499999999996Q14.622250000000001 44.823499999999996 14.641652777777779 44.83584722222222Q14.661055555555556 44.848194444444445 14.668111111111111 44.86936111111111L15.416 47.02836111111111L16.051000000000002 45.42322222222222Q16.068638888888888 45.37736111111111 16.11802777777778 45.37736111111111Q16.139194444444446 45.37736111111111 16.158597222222223 45.38970833333333Q16.178 45.402055555555556 16.185055555555557 45.42322222222222L16.823583333333332 47.031888888888886L17.567944444444443 44.86936111111111Q17.585583333333332 44.823499999999996 17.6385 44.823499999999996Q17.67025 44.823499999999996 17.69141666666667 44.841138888888885Q17.712583333333335 44.858777777777775 17.712583333333335 44.89052777777778ZM18.26291666666667 47.3Q18.22763888888889 47.3 18.208236111111113 47.27883333333333Q18.188833333333335 47.257666666666665 18.188833333333335 47.22591666666666V44.90463888888888Q18.188833333333335 44.87288888888889 18.21 44.85172222222222Q18.231166666666667 44.830555555555556 18.26291666666667 44.830555555555556Q18.294666666666668 44.830555555555556 18.315833333333337 44.85172222222222Q18.337000000000003 44.87288888888889 18.337000000000003 44.90463888888888V47.22591666666666Q18.333472222222223 47.257666666666665 18.312305555555557 47.27883333333333Q18.29113888888889 47.3 18.26291666666667 47.3ZM21.05338888888889 46.06527777777777Q21.05338888888889 46.41452777777778 20.94226388888889 46.69322222222222Q20.831138888888887 46.971916666666665 20.60183333333333 47.135958333333335Q20.372527777777776 47.3 20.03033333333333 47.3H19.11311111111111Q19.084888888888887 47.3 19.06372222222222 47.27883333333333Q19.042555555555555 47.257666666666665 19.042555555555555 47.22944444444444V44.901111111111106Q19.042555555555555 44.87288888888889 19.06372222222222 44.85172222222222Q19.084888888888887 44.830555555555556 19.11311111111111 44.830555555555556H20.03033333333333Q20.369 44.830555555555556 20.600069444444443 44.99988888888889Q20.831138888888887 45.16922222222222 20.94226388888889 45.44968055555555Q21.05338888888889 45.73013888888889 21.05338888888889 46.06527777777777ZM20.90522222222222 46.06527777777777Q20.90522222222222 45.76541666666667 20.808208333333333 45.516708333333334Q20.711194444444445 45.268 20.50834722222222 45.11983333333333Q20.3055 44.971666666666664 19.995055555555556 44.971666666666664H19.19072222222222V47.15888888888889H19.995055555555556Q20.453666666666667 47.15888888888889 20.679444444444442 46.85726388888889Q20.90522222222222 46.555638888888886 20.90522222222222 46.06527777777777ZM23.20886111111111 44.89758333333333Q23.20886111111111 44.92933333333333 23.18945833333333 44.94697222222222Q23.170055555555553 44.96461111111111 23.138305555555554 44.96461111111111H22.35161111111111V47.22944444444444Q22.35161111111111 47.257666666666665 22.330444444444446 47.27883333333333Q22.309277777777776 47.3 22.281055555555554 47.3Q22.249305555555555 47.3 22.229902777777777 47.27883333333333Q22.2105 47.257666666666665 22.2105 47.22944444444444V44.96461111111111H21.423805555555553Q21.39558333333333 44.96461111111111 21.374416666666665 44.94520833333333Q21.35325 44.925805555555556 21.35325 44.89758333333333Q21.35325 44.86936111111111 21.374416666666665 44.84995833333333Q21.39558333333333 44.830555555555556 21.423805555555553 44.830555555555556H23.138305555555554Q23.166527777777777 44.830555555555556 23.187694444444443 44.84995833333333Q23.20886111111111 44.86936111111111 23.20886111111111 44.89758333333333ZM25.519555555555552 44.90463888888888V47.22591666666666Q25.516027777777776 47.257666666666665 25.494861111111106 47.27883333333333Q25.47369444444444 47.3 25.44547222222222 47.3Q25.410194444444443 47.3 25.390791666666665 47.27883333333333Q25.371388888888887 47.257666666666665 25.371388888888887 47.22591666666666V46.10055555555555H23.833277777777774V47.22591666666666Q23.829749999999997 47.257666666666665 23.80858333333333 47.27883333333333Q23.787416666666665 47.3 23.759194444444443 47.3Q23.723916666666664 47.3 23.704513888888886 47.27883333333333Q23.68511111111111 47.257666666666665 23.68511111111111 47.22591666666666V44.90463888888888Q23.68511111111111 44.87288888888889 23.706277777777775 44.85172222222222Q23.72744444444444 44.830555555555556 23.759194444444443 44.830555555555556Q23.790944444444442 44.830555555555556 23.812111111111108 44.85172222222222Q23.833277777777774 44.87288888888889 23.833277777777774 44.90463888888888V45.95944444444444H25.371388888888887V44.90463888888888Q25.371388888888887 44.87288888888889 25.392555555555553 44.85172222222222Q25.41372222222222 44.830555555555556 25.44547222222222 44.830555555555556Q25.47722222222222 44.830555555555556 25.498388888888886 44.85172222222222Q25.519555555555552 44.87288888888889 25.519555555555552 44.90463888888888Z"/>
<path id="decay_label" d="M16.863611111111112 67.06527777777778Q16.863611111111112 67.41452777777778 16.75248611111111 67.69322222222222Q16.64136111111111 67.97191666666666 16.412055555555554 68.13595833333332Q16.18275 68.3 15.840555555555556 68.3H14.923333333333334Q14.895111111111111 68.3 14.873944444444444 68.27883333333332Q14.852777777777778 68.25766666666667 14.852777777777778 68.22944444444444V65.9011111111111Q14.852777777777778 65.87288888888888 14.873944444444444 65.85172222222221Q14.895111111111111 65.83055555555555 14.923333333333334 65.83055555555555H15.840555555555556Q16.179222222222222 65.83055555555555 16.410291666666666 65.99988888888888Q16.64136111111111 66.16922222222222 16.75248611111111 66.44968055555555Q16.863611111111112 66.73013888888889 16.863611111111112 67.06527777777778ZM16.715444444444444 67.06527777777778Q16.715444444444444 66.76541666666667 16.618430555555555 66.51670833333333Q16.521416666666667 66.268 16.318569444444442 66.11983333333333Q16.11572222222222 65.97166666666666 15.805277777777778 65.97166666666666H15.000944444444444V68.15888888888888H15.805277777777778Q16.26388888888889 68.15888888888888 16.489666666666665 67.85726388888888Q16.715444444444444 67.55563888888888 16.715444444444444 67.06527777777778ZM18.86386111111111 68.22944444444444Q18.86386111111111 68.26119444444444 18.842694444444444 68.28059722222221Q18.821527777777778 68.3 18.793305555555555 68.3H17.46333333333333Q17.43511111111111 68.3 17.413944444444443 68.27883333333332Q17.392777777777777 68.25766666666667 17.392777777777777 68.22944444444444V65.9011111111111Q17.392777777777777 65.87288888888888 17.413944444444443 65.85172222222221Q17.43511111111111 65.83055555555555 17.46333333333333 65.83055555555555H18.793305555555555Q18.821527777777778 65.83055555555555 18.842694444444444 65.85172222222221Q18.86386111111111 65.87288888888888 18.86386111111111 65.9011111111111Q18.86386111111111 65.93286111111111 18.842694444444444 65.9522638888889Q18.821527777777778 65.97166666666666 18.793305555555555 65.97166666666666H17.540944444444442V66.95591666666667H18.634555555555554Q18.662777777777777 66.95591666666667 18.683944444444442 66.97708333333333Q18.70511111111111 66.99825 18.70511111111111 67.02647222222222Q18.70511111111111 67.05822222222221 18.683944444444442 67.07762499999998Q18.662777777777777 67.09702777777777 18.634555555555554 67.09702777777777H17.540944444444442V68.15888888888888H18.793305555555555Q18.821527777777778 68.15888888888888 18.842694444444444 68.18005555555555Q18.86386111111111 68.20122222222221 18.86386111111111 68.22944444444444ZM21.252166666666668 66.0916111111111Q21.252166666666668 66.11983333333333 21.238055555555555 66.13747222222221Q21.21688888888889 66.16569444444444 21.18513888888889 66.16569444444444Q21.171027777777777 66.16569444444444 21.142805555555555 66.15158333333333Q20.814722222222223 65.92933333333333 20.447833333333335 65.92933333333333Q20.1515 65.92933333333333 19.902791666666666 66.07573611111111Q19.654083333333332 66.22213888888889 19.509444444444444 66.48143055555556Q19.364805555555556 66.74072222222222 19.364805555555556 67.06527777777778Q19.364805555555556 67.38983333333333 19.509444444444444 67.649125Q19.654083333333332 67.90841666666667 19.902791666666666 68.05481944444443Q20.1515 68.20122222222221 20.447833333333335 68.20122222222221Q20.81825 68.20122222222221 21.139277777777778 67.9825Q21.156916666666667 67.96838888888888 21.18161111111111 67.96838888888888Q21.21688888888889 67.96838888888888 21.238055555555555 67.99661111111111Q21.252166666666668 68.01425 21.252166666666668 68.03894444444444Q21.252166666666668 68.07422222222222 21.223944444444445 68.09538888888889Q21.08636111111111 68.19416666666666 20.86940277777778 68.26472222222222Q20.652444444444445 68.33527777777778 20.447833333333335 68.33527777777778Q20.112694444444443 68.33527777777778 19.83047222222222 68.16947222222223Q19.54825 68.00366666666666 19.382444444444445 67.712625Q19.216638888888887 67.42158333333333 19.216638888888887 67.06527777777778Q19.216638888888887 66.70897222222222 19.382444444444445 66.41793055555556Q19.54825 66.12688888888889 19.83047222222222 65.96108333333333Q20.112694444444443 65.79527777777777 20.447833333333335 65.79527777777777Q20.6595 65.79527777777777 20.858819444444446 65.85877777777777Q21.05813888888889 65.92227777777778 21.220416666666665 66.03516666666667Q21.252166666666668 66.0598611111111 21.252166666666668 66.0916111111111ZM23.541694444444445 68.23297222222222Q23.541694444444445 68.26472222222222 23.52052777777778 68.2823611111111Q23.499361111111114 68.3 23.46761111111111 68.3Q23.44291666666667 68.3 23.42351388888889 68.28765277777777Q23.404111111111114 68.27530555555555 23.397055555555557 68.25413888888889L23.100722222222224 67.52741666666667L23.10425 67.53447222222222H21.922444444444444L21.636694444444444 68.25413888888889Q21.61905555555556 68.3 21.573194444444447 68.3Q21.541444444444444 68.3 21.522041666666667 68.2823611111111Q21.50263888888889 68.26472222222222 21.499111111111112 68.24002777777777Q21.495583333333336 68.22591666666666 21.50263888888889 68.20475L22.451611111111113 65.8693611111111Q22.462194444444446 65.84113888888889 22.478069444444444 65.83231944444444Q22.493944444444445 65.8235 22.51863888888889 65.8235Q22.571555555555555 65.8235 22.589194444444445 65.8693611111111L23.53816666666667 68.20475Q23.541694444444445 68.21533333333333 23.541694444444445 68.23297222222222ZM21.97888888888889 67.3933611111111H23.047805555555556L22.508055555555558 66.06338888888888ZM25.510194444444444 65.92933333333333 24.705861111111112 67.02294444444445V68.22944444444444Q24.705861111111112 68.25766666666667 24.684694444444446 68.27883333333332Q24.66352777777778 68.3 24.631777777777778 68.3Q24.60002777777778 68.3 24.578861111111113 68.27883333333332Q24.557694444444447 68.25766666666667 24.557694444444447 68.22944444444444V67.03705555555555L23.749833333333335 65.92933333333333Q23.735722222222222 65.91169444444444 23.735722222222222 65.88347222222222Q23.735722222222222 65.85877777777777 23.758652777777776 65.8376111111111Q23.781583333333334 65.81644444444444 23.809805555555556 65.81644444444444Q23.84861111111111 65.81644444444444 23.869777777777777 65.84819444444445L24.631777777777778 66.88888888888889L25.39377777777778 65.84819444444445Q25.414944444444444 65.81644444444444 25.45375 65.81644444444444Q25.485500000000002 65.81644444444444 25.50490277777778 65.83937499999999Q25.524305555555557 65.86230555555555 25.524305555555557 65.88347222222222Q25.524305555555557 65.9011111111111 25.510194444444444 65.92933333333333Z"/>
<path id="root_label" d="M17.748416666666667 89.22591666666666Q17.748416666666667 89.25766666666667 17.72901388888889 89.27706944444444Q17.709611111111112 89.29647222222222 17.68138888888889 89.29647222222222Q17.660222222222224 89.29647222222222 17.64963888888889 89.28941666666667Q17.55438888888889 89.23649999999999 17.497944444444446 89.11126388888889Q17.4415 88.98602777777778 17.4415 88.70027777777777Q17.4415 88.411 17.286277777777777 88.30340277777778Q17.131055555555555 88.19580555555555 16.926444444444446 88.19580555555555H16.100944444444444V89.22944444444444Q16.100944444444444 89.25766666666667 16.079777777777778 89.27883333333332Q16.058611111111112 89.3 16.026861111111113 89.3Q15.995111111111113 89.3 15.973944444444445 89.27883333333332Q15.95277777777778 89.25766666666667 15.95277777777778 89.22944444444444V86.9011111111111Q15.95277777777778 86.87288888888888 15.973944444444445 86.85172222222221Q15.995111111111113 86.83055555555555 16.023333333333333 86.83055555555555H16.954666666666668Q17.159277777777778 86.83055555555555 17.31802777777778 86.91345833333332Q17.47677777777778 86.99636111111111 17.564972222222224 87.14099999999999Q17.653166666666667 87.28563888888888 17.653166666666667 87.46908333333333Q17.653166666666667 87.70544444444444 17.527930555555557 87.87477777777778Q17.402694444444446 88.0441111111111 17.201611111111113 88.10408333333334Q17.370944444444447 88.157 17.48030555555556 88.3139861111111Q17.58966666666667 88.47097222222222 17.58966666666667 88.70027777777777Q17.58966666666667 88.93663888888888 17.61965277777778 89.030125Q17.64963888888889 89.1236111111111 17.709611111111112 89.16241666666666Q17.748416666666667 89.18711111111111 17.748416666666667 89.22591666666666ZM16.972305555555558 88.05469444444444Q17.194555555555556 88.03352777777778 17.34977777777778 87.87830555555556Q17.505000000000003 87.72308333333334 17.505000000000003 87.4726111111111Q17.505000000000003 87.25388888888888 17.34977777777778 87.11277777777778Q17.194555555555556 86.97166666666666 16.93702777777778 86.97166666666666H16.100944444444444V88.05469444444444ZM19.297111111111114 89.33527777777778Q18.95491666666667 89.33527777777778 18.68680555555556 89.17476388888889Q18.418694444444448 89.01425 18.26876388888889 88.72497222222222Q18.118833333333335 88.43569444444444 18.118833333333335 88.06527777777778Q18.118833333333335 87.69486111111111 18.26876388888889 87.40558333333334Q18.418694444444448 87.11630555555556 18.68680555555556 86.95579166666667Q18.95491666666667 86.79527777777777 19.297111111111114 86.79527777777777Q19.63930555555556 86.79527777777777 19.90741666666667 86.95579166666667Q20.17552777777778 87.11630555555556 20.325458333333337 87.40558333333334Q20.475388888888894 87.69486111111111 20.475388888888894 88.06527777777778Q20.475388888888894 88.43569444444444 20.325458333333337 88.72497222222222Q20.17552777777778 89.01425 19.90741666666667 89.17476388888889Q19.63930555555556 89.33527777777778 19.297111111111114 89.33527777777778ZM19.297111111111114 86.93638888888889Q18.997250000000005 86.93638888888889 18.76265277777778 87.07749999999999Q18.528055555555557 87.2186111111111 18.397527777777782 87.47613888888888Q18.267000000000003 87.73366666666666 18.267000000000003 88.06527777777778Q18.267000000000003 88.39688888888888 18.397527777777782 88.65441666666666Q18.528055555555557 88.91194444444444 18.76265277777778 89.05305555555555Q18.997250000000005 89.19416666666666 19.297111111111114 89.19416666666666Q19.596972222222224 89.19416666666666 19.831569444444447 89.05305555555555Q20.06616666666667 88.91194444444444 20.196694444444447 88.65441666666666Q20.327222222222225 88.39688888888888 20.327222222222225 88.06527777777778Q20.327222222222225 87.73366666666666 20.196694444444447 87.47613888888888Q20.06616666666667 87.2186111111111 19.831569444444447 87.07749999999999Q19.596972222222224 86.93638888888889 19.297111111111114 86.93638888888889ZM22.006444444444448 89.33527777777778Q21.664250000000003 89.33527777777778 21.396138888888892 89.17476388888889Q21.12802777777778 89.01425 20.978097222222225 88.72497222222222Q20.828166666666668 88.43569444444444 20.828166666666668 88.06527777777778Q20.828166666666668 87.69486111111111 20.978097222222225 87.40558333333334Q21.12802777777778 87.11630555555556 21.396138888888892 86.95579166666667Q21.664250000000003 86.79527777777777 22.006444444444448 86.79527777777777Q22.348638888888892 86.79527777777777 22.616750000000003 86.95579166666667Q22.884861111111114 87.11630555555556 23.03479166666667 87.40558333333334Q23.184722222222227 87.69486111111111 23.184722222222227 88.06527777777778Q23.184722222222227 88.43569444444444 23.03479166666667 88.72497222222222Q22.884861111111114 89.01425 22.616750000000003 89.17476388888889Q22.348638888888892 89.33527777777778 22.006444444444448 89.33527777777778ZM22.006444444444448 86.93638888888889Q21.706583333333338 86.93638888888889 21.471986111111114 87.07749999999999Q21.23738888888889 87.2186111111111 21.106861111111115 87.47613888888888Q20.976333333333336 87.73366666666666 20.976333333333336 88.06527777777778Q20.976333333333336 88.39688888888888 21.106861111111115 88.65441666666666Q21.23738888888889 88.91194444444444 21.471986111111114 89.05305555555555Q21.706583333333338 89.19416666666666 22.006444444444448 89.19416666666666Q22.306305555555557 89.19416666666666 22.54090277777778 89.05305555555555Q22.775500000000005 88.91194444444444 22.90602777777778 88.65441666666666Q23.03655555555556 88.39688888888888 23.03655555555556 88.06527777777778Q23.03655555555556 87.73366666666666 22.90602777777778 87.47613888888888Q22.775500000000005 87.2186111111111 22.54090277777778 87.07749999999999Q22.306305555555557 86.93638888888889 22.006444444444448 86.93638888888889ZM25.340194444444446 86.89758333333333Q25.340194444444446 86.92933333333333 25.32079166666667 86.94697222222223Q25.30138888888889 86.96461111111111 25.269638888888892 86.96461111111111H24.48294444444445V89.22944444444444Q24.48294444444445 89.25766666666667 24.461777777777783 89.27883333333332Q24.440611111111114 89.3 24.41238888888889 89.3Q24.380638888888893 89.3 24.361236111111115 89.27883333333332Q24.341833333333337 89.25766666666667 24.341833333333337 89.22944444444444V86.96461111111111H23.55513888888889Q23.52691666666667 86.96461111111111 23.505750000000003 86.94520833333334Q23.484583333333337 86.92580555555556 23.484583333333337 86.89758333333333Q23.484583333333337 86.8693611111111 23.505750000000003 86.84995833333332Q23.52691666666667 86.83055555555555 23.55513888888889 86.83055555555555H25.269638888888892Q25.297861111111114 86.83055555555555 25.31902777777778 86.84995833333332Q25.340194444444446 86.8693611111111 25.340194444444446 86.89758333333333Z"/>
<path id="vortex_label" d="M37.60486111111111 13.394055555555557Q37.60486111111111 13.408166666666666 37.59780555555555 13.429333333333334L36.631194444444446 15.754138888888889Q36.61002777777777 15.8 36.564166666666665 15.8Q36.543 15.8 36.52359722222222 15.78765277777778Q36.504194444444444 15.775305555555557 36.497138888888884 15.754138888888889L35.53758333333333 13.439916666666667Q35.527 13.418750000000001 35.527 13.397583333333333Q35.527 13.369361111111111 35.54640277777778 13.349958333333333Q35.565805555555556 13.330555555555556 35.594027777777775 13.330555555555556Q35.64694444444444 13.330555555555556 35.671638888888886 13.387L36.56769444444444 15.542472222222223L37.467277777777774 13.376416666666668Q37.49197222222222 13.330555555555556 37.534305555555555 13.330555555555556Q37.56605555555555 13.330555555555556 37.585458333333335 13.348194444444445Q37.60486111111111 13.365833333333335 37.60486111111111 13.394055555555557ZM39.083 15.835277777777778Q38.74080555555555 15.835277777777778 38.47269444444444 15.67476388888889Q38.20458333333333 15.51425 38.054652777777775 15.224972222222224Q37.90472222222222 14.935694444444445 37.90472222222222 14.565277777777778Q37.90472222222222 14.194861111111113 38.054652777777775 13.905583333333334Q38.20458333333333 13.616305555555556 38.47269444444444 13.455791666666666Q38.74080555555555 13.295277777777779 39.083 13.295277777777779Q39.42519444444444 13.295277777777779 39.693305555555554 13.455791666666666Q39.961416666666665 13.616305555555556 40.11134722222222 13.905583333333334Q40.26127777777778 14.194861111111113 40.26127777777778 14.565277777777778Q40.26127777777778 14.935694444444445 40.11134722222222 15.224972222222224Q39.961416666666665 15.51425 39.693305555555554 15.67476388888889Q39.42519444444444 15.835277777777778 39.083 15.835277777777778ZM39.083 13.436388888888889Q38.783138888888885 13.436388888888889 38.548541666666665 13.5775Q38.313944444444445 13.718611111111112 38.183416666666666 13.97613888888889Q38.05288888888889 14.233666666666668 38.05288888888889 14.565277777777778Q38.05288888888889 14.89688888888889 38.183416666666666 15.154416666666668Q38.313944444444445 15.411944444444446 38.548541666666665 15.553055555555556Q38.783138888888885 15.694166666666668 39.083 15.694166666666668Q39.38286111111111 15.694166666666668 39.61745833333333 15.553055555555556Q39.85205555555555 15.411944444444446 39.98258333333333 15.154416666666668Q40.11311111111111 14.89688888888889 40.11311111111111 14.565277777777778Q40.11311111111111 14.233666666666668 39.98258333333333 13.97613888888889Q39.85205555555555 13.718611111111112 39.61745833333333 13.5775Q39.38286111111111 13.436388888888889 39.083 13.436388888888889ZM42.586083333333335 15.725916666666667Q42.586083333333335 15.757666666666667 42.56668055555556 15.777069444444445Q42.54727777777778 15.796472222222222 42.51905555555555 15.796472222222222Q42.49788888888889 15.796472222222222 42.48730555555555 15.789416666666668Q42.39205555555555 15.736500000000001 42.335611111111106 15.611263888888889Q42.27916666666667 15.486027777777778 42.27916666666667 15.200277777777778Q42.27916666666667 14.911000000000001 42.12394444444445 14.803402777777778Q41.96872222222222 14.695805555555555 41.764111111111106 14.695805555555555H40.93861111111111V15.729444444444445Q40.93861111111111 15.757666666666667 40.91744444444444 15.778833333333335Q40.896277777777776 15.8 40.864527777777774 15.8Q40.83277777777778 15.8 40.811611111111105 15.778833333333335Q40.79044444444444 15.757666666666667 40.79044444444444 15.729444444444445V13.401111111111112Q40.79044444444444 13.37288888888889 40.811611111111105 13.351722222222222Q40.83277777777778 13.330555555555556 40.861 13.330555555555556H41.79233333333333Q41.996944444444445 13.330555555555556 42.15569444444444 13.413458333333335Q42.31444444444444 13.496361111111112 42.40263888888889 13.641000000000002Q42.490833333333335 13.78563888888889 42.490833333333335 13.969083333333334Q42.490833333333335 14.205444444444446 42.36559722222222 14.37477777777778Q42.240361111111106 14.544111111111112 42.03927777777778 14.604083333333334Q42.20861111111111 14.657 42.317972222222224 14.813986111111111Q42.42733333333333 14.970972222222223 42.42733333333333 15.200277777777778Q42.42733333333333 15.43663888888889 42.45731944444444 15.530125000000002Q42.48730555555555 15.623611111111112 42.54727777777778 15.662416666666667Q42.586083333333335 15.687111111111111 42.586083333333335 15.725916666666667ZM41.80997222222222 14.554694444444445Q42.032222222222224 14.533527777777778 42.187444444444445 14.378305555555556Q42.342666666666666 14.223083333333335 42.342666666666666 13.972611111111112Q42.342666666666666 13.75388888888889 42.187444444444445 13.61277777777778Q42.032222222222224 13.471666666666668 41.77469444444444 13.471666666666668H40.93861111111111V14.554694444444445ZM44.75919444444445 13.397583333333333Q44.75919444444445 13.429333333333334 44.73979166666667 13.446972222222222Q44.72038888888889 13.464611111111111 44.68863888888889 13.464611111111111H43.901944444444446V15.729444444444445Q43.901944444444446 15.757666666666667 43.88077777777778 15.778833333333335Q43.859611111111114 15.8 43.83138888888889 15.8Q43.799638888888886 15.8 43.78023611111111 15.778833333333335Q43.76083333333333 15.757666666666667 43.76083333333333 15.729444444444445V13.464611111111111H42.97413888888889Q42.94591666666667 13.464611111111111 42.92475 13.445208333333333Q42.90358333333333 13.425805555555556 42.90358333333333 13.397583333333333Q42.90358333333333 13.369361111111111 42.92475 13.349958333333333Q42.94591666666667 13.330555555555556 42.97413888888889 13.330555555555556H44.68863888888889Q44.716861111111115 13.330555555555556 44.73802777777778 13.349958333333333Q44.75919444444445 13.369361111111111 44.75919444444445 13.397583333333333ZM46.70652777777778 15.729444444444445Q46.70652777777778 15.761194444444445 46.685361111111106 15.780597222222223Q46.66419444444444 15.8 46.63597222222222 15.8H45.306Q45.27777777777778 15.8 45.25661111111111 15.778833333333335Q45.23544444444444 15.757666666666667 45.23544444444444 15.729444444444445V13.401111111111112Q45.23544444444444 13.37288888888889 45.25661111111111 13.351722222222222Q45.27777777777778 13.330555555555556 45.306 13.330555555555556H46.63597222222222Q46.66419444444444 13.330555555555556 46.685361111111106 13.351722222222222Q46.70652777777778 13.37288888888889 46.70652777777778 13.401111111111112Q46.70652777777778 13.432861111111112 46.685361111111106 13.45226388888889Q46.66419444444444 13.471666666666668 46.63597222222222 13.471666666666668H45.38361111111111V14.455916666666667H46.477222222222224Q46.50544444444444 14.455916666666667 46.52661111111111 14.477083333333333Q46.547777777777775 14.49825 46.547777777777775 14.526472222222223Q46.547777777777775 14.558222222222224 46.52661111111111 14.577625000000001Q46.50544444444444 14.597027777777779 46.477222222222224 14.597027777777779H45.38361111111111V15.658888888888889H46.63597222222222Q46.66419444444444 15.658888888888889 46.685361111111106 15.680055555555555Q46.70652777777778 15.701222222222222 46.70652777777778 15.729444444444445ZM48.83730555555555 15.697694444444446Q48.85494444444444 15.72238888888889 48.85494444444444 15.740027777777778Q48.85494444444444 15.771777777777778 48.833777777777776 15.791180555555556Q48.81261111111111 15.810583333333334 48.78086111111111 15.810583333333334Q48.74205555555555 15.810583333333334 48.72441666666667 15.782361111111111L47.916555555555554 14.681694444444446L47.11222222222222 15.782361111111111Q47.09458333333333 15.810583333333334 47.059305555555554 15.810583333333334Q47.02755555555556 15.810583333333334 47.00991666666667 15.791180555555556Q46.99227777777778 15.771777777777778 46.99227777777778 15.750611111111112Q46.99227777777778 15.732972222222223 47.00991666666667 15.70475L47.838944444444444 14.572333333333335L47.00286111111111 13.432861111111112Q46.98875 13.415222222222223 46.98875 13.390527777777779Q46.98875 13.358777777777778 47.00991666666667 13.339375Q47.031083333333335 13.319972222222223 47.059305555555554 13.319972222222223Q47.101638888888886 13.319972222222223 47.119277777777775 13.348194444444445L47.92713888888889 14.45238888888889L48.73147222222222 13.344666666666667Q48.75263888888889 13.316444444444446 48.78438888888889 13.316444444444446Q48.81613888888889 13.316444444444446 48.835541666666664 13.332319444444446Q48.85494444444444 13.348194444444445 48.85494444444444 13.37288888888889Q48.85494444444444 13.397583333333333 48.83730555555555 13.42227777777778L48.00827777777778 14.565277777777778Z"/>
<path id="center_label" d="M37.611916666666666 34.591611111111106Q37.611916666666666 34.61983333333333 37.59780555555555 34.63747222222222Q37.57663888888889 34.66569444444444 37.544888888888885 34.66569444444444Q37.53077777777778 34.66569444444444 37.50255555555555 34.65158333333333Q37.17447222222222 34.42933333333333 36.80758333333333 34.42933333333333Q36.51125 34.42933333333333 36.262541666666664 34.57573611111111Q36.01383333333333 34.722138888888885 35.869194444444446 34.98143055555555Q35.724555555555554 35.24072222222222 35.724555555555554 35.56527777777777Q35.724555555555554 35.88983333333333 35.869194444444446 36.149125Q36.01383333333333 36.40841666666666 36.262541666666664 36.55481944444444Q36.51125 36.70122222222222 36.80758333333333 36.70122222222222Q37.178 36.70122222222222 37.499027777777776 36.482499999999995Q37.516666666666666 36.46838888888889 37.54136111111111 36.46838888888889Q37.57663888888889 36.46838888888889 37.59780555555555 36.49661111111111Q37.611916666666666 36.51425 37.611916666666666 36.53894444444444Q37.611916666666666 36.57422222222222 37.58369444444444 36.595388888888884Q37.44611111111111 36.69416666666666 37.22915277777778 36.76472222222222Q37.01219444444445 36.835277777777776 36.80758333333333 36.835277777777776Q36.47244444444444 36.835277777777776 36.19022222222222 36.66947222222222Q35.908 36.50366666666666 35.74219444444444 36.212624999999996Q35.576388888888886 35.92158333333333 35.576388888888886 35.56527777777777Q35.576388888888886 35.20897222222222 35.74219444444444 34.91793055555556Q35.908 34.626888888888885 36.19022222222222 34.461083333333335Q36.47244444444444 34.29527777777778 36.80758333333333 34.29527777777778Q37.01925 34.29527777777778 37.21856944444444 34.358777777777775Q37.41788888888889 34.42227777777777 37.58016666666666 34.53516666666666Q37.611916666666666 34.55986111111111 37.611916666666666 34.591611111111106ZM39.55925 36.72944444444444Q39.55925 36.76119444444444 39.53808333333333 36.78059722222222Q39.51691666666666 36.8 39.48869444444444 36.8H38.15872222222222Q38.1305 36.8 38.109333333333325 36.77883333333333Q38.08816666666666 36.757666666666665 38.08816666666666 36.72944444444444V34.401111111111106Q38.08816666666666 34.37288888888889 38.109333333333325 34.35172222222222Q38.1305 34.330555555555556 38.15872222222222 34.330555555555556H39.48869444444444Q39.51691666666666 34.330555555555556 39.53808333333333 34.35172222222222Q39.55925 34.37288888888889 39.55925 34.401111111111106Q39.55925 34.43286111111111 39.53808333333333 34.452263888888886Q39.51691666666666 34.471666666666664 39.48869444444444 34.471666666666664H38.23633333333333V35.45591666666667H39.32994444444444Q39.35816666666666 35.45591666666667 39.37933333333333 35.47708333333333Q39.400499999999994 35.49825 39.400499999999994 35.52647222222222Q39.400499999999994 35.55822222222222 39.37933333333333 35.577625Q39.35816666666666 35.597027777777775 39.32994444444444 35.597027777777775H38.23633333333333V36.65888888888889H39.48869444444444Q39.51691666666666 36.65888888888889 39.53808333333333 36.680055555555555Q39.55925 36.70122222222222 39.55925 36.72944444444444ZM41.9405 34.39758333333333V36.72238888888889Q41.9405 36.76119444444444 41.91933333333333 36.78059722222222Q41.89816666666666 36.8 41.866416666666666 36.8Q41.83113888888889 36.8 41.80997222222222 36.77177777777778L40.22247222222222 34.60219444444444V36.740027777777776Q40.22247222222222 36.76472222222222 40.20306944444444 36.78236111111111Q40.18366666666666 36.8 40.15544444444444 36.8Q40.12369444444444 36.8 40.10605555555555 36.78236111111111Q40.08841666666666 36.76472222222222 40.08841666666666 36.740027777777776V34.401111111111106Q40.08841666666666 34.36583333333333 40.107819444444445 34.348194444444445Q40.12722222222222 34.330555555555556 40.151916666666665 34.330555555555556Q40.18366666666666 34.330555555555556 40.20483333333333 34.35525L41.80644444444444 36.53894444444444V34.39758333333333Q41.80644444444444 34.36936111111111 41.82584722222222 34.34995833333333Q41.84525 34.330555555555556 41.87347222222222 34.330555555555556Q41.90522222222222 34.330555555555556 41.92286111111111 34.34995833333333Q41.9405 34.36936111111111 41.9405 34.39758333333333ZM44.27236111111111 34.39758333333333Q44.27236111111111 34.42933333333333 44.25295833333333 34.44697222222222Q44.233555555555554 34.46461111111111 44.20180555555555 34.46461111111111H43.41511111111111V36.72944444444444Q43.41511111111111 36.757666666666665 43.39394444444444 36.77883333333333Q43.37277777777778 36.8 43.34455555555555 36.8Q43.31280555555555 36.8 43.29340277777777 36.77883333333333Q43.273999999999994 36.757666666666665 43.273999999999994 36.72944444444444V34.46461111111111H42.48730555555555Q42.45908333333333 34.46461111111111 42.437916666666666 34.44520833333333Q42.41674999999999 34.425805555555556 42.41674999999999 34.39758333333333Q42.41674999999999 34.36936111111111 42.437916666666666 34.34995833333333Q42.45908333333333 34.330555555555556 42.48730555555555 34.330555555555556H44.20180555555555Q44.23002777777778 34.330555555555556 44.251194444444444 34.34995833333333Q44.27236111111111 34.36936111111111 44.27236111111111 34.39758333333333ZM46.21969444444444 36.72944444444444Q46.21969444444444 36.76119444444444 46.19852777777777 36.78059722222222Q46.177361111111104 36.8 46.149138888888885 36.8H44.81916666666666Q44.79094444444444 36.8 44.769777777777776 36.77883333333333Q44.7486111111111 36.757666666666665 44.7486111111111 36.72944444444444V34.401111111111106Q44.7486111111111 34.37288888888889 44.769777777777776 34.35172222222222Q44.79094444444444 34.330555555555556 44.81916666666666 34.330555555555556H46.149138888888885Q46.177361111111104 34.330555555555556 46.19852777777777 34.35172222222222Q46.21969444444444 34.37288888888889 46.21969444444444 34.401111111111106Q46.21969444444444 34.43286111111111 46.19852777777777 34.452263888888886Q46.177361111111104 34.471666666666664 46.149138888888885 34.471666666666664H44.89677777777777V35.45591666666667H45.99038888888889Q46.018611111111106 35.45591666666667 46.03977777777777 35.47708333333333Q46.06094444444444 35.49825 46.06094444444444 35.52647222222222Q46.06094444444444 35.55822222222222 46.03977777777777 35.577625Q46.018611111111106 35.597027777777775 45.99038888888889 35.597027777777775H44.89677777777777V36.65888888888889H46.149138888888885Q46.177361111111104 36.65888888888889 46.19852777777777 36.680055555555555Q46.21969444444444 36.70122222222222 46.21969444444444 36.72944444444444ZM48.5445 36.72591666666666Q48.5445 36.757666666666665 48.52509722222222 36.77706944444444Q48.505694444444444 36.79647222222222 48.47747222222222 36.79647222222222Q48.45630555555555 36.79647222222222 48.445722222222216 36.78941666666666Q48.350472222222216 36.7365 48.29402777777777 36.611263888888885Q48.23758333333333 36.48602777777778 48.23758333333333 36.20027777777778Q48.23758333333333 35.910999999999994 48.08236111111111 35.80340277777778Q47.927138888888884 35.69580555555555 47.72252777777777 35.69580555555555H46.89702777777777V36.72944444444444Q46.89702777777777 36.757666666666665 46.87586111111111 36.77883333333333Q46.85469444444444 36.8 46.82294444444444 36.8Q46.79119444444444 36.8 46.77002777777777 36.77883333333333Q46.748861111111104 36.757666666666665 46.748861111111104 36.72944444444444V34.401111111111106Q46.748861111111104 34.37288888888889 46.77002777777777 34.35172222222222Q46.79119444444444 34.330555555555556 46.81941666666666 34.330555555555556H47.75075Q47.95536111111111 34.330555555555556 48.11411111111111 34.41345833333333Q48.272861111111105 34.496361111111106 48.36105555555555 34.64099999999999Q48.44925 34.78563888888888 48.44925 34.96908333333333Q48.44925 35.20544444444444 48.324013888888885 35.37477777777777Q48.19877777777777 35.54411111111111 47.99769444444444 35.60408333333333Q48.167027777777776 35.657 48.27638888888889 35.813986111111106Q48.385749999999994 35.97097222222222 48.385749999999994 36.20027777777778Q48.385749999999994 36.436638888888886 48.4157361111111 36.530125Q48.445722222222216 36.62361111111111 48.505694444444444 36.662416666666665Q48.5445 36.68711111111111 48.5445 36.72591666666666ZM47.768388888888886 35.55469444444444Q47.99063888888889 35.53352777777778 48.14586111111111 35.378305555555556Q48.30108333333333 35.22308333333333 48.30108333333333 34.97261111111111Q48.30108333333333 34.75388888888889 48.14586111111111 34.61277777777778Q47.99063888888889 34.471666666666664 47.73311111111111 34.471666666666664H46.89702777777777V35.55469444444444Z"/>
<path id="angle_label" d="M37.56605555555555 57.732972222222216Q37.56605555555555 57.76472222222222 37.544888888888885 57.78236111111111Q37.52372222222222 57.8 37.49197222222222 57.8Q37.467277777777774 57.8 37.447874999999996 57.78765277777778Q37.42847222222222 57.775305555555555 37.421416666666666 57.75413888888889L37.12508333333333 57.02741666666667L37.12861111111111 57.03447222222222H35.94680555555556L35.661055555555556 57.75413888888889Q35.64341666666667 57.8 35.59755555555555 57.8Q35.565805555555556 57.8 35.54640277777778 57.78236111111111Q35.527 57.76472222222222 35.52347222222222 57.740027777777776Q35.51994444444444 57.72591666666666 35.527 57.70475L36.47597222222222 55.36936111111111Q36.486555555555555 55.341138888888885 36.502430555555556 55.33231944444444Q36.51830555555556 55.323499999999996 36.543 55.323499999999996Q36.59591666666667 55.323499999999996 36.61355555555556 55.36936111111111L37.562527777777774 57.70475Q37.56605555555555 57.715333333333334 37.56605555555555 57.732972222222216ZM36.00325 56.893361111111105H37.07216666666667L36.53241666666666 55.56338888888889ZM39.89438888888889 55.39758333333333V57.72238888888889Q39.89438888888889 57.76119444444444 39.873222222222225 57.78059722222222Q39.85205555555555 57.8 39.82030555555556 57.8Q39.78502777777778 57.8 39.76386111111111 57.77177777777778L38.17636111111111 55.60219444444444V57.740027777777776Q38.17636111111111 57.76472222222222 38.156958333333336 57.78236111111111Q38.13755555555555 57.8 38.10933333333333 57.8Q38.07758333333333 57.8 38.05994444444444 57.78236111111111Q38.04230555555555 57.76472222222222 38.04230555555555 57.740027777777776V55.401111111111106Q38.04230555555555 55.36583333333333 38.06170833333333 55.348194444444445Q38.08111111111111 55.330555555555556 38.105805555555555 55.330555555555556Q38.13755555555555 55.330555555555556 38.158722222222224 55.35525L39.760333333333335 57.53894444444444V55.39758333333333Q39.760333333333335 55.36936111111111 39.77973611111111 55.34995833333333Q39.79913888888889 55.330555555555556 39.82736111111111 55.330555555555556Q39.85911111111111 55.330555555555556 39.87675 55.34995833333333Q39.89438888888889 55.36936111111111 39.89438888888889 55.39758333333333ZM42.466138888888885 56.65347222222222V57.53894444444444Q42.466138888888885 57.58127777777778 42.43438888888889 57.602444444444444Q42.27211111111111 57.71180555555555 42.07984722222222 57.77354166666666Q41.88758333333333 57.835277777777776 41.69002777777778 57.835277777777776Q41.32666666666667 57.835277777777776 41.03915277777777 57.671236111111114Q40.751638888888884 57.507194444444444 40.587597222222215 57.21791666666667Q40.42355555555555 56.928638888888884 40.42355555555555 56.56527777777777Q40.42355555555555 56.20191666666666 40.587597222222215 55.912638888888885Q40.751638888888884 55.62336111111111 41.03915277777777 55.459319444444446Q41.32666666666667 55.29527777777778 41.69002777777778 55.29527777777778Q41.88758333333333 55.29527777777778 42.06573611111111 55.34290277777778Q42.24388888888889 55.39052777777778 42.385 55.48577777777778Q42.41675 55.50694444444444 42.41675 55.54575Q42.41675 55.5775 42.393819444444446 55.59690277777778Q42.370888888888885 55.616305555555556 42.34972222222222 55.616305555555556Q42.33208333333333 55.616305555555556 42.30386111111111 55.60219444444444Q42.007527777777774 55.436388888888885 41.69002777777778 55.436388888888885Q41.36547222222222 55.436388888888885 41.11147222222222 55.58102777777778Q40.85747222222222 55.72566666666666 40.714597222222224 55.983194444444436Q40.57172222222222 56.24072222222222 40.57172222222222 56.56527777777777Q40.57172222222222 56.88983333333333 40.714597222222224 57.14736111111111Q40.85747222222222 57.404888888888884 41.11147222222222 57.54952777777777Q41.36547222222222 57.69416666666666 41.69002777777778 57.69416666666666Q41.85230555555555 57.69416666666666 42.019875 57.64301388888889Q42.187444444444445 57.59186111111111 42.32502777777778 57.507194444444444V56.72402777777778H41.69002777777778Q41.66180555555555 56.72402777777778 41.64063888888889 56.702861111111105Q41.61947222222222 56.68169444444444 41.61947222222222 56.65347222222222Q41.61947222222222 56.62172222222222 41.64063888888889 56.60231944444444Q41.66180555555555 56.58291666666666 41.69002777777778 56.58291666666666H42.395583333333335Q42.42733333333333 56.58291666666666 42.44673611111111 56.60408333333333Q42.466138888888885 56.625249999999994 42.466138888888885 56.65347222222222ZM44.484027777777776 57.72944444444444Q44.484027777777776 57.76119444444444 44.46286111111111 57.78059722222222Q44.44169444444444 57.8 44.41347222222222 57.8H43.11877777777777Q43.08702777777778 57.8 43.06762499999999 57.77883333333333Q43.048222222222215 57.757666666666665 43.048222222222215 57.72944444444444V55.401111111111106Q43.048222222222215 55.37288888888889 43.06938888888888 55.35172222222222Q43.090555555555554 55.330555555555556 43.12230555555555 55.330555555555556Q43.15405555555555 55.330555555555556 43.17522222222222 55.35172222222222Q43.19638888888888 55.37288888888889 43.19638888888888 55.401111111111106V57.65888888888889H44.41347222222222Q44.44169444444444 57.65888888888889 44.46286111111111 57.680055555555555Q44.484027777777776 57.70122222222222 44.484027777777776 57.72944444444444ZM46.36080555555556 57.72944444444444Q46.36080555555556 57.76119444444444 46.339638888888885 57.78059722222222Q46.31847222222222 57.8 46.29025 57.8H44.960277777777776Q44.93205555555556 57.8 44.91088888888889 57.77883333333333Q44.88972222222222 57.757666666666665 44.88972222222222 57.72944444444444V55.401111111111106Q44.88972222222222 55.37288888888889 44.91088888888889 55.35172222222222Q44.93205555555556 55.330555555555556 44.960277777777776 55.330555555555556H46.29025Q46.31847222222222 55.330555555555556 46.339638888888885 55.35172222222222Q46.36080555555556 55.37288888888889 46.36080555555556 55.401111111111106Q46.36080555555556 55.43286111111111 46.339638888888885 55.452263888888886Q46.31847222222222 55.471666666666664 46.29025 55.471666666666664H45.03788888888889V56.45591666666667H46.1315Q46.15972222222222 56.45591666666667 46.18088888888889 56.47708333333333Q46.20205555555555 56.49825 46.20205555555555 56.52647222222222Q46.20205555555555 56.55822222222222 46.18088888888889 56.577625Q46.15972222222222 56.597027777777775 46.1315 56.597027777777775H45.03788888888889V57.65888888888889H46.29025Q46.31847222222222 57.65888888888889 46.339638888888885 57.680055555555555Q46.36080555555556 57.70122222222222 46.36080555555556 57.72944444444444Z"/>
<path id="spring_label" d="M35.54463888888889 78.4648611111111Q35.52347222222222 78.44369444444445 35.52347222222222 78.41194444444444Q35.52347222222222 78.38372222222222 35.54816666666666 78.3572638888889Q35.57286111111111 78.33080555555556 35.601083333333335 78.33080555555556Q35.63283333333333 78.33080555555556 35.661055555555556 78.36255555555556Q35.79863888888889 78.52483333333333 35.987375 78.6095Q36.17611111111111 78.69416666666666 36.38425 78.69416666666666Q36.65588888888889 78.69416666666666 36.832277777777776 78.56363888888887Q37.00866666666666 78.4331111111111 37.00866666666666 78.21791666666667Q37.00513888888889 78.04858333333333 36.91694444444444 77.93922222222221Q36.82875 77.82986111111111 36.69998611111111 77.76459722222222Q36.57122222222222 77.69933333333333 36.34897222222222 77.61819444444444Q36.105555555555554 77.52647222222222 35.96973611111111 77.45591666666667Q35.83391666666667 77.38536111111111 35.73690277777778 77.25483333333332Q35.63988888888889 77.12430555555555 35.63988888888889 76.91263888888889Q35.63988888888889 76.73977777777777 35.73513888888889 76.59866666666667Q35.83038888888889 76.45755555555556 36.00677777777778 76.37641666666667Q36.183166666666665 76.29527777777777 36.416 76.29527777777777Q36.624138888888886 76.29527777777777 36.81111111111111 76.37112499999999Q36.998083333333334 76.44697222222221 37.10744444444444 76.58455555555555Q37.14272222222222 76.63394444444444 37.14272222222222 76.65863888888889Q37.14272222222222 76.68686111111111 37.11626388888889 76.70979166666666Q37.08980555555556 76.73272222222222 37.058055555555555 76.73272222222222Q37.02983333333333 76.73272222222222 37.01219444444445 76.71155555555555Q36.91341666666666 76.58455555555555 36.75819444444444 76.51047222222222Q36.60297222222222 76.43638888888889 36.416 76.43638888888889Q36.147888888888886 76.43638888888889 35.96973611111111 76.56338888888888Q35.791583333333335 76.69038888888889 35.791583333333335 76.9091111111111Q35.791583333333335 77.06080555555555 35.87801388888889 77.16663888888888Q35.964444444444446 77.27247222222222 36.094972222222225 77.3377361111111Q36.2255 77.40299999999999 36.41952777777777 77.47355555555555Q36.66647222222222 77.56175 36.81111111111111 77.63583333333332Q36.95575 77.70991666666666 37.058055555555555 77.85102777777777Q37.16036111111111 77.99213888888889 37.16036111111111 78.22497222222222Q37.16036111111111 78.38725 37.06511111111111 78.52836111111111Q36.96986111111111 78.66947222222223 36.79170833333333 78.752375Q36.61355555555556 78.83527777777778 36.38425 78.83527777777778Q36.123194444444444 78.83527777777778 35.92916666666667 78.74531944444445Q35.73513888888889 78.6553611111111 35.54463888888889 78.4648611111111ZM39.277027777777775 77.00436111111111Q39.277027777777775 77.20191666666666 39.194125 77.36243055555556Q39.111222222222224 77.52294444444445 38.95952777777778 77.61290277777778Q38.807833333333335 77.7028611111111 38.61027777777778 77.7028611111111H37.84122222222222V78.72944444444444Q37.84122222222222 78.75766666666667 37.81829166666667 78.77883333333332Q37.79536111111111 78.8 37.76713888888889 78.8Q37.73538888888889 78.8 37.71422222222222 78.77883333333332Q37.69305555555555 78.75766666666667 37.69305555555555 78.72944444444444V76.4011111111111Q37.69305555555555 76.37288888888888 37.71422222222222 76.35172222222221Q37.73538888888889 76.33055555555555 37.76361111111111 76.33055555555555H38.61027777777778Q38.91013888888889 76.33055555555555 39.09358333333333 76.51752777777777Q39.277027777777775 76.7045 39.277027777777775 77.00436111111111ZM39.128861111111114 77.00436111111111Q39.128861111111114 76.76094444444445 38.989513888888894 76.61630555555556Q38.85016666666667 76.47166666666666 38.61027777777778 76.47166666666666H37.84122222222222V77.56175H38.61027777777778Q38.84663888888889 77.56175 38.987750000000005 77.40476388888888Q39.128861111111114 77.24777777777777 39.128861111111114 77.00436111111111ZM41.58419444444445 78.72591666666666Q41.58419444444445 78.75766666666667 41.56479166666667 78.77706944444444Q41.545388888888894 78.79647222222222 41.51716666666667 78.79647222222222Q41.496 78.79647222222222 41.485416666666666 78.78941666666667Q41.390166666666666 78.73649999999999 41.33372222222222 78.61126388888889Q41.27727777777778 78.48602777777778 41.27727777777778 78.20027777777777Q41.27727777777778 77.911 41.12205555555556 77.80340277777778Q40.966833333333334 77.69580555555555 40.76222222222222 77.69580555555555H39.93672222222222V78.72944444444444Q39.93672222222222 78.75766666666667 39.91555555555556 78.77883333333332Q39.89438888888889 78.8 39.86263888888889 78.8Q39.83088888888889 78.8 39.80972222222222 78.77883333333332Q39.788555555555554 78.75766666666667 39.788555555555554 78.72944444444444V76.4011111111111Q39.788555555555554 76.37288888888888 39.80972222222222 76.35172222222221Q39.83088888888889 76.33055555555555 39.85911111111111 76.33055555555555H40.79044444444445Q40.99505555555556 76.33055555555555 41.15380555555556 76.41345833333332Q41.312555555555555 76.49636111111111 41.40075 76.64099999999999Q41.48894444444445 76.78563888888888 41.48894444444445 76.96908333333333Q41.48894444444445 77.20544444444444 41.363708333333335 77.37477777777778Q41.23847222222222 77.5441111111111 41.03738888888889 77.60408333333334Q41.206722222222226 77.657 41.31608333333334 77.8139861111111Q41.425444444444445 77.97097222222222 41.425444444444445 78.20027777777777Q41.425444444444445 78.43663888888888 41.45543055555555 78.530125Q41.485416666666666 78.6236111111111 41.545388888888894 78.66241666666666Q41.58419444444445 78.68711111111111 41.58419444444445 78.72591666666666ZM40.808083333333336 77.55469444444444Q41.03033333333334 77.53352777777778 41.18555555555556 77.37830555555556Q41.34077777777778 77.22308333333334 41.34077777777778 76.9726111111111Q41.34077777777778 76.75388888888888 41.18555555555556 76.61277777777778Q41.03033333333334 76.47166666666666 40.77280555555556 76.47166666666666H39.93672222222222V77.55469444444444ZM42.205083333333334 78.8Q42.16980555555556 78.8 42.150402777777785 78.77883333333332Q42.131 78.75766666666667 42.131 78.72591666666666V76.40463888888888Q42.131 76.37288888888888 42.15216666666667 76.35172222222221Q42.17333333333334 76.33055555555555 42.205083333333334 76.33055555555555Q42.23683333333334 76.33055555555555 42.258 76.35172222222221Q42.27916666666667 76.37288888888888 42.27916666666667 76.40463888888888V78.72591666666666Q42.27563888888889 78.75766666666667 42.254472222222226 78.77883333333332Q42.23330555555556 78.8 42.205083333333334 78.8ZM44.836805555555564 76.39758333333333V78.72238888888889Q44.836805555555564 78.76119444444444 44.8156388888889 78.78059722222221Q44.794472222222225 78.8 44.76272222222223 78.8Q44.72744444444445 78.8 44.706277777777785 78.77177777777777L43.11877777777779 76.60219444444444V78.74002777777777Q43.11877777777779 78.76472222222222 43.09937500000001 78.7823611111111Q43.079972222222224 78.8 43.051750000000006 78.8Q43.02 78.8 43.002361111111114 78.7823611111111Q42.984722222222224 78.76472222222222 42.984722222222224 78.74002777777777V76.4011111111111Q42.984722222222224 76.36583333333333 43.004125 76.34819444444443Q43.02352777777779 76.33055555555555 43.04822222222223 76.33055555555555Q43.079972222222224 76.33055555555555 43.1011388888889 76.35525L44.70275000000001 78.53894444444444V76.39758333333333Q44.70275000000001 76.3693611111111 44.72215277777779 76.34995833333332Q44.741555555555564 76.33055555555555 44.76977777777778 76.33055555555555Q44.801527777777785 76.33055555555555 44.819166666666675 76.34995833333332Q44.836805555555564 76.3693611111111 44.836805555555564 76.39758333333333ZM47.40855555555556 77.65347222222222V78.53894444444444Q47.40855555555556 78.58127777777777 47.37680555555556 78.60244444444444Q47.21452777777778 78.71180555555556 47.022263888888894 78.77354166666666Q46.830000000000005 78.83527777777778 46.63244444444445 78.83527777777778Q46.26908333333334 78.83527777777778 45.981569444444446 78.67123611111111Q45.69405555555556 78.50719444444444 45.53001388888889 78.21791666666667Q45.365972222222226 77.92863888888888 45.365972222222226 77.56527777777778Q45.365972222222226 77.20191666666666 45.53001388888889 76.91263888888889Q45.69405555555556 76.62336111111111 45.981569444444446 76.45931944444445Q46.26908333333334 76.29527777777777 46.63244444444445 76.29527777777777Q46.830000000000005 76.29527777777777 47.00815277777778 76.34290277777777Q47.18630555555556 76.39052777777778 47.32741666666667 76.48577777777777Q47.359166666666674 76.50694444444444 47.359166666666674 76.54575Q47.359166666666674 76.5775 47.33623611111112 76.59690277777779Q47.31330555555556 76.61630555555556 47.29213888888889 76.61630555555556Q47.2745 76.61630555555556 47.246277777777784 76.60219444444444Q46.94994444444445 76.43638888888889 46.63244444444445 76.43638888888889Q46.3078888888889 76.43638888888889 46.05388888888889 76.58102777777778Q45.799888888888894 76.72566666666667 45.6570138888889 76.98319444444445Q45.514138888888894 77.24072222222222 45.514138888888894 77.56527777777778Q45.514138888888894 77.88983333333333 45.6570138888889 78.14736111111111Q45.799888888888894 78.40488888888889 46.05388888888889 78.54952777777777Q46.3078888888889 78.69416666666666 46.63244444444445 78.69416666666666Q46.79472222222223 78.69416666666666 46.96229166666667 78.64301388888889Q47.12986111111112 78.59186111111111 47.26744444444445 78.50719444444444V77.72402777777778H46.63244444444445Q46.604222222222226 77.72402777777778 46.58305555555556 77.7028611111111Q46.561888888888895 77.68169444444445 46.561888888888895 77.65347222222222Q46.561888888888895 77.62172222222222 46.58305555555556 77.60231944444445Q46.604222222222226 77.58291666666666 46.63244444444445 77.58291666666666H47.33800000000001Q47.36975 77.58291666666666 47.38915277777778 77.60408333333334Q47.40855555555556 77.62525 47.40855555555556 77.65347222222222Z"/>
</g>
</svg>
