<?xml version="1.0" encoding="utf-8"?>
<svg xmlns="http://www.w3.org/2000/svg" width="60.96mm" height="128.50mm" viewBox="0 0 60.96 128.50">
    <defs>
        <linearGradient id="gradient_0" x1="50" y1="0" x2="0" y2="0" gradientUnits="userSpaceOnUse">
            <stop offset="0" style="stop-color:#906be8;stop-opacity:1;" />
            <stop offset="1" style="stop-color:#b242bd;stop-opacity:1;" />
        </linearGradient>
        <linearGradient id="gradient_1" x1="60" y1="0" x2="0" y2="0" gradientUnits="userSpaceOnUse">
            <stop offset="0" style="stop-color:#6d96d6;stop-opacity:1;" />
            <stop offset="1" style="stop-color:#3372d4;stop-opacity:1;" />
        </linearGradient>
        <linearGradient id="gradient_2" x1="0" y1="0" x2="60" y2="0" gradientUnits="userSpaceOnUse">
            <stop offset="0" style="stop-color:#986de4;stop-opacity:1;" />
            <stop offset="1" style="stop-color:#4373e6;stop-opacity:1;" />
        </linearGradient>
        <linearGradient id="gradient_3" x1="60" y1="0" x2="0" y2="0" gradientUnits="userSpaceOnUse">
            <stop offset="0" style="stop-color:#3d81a0;stop-opacity:1;" />
            <stop offset="1" style="stop-color:#26abbf;stop-opacity:1;" />
        </linearGradient>
    </defs>
    <g id="PanelLayer">
        <rect id="border_rect" width="60.96" height="128.5" x="0" y="0" style="display:inline;fill:#4f8df2;fill-opacity:1;fill-rule:nonzero;stroke:#5021d4;stroke-width:0.7;stroke-linecap:round;stroke-linejoin:round;stroke-dasharray:none;stroke-opacity:1;image-rendering:auto" />
        <path style="fill:url(#gradient_0);fill-opacity:1;stroke:#000000;stroke-width:0.1;stroke-linecap:round;stroke-linejoin:bevel;stroke-dasharray:none" d="M 4.50,22.50 L 26.50,22.50 L 34.50,33.00 L 26.50,43.50 L 4.50,43.50 z M 56.50,12.00 L 34.50,12.00 L 26.50,22.50 L 34.50,33.00 L 56.50,33.00 z " />
        <path style="fill:url(#gradient_1);fill-opacity:1;stroke:#000000;stroke-width:0.1;stroke-linecap:round;stroke-linejoin:bevel;stroke-dasharray:none" d="M 4.50,43.50 L 26.50,43.50 L 34.50,54.00 L 26.50,64.50 L 4.50,64.50 z M 56.50,33.00 L 34.50,33.00 L 26.50,43.50 L 34.50,54.00 L 56.50,54.00 z " />
        <path style="fill:url(#gradient_2);fill-opacity:1;stroke:#000000;stroke-width:0.1;stroke-linecap:round;stroke-linejoin:bevel;stroke-dasharray:none" d="M 4.50,64.50 L 26.50,64.50 L 34.50,75.00 L 26.50,85.50 L 4.50,85.50 z M 56.50,54.00 L 34.50,54.00 L 26.50,64.50 L 34.50,75.00 L 56.50,75.00 z " />
        <path style="fill:url(#gradient_3);fill-opacity:1;stroke:#000000;stroke-width:0.1;stroke-linecap:round;stroke-linejoin:bevel;stroke-dasharray:none" d="M 4.50,85.50 L 26.50,85.50 L 34.50,96.00 L 26.50,106.50 L 4.50,106.50 z M 56.50,75.00 L 34.50,75.00 L 26.50,85.50 L 34.50,96.00 L 56.50,96.00 z " />
        <g id="sapphire_insignia">
            <path id="brand_name" d="M15.5864 124.775Q15.5864 124.721 15.6485 124.674Q15.6873 124.636 15.7417 124.636Q15.8193 124.636 15.8658 124.698Q16.316 125.342 17.1231 125.342Q17.5345 125.342 17.8449 125.136Q18.1554 124.93 18.1554 124.581Q18.1554 124.224 17.8837 124.046Q17.6121 123.867 17.1387 123.751Q16.51 123.596 16.1491 123.336Q15.7882 123.076 15.7882 122.602Q15.7882 122.144 16.153 121.845Q16.5178 121.547 17.0921 121.547Q17.4103 121.547 17.7246 121.671Q18.0389 121.795 18.2951 122.067Q18.3494 122.113 18.3494 122.175Q18.3494 122.245 18.2951 122.299Q18.233 122.331 18.1942 122.331Q18.1398 122.331 18.101 122.284Q17.6975 121.842 17.061 121.842Q16.6497 121.842 16.3664 122.043Q16.0831 122.245 16.0831 122.602Q16.1064 122.936 16.3897 123.118Q16.673 123.301 17.224 123.44Q17.6198 123.541 17.8798 123.662Q18.1398 123.782 18.2951 123.999Q18.4503 124.216 18.4503 124.566Q18.4503 125.055 18.0739 125.338Q17.6975 125.621 17.0921 125.621Q16.2073 125.621 15.6408 124.923Q15.5864 124.837 15.5864 124.775ZM22.7965 121.826V125.388Q22.7965 125.45 22.7499 125.497Q22.7034 125.544 22.6413 125.544Q22.5714 125.544 22.5287 125.497Q22.4861 125.45 22.4861 125.388V124.69Q22.292 125.086 21.8885 125.353Q21.4849 125.621 20.9959 125.621Q20.4837 125.621 20.0724 125.353Q19.661 125.086 19.4282 124.616Q19.1953 124.147 19.1953 123.565Q19.1953 122.99 19.4321 122.528Q19.6688 122.067 20.0801 121.807Q20.4915 121.547 20.9959 121.547Q21.5004 121.547 21.904 121.811Q22.3076 122.074 22.4861 122.517V121.826Q22.4861 121.764 22.5287 121.717Q22.5714 121.671 22.6413 121.671Q22.7111 121.671 22.7538 121.717Q22.7965 121.764 22.7965 121.826ZM22.5171 123.565Q22.5171 123.091 22.3231 122.695Q22.129 122.299 21.7837 122.071Q21.4383 121.842 21.0114 121.842Q20.5846 121.842 20.2392 122.063Q19.8938 122.284 19.6998 122.676Q19.5058 123.068 19.5058 123.565Q19.5058 124.061 19.6998 124.465Q19.8938 124.868 20.2353 125.097Q20.5768 125.326 21.0114 125.326Q21.4383 125.326 21.7837 125.097Q22.129 124.868 22.3231 124.465Q22.5171 124.061 22.5171 123.565ZM27.686 123.603Q27.686 124.162 27.4493 124.616Q27.2126 125.07 26.8012 125.33Q26.3899 125.59 25.8854 125.59Q25.4198 125.59 25.0317 125.357Q24.6436 125.125 24.3953 124.698V126.941Q24.3953 127.003 24.3526 127.049Q24.3099 127.096 24.2401 127.096Q24.178 127.096 24.1314 127.049Q24.0848 127.003 24.0848 126.941V121.779Q24.0848 121.717 24.1275 121.671Q24.1702 121.624 24.2401 121.624Q24.3099 121.624 24.3526 121.671Q24.3953 121.717 24.3953 121.779V122.493Q24.6281 122.051 25.0162 121.838Q25.4042 121.624 25.8854 121.624Q26.3977 121.624 26.809 121.88Q27.2203 122.136 27.4532 122.587Q27.686 123.037 27.686 123.603ZM27.3756 123.603Q27.3756 123.122 27.1776 122.738Q26.9797 122.354 26.6383 122.136Q26.2968 121.919 25.8699 121.919Q25.4353 121.919 25.0899 122.133Q24.7445 122.346 24.5544 122.73Q24.3642 123.114 24.3642 123.603Q24.3642 124.092 24.5544 124.476Q24.7445 124.861 25.0899 125.078Q25.4353 125.295 25.8699 125.295Q26.2968 125.295 26.6383 125.078Q26.9797 124.861 27.1776 124.473Q27.3756 124.085 27.3756 123.603ZM32.3039 123.603Q32.3039 124.162 32.0671 124.616Q31.8304 125.07 31.4191 125.33Q31.0078 125.59 30.5033 125.59Q30.0376 125.59 29.6496 125.357Q29.2615 125.125 29.0132 124.698V126.941Q29.0132 127.003 28.9705 127.049Q28.9278 127.096 28.8579 127.096Q28.7958 127.096 28.7493 127.049Q28.7027 127.003 28.7027 126.941V121.779Q28.7027 121.717 28.7454 121.671Q28.7881 121.624 28.8579 121.624Q28.9278 121.624 28.9705 121.671Q29.0132 121.717 29.0132 121.779V122.493Q29.246 122.051 29.634 121.838Q30.0221 121.624 30.5033 121.624Q31.0155 121.624 31.4269 121.88Q31.8382 122.136 32.071 122.587Q32.3039 123.037 32.3039 123.603ZM31.9934 123.603Q31.9934 123.122 31.7955 122.738Q31.5976 122.354 31.2561 122.136Q30.9146 121.919 30.4878 121.919Q30.0531 121.919 29.7078 122.133Q29.3624 122.346 29.1723 122.73Q28.9821 123.114 28.9821 123.603Q28.9821 124.092 29.1723 124.476Q29.3624 124.861 29.7078 125.078Q30.0531 125.295 30.4878 125.295Q30.9146 125.295 31.2561 125.078Q31.5976 124.861 31.7955 124.473Q31.9934 124.085 31.9934 123.603ZM36.394 123.122V125.388Q36.394 125.45 36.3474 125.497Q36.3008 125.544 36.2387 125.544Q36.1689 125.544 36.1262 125.497Q36.0835 125.45 36.0835 125.388V123.122Q36.0835 122.587 35.8196 122.253Q35.5558 121.919 35.0125 121.919Q34.6788 121.919 34.3567 122.082Q34.0346 122.245 33.8328 122.525Q33.631 122.804 33.631 123.122V125.388Q33.631 125.45 33.5844 125.497Q33.5379 125.544 33.4758 125.544Q33.4059 125.544 33.3633 125.497Q33.3206 125.45 33.3206 125.388V119.956Q33.3206 119.894 33.3671 119.847Q33.4137 119.8 33.4758 119.8Q33.5456 119.8 33.5883 119.847Q33.631 119.894 33.631 119.956V122.408Q33.8483 122.067 34.2325 121.845Q34.6167 121.624 35.0125 121.624Q35.6799 121.624 36.037 122.047Q36.394 122.47 36.394 123.122ZM37.8375 125.544Q37.7677 125.544 37.725 125.497Q37.6823 125.45 37.6823 125.388V121.702Q37.6823 121.64 37.7289 121.593Q37.7754 121.547 37.8375 121.547Q37.9074 121.547 37.9501 121.593Q37.9928 121.64 37.9928 121.702V125.388Q37.9928 125.45 37.9462 125.497Q37.8996 125.544 37.8375 125.544ZM37.5659 120.771V120.708Q37.5659 120.6 37.6435 120.53Q37.7211 120.46 37.8453 120.46Q37.954 120.46 38.0277 120.53Q38.1014 120.6 38.1014 120.708V120.771Q38.1014 120.879 38.0277 120.949Q37.954 121.019 37.8375 121.019Q37.7134 121.019 37.6396 120.949Q37.5659 120.879 37.5659 120.771ZM41.3921 121.725Q41.3921 121.795 41.3533 121.842Q41.3145 121.888 41.2524 121.888Q41.2291 121.888 41.1399 121.853Q41.0506 121.818 40.9497 121.818Q40.6315 121.818 40.3133 122.071Q39.9951 122.323 39.7933 122.707Q39.5915 123.091 39.5915 123.448V125.388Q39.5915 125.45 39.545 125.497Q39.4984 125.544 39.4363 125.544Q39.3665 125.544 39.3238 125.497Q39.2811 125.45 39.2811 125.388V121.826Q39.2811 121.764 39.3277 121.717Q39.3742 121.671 39.4363 121.671Q39.5062 121.671 39.5489 121.717Q39.5915 121.764 39.5915 121.826V122.649Q39.7701 122.175 40.1465 121.865Q40.5229 121.554 41.0351 121.547Q41.3921 121.547 41.3921 121.725ZM45.3348 124.752Q45.3348 124.806 45.3037 124.845Q45.0476 125.187 44.6673 125.404Q44.287 125.621 43.8524 125.621Q43.2703 125.621 42.8202 125.373Q42.37 125.125 42.1178 124.667Q41.8656 124.209 41.8656 123.603Q41.8656 122.982 42.11 122.513Q42.3545 122.043 42.7581 121.795Q43.1617 121.547 43.6196 121.547Q44.0775 121.547 44.4694 121.745Q44.8613 121.942 45.1097 122.338Q45.3581 122.734 45.3736 123.316Q45.3736 123.378 45.327 123.429Q45.2804 123.479 45.2184 123.479H42.1682V123.58Q42.1682 124.061 42.3623 124.461Q42.5563 124.861 42.9366 125.093Q43.3169 125.326 43.8524 125.326Q44.2249 125.326 44.5548 125.144Q44.8846 124.962 45.0709 124.682Q45.1252 124.612 45.2028 124.612Q45.2572 124.612 45.296 124.655Q45.3348 124.698 45.3348 124.752ZM42.1993 123.184H45.0554V123.114Q45.0166 122.719 44.8031 122.435Q44.5897 122.152 44.2754 122.005Q43.9611 121.857 43.6196 121.857Q43.3324 121.857 43.0336 122.008Q42.7348 122.16 42.5058 122.459Q42.2769 122.757 42.1993 123.184Z" style="fill:#000000;stroke:#000000;stroke-width:0.265;stroke-linecap:square" />
            <g id="gemstones" style="stroke-width:0;fill:#0000ff;stroke:#2e2114;stroke-linecap:square;stroke-opacity:1">
                <path d="m 12.930,122.900 q 0,0.34175 -0.242534,0.63114 -0.0441,0.0524 -0.20395,0.21497 -0.187413,0.19017 -0.785481,0.81304 l -1.444183,1.51309 q -0.01929,0.003 -0.0441,0.003 -0.02756,0 -0.04134,-0.003 -0.08268,-0.0827 -0.647678,-0.67524 -0.468532,-0.47404 -0.934309,-0.94809 -0.556727,-0.56775 -0.89848,-0.98116 -0.132292,-0.15985 -0.168121,-0.29766 -0.02756,-0.10197 -0.02756,-0.34175 0,-0.11024 0.07166,-0.28939 0.06614,-0.16536 0.140559,-0.26458 0.118512,-0.1571 0.42168,-0.42444 0.283875,-0.2508 0.474044,-0.37482 0.272852,-0.17915 0.818555,-0.36656 0.09646,-0.0331 0.110243,-0.0331 h 1.3615 q 0.01102,0 0.104731,0.0331 0.567751,0.20119 0.824066,0.36656 0.165365,0.10473 0.474045,0.37758 0.322461,0.28388 0.421679,0.42168 0.214974,0.2949 0.214974,0.62563 z m -0.16812,-0.27285 q -0.03307,-0.10749 -0.135048,-0.30868 -0.07166,-0.0937 -0.209462,-0.19844 -0.118511,-0.0854 -0.234266,-0.17088 0.245291,0.3638 0.578776,0.678 z m -0.573264,-0.52366 -0.358289,-0.44648 v 0.41065 z m 0.636653,0.75792 q 0,-0.0524 -0.341753,-0.39412 l 0.228754,0.7028 h 0.04961 q 0.06339,-0.21773 0.06339,-0.30868 z m -0.23151,0.27285 -0.316948,-0.90399 -0.410655,-0.0634 -0.159853,0.61461 z m 0.0028,0.15434 -0.771701,-0.3197 h -0.03032 l 0.344509,0.60634 q 0.07993,-0.003 0.234266,-0.0469 0.02481,-0.0138 0.223242,-0.23978 z m -0.857139,-1.05006 -0.719335,0.28388 0.60358,0.22599 z m 0,-0.16261 v -0.51538 l -0.917773,-0.38034 h -1.223697 l -0.917772,0.38034 v 0.51538 l 0.89848,0.4079 h 1.254014 z m 0.573264,1.53789 q -0.0689,0.011 -0.198438,0.0524 -0.08544,0.0551 -0.259071,0.16261 0.01929,0 0.06339,0.003 0.04134,0 0.06339,0 0.118511,0 0.190169,-0.0689 0.07166,-0.0717 0.14056,-0.14883 z m -0.289388,0.003 -0.347266,-0.63114 -0.363801,0.87918 q 0.0248,-0.0165 0.06615,-0.0165 0.03032,0 0.08544,0.011 0.05788,0.008 0.08819,0.008 0.04961,0 0.228754,-0.10749 0.228754,-0.1378 0.242535,-0.14331 z m -0.440972,-0.74139 -0.683507,-0.2756 -0.592556,0.54845 0.903993,0.65595 z m -0.854383,-0.28387 h -1.036284 l 0.523654,0.47404 z m 0.749652,1.36701 q -0.228754,-0.0303 -0.228754,-0.0303 -0.03583,0 -0.272851,0.0937 l 0.190169,0.0193 q 0.01102,0 0.311436,-0.0827 z m -0.388606,-0.0882 -0.843359,-0.61185 v 0.67524 l 0.471289,0.0827 z m 0.854383,0.0496 q -0.09922,0.006 -0.2949,0.0386 -0.01102,0.003 -0.377583,0.17639 -0.129535,0.34726 -0.380338,1.0418 z m -2.543857,-1.39733 -0.719335,-0.28388 0.124023,0.51814 z m -0.802018,-0.45476 v -0.41065 l -0.366557,0.44648 z m 1.515841,1.07212 -0.592556,-0.54019 -0.683506,0.2756 0.380338,0.9288 z m 0.369314,0.94257 q -0.03307,-0.003 -0.135047,-0.0248 -0.08544,-0.0165 -0.137804,-0.0165 -0.05237,0 -0.137804,0.0165 -0.101975,0.0221 -0.135047,0.0248 0.264583,0.0469 0.272851,0.0469 0.0083,0 0.272851,-0.0469 z m -0.30868,-0.1378 v -0.68626 l -0.843359,0.61185 0.37207,0.14607 z m 0.950846,0.20671 -0.396875,-0.0551 -0.479557,0.14056 v 1.27607 z m -2.888366,-2.20211 q -0.118512,0.0854 -0.234267,0.17364 -0.146072,0.10748 -0.209461,0.19568 -0.0441,0.10473 -0.135048,0.31419 0.369314,-0.3638 0.578776,-0.68351 z m 0.476801,0.83234 -0.159853,-0.61461 -0.410655,0.0634 -0.316948,0.90399 z m 0.394118,1.08313 -0.363802,-0.87918 -0.355533,0.63114 q 0.43546,0.2508 0.451996,0.2508 0.09095,0 0.267339,-0.003 z m 1.821765,0.82958 q -0.132291,0.21222 -0.405143,0.6339 -0.07717,0.10749 -0.220486,0.32797 -0.05788,0.10473 -0.05512,0.226 0.159852,-0.15158 0.432704,-0.49609 0.07717,-0.12954 0.140559,-0.339 0.05512,-0.17639 0.107486,-0.35278 z m -1.493792,-0.66146 -0.270095,-0.0882 -0.0083,-0.011 q -0.02481,0 -0.107487,0.011 -0.06615,0.006 -0.107487,0.006 0.272851,0.091 0.311436,0.091 0.02481,0 0.181901,-0.008 z m -0.810286,-1.06384 h -0.03032 l -0.7717,0.3197 q 0.06615,0.0965 0.223242,0.23978 0.07717,0.0138 0.234266,0.0469 z m -0.689018,-0.50161 q -0.341754,0.34727 -0.341754,0.39412 0,0.0799 0.06339,0.30868 h 0.04961 z m 2.235176,3.04547 v -1.27607 l -0.479557,-0.14056 -0.396875,0.0551 z m -1.606791,-1.6757 q -0.256315,-0.1819 -0.457509,-0.22324 0.06615,0.0772 0.20395,0.22324 z m 1.609547,2.04501 v -0.1378 l -0.683507,-1.05007 q 0.05237,0.17639 0.107487,0.35278 0.06339,0.20946 0.14056,0.339 0.0689,0.11851 0.20395,0.25907 0.115755,0.11851 0.23151,0.23702 z m -0.644921,-0.70555 q -0.115756,-0.32798 -0.380339,-1.0418 -0.135047,-0.0662 -0.272851,-0.12954 -0.159852,-0.0716 -0.289388,-0.0716 -0.05237,0 -0.110243,-0.0138 z" />
                <path d="m 53.460,122.900 q 0,0.34175 -0.242534,0.63114 -0.0441,0.0524 -0.20395,0.21497 -0.187413,0.19017 -0.785481,0.81304 l -1.444183,1.51309 q -0.01929,0.003 -0.0441,0.003 -0.02756,0 -0.04134,-0.003 -0.08268,-0.0827 -0.647678,-0.67524 -0.468532,-0.47404 -0.934309,-0.94809 -0.556727,-0.56775 -0.89848,-0.98116 -0.132292,-0.15985 -0.168121,-0.29766 -0.02756,-0.10197 -0.02756,-0.34175 0,-0.11024 0.07166,-0.28939 0.06614,-0.16536 0.140559,-0.26458 0.118512,-0.1571 0.42168,-0.42444 0.283875,-0.2508 0.474044,-0.37482 0.272852,-0.17915 0.818555,-0.36656 0.09646,-0.0331 0.110243,-0.0331 h 1.3615 q 0.01102,0 0.104731,0.0331 0.567751,0.20119 0.824066,0.36656 0.165365,0.10473 0.474045,0.37758 0.322461,0.28388 0.421679,0.42168 0.214974,0.2949 0.214974,0.62563 z m -0.16812,-0.27285 q -0.03307,-0.10749 -0.135048,-0.30868 -0.07166,-0.0937 -0.209462,-0.19844 -0.118511,-0.0854 -0.234266,-0.17088 0.245291,0.3638 0.578776,0.678 z m -0.573264,-0.52366 -0.358289,-0.44648 v 0.41065 z m 0.636653,0.75792 q 0,-0.0524 -0.341753,-0.39412 l 0.228754,0.7028 h 0.04961 q 0.06339,-0.21773 0.06339,-0.30868 z m -0.23151,0.27285 -0.316948,-0.90399 -0.410655,-0.0634 -0.159853,0.61461 z m 0.0028,0.15434 -0.771701,-0.3197 h -0.03032 l 0.344509,0.60634 q 0.07993,-0.003 0.234266,-0.0469 0.02481,-0.0138 0.223242,-0.23978 z m -0.857139,-1.05006 -0.719335,0.28388 0.60358,0.22599 z m 0,-0.16261 v -0.51538 l -0.917773,-0.38034 h -1.223697 l -0.917772,0.38034 v 0.51538 l 0.89848,0.4079 h 1.254014 z m 0.573264,1.53789 q -0.0689,0.011 -0.198438,0.0524 -0.08544,0.0551 -0.259071,0.16261 0.01929,0 0.06339,0.003 0.04134,0 0.06339,0 0.118511,0 0.190169,-0.0689 0.07166,-0.0717 0.14056,-0.14883 z m -0.289388,0.003 -0.347266,-0.63114 -0.363801,0.87918 q 0.0248,-0.0165 0.06615,-0.0165 0.03032,0 0.08544,0.011 0.05788,0.008 0.08819,0.008 0.04961,0 0.228754,-0.10749 0.228754,-0.1378 0.242535,-0.14331 z m -0.440972,-0.74139 -0.683507,-0.2756 -0.592556,0.54845 0.903993,0.65595 z m -0.854383,-0.28387 h -1.036284 l 0.523654,0.47404 z m 0.749652,1.36701 q -0.228754,-0.0303 -0.228754,-0.0303 -0.03583,0 -0.272851,0.0937 l 0.190169,0.0193 q 0.01102,0 0.311436,-0.0827 z m -0.388606,-0.0882 -0.843359,-0.61185 v 0.67524 l 0.471289,0.0827 z m 0.854383,0.0496 q -0.09922,0.006 -0.2949,0.0386 -0.01102,0.003 -0.377583,0.17639 -0.129535,0.34726 -0.380338,1.0418 z m -2.543857,-1.39733 -0.719335,-0.28388 0.124023,0.51814 z m -0.802018,-0.45476 v -0.41065 l -0.366557,0.44648 z m 1.515841,1.07212 -0.592556,-0.54019 -0.683506,0.2756 0.380338,0.9288 z m 0.369314,0.94257 q -0.03307,-0.003 -0.135047,-0.0248 -0.08544,-0.0165 -0.137804,-0.0165 -0.05237,0 -0.137804,0.0165 -0.101975,0.0221 -0.135047,0.0248 0.264583,0.0469 0.272851,0.0469 0.0083,0 0.272851,-0.0469 z m -0.30868,-0.1378 v -0.68626 l -0.843359,0.61185 0.37207,0.14607 z m 0.950846,0.20671 -0.396875,-0.0551 -0.479557,0.14056 v 1.27607 z m -2.888366,-2.20211 q -0.118512,0.0854 -0.234267,0.17364 -0.146072,0.10748 -0.209461,0.19568 -0.0441,0.10473 -0.135048,0.31419 0.369314,-0.3638 0.578776,-0.68351 z m 0.476801,0.83234 -0.159853,-0.61461 -0.410655,0.0634 -0.316948,0.90399 z m 0.394118,1.08313 -0.363802,-0.87918 -0.355533,0.63114 q 0.43546,0.2508 0.451996,0.2508 0.09095,0 0.267339,-0.003 z m 1.821765,0.82958 q -0.132291,0.21222 -0.405143,0.6339 -0.07717,0.10749 -0.220486,0.32797 -0.05788,0.10473 -0.05512,0.226 0.159852,-0.15158 0.432704,-0.49609 0.07717,-0.12954 0.140559,-0.339 0.05512,-0.17639 0.107486,-0.35278 z m -1.493792,-0.66146 -0.270095,-0.0882 -0.0083,-0.011 q -0.02481,0 -0.107487,0.011 -0.06615,0.006 -0.107487,0.006 0.272851,0.091 0.311436,0.091 0.02481,0 0.181901,-0.008 z m -0.810286,-1.06384 h -0.03032 l -0.7717,0.3197 q 0.06615,0.0965 0.223242,0.23978 0.07717,0.0138 0.234266,0.0469 z m -0.689018,-0.50161 q -0.341754,0.34727 -0.341754,0.39412 0,0.0799 0.06339,0.30868 h 0.04961 z m 2.235176,3.04547 v -1.27607 l -0.479557,-0.14056 -0.396875,0.0551 z m -1.606791,-1.6757 q -0.256315,-0.1819 -0.457509,-0.22324 0.06615,0.0772 0.20395,0.22324 z m 1.609547,2.04501 v -0.1378 l -0.683507,-1.05007 q 0.05237,0.17639 0.107487,0.35278 0.06339,0.20946 0.14056,0.339 0.0689,0.11851 0.20395,0.25907 0.115755,0.11851 0.23151,0.23702 z m -0.644921,-0.70555 q -0.115756,-0.32798 -0.380339,-1.0418 -0.135047,-0.0662 -0.272851,-0.12954 -0.159852,-0.0716 -0.289388,-0.0716 -0.05237,0 -0.110243,-0.0138 z" />
            </g>
        </g>
        <path id="model_name" d="M17.1451 4.39488Q17.1451 4.45697 17.1024 4.49966Q17.0597 4.54234 16.9977 4.54234H16.1439V7.3053Q16.1439 7.64679 16.2642 7.75932Q16.3845 7.87186 16.5708 7.87186Q16.6018 7.87186 16.66 7.85634Q16.7183 7.84081 16.7571 7.84081Q16.8114 7.84081 16.8502 7.8835Q16.889 7.92619 16.889 7.98051Q16.889 8.05036 16.7959 8.10081Q16.7027 8.15126 16.5786 8.15126Q16.3845 8.15126 16.2526 8.12409Q16.1207 8.09693 15.9771 7.91454Q15.8335 7.73216 15.8335 7.32082V4.54234H15.1971Q15.1428 4.54234 15.0962 4.49578Q15.0496 4.44921 15.0496 4.39488Q15.0496 4.33279 15.0923 4.29011Q15.135 4.24742 15.1971 4.24742H15.8335V3.26176Q15.8335 3.19967 15.8801 3.1531Q15.9266 3.10654 15.9887 3.10654Q16.0586 3.10654 16.1012 3.1531Q16.1439 3.19967 16.1439 3.26176V4.24742H16.9977Q17.052 4.24742 17.0986 4.29399Q17.1451 4.34055 17.1451 4.39488ZM21.0878 4.43369V6.69217Q21.0878 7.42948 20.6725 7.81365Q20.2573 8.19782 19.5433 8.19782Q18.8293 8.19782 18.4179 7.81365Q18.0066 7.42948 18.0066 6.69217V4.43369Q18.0066 4.3716 18.0532 4.32503Q18.0997 4.27846 18.1618 4.27846Q18.2317 4.27846 18.2744 4.32503Q18.317 4.3716 18.317 4.43369V6.69217Q18.317 7.27425 18.643 7.58858Q18.969 7.9029 19.5433 7.9029Q20.1254 7.9029 20.4514 7.58858Q20.7773 7.27425 20.7773 6.69217V4.43369Q20.7773 4.3716 20.82 4.32503Q20.8627 4.27846 20.9325 4.27846Q21.0024 4.27846 21.0451 4.32503Q21.0878 4.3716 21.0878 4.43369ZM25.9773 6.17217Q25.9773 6.7465 25.7405 7.21604Q25.5038 7.68559 25.0925 7.95723Q24.6812 8.22887 24.1767 8.22887Q23.7188 8.22887 23.3307 7.98439Q22.9427 7.73992 22.6866 7.3053V7.99604Q22.6866 8.05812 22.6439 8.10469Q22.6012 8.15126 22.5313 8.15126Q22.4692 8.15126 22.4227 8.10469Q22.3761 8.05812 22.3761 7.99604V2.57102Q22.3761 2.50893 22.4188 2.46236Q22.4615 2.4158 22.5313 2.4158Q22.6012 2.4158 22.6439 2.46236Q22.6866 2.50893 22.6866 2.57102V5.10114Q22.9194 4.64324 23.3113 4.39876Q23.7033 4.15429 24.1767 4.15429Q24.6889 4.15429 25.1003 4.41428Q25.5116 4.67428 25.7444 5.13607Q25.9773 5.59785 25.9773 6.17217ZM25.6668 6.17217Q25.6668 5.67546 25.4689 5.28353Q25.271 4.89159 24.9295 4.6704Q24.588 4.44921 24.1612 4.44921Q23.7265 4.44921 23.3812 4.6704Q23.0358 4.89159 22.8457 5.28353Q22.6555 5.67546 22.6555 6.17217Q22.6555 6.66889 22.8495 7.07246Q23.0436 7.47604 23.3851 7.70499Q23.7265 7.93395 24.1612 7.93395Q24.588 7.93395 24.9295 7.70111Q25.271 7.46828 25.4689 7.06858Q25.6668 6.66889 25.6668 6.17217ZM30.1915 7.35962Q30.1915 7.41395 30.1605 7.45276Q29.9044 7.79425 29.5241 8.01156Q29.1438 8.22887 28.7092 8.22887Q28.1271 8.22887 27.6769 7.98051Q27.2268 7.73216 26.9746 7.27425Q26.7223 6.81635 26.7223 6.21098Q26.7223 5.59009 26.9668 5.12054Q27.2113 4.651 27.6149 4.40264Q28.0184 4.15429 28.4763 4.15429Q28.9342 4.15429 29.3262 4.35219Q29.7181 4.5501 29.9665 4.94592Q30.2148 5.34174 30.2304 5.92382Q30.2304 5.98591 30.1838 6.03636Q30.1372 6.0868 30.0751 6.0868H27.025V6.1877Q27.025 6.66889 27.219 7.06858Q27.4131 7.46828 27.7934 7.70111Q28.1737 7.93395 28.7092 7.93395Q29.0817 7.93395 29.4116 7.75156Q29.7414 7.56917 29.9277 7.28977Q29.982 7.21992 30.0596 7.21992Q30.1139 7.21992 30.1527 7.26261Q30.1915 7.3053 30.1915 7.35962ZM27.0561 5.79188H29.9121V5.72203Q29.8733 5.32621 29.6599 5.04293Q29.4465 4.75965 29.1322 4.61219Q28.8178 4.46473 28.4763 4.46473Q28.1892 4.46473 27.8904 4.61607Q27.5916 4.76741 27.3626 5.06622Q27.1337 5.36502 27.0561 5.79188ZM36.4237 4.43369V6.69217Q36.4237 7.42948 36.0085 7.81365Q35.5933 8.19782 34.8793 8.19782Q34.1652 8.19782 33.7539 7.81365Q33.3426 7.42948 33.3426 6.69217V4.43369Q33.3426 4.3716 33.3891 4.32503Q33.4357 4.27846 33.4978 4.27846Q33.5676 4.27846 33.6103 4.32503Q33.653 4.3716 33.653 4.43369V6.69217Q33.653 7.27425 33.979 7.58858Q34.3049 7.9029 34.8793 7.9029Q35.4613 7.9029 35.7873 7.58858Q36.1133 7.27425 36.1133 6.69217V4.43369Q36.1133 4.3716 36.156 4.32503Q36.1986 4.27846 36.2685 4.27846Q36.3383 4.27846 36.381 4.32503Q36.4237 4.3716 36.4237 4.43369ZM40.8631 5.62114V7.99604Q40.8631 8.05812 40.8165 8.10469Q40.7699 8.15126 40.7079 8.15126Q40.638 8.15126 40.5953 8.10469Q40.5526 8.05812 40.5526 7.99604V5.65218Q40.5526 5.12443 40.2771 4.78682Q40.0016 4.44921 39.4428 4.44921Q39.1013 4.44921 38.7715 4.61219Q38.4416 4.77517 38.2321 5.05457Q38.0225 5.33397 38.0225 5.65218V7.99604Q38.0225 8.05812 37.9759 8.10469Q37.9294 8.15126 37.8673 8.15126Q37.7974 8.15126 37.7547 8.10469Q37.7121 8.05812 37.7121 7.99604V4.43369Q37.7121 4.3716 37.7586 4.32503Q37.8052 4.27846 37.8673 4.27846Q37.9371 4.27846 37.9798 4.32503Q38.0225 4.3716 38.0225 4.43369V4.95368Q38.2476 4.60443 38.655 4.37936Q39.0625 4.15429 39.4738 4.15429Q40.1646 4.15429 40.5138 4.56174Q40.8631 4.9692 40.8631 5.62114ZM42.3066 8.15126Q42.2368 8.15126 42.1941 8.10469Q42.1514 8.05812 42.1514 7.99604V4.30951Q42.1514 4.24742 42.198 4.20085Q42.2446 4.15429 42.3066 4.15429Q42.3765 4.15429 42.4192 4.20085Q42.4619 4.24742 42.4619 4.30951V7.99604Q42.4619 8.05812 42.4153 8.10469Q42.3687 8.15126 42.3066 8.15126ZM42.035 3.37818V3.31609Q42.035 3.20743 42.1126 3.13758Q42.1902 3.06773 42.3144 3.06773Q42.4231 3.06773 42.4968 3.13758Q42.5705 3.20743 42.5705 3.31609V3.37818Q42.5705 3.48683 42.4968 3.55668Q42.4231 3.62653 42.3066 3.62653Q42.1825 3.62653 42.1087 3.55668Q42.035 3.48683 42.035 3.37818ZM45.3412 4.39488Q45.3412 4.45697 45.2985 4.49966Q45.2559 4.54234 45.1938 4.54234H44.3401V7.3053Q44.3401 7.64679 44.4603 7.75932Q44.5806 7.87186 44.7669 7.87186Q44.798 7.87186 44.8562 7.85634Q44.9144 7.84081 44.9532 7.84081Q45.0075 7.84081 45.0463 7.8835Q45.0851 7.92619 45.0851 7.98051Q45.0851 8.05036 44.992 8.10081Q44.8989 8.15126 44.7747 8.15126Q44.5806 8.15126 44.4487 8.12409Q44.3168 8.09693 44.1732 7.91454Q44.0296 7.73216 44.0296 7.32082V4.54234H43.3932Q43.3389 4.54234 43.2923 4.49578Q43.2457 4.44921 43.2457 4.39488Q43.2457 4.33279 43.2884 4.29011Q43.3311 4.24742 43.3932 4.24742H44.0296V3.26176Q44.0296 3.19967 44.0762 3.1531Q44.1227 3.10654 44.1848 3.10654Q44.2547 3.10654 44.2974 3.1531Q44.3401 3.19967 44.3401 3.26176V4.24742H45.1938Q45.2481 4.24742 45.2947 4.29399Q45.3412 4.34055 45.3412 4.39488Z" style="display:inline;stroke:#000000;stroke-width:0.35;stroke-linecap:round;stroke-linejoin:bevel" />
        <g id="port_artwork">
            <path id="input_connector_path" style="stroke:#000000;stroke-width:0.25;stroke-linecap:round;stroke-linejoin:bevel;stroke-dasharray:none" d="M 9,114.5 L 23,114.5 z" />
            <path id="drive_connector_path" style="stroke:#000000;stroke-width:0.25;stroke-linecap:round;stroke-linejoin:bevel;stroke-dasharray:none" d="M 40.50,107.50 L 52.50,102.50 M 40.50,107.50 L 52.50,112.50 " />
            <path d="M14.7269 113.014Q14.6916 113.014 14.6722 112.993Q14.6528 112.972 14.6528 112.94V110.619Q14.6528 110.587 14.6739 110.566Q14.6951 110.545 14.7269 110.545Q14.7586 110.545 14.7798 110.566Q14.8009 110.587 14.8009 110.619V112.94Q14.7974 112.972 14.7763 112.993Q14.7551 113.014 14.7269 113.014ZM17.3586 110.612V112.937Q17.3586 112.975 17.3374 112.995Q17.3163 113.014 17.2845 113.014Q17.2492 113.014 17.2281 112.986L15.6406 110.816V112.954Q15.6406 112.979 15.6212 112.997Q15.6018 113.014 15.5735 113.014Q15.5418 113.014 15.5241 112.997Q15.5065 112.979 15.5065 112.954V110.615Q15.5065 110.58 15.5259 110.562Q15.5453 110.545 15.57 110.545Q15.6018 110.545 15.6229 110.569L17.2245 112.753V110.612Q17.2245 110.584 17.2439 110.564Q17.2633 110.545 17.2916 110.545Q17.3233 110.545 17.3409 110.564Q17.3586 110.584 17.3586 110.612Z" style="stroke:#000000;stroke-width:0.25;stroke-linecap:round;stroke-linejoin:bevel" />
            <path d="M9.88858 110.044Q9.88858 110.075 9.86742 110.095Q9.84625 110.114 9.81803 110.114H8.52333Q8.49158 110.114 8.47218 110.093Q8.45278 110.072 8.45278 110.044V107.715Q8.45278 107.687 8.47394 107.666Q8.49511 107.645 8.52686 107.645Q8.55861 107.645 8.57978 107.666Q8.60094 107.687 8.60094 107.715V109.973H9.81803Q9.84625 109.973 9.86742 109.994Q9.88858 110.015 9.88858 110.044Z" style="stroke:#000000;stroke-width:0.25;stroke-linecap:round;stroke-linejoin:bevel" />
            <path d="M23.9484 110.04Q23.9484 110.072 23.929 110.091Q23.9096 110.111 23.8814 110.111Q23.8602 110.111 23.8496 110.104Q23.7544 110.051 23.6979 109.925Q23.6415 109.8 23.6415 109.514Q23.6415 109.225 23.4863 109.118Q23.3311 109.01 23.1264 109.01H22.3009V110.044Q22.3009 110.072 22.2798 110.093Q22.2586 110.114 22.2269 110.114Q22.1951 110.114 22.1739 110.093Q22.1528 110.072 22.1528 110.044V107.715Q22.1528 107.687 22.1739 107.666Q22.1951 107.645 22.2233 107.645H23.1547Q23.3593 107.645 23.518 107.728Q23.6768 107.811 23.765 107.955Q23.8532 108.1 23.8532 108.283Q23.8532 108.52 23.7279 108.689Q23.6027 108.858 23.4016 108.918Q23.5709 108.971 23.6803 109.128Q23.7897 109.285 23.7897 109.514Q23.7897 109.751 23.8197 109.844Q23.8496 109.938 23.9096 109.977Q23.9484 110.001 23.9484 110.04ZM23.1723 108.869Q23.3946 108.848 23.5498 108.693Q23.705 108.537 23.705 108.287Q23.705 108.068 23.5498 107.927Q23.3946 107.786 23.137 107.786H22.3009V108.869Z" style="stroke:#000000;stroke-width:0.25;stroke-linecap:round;stroke-linejoin:bevel" />
            <path d="M58.7886 103.544Q58.7886 103.575 58.7674 103.595Q58.7463 103.614 58.718 103.614H57.4233Q57.3916 103.614 57.3722 103.593Q57.3528 103.572 57.3528 103.544V101.215Q57.3528 101.187 57.3739 101.166Q57.3951 101.145 57.4269 101.145Q57.4586 101.145 57.4798 101.166Q57.5009 101.187 57.5009 101.215V103.473H58.718Q58.7463 103.473 58.7674 103.494Q58.7886 103.515 58.7886 103.544Z" style="stroke:#000000;stroke-width:0.25;stroke-linecap:round;stroke-linejoin:bevel" />
            <path d="M59.1484 113.54Q59.1484 113.572 59.129 113.591Q59.1096 113.611 59.0814 113.611Q59.0602 113.611 59.0496 113.604Q58.9544 113.551 58.8979 113.425Q58.8415 113.3 58.8415 113.014Q58.8415 112.725 58.6863 112.618Q58.5311 112.51 58.3264 112.51H57.5009V113.544Q57.5009 113.572 57.4798 113.593Q57.4586 113.614 57.4269 113.614Q57.3951 113.614 57.3739 113.593Q57.3528 113.572 57.3528 113.544V111.215Q57.3528 111.187 57.3739 111.166Q57.3951 111.145 57.4233 111.145H58.3547Q58.5593 111.145 58.718 111.228Q58.8768 111.311 58.965 111.455Q59.0532 111.6 59.0532 111.783Q59.0532 112.02 58.9279 112.189Q58.8027 112.358 58.6016 112.418Q58.7709 112.471 58.8803 112.628Q58.9897 112.785 58.9897 113.014Q58.9897 113.251 59.0197 113.344Q59.0496 113.438 59.1096 113.477Q59.1484 113.501 59.1484 113.54ZM58.3723 112.369Q58.5946 112.348 58.7498 112.193Q58.905 112.037 58.905 111.787Q58.905 111.568 58.7498 111.427Q58.5946 111.286 58.337 111.286H57.5009V112.369Z" style="stroke:#000000;stroke-width:0.25;stroke-linecap:round;stroke-linejoin:bevel" />
        </g>
    </g>
</svg>
