<?xml version="1.0" encoding="utf-8"?>
<svg xmlns="http://www.w3.org/2000/svg" width="30.48mm" height="128.50mm" viewBox="0 0 30.48 128.50">
    <g id="PanelLayer">
        <defs />
        <rect id="border_rect" width="30.48" height="128.5" x="0" y="0" style="display:inline;fill:#4f8df2;fill-opacity:1;stroke:none;" />
        <path id="sapphire_gemstone" d="m 17.955,122.900 q 0,0.34175 -0.242534,0.63114 -0.0441,0.0524 -0.20395,0.21497 -0.187413,0.19017 -0.785481,0.81304 l -1.444183,1.51309 q -0.01929,0.003 -0.0441,0.003 -0.02756,0 -0.04134,-0.003 -0.08268,-0.0827 -0.647678,-0.67524 -0.468532,-0.47404 -0.934309,-0.94809 -0.556727,-0.56775 -0.89848,-0.98116 -0.132292,-0.15985 -0.168121,-0.29766 -0.02756,-0.10197 -0.02756,-0.34175 0,-0.11024 0.07166,-0.28939 0.06614,-0.16536 0.140559,-0.26458 0.118512,-0.1571 0.42168,-0.42444 0.283875,-0.2508 0.474044,-0.37482 0.272852,-0.17915 0.818555,-0.36656 0.09646,-0.0331 0.110243,-0.0331 h 1.3615 q 0.01102,0 0.104731,0.0331 0.567751,0.20119 0.824066,0.36656 0.165365,0.10473 0.474045,0.37758 0.322461,0.28388 0.421679,0.42168 0.214974,0.2949 0.214974,0.62563 z m -0.16812,-0.27285 q -0.03307,-0.10749 -0.135048,-0.30868 -0.07166,-0.0937 -0.209462,-0.19844 -0.118511,-0.0854 -0.234266,-0.17088 0.245291,0.3638 0.578776,0.678 z m -0.573264,-0.52366 -0.358289,-0.44648 v 0.41065 z m 0.636653,0.75792 q 0,-0.0524 -0.341753,-0.39412 l 0.228754,0.7028 h 0.04961 q 0.06339,-0.21773 0.06339,-0.30868 z m -0.23151,0.27285 -0.316948,-0.90399 -0.410655,-0.0634 -0.159853,0.61461 z m 0.0028,0.15434 -0.771701,-0.3197 h -0.03032 l 0.344509,0.60634 q 0.07993,-0.003 0.234266,-0.0469 0.02481,-0.0138 0.223242,-0.23978 z m -0.857139,-1.05006 -0.719335,0.28388 0.60358,0.22599 z m 0,-0.16261 v -0.51538 l -0.917773,-0.38034 h -1.223697 l -0.917772,0.38034 v 0.51538 l 0.89848,0.4079 h 1.254014 z m 0.573264,1.53789 q -0.0689,0.011 -0.198438,0.0524 -0.08544,0.0551 -0.259071,0.16261 0.01929,0 0.06339,0.003 0.04134,0 0.06339,0 0.118511,0 0.190169,-0.0689 0.07166,-0.0717 0.14056,-0.14883 z m -0.289388,0.003 -0.347266,-0.63114 -0.363801,0.87918 q 0.0248,-0.0165 0.06615,-0.0165 0.03032,0 0.08544,0.011 0.05788,0.008 0.08819,0.008 0.04961,0 0.228754,-0.10749 0.228754,-0.1378 0.242535,-0.14331 z m -0.440972,-0.74139 -0.683507,-0.2756 -0.592556,0.54845 0.903993,0.65595 z m -0.854383,-0.28387 h -1.036284 l 0.523654,0.47404 z m 0.749652,1.36701 q -0.228754,-0.0303 -0.228754,-0.0303 -0.03583,0 -0.272851,0.0937 l 0.190169,0.0193 q 0.01102,0 0.311436,-0.0827 z m -0.388606,-0.0882 -0.843359,-0.61185 v 0.67524 l 0.471289,0.0827 z m 0.854383,0.0496 q -0.09922,0.006 -0.2949,0.0386 -0.01102,0.003 -0.377583,0.17639 -0.129535,0.34726 -0.380338,1.0418 z m -2.543857,-1.39733 -0.719335,-0.28388 0.124023,0.51814 z m -0.802018,-0.45476 v -0.41065 l -0.366557,0.44648 z m 1.515841,1.07212 -0.592556,-0.54019 -0.683506,0.2756 0.380338,0.9288 z m 0.369314,0.94257 q -0.03307,-0.003 -0.135047,-0.0248 -0.08544,-0.0165 -0.137804,-0.0165 -0.05237,0 -0.137804,0.0165 -0.101975,0.0221 -0.135047,0.0248 0.264583,0.0469 0.272851,0.0469 0.0083,0 0.272851,-0.0469 z m -0.30868,-0.1378 v -0.68626 l -0.843359,0.61185 0.37207,0.14607 z m 0.950846,0.20671 -0.396875,-0.0551 -0.479557,0.14056 v 1.27607 z m -2.888366,-2.20211 q -0.118512,0.0854 -0.234267,0.17364 -0.146072,0.10748 -0.209461,0.19568 -0.0441,0.10473 -0.135048,0.31419 0.369314,-0.3638 0.578776,-0.68351 z m 0.476801,0.83234 -0.159853,-0.61461 -0.410655,0.0634 -0.316948,0.90399 z m 0.394118,1.08313 -0.363802,-0.87918 -0.355533,0.63114 q 0.43546,0.2508 0.451996,0.2508 0.09095,0 0.267339,-0.003 z m 1.821765,0.82958 q -0.132291,0.21222 -0.405143,0.6339 -0.07717,0.10749 -0.220486,0.32797 -0.05788,0.10473 -0.05512,0.226 0.159852,-0.15158 0.432704,-0.49609 0.07717,-0.12954 0.140559,-0.339 0.05512,-0.17639 0.107486,-0.35278 z m -1.493792,-0.66146 -0.270095,-0.0882 -0.0083,-0.011 q -0.02481,0 -0.107487,0.011 -0.06615,0.006 -0.107487,0.006 0.272851,0.091 0.311436,0.091 0.02481,0 0.181901,-0.008 z m -0.810286,-1.06384 h -0.03032 l -0.7717,0.3197 q 0.06615,0.0965 0.223242,0.23978 0.07717,0.0138 0.234266,0.0469 z m -0.689018,-0.50161 q -0.341754,0.34727 -0.341754,0.39412 0,0.0799 0.06339,0.30868 h 0.04961 z m 2.235176,3.04547 v -1.27607 l -0.479557,-0.14056 -0.396875,0.0551 z m -1.606791,-1.6757 q -0.256315,-0.1819 -0.457509,-0.22324 0.06615,0.0772 0.20395,0.22324 z m 1.609547,2.04501 v -0.1378 l -0.683507,-1.05007 q 0.05237,0.17639 0.107487,0.35278 0.06339,0.20946 0.14056,0.339 0.0689,0.11851 0.20395,0.25907 0.115755,0.11851 0.23151,0.23702 z m -0.644921,-0.70555 q -0.115756,-0.32798 -0.380339,-1.0418 -0.135047,-0.0662 -0.272851,-0.12954 -0.159852,-0.0716 -0.289388,-0.0716 -0.05237,0 -0.110243,-0.0138 z" style="stroke-width:0;fill:#0000ff;stroke:#2e2114;stroke-linecap:square;stroke-opacity:1" />
        <path id="model_name" d="M11.6272 4.26294Q11.6272 4.30951 11.6039 4.35608L10.0595 8.05036Q10.0439 8.09693 10.0013 8.12409Q9.95856 8.15126 9.912 8.15126Q9.86543 8.15126 9.82274 8.12409Q9.78006 8.09693 9.76454 8.05036L8.21231 4.36384Q8.19679 4.31727 8.19679 4.29399Q8.19679 4.2319 8.23948 4.18533Q8.28216 4.13876 8.35978 4.13876Q8.39858 4.13876 8.44127 4.16593Q8.48395 4.19309 8.49948 4.23966L9.90424 7.61574L11.3168 4.23966Q11.3556 4.13876 11.4797 4.13876Q11.5263 4.13876 11.5768 4.17369Q11.6272 4.20861 11.6272 4.26294ZM12.7215 8.15126Q12.6517 8.15126 12.609 8.10469Q12.5663 8.05812 12.5663 7.99604V4.30951Q12.5663 4.24742 12.6129 4.20085Q12.6594 4.15429 12.7215 4.15429Q12.7914 4.15429 12.8341 4.20085Q12.8767 4.24742 12.8767 4.30951V7.99604Q12.8767 8.05812 12.8302 8.10469Q12.7836 8.15126 12.7215 8.15126ZM12.4499 3.37818V3.31609Q12.4499 3.20743 12.5275 3.13758Q12.6051 3.06773 12.7293 3.06773Q12.8379 3.06773 12.9117 3.13758Q12.9854 3.20743 12.9854 3.31609V3.37818Q12.9854 3.48683 12.9117 3.55668Q12.8379 3.62653 12.7215 3.62653Q12.5973 3.62653 12.5236 3.55668Q12.4499 3.48683 12.4499 3.37818ZM17.3161 5.62114V7.99604Q17.3161 8.05812 17.2695 8.10469Q17.223 8.15126 17.1609 8.15126Q17.091 8.15126 17.0483 8.10469Q17.0057 8.05812 17.0057 7.99604V5.65218Q17.0057 5.12443 16.7301 4.78682Q16.4546 4.44921 15.8958 4.44921Q15.5543 4.44921 15.2245 4.61219Q14.8946 4.77517 14.6851 5.05457Q14.4755 5.33397 14.4755 5.65218V7.99604Q14.4755 8.05812 14.429 8.10469Q14.3824 8.15126 14.3203 8.15126Q14.2505 8.15126 14.2078 8.10469Q14.1651 8.05812 14.1651 7.99604V4.43369Q14.1651 4.3716 14.2117 4.32503Q14.2582 4.27846 14.3203 4.27846Q14.3902 4.27846 14.4328 4.32503Q14.4755 4.3716 14.4755 4.43369V4.95368Q14.7006 4.60443 15.1081 4.37936Q15.5155 4.15429 15.9269 4.15429Q16.6176 4.15429 16.9668 4.56174Q17.3161 4.9692 17.3161 5.62114ZM21.934 4.43369V7.99604Q21.934 8.05812 21.8874 8.10469Q21.8408 8.15126 21.7787 8.15126Q21.7089 8.15126 21.6662 8.10469Q21.6235 8.05812 21.6235 7.99604V7.29754Q21.4295 7.69335 21.0259 7.96111Q20.6223 8.22887 20.1334 8.22887Q19.6211 8.22887 19.2098 7.96111Q18.7985 7.69335 18.5656 7.22381Q18.3328 6.75426 18.3328 6.17217Q18.3328 5.59785 18.5695 5.13607Q18.8062 4.67428 19.2176 4.41428Q19.6289 4.15429 20.1334 4.15429Q20.6379 4.15429 21.0414 4.41816Q21.445 4.68204 21.6235 5.12443V4.43369Q21.6235 4.3716 21.6662 4.32503Q21.7089 4.27846 21.7787 4.27846Q21.8486 4.27846 21.8913 4.32503Q21.934 4.3716 21.934 4.43369ZM21.6546 6.17217Q21.6546 5.69875 21.4605 5.30293Q21.2665 4.90711 20.9211 4.67816Q20.5758 4.44921 20.1489 4.44921Q19.722 4.44921 19.3767 4.6704Q19.0313 4.89159 18.8373 5.28353Q18.6432 5.67546 18.6432 6.17217Q18.6432 6.66889 18.8373 7.07246Q19.0313 7.47604 19.3728 7.70499Q19.7143 7.93395 20.1489 7.93395Q20.5758 7.93395 20.9211 7.70499Q21.2665 7.47604 21.4605 7.07246Q21.6546 6.66889 21.6546 6.17217Z" style="display:inline;stroke:#000000;stroke-width:0.35;stroke-linecap:round;stroke-linejoin:bevel" />
        <path d="M 6.24,22.00 L 24.24,22.00 z " style="stroke:#000000;stroke-width:0.25;stroke-linecap:round;stroke-linejoin:bevel;stroke-dasharray:none" />
        <path d="M 6.24,35.50 L 24.24,35.50 z " style="stroke:#000000;stroke-width:0.25;stroke-linecap:round;stroke-linejoin:bevel;stroke-dasharray:none" />
        <path d="M 6.24,76.00 L 24.24,76.00 z " style="stroke:#000000;stroke-width:0.25;stroke-linecap:round;stroke-linejoin:bevel;stroke-dasharray:none" />
        <path d="M 6.24,49.00 L 24.24,49.00 z " style="stroke:#000000;stroke-width:0.25;stroke-linecap:round;stroke-linejoin:bevel;stroke-dasharray:none" />
        <path d="M 6.24,62.50 L 24.24,62.50 z " style="stroke:#000000;stroke-width:0.25;stroke-linecap:round;stroke-linejoin:bevel;stroke-dasharray:none" />
        <path d="M12.513 14.8499Q12.513 14.8817 12.4919 14.9011Q12.4707 14.9205 12.4425 14.9205H11.1831V15.8942H12.2837Q12.3119 15.8942 12.3331 15.9153Q12.3543 15.9365 12.3543 15.9647Q12.3543 15.9965 12.3331 16.0159Q12.3119 16.0353 12.2837 16.0353H11.1831V17.1783Q11.1831 17.2065 11.1637 17.2277Q11.1443 17.2488 11.1125 17.2488Q11.0808 17.2488 11.0613 17.2277Q11.0419 17.2065 11.0419 17.1783V14.8499Q11.0419 14.8217 11.0631 14.8006Q11.0843 14.7794 11.1125 14.7794H12.4425Q12.4707 14.7794 12.4919 14.8006Q12.513 14.8217 12.513 14.8499ZM14.8378 17.1747Q14.8378 17.2065 14.8184 17.2259Q14.799 17.2453 14.7708 17.2453Q14.7496 17.2453 14.7391 17.2383Q14.6438 17.1853 14.5874 17.0601Q14.5309 16.9349 14.5309 16.6491Q14.5309 16.3598 14.3757 16.2522Q14.2205 16.1446 14.0159 16.1446H13.1904V17.1783Q13.1904 17.2065 13.1692 17.2277Q13.148 17.2488 13.1163 17.2488Q13.0845 17.2488 13.0634 17.2277Q13.0422 17.2065 13.0422 17.1783V14.8499Q13.0422 14.8217 13.0634 14.8006Q13.0845 14.7794 13.1128 14.7794H14.0441Q14.2487 14.7794 14.4074 14.8623Q14.5662 14.9452 14.6544 15.0898Q14.7426 15.2345 14.7426 15.4179Q14.7426 15.6543 14.6173 15.8236Q14.4921 15.9929 14.291 16.0529Q14.4604 16.1058 14.5697 16.2628Q14.6791 16.4198 14.6791 16.6491Q14.6791 16.8855 14.7091 16.979Q14.7391 17.0724 14.799 17.1113Q14.8378 17.1359 14.8378 17.1747ZM14.0617 16.0035Q14.284 15.9824 14.4392 15.8271Q14.5944 15.6719 14.5944 15.4214Q14.5944 15.2027 14.4392 15.0616Q14.284 14.9205 14.0264 14.9205H13.1904V16.0035ZM16.8557 17.1783Q16.8557 17.21 16.8346 17.2294Q16.8134 17.2488 16.7852 17.2488H15.4552Q15.427 17.2488 15.4058 17.2277Q15.3846 17.2065 15.3846 17.1783V14.8499Q15.3846 14.8217 15.4058 14.8006Q15.427 14.7794 15.4552 14.7794H16.7852Q16.8134 14.7794 16.8346 14.8006Q16.8557 14.8217 16.8557 14.8499Q16.8557 14.8817 16.8346 14.9011Q16.8134 14.9205 16.7852 14.9205H15.5328V15.9047H16.6264Q16.6546 15.9047 16.6758 15.9259Q16.697 15.9471 16.697 15.9753Q16.697 16.0071 16.6758 16.0265Q16.6546 16.0459 16.6264 16.0459H15.5328V17.1077H16.7852Q16.8134 17.1077 16.8346 17.1289Q16.8557 17.1501 16.8557 17.1783ZM19.8438 17.5381Q19.8438 17.6051 19.745 17.6739Q19.6462 17.7427 19.4998 17.7868Q19.3534 17.8309 19.2229 17.8309Q19.0288 17.8309 18.8948 17.7886Q18.7607 17.7462 18.5879 17.6616Q18.4432 17.5875 18.3374 17.5522Q18.2316 17.5169 18.094 17.5169Q18.0446 17.5169 18.004 17.5293Q17.9634 17.5416 17.907 17.5663Q17.8435 17.5946 17.8223 17.5946Q17.7941 17.5946 17.7729 17.5734Q17.7518 17.5522 17.7518 17.5205Q17.7518 17.4781 17.7906 17.4605L18.3056 17.2806Q17.9846 17.2629 17.7359 17.0971Q17.4872 16.9313 17.3478 16.6509Q17.2085 16.3704 17.2085 16.0141Q17.2085 15.6437 17.3584 15.3544Q17.5084 15.0651 17.7765 14.9046Q18.0446 14.7441 18.3868 14.7441Q18.729 14.7441 18.9971 14.9046Q19.2652 15.0651 19.4151 15.3544Q19.5651 15.6437 19.5651 16.0141Q19.5651 16.3316 19.4539 16.5891Q19.3428 16.8467 19.14 17.0195Q18.9371 17.1924 18.6725 17.2524L18.2386 17.3935Q18.348 17.4041 18.4415 17.4393Q18.5349 17.4746 18.6655 17.5381Q18.8348 17.6193 18.9512 17.6581Q19.0676 17.6969 19.2229 17.6969Q19.3534 17.6969 19.4469 17.6633Q19.5404 17.6298 19.6286 17.5804Q19.6568 17.5663 19.6956 17.5275Q19.7168 17.5064 19.7397 17.4922Q19.7626 17.4781 19.7838 17.4781Q19.812 17.4781 19.8279 17.494Q19.8438 17.5099 19.8438 17.5381ZM18.3868 17.143Q18.6866 17.143 18.9212 17.0019Q19.1558 16.8608 19.2864 16.6032Q19.4169 16.3457 19.4169 16.0141Q19.4169 15.6825 19.2864 15.425Q19.1558 15.1674 18.9212 15.0263Q18.6866 14.8852 18.3868 14.8852Q18.0869 14.8852 17.8523 15.0263Q17.6177 15.1674 17.4872 15.425Q17.3567 15.6825 17.3567 16.0141Q17.3567 16.3457 17.4872 16.6032Q17.6177 16.8608 17.8523 17.0019Q18.0869 17.143 18.3868 17.143Z" style="stroke:#000000;stroke-width:0.25;stroke-linecap:round;stroke-linejoin:bevel" />
        <path d="M13.021 30.7841Q12.6788 30.7841 12.4107 30.6236Q12.1426 30.4631 11.9927 30.1738Q11.8428 29.8845 11.8428 29.5141Q11.8428 29.1437 11.9927 28.8544Q12.1426 28.5651 12.4107 28.4046Q12.6788 28.2441 13.021 28.2441Q13.3632 28.2441 13.6313 28.4046Q13.8994 28.5651 14.0494 28.8544Q14.1993 29.1437 14.1993 29.5141Q14.1993 29.8845 14.0494 30.1738Q13.8994 30.4631 13.6313 30.6236Q13.3632 30.7841 13.021 30.7841ZM13.021 28.3852Q12.7212 28.3852 12.4866 28.5263Q12.252 28.6674 12.1214 28.925Q11.9909 29.1825 11.9909 29.5141Q11.9909 29.8457 12.1214 30.1032Q12.252 30.3608 12.4866 30.5019Q12.7212 30.643 13.021 30.643Q13.3209 30.643 13.5555 30.5019Q13.7901 30.3608 13.9206 30.1032Q14.0511 29.8457 14.0511 29.5141Q14.0511 29.1825 13.9206 28.925Q13.7901 28.6674 13.5555 28.5263Q13.3209 28.3852 13.021 28.3852ZM16.5876 28.5404Q16.5876 28.5687 16.5735 28.5863Q16.5523 28.6145 16.5206 28.6145Q16.5065 28.6145 16.4782 28.6004Q16.1502 28.3782 15.7833 28.3782Q15.4869 28.3782 15.2382 28.5246Q14.9895 28.671 14.8449 28.9303Q14.7003 29.1896 14.7003 29.5141Q14.7003 29.8387 14.8449 30.098Q14.9895 30.3573 15.2382 30.5037Q15.4869 30.6501 15.7833 30.6501Q16.1537 30.6501 16.4747 30.4313Q16.4924 30.4172 16.5171 30.4172Q16.5523 30.4172 16.5735 30.4454Q16.5876 30.4631 16.5876 30.4878Q16.5876 30.5231 16.5594 30.5442Q16.4218 30.643 16.2048 30.7136Q15.9879 30.7841 15.7833 30.7841Q15.4481 30.7841 15.1659 30.6183Q14.8837 30.4525 14.7179 30.1615Q14.5521 29.8704 14.5521 29.5141Q14.5521 29.1578 14.7179 28.8668Q14.8837 28.5757 15.1659 28.4099Q15.4481 28.2441 15.7833 28.2441Q15.9949 28.2441 16.1943 28.3076Q16.3936 28.3711 16.5559 28.484Q16.5876 28.5087 16.5876 28.5404ZM18.6902 28.3464Q18.6902 28.3782 18.6708 28.3958Q18.6514 28.4134 18.6196 28.4134H17.8329V30.6783Q17.8329 30.7065 17.8118 30.7277Q17.7906 30.7488 17.7624 30.7488Q17.7306 30.7488 17.7112 30.7277Q17.6918 30.7065 17.6918 30.6783V28.4134H16.9051Q16.8769 28.4134 16.8557 28.394Q16.8346 28.3746 16.8346 28.3464Q16.8346 28.3182 16.8557 28.2988Q16.8769 28.2794 16.9051 28.2794H18.6196Q18.6478 28.2794 18.669 28.2988Q18.6902 28.3182 18.6902 28.3464Z" style="stroke:#000000;stroke-width:0.25;stroke-linecap:round;stroke-linejoin:bevel" />
        <path d="M13.3844 70.1023V70.9878Q13.3844 71.0301 13.3526 71.0513Q13.1904 71.1606 12.9981 71.2224Q12.8058 71.2841 12.6083 71.2841Q12.2449 71.2841 11.9574 71.1201Q11.6699 70.956 11.5058 70.6668Q11.3418 70.3775 11.3418 70.0141Q11.3418 69.6508 11.5058 69.3615Q11.6699 69.0722 11.9574 68.9082Q12.2449 68.7441 12.6083 68.7441Q12.8058 68.7441 12.984 68.7917Q13.1621 68.8394 13.3033 68.9346Q13.335 68.9558 13.335 68.9946Q13.335 69.0263 13.3121 69.0457Q13.2891 69.0651 13.268 69.0651Q13.2503 69.0651 13.2221 69.051Q12.9258 68.8852 12.6083 68.8852Q12.2837 68.8852 12.0297 69.0299Q11.7757 69.1745 11.6328 69.432Q11.49 69.6896 11.49 70.0141Q11.49 70.3387 11.6328 70.5962Q11.7757 70.8537 12.0297 70.9984Q12.2837 71.143 12.6083 71.143Q12.7706 71.143 12.9381 71.0918Q13.1057 71.0407 13.2433 70.956V70.1729H12.6083Q12.5801 70.1729 12.5589 70.1517Q12.5377 70.1305 12.5377 70.1023Q12.5377 70.0706 12.5589 70.0512Q12.5801 70.0318 12.6083 70.0318H13.3138Q13.3456 70.0318 13.365 70.0529Q13.3844 70.0741 13.3844 70.1023ZM15.7797 71.1818Q15.7797 71.2136 15.7586 71.2312Q15.7374 71.2488 15.7057 71.2488Q15.681 71.2488 15.6616 71.2365Q15.6422 71.2241 15.6351 71.203L15.3388 70.4763L15.3423 70.4833H14.1605L13.8748 71.203Q13.8571 71.2488 13.8112 71.2488Q13.7795 71.2488 13.7601 71.2312Q13.7407 71.2136 13.7372 71.1889Q13.7336 71.1748 13.7407 71.1536L14.6897 68.8182Q14.7003 68.79 14.7161 68.7812Q14.732 68.7723 14.7567 68.7723Q14.8096 68.7723 14.8272 68.8182L15.7762 71.1536Q15.7797 71.1642 15.7797 71.1818ZM14.2169 70.3422H15.2859L14.7461 69.0122ZM16.3301 71.2488Q16.2948 71.2488 16.2754 71.2277Q16.256 71.2065 16.256 71.1748V68.8535Q16.256 68.8217 16.2772 68.8006Q16.2983 68.7794 16.3301 68.7794Q16.3618 68.7794 16.383 68.8006Q16.4042 68.8217 16.4042 68.8535V71.1748Q16.4006 71.2065 16.3795 71.2277Q16.3583 71.2488 16.3301 71.2488ZM18.9618 68.8464V71.1712Q18.9618 71.21 18.9406 71.2294Q18.9195 71.2488 18.8877 71.2488Q18.8524 71.2488 18.8313 71.2206L17.2438 69.051V71.1889Q17.2438 71.2136 17.2244 71.2312Q17.205 71.2488 17.1767 71.2488Q17.145 71.2488 17.1274 71.2312Q17.1097 71.2136 17.1097 71.1889V68.8499Q17.1097 68.8147 17.1291 68.797Q17.1485 68.7794 17.1732 68.7794Q17.205 68.7794 17.2261 68.8041L18.8277 70.9878V68.8464Q18.8277 68.8182 18.8472 68.7988Q18.8666 68.7794 18.8948 68.7794Q18.9265 68.7794 18.9442 68.7988Q18.9618 68.8182 18.9618 68.8464Z" style="stroke:#000000;stroke-width:0.25;stroke-linecap:round;stroke-linejoin:bevel" />
        <path d="M14.1658 43.0141Q14.1658 43.3634 14.0547 43.6421Q13.9435 43.9207 13.7142 44.0848Q13.4849 44.2488 13.1427 44.2488H12.2255Q12.1973 44.2488 12.1761 44.2277Q12.155 44.2065 12.155 44.1783V41.8499Q12.155 41.8217 12.1761 41.8006Q12.1973 41.7794 12.2255 41.7794H13.1427Q13.4814 41.7794 13.7125 41.9487Q13.9435 42.1181 14.0547 42.3985Q14.1658 42.679 14.1658 43.0141ZM14.0176 43.0141Q14.0176 42.7142 13.9206 42.4655Q13.8236 42.2168 13.6208 42.0687Q13.4179 41.9205 13.1075 41.9205H12.3031V44.1077H13.1075Q13.5661 44.1077 13.7918 43.8061Q14.0176 43.5045 14.0176 43.0141ZM16.166 44.1783Q16.166 44.21 16.1449 44.2294Q16.1237 44.2488 16.0955 44.2488H14.7655Q14.7373 44.2488 14.7161 44.2277Q14.695 44.2065 14.695 44.1783V41.8499Q14.695 41.8217 14.7161 41.8006Q14.7373 41.7794 14.7655 41.7794H16.0955Q16.1237 41.7794 16.1449 41.8006Q16.166 41.8217 16.166 41.8499Q16.166 41.8817 16.1449 41.9011Q16.1237 41.9205 16.0955 41.9205H14.8431V42.9047H15.9367Q15.965 42.9047 15.9861 42.9259Q16.0073 42.9471 16.0073 42.9753Q16.0073 43.0071 15.9861 43.0265Q15.965 43.0459 15.9367 43.0459H14.8431V44.1077H16.0955Q16.1237 44.1077 16.1449 44.1289Q16.166 44.1501 16.166 44.1783ZM18.5543 42.0404Q18.5543 42.0687 18.5402 42.0863Q18.5191 42.1145 18.4873 42.1145Q18.4732 42.1145 18.445 42.1004Q18.1169 41.8782 17.75 41.8782Q17.4537 41.8782 17.205 42.0246Q16.9563 42.171 16.8116 42.4303Q16.667 42.6896 16.667 43.0141Q16.667 43.3387 16.8116 43.598Q16.9563 43.8572 17.205 44.0037Q17.4537 44.1501 17.75 44.1501Q18.1204 44.1501 18.4415 43.9313Q18.4591 43.9172 18.4838 43.9172Q18.5191 43.9172 18.5402 43.9454Q18.5543 43.9631 18.5543 43.9878Q18.5543 44.0231 18.5261 44.0442Q18.3885 44.143 18.1716 44.2136Q17.9546 44.2841 17.75 44.2841Q17.4149 44.2841 17.1327 44.1183Q16.8504 43.9525 16.6846 43.6615Q16.5188 43.3704 16.5188 43.0141Q16.5188 42.6578 16.6846 42.3668Q16.8504 42.0757 17.1327 41.9099Q17.4149 41.7441 17.75 41.7441Q17.9617 41.7441 18.161 41.8076Q18.3603 41.8711 18.5226 41.984Q18.5543 42.0087 18.5543 42.0404Z" style="stroke:#000000;stroke-width:0.25;stroke-linecap:round;stroke-linejoin:bevel" />
        <path d="M14.2963 57.6747Q14.2963 57.7065 14.2769 57.7259Q14.2575 57.7453 14.2293 57.7453Q14.2081 57.7453 14.1975 57.7382Q14.1023 57.6853 14.0458 57.5601Q13.9894 57.4349 13.9894 57.1491Q13.9894 56.8598 13.8342 56.7522Q13.679 56.6446 13.4743 56.6446H12.6488V57.6783Q12.6488 57.7065 12.6277 57.7277Q12.6065 57.7488 12.5748 57.7488Q12.543 57.7488 12.5218 57.7277Q12.5007 57.7065 12.5007 57.6783V55.3499Q12.5007 55.3217 12.5218 55.3006Q12.543 55.2794 12.5712 55.2794H13.5026Q13.7072 55.2794 13.8659 55.3623Q14.0247 55.4452 14.1129 55.5898Q14.2011 55.7345 14.2011 55.9179Q14.2011 56.1543 14.0758 56.3236Q13.9506 56.4929 13.7495 56.5529Q13.9188 56.6058 14.0282 56.7628Q14.1376 56.9198 14.1376 57.1491Q14.1376 57.3855 14.1676 57.479Q14.1975 57.5724 14.2575 57.6112Q14.2963 57.6359 14.2963 57.6747ZM13.5202 56.5035Q13.7425 56.4824 13.8977 56.3271Q14.0529 56.1719 14.0529 55.9214Q14.0529 55.7027 13.8977 55.5616Q13.7425 55.4205 13.4849 55.4205H12.6488V56.5035ZM16.3142 57.6783Q16.3142 57.71 16.293 57.7294Q16.2719 57.7488 16.2437 57.7488H14.9137Q14.8855 57.7488 14.8643 57.7277Q14.8431 57.7065 14.8431 57.6783V55.3499Q14.8431 55.3217 14.8643 55.3006Q14.8855 55.2794 14.9137 55.2794H16.2437Q16.2719 55.2794 16.293 55.3006Q16.3142 55.3217 16.3142 55.3499Q16.3142 55.3817 16.293 55.4011Q16.2719 55.4205 16.2437 55.4205H14.9913V56.4047H16.0849Q16.1131 56.4047 16.1343 56.4259Q16.1555 56.4471 16.1555 56.4753Q16.1555 56.5071 16.1343 56.5265Q16.1131 56.5459 16.0849 56.5459H14.9913V57.6077H16.2437Q16.2719 57.6077 16.293 57.6289Q16.3142 57.6501 16.3142 57.6783ZM18.2792 57.6783Q18.2792 57.71 18.258 57.7294Q18.2368 57.7488 18.2086 57.7488H16.9139Q16.8822 57.7488 16.8628 57.7277Q16.8434 57.7065 16.8434 57.6783V55.3499Q16.8434 55.3217 16.8645 55.3006Q16.8857 55.2794 16.9175 55.2794Q16.9492 55.2794 16.9704 55.3006Q16.9915 55.3217 16.9915 55.3499V57.6077H18.2086Q18.2368 57.6077 18.258 57.6289Q18.2792 57.6501 18.2792 57.6783Z" style="stroke:#000000;stroke-width:0.25;stroke-linecap:round;stroke-linejoin:bevel" />
        <path d="M4.11909 95.8429Q4.11909 95.857 4.11204 95.8782L3.14543 98.203Q3.12426 98.2488 3.0784 98.2488Q3.05723 98.2488 3.03783 98.2365Q3.01843 98.2241 3.01137 98.203L2.05181 95.8888Q2.04123 95.8676 2.04123 95.8464Q2.04123 95.8182 2.06063 95.7988Q2.08004 95.7794 2.10826 95.7794Q2.16118 95.7794 2.18587 95.8358L3.08193 97.9913L3.98151 95.8253Q4.0062 95.7794 4.04854 95.7794Q4.08029 95.7794 4.09969 95.797Q4.11909 95.8147 4.11909 95.8429ZM4.24256 98.6263Q4.24256 98.6051 4.25315 98.584L5.82301 95.5113Q5.8477 95.4654 5.86887 95.4495Q5.89004 95.4337 5.92531 95.4337Q5.95001 95.4337 5.96941 95.4513Q5.98881 95.4689 5.98881 95.5007Q5.98881 95.5289 5.9747 95.5571L4.40484 98.6334Q4.38368 98.6722 4.36427 98.6863Q4.34487 98.7004 4.31312 98.7004Q4.27784 98.7004 4.2602 98.6792Q4.24256 98.6581 4.24256 98.6263ZM7.38581 98.2841Q7.04362 98.2841 6.77551 98.1236Q6.5074 97.9631 6.35747 97.6738Q6.20754 97.3845 6.20754 97.0141Q6.20754 96.6437 6.35747 96.3544Q6.5074 96.0651 6.77551 95.9046Q7.04362 95.7441 7.38581 95.7441Q7.72801 95.7441 7.99612 95.9046Q8.26423 96.0651 8.41416 96.3544Q8.56409 96.6437 8.56409 97.0141Q8.56409 97.3845 8.41416 97.6738Q8.26423 97.9631 7.99612 98.1236Q7.72801 98.2841 7.38581 98.2841ZM7.38581 95.8852Q7.08595 95.8852 6.85136 96.0263Q6.61676 96.1674 6.48623 96.425Q6.3557 96.6825 6.3557 97.0141Q6.3557 97.3457 6.48623 97.6033Q6.61676 97.8608 6.85136 98.0019Q7.08595 98.143 7.38581 98.143Q7.68568 98.143 7.92027 98.0019Q8.15487 97.8608 8.2854 97.6033Q8.41593 97.3457 8.41593 97.0141Q8.41593 96.6825 8.2854 96.425Q8.15487 96.1674 7.92027 96.0263Q7.68568 95.8852 7.38581 95.8852ZM10.9524 96.0404Q10.9524 96.0687 10.9383 96.0863Q10.9171 96.1145 10.8854 96.1145Q10.8713 96.1145 10.843 96.1004Q10.515 95.8782 10.1481 95.8782Q9.85173 95.8782 9.60302 96.0246Q9.35431 96.171 9.20968 96.4303Q9.06504 96.6896 9.06504 97.0141Q9.06504 97.3387 9.20968 97.598Q9.35431 97.8573 9.60302 98.0037Q9.85173 98.1501 10.1481 98.1501Q10.5185 98.1501 10.8395 97.9313Q10.8571 97.9172 10.8818 97.9172Q10.9171 97.9172 10.9383 97.9454Q10.9524 97.9631 10.9524 97.9878Q10.9524 98.0231 10.9242 98.0442Q10.7866 98.143 10.5696 98.2136Q10.3527 98.2841 10.1481 98.2841Q9.81293 98.2841 9.5307 98.1183Q9.24848 97.9525 9.08268 97.6615Q8.91687 97.3704 8.91687 97.0141Q8.91687 96.6578 9.08268 96.3668Q9.24848 96.0757 9.5307 95.9099Q9.81293 95.7441 10.1481 95.7441Q10.3597 95.7441 10.5591 95.8076Q10.7584 95.8711 10.9206 95.984Q10.9524 96.0087 10.9524 96.0404ZM13.055 95.8464Q13.055 95.8782 13.0356 95.8958Q13.0161 95.9134 12.9844 95.9134H12.1977V98.1783Q12.1977 98.2065 12.1765 98.2277Q12.1554 98.2488 12.1271 98.2488Q12.0954 98.2488 12.076 98.2277Q12.0566 98.2065 12.0566 98.1783V95.9134H11.2699Q11.2417 95.9134 11.2205 95.894Q11.1993 95.8746 11.1993 95.8464Q11.1993 95.8182 11.2205 95.7988Q11.2417 95.7794 11.2699 95.7794H12.9844Q13.0126 95.7794 13.0338 95.7988Q13.055 95.8182 13.055 95.8464Z" style="stroke:#000000;stroke-width:0.25;stroke-linecap:round;stroke-linejoin:bevel" />
        <path d="M21.0387 97.1023V97.9878Q21.0387 98.0301 21.0069 98.0513Q20.8446 98.1606 20.6524 98.2224Q20.4601 98.2841 20.2626 98.2841Q19.8992 98.2841 19.6117 98.1201Q19.3242 97.956 19.1601 97.6668Q18.9961 97.3775 18.9961 97.0141Q18.9961 96.6508 19.1601 96.3615Q19.3242 96.0722 19.6117 95.9082Q19.8992 95.7441 20.2626 95.7441Q20.4601 95.7441 20.6383 95.7917Q20.8164 95.8394 20.9575 95.9346Q20.9893 95.9558 20.9893 95.9946Q20.9893 96.0263 20.9663 96.0457Q20.9434 96.0651 20.9223 96.0651Q20.9046 96.0651 20.8764 96.051Q20.5801 95.8852 20.2626 95.8852Q19.938 95.8852 19.684 96.0299Q19.43 96.1745 19.2871 96.432Q19.1443 96.6896 19.1443 97.0141Q19.1443 97.3387 19.2871 97.5962Q19.43 97.8537 19.684 97.9984Q19.938 98.143 20.2626 98.143Q20.4248 98.143 20.5924 98.0918Q20.76 98.0407 20.8976 97.956V97.1729H20.2626Q20.2343 97.1729 20.2132 97.1517Q20.192 97.1305 20.192 97.1023Q20.192 97.0706 20.2132 97.0512Q20.2343 97.0318 20.2626 97.0318H20.9681Q20.9999 97.0318 21.0193 97.0529Q21.0387 97.0741 21.0387 97.1023ZM23.434 98.1818Q23.434 98.2136 23.4129 98.2312Q23.3917 98.2488 23.3599 98.2488Q23.3353 98.2488 23.3158 98.2365Q23.2964 98.2241 23.2894 98.203L22.9931 97.4763L22.9966 97.4833H21.8148L21.529 98.203Q21.5114 98.2488 21.4655 98.2488Q21.4338 98.2488 21.4144 98.2312Q21.395 98.2136 21.3914 98.1889Q21.3879 98.1748 21.395 98.1536L22.3439 95.8182Q22.3545 95.79 22.3704 95.7812Q22.3863 95.7723 22.411 95.7723Q22.4639 95.7723 22.4815 95.8182L23.4305 98.1536Q23.434 98.1642 23.434 98.1818ZM21.8712 97.3422H22.9401L22.4004 96.0122ZM25.5366 95.8464Q25.5366 95.8782 25.5172 95.8958Q25.4978 95.9134 25.466 95.9134H24.6793V98.1783Q24.6793 98.2065 24.6582 98.2277Q24.637 98.2488 24.6088 98.2488Q24.577 98.2488 24.5576 98.2277Q24.5382 98.2065 24.5382 98.1783V95.9134H23.7515Q23.7233 95.9134 23.7021 95.894Q23.681 95.8746 23.681 95.8464Q23.681 95.8182 23.7021 95.7988Q23.7233 95.7794 23.7515 95.7794H25.466Q25.4943 95.7794 25.5154 95.7988Q25.5366 95.8182 25.5366 95.8464ZM27.4839 98.1783Q27.4839 98.21 27.4628 98.2294Q27.4416 98.2488 27.4134 98.2488H26.0834Q26.0552 98.2488 26.034 98.2277Q26.0128 98.2065 26.0128 98.1783V95.8499Q26.0128 95.8217 26.034 95.8006Q26.0552 95.7794 26.0834 95.7794H27.4134Q27.4416 95.7794 27.4628 95.8006Q27.4839 95.8217 27.4839 95.8499Q27.4839 95.8817 27.4628 95.9011Q27.4416 95.9205 27.4134 95.9205H26.161V96.9048H27.2546Q27.2828 96.9048 27.304 96.9259Q27.3252 96.9471 27.3252 96.9753Q27.3252 97.0071 27.304 97.0265Q27.2828 97.0459 27.2546 97.0459H26.161V98.1077H27.4134Q27.4416 98.1077 27.4628 98.1289Q27.4839 98.1501 27.4839 98.1783Z" style="stroke:#000000;stroke-width:0.25;stroke-linecap:round;stroke-linejoin:bevel" />
        <path d="M 9.24,116.50 L 21.24,116.50 z " style="stroke:#000000;stroke-width:0.25;stroke-linecap:round;stroke-linejoin:bevel;stroke-dasharray:none" />
    </g>
</svg>
