<?xml version="1.0" encoding="utf-8"?>
<svg xmlns="http://www.w3.org/2000/svg" width="45.72mm" height="128.50mm" viewBox="0 0 45.72 128.50">
    <g id="PanelLayer">
        <defs />
        <rect id="border_rect" width="45.72" height="128.5" x="0" y="0" style="display:inline;fill:#4f8df2;fill-opacity:1;stroke:none;" />
        <path id="sapphire_gemstone" d="m 25.575,122.900 q 0,0.34175 -0.242534,0.63114 -0.0441,0.0524 -0.20395,0.21497 -0.187413,0.19017 -0.785481,0.81304 l -1.444183,1.51309 q -0.01929,0.003 -0.0441,0.003 -0.02756,0 -0.04134,-0.003 -0.08268,-0.0827 -0.647678,-0.67524 -0.468532,-0.47404 -0.934309,-0.94809 -0.556727,-0.56775 -0.89848,-0.98116 -0.132292,-0.15985 -0.168121,-0.29766 -0.02756,-0.10197 -0.02756,-0.34175 0,-0.11024 0.07166,-0.28939 0.06614,-0.16536 0.140559,-0.26458 0.118512,-0.1571 0.42168,-0.42444 0.283875,-0.2508 0.474044,-0.37482 0.272852,-0.17915 0.818555,-0.36656 0.09646,-0.0331 0.110243,-0.0331 h 1.3615 q 0.01102,0 0.104731,0.0331 0.567751,0.20119 0.824066,0.36656 0.165365,0.10473 0.474045,0.37758 0.322461,0.28388 0.421679,0.42168 0.214974,0.2949 0.214974,0.62563 z m -0.16812,-0.27285 q -0.03307,-0.10749 -0.135048,-0.30868 -0.07166,-0.0937 -0.209462,-0.19844 -0.118511,-0.0854 -0.234266,-0.17088 0.245291,0.3638 0.578776,0.678 z m -0.573264,-0.52366 -0.358289,-0.44648 v 0.41065 z m 0.636653,0.75792 q 0,-0.0524 -0.341753,-0.39412 l 0.228754,0.7028 h 0.04961 q 0.06339,-0.21773 0.06339,-0.30868 z m -0.23151,0.27285 -0.316948,-0.90399 -0.410655,-0.0634 -0.159853,0.61461 z m 0.0028,0.15434 -0.771701,-0.3197 h -0.03032 l 0.344509,0.60634 q 0.07993,-0.003 0.234266,-0.0469 0.02481,-0.0138 0.223242,-0.23978 z m -0.857139,-1.05006 -0.719335,0.28388 0.60358,0.22599 z m 0,-0.16261 v -0.51538 l -0.917773,-0.38034 h -1.223697 l -0.917772,0.38034 v 0.51538 l 0.89848,0.4079 h 1.254014 z m 0.573264,1.53789 q -0.0689,0.011 -0.198438,0.0524 -0.08544,0.0551 -0.259071,0.16261 0.01929,0 0.06339,0.003 0.04134,0 0.06339,0 0.118511,0 0.190169,-0.0689 0.07166,-0.0717 0.14056,-0.14883 z m -0.289388,0.003 -0.347266,-0.63114 -0.363801,0.87918 q 0.0248,-0.0165 0.06615,-0.0165 0.03032,0 0.08544,0.011 0.05788,0.008 0.08819,0.008 0.04961,0 0.228754,-0.10749 0.228754,-0.1378 0.242535,-0.14331 z m -0.440972,-0.74139 -0.683507,-0.2756 -0.592556,0.54845 0.903993,0.65595 z m -0.854383,-0.28387 h -1.036284 l 0.523654,0.47404 z m 0.749652,1.36701 q -0.228754,-0.0303 -0.228754,-0.0303 -0.03583,0 -0.272851,0.0937 l 0.190169,0.0193 q 0.01102,0 0.311436,-0.0827 z m -0.388606,-0.0882 -0.843359,-0.61185 v 0.67524 l 0.471289,0.0827 z m 0.854383,0.0496 q -0.09922,0.006 -0.2949,0.0386 -0.01102,0.003 -0.377583,0.17639 -0.129535,0.34726 -0.380338,1.0418 z m -2.543857,-1.39733 -0.719335,-0.28388 0.124023,0.51814 z m -0.802018,-0.45476 v -0.41065 l -0.366557,0.44648 z m 1.515841,1.07212 -0.592556,-0.54019 -0.683506,0.2756 0.380338,0.9288 z m 0.369314,0.94257 q -0.03307,-0.003 -0.135047,-0.0248 -0.08544,-0.0165 -0.137804,-0.0165 -0.05237,0 -0.137804,0.0165 -0.101975,0.0221 -0.135047,0.0248 0.264583,0.0469 0.272851,0.0469 0.0083,0 0.272851,-0.0469 z m -0.30868,-0.1378 v -0.68626 l -0.843359,0.61185 0.37207,0.14607 z m 0.950846,0.20671 -0.396875,-0.0551 -0.479557,0.14056 v 1.27607 z m -2.888366,-2.20211 q -0.118512,0.0854 -0.234267,0.17364 -0.146072,0.10748 -0.209461,0.19568 -0.0441,0.10473 -0.135048,0.31419 0.369314,-0.3638 0.578776,-0.68351 z m 0.476801,0.83234 -0.159853,-0.61461 -0.410655,0.0634 -0.316948,0.90399 z m 0.394118,1.08313 -0.363802,-0.87918 -0.355533,0.63114 q 0.43546,0.2508 0.451996,0.2508 0.09095,0 0.267339,-0.003 z m 1.821765,0.82958 q -0.132291,0.21222 -0.405143,0.6339 -0.07717,0.10749 -0.220486,0.32797 -0.05788,0.10473 -0.05512,0.226 0.159852,-0.15158 0.432704,-0.49609 0.07717,-0.12954 0.140559,-0.339 0.05512,-0.17639 0.107486,-0.35278 z m -1.493792,-0.66146 -0.270095,-0.0882 -0.0083,-0.011 q -0.02481,0 -0.107487,0.011 -0.06615,0.006 -0.107487,0.006 0.272851,0.091 0.311436,0.091 0.02481,0 0.181901,-0.008 z m -0.810286,-1.06384 h -0.03032 l -0.7717,0.3197 q 0.06615,0.0965 0.223242,0.23978 0.07717,0.0138 0.234266,0.0469 z m -0.689018,-0.50161 q -0.341754,0.34727 -0.341754,0.39412 0,0.0799 0.06339,0.30868 h 0.04961 z m 2.235176,3.04547 v -1.27607 l -0.479557,-0.14056 -0.396875,0.0551 z m -1.606791,-1.6757 q -0.256315,-0.1819 -0.457509,-0.22324 0.06615,0.0772 0.20395,0.22324 z m 1.609547,2.04501 v -0.1378 l -0.683507,-1.05007 q 0.05237,0.17639 0.107487,0.35278 0.06339,0.20946 0.14056,0.339 0.0689,0.11851 0.20395,0.25907 0.115755,0.11851 0.23151,0.23702 z m -0.644921,-0.70555 q -0.115756,-0.32798 -0.380339,-1.0418 -0.135047,-0.0662 -0.272851,-0.12954 -0.159852,-0.0716 -0.289388,-0.0716 -0.05237,0 -0.110243,-0.0138 z" style="stroke-width:0;fill:#0000ff;stroke:#2e2114;stroke-linecap:square;stroke-opacity:1" />
        <path id="model_name" d="M20.6946 4.26294Q20.6946 4.30951 20.6714 4.35608L19.1269 8.05036Q19.1114 8.09693 19.0687 8.12409Q19.026 8.15126 18.9794 8.15126Q18.9329 8.15126 18.8902 8.12409Q18.8475 8.09693 18.832 8.05036L17.2798 4.36384Q17.2642 4.31727 17.2642 4.29399Q17.2642 4.2319 17.3069 4.18533Q17.3496 4.13876 17.4272 4.13876Q17.466 4.13876 17.5087 4.16593Q17.5514 4.19309 17.5669 4.23966L18.9717 7.61574L20.3842 4.23966Q20.423 4.13876 20.5472 4.13876Q20.5938 4.13876 20.6442 4.17369Q20.6946 4.20861 20.6946 4.26294ZM21.789 8.15126Q21.7191 8.15126 21.6764 8.10469Q21.6337 8.05812 21.6337 7.99604V4.30951Q21.6337 4.24742 21.6803 4.20085Q21.7269 4.15429 21.789 4.15429Q21.8588 4.15429 21.9015 4.20085Q21.9442 4.24742 21.9442 4.30951V7.99604Q21.9442 8.05812 21.8976 8.10469Q21.8511 8.15126 21.789 8.15126ZM20.6791 3.30056Q20.6791 3.13758 20.8344 3.13758H22.697Q22.8522 3.13758 22.8522 3.30056Q22.8522 3.45579 22.697 3.45579H20.8344Q20.6791 3.45579 20.6791 3.30056ZM26.3835 5.62114V7.99604Q26.3835 8.05812 26.337 8.10469Q26.2904 8.15126 26.2283 8.15126Q26.1585 8.15126 26.1158 8.10469Q26.0731 8.05812 26.0731 7.99604V5.65218Q26.0731 5.12443 25.7976 4.78682Q25.5221 4.44921 24.9633 4.44921Q24.6218 4.44921 24.2919 4.61219Q23.9621 4.77517 23.7525 5.05457Q23.543 5.33397 23.543 5.65218V7.99604Q23.543 8.05812 23.4964 8.10469Q23.4498 8.15126 23.3878 8.15126Q23.3179 8.15126 23.2752 8.10469Q23.2325 8.05812 23.2325 7.99604V4.43369Q23.2325 4.3716 23.2791 4.32503Q23.3257 4.27846 23.3878 4.27846Q23.4576 4.27846 23.5003 4.32503Q23.543 4.3716 23.543 4.43369V4.95368Q23.7681 4.60443 24.1755 4.37936Q24.583 4.15429 24.9943 4.15429Q25.685 4.15429 26.0343 4.56174Q26.3835 4.9692 26.3835 5.62114ZM31.0014 4.43369V7.99604Q31.0014 8.05812 30.9548 8.10469Q30.9083 8.15126 30.8462 8.15126Q30.7763 8.15126 30.7336 8.10469Q30.691 8.05812 30.691 7.99604V7.29754Q30.4969 7.69335 30.0934 7.96111Q29.6898 8.22887 29.2008 8.22887Q28.6886 8.22887 28.2773 7.96111Q27.8659 7.69335 27.6331 7.22381Q27.4002 6.75426 27.4002 6.17217Q27.4002 5.59785 27.637 5.13607Q27.8737 4.67428 28.285 4.41428Q28.6964 4.15429 29.2008 4.15429Q29.7053 4.15429 30.1089 4.41816Q30.5125 4.68204 30.691 5.12443V4.43369Q30.691 4.3716 30.7336 4.32503Q30.7763 4.27846 30.8462 4.27846Q30.916 4.27846 30.9587 4.32503Q31.0014 4.3716 31.0014 4.43369ZM30.722 6.17217Q30.722 5.69875 30.528 5.30293Q30.3339 4.90711 29.9886 4.67816Q29.6432 4.44921 29.2163 4.44921Q28.7895 4.44921 28.4441 4.6704Q28.0987 4.89159 27.9047 5.28353Q27.7107 5.67546 27.7107 6.17217Q27.7107 6.66889 27.9047 7.07246Q28.0987 7.47604 28.4402 7.70499Q28.7817 7.93395 29.2163 7.93395Q29.6432 7.93395 29.9886 7.70499Q30.3339 7.47604 30.528 7.07246Q30.722 6.66889 30.722 6.17217ZM28.1531 3.30056Q28.1531 3.13758 28.3083 3.13758H30.171Q30.3262 3.13758 30.3262 3.30056Q30.3262 3.45579 30.171 3.45579H28.3083Q28.1531 3.45579 28.1531 3.30056Z M24.563 8.989V8.927Q24.563 8.819 24.641 8.749Q24.718 8.679 24.842 8.679Q24.951 8.679 25.025 8.749Q25.098 8.819 25.098 8.927V8.989Q25.098 9.098 25.025 9.168Q24.951 9.238 24.835 9.238Q24.710 9.238 24.637 9.168Q24.563 9.098 24.563 8.989Z" style="display:inline;stroke:#000000;stroke-width:0.35;stroke-linecap:round;stroke-linejoin:bevel" />
        <path d="M 13.86,22.00 L 31.86,22.00 z " style="stroke:#000000;stroke-width:0.25;stroke-linecap:round;stroke-linejoin:bevel;stroke-dasharray:none" />
        <path d="M 13.86,37.33 L 31.86,37.33 z " style="stroke:#000000;stroke-width:0.25;stroke-linecap:round;stroke-linejoin:bevel;stroke-dasharray:none" />
        <path d="M 16.86,114.00 L 28.86,114.00 z " style="stroke:#000000;stroke-width:0.25;stroke-linecap:round;stroke-linejoin:bevel;stroke-dasharray:none" />
    </g>
</svg>
