<?xml version="1.0" encoding="utf-8"?>
<svg xmlns="http://www.w3.org/2000/svg" width="45.72mm" height="128.50mm" viewBox="0 0 45.72 128.50">
    <g id="PanelLayer">
        <defs />
        <rect id="border_rect" width="45.72" height="128.5" x="0" y="0" style="display:inline;fill:#4f8df2;fill-opacity:1;stroke:none;" />
        <path id="sapphire_gemstone" d="m 25.575,122.900 q 0,0.34175 -0.242534,0.63114 -0.0441,0.0524 -0.20395,0.21497 -0.187413,0.19017 -0.785481,0.81304 l -1.444183,1.51309 q -0.01929,0.003 -0.0441,0.003 -0.02756,0 -0.04134,-0.003 -0.08268,-0.0827 -0.647678,-0.67524 -0.468532,-0.47404 -0.934309,-0.94809 -0.556727,-0.56775 -0.89848,-0.98116 -0.132292,-0.15985 -0.168121,-0.29766 -0.02756,-0.10197 -0.02756,-0.34175 0,-0.11024 0.07166,-0.28939 0.06614,-0.16536 0.140559,-0.26458 0.118512,-0.1571 0.42168,-0.42444 0.283875,-0.2508 0.474044,-0.37482 0.272852,-0.17915 0.818555,-0.36656 0.09646,-0.0331 0.110243,-0.0331 h 1.3615 q 0.01102,0 0.104731,0.0331 0.567751,0.20119 0.824066,0.36656 0.165365,0.10473 0.474045,0.37758 0.322461,0.28388 0.421679,0.42168 0.214974,0.2949 0.214974,0.62563 z m -0.16812,-0.27285 q -0.03307,-0.10749 -0.135048,-0.30868 -0.07166,-0.0937 -0.209462,-0.19844 -0.118511,-0.0854 -0.234266,-0.17088 0.245291,0.3638 0.578776,0.678 z m -0.573264,-0.52366 -0.358289,-0.44648 v 0.41065 z m 0.636653,0.75792 q 0,-0.0524 -0.341753,-0.39412 l 0.228754,0.7028 h 0.04961 q 0.06339,-0.21773 0.06339,-0.30868 z m -0.23151,0.27285 -0.316948,-0.90399 -0.410655,-0.0634 -0.159853,0.61461 z m 0.0028,0.15434 -0.771701,-0.3197 h -0.03032 l 0.344509,0.60634 q 0.07993,-0.003 0.234266,-0.0469 0.02481,-0.0138 0.223242,-0.23978 z m -0.857139,-1.05006 -0.719335,0.28388 0.60358,0.22599 z m 0,-0.16261 v -0.51538 l -0.917773,-0.38034 h -1.223697 l -0.917772,0.38034 v 0.51538 l 0.89848,0.4079 h 1.254014 z m 0.573264,1.53789 q -0.0689,0.011 -0.198438,0.0524 -0.08544,0.0551 -0.259071,0.16261 0.01929,0 0.06339,0.003 0.04134,0 0.06339,0 0.118511,0 0.190169,-0.0689 0.07166,-0.0717 0.14056,-0.14883 z m -0.289388,0.003 -0.347266,-0.63114 -0.363801,0.87918 q 0.0248,-0.0165 0.06615,-0.0165 0.03032,0 0.08544,0.011 0.05788,0.008 0.08819,0.008 0.04961,0 0.228754,-0.10749 0.228754,-0.1378 0.242535,-0.14331 z m -0.440972,-0.74139 -0.683507,-0.2756 -0.592556,0.54845 0.903993,0.65595 z m -0.854383,-0.28387 h -1.036284 l 0.523654,0.47404 z m 0.749652,1.36701 q -0.228754,-0.0303 -0.228754,-0.0303 -0.03583,0 -0.272851,0.0937 l 0.190169,0.0193 q 0.01102,0 0.311436,-0.0827 z m -0.388606,-0.0882 -0.843359,-0.61185 v 0.67524 l 0.471289,0.0827 z m 0.854383,0.0496 q -0.09922,0.006 -0.2949,0.0386 -0.01102,0.003 -0.377583,0.17639 -0.129535,0.34726 -0.380338,1.0418 z m -2.543857,-1.39733 -0.719335,-0.28388 0.124023,0.51814 z m -0.802018,-0.45476 v -0.41065 l -0.366557,0.44648 z m 1.515841,1.07212 -0.592556,-0.54019 -0.683506,0.2756 0.380338,0.9288 z m 0.369314,0.94257 q -0.03307,-0.003 -0.135047,-0.0248 -0.08544,-0.0165 -0.137804,-0.0165 -0.05237,0 -0.137804,0.0165 -0.101975,0.0221 -0.135047,0.0248 0.264583,0.0469 0.272851,0.0469 0.0083,0 0.272851,-0.0469 z m -0.30868,-0.1378 v -0.68626 l -0.843359,0.61185 0.37207,0.14607 z m 0.950846,0.20671 -0.396875,-0.0551 -0.479557,0.14056 v 1.27607 z m -2.888366,-2.20211 q -0.118512,0.0854 -0.234267,0.17364 -0.146072,0.10748 -0.209461,0.19568 -0.0441,0.10473 -0.135048,0.31419 0.369314,-0.3638 0.578776,-0.68351 z m 0.476801,0.83234 -0.159853,-0.61461 -0.410655,0.0634 -0.316948,0.90399 z m 0.394118,1.08313 -0.363802,-0.87918 -0.355533,0.63114 q 0.43546,0.2508 0.451996,0.2508 0.09095,0 0.267339,-0.003 z m 1.821765,0.82958 q -0.132291,0.21222 -0.405143,0.6339 -0.07717,0.10749 -0.220486,0.32797 -0.05788,0.10473 -0.05512,0.226 0.159852,-0.15158 0.432704,-0.49609 0.07717,-0.12954 0.140559,-0.339 0.05512,-0.17639 0.107486,-0.35278 z m -1.493792,-0.66146 -0.270095,-0.0882 -0.0083,-0.011 q -0.02481,0 -0.107487,0.011 -0.06615,0.006 -0.107487,0.006 0.272851,0.091 0.311436,0.091 0.02481,0 0.181901,-0.008 z m -0.810286,-1.06384 h -0.03032 l -0.7717,0.3197 q 0.06615,0.0965 0.223242,0.23978 0.07717,0.0138 0.234266,0.0469 z m -0.689018,-0.50161 q -0.341754,0.34727 -0.341754,0.39412 0,0.0799 0.06339,0.30868 h 0.04961 z m 2.235176,3.04547 v -1.27607 l -0.479557,-0.14056 -0.396875,0.0551 z m -1.606791,-1.6757 q -0.256315,-0.1819 -0.457509,-0.22324 0.06615,0.0772 0.20395,0.22324 z m 1.609547,2.04501 v -0.1378 l -0.683507,-1.05007 q 0.05237,0.17639 0.107487,0.35278 0.06339,0.20946 0.14056,0.339 0.0689,0.11851 0.20395,0.25907 0.115755,0.11851 0.23151,0.23702 z m -0.644921,-0.70555 q -0.115756,-0.32798 -0.380339,-1.0418 -0.135047,-0.0662 -0.272851,-0.12954 -0.159852,-0.0716 -0.289388,-0.0716 -0.05237,0 -0.110243,-0.0138 z" style="stroke-width:0;fill:#0000ff;stroke:#2e2114;stroke-linecap:square;stroke-opacity:1" />
        <path id="model_name" d="M19.2472 4.26294Q19.2472 4.30951 19.2239 4.35608L17.6795 8.05036Q17.6639 8.09693 17.6212 8.12409Q17.5786 8.15126 17.532 8.15126Q17.4854 8.15126 17.4427 8.12409Q17.4001 8.09693 17.3845 8.05036L15.8323 4.36384Q15.8168 4.31727 15.8168 4.29399Q15.8168 4.2319 15.8595 4.18533Q15.9022 4.13876 15.9798 4.13876Q16.0186 4.13876 16.0613 4.16593Q16.104 4.19309 16.1195 4.23966L17.5242 7.61574L18.9368 4.23966Q18.9756 4.13876 19.0997 4.13876Q19.1463 4.13876 19.1968 4.17369Q19.2472 4.20861 19.2472 4.26294ZM20.3415 8.15126Q20.2717 8.15126 20.229 8.10469Q20.1863 8.05812 20.1863 7.99604V4.30951Q20.1863 4.24742 20.2329 4.20085Q20.2794 4.15429 20.3415 4.15429Q20.4114 4.15429 20.4541 4.20085Q20.4967 4.24742 20.4967 4.30951V7.99604Q20.4967 8.05812 20.4502 8.10469Q20.4036 8.15126 20.3415 8.15126ZM20.0699 3.37818V3.31609Q20.0699 3.20743 20.1475 3.13758Q20.2251 3.06773 20.3493 3.06773Q20.4579 3.06773 20.5317 3.13758Q20.6054 3.20743 20.6054 3.31609V3.37818Q20.6054 3.48683 20.5317 3.55668Q20.4579 3.62653 20.3415 3.62653Q20.2173 3.62653 20.1436 3.55668Q20.0699 3.48683 20.0699 3.37818ZM24.9361 5.62114V7.99604Q24.9361 8.05812 24.8895 8.10469Q24.843 8.15126 24.7809 8.15126Q24.711 8.15126 24.6683 8.10469Q24.6257 8.05812 24.6257 7.99604V5.65218Q24.6257 5.12443 24.3501 4.78682Q24.0746 4.44921 23.5158 4.44921Q23.1743 4.44921 22.8445 4.61219Q22.5146 4.77517 22.3051 5.05457Q22.0955 5.33397 22.0955 5.65218V7.99604Q22.0955 8.05812 22.049 8.10469Q22.0024 8.15126 21.9403 8.15126Q21.8705 8.15126 21.8278 8.10469Q21.7851 8.05812 21.7851 7.99604V4.43369Q21.7851 4.3716 21.8317 4.32503Q21.8782 4.27846 21.9403 4.27846Q22.0102 4.27846 22.0528 4.32503Q22.0955 4.3716 22.0955 4.43369V4.95368Q22.3206 4.60443 22.7281 4.37936Q23.1355 4.15429 23.5469 4.15429Q24.2376 4.15429 24.5868 4.56174Q24.9361 4.9692 24.9361 5.62114ZM29.554 4.43369V7.99604Q29.554 8.05812 29.5074 8.10469Q29.4608 8.15126 29.3987 8.15126Q29.3289 8.15126 29.2862 8.10469Q29.2435 8.05812 29.2435 7.99604V7.29754Q29.0495 7.69335 28.6459 7.96111Q28.2423 8.22887 27.7534 8.22887Q27.2411 8.22887 26.8298 7.96111Q26.4185 7.69335 26.1856 7.22381Q25.9528 6.75426 25.9528 6.17217Q25.9528 5.59785 26.1895 5.13607Q26.4262 4.67428 26.8376 4.41428Q27.2489 4.15429 27.7534 4.15429Q28.2579 4.15429 28.6614 4.41816Q29.065 4.68204 29.2435 5.12443V4.43369Q29.2435 4.3716 29.2862 4.32503Q29.3289 4.27846 29.3987 4.27846Q29.4686 4.27846 29.5113 4.32503Q29.554 4.3716 29.554 4.43369ZM29.2746 6.17217Q29.2746 5.69875 29.0805 5.30293Q28.8865 4.90711 28.5411 4.67816Q28.1958 4.44921 27.7689 4.44921Q27.342 4.44921 26.9967 4.6704Q26.6513 4.89159 26.4573 5.28353Q26.2632 5.67546 26.2632 6.17217Q26.2632 6.66889 26.4573 7.07246Q26.6513 7.47604 26.9928 7.70499Q27.3343 7.93395 27.7689 7.93395Q28.1958 7.93395 28.5411 7.70499Q28.8865 7.47604 29.0805 7.07246Q29.2746 6.66889 29.2746 6.17217Z" style="display:inline;stroke:#000000;stroke-width:0.35;stroke-linecap:round;stroke-linejoin:bevel" />
        <path d="M 13.86,22.00 L 31.86,22.00 z " style="stroke:#000000;stroke-width:0.25;stroke-linecap:round;stroke-linejoin:bevel;stroke-dasharray:none" />
        <path d="M 13.86,37.33 L 31.86,37.33 z " style="stroke:#000000;stroke-width:0.25;stroke-linecap:round;stroke-linejoin:bevel;stroke-dasharray:none" />
        <path d="M20.133 13.8499Q20.133 13.8817 20.1119 13.9011Q20.0907 13.9205 20.0625 13.9205H18.8031V14.8942H19.9037Q19.9319 14.8942 19.9531 14.9153Q19.9743 14.9365 19.9743 14.9647Q19.9743 14.9965 19.9531 15.0159Q19.9319 15.0353 19.9037 15.0353H18.8031V16.1783Q18.8031 16.2065 18.7837 16.2277Q18.7643 16.2488 18.7325 16.2488Q18.7007 16.2488 18.6813 16.2277Q18.6619 16.2065 18.6619 16.1783V13.8499Q18.6619 13.8217 18.6831 13.8006Q18.7043 13.7794 18.7325 13.7794H20.0625Q20.0907 13.7794 20.1119 13.8006Q20.133 13.8217 20.133 13.8499ZM22.4578 16.1747Q22.4578 16.2065 22.4384 16.2259Q22.419 16.2453 22.3908 16.2453Q22.3696 16.2453 22.3591 16.2383Q22.2638 16.1853 22.2074 16.0601Q22.1509 15.9349 22.1509 15.6491Q22.1509 15.3598 21.9957 15.2522Q21.8405 15.1446 21.6359 15.1446H20.8104V16.1783Q20.8104 16.2065 20.7892 16.2277Q20.768 16.2488 20.7363 16.2488Q20.7045 16.2488 20.6834 16.2277Q20.6622 16.2065 20.6622 16.1783V13.8499Q20.6622 13.8217 20.6834 13.8006Q20.7045 13.7794 20.7327 13.7794H21.6641Q21.8687 13.7794 22.0274 13.8623Q22.1862 13.9452 22.2744 14.0898Q22.3626 14.2345 22.3626 14.4179Q22.3626 14.6543 22.2373 14.8236Q22.1121 14.9929 21.911 15.0529Q22.0804 15.1058 22.1897 15.2628Q22.2991 15.4198 22.2991 15.6491Q22.2991 15.8855 22.3291 15.979Q22.3591 16.0724 22.419 16.1113Q22.4578 16.1359 22.4578 16.1747ZM21.6817 15.0035Q21.904 14.9824 22.0592 14.8271Q22.2144 14.6719 22.2144 14.4214Q22.2144 14.2027 22.0592 14.0616Q21.904 13.9205 21.6464 13.9205H20.8104V15.0035ZM24.4757 16.1783Q24.4757 16.21 24.4546 16.2294Q24.4334 16.2488 24.4052 16.2488H23.0752Q23.047 16.2488 23.0258 16.2277Q23.0046 16.2065 23.0046 16.1783V13.8499Q23.0046 13.8217 23.0258 13.8006Q23.047 13.7794 23.0752 13.7794H24.4052Q24.4334 13.7794 24.4546 13.8006Q24.4757 13.8217 24.4757 13.8499Q24.4757 13.8817 24.4546 13.9011Q24.4334 13.9205 24.4052 13.9205H23.1528V14.9047H24.2464Q24.2746 14.9047 24.2958 14.9259Q24.317 14.9471 24.317 14.9753Q24.317 15.0071 24.2958 15.0265Q24.2746 15.0459 24.2464 15.0459H23.1528V16.1077H24.4052Q24.4334 16.1077 24.4546 16.1289Q24.4757 16.1501 24.4757 16.1783ZM27.4638 16.5381Q27.4638 16.6051 27.365 16.6739Q27.2662 16.7427 27.1198 16.7868Q26.9734 16.8309 26.8429 16.8309Q26.6488 16.8309 26.5148 16.7886Q26.3807 16.7462 26.2079 16.6616Q26.0632 16.5875 25.9574 16.5522Q25.8516 16.5169 25.714 16.5169Q25.6646 16.5169 25.624 16.5293Q25.5834 16.5416 25.527 16.5663Q25.4635 16.5946 25.4423 16.5946Q25.4141 16.5946 25.3929 16.5734Q25.3718 16.5522 25.3718 16.5205Q25.3718 16.4781 25.4106 16.4605L25.9256 16.2806Q25.6046 16.2629 25.3559 16.0971Q25.1072 15.9313 24.9678 15.6509Q24.8285 15.3704 24.8285 15.0141Q24.8285 14.6437 24.9784 14.3544Q25.1284 14.0651 25.3965 13.9046Q25.6646 13.7441 26.0068 13.7441Q26.349 13.7441 26.6171 13.9046Q26.8852 14.0651 27.0351 14.3544Q27.1851 14.6437 27.1851 15.0141Q27.1851 15.3316 27.0739 15.5891Q26.9628 15.8467 26.76 16.0195Q26.5571 16.1924 26.2925 16.2524L25.8586 16.3935Q25.968 16.4041 26.0615 16.4393Q26.1549 16.4746 26.2855 16.5381Q26.4548 16.6193 26.5712 16.6581Q26.6876 16.6969 26.8429 16.6969Q26.9734 16.6969 27.0669 16.6633Q27.1604 16.6298 27.2486 16.5804Q27.2768 16.5663 27.3156 16.5275Q27.3367 16.5064 27.3597 16.4922Q27.3826 16.4781 27.4038 16.4781Q27.432 16.4781 27.4479 16.494Q27.4638 16.5099 27.4638 16.5381ZM26.0068 16.143Q26.3066 16.143 26.5412 16.0019Q26.7758 15.8608 26.9064 15.6033Q27.0369 15.3457 27.0369 15.0141Q27.0369 14.6825 26.9064 14.425Q26.7758 14.1674 26.5412 14.0263Q26.3066 13.8852 26.0068 13.8852Q25.7069 13.8852 25.4723 14.0263Q25.2377 14.1674 25.1072 14.425Q24.9767 14.6825 24.9767 15.0141Q24.9767 15.3457 25.1072 15.6033Q25.2377 15.8608 25.4723 16.0019Q25.7069 16.143 26.0068 16.143Z" style="stroke:#000000;stroke-width:0.25;stroke-linecap:round;stroke-linejoin:bevel" />
        <path d="M20.641 31.6174Q20.2988 31.6174 20.0307 31.4569Q19.7626 31.2964 19.6127 31.0071Q19.4627 30.7179 19.4627 30.3474Q19.4627 29.977 19.6127 29.6878Q19.7626 29.3985 20.0307 29.238Q20.2988 29.0774 20.641 29.0774Q20.9832 29.0774 21.2513 29.238Q21.5194 29.3985 21.6694 29.6878Q21.8193 29.977 21.8193 30.3474Q21.8193 30.7179 21.6694 31.0071Q21.5194 31.2964 21.2513 31.4569Q20.9832 31.6174 20.641 31.6174ZM20.641 29.2186Q20.3412 29.2186 20.1066 29.3597Q19.872 29.5008 19.7414 29.7583Q19.6109 30.0158 19.6109 30.3474Q19.6109 30.6791 19.7414 30.9366Q19.872 31.1941 20.1066 31.3352Q20.3412 31.4763 20.641 31.4763Q20.9409 31.4763 21.1755 31.3352Q21.4101 31.1941 21.5406 30.9366Q21.6711 30.6791 21.6711 30.3474Q21.6711 30.0158 21.5406 29.7583Q21.4101 29.5008 21.1755 29.3597Q20.9409 29.2186 20.641 29.2186ZM24.2076 29.3738Q24.2076 29.402 24.1935 29.4196Q24.1723 29.4479 24.1406 29.4479Q24.1265 29.4479 24.0983 29.4338Q23.7702 29.2115 23.4033 29.2115Q23.1069 29.2115 22.8582 29.3579Q22.6095 29.5043 22.4649 29.7636Q22.3203 30.0229 22.3203 30.3474Q22.3203 30.672 22.4649 30.9313Q22.6095 31.1906 22.8582 31.337Q23.1069 31.4834 23.4033 31.4834Q23.7737 31.4834 24.0947 31.2647Q24.1124 31.2506 24.1371 31.2506Q24.1723 31.2506 24.1935 31.2788Q24.2076 31.2964 24.2076 31.3211Q24.2076 31.3564 24.1794 31.3776Q24.0418 31.4763 23.8248 31.5469Q23.6079 31.6174 23.4033 31.6174Q23.0681 31.6174 22.7859 31.4516Q22.5037 31.2858 22.3379 30.9948Q22.1721 30.7038 22.1721 30.3474Q22.1721 29.9911 22.3379 29.7001Q22.5037 29.4091 22.7859 29.2433Q23.0681 29.0774 23.4033 29.0774Q23.6149 29.0774 23.8143 29.1409Q24.0136 29.2044 24.1759 29.3173Q24.2076 29.342 24.2076 29.3738ZM26.3102 29.1798Q26.3102 29.2115 26.2908 29.2291Q26.2714 29.2468 26.2396 29.2468H25.4529V31.5116Q25.4529 31.5398 25.4318 31.561Q25.4106 31.5822 25.3824 31.5822Q25.3506 31.5822 25.3312 31.561Q25.3118 31.5398 25.3118 31.5116V29.2468H24.5251Q24.4969 29.2468 24.4757 29.2274Q24.4546 29.208 24.4546 29.1798Q24.4546 29.1515 24.4757 29.1321Q24.4969 29.1127 24.5251 29.1127H26.2396Q26.2678 29.1127 26.289 29.1321Q26.3102 29.1515 26.3102 29.1798Z" style="stroke:#000000;stroke-width:0.25;stroke-linecap:round;stroke-linejoin:bevel" />
        <path d="M 16.86,114.00 L 28.86,114.00 z " style="stroke:#000000;stroke-width:0.25;stroke-linecap:round;stroke-linejoin:bevel;stroke-dasharray:none" />
    </g>
</svg>
