<?xml version="1.0" encoding="utf-8"?>
<svg xmlns="http://www.w3.org/2000/svg" width="66.04mm" height="128.50mm" viewBox="0 0 66.04 128.50">
    <g id="PanelLayer">
        <defs />
        <rect id="border_rect" width="66.04" height="128.5" x="0" y="0" style="display:inline;fill:#4f8df2;fill-opacity:1;stroke:none;" />
        <g id="sapphire_insignia">
            <path id="brand_name" d="M18.1264 124.775Q18.1264 124.721 18.1885 124.674Q18.2273 124.636 18.2817 124.636Q18.3593 124.636 18.4058 124.698Q18.856 125.342 19.6631 125.342Q20.0745 125.342 20.3849 125.136Q20.6954 124.93 20.6954 124.581Q20.6954 124.224 20.4237 124.046Q20.1521 123.867 19.6787 123.751Q19.05 123.596 18.6891 123.336Q18.3282 123.076 18.3282 122.602Q18.3282 122.144 18.693 121.845Q19.0578 121.547 19.6321 121.547Q19.9503 121.547 20.2646 121.671Q20.5789 121.795 20.8351 122.067Q20.8894 122.113 20.8894 122.175Q20.8894 122.245 20.8351 122.299Q20.773 122.331 20.7342 122.331Q20.6798 122.331 20.641 122.284Q20.2375 121.842 19.601 121.842Q19.1897 121.842 18.9064 122.043Q18.6231 122.245 18.6231 122.602Q18.6464 122.936 18.9297 123.118Q19.213 123.301 19.764 123.44Q20.1598 123.541 20.4198 123.662Q20.6798 123.782 20.8351 123.999Q20.9903 124.216 20.9903 124.566Q20.9903 125.055 20.6139 125.338Q20.2375 125.621 19.6321 125.621Q18.7473 125.621 18.1808 124.923Q18.1264 124.837 18.1264 124.775ZM25.3365 121.826V125.388Q25.3365 125.45 25.2899 125.497Q25.2434 125.544 25.1813 125.544Q25.1114 125.544 25.0687 125.497Q25.0261 125.45 25.0261 125.388V124.69Q24.832 125.086 24.4285 125.353Q24.0249 125.621 23.5359 125.621Q23.0237 125.621 22.6124 125.353Q22.201 125.086 21.9682 124.616Q21.7353 124.147 21.7353 123.565Q21.7353 122.99 21.9721 122.528Q22.2088 122.067 22.6201 121.807Q23.0315 121.547 23.5359 121.547Q24.0404 121.547 24.444 121.811Q24.8476 122.074 25.0261 122.517V121.826Q25.0261 121.764 25.0687 121.717Q25.1114 121.671 25.1813 121.671Q25.2511 121.671 25.2938 121.717Q25.3365 121.764 25.3365 121.826ZM25.0571 123.565Q25.0571 123.091 24.8631 122.695Q24.669 122.299 24.3237 122.071Q23.9783 121.842 23.5514 121.842Q23.1246 121.842 22.7792 122.063Q22.4338 122.284 22.2398 122.676Q22.0458 123.068 22.0458 123.565Q22.0458 124.061 22.2398 124.465Q22.4338 124.868 22.7753 125.097Q23.1168 125.326 23.5514 125.326Q23.9783 125.326 24.3237 125.097Q24.669 124.868 24.8631 124.465Q25.0571 124.061 25.0571 123.565ZM30.226 123.603Q30.226 124.162 29.9893 124.616Q29.7526 125.07 29.3412 125.33Q28.9299 125.59 28.4254 125.59Q27.9598 125.59 27.5717 125.357Q27.1836 125.125 26.9353 124.698V126.941Q26.9353 127.003 26.8926 127.049Q26.8499 127.096 26.7801 127.096Q26.718 127.096 26.6714 127.049Q26.6248 127.003 26.6248 126.941V121.779Q26.6248 121.717 26.6675 121.671Q26.7102 121.624 26.7801 121.624Q26.8499 121.624 26.8926 121.671Q26.9353 121.717 26.9353 121.779V122.493Q27.1681 122.051 27.5562 121.838Q27.9442 121.624 28.4254 121.624Q28.9377 121.624 29.349 121.88Q29.7603 122.136 29.9932 122.587Q30.226 123.037 30.226 123.603ZM29.9156 123.603Q29.9156 123.122 29.7176 122.738Q29.5197 122.354 29.1783 122.136Q28.8368 121.919 28.4099 121.919Q27.9753 121.919 27.6299 122.133Q27.2845 122.346 27.0944 122.73Q26.9042 123.114 26.9042 123.603Q26.9042 124.092 27.0944 124.476Q27.2845 124.861 27.6299 125.078Q27.9753 125.295 28.4099 125.295Q28.8368 125.295 29.1783 125.078Q29.5197 124.861 29.7176 124.473Q29.9156 124.085 29.9156 123.603ZM34.8439 123.603Q34.8439 124.162 34.6071 124.616Q34.3704 125.07 33.9591 125.33Q33.5478 125.59 33.0433 125.59Q32.5776 125.59 32.1896 125.357Q31.8015 125.125 31.5532 124.698V126.941Q31.5532 127.003 31.5105 127.049Q31.4678 127.096 31.3979 127.096Q31.3358 127.096 31.2893 127.049Q31.2427 127.003 31.2427 126.941V121.779Q31.2427 121.717 31.2854 121.671Q31.3281 121.624 31.3979 121.624Q31.4678 121.624 31.5105 121.671Q31.5532 121.717 31.5532 121.779V122.493Q31.786 122.051 32.174 121.838Q32.5621 121.624 33.0433 121.624Q33.5555 121.624 33.9669 121.88Q34.3782 122.136 34.611 122.587Q34.8439 123.037 34.8439 123.603ZM34.5334 123.603Q34.5334 123.122 34.3355 122.738Q34.1376 122.354 33.7961 122.136Q33.4546 121.919 33.0278 121.919Q32.5931 121.919 32.2478 122.133Q31.9024 122.346 31.7123 122.73Q31.5221 123.114 31.5221 123.603Q31.5221 124.092 31.7123 124.476Q31.9024 124.861 32.2478 125.078Q32.5931 125.295 33.0278 125.295Q33.4546 125.295 33.7961 125.078Q34.1376 124.861 34.3355 124.473Q34.5334 124.085 34.5334 123.603ZM38.934 123.122V125.388Q38.934 125.45 38.8874 125.497Q38.8408 125.544 38.7787 125.544Q38.7089 125.544 38.6662 125.497Q38.6235 125.45 38.6235 125.388V123.122Q38.6235 122.587 38.3596 122.253Q38.0958 121.919 37.5525 121.919Q37.2188 121.919 36.8967 122.082Q36.5746 122.245 36.3728 122.525Q36.171 122.804 36.171 123.122V125.388Q36.171 125.45 36.1244 125.497Q36.0779 125.544 36.0158 125.544Q35.9459 125.544 35.9033 125.497Q35.8606 125.45 35.8606 125.388V119.956Q35.8606 119.894 35.9071 119.847Q35.9537 119.8 36.0158 119.8Q36.0856 119.8 36.1283 119.847Q36.171 119.894 36.171 119.956V122.408Q36.3883 122.067 36.7725 121.845Q37.1567 121.624 37.5525 121.624Q38.2199 121.624 38.577 122.047Q38.934 122.47 38.934 123.122ZM40.3775 125.544Q40.3077 125.544 40.265 125.497Q40.2223 125.45 40.2223 125.388V121.702Q40.2223 121.64 40.2689 121.593Q40.3154 121.547 40.3775 121.547Q40.4474 121.547 40.4901 121.593Q40.5328 121.64 40.5328 121.702V125.388Q40.5328 125.45 40.4862 125.497Q40.4396 125.544 40.3775 125.544ZM40.1059 120.771V120.708Q40.1059 120.6 40.1835 120.53Q40.2611 120.46 40.3853 120.46Q40.4939 120.46 40.5677 120.53Q40.6414 120.6 40.6414 120.708V120.771Q40.6414 120.879 40.5677 120.949Q40.4939 121.019 40.3775 121.019Q40.2534 121.019 40.1796 120.949Q40.1059 120.879 40.1059 120.771ZM43.9321 121.725Q43.9321 121.795 43.8933 121.842Q43.8545 121.888 43.7924 121.888Q43.7691 121.888 43.6799 121.853Q43.5906 121.818 43.4897 121.818Q43.1715 121.818 42.8533 122.071Q42.5351 122.323 42.3333 122.707Q42.1315 123.091 42.1315 123.448V125.388Q42.1315 125.45 42.085 125.497Q42.0384 125.544 41.9763 125.544Q41.9065 125.544 41.8638 125.497Q41.8211 125.45 41.8211 125.388V121.826Q41.8211 121.764 41.8677 121.717Q41.9142 121.671 41.9763 121.671Q42.0462 121.671 42.0889 121.717Q42.1315 121.764 42.1315 121.826V122.649Q42.31 122.175 42.6865 121.865Q43.0629 121.554 43.5751 121.547Q43.9321 121.547 43.9321 121.725ZM47.8748 124.752Q47.8748 124.806 47.8437 124.845Q47.5876 125.187 47.2073 125.404Q46.827 125.621 46.3924 125.621Q45.8103 125.621 45.3602 125.373Q44.91 125.125 44.6578 124.667Q44.4056 124.209 44.4056 123.603Q44.4056 122.982 44.65 122.513Q44.8945 122.043 45.2981 121.795Q45.7017 121.547 46.1596 121.547Q46.6175 121.547 47.0094 121.745Q47.4013 121.942 47.6497 122.338Q47.898 122.734 47.9136 123.316Q47.9136 123.378 47.867 123.429Q47.8204 123.479 47.7584 123.479H44.7082V123.58Q44.7082 124.061 44.9023 124.461Q45.0963 124.861 45.4766 125.093Q45.8569 125.326 46.3924 125.326Q46.7649 125.326 47.0948 125.144Q47.4246 124.962 47.6109 124.682Q47.6652 124.612 47.7428 124.612Q47.7972 124.612 47.836 124.655Q47.8748 124.698 47.8748 124.752ZM44.7393 123.184H47.5954V123.114Q47.5566 122.719 47.3431 122.435Q47.1297 122.152 46.8154 122.005Q46.501 121.857 46.1596 121.857Q45.8724 121.857 45.5736 122.008Q45.2748 122.16 45.0458 122.459Q44.8169 122.757 44.7393 123.184Z" style="fill:#000000;stroke:#000000;stroke-width:0.265;stroke-linecap:square" />
            <g id="gemstones" style="stroke-width:0;fill:#0000ff;stroke:#2e2114;stroke-linecap:square;stroke-opacity:1">
                <path d="m 15.470,122.900 q 0,0.34175 -0.242534,0.63114 -0.0441,0.0524 -0.20395,0.21497 -0.187413,0.19017 -0.785481,0.81304 l -1.444183,1.51309 q -0.01929,0.003 -0.0441,0.003 -0.02756,0 -0.04134,-0.003 -0.08268,-0.0827 -0.647678,-0.67524 -0.468532,-0.47404 -0.934309,-0.94809 -0.556727,-0.56775 -0.89848,-0.98116 -0.132292,-0.15985 -0.168121,-0.29766 -0.02756,-0.10197 -0.02756,-0.34175 0,-0.11024 0.07166,-0.28939 0.06614,-0.16536 0.140559,-0.26458 0.118512,-0.1571 0.42168,-0.42444 0.283875,-0.2508 0.474044,-0.37482 0.272852,-0.17915 0.818555,-0.36656 0.09646,-0.0331 0.110243,-0.0331 h 1.3615 q 0.01102,0 0.104731,0.0331 0.567751,0.20119 0.824066,0.36656 0.165365,0.10473 0.474045,0.37758 0.322461,0.28388 0.421679,0.42168 0.214974,0.2949 0.214974,0.62563 z m -0.16812,-0.27285 q -0.03307,-0.10749 -0.135048,-0.30868 -0.07166,-0.0937 -0.209462,-0.19844 -0.118511,-0.0854 -0.234266,-0.17088 0.245291,0.3638 0.578776,0.678 z m -0.573264,-0.52366 -0.358289,-0.44648 v 0.41065 z m 0.636653,0.75792 q 0,-0.0524 -0.341753,-0.39412 l 0.228754,0.7028 h 0.04961 q 0.06339,-0.21773 0.06339,-0.30868 z m -0.23151,0.27285 -0.316948,-0.90399 -0.410655,-0.0634 -0.159853,0.61461 z m 0.0028,0.15434 -0.771701,-0.3197 h -0.03032 l 0.344509,0.60634 q 0.07993,-0.003 0.234266,-0.0469 0.02481,-0.0138 0.223242,-0.23978 z m -0.857139,-1.05006 -0.719335,0.28388 0.60358,0.22599 z m 0,-0.16261 v -0.51538 l -0.917773,-0.38034 h -1.223697 l -0.917772,0.38034 v 0.51538 l 0.89848,0.4079 h 1.254014 z m 0.573264,1.53789 q -0.0689,0.011 -0.198438,0.0524 -0.08544,0.0551 -0.259071,0.16261 0.01929,0 0.06339,0.003 0.04134,0 0.06339,0 0.118511,0 0.190169,-0.0689 0.07166,-0.0717 0.14056,-0.14883 z m -0.289388,0.003 -0.347266,-0.63114 -0.363801,0.87918 q 0.0248,-0.0165 0.06615,-0.0165 0.03032,0 0.08544,0.011 0.05788,0.008 0.08819,0.008 0.04961,0 0.228754,-0.10749 0.228754,-0.1378 0.242535,-0.14331 z m -0.440972,-0.74139 -0.683507,-0.2756 -0.592556,0.54845 0.903993,0.65595 z m -0.854383,-0.28387 h -1.036284 l 0.523654,0.47404 z m 0.749652,1.36701 q -0.228754,-0.0303 -0.228754,-0.0303 -0.03583,0 -0.272851,0.0937 l 0.190169,0.0193 q 0.01102,0 0.311436,-0.0827 z m -0.388606,-0.0882 -0.843359,-0.61185 v 0.67524 l 0.471289,0.0827 z m 0.854383,0.0496 q -0.09922,0.006 -0.2949,0.0386 -0.01102,0.003 -0.377583,0.17639 -0.129535,0.34726 -0.380338,1.0418 z m -2.543857,-1.39733 -0.719335,-0.28388 0.124023,0.51814 z m -0.802018,-0.45476 v -0.41065 l -0.366557,0.44648 z m 1.515841,1.07212 -0.592556,-0.54019 -0.683506,0.2756 0.380338,0.9288 z m 0.369314,0.94257 q -0.03307,-0.003 -0.135047,-0.0248 -0.08544,-0.0165 -0.137804,-0.0165 -0.05237,0 -0.137804,0.0165 -0.101975,0.0221 -0.135047,0.0248 0.264583,0.0469 0.272851,0.0469 0.0083,0 0.272851,-0.0469 z m -0.30868,-0.1378 v -0.68626 l -0.843359,0.61185 0.37207,0.14607 z m 0.950846,0.20671 -0.396875,-0.0551 -0.479557,0.14056 v 1.27607 z m -2.888366,-2.20211 q -0.118512,0.0854 -0.234267,0.17364 -0.146072,0.10748 -0.209461,0.19568 -0.0441,0.10473 -0.135048,0.31419 0.369314,-0.3638 0.578776,-0.68351 z m 0.476801,0.83234 -0.159853,-0.61461 -0.410655,0.0634 -0.316948,0.90399 z m 0.394118,1.08313 -0.363802,-0.87918 -0.355533,0.63114 q 0.43546,0.2508 0.451996,0.2508 0.09095,0 0.267339,-0.003 z m 1.821765,0.82958 q -0.132291,0.21222 -0.405143,0.6339 -0.07717,0.10749 -0.220486,0.32797 -0.05788,0.10473 -0.05512,0.226 0.159852,-0.15158 0.432704,-0.49609 0.07717,-0.12954 0.140559,-0.339 0.05512,-0.17639 0.107486,-0.35278 z m -1.493792,-0.66146 -0.270095,-0.0882 -0.0083,-0.011 q -0.02481,0 -0.107487,0.011 -0.06615,0.006 -0.107487,0.006 0.272851,0.091 0.311436,0.091 0.02481,0 0.181901,-0.008 z m -0.810286,-1.06384 h -0.03032 l -0.7717,0.3197 q 0.06615,0.0965 0.223242,0.23978 0.07717,0.0138 0.234266,0.0469 z m -0.689018,-0.50161 q -0.341754,0.34727 -0.341754,0.39412 0,0.0799 0.06339,0.30868 h 0.04961 z m 2.235176,3.04547 v -1.27607 l -0.479557,-0.14056 -0.396875,0.0551 z m -1.606791,-1.6757 q -0.256315,-0.1819 -0.457509,-0.22324 0.06615,0.0772 0.20395,0.22324 z m 1.609547,2.04501 v -0.1378 l -0.683507,-1.05007 q 0.05237,0.17639 0.107487,0.35278 0.06339,0.20946 0.14056,0.339 0.0689,0.11851 0.20395,0.25907 0.115755,0.11851 0.23151,0.23702 z m -0.644921,-0.70555 q -0.115756,-0.32798 -0.380339,-1.0418 -0.135047,-0.0662 -0.272851,-0.12954 -0.159852,-0.0716 -0.289388,-0.0716 -0.05237,0 -0.110243,-0.0138 z" />
                <path d="m 56.000,122.900 q 0,0.34175 -0.242534,0.63114 -0.0441,0.0524 -0.20395,0.21497 -0.187413,0.19017 -0.785481,0.81304 l -1.444183,1.51309 q -0.01929,0.003 -0.0441,0.003 -0.02756,0 -0.04134,-0.003 -0.08268,-0.0827 -0.647678,-0.67524 -0.468532,-0.47404 -0.934309,-0.94809 -0.556727,-0.56775 -0.89848,-0.98116 -0.132292,-0.15985 -0.168121,-0.29766 -0.02756,-0.10197 -0.02756,-0.34175 0,-0.11024 0.07166,-0.28939 0.06614,-0.16536 0.140559,-0.26458 0.118512,-0.1571 0.42168,-0.42444 0.283875,-0.2508 0.474044,-0.37482 0.272852,-0.17915 0.818555,-0.36656 0.09646,-0.0331 0.110243,-0.0331 h 1.3615 q 0.01102,0 0.104731,0.0331 0.567751,0.20119 0.824066,0.36656 0.165365,0.10473 0.474045,0.37758 0.322461,0.28388 0.421679,0.42168 0.214974,0.2949 0.214974,0.62563 z m -0.16812,-0.27285 q -0.03307,-0.10749 -0.135048,-0.30868 -0.07166,-0.0937 -0.209462,-0.19844 -0.118511,-0.0854 -0.234266,-0.17088 0.245291,0.3638 0.578776,0.678 z m -0.573264,-0.52366 -0.358289,-0.44648 v 0.41065 z m 0.636653,0.75792 q 0,-0.0524 -0.341753,-0.39412 l 0.228754,0.7028 h 0.04961 q 0.06339,-0.21773 0.06339,-0.30868 z m -0.23151,0.27285 -0.316948,-0.90399 -0.410655,-0.0634 -0.159853,0.61461 z m 0.0028,0.15434 -0.771701,-0.3197 h -0.03032 l 0.344509,0.60634 q 0.07993,-0.003 0.234266,-0.0469 0.02481,-0.0138 0.223242,-0.23978 z m -0.857139,-1.05006 -0.719335,0.28388 0.60358,0.22599 z m 0,-0.16261 v -0.51538 l -0.917773,-0.38034 h -1.223697 l -0.917772,0.38034 v 0.51538 l 0.89848,0.4079 h 1.254014 z m 0.573264,1.53789 q -0.0689,0.011 -0.198438,0.0524 -0.08544,0.0551 -0.259071,0.16261 0.01929,0 0.06339,0.003 0.04134,0 0.06339,0 0.118511,0 0.190169,-0.0689 0.07166,-0.0717 0.14056,-0.14883 z m -0.289388,0.003 -0.347266,-0.63114 -0.363801,0.87918 q 0.0248,-0.0165 0.06615,-0.0165 0.03032,0 0.08544,0.011 0.05788,0.008 0.08819,0.008 0.04961,0 0.228754,-0.10749 0.228754,-0.1378 0.242535,-0.14331 z m -0.440972,-0.74139 -0.683507,-0.2756 -0.592556,0.54845 0.903993,0.65595 z m -0.854383,-0.28387 h -1.036284 l 0.523654,0.47404 z m 0.749652,1.36701 q -0.228754,-0.0303 -0.228754,-0.0303 -0.03583,0 -0.272851,0.0937 l 0.190169,0.0193 q 0.01102,0 0.311436,-0.0827 z m -0.388606,-0.0882 -0.843359,-0.61185 v 0.67524 l 0.471289,0.0827 z m 0.854383,0.0496 q -0.09922,0.006 -0.2949,0.0386 -0.01102,0.003 -0.377583,0.17639 -0.129535,0.34726 -0.380338,1.0418 z m -2.543857,-1.39733 -0.719335,-0.28388 0.124023,0.51814 z m -0.802018,-0.45476 v -0.41065 l -0.366557,0.44648 z m 1.515841,1.07212 -0.592556,-0.54019 -0.683506,0.2756 0.380338,0.9288 z m 0.369314,0.94257 q -0.03307,-0.003 -0.135047,-0.0248 -0.08544,-0.0165 -0.137804,-0.0165 -0.05237,0 -0.137804,0.0165 -0.101975,0.0221 -0.135047,0.0248 0.264583,0.0469 0.272851,0.0469 0.0083,0 0.272851,-0.0469 z m -0.30868,-0.1378 v -0.68626 l -0.843359,0.61185 0.37207,0.14607 z m 0.950846,0.20671 -0.396875,-0.0551 -0.479557,0.14056 v 1.27607 z m -2.888366,-2.20211 q -0.118512,0.0854 -0.234267,0.17364 -0.146072,0.10748 -0.209461,0.19568 -0.0441,0.10473 -0.135048,0.31419 0.369314,-0.3638 0.578776,-0.68351 z m 0.476801,0.83234 -0.159853,-0.61461 -0.410655,0.0634 -0.316948,0.90399 z m 0.394118,1.08313 -0.363802,-0.87918 -0.355533,0.63114 q 0.43546,0.2508 0.451996,0.2508 0.09095,0 0.267339,-0.003 z m 1.821765,0.82958 q -0.132291,0.21222 -0.405143,0.6339 -0.07717,0.10749 -0.220486,0.32797 -0.05788,0.10473 -0.05512,0.226 0.159852,-0.15158 0.432704,-0.49609 0.07717,-0.12954 0.140559,-0.339 0.05512,-0.17639 0.107486,-0.35278 z m -1.493792,-0.66146 -0.270095,-0.0882 -0.0083,-0.011 q -0.02481,0 -0.107487,0.011 -0.06615,0.006 -0.107487,0.006 0.272851,0.091 0.311436,0.091 0.02481,0 0.181901,-0.008 z m -0.810286,-1.06384 h -0.03032 l -0.7717,0.3197 q 0.06615,0.0965 0.223242,0.23978 0.07717,0.0138 0.234266,0.0469 z m -0.689018,-0.50161 q -0.341754,0.34727 -0.341754,0.39412 0,0.0799 0.06339,0.30868 h 0.04961 z m 2.235176,3.04547 v -1.27607 l -0.479557,-0.14056 -0.396875,0.0551 z m -1.606791,-1.6757 q -0.256315,-0.1819 -0.457509,-0.22324 0.06615,0.0772 0.20395,0.22324 z m 1.609547,2.04501 v -0.1378 l -0.683507,-1.05007 q 0.05237,0.17639 0.107487,0.35278 0.06339,0.20946 0.14056,0.339 0.0689,0.11851 0.20395,0.25907 0.115755,0.11851 0.23151,0.23702 z m -0.644921,-0.70555 q -0.115756,-0.32798 -0.380339,-1.0418 -0.135047,-0.0662 -0.272851,-0.12954 -0.159852,-0.0716 -0.289388,-0.0716 -0.05237,0 -0.110243,-0.0138 z" />
            </g>
        </g>
        <path id="model_name" d="M29.4072 4.26294Q29.4072 4.30951 29.3839 4.35608L27.8395 8.05036Q27.8239 8.09693 27.7813 8.12409Q27.7386 8.15126 27.692 8.15126Q27.6454 8.15126 27.6027 8.12409Q27.5601 8.09693 27.5445 8.05036L25.9923 4.36384Q25.9768 4.31727 25.9768 4.29399Q25.9768 4.2319 26.0195 4.18533Q26.0622 4.13876 26.1398 4.13876Q26.1786 4.13876 26.2213 4.16593Q26.264 4.19309 26.2795 4.23966L27.6842 7.61574L29.0968 4.23966Q29.1356 4.13876 29.2597 4.13876Q29.3063 4.13876 29.3568 4.17369Q29.4072 4.20861 29.4072 4.26294ZM30.5015 8.15126Q30.4317 8.15126 30.389 8.10469Q30.3463 8.05812 30.3463 7.99604V4.30951Q30.3463 4.24742 30.3929 4.20085Q30.4394 4.15429 30.5015 4.15429Q30.5714 4.15429 30.6141 4.20085Q30.6567 4.24742 30.6567 4.30951V7.99604Q30.6567 8.05812 30.6102 8.10469Q30.5636 8.15126 30.5015 8.15126ZM30.2299 3.37818V3.31609Q30.2299 3.20743 30.3075 3.13758Q30.3851 3.06773 30.5093 3.06773Q30.6179 3.06773 30.6917 3.13758Q30.7654 3.20743 30.7654 3.31609V3.37818Q30.7654 3.48683 30.6917 3.55668Q30.6179 3.62653 30.5015 3.62653Q30.3773 3.62653 30.3036 3.55668Q30.2299 3.48683 30.2299 3.37818ZM35.0961 5.62114V7.99604Q35.0961 8.05812 35.0495 8.10469Q35.003 8.15126 34.9409 8.15126Q34.871 8.15126 34.8283 8.10469Q34.7857 8.05812 34.7857 7.99604V5.65218Q34.7857 5.12443 34.5101 4.78682Q34.2346 4.44921 33.6758 4.44921Q33.3343 4.44921 33.0045 4.61219Q32.6746 4.77517 32.4651 5.05457Q32.2555 5.33397 32.2555 5.65218V7.99604Q32.2555 8.05812 32.209 8.10469Q32.1624 8.15126 32.1003 8.15126Q32.0305 8.15126 31.9878 8.10469Q31.9451 8.05812 31.9451 7.99604V4.43369Q31.9451 4.3716 31.9917 4.32503Q32.0382 4.27846 32.1003 4.27846Q32.1702 4.27846 32.2128 4.32503Q32.2555 4.3716 32.2555 4.43369V4.95368Q32.4806 4.60443 32.8881 4.37936Q33.2955 4.15429 33.7069 4.15429Q34.3976 4.15429 34.7468 4.56174Q35.0961 4.9692 35.0961 5.62114ZM39.714 4.43369V7.99604Q39.714 8.05812 39.6674 8.10469Q39.6208 8.15126 39.5587 8.15126Q39.4889 8.15126 39.4462 8.10469Q39.4035 8.05812 39.4035 7.99604V7.29754Q39.2095 7.69335 38.8059 7.96111Q38.4023 8.22887 37.9134 8.22887Q37.4011 8.22887 36.9898 7.96111Q36.5785 7.69335 36.3456 7.22381Q36.1128 6.75426 36.1128 6.17217Q36.1128 5.59785 36.3495 5.13607Q36.5862 4.67428 36.9976 4.41428Q37.4089 4.15429 37.9134 4.15429Q38.4179 4.15429 38.8214 4.41816Q39.225 4.68204 39.4035 5.12443V4.43369Q39.4035 4.3716 39.4462 4.32503Q39.4889 4.27846 39.5587 4.27846Q39.6286 4.27846 39.6713 4.32503Q39.714 4.3716 39.714 4.43369ZM39.4346 6.17217Q39.4346 5.69875 39.2405 5.30293Q39.0465 4.90711 38.7011 4.67816Q38.3558 4.44921 37.9289 4.44921Q37.502 4.44921 37.1567 4.6704Q36.8113 4.89159 36.6173 5.28353Q36.4232 5.67546 36.4232 6.17217Q36.4232 6.66889 36.6173 7.07246Q36.8113 7.47604 37.1528 7.70499Q37.4943 7.93395 37.9289 7.93395Q38.3558 7.93395 38.7011 7.70499Q39.0465 7.47604 39.2405 7.07246Q39.4346 6.66889 39.4346 6.17217Z" style="display:inline;stroke:#000000;stroke-width:0.35;stroke-linecap:round;stroke-linejoin:bevel" />
        <path d="M5.11909 12.8429Q5.11909 12.857 5.11204 12.8782L4.14543 15.203Q4.12426 15.2488 4.0784 15.2488Q4.05723 15.2488 4.03783 15.2365Q4.01843 15.2241 4.01137 15.203L3.05181 12.8887Q3.04123 12.8676 3.04123 12.8464Q3.04123 12.8182 3.06063 12.7988Q3.08004 12.7794 3.10826 12.7794Q3.16118 12.7794 3.18587 12.8358L4.08193 14.9913L4.98151 12.8253Q5.0062 12.7794 5.04854 12.7794Q5.08029 12.7794 5.09969 12.797Q5.11909 12.8147 5.11909 12.8429ZM5.24256 15.6263Q5.24256 15.6051 5.25315 15.584L6.82301 12.5113Q6.8477 12.4654 6.86887 12.4495Q6.89004 12.4337 6.92531 12.4337Q6.95001 12.4337 6.96941 12.4513Q6.98881 12.4689 6.98881 12.5007Q6.98881 12.5289 6.9747 12.5571L5.40484 15.6334Q5.38368 15.6722 5.36427 15.6863Q5.34487 15.7004 5.31312 15.7004Q5.27784 15.7004 5.2602 15.6792Q5.24256 15.6581 5.24256 15.6263ZM8.38581 15.2841Q8.04362 15.2841 7.77551 15.1236Q7.5074 14.9631 7.35747 14.6738Q7.20754 14.3845 7.20754 14.0141Q7.20754 13.6437 7.35747 13.3544Q7.5074 13.0651 7.77551 12.9046Q8.04362 12.7441 8.38581 12.7441Q8.72801 12.7441 8.99612 12.9046Q9.26423 13.0651 9.41416 13.3544Q9.56409 13.6437 9.56409 14.0141Q9.56409 14.3845 9.41416 14.6738Q9.26423 14.9631 8.99612 15.1236Q8.72801 15.2841 8.38581 15.2841ZM8.38581 12.8852Q8.08595 12.8852 7.85136 13.0263Q7.61676 13.1674 7.48623 13.425Q7.3557 13.6825 7.3557 14.0141Q7.3557 14.3457 7.48623 14.6033Q7.61676 14.8608 7.85136 15.0019Q8.08595 15.143 8.38581 15.143Q8.68568 15.143 8.92027 15.0019Q9.15487 14.8608 9.2854 14.6033Q9.41593 14.3457 9.41593 14.0141Q9.41593 13.6825 9.2854 13.425Q9.15487 13.1674 8.92027 13.0263Q8.68568 12.8852 8.38581 12.8852ZM11.9524 13.0404Q11.9524 13.0687 11.9383 13.0863Q11.9171 13.1145 11.8854 13.1145Q11.8713 13.1145 11.843 13.1004Q11.515 12.8782 11.1481 12.8782Q10.8517 12.8782 10.603 13.0246Q10.3543 13.171 10.2097 13.4303Q10.065 13.6896 10.065 14.0141Q10.065 14.3387 10.2097 14.598Q10.3543 14.8573 10.603 15.0037Q10.8517 15.1501 11.1481 15.1501Q11.5185 15.1501 11.8395 14.9313Q11.8571 14.9172 11.8818 14.9172Q11.9171 14.9172 11.9383 14.9454Q11.9524 14.9631 11.9524 14.9878Q11.9524 15.0231 11.9242 15.0442Q11.7866 15.143 11.5696 15.2136Q11.3527 15.2841 11.1481 15.2841Q10.8129 15.2841 10.5307 15.1183Q10.2485 14.9525 10.0827 14.6615Q9.91687 14.3704 9.91687 14.0141Q9.91687 13.6578 10.0827 13.3668Q10.2485 13.0757 10.5307 12.9099Q10.8129 12.7441 11.1481 12.7441Q11.3597 12.7441 11.5591 12.8076Q11.7584 12.8711 11.9206 12.984Q11.9524 13.0087 11.9524 13.0404ZM14.055 12.8464Q14.055 12.8782 14.0356 12.8958Q14.0161 12.9134 13.9844 12.9134H13.1977V15.1783Q13.1977 15.2065 13.1765 15.2277Q13.1554 15.2488 13.1271 15.2488Q13.0954 15.2488 13.076 15.2277Q13.0566 15.2065 13.0566 15.1783V12.9134H12.2699Q12.2417 12.9134 12.2205 12.894Q12.1993 12.8746 12.1993 12.8464Q12.1993 12.8182 12.2205 12.7988Q12.2417 12.7794 12.2699 12.7794H13.9844Q14.0126 12.7794 14.0338 12.7988Q14.055 12.8182 14.055 12.8464Z" style="stroke:#000000;stroke-width:0.25;stroke-linecap:round;stroke-linejoin:bevel" />
        <path d="M20.0387 14.1023V14.9878Q20.0387 15.0301 20.0069 15.0513Q19.8446 15.1606 19.6524 15.2224Q19.4601 15.2841 19.2626 15.2841Q18.8992 15.2841 18.6117 15.1201Q18.3242 14.956 18.1601 14.6668Q17.9961 14.3775 17.9961 14.0141Q17.9961 13.6508 18.1601 13.3615Q18.3242 13.0722 18.6117 12.9082Q18.8992 12.7441 19.2626 12.7441Q19.4601 12.7441 19.6383 12.7917Q19.8164 12.8394 19.9575 12.9346Q19.9893 12.9558 19.9893 12.9946Q19.9893 13.0263 19.9663 13.0457Q19.9434 13.0651 19.9223 13.0651Q19.9046 13.0651 19.8764 13.051Q19.5801 12.8852 19.2626 12.8852Q18.938 12.8852 18.684 13.0299Q18.43 13.1745 18.2871 13.432Q18.1443 13.6896 18.1443 14.0141Q18.1443 14.3387 18.2871 14.5962Q18.43 14.8537 18.684 14.9984Q18.938 15.143 19.2626 15.143Q19.4248 15.143 19.5924 15.0918Q19.76 15.0407 19.8976 14.956V14.1729H19.2626Q19.2343 14.1729 19.2132 14.1517Q19.192 14.1305 19.192 14.1023Q19.192 14.0706 19.2132 14.0512Q19.2343 14.0318 19.2626 14.0318H19.9681Q19.9999 14.0318 20.0193 14.0529Q20.0387 14.0741 20.0387 14.1023ZM22.434 15.1818Q22.434 15.2136 22.4129 15.2312Q22.3917 15.2488 22.3599 15.2488Q22.3353 15.2488 22.3158 15.2365Q22.2964 15.2241 22.2894 15.203L21.9931 14.4763L21.9966 14.4833H20.8148L20.529 15.203Q20.5114 15.2488 20.4655 15.2488Q20.4338 15.2488 20.4144 15.2312Q20.395 15.2136 20.3914 15.1889Q20.3879 15.1747 20.395 15.1536L21.3439 12.8182Q21.3545 12.79 21.3704 12.7812Q21.3863 12.7723 21.411 12.7723Q21.4639 12.7723 21.4815 12.8182L22.4305 15.1536Q22.434 15.1642 22.434 15.1818ZM20.8712 14.3422H21.9401L21.4004 13.0122ZM24.5366 12.8464Q24.5366 12.8782 24.5172 12.8958Q24.4978 12.9134 24.466 12.9134H23.6793V15.1783Q23.6793 15.2065 23.6582 15.2277Q23.637 15.2488 23.6088 15.2488Q23.577 15.2488 23.5576 15.2277Q23.5382 15.2065 23.5382 15.1783V12.9134H22.7515Q22.7233 12.9134 22.7021 12.894Q22.681 12.8746 22.681 12.8464Q22.681 12.8182 22.7021 12.7988Q22.7233 12.7794 22.7515 12.7794H24.466Q24.4943 12.7794 24.5154 12.7988Q24.5366 12.8182 24.5366 12.8464ZM26.4839 15.1783Q26.4839 15.21 26.4628 15.2294Q26.4416 15.2488 26.4134 15.2488H25.0834Q25.0552 15.2488 25.034 15.2277Q25.0128 15.2065 25.0128 15.1783V12.8499Q25.0128 12.8217 25.034 12.8006Q25.0552 12.7794 25.0834 12.7794H26.4134Q26.4416 12.7794 26.4628 12.8006Q26.4839 12.8217 26.4839 12.8499Q26.4839 12.8817 26.4628 12.9011Q26.4416 12.9205 26.4134 12.9205H25.161V13.9047H26.2546Q26.2828 13.9047 26.304 13.9259Q26.3252 13.9471 26.3252 13.9753Q26.3252 14.0071 26.304 14.0265Q26.2828 14.0459 26.2546 14.0459H25.161V15.1077H26.4134Q26.4416 15.1077 26.4628 15.1289Q26.4839 15.1501 26.4839 15.1783Z" style="stroke:#000000;stroke-width:0.25;stroke-linecap:round;stroke-linejoin:bevel" />
        <path d="M 6.24,33.43 L 24.24,33.43 z " style="stroke:#000000;stroke-width:0.25;stroke-linecap:round;stroke-linejoin:bevel;stroke-dasharray:none" />
        <path d="M12.513 26.2785Q12.513 26.3103 12.4919 26.3297Q12.4707 26.3491 12.4425 26.3491H11.1831V27.3227H12.2837Q12.3119 27.3227 12.3331 27.3439Q12.3543 27.3651 12.3543 27.3933Q12.3543 27.425 12.3331 27.4444Q12.3119 27.4638 12.2837 27.4638H11.1831V28.6068Q11.1831 28.6351 11.1637 28.6562Q11.1443 28.6774 11.1125 28.6774Q11.0808 28.6774 11.0613 28.6562Q11.0419 28.6351 11.0419 28.6068V26.2785Q11.0419 26.2503 11.0631 26.2291Q11.0843 26.208 11.1125 26.208H12.4425Q12.4707 26.208 12.4919 26.2291Q12.513 26.2503 12.513 26.2785ZM14.8378 28.6033Q14.8378 28.6351 14.8184 28.6545Q14.799 28.6739 14.7708 28.6739Q14.7496 28.6739 14.7391 28.6668Q14.6438 28.6139 14.5874 28.4887Q14.5309 28.3634 14.5309 28.0777Q14.5309 27.7884 14.3757 27.6808Q14.2205 27.5732 14.0159 27.5732H13.1904V28.6068Q13.1904 28.6351 13.1692 28.6562Q13.148 28.6774 13.1163 28.6774Q13.0845 28.6774 13.0634 28.6562Q13.0422 28.6351 13.0422 28.6068V26.2785Q13.0422 26.2503 13.0634 26.2291Q13.0845 26.208 13.1128 26.208H14.0441Q14.2487 26.208 14.4074 26.2909Q14.5662 26.3738 14.6544 26.5184Q14.7426 26.663 14.7426 26.8465Q14.7426 27.0828 14.6173 27.2522Q14.4921 27.4215 14.291 27.4815Q14.4604 27.5344 14.5697 27.6914Q14.6791 27.8484 14.6791 28.0777Q14.6791 28.314 14.7091 28.4075Q14.7391 28.501 14.799 28.5398Q14.8378 28.5645 14.8378 28.6033ZM14.0617 27.4321Q14.284 27.4109 14.4392 27.2557Q14.5944 27.1005 14.5944 26.85Q14.5944 26.6313 14.4392 26.4902Q14.284 26.3491 14.0264 26.3491H13.1904V27.4321ZM16.8557 28.6068Q16.8557 28.6386 16.8346 28.658Q16.8134 28.6774 16.7852 28.6774H15.4552Q15.427 28.6774 15.4058 28.6562Q15.3846 28.6351 15.3846 28.6068V26.2785Q15.3846 26.2503 15.4058 26.2291Q15.427 26.208 15.4552 26.208H16.7852Q16.8134 26.208 16.8346 26.2291Q16.8557 26.2503 16.8557 26.2785Q16.8557 26.3103 16.8346 26.3297Q16.8134 26.3491 16.7852 26.3491H15.5328V27.3333H16.6264Q16.6546 27.3333 16.6758 27.3545Q16.697 27.3757 16.697 27.4039Q16.697 27.4356 16.6758 27.455Q16.6546 27.4744 16.6264 27.4744H15.5328V28.5363H16.7852Q16.8134 28.5363 16.8346 28.5575Q16.8557 28.5786 16.8557 28.6068ZM19.8438 28.9667Q19.8438 29.0337 19.745 29.1025Q19.6462 29.1713 19.4998 29.2154Q19.3534 29.2595 19.2229 29.2595Q19.0288 29.2595 18.8948 29.2172Q18.7607 29.1748 18.5879 29.0902Q18.4432 29.0161 18.3374 28.9808Q18.2316 28.9455 18.094 28.9455Q18.0446 28.9455 18.004 28.9579Q17.9634 28.9702 17.907 28.9949Q17.8435 29.0231 17.8223 29.0231Q17.7941 29.0231 17.7729 29.002Q17.7518 28.9808 17.7518 28.949Q17.7518 28.9067 17.7906 28.8891L18.3056 28.7092Q17.9846 28.6915 17.7359 28.5257Q17.4872 28.3599 17.3478 28.0794Q17.2085 27.799 17.2085 27.4427Q17.2085 27.0723 17.3584 26.783Q17.5084 26.4937 17.7765 26.3332Q18.0446 26.1727 18.3868 26.1727Q18.729 26.1727 18.9971 26.3332Q19.2652 26.4937 19.4151 26.783Q19.5651 27.0723 19.5651 27.4427Q19.5651 27.7602 19.4539 28.0177Q19.3428 28.2752 19.14 28.4481Q18.9371 28.621 18.6725 28.6809L18.2386 28.822Q18.348 28.8326 18.4415 28.8679Q18.5349 28.9032 18.6655 28.9667Q18.8348 29.0478 18.9512 29.0866Q19.0676 29.1254 19.2229 29.1254Q19.3534 29.1254 19.4469 29.0919Q19.5404 29.0584 19.6286 29.009Q19.6568 28.9949 19.6956 28.9561Q19.7168 28.9349 19.7397 28.9208Q19.7626 28.9067 19.7838 28.9067Q19.812 28.9067 19.8279 28.9226Q19.8438 28.9385 19.8438 28.9667ZM18.3868 28.5716Q18.6866 28.5716 18.9212 28.4305Q19.1558 28.2893 19.2864 28.0318Q19.4169 27.7743 19.4169 27.4427Q19.4169 27.1111 19.2864 26.8535Q19.1558 26.596 18.9212 26.4549Q18.6866 26.3138 18.3868 26.3138Q18.0869 26.3138 17.8523 26.4549Q17.6177 26.596 17.4872 26.8535Q17.3567 27.1111 17.3567 27.4427Q17.3567 27.7743 17.4872 28.0318Q17.6177 28.2893 17.8523 28.4305Q18.0869 28.5716 18.3868 28.5716Z" style="stroke:#000000;stroke-width:0.25;stroke-linecap:round;stroke-linejoin:bevel" />
        <path d="M 6.24,46.86 L 24.24,46.86 z " style="stroke:#000000;stroke-width:0.25;stroke-linecap:round;stroke-linejoin:bevel;stroke-dasharray:none" />
        <path d="M13.021 42.1413Q12.6788 42.1413 12.4107 41.9807Q12.1426 41.8202 11.9927 41.5309Q11.8428 41.2417 11.8428 40.8713Q11.8428 40.5008 11.9927 40.2116Q12.1426 39.9223 12.4107 39.7618Q12.6788 39.6013 13.021 39.6013Q13.3632 39.6013 13.6313 39.7618Q13.8994 39.9223 14.0494 40.2116Q14.1993 40.5008 14.1993 40.8713Q14.1993 41.2417 14.0494 41.5309Q13.8994 41.8202 13.6313 41.9807Q13.3632 42.1413 13.021 42.1413ZM13.021 39.7424Q12.7212 39.7424 12.4866 39.8835Q12.252 40.0246 12.1214 40.2821Q11.9909 40.5396 11.9909 40.8713Q11.9909 41.2029 12.1214 41.4604Q12.252 41.7179 12.4866 41.859Q12.7212 42.0001 13.021 42.0001Q13.3209 42.0001 13.5555 41.859Q13.7901 41.7179 13.9206 41.4604Q14.0511 41.2029 14.0511 40.8713Q14.0511 40.5396 13.9206 40.2821Q13.7901 40.0246 13.5555 39.8835Q13.3209 39.7424 13.021 39.7424ZM16.5876 39.8976Q16.5876 39.9258 16.5735 39.9434Q16.5523 39.9717 16.5206 39.9717Q16.5065 39.9717 16.4782 39.9576Q16.1502 39.7353 15.7833 39.7353Q15.4869 39.7353 15.2382 39.8817Q14.9895 40.0281 14.8449 40.2874Q14.7003 40.5467 14.7003 40.8713Q14.7003 41.1958 14.8449 41.4551Q14.9895 41.7144 15.2382 41.8608Q15.4869 42.0072 15.7833 42.0072Q16.1537 42.0072 16.4747 41.7885Q16.4924 41.7744 16.5171 41.7744Q16.5523 41.7744 16.5735 41.8026Q16.5876 41.8202 16.5876 41.8449Q16.5876 41.8802 16.5594 41.9014Q16.4218 42.0001 16.2048 42.0707Q15.9879 42.1413 15.7833 42.1413Q15.4481 42.1413 15.1659 41.9754Q14.8837 41.8096 14.7179 41.5186Q14.5521 41.2276 14.5521 40.8713Q14.5521 40.5149 14.7179 40.2239Q14.8837 39.9329 15.1659 39.7671Q15.4481 39.6013 15.7833 39.6013Q15.9949 39.6013 16.1943 39.6648Q16.3936 39.7283 16.5559 39.8411Q16.5876 39.8658 16.5876 39.8976ZM18.6902 39.7036Q18.6902 39.7353 18.6708 39.7529Q18.6514 39.7706 18.6196 39.7706H17.8329V42.0354Q17.8329 42.0636 17.8118 42.0848Q17.7906 42.106 17.7624 42.106Q17.7306 42.106 17.7112 42.0848Q17.6918 42.0636 17.6918 42.0354V39.7706H16.9051Q16.8769 39.7706 16.8557 39.7512Q16.8346 39.7318 16.8346 39.7036Q16.8346 39.6753 16.8557 39.6559Q16.8769 39.6365 16.9051 39.6365H18.6196Q18.6478 39.6365 18.669 39.6559Q18.6902 39.6753 18.6902 39.7036Z" style="stroke:#000000;stroke-width:0.25;stroke-linecap:round;stroke-linejoin:bevel" />
        <path d="M 6.24,60.29 L 24.24,60.29 z " style="stroke:#000000;stroke-width:0.25;stroke-linecap:round;stroke-linejoin:bevel;stroke-dasharray:none" />
        <path d="M14.1658 54.2998Q14.1658 54.6491 14.0547 54.9278Q13.9435 55.2065 13.7142 55.3705Q13.4849 55.5345 13.1427 55.5345H12.2255Q12.1973 55.5345 12.1761 55.5134Q12.155 55.4922 12.155 55.464V53.1357Q12.155 53.1074 12.1761 53.0863Q12.1973 53.0651 12.2255 53.0651H13.1427Q13.4814 53.0651 13.7125 53.2344Q13.9435 53.4038 14.0547 53.6842Q14.1658 53.9647 14.1658 54.2998ZM14.0176 54.2998Q14.0176 54 13.9206 53.7513Q13.8236 53.5025 13.6208 53.3544Q13.4179 53.2062 13.1075 53.2062H12.3031V55.3934H13.1075Q13.5661 55.3934 13.7918 55.0918Q14.0176 54.7902 14.0176 54.2998ZM16.166 55.464Q16.166 55.4957 16.1449 55.5151Q16.1237 55.5345 16.0955 55.5345H14.7655Q14.7373 55.5345 14.7161 55.5134Q14.695 55.4922 14.695 55.464V53.1357Q14.695 53.1074 14.7161 53.0863Q14.7373 53.0651 14.7655 53.0651H16.0955Q16.1237 53.0651 16.1449 53.0863Q16.166 53.1074 16.166 53.1357Q16.166 53.1674 16.1449 53.1868Q16.1237 53.2062 16.0955 53.2062H14.8431V54.1905H15.9367Q15.965 54.1905 15.9861 54.2116Q16.0073 54.2328 16.0073 54.261Q16.0073 54.2928 15.9861 54.3122Q15.965 54.3316 15.9367 54.3316H14.8431V55.3934H16.0955Q16.1237 55.3934 16.1449 55.4146Q16.166 55.4358 16.166 55.464ZM18.5543 53.3262Q18.5543 53.3544 18.5402 53.372Q18.5191 53.4002 18.4873 53.4002Q18.4732 53.4002 18.445 53.3861Q18.1169 53.1639 17.75 53.1639Q17.4537 53.1639 17.205 53.3103Q16.9563 53.4567 16.8116 53.716Q16.667 53.9753 16.667 54.2998Q16.667 54.6244 16.8116 54.8837Q16.9563 55.143 17.205 55.2894Q17.4537 55.4358 17.75 55.4358Q18.1204 55.4358 18.4415 55.217Q18.4591 55.2029 18.4838 55.2029Q18.5191 55.2029 18.5402 55.2312Q18.5543 55.2488 18.5543 55.2735Q18.5543 55.3088 18.5261 55.3299Q18.3885 55.4287 18.1716 55.4993Q17.9546 55.5698 17.75 55.5698Q17.4149 55.5698 17.1327 55.404Q16.8504 55.2382 16.6846 54.9472Q16.5188 54.6561 16.5188 54.2998Q16.5188 53.9435 16.6846 53.6525Q16.8504 53.3614 17.1327 53.1956Q17.4149 53.0298 17.75 53.0298Q17.9617 53.0298 18.161 53.0933Q18.3603 53.1568 18.5226 53.2697Q18.5543 53.2944 18.5543 53.3262Z" style="stroke:#000000;stroke-width:0.25;stroke-linecap:round;stroke-linejoin:bevel" />
        <path d="M 6.24,73.71 L 24.24,73.71 z " style="stroke:#000000;stroke-width:0.25;stroke-linecap:round;stroke-linejoin:bevel;stroke-dasharray:none" />
        <path d="M14.2963 68.889Q14.2963 68.9208 14.2769 68.9402Q14.2575 68.9596 14.2293 68.9596Q14.2081 68.9596 14.1975 68.9525Q14.1023 68.8996 14.0458 68.7744Q13.9894 68.6491 13.9894 68.3634Q13.9894 68.0741 13.8342 67.9665Q13.679 67.8589 13.4743 67.8589H12.6488V68.8926Q12.6488 68.9208 12.6277 68.942Q12.6065 68.9631 12.5748 68.9631Q12.543 68.9631 12.5218 68.942Q12.5007 68.9208 12.5007 68.8926V66.5642Q12.5007 66.536 12.5218 66.5148Q12.543 66.4937 12.5712 66.4937H13.5026Q13.7072 66.4937 13.8659 66.5766Q14.0247 66.6595 14.1129 66.8041Q14.2011 66.9488 14.2011 67.1322Q14.2011 67.3686 14.0758 67.5379Q13.9506 67.7072 13.7495 67.7672Q13.9188 67.8201 14.0282 67.9771Q14.1376 68.1341 14.1376 68.3634Q14.1376 68.5998 14.1676 68.6932Q14.1975 68.7867 14.2575 68.8255Q14.2963 68.8502 14.2963 68.889ZM13.5202 67.7178Q13.7425 67.6966 13.8977 67.5414Q14.0529 67.3862 14.0529 67.1357Q14.0529 66.917 13.8977 66.7759Q13.7425 66.6348 13.4849 66.6348H12.6488V67.7178ZM16.3142 68.8926Q16.3142 68.9243 16.293 68.9437Q16.2719 68.9631 16.2437 68.9631H14.9137Q14.8855 68.9631 14.8643 68.942Q14.8431 68.9208 14.8431 68.8926V66.5642Q14.8431 66.536 14.8643 66.5148Q14.8855 66.4937 14.9137 66.4937H16.2437Q16.2719 66.4937 16.293 66.5148Q16.3142 66.536 16.3142 66.5642Q16.3142 66.596 16.293 66.6154Q16.2719 66.6348 16.2437 66.6348H14.9913V67.619H16.0849Q16.1131 67.619 16.1343 67.6402Q16.1555 67.6614 16.1555 67.6896Q16.1555 67.7213 16.1343 67.7407Q16.1131 67.7601 16.0849 67.7601H14.9913V68.822H16.2437Q16.2719 68.822 16.293 68.8432Q16.3142 68.8643 16.3142 68.8926ZM18.2792 68.8926Q18.2792 68.9243 18.258 68.9437Q18.2368 68.9631 18.2086 68.9631H16.9139Q16.8822 68.9631 16.8628 68.942Q16.8434 68.9208 16.8434 68.8926V66.5642Q16.8434 66.536 16.8645 66.5148Q16.8857 66.4937 16.9175 66.4937Q16.9492 66.4937 16.9704 66.5148Q16.9915 66.536 16.9915 66.5642V68.822H18.2086Q18.2368 68.822 18.258 68.8432Q18.2792 68.8643 18.2792 68.8926Z" style="stroke:#000000;stroke-width:0.25;stroke-linecap:round;stroke-linejoin:bevel" />
        <path d="M 6.24,87.14 L 24.24,87.14 z " style="stroke:#000000;stroke-width:0.25;stroke-linecap:round;stroke-linejoin:bevel;stroke-dasharray:none" />
        <path d="M12.4442 79.9928Q12.4442 80.0246 12.4231 80.044Q12.4019 80.0634 12.3737 80.0634H11.1143V81.037H12.2149Q12.2432 81.037 12.2643 81.0582Q12.2855 81.0794 12.2855 81.1076Q12.2855 81.1393 12.2643 81.1587Q12.2432 81.1781 12.2149 81.1781H11.1143V82.3211Q11.1143 82.3494 11.0949 82.3705Q11.0755 82.3917 11.0437 82.3917Q11.012 82.3917 10.9926 82.3705Q10.9732 82.3494 10.9732 82.3211V79.9928Q10.9732 79.9646 10.9943 79.9434Q11.0155 79.9222 11.0437 79.9222H12.3737Q12.4019 79.9222 12.4231 79.9434Q12.4442 79.9646 12.4442 79.9928ZM14.9842 81.157Q14.9842 81.5062 14.8731 81.7849Q14.762 82.0636 14.5327 82.2276Q14.3034 82.3917 13.9612 82.3917H13.044Q13.0157 82.3917 12.9946 82.3705Q12.9734 82.3494 12.9734 82.3211V79.9928Q12.9734 79.9646 12.9946 79.9434Q13.0157 79.9222 13.044 79.9222H13.9612Q14.2998 79.9222 14.5309 80.0916Q14.762 80.2609 14.8731 80.5414Q14.9842 80.8218 14.9842 81.157ZM14.8361 81.157Q14.8361 80.8571 14.7391 80.6084Q14.642 80.3597 14.4392 80.2115Q14.2363 80.0634 13.9259 80.0634H13.1216V82.2506H13.9259Q14.3845 82.2506 14.6103 81.949Q14.8361 81.6473 14.8361 81.157ZM17.2773 81.7249Q17.2773 82.046 17.0744 82.2188Q16.8716 82.3917 16.5576 82.3917H15.584Q15.5557 82.3917 15.5346 82.3705Q15.5134 82.3494 15.5134 82.3211V79.9928Q15.5134 79.9646 15.5346 79.9434Q15.5557 79.9222 15.584 79.9222H16.5329Q16.8152 79.9222 16.9845 80.0845Q17.1538 80.2468 17.1538 80.522Q17.1538 80.7195 17.055 80.88Q16.9563 81.0406 16.7799 81.1005Q17.0057 81.1429 17.1415 81.3051Q17.2773 81.4674 17.2773 81.7249ZM16.5153 80.0634H15.6616V81.0547H16.5153Q16.734 81.0511 16.8698 80.9118Q17.0057 80.7724 17.0057 80.5184Q17.0057 80.3103 16.8769 80.1868Q16.7481 80.0634 16.5153 80.0634ZM17.1291 81.7249Q17.1291 81.4639 16.9668 81.3316Q16.8046 81.1993 16.54 81.1993H15.6616V82.2506H16.54Q16.8046 82.2506 16.9668 82.1183Q17.1291 81.986 17.1291 81.7249ZM19.6727 82.3352Q19.6727 82.3741 19.6462 82.3917Q19.6197 82.4093 19.5915 82.4093Q19.5633 82.4093 19.5421 82.3846L18.4838 81.0758L17.9546 81.5662V82.3176Q17.9511 82.3494 17.9299 82.3705Q17.9088 82.3917 17.8805 82.3917Q17.8453 82.3917 17.8259 82.3705Q17.8065 82.3494 17.8065 82.3176V79.9963Q17.8065 79.9646 17.8276 79.9434Q17.8488 79.9222 17.8805 79.9222Q17.9123 79.9222 17.9335 79.9434Q17.9546 79.9646 17.9546 79.9963V81.3863L19.4786 79.9575Q19.4998 79.9364 19.528 79.9364Q19.5562 79.9364 19.5774 79.9575Q19.5986 79.9787 19.5986 80.0069Q19.5986 80.0351 19.5774 80.0563L18.6002 80.9665L19.655 82.2859Q19.6727 82.3106 19.6727 82.3352Z" style="stroke:#000000;stroke-width:0.25;stroke-linecap:round;stroke-linejoin:bevel" />
        <path d="M 6.24,100.57 L 24.24,100.57 z " style="stroke:#000000;stroke-width:0.25;stroke-linecap:round;stroke-linejoin:bevel;stroke-dasharray:none" />
        <path d="M11.9645 94.5855Q11.9645 94.9348 11.8533 95.2135Q11.7422 95.4922 11.5129 95.6562Q11.2836 95.8203 10.9414 95.8203H10.0242Q9.99596 95.8203 9.97479 95.7991Q9.95363 95.7779 9.95363 95.7497V93.4214Q9.95363 93.3932 9.97479 93.372Q9.99596 93.3508 10.0242 93.3508H10.9414Q11.2801 93.3508 11.5111 93.5202Q11.7422 93.6895 11.8533 93.9699Q11.9645 94.2504 11.9645 94.5855ZM11.8163 94.5855Q11.8163 94.2857 11.7193 94.037Q11.6223 93.7883 11.4194 93.6401Q11.2166 93.4919 10.9061 93.4919H10.1018V95.6792H10.9061Q11.3647 95.6792 11.5905 95.3775Q11.8163 95.0759 11.8163 94.5855ZM13.9647 95.7497Q13.9647 95.7815 13.9435 95.8009Q13.9224 95.8203 13.8942 95.8203H12.5642Q12.536 95.8203 12.5148 95.7991Q12.4936 95.7779 12.4936 95.7497V93.4214Q12.4936 93.3932 12.5148 93.372Q12.536 93.3508 12.5642 93.3508H13.8942Q13.9224 93.3508 13.9435 93.372Q13.9647 93.3932 13.9647 93.4214Q13.9647 93.4531 13.9435 93.4725Q13.9224 93.4919 13.8942 93.4919H12.6418V94.4762H13.7354Q13.7636 94.4762 13.7848 94.4973Q13.806 94.5185 13.806 94.5467Q13.806 94.5785 13.7848 94.5979Q13.7636 94.6173 13.7354 94.6173H12.6418V95.6792H13.8942Q13.9224 95.6792 13.9435 95.7003Q13.9647 95.7215 13.9647 95.7497ZM16.0778 94.0246Q16.0778 94.2222 15.9949 94.3827Q15.912 94.5432 15.7603 94.6332Q15.6087 94.7231 15.4111 94.7231H14.642V95.7497Q14.642 95.7779 14.6191 95.7991Q14.5962 95.8203 14.568 95.8203Q14.5362 95.8203 14.515 95.7991Q14.4939 95.7779 14.4939 95.7497V93.4214Q14.4939 93.3932 14.515 93.372Q14.5362 93.3508 14.5644 93.3508H15.4111Q15.711 93.3508 15.8944 93.5378Q16.0778 93.7248 16.0778 94.0246ZM15.9297 94.0246Q15.9297 93.7812 15.7903 93.6366Q15.651 93.4919 15.4111 93.4919H14.642V94.582H15.4111Q15.6475 94.582 15.7886 94.425Q15.9297 94.268 15.9297 94.0246ZM18.2157 93.4178Q18.2157 93.4496 18.1963 93.4672Q18.1769 93.4849 18.1451 93.4849H17.3584V95.7497Q17.3584 95.7779 17.3373 95.7991Q17.3161 95.8203 17.2879 95.8203Q17.2561 95.8203 17.2367 95.7991Q17.2173 95.7779 17.2173 95.7497V93.4849H16.4306Q16.4024 93.4849 16.3812 93.4655Q16.3601 93.4461 16.3601 93.4178Q16.3601 93.3896 16.3812 93.3702Q16.4024 93.3508 16.4306 93.3508H18.1451Q18.1733 93.3508 18.1945 93.3702Q18.2157 93.3896 18.2157 93.4178ZM20.5264 93.4249V95.7462Q20.5228 95.7779 20.5017 95.7991Q20.4805 95.8203 20.4523 95.8203Q20.417 95.8203 20.3976 95.7991Q20.3782 95.7779 20.3782 95.7462V94.6208H18.8401V95.7462Q18.8366 95.7779 18.8154 95.7991Q18.7942 95.8203 18.766 95.8203Q18.7307 95.8203 18.7113 95.7991Q18.6919 95.7779 18.6919 95.7462V93.4249Q18.6919 93.3932 18.7131 93.372Q18.7343 93.3508 18.766 93.3508Q18.7978 93.3508 18.8189 93.372Q18.8401 93.3932 18.8401 93.4249V94.4797H20.3782V93.4249Q20.3782 93.3932 20.3994 93.372Q20.4205 93.3508 20.4523 93.3508Q20.484 93.3508 20.5052 93.372Q20.5264 93.3932 20.5264 93.4249Z" style="stroke:#000000;stroke-width:0.25;stroke-linecap:round;stroke-linejoin:bevel" />
        <path d="M 6.24,114.00 L 24.24,114.00 z " style="stroke:#000000;stroke-width:0.25;stroke-linecap:round;stroke-linejoin:bevel;stroke-dasharray:none" />
        <path d="M13.021 109.175Q13.021 109.207 13.0016 109.226Q12.9822 109.245 12.954 109.245Q12.9328 109.245 12.9223 109.238Q12.827 109.185 12.7706 109.06Q12.7141 108.935 12.7141 108.649Q12.7141 108.36 12.5589 108.252Q12.4037 108.145 12.1991 108.145H11.3736V109.178Q11.3736 109.207 11.3524 109.228Q11.3312 109.249 11.2995 109.249Q11.2677 109.249 11.2466 109.228Q11.2254 109.207 11.2254 109.178V106.85Q11.2254 106.822 11.2466 106.801Q11.2677 106.779 11.2959 106.779H12.2273Q12.4319 106.779 12.5906 106.862Q12.7494 106.945 12.8376 107.09Q12.9258 107.234 12.9258 107.418Q12.9258 107.654 12.8005 107.824Q12.6753 107.993 12.4742 108.053Q12.6436 108.106 12.7529 108.263Q12.8623 108.42 12.8623 108.649Q12.8623 108.885 12.8923 108.979Q12.9223 109.072 12.9822 109.111Q13.021 109.136 13.021 109.175ZM12.2449 108.004Q12.4672 107.982 12.6224 107.827Q12.7776 107.672 12.7776 107.421Q12.7776 107.203 12.6224 107.062Q12.4672 106.921 12.2096 106.921H11.3736V108.004ZM15.3811 109.182Q15.3811 109.214 15.3599 109.231Q15.3388 109.249 15.307 109.249Q15.2823 109.249 15.2629 109.236Q15.2435 109.224 15.2365 109.203L14.9401 108.476L14.9437 108.483H13.7619L13.4761 109.203Q13.4585 109.249 13.4126 109.249Q13.3809 109.249 13.3615 109.231Q13.3421 109.214 13.3385 109.189Q13.335 109.175 13.3421 109.154L14.291 106.818Q14.3016 106.79 14.3175 106.781Q14.3334 106.772 14.3581 106.772Q14.411 106.772 14.4286 106.818L15.3776 109.154Q15.3811 109.164 15.3811 109.182ZM13.8183 108.342H14.8872L14.3475 107.012ZM17.4837 106.846Q17.4837 106.878 17.4643 106.896Q17.4449 106.913 17.4131 106.913H16.6264V109.178Q16.6264 109.207 16.6053 109.228Q16.5841 109.249 16.5559 109.249Q16.5241 109.249 16.5047 109.228Q16.4853 109.207 16.4853 109.178V106.913H15.6986Q15.6704 106.913 15.6492 106.894Q15.6281 106.875 15.6281 106.846Q15.6281 106.818 15.6492 106.799Q15.6704 106.779 15.6986 106.779H17.4131Q17.4413 106.779 17.4625 106.799Q17.4837 106.818 17.4837 106.846ZM19.431 109.178Q19.431 109.21 19.4098 109.229Q19.3887 109.249 19.3604 109.249H18.0305Q18.0023 109.249 17.9811 109.228Q17.9599 109.207 17.9599 109.178V106.85Q17.9599 106.822 17.9811 106.801Q18.0023 106.779 18.0305 106.779H19.3604Q19.3887 106.779 19.4098 106.801Q19.431 106.822 19.431 106.85Q19.431 106.882 19.4098 106.901Q19.3887 106.921 19.3604 106.921H18.1081V107.905H19.2017Q19.2299 107.905 19.2511 107.926Q19.2722 107.947 19.2722 107.975Q19.2722 108.007 19.2511 108.026Q19.2299 108.046 19.2017 108.046H18.1081V109.108H19.3604Q19.3887 109.108 19.4098 109.129Q19.431 109.15 19.431 109.178Z" style="stroke:#000000;stroke-width:0.25;stroke-linecap:round;stroke-linejoin:bevel" />
        <path d="M 41.80,60.29 L 59.80,60.29 z " style="stroke:#000000;stroke-width:0.25;stroke-linecap:round;stroke-linejoin:bevel;stroke-dasharray:none" />
        <path d="M45.6142 55.1994Q45.593 55.1782 45.593 55.1465Q45.593 55.1183 45.6177 55.0918Q45.6424 55.0654 45.6706 55.0654Q45.7024 55.0654 45.7306 55.0971Q45.8682 55.2594 46.0569 55.344Q46.2456 55.4287 46.4538 55.4287Q46.7254 55.4287 46.9018 55.2982Q47.0782 55.1677 47.0782 54.9525Q47.0747 54.7831 46.9865 54.6738Q46.8983 54.5644 46.7695 54.4991Q46.6407 54.4339 46.4185 54.3527Q46.1751 54.261 46.0393 54.1905Q45.9034 54.1199 45.8064 53.9894Q45.7094 53.8589 45.7094 53.6472Q45.7094 53.4743 45.8047 53.3332Q45.8999 53.1921 46.0763 53.111Q46.2527 53.0298 46.4855 53.0298Q46.6937 53.0298 46.8806 53.1057Q47.0676 53.1815 47.177 53.3191Q47.2122 53.3685 47.2122 53.3932Q47.2122 53.4214 47.1858 53.4443Q47.1593 53.4673 47.1276 53.4673Q47.0994 53.4673 47.0817 53.4461Q46.9829 53.3191 46.8277 53.245Q46.6725 53.1709 46.4855 53.1709Q46.2174 53.1709 46.0393 53.2979Q45.8611 53.4249 45.8611 53.6437Q45.8611 53.7954 45.9475 53.9012Q46.034 54.007 46.1645 54.0723Q46.295 54.1375 46.4891 54.2081Q46.736 54.2963 46.8806 54.3704Q47.0253 54.4445 47.1276 54.5856Q47.2299 54.7267 47.2299 54.9595Q47.2299 55.1218 47.1346 55.2629Q47.0394 55.404 46.8612 55.4869Q46.6831 55.5698 46.4538 55.5698Q46.1927 55.5698 45.9987 55.4799Q45.8047 55.3899 45.6142 55.1994ZM49.3466 53.7389Q49.3466 53.9365 49.2637 54.097Q49.1808 54.2575 49.0291 54.3475Q48.8774 54.4374 48.6798 54.4374H47.9108V55.464Q47.9108 55.4922 47.8878 55.5134Q47.8649 55.5345 47.8367 55.5345Q47.8049 55.5345 47.7837 55.5134Q47.7626 55.4922 47.7626 55.464V53.1357Q47.7626 53.1074 47.7837 53.0863Q47.8049 53.0651 47.8331 53.0651H48.6798Q48.9797 53.0651 49.1631 53.2521Q49.3466 53.439 49.3466 53.7389ZM49.1984 53.7389Q49.1984 53.4955 49.059 53.3509Q48.9197 53.2062 48.6798 53.2062H47.9108V54.2963H48.6798Q48.9162 54.2963 49.0573 54.1393Q49.1984 53.9823 49.1984 53.7389ZM51.6714 55.4675Q51.6714 55.4993 51.6502 55.5169Q51.629 55.5345 51.5973 55.5345Q51.5726 55.5345 51.5532 55.5222Q51.5338 55.5099 51.5267 55.4887L51.2304 54.762L51.2339 54.769H50.0521L49.7664 55.4887Q49.7487 55.5345 49.7029 55.5345Q49.6711 55.5345 49.6517 55.5169Q49.6323 55.4993 49.6288 55.4746Q49.6253 55.4605 49.6323 55.4393L50.5813 53.1039Q50.5919 53.0757 50.6077 53.0669Q50.6236 53.058 50.6483 53.058Q50.7012 53.058 50.7189 53.1039L51.6678 55.4393Q51.6714 55.4499 51.6714 55.4675ZM50.1086 54.6279H51.1775L50.6377 53.2979ZM54.0068 53.3262Q54.0068 53.3544 53.9926 53.372Q53.9715 53.4002 53.9397 53.4002Q53.9256 53.4002 53.8974 53.3861Q53.5693 53.1639 53.2024 53.1639Q52.9061 53.1639 52.6574 53.3103Q52.4087 53.4567 52.264 53.716Q52.1194 53.9753 52.1194 54.2998Q52.1194 54.6244 52.264 54.8837Q52.4087 55.143 52.6574 55.2894Q52.9061 55.4358 53.2024 55.4358Q53.5728 55.4358 53.8939 55.217Q53.9115 55.2029 53.9362 55.2029Q53.9715 55.2029 53.9926 55.2312Q54.0068 55.2488 54.0068 55.2735Q54.0068 55.3088 53.9785 55.3299Q53.8409 55.4287 53.624 55.4993Q53.407 55.5698 53.2024 55.5698Q52.8673 55.5698 52.5851 55.404Q52.3028 55.2382 52.137 54.9472Q51.9712 54.6561 51.9712 54.2998Q51.9712 53.9435 52.137 53.6525Q52.3028 53.3614 52.5851 53.1956Q52.8673 53.0298 53.2024 53.0298Q53.4141 53.0298 53.6134 53.0933Q53.8127 53.1568 53.975 53.2697Q54.0068 53.2944 54.0068 53.3262ZM55.9541 55.464Q55.9541 55.4957 55.9329 55.5151Q55.9117 55.5345 55.8835 55.5345H54.5536Q54.5253 55.5345 54.5042 55.5134Q54.483 55.4922 54.483 55.464V53.1357Q54.483 53.1074 54.5042 53.0863Q54.5253 53.0651 54.5536 53.0651H55.8835Q55.9117 53.0651 55.9329 53.0863Q55.9541 53.1074 55.9541 53.1357Q55.9541 53.1674 55.9329 53.1868Q55.9117 53.2062 55.8835 53.2062H54.6312V54.1905H55.7248Q55.753 54.1905 55.7742 54.2116Q55.7953 54.2328 55.7953 54.261Q55.7953 54.2928 55.7742 54.3122Q55.753 54.3316 55.7248 54.3316H54.6312V55.3934H55.8835Q55.9117 55.3934 55.9329 55.4146Q55.9541 55.4358 55.9541 55.464Z" style="stroke:#000000;stroke-width:0.25;stroke-linecap:round;stroke-linejoin:bevel" />
        <path d="M 41.80,73.71 L 59.80,73.71 z " style="stroke:#000000;stroke-width:0.25;stroke-linecap:round;stroke-linejoin:bevel;stroke-dasharray:none" />
        <path d="M44.3406 68.628Q44.3195 68.6068 44.3195 68.5751Q44.3195 68.5468 44.3442 68.5204Q44.3689 68.4939 44.3971 68.4939Q44.4288 68.4939 44.4571 68.5257Q44.5946 68.688 44.7834 68.7726Q44.9721 68.8573 45.1803 68.8573Q45.4519 68.8573 45.6283 68.7268Q45.8047 68.5962 45.8047 68.381Q45.8011 68.2117 45.7129 68.1023Q45.6247 67.993 45.496 67.9277Q45.3672 67.8625 45.145 67.7813Q44.9016 67.6896 44.7657 67.619Q44.6299 67.5485 44.5329 67.418Q44.4359 67.2874 44.4359 67.0758Q44.4359 66.9029 44.5311 66.7618Q44.6264 66.6207 44.8028 66.5395Q44.9792 66.4584 45.212 66.4584Q45.4201 66.4584 45.6071 66.5342Q45.7941 66.6101 45.9034 66.7477Q45.9387 66.7971 45.9387 66.8218Q45.9387 66.85 45.9123 66.8729Q45.8858 66.8958 45.8541 66.8958Q45.8258 66.8958 45.8082 66.8747Q45.7094 66.7477 45.5542 66.6736Q45.399 66.5995 45.212 66.5995Q44.9439 66.5995 44.7657 66.7265Q44.5876 66.8535 44.5876 67.0722Q44.5876 67.2239 44.674 67.3298Q44.7604 67.4356 44.891 67.5009Q45.0215 67.5661 45.2155 67.6367Q45.4625 67.7249 45.6071 67.799Q45.7518 67.873 45.8541 68.0141Q45.9564 68.1553 45.9564 68.3881Q45.9564 68.5504 45.8611 68.6915Q45.7659 68.8326 45.5877 68.9155Q45.4096 68.9984 45.1803 68.9984Q44.9192 68.9984 44.7252 68.9084Q44.5311 68.8185 44.3406 68.628ZM48.073 67.1675Q48.073 67.365 47.9901 67.5255Q47.9072 67.6861 47.7555 67.776Q47.6038 67.866 47.4063 67.866H46.6372V68.8926Q46.6372 68.9208 46.6143 68.942Q46.5914 68.9631 46.5631 68.9631Q46.5314 68.9631 46.5102 68.942Q46.4891 68.9208 46.4891 68.8926V66.5642Q46.4891 66.536 46.5102 66.5148Q46.5314 66.4937 46.5596 66.4937H47.4063Q47.7061 66.4937 47.8896 66.6806Q48.073 66.8676 48.073 67.1675ZM47.9249 67.1675Q47.9249 66.9241 47.7855 66.7794Q47.6462 66.6348 47.4063 66.6348H46.6372V67.7249H47.4063Q47.6426 67.7249 47.7837 67.5679Q47.9249 67.4109 47.9249 67.1675ZM50.3802 68.889Q50.3802 68.9208 50.3608 68.9402Q50.3414 68.9596 50.3132 68.9596Q50.292 68.9596 50.2814 68.9525Q50.1862 68.8996 50.1297 68.7744Q50.0733 68.6491 50.0733 68.3634Q50.0733 68.0741 49.9181 67.9665Q49.7628 67.8589 49.5582 67.8589H48.7327V68.8926Q48.7327 68.9208 48.7116 68.942Q48.6904 68.9631 48.6586 68.9631Q48.6269 68.9631 48.6057 68.942Q48.5846 68.9208 48.5846 68.8926V66.5642Q48.5846 66.536 48.6057 66.5148Q48.6269 66.4937 48.6551 66.4937H49.5864Q49.7911 66.4937 49.9498 66.5766Q50.1086 66.6595 50.1968 66.8041Q50.2849 66.9488 50.2849 67.1322Q50.2849 67.3686 50.1597 67.5379Q50.0345 67.7072 49.8334 67.7672Q50.0027 67.8201 50.1121 67.9771Q50.2214 68.1341 50.2214 68.3634Q50.2214 68.5998 50.2514 68.6932Q50.2814 68.7867 50.3414 68.8255Q50.3802 68.8502 50.3802 68.889ZM49.6041 67.7178Q49.8263 67.6966 49.9816 67.5414Q50.1368 67.3862 50.1368 67.1357Q50.1368 66.917 49.9816 66.7759Q49.8263 66.6348 49.5688 66.6348H48.7327V67.7178ZM52.3981 68.8926Q52.3981 68.9243 52.3769 68.9437Q52.3558 68.9631 52.3275 68.9631H50.9976Q50.9693 68.9631 50.9482 68.942Q50.927 68.9208 50.927 68.8926V66.5642Q50.927 66.536 50.9482 66.5148Q50.9693 66.4937 50.9976 66.4937H52.3275Q52.3558 66.4937 52.3769 66.5148Q52.3981 66.536 52.3981 66.5642Q52.3981 66.596 52.3769 66.6154Q52.3558 66.6348 52.3275 66.6348H51.0752V67.619H52.1688Q52.197 67.619 52.2182 67.6402Q52.2393 67.6614 52.2393 67.6896Q52.2393 67.7213 52.2182 67.7407Q52.197 67.7601 52.1688 67.7601H51.0752V68.822H52.3275Q52.3558 68.822 52.3769 68.8432Q52.3981 68.8643 52.3981 68.8926ZM54.7405 68.8961Q54.7405 68.9278 54.7194 68.9455Q54.6982 68.9631 54.6664 68.9631Q54.6418 68.9631 54.6223 68.9508Q54.6029 68.9384 54.5959 68.9173L54.2996 68.1905L54.3031 68.1976H53.1213L52.8355 68.9173Q52.8179 68.9631 52.772 68.9631Q52.7403 68.9631 52.7209 68.9455Q52.7015 68.9278 52.6979 68.9031Q52.6944 68.889 52.7015 68.8679L53.6504 66.5325Q53.661 66.5043 53.6769 66.4954Q53.6928 66.4866 53.7175 66.4866Q53.7704 66.4866 53.788 66.5325L54.737 68.8679Q54.7405 68.8785 54.7405 68.8961ZM53.1777 68.0565H54.2466L53.7069 66.7265ZM57.2276 67.7284Q57.2276 68.0776 57.1165 68.3563Q57.0054 68.635 56.7761 68.7991Q56.5468 68.9631 56.2046 68.9631H55.2873Q55.2591 68.9631 55.2379 68.942Q55.2168 68.9208 55.2168 68.8926V66.5642Q55.2168 66.536 55.2379 66.5148Q55.2591 66.4937 55.2873 66.4937H56.2046Q56.5432 66.4937 56.7743 66.663Q57.0054 66.8323 57.1165 67.1128Q57.2276 67.3933 57.2276 67.7284ZM57.0794 67.7284Q57.0794 67.4285 56.9824 67.1798Q56.8854 66.9311 56.6826 66.783Q56.4797 66.6348 56.1693 66.6348H55.3649V68.822H56.1693Q56.6279 68.822 56.8537 68.5204Q57.0794 68.2188 57.0794 67.7284Z" style="stroke:#000000;stroke-width:0.25;stroke-linecap:round;stroke-linejoin:bevel" />
        <path d="M 41.80,87.14 L 59.80,87.14 z " style="stroke:#000000;stroke-width:0.25;stroke-linecap:round;stroke-linejoin:bevel;stroke-dasharray:none" />
        <path d="M49.2654 80.5961Q49.2654 80.7936 49.1825 80.9541Q49.0996 81.1146 48.9479 81.2046Q48.7962 81.2946 48.5987 81.2946H47.8296V82.3211Q47.8296 82.3494 47.8067 82.3705Q47.7837 82.3917 47.7555 82.3917Q47.7238 82.3917 47.7026 82.3705Q47.6814 82.3494 47.6814 82.3211V79.9928Q47.6814 79.9646 47.7026 79.9434Q47.7238 79.9222 47.752 79.9222H48.5987Q48.8985 79.9222 49.082 80.1092Q49.2654 80.2962 49.2654 80.5961ZM49.1172 80.5961Q49.1172 80.3526 48.9779 80.208Q48.8386 80.0634 48.5987 80.0634H47.8296V81.1534H48.5987Q48.835 81.1534 48.9761 80.9965Q49.1172 80.8395 49.1172 80.5961ZM51.5902 82.3247Q51.5902 82.3564 51.5691 82.3741Q51.5479 82.3917 51.5161 82.3917Q51.4914 82.3917 51.472 82.3793Q51.4526 82.367 51.4456 82.3458L51.1492 81.6191L51.1528 81.6262H49.971L49.6852 82.3458Q49.6676 82.3917 49.6217 82.3917Q49.59 82.3917 49.5706 82.3741Q49.5512 82.3564 49.5476 82.3317Q49.5441 82.3176 49.5512 82.2964L50.5001 79.9611Q50.5107 79.9328 50.5266 79.924Q50.5425 79.9152 50.5672 79.9152Q50.6201 79.9152 50.6377 79.9611L51.5867 82.2964Q51.5902 82.307 51.5902 82.3247ZM50.0274 81.4851H51.0963L50.5566 80.1551ZM53.9186 79.9893V82.3141Q53.9186 82.3529 53.8974 82.3723Q53.8762 82.3917 53.8445 82.3917Q53.8092 82.3917 53.788 82.3635L52.2005 80.1939V82.3317Q52.2005 82.3564 52.1811 82.3741Q52.1617 82.3917 52.1335 82.3917Q52.1017 82.3917 52.0841 82.3741Q52.0665 82.3564 52.0665 82.3317V79.9928Q52.0665 79.9575 52.0859 79.9399Q52.1053 79.9222 52.13 79.9222Q52.1617 79.9222 52.1829 79.9469L53.7845 82.1306V79.9893Q53.7845 79.9611 53.8039 79.9416Q53.8233 79.9222 53.8515 79.9222Q53.8833 79.9222 53.9009 79.9416Q53.9186 79.9611 53.9186 79.9893Z" style="stroke:#000000;stroke-width:0.25;stroke-linecap:round;stroke-linejoin:bevel" />
        <path d="M 41.80,100.57 L 59.80,100.57 z " style="stroke:#000000;stroke-width:0.25;stroke-linecap:round;stroke-linejoin:bevel;stroke-dasharray:none" />
        <path d="M47.5827 95.7497Q47.5827 95.7815 47.5615 95.8009Q47.5403 95.8203 47.5121 95.8203H46.2174Q46.1857 95.8203 46.1663 95.7991Q46.1469 95.7779 46.1469 95.7497V93.4214Q46.1469 93.3932 46.168 93.372Q46.1892 93.3508 46.2209 93.3508Q46.2527 93.3508 46.2739 93.372Q46.295 93.3932 46.295 93.4214V95.6792H47.5121Q47.5403 95.6792 47.5615 95.7003Q47.5827 95.7215 47.5827 95.7497ZM49.4594 95.7497Q49.4594 95.7815 49.4383 95.8009Q49.4171 95.8203 49.3889 95.8203H48.0589Q48.0307 95.8203 48.0095 95.7991Q47.9884 95.7779 47.9884 95.7497V93.4214Q47.9884 93.3932 48.0095 93.372Q48.0307 93.3508 48.0589 93.3508H49.3889Q49.4171 93.3508 49.4383 93.372Q49.4594 93.3932 49.4594 93.4214Q49.4594 93.4531 49.4383 93.4725Q49.4171 93.4919 49.3889 93.4919H48.1365V94.4762H49.2301Q49.2584 94.4762 49.2795 94.4973Q49.3007 94.5185 49.3007 94.5467Q49.3007 94.5785 49.2795 94.5979Q49.2584 94.6173 49.2301 94.6173H48.1365V95.6792H49.3889Q49.4171 95.6792 49.4383 95.7003Q49.4594 95.7215 49.4594 95.7497ZM51.8407 93.4143Q51.8407 93.4284 51.8336 93.4496L50.867 95.7744Q50.8459 95.8203 50.8 95.8203Q50.7788 95.8203 50.7594 95.8079Q50.74 95.7956 50.733 95.7744L49.7734 93.4602Q49.7628 93.439 49.7628 93.4178Q49.7628 93.3896 49.7822 93.3702Q49.8016 93.3508 49.8299 93.3508Q49.8828 93.3508 49.9075 93.4073L50.8035 95.5627L51.7031 93.3967Q51.7278 93.3508 51.7701 93.3508Q51.8019 93.3508 51.8213 93.3685Q51.8407 93.3861 51.8407 93.4143ZM53.788 95.7497Q53.788 95.7815 53.7669 95.8009Q53.7457 95.8203 53.7175 95.8203H52.3875Q52.3593 95.8203 52.3381 95.7991Q52.3169 95.7779 52.3169 95.7497V93.4214Q52.3169 93.3932 52.3381 93.372Q52.3593 93.3508 52.3875 93.3508H53.7175Q53.7457 93.3508 53.7669 93.372Q53.788 93.3932 53.788 93.4214Q53.788 93.4531 53.7669 93.4725Q53.7457 93.4919 53.7175 93.4919H52.4651V94.4762H53.5587Q53.5869 94.4762 53.6081 94.4973Q53.6293 94.5185 53.6293 94.5467Q53.6293 94.5785 53.6081 94.5979Q53.5869 94.6173 53.5587 94.6173H52.4651V95.6792H53.7175Q53.7457 95.6792 53.7669 95.7003Q53.788 95.7215 53.788 95.7497ZM55.753 95.7497Q55.753 95.7815 55.7318 95.8009Q55.7107 95.8203 55.6824 95.8203H54.3877Q54.356 95.8203 54.3366 95.7991Q54.3172 95.7779 54.3172 95.7497V93.4214Q54.3172 93.3932 54.3384 93.372Q54.3595 93.3508 54.3913 93.3508Q54.423 93.3508 54.4442 93.372Q54.4654 93.3932 54.4654 93.4214V95.6792H55.6824Q55.7107 95.6792 55.7318 95.7003Q55.753 95.7215 55.753 95.7497Z" style="stroke:#000000;stroke-width:0.25;stroke-linecap:round;stroke-linejoin:bevel" />
        <path d="M 44.80,114.00 L 56.80,114.00 z " style="stroke:#000000;stroke-width:0.25;stroke-linecap:round;stroke-linejoin:bevel;stroke-dasharray:none" />
    </g>
</svg>
