<?xml version="1.0" encoding="utf-8"?>
<svg xmlns="http://www.w3.org/2000/svg" width="30.48mm" height="128.50mm" viewBox="0 0 30.48 128.50">
    <g id="PanelLayer">
        <defs />
        <rect id="border_rect" width="30.48" height="128.5" x="0" y="0" style="display:inline;fill:#4f8df2;fill-opacity:1;stroke:none;" />
        <path id="sapphire_gemstone" d="m 17.955,122.900 q 0,0.34175 -0.242534,0.63114 -0.0441,0.0524 -0.20395,0.21497 -0.187413,0.19017 -0.785481,0.81304 l -1.444183,1.51309 q -0.01929,0.003 -0.0441,0.003 -0.02756,0 -0.04134,-0.003 -0.08268,-0.0827 -0.647678,-0.67524 -0.468532,-0.47404 -0.934309,-0.94809 -0.556727,-0.56775 -0.89848,-0.98116 -0.132292,-0.15985 -0.168121,-0.29766 -0.02756,-0.10197 -0.02756,-0.34175 0,-0.11024 0.07166,-0.28939 0.06614,-0.16536 0.140559,-0.26458 0.118512,-0.1571 0.42168,-0.42444 0.283875,-0.2508 0.474044,-0.37482 0.272852,-0.17915 0.818555,-0.36656 0.09646,-0.0331 0.110243,-0.0331 h 1.3615 q 0.01102,0 0.104731,0.0331 0.567751,0.20119 0.824066,0.36656 0.165365,0.10473 0.474045,0.37758 0.322461,0.28388 0.421679,0.42168 0.214974,0.2949 0.214974,0.62563 z m -0.16812,-0.27285 q -0.03307,-0.10749 -0.135048,-0.30868 -0.07166,-0.0937 -0.209462,-0.19844 -0.118511,-0.0854 -0.234266,-0.17088 0.245291,0.3638 0.578776,0.678 z m -0.573264,-0.52366 -0.358289,-0.44648 v 0.41065 z m 0.636653,0.75792 q 0,-0.0524 -0.341753,-0.39412 l 0.228754,0.7028 h 0.04961 q 0.06339,-0.21773 0.06339,-0.30868 z m -0.23151,0.27285 -0.316948,-0.90399 -0.410655,-0.0634 -0.159853,0.61461 z m 0.0028,0.15434 -0.771701,-0.3197 h -0.03032 l 0.344509,0.60634 q 0.07993,-0.003 0.234266,-0.0469 0.02481,-0.0138 0.223242,-0.23978 z m -0.857139,-1.05006 -0.719335,0.28388 0.60358,0.22599 z m 0,-0.16261 v -0.51538 l -0.917773,-0.38034 h -1.223697 l -0.917772,0.38034 v 0.51538 l 0.89848,0.4079 h 1.254014 z m 0.573264,1.53789 q -0.0689,0.011 -0.198438,0.0524 -0.08544,0.0551 -0.259071,0.16261 0.01929,0 0.06339,0.003 0.04134,0 0.06339,0 0.118511,0 0.190169,-0.0689 0.07166,-0.0717 0.14056,-0.14883 z m -0.289388,0.003 -0.347266,-0.63114 -0.363801,0.87918 q 0.0248,-0.0165 0.06615,-0.0165 0.03032,0 0.08544,0.011 0.05788,0.008 0.08819,0.008 0.04961,0 0.228754,-0.10749 0.228754,-0.1378 0.242535,-0.14331 z m -0.440972,-0.74139 -0.683507,-0.2756 -0.592556,0.54845 0.903993,0.65595 z m -0.854383,-0.28387 h -1.036284 l 0.523654,0.47404 z m 0.749652,1.36701 q -0.228754,-0.0303 -0.228754,-0.0303 -0.03583,0 -0.272851,0.0937 l 0.190169,0.0193 q 0.01102,0 0.311436,-0.0827 z m -0.388606,-0.0882 -0.843359,-0.61185 v 0.67524 l 0.471289,0.0827 z m 0.854383,0.0496 q -0.09922,0.006 -0.2949,0.0386 -0.01102,0.003 -0.377583,0.17639 -0.129535,0.34726 -0.380338,1.0418 z m -2.543857,-1.39733 -0.719335,-0.28388 0.124023,0.51814 z m -0.802018,-0.45476 v -0.41065 l -0.366557,0.44648 z m 1.515841,1.07212 -0.592556,-0.54019 -0.683506,0.2756 0.380338,0.9288 z m 0.369314,0.94257 q -0.03307,-0.003 -0.135047,-0.0248 -0.08544,-0.0165 -0.137804,-0.0165 -0.05237,0 -0.137804,0.0165 -0.101975,0.0221 -0.135047,0.0248 0.264583,0.0469 0.272851,0.0469 0.0083,0 0.272851,-0.0469 z m -0.30868,-0.1378 v -0.68626 l -0.843359,0.61185 0.37207,0.14607 z m 0.950846,0.20671 -0.396875,-0.0551 -0.479557,0.14056 v 1.27607 z m -2.888366,-2.20211 q -0.118512,0.0854 -0.234267,0.17364 -0.146072,0.10748 -0.209461,0.19568 -0.0441,0.10473 -0.135048,0.31419 0.369314,-0.3638 0.578776,-0.68351 z m 0.476801,0.83234 -0.159853,-0.61461 -0.410655,0.0634 -0.316948,0.90399 z m 0.394118,1.08313 -0.363802,-0.87918 -0.355533,0.63114 q 0.43546,0.2508 0.451996,0.2508 0.09095,0 0.267339,-0.003 z m 1.821765,0.82958 q -0.132291,0.21222 -0.405143,0.6339 -0.07717,0.10749 -0.220486,0.32797 -0.05788,0.10473 -0.05512,0.226 0.159852,-0.15158 0.432704,-0.49609 0.07717,-0.12954 0.140559,-0.339 0.05512,-0.17639 0.107486,-0.35278 z m -1.493792,-0.66146 -0.270095,-0.0882 -0.0083,-0.011 q -0.02481,0 -0.107487,0.011 -0.06615,0.006 -0.107487,0.006 0.272851,0.091 0.311436,0.091 0.02481,0 0.181901,-0.008 z m -0.810286,-1.06384 h -0.03032 l -0.7717,0.3197 q 0.06615,0.0965 0.223242,0.23978 0.07717,0.0138 0.234266,0.0469 z m -0.689018,-0.50161 q -0.341754,0.34727 -0.341754,0.39412 0,0.0799 0.06339,0.30868 h 0.04961 z m 2.235176,3.04547 v -1.27607 l -0.479557,-0.14056 -0.396875,0.0551 z m -1.606791,-1.6757 q -0.256315,-0.1819 -0.457509,-0.22324 0.06615,0.0772 0.20395,0.22324 z m 1.609547,2.04501 v -0.1378 l -0.683507,-1.05007 q 0.05237,0.17639 0.107487,0.35278 0.06339,0.20946 0.14056,0.339 0.0689,0.11851 0.20395,0.25907 0.115755,0.11851 0.23151,0.23702 z m -0.644921,-0.70555 q -0.115756,-0.32798 -0.380339,-1.0418 -0.135047,-0.0662 -0.272851,-0.12954 -0.159852,-0.0716 -0.289388,-0.0716 -0.05237,0 -0.110243,-0.0138 z" style="stroke-width:0;fill:#0000ff;stroke:#2e2114;stroke-linecap:square;stroke-opacity:1" />
        <path id="model_name" d="M11.6272 4.26294Q11.6272 4.30951 11.6039 4.35608L10.0595 8.05036Q10.0439 8.09693 10.0013 8.12409Q9.95856 8.15126 9.912 8.15126Q9.86543 8.15126 9.82274 8.12409Q9.78006 8.09693 9.76454 8.05036L8.21231 4.36384Q8.19679 4.31727 8.19679 4.29399Q8.19679 4.2319 8.23948 4.18533Q8.28216 4.13876 8.35978 4.13876Q8.39858 4.13876 8.44127 4.16593Q8.48395 4.19309 8.49948 4.23966L9.90424 7.61574L11.3168 4.23966Q11.3556 4.13876 11.4797 4.13876Q11.5263 4.13876 11.5768 4.17369Q11.6272 4.20861 11.6272 4.26294ZM12.7215 8.15126Q12.6517 8.15126 12.609 8.10469Q12.5663 8.05812 12.5663 7.99604V4.30951Q12.5663 4.24742 12.6129 4.20085Q12.6594 4.15429 12.7215 4.15429Q12.7914 4.15429 12.8341 4.20085Q12.8767 4.24742 12.8767 4.30951V7.99604Q12.8767 8.05812 12.8302 8.10469Q12.7836 8.15126 12.7215 8.15126ZM12.4499 3.37818V3.31609Q12.4499 3.20743 12.5275 3.13758Q12.6051 3.06773 12.7293 3.06773Q12.8379 3.06773 12.9117 3.13758Q12.9854 3.20743 12.9854 3.31609V3.37818Q12.9854 3.48683 12.9117 3.55668Q12.8379 3.62653 12.7215 3.62653Q12.5973 3.62653 12.5236 3.55668Q12.4499 3.48683 12.4499 3.37818ZM17.3161 5.62114V7.99604Q17.3161 8.05812 17.2695 8.10469Q17.223 8.15126 17.1609 8.15126Q17.091 8.15126 17.0483 8.10469Q17.0057 8.05812 17.0057 7.99604V5.65218Q17.0057 5.12443 16.7301 4.78682Q16.4546 4.44921 15.8958 4.44921Q15.5543 4.44921 15.2245 4.61219Q14.8946 4.77517 14.6851 5.05457Q14.4755 5.33397 14.4755 5.65218V7.99604Q14.4755 8.05812 14.429 8.10469Q14.3824 8.15126 14.3203 8.15126Q14.2505 8.15126 14.2078 8.10469Q14.1651 8.05812 14.1651 7.99604V4.43369Q14.1651 4.3716 14.2117 4.32503Q14.2582 4.27846 14.3203 4.27846Q14.3902 4.27846 14.4328 4.32503Q14.4755 4.3716 14.4755 4.43369V4.95368Q14.7006 4.60443 15.1081 4.37936Q15.5155 4.15429 15.9269 4.15429Q16.6176 4.15429 16.9668 4.56174Q17.3161 4.9692 17.3161 5.62114ZM21.934 4.43369V7.99604Q21.934 8.05812 21.8874 8.10469Q21.8408 8.15126 21.7787 8.15126Q21.7089 8.15126 21.6662 8.10469Q21.6235 8.05812 21.6235 7.99604V7.29754Q21.4295 7.69335 21.0259 7.96111Q20.6223 8.22887 20.1334 8.22887Q19.6211 8.22887 19.2098 7.96111Q18.7985 7.69335 18.5656 7.22381Q18.3328 6.75426 18.3328 6.17217Q18.3328 5.59785 18.5695 5.13607Q18.8062 4.67428 19.2176 4.41428Q19.6289 4.15429 20.1334 4.15429Q20.6379 4.15429 21.0414 4.41816Q21.445 4.68204 21.6235 5.12443V4.43369Q21.6235 4.3716 21.6662 4.32503Q21.7089 4.27846 21.7787 4.27846Q21.8486 4.27846 21.8913 4.32503Q21.934 4.3716 21.934 4.43369ZM21.6546 6.17217Q21.6546 5.69875 21.4605 5.30293Q21.2665 4.90711 20.9211 4.67816Q20.5758 4.44921 20.1489 4.44921Q19.722 4.44921 19.3767 4.6704Q19.0313 4.89159 18.8373 5.28353Q18.6432 5.67546 18.6432 6.17217Q18.6432 6.66889 18.8373 7.07246Q19.0313 7.47604 19.3728 7.70499Q19.7143 7.93395 20.1489 7.93395Q20.5758 7.93395 20.9211 7.70499Q21.2665 7.47604 21.4605 7.07246Q21.6546 6.66889 21.6546 6.17217Z" style="display:inline;stroke:#000000;stroke-width:0.35;stroke-linecap:round;stroke-linejoin:bevel" />
        <path d="M 6.24,35.50 L 24.24,35.50 z " style="stroke:#000000;stroke-width:0.25;stroke-linecap:round;stroke-linejoin:bevel;stroke-dasharray:none" />
        <path d="M 6.24,49.00 L 24.24,49.00 z " style="stroke:#000000;stroke-width:0.25;stroke-linecap:round;stroke-linejoin:bevel;stroke-dasharray:none" />
        <path d="M 6.24,89.50 L 24.24,89.50 z " style="stroke:#000000;stroke-width:0.25;stroke-linecap:round;stroke-linejoin:bevel;stroke-dasharray:none" />
        <path d="M 6.24,103.00 L 24.24,103.00 z " style="stroke:#000000;stroke-width:0.25;stroke-linecap:round;stroke-linejoin:bevel;stroke-dasharray:none" />
        <path d="M 6.24,62.50 L 24.24,62.50 z " style="stroke:#000000;stroke-width:0.25;stroke-linecap:round;stroke-linejoin:bevel;stroke-dasharray:none" />
        <path d="M 6.24,76.00 L 24.24,76.00 z " style="stroke:#000000;stroke-width:0.25;stroke-linecap:round;stroke-linejoin:bevel;stroke-dasharray:none" />
        <path d="M12.513 28.3499Q12.513 28.3817 12.4919 28.4011Q12.4707 28.4205 12.4425 28.4205H11.1831V29.3942H12.2837Q12.3119 29.3942 12.3331 29.4153Q12.3543 29.4365 12.3543 29.4647Q12.3543 29.4965 12.3331 29.5159Q12.3119 29.5353 12.2837 29.5353H11.1831V30.6783Q11.1831 30.7065 11.1637 30.7277Q11.1443 30.7488 11.1125 30.7488Q11.0808 30.7488 11.0613 30.7277Q11.0419 30.7065 11.0419 30.6783V28.3499Q11.0419 28.3217 11.0631 28.3006Q11.0843 28.2794 11.1125 28.2794H12.4425Q12.4707 28.2794 12.4919 28.3006Q12.513 28.3217 12.513 28.3499ZM14.8378 30.6747Q14.8378 30.7065 14.8184 30.7259Q14.799 30.7453 14.7708 30.7453Q14.7496 30.7453 14.7391 30.7383Q14.6438 30.6853 14.5874 30.5601Q14.5309 30.4349 14.5309 30.1491Q14.5309 29.8598 14.3757 29.7522Q14.2205 29.6446 14.0159 29.6446H13.1904V30.6783Q13.1904 30.7065 13.1692 30.7277Q13.148 30.7488 13.1163 30.7488Q13.0845 30.7488 13.0634 30.7277Q13.0422 30.7065 13.0422 30.6783V28.3499Q13.0422 28.3217 13.0634 28.3006Q13.0845 28.2794 13.1128 28.2794H14.0441Q14.2487 28.2794 14.4074 28.3623Q14.5662 28.4452 14.6544 28.5898Q14.7426 28.7345 14.7426 28.9179Q14.7426 29.1543 14.6173 29.3236Q14.4921 29.4929 14.291 29.5529Q14.4604 29.6058 14.5697 29.7628Q14.6791 29.9198 14.6791 30.1491Q14.6791 30.3855 14.7091 30.479Q14.7391 30.5724 14.799 30.6113Q14.8378 30.6359 14.8378 30.6747ZM14.0617 29.5035Q14.284 29.4824 14.4392 29.3271Q14.5944 29.1719 14.5944 28.9214Q14.5944 28.7027 14.4392 28.5616Q14.284 28.4205 14.0264 28.4205H13.1904V29.5035ZM16.8557 30.6783Q16.8557 30.71 16.8346 30.7294Q16.8134 30.7488 16.7852 30.7488H15.4552Q15.427 30.7488 15.4058 30.7277Q15.3846 30.7065 15.3846 30.6783V28.3499Q15.3846 28.3217 15.4058 28.3006Q15.427 28.2794 15.4552 28.2794H16.7852Q16.8134 28.2794 16.8346 28.3006Q16.8557 28.3217 16.8557 28.3499Q16.8557 28.3817 16.8346 28.4011Q16.8134 28.4205 16.7852 28.4205H15.5328V29.4047H16.6264Q16.6546 29.4047 16.6758 29.4259Q16.697 29.4471 16.697 29.4753Q16.697 29.5071 16.6758 29.5265Q16.6546 29.5459 16.6264 29.5459H15.5328V30.6077H16.7852Q16.8134 30.6077 16.8346 30.6289Q16.8557 30.6501 16.8557 30.6783ZM19.8438 31.0381Q19.8438 31.1051 19.745 31.1739Q19.6462 31.2427 19.4998 31.2868Q19.3534 31.3309 19.2229 31.3309Q19.0288 31.3309 18.8948 31.2886Q18.7607 31.2462 18.5879 31.1616Q18.4432 31.0875 18.3374 31.0522Q18.2316 31.0169 18.094 31.0169Q18.0446 31.0169 18.004 31.0293Q17.9634 31.0416 17.907 31.0663Q17.8435 31.0946 17.8223 31.0946Q17.7941 31.0946 17.7729 31.0734Q17.7518 31.0522 17.7518 31.0205Q17.7518 30.9781 17.7906 30.9605L18.3056 30.7806Q17.9846 30.7629 17.7359 30.5971Q17.4872 30.4313 17.3478 30.1509Q17.2085 29.8704 17.2085 29.5141Q17.2085 29.1437 17.3584 28.8544Q17.5084 28.5651 17.7765 28.4046Q18.0446 28.2441 18.3868 28.2441Q18.729 28.2441 18.9971 28.4046Q19.2652 28.5651 19.4151 28.8544Q19.5651 29.1437 19.5651 29.5141Q19.5651 29.8316 19.4539 30.0891Q19.3428 30.3467 19.14 30.5195Q18.9371 30.6924 18.6725 30.7524L18.2386 30.8935Q18.348 30.9041 18.4415 30.9393Q18.5349 30.9746 18.6655 31.0381Q18.8348 31.1193 18.9512 31.1581Q19.0676 31.1969 19.2229 31.1969Q19.3534 31.1969 19.4469 31.1633Q19.5404 31.1298 19.6286 31.0804Q19.6568 31.0663 19.6956 31.0275Q19.7168 31.0064 19.7397 30.9922Q19.7626 30.9781 19.7838 30.9781Q19.812 30.9781 19.8279 30.994Q19.8438 31.0099 19.8438 31.0381ZM18.3868 30.643Q18.6866 30.643 18.9212 30.5019Q19.1558 30.3608 19.2864 30.1032Q19.4169 29.8457 19.4169 29.5141Q19.4169 29.1825 19.2864 28.925Q19.1558 28.6674 18.9212 28.5263Q18.6866 28.3852 18.3868 28.3852Q18.0869 28.3852 17.8523 28.5263Q17.6177 28.6674 17.4872 28.925Q17.3567 29.1825 17.3567 29.5141Q17.3567 29.8457 17.4872 30.1032Q17.6177 30.3608 17.8523 30.5019Q18.0869 30.643 18.3868 30.643Z" style="stroke:#000000;stroke-width:0.25;stroke-linecap:round;stroke-linejoin:bevel" />
        <path d="M13.021 44.2841Q12.6788 44.2841 12.4107 44.1236Q12.1426 43.9631 11.9927 43.6738Q11.8428 43.3845 11.8428 43.0141Q11.8428 42.6437 11.9927 42.3544Q12.1426 42.0651 12.4107 41.9046Q12.6788 41.7441 13.021 41.7441Q13.3632 41.7441 13.6313 41.9046Q13.8994 42.0651 14.0494 42.3544Q14.1993 42.6437 14.1993 43.0141Q14.1993 43.3845 14.0494 43.6738Q13.8994 43.9631 13.6313 44.1236Q13.3632 44.2841 13.021 44.2841ZM13.021 41.8852Q12.7212 41.8852 12.4866 42.0263Q12.252 42.1674 12.1214 42.425Q11.9909 42.6825 11.9909 43.0141Q11.9909 43.3457 12.1214 43.6033Q12.252 43.8608 12.4866 44.0019Q12.7212 44.143 13.021 44.143Q13.3209 44.143 13.5555 44.0019Q13.7901 43.8608 13.9206 43.6033Q14.0511 43.3457 14.0511 43.0141Q14.0511 42.6825 13.9206 42.425Q13.7901 42.1674 13.5555 42.0263Q13.3209 41.8852 13.021 41.8852ZM16.5876 42.0404Q16.5876 42.0687 16.5735 42.0863Q16.5523 42.1145 16.5206 42.1145Q16.5065 42.1145 16.4782 42.1004Q16.1502 41.8782 15.7833 41.8782Q15.4869 41.8782 15.2382 42.0246Q14.9895 42.171 14.8449 42.4303Q14.7003 42.6896 14.7003 43.0141Q14.7003 43.3387 14.8449 43.598Q14.9895 43.8572 15.2382 44.0037Q15.4869 44.1501 15.7833 44.1501Q16.1537 44.1501 16.4747 43.9313Q16.4924 43.9172 16.5171 43.9172Q16.5523 43.9172 16.5735 43.9454Q16.5876 43.9631 16.5876 43.9878Q16.5876 44.0231 16.5594 44.0442Q16.4218 44.143 16.2048 44.2136Q15.9879 44.2841 15.7833 44.2841Q15.4481 44.2841 15.1659 44.1183Q14.8837 43.9525 14.7179 43.6615Q14.5521 43.3704 14.5521 43.0141Q14.5521 42.6578 14.7179 42.3668Q14.8837 42.0757 15.1659 41.9099Q15.4481 41.7441 15.7833 41.7441Q15.9949 41.7441 16.1943 41.8076Q16.3936 41.8711 16.5559 41.984Q16.5876 42.0087 16.5876 42.0404ZM18.6902 41.8464Q18.6902 41.8782 18.6708 41.8958Q18.6514 41.9134 18.6196 41.9134H17.8329V44.1783Q17.8329 44.2065 17.8118 44.2277Q17.7906 44.2488 17.7624 44.2488Q17.7306 44.2488 17.7112 44.2277Q17.6918 44.2065 17.6918 44.1783V41.9134H16.9051Q16.8769 41.9134 16.8557 41.894Q16.8346 41.8746 16.8346 41.8464Q16.8346 41.8182 16.8557 41.7988Q16.8769 41.7794 16.9051 41.7794H18.6196Q18.6478 41.7794 18.669 41.7988Q18.6902 41.8182 18.6902 41.8464Z" style="stroke:#000000;stroke-width:0.25;stroke-linecap:round;stroke-linejoin:bevel" />
        <path d="M13.3844 83.6023V84.4878Q13.3844 84.5301 13.3526 84.5513Q13.1904 84.6606 12.9981 84.7224Q12.8058 84.7841 12.6083 84.7841Q12.2449 84.7841 11.9574 84.6201Q11.6699 84.456 11.5058 84.1668Q11.3418 83.8775 11.3418 83.5141Q11.3418 83.1508 11.5058 82.8615Q11.6699 82.5722 11.9574 82.4082Q12.2449 82.2441 12.6083 82.2441Q12.8058 82.2441 12.984 82.2917Q13.1621 82.3394 13.3033 82.4346Q13.335 82.4558 13.335 82.4946Q13.335 82.5263 13.3121 82.5457Q13.2891 82.5651 13.268 82.5651Q13.2503 82.5651 13.2221 82.551Q12.9258 82.3852 12.6083 82.3852Q12.2837 82.3852 12.0297 82.5299Q11.7757 82.6745 11.6328 82.932Q11.49 83.1896 11.49 83.5141Q11.49 83.8387 11.6328 84.0962Q11.7757 84.3537 12.0297 84.4984Q12.2837 84.643 12.6083 84.643Q12.7706 84.643 12.9381 84.5918Q13.1057 84.5407 13.2433 84.456V83.6729H12.6083Q12.5801 83.6729 12.5589 83.6517Q12.5377 83.6305 12.5377 83.6023Q12.5377 83.5706 12.5589 83.5512Q12.5801 83.5318 12.6083 83.5318H13.3138Q13.3456 83.5318 13.365 83.5529Q13.3844 83.5741 13.3844 83.6023ZM15.7797 84.6818Q15.7797 84.7136 15.7586 84.7312Q15.7374 84.7488 15.7057 84.7488Q15.681 84.7488 15.6616 84.7365Q15.6422 84.7241 15.6351 84.703L15.3388 83.9763L15.3423 83.9833H14.1605L13.8748 84.703Q13.8571 84.7488 13.8112 84.7488Q13.7795 84.7488 13.7601 84.7312Q13.7407 84.7136 13.7372 84.6889Q13.7336 84.6748 13.7407 84.6536L14.6897 82.3182Q14.7003 82.29 14.7161 82.2812Q14.732 82.2723 14.7567 82.2723Q14.8096 82.2723 14.8272 82.3182L15.7762 84.6536Q15.7797 84.6642 15.7797 84.6818ZM14.2169 83.8422H15.2859L14.7461 82.5122ZM16.3301 84.7488Q16.2948 84.7488 16.2754 84.7277Q16.256 84.7065 16.256 84.6748V82.3535Q16.256 82.3217 16.2772 82.3006Q16.2983 82.2794 16.3301 82.2794Q16.3618 82.2794 16.383 82.3006Q16.4042 82.3217 16.4042 82.3535V84.6748Q16.4006 84.7065 16.3795 84.7277Q16.3583 84.7488 16.3301 84.7488ZM18.9618 82.3464V84.6712Q18.9618 84.71 18.9406 84.7294Q18.9195 84.7488 18.8877 84.7488Q18.8524 84.7488 18.8313 84.7206L17.2438 82.551V84.6889Q17.2438 84.7136 17.2244 84.7312Q17.205 84.7488 17.1767 84.7488Q17.145 84.7488 17.1274 84.7312Q17.1097 84.7136 17.1097 84.6889V82.3499Q17.1097 82.3147 17.1291 82.297Q17.1485 82.2794 17.1732 82.2794Q17.205 82.2794 17.2261 82.3041L18.8277 84.4878V82.3464Q18.8277 82.3182 18.8472 82.2988Q18.8666 82.2794 18.8948 82.2794Q18.9265 82.2794 18.9442 82.2988Q18.9618 82.3182 18.9618 82.3464Z" style="stroke:#000000;stroke-width:0.25;stroke-linecap:round;stroke-linejoin:bevel" />
        <path d="M13.7054 96.4532Q13.7054 96.6508 13.6225 96.8113Q13.5396 96.9718 13.3879 97.0617Q13.2362 97.1517 13.0387 97.1517H12.2696V98.1783Q12.2696 98.2065 12.2467 98.2277Q12.2238 98.2488 12.1955 98.2488Q12.1638 98.2488 12.1426 98.2277Q12.1214 98.2065 12.1214 98.1783V95.8499Q12.1214 95.8217 12.1426 95.8006Q12.1638 95.7794 12.192 95.7794H13.0387Q13.3385 95.7794 13.522 95.9664Q13.7054 96.1533 13.7054 96.4532ZM13.5573 96.4532Q13.5573 96.2098 13.4179 96.0651Q13.2786 95.9205 13.0387 95.9205H12.2696V97.0106H13.0387Q13.275 97.0106 13.4161 96.8536Q13.5573 96.6966 13.5573 96.4532ZM16.0302 98.1818Q16.0302 98.2136 16.0091 98.2312Q15.9879 98.2488 15.9561 98.2488Q15.9314 98.2488 15.912 98.2365Q15.8926 98.2241 15.8856 98.203L15.5893 97.4763L15.5928 97.4833H14.411L14.1252 98.203Q14.1076 98.2488 14.0617 98.2488Q14.03 98.2488 14.0106 98.2312Q13.9912 98.2136 13.9876 98.1889Q13.9841 98.1748 13.9912 98.1536L14.9401 95.8182Q14.9507 95.79 14.9666 95.7812Q14.9825 95.7723 15.0072 95.7723Q15.0601 95.7723 15.0777 95.8182L16.0267 98.1536Q16.0302 98.1642 16.0302 98.1818ZM14.4674 97.3422H15.5363L14.9966 96.0122ZM18.3586 95.8464V98.1712Q18.3586 98.21 18.3374 98.2294Q18.3162 98.2488 18.2845 98.2488Q18.2492 98.2488 18.228 98.2206L16.6405 96.051V98.1889Q16.6405 98.2136 16.6211 98.2312Q16.6017 98.2488 16.5735 98.2488Q16.5418 98.2488 16.5241 98.2312Q16.5065 98.2136 16.5065 98.1889V95.8499Q16.5065 95.8147 16.5259 95.797Q16.5453 95.7794 16.57 95.7794Q16.6017 95.7794 16.6229 95.8041L18.2245 97.9878V95.8464Q18.2245 95.8182 18.2439 95.7988Q18.2633 95.7794 18.2915 95.7794Q18.3233 95.7794 18.3409 95.7988Q18.3586 95.8182 18.3586 95.8464Z" style="stroke:#000000;stroke-width:0.25;stroke-linecap:round;stroke-linejoin:bevel" />
        <path d="M14.1658 56.5141Q14.1658 56.8634 14.0547 57.1421Q13.9435 57.4207 13.7142 57.5848Q13.4849 57.7488 13.1427 57.7488H12.2255Q12.1973 57.7488 12.1761 57.7277Q12.155 57.7065 12.155 57.6783V55.3499Q12.155 55.3217 12.1761 55.3006Q12.1973 55.2794 12.2255 55.2794H13.1427Q13.4814 55.2794 13.7125 55.4487Q13.9435 55.6181 14.0547 55.8985Q14.1658 56.179 14.1658 56.5141ZM14.0176 56.5141Q14.0176 56.2142 13.9206 55.9655Q13.8236 55.7168 13.6208 55.5687Q13.4179 55.4205 13.1075 55.4205H12.3031V57.6077H13.1075Q13.5661 57.6077 13.7918 57.3061Q14.0176 57.0045 14.0176 56.5141ZM16.166 57.6783Q16.166 57.71 16.1449 57.7294Q16.1237 57.7488 16.0955 57.7488H14.7655Q14.7373 57.7488 14.7161 57.7277Q14.695 57.7065 14.695 57.6783V55.3499Q14.695 55.3217 14.7161 55.3006Q14.7373 55.2794 14.7655 55.2794H16.0955Q16.1237 55.2794 16.1449 55.3006Q16.166 55.3217 16.166 55.3499Q16.166 55.3817 16.1449 55.4011Q16.1237 55.4205 16.0955 55.4205H14.8431V56.4047H15.9367Q15.965 56.4047 15.9861 56.4259Q16.0073 56.4471 16.0073 56.4753Q16.0073 56.5071 15.9861 56.5265Q15.965 56.5459 15.9367 56.5459H14.8431V57.6077H16.0955Q16.1237 57.6077 16.1449 57.6289Q16.166 57.6501 16.166 57.6783ZM18.5543 55.5404Q18.5543 55.5687 18.5402 55.5863Q18.5191 55.6145 18.4873 55.6145Q18.4732 55.6145 18.445 55.6004Q18.1169 55.3782 17.75 55.3782Q17.4537 55.3782 17.205 55.5246Q16.9563 55.671 16.8116 55.9303Q16.667 56.1896 16.667 56.5141Q16.667 56.8387 16.8116 57.098Q16.9563 57.3572 17.205 57.5037Q17.4537 57.6501 17.75 57.6501Q18.1204 57.6501 18.4415 57.4313Q18.4591 57.4172 18.4838 57.4172Q18.5191 57.4172 18.5402 57.4454Q18.5543 57.4631 18.5543 57.4878Q18.5543 57.5231 18.5261 57.5442Q18.3885 57.643 18.1716 57.7136Q17.9546 57.7841 17.75 57.7841Q17.4149 57.7841 17.1327 57.6183Q16.8504 57.4525 16.6846 57.1615Q16.5188 56.8704 16.5188 56.5141Q16.5188 56.1578 16.6846 55.8668Q16.8504 55.5757 17.1327 55.4099Q17.4149 55.2441 17.75 55.2441Q17.9617 55.2441 18.161 55.3076Q18.3603 55.3711 18.5226 55.484Q18.5543 55.5087 18.5543 55.5404Z" style="stroke:#000000;stroke-width:0.25;stroke-linecap:round;stroke-linejoin:bevel" />
        <path d="M14.2963 71.1748Q14.2963 71.2065 14.2769 71.2259Q14.2575 71.2453 14.2293 71.2453Q14.2081 71.2453 14.1975 71.2383Q14.1023 71.1853 14.0458 71.0601Q13.9894 70.9349 13.9894 70.6491Q13.9894 70.3598 13.8342 70.2522Q13.679 70.1446 13.4743 70.1446H12.6488V71.1783Q12.6488 71.2065 12.6277 71.2277Q12.6065 71.2488 12.5748 71.2488Q12.543 71.2488 12.5218 71.2277Q12.5007 71.2065 12.5007 71.1783V68.8499Q12.5007 68.8217 12.5218 68.8006Q12.543 68.7794 12.5712 68.7794H13.5026Q13.7072 68.7794 13.8659 68.8623Q14.0247 68.9452 14.1129 69.0898Q14.2011 69.2345 14.2011 69.4179Q14.2011 69.6543 14.0758 69.8236Q13.9506 69.9929 13.7495 70.0529Q13.9188 70.1058 14.0282 70.2628Q14.1376 70.4198 14.1376 70.6491Q14.1376 70.8855 14.1676 70.979Q14.1975 71.0724 14.2575 71.1112Q14.2963 71.1359 14.2963 71.1748ZM13.5202 70.0035Q13.7425 69.9824 13.8977 69.8271Q14.0529 69.6719 14.0529 69.4214Q14.0529 69.2027 13.8977 69.0616Q13.7425 68.9205 13.4849 68.9205H12.6488V70.0035ZM16.3142 71.1783Q16.3142 71.21 16.293 71.2294Q16.2719 71.2488 16.2437 71.2488H14.9137Q14.8855 71.2488 14.8643 71.2277Q14.8431 71.2065 14.8431 71.1783V68.8499Q14.8431 68.8217 14.8643 68.8006Q14.8855 68.7794 14.9137 68.7794H16.2437Q16.2719 68.7794 16.293 68.8006Q16.3142 68.8217 16.3142 68.8499Q16.3142 68.8817 16.293 68.9011Q16.2719 68.9205 16.2437 68.9205H14.9913V69.9048H16.0849Q16.1131 69.9048 16.1343 69.9259Q16.1555 69.9471 16.1555 69.9753Q16.1555 70.0071 16.1343 70.0265Q16.1131 70.0459 16.0849 70.0459H14.9913V71.1077H16.2437Q16.2719 71.1077 16.293 71.1289Q16.3142 71.1501 16.3142 71.1783ZM18.2792 71.1783Q18.2792 71.21 18.258 71.2294Q18.2368 71.2488 18.2086 71.2488H16.9139Q16.8822 71.2488 16.8628 71.2277Q16.8434 71.2065 16.8434 71.1783V68.8499Q16.8434 68.8217 16.8645 68.8006Q16.8857 68.7794 16.9175 68.7794Q16.9492 68.7794 16.9704 68.8006Q16.9915 68.8217 16.9915 68.8499V71.1077H18.2086Q18.2368 71.1077 18.258 71.1289Q18.2792 71.1501 18.2792 71.1783Z" style="stroke:#000000;stroke-width:0.25;stroke-linecap:round;stroke-linejoin:bevel" />
        <path d="M5.11909 14.8429Q5.11909 14.857 5.11204 14.8782L4.14543 17.203Q4.12426 17.2488 4.0784 17.2488Q4.05723 17.2488 4.03783 17.2365Q4.01843 17.2241 4.01137 17.203L3.05181 14.8887Q3.04123 14.8676 3.04123 14.8464Q3.04123 14.8182 3.06063 14.7988Q3.08004 14.7794 3.10826 14.7794Q3.16118 14.7794 3.18587 14.8358L4.08193 16.9913L4.98151 14.8253Q5.0062 14.7794 5.04854 14.7794Q5.08029 14.7794 5.09969 14.797Q5.11909 14.8147 5.11909 14.8429ZM5.24256 17.6263Q5.24256 17.6051 5.25315 17.584L6.82301 14.5113Q6.8477 14.4654 6.86887 14.4495Q6.89004 14.4337 6.92531 14.4337Q6.95001 14.4337 6.96941 14.4513Q6.98881 14.4689 6.98881 14.5007Q6.98881 14.5289 6.9747 14.5571L5.40484 17.6334Q5.38368 17.6722 5.36427 17.6863Q5.34487 17.7004 5.31312 17.7004Q5.27784 17.7004 5.2602 17.6792Q5.24256 17.6581 5.24256 17.6263ZM8.38581 17.2841Q8.04362 17.2841 7.77551 17.1236Q7.5074 16.9631 7.35747 16.6738Q7.20754 16.3845 7.20754 16.0141Q7.20754 15.6437 7.35747 15.3544Q7.5074 15.0651 7.77551 14.9046Q8.04362 14.7441 8.38581 14.7441Q8.72801 14.7441 8.99612 14.9046Q9.26423 15.0651 9.41416 15.3544Q9.56409 15.6437 9.56409 16.0141Q9.56409 16.3845 9.41416 16.6738Q9.26423 16.9631 8.99612 17.1236Q8.72801 17.2841 8.38581 17.2841ZM8.38581 14.8852Q8.08595 14.8852 7.85136 15.0263Q7.61676 15.1674 7.48623 15.425Q7.3557 15.6825 7.3557 16.0141Q7.3557 16.3457 7.48623 16.6032Q7.61676 16.8608 7.85136 17.0019Q8.08595 17.143 8.38581 17.143Q8.68568 17.143 8.92027 17.0019Q9.15487 16.8608 9.2854 16.6032Q9.41593 16.3457 9.41593 16.0141Q9.41593 15.6825 9.2854 15.425Q9.15487 15.1674 8.92027 15.0263Q8.68568 14.8852 8.38581 14.8852ZM11.9524 15.0404Q11.9524 15.0687 11.9383 15.0863Q11.9171 15.1145 11.8854 15.1145Q11.8713 15.1145 11.843 15.1004Q11.515 14.8782 11.1481 14.8782Q10.8517 14.8782 10.603 15.0246Q10.3543 15.171 10.2097 15.4303Q10.065 15.6896 10.065 16.0141Q10.065 16.3387 10.2097 16.598Q10.3543 16.8573 10.603 17.0037Q10.8517 17.1501 11.1481 17.1501Q11.5185 17.1501 11.8395 16.9313Q11.8571 16.9172 11.8818 16.9172Q11.9171 16.9172 11.9383 16.9454Q11.9524 16.9631 11.9524 16.9878Q11.9524 17.0231 11.9242 17.0442Q11.7866 17.143 11.5696 17.2136Q11.3527 17.2841 11.1481 17.2841Q10.8129 17.2841 10.5307 17.1183Q10.2485 16.9525 10.0827 16.6615Q9.91687 16.3704 9.91687 16.0141Q9.91687 15.6578 10.0827 15.3668Q10.2485 15.0757 10.5307 14.9099Q10.8129 14.7441 11.1481 14.7441Q11.3597 14.7441 11.5591 14.8076Q11.7584 14.8711 11.9206 14.984Q11.9524 15.0087 11.9524 15.0404ZM14.055 14.8464Q14.055 14.8782 14.0356 14.8958Q14.0161 14.9134 13.9844 14.9134H13.1977V17.1783Q13.1977 17.2065 13.1765 17.2277Q13.1554 17.2488 13.1271 17.2488Q13.0954 17.2488 13.076 17.2277Q13.0566 17.2065 13.0566 17.1783V14.9134H12.2699Q12.2417 14.9134 12.2205 14.894Q12.1993 14.8746 12.1993 14.8464Q12.1993 14.8182 12.2205 14.7988Q12.2417 14.7794 12.2699 14.7794H13.9844Q14.0126 14.7794 14.0338 14.7988Q14.055 14.8182 14.055 14.8464Z" style="stroke:#000000;stroke-width:0.25;stroke-linecap:round;stroke-linejoin:bevel" />
        <path d="M20.0387 16.1023V16.9878Q20.0387 17.0301 20.0069 17.0513Q19.8446 17.1606 19.6524 17.2224Q19.4601 17.2841 19.2626 17.2841Q18.8992 17.2841 18.6117 17.1201Q18.3242 16.956 18.1601 16.6668Q17.9961 16.3775 17.9961 16.0141Q17.9961 15.6508 18.1601 15.3615Q18.3242 15.0722 18.6117 14.9082Q18.8992 14.7441 19.2626 14.7441Q19.4601 14.7441 19.6383 14.7917Q19.8164 14.8394 19.9575 14.9346Q19.9893 14.9558 19.9893 14.9946Q19.9893 15.0263 19.9663 15.0457Q19.9434 15.0651 19.9223 15.0651Q19.9046 15.0651 19.8764 15.051Q19.5801 14.8852 19.2626 14.8852Q18.938 14.8852 18.684 15.0299Q18.43 15.1745 18.2871 15.432Q18.1443 15.6896 18.1443 16.0141Q18.1443 16.3387 18.2871 16.5962Q18.43 16.8537 18.684 16.9984Q18.938 17.143 19.2626 17.143Q19.4248 17.143 19.5924 17.0918Q19.76 17.0407 19.8976 16.956V16.1729H19.2626Q19.2343 16.1729 19.2132 16.1517Q19.192 16.1305 19.192 16.1023Q19.192 16.0706 19.2132 16.0512Q19.2343 16.0317 19.2626 16.0317H19.9681Q19.9999 16.0317 20.0193 16.0529Q20.0387 16.0741 20.0387 16.1023ZM22.434 17.1818Q22.434 17.2136 22.4129 17.2312Q22.3917 17.2488 22.3599 17.2488Q22.3353 17.2488 22.3158 17.2365Q22.2964 17.2241 22.2894 17.203L21.9931 16.4763L21.9966 16.4833H20.8148L20.529 17.203Q20.5114 17.2488 20.4655 17.2488Q20.4338 17.2488 20.4144 17.2312Q20.395 17.2136 20.3914 17.1889Q20.3879 17.1747 20.395 17.1536L21.3439 14.8182Q21.3545 14.79 21.3704 14.7812Q21.3863 14.7723 21.411 14.7723Q21.4639 14.7723 21.4815 14.8182L22.4305 17.1536Q22.434 17.1642 22.434 17.1818ZM20.8712 16.3422H21.9401L21.4004 15.0122ZM24.5366 14.8464Q24.5366 14.8782 24.5172 14.8958Q24.4978 14.9134 24.466 14.9134H23.6793V17.1783Q23.6793 17.2065 23.6582 17.2277Q23.637 17.2488 23.6088 17.2488Q23.577 17.2488 23.5576 17.2277Q23.5382 17.2065 23.5382 17.1783V14.9134H22.7515Q22.7233 14.9134 22.7021 14.894Q22.681 14.8746 22.681 14.8464Q22.681 14.8182 22.7021 14.7988Q22.7233 14.7794 22.7515 14.7794H24.466Q24.4943 14.7794 24.5154 14.7988Q24.5366 14.8182 24.5366 14.8464ZM26.4839 17.1783Q26.4839 17.21 26.4628 17.2294Q26.4416 17.2488 26.4134 17.2488H25.0834Q25.0552 17.2488 25.034 17.2277Q25.0128 17.2065 25.0128 17.1783V14.8499Q25.0128 14.8217 25.034 14.8006Q25.0552 14.7794 25.0834 14.7794H26.4134Q26.4416 14.7794 26.4628 14.8006Q26.4839 14.8217 26.4839 14.8499Q26.4839 14.8817 26.4628 14.9011Q26.4416 14.9205 26.4134 14.9205H25.161V15.9047H26.2546Q26.2828 15.9047 26.304 15.9259Q26.3252 15.9471 26.3252 15.9753Q26.3252 16.0071 26.304 16.0265Q26.2828 16.0459 26.2546 16.0459H25.161V17.1077H26.4134Q26.4416 17.1077 26.4628 17.1289Q26.4839 17.1501 26.4839 17.1783Z" style="stroke:#000000;stroke-width:0.25;stroke-linecap:round;stroke-linejoin:bevel" />
        <path d="M 9.24,116.50 L 21.24,116.50 z " style="stroke:#000000;stroke-width:0.25;stroke-linecap:round;stroke-linejoin:bevel;stroke-dasharray:none" />
    </g>
</svg>
