<?xml version="1.0" encoding="utf-8"?>
<svg xmlns="http://www.w3.org/2000/svg" width="30.48mm" height="128.50mm" viewBox="0 0 30.48 128.50">
    <g id="PanelLayer">
        <defs />
        <rect id="border_rect" width="30.48" height="128.5" x="0" y="0" style="display:inline;fill:#4f8df2;fill-opacity:1;stroke:none;" />
        <path id="sapphire_gemstone" d="m 17.955,122.900 q 0,0.34175 -0.242534,0.63114 -0.0441,0.0524 -0.20395,0.21497 -0.187413,0.19017 -0.785481,0.81304 l -1.444183,1.51309 q -0.01929,0.003 -0.0441,0.003 -0.02756,0 -0.04134,-0.003 -0.08268,-0.0827 -0.647678,-0.67524 -0.468532,-0.47404 -0.934309,-0.94809 -0.556727,-0.56775 -0.89848,-0.98116 -0.132292,-0.15985 -0.168121,-0.29766 -0.02756,-0.10197 -0.02756,-0.34175 0,-0.11024 0.07166,-0.28939 0.06614,-0.16536 0.140559,-0.26458 0.118512,-0.1571 0.42168,-0.42444 0.283875,-0.2508 0.474044,-0.37482 0.272852,-0.17915 0.818555,-0.36656 0.09646,-0.0331 0.110243,-0.0331 h 1.3615 q 0.01102,0 0.104731,0.0331 0.567751,0.20119 0.824066,0.36656 0.165365,0.10473 0.474045,0.37758 0.322461,0.28388 0.421679,0.42168 0.214974,0.2949 0.214974,0.62563 z m -0.16812,-0.27285 q -0.03307,-0.10749 -0.135048,-0.30868 -0.07166,-0.0937 -0.209462,-0.19844 -0.118511,-0.0854 -0.234266,-0.17088 0.245291,0.3638 0.578776,0.678 z m -0.573264,-0.52366 -0.358289,-0.44648 v 0.41065 z m 0.636653,0.75792 q 0,-0.0524 -0.341753,-0.39412 l 0.228754,0.7028 h 0.04961 q 0.06339,-0.21773 0.06339,-0.30868 z m -0.23151,0.27285 -0.316948,-0.90399 -0.410655,-0.0634 -0.159853,0.61461 z m 0.0028,0.15434 -0.771701,-0.3197 h -0.03032 l 0.344509,0.60634 q 0.07993,-0.003 0.234266,-0.0469 0.02481,-0.0138 0.223242,-0.23978 z m -0.857139,-1.05006 -0.719335,0.28388 0.60358,0.22599 z m 0,-0.16261 v -0.51538 l -0.917773,-0.38034 h -1.223697 l -0.917772,0.38034 v 0.51538 l 0.89848,0.4079 h 1.254014 z m 0.573264,1.53789 q -0.0689,0.011 -0.198438,0.0524 -0.08544,0.0551 -0.259071,0.16261 0.01929,0 0.06339,0.003 0.04134,0 0.06339,0 0.118511,0 0.190169,-0.0689 0.07166,-0.0717 0.14056,-0.14883 z m -0.289388,0.003 -0.347266,-0.63114 -0.363801,0.87918 q 0.0248,-0.0165 0.06615,-0.0165 0.03032,0 0.08544,0.011 0.05788,0.008 0.08819,0.008 0.04961,0 0.228754,-0.10749 0.228754,-0.1378 0.242535,-0.14331 z m -0.440972,-0.74139 -0.683507,-0.2756 -0.592556,0.54845 0.903993,0.65595 z m -0.854383,-0.28387 h -1.036284 l 0.523654,0.47404 z m 0.749652,1.36701 q -0.228754,-0.0303 -0.228754,-0.0303 -0.03583,0 -0.272851,0.0937 l 0.190169,0.0193 q 0.01102,0 0.311436,-0.0827 z m -0.388606,-0.0882 -0.843359,-0.61185 v 0.67524 l 0.471289,0.0827 z m 0.854383,0.0496 q -0.09922,0.006 -0.2949,0.0386 -0.01102,0.003 -0.377583,0.17639 -0.129535,0.34726 -0.380338,1.0418 z m -2.543857,-1.39733 -0.719335,-0.28388 0.124023,0.51814 z m -0.802018,-0.45476 v -0.41065 l -0.366557,0.44648 z m 1.515841,1.07212 -0.592556,-0.54019 -0.683506,0.2756 0.380338,0.9288 z m 0.369314,0.94257 q -0.03307,-0.003 -0.135047,-0.0248 -0.08544,-0.0165 -0.137804,-0.0165 -0.05237,0 -0.137804,0.0165 -0.101975,0.0221 -0.135047,0.0248 0.264583,0.0469 0.272851,0.0469 0.0083,0 0.272851,-0.0469 z m -0.30868,-0.1378 v -0.68626 l -0.843359,0.61185 0.37207,0.14607 z m 0.950846,0.20671 -0.396875,-0.0551 -0.479557,0.14056 v 1.27607 z m -2.888366,-2.20211 q -0.118512,0.0854 -0.234267,0.17364 -0.146072,0.10748 -0.209461,0.19568 -0.0441,0.10473 -0.135048,0.31419 0.369314,-0.3638 0.578776,-0.68351 z m 0.476801,0.83234 -0.159853,-0.61461 -0.410655,0.0634 -0.316948,0.90399 z m 0.394118,1.08313 -0.363802,-0.87918 -0.355533,0.63114 q 0.43546,0.2508 0.451996,0.2508 0.09095,0 0.267339,-0.003 z m 1.821765,0.82958 q -0.132291,0.21222 -0.405143,0.6339 -0.07717,0.10749 -0.220486,0.32797 -0.05788,0.10473 -0.05512,0.226 0.159852,-0.15158 0.432704,-0.49609 0.07717,-0.12954 0.140559,-0.339 0.05512,-0.17639 0.107486,-0.35278 z m -1.493792,-0.66146 -0.270095,-0.0882 -0.0083,-0.011 q -0.02481,0 -0.107487,0.011 -0.06615,0.006 -0.107487,0.006 0.272851,0.091 0.311436,0.091 0.02481,0 0.181901,-0.008 z m -0.810286,-1.06384 h -0.03032 l -0.7717,0.3197 q 0.06615,0.0965 0.223242,0.23978 0.07717,0.0138 0.234266,0.0469 z m -0.689018,-0.50161 q -0.341754,0.34727 -0.341754,0.39412 0,0.0799 0.06339,0.30868 h 0.04961 z m 2.235176,3.04547 v -1.27607 l -0.479557,-0.14056 -0.396875,0.0551 z m -1.606791,-1.6757 q -0.256315,-0.1819 -0.457509,-0.22324 0.06615,0.0772 0.20395,0.22324 z m 1.609547,2.04501 v -0.1378 l -0.683507,-1.05007 q 0.05237,0.17639 0.107487,0.35278 0.06339,0.20946 0.14056,0.339 0.0689,0.11851 0.20395,0.25907 0.115755,0.11851 0.23151,0.23702 z m -0.644921,-0.70555 q -0.115756,-0.32798 -0.380339,-1.0418 -0.135047,-0.0662 -0.272851,-0.12954 -0.159852,-0.0716 -0.289388,-0.0716 -0.05237,0 -0.110243,-0.0138 z" style="stroke-width:0;fill:#0000ff;stroke:#2e2114;stroke-linecap:square;stroke-opacity:1" />
        <path id="model_name" d="M11.6272 4.26294Q11.6272 4.30951 11.6039 4.35608L10.0595 8.05036Q10.0439 8.09693 10.0013 8.12409Q9.95856 8.15126 9.912 8.15126Q9.86543 8.15126 9.82274 8.12409Q9.78006 8.09693 9.76454 8.05036L8.21231 4.36384Q8.19679 4.31727 8.19679 4.29399Q8.19679 4.2319 8.23948 4.18533Q8.28216 4.13876 8.35978 4.13876Q8.39858 4.13876 8.44127 4.16593Q8.48395 4.19309 8.49948 4.23966L9.90424 7.61574L11.3168 4.23966Q11.3556 4.13876 11.4797 4.13876Q11.5263 4.13876 11.5768 4.17369Q11.6272 4.20861 11.6272 4.26294ZM12.7215 8.15126Q12.6517 8.15126 12.609 8.10469Q12.5663 8.05812 12.5663 7.99604V4.30951Q12.5663 4.24742 12.6129 4.20085Q12.6594 4.15429 12.7215 4.15429Q12.7914 4.15429 12.8341 4.20085Q12.8767 4.24742 12.8767 4.30951V7.99604Q12.8767 8.05812 12.8302 8.10469Q12.7836 8.15126 12.7215 8.15126ZM12.4499 3.37818V3.31609Q12.4499 3.20743 12.5275 3.13758Q12.6051 3.06773 12.7293 3.06773Q12.8379 3.06773 12.9117 3.13758Q12.9854 3.20743 12.9854 3.31609V3.37818Q12.9854 3.48683 12.9117 3.55668Q12.8379 3.62653 12.7215 3.62653Q12.5973 3.62653 12.5236 3.55668Q12.4499 3.48683 12.4499 3.37818ZM17.3161 5.62114V7.99604Q17.3161 8.05812 17.2695 8.10469Q17.223 8.15126 17.1609 8.15126Q17.091 8.15126 17.0483 8.10469Q17.0057 8.05812 17.0057 7.99604V5.65218Q17.0057 5.12443 16.7301 4.78682Q16.4546 4.44921 15.8958 4.44921Q15.5543 4.44921 15.2245 4.61219Q14.8946 4.77517 14.6851 5.05457Q14.4755 5.33397 14.4755 5.65218V7.99604Q14.4755 8.05812 14.429 8.10469Q14.3824 8.15126 14.3203 8.15126Q14.2505 8.15126 14.2078 8.10469Q14.1651 8.05812 14.1651 7.99604V4.43369Q14.1651 4.3716 14.2117 4.32503Q14.2582 4.27846 14.3203 4.27846Q14.3902 4.27846 14.4328 4.32503Q14.4755 4.3716 14.4755 4.43369V4.95368Q14.7006 4.60443 15.1081 4.37936Q15.5155 4.15429 15.9269 4.15429Q16.6176 4.15429 16.9668 4.56174Q17.3161 4.9692 17.3161 5.62114ZM21.934 4.43369V7.99604Q21.934 8.05812 21.8874 8.10469Q21.8408 8.15126 21.7787 8.15126Q21.7089 8.15126 21.6662 8.10469Q21.6235 8.05812 21.6235 7.99604V7.29754Q21.4295 7.69335 21.0259 7.96111Q20.6223 8.22887 20.1334 8.22887Q19.6211 8.22887 19.2098 7.96111Q18.7985 7.69335 18.5656 7.22381Q18.3328 6.75426 18.3328 6.17217Q18.3328 5.59785 18.5695 5.13607Q18.8062 4.67428 19.2176 4.41428Q19.6289 4.15429 20.1334 4.15429Q20.6379 4.15429 21.0414 4.41816Q21.445 4.68204 21.6235 5.12443V4.43369Q21.6235 4.3716 21.6662 4.32503Q21.7089 4.27846 21.7787 4.27846Q21.8486 4.27846 21.8913 4.32503Q21.934 4.3716 21.934 4.43369ZM21.6546 6.17217Q21.6546 5.69875 21.4605 5.30293Q21.2665 4.90711 20.9211 4.67816Q20.5758 4.44921 20.1489 4.44921Q19.722 4.44921 19.3767 4.6704Q19.0313 4.89159 18.8373 5.28353Q18.6432 5.67546 18.6432 6.17217Q18.6432 6.66889 18.8373 7.07246Q19.0313 7.47604 19.3728 7.70499Q19.7143 7.93395 20.1489 7.93395Q20.5758 7.93395 20.9211 7.70499Q21.2665 7.47604 21.4605 7.07246Q21.6546 6.66889 21.6546 6.17217Z" style="display:inline;stroke:#000000;stroke-width:0.35;stroke-linecap:round;stroke-linejoin:bevel" />
        <path d="M 6.24,22.00 L 24.24,22.00 z " style="stroke:#000000;stroke-width:0.25;stroke-linecap:round;stroke-linejoin:bevel;stroke-dasharray:none" />
        <path d="M 6.24,35.50 L 24.24,35.50 z " style="stroke:#000000;stroke-width:0.25;stroke-linecap:round;stroke-linejoin:bevel;stroke-dasharray:none" />
        <path d="M 6.24,49.00 L 24.24,49.00 z " style="stroke:#000000;stroke-width:0.25;stroke-linecap:round;stroke-linejoin:bevel;stroke-dasharray:none" />
        <path d="M 6.24,62.50 L 24.24,62.50 z " style="stroke:#000000;stroke-width:0.25;stroke-linecap:round;stroke-linejoin:bevel;stroke-dasharray:none" />
        <path d="M 6.24,76.00 L 24.24,76.00 z " style="stroke:#000000;stroke-width:0.25;stroke-linecap:round;stroke-linejoin:bevel;stroke-dasharray:none" />
        <path d="M12.513 14.8499Q12.513 14.8817 12.4919 14.9011Q12.4707 14.9205 12.4425 14.9205H11.1831V15.8942H12.2837Q12.3119 15.8942 12.3331 15.9153Q12.3543 15.9365 12.3543 15.9647Q12.3543 15.9965 12.3331 16.0159Q12.3119 16.0353 12.2837 16.0353H11.1831V17.1783Q11.1831 17.2065 11.1637 17.2277Q11.1443 17.2488 11.1125 17.2488Q11.0808 17.2488 11.0613 17.2277Q11.0419 17.2065 11.0419 17.1783V14.8499Q11.0419 14.8217 11.0631 14.8006Q11.0843 14.7794 11.1125 14.7794H12.4425Q12.4707 14.7794 12.4919 14.8006Q12.513 14.8217 12.513 14.8499ZM14.8378 17.1747Q14.8378 17.2065 14.8184 17.2259Q14.799 17.2453 14.7708 17.2453Q14.7496 17.2453 14.7391 17.2383Q14.6438 17.1853 14.5874 17.0601Q14.5309 16.9349 14.5309 16.6491Q14.5309 16.3598 14.3757 16.2522Q14.2205 16.1446 14.0159 16.1446H13.1904V17.1783Q13.1904 17.2065 13.1692 17.2277Q13.148 17.2488 13.1163 17.2488Q13.0845 17.2488 13.0634 17.2277Q13.0422 17.2065 13.0422 17.1783V14.8499Q13.0422 14.8217 13.0634 14.8006Q13.0845 14.7794 13.1128 14.7794H14.0441Q14.2487 14.7794 14.4074 14.8623Q14.5662 14.9452 14.6544 15.0898Q14.7426 15.2345 14.7426 15.4179Q14.7426 15.6543 14.6173 15.8236Q14.4921 15.9929 14.291 16.0529Q14.4604 16.1058 14.5697 16.2628Q14.6791 16.4198 14.6791 16.6491Q14.6791 16.8855 14.7091 16.979Q14.7391 17.0724 14.799 17.1113Q14.8378 17.1359 14.8378 17.1747ZM14.0617 16.0035Q14.284 15.9824 14.4392 15.8271Q14.5944 15.6719 14.5944 15.4214Q14.5944 15.2027 14.4392 15.0616Q14.284 14.9205 14.0264 14.9205H13.1904V16.0035ZM16.8557 17.1783Q16.8557 17.21 16.8346 17.2294Q16.8134 17.2488 16.7852 17.2488H15.4552Q15.427 17.2488 15.4058 17.2277Q15.3846 17.2065 15.3846 17.1783V14.8499Q15.3846 14.8217 15.4058 14.8006Q15.427 14.7794 15.4552 14.7794H16.7852Q16.8134 14.7794 16.8346 14.8006Q16.8557 14.8217 16.8557 14.8499Q16.8557 14.8817 16.8346 14.9011Q16.8134 14.9205 16.7852 14.9205H15.5328V15.9047H16.6264Q16.6546 15.9047 16.6758 15.9259Q16.697 15.9471 16.697 15.9753Q16.697 16.0071 16.6758 16.0265Q16.6546 16.0459 16.6264 16.0459H15.5328V17.1077H16.7852Q16.8134 17.1077 16.8346 17.1289Q16.8557 17.1501 16.8557 17.1783ZM19.8438 17.5381Q19.8438 17.6051 19.745 17.6739Q19.6462 17.7427 19.4998 17.7868Q19.3534 17.8309 19.2229 17.8309Q19.0288 17.8309 18.8948 17.7886Q18.7607 17.7462 18.5879 17.6616Q18.4432 17.5875 18.3374 17.5522Q18.2316 17.5169 18.094 17.5169Q18.0446 17.5169 18.004 17.5293Q17.9634 17.5416 17.907 17.5663Q17.8435 17.5946 17.8223 17.5946Q17.7941 17.5946 17.7729 17.5734Q17.7518 17.5522 17.7518 17.5205Q17.7518 17.4781 17.7906 17.4605L18.3056 17.2806Q17.9846 17.2629 17.7359 17.0971Q17.4872 16.9313 17.3478 16.6509Q17.2085 16.3704 17.2085 16.0141Q17.2085 15.6437 17.3584 15.3544Q17.5084 15.0651 17.7765 14.9046Q18.0446 14.7441 18.3868 14.7441Q18.729 14.7441 18.9971 14.9046Q19.2652 15.0651 19.4151 15.3544Q19.5651 15.6437 19.5651 16.0141Q19.5651 16.3316 19.4539 16.5891Q19.3428 16.8467 19.14 17.0195Q18.9371 17.1924 18.6725 17.2524L18.2386 17.3935Q18.348 17.4041 18.4415 17.4393Q18.5349 17.4746 18.6655 17.5381Q18.8348 17.6193 18.9512 17.6581Q19.0676 17.6969 19.2229 17.6969Q19.3534 17.6969 19.4469 17.6633Q19.5404 17.6298 19.6286 17.5804Q19.6568 17.5663 19.6956 17.5275Q19.7168 17.5064 19.7397 17.4922Q19.7626 17.4781 19.7838 17.4781Q19.812 17.4781 19.8279 17.494Q19.8438 17.5099 19.8438 17.5381ZM18.3868 17.143Q18.6866 17.143 18.9212 17.0019Q19.1558 16.8608 19.2864 16.6032Q19.4169 16.3457 19.4169 16.0141Q19.4169 15.6825 19.2864 15.425Q19.1558 15.1674 18.9212 15.0263Q18.6866 14.8852 18.3868 14.8852Q18.0869 14.8852 17.8523 15.0263Q17.6177 15.1674 17.4872 15.425Q17.3567 15.6825 17.3567 16.0141Q17.3567 16.3457 17.4872 16.6032Q17.6177 16.8608 17.8523 17.0019Q18.0869 17.143 18.3868 17.143Z" style="stroke:#000000;stroke-width:0.25;stroke-linecap:round;stroke-linejoin:bevel" />
        <path d="M13.021 30.7841Q12.6788 30.7841 12.4107 30.6236Q12.1426 30.4631 11.9927 30.1738Q11.8428 29.8845 11.8428 29.5141Q11.8428 29.1437 11.9927 28.8544Q12.1426 28.5651 12.4107 28.4046Q12.6788 28.2441 13.021 28.2441Q13.3632 28.2441 13.6313 28.4046Q13.8994 28.5651 14.0494 28.8544Q14.1993 29.1437 14.1993 29.5141Q14.1993 29.8845 14.0494 30.1738Q13.8994 30.4631 13.6313 30.6236Q13.3632 30.7841 13.021 30.7841ZM13.021 28.3852Q12.7212 28.3852 12.4866 28.5263Q12.252 28.6674 12.1214 28.925Q11.9909 29.1825 11.9909 29.5141Q11.9909 29.8457 12.1214 30.1032Q12.252 30.3608 12.4866 30.5019Q12.7212 30.643 13.021 30.643Q13.3209 30.643 13.5555 30.5019Q13.7901 30.3608 13.9206 30.1032Q14.0511 29.8457 14.0511 29.5141Q14.0511 29.1825 13.9206 28.925Q13.7901 28.6674 13.5555 28.5263Q13.3209 28.3852 13.021 28.3852ZM16.5876 28.5404Q16.5876 28.5687 16.5735 28.5863Q16.5523 28.6145 16.5206 28.6145Q16.5065 28.6145 16.4782 28.6004Q16.1502 28.3782 15.7833 28.3782Q15.4869 28.3782 15.2382 28.5246Q14.9895 28.671 14.8449 28.9303Q14.7003 29.1896 14.7003 29.5141Q14.7003 29.8387 14.8449 30.098Q14.9895 30.3573 15.2382 30.5037Q15.4869 30.6501 15.7833 30.6501Q16.1537 30.6501 16.4747 30.4313Q16.4924 30.4172 16.5171 30.4172Q16.5523 30.4172 16.5735 30.4454Q16.5876 30.4631 16.5876 30.4878Q16.5876 30.5231 16.5594 30.5442Q16.4218 30.643 16.2048 30.7136Q15.9879 30.7841 15.7833 30.7841Q15.4481 30.7841 15.1659 30.6183Q14.8837 30.4525 14.7179 30.1615Q14.5521 29.8704 14.5521 29.5141Q14.5521 29.1578 14.7179 28.8668Q14.8837 28.5757 15.1659 28.4099Q15.4481 28.2441 15.7833 28.2441Q15.9949 28.2441 16.1943 28.3076Q16.3936 28.3711 16.5559 28.484Q16.5876 28.5087 16.5876 28.5404ZM18.6902 28.3464Q18.6902 28.3782 18.6708 28.3958Q18.6514 28.4134 18.6196 28.4134H17.8329V30.6783Q17.8329 30.7065 17.8118 30.7277Q17.7906 30.7488 17.7624 30.7488Q17.7306 30.7488 17.7112 30.7277Q17.6918 30.7065 17.6918 30.6783V28.4134H16.9051Q16.8769 28.4134 16.8557 28.394Q16.8346 28.3746 16.8346 28.3464Q16.8346 28.3182 16.8557 28.2988Q16.8769 28.2794 16.9051 28.2794H18.6196Q18.6478 28.2794 18.669 28.2988Q18.6902 28.3182 18.6902 28.3464Z" style="stroke:#000000;stroke-width:0.25;stroke-linecap:round;stroke-linejoin:bevel" />
        <path d="M14.1587 44.1818Q14.1587 44.2136 14.1376 44.2312Q14.1164 44.2488 14.0847 44.2488Q14.06 44.2488 14.0406 44.2365Q14.0212 44.2241 14.0141 44.203L13.7178 43.4763L13.7213 43.4833H12.5395L12.2537 44.203Q12.2361 44.2488 12.1902 44.2488Q12.1585 44.2488 12.1391 44.2312Q12.1197 44.2136 12.1162 44.1889Q12.1126 44.1747 12.1197 44.1536L13.0687 41.8182Q13.0792 41.79 13.0951 41.7812Q13.111 41.7723 13.1357 41.7723Q13.1886 41.7723 13.2062 41.8182L14.1552 44.1536Q14.1587 44.1642 14.1587 44.1818ZM12.5959 43.3422H13.6648L13.1251 42.0122ZM16.2613 41.8464Q16.2613 41.8782 16.2419 41.8958Q16.2225 41.9134 16.1907 41.9134H15.404V44.1783Q15.404 44.2065 15.3829 44.2277Q15.3617 44.2488 15.3335 44.2488Q15.3017 44.2488 15.2823 44.2277Q15.2629 44.2065 15.2629 44.1783V41.9134H14.4762Q14.448 41.9134 14.4268 41.894Q14.4057 41.8746 14.4057 41.8464Q14.4057 41.8182 14.4268 41.7988Q14.448 41.7794 14.4762 41.7794H16.1907Q16.219 41.7794 16.2401 41.7988Q16.2613 41.8182 16.2613 41.8464ZM18.3638 41.8464Q18.3638 41.8782 18.3444 41.8958Q18.325 41.9134 18.2933 41.9134H17.5066V44.1783Q17.5066 44.2065 17.4854 44.2277Q17.4643 44.2488 17.436 44.2488Q17.4043 44.2488 17.3849 44.2277Q17.3655 44.2065 17.3655 44.1783V41.9134H16.5788Q16.5506 41.9134 16.5294 41.894Q16.5082 41.8746 16.5082 41.8464Q16.5082 41.8182 16.5294 41.7988Q16.5506 41.7794 16.5788 41.7794H18.2933Q18.3215 41.7794 18.3427 41.7988Q18.3638 41.8182 18.3638 41.8464Z" style="stroke:#000000;stroke-width:0.25;stroke-linecap:round;stroke-linejoin:bevel" />
        <path d="M14.1658 56.5141Q14.1658 56.8634 14.0547 57.1421Q13.9435 57.4207 13.7142 57.5848Q13.4849 57.7488 13.1427 57.7488H12.2255Q12.1973 57.7488 12.1761 57.7277Q12.155 57.7065 12.155 57.6783V55.3499Q12.155 55.3217 12.1761 55.3006Q12.1973 55.2794 12.2255 55.2794H13.1427Q13.4814 55.2794 13.7125 55.4487Q13.9435 55.6181 14.0547 55.8985Q14.1658 56.179 14.1658 56.5141ZM14.0176 56.5141Q14.0176 56.2142 13.9206 55.9655Q13.8236 55.7168 13.6208 55.5687Q13.4179 55.4205 13.1075 55.4205H12.3031V57.6077H13.1075Q13.5661 57.6077 13.7918 57.3061Q14.0176 57.0045 14.0176 56.5141ZM16.166 57.6783Q16.166 57.71 16.1449 57.7294Q16.1237 57.7488 16.0955 57.7488H14.7655Q14.7373 57.7488 14.7161 57.7277Q14.695 57.7065 14.695 57.6783V55.3499Q14.695 55.3217 14.7161 55.3006Q14.7373 55.2794 14.7655 55.2794H16.0955Q16.1237 55.2794 16.1449 55.3006Q16.166 55.3217 16.166 55.3499Q16.166 55.3817 16.1449 55.4011Q16.1237 55.4205 16.0955 55.4205H14.8431V56.4047H15.9367Q15.965 56.4047 15.9861 56.4259Q16.0073 56.4471 16.0073 56.4753Q16.0073 56.5071 15.9861 56.5265Q15.965 56.5459 15.9367 56.5459H14.8431V57.6077H16.0955Q16.1237 57.6077 16.1449 57.6289Q16.166 57.6501 16.166 57.6783ZM18.5543 55.5404Q18.5543 55.5687 18.5402 55.5863Q18.5191 55.6145 18.4873 55.6145Q18.4732 55.6145 18.445 55.6004Q18.1169 55.3782 17.75 55.3782Q17.4537 55.3782 17.205 55.5246Q16.9563 55.671 16.8116 55.9303Q16.667 56.1896 16.667 56.5141Q16.667 56.8387 16.8116 57.098Q16.9563 57.3572 17.205 57.5037Q17.4537 57.6501 17.75 57.6501Q18.1204 57.6501 18.4415 57.4313Q18.4591 57.4172 18.4838 57.4172Q18.5191 57.4172 18.5402 57.4454Q18.5543 57.4631 18.5543 57.4878Q18.5543 57.5231 18.5261 57.5442Q18.3885 57.643 18.1716 57.7136Q17.9546 57.7841 17.75 57.7841Q17.4149 57.7841 17.1327 57.6183Q16.8504 57.4525 16.6846 57.1615Q16.5188 56.8704 16.5188 56.5141Q16.5188 56.1578 16.6846 55.8668Q16.8504 55.5757 17.1327 55.4099Q17.4149 55.2441 17.75 55.2441Q17.9617 55.2441 18.161 55.3076Q18.3603 55.3711 18.5226 55.484Q18.5543 55.5087 18.5543 55.5404Z" style="stroke:#000000;stroke-width:0.25;stroke-linecap:round;stroke-linejoin:bevel" />
        <path d="M14.2963 71.1748Q14.2963 71.2065 14.2769 71.2259Q14.2575 71.2453 14.2293 71.2453Q14.2081 71.2453 14.1975 71.2383Q14.1023 71.1853 14.0458 71.0601Q13.9894 70.9349 13.9894 70.6491Q13.9894 70.3598 13.8342 70.2522Q13.679 70.1446 13.4743 70.1446H12.6488V71.1783Q12.6488 71.2065 12.6277 71.2277Q12.6065 71.2488 12.5748 71.2488Q12.543 71.2488 12.5218 71.2277Q12.5007 71.2065 12.5007 71.1783V68.8499Q12.5007 68.8217 12.5218 68.8006Q12.543 68.7794 12.5712 68.7794H13.5026Q13.7072 68.7794 13.8659 68.8623Q14.0247 68.9452 14.1129 69.0898Q14.2011 69.2345 14.2011 69.4179Q14.2011 69.6543 14.0758 69.8236Q13.9506 69.9929 13.7495 70.0529Q13.9188 70.1058 14.0282 70.2628Q14.1376 70.4198 14.1376 70.6491Q14.1376 70.8855 14.1676 70.979Q14.1975 71.0724 14.2575 71.1112Q14.2963 71.1359 14.2963 71.1748ZM13.5202 70.0035Q13.7425 69.9824 13.8977 69.8271Q14.0529 69.6719 14.0529 69.4214Q14.0529 69.2027 13.8977 69.0616Q13.7425 68.9205 13.4849 68.9205H12.6488V70.0035ZM16.3142 71.1783Q16.3142 71.21 16.293 71.2294Q16.2719 71.2488 16.2437 71.2488H14.9137Q14.8855 71.2488 14.8643 71.2277Q14.8431 71.2065 14.8431 71.1783V68.8499Q14.8431 68.8217 14.8643 68.8006Q14.8855 68.7794 14.9137 68.7794H16.2437Q16.2719 68.7794 16.293 68.8006Q16.3142 68.8217 16.3142 68.8499Q16.3142 68.8817 16.293 68.9011Q16.2719 68.9205 16.2437 68.9205H14.9913V69.9048H16.0849Q16.1131 69.9048 16.1343 69.9259Q16.1555 69.9471 16.1555 69.9753Q16.1555 70.0071 16.1343 70.0265Q16.1131 70.0459 16.0849 70.0459H14.9913V71.1077H16.2437Q16.2719 71.1077 16.293 71.1289Q16.3142 71.1501 16.3142 71.1783ZM18.2792 71.1783Q18.2792 71.21 18.258 71.2294Q18.2368 71.2488 18.2086 71.2488H16.9139Q16.8822 71.2488 16.8628 71.2277Q16.8434 71.2065 16.8434 71.1783V68.8499Q16.8434 68.8217 16.8645 68.8006Q16.8857 68.7794 16.9175 68.7794Q16.9492 68.7794 16.9704 68.8006Q16.9915 68.8217 16.9915 68.8499V71.1077H18.2086Q18.2368 71.1077 18.258 71.1289Q18.2792 71.1501 18.2792 71.1783Z" style="stroke:#000000;stroke-width:0.25;stroke-linecap:round;stroke-linejoin:bevel" />
        <path d="M 9.24,116.50 L 21.24,116.50 z " style="stroke:#000000;stroke-width:0.25;stroke-linecap:round;stroke-linejoin:bevel;stroke-dasharray:none" />
    </g>
</svg>
