<?xml version="1.0" encoding="utf-8"?>
<svg xmlns="http://www.w3.org/2000/svg" width="60.96mm" height="128.50mm" viewBox="0 0 60.96 128.50">
    <g id="PanelLayer">
        <rect id="border_rect" width="60.96" height="128.5" x="0" y="0" style="display:inline;fill:#4f8df2;fill-opacity:1;fill-rule:nonzero;stroke:#5021d4;stroke-width:0.7;stroke-linecap:round;stroke-linejoin:round;stroke-dasharray:none;stroke-opacity:1;image-rendering:auto" />
        <g id="sapphire_insignia">
            <path id="brand_name" d="M15.5864 124.775Q15.5864 124.721 15.6485 124.674Q15.6873 124.636 15.7417 124.636Q15.8193 124.636 15.8658 124.698Q16.316 125.342 17.1231 125.342Q17.5345 125.342 17.8449 125.136Q18.1554 124.93 18.1554 124.581Q18.1554 124.224 17.8837 124.046Q17.6121 123.867 17.1387 123.751Q16.51 123.596 16.1491 123.336Q15.7882 123.076 15.7882 122.602Q15.7882 122.144 16.153 121.845Q16.5178 121.547 17.0921 121.547Q17.4103 121.547 17.7246 121.671Q18.0389 121.795 18.2951 122.067Q18.3494 122.113 18.3494 122.175Q18.3494 122.245 18.2951 122.299Q18.233 122.331 18.1942 122.331Q18.1398 122.331 18.101 122.284Q17.6975 121.842 17.061 121.842Q16.6497 121.842 16.3664 122.043Q16.0831 122.245 16.0831 122.602Q16.1064 122.936 16.3897 123.118Q16.673 123.301 17.224 123.44Q17.6198 123.541 17.8798 123.662Q18.1398 123.782 18.2951 123.999Q18.4503 124.216 18.4503 124.566Q18.4503 125.055 18.0739 125.338Q17.6975 125.621 17.0921 125.621Q16.2073 125.621 15.6408 124.923Q15.5864 124.837 15.5864 124.775ZM22.7965 121.826V125.388Q22.7965 125.45 22.7499 125.497Q22.7034 125.544 22.6413 125.544Q22.5714 125.544 22.5287 125.497Q22.4861 125.45 22.4861 125.388V124.69Q22.292 125.086 21.8885 125.353Q21.4849 125.621 20.9959 125.621Q20.4837 125.621 20.0724 125.353Q19.661 125.086 19.4282 124.616Q19.1953 124.147 19.1953 123.565Q19.1953 122.99 19.4321 122.528Q19.6688 122.067 20.0801 121.807Q20.4915 121.547 20.9959 121.547Q21.5004 121.547 21.904 121.811Q22.3076 122.074 22.4861 122.517V121.826Q22.4861 121.764 22.5287 121.717Q22.5714 121.671 22.6413 121.671Q22.7111 121.671 22.7538 121.717Q22.7965 121.764 22.7965 121.826ZM22.5171 123.565Q22.5171 123.091 22.3231 122.695Q22.129 122.299 21.7837 122.071Q21.4383 121.842 21.0114 121.842Q20.5846 121.842 20.2392 122.063Q19.8938 122.284 19.6998 122.676Q19.5058 123.068 19.5058 123.565Q19.5058 124.061 19.6998 124.465Q19.8938 124.868 20.2353 125.097Q20.5768 125.326 21.0114 125.326Q21.4383 125.326 21.7837 125.097Q22.129 124.868 22.3231 124.465Q22.5171 124.061 22.5171 123.565ZM27.686 123.603Q27.686 124.162 27.4493 124.616Q27.2126 125.07 26.8012 125.33Q26.3899 125.59 25.8854 125.59Q25.4198 125.59 25.0317 125.357Q24.6436 125.125 24.3953 124.698V126.941Q24.3953 127.003 24.3526 127.049Q24.3099 127.096 24.2401 127.096Q24.178 127.096 24.1314 127.049Q24.0848 127.003 24.0848 126.941V121.779Q24.0848 121.717 24.1275 121.671Q24.1702 121.624 24.2401 121.624Q24.3099 121.624 24.3526 121.671Q24.3953 121.717 24.3953 121.779V122.493Q24.6281 122.051 25.0162 121.838Q25.4042 121.624 25.8854 121.624Q26.3977 121.624 26.809 121.88Q27.2203 122.136 27.4532 122.587Q27.686 123.037 27.686 123.603ZM27.3756 123.603Q27.3756 123.122 27.1776 122.738Q26.9797 122.354 26.6383 122.136Q26.2968 121.919 25.8699 121.919Q25.4353 121.919 25.0899 122.133Q24.7445 122.346 24.5544 122.73Q24.3642 123.114 24.3642 123.603Q24.3642 124.092 24.5544 124.476Q24.7445 124.861 25.0899 125.078Q25.4353 125.295 25.8699 125.295Q26.2968 125.295 26.6383 125.078Q26.9797 124.861 27.1776 124.473Q27.3756 124.085 27.3756 123.603ZM32.3039 123.603Q32.3039 124.162 32.0671 124.616Q31.8304 125.07 31.4191 125.33Q31.0078 125.59 30.5033 125.59Q30.0376 125.59 29.6496 125.357Q29.2615 125.125 29.0132 124.698V126.941Q29.0132 127.003 28.9705 127.049Q28.9278 127.096 28.8579 127.096Q28.7958 127.096 28.7493 127.049Q28.7027 127.003 28.7027 126.941V121.779Q28.7027 121.717 28.7454 121.671Q28.7881 121.624 28.8579 121.624Q28.9278 121.624 28.9705 121.671Q29.0132 121.717 29.0132 121.779V122.493Q29.246 122.051 29.634 121.838Q30.0221 121.624 30.5033 121.624Q31.0155 121.624 31.4269 121.88Q31.8382 122.136 32.071 122.587Q32.3039 123.037 32.3039 123.603ZM31.9934 123.603Q31.9934 123.122 31.7955 122.738Q31.5976 122.354 31.2561 122.136Q30.9146 121.919 30.4878 121.919Q30.0531 121.919 29.7078 122.133Q29.3624 122.346 29.1723 122.73Q28.9821 123.114 28.9821 123.603Q28.9821 124.092 29.1723 124.476Q29.3624 124.861 29.7078 125.078Q30.0531 125.295 30.4878 125.295Q30.9146 125.295 31.2561 125.078Q31.5976 124.861 31.7955 124.473Q31.9934 124.085 31.9934 123.603ZM36.394 123.122V125.388Q36.394 125.45 36.3474 125.497Q36.3008 125.544 36.2387 125.544Q36.1689 125.544 36.1262 125.497Q36.0835 125.45 36.0835 125.388V123.122Q36.0835 122.587 35.8196 122.253Q35.5558 121.919 35.0125 121.919Q34.6788 121.919 34.3567 122.082Q34.0346 122.245 33.8328 122.525Q33.631 122.804 33.631 123.122V125.388Q33.631 125.45 33.5844 125.497Q33.5379 125.544 33.4758 125.544Q33.4059 125.544 33.3633 125.497Q33.3206 125.45 33.3206 125.388V119.956Q33.3206 119.894 33.3671 119.847Q33.4137 119.8 33.4758 119.8Q33.5456 119.8 33.5883 119.847Q33.631 119.894 33.631 119.956V122.408Q33.8483 122.067 34.2325 121.845Q34.6167 121.624 35.0125 121.624Q35.6799 121.624 36.037 122.047Q36.394 122.47 36.394 123.122ZM37.8375 125.544Q37.7677 125.544 37.725 125.497Q37.6823 125.45 37.6823 125.388V121.702Q37.6823 121.64 37.7289 121.593Q37.7754 121.547 37.8375 121.547Q37.9074 121.547 37.9501 121.593Q37.9928 121.64 37.9928 121.702V125.388Q37.9928 125.45 37.9462 125.497Q37.8996 125.544 37.8375 125.544ZM37.5659 120.771V120.708Q37.5659 120.6 37.6435 120.53Q37.7211 120.46 37.8453 120.46Q37.954 120.46 38.0277 120.53Q38.1014 120.6 38.1014 120.708V120.771Q38.1014 120.879 38.0277 120.949Q37.954 121.019 37.8375 121.019Q37.7134 121.019 37.6396 120.949Q37.5659 120.879 37.5659 120.771ZM41.3921 121.725Q41.3921 121.795 41.3533 121.842Q41.3145 121.888 41.2524 121.888Q41.2291 121.888 41.1399 121.853Q41.0506 121.818 40.9497 121.818Q40.6315 121.818 40.3133 122.071Q39.9951 122.323 39.7933 122.707Q39.5915 123.091 39.5915 123.448V125.388Q39.5915 125.45 39.545 125.497Q39.4984 125.544 39.4363 125.544Q39.3665 125.544 39.3238 125.497Q39.2811 125.45 39.2811 125.388V121.826Q39.2811 121.764 39.3277 121.717Q39.3742 121.671 39.4363 121.671Q39.5062 121.671 39.5489 121.717Q39.5915 121.764 39.5915 121.826V122.649Q39.7701 122.175 40.1465 121.865Q40.5229 121.554 41.0351 121.547Q41.3921 121.547 41.3921 121.725ZM45.3348 124.752Q45.3348 124.806 45.3037 124.845Q45.0476 125.187 44.6673 125.404Q44.287 125.621 43.8524 125.621Q43.2703 125.621 42.8202 125.373Q42.37 125.125 42.1178 124.667Q41.8656 124.209 41.8656 123.603Q41.8656 122.982 42.11 122.513Q42.3545 122.043 42.7581 121.795Q43.1617 121.547 43.6196 121.547Q44.0775 121.547 44.4694 121.745Q44.8613 121.942 45.1097 122.338Q45.3581 122.734 45.3736 123.316Q45.3736 123.378 45.327 123.429Q45.2804 123.479 45.2184 123.479H42.1682V123.58Q42.1682 124.061 42.3623 124.461Q42.5563 124.861 42.9366 125.093Q43.3169 125.326 43.8524 125.326Q44.2249 125.326 44.5548 125.144Q44.8846 124.962 45.0709 124.682Q45.1252 124.612 45.2028 124.612Q45.2572 124.612 45.296 124.655Q45.3348 124.698 45.3348 124.752ZM42.1993 123.184H45.0554V123.114Q45.0166 122.719 44.8031 122.435Q44.5897 122.152 44.2754 122.005Q43.9611 121.857 43.6196 121.857Q43.3324 121.857 43.0336 122.008Q42.7348 122.16 42.5058 122.459Q42.2769 122.757 42.1993 123.184Z" style="fill:#000000;stroke:#000000;stroke-width:0.265;stroke-linecap:square" />
            <g id="gemstones" style="stroke-width:0;fill:#0000ff;stroke:#2e2114;stroke-linecap:square;stroke-opacity:1">
                <path d="m 12.930,122.900 q 0,0.34175 -0.242534,0.63114 -0.0441,0.0524 -0.20395,0.21497 -0.187413,0.19017 -0.785481,0.81304 l -1.444183,1.51309 q -0.01929,0.003 -0.0441,0.003 -0.02756,0 -0.04134,-0.003 -0.08268,-0.0827 -0.647678,-0.67524 -0.468532,-0.47404 -0.934309,-0.94809 -0.556727,-0.56775 -0.89848,-0.98116 -0.132292,-0.15985 -0.168121,-0.29766 -0.02756,-0.10197 -0.02756,-0.34175 0,-0.11024 0.07166,-0.28939 0.06614,-0.16536 0.140559,-0.26458 0.118512,-0.1571 0.42168,-0.42444 0.283875,-0.2508 0.474044,-0.37482 0.272852,-0.17915 0.818555,-0.36656 0.09646,-0.0331 0.110243,-0.0331 h 1.3615 q 0.01102,0 0.104731,0.0331 0.567751,0.20119 0.824066,0.36656 0.165365,0.10473 0.474045,0.37758 0.322461,0.28388 0.421679,0.42168 0.214974,0.2949 0.214974,0.62563 z m -0.16812,-0.27285 q -0.03307,-0.10749 -0.135048,-0.30868 -0.07166,-0.0937 -0.209462,-0.19844 -0.118511,-0.0854 -0.234266,-0.17088 0.245291,0.3638 0.578776,0.678 z m -0.573264,-0.52366 -0.358289,-0.44648 v 0.41065 z m 0.636653,0.75792 q 0,-0.0524 -0.341753,-0.39412 l 0.228754,0.7028 h 0.04961 q 0.06339,-0.21773 0.06339,-0.30868 z m -0.23151,0.27285 -0.316948,-0.90399 -0.410655,-0.0634 -0.159853,0.61461 z m 0.0028,0.15434 -0.771701,-0.3197 h -0.03032 l 0.344509,0.60634 q 0.07993,-0.003 0.234266,-0.0469 0.02481,-0.0138 0.223242,-0.23978 z m -0.857139,-1.05006 -0.719335,0.28388 0.60358,0.22599 z m 0,-0.16261 v -0.51538 l -0.917773,-0.38034 h -1.223697 l -0.917772,0.38034 v 0.51538 l 0.89848,0.4079 h 1.254014 z m 0.573264,1.53789 q -0.0689,0.011 -0.198438,0.0524 -0.08544,0.0551 -0.259071,0.16261 0.01929,0 0.06339,0.003 0.04134,0 0.06339,0 0.118511,0 0.190169,-0.0689 0.07166,-0.0717 0.14056,-0.14883 z m -0.289388,0.003 -0.347266,-0.63114 -0.363801,0.87918 q 0.0248,-0.0165 0.06615,-0.0165 0.03032,0 0.08544,0.011 0.05788,0.008 0.08819,0.008 0.04961,0 0.228754,-0.10749 0.228754,-0.1378 0.242535,-0.14331 z m -0.440972,-0.74139 -0.683507,-0.2756 -0.592556,0.54845 0.903993,0.65595 z m -0.854383,-0.28387 h -1.036284 l 0.523654,0.47404 z m 0.749652,1.36701 q -0.228754,-0.0303 -0.228754,-0.0303 -0.03583,0 -0.272851,0.0937 l 0.190169,0.0193 q 0.01102,0 0.311436,-0.0827 z m -0.388606,-0.0882 -0.843359,-0.61185 v 0.67524 l 0.471289,0.0827 z m 0.854383,0.0496 q -0.09922,0.006 -0.2949,0.0386 -0.01102,0.003 -0.377583,0.17639 -0.129535,0.34726 -0.380338,1.0418 z m -2.543857,-1.39733 -0.719335,-0.28388 0.124023,0.51814 z m -0.802018,-0.45476 v -0.41065 l -0.366557,0.44648 z m 1.515841,1.07212 -0.592556,-0.54019 -0.683506,0.2756 0.380338,0.9288 z m 0.369314,0.94257 q -0.03307,-0.003 -0.135047,-0.0248 -0.08544,-0.0165 -0.137804,-0.0165 -0.05237,0 -0.137804,0.0165 -0.101975,0.0221 -0.135047,0.0248 0.264583,0.0469 0.272851,0.0469 0.0083,0 0.272851,-0.0469 z m -0.30868,-0.1378 v -0.68626 l -0.843359,0.61185 0.37207,0.14607 z m 0.950846,0.20671 -0.396875,-0.0551 -0.479557,0.14056 v 1.27607 z m -2.888366,-2.20211 q -0.118512,0.0854 -0.234267,0.17364 -0.146072,0.10748 -0.209461,0.19568 -0.0441,0.10473 -0.135048,0.31419 0.369314,-0.3638 0.578776,-0.68351 z m 0.476801,0.83234 -0.159853,-0.61461 -0.410655,0.0634 -0.316948,0.90399 z m 0.394118,1.08313 -0.363802,-0.87918 -0.355533,0.63114 q 0.43546,0.2508 0.451996,0.2508 0.09095,0 0.267339,-0.003 z m 1.821765,0.82958 q -0.132291,0.21222 -0.405143,0.6339 -0.07717,0.10749 -0.220486,0.32797 -0.05788,0.10473 -0.05512,0.226 0.159852,-0.15158 0.432704,-0.49609 0.07717,-0.12954 0.140559,-0.339 0.05512,-0.17639 0.107486,-0.35278 z m -1.493792,-0.66146 -0.270095,-0.0882 -0.0083,-0.011 q -0.02481,0 -0.107487,0.011 -0.06615,0.006 -0.107487,0.006 0.272851,0.091 0.311436,0.091 0.02481,0 0.181901,-0.008 z m -0.810286,-1.06384 h -0.03032 l -0.7717,0.3197 q 0.06615,0.0965 0.223242,0.23978 0.07717,0.0138 0.234266,0.0469 z m -0.689018,-0.50161 q -0.341754,0.34727 -0.341754,0.39412 0,0.0799 0.06339,0.30868 h 0.04961 z m 2.235176,3.04547 v -1.27607 l -0.479557,-0.14056 -0.396875,0.0551 z m -1.606791,-1.6757 q -0.256315,-0.1819 -0.457509,-0.22324 0.06615,0.0772 0.20395,0.22324 z m 1.609547,2.04501 v -0.1378 l -0.683507,-1.05007 q 0.05237,0.17639 0.107487,0.35278 0.06339,0.20946 0.14056,0.339 0.0689,0.11851 0.20395,0.25907 0.115755,0.11851 0.23151,0.23702 z m -0.644921,-0.70555 q -0.115756,-0.32798 -0.380339,-1.0418 -0.135047,-0.0662 -0.272851,-0.12954 -0.159852,-0.0716 -0.289388,-0.0716 -0.05237,0 -0.110243,-0.0138 z" />
                <path d="m 53.460,122.900 q 0,0.34175 -0.242534,0.63114 -0.0441,0.0524 -0.20395,0.21497 -0.187413,0.19017 -0.785481,0.81304 l -1.444183,1.51309 q -0.01929,0.003 -0.0441,0.003 -0.02756,0 -0.04134,-0.003 -0.08268,-0.0827 -0.647678,-0.67524 -0.468532,-0.47404 -0.934309,-0.94809 -0.556727,-0.56775 -0.89848,-0.98116 -0.132292,-0.15985 -0.168121,-0.29766 -0.02756,-0.10197 -0.02756,-0.34175 0,-0.11024 0.07166,-0.28939 0.06614,-0.16536 0.140559,-0.26458 0.118512,-0.1571 0.42168,-0.42444 0.283875,-0.2508 0.474044,-0.37482 0.272852,-0.17915 0.818555,-0.36656 0.09646,-0.0331 0.110243,-0.0331 h 1.3615 q 0.01102,0 0.104731,0.0331 0.567751,0.20119 0.824066,0.36656 0.165365,0.10473 0.474045,0.37758 0.322461,0.28388 0.421679,0.42168 0.214974,0.2949 0.214974,0.62563 z m -0.16812,-0.27285 q -0.03307,-0.10749 -0.135048,-0.30868 -0.07166,-0.0937 -0.209462,-0.19844 -0.118511,-0.0854 -0.234266,-0.17088 0.245291,0.3638 0.578776,0.678 z m -0.573264,-0.52366 -0.358289,-0.44648 v 0.41065 z m 0.636653,0.75792 q 0,-0.0524 -0.341753,-0.39412 l 0.228754,0.7028 h 0.04961 q 0.06339,-0.21773 0.06339,-0.30868 z m -0.23151,0.27285 -0.316948,-0.90399 -0.410655,-0.0634 -0.159853,0.61461 z m 0.0028,0.15434 -0.771701,-0.3197 h -0.03032 l 0.344509,0.60634 q 0.07993,-0.003 0.234266,-0.0469 0.02481,-0.0138 0.223242,-0.23978 z m -0.857139,-1.05006 -0.719335,0.28388 0.60358,0.22599 z m 0,-0.16261 v -0.51538 l -0.917773,-0.38034 h -1.223697 l -0.917772,0.38034 v 0.51538 l 0.89848,0.4079 h 1.254014 z m 0.573264,1.53789 q -0.0689,0.011 -0.198438,0.0524 -0.08544,0.0551 -0.259071,0.16261 0.01929,0 0.06339,0.003 0.04134,0 0.06339,0 0.118511,0 0.190169,-0.0689 0.07166,-0.0717 0.14056,-0.14883 z m -0.289388,0.003 -0.347266,-0.63114 -0.363801,0.87918 q 0.0248,-0.0165 0.06615,-0.0165 0.03032,0 0.08544,0.011 0.05788,0.008 0.08819,0.008 0.04961,0 0.228754,-0.10749 0.228754,-0.1378 0.242535,-0.14331 z m -0.440972,-0.74139 -0.683507,-0.2756 -0.592556,0.54845 0.903993,0.65595 z m -0.854383,-0.28387 h -1.036284 l 0.523654,0.47404 z m 0.749652,1.36701 q -0.228754,-0.0303 -0.228754,-0.0303 -0.03583,0 -0.272851,0.0937 l 0.190169,0.0193 q 0.01102,0 0.311436,-0.0827 z m -0.388606,-0.0882 -0.843359,-0.61185 v 0.67524 l 0.471289,0.0827 z m 0.854383,0.0496 q -0.09922,0.006 -0.2949,0.0386 -0.01102,0.003 -0.377583,0.17639 -0.129535,0.34726 -0.380338,1.0418 z m -2.543857,-1.39733 -0.719335,-0.28388 0.124023,0.51814 z m -0.802018,-0.45476 v -0.41065 l -0.366557,0.44648 z m 1.515841,1.07212 -0.592556,-0.54019 -0.683506,0.2756 0.380338,0.9288 z m 0.369314,0.94257 q -0.03307,-0.003 -0.135047,-0.0248 -0.08544,-0.0165 -0.137804,-0.0165 -0.05237,0 -0.137804,0.0165 -0.101975,0.0221 -0.135047,0.0248 0.264583,0.0469 0.272851,0.0469 0.0083,0 0.272851,-0.0469 z m -0.30868,-0.1378 v -0.68626 l -0.843359,0.61185 0.37207,0.14607 z m 0.950846,0.20671 -0.396875,-0.0551 -0.479557,0.14056 v 1.27607 z m -2.888366,-2.20211 q -0.118512,0.0854 -0.234267,0.17364 -0.146072,0.10748 -0.209461,0.19568 -0.0441,0.10473 -0.135048,0.31419 0.369314,-0.3638 0.578776,-0.68351 z m 0.476801,0.83234 -0.159853,-0.61461 -0.410655,0.0634 -0.316948,0.90399 z m 0.394118,1.08313 -0.363802,-0.87918 -0.355533,0.63114 q 0.43546,0.2508 0.451996,0.2508 0.09095,0 0.267339,-0.003 z m 1.821765,0.82958 q -0.132291,0.21222 -0.405143,0.6339 -0.07717,0.10749 -0.220486,0.32797 -0.05788,0.10473 -0.05512,0.226 0.159852,-0.15158 0.432704,-0.49609 0.07717,-0.12954 0.140559,-0.339 0.05512,-0.17639 0.107486,-0.35278 z m -1.493792,-0.66146 -0.270095,-0.0882 -0.0083,-0.011 q -0.02481,0 -0.107487,0.011 -0.06615,0.006 -0.107487,0.006 0.272851,0.091 0.311436,0.091 0.02481,0 0.181901,-0.008 z m -0.810286,-1.06384 h -0.03032 l -0.7717,0.3197 q 0.06615,0.0965 0.223242,0.23978 0.07717,0.0138 0.234266,0.0469 z m -0.689018,-0.50161 q -0.341754,0.34727 -0.341754,0.39412 0,0.0799 0.06339,0.30868 h 0.04961 z m 2.235176,3.04547 v -1.27607 l -0.479557,-0.14056 -0.396875,0.0551 z m -1.606791,-1.6757 q -0.256315,-0.1819 -0.457509,-0.22324 0.06615,0.0772 0.20395,0.22324 z m 1.609547,2.04501 v -0.1378 l -0.683507,-1.05007 q 0.05237,0.17639 0.107487,0.35278 0.06339,0.20946 0.14056,0.339 0.0689,0.11851 0.20395,0.25907 0.115755,0.11851 0.23151,0.23702 z m -0.644921,-0.70555 q -0.115756,-0.32798 -0.380339,-1.0418 -0.135047,-0.0662 -0.272851,-0.12954 -0.159852,-0.0716 -0.289388,-0.0716 -0.05237,0 -0.110243,-0.0138 z" />
            </g>
        </g>
        <path id="model_name" d="M17.7427 4.26294Q17.7427 4.30951 17.7194 4.35608L16.175 8.05036Q16.1595 8.09693 16.1168 8.12409Q16.0741 8.15126 16.0275 8.15126Q15.981 8.15126 15.9383 8.12409Q15.8956 8.09693 15.8801 8.05036L14.3278 4.36384Q14.3123 4.31727 14.3123 4.29399Q14.3123 4.2319 14.355 4.18533Q14.3977 4.13876 14.4753 4.13876Q14.5141 4.13876 14.5568 4.16593Q14.5995 4.19309 14.615 4.23966L16.0198 7.61574L17.4323 4.23966Q17.4711 4.13876 17.5953 4.13876Q17.6418 4.13876 17.6923 4.17369Q17.7427 4.20861 17.7427 4.26294ZM20.3272 8.22887Q19.7917 8.22887 19.3532 7.96111Q18.9147 7.69335 18.6624 7.22769Q18.4102 6.76202 18.4102 6.19546Q18.4102 5.62114 18.6624 5.15547Q18.9147 4.6898 19.3493 4.42204Q19.7839 4.15429 20.3272 4.15429Q20.8627 4.15429 21.3012 4.42204Q21.7397 4.6898 21.9881 5.15547Q22.2364 5.62114 22.2364 6.19546Q22.2364 6.76978 21.9881 7.23157Q21.7397 7.69335 21.3012 7.96111Q20.8627 8.22887 20.3272 8.22887ZM20.3272 4.44921Q19.877 4.44921 19.5084 4.67816Q19.1397 4.90711 18.9302 5.30293Q18.7206 5.69875 18.7206 6.19546Q18.7206 6.68441 18.9302 7.08022Q19.1397 7.47604 19.5084 7.70499Q19.877 7.93395 20.3272 7.93395Q20.7851 7.93395 21.1499 7.70887Q21.5146 7.4838 21.7203 7.08411Q21.926 6.68441 21.926 6.19546Q21.926 5.69875 21.7203 5.30293Q21.5146 4.90711 21.1499 4.67816Q20.7851 4.44921 20.3272 4.44921ZM23.4471 8.15126Q23.3773 8.15126 23.3346 8.10469Q23.2919 8.05812 23.2919 7.99604V2.56326Q23.2919 2.50117 23.3385 2.4546Q23.3851 2.40804 23.4471 2.40804Q23.517 2.40804 23.5597 2.4546Q23.6024 2.50117 23.6024 2.56326V7.99604Q23.6024 8.05812 23.5558 8.10469Q23.5092 8.15126 23.4471 8.15126ZM26.5205 4.39488Q26.5205 4.45697 26.4779 4.49966Q26.4352 4.54234 26.3731 4.54234H25.5194V7.3053Q25.5194 7.64679 25.6397 7.75932Q25.76 7.87186 25.9462 7.87186Q25.9773 7.87186 26.0355 7.85634Q26.0937 7.84081 26.1325 7.84081Q26.1868 7.84081 26.2256 7.8835Q26.2644 7.92619 26.2644 7.98051Q26.2644 8.05036 26.1713 8.10081Q26.0782 8.15126 25.954 8.15126Q25.76 8.15126 25.628 8.12409Q25.4961 8.09693 25.3525 7.91454Q25.2089 7.73216 25.2089 7.32082V4.54234H24.5725Q24.5182 4.54234 24.4716 4.49578Q24.425 4.44921 24.425 4.39488Q24.425 4.33279 24.4677 4.29011Q24.5104 4.24742 24.5725 4.24742H25.2089V3.26176Q25.2089 3.19967 25.2555 3.1531Q25.302 3.10654 25.3641 3.10654Q25.434 3.10654 25.4767 3.1531Q25.5194 3.19967 25.5194 3.26176V4.24742H26.3731Q26.4274 4.24742 26.474 4.29399Q26.5205 4.34055 26.5205 4.39488ZM29.1697 9.54826V9.53274Q29.1697 9.47841 29.2085 9.43572Q29.2473 9.39304 29.3094 9.38528Q29.612 9.33871 29.841 9.14468Q30.07 8.95065 30.07 8.6014V4.42592Q30.07 4.36384 30.1126 4.31727Q30.1553 4.2707 30.2252 4.2707Q30.295 4.2707 30.3377 4.31727Q30.3804 4.36384 30.3804 4.42592V8.6014Q30.3804 8.92737 30.2097 9.17572Q30.0389 9.42408 29.7906 9.55602Q29.5422 9.68796 29.3171 9.68796Q29.2473 9.68796 29.2085 9.64915Q29.1697 9.61035 29.1697 9.54826ZM29.9535 3.37041V3.30832Q29.9535 3.19967 30.0311 3.12982Q30.1088 3.05997 30.2329 3.05997Q30.3416 3.05997 30.4153 3.12982Q30.4891 3.19967 30.4891 3.30832V3.37041Q30.4891 3.47907 30.4153 3.54892Q30.3416 3.61877 30.2252 3.61877Q30.101 3.61877 30.0273 3.54892Q29.9535 3.47907 29.9535 3.37041ZM35.2466 7.35962Q35.2466 7.41395 35.2156 7.45276Q34.9595 7.79425 34.5792 8.01156Q34.1989 8.22887 33.7642 8.22887Q33.1822 8.22887 32.732 7.98051Q32.2819 7.73216 32.0296 7.27425Q31.7774 6.81635 31.7774 6.21098Q31.7774 5.59009 32.0219 5.12054Q32.2663 4.651 32.6699 4.40264Q33.0735 4.15429 33.5314 4.15429Q33.9893 4.15429 34.3813 4.35219Q34.7732 4.5501 35.0215 4.94592Q35.2699 5.34174 35.2854 5.92382Q35.2854 5.98591 35.2389 6.03636Q35.1923 6.0868 35.1302 6.0868H32.0801V6.1877Q32.0801 6.66889 32.2741 7.06858Q32.4681 7.46828 32.8484 7.70111Q33.2287 7.93395 33.7642 7.93395Q34.1368 7.93395 34.4666 7.75156Q34.7965 7.56917 34.9827 7.28977Q35.0371 7.21992 35.1147 7.21992Q35.169 7.21992 35.2078 7.26261Q35.2466 7.3053 35.2466 7.35962ZM32.1111 5.79188H34.9672V5.72203Q34.9284 5.32621 34.715 5.04293Q34.5015 4.75965 34.1872 4.61219Q33.8729 4.46473 33.5314 4.46473Q33.2442 4.46473 32.9454 4.61607Q32.6466 4.76741 32.4177 5.06622Q32.1887 5.36502 32.1111 5.79188ZM38.4131 4.33279Q38.4131 4.40264 38.3743 4.44921Q38.3355 4.49578 38.2734 4.49578Q38.2502 4.49578 38.1609 4.46085Q38.0717 4.42592 37.9708 4.42592Q37.6526 4.42592 37.3344 4.67816Q37.0161 4.9304 36.8144 5.31457Q36.6126 5.69875 36.6126 6.05576V7.99604Q36.6126 8.05812 36.566 8.10469Q36.5194 8.15126 36.4573 8.15126Q36.3875 8.15126 36.3448 8.10469Q36.3021 8.05812 36.3021 7.99604V4.43369Q36.3021 4.3716 36.3487 4.32503Q36.3953 4.27846 36.4573 4.27846Q36.5272 4.27846 36.5699 4.32503Q36.6126 4.3716 36.6126 4.43369V5.25636Q36.7911 4.78294 37.1675 4.47249Q37.5439 4.16205 38.0561 4.15429Q38.4131 4.15429 38.4131 4.33279ZM42.2471 7.99604Q42.2471 8.06589 42.1889 8.10857Q42.1307 8.15126 42.0919 8.15126Q42.0298 8.15126 41.9755 8.09693L40.1594 6.16441L39.5075 6.70769V7.99604Q39.5075 8.05812 39.4648 8.10469Q39.4221 8.15126 39.3522 8.15126Q39.2824 8.15126 39.2397 8.10469Q39.197 8.05812 39.197 7.99604V2.56326Q39.197 2.50117 39.2397 2.4546Q39.2824 2.40804 39.3522 2.40804Q39.4221 2.40804 39.4648 2.4546Q39.5075 2.50117 39.5075 2.56326V6.31964L41.9445 4.27846Q41.991 4.2319 42.0453 4.2319Q42.1074 4.2319 42.154 4.27846Q42.2006 4.32503 42.2006 4.39488Q42.2006 4.46473 42.1462 4.5113L40.4 5.96262L42.2006 7.87962Q42.2471 7.92619 42.2471 7.99604ZM46.2984 4.30951V7.77096Q46.2984 8.35305 46.0617 8.79155Q45.825 9.23005 45.4098 9.46677Q44.9946 9.70348 44.4668 9.70348Q44.1253 9.70348 43.842 9.62199Q43.5588 9.5405 43.3647 9.40856Q43.225 9.31542 43.2794 9.19901Q43.3337 9.10587 43.4113 9.10587Q43.4501 9.10587 43.4812 9.12916Q43.6674 9.24557 43.9274 9.33483Q44.1874 9.42408 44.4823 9.42408Q44.9247 9.42408 45.2662 9.21453Q45.6077 9.00498 45.7978 8.62857Q45.988 8.25215 45.988 7.77096V7.42171Q45.8095 7.77096 45.4176 7.99992Q45.0256 8.22887 44.6065 8.22887Q43.908 8.22887 43.5665 7.82917Q43.225 7.42948 43.225 6.73097V4.30951Q43.225 4.24742 43.2677 4.20085Q43.3104 4.15429 43.3803 4.15429Q43.4501 4.15429 43.4928 4.20085Q43.5355 4.24742 43.5355 4.30951V6.73097Q43.5355 7.93395 44.6065 7.93395Q44.9402 7.93395 45.2623 7.75932Q45.5844 7.5847 45.7862 7.3053Q45.988 7.0259 45.988 6.73097V4.30951Q45.988 4.24742 46.0307 4.20085Q46.0734 4.15429 46.1432 4.15429Q46.2131 4.15429 46.2558 4.20085Q46.2984 4.24742 46.2984 4.30951Z" style="display:inline;stroke:#000000;stroke-width:0.35;stroke-linecap:round;stroke-linejoin:bevel" />
        <circle id="w_output" cx="40" cy="90" r="1" />
        <circle id="x_output" cx="40" cy="100" r="1" />
        <circle id="y_output" cx="40" cy="110" r="1" />
        <circle id="time_dilation_knob" cx="25" cy="70" r="1" />
    </g>
</svg>
