<?xml version="1.0" encoding="utf-8"?>
<svg xmlns="http://www.w3.org/2000/svg" width="60.96mm" height="128.50mm" viewBox="0 0 60.96 128.50">
    <g id="PanelLayer">
        <rect id="border_rect" width="60.96" height="128.5" x="0" y="0" style="display:inline;fill:#4f8df2;fill-opacity:1;fill-rule:nonzero;stroke:#5021d4;stroke-width:0.7;stroke-linecap:round;stroke-linejoin:round;stroke-dasharray:none;stroke-opacity:1;image-rendering:auto" />
        <g id="sapphire_insignia">
            <path id="brand_name" d="M15.5864 124.775Q15.5864 124.721 15.6485 124.674Q15.6873 124.636 15.7417 124.636Q15.8193 124.636 15.8658 124.698Q16.316 125.342 17.1231 125.342Q17.5345 125.342 17.8449 125.136Q18.1554 124.93 18.1554 124.581Q18.1554 124.224 17.8837 124.046Q17.6121 123.867 17.1387 123.751Q16.51 123.596 16.1491 123.336Q15.7882 123.076 15.7882 122.602Q15.7882 122.144 16.153 121.845Q16.5178 121.547 17.0921 121.547Q17.4103 121.547 17.7246 121.671Q18.0389 121.795 18.2951 122.067Q18.3494 122.113 18.3494 122.175Q18.3494 122.245 18.2951 122.299Q18.233 122.331 18.1942 122.331Q18.1398 122.331 18.101 122.284Q17.6975 121.842 17.061 121.842Q16.6497 121.842 16.3664 122.043Q16.0831 122.245 16.0831 122.602Q16.1064 122.936 16.3897 123.118Q16.673 123.301 17.224 123.44Q17.6198 123.541 17.8798 123.662Q18.1398 123.782 18.2951 123.999Q18.4503 124.216 18.4503 124.566Q18.4503 125.055 18.0739 125.338Q17.6975 125.621 17.0921 125.621Q16.2073 125.621 15.6408 124.923Q15.5864 124.837 15.5864 124.775ZM22.7965 121.826V125.388Q22.7965 125.45 22.7499 125.497Q22.7034 125.544 22.6413 125.544Q22.5714 125.544 22.5287 125.497Q22.4861 125.45 22.4861 125.388V124.69Q22.292 125.086 21.8885 125.353Q21.4849 125.621 20.9959 125.621Q20.4837 125.621 20.0724 125.353Q19.661 125.086 19.4282 124.616Q19.1953 124.147 19.1953 123.565Q19.1953 122.99 19.4321 122.528Q19.6688 122.067 20.0801 121.807Q20.4915 121.547 20.9959 121.547Q21.5004 121.547 21.904 121.811Q22.3076 122.074 22.4861 122.517V121.826Q22.4861 121.764 22.5287 121.717Q22.5714 121.671 22.6413 121.671Q22.7111 121.671 22.7538 121.717Q22.7965 121.764 22.7965 121.826ZM22.5171 123.565Q22.5171 123.091 22.3231 122.695Q22.129 122.299 21.7837 122.071Q21.4383 121.842 21.0114 121.842Q20.5846 121.842 20.2392 122.063Q19.8938 122.284 19.6998 122.676Q19.5058 123.068 19.5058 123.565Q19.5058 124.061 19.6998 124.465Q19.8938 124.868 20.2353 125.097Q20.5768 125.326 21.0114 125.326Q21.4383 125.326 21.7837 125.097Q22.129 124.868 22.3231 124.465Q22.5171 124.061 22.5171 123.565ZM27.686 123.603Q27.686 124.162 27.4493 124.616Q27.2126 125.07 26.8012 125.33Q26.3899 125.59 25.8854 125.59Q25.4198 125.59 25.0317 125.357Q24.6436 125.125 24.3953 124.698V126.941Q24.3953 127.003 24.3526 127.049Q24.3099 127.096 24.2401 127.096Q24.178 127.096 24.1314 127.049Q24.0848 127.003 24.0848 126.941V121.779Q24.0848 121.717 24.1275 121.671Q24.1702 121.624 24.2401 121.624Q24.3099 121.624 24.3526 121.671Q24.3953 121.717 24.3953 121.779V122.493Q24.6281 122.051 25.0162 121.838Q25.4042 121.624 25.8854 121.624Q26.3977 121.624 26.809 121.88Q27.2203 122.136 27.4532 122.587Q27.686 123.037 27.686 123.603ZM27.3756 123.603Q27.3756 123.122 27.1776 122.738Q26.9797 122.354 26.6383 122.136Q26.2968 121.919 25.8699 121.919Q25.4353 121.919 25.0899 122.133Q24.7445 122.346 24.5544 122.73Q24.3642 123.114 24.3642 123.603Q24.3642 124.092 24.5544 124.476Q24.7445 124.861 25.0899 125.078Q25.4353 125.295 25.8699 125.295Q26.2968 125.295 26.6383 125.078Q26.9797 124.861 27.1776 124.473Q27.3756 124.085 27.3756 123.603ZM32.3039 123.603Q32.3039 124.162 32.0671 124.616Q31.8304 125.07 31.4191 125.33Q31.0078 125.59 30.5033 125.59Q30.0376 125.59 29.6496 125.357Q29.2615 125.125 29.0132 124.698V126.941Q29.0132 127.003 28.9705 127.049Q28.9278 127.096 28.8579 127.096Q28.7958 127.096 28.7493 127.049Q28.7027 127.003 28.7027 126.941V121.779Q28.7027 121.717 28.7454 121.671Q28.7881 121.624 28.8579 121.624Q28.9278 121.624 28.9705 121.671Q29.0132 121.717 29.0132 121.779V122.493Q29.246 122.051 29.634 121.838Q30.0221 121.624 30.5033 121.624Q31.0155 121.624 31.4269 121.88Q31.8382 122.136 32.071 122.587Q32.3039 123.037 32.3039 123.603ZM31.9934 123.603Q31.9934 123.122 31.7955 122.738Q31.5976 122.354 31.2561 122.136Q30.9146 121.919 30.4878 121.919Q30.0531 121.919 29.7078 122.133Q29.3624 122.346 29.1723 122.73Q28.9821 123.114 28.9821 123.603Q28.9821 124.092 29.1723 124.476Q29.3624 124.861 29.7078 125.078Q30.0531 125.295 30.4878 125.295Q30.9146 125.295 31.2561 125.078Q31.5976 124.861 31.7955 124.473Q31.9934 124.085 31.9934 123.603ZM36.394 123.122V125.388Q36.394 125.45 36.3474 125.497Q36.3008 125.544 36.2387 125.544Q36.1689 125.544 36.1262 125.497Q36.0835 125.45 36.0835 125.388V123.122Q36.0835 122.587 35.8196 122.253Q35.5558 121.919 35.0125 121.919Q34.6788 121.919 34.3567 122.082Q34.0346 122.245 33.8328 122.525Q33.631 122.804 33.631 123.122V125.388Q33.631 125.45 33.5844 125.497Q33.5379 125.544 33.4758 125.544Q33.4059 125.544 33.3633 125.497Q33.3206 125.45 33.3206 125.388V119.956Q33.3206 119.894 33.3671 119.847Q33.4137 119.8 33.4758 119.8Q33.5456 119.8 33.5883 119.847Q33.631 119.894 33.631 119.956V122.408Q33.8483 122.067 34.2325 121.845Q34.6167 121.624 35.0125 121.624Q35.6799 121.624 36.037 122.047Q36.394 122.47 36.394 123.122ZM37.8375 125.544Q37.7677 125.544 37.725 125.497Q37.6823 125.45 37.6823 125.388V121.702Q37.6823 121.64 37.7289 121.593Q37.7754 121.547 37.8375 121.547Q37.9074 121.547 37.9501 121.593Q37.9928 121.64 37.9928 121.702V125.388Q37.9928 125.45 37.9462 125.497Q37.8996 125.544 37.8375 125.544ZM37.5659 120.771V120.708Q37.5659 120.6 37.6435 120.53Q37.7211 120.46 37.8453 120.46Q37.954 120.46 38.0277 120.53Q38.1014 120.6 38.1014 120.708V120.771Q38.1014 120.879 38.0277 120.949Q37.954 121.019 37.8375 121.019Q37.7134 121.019 37.6396 120.949Q37.5659 120.879 37.5659 120.771ZM41.3921 121.725Q41.3921 121.795 41.3533 121.842Q41.3145 121.888 41.2524 121.888Q41.2291 121.888 41.1399 121.853Q41.0506 121.818 40.9497 121.818Q40.6315 121.818 40.3133 122.071Q39.9951 122.323 39.7933 122.707Q39.5915 123.091 39.5915 123.448V125.388Q39.5915 125.45 39.545 125.497Q39.4984 125.544 39.4363 125.544Q39.3665 125.544 39.3238 125.497Q39.2811 125.45 39.2811 125.388V121.826Q39.2811 121.764 39.3277 121.717Q39.3742 121.671 39.4363 121.671Q39.5062 121.671 39.5489 121.717Q39.5915 121.764 39.5915 121.826V122.649Q39.7701 122.175 40.1465 121.865Q40.5229 121.554 41.0351 121.547Q41.3921 121.547 41.3921 121.725ZM45.3348 124.752Q45.3348 124.806 45.3037 124.845Q45.0476 125.187 44.6673 125.404Q44.287 125.621 43.8524 125.621Q43.2703 125.621 42.8202 125.373Q42.37 125.125 42.1178 124.667Q41.8656 124.209 41.8656 123.603Q41.8656 122.982 42.11 122.513Q42.3545 122.043 42.7581 121.795Q43.1617 121.547 43.6196 121.547Q44.0775 121.547 44.4694 121.745Q44.8613 121.942 45.1097 122.338Q45.3581 122.734 45.3736 123.316Q45.3736 123.378 45.327 123.429Q45.2804 123.479 45.2184 123.479H42.1682V123.58Q42.1682 124.061 42.3623 124.461Q42.5563 124.861 42.9366 125.093Q43.3169 125.326 43.8524 125.326Q44.2249 125.326 44.5548 125.144Q44.8846 124.962 45.0709 124.682Q45.1252 124.612 45.2028 124.612Q45.2572 124.612 45.296 124.655Q45.3348 124.698 45.3348 124.752ZM42.1993 123.184H45.0554V123.114Q45.0166 122.719 44.8031 122.435Q44.5897 122.152 44.2754 122.005Q43.9611 121.857 43.6196 121.857Q43.3324 121.857 43.0336 122.008Q42.7348 122.16 42.5058 122.459Q42.2769 122.757 42.1993 123.184Z" style="fill:#000000;stroke:#000000;stroke-width:0.265;stroke-linecap:square" />
            <g id="gemstones" style="stroke-width:0;fill:#0000ff;stroke:#2e2114;stroke-linecap:square;stroke-opacity:1">
                <path d="m 12.930,122.900 q 0,0.34175 -0.242534,0.63114 -0.0441,0.0524 -0.20395,0.21497 -0.187413,0.19017 -0.785481,0.81304 l -1.444183,1.51309 q -0.01929,0.003 -0.0441,0.003 -0.02756,0 -0.04134,-0.003 -0.08268,-0.0827 -0.647678,-0.67524 -0.468532,-0.47404 -0.934309,-0.94809 -0.556727,-0.56775 -0.89848,-0.98116 -0.132292,-0.15985 -0.168121,-0.29766 -0.02756,-0.10197 -0.02756,-0.34175 0,-0.11024 0.07166,-0.28939 0.06614,-0.16536 0.140559,-0.26458 0.118512,-0.1571 0.42168,-0.42444 0.283875,-0.2508 0.474044,-0.37482 0.272852,-0.17915 0.818555,-0.36656 0.09646,-0.0331 0.110243,-0.0331 h 1.3615 q 0.01102,0 0.104731,0.0331 0.567751,0.20119 0.824066,0.36656 0.165365,0.10473 0.474045,0.37758 0.322461,0.28388 0.421679,0.42168 0.214974,0.2949 0.214974,0.62563 z m -0.16812,-0.27285 q -0.03307,-0.10749 -0.135048,-0.30868 -0.07166,-0.0937 -0.209462,-0.19844 -0.118511,-0.0854 -0.234266,-0.17088 0.245291,0.3638 0.578776,0.678 z m -0.573264,-0.52366 -0.358289,-0.44648 v 0.41065 z m 0.636653,0.75792 q 0,-0.0524 -0.341753,-0.39412 l 0.228754,0.7028 h 0.04961 q 0.06339,-0.21773 0.06339,-0.30868 z m -0.23151,0.27285 -0.316948,-0.90399 -0.410655,-0.0634 -0.159853,0.61461 z m 0.0028,0.15434 -0.771701,-0.3197 h -0.03032 l 0.344509,0.60634 q 0.07993,-0.003 0.234266,-0.0469 0.02481,-0.0138 0.223242,-0.23978 z m -0.857139,-1.05006 -0.719335,0.28388 0.60358,0.22599 z m 0,-0.16261 v -0.51538 l -0.917773,-0.38034 h -1.223697 l -0.917772,0.38034 v 0.51538 l 0.89848,0.4079 h 1.254014 z m 0.573264,1.53789 q -0.0689,0.011 -0.198438,0.0524 -0.08544,0.0551 -0.259071,0.16261 0.01929,0 0.06339,0.003 0.04134,0 0.06339,0 0.118511,0 0.190169,-0.0689 0.07166,-0.0717 0.14056,-0.14883 z m -0.289388,0.003 -0.347266,-0.63114 -0.363801,0.87918 q 0.0248,-0.0165 0.06615,-0.0165 0.03032,0 0.08544,0.011 0.05788,0.008 0.08819,0.008 0.04961,0 0.228754,-0.10749 0.228754,-0.1378 0.242535,-0.14331 z m -0.440972,-0.74139 -0.683507,-0.2756 -0.592556,0.54845 0.903993,0.65595 z m -0.854383,-0.28387 h -1.036284 l 0.523654,0.47404 z m 0.749652,1.36701 q -0.228754,-0.0303 -0.228754,-0.0303 -0.03583,0 -0.272851,0.0937 l 0.190169,0.0193 q 0.01102,0 0.311436,-0.0827 z m -0.388606,-0.0882 -0.843359,-0.61185 v 0.67524 l 0.471289,0.0827 z m 0.854383,0.0496 q -0.09922,0.006 -0.2949,0.0386 -0.01102,0.003 -0.377583,0.17639 -0.129535,0.34726 -0.380338,1.0418 z m -2.543857,-1.39733 -0.719335,-0.28388 0.124023,0.51814 z m -0.802018,-0.45476 v -0.41065 l -0.366557,0.44648 z m 1.515841,1.07212 -0.592556,-0.54019 -0.683506,0.2756 0.380338,0.9288 z m 0.369314,0.94257 q -0.03307,-0.003 -0.135047,-0.0248 -0.08544,-0.0165 -0.137804,-0.0165 -0.05237,0 -0.137804,0.0165 -0.101975,0.0221 -0.135047,0.0248 0.264583,0.0469 0.272851,0.0469 0.0083,0 0.272851,-0.0469 z m -0.30868,-0.1378 v -0.68626 l -0.843359,0.61185 0.37207,0.14607 z m 0.950846,0.20671 -0.396875,-0.0551 -0.479557,0.14056 v 1.27607 z m -2.888366,-2.20211 q -0.118512,0.0854 -0.234267,0.17364 -0.146072,0.10748 -0.209461,0.19568 -0.0441,0.10473 -0.135048,0.31419 0.369314,-0.3638 0.578776,-0.68351 z m 0.476801,0.83234 -0.159853,-0.61461 -0.410655,0.0634 -0.316948,0.90399 z m 0.394118,1.08313 -0.363802,-0.87918 -0.355533,0.63114 q 0.43546,0.2508 0.451996,0.2508 0.09095,0 0.267339,-0.003 z m 1.821765,0.82958 q -0.132291,0.21222 -0.405143,0.6339 -0.07717,0.10749 -0.220486,0.32797 -0.05788,0.10473 -0.05512,0.226 0.159852,-0.15158 0.432704,-0.49609 0.07717,-0.12954 0.140559,-0.339 0.05512,-0.17639 0.107486,-0.35278 z m -1.493792,-0.66146 -0.270095,-0.0882 -0.0083,-0.011 q -0.02481,0 -0.107487,0.011 -0.06615,0.006 -0.107487,0.006 0.272851,0.091 0.311436,0.091 0.02481,0 0.181901,-0.008 z m -0.810286,-1.06384 h -0.03032 l -0.7717,0.3197 q 0.06615,0.0965 0.223242,0.23978 0.07717,0.0138 0.234266,0.0469 z m -0.689018,-0.50161 q -0.341754,0.34727 -0.341754,0.39412 0,0.0799 0.06339,0.30868 h 0.04961 z m 2.235176,3.04547 v -1.27607 l -0.479557,-0.14056 -0.396875,0.0551 z m -1.606791,-1.6757 q -0.256315,-0.1819 -0.457509,-0.22324 0.06615,0.0772 0.20395,0.22324 z m 1.609547,2.04501 v -0.1378 l -0.683507,-1.05007 q 0.05237,0.17639 0.107487,0.35278 0.06339,0.20946 0.14056,0.339 0.0689,0.11851 0.20395,0.25907 0.115755,0.11851 0.23151,0.23702 z m -0.644921,-0.70555 q -0.115756,-0.32798 -0.380339,-1.0418 -0.135047,-0.0662 -0.272851,-0.12954 -0.159852,-0.0716 -0.289388,-0.0716 -0.05237,0 -0.110243,-0.0138 z" />
                <path d="m 53.460,122.900 q 0,0.34175 -0.242534,0.63114 -0.0441,0.0524 -0.20395,0.21497 -0.187413,0.19017 -0.785481,0.81304 l -1.444183,1.51309 q -0.01929,0.003 -0.0441,0.003 -0.02756,0 -0.04134,-0.003 -0.08268,-0.0827 -0.647678,-0.67524 -0.468532,-0.47404 -0.934309,-0.94809 -0.556727,-0.56775 -0.89848,-0.98116 -0.132292,-0.15985 -0.168121,-0.29766 -0.02756,-0.10197 -0.02756,-0.34175 0,-0.11024 0.07166,-0.28939 0.06614,-0.16536 0.140559,-0.26458 0.118512,-0.1571 0.42168,-0.42444 0.283875,-0.2508 0.474044,-0.37482 0.272852,-0.17915 0.818555,-0.36656 0.09646,-0.0331 0.110243,-0.0331 h 1.3615 q 0.01102,0 0.104731,0.0331 0.567751,0.20119 0.824066,0.36656 0.165365,0.10473 0.474045,0.37758 0.322461,0.28388 0.421679,0.42168 0.214974,0.2949 0.214974,0.62563 z m -0.16812,-0.27285 q -0.03307,-0.10749 -0.135048,-0.30868 -0.07166,-0.0937 -0.209462,-0.19844 -0.118511,-0.0854 -0.234266,-0.17088 0.245291,0.3638 0.578776,0.678 z m -0.573264,-0.52366 -0.358289,-0.44648 v 0.41065 z m 0.636653,0.75792 q 0,-0.0524 -0.341753,-0.39412 l 0.228754,0.7028 h 0.04961 q 0.06339,-0.21773 0.06339,-0.30868 z m -0.23151,0.27285 -0.316948,-0.90399 -0.410655,-0.0634 -0.159853,0.61461 z m 0.0028,0.15434 -0.771701,-0.3197 h -0.03032 l 0.344509,0.60634 q 0.07993,-0.003 0.234266,-0.0469 0.02481,-0.0138 0.223242,-0.23978 z m -0.857139,-1.05006 -0.719335,0.28388 0.60358,0.22599 z m 0,-0.16261 v -0.51538 l -0.917773,-0.38034 h -1.223697 l -0.917772,0.38034 v 0.51538 l 0.89848,0.4079 h 1.254014 z m 0.573264,1.53789 q -0.0689,0.011 -0.198438,0.0524 -0.08544,0.0551 -0.259071,0.16261 0.01929,0 0.06339,0.003 0.04134,0 0.06339,0 0.118511,0 0.190169,-0.0689 0.07166,-0.0717 0.14056,-0.14883 z m -0.289388,0.003 -0.347266,-0.63114 -0.363801,0.87918 q 0.0248,-0.0165 0.06615,-0.0165 0.03032,0 0.08544,0.011 0.05788,0.008 0.08819,0.008 0.04961,0 0.228754,-0.10749 0.228754,-0.1378 0.242535,-0.14331 z m -0.440972,-0.74139 -0.683507,-0.2756 -0.592556,0.54845 0.903993,0.65595 z m -0.854383,-0.28387 h -1.036284 l 0.523654,0.47404 z m 0.749652,1.36701 q -0.228754,-0.0303 -0.228754,-0.0303 -0.03583,0 -0.272851,0.0937 l 0.190169,0.0193 q 0.01102,0 0.311436,-0.0827 z m -0.388606,-0.0882 -0.843359,-0.61185 v 0.67524 l 0.471289,0.0827 z m 0.854383,0.0496 q -0.09922,0.006 -0.2949,0.0386 -0.01102,0.003 -0.377583,0.17639 -0.129535,0.34726 -0.380338,1.0418 z m -2.543857,-1.39733 -0.719335,-0.28388 0.124023,0.51814 z m -0.802018,-0.45476 v -0.41065 l -0.366557,0.44648 z m 1.515841,1.07212 -0.592556,-0.54019 -0.683506,0.2756 0.380338,0.9288 z m 0.369314,0.94257 q -0.03307,-0.003 -0.135047,-0.0248 -0.08544,-0.0165 -0.137804,-0.0165 -0.05237,0 -0.137804,0.0165 -0.101975,0.0221 -0.135047,0.0248 0.264583,0.0469 0.272851,0.0469 0.0083,0 0.272851,-0.0469 z m -0.30868,-0.1378 v -0.68626 l -0.843359,0.61185 0.37207,0.14607 z m 0.950846,0.20671 -0.396875,-0.0551 -0.479557,0.14056 v 1.27607 z m -2.888366,-2.20211 q -0.118512,0.0854 -0.234267,0.17364 -0.146072,0.10748 -0.209461,0.19568 -0.0441,0.10473 -0.135048,0.31419 0.369314,-0.3638 0.578776,-0.68351 z m 0.476801,0.83234 -0.159853,-0.61461 -0.410655,0.0634 -0.316948,0.90399 z m 0.394118,1.08313 -0.363802,-0.87918 -0.355533,0.63114 q 0.43546,0.2508 0.451996,0.2508 0.09095,0 0.267339,-0.003 z m 1.821765,0.82958 q -0.132291,0.21222 -0.405143,0.6339 -0.07717,0.10749 -0.220486,0.32797 -0.05788,0.10473 -0.05512,0.226 0.159852,-0.15158 0.432704,-0.49609 0.07717,-0.12954 0.140559,-0.339 0.05512,-0.17639 0.107486,-0.35278 z m -1.493792,-0.66146 -0.270095,-0.0882 -0.0083,-0.011 q -0.02481,0 -0.107487,0.011 -0.06615,0.006 -0.107487,0.006 0.272851,0.091 0.311436,0.091 0.02481,0 0.181901,-0.008 z m -0.810286,-1.06384 h -0.03032 l -0.7717,0.3197 q 0.06615,0.0965 0.223242,0.23978 0.07717,0.0138 0.234266,0.0469 z m -0.689018,-0.50161 q -0.341754,0.34727 -0.341754,0.39412 0,0.0799 0.06339,0.30868 h 0.04961 z m 2.235176,3.04547 v -1.27607 l -0.479557,-0.14056 -0.396875,0.0551 z m -1.606791,-1.6757 q -0.256315,-0.1819 -0.457509,-0.22324 0.06615,0.0772 0.20395,0.22324 z m 1.609547,2.04501 v -0.1378 l -0.683507,-1.05007 q 0.05237,0.17639 0.107487,0.35278 0.06339,0.20946 0.14056,0.339 0.0689,0.11851 0.20395,0.25907 0.115755,0.11851 0.23151,0.23702 z m -0.644921,-0.70555 q -0.115756,-0.32798 -0.380339,-1.0418 -0.135047,-0.0662 -0.272851,-0.12954 -0.159852,-0.0716 -0.289388,-0.0716 -0.05237,0 -0.110243,-0.0138 z" />
            </g>
        </g>
        <path id="model_name" d="M16.9783 4.28622 16.9627 4.36384 15.7598 8.05036Q15.7132 8.15126 15.6123 8.15126Q15.5192 8.15126 15.4648 8.05036L14.3395 5.51248L13.3305 8.05036Q13.315 8.09693 13.2723 8.12409Q13.2296 8.15126 13.1831 8.15126Q13.1365 8.15126 13.0938 8.12409Q13.0511 8.09693 13.0356 8.05036L11.7938 4.36384L11.7783 4.28622Q11.7783 4.21638 11.8249 4.17757Q11.8714 4.13876 11.9413 4.13876Q12.0422 4.13876 12.081 4.23966L13.1753 7.6235L14.2075 5.0701Q14.2231 5.02353 14.2657 4.99637Q14.3084 4.9692 14.355 4.9692Q14.4016 4.9692 14.4443 4.99637Q14.4869 5.02353 14.5025 5.0701L15.5968 7.60022L16.6756 4.23966Q16.7144 4.13876 16.8153 4.13876Q16.8851 4.13876 16.9317 4.17757Q16.9783 4.21638 16.9783 4.28622ZM21.2469 4.43369V7.99604Q21.2469 8.05812 21.2003 8.10469Q21.1537 8.15126 21.0916 8.15126Q21.0218 8.15126 20.9791 8.10469Q20.9364 8.05812 20.9364 7.99604V7.29754Q20.7424 7.69335 20.3388 7.96111Q19.9352 8.22887 19.4463 8.22887Q18.9341 8.22887 18.5227 7.96111Q18.1114 7.69335 17.8785 7.22381Q17.6457 6.75426 17.6457 6.17217Q17.6457 5.59785 17.8824 5.13607Q18.1191 4.67428 18.5305 4.41428Q18.9418 4.15429 19.4463 4.15429Q19.9508 4.15429 20.3543 4.41816Q20.7579 4.68204 20.9364 5.12443V4.43369Q20.9364 4.3716 20.9791 4.32503Q21.0218 4.27846 21.0916 4.27846Q21.1615 4.27846 21.2042 4.32503Q21.2469 4.3716 21.2469 4.43369ZM20.9675 6.17217Q20.9675 5.69875 20.7734 5.30293Q20.5794 4.90711 20.234 4.67816Q19.8887 4.44921 19.4618 4.44921Q19.0349 4.44921 18.6896 4.6704Q18.3442 4.89159 18.1502 5.28353Q17.9562 5.67546 17.9562 6.17217Q17.9562 6.66889 18.1502 7.07246Q18.3442 7.47604 18.6857 7.70499Q19.0272 7.93395 19.4618 7.93395Q19.8887 7.93395 20.234 7.70499Q20.5794 7.47604 20.7734 7.07246Q20.9675 6.66889 20.9675 6.17217ZM24.1262 4.39488Q24.1262 4.45697 24.0836 4.49966Q24.0409 4.54234 23.9788 4.54234H23.1251V7.3053Q23.1251 7.64679 23.2454 7.75932Q23.3656 7.87186 23.5519 7.87186Q23.583 7.87186 23.6412 7.85634Q23.6994 7.84081 23.7382 7.84081Q23.7925 7.84081 23.8313 7.8835Q23.8701 7.92619 23.8701 7.98051Q23.8701 8.05036 23.777 8.10081Q23.6839 8.15126 23.5597 8.15126Q23.3656 8.15126 23.2337 8.12409Q23.1018 8.09693 22.9582 7.91454Q22.8146 7.73216 22.8146 7.32082V4.54234H22.1782Q22.1239 4.54234 22.0773 4.49578Q22.0307 4.44921 22.0307 4.39488Q22.0307 4.33279 22.0734 4.29011Q22.1161 4.24742 22.1782 4.24742H22.8146V3.26176Q22.8146 3.19967 22.8612 3.1531Q22.9077 3.10654 22.9698 3.10654Q23.0397 3.10654 23.0824 3.1531Q23.1251 3.19967 23.1251 3.26176V4.24742H23.9788Q24.0331 4.24742 24.0797 4.29399Q24.1262 4.34055 24.1262 4.39488ZM28.1853 7.35962Q28.1853 7.41395 28.1543 7.45276Q27.8981 7.79425 27.5178 8.01156Q27.1375 8.22887 26.7029 8.22887Q26.1208 8.22887 25.6707 7.98051Q25.2206 7.73216 24.9683 7.27425Q24.7161 6.81635 24.7161 6.21098Q24.7161 5.59009 24.9606 5.12054Q25.205 4.651 25.6086 4.40264Q26.0122 4.15429 26.4701 4.15429Q26.928 4.15429 27.3199 4.35219Q27.7119 4.5501 27.9602 4.94592Q28.2086 5.34174 28.2241 5.92382Q28.2241 5.98591 28.1775 6.03636Q28.131 6.0868 28.0689 6.0868H25.0188V6.1877Q25.0188 6.66889 25.2128 7.06858Q25.4068 7.46828 25.7871 7.70111Q26.1674 7.93395 26.7029 7.93395Q27.0755 7.93395 27.4053 7.75156Q27.7352 7.56917 27.9214 7.28977Q27.9757 7.21992 28.0534 7.21992Q28.1077 7.21992 28.1465 7.26261Q28.1853 7.3053 28.1853 7.35962ZM25.0498 5.79188H27.9059V5.72203Q27.8671 5.32621 27.6537 5.04293Q27.4402 4.75965 27.1259 4.61219Q26.8116 4.46473 26.4701 4.46473Q26.1829 4.46473 25.8841 4.61607Q25.5853 4.76741 25.3564 5.06622Q25.1274 5.36502 25.0498 5.79188ZM31.3518 4.33279Q31.3518 4.40264 31.313 4.44921Q31.2742 4.49578 31.2121 4.49578Q31.1888 4.49578 31.0996 4.46085Q31.0103 4.42592 30.9094 4.42592Q30.5912 4.42592 30.273 4.67816Q29.9548 4.9304 29.753 5.31457Q29.5513 5.69875 29.5513 6.05576V7.99604Q29.5513 8.05812 29.5047 8.10469Q29.4581 8.15126 29.396 8.15126Q29.3262 8.15126 29.2835 8.10469Q29.2408 8.05812 29.2408 7.99604V4.43369Q29.2408 4.3716 29.2874 4.32503Q29.3339 4.27846 29.396 4.27846Q29.4659 4.27846 29.5086 4.32503Q29.5513 4.3716 29.5513 4.43369V5.25636Q29.7298 4.78294 30.1062 4.47249Q30.4826 4.16205 30.9948 4.15429Q31.3518 4.15429 31.3518 4.33279ZM38.2851 6.21098Q38.2851 6.76978 38.0484 7.22381Q37.8117 7.67783 37.4003 7.93783Q36.989 8.19782 36.4845 8.19782Q36.0188 8.19782 35.6308 7.96499Q35.2427 7.73216 34.9944 7.3053V9.54826Q34.9944 9.61035 34.9517 9.65691Q34.909 9.70348 34.8392 9.70348Q34.7771 9.70348 34.7305 9.65691Q34.6839 9.61035 34.6839 9.54826V4.38712Q34.6839 4.32503 34.7266 4.27846Q34.7693 4.2319 34.8392 4.2319Q34.909 4.2319 34.9517 4.27846Q34.9944 4.32503 34.9944 4.38712V5.10114Q35.2272 4.65876 35.6153 4.44533Q36.0033 4.2319 36.4845 4.2319Q36.9967 4.2319 37.4081 4.48801Q37.8194 4.74413 38.0523 5.19428Q38.2851 5.64442 38.2851 6.21098ZM37.9746 6.21098Q37.9746 5.72979 37.7767 5.34562Q37.5788 4.96144 37.2373 4.74413Q36.8959 4.52682 36.469 4.52682Q36.0344 4.52682 35.689 4.74025Q35.3436 4.95368 35.1535 5.33786Q34.9633 5.72203 34.9633 6.21098Q34.9633 6.69993 35.1535 7.08411Q35.3436 7.46828 35.689 7.68559Q36.0344 7.9029 36.469 7.9029Q36.8959 7.9029 37.2373 7.68559Q37.5788 7.46828 37.7767 7.08022Q37.9746 6.69217 37.9746 6.21098ZM40.9472 8.22887Q40.4116 8.22887 39.9731 7.96111Q39.5346 7.69335 39.2824 7.22769Q39.0302 6.76202 39.0302 6.19546Q39.0302 5.62114 39.2824 5.15547Q39.5346 4.6898 39.9693 4.42204Q40.4039 4.15429 40.9472 4.15429Q41.4827 4.15429 41.9212 4.42204Q42.3597 4.6898 42.608 5.15547Q42.8564 5.62114 42.8564 6.19546Q42.8564 6.76978 42.608 7.23157Q42.3597 7.69335 41.9212 7.96111Q41.4827 8.22887 40.9472 8.22887ZM40.9472 4.44921Q40.497 4.44921 40.1284 4.67816Q39.7597 4.90711 39.5502 5.30293Q39.3406 5.69875 39.3406 6.19546Q39.3406 6.68441 39.5502 7.08022Q39.7597 7.47604 40.1284 7.70499Q40.497 7.93395 40.9472 7.93395Q41.4051 7.93395 41.7698 7.70887Q42.1346 7.4838 42.3403 7.08411Q42.5459 6.68441 42.5459 6.19546Q42.5459 5.69875 42.3403 5.30293Q42.1346 4.90711 41.7698 4.67816Q41.4051 4.44921 40.9472 4.44921ZM45.5184 8.22887Q44.9829 8.22887 44.5444 7.96111Q44.1059 7.69335 43.8537 7.22769Q43.6015 6.76202 43.6015 6.19546Q43.6015 5.62114 43.8537 5.15547Q44.1059 4.6898 44.5405 4.42204Q44.9752 4.15429 45.5184 4.15429Q46.054 4.15429 46.4925 4.42204Q46.931 4.6898 47.1793 5.15547Q47.4277 5.62114 47.4277 6.19546Q47.4277 6.76978 47.1793 7.23157Q46.931 7.69335 46.4925 7.96111Q46.054 8.22887 45.5184 8.22887ZM45.5184 4.44921Q45.0683 4.44921 44.6996 4.67816Q44.331 4.90711 44.1214 5.30293Q43.9119 5.69875 43.9119 6.19546Q43.9119 6.68441 44.1214 7.08022Q44.331 7.47604 44.6996 7.70499Q45.0683 7.93395 45.5184 7.93395Q45.9764 7.93395 46.3411 7.70887Q46.7059 7.4838 46.9116 7.08411Q47.1172 6.68441 47.1172 6.19546Q47.1172 5.69875 46.9116 5.30293Q46.7059 4.90711 46.3411 4.67816Q45.9764 4.44921 45.5184 4.44921ZM48.6384 8.15126Q48.5686 8.15126 48.5259 8.10469Q48.4832 8.05812 48.4832 7.99604V2.56326Q48.4832 2.50117 48.5298 2.4546Q48.5763 2.40804 48.6384 2.40804Q48.7083 2.40804 48.7509 2.4546Q48.7936 2.50117 48.7936 2.56326V7.99604Q48.7936 8.05812 48.7471 8.10469Q48.7005 8.15126 48.6384 8.15126Z" style="display:inline;stroke:#000000;stroke-width:0.35;stroke-linecap:round;stroke-linejoin:bevel" />
        <path d="M14.7269 113.014Q14.6916 113.014 14.6722 112.993Q14.6528 112.972 14.6528 112.94V110.619Q14.6528 110.587 14.6739 110.566Q14.6951 110.545 14.7269 110.545Q14.7586 110.545 14.7798 110.566Q14.8009 110.587 14.8009 110.619V112.94Q14.7974 112.972 14.7763 112.993Q14.7551 113.014 14.7269 113.014ZM17.3586 110.612V112.937Q17.3586 112.975 17.3374 112.995Q17.3163 113.014 17.2845 113.014Q17.2492 113.014 17.2281 112.986L15.6406 110.816V112.954Q15.6406 112.979 15.6212 112.997Q15.6018 113.014 15.5735 113.014Q15.5418 113.014 15.5241 112.997Q15.5065 112.979 15.5065 112.954V110.615Q15.5065 110.58 15.5259 110.562Q15.5453 110.545 15.57 110.545Q15.6018 110.545 15.6229 110.569L17.2245 112.753V110.612Q17.2245 110.584 17.2439 110.564Q17.2633 110.545 17.2916 110.545Q17.3233 110.545 17.3409 110.564Q17.3586 110.584 17.3586 110.612Z" style="stroke:#000000;stroke-width:0.25;stroke-linecap:round;stroke-linejoin:bevel" />
        <path d="M9.88858 110.044Q9.88858 110.075 9.86742 110.095Q9.84625 110.114 9.81803 110.114H8.52333Q8.49158 110.114 8.47218 110.093Q8.45278 110.072 8.45278 110.044V107.715Q8.45278 107.687 8.47394 107.666Q8.49511 107.645 8.52686 107.645Q8.55861 107.645 8.57978 107.666Q8.60094 107.687 8.60094 107.715V109.973H9.81803Q9.84625 109.973 9.86742 109.994Q9.88858 110.015 9.88858 110.044Z" style="stroke:#000000;stroke-width:0.25;stroke-linecap:round;stroke-linejoin:bevel" />
        <path d="M23.9484 110.04Q23.9484 110.072 23.929 110.091Q23.9096 110.111 23.8814 110.111Q23.8602 110.111 23.8496 110.104Q23.7544 110.051 23.6979 109.925Q23.6415 109.8 23.6415 109.514Q23.6415 109.225 23.4863 109.118Q23.3311 109.01 23.1264 109.01H22.3009V110.044Q22.3009 110.072 22.2798 110.093Q22.2586 110.114 22.2269 110.114Q22.1951 110.114 22.1739 110.093Q22.1528 110.072 22.1528 110.044V107.715Q22.1528 107.687 22.1739 107.666Q22.1951 107.645 22.2233 107.645H23.1547Q23.3593 107.645 23.518 107.728Q23.6768 107.811 23.765 107.955Q23.8532 108.1 23.8532 108.283Q23.8532 108.52 23.7279 108.689Q23.6027 108.858 23.4016 108.918Q23.5709 108.971 23.6803 109.128Q23.7897 109.285 23.7897 109.514Q23.7897 109.751 23.8197 109.844Q23.8496 109.938 23.9096 109.977Q23.9484 110.001 23.9484 110.04ZM23.1723 108.869Q23.3946 108.848 23.5498 108.693Q23.705 108.537 23.705 108.287Q23.705 108.068 23.5498 107.927Q23.3946 107.786 23.137 107.786H22.3009V108.869Z" style="stroke:#000000;stroke-width:0.25;stroke-linecap:round;stroke-linejoin:bevel" />
        <path d="M38.0547 99.8495Q37.7125 99.8495 37.4444 99.689Q37.1763 99.5285 37.0263 99.2392Q36.8764 98.9499 36.8764 98.5795Q36.8764 98.2091 37.0263 97.9198Q37.1763 97.6305 37.4444 97.47Q37.7125 97.3095 38.0547 97.3095Q38.3969 97.3095 38.665 97.47Q38.9331 97.6305 39.083 97.9198Q39.2329 98.2091 39.2329 98.5795Q39.2329 98.9499 39.083 99.2392Q38.9331 99.5285 38.665 99.689Q38.3969 99.8495 38.0547 99.8495ZM38.0547 97.4506Q37.7548 97.4506 37.5202 97.5917Q37.2856 97.7328 37.1551 97.9903Q37.0246 98.2479 37.0246 98.5795Q37.0246 98.9111 37.1551 99.1686Q37.2856 99.4262 37.5202 99.5673Q37.7548 99.7084 38.0547 99.7084Q38.3545 99.7084 38.5891 99.5673Q38.8237 99.4262 38.9543 99.1686Q39.0848 98.9111 39.0848 98.5795Q39.0848 98.2479 38.9543 97.9903Q38.8237 97.7328 38.5891 97.5917Q38.3545 97.4506 38.0547 97.4506ZM41.5789 97.4153V98.9393Q41.5789 99.1863 41.4554 99.3944Q41.332 99.6025 41.1238 99.726Q40.9157 99.8495 40.6723 99.8495Q40.4253 99.8495 40.2172 99.726Q40.0091 99.6025 39.8856 99.3944Q39.7621 99.1863 39.7621 98.9393V97.4153Q39.7621 97.3836 39.7833 97.3642Q39.8044 97.3448 39.8362 97.3448Q39.8679 97.3448 39.8891 97.3659Q39.9103 97.3871 39.9103 97.4153V98.9393Q39.9103 99.1475 40.0126 99.3238Q40.1149 99.5002 40.2895 99.6043Q40.4641 99.7084 40.6723 99.7084Q40.8804 99.7084 41.055 99.6043Q41.2297 99.5002 41.3337 99.3238Q41.4378 99.1475 41.4378 98.9393V97.4153Q41.4378 97.3871 41.4572 97.3659Q41.4766 97.3448 41.5084 97.3448Q41.5401 97.3448 41.5595 97.3659Q41.5789 97.3871 41.5789 97.4153ZM43.9108 97.4118Q43.9108 97.4435 43.8914 97.4612Q43.872 97.4788 43.8402 97.4788H43.0535V99.7437Q43.0535 99.7719 43.0324 99.793Q43.0112 99.8142 42.983 99.8142Q42.9512 99.8142 42.9318 99.793Q42.9124 99.7719 42.9124 99.7437V97.4788H42.1257Q42.0975 97.4788 42.0763 97.4594Q42.0552 97.44 42.0552 97.4118Q42.0552 97.3836 42.0763 97.3642Q42.0975 97.3448 42.1257 97.3448H43.8402Q43.8684 97.3448 43.8896 97.3642Q43.9108 97.3836 43.9108 97.4118Z" style="stroke:#000000;stroke-width:0.25;stroke-linecap:round;stroke-linejoin:bevel" />
        <path d="M58.7886 103.544Q58.7886 103.575 58.7674 103.595Q58.7463 103.614 58.718 103.614H57.4233Q57.3916 103.614 57.3722 103.593Q57.3528 103.572 57.3528 103.544V101.215Q57.3528 101.187 57.3739 101.166Q57.3951 101.145 57.4269 101.145Q57.4586 101.145 57.4798 101.166Q57.5009 101.187 57.5009 101.215V103.473H58.718Q58.7463 103.473 58.7674 103.494Q58.7886 103.515 58.7886 103.544Z" style="stroke:#000000;stroke-width:0.25;stroke-linecap:round;stroke-linejoin:bevel" />
        <path d="M59.1484 113.54Q59.1484 113.572 59.129 113.591Q59.1096 113.611 59.0814 113.611Q59.0602 113.611 59.0496 113.604Q58.9544 113.551 58.8979 113.425Q58.8415 113.3 58.8415 113.014Q58.8415 112.725 58.6863 112.618Q58.5311 112.51 58.3264 112.51H57.5009V113.544Q57.5009 113.572 57.4798 113.593Q57.4586 113.614 57.4269 113.614Q57.3951 113.614 57.3739 113.593Q57.3528 113.572 57.3528 113.544V111.215Q57.3528 111.187 57.3739 111.166Q57.3951 111.145 57.4233 111.145H58.3547Q58.5593 111.145 58.718 111.228Q58.8768 111.311 58.965 111.455Q59.0532 111.6 59.0532 111.783Q59.0532 112.02 58.9279 112.189Q58.8027 112.358 58.6016 112.418Q58.7709 112.471 58.8803 112.628Q58.9897 112.785 58.9897 113.014Q58.9897 113.251 59.0197 113.344Q59.0496 113.438 59.1096 113.477Q59.1484 113.501 59.1484 113.54ZM58.3723 112.369Q58.5946 112.348 58.7498 112.193Q58.905 112.037 58.905 111.787Q58.905 111.568 58.7498 111.427Q58.5946 111.286 58.337 111.286H57.5009V112.369Z" style="stroke:#000000;stroke-width:0.25;stroke-linecap:round;stroke-linejoin:bevel" />
        <path id="input_connector_path" style="stroke:#000000;stroke-width:0.1;stroke-linecap:round;stroke-linejoin:bevel;stroke-dasharray:none" d="M 9,114.5 L 23,114.5 z" />
        <path id="drive_connector_path" style="stroke:#000000;stroke-width:0.1;stroke-linecap:round;stroke-linejoin:bevel;stroke-dasharray:none" d="M 40.5,107.5 L 52.5,102.5 z L 52.5,112.5 z" />
        <circle id="audio_left_input" cx="9" cy="114.5" r="1" />
        <circle id="audio_right_input" cx="23" cy="114.5" r="1" />
        <circle id="audio_left_output" cx="52.5" cy="102.5" r="1" />
        <circle id="audio_right_output" cx="52.5" cy="112.5" r="1" />
        <circle id="agitator_output" cx="52.5" cy="92.5" r="1" />
        <circle id="propagation_knob" cx="20" cy="20" r="1" />
    </g>
</svg>
