<?xml version="1.0" encoding="utf-8"?>
<svg xmlns="http://www.w3.org/2000/svg" width="60.96mm" height="128.50mm" viewBox="0 0 60.96 128.50">
    <g id="PanelLayer">
        <defs>
            <linearGradient id="gradient_blue" x1="0" y1="13" x2="0" y2="51" gradientUnits="userSpaceOnUse">
                <stop style="stop-color:#3068ff;stop-opacity:1;" offset="0" />
                <stop style="stop-color:#4f8df2;stop-opacity:1;" offset="1" />
            </linearGradient>
            <linearGradient id="gradient_purple" x1="0" y1="44" x2="0" y2="82" gradientUnits="userSpaceOnUse">
                <stop style="stop-color:#a06de4;stop-opacity:1;" offset="0" />
                <stop style="stop-color:#4f8df2;stop-opacity:1;" offset="1" />
            </linearGradient>
            <linearGradient id="gradient_out" x1="0" y1="76" x2="0" y2="113.6" gradientUnits="userSpaceOnUse">
                <stop style="stop-color:#29aab4;stop-opacity:1;" offset="0" />
                <stop style="stop-color:#4f8df2;stop-opacity:1;" offset="1" />
            </linearGradient>
        </defs>
        <rect id="border_rect" width="60.96" height="128.5" x="0" y="0" style="display:inline;fill:#4f8df2;fill-opacity:1;stroke:none;" />
        <path id="sapphire_gemstone" d="m 33.195,122.900 q 0,0.34175 -0.242534,0.63114 -0.0441,0.0524 -0.20395,0.21497 -0.187413,0.19017 -0.785481,0.81304 l -1.444183,1.51309 q -0.01929,0.003 -0.0441,0.003 -0.02756,0 -0.04134,-0.003 -0.08268,-0.0827 -0.647678,-0.67524 -0.468532,-0.47404 -0.934309,-0.94809 -0.556727,-0.56775 -0.89848,-0.98116 -0.132292,-0.15985 -0.168121,-0.29766 -0.02756,-0.10197 -0.02756,-0.34175 0,-0.11024 0.07166,-0.28939 0.06614,-0.16536 0.140559,-0.26458 0.118512,-0.1571 0.42168,-0.42444 0.283875,-0.2508 0.474044,-0.37482 0.272852,-0.17915 0.818555,-0.36656 0.09646,-0.0331 0.110243,-0.0331 h 1.3615 q 0.01102,0 0.104731,0.0331 0.567751,0.20119 0.824066,0.36656 0.165365,0.10473 0.474045,0.37758 0.322461,0.28388 0.421679,0.42168 0.214974,0.2949 0.214974,0.62563 z m -0.16812,-0.27285 q -0.03307,-0.10749 -0.135048,-0.30868 -0.07166,-0.0937 -0.209462,-0.19844 -0.118511,-0.0854 -0.234266,-0.17088 0.245291,0.3638 0.578776,0.678 z m -0.573264,-0.52366 -0.358289,-0.44648 v 0.41065 z m 0.636653,0.75792 q 0,-0.0524 -0.341753,-0.39412 l 0.228754,0.7028 h 0.04961 q 0.06339,-0.21773 0.06339,-0.30868 z m -0.23151,0.27285 -0.316948,-0.90399 -0.410655,-0.0634 -0.159853,0.61461 z m 0.0028,0.15434 -0.771701,-0.3197 h -0.03032 l 0.344509,0.60634 q 0.07993,-0.003 0.234266,-0.0469 0.02481,-0.0138 0.223242,-0.23978 z m -0.857139,-1.05006 -0.719335,0.28388 0.60358,0.22599 z m 0,-0.16261 v -0.51538 l -0.917773,-0.38034 h -1.223697 l -0.917772,0.38034 v 0.51538 l 0.89848,0.4079 h 1.254014 z m 0.573264,1.53789 q -0.0689,0.011 -0.198438,0.0524 -0.08544,0.0551 -0.259071,0.16261 0.01929,0 0.06339,0.003 0.04134,0 0.06339,0 0.118511,0 0.190169,-0.0689 0.07166,-0.0717 0.14056,-0.14883 z m -0.289388,0.003 -0.347266,-0.63114 -0.363801,0.87918 q 0.0248,-0.0165 0.06615,-0.0165 0.03032,0 0.08544,0.011 0.05788,0.008 0.08819,0.008 0.04961,0 0.228754,-0.10749 0.228754,-0.1378 0.242535,-0.14331 z m -0.440972,-0.74139 -0.683507,-0.2756 -0.592556,0.54845 0.903993,0.65595 z m -0.854383,-0.28387 h -1.036284 l 0.523654,0.47404 z m 0.749652,1.36701 q -0.228754,-0.0303 -0.228754,-0.0303 -0.03583,0 -0.272851,0.0937 l 0.190169,0.0193 q 0.01102,0 0.311436,-0.0827 z m -0.388606,-0.0882 -0.843359,-0.61185 v 0.67524 l 0.471289,0.0827 z m 0.854383,0.0496 q -0.09922,0.006 -0.2949,0.0386 -0.01102,0.003 -0.377583,0.17639 -0.129535,0.34726 -0.380338,1.0418 z m -2.543857,-1.39733 -0.719335,-0.28388 0.124023,0.51814 z m -0.802018,-0.45476 v -0.41065 l -0.366557,0.44648 z m 1.515841,1.07212 -0.592556,-0.54019 -0.683506,0.2756 0.380338,0.9288 z m 0.369314,0.94257 q -0.03307,-0.003 -0.135047,-0.0248 -0.08544,-0.0165 -0.137804,-0.0165 -0.05237,0 -0.137804,0.0165 -0.101975,0.0221 -0.135047,0.0248 0.264583,0.0469 0.272851,0.0469 0.0083,0 0.272851,-0.0469 z m -0.30868,-0.1378 v -0.68626 l -0.843359,0.61185 0.37207,0.14607 z m 0.950846,0.20671 -0.396875,-0.0551 -0.479557,0.14056 v 1.27607 z m -2.888366,-2.20211 q -0.118512,0.0854 -0.234267,0.17364 -0.146072,0.10748 -0.209461,0.19568 -0.0441,0.10473 -0.135048,0.31419 0.369314,-0.3638 0.578776,-0.68351 z m 0.476801,0.83234 -0.159853,-0.61461 -0.410655,0.0634 -0.316948,0.90399 z m 0.394118,1.08313 -0.363802,-0.87918 -0.355533,0.63114 q 0.43546,0.2508 0.451996,0.2508 0.09095,0 0.267339,-0.003 z m 1.821765,0.82958 q -0.132291,0.21222 -0.405143,0.6339 -0.07717,0.10749 -0.220486,0.32797 -0.05788,0.10473 -0.05512,0.226 0.159852,-0.15158 0.432704,-0.49609 0.07717,-0.12954 0.140559,-0.339 0.05512,-0.17639 0.107486,-0.35278 z m -1.493792,-0.66146 -0.270095,-0.0882 -0.0083,-0.011 q -0.02481,0 -0.107487,0.011 -0.06615,0.006 -0.107487,0.006 0.272851,0.091 0.311436,0.091 0.02481,0 0.181901,-0.008 z m -0.810286,-1.06384 h -0.03032 l -0.7717,0.3197 q 0.06615,0.0965 0.223242,0.23978 0.07717,0.0138 0.234266,0.0469 z m -0.689018,-0.50161 q -0.341754,0.34727 -0.341754,0.39412 0,0.0799 0.06339,0.30868 h 0.04961 z m 2.235176,3.04547 v -1.27607 l -0.479557,-0.14056 -0.396875,0.0551 z m -1.606791,-1.6757 q -0.256315,-0.1819 -0.457509,-0.22324 0.06615,0.0772 0.20395,0.22324 z m 1.609547,2.04501 v -0.1378 l -0.683507,-1.05007 q 0.05237,0.17639 0.107487,0.35278 0.06339,0.20946 0.14056,0.339 0.0689,0.11851 0.20395,0.25907 0.115755,0.11851 0.23151,0.23702 z m -0.644921,-0.70555 q -0.115756,-0.32798 -0.380339,-1.0418 -0.135047,-0.0662 -0.272851,-0.12954 -0.159852,-0.0716 -0.289388,-0.0716 -0.05237,0 -0.110243,-0.0138 z" style="stroke-width:0;fill:#0000ff;stroke:#2e2114;stroke-linecap:square;stroke-opacity:1" />
        <path id="model_name" d="M27.3329 4.41816 24.8804 7.85634H27.1388Q27.2009 7.85634 27.2475 7.9029Q27.2941 7.94947 27.2941 8.0038Q27.2941 8.06589 27.2475 8.10857Q27.2009 8.15126 27.1388 8.15126H24.6087Q24.5389 8.15126 24.4923 8.09693Q24.4457 8.0426 24.4457 7.99604Q24.4457 7.94947 24.4845 7.89514L26.9371 4.44921H24.8416Q24.7795 4.44921 24.7329 4.40652Q24.6863 4.36384 24.6863 4.30175Q24.6863 4.23966 24.7329 4.19697Q24.7795 4.15429 24.8416 4.15429H27.2165Q27.2785 4.15429 27.3212 4.20085Q27.3639 4.24742 27.3717 4.30951Q27.3717 4.36384 27.3329 4.41816ZM30.0493 8.22887Q29.5137 8.22887 29.0752 7.96111Q28.6367 7.69335 28.3845 7.22769Q28.1323 6.76202 28.1323 6.19546Q28.1323 5.62114 28.3845 5.15547Q28.6367 4.6898 29.0714 4.42204Q29.506 4.15429 30.0493 4.15429Q30.5848 4.15429 31.0233 4.42204Q31.4618 4.6898 31.7101 5.15547Q31.9585 5.62114 31.9585 6.19546Q31.9585 6.76978 31.7101 7.23157Q31.4618 7.69335 31.0233 7.96111Q30.5848 8.22887 30.0493 8.22887ZM30.0493 4.44921Q29.5991 4.44921 29.2305 4.67816Q28.8618 4.90711 28.6523 5.30293Q28.4427 5.69875 28.4427 6.19546Q28.4427 6.68441 28.6523 7.08022Q28.8618 7.47604 29.2305 7.70499Q29.5991 7.93395 30.0493 7.93395Q30.5072 7.93395 30.8719 7.70887Q31.2367 7.4838 31.4424 7.08411Q31.648 6.68441 31.648 6.19546Q31.648 5.69875 31.4424 5.30293Q31.2367 4.90711 30.8719 4.67816Q30.5072 4.44921 30.0493 4.44921ZM34.6206 8.22887Q34.085 8.22887 33.6465 7.96111Q33.208 7.69335 32.9558 7.22769Q32.7036 6.76202 32.7036 6.19546Q32.7036 5.62114 32.9558 5.15547Q33.208 4.6898 33.6427 4.42204Q34.0773 4.15429 34.6206 4.15429Q35.1561 4.15429 35.5946 4.42204Q36.0331 4.6898 36.2814 5.15547Q36.5298 5.62114 36.5298 6.19546Q36.5298 6.76978 36.2814 7.23157Q36.0331 7.69335 35.5946 7.96111Q35.1561 8.22887 34.6206 8.22887ZM34.6206 4.44921Q34.1704 4.44921 33.8018 4.67816Q33.4331 4.90711 33.2236 5.30293Q33.014 5.69875 33.014 6.19546Q33.014 6.68441 33.2236 7.08022Q33.4331 7.47604 33.8018 7.70499Q34.1704 7.93395 34.6206 7.93395Q35.0785 7.93395 35.4432 7.70887Q35.808 7.4838 36.0137 7.08411Q36.2193 6.68441 36.2193 6.19546Q36.2193 5.69875 36.0137 5.30293Q35.808 4.90711 35.4432 4.67816Q35.0785 4.44921 34.6206 4.44921Z" style="display:inline;stroke:#000000;stroke-width:0.35;stroke-linecap:round;stroke-linejoin:bevel" />
        <path id="speed_art" d="M 0.38,51.00 L 0.38,17.00 A 4 4 0 0 1 4.38 13 L 56.58,13.00 A 4 4 0 0 1 60.58 17 L 60.58,13.00 L 60.58,51.00 z" style="fill:url(#gradient_blue);fill-opacity:1;stroke-width:0;" />
        <path id="chaos_art" d="M 0.38,82.00 L 0.38,48.00 A 4 4 0 0 1 4.38 44 L 56.58,44.00 A 4 4 0 0 1 60.58 48 L 60.58,44.00 L 60.58,82.00 z" style="fill:url(#gradient_purple);fill-opacity:1;stroke-width:0;" />
        <path id="out_art" d="M 0.38,113.60 L 0.38,80.00 A 4 4 0 0 1 4.38 76 L 56.58,76.00 A 4 4 0 0 1 60.58 80 L 60.58,76.00 L 60.58,113.60 z" style="fill:url(#gradient_out);fill-opacity:1;stroke-width:0;" />
        <path d="M25.3365 17.7137Q25.3153 17.6925 25.3153 17.6608Q25.3153 17.6326 25.34 17.6061Q25.3647 17.5796 25.3929 17.5796Q25.4247 17.5796 25.4529 17.6114Q25.5905 17.7737 25.7792 17.8583Q25.968 17.943 26.1761 17.943Q26.4478 17.943 26.6241 17.8125Q26.8005 17.6819 26.8005 17.4668Q26.797 17.2974 26.7088 17.1881Q26.6206 17.0787 26.4918 17.0134Q26.3631 16.9482 26.1408 16.867Q25.8974 16.7753 25.7616 16.7048Q25.6258 16.6342 25.5288 16.5037Q25.4318 16.3731 25.4318 16.1615Q25.4318 15.9886 25.527 15.8475Q25.6223 15.7064 25.7986 15.6253Q25.975 15.5441 26.2079 15.5441Q26.416 15.5441 26.603 15.62Q26.7899 15.6958 26.8993 15.8334Q26.9346 15.8828 26.9346 15.9075Q26.9346 15.9357 26.9081 15.9586Q26.8817 15.9816 26.8499 15.9816Q26.8217 15.9816 26.8041 15.9604Q26.7053 15.8334 26.5501 15.7593Q26.3948 15.6852 26.2079 15.6852Q25.9398 15.6852 25.7616 15.8122Q25.5834 15.9392 25.5834 16.1579Q25.5834 16.3096 25.6699 16.4155Q25.7563 16.5213 25.8868 16.5866Q26.0174 16.6518 26.2114 16.7224Q26.4583 16.8106 26.603 16.8847Q26.7476 16.9588 26.8499 17.0999Q26.9522 17.241 26.9522 17.4738Q26.9522 17.6361 26.857 17.7772Q26.7617 17.9183 26.5836 18.0012Q26.4054 18.0841 26.1761 18.0841Q25.9151 18.0841 25.721 17.9942Q25.527 17.9042 25.3365 17.7137ZM29.0689 16.2532Q29.0689 16.4507 28.986 16.6113Q28.9031 16.7718 28.7514 16.8617Q28.5997 16.9517 28.4021 16.9517H27.6331V17.9783Q27.6331 18.0065 27.6102 18.0277Q27.5872 18.0488 27.559 18.0488Q27.5272 18.0488 27.5061 18.0277Q27.4849 18.0065 27.4849 17.9783V15.6499Q27.4849 15.6217 27.5061 15.6006Q27.5272 15.5794 27.5555 15.5794H28.4021Q28.702 15.5794 28.8854 15.7664Q29.0689 15.9533 29.0689 16.2532ZM28.9207 16.2532Q28.9207 16.0098 28.7814 15.8651Q28.642 15.7205 28.4021 15.7205H27.6331V16.8106H28.4021Q28.6385 16.8106 28.7796 16.6536Q28.9207 16.4966 28.9207 16.2532ZM31.0515 17.9783Q31.0515 18.01 31.0303 18.0294Q31.0092 18.0488 30.9809 18.0488H29.651Q29.6227 18.0488 29.6016 18.0277Q29.5804 18.0065 29.5804 17.9783V15.6499Q29.5804 15.6217 29.6016 15.6006Q29.6227 15.5794 29.651 15.5794H30.9809Q31.0092 15.5794 31.0303 15.6006Q31.0515 15.6217 31.0515 15.6499Q31.0515 15.6817 31.0303 15.7011Q31.0092 15.7205 30.9809 15.7205H29.7286V16.7048H30.8222Q30.8504 16.7048 30.8716 16.7259Q30.8927 16.7471 30.8927 16.7753Q30.8927 16.8071 30.8716 16.8265Q30.8504 16.8459 30.8222 16.8459H29.7286V17.9077H30.9809Q31.0092 17.9077 31.0303 17.9289Q31.0515 17.9501 31.0515 17.9783ZM33.0518 17.9783Q33.0518 18.01 33.0306 18.0294Q33.0094 18.0488 32.9812 18.0488H31.6512Q31.623 18.0488 31.6018 18.0277Q31.5807 18.0065 31.5807 17.9783V15.6499Q31.5807 15.6217 31.6018 15.6006Q31.623 15.5794 31.6512 15.5794H32.9812Q33.0094 15.5794 33.0306 15.6006Q33.0518 15.6217 33.0518 15.6499Q33.0518 15.6817 33.0306 15.7011Q33.0094 15.7205 32.9812 15.7205H31.7288V16.7048H32.8224Q32.8507 16.7048 32.8718 16.7259Q32.893 16.7471 32.893 16.7753Q32.893 16.8071 32.8718 16.8265Q32.8507 16.8459 32.8224 16.8459H31.7288V17.9077H32.9812Q33.0094 17.9077 33.0306 17.9289Q33.0518 17.9501 33.0518 17.9783ZM35.5918 16.8141Q35.5918 17.1634 35.4806 17.4421Q35.3695 17.7208 35.1402 17.8848Q34.9109 18.0488 34.5687 18.0488H33.6515Q33.6233 18.0488 33.6021 18.0277Q33.5809 18.0065 33.5809 17.9783V15.6499Q33.5809 15.6217 33.6021 15.6006Q33.6233 15.5794 33.6515 15.5794H34.5687Q34.9074 15.5794 35.1384 15.7487Q35.3695 15.9181 35.4806 16.1985Q35.5918 16.479 35.5918 16.8141ZM35.4436 16.8141Q35.4436 16.5143 35.3466 16.2655Q35.2496 16.0168 35.0467 15.8687Q34.8439 15.7205 34.5334 15.7205H33.7291V17.9077H34.5334Q34.992 17.9077 35.2178 17.6061Q35.4436 17.3045 35.4436 16.8141Z" style="stroke:#000000;stroke-width:0.25;stroke-linecap:round;stroke-linejoin:bevel" />
        <path d="M 30.48,26.00 L 25.48,37.00 z L 35.48,37.00 z " style="stroke:#000000;stroke-width:0.25;stroke-linecap:round;stroke-linejoin:bevel;stroke-dasharray:none" />
        <path d="M26.7847 46.8404Q26.7847 46.8687 26.7705 46.8863Q26.7494 46.9145 26.7176 46.9145Q26.7035 46.9145 26.6753 46.9004Q26.3472 46.6782 25.9803 46.6782Q25.684 46.6782 25.4353 46.8246Q25.1866 46.971 25.0419 47.2303Q24.8973 47.4896 24.8973 47.8141Q24.8973 48.1387 25.0419 48.398Q25.1866 48.6572 25.4353 48.8037Q25.684 48.9501 25.9803 48.9501Q26.3507 48.9501 26.6718 48.7313Q26.6894 48.7172 26.7141 48.7172Q26.7494 48.7172 26.7705 48.7454Q26.7847 48.7631 26.7847 48.7878Q26.7847 48.8231 26.7564 48.8442Q26.6188 48.943 26.4019 49.0136Q26.1849 49.0841 25.9803 49.0841Q25.6452 49.0841 25.363 48.9183Q25.0807 48.7525 24.9149 48.4615Q24.7491 48.1704 24.7491 47.8141Q24.7491 47.4578 24.9149 47.1668Q25.0807 46.8757 25.363 46.7099Q25.6452 46.5441 25.9803 46.5441Q26.192 46.5441 26.3913 46.6076Q26.5906 46.6711 26.7529 46.784Q26.7847 46.8087 26.7847 46.8404ZM29.0953 46.6535V48.9747Q29.0918 49.0065 29.0707 49.0277Q29.0495 49.0488 29.0213 49.0488Q28.986 49.0488 28.9666 49.0277Q28.9472 49.0065 28.9472 48.9747V47.8494H27.4091V48.9747Q27.4055 49.0065 27.3844 49.0277Q27.3632 49.0488 27.335 49.0488Q27.2997 49.0488 27.2803 49.0277Q27.2609 49.0065 27.2609 48.9747V46.6535Q27.2609 46.6217 27.2821 46.6006Q27.3032 46.5794 27.335 46.5794Q27.3667 46.5794 27.3879 46.6006Q27.4091 46.6217 27.4091 46.6535V47.7083H28.9472V46.6535Q28.9472 46.6217 28.9683 46.6006Q28.9895 46.5794 29.0213 46.5794Q29.053 46.5794 29.0742 46.6006Q29.0953 46.6217 29.0953 46.6535ZM31.6142 48.9818Q31.6142 49.0136 31.593 49.0312Q31.5718 49.0488 31.5401 49.0488Q31.5154 49.0488 31.496 49.0365Q31.4766 49.0241 31.4695 49.003L31.1732 48.2762L31.1767 48.2833H29.9949L29.7092 49.003Q29.6915 49.0488 29.6457 49.0488Q29.6139 49.0488 29.5945 49.0312Q29.5751 49.0136 29.5716 48.9889Q29.5681 48.9747 29.5751 48.9536L30.5241 46.6182Q30.5347 46.59 30.5506 46.5812Q30.5664 46.5723 30.5911 46.5723Q30.644 46.5723 30.6617 46.6182L31.6107 48.9536Q31.6142 48.9642 31.6142 48.9818ZM30.0514 48.1422H31.1203L30.5805 46.8122ZM33.0923 49.0841Q32.7501 49.0841 32.482 48.9236Q32.2139 48.7631 32.064 48.4738Q31.914 48.1845 31.914 47.8141Q31.914 47.4437 32.064 47.1544Q32.2139 46.8651 32.482 46.7046Q32.7501 46.5441 33.0923 46.5441Q33.4345 46.5441 33.7026 46.7046Q33.9707 46.8651 34.1207 47.1544Q34.2706 47.4437 34.2706 47.8141Q34.2706 48.1845 34.1207 48.4738Q33.9707 48.7631 33.7026 48.9236Q33.4345 49.0841 33.0923 49.0841ZM33.0923 46.6852Q32.7925 46.6852 32.5579 46.8263Q32.3233 46.9674 32.1927 47.225Q32.0622 47.4825 32.0622 47.8141Q32.0622 48.1457 32.1927 48.4032Q32.3233 48.6608 32.5579 48.8019Q32.7925 48.943 33.0923 48.943Q33.3922 48.943 33.6268 48.8019Q33.8614 48.6608 33.9919 48.4032Q34.1224 48.1457 34.1224 47.8141Q34.1224 47.4825 33.9919 47.225Q33.8614 46.9674 33.6268 46.8263Q33.3922 46.6852 33.0923 46.6852ZM34.5916 48.7137Q34.5705 48.6925 34.5705 48.6608Q34.5705 48.6326 34.5952 48.6061Q34.6198 48.5796 34.6481 48.5796Q34.6798 48.5796 34.708 48.6114Q34.8456 48.7737 35.0344 48.8583Q35.2231 48.943 35.4312 48.943Q35.7029 48.943 35.8793 48.8125Q36.0557 48.6819 36.0557 48.4667Q36.0521 48.2974 35.9639 48.1881Q35.8757 48.0787 35.747 48.0134Q35.6182 47.9482 35.396 47.867Q35.1525 47.7753 35.0167 47.7047Q34.8809 47.6342 34.7839 47.5037Q34.6869 47.3731 34.6869 47.1615Q34.6869 46.9886 34.7821 46.8475Q34.8774 46.7064 35.0538 46.6252Q35.2302 46.5441 35.463 46.5441Q35.6711 46.5441 35.8581 46.62Q36.0451 46.6958 36.1544 46.8334Q36.1897 46.8828 36.1897 46.9075Q36.1897 46.9357 36.1633 46.9586Q36.1368 46.9816 36.105 46.9816Q36.0768 46.9816 36.0592 46.9604Q35.9604 46.8334 35.8052 46.7593Q35.65 46.6852 35.463 46.6852Q35.1949 46.6852 35.0167 46.8122Q34.8386 46.9392 34.8386 47.1579Q34.8386 47.3096 34.925 47.4155Q35.0114 47.5213 35.142 47.5866Q35.2725 47.6518 35.4665 47.7224Q35.7135 47.8106 35.8581 47.8847Q36.0027 47.9587 36.105 48.0999Q36.2073 48.241 36.2073 48.4738Q36.2073 48.6361 36.1121 48.7772Q36.0168 48.9183 35.8387 49.0012Q35.6605 49.0841 35.4312 49.0841Q35.1702 49.0841 34.9762 48.9942Q34.7821 48.9042 34.5916 48.7137Z" style="stroke:#000000;stroke-width:0.25;stroke-linecap:round;stroke-linejoin:bevel" />
        <path d="M 30.48,57.00 L 25.48,68.00 z L 35.48,68.00 z " style="stroke:#000000;stroke-width:0.25;stroke-linecap:round;stroke-linejoin:bevel;stroke-dasharray:none" />
        <path id="out_label" d="M27.9347 81.1495Q27.5925 81.1495 27.3244 80.989Q27.0563 80.8285 26.9063 80.5392Q26.7564 80.2499 26.7564 79.8795Q26.7564 79.5091 26.9063 79.2198Q27.0563 78.9305 27.3244 78.77Q27.5925 78.6095 27.9347 78.6095Q28.2769 78.6095 28.545 78.77Q28.8131 78.9305 28.963 79.2198Q29.1129 79.5091 29.1129 79.8795Q29.1129 80.2499 28.963 80.5392Q28.8131 80.8285 28.545 80.989Q28.2769 81.1495 27.9347 81.1495ZM27.9347 78.7506Q27.6348 78.7506 27.4002 78.8917Q27.1656 79.0328 27.0351 79.2903Q26.9046 79.5479 26.9046 79.8795Q26.9046 80.2111 27.0351 80.4686Q27.1656 80.7262 27.4002 80.8673Q27.6348 81.0084 27.9347 81.0084Q28.2345 81.0084 28.4691 80.8673Q28.7037 80.7262 28.8343 80.4686Q28.9648 80.2111 28.9648 79.8795Q28.9648 79.5479 28.8343 79.2903Q28.7037 79.0328 28.4691 78.8917Q28.2345 78.7506 27.9347 78.7506ZM31.4589 78.7153V80.2393Q31.4589 80.4863 31.3354 80.6944Q31.212 80.9025 31.0038 81.026Q30.7957 81.1495 30.5523 81.1495Q30.3053 81.1495 30.0972 81.026Q29.8891 80.9025 29.7656 80.6944Q29.6421 80.4863 29.6421 80.2393V78.7153Q29.6421 78.6836 29.6633 78.6642Q29.6844 78.6448 29.7162 78.6448Q29.7479 78.6448 29.7691 78.6659Q29.7903 78.6871 29.7903 78.7153V80.2393Q29.7903 80.4475 29.8926 80.6238Q29.9949 80.8002 30.1695 80.9043Q30.3441 81.0084 30.5523 81.0084Q30.7604 81.0084 30.935 80.9043Q31.1097 80.8002 31.2137 80.6238Q31.3178 80.4475 31.3178 80.2393V78.7153Q31.3178 78.6871 31.3372 78.6659Q31.3566 78.6448 31.3884 78.6448Q31.4201 78.6448 31.4395 78.6659Q31.4589 78.6871 31.4589 78.7153ZM33.7908 78.7118Q33.7908 78.7435 33.7714 78.7612Q33.752 78.7788 33.7202 78.7788H32.9335V81.0437Q32.9335 81.0719 32.9124 81.093Q32.8912 81.1142 32.863 81.1142Q32.8312 81.1142 32.8118 81.093Q32.7924 81.0719 32.7924 81.0437V78.7788H32.0057Q31.9775 78.7788 31.9563 78.7594Q31.9352 78.74 31.9352 78.7118Q31.9352 78.6836 31.9563 78.6642Q31.9775 78.6448 32.0057 78.6448H33.7202Q33.7484 78.6448 33.7696 78.6642Q33.7908 78.6836 33.7908 78.7118Z" style="stroke:#000000;stroke-width:0.25;stroke-linecap:round;stroke-linejoin:bevel" />
        <path id="port_label_x" d="M24.9344 89.1119Q24.952 89.1366 24.952 89.1542Q24.952 89.186 24.9309 89.2054Q24.9097 89.2248 24.8779 89.2248Q24.8391 89.2248 24.8215 89.1966L24.0136 88.0959L23.2093 89.1966Q23.1917 89.2248 23.1564 89.2248Q23.1246 89.2248 23.107 89.2054Q23.0894 89.186 23.0894 89.1648Q23.0894 89.1472 23.107 89.119L23.936 87.9865L23.0999 86.8471Q23.0858 86.8294 23.0858 86.8047Q23.0858 86.773 23.107 86.7536Q23.1282 86.7342 23.1564 86.7342Q23.1987 86.7342 23.2164 86.7624L24.0242 87.8666L24.8286 86.7589Q24.8497 86.7307 24.8815 86.7307Q24.9132 86.7307 24.9326 86.7465Q24.952 86.7624 24.952 86.7871Q24.952 86.8118 24.9344 86.8365L24.1054 87.9795Z" style="stroke:#000000;stroke-width:0.25;stroke-linecap:round;stroke-linejoin:bevel" />
        <path id="port_label_y" d="M24.825 95.8435 24.0207 96.9372V98.1437Q24.0207 98.1719 23.9995 98.193Q23.9784 98.2142 23.9466 98.2142Q23.9149 98.2142 23.8937 98.193Q23.8725 98.1719 23.8725 98.1437V96.9513L23.0647 95.8435Q23.0506 95.8259 23.0506 95.7977Q23.0506 95.773 23.0735 95.7518Q23.0964 95.7307 23.1246 95.7307Q23.1634 95.7307 23.1846 95.7624L23.9466 96.8031L24.7086 95.7624Q24.7298 95.7307 24.7686 95.7307Q24.8003 95.7307 24.8197 95.7536Q24.8391 95.7765 24.8391 95.7977Q24.8391 95.8153 24.825 95.8435Z" style="stroke:#000000;stroke-width:0.25;stroke-linecap:round;stroke-linejoin:bevel" />
        <path id="port_label_z" d="M25.0684 107.147Q25.0684 107.175 25.0473 107.195Q25.0261 107.214 24.9979 107.214H23.2622Q23.2305 107.214 23.2111 107.191Q23.1917 107.168 23.1917 107.14Q23.1917 107.115 23.2058 107.098L24.8709 104.879H23.3328Q23.3046 104.879 23.2834 104.859Q23.2622 104.84 23.2622 104.812Q23.2622 104.784 23.2834 104.764Q23.3046 104.745 23.3328 104.745H24.9908Q25.0332 104.745 25.0526 104.766Q25.072 104.787 25.072 104.815Q25.072 104.84 25.0579 104.858L23.3963 107.08H24.9979Q25.0261 107.08 25.0473 107.101Q25.0684 107.122 25.0684 107.147Z" style="stroke:#000000;stroke-width:0.25;stroke-linecap:round;stroke-linejoin:bevel" />
        <path id="port_label_p" d="M24.9168 114.419Q24.9168 114.616 24.8338 114.777Q24.7509 114.937 24.5993 115.027Q24.4476 115.117 24.25 115.117H23.4809V116.144Q23.4809 116.172 23.458 116.193Q23.4351 116.214 23.4069 116.214Q23.3751 116.214 23.3539 116.193Q23.3328 116.172 23.3328 116.144V113.815Q23.3328 113.787 23.3539 113.766Q23.3751 113.745 23.4033 113.745H24.25Q24.5499 113.745 24.7333 113.932Q24.9168 114.119 24.9168 114.419ZM24.7686 114.419Q24.7686 114.175 24.6292 114.031Q24.4899 113.886 24.25 113.886H23.4809V114.976H24.25Q24.4864 114.976 24.6275 114.819Q24.7686 114.662 24.7686 114.419Z" style="stroke:#000000;stroke-width:0.25;stroke-linecap:round;stroke-linejoin:bevel" />
        <path d="M 35.03,117.62 L 30.48,120.25 L 25.93,117.62 L 25.93,112.38 L 30.48,109.75 L 35.03,112.38 z " style="stroke:#000000;fill:#2455a6;stroke-width:0.15;stroke-linecap:round;stroke-linejoin:round;stroke-dasharray:none" />
    </g>
</svg>
