<svg xmlns="http://www.w3.org/2000/svg" width="886" height="886" version="1.0">
  <ellipse cx="498.345" cy="224.903" fill="#65995C" fill-rule="evenodd" clip-rule="evenodd" rx="15.543" ry="5.52" transform="rotate(-56.032 498.34 224.903)"/>
  <path fill="#766857" fill-rule="evenodd" d="M448.532 510.199c-28.452 6.023-49.81 19.755-58.582 31.758-6.084 8.325-2.754 16.949 6.078 17.251 4.107.14 8.29-.231 12.464-1.163l90.538-20.202a53.841 53.841 0 0 0 20.417-9.344 2.459 2.459 0 0 0 .259-3.723c-7.71-7.595-22.757-24.827-71.174-14.577z" clip-rule="evenodd"/>
  <path fill="#CE1B42" fill-rule="evenodd" d="M519.874 528.174c12.912-9.794 21.1-25.173 21.157-42.168l.001-.474c0-64.065-43.876-116-98-116s-98 51.935-98 116c0 13.745 2.02 26.931 5.729 39.166 6.169 20.353 24.69 33.74 45.108 34.495-8.708-.404-11.965-8.963-5.92-17.236 8.772-12.003 30.131-25.735 58.583-31.758 48.417-10.25 63.463 6.982 71.174 14.577a2.459 2.459 0 0 1-.259 3.723l.427-.325z" clip-rule="evenodd"/>
  <ellipse cx="496.794" cy="440.057" fill="#ffffff" fill-rule="evenodd" clip-rule="evenodd" rx="9.633" ry="10.487" transform="rotate(-51.549 496.794 440.058)"/>
  <ellipse cx="517.366" cy="459.532" fill="#ffffff" fill-rule="evenodd" clip-rule="evenodd" rx="10.487" ry="9.633" transform="rotate(-24.392 517.366 459.532)"/>
  <ellipse cx="486.381" cy="468.569" fill="#ffffff" fill-rule="evenodd" clip-rule="evenodd" rx="10.487" ry="8.884" transform="rotate(-9.387 486.388 468.564)"/>
  <path fill="#ffffff" fill-rule="evenodd" d="M364.736 415.765c.46.42.93.837 1.428 1.233 9.506 7.548 22.224 7.356 28.406-.429 6.14-7.734 3.514-20.046-5.84-27.608-9.218 7.277-17.335 16.351-23.994 26.804z" clip-rule="evenodd"/>
  <path id="omri_outer_ring" fill="#7cbf71" d="M443.032 154.255c-159.487 0-288.778 129.29-288.778 288.777S283.544 731.81 443.032 731.81 731.81 602.52 731.81 443.032 602.52 154.255 443.032 154.255zm0 553.777c-146.355 0-265-118.644-265-265s118.645-265 265-265 265 118.645 265 265-118.644 265-265 265z"/>
  <path fill="#A11534" fill-rule="evenodd" d="M389.95 541.957c3.663-5.014 9.53-10.327 17.186-15.256-7.418-8.23-13.74-17.582-18.104-28.169-19.085-46.295-5.486-100 33.027-126.328-44.045 11.369-77.027 57.785-77.027 113.328 0 13.745 2.02 26.931 5.729 39.166 6.169 20.353 24.69 33.74 45.108 34.495-8.708-.404-11.965-8.963-5.92-17.236z" clip-rule="evenodd"/>
  <path fill="#C7C7C7" fill-rule="evenodd" d="M386.676 390.658c-.561.468-1.126.93-1.679 1.412-.56.488-1.107.995-1.658 1.497-.535.486-1.073.967-1.599 1.466-.55.522-1.086 1.064-1.626 1.6-.509.505-1.023 1.004-1.524 1.522-.538.556-1.06 1.13-1.588 1.7-.483.522-.972 1.037-1.446 1.57-.527.592-1.037 1.204-1.552 1.809-.456.536-.918 1.064-1.365 1.61-.516.63-1.014 1.279-1.517 1.922-.426.545-.86 1.081-1.277 1.636-.51.677-1.001 1.374-1.497 2.065-.39.542-.788 1.076-1.17 1.627-.511.74-1.002 1.5-1.499 2.254-.312.474-.632.94-.938 1.421.46.42.926.834 1.423 1.229 6.038 4.794 13.366 6.454 19.498 5.04 2.61-8.12 6.183-15.848 10.677-22.97-1.5-3.707-4.067-7.24-7.595-10.096-.128.1-.258.195-.385.296-.568.452-1.124.924-1.683 1.39z" clip-rule="evenodd"/>
  <path fill="#9e887a" fill-rule="evenodd" d="M476.51 507.041c-7.829-.06-17.046.844-27.978 3.158-.653.138-1.28.302-1.926.448l.002-.021c-.515.116-1.01.253-1.52.375a138.5 138.5 0 0 0-2.92.72c-.849.222-1.681.458-2.515.693-.828.233-1.657.464-2.47.71-.992.3-1.961.616-2.93.933-.626.205-1.258.405-1.874.617-1.111.382-2.196.78-3.276 1.184-.349.13-.713.25-1.059.383v.012c-.376.144-.767.277-1.138.424-7.077 48.455-36.719 131.133-77.047 117.567a213.55 213.55 0 0 1-4.827-2.466c32.5 26.246 66.566 2.985 77.027-17.08 10.357-19.863 17.38-53.843 21.65-82.328a5.823 5.823 0 0 1 3.013-4.285c25.554-13.587 30.31-2.72 30.31-2.72l.109.078a394.722 394.722 0 0 1-.63-18.401zM644.592 311.994c1.55 1.044.423 5.427-2.517 9.79-2.94 4.364-6.579 7.054-8.128 6.01l4.976.378c1.148.774 3.845-1.22 6.023-4.453 2.178-3.234 3.013-6.482 1.865-7.255l-2.22-4.47z" clip-rule="evenodd"/>
  <path fill="#7BBA70" fill-rule="evenodd" d="M489.66 237.794c2.528 1.703 8.466-2.688 13.262-9.807 4.797-7.119 6.635-14.27 4.107-15.974l18.7 2.9c3.842 2.589 1.048 13.456-6.24 24.273-7.287 10.817-16.309 17.488-20.15 14.9l-9.679-16.292z" clip-rule="evenodd"/>
  <path fill="#D0B3A1" fill-rule="evenodd" d="m644.592 311.994-63.769-42.975-.01.016c-1.249 2.669-2.83 5.476-4.721 8.284-1.892 2.807-3.9 5.327-5.904 7.486l-.01.017 63.769 42.972c1.55 1.044 5.189-1.646 8.128-6.01 2.94-4.363 4.066-8.746 2.517-9.79z" clip-rule="evenodd"/>
  <path fill="#9e887a" fill-rule="evenodd" d="M573.748 280.56a59.406 59.406 0 0 1-3.56 4.245l-.01.017 63.769 42.972c1.062.716 3.106-.324 5.233-2.454l-65.432-44.78z" clip-rule="evenodd"/>
  <path fill="#70AA67" fill-rule="evenodd" d="M499.339 254.086c3.841 2.588 12.863-4.083 20.15-14.9 7.288-10.817 10.082-21.684 6.24-24.272l56.602 38.133c3.842 2.588 1.048 13.455-6.24 24.272-7.287 10.817-16.309 17.488-20.15 14.9l-56.602-38.133z" clip-rule="evenodd"/>
  <path fill="#486e42" fill-rule="evenodd" d="M617.073 316.426c1.55 1.044 5.188-1.647 8.128-6.01 2.94-4.363 4.066-8.746 2.516-9.79l-3.597-2.424c1.55 1.044.423 5.427-2.517 9.79-2.94 4.363-6.578 7.054-8.128 6.01l3.598 2.424z" clip-rule="evenodd"/>
  <path id="omri_jack_tip" fill="#917e74" d="m639.18 325.34-.007-.005c-1.348 1.348-2.664 2.272-3.715 2.574l3.465.263c.836.563 2.493-.345 4.174-2.127l-3.917-.705zM635.458 327.91l-1.511-.116c.387.261.906.289 1.51.115z"/>
  <path fill="#486e42" fill-rule="evenodd" d="M513.733 246.519c-5.767 6.265-11.525 9.5-14.394 7.567l56.602 38.133c2.673 1.8 7.855-.89 13.215-6.332l-55.423-39.368z" clip-rule="evenodd"/>
  <path fill="#5c8c54" fill-rule="evenodd" d="M499.132 232.815c-3.795 4.123-7.584 6.25-9.472 4.979l9.679 16.292c2.869 1.932 8.627-1.302 14.394-7.567l-14.601-13.704z" clip-rule="evenodd"/>
  <path fill="#D0B3A1" fill-rule="evenodd" d="M618.606 582.444c-4.777-3.793-11.703-3.213-15.736 1.363a213.84 213.84 0 0 1-62.655 48.793c-46.237 23.134-63.05-61.68-63.705-125.559-7.829-.06-17.046.844-27.978 3.158-7.778 1.647-15.02 3.872-21.626 6.478-7.077 48.455-36.719 131.133-77.047 117.567-70.457-34.745-119.658-107.356-119.826-190.771-.239-117.84 95.216-213.44 213-213.44 17.952 0 35.376 2.241 52.028 6.428 2.495-1.743 5.335-4.723 7.861-8.474 2.94-4.363 4.762-8.733 5.155-11.86-21.552-6.168-44.36-9.362-67.96-9.077-129.819 1.567-233.36 106.667-233.084 236.496.277 130.103 105.831 235.486 236 235.486 70.503 0 133.778-30.923 177.021-79.94 4.368-4.95 3.722-12.543-1.448-16.648z" clip-rule="evenodd"/>
</svg>
