<?xml version="1.0" encoding="utf-8"?>
<!-- Generator: Adobe Illustrator 25.2.3, SVG Export Plug-In . SVG Version: 6.00 Build 0)  -->
<svg xmlns="http://www.w3.org/2000/svg" xmlns:xlink="http://www.w3.org/1999/xlink" version="1.0" x="0px" y="0px" width="886px" height="886px" viewBox="0 0 886 886" enable-background="new 0 0 886 886" xml:space="preserve">
<g id="Layer_3" display="none">
	
		
</g>
<g id="Layer_6" display="none">
	<g display="inline">
		<path fill="#CE1B42" d="M151.61235,815.1944c0-23.86621,12.93799-61.42383,37.05518-61.42383    c2.76367,0,5.27588,1.25586,8.03906,1.25586l5.65283-0.37695c13.56543,0,17.71094,26.37891,17.71094,36.55273    c0,23.74023-15.57568,59.41406-43.33594,59.41406C157.13969,850.61627,151.61235,831.39752,151.61235,815.1944z     M163.16899,818.08307c0,11.68164,3.39111,24.24316,17.45947,24.24316c20.85156,0,32.78467-31.40332,32.78467-48.7373    c0-10.2998-3.64307-31.52832-17.20898-31.52832C177.86528,762.06061,163.16899,796.72955,163.16899,818.08307z"/>
		<path fill="#CE1B42" d="M260.01028,815.82233v-7.78809c0-0.75391,0-2.6377-1.25635-2.6377    c-5.14989,0-22.48387,31.27734-25.12206,37.05469c-0.87891,1.88477-2.13525,3.76855-4.52148,3.76855    c-1.6333,0-2.5127-1.25586-2.5127-2.76367c0-7.66211,7.03418-43.96289,10.30029-50.11816    c1.7583-3.26562,6.28076-5.02441,9.79736-5.02441c1.88428,0,2.63818,1.25586,2.63818,3.01465    c0,3.5166-3.14014,9.79785-4.52197,13.18945c-1.88428,4.52148-3.01465,9.4209-3.76855,14.31934    c0,0,13.56592-21.47949,20.34911-21.47949c4.01953,0,5.27539,5.77832,5.27539,9.4209l-0.25098,17.71094    c0,0-0.12549,6.53125,1.00488,6.53125c0.50244,0,1.50732-1.75781,1.7583-2.26074    c3.01465-5.02441,6.53174-9.79785,9.92334-14.57031c4.01953-5.65234,10.67676-16.95801,18.46484-16.95801    c5.40088,0,7.7876,5.77832,7.7876,10.42578c0,9.67188-1.7583,19.34375-1.7583,29.0166c0,2.38574,0,6.78223,3.39111,6.78223    c5.65283,0,15.32471-10.55078,18.59082-14.94727c0.87891-1.13086,2.26074-3.26562,3.89355-3.26562    c1.50732,0,1.75879,1.50684,1.75879,2.6377c0,0.87891-0.75391,1.88379-1.25635,2.51172    c-4.89893,6.7832-17.58545,19.72168-26.37793,19.72168c-8.29053,0-8.66748-10.80273-8.66748-16.83203    c0-7.53711,1.13086-15.07324,1.13086-22.73535c0-1.38184,0-5.15039-2.13574-5.15039    c-6.0293,0-22.23291,31.27734-26.00098,37.30664c-0.75391,1.25586-1.75879,2.26074-3.3916,2.26074    C260.51273,844.96393,260.01028,826.87604,260.01028,815.82233z"/>
		<path fill="#CE1B42" d="M339.64359,811.04889c-2.6377,7.28516-6.53174,16.83203-12.05859,22.48438    c-0.87891,0.87891-2.00977,1.88379-3.3916,1.88379c-1.00488,0-1.63281-0.62793-1.63281-1.63281s0.50244-1.88379,1.13086-2.76367    c4.77295-6.9082,9.79736-14.19336,10.80225-22.73535c-2.26123-3.01465-3.26611-6.78223-3.26611-10.55078    c0-3.89355,2.38672-14.06836,7.41113-14.06836c3.51709,0,4.14551,7.28516,4.14551,9.79785    c0,2.00977-0.12598,4.01953-0.37695,6.0293c3.89355,5.90332,14.94727,6.40625,14.94727,17.58496    c0,1.63281-0.25098,3.26562-0.62793,4.89941c-1.38184,5.90332-2.51221,11.68164-2.51221,17.71094    c0,1.63281,0,4.64746,2.38672,4.64746c5.77783,0,16.07812-13.06348,19.34424-17.96289    c0.75342-1.12988,1.88379-2.7627,3.26562-2.7627c1.50732,0,1.75879,1.38086,1.75879,2.6377    c0,1.00488-0.50293,1.88379-1.00488,2.6377c-4.01953,6.53125-16.70654,21.35352-24.74561,21.35352    c-8.29004,0-8.79248-11.68164-8.79248-17.58496c0-4.64746,0.62793-9.16992,0.62793-13.81738    C347.05472,814.69147,343.28616,812.17975,339.64359,811.04889z"/>
		<path fill="#CE1B42" d="M391.64456,842.07526c6.7832,0,16.58057-14.44531,20.34912-20.34961    c0.75342-1.12988,1.7583-2.6377,3.14014-2.6377c1.63281,0,1.63281,1.50781,1.63281,2.76367    c0,1.63281-2.38672,5.02441-3.3916,6.40625c-4.77295,6.78223-15.44971,20.09766-24.36816,20.09766    c-9.92334,0-11.43066-14.19434-11.43066-21.47949c0-4.64746,1.25635-11.05371,2.6377-15.4502    c1.50781-4.52246,3.76855-8.03906,9.04395-8.03906c1.88428,0,2.88916,0.75391,2.88916,2.76367    c0,3.3916-2.88916,9.5459-3.76807,13.31445c-0.75391,3.64258-1.13086,7.41113-1.13086,11.17969    C387.24808,833.53326,387.37405,842.07526,391.64456,842.07526z M396.66898,788.94147c0,3.26562-2.6377,6.65723-6.0293,6.65723    c-2.6377,0-4.27051-2.26074-4.27051-4.77344c0-3.13965,2.51221-6.65723,5.90332-6.65723    C394.91068,784.16803,396.66898,786.42975,396.66898,788.94147z"/>
		<path fill="#CE1B42" d="M486.47659,842.57721c10.92773,0,21.10254-5.02441,27.88577-13.56641    c1.50684-1.88379,2.6377-3.89355,3.89355-5.90332c0.75391-1.12988,1.88379-2.88867,3.3916-2.88867    c1.13086,0,2.00977,1.00488,2.00977,2.13477c0,1.13086-1.00488,3.01465-1.63281,4.01953    c-7.66211,13.44043-23.36331,23.36426-38.93948,23.36426c-22.73535,0-34.54297-19.97266-34.54297-40.69824    c0-22.98633,14.57129-56.65039,41.45117-56.65039c10.1748,0,17.20898,7.66211,17.20898,17.71094    c0,4.52246-1.25586,17.96289-4.89844,20.60059c-0.87988,0.62793-2.00977,0.87891-3.01465,0.87891    c-1.50781,0-3.14062-0.37695-3.14062-2.26074s2.13574-6.15527,2.76367-8.29004c1.00488-3.3916,1.63281-7.28516,1.63281-10.80273    c0-5.77832-3.3916-10.80273-9.54688-10.80273c-18.21289,0-28.3877,35.0459-28.3877,49.61621    C462.61038,825.36823,466.62991,842.57721,486.47659,842.57721z"/>
		<path fill="#CE1B42" d="M541.99323,797.98541c9.29492,0,11.80664,9.67188,11.80664,17.20898    c0,11.05371-3.89355,23.1123-13.44043,29.51855c-2.88867,1.88379-6.28027,3.26562-9.79688,3.26562    c-9.04395,0-12.05859-9.16992-12.05859-16.70605C518.50397,818.711,527.04498,797.98541,541.99323,797.98541z M527.54791,831.5235    c0,4.01953,1.12988,10.2998,6.28027,10.2998c2.13574,0,4.14551-1.12988,5.77832-2.38672    c6.28027-4.89844,8.91797-14.19336,8.91797-21.85547c0-4.14551-1.13086-11.30566-6.53125-11.30566    C532.57233,806.27545,527.54791,823.98737,527.54791,831.5235z"/>
		<path fill="#CE1B42" d="M574.3985,843.33112l-0.12598,0.37695c-1.38184,2.88867-3.3916,7.03418-7.03418,7.03418    s-4.27051-4.77344-4.27051-7.53711c0-4.27051,0.87891-8.66699,1.38184-12.9375c1.75879-13.94336,7.91309-96.0918,26.50391-96.0918    c5.52637,0,6.78223,7.66211,6.78223,11.80664c0,18.71582-6.40625,36.67871-14.69629,53.13379    c-2.00977,4.01953-4.27051,7.78711-6.28027,11.68164c-1.00488,2.00977-3.26562,17.20898-3.76855,20.59961    c4.64746-9.92285,19.7207-37.55664,31.52832-37.55664c5.65234,0,7.16016,6.78223,7.16016,11.30469l-2.38672,31.52832    c0,2.38574,0.125,5.65234,3.3916,5.65234c7.78809,0,15.95215-12.18457,20.34863-18.71582    c0.75391-1.13086,1.63281-2.76367,3.01465-2.76367c1.50684,0,1.88379,1.25586,1.88379,2.51172    c0,0.75391-0.50195,1.38184-0.75293,2.00977c-4.89941,9.67188-17.45996,24.49414-29.26758,24.49414    c-6.65723,0-6.65723-11.68164-6.65723-17.20801c0-9.04395,1.13086-18.08789,2.00977-28.13672c0-0.75391,0-3.01465-1.25586-3.01465    C596.37994,801.50299,577.41315,836.92487,574.3985,843.33112z M575.90533,799.87018    c7.53711-13.69238,17.08301-37.80957,17.08301-53.38477c0-1.13086,0-5.9043-1.50684-5.9043    C583.69342,740.58112,576.40826,791.32819,575.90533,799.87018z"/>
		<path fill="#CE1B42" d="M631.04498,830.14166c0-11.30469,9.16895-35.29688,22.73535-35.29688    c4.52148,0,7.03418,3.14062,7.03418,7.53711c0,8.41602-11.80762,21.73047-19.46979,24.49414    c-0.37689,1.75879-0.62787,3.5166-0.62787,5.27539c0,5.65234,2.26074,9.16992,8.16406,9.16992    c10.55176,0,18.96777-9.04395,23.99219-17.45996c0.75293-1.25586,2.00977-3.26562,3.76855-3.26562    c0.75293,0,1.75781,0.50195,1.75781,1.38184c0,1.63281-0.37695,2.38574-1.12988,3.76758    c-6.53223,11.43066-18.59082,21.47949-32.28223,21.47949C635.06451,847.22467,631.04498,839.05963,631.04498,830.14166z     M641.72174,822.1026c5.40137-3.26562,13.56543-11.80762,13.56543-18.46484c0-1.38184-0.50195-2.88867-2.13477-2.88867    C648.12799,800.74908,642.47565,817.70612,641.72174,822.1026z"/>
		<path fill="#CE1B42" d="M670.35944,846.97369c0-12.30957,3.26562-25.87598,5.77734-37.93457    c0.75391-3.89355,1.38184-7.91309,2.26172-11.80762c0.62793-3.01465,4.14453-6.0293,7.28516-6.0293    c2.88867,0,3.76855,1.63281,3.76855,4.27148c0,4.27051-1.75879,9.41992-3.2666,13.43945    c-1.75781,4.64844-2.7627,9.54688-3.3916,14.44531c0,0,15.3252-22.3584,21.85645-22.3584    c4.89941,0,5.02441,8.54199,5.02441,12.18457v17.58496c0,2.88965,0.12598,7.53711,4.01953,7.53711    c6.65723,0,14.44531-11.80762,17.33398-17.33496c0.62891-1.12988,1.63379-2.88867,3.01562-2.88867    c1.25586,0,2.13477,1.38184,2.13477,2.5127c0,0.62793-0.62793,1.88379-0.87891,2.51172    c-3.64258,7.78809-14.69629,21.35352-24.11719,21.35352c-7.78809,0-9.16992-8.41504-9.16992-14.69629    c0-0.62793,0-1.25586,0-1.88379l0.50293-14.31934c0-0.62891-0.12598-2.5127-1.13086-2.5127    c-0.87891,0-2.26074,1.38184-2.88867,2.00977c-4.14551,4.01953-7.91406,9.79785-10.92871,14.69629    c-3.64258,5.9043-6.53125,12.05859-9.4209,18.33984c-1.00488,2.00977-2.7627,4.01953-5.14941,4.01953    C671.23834,850.11432,670.35944,848.60651,670.35944,846.97369z"/>
	</g>
</g>
<g id="Layer_2">
	
		<ellipse transform="matrix(0.55873 -0.82935 0.82935 0.55873 33.37938 512.54211)" fill-rule="evenodd" clip-rule="evenodd" fill="#65995C" cx="498.34451" cy="224.9032" rx="15.54282" ry="5.51977"/>
	<path fill-rule="evenodd" clip-rule="evenodd" fill="#766857" d="M448.53226,510.19894   c-28.45215,6.02347-49.81116,19.7551-58.58261,31.75797c-6.08405,8.32538-2.75317,16.94897,6.07837,17.2511   c4.10696,0.1405,8.28979-0.2312,12.46396-1.1626l90.53815-20.20276c7.56784-1.68866,14.47952-4.93109,20.41702-9.34393   c1.20807-0.89783,1.33075-2.6662,0.25842-3.72247C511.99545,517.18146,496.94894,499.94894,448.53226,510.19894z"/>
	<g>
		<g>
			<path fill-rule="evenodd" clip-rule="evenodd" fill="#CE1B42" d="M519.87396,528.17419     c12.91187-9.79376,21.09998-25.17285,21.15753-42.16785c0.00055-0.15796,0.00079-0.31598,0.00079-0.47406     c0-64.06506-43.87613-116-98.00003-116s-98,51.93494-98,116c0,13.74512,2.02039,26.93097,5.72845,39.16528     c6.16888,20.35345,24.69025,33.73969,45.10791,34.49518c-8.70764-0.40356-11.96497-8.96259-5.91901-17.2359     c8.77148-12.00281,30.13049-25.7345,58.58264-31.75793c48.41669-10.25,63.4632,6.98254,71.17337,14.57733     c1.07227,1.05627,0.94958,2.82465-0.25848,3.72247L519.87396,528.17419z"/>
		</g>
	</g>
	
		<ellipse transform="matrix(0.62184 -0.78314 0.78314 0.62184 -156.76128 555.46985)" fill-rule="evenodd" clip-rule="evenodd" fill="#FFFFFF" cx="496.79361" cy="440.05707" rx="9.63326" ry="10.48686"/>
	
		<ellipse transform="matrix(0.91074 -0.41298 0.41298 0.91074 -143.59749 254.67944)" fill-rule="evenodd" clip-rule="evenodd" fill="#FFFFFF" cx="517.36627" cy="459.53229" rx="10.48686" ry="9.63326"/>
	
		<ellipse transform="matrix(0.98661 -0.16311 0.16311 0.98661 -69.91473 85.6089)" fill-rule="evenodd" clip-rule="evenodd" fill="#FFFFFF" cx="486.38123" cy="468.56915" rx="10.48686" ry="8.88384"/>
	<path fill-rule="evenodd" clip-rule="evenodd" fill="#FFFFFF" d="M364.73636,415.76483   c0.46051,0.42108,0.9292,0.83728,1.42743,1.23291c9.50641,7.54852,22.2243,7.35651,28.40613-0.42877   c6.14087-7.7337,3.5144-20.04602-5.83923-27.60834C379.51236,396.23755,371.39462,405.31219,364.73636,415.76483z"/>
	<g>
		<g>
			<path fill="#70AA67" d="M443.03226,154.25452c-159.48755,0-288.77777,129.29016-288.77777,288.77777     s129.29021,288.77777,288.77777,288.77777s288.7778-129.29022,288.7778-288.77777S602.51984,154.25452,443.03226,154.25452z      M443.03226,708.03229c-146.35547,0-265-118.64453-265-265s118.64452-265,265-265s265.00003,118.64453,265.00003,265     S589.38776,708.03229,443.03226,708.03229z"/>
		</g>
	</g>
	<path fill-rule="evenodd" clip-rule="evenodd" fill="#A11534" d="M389.94962,541.95685   c3.66382-5.01355,9.53082-10.32727,17.18658-15.25635c-7.41791-8.22894-13.73981-17.58173-18.10394-28.16821   c-19.08478-46.29541-5.48669-100,33.02661-126.32819c-44.04449,11.36847-77.02661,57.78528-77.02661,113.32819   c0,13.74512,2.02039,26.93097,5.72845,39.16528c6.16888,20.35345,24.69025,33.73969,45.10791,34.49518   C387.16098,558.78918,383.90366,550.23016,389.94962,541.95685z"/>
	<path fill-rule="evenodd" clip-rule="evenodd" fill="#C7C7C7" d="M386.67612,390.65778   c-0.56134,0.46802-1.12628,0.93048-1.67889,1.41199c-0.56018,0.48816-1.1076,0.99524-1.65869,1.49707   c-0.53442,0.48663-1.073,0.96698-1.59857,1.46631c-0.54968,0.52222-1.08557,1.0636-1.62549,1.59949   c-0.50946,0.50562-1.02386,1.00446-1.52441,1.52203c-0.53766,0.55591-1.06036,1.13116-1.58759,1.70068   c-0.48328,0.52197-0.97223,1.0368-1.44653,1.57001c-0.52649,0.59192-1.03687,1.20319-1.55219,1.80865   c-0.45593,0.53564-0.91821,1.06366-1.36523,1.6098c-0.51538,0.62976-1.01361,1.27911-1.51691,1.92255   c-0.42609,0.54462-0.8595,1.08112-1.27679,1.63531c-0.50977,0.67712-1.00079,1.3739-1.49719,2.06512   c-0.38965,0.5426-0.78766,1.07642-1.16901,1.62756c-0.5116,0.7395-1.00305,1.49884-1.49939,2.25342   c-0.31207,0.47437-0.63208,0.9411-0.93799,1.42126c0.45892,0.41949,0.92603,0.83441,1.42255,1.2287   c6.03796,4.79443,13.36652,6.45404,19.49805,5.04095c2.60999-8.12122,6.18311-15.84882,10.67761-22.9707   c-1.50128-3.70697-4.06757-7.23969-7.59589-10.09601c-0.1272,0.10034-0.25787,0.1947-0.38464,0.29572   C387.79123,389.72034,387.23526,390.19153,386.67612,390.65778z"/>
	<g>
		<polygon fill="#65995C" points="574.9906,186.61218 574.99017,186.61389 574.99353,186.61377   "/>
	</g>
	<path fill-rule="evenodd" clip-rule="evenodd" fill="#BBA191" d="M476.51028,507.0415   c-7.82922-0.06055-17.04596,0.84308-27.97803,3.15741c-0.65308,0.13824-1.28119,0.30212-1.92651,0.44849   c0.00085-0.00714,0.00171-0.01459,0.00256-0.02173c-0.51514,0.11664-1.00989,0.25342-1.52014,0.375   c-0.98022,0.23401-1.95844,0.46844-2.92004,0.72028c-0.84906,0.2218-1.68115,0.45764-2.51556,0.69263   c-0.82733,0.23364-1.65668,0.46436-2.46924,0.71051c-0.99194,0.29956-1.96155,0.61542-2.93103,0.93256   c-0.62561,0.2052-1.25702,0.40515-1.87317,0.61731c-1.11145,0.3819-2.19611,0.78094-3.27576,1.18445   c-0.34888,0.13049-0.71362,0.25043-1.05914,0.383c-0.00031,0.00385-0.00055,0.008-0.00085,0.01184   c-0.375,0.14386-0.76636,0.27722-1.13727,0.42358c-7.07684,48.45532-36.71893,131.13342-77.04712,117.56708   c-1.62164-0.79968-3.22797-1.62616-4.82672-2.46564c32.5,26.24597,66.56537,2.98462,77.02661-17.07935   c10.35721-19.86432,17.38-53.84363,21.65036-82.32898c0.27344-1.82379,1.38446-3.41919,3.01279-4.28491   c25.55353-13.58691,30.31024-2.71942,30.31024-2.71942l0.10828,0.07733   C476.78384,519.19745,476.57156,513.02533,476.51028,507.0415z"/>
	<g>
		<path fill-rule="evenodd" clip-rule="evenodd" fill="#BBA191" d="M644.5918,311.99396    c1.5495,1.04391,0.42273,5.42725-2.51678,9.79041c-2.93945,4.36316-6.57855,7.05396-8.12805,6.01004l4.97583,0.37784    c1.14825,0.77356,3.84491-1.22043,6.02319-4.45367c2.17828-3.23328,3.01331-6.48148,1.86505-7.25507L644.5918,311.99396z"/>
		<g>
			<path fill-rule="evenodd" clip-rule="evenodd" fill="#7BBA70" d="M489.66019,237.79358     c2.52826,1.70329,8.46591-2.68712,13.26215-9.80629c4.7962-7.11916,6.63477-14.27116,4.10651-15.97447l18.70023,2.901     c3.84149,2.58801,1.04797,13.45491-6.2395,24.27187c-7.28741,10.81697-16.3092,17.48787-20.15067,14.89984L489.66019,237.79358z"/>
		</g>
		<path fill-rule="evenodd" clip-rule="evenodd" fill="#D0B3A1" d="M644.59174,311.99399l-63.76825-42.97519l-0.01086,0.01608    c-1.24854,2.66867-2.82959,5.47626-4.72107,8.28384c-1.89136,2.80743-3.89935,5.32721-5.9035,7.48663l-0.01086,0.0162    l63.76971,42.97287c1.54956,1.04382,5.1886-1.64688,8.12811-6.0101C645.01453,317.42117,646.1413,313.03784,644.59174,311.99399z"/>
		<path fill-rule="evenodd" clip-rule="evenodd" fill="#BBA191" d="M573.74774,280.56052    c-1.17194,1.52811-2.36493,2.95752-3.55969,4.24484l-0.01086,0.0162l63.76971,42.97287    c1.06213,0.71548,3.10602-0.32452,5.23328-2.45404L573.74774,280.56052z"/>
		<g>
			<path fill-rule="evenodd" clip-rule="evenodd" fill="#70AA67" d="M499.3389,254.08553     c3.84146,2.58803,12.86325-4.08287,20.15067-14.89984c7.28748-10.81696,10.08099-21.68385,6.2395-24.27187l56.60199,38.13304     c3.84149,2.58803,1.04797,13.45491-6.2395,24.27187c-7.28741,10.81699-16.3092,17.48785-20.1507,14.89984L499.3389,254.08553z"/>
		</g>
		<g>
			<path fill-rule="evenodd" clip-rule="evenodd" fill="#70AA67" d="M617.07251,316.42603     c1.54956,1.04391,5.1886-1.64688,8.12805-6.01007c2.93951-4.36316,4.06635-8.74646,2.51685-9.79037l-3.59753-2.42368     c1.5495,1.04391,0.42267,5.42722-2.51678,9.79037c-2.93951,4.36319-6.57855,7.05399-8.12811,6.01007L617.07251,316.42603z"/>
		</g>
		<g>
			<path fill="#A79186" d="M639.18018,325.34039l-0.00732-0.00497c-1.34821,1.34796-2.6637,2.27173-3.71515,2.57367l3.46503,0.26312     c0.83624,0.56329,2.49371-0.34534,4.17395-2.12708L639.18018,325.34039z"/>
			<path fill="#A79186" d="M635.4577,327.90909l-1.5108-0.11465C634.33441,328.05545,634.85254,328.08292,635.4577,327.90909z"/>
		</g>
		<path fill-rule="evenodd" clip-rule="evenodd" fill="#65995C" d="M513.73285,246.51872    c-5.76709,6.26532-11.52515,9.49959-14.39392,7.56679l56.60193,38.13303c2.6731,1.8009,7.85486-0.8891,13.21478-6.33191    L513.73285,246.51872z"/>
		<g>
			<path fill-rule="evenodd" clip-rule="evenodd" fill="#70AA67" d="M499.13168,232.81549     c-3.79495,4.12225-7.58368,6.24991-9.47144,4.97809l9.67868,16.29193c2.86877,1.9328,8.62677-1.30142,14.39392-7.56679     L499.13168,232.81549z"/>
		</g>
	</g>
	<rect fill-rule="evenodd" clip-rule="evenodd" fill="none" width="886" height="886"/>
	<g>
		<path fill-rule="evenodd" clip-rule="evenodd" fill="#D0B3A1" d="M618.60596,582.4444h-0.00006    c-4.77673-3.79291-11.70331-3.21332-15.73639,1.36249c-17.56659,19.93066-38.80756,36.54004-62.6543,48.79272    c-46.2377,23.13477-63.05063-61.67877-63.70493-125.55811c-7.82922-0.06055-17.04596,0.84308-27.97803,3.15741    c-7.77777,1.64661-15.02075,3.87207-21.62616,6.47791c-7.07684,48.45532-36.71893,131.13342-77.04712,117.56708    c-70.45709-34.74451-119.65752-107.35602-119.82628-190.7713c-0.23828-117.83893,95.21617-213.44031,212.99956-213.44031    c17.95264,0,35.37708,2.24194,52.02905,6.4292c2.49481-1.7439,5.33447-4.72394,7.86102-8.47418    c2.9397-4.36353,4.76135-8.73346,5.15436-11.85944c-21.55133-6.16937-44.35931-9.36292-67.95898-9.078    C310.298,208.617,206.75627,313.71704,207.03282,443.5459c0.27716,130.10303,105.83153,235.48639,235.99944,235.48639    c70.50388,0,133.77853-30.92352,177.02206-79.9397C624.42157,594.14227,623.77576,586.54944,618.60596,582.4444z"/>
	</g>
</g>
<g id="original" display="none">
	<g display="inline">
		<path d="M443.03226,208.03229c31.72522,0,62.50092,6.21318,91.47232,18.46706    c27.98352,11.83601,53.11548,28.78056,74.69775,50.36287c21.58234,21.58231,38.52692,46.71426,50.36292,74.69775    c12.25385,28.97137,18.46704,59.74707,18.46704,91.47232s-6.2132,62.50095-18.46704,91.47229    c-11.836,27.98352-28.78058,53.11548-50.36292,74.69775c-21.58228,21.58234-46.71423,38.52692-74.69775,50.36292    c-28.97141,12.25385-59.7471,18.46704-91.47232,18.46704s-62.50092-6.2132-91.47229-18.46704    c-27.98352-11.836-53.11545-28.78058-74.69778-50.36292c-21.58229-21.58228-38.52684-46.71423-50.36284-74.69775    c-12.25388-28.97134-18.46707-59.74704-18.46707-91.47229s6.2132-62.50095,18.46707-91.47232    c11.836-27.98349,28.78055-53.11545,50.36284-74.69775c21.58234-21.58231,46.71426-38.52686,74.69778-50.36287    C380.53134,214.24547,411.30704,208.03229,443.03226,208.03229 M443.03226,207.03229    c-130.33917,0-235.99998,105.6608-235.99998,236s105.66081,236,235.99998,236s236.00003-105.66083,236.00003-236    S573.37146,207.03229,443.03226,207.03229L443.03226,207.03229z"/>
	</g>
	<g display="inline">
		<path d="M443.03226,179.03229c35.6402,0,70.21384,6.98,102.76041,20.746c31.43683,13.29666,59.67023,32.3322,83.91583,56.57779    s43.28113,52.479,56.57782,83.9158c13.76599,32.5466,20.74597,67.12021,20.74597,102.76041s-6.97998,70.21381-20.74597,102.76038    c-13.29669,31.43683-32.33221,59.67023-56.57782,83.91583s-52.479,43.28113-83.91583,56.57782    c-32.54657,13.76599-67.12021,20.74597-102.76041,20.74597s-70.21381-6.97998-102.76038-20.74597    c-31.43683-13.29669-59.67023-32.33221-83.91583-56.57782s-43.28111-52.479-56.57777-83.91583    c-13.76599-32.54657-20.746-67.12018-20.746-102.76038s6.98001-70.21381,20.746-102.76041    c13.29666-31.4368,32.33218-59.6702,56.57777-83.9158s52.479-43.28113,83.91583-56.57779    C372.81845,186.01228,407.39206,179.03229,443.03226,179.03229 M443.03226,178.03229c-146.35547,0-265,118.64453-265,265    s118.64452,265,265,265s265.00003-118.64453,265.00003-265S589.38776,178.03229,443.03226,178.03229L443.03226,178.03229z"/>
	</g>
	<g display="inline">
		<path d="M443.03226,155.69897c38.79022,0,76.41959,7.59692,111.84286,22.5797    c34.21533,14.47185,64.94403,35.18977,91.33258,61.57831c26.38843,26.38844,47.10638,57.11723,61.57819,91.33253    c14.98279,35.42325,22.57971,73.05261,22.57971,111.84277c0,38.79022-7.59692,76.41949-22.57971,111.84283    c-14.4718,34.21533-35.18976,64.94403-61.57819,91.33258c-26.38855,26.38843-57.11725,47.10638-91.33258,61.57819    c-35.42328,14.98279-73.05264,22.57971-111.84286,22.57971c-38.79016,0-76.41956-7.59692-111.84277-22.57971    c-34.2153-14.4718-64.94406-35.18976-91.3325-61.57819c-26.38855-26.38855-47.10648-57.11725-61.57831-91.33258    c-14.98279-35.42334-22.57971-73.05261-22.57971-111.84283c0-38.79016,7.59692-76.41953,22.57971-111.84277    c14.47183-34.2153,35.18976-64.94409,61.57831-91.33253c26.38844-26.38853,57.1172-47.10646,91.3325-61.57831    C366.6127,163.2959,404.2421,155.69897,443.03226,155.69897 M443.03226,154.69897    c-159.24207,0-288.33331,129.09122-288.33331,288.33331S283.79019,731.3656,443.03226,731.3656    S731.3656,602.27441,731.3656,443.03229S602.27441,154.69897,443.03226,154.69897L443.03226,154.69897z"/>
	</g>
	<g display="inline">
		<path d="M443.03226,231.03229c28.6203,0,56.38391,5.60512,82.51968,16.65961    c25.24469,10.67761,47.91693,25.96371,67.38702,45.43372c19.46997,19.47006,34.7561,42.14233,45.43372,67.38702    c11.0545,26.13577,16.65961,53.89938,16.65961,82.51965s-5.6051,56.38388-16.65961,82.51965    c-10.67761,25.24469-25.96375,47.91693-45.43372,67.38702c-19.47009,19.46997-42.14233,34.7561-67.38702,45.43372    c-26.13577,11.0545-53.89938,16.65961-82.51968,16.65961s-56.38391-5.6051-82.51965-16.65961    c-25.24469-10.67761-47.91693-25.96375-67.38702-45.43372c-19.47-19.47009-34.7561-42.14233-45.4337-67.38702    c-11.0545-26.13577-16.65961-53.89938-16.65961-82.51965s5.6051-56.38388,16.65961-82.51965    c10.6776-25.24469,25.9637-47.91696,45.4337-67.38702c19.47009-19.47,42.14233-34.7561,67.38702-45.43372    C386.64835,236.63741,414.41196,231.03229,443.03226,231.03229 M443.03226,230.03229    c-117.63666,0-212.99998,95.36331-212.99998,213s95.36333,213,212.99998,213s213.00003-95.36334,213.00003-213    S560.66895,230.03229,443.03226,230.03229L443.03226,230.03229z"/>
	</g>
	<g display="inline">
		<line fill="none" stroke="#000000" stroke-miterlimit="10" x1="627.86078" y1="296.27142" x2="443.03226" y2="443.03229"/>
	</g>
	<g display="inline">
		<line fill="none" stroke="#000000" stroke-miterlimit="10" x1="627.86078" y1="589.79315" x2="443.03226" y2="443.03229"/>
	</g>
	
		<ellipse display="inline" fill-rule="evenodd" clip-rule="evenodd" fill="none" stroke="#000000" stroke-miterlimit="10" cx="443.03226" cy="485.53229" rx="98" ry="116"/>
	
		<line display="inline" fill="none" stroke="#000000" stroke-miterlimit="10" x1="352.53226" y1="570.53229" x2="594.53229" y2="516.53229"/>
	
		<line display="inline" fill="none" stroke="#000000" stroke-miterlimit="10" x1="359.53226" y1="564.53229" x2="499.53226" y2="467.53229"/>
	
		<rect x="416.53226" y="483.53229" display="inline" fill="none" stroke="#000000" stroke-miterlimit="10" width="52" height="174"/>
	
		<rect x="357.53226" y="483.53229" display="inline" fill="none" stroke="#000000" stroke-miterlimit="10" width="170" height="174"/>
	<path display="inline" fill="none" stroke="#000000" stroke-miterlimit="10" d="M344.53226,631.93494   c49.25,26.51404,84-92.40265,84-134.40265h14h0.5h33.5c-1,65,15.33334,160.75,64.72293,134.55011l4.7771,10.44989l-71.50003,25.5   l-111-10.5l-25.5-20L344.53226,631.93494z"/>
	<g display="inline">
		<path d="M443.03232,208.03227h-0.00006c34.31671,0.00113,67.39301,7.23363,98.31027,21.49651    c29.87396,13.78162,56.10223,33.32874,77.95624,58.09836c1.94,2.19876,2.86627,5.01355,2.60822,7.92593    c-0.25623,2.89188-1.64923,5.47858-3.92413,7.28494c-1.86884,1.48389-4.11517,2.26825-6.49597,2.26825    c-3.03162,0-5.9267-1.31049-7.94275-3.59555c-40.64099-46.06107-99.14536-72.47844-160.51187-72.47844    c-57.24316,0-111.03796,22.31462-151.47473,62.83318c-40.4355,40.5174-62.64055,94.35995-62.5248,151.60919    c0.23813,117.75552,96.28004,213.55667,214.09346,213.55667c1.48389,0,2.98706-0.01569,4.46777-0.04669    c59.63727-1.24756,116.50644-27.67877,156.02573-72.51648c1.97339-2.23889,4.82562-3.52295,7.8255-3.52295    c2.36304,0,4.6853,0.81055,6.53894,2.28235c2.27405,1.80573,3.6676,4.39349,3.92407,7.28668    c0.25787,2.90967-0.66681,5.72131-2.60376,7.91681c-21.85547,24.77295-48.08411,44.32214-77.95746,58.10443    c-30.91782,14.26422-63.99564,21.49683-98.31473,21.49683c-31.68359,0-62.42206-6.19745-91.36145-18.42023    c-27.95258-11.80597-53.0654-28.7099-74.6409-50.24219c-21.57344-21.53015-38.52699-46.60675-50.38969-74.53302    c-12.27948-28.90732-18.53992-59.62271-18.60736-91.29303c-0.13324-62.53073,23.82758-121.35693,67.46855-165.64218    c43.64566-44.28993,102.11179-69.09712,164.62839-69.85181C441.10123,208.03815,442.06351,208.03227,443.03232,208.03227     M443.03232,207.0323c-0.97278-0.00005-1.93909,0.00581-2.91461,0.01759    c-129.8197,1.56712-233.3615,106.66711-233.08485,236.49606c0.27713,130.10291,105.8315,235.48633,235.9994,235.48633    c70.50388,0,133.77853-30.92352,177.02206-79.9397c4.36725-4.95026,3.72144-12.54315-1.44836-16.64813l-0.00006-0.00006    c-2.11169-1.67682-4.64447-2.49921-7.16071-2.49921c-3.17566,0-6.3255,1.30872-8.57568,3.86169    c-38.10059,43.22815-93.4548,70.88434-155.29648,72.17798c-1.48071,0.03094-2.97235,0.04651-4.44678,0.04651    c-116.36816,0-212.85713-95.67413-213.09352-212.55872c-0.23831-117.83896,95.21614-213.44038,212.99953-213.44038    c63.62848,0,120.73306,27.90599,159.76199,72.14006c2.28583,2.59067,5.47949,3.93393,8.69263,3.93393    c2.50031,0,5.01233-0.81329,7.1178-2.48514l0.00171-0.00131c5.17249-4.10718,5.81201-11.7016,1.44226-16.6543    C576.80688,237.9548,513.52997,207.03458,443.03232,207.0323L443.03232,207.0323z"/>
	</g>
	<path display="inline" fill-rule="evenodd" clip-rule="evenodd" fill="none" stroke="#000000" stroke-miterlimit="10" d="   M533.51642,530.1474c4.83923-13.73486,7.51587-28.80426,7.51587-44.61511c0-64.06506-43.87613-116-98.00003-116   s-98,51.93494-98,116c0,31.28711,10.46826,59.67676,27.48035,80.54156L533.51642,530.1474z"/>
	<path display="inline" fill-rule="evenodd" clip-rule="evenodd" fill="none" stroke="#000000" stroke-miterlimit="10" d="   M499.03015,537.84265c24.33777-5.43073,41.91687-26.90012,42.00134-51.83627c0.00049-0.15796,0.00079-0.31598,0.00079-0.47409   c0-64.06506-43.87613-116-98.00003-116s-98,51.93494-98,116c0,13.74509,2.02042,26.93097,5.72849,39.16528   c7.42551,24.49957,32.74561,38.92316,57.73123,33.34784L499.03015,537.84265z"/>
	<path display="inline" fill-rule="evenodd" clip-rule="evenodd" fill="none" stroke="#000000" stroke-miterlimit="10" d="   M448.53226,510.19894c-28.45215,6.02347-49.81116,19.7551-58.58261,31.75797c-6.08405,8.32538-2.75317,16.94897,6.07837,17.2511   c4.10696,0.1405,8.28979-0.2312,12.46396-1.1626l90.53815-20.20276c7.56784-1.68866,14.47952-4.93109,20.41702-9.34393   c1.20807-0.89783,1.33075-2.6662,0.25842-3.72247C511.99545,517.18146,496.94894,499.94894,448.53226,510.19894z"/>
	
		<ellipse transform="matrix(0.62184 -0.78314 0.78314 0.62184 -172.8287 447.88336)" display="inline" fill-rule="evenodd" clip-rule="evenodd" fill="none" stroke="#000000" stroke-miterlimit="10" cx="377.35696" cy="402.90121" rx="18" ry="21.97939"/>
	<g display="inline">
		<line fill="none" stroke="#000000" stroke-miterlimit="10" x1="813.88361" y1="208.98508" x2="711.88361" y2="-190.01492"/>
	</g>
	<g display="inline">
		<line fill="none" stroke="#000000" stroke-miterlimit="10" x1="833.70581" y1="207.59787" x2="731.70581" y2="-191.40213"/>
	</g>
	<g display="inline">
		<line fill="none" stroke="#000000" stroke-miterlimit="10" x1="823.8656" y1="216.19894" x2="721.8656" y2="-182.80106"/>
	</g>
	<g display="inline">
		<line fill="none" stroke="#000000" stroke-miterlimit="10" x1="808.53229" y1="219.86562" x2="706.53229" y2="-179.13438"/>
	</g>
	<g display="inline">
		<line fill="none" stroke="#000000" stroke-miterlimit="10" x1="793.26013" y1="207.16388" x2="691.26013" y2="-191.83612"/>
	</g>
	
		<line display="inline" fill="none" stroke="#000000" stroke-miterlimit="10" x1="620.03229" y1="257.03229" x2="684.03229" y2="-191.96771"/>
	
		<ellipse transform="matrix(0.96875 -0.24802 0.24802 0.96875 4.35681 196.25638)" display="inline" fill-rule="evenodd" clip-rule="evenodd" fill="none" stroke="#000000" stroke-miterlimit="10" cx="781.10291" cy="80.8364" rx="19.53754" ry="6.93843"/>
	
		<ellipse transform="matrix(0.96875 -0.24802 0.24802 0.96875 -8.77197 201.43872)" display="inline" fill-rule="evenodd" clip-rule="evenodd" fill="none" stroke="#000000" stroke-miterlimit="10" cx="795.10675" cy="135.53453" rx="19.53754" ry="6.93843"/>
	
		<ellipse transform="matrix(0.96875 -0.24802 0.24802 0.96875 7.65434 194.96155)" display="inline" fill-rule="evenodd" clip-rule="evenodd" fill="none" stroke="#000000" stroke-miterlimit="10" cx="777.61261" cy="67.10135" rx="12.85858" ry="4.56651"/>
	
		<ellipse transform="matrix(0.96875 -0.24802 0.24802 0.96875 -16.37897 204.43921)" display="inline" fill-rule="evenodd" clip-rule="evenodd" fill="none" stroke="#000000" stroke-miterlimit="10" cx="803.21191" cy="167.2263" rx="7.88073" ry="2.79871"/>
	
		<ellipse transform="matrix(0.96875 -0.24802 0.24802 0.96875 -17.21341 204.76859)" display="inline" fill-rule="evenodd" clip-rule="evenodd" fill="none" stroke="#000000" stroke-miterlimit="10" cx="804.10199" cy="170.70284" rx="7.88073" ry="2.79871"/>
	
		<ellipse transform="matrix(0.96875 -0.24802 0.24802 0.96875 -20.29298 205.98419)" display="inline" fill-rule="evenodd" clip-rule="evenodd" fill="none" stroke="#000000" stroke-miterlimit="10" cx="807.38678" cy="183.53316" rx="7.88073" ry="2.79871"/>
	
		<ellipse transform="matrix(0.96875 -0.24802 0.24802 0.96875 -21.12742 206.31357)" display="inline" fill-rule="evenodd" clip-rule="evenodd" fill="none" stroke="#000000" stroke-miterlimit="10" cx="808.27686" cy="187.00969" rx="7.88073" ry="2.79871"/>
	
		<ellipse transform="matrix(0.96875 -0.24802 0.24802 0.96875 -25.04143 207.85855)" display="inline" fill-rule="evenodd" clip-rule="evenodd" fill="none" stroke="#000000" stroke-miterlimit="10" cx="812.45178" cy="203.31654" rx="7.88073" ry="2.79871"/>
	
		<ellipse transform="matrix(0.96875 -0.24802 0.24802 0.96875 -25.87588 208.18793)" display="inline" fill-rule="evenodd" clip-rule="evenodd" fill="none" stroke="#000000" stroke-miterlimit="10" cx="813.34186" cy="206.79306" rx="5.83992" ry="2.07395"/>
	<path display="inline" fill-rule="evenodd" clip-rule="evenodd" fill="none" stroke="#000000" stroke-miterlimit="10" d="   M770.3656,72.03228c-28.32294-112.2583-37.33331-126-57.33331-130s-73.4986,34.57958-66.66669,185.33333   c5.271,116.31087,15.23987,118.53918,36.03137,154.86784"/>
	<path display="inline" fill-rule="evenodd" clip-rule="evenodd" fill="none" stroke="#000000" stroke-miterlimit="10" d="   M785.69891,68.03228C755.0528-52.98049,739.52216-101.03579,698.70276-93.76949   c-36.33716,6.46844-57.93347,56.7667-67.93347,101.43336c-10.06659,44.96415,7.29419,220.65193-39.22137,188.17683"/>
	<path display="inline" fill-rule="evenodd" clip-rule="evenodd" fill="none" stroke="#000000" stroke-miterlimit="10" d="   M776.47998,73.28228c-17.69769-13-26.69769-16.75-18.94769-22s29.02887,4.75,30.61218-5.25s-14.40643-12.5-45.88434-14.5   c-31.47784-2-80.43005-44.98159-67.82898-62.9908"/>
	<path display="inline" fill-rule="evenodd" clip-rule="evenodd" fill="none" stroke="#000000" stroke-miterlimit="10" d="   M772.53229,72.84478c-14.31256-9.3125-22.06256-12.5-21.25-18.5625c0.81244-6.0625,7.46545-9.43578,20.5-7.0625   c16.36218,2.97916,16.46936-6.85417,1.75-8.625c-11.03925-1.32809-47.85602,4.67739-80-19.39584   c-32.14404-24.07322-37.5-12.83333-41.5,13.33334"/>
</g>
</svg>
