<svg version="1.1" viewBox="0.0 0.0 1043.9238845144357 489.04461942257217" fill="none" stroke="none" stroke-linecap="square" stroke-miterlimit="10" xmlns:xlink="http://www.w3.org/1999/xlink" xmlns="http://www.w3.org/2000/svg"><clipPath id="p.0"><path d="m0 0l1043.9238 0l0 489.04462l-1043.9238 0l0 -489.04462z" clip-rule="nonzero"/></clipPath><g clip-path="url(#p.0)"><path fill="#f8f5ea" d="m0 0l1043.9238 0l0 489.04462l-1043.9238 0z" fill-rule="evenodd"/><defs><linearGradient id="p.1" gradientUnits="userSpaceOnUse" gradientTransform="matrix(3.1846601651837196 0.0 0.0 3.1846601651837196 0.0 0.0)" spreadMethod="pad" x1="158.46025453027946" y1="48.671225278762556" x2="155.27559436517546" y2="48.671202743117"><stop offset="0.0" stop-color="#999999"/><stop offset="1.0" stop-color="#cfe2f3"/></linearGradient></defs><path fill="url(#p.1)" d="m494.5 156.26903l0 0c0 0.7001343 2.2702942 1.2677155 5.070862 1.2677155c2.8005676 0 5.070862 -0.5675812 5.070862 -1.2677155l0 40.83464c0 0.70014954 -2.2702942 1.2677155 -5.070862 1.2677155c-2.8005676 0 -5.070862 -0.5675659 -5.070862 -1.2677155z" fill-rule="evenodd"/><defs><linearGradient id="p.2" gradientUnits="userSpaceOnUse" gradientTransform="matrix(3.1846601651837196 0.0 0.0 3.1846601651837196 0.0 0.0)" spreadMethod="pad" x1="158.46025453027946" y1="48.671225278762556" x2="155.27559436517546" y2="48.671202743117"><stop offset="0.0" stop-color="#999999"/><stop offset="1.0" stop-color="#cfe2f3"/></linearGradient></defs><path fill="url(#p.2)" d="m494.5 156.26903l0 0c0 -0.7001343 2.2702942 -1.2677155 5.070862 -1.2677155c2.8005676 0 5.070862 0.5675812 5.070862 1.2677155l0 0c0 0.7001343 -2.2702942 1.2677155 -5.070862 1.2677155c-2.8005676 0 -5.070862 -0.5675812 -5.070862 -1.2677155z" fill-rule="evenodd"/><path fill="#000000" fill-opacity="0.0" d="m504.64172 156.26903l0 0c0 0.7001343 -2.2702942 1.2677155 -5.070862 1.2677155c-2.8005676 0 -5.070862 -0.5675812 -5.070862 -1.2677155l0 0c0 -0.7001343 2.2702942 -1.2677155 5.070862 -1.2677155c2.8005676 0 5.070862 0.5675812 5.070862 1.2677155l0 40.83464c0 0.70014954 -2.2702942 1.2677155 -5.070862 1.2677155c-2.8005676 0 -5.070862 -0.5675659 -5.070862 -1.2677155l0 -40.83464" fill-rule="evenodd"/><path fill="#ffffff" fill-opacity="0.4" d="m494.5 156.26903l0 0c0 -0.7001343 2.2702942 -1.2677155 5.070862 -1.2677155c2.8005676 0 5.070862 0.5675812 5.070862 1.2677155l0 0c0 0.7001343 -2.2702942 1.2677155 -5.070862 1.2677155c-2.8005676 0 -5.070862 -0.5675812 -5.070862 -1.2677155z" fill-rule="evenodd"/><path stroke="#000000" stroke-width="1.0" stroke-linejoin="round" stroke-linecap="butt" d="m504.64172 156.26903l0 0c0 0.7001343 -2.2702942 1.2677155 -5.070862 1.2677155c-2.8005676 0 -5.070862 -0.5675812 -5.070862 -1.2677155l0 0c0 -0.7001343 2.2702942 -1.2677155 5.070862 -1.2677155c2.8005676 0 5.070862 0.5675812 5.070862 1.2677155l0 40.83464c0 0.70014954 -2.2702942 1.2677155 -5.070862 1.2677155c-2.8005676 0 -5.070862 -0.5675659 -5.070862 -1.2677155l0 -40.83464" fill-rule="evenodd"/><defs><linearGradient id="p.3" gradientUnits="userSpaceOnUse" gradientTransform="matrix(3.1846601651837196 0.0 0.0 3.1846601651837196 0.0 0.0)" spreadMethod="pad" x1="174.63152472200147" y1="48.671225278762556" x2="171.44686455689748" y2="48.671202743117"><stop offset="0.0" stop-color="#999999"/><stop offset="1.0" stop-color="#cfe2f3"/></linearGradient></defs><path fill="url(#p.3)" d="m546.0 156.26903l0 0c0 0.7001343 2.2703247 1.2677155 5.070862 1.2677155c2.800537 0 5.070862 -0.5675812 5.070862 -1.2677155l0 40.83464c0 0.70014954 -2.2703247 1.2677155 -5.070862 1.2677155c-2.800537 0 -5.070862 -0.5675659 -5.070862 -1.2677155z" fill-rule="evenodd"/><defs><linearGradient id="p.4" gradientUnits="userSpaceOnUse" gradientTransform="matrix(3.1846601651837196 0.0 0.0 3.1846601651837196 0.0 0.0)" spreadMethod="pad" x1="174.63152472200147" y1="48.671225278762556" x2="171.44686455689748" y2="48.671202743117"><stop offset="0.0" stop-color="#999999"/><stop offset="1.0" stop-color="#cfe2f3"/></linearGradient></defs><path fill="url(#p.4)" d="m546.0 156.26903l0 0c0 -0.7001343 2.2703247 -1.2677155 5.070862 -1.2677155c2.800537 0 5.070862 0.5675812 5.070862 1.2677155l0 0c0 0.7001343 -2.2703247 1.2677155 -5.070862 1.2677155c-2.800537 0 -5.070862 -0.5675812 -5.070862 -1.2677155z" fill-rule="evenodd"/><path fill="#000000" fill-opacity="0.0" d="m556.1417 156.26903l0 0c0 0.7001343 -2.2703247 1.2677155 -5.070862 1.2677155c-2.800537 0 -5.070862 -0.5675812 -5.070862 -1.2677155l0 0c0 -0.7001343 2.2703247 -1.2677155 5.070862 -1.2677155c2.800537 0 5.070862 0.5675812 5.070862 1.2677155l0 40.83464c0 0.70014954 -2.2703247 1.2677155 -5.070862 1.2677155c-2.800537 0 -5.070862 -0.5675659 -5.070862 -1.2677155l0 -40.83464" fill-rule="evenodd"/><path fill="#ffffff" fill-opacity="0.4" d="m546.0 156.26903l0 0c0 -0.7001343 2.2703247 -1.2677155 5.070862 -1.2677155c2.800537 0 5.070862 0.5675812 5.070862 1.2677155l0 0c0 0.7001343 -2.2703247 1.2677155 -5.070862 1.2677155c-2.800537 0 -5.070862 -0.5675812 -5.070862 -1.2677155z" fill-rule="evenodd"/><path stroke="#000000" stroke-width="1.0" stroke-linejoin="round" stroke-linecap="butt" d="m556.1417 156.26903l0 0c0 0.7001343 -2.2703247 1.2677155 -5.070862 1.2677155c-2.800537 0 -5.070862 -0.5675812 -5.070862 -1.2677155l0 0c0 -0.7001343 2.2703247 -1.2677155 5.070862 -1.2677155c2.800537 0 5.070862 0.5675812 5.070862 1.2677155l0 40.83464c0 0.70014954 -2.2703247 1.2677155 -5.070862 1.2677155c-2.800537 0 -5.070862 -0.5675659 -5.070862 -1.2677155l0 -40.83464" fill-rule="evenodd"/><defs><linearGradient id="p.5" gradientUnits="userSpaceOnUse" gradientTransform="matrix(0.0 6.585655467812083 -6.585655467812083 0.0 0.0 0.0)" spreadMethod="pad" x1="53.00962722852249" y1="-38.6262139359053" x2="46.42397176087602" y2="-38.626260640252596"><stop offset="0.0" stop-color="#999999"/><stop offset="1.0" stop-color="#cfe2f3"/></linearGradient></defs><path fill="url(#p.5)" d="m248.95767 305.73227l0 0c-2.9940796 0 -5.4212646 9.70874 -5.4212646 21.685059c0 11.976318 2.427185 21.685028 5.4212646 21.685028l-94.82677 0c-2.9940796 0 -5.4212646 -9.70871 -5.4212646 -21.685028c0 -11.976318 2.427185 -21.685059 5.4212646 -21.685059z" fill-rule="evenodd"/><defs><linearGradient id="p.6" gradientUnits="userSpaceOnUse" gradientTransform="matrix(0.0 6.585655467812083 -6.585655467812083 0.0 0.0 0.0)" spreadMethod="pad" x1="53.00962722852249" y1="-38.6262139359053" x2="46.42397176087602" y2="-38.626260640252596"><stop offset="0.0" stop-color="#999999"/><stop offset="1.0" stop-color="#cfe2f3"/></linearGradient></defs><path fill="url(#p.6)" d="m248.95767 305.73227l0 0c2.9940796 0 5.4212646 9.70874 5.4212646 21.685059c0 11.976318 -2.427185 21.685028 -5.4212646 21.685028l0 0c-2.9940796 0 -5.4212646 -9.70871 -5.4212646 -21.685028c0 -11.976318 2.427185 -21.685059 5.4212646 -21.685059z" fill-rule="evenodd"/><path fill="#000000" fill-opacity="0.0" d="m248.95767 349.10236l0 0c-2.9940796 0 -5.4212646 -9.70871 -5.4212646 -21.685028c0 -11.976318 2.427185 -21.685059 5.4212646 -21.685059l0 0c2.9940796 0 5.4212646 9.70874 5.4212646 21.685059c0 11.976318 -2.427185 21.685028 -5.4212646 21.685028l-94.82677 0c-2.9940796 0 -5.4212646 -9.70871 -5.4212646 -21.685028c0 -11.976318 2.427185 -21.685059 5.4212646 -21.685059l94.82677 0" fill-rule="evenodd"/><path fill="#ffffff" fill-opacity="0.4" d="m248.95767 305.73227l0 0c2.9940796 0 5.4212646 9.70874 5.4212646 21.685059c0 11.976318 -2.427185 21.685028 -5.4212646 21.685028l0 0c-2.9940796 0 -5.4212646 -9.70871 -5.4212646 -21.685028c0 -11.976318 2.427185 -21.685059 5.4212646 -21.685059z" fill-rule="evenodd"/><path stroke="#000000" stroke-width="1.0" stroke-linejoin="round" stroke-linecap="butt" d="m248.95767 349.10236l0 0c-2.9940796 0 -5.4212646 -9.70871 -5.4212646 -21.685028c0 -11.976318 2.427185 -21.685059 5.4212646 -21.685059l0 0c2.9940796 0 5.4212646 9.70874 5.4212646 21.685059c0 11.976318 -2.427185 21.685028 -5.4212646 21.685028l-94.82677 0c-2.9940796 0 -5.4212646 -9.70871 -5.4212646 -21.685028c0 -11.976318 2.427185 -21.685059 5.4212646 -21.685059l94.82677 0" fill-rule="evenodd"/><defs><linearGradient id="p.7" gradientUnits="userSpaceOnUse" gradientTransform="matrix(14.428834775495432 0.0 0.0 14.428834775495432 0.0 0.0)" spreadMethod="pad" x1="30.93834023473582" y1="29.90637250517217" x2="30.938499401291" y2="15.477537730554632"><stop offset="0.0" stop-color="#999999"/><stop offset="1.0" stop-color="#cfe2f3"/></linearGradient></defs><path fill="url(#p.7)" d="m238.21523 327.41733l0 0c0 -57.489807 46.60469 -104.0945 104.0945 -104.0945l0 0c27.607574 0 54.08441 10.967072 73.605896 30.488571c19.521515 19.521515 30.488586 45.998352 30.488586 73.60593l0 0c0 57.489807 -46.604706 104.09448 -104.09448 104.09448l0 0c-57.489807 0 -104.0945 -46.604675 -104.0945 -104.09448z" fill-rule="evenodd"/><path stroke="#000000" stroke-width="1.0" stroke-linejoin="round" stroke-linecap="butt" d="m238.21523 327.41733l0 0c0 -57.489807 46.60469 -104.0945 104.0945 -104.0945l0 0c27.607574 0 54.08441 10.967072 73.605896 30.488571c19.521515 19.521515 30.488586 45.998352 30.488586 73.60593l0 0c0 57.489807 -46.604706 104.09448 -104.09448 104.09448l0 0c-57.489807 0 -104.0945 -46.604675 -104.0945 -104.09448z" fill-rule="evenodd"/><defs><linearGradient id="p.8" gradientUnits="userSpaceOnUse" gradientTransform="matrix(7.930870322350099 0.0 0.0 7.930870322350099 0.0 0.0)" spreadMethod="pad" x1="47.23043989748303" y1="11.53438230239616" x2="39.29956957534628" y2="11.534324128691196"><stop offset="0.0" stop-color="#999999"/><stop offset="1.0" stop-color="#cfe2f3"/></linearGradient></defs><path fill="url(#p.8)" d="m311.67978 99.3399l0 0c0 4.3421707 14.080139 7.8622055 31.448822 7.8622055c17.368713 0 31.448822 -3.5200348 31.448822 -7.8622055l0 128.49606c0 4.3421783 -14.080109 7.862213 -31.448822 7.862213c-17.368683 0 -31.448822 -3.5200348 -31.448822 -7.862213z" fill-rule="evenodd"/><defs><linearGradient id="p.9" gradientUnits="userSpaceOnUse" gradientTransform="matrix(7.930870322350099 0.0 0.0 7.930870322350099 0.0 0.0)" spreadMethod="pad" x1="47.23043989748303" y1="11.53438230239616" x2="39.29956957534628" y2="11.534324128691196"><stop offset="0.0" stop-color="#999999"/><stop offset="1.0" stop-color="#cfe2f3"/></linearGradient></defs><path fill="url(#p.9)" d="m311.67978 99.3399l0 0c0 -4.3421783 14.080139 -7.8622055 31.448822 -7.8622055c17.368713 0 31.448822 3.5200272 31.448822 7.8622055l0 0c0 4.3421707 -14.080109 7.8622055 -31.448822 7.8622055c-17.368683 0 -31.448822 -3.5200348 -31.448822 -7.8622055z" fill-rule="evenodd"/><path fill="#000000" fill-opacity="0.0" d="m374.57742 99.3399l0 0c0 4.3421707 -14.080109 7.8622055 -31.448822 7.8622055c-17.368683 0 -31.448822 -3.5200348 -31.448822 -7.8622055l0 0c0 -4.3421783 14.080139 -7.8622055 31.448822 -7.8622055c17.368713 0 31.448822 3.5200272 31.448822 7.8622055l0 128.49606c0 4.3421783 -14.080109 7.862213 -31.448822 7.862213c-17.368683 0 -31.448822 -3.5200348 -31.448822 -7.862213l0 -128.49606" fill-rule="evenodd"/><path fill="#ffffff" fill-opacity="0.4" d="m311.67978 99.3399l0 0c0 -4.3421783 14.080139 -7.8622055 31.448822 -7.8622055c17.368713 0 31.448822 3.5200272 31.448822 7.8622055l0 0c0 4.3421707 -14.080109 7.8622055 -31.448822 7.8622055c-17.368683 0 -31.448822 -3.5200348 -31.448822 -7.8622055z" fill-rule="evenodd"/><path stroke="#000000" stroke-width="1.0" stroke-linejoin="round" stroke-linecap="butt" d="m374.57742 99.3399l0 0c0 4.3421707 -14.080109 7.8622055 -31.448822 7.8622055c-17.368683 0 -31.448822 -3.5200348 -31.448822 -7.8622055l0 0c0 -4.3421783 14.080139 -7.8622055 31.448822 -7.8622055c17.368713 0 31.448822 3.5200272 31.448822 7.8622055l0 128.49606c0 4.3421783 -14.080109 7.862213 -31.448822 7.862213c-17.368683 0 -31.448822 -3.5200348 -31.448822 -7.862213l0 -128.49606" fill-rule="evenodd"/><path fill="#3d85c6" d="m314.4464 165.47092l0 0c0 0.9414978 12.839203 1.7047272 28.677155 1.7047272c15.837952 0 28.677155 -0.76322937 28.677155 -1.7047272l0 10.228348c0 0.9414978 -12.839203 1.7047272 -28.677155 1.7047272c-15.837952 0 -28.677155 -0.76322937 -28.677155 -1.7047272z" fill-rule="evenodd"/><path fill="#8ab5dc" d="m314.4464 165.47092l0 0c0 -0.9414978 12.839203 -1.7047272 28.677155 -1.7047272c15.837952 0 28.677155 0.76322937 28.677155 1.7047272l0 0c0 0.9414978 -12.839203 1.7047272 -28.677155 1.7047272c-15.837952 0 -28.677155 -0.76322937 -28.677155 -1.7047272z" fill-rule="evenodd"/><path fill="#000000" fill-opacity="0.0" d="m371.80072 165.47092l0 0c0 0.9414978 -12.839203 1.7047272 -28.677155 1.7047272c-15.837952 0 -28.677155 -0.76322937 -28.677155 -1.7047272l0 0c0 -0.9414978 12.839203 -1.7047272 28.677155 -1.7047272c15.837952 0 28.677155 0.76322937 28.677155 1.7047272l0 10.228348c0 0.9414978 -12.839203 1.7047272 -28.677155 1.7047272c-15.837952 0 -28.677155 -0.76322937 -28.677155 -1.7047272l0 -10.228348" fill-rule="evenodd"/><path stroke="#000000" stroke-width="1.0" stroke-linejoin="round" stroke-linecap="butt" d="m371.80072 165.47092l0 0c0 0.9414978 -12.839203 1.7047272 -28.677155 1.7047272c-15.837952 0 -28.677155 -0.76322937 -28.677155 -1.7047272l0 0c0 -0.9414978 12.839203 -1.7047272 28.677155 -1.7047272c15.837952 0 28.677155 0.76322937 28.677155 1.7047272l0 10.228348c0 0.9414978 -12.839203 1.7047272 -28.677155 1.7047272c-15.837952 0 -28.677155 -0.76322937 -28.677155 -1.7047272l0 -10.228348" fill-rule="evenodd"/><path fill="#000000" fill-opacity="0.0" d="m343.1286 177.40158l-0.8188782 254.11023" fill-rule="evenodd"/><path stroke="#a27556" stroke-width="8.0" stroke-linejoin="round" stroke-linecap="butt" d="m343.1286 177.40158l-0.8188782 254.11023" fill-rule="evenodd"/><defs><linearGradient id="p.10" gradientUnits="userSpaceOnUse" gradientTransform="matrix(0.0 4.708866439699927 -4.708866439699927 0.0 0.0 0.0)" spreadMethod="pad" x1="30.98306296542121" y1="-84.8627695484238" x2="26.27419652585015" y2="-84.86280438525701"><stop offset="0.0" stop-color="#999999"/><stop offset="1.0" stop-color="#cfe2f3"/></linearGradient></defs><path fill="url(#p.10)" d="m396.83582 123.72168l0 0c-1.5307312 0 -2.7716675 4.9636536 -2.7716675 11.086609c0 6.1229706 1.2409363 11.086624 2.7716675 11.086624l-21.448822 0c-1.5307312 0 -2.771637 -4.9636536 -2.771637 -11.086624c0 -6.1229553 1.2409058 -11.086609 2.771637 -11.086609z" fill-rule="evenodd"/><defs><linearGradient id="p.11" gradientUnits="userSpaceOnUse" gradientTransform="matrix(0.0 4.708866439699927 -4.708866439699927 0.0 0.0 0.0)" spreadMethod="pad" x1="30.98306296542121" y1="-84.8627695484238" x2="26.27419652585015" y2="-84.86280438525701"><stop offset="0.0" stop-color="#999999"/><stop offset="1.0" stop-color="#cfe2f3"/></linearGradient></defs><path fill="url(#p.11)" d="m396.83582 123.72168l0 0c1.5307312 0 2.7716675 4.9636536 2.7716675 11.086609c0 6.1229706 -1.2409363 11.086624 -2.7716675 11.086624l0 0c-1.5307312 0 -2.7716675 -4.9636536 -2.7716675 -11.086624c0 -6.1229553 1.2409363 -11.086609 2.7716675 -11.086609z" fill-rule="evenodd"/><path fill="#000000" fill-opacity="0.0" d="m396.83582 145.89491l0 0c-1.5307312 0 -2.7716675 -4.9636536 -2.7716675 -11.086624c0 -6.1229553 1.2409363 -11.086609 2.7716675 -11.086609l0 0c1.5307312 0 2.7716675 4.9636536 2.7716675 11.086609c0 6.1229706 -1.2409363 11.086624 -2.7716675 11.086624l-21.448822 0c-1.5307312 0 -2.771637 -4.9636536 -2.771637 -11.086624c0 -6.1229553 1.2409058 -11.086609 2.771637 -11.086609l21.448822 0" fill-rule="evenodd"/><path fill="#ffffff" fill-opacity="0.4" d="m396.83582 123.72168l0 0c1.5307312 0 2.7716675 4.9636536 2.7716675 11.086609c0 6.1229706 -1.2409363 11.086624 -2.7716675 11.086624l0 0c-1.5307312 0 -2.7716675 -4.9636536 -2.7716675 -11.086624c0 -6.1229553 1.2409363 -11.086609 2.7716675 -11.086609z" fill-rule="evenodd"/><path stroke="#000000" stroke-width="1.0" stroke-linejoin="round" stroke-linecap="butt" d="m396.83582 145.89491l0 0c-1.5307312 0 -2.7716675 -4.9636536 -2.7716675 -11.086624c0 -6.1229553 1.2409363 -11.086609 2.7716675 -11.086609l0 0c1.5307312 0 2.7716675 4.9636536 2.7716675 11.086609c0 6.1229706 -1.2409363 11.086624 -2.7716675 11.086624l-21.448822 0c-1.5307312 0 -2.771637 -4.9636536 -2.771637 -11.086624c0 -6.1229553 1.2409058 -11.086609 2.771637 -11.086609l21.448822 0" fill-rule="evenodd"/><defs><linearGradient id="p.12" gradientUnits="userSpaceOnUse" gradientTransform="matrix(0.0 6.585880423254249 -6.585880423254249 0.0 0.0 0.0)" spreadMethod="pad" x1="23.853394782324447" y1="-138.15265611974124" x2="17.267514359258605" y2="-138.15270593601005"><stop offset="0.0" stop-color="#999999"/><stop offset="1.0" stop-color="#cfe2f3"/></linearGradient></defs><path fill="url(#p.12)" d="m904.4356 113.72179l0 0c-2.9940796 0 -5.4212646 9.708717 -5.4212646 21.685043c0 11.976318 2.427185 21.685028 5.4212646 21.685028l-505.31494 0c-2.9940796 0 -5.4212646 -9.70871 -5.4212646 -21.685028c0 -11.976326 2.427185 -21.685043 5.4212646 -21.685043z" fill-rule="evenodd"/><defs><linearGradient id="p.13" gradientUnits="userSpaceOnUse" gradientTransform="matrix(0.0 6.585880423254249 -6.585880423254249 0.0 0.0 0.0)" spreadMethod="pad" x1="23.853394782324447" y1="-138.15265611974124" x2="17.267514359258605" y2="-138.15270593601005"><stop offset="0.0" stop-color="#999999"/><stop offset="1.0" stop-color="#cfe2f3"/></linearGradient></defs><path fill="url(#p.13)" d="m904.4356 113.72179l0 0c2.9940796 0 5.4212646 9.708717 5.4212646 21.685043c0 11.976318 -2.427185 21.685028 -5.4212646 21.685028l0 0c-2.9940796 0 -5.4212646 -9.70871 -5.4212646 -21.685028c0 -11.976326 2.427185 -21.685043 5.4212646 -21.685043z" fill-rule="evenodd"/><path fill="#000000" fill-opacity="0.0" d="m904.4356 157.09186l0 0c-2.9940796 0 -5.4212646 -9.70871 -5.4212646 -21.685028c0 -11.976326 2.427185 -21.685043 5.4212646 -21.685043l0 0c2.9940796 0 5.4212646 9.708717 5.4212646 21.685043c0 11.976318 -2.427185 21.685028 -5.4212646 21.685028l-505.31494 0c-2.9940796 0 -5.4212646 -9.70871 -5.4212646 -21.685028c0 -11.976326 2.427185 -21.685043 5.4212646 -21.685043l505.31494 0" fill-rule="evenodd"/><path fill="#ffffff" fill-opacity="0.4" d="m904.4356 113.72179l0 0c2.9940796 0 5.4212646 9.708717 5.4212646 21.685043c0 11.976318 -2.427185 21.685028 -5.4212646 21.685028l0 0c-2.9940796 0 -5.4212646 -9.70871 -5.4212646 -21.685028c0 -11.976326 2.427185 -21.685043 5.4212646 -21.685043z" fill-rule="evenodd"/><path stroke="#000000" stroke-width="1.0" stroke-linejoin="round" stroke-linecap="butt" d="m904.4356 157.09186l0 0c-2.9940796 0 -5.4212646 -9.70871 -5.4212646 -21.685028c0 -11.976326 2.427185 -21.685043 5.4212646 -21.685043l0 0c2.9940796 0 5.4212646 9.708717 5.4212646 21.685043c0 11.976318 -2.427185 21.685028 -5.4212646 21.685028l-505.31494 0c-2.9940796 0 -5.4212646 -9.70871 -5.4212646 -21.685028c0 -11.976326 2.427185 -21.685043 5.4212646 -21.685043l505.31494 0" fill-rule="evenodd"/><defs><linearGradient id="p.14" gradientUnits="userSpaceOnUse" gradientTransform="matrix(0.0 9.550549095591025 -9.550549095591025 0.0 0.0 0.0)" spreadMethod="pad" x1="38.91365541970487" y1="-50.55092415870906" x2="29.363106324360967" y2="-50.550992863447654"><stop offset="0.0" stop-color="#999999"/><stop offset="1.0" stop-color="#cfe2f3"/></linearGradient></defs><path fill="url(#p.14)" d="m476.0883 280.4338l0 0c-3.7007446 0 -6.700775 20.41864 -6.700775 45.606293c0 25.187683 3.0000305 45.606293 6.700775 45.606293l-40.204712 0c-3.7007446 0 -6.7008057 -20.41861 -6.7008057 -45.606293c0 -25.187653 3.000061 -45.606293 6.7008057 -45.606293z" fill-rule="evenodd"/><defs><linearGradient id="p.15" gradientUnits="userSpaceOnUse" gradientTransform="matrix(0.0 9.550549095591025 -9.550549095591025 0.0 0.0 0.0)" spreadMethod="pad" x1="38.91365541970487" y1="-50.55092415870906" x2="29.363106324360967" y2="-50.550992863447654"><stop offset="0.0" stop-color="#999999"/><stop offset="1.0" stop-color="#cfe2f3"/></linearGradient></defs><path fill="url(#p.15)" d="m476.0883 280.4338l0 0c3.7007446 0 6.7008057 20.41864 6.7008057 45.606293c0 25.187683 -3.000061 45.606293 -6.7008057 45.606293l0 0c-3.7007446 0 -6.700775 -20.41861 -6.700775 -45.606293c0 -25.187653 3.0000305 -45.606293 6.700775 -45.606293z" fill-rule="evenodd"/><path fill="#000000" fill-opacity="0.0" d="m476.0883 371.6464l0 0c-3.7007446 0 -6.700775 -20.41861 -6.700775 -45.606293c0 -25.187653 3.0000305 -45.606293 6.700775 -45.606293l0 0c3.7007446 0 6.7008057 20.41864 6.7008057 45.606293c0 25.187683 -3.000061 45.606293 -6.7008057 45.606293l-40.204712 0c-3.7007446 0 -6.7008057 -20.41861 -6.7008057 -45.606293c0 -25.187653 3.000061 -45.606293 6.7008057 -45.606293l40.204712 0" fill-rule="evenodd"/><path fill="#ffffff" fill-opacity="0.4" d="m476.0883 280.4338l0 0c3.7007446 0 6.7008057 20.41864 6.7008057 45.606293c0 25.187683 -3.000061 45.606293 -6.7008057 45.606293l0 0c-3.7007446 0 -6.700775 -20.41861 -6.700775 -45.606293c0 -25.187653 3.0000305 -45.606293 6.700775 -45.606293z" fill-rule="evenodd"/><path stroke="#000000" stroke-width="1.0" stroke-linejoin="round" stroke-linecap="butt" d="m476.0883 371.6464l0 0c-3.7007446 0 -6.700775 -20.41861 -6.700775 -45.606293c0 -25.187653 3.0000305 -45.606293 6.700775 -45.606293l0 0c3.7007446 0 6.7008057 20.41864 6.7008057 45.606293c0 25.187683 -3.000061 45.606293 -6.7008057 45.606293l-40.204712 0c-3.7007446 0 -6.7008057 -20.41861 -6.7008057 -45.606293c0 -25.187653 3.000061 -45.606293 6.7008057 -45.606293l40.204712 0" fill-rule="evenodd"/><path fill="#000000" fill-opacity="0.0" d="m386.11023 55.6063l0 68.125984" fill-rule="evenodd"/><path stroke="#000000" stroke-width="1.0" stroke-linejoin="round" stroke-linecap="butt" d="m386.11023 55.6063l0 62.125984" fill-rule="evenodd"/><path fill="#000000" stroke="#000000" stroke-width="1.0" stroke-linecap="butt" d="m384.4585 117.732285l1.6517334 4.5380936l1.6517334 -4.5380936z" fill-rule="evenodd"/><path fill="#000000" fill-opacity="0.0" d="m386.11142 185.64294l0 -39.74803" fill-rule="evenodd"/><path stroke="#000000" stroke-width="1.0" stroke-linejoin="round" stroke-linecap="butt" d="m386.11142 185.64294l0 -33.74803" fill-rule="evenodd"/><path fill="#000000" stroke="#000000" stroke-width="1.0" stroke-linecap="butt" d="m387.76315 151.89491l-1.6517334 -4.538101l-1.6517334 4.538101z" fill-rule="evenodd"/><path fill="#000000" fill-opacity="0.0" d="m348.84552 19.863518l88.88187 0l0 42.015747l-88.88187 0z" fill-rule="evenodd"/><path fill="#000000" d="m362.25177 42.596016l0.25 1.75l0.375 -1.578125l2.625 -9.25l1.46875 0l2.5625 9.25l0.359375 1.609375l0.28125 -1.78125l2.0625 -9.078125l1.765625 0l-3.21875 13.265625l-1.59375 0l-2.734375 -9.671875l-0.203125 -1.0l-0.21875 1.0l-2.828125 9.671875l-1.59375 0l-3.203125 -13.265625l1.75 0l2.09375 9.078125zm15.567566 4.1875l-1.75 0l0 -13.265625l1.75 0l0 13.265625zm3.1990051 0l0 -13.265625l3.734375 0q1.734375 0 3.0625 0.765625q1.328125 0.765625 2.046875 2.1875q0.734375 1.40625 0.734375 3.234375l0 0.84375q0 1.875 -0.71875 3.296875q-0.71875 1.40625 -2.0625 2.171875q-1.34375 0.75 -3.140625 0.765625l-3.65625 0zm1.734375 -11.828125l0 10.390625l1.84375 0q2.03125 0 3.15625 -1.25q1.125 -1.25 1.125 -3.578125l0 -0.78125q0 -2.25 -1.0625 -3.5q-1.0625 -1.265625 -3.015625 -1.28125l-2.046875 0zm19.40982 0l-4.265625 0l0 11.828125l-1.734375 0l0 -11.828125l-4.25 0l0 -1.4375l10.25 0l0 1.4375zm12.163055 11.828125l-1.765625 0l0 -6.125l-6.6875 0l0 6.125l-1.734375 0l0 -13.265625l1.734375 0l0 5.703125l6.6875 0l0 -5.703125l1.765625 0l0 13.265625z" fill-rule="nonzero"/><path fill="#000000" fill-opacity="0.0" d="m388.5013 134.8084l-164.69292 0" fill-rule="evenodd"/><path stroke="#000000" stroke-width="1.0" stroke-linejoin="round" stroke-linecap="butt" stroke-dasharray="1.0,3.0" d="m388.5013 134.8084l-164.69292 0" fill-rule="evenodd"/><path fill="#000000" fill-opacity="0.0" d="m181.31575 167.62541l88.88188 0l0 42.015747l-88.88188 0z" fill-rule="evenodd"/><path fill="#000000" d="m201.61263 190.34229q-0.25 2.09375 -1.5625 3.25q-1.296875 1.140625 -3.46875 1.140625q-2.34375 0 -3.765625 -1.6875q-1.421875 -1.6875 -1.421875 -4.515625l0 -1.265625q0 -1.859375 0.65625 -3.25q0.671875 -1.40625 1.875 -2.15625q1.21875 -0.765625 2.8125 -0.765625q2.109375 0 3.390625 1.1875q1.28125 1.171875 1.484375 3.265625l-1.765625 0q-0.21875 -1.578125 -0.984375 -2.28125q-0.765625 -0.71875 -2.125 -0.71875q-1.671875 0 -2.625 1.234375q-0.953125 1.234375 -0.953125 3.53125l0 1.28125q0 2.15625 0.890625 3.4375q0.90625 1.265625 2.53125 1.265625q1.453125 0 2.234375 -0.65625q0.78125 -0.65625 1.03125 -2.296875l1.765625 0zm9.877335 -1.921875l-5.75 0l0 4.6875l6.6875 0l0 1.4375l-8.421875 0l0 -13.265625l8.328125 0l0 1.4375l-6.59375 0l0 4.265625l5.75 0l0 1.4375zm13.30658 6.125l-1.765625 0l-6.671875 -10.21875l0 10.21875l-1.75 0l0 -13.265625l1.75 0l6.703125 10.265625l0 -10.265625l1.734375 0l0 13.265625zm12.004288 -11.828125l-4.265625 0l0 11.828125l-1.734375 0l0 -11.828125l-4.25 0l0 -1.4375l10.25 0l0 1.4375zm9.45993 5.703125l-5.75 0l0 4.6875l6.6875 0l0 1.4375l-8.421875 0l0 -13.265625l8.328125 0l0 1.4375l-6.59375 0l0 4.265625l5.75 0l0 1.4375zm7.9784546 0.765625l-3.125 0l0 5.359375l-1.75 0l0 -13.265625l4.390625 0q2.234375 0 3.4374847 1.03125q1.21875 1.015625 1.21875 2.953125q0 1.25 -0.671875 2.171875q-0.671875 0.921875 -1.8593597 1.375l3.1093597 5.625l0 0.109375l-1.875 0l-2.8749847 -5.359375zm-3.125 -1.4375l2.6875 0q1.3125 0 2.078125 -0.671875q0.76560974 -0.671875 0.76560974 -1.8125q0 -1.21875 -0.73435974 -1.875q-0.734375 -0.65625 -2.109375 -0.671875l-2.6875 0l0 5.03125z" fill-rule="nonzero"/><path fill="#000000" fill-opacity="0.0" d="m37.248928 305.0315l102.61417 0l0 42.015747l-102.61417 0z" fill-rule="evenodd"/><path fill="#000000" d="m55.108303 328.48276l-5.546875 0l-1.25 3.46875l-1.8125 0l5.0625 -13.265625l1.53125 0l5.078125 13.265625l-1.796875 0l-1.265625 -3.46875zm-5.03125 -1.4375l4.515625 0l-2.265625 -6.203125l-2.25 6.203125zm11.764038 4.90625l-1.75 0l0 -13.265625l1.75 0l0 13.265625zm8.058369 -5.359375l-3.125 0l0 5.359375l-1.75 0l0 -13.265625l4.390625 0q2.234375 0 3.4375 1.03125q1.21875 1.015625 1.21875 2.953125q0 1.25 -0.671875 2.171875q-0.671875 0.921875 -1.859375 1.375l3.109375 5.625l0 0.109375l-1.875 0l-2.875 -5.359375zm-3.125 -1.4375l2.6875 0q1.3125 0 2.078125 -0.671875q0.765625 -0.671875 0.765625 -1.8125q0 -1.21875 -0.734375 -1.875q-0.734375 -0.65625 -2.109375 -0.671875l-2.6875 0l0 5.03125zm17.0652 0.9375l-5.578125 0l0 5.859375l-1.734375 0l0 -13.265625l8.203125 0l0 1.4375l-6.46875 0l0 4.546875l5.578125 0l0 1.421875zm4.7494507 4.421875l6.28125 0l0 1.4375l-8.03125 0l0 -13.265625l1.75 0l0 11.828125zm17.883713 -4.765625q0 1.953125 -0.65625 3.40625q-0.640625 1.453125 -1.84375 2.21875q-1.203125 0.765625 -2.8125 0.765625q-1.5625 0 -2.78125 -0.765625q-1.203125 -0.78125 -1.875 -2.203125q-0.671875 -1.421875 -0.6875 -3.296875l0 -0.96875q0 -1.90625 0.65625 -3.375q0.671875 -1.46875 1.890625 -2.25q1.21875 -0.78125 2.78125 -0.78125q1.59375 0 2.8125 0.78125q1.21875 0.765625 1.859375 2.234375q0.65625 1.453125 0.65625 3.390625l0 0.84375zm-1.734375 -0.859375q0 -2.359375 -0.953125 -3.609375q-0.9375 -1.265625 -2.640625 -1.265625q-1.65625 0 -2.609375 1.265625q-0.953125 1.25 -0.984375 3.5l0 0.96875q0 2.28125 0.953125 3.59375q0.96875 1.3125 2.65625 1.3125q1.6875 0 2.609375 -1.234375q0.9375 -1.234375 0.96875 -3.546875l0 -0.984375zm7.232422 2.875l0.25 1.75l0.375 -1.578125l2.625 -9.25l1.46875 0l2.5625 9.25l0.359375 1.609375l0.28125 -1.78125l2.0625 -9.078125l1.765625 0l-3.21875 13.265625l-1.59375 0l-2.734375 -9.671875l-0.203125 -1.0l-0.21875 1.0l-2.828125 9.671875l-1.59375 0l-3.203125 -13.265625l1.75 0l2.09375 9.078125z" fill-rule="nonzero"/><path fill="#000000" fill-opacity="0.0" d="m128.5538 326.01575l89.82678 0" fill-rule="evenodd"/><path stroke="#000000" stroke-width="1.0" stroke-linejoin="round" stroke-linecap="butt" d="m128.5538 326.01575l83.82678 0" fill-rule="evenodd"/><path fill="#000000" stroke="#000000" stroke-width="1.0" stroke-linecap="butt" d="m212.38058 327.66748l4.538086 -1.6517334l-4.538086 -1.6517334z" fill-rule="evenodd"/><path fill="#000000" fill-opacity="0.0" d="m479.51733 302.97638l88.8819 0l0 42.015747l-88.8819 0z" fill-rule="evenodd"/><path fill="#000000" d="m494.45483 327.56824l3.78125 -10.9375l1.921875 0l-4.921875 13.265625l-1.546875 0l-4.921875 -13.265625l1.90625 0l3.78125 10.9375zm14.963409 -3.796875l-5.75 0l0 4.6875l6.6875 0l0 1.4375l-8.421875 0l0 -13.265625l8.328125 0l0 1.4375l-6.59375 0l0 4.265625l5.75 0l0 1.4375zm13.30661 6.125l-1.765625 0l-6.671875 -10.21875l0 10.21875l-1.75 0l0 -13.265625l1.75 0l6.703125 10.265625l0 -10.265625l1.734375 0l0 13.265625zm12.004272 -11.828125l-4.265625 0l0 11.828125l-1.734375 0l0 -11.828125l-4.25 0l0 -1.4375l10.25 0l0 1.4375z" fill-rule="nonzero"/><path fill="#000000" fill-opacity="0.0" d="m226.1114 176.70247l0 -39.74803" fill-rule="evenodd"/><path stroke="#000000" stroke-width="1.0" stroke-linejoin="round" stroke-linecap="butt" d="m226.1114 176.70247l0 -33.74803" fill-rule="evenodd"/><path fill="#000000" stroke="#000000" stroke-width="1.0" stroke-linecap="butt" d="m227.76314 142.95444l-1.6517334 -4.538101l-1.6517334 4.538101z" fill-rule="evenodd"/><path fill="#000000" fill-opacity="0.0" d="m165.11816 402.65878l88.8819 0l0 42.015747l-88.8819 0z" fill-rule="evenodd"/><path fill="#000000" d="m179.57129 423.67255q-2.25 -0.65625 -3.28125 -1.59375q-1.03125 -0.9375 -1.03125 -2.328125q0 -1.5625 1.25 -2.59375q1.265625 -1.03125 3.265625 -1.03125q1.359375 0 2.4375 0.53125q1.078125 0.53125 1.65625 1.46875q0.59375 0.921875 0.59375 2.03125l-1.765625 0q0 -1.203125 -0.765625 -1.890625q-0.765625 -0.6875 -2.15625 -0.6875q-1.296875 0 -2.015625 0.5625q-0.71875 0.5625 -0.71875 1.578125q0 0.8125 0.6875 1.375q0.6875 0.5625 2.328125 1.03125q1.65625 0.453125 2.59375 1.015625q0.9375 0.5625 1.375 1.3125q0.453125 0.75 0.453125 1.75q0 1.609375 -1.25 2.59375q-1.25 0.96875 -3.359375 0.96875q-1.375 0 -2.5625 -0.515625q-1.171875 -0.53125 -1.8125 -1.4375q-0.640625 -0.921875 -0.640625 -2.078125l1.75 0q0 1.203125 0.890625 1.90625q0.890625 0.6875 2.375 0.6875q1.375 0 2.109375 -0.5625q0.75 -0.5625 0.75 -1.53125q0 -0.984375 -0.6875 -1.515625q-0.6875 -0.53125 -2.46875 -1.046875zm8.896164 0.71875l0 5.1875l-1.734375 0l0 -13.265625l4.890625 0q2.171875 0 3.40625 1.109375q1.234375 1.109375 1.234375 2.953125q0 1.921875 -1.21875 2.96875q-1.203125 1.046875 -3.453125 1.046875l-3.125 0zm0 -1.4375l3.15625 0q1.390625 0 2.140625 -0.65625q0.75 -0.65625 0.75 -1.90625q0 -1.1875 -0.75 -1.890625q-0.75 -0.71875 -2.046875 -0.75l-3.25 0l0 5.203125zm14.89447 1.265625l-3.125 0l0 5.359375l-1.75 0l0 -13.265625l4.390625 0q2.234375 0 3.4375 1.03125q1.21875 1.015625 1.21875 2.953125q0 1.25 -0.671875 2.171875q-0.671875 0.921875 -1.859375 1.375l3.109375 5.625l0 0.109375l-1.875 0l-2.875 -5.359375zm-3.125 -1.4375l2.6875 0q1.3125 0 2.078125 -0.671875q0.765625 -0.671875 0.765625 -1.8125q0 -1.21875 -0.734375 -1.875q-0.734375 -0.65625 -2.109375 -0.671875l-2.6875 0l0 5.03125zm11.627701 6.796875l-1.75 0l0 -13.265625l1.75 0l0 13.265625zm13.38649 0l-1.765625 0l-6.671875 -10.21875l0 10.21875l-1.75 0l0 -13.265625l1.75 0l6.703125 10.265625l0 -10.265625l1.734375 0l0 13.265625zm12.893616 -1.734375q-0.671875 0.953125 -1.875 1.4375q-1.203125 0.484375 -2.8125 0.484375q-1.625 0 -2.890625 -0.765625q-1.25 -0.765625 -1.9375 -2.15625q-0.6875 -1.40625 -0.703125 -3.265625l0 -1.15625q0 -2.984375 1.390625 -4.640625q1.40625 -1.65625 3.9375 -1.65625q2.078125 0 3.34375 1.0625q1.265625 1.0625 1.546875 3.015625l-1.75 0q-0.484375 -2.625 -3.125 -2.625q-1.765625 0 -2.671875 1.234375q-0.90625 1.234375 -0.90625 3.5625l0 1.09375q0 2.234375 1.015625 3.546875q1.015625 1.3125 2.765625 1.3125q0.984375 0 1.71875 -0.21875q0.734375 -0.21875 1.21875 -0.734375l0 -2.984375l-3.078125 0l0 -1.421875l4.8125 0l0 4.875z" fill-rule="nonzero"/><path fill="#000000" fill-opacity="0.0" d="m245.3202 423.33072c23.275589 0 34.913376 -14.574799 46.551193 -29.149628c11.637787 -14.574799 23.275574 -29.149597 46.551178 -29.149597" fill-rule="evenodd"/><path stroke="#000000" stroke-width="1.0" stroke-linejoin="round" stroke-linecap="butt" d="m245.3202 423.33072c23.275589 0 34.913376 -14.574799 46.551193 -29.149628c5.818878 -7.287384 11.637787 -14.574799 18.911407 -20.040344c3.6368103 -2.732788 7.6372986 -5.0101013 12.183319 -6.6042175c2.2730103 -0.7970276 4.6824036 -1.4233093 7.2509155 -1.8503113c0.64212036 -0.10675049 1.2941895 -0.20101929 1.956543 -0.2824402l0.25872803 -0.030426025" fill-rule="evenodd"/><path fill="#000000" stroke="#000000" stroke-width="1.0" stroke-linecap="butt" d="m332.52643 367.02243l4.436615 -1.9076233l-4.6248474 -1.3904724z" fill-rule="evenodd"/><path fill="#000000" fill-opacity="0.0" d="m904.5921 184.53543l-91.212585 0" fill-rule="evenodd"/><path stroke="#000000" stroke-width="1.0" stroke-linejoin="round" stroke-linecap="butt" d="m904.5921 184.53543l-85.212585 0" fill-rule="evenodd"/><path fill="#000000" stroke="#000000" stroke-width="1.0" stroke-linecap="butt" d="m819.3795 182.8837l-4.538086 1.6517334l4.538086 1.6517334z" fill-rule="evenodd"/><path fill="#000000" fill-opacity="0.0" d="m825.07166 175.62541l88.8819 0l0 42.015747l-88.8819 0z" fill-rule="evenodd"/><path fill="#000000" d="m835.6185 202.54541l0 -13.265625l3.734375 0q1.734375 0 3.0625 0.765625q1.328125 0.765625 2.046875 2.1875q0.734375 1.40625 0.734375 3.234375l0 0.84375q0 1.875 -0.71875 3.296875q-0.71875 1.40625 -2.0625 2.171875q-1.34375 0.75 -3.140625 0.765625l-3.65625 0zm1.734375 -11.828125l0 10.390625l1.84375 0q2.03125 0 3.15625 -1.25q1.125 -1.25 1.125 -3.578125l0 -0.78125q0 -2.25 -1.0625 -3.5q-1.0625 -1.265625 -3.015625 -1.28125l-2.046875 0zm17.98407 5.703125l-5.75 0l0 4.6875l6.6875 0l0 1.4375l-8.421875 0l0 -13.265625l8.328125 0l0 1.4375l-6.59375 0l0 4.265625l5.75 0l0 1.4375zm12.86908 1.921875q-0.25 2.09375 -1.5625 3.25q-1.296875 1.140625 -3.46875 1.140625q-2.34375 0 -3.765625 -1.6875q-1.421875 -1.6875 -1.421875 -4.515625l0 -1.265625q0 -1.859375 0.65625 -3.25q0.671875 -1.40625 1.875 -2.15625q1.21875 -0.765625 2.8125 -0.765625q2.109375 0 3.390625 1.1875q1.28125 1.171875 1.484375 3.265625l-1.765625 0q-0.21875 -1.578125 -0.984375 -2.28125q-0.765625 -0.71875 -2.125 -0.71875q-1.671875 0 -2.625 1.234375q-0.953125 1.234375 -0.953125 3.53125l0 1.28125q0 2.15625 0.890625 3.4375q0.90625 1.265625 2.53125 1.265625q1.453125 0 2.234375 -0.65625q0.78125 -0.65625 1.03125 -2.296875l1.765625 0zm9.705444 0.734375l-5.546875 0l-1.25 3.46875l-1.8125 0l5.0625 -13.265625l1.53125 0l5.078125 13.265625l-1.796875 0l-1.265625 -3.46875zm-5.03125 -1.4375l4.515625 0l-2.265625 -6.203125l-2.25 6.203125zm13.063538 -1.703125l3.46875 -6.65625l1.984375 0l-4.578125 8.3125l0 4.953125l-1.75 0l0 -4.953125l-4.5625 -8.3125l2.0 0l3.4375 6.65625z" fill-rule="nonzero"/><path fill="#000000" fill-opacity="0.0" d="m825.07764 228.33974l88.8819 0l0 42.01573l-88.8819 0z" fill-rule="evenodd"/><path fill="#000000" d="m842.937 251.79099l-5.546875 0l-1.25 3.46875l-1.8125 0l5.0625 -13.265625l1.53125 0l5.078125 13.265625l-1.796875 0l-1.265625 -3.46875zm-5.03125 -1.4375l4.515625 0l-2.265625 -6.203125l-2.25 6.203125zm20.076538 4.90625l-1.765625 0l-6.671875 -10.21875l0 10.21875l-1.75 0l0 -13.265625l1.75 0l6.703125 10.265625l0 -10.265625l1.734375 0l0 13.265625zm12.893616 -1.734375q-0.671875 0.953125 -1.875 1.4375q-1.203125 0.484375 -2.8125 0.484375q-1.625 0 -2.890625 -0.765625q-1.25 -0.765625 -1.9375 -2.15625q-0.6875 -1.40625 -0.703125 -3.265625l0 -1.15625q0 -2.984375 1.390625 -4.640625q1.40625 -1.65625 3.9375 -1.65625q2.078125 0 3.34375 1.0625q1.265625 1.0625 1.546875 3.015625l-1.75 0q-0.484375 -2.625 -3.125 -2.625q-1.765625 0 -2.671875 1.234375q-0.90625 1.234375 -0.90625 3.5625l0 1.09375q0 2.234375 1.015625 3.546875q1.015625 1.3125 2.765625 1.3125q0.984375 0 1.71875 -0.21875q0.734375 -0.21875 1.21875 -0.734375l0 -2.984375l-3.078125 0l0 -1.421875l4.8125 0l0 4.875zm4.6765137 0.296875l6.28125 0l0 1.4375l-8.03125 0l0 -13.265625l1.75 0l0 11.828125zm15.77301 -4.6875l-5.75 0l0 4.6875l6.6875 0l0 1.4375l-8.421875 0l0 -13.265625l8.328125 0l0 1.4375l-6.59375 0l0 4.265625l5.75 0l0 1.4375z" fill-rule="nonzero"/><path fill="#000000" fill-opacity="0.0" d="m904.55646 74.41732l0 166.33072" fill-rule="evenodd"/><path stroke="#000000" stroke-width="1.0" stroke-linejoin="round" stroke-linecap="butt" stroke-dasharray="1.0,3.0" d="m904.55646 74.41732l0 166.33072" fill-rule="evenodd"/><path fill="#000000" fill-opacity="0.0" d="m612.50854 61.779003l68.72443 0l0 42.01575l-68.72443 0z" fill-rule="evenodd"/><path fill="#000000" d="m627.9148 83.33963l-3.125 0l0 5.359375l-1.75 0l0 -13.265625l4.390625 0q2.234375 0 3.4375 1.03125q1.21875 1.015625 1.21875 2.953125q0 1.25 -0.671875 2.171875q-0.671875 0.921875 -1.859375 1.375l3.109375 5.625l0 0.109375l-1.875 0l-2.875 -5.359375zm-3.125 -1.4375l2.6875 0q1.3125 0 2.078125 -0.671875q0.765625 -0.671875 0.765625 -1.8125q0 -1.21875 -0.734375 -1.875q-0.734375 -0.65625 -2.109375 -0.671875l-2.6875 0l0 5.03125zm19.940247 0.59375q0 1.953125 -0.65625 3.40625q-0.640625 1.453125 -1.84375 2.21875q-1.203125 0.765625 -2.8125 0.765625q-1.5625 0 -2.78125 -0.765625q-1.203125 -0.78125 -1.875 -2.203125q-0.671875 -1.421875 -0.6875 -3.296875l0 -0.96875q0 -1.90625 0.65625 -3.375q0.671875 -1.46875 1.890625 -2.25q1.21875 -0.78125 2.78125 -0.78125q1.59375 0 2.8125 0.78125q1.21875 0.765625 1.859375 2.234375q0.65625 1.453125 0.65625 3.390625l0 0.84375zm-1.734375 -0.859375q0 -2.359375 -0.953125 -3.609375q-0.9375 -1.265625 -2.640625 -1.265625q-1.65625 0 -2.609375 1.265625q-0.953125 1.25 -0.984375 3.5l0 0.96875q0 2.28125 0.953125 3.59375q0.96875 1.3125 2.65625 1.3125q1.6875 0 2.609375 -1.234375q0.9375 -1.234375 0.96875 -3.546875l0 -0.984375zm14.560547 0.859375q0 1.953125 -0.65625 3.40625q-0.640625 1.453125 -1.84375 2.21875q-1.203125 0.765625 -2.8125 0.765625q-1.5625 0 -2.78125 -0.765625q-1.203125 -0.78125 -1.875 -2.203125q-0.671875 -1.421875 -0.6875 -3.296875l0 -0.96875q0 -1.90625 0.65625 -3.375q0.671875 -1.46875 1.890625 -2.25q1.21875 -0.78125 2.78125 -0.78125q1.59375 0 2.8125 0.78125q1.21875 0.765625 1.859375 2.234375q0.65625 1.453125 0.65625 3.390625l0 0.84375zm-1.734375 -0.859375q0 -2.359375 -0.953125 -3.609375q-0.9375 -1.265625 -2.640625 -1.265625q-1.65625 0 -2.609375 1.265625q-0.953125 1.25 -0.984375 3.5l0 0.96875q0 2.28125 0.953125 3.59375q0.96875 1.3125 2.65625 1.3125q1.6875 0 2.609375 -1.234375q0.9375 -1.234375 0.96875 -3.546875l0 -0.984375zm13.283203 -4.765625l-4.265625 0l0 11.828125l-1.734375 0l0 -11.828125l-4.25 0l0 -1.4375l10.25 0l0 1.4375z" fill-rule="nonzero"/><path fill="#000000" fill-opacity="0.0" d="m681.233 82.78688l222.42517 -0.37795258" fill-rule="evenodd"/><path stroke="#000000" stroke-width="1.0" stroke-linejoin="round" stroke-linecap="butt" d="m681.233 82.78688l216.42517 -0.3677597" fill-rule="evenodd"/><path fill="#000000" stroke="#000000" stroke-width="1.0" stroke-linecap="butt" d="m897.66095 84.070854l4.5352783 -1.6594467l-4.5408936 -1.6440125z" fill-rule="evenodd"/><path fill="#000000" fill-opacity="0.0" d="m612.50854 82.78688l-212.97635 -0.47244263" fill-rule="evenodd"/><path stroke="#000000" stroke-width="1.0" stroke-linejoin="round" stroke-linecap="butt" d="m612.50854 82.78688l-206.97635 -0.45913696" fill-rule="evenodd"/><path fill="#000000" stroke="#000000" stroke-width="1.0" stroke-linecap="butt" d="m405.53583 80.67602l-4.541748 1.6416626l4.534424 1.6617966z" fill-rule="evenodd"/><path fill="#000000" fill-opacity="0.0" d="m397.67715 112.27034l0 -35.27559" fill-rule="evenodd"/><path stroke="#000000" stroke-width="1.0" stroke-linejoin="round" stroke-linecap="butt" stroke-dasharray="1.0,3.0" d="m397.67715 112.27034l0 -35.27559" fill-rule="evenodd"/><path fill="#000000" fill-opacity="0.0" d="m904.5921 238.41937l-91.212585 0" fill-rule="evenodd"/><path stroke="#000000" stroke-width="1.0" stroke-linejoin="round" stroke-linecap="butt" d="m904.5921 238.41937l-85.212585 0" fill-rule="evenodd"/><path fill="#000000" stroke="#000000" stroke-width="1.0" stroke-linecap="butt" d="m819.3795 236.76764l-4.538086 1.6517334l4.538086 1.6517334z" fill-rule="evenodd"/><path fill="#000000" fill-opacity="0.0" d="m399.07764 119.10162l88.8819 0l0 42.015747l-88.8819 0z" fill-rule="evenodd"/><path fill="#000000" d="m414.01514 143.6935l3.78125 -10.9375l1.921875 0l-4.921875 13.265625l-1.546875 0l-4.921875 -13.265625l1.90625 0l3.78125 10.9375zm17.548065 -3.875q0 1.953125 -0.65625 3.40625q-0.640625 1.453125 -1.84375 2.21875q-1.203125 0.765625 -2.8125 0.765625q-1.5625 0 -2.78125 -0.765625q-1.203125 -0.78125 -1.875 -2.203125q-0.671875 -1.421875 -0.6875 -3.296875l0 -0.96875q0 -1.90625 0.65625 -3.375q0.671875 -1.46875 1.890625 -2.25q1.21875 -0.78125 2.78125 -0.78125q1.59375 0 2.8125 0.78125q1.21875 0.765625 1.859375 2.234375q0.65625 1.453125 0.65625 3.390625l0 0.84375zm-1.734375 -0.859375q0 -2.359375 -0.953125 -3.609375q-0.9375 -1.265625 -2.640625 -1.265625q-1.65625 0 -2.609375 1.265625q-0.953125 1.25 -0.984375 3.5l0 0.96875q0 2.28125 0.953125 3.59375q0.96875 1.3125 2.65625 1.3125q1.6875 0 2.609375 -1.234375q0.9375 -1.234375 0.96875 -3.546875l0 -0.984375zm9.232422 1.703125l-3.125 0l0 5.359375l-1.75 0l0 -13.265625l4.390625 0q2.234375 0 3.4375 1.03125q1.21875 1.015625 1.21875 2.953125q0 1.25 -0.671875 2.171875q-0.671875 0.921875 -1.859375 1.375l3.109375 5.625l0 0.109375l-1.875 0l-2.875 -5.359375zm-3.125 -1.4375l2.6875 0q1.3125 0 2.078125 -0.671875q0.765625 -0.671875 0.765625 -1.8125q0 -1.21875 -0.734375 -1.875q-0.734375 -0.65625 -2.109375 -0.671875l-2.6875 0l0 5.03125zm18.17978 -5.03125l-4.265625 0l0 11.828125l-1.734375 0l0 -11.828125l-4.25 0l0 -1.4375l10.25 0l0 1.4375zm9.45993 5.703125l-5.75 0l0 4.6875l6.6875 0l0 1.4375l-8.421875 0l0 -13.265625l8.328125 0l0 1.4375l-6.59375 0l0 4.265625l5.75 0l0 1.4375zm7.4315796 -2.0625l3.1875 -5.078125l2.0625 0l-4.1875 6.578125l4.28125 6.6875l-2.078125 0l-3.265625 -5.171875l-3.265625 5.171875l-2.078125 0l4.296875 -6.6875l-4.1875 -6.578125l2.046875 0l3.1875 5.078125z" fill-rule="nonzero"/><path fill="#000000" fill-opacity="0.0" d="m403.62952 129.18126l91.212616 0" fill-rule="evenodd"/><path stroke="#000000" stroke-width="1.0" stroke-linejoin="round" stroke-linecap="butt" d="m403.62952 129.18126l85.212585 0" fill-rule="evenodd"/><path fill="#000000" stroke="#000000" stroke-width="1.0" stroke-linecap="butt" d="m488.8421 130.833l4.5381165 -1.6517334l-4.5381165 -1.6517258z" fill-rule="evenodd"/><path fill="#000000" fill-opacity="0.0" d="m478.81616 192.62466l102.614136 0l0 42.015762l-102.614136 0z" fill-rule="evenodd"/><path fill="#000000" d="m489.0349 214.15404q0 -2.046875 0.546875 -3.9375q0.546875 -1.90625 1.640625 -3.453125q1.09375 -1.546875 2.265625 -2.1875l0.34375 1.109375q-1.328125 1.03125 -2.1875 3.125q-0.84375 2.09375 -0.921875 4.6875l-0.015625 0.765625q0 3.515625 1.296875 6.109375q0.765625 1.546875 1.828125 2.421875l-0.34375 1.03125q-1.203125 -0.671875 -2.3125 -2.265625q-2.140625 -3.09375 -2.140625 -7.40625zm8.454773 3.953125l6.28125 0l0 1.4375l-8.03125 0l0 -13.265625l1.75 0l0 11.828125zm11.913666 -3.859375q0 2.03125 -0.546875 3.90625q-0.53125 1.859375 -1.625 3.421875q-1.09375 1.578125 -2.296875 2.25l-0.359375 -1.03125q1.40625 -1.078125 2.25 -3.328125q0.859375 -2.265625 0.875 -5.03125l0 -0.296875q0 -1.90625 -0.40625 -3.546875q-0.390625 -1.65625 -1.109375 -2.953125q-0.71875 -1.296875 -1.609375 -2.03125l0.359375 -1.03125q1.203125 0.671875 2.28125 2.234375q1.09375 1.546875 1.640625 3.421875q0.546875 1.875 0.546875 4.015625zm9.354462 5.296875l-1.75 0l0 -13.265625l1.75 0l0 13.265625zm13.386475 0l-1.765625 0l-6.671875 -10.21875l0 10.21875l-1.75 0l0 -13.265625l1.75 0l6.703125 10.265625l0 -10.265625l1.734375 0l0 13.265625zm7.402771 -5.390625q0 -2.046875 0.546875 -3.9375q0.546875 -1.90625 1.640625 -3.453125q1.09375 -1.546875 2.265625 -2.1875l0.34375 1.109375q-1.328125 1.03125 -2.1875 3.125q-0.84375 2.09375 -0.921875 4.6875l-0.015625 0.765625q0 3.515625 1.296875 6.109375q0.765625 1.546875 1.828125 2.421875l-0.34375 1.03125q-1.203125 -0.671875 -2.3125 -2.265625q-2.140625 -3.09375 -2.140625 -7.40625zm11.564148 0.03125l-3.125 0l0 5.359375l-1.75 0l0 -13.265625l4.390625 0q2.234375 0 3.4375 1.03125q1.21875 1.015625 1.21875 2.953125q0 1.25 -0.671875 2.171875q-0.671875 0.921875 -1.859375 1.375l3.109375 5.625l0 0.109375l-1.875 0l-2.875 -5.359375zm-3.125 -1.4375l2.6875 0q1.3125 0 2.078125 -0.671875q0.765625 -0.671875 0.765625 -1.8125q0 -1.21875 -0.734375 -1.875q-0.734375 -0.65625 -2.109375 -0.671875l-2.6875 0l0 5.03125zm13.377686 1.5q0 2.03125 -0.546875 3.90625q-0.53125 1.859375 -1.625 3.421875q-1.09375 1.578125 -2.296875 2.25l-0.359375 -1.03125q1.40625 -1.078125 2.25 -3.328125q0.859375 -2.265625 0.875 -5.03125l0 -0.296875q0 -1.90625 -0.40625 -3.546875q-0.390625 -1.65625 -1.109375 -2.953125q-0.71875 -1.296875 -1.609375 -2.03125l0.359375 -1.03125q1.203125 0.671875 2.28125 2.234375q1.09375 1.546875 1.640625 3.421875q0.546875 1.875 0.546875 4.015625z" fill-rule="nonzero"/><path fill="#000000" fill-opacity="0.0" d="m918.8163 113.661415l62.897644 0l0 42.015755l-62.897644 0z" fill-rule="evenodd"/><path fill="#000000" d="m939.55066 134.3783q0 1.953125 -0.65625 3.40625q-0.640625 1.453125 -1.84375 2.21875q-1.203125 0.765625 -2.8125 0.765625q-1.5625 0 -2.78125 -0.765625q-1.203125 -0.78125 -1.875 -2.203125q-0.671875 -1.421875 -0.6875 -3.296875l0 -0.96875q0 -1.90625 0.65625 -3.375q0.671875 -1.46875 1.890625 -2.2500076q1.21875 -0.78125 2.78125 -0.78125q1.59375 0 2.8125 0.78125q1.21875 0.7656326 1.859375 2.2343826q0.65625 1.453125 0.65625 3.390625l0 0.84375zm-1.734375 -0.859375q0 -2.359375 -0.953125 -3.609375q-0.9375 -1.265625 -2.640625 -1.265625q-1.65625 0 -2.609375 1.265625q-0.953125 1.25 -0.984375 3.5l0 0.96875q0 2.28125 0.953125 3.59375q0.96875 1.3125 2.65625 1.3125q1.6875 0 2.609375 -1.234375q0.9375 -1.234375 0.96875 -3.546875l0 -0.984375zm13.701172 -6.2031326l0 9.015633q0 1.875 -1.171875 3.078125q-1.171875 1.1875 -3.1875 1.328125l-0.453125 0.03125q-2.1875 0 -3.484375 -1.171875q-1.28125 -1.1875 -1.296875 -3.25l0 -9.031258l1.71875 0l0 8.984383q0 1.4375 0.796875 2.234375q0.796875 0.796875 2.265625 0.796875q1.484375 0 2.265625 -0.78125q0.796875 -0.796875 0.796875 -2.234375l0 -9.000008l1.75 0zm11.925537 1.4375076l-4.265625 0l0 11.828125l-1.734375 0l0 -11.828125l-4.25 0l0 -1.4375076l10.25 0l0 1.4375076z" fill-rule="nonzero"/><path fill="#000000" fill-opacity="0.0" d="m926.23737 117.76893l39.748047 0" fill-rule="evenodd"/><path stroke="#000000" stroke-width="1.0" stroke-linejoin="round" stroke-linecap="butt" d="m926.23737 117.76893l33.748047 0" fill-rule="evenodd"/><path fill="#000000" stroke="#000000" stroke-width="1.0" stroke-linecap="butt" d="m959.9854 119.42066l4.538086 -1.6517334l-4.538086 -1.6517334z" fill-rule="evenodd"/><path fill="#000000" fill-opacity="0.0" d="m926.73737 151.26892l39.748047 0" fill-rule="evenodd"/><path stroke="#000000" stroke-width="1.0" stroke-linejoin="round" stroke-linecap="butt" d="m926.73737 151.26892l33.748047 0" fill-rule="evenodd"/><path fill="#000000" stroke="#000000" stroke-width="1.0" stroke-linecap="butt" d="m960.4854 152.92065l4.538086 -1.6517334l-4.538086 -1.6517334z" fill-rule="evenodd"/><path fill="#000000" fill-opacity="0.0" d="m961.3163 96.661415l53.606262 0l0 42.015755l-53.606262 0z" fill-rule="evenodd"/><path fill="#000000" d="m971.53503 118.19079q0 -2.046875 0.546875 -3.9375q0.546875 -1.90625 1.640625 -3.453125q1.09375 -1.546875 2.265625 -2.1875l0.34375 1.109375q-1.328125 1.03125 -2.1875 3.125q-0.84375 2.09375 -0.921875 4.6875l-0.015625 0.765625q0 3.515625 1.296875 6.109375q0.765625 1.546875 1.828125 2.421875l-0.34375 1.03125q-1.203125 -0.671875 -2.3125 -2.265625q-2.140625 -3.09375 -2.140625 -7.40625zm8.454773 3.953125l6.28125 0l0 1.4375l-8.03125 0l0 -13.265625l1.75 0l0 11.828125zm11.913635 -3.859375q0 2.03125 -0.546875 3.90625q-0.53125 1.859375 -1.625 3.421875q-1.09375 1.578125 -2.296875 2.25l-0.359375 -1.03125q1.40625 -1.078125 2.25 -3.328125q0.859375 -2.265625 0.875 -5.03125l0 -0.296875q0 -1.90625 -0.40625 -3.546875q-0.390625 -1.65625 -1.109375 -2.953125q-0.71875 -1.296875 -1.609375 -2.03125l0.359375 -1.03125q1.203125 0.671875 2.28125 2.234375q1.09375 1.546875 1.640625 3.421875q0.546875 1.875 0.546875 4.015625z" fill-rule="nonzero"/><path fill="#000000" fill-opacity="0.0" d="m961.3163 128.66142l53.606262 0l0 42.015747l-53.606262 0z" fill-rule="evenodd"/><path fill="#000000" d="m971.53503 150.1908q0 -2.046875 0.546875 -3.9375q0.546875 -1.90625 1.640625 -3.453125q1.09375 -1.546875 2.265625 -2.1875l0.34375 1.109375q-1.328125 1.03125 -2.1875 3.125q-0.84375 2.09375 -0.921875 4.6875l-0.015625 0.765625q0 3.515625 1.296875 6.109375q0.765625 1.546875 1.828125 2.421875l-0.34375 1.03125q-1.203125 -0.671875 -2.3125 -2.265625q-2.140625 -3.09375 -2.140625 -7.40625zm11.564148 0.03125l-3.125 0l0 5.359375l-1.75 0l0 -13.265625l4.390625 0q2.234375 0 3.4375 1.03125q1.21875 1.015625 1.21875 2.953125q0 1.25 -0.671875 2.171875q-0.671875 0.921875 -1.859375 1.375l3.109375 5.625l0 0.109375l-1.875 0l-2.875 -5.359375zm-3.125 -1.4375l2.6875 0q1.3125 0 2.078125 -0.671875q0.765625 -0.671875 0.765625 -1.8125q0 -1.21875 -0.734375 -1.875q-0.734375 -0.65625 -2.109375 -0.671875l-2.6875 0l0 5.03125zm13.377686 1.5q0 2.03125 -0.546875 3.90625q-0.53125 1.859375 -1.625 3.421875q-1.09375 1.578125 -2.296875 2.25l-0.359375 -1.03125q1.40625 -1.078125 2.25 -3.328125q0.859375 -2.265625 0.875 -5.03125l0 -0.296875q0 -1.90625 -0.40625 -3.546875q-0.390625 -1.65625 -1.109375 -2.953125q-0.71875 -1.296875 -1.609375 -2.03125l0.359375 -1.03125q1.203125 0.671875 2.28125 2.234375q1.09375 1.546875 1.640625 3.421875q0.546875 1.875 0.546875 4.015625z" fill-rule="nonzero"/></g></svg>